<svg width="180" height="156" viewBox="0 0 180 156" fill="none" xmlns="http://www.w3.org/2000/svg">
<path d="M56.9033 56.3605C56.9033 54.9021 57.8139 53.5985 59.1841 53.0949L175.313 10.4211C177.588 9.5854 180 11.2664 180 13.6867V151.513C180 153.786 177.853 155.448 175.649 154.883L59.5197 125.066C57.9798 124.671 56.9033 123.284 56.9033 121.696V56.3605Z" fill="#FFC200"/>
<path d="M58.6453 60.7443C58.6453 59.269 59.5766 57.9542 60.9696 57.4632L76.647 51.9371C78.9138 51.1382 81.2904 52.8176 81.2904 55.2184V70.9591C81.2904 73.2144 79.1746 74.8742 76.9803 74.3389L61.3029 70.516C59.7427 70.1356 58.6453 68.7392 58.6453 67.1357V60.7443Z" fill="#FFE490"/>
<path d="M79.5483 53.491C79.5483 52.0231 80.4704 50.713 81.8535 50.2165L97.5309 44.5883C99.8012 43.7733 102.194 45.4535 102.194 47.8627V63.4061C102.194 65.6661 100.07 67.3264 97.8729 66.7836L82.1955 62.9103C80.6405 62.5258 79.5483 61.1323 79.5483 59.5322V53.491Z" fill="white"/>
<path d="M100.452 45.8121C100.452 44.3365 101.384 43.0212 102.777 42.5306L118.455 37.0101C120.721 36.212 123.097 37.8915 123.097 40.2917V55.867C123.097 58.1271 120.973 59.7874 118.776 59.2446L103.099 55.371C101.544 54.9868 100.452 53.5931 100.452 51.9933V45.8121Z" fill="#FFE490"/>
<path d="M58.6453 65.5914C58.6453 64.0963 59.6016 62.7683 61.0207 62.2927L173.085 24.7361C175.343 23.9796 177.678 25.6569 177.678 28.0349V148.632C177.678 150.9 175.541 152.561 173.34 152.006L61.2756 123.721C59.7287 123.33 58.6453 121.94 58.6453 120.347V65.5914Z" fill="white"/>
<path d="M58.6453 70.3218L177.678 33.6357V148.623C177.678 150.893 175.536 152.555 173.333 151.994L61.2686 123.461C59.7253 123.068 58.6453 121.679 58.6453 120.089V70.3218Z" fill="#565656"/>
<path d="M58.6453 76.7508L177.678 42.9145V148.638C177.678 150.904 175.545 152.565 173.345 152.013L61.2802 123.895C59.7311 123.507 58.6453 122.116 58.6453 120.521V76.7508Z" fill="white"/>
<path d="M165.729 24.3534C166.851 24.3786 167.781 23.4905 167.806 22.3698C167.832 21.2491 166.942 20.3201 165.82 20.295C164.698 20.2698 163.768 21.1579 163.743 22.2786C163.718 23.3993 164.607 24.3283 165.729 24.3534Z" fill="#FAFF00"/>
<path d="M159.292 26.5292C160.414 26.5544 161.344 25.6663 161.369 24.5456C161.394 23.4249 160.505 22.4959 159.383 22.4708C158.261 22.4456 157.331 23.3337 157.305 24.4544C157.28 25.5751 158.169 26.504 159.292 26.5292Z" fill="#55FF46"/>
<path d="M171.58 22.6617C172.702 22.6868 173.633 21.7987 173.658 20.678C173.683 19.5573 172.794 18.6284 171.672 18.6032C170.55 18.578 169.619 19.4661 169.594 20.5868C169.569 21.7076 170.458 22.6365 171.58 22.6617Z" fill="#FF3D3D"/>
<path d="M126 35.9554V37.6123M126 37.6123V39.4349M126 37.6123L124.258 38.2751L127.742 36.9495" stroke="white" stroke-linecap="round" stroke-linejoin="round"/>
<path d="M60.8162 65.5154C60.8162 64.6791 61.3533 63.9374 62.1482 63.6758L170.506 27.9797C172.454 27.3377 174.462 28.7873 174.462 30.8368C174.462 32.1561 173.601 33.3215 172.339 33.7111L63.3286 67.3659C62.0808 67.751 60.8162 66.8196 60.8162 65.5154Z" fill="#EFEFEF"/>
<path d="M174.561 53.8799C176.384 63.4775 169.958 72.0685 160.349 73.8901C150.74 75.711 138.828 83.4849 137.004 73.8872C135.181 64.29 141.605 55.6984 151.215 53.8772C160.824 52.0561 172.737 44.2824 174.561 53.8799Z" fill="#E8E8E8"/>
<path d="M140.838 84.8321L148.868 82.9601L159.912 80.4032L169.464 78.533" stroke="#D9D9D9" stroke-width="2" stroke-linecap="round"/>
<path d="M140.516 89.0186L147.529 87.4365L155.958 85.8371L164.726 83.8393L170.826 82.702" stroke="#D9D9D9" stroke-width="2" stroke-linecap="round"/>
<path d="M100.452 95.7289L135.871 91.3383V136.283L100.452 128.744V95.7289Z" fill="#E8E8E8"/>
<path opacity="0.6" d="M60.9678 79.1599L95.2444 70.171V127.584L60.9678 120.045V79.1599Z" fill="#C0C0C0"/>
<path d="M101.613 78.29L134.129 71.6208V87.2307L101.613 92.4982V78.29Z" fill="#E8E8E8"/>
<path d="M77.8064 92.7881H94.0645V129.903L92.6128 114.703L92.1048 128.445L91.1612 120.006L90.1451 128.048L89.129 123.894L87.9677 129.903L86.8064 111.169L85.9354 123.894L84.7741 116.825L84.2661 126.855L83.0322 115.411L82.3064 126.457L80.9999 120.006L80.129 128.445L79.258 114.703L78.387 125.662L77.8064 92.7881Z" fill="white"/>
<path d="M138.194 72.4907H157.355V92.2082L155.58 78.1241L154.96 91.8121L153.807 83.4055L152.565 91.416L151.323 87.2788L150.169 91.0199L148.484 74.6034L147.774 90.6238L146 89.0395L145.379 90.2278L143.871 78.8287L142.984 89.8317L141.387 83.4055L140.589 89.4356L139.258 78.1241L138.194 89.0395V72.4907Z" fill="white"/>
<path d="M89.8624 64.4494C77.8366 55.3129 60.6432 47.366 45.7456 50.6146C45.225 50.728 44.8625 51.1944 44.8625 51.7266V55.1347C44.8625 55.8893 45.5729 56.4425 46.3139 56.2955C61.0786 53.3672 77.9893 61.2279 89.8624 70.2487C122.248 94.8526 123.493 85.7199 131.086 84.8153C131.723 84.7393 132.249 84.2272 132.249 83.587V80.1074C132.249 79.4666 131.723 78.94 131.086 79.016C123.493 79.9207 122.248 89.0534 89.8624 64.4494Z" fill="#949494"/>
<path d="M10.8442 13.9412L12.7046 18.2965L17.0653 16.4384L15.2049 12.0831L10.8442 13.9412ZM22.479 23.9865C21.6756 20.1063 20.2862 18.0014 18.6829 16.7434C17.1298 15.5248 15.3644 15.1306 14.1713 14.6517L13.7382 15.7278C15.158 16.2977 16.5861 16.5731 17.9655 17.6555C19.2947 18.6984 20.5767 20.5262 21.3418 24.2213L22.479 23.9865Z" fill="#CFD2D4"/>
<path d="M46.9365 44.7666C48.2581 56.0598 42.219 83.8532 30.9119 85.1731C19.6046 86.493 7.31101 60.84 5.9894 49.5466C4.66783 38.2533 12.0887 22.2683 23.3959 20.9483C34.7031 19.6284 45.6149 33.4733 46.9365 44.7666Z" fill="#D9D9D9"/>
<path d="M46.9365 44.7666C48.2581 56.0598 42.219 83.8532 30.9119 85.1731C19.6046 86.493 7.31101 60.84 5.9894 49.5466C4.66783 38.2533 12.0887 22.2683 23.3959 20.9483C34.7031 19.6284 45.6149 33.4733 46.9365 44.7666Z" fill="#134E78" fill-opacity="0.05"/>
<path d="M29.5268 59.2788C33.5268 67.853 31.7811 77.1255 25.6275 79.9891C20.0561 63.6863 11.2428 78.2238 7.24272 69.6496C3.24263 61.0754 4.98839 51.8031 11.142 48.9395C17.2956 46.0757 25.5267 50.705 29.5268 59.2788Z" fill="#DEE1E2"/>
<path d="M43.5676 32.1859C47.5712 38.1811 49.6627 46.1501 44.5938 49.5268C39.5248 52.9034 28.266 50.7688 24.2623 44.7736C20.2587 38.7784 24.1377 28.8365 29.2067 25.4599C35.7289 21.7472 39.564 26.1907 43.5676 32.1859Z" fill="#212121"/>
<path d="M43.5676 32.1859C47.5712 38.1811 49.6627 46.1501 44.5938 49.5268C39.5248 52.9034 28.266 50.7688 24.2623 44.7736C20.2587 38.7784 24.1377 28.8365 29.2067 25.4599C35.7289 21.7472 39.564 26.1907 43.5676 32.1859Z" fill="white" fill-opacity="0.2"/>
<path d="M24.2621 44.7736C26.8721 35.746 34.1767 45.2558 44.5936 49.5268C45.9029 48.6546 46.7345 47.4759 47.1788 46.1041C38.0513 47.2639 24.2621 36.5353 26.4384 28.0911C22.891 32.5309 20.9904 39.9227 24.2621 44.7736Z" fill="white"/>
<path d="M23.3786 73.4383C33.0772 59.193 31.4618 57.0435 19.9381 56.6401C19.5525 56.6266 19.1792 56.8077 18.9541 57.1205L17.859 58.6421C17.2498 59.4888 17.9887 60.6672 19.03 60.5941C26.8549 60.0472 23.8904 65.4458 17.5721 73.7283C8.28181 85.9067 10.3141 100.405 20.4754 100.985C30.6367 101.565 20.4754 120.914 42.2495 113.665C63.6618 106.537 77.8394 115.167 83.1611 103.192C83.4287 102.589 83.0885 101.902 82.4591 101.703L79.1616 100.663C78.567 100.476 77.937 100.801 77.6565 101.358C73.6048 109.407 60.7621 102.052 42.2495 108.524C24.8302 114.613 34.9915 96.9253 24.8302 96.3454C14.6689 95.7654 14.44 86.5667 23.3786 73.4383Z" fill="#949494"/>
<path d="M138.194 72.4907L133.548 78.8699L135.871 80.6097L157.355 72.4907H138.194Z" fill="#002642"/>
<path d="M77.8064 92.7881L80.4193 99.4572L83.6128 100.907L94.0645 92.7881H77.8064Z" fill="#002642"/>
<path d="M154.161 65.5316C151.716 69.5911 137.903 72.4907 137.903 72.4907H157.355C163.161 66.6914 158.9 52.7211 151.258 53.9331C145.724 54.8108 144.743 59.4424 146.35 61.7238C149.387 66.0367 152.689 62.8019 152.655 60.4277C152.53 61.8073 150.12 62.6256 149.17 60.7141C148.53 59.4255 149.514 57.1035 152.2 57.5664C154.885 58.0291 156.372 61.8618 154.161 65.5316Z" fill="#C99900"/>
<path d="M77.8066 92.7881C91.6834 88.6707 88.318 77.5088 84.9566 75.4947C81.5953 73.4801 75.9915 75.8201 76.4206 79.3524C76.7179 81.802 79.5055 81.4993 80.2505 81.2018C81.9315 80.5302 80.5867 76.8373 78.2339 79.1871C79.2425 76.1657 83.6119 77.5088 82.94 80.866C82.2677 84.2232 75.5449 84.8942 73.8646 81.2018C70.3668 73.5166 81.2591 68.0421 88.318 71.7681C95.3763 75.4947 98.7266 83.0529 94.0646 92.7881H77.8066Z" fill="#CBB56F"/>
<path d="M91.8836 85.9224C94.6452 91.9182 86.2258 91.9182 82.7419 92.7881H94.0645C97.5484 90.4684 96.9248 87.048 96.1711 85.2357C94.1725 80.4299 85.0378 78.972 83.5136 85.2357C82.4516 89.5985 86.713 91.5969 89.7097 89.5985C91.8836 88.1487 89.8125 86.348 88.2581 86.119C89.1465 86.348 89.3596 87.7822 88.2581 88.1487C86.5161 88.7286 86.2258 87.1756 86.5161 85.9224C86.8065 84.6691 90.6834 83.3167 91.8836 85.9224Z" fill="#A07A00"/>
<path d="M92.6221 104.792C94.3408 104.702 96.7482 107.032 97.6389 109.867C94.7513 108.342 92.8712 107.188 88.8386 107.794C90.9737 105.97 92.0873 105.223 92.6221 104.792Z" fill="#A07A00"/>
<path d="M160.796 83.6821C158.788 80.9391 156.307 81.6512 154.688 79.1587C157.88 79.854 160.001 80.4629 163.723 78.7991C162.156 81.1275 161.195 83.1231 160.796 83.6821Z" fill="#C99900"/>
<path d="M75.3044 97.1556C75.3102 97.3719 75.3852 98.2174 75.6383 99.8708C76.2869 97.3127 77.5992 96.7513 80.741 96.4892C78.1194 96.2242 76.5528 95.9731 75.3044 97.1556Z" fill="#CBB56F"/>
<path d="M61.1257 34.3883C61.1013 34.5264 61.0606 34.6364 61.0031 34.7183C60.9497 34.7928 60.8684 34.8496 60.7593 34.8885C60.6443 34.9295 60.5038 34.9334 60.3377 34.9002C60.1751 34.8596 59.9824 34.8206 59.7594 34.7831C59.5364 34.7456 59.2844 34.7308 59.004 34.7386C58.7264 34.7389 58.4181 34.7995 58.079 34.9204C57.7731 35.0296 57.5188 35.1634 57.3165 35.3217C57.1121 35.4747 56.9541 35.6449 56.8424 35.8325C56.7362 36.0182 56.6779 36.2175 56.6678 36.4305C56.6556 36.638 56.6886 36.8511 56.7667 37.0695C56.8663 37.348 57.0258 37.5529 57.2453 37.684C57.4703 37.8132 57.7346 37.8974 58.0385 37.9369C58.3426 37.9763 58.6771 37.9894 59.0423 37.9762C59.4075 37.9629 59.7838 37.955 60.1711 37.9523C60.5566 37.9442 60.9416 37.9608 61.3266 38.0022C61.7092 38.0381 62.0721 38.1304 62.4147 38.2791C62.7561 38.4223 63.0644 38.6386 63.3408 38.9281C63.6224 39.2156 63.8506 39.6052 64.0266 40.0967C64.2176 40.632 64.3047 41.1676 64.2867 41.7036C64.2722 42.2322 64.1497 42.7346 63.9191 43.2109C63.6921 43.6798 63.3606 44.1059 62.9239 44.4894C62.4855 44.8673 61.9386 45.1733 61.2824 45.4073C60.905 45.5418 60.5195 45.6362 60.1258 45.6903C59.7339 45.75 59.3442 45.772 58.9564 45.7563C58.5737 45.7387 58.201 45.687 57.8373 45.6011C57.4736 45.5153 57.135 45.3959 56.8214 45.2429L57.0916 43.955C57.119 43.859 57.1676 43.7709 57.2375 43.6905C57.3055 43.6048 57.3887 43.5443 57.4872 43.5092C57.6239 43.4604 57.792 43.4651 57.9916 43.5233C58.1893 43.576 58.4216 43.6316 58.6893 43.6901C58.957 43.7487 59.256 43.7836 59.587 43.795C59.9214 43.7989 60.2936 43.7278 60.7035 43.5815C61.3324 43.3573 61.7667 43.0363 62.0053 42.6185C62.2428 42.1953 62.2614 41.7052 62.0628 41.148C61.9513 40.8367 61.7812 40.6111 61.5524 40.471C61.3289 40.3289 61.0653 40.2382 60.7616 40.1988C60.4556 40.1539 60.1223 40.1435 59.7606 40.1676C59.3994 40.1918 59.0295 40.2097 58.6515 40.2214C58.2735 40.233 57.8932 40.2209 57.5104 40.1849C57.1276 40.149 56.7638 40.054 56.419 39.8998C56.0741 39.7457 55.757 39.514 55.4676 39.2046C55.1817 38.8878 54.9421 38.459 54.7488 37.9184C54.5946 37.4869 54.529 37.0361 54.5521 36.566C54.5807 36.094 54.7025 35.6411 54.9173 35.2074C55.1322 34.7736 55.446 34.3753 55.8589 34.0126C56.2718 33.6499 56.79 33.3573 57.4134 33.1351C58.1133 32.8855 58.7979 32.7646 59.4662 32.7725C60.1351 32.7804 60.7477 32.9068 61.3033 33.1519L61.1257 34.3883ZM70.5855 34.4696C70.553 34.5676 70.5141 34.6491 70.47 34.7143C70.4305 34.7774 70.3562 34.8286 70.247 34.8675C70.1431 34.9046 70.031 34.9106 69.9114 34.8856C69.7895 34.8552 69.6466 34.8261 69.4823 34.7984C69.3162 34.7652 69.127 34.7527 68.9144 34.7609C68.7048 34.7616 68.461 34.8117 68.1817 34.9112C67.8263 35.0379 67.5383 35.2146 67.3171 35.4413C67.0941 35.6624 66.935 35.9253 66.8404 36.23C66.7515 36.5327 66.7248 36.8716 66.7602 37.247C66.7939 37.6168 66.8874 38.0174 67.0419 38.4489C67.2021 38.8967 67.3908 39.2789 67.6092 39.5953C67.8321 39.9097 68.0772 40.1549 68.3437 40.3308C68.6079 40.5014 68.8912 40.6036 69.1931 40.6376C69.4928 40.6661 69.804 40.6228 70.1268 40.5078C70.4497 40.3927 70.6959 40.2619 70.8654 40.1152C71.0384 39.9611 71.1766 39.8133 71.28 39.6718C71.3816 39.5247 71.4681 39.3954 71.539 39.2838C71.6139 39.1648 71.7137 39.083 71.8397 39.0381C72.0035 38.9796 72.1492 38.9985 72.2758 39.0949L73.1218 39.6245C72.9917 39.9666 72.8274 40.2746 72.6294 40.5484C72.4291 40.8168 72.2067 41.0563 71.9611 41.267C71.7195 41.4702 71.4559 41.6472 71.1708 41.7982C70.891 41.9471 70.6035 42.0743 70.3086 42.1796C69.7889 42.3648 69.2651 42.4437 68.7373 42.4164C68.2078 42.3835 67.7044 42.2429 67.2271 41.9943C66.7498 41.7457 66.3143 41.39 65.9206 40.9268C65.5304 40.4563 65.2128 39.877 64.9666 39.1889C64.746 38.5717 64.6293 37.9697 64.6171 37.383C64.6084 36.7889 64.7077 36.2393 64.9155 35.7341C65.1217 35.2235 65.4399 34.7683 65.8701 34.3685C66.3004 33.9687 66.8468 33.6508 67.5081 33.4149C68.137 33.1906 68.7228 33.0957 69.2651 33.1301C69.8133 33.1626 70.3434 33.2999 70.8555 33.5422L70.5855 34.4696ZM74.268 32.7964C74.351 32.2004 74.5223 31.696 74.7813 31.2833C75.0391 30.8651 75.4136 30.5683 75.906 30.3928C76.2939 30.2544 76.6359 30.2279 76.932 30.3134L77.3425 31.8758C77.3501 31.9838 77.3344 32.0695 77.2955 32.1327C77.26 32.1884 77.1985 32.2319 77.1108 32.2631C77.029 32.2924 76.9006 32.3226 76.727 32.3538C76.5586 32.383 76.3978 32.4249 76.2451 32.4795C76.0204 32.5594 75.8328 32.6634 75.6813 32.7913C75.5297 32.9193 75.4055 33.0714 75.3079 33.2477C75.2144 33.4166 75.1436 33.6079 75.0971 33.8217C75.0553 34.0335 75.0286 34.268 75.0153 34.525L76.8664 39.7027L74.8399 40.4251L71.8357 32.0196L73.0248 31.5956C73.2327 31.5215 73.3912 31.508 73.501 31.5552C73.6084 31.597 73.7094 31.7086 73.8052 31.89L74.268 32.7964ZM84.0112 33.1094C83.4358 33.3453 82.962 33.5727 82.5904 33.7915C82.2164 34.0048 81.9296 34.2118 81.7299 34.4122C81.5307 34.6127 81.4059 34.808 81.3571 34.998C81.3077 35.1879 81.3153 35.373 81.3797 35.5532C81.5063 35.9083 81.7014 36.1252 81.9639 36.204C82.2315 36.2809 82.5352 36.2589 82.8743 36.138C83.2895 35.9898 83.6216 35.7883 83.8695 35.5336C84.121 35.2715 84.337 34.9359 84.5175 34.5267L84.0112 33.1094ZM78.0654 31.1192C78.7169 29.8893 79.7237 29.0316 81.0853 28.5461C81.5772 28.3706 82.0469 28.2955 82.4934 28.3209C82.9388 28.3409 83.347 28.4478 83.718 28.6417C84.0879 28.8302 84.4119 29.0994 84.6911 29.4493C84.9757 29.7974 85.2033 30.2089 85.3728 30.6841L87.2704 35.9928L86.3518 36.3204C86.1608 36.3886 86.0028 36.414 85.8797 36.3964C85.7543 36.3734 85.6301 36.2852 85.5075 36.1318L85.1104 35.5899C84.9658 35.8572 84.8183 36.1006 84.6685 36.3202C84.517 36.5343 84.3497 36.7296 84.1657 36.9059C83.9822 37.0822 83.7737 37.2397 83.5397 37.3786C83.3133 37.5209 83.0491 37.6457 82.7483 37.753C82.393 37.8797 82.0486 37.9503 81.7148 37.9647C81.3786 37.9736 81.0673 37.9215 80.7799 37.8083C80.4931 37.6952 80.2388 37.518 80.017 37.277C79.7952 37.0358 79.6169 36.7268 79.4822 36.35C79.4055 36.137 79.3661 35.9141 79.3631 35.6812C79.3579 35.4428 79.4009 35.1998 79.4909 34.9521C79.5867 34.7024 79.7324 34.4471 79.9293 34.1862C80.1255 33.9252 80.3874 33.6656 80.7143 33.4074C81.047 33.1472 81.4482 32.8902 81.9186 32.6363C82.3866 32.377 82.9382 32.125 83.5717 31.8805L83.3963 31.389C83.1948 30.8264 82.9266 30.4542 82.5904 30.2724C82.2519 30.0851 81.8559 30.0724 81.4018 30.2342C81.0737 30.3512 80.8142 30.487 80.6226 30.6414C80.4368 30.7939 80.2794 30.9486 80.1505 31.1054C80.0193 31.2567 79.8997 31.395 79.7899 31.5202C79.686 31.6435 79.5524 31.7344 79.3881 31.7928C79.2459 31.8435 79.1129 31.8509 78.9892 31.815C78.8632 31.7737 78.7529 31.7145 78.6577 31.6377L78.0654 31.1192ZM90.4256 32.4108C90.7548 32.6074 91.0742 32.7153 91.3831 32.7345C91.6978 32.7517 92.0131 32.7037 92.3307 32.5906C92.6367 32.4814 92.8922 32.3257 93.0971 32.1232C93.3027 31.9208 93.4479 31.6719 93.5332 31.3766C93.6244 31.0793 93.6528 30.7367 93.6191 30.3485C93.5831 29.9549 93.4786 29.5151 93.3044 29.029C93.1291 28.5374 92.9398 28.1369 92.7366 27.8276C92.5368 27.5108 92.3255 27.2722 92.1013 27.1118C91.8778 26.9515 91.6415 26.8602 91.393 26.8379C91.1502 26.8137 90.8948 26.8494 90.6271 26.9449C90.2055 27.0951 89.8798 27.3129 89.6487 27.5984C89.4159 27.8785 89.226 28.2265 89.0785 28.6423L90.4256 32.4108ZM88.5037 27.3695C88.7092 26.8589 88.9879 26.4054 89.3398 26.0091C89.6911 25.6128 90.1626 25.3094 90.7531 25.0988C91.2124 24.935 91.6647 24.8814 92.1106 24.938C92.5618 24.9927 92.9891 25.1542 93.3933 25.4227C93.8015 25.6837 94.1748 26.0555 94.5133 26.5381C94.8559 27.0133 95.1503 27.595 95.3965 28.2831C95.6206 28.9112 95.7437 29.5231 95.7658 30.1188C95.7873 30.7145 95.71 31.2655 95.5335 31.7718C95.3622 32.2762 95.0928 32.7203 94.7241 33.1041C94.3595 33.4805 93.9008 33.7672 93.3486 33.9641C92.8782 34.1318 92.4509 34.2041 92.0665 34.1811C91.6804 34.1525 91.3099 34.0567 90.9557 33.8936L92.1855 37.3344L90.1597 38.0569L86.1741 26.907L87.4126 26.4653C87.6751 26.3717 87.8917 26.4332 88.0612 26.6497L88.5037 27.3695ZM102.077 24.885C101.983 24.6229 101.857 24.3907 101.698 24.1886C101.543 23.9791 101.361 23.8133 101.151 23.6912C100.94 23.5691 100.703 23.4998 100.438 23.4834C100.177 23.4595 99.8959 23.5012 99.5951 23.6085C99.0099 23.8171 98.6075 24.1485 98.3874 24.6025C98.1732 25.0546 98.129 25.6031 98.2544 26.2479L102.077 24.885ZM98.6499 27.4832C98.8368 27.903 99.047 28.2498 99.2804 28.5237C99.5121 28.7921 99.7635 28.995 100.035 29.1324C100.304 29.2642 100.591 29.3343 100.896 29.3425C101.204 29.3433 101.523 29.2852 101.851 29.1683C102.179 29.0513 102.447 28.9126 102.655 28.7523C102.868 28.5901 103.045 28.4313 103.187 28.276C103.335 28.1189 103.46 27.9787 103.564 27.8554C103.674 27.7302 103.791 27.6451 103.917 27.6003C104.086 27.5398 104.234 27.5578 104.362 27.6542L105.208 28.1838C105.077 28.5259 104.905 28.8368 104.69 29.1165C104.474 29.3907 104.232 29.6371 103.965 29.8555C103.701 30.0665 103.418 30.2504 103.117 30.4072C102.821 30.562 102.525 30.6921 102.23 30.7974C101.645 31.006 101.067 31.1045 100.495 31.0927C99.9215 31.0755 99.3815 30.9447 98.8751 30.7004C98.3665 30.4507 97.9061 30.0854 97.4938 29.6043C97.0792 29.1178 96.7401 28.5059 96.4765 27.7685C96.2715 27.1951 96.1722 26.6239 96.1786 26.0552C96.1833 25.481 96.2913 24.9467 96.5026 24.4525C96.7181 23.9508 97.0357 23.5021 97.4549 23.1062C97.8799 22.7083 98.4071 22.3973 99.036 22.1731C99.5661 21.9839 100.086 21.8941 100.595 21.9035C101.104 21.9129 101.578 22.0239 102.018 22.2366C102.456 22.4438 102.85 22.7528 103.2 23.1636C103.554 23.567 103.839 24.0718 104.056 24.6781C104.165 24.9839 104.207 25.2032 104.18 25.3358C104.151 25.4629 104.045 25.5597 103.858 25.626L98.6499 27.4832ZM106.694 21.2343C106.777 20.6382 106.948 20.1339 107.207 19.7212C107.465 19.303 107.84 19.0062 108.332 18.8307C108.72 18.6922 109.062 18.6657 109.358 18.7512L109.768 20.3136C109.776 20.4217 109.761 20.5073 109.721 20.5705C109.686 20.6263 109.624 20.6698 109.537 20.701C109.455 20.7302 109.327 20.7604 109.153 20.7916C108.985 20.8209 108.824 20.8628 108.671 20.9174C108.447 20.9973 108.259 21.1013 108.107 21.2292C107.956 21.3571 107.831 21.5092 107.734 21.6856C107.64 21.8545 107.57 22.0458 107.523 22.2596C107.481 22.4714 107.454 22.7059 107.441 22.9629L109.292 28.1406L107.266 28.863L104.262 20.4575L105.451 20.0334C105.659 19.9593 105.817 19.9459 105.927 19.9931C106.034 20.0348 106.136 20.1465 106.231 20.3279L106.694 21.2343ZM121.166 21.9673C121.575 21.821 121.902 21.649 122.146 21.4512C122.39 21.2535 122.564 21.0434 122.67 20.8211C122.781 20.5968 122.833 20.3628 122.826 20.1189C122.824 19.8732 122.78 19.6274 122.692 19.3817C122.6 19.1249 122.477 18.9102 122.323 18.7374C122.167 18.559 121.976 18.4301 121.75 18.3505C121.522 18.2654 121.255 18.2344 120.949 18.2574C120.648 18.2784 120.304 18.3582 119.915 18.4966L117.693 19.2892L118.934 22.7628L121.166 21.9673ZM115.923 14.341L117.148 17.7654L118.903 17.1395C119.658 16.8704 120.178 16.5311 120.463 16.1215C120.753 15.71 120.792 15.2065 120.58 14.6113C120.359 13.9941 120.027 13.6168 119.583 13.4795C119.14 13.3421 118.546 13.406 117.802 13.6712L115.923 14.341ZM117.193 11.9671C117.97 11.6903 118.66 11.5271 119.265 11.4776C119.87 11.4282 120.397 11.4776 120.844 11.6259C121.297 11.7722 121.675 12.01 121.978 12.3393C122.28 12.6686 122.518 13.0762 122.693 13.5623C122.792 13.8409 122.847 14.1231 122.856 14.409C122.864 14.6895 122.82 14.973 122.726 15.2593C122.634 15.5382 122.487 15.8155 122.283 16.0913C122.085 16.3651 121.825 16.6301 121.504 16.8864C123.265 16.6713 124.393 17.2601 124.891 18.6528C125.071 19.1553 125.141 19.6537 125.102 20.1479C125.063 20.6421 124.916 21.1102 124.66 21.5522C124.404 21.9887 124.039 22.3899 123.565 22.7557C123.092 23.1216 122.51 23.4273 121.821 23.6731L117.343 25.27L113.108 13.4237L117.193 11.9671ZM128.381 11.7094C129.004 11.4871 129.606 11.3863 130.188 11.4071C130.773 11.4259 131.313 11.5566 131.807 11.7993C132.306 12.0401 132.75 12.393 133.138 12.858C133.526 13.3231 133.839 13.886 134.075 14.5469C134.313 15.2132 134.429 15.849 134.424 16.4545C134.418 17.0599 134.3 17.6164 134.068 18.1239C133.842 18.6294 133.508 19.0749 133.066 19.4602C132.63 19.8437 132.1 20.1465 131.477 20.3688C130.848 20.5931 130.24 20.6958 129.654 20.677C129.068 20.6582 128.524 20.5257 128.023 20.2795C127.527 20.0313 127.082 19.6757 126.689 19.2126C126.301 18.7476 125.987 18.1819 125.749 17.5156C125.513 16.8547 125.398 16.2215 125.403 15.6161C125.414 15.0087 125.534 14.455 125.762 13.9549C125.995 13.4529 126.333 13.0092 126.775 12.6238C127.217 12.2384 127.752 11.9336 128.381 11.7094ZM130.92 18.8122C131.62 18.5627 132.053 18.1436 132.219 17.5549C132.389 16.9643 132.313 16.2157 131.989 15.3091C131.665 14.4025 131.248 13.772 130.74 13.4177C130.236 13.0615 129.634 13.0082 128.935 13.2578C128.224 13.5113 127.782 13.9398 127.609 14.5432C127.44 15.1393 127.517 15.8878 127.838 16.7891C128.161 17.6902 128.576 18.3179 129.085 18.6722C129.598 19.019 130.209 19.0657 130.92 18.8122ZM139.821 17.4028C139.088 17.664 138.451 17.6601 137.911 17.3908C137.375 17.1142 136.977 16.6127 136.717 15.8863L135.039 11.192L134.178 11.4991C134.068 11.5381 133.962 11.5357 133.861 11.4921C133.759 11.4483 133.683 11.3555 133.631 11.2135L133.345 10.4106L134.619 9.70682L134.225 7.26087C134.214 7.14187 134.235 7.0387 134.29 6.95137C134.346 6.86397 134.433 6.79885 134.553 6.75593L135.604 6.38153L136.55 9.02773L138.797 8.22633L139.312 9.6682L137.065 10.4696L138.693 15.0246C138.787 15.2868 138.923 15.4691 139.102 15.5717C139.285 15.6724 139.49 15.6828 139.714 15.6028C139.84 15.558 139.938 15.5073 140.011 15.4507C140.086 15.3867 140.149 15.3276 140.197 15.2734C140.251 15.2173 140.298 15.1668 140.337 15.1219C140.374 15.0716 140.418 15.0377 140.467 15.0201C140.527 14.9986 140.582 14.9975 140.632 15.0166C140.68 15.0303 140.737 15.0594 140.802 15.1038L141.76 15.8704C141.553 16.2215 141.281 16.5281 140.943 16.7902C140.605 17.0523 140.231 17.2565 139.821 17.4028Z" fill="#212121"/>
</svg>
