<svg width="117" height="156" viewBox="0 0 117 156" fill="none" xmlns="http://www.w3.org/2000/svg">
<mask id="mask0_4002_1637" style="mask-type:luminance" maskUnits="userSpaceOnUse" x="0" y="0" width="117" height="156">
<path d="M116.455 0H0V156H116.455V0Z" fill="white"/>
</mask>
<g mask="url(#mask0_4002_1637)">
<path d="M98.7128 11.5878L98.556 16.3027L93.8524 16.1455L94.0092 11.4306L98.7128 11.5878ZM94.2893 25.8544C95.2973 24.7944 95.9117 23.9665 96.2541 23.3167C96.5953 22.6681 96.6425 22.2425 96.5907 21.9582C96.5405 21.6805 96.378 21.4391 96.0846 21.1927C95.7815 20.9376 95.3913 20.72 94.9417 20.4704C94.5175 20.2349 94.0288 19.9649 93.6426 19.627C93.2426 19.2771 92.9008 18.8105 92.8472 18.1715C92.7948 17.5521 93.0224 16.8822 93.5026 16.137C93.9844 15.3881 94.7561 14.5069 95.8892 13.4447L96.6765 14.2885C95.5757 15.3208 94.88 16.1278 94.4708 16.7634C94.0593 17.4027 93.9734 17.8136 93.9959 18.0739C94.0161 18.3145 94.1377 18.5263 94.4005 18.7564C94.6772 18.9984 95.0506 19.2097 95.5002 19.4595C95.925 19.6952 96.4206 19.9668 96.8258 20.3074C97.2408 20.6567 97.6097 21.1175 97.7249 21.7511C97.8385 22.3781 97.6857 23.0729 97.2731 23.8562C96.861 24.6383 96.1676 25.5539 95.1238 26.6516L94.2893 25.8544Z" fill="#CFD2D4"/>
<path d="M69.8657 46.8392C68.5539 58.0903 74.548 85.7809 85.7719 87.0959C96.9953 88.4109 109.198 62.853 110.51 51.6015C111.822 40.3501 104.456 24.4243 93.2323 23.1092C82.0083 21.7941 71.1775 35.5878 69.8657 46.8392Z" fill="#D9D9D9"/>
<path d="M69.8657 46.8392C68.5539 58.0903 74.548 85.7809 85.7719 87.0959C96.9953 88.4109 109.198 62.853 110.51 51.6015C111.822 40.3501 104.456 24.4243 93.2323 23.1092C82.0083 21.7941 71.1775 35.5878 69.8657 46.8392Z" fill="#134E78" fill-opacity="0.05"/>
<path d="M87.1466 61.2982C83.1761 69.8406 84.9086 79.0781 91.0168 81.9312C96.5475 65.6893 105.295 80.1724 109.266 71.63C113.236 63.0875 111.503 53.8497 105.396 50.9966C99.2875 48.1435 91.1171 52.7556 87.1466 61.2982Z" fill="#DEE1E2"/>
<path d="M73.2098 34.305C69.2359 40.2781 67.1598 48.2176 72.1908 51.5817C77.2224 54.9459 88.3985 52.8192 92.3725 46.8462C96.3464 40.8731 92.4958 30.9681 87.4642 27.604C80.9906 23.905 77.1838 28.332 73.2098 34.305Z" fill="#212121"/>
<path d="M73.2098 34.305C69.2359 40.2781 67.1598 48.2176 72.1908 51.5817C77.2224 54.9459 88.3985 52.8192 92.3725 46.8462C96.3464 40.8731 92.4958 30.9681 87.4642 27.604C80.9906 23.905 77.1838 28.332 73.2098 34.305Z" fill="white" fill-opacity="0.2"/>
<path d="M92.3723 46.8462C89.7816 37.852 82.5311 47.3265 72.1907 51.5817C70.891 50.7128 70.0657 49.5385 69.6248 48.1717C78.6851 49.3273 92.3723 38.6384 90.2121 30.2255C93.7331 34.6489 95.6195 42.0132 92.3723 46.8462Z" fill="white"/>
<path d="M24.1738 7.87967C23.1101 9.14478 21.182 8.20311 20.5854 7.02017L20.3589 8.83457L18.6134 9.21209L18.4349 11.0746L16.6413 11.4039L16.3645 13.1679L14.6693 13.5958L14.4004 15.3677L12.6973 15.7877L12.3702 17.5012L10.7252 17.9796L10.3659 19.6608L8.75315 20.1714L8.37581 21.8346L6.7811 22.3633L6.33142 23.9539L4.80908 24.5552C5.69408 25.1875 6.83187 26.9841 6.03097 28.0449L40.3587 59.0824C41.288 57.5368 43.4507 58.5884 44.1657 60.1397L44.7143 58.6485L46.1377 57.9476L46.6864 56.4563L48.1097 55.7558L48.6585 54.2645L50.0818 53.5639L50.6305 52.0726L52.0538 51.372L52.6025 49.8807L54.0258 49.1802L54.5746 47.6889L55.9979 46.9883L56.5466 45.497L57.9698 44.7964L58.5185 43.3051L59.9421 42.6045C58.3784 42.3543 57.1673 40.2218 58.5012 38.9171L24.1738 7.87967Z" fill="#FFC200"/>
<path d="M10.7384 23.7985L20.3049 13.1656C21.4774 11.8623 23.4819 11.7587 24.7819 12.9341L53.7551 39.1303C55.0551 40.3058 55.1585 42.3152 53.986 43.6184L44.4195 54.2513C43.2469 55.5546 41.2425 55.6582 39.9424 54.4828L10.9693 28.2866C9.66921 27.1112 9.56585 25.1018 10.7384 23.7985Z" stroke="white"/>
<path d="M14.3104 31.2149L28.123 15.8624L50.4344 36.0353L36.6217 51.3878L14.3104 31.2149Z" stroke="white"/>
<path d="M26.8635 28.7638C26.6079 28.648 26.3548 28.9294 26.4959 29.1724L29.2639 33.9392C29.327 34.0478 29.3128 34.1848 29.2289 34.2781L25.5877 38.3251C25.4015 38.5322 25.5869 38.8574 25.8594 38.8016L31.2232 37.7038C31.3443 37.679 31.4677 37.7344 31.5299 37.8415L34.3044 42.6194C34.445 42.8616 34.8128 42.7814 34.8402 42.5025L35.3758 37.0616C35.3882 36.9355 35.4811 36.8323 35.605 36.8069L40.9485 35.7132C41.2225 35.6571 41.2643 35.2822 41.0095 35.1669L35.9833 32.8918C35.8706 32.8408 35.8029 32.7234 35.815 32.6001L36.3527 27.1386C36.38 26.8612 36.0382 26.7097 35.8519 26.9167L32.2108 30.9638C32.1268 31.0571 31.9924 31.0853 31.8782 31.0336L26.8635 28.7638Z" fill="white"/>
<path d="M28.3972 63.1049C28.0717 63.6145 26.3124 62.5167 25.4459 61.62L25.9349 62.6941L24.7867 62.4688L25.3285 63.5856L24.1276 63.3181L24.5614 64.3471L23.4685 64.1668L23.911 65.2028L22.8094 65.0156L23.1879 66.0001L22.1502 65.8644L22.4934 66.82L21.4911 66.7131L21.8145 67.6532L20.832 67.5624L21.0759 68.4372L20.1729 68.4112C21.0527 69.0398 22.5393 70.4635 22.3332 70.9147L58.8119 99.3795C58.9375 98.659 60.9093 99.8874 61.9957 101.046L61.8608 100.259L62.655 100.197L62.5196 99.4101L63.3144 99.3483L63.1789 98.5614L63.9732 98.4995L63.8383 97.712L64.6325 97.6502L64.4971 96.8633L65.2913 96.8015L65.1564 96.0145L65.9506 95.9527L65.8152 95.1658L66.61 95.104L66.4745 94.3164L67.2687 94.2546C66.0279 93.6855 64.3657 92.0331 64.8763 91.5697L28.3972 63.1049Z" fill="#FFC200"/>
<path d="M25.6128 67.7658L26.1103 67.1251C27.1856 65.7402 29.1773 65.4914 30.5588 66.5694L61.3477 90.5942C62.7292 91.6722 62.9774 93.6689 61.902 95.0538L61.4046 95.6945C60.3292 97.0794 58.3375 97.3282 56.956 96.2502L26.1672 72.2254C24.7856 71.1474 24.5374 69.1508 25.6128 67.7658Z" stroke="white"/>
<path d="M29.6842 74.9379L34.0759 69.2819L57.7855 87.7827L53.3938 93.4387L29.6842 74.9379Z" stroke="white"/>
<path d="M39.2981 77.703C39.0057 77.5251 38.7027 77.9151 38.9465 78.1554L41.5218 80.6971C41.626 80.7999 41.6368 80.9646 41.547 81.0801L40.5292 82.3911C40.398 82.5604 40.4894 82.8083 40.6987 82.8516L44.4138 83.616C44.4683 83.6276 44.5184 83.6541 44.558 83.6934L47.8297 86.922C48.0601 87.1491 48.4321 86.8822 48.2912 86.5904L47.3797 84.7011C47.2758 84.4856 47.4632 84.244 47.6971 84.292L49.7479 84.7144C50.0648 84.7796 50.2319 84.3527 49.9554 84.184L46.0304 81.7972C45.9829 81.7683 45.9446 81.7261 45.9204 81.6758L44.2692 78.2531C44.1762 78.0607 43.9136 78.0324 43.7824 78.2016L42.7646 79.5121C42.6747 79.6282 42.5127 79.6577 42.3877 79.582L39.2981 77.703Z" fill="white"/>
<path d="M36.2837 130.772C36.3299 131.069 34.2666 131.112 33.0366 130.987L34.0718 131.288L33.0202 131.515L34.1231 131.818L33.0038 132.043L33.968 132.341L32.9874 132.571L33.9627 132.869L32.971 133.098L33.8643 133.393L32.9546 133.626L33.8024 133.918L32.9383 134.153L33.7605 134.445L32.9219 134.681L33.642 134.968L32.9055 135.208C33.9853 135.22 36.0264 135.385 36.133 135.626L82.338 137.067C82.0055 136.74 84.3166 136.692 85.8791 136.861L85.2987 136.579L85.8959 136.334L85.3155 136.052L85.912 135.806L85.3316 135.524L85.9287 135.279L85.3483 134.996L85.9448 134.751L85.3645 134.469L85.9616 134.224L85.3812 133.941L85.9777 133.695L85.3973 133.414L85.9938 133.168L85.4134 132.886L86.0105 132.64C84.678 132.754 82.3593 132.543 82.4884 132.214L36.2837 130.772Z" fill="#FFC200"/>
<path d="M38.4228 134.899C37.5355 134.871 36.8386 134.128 36.8663 133.238C36.8939 132.349 37.6355 131.65 38.5228 131.678L80.6444 132.992C81.5317 133.02 82.2286 133.763 82.2009 134.653C82.1733 135.542 81.4316 136.241 80.5444 136.213L38.4228 134.899Z" stroke="white"/>
<path d="M44.4202 135.073L44.5203 131.852L74.5513 132.789L74.4513 136.011L44.4202 135.073Z" stroke="white"/>
<path d="M51.2915 133.741L57.3043 134.274C57.4565 134.288 57.5717 134.418 57.5669 134.571L57.5505 135.101C57.5447 135.287 57.7152 135.431 57.8979 135.392L61.4171 134.652C61.4447 134.646 61.4736 134.645 61.5018 134.647L64.8383 134.943C65.1588 134.972 65.2423 134.51 64.9323 134.424C64.6648 134.351 64.6769 133.967 64.9478 133.91C65.2631 133.843 65.2083 133.378 64.8867 133.386L61.5381 133.474C61.5099 133.474 61.4816 133.471 61.454 133.463L57.9872 132.505C57.8074 132.456 57.6285 132.588 57.6227 132.774L57.6063 133.304C57.6015 133.457 57.4785 133.579 57.3258 133.583L51.2915 133.741Z" fill="white"/>
<path d="M99.9838 109.678C100.058 110.279 102.117 110.052 103.286 109.619L102.381 110.376L103.513 110.67L102.543 111.442L103.742 111.722L102.906 112.462L103.969 112.773L103.123 113.515L104.198 113.824L103.431 114.547L104.425 114.875L103.704 115.588L104.653 115.926L103.956 116.634L104.881 116.977L104.283 117.661L105.109 118.029C104.044 118.214 102.09 118.853 102.081 119.349L56.9081 129.192C57.1059 128.488 54.7983 128.74 53.3187 129.314L53.7801 128.662L53.0907 128.262L53.5522 127.611L52.8628 127.211L53.3243 126.56L52.6349 126.159L53.0964 125.509L52.407 125.109L52.8685 124.457L52.1791 124.058L52.6406 123.406L51.9511 123.006L52.4126 122.355L51.7233 121.955L52.1847 121.304L51.4954 120.904C52.8599 120.929 55.0715 120.159 54.8113 119.521L99.9838 109.678Z" fill="#FFDA65"/>
<path d="M100.483 115.088L100.311 114.295C99.9389 112.58 98.2506 111.491 96.5398 111.864L58.4133 120.172C56.7025 120.544 55.6171 122.237 55.9889 123.952L56.1609 124.745C56.5328 126.46 58.2211 127.548 59.9318 127.175L98.0584 118.868C99.7692 118.495 100.855 116.803 100.483 115.088Z" stroke="white"/>
<path d="M93.7168 119.788L92.1982 112.785L62.8381 119.182L64.3567 126.186L93.7168 119.788Z" stroke="white"/>
<path d="M83.8561 118.112C84.1967 118.078 84.3011 118.561 83.9777 118.672L80.5594 119.847C80.421 119.894 80.3398 120.038 80.3709 120.181L80.723 121.805C80.768 122.014 80.5784 122.198 80.3715 122.146L76.692 121.224C76.6378 121.211 76.5814 121.213 76.5283 121.231L72.1855 122.723C71.8795 122.828 71.6599 122.426 71.9129 122.224L73.5497 120.916C73.7365 120.767 73.6719 120.468 73.4402 120.409L71.4092 119.901C71.095 119.822 71.1291 119.365 71.4507 119.333L76.0194 118.883C76.0748 118.878 76.1272 118.856 76.171 118.822L79.1369 116.452C79.3041 116.318 79.5525 116.407 79.598 116.616L79.9502 118.239C79.9807 118.383 80.1144 118.48 80.2597 118.466L83.8561 118.112Z" fill="white"/>
<path d="M51.4315 54.5961C53.6199 69.9891 90.4601 76.3654 93.7361 60.9434C93.9753 59.8162 95.0698 58.9616 96.1747 59.28L98.525 59.9571C99.2449 60.1646 99.7607 60.8354 99.721 61.5847C98.5763 82.9631 48.7888 76.0731 44.9257 54.0783C44.7338 52.9858 45.7319 52.1185 46.8201 52.3201L49.915 52.8935C50.7349 53.0453 51.3139 53.7686 51.4315 54.5961Z" fill="#949494"/>
<path d="M64.2595 6.14229C62.6134 6.02003 62.2446 3.90212 62.8509 2.72414L61.3731 3.6278L59.9236 2.40738L58.2274 3.23459L56.9959 2.09061L55.368 2.87711L54.0685 1.77385L52.5084 2.51965L51.141 1.45709L49.6487 2.16218L48.2137 1.14033L46.6594 1.78851L45.2863 0.823559L43.738 1.42332L42.3588 0.506797L40.8166 1.05813L39.4314 0.190033C39.4391 1.27948 38.6542 3.25669 37.3274 3.22809L32.3665 49.302C34.1602 49.1508 34.5783 51.5237 33.7437 53.0136L35.2706 52.5851L36.6711 53.3304L38.198 52.9018L39.5986 53.6472L41.1254 53.2186L42.526 53.9639L44.0529 53.5354L45.4533 54.2807L46.9803 53.8522L48.3808 54.5974L49.9077 54.1689L51.3082 54.9142L52.8351 54.4856L54.2356 55.231L55.7625 54.8024L57.163 55.5477C56.4487 54.1312 57.4622 51.8975 59.2988 52.2162L64.2595 6.14229Z" fill="#FFDA65"/>
<path d="M43.5184 4.56212L57.7194 6.09876C59.4601 6.28711 60.7188 7.85431 60.5309 9.59921L56.3438 48.4864C56.1559 50.2313 54.5926 51.4931 52.852 51.3048L38.6509 49.7682C36.9103 49.5798 35.6515 48.0126 35.8394 46.2677L40.0265 7.38052C40.2144 5.63562 41.7778 4.37378 43.5184 4.56212Z" stroke="white"/>
<path d="M39.6192 11.8107L60.1235 14.0294L56.8992 43.9752L36.3948 41.7565L39.6192 11.8107Z" stroke="white"/>
<path d="M48.9584 20.5691C48.9021 20.2936 48.5263 20.253 48.4127 20.51L46.1828 25.5524C46.132 25.6672 46.013 25.7361 45.8885 25.7225L40.4833 25.1377C40.2068 25.1078 40.0526 25.449 40.2574 25.6377L44.289 29.3504C44.38 29.4342 44.4075 29.567 44.3574 29.6803L42.1224 34.7344C42.0091 34.9906 42.2895 35.2422 42.531 35.101L47.2422 32.3466C47.3514 32.2828 47.4892 32.2977 47.5823 32.3835L51.5987 36.0822C51.8045 36.2718 52.1321 36.086 52.0759 35.8114L50.9682 30.3956C50.9434 30.2742 50.9985 30.1505 51.1053 30.088L55.8343 27.3232C56.0746 27.1827 55.9966 26.8163 55.72 26.7864L50.3149 26.2015C50.1903 26.1881 50.0887 26.0954 50.0635 25.9723L48.9584 20.5691Z" fill="white"/>
<path d="M27.2353 111.171C27.1934 111.304 27.1391 111.407 27.0725 111.481C27.0103 111.548 26.9228 111.593 26.8102 111.618C26.6919 111.643 26.5532 111.63 26.394 111.575C26.2393 111.515 26.0546 111.451 25.8399 111.386C25.6251 111.32 25.379 111.273 25.1016 111.245C24.8286 111.21 24.5175 111.23 24.1683 111.306C23.8528 111.374 23.5854 111.474 23.366 111.605C23.1453 111.73 22.968 111.877 22.834 112.048C22.7056 112.218 22.6228 112.408 22.5855 112.617C22.547 112.82 22.5522 113.035 22.6011 113.261C22.6635 113.549 22.7942 113.772 22.9935 113.929C23.1984 114.086 23.4479 114.203 23.742 114.281C24.0361 114.359 24.3637 114.414 24.7249 114.449C25.086 114.482 25.4575 114.522 25.8392 114.569C26.2198 114.611 26.5967 114.677 26.9701 114.767C27.3423 114.851 27.6876 114.989 28.0061 115.18C28.3234 115.365 28.5994 115.619 28.8342 115.94C29.0745 116.26 29.2497 116.674 29.3597 117.182C29.4796 117.736 29.4963 118.276 29.4099 118.803C29.328 119.324 29.1431 119.805 28.8552 120.245C28.5717 120.679 28.1907 121.058 27.7122 121.381C27.2323 121.698 26.6545 121.93 25.9786 122.078C25.59 122.162 25.1985 122.206 24.8039 122.209C24.4107 122.217 24.0241 122.189 23.6444 122.124C23.2703 122.058 22.9097 121.958 22.5628 121.827C22.2158 121.696 21.8978 121.534 21.6087 121.343L22.0395 120.106C22.0788 120.014 22.1379 119.933 22.217 119.863C22.2949 119.787 22.3846 119.738 22.486 119.716C22.6268 119.685 22.7917 119.711 22.9806 119.794C23.1685 119.872 23.3903 119.956 23.6462 120.048C23.902 120.141 24.192 120.214 24.5162 120.267C24.8448 120.314 25.2204 120.291 25.6428 120.199C26.2905 120.058 26.7588 119.797 27.0476 119.415C27.3352 119.027 27.4166 118.545 27.2919 117.97C27.2223 117.647 27.0837 117.403 26.8764 117.235C26.6747 117.066 26.4268 116.942 26.1327 116.865C25.8374 116.781 25.5104 116.728 25.1517 116.705C24.7929 116.683 24.4268 116.653 24.0531 116.616C23.6794 116.579 23.3065 116.519 22.9344 116.434C22.5621 116.349 22.2162 116.209 21.8965 116.013C21.5768 115.816 21.2942 115.546 21.049 115.204C20.8081 114.854 20.6272 114.4 20.5062 113.841C20.4096 113.395 20.4028 112.941 20.4857 112.479C20.5742 112.017 20.752 111.585 21.019 111.184C21.2861 110.783 21.646 110.43 22.0989 110.124C22.5517 109.819 23.0992 109.596 23.7413 109.457C24.4623 109.299 25.1513 109.268 25.8085 109.361C26.4657 109.455 27.0524 109.658 27.5685 109.972L27.2353 111.171ZM36.5366 112.463C36.4918 112.556 36.4432 112.631 36.3911 112.69C36.3445 112.748 36.2649 112.789 36.1523 112.813C36.0453 112.837 35.9344 112.828 35.8195 112.788C35.7035 112.742 35.5665 112.695 35.4086 112.647C35.2494 112.593 35.0645 112.556 34.8539 112.537C34.6478 112.511 34.4011 112.529 34.1139 112.592C33.7478 112.671 33.4414 112.809 33.1947 113.005C32.9468 113.194 32.7569 113.434 32.6248 113.723C32.4983 114.01 32.4286 114.342 32.4154 114.717C32.4012 115.087 32.4423 115.495 32.5388 115.941C32.6391 116.404 32.7762 116.805 32.9502 117.146C33.1298 117.485 33.3395 117.759 33.5792 117.967C33.8176 118.169 34.0832 118.306 34.3761 118.379C34.6677 118.446 34.9797 118.443 35.312 118.37C35.6443 118.298 35.9033 118.2 36.0889 118.077C36.279 117.947 36.434 117.819 36.5541 117.692C36.6729 117.56 36.7744 117.443 36.8587 117.342C36.9473 117.234 37.0564 117.166 37.186 117.138C37.355 117.101 37.4957 117.138 37.6083 117.25L38.3732 117.882C38.201 118.203 37.9999 118.486 37.7699 118.731C37.5387 118.971 37.2888 119.179 37.0204 119.356C36.7564 119.525 36.4743 119.666 36.1743 119.779C35.88 119.89 35.5807 119.979 35.2766 120.045C34.7415 120.162 34.216 120.173 33.7001 120.078C33.1829 119.978 32.7054 119.774 32.2674 119.467C31.8295 119.16 31.4464 118.753 31.1181 118.245C30.7943 117.73 30.5554 117.117 30.4014 116.406C30.2632 115.768 30.2256 115.158 30.2885 114.577C30.3557 113.989 30.524 113.458 30.7933 112.986C31.0613 112.508 31.4328 112.099 31.9077 111.759C32.3826 111.419 32.9608 111.175 33.6423 111.027C34.29 110.886 34.8787 110.867 35.4083 110.971C35.9436 111.073 36.4477 111.277 36.9207 111.582L36.5366 112.463ZM43.7379 114.187C43.1414 114.346 42.6461 114.51 42.252 114.678C41.8568 114.841 41.5481 115.009 41.3259 115.182C41.1038 115.354 40.9563 115.531 40.8835 115.712C40.8107 115.894 40.7945 116.078 40.8348 116.264C40.9143 116.631 41.0782 116.87 41.3265 116.982C41.5804 117.092 41.8819 117.109 42.2311 117.033C42.6592 116.94 43.0116 116.783 43.2884 116.564C43.5695 116.337 43.8251 116.033 44.0552 115.652L43.7379 114.187ZM38.14 111.459C38.9389 110.327 40.0395 109.608 41.442 109.303C41.9489 109.193 42.4207 109.179 42.8573 109.261C43.2926 109.338 43.6806 109.496 44.0214 109.735C44.361 109.968 44.6458 110.276 44.8759 110.658C45.1116 111.038 45.2826 111.474 45.389 111.965L46.5773 117.453L45.631 117.659C45.4339 117.702 45.2757 117.707 45.1565 117.674C45.036 117.635 44.9252 117.532 44.8242 117.365L44.5026 116.778C44.3257 117.024 44.1496 117.246 43.9742 117.443C43.7976 117.636 43.6076 117.807 43.4043 117.957C43.2011 118.108 42.9754 118.237 42.7273 118.344C42.486 118.456 42.2105 118.546 41.9007 118.613C41.5346 118.692 41.1863 118.718 40.8558 118.689C40.524 118.655 40.224 118.563 39.956 118.415C39.6879 118.266 39.4601 118.059 39.2726 117.792C39.0851 117.526 38.9492 117.198 38.8649 116.808C38.8171 116.587 38.8067 116.362 38.8334 116.132C38.859 115.896 38.9321 115.661 39.0526 115.428C39.1788 115.193 39.3553 114.96 39.5821 114.728C39.8089 114.495 40.0998 114.272 40.4547 114.059C40.8152 113.844 41.2431 113.642 41.7386 113.451C42.2328 113.255 42.8075 113.076 43.4629 112.916L43.3528 112.408C43.2269 111.827 43.0101 111.424 42.7023 111.201C42.3934 110.973 42.0052 110.91 41.5377 111.012C41.1997 111.085 40.9267 111.186 40.7185 111.314C40.5159 111.441 40.3412 111.574 40.1942 111.712C40.046 111.844 39.9101 111.966 39.7864 112.076C39.6684 112.184 39.5248 112.256 39.3559 112.293C39.2094 112.325 39.0776 112.315 38.9603 112.264C38.8418 112.207 38.7405 112.135 38.6566 112.047L38.14 111.459ZM47.9297 103.98L50.6548 116.566L48.568 117.02L45.8429 104.434L47.9297 103.98ZM54.333 113.407C54.6318 113.643 54.9321 113.79 55.2338 113.849C55.5411 113.907 55.858 113.9 56.1847 113.829C56.5002 113.76 56.7717 113.638 56.9995 113.465C57.2273 113.291 57.4022 113.064 57.5243 112.783C57.6522 112.501 57.7236 112.166 57.7404 111.779C57.7553 111.385 57.7087 110.937 57.5996 110.434C57.4895 109.926 57.3544 109.506 57.1941 109.175C57.0382 108.836 56.8604 108.573 56.6607 108.386C56.4609 108.199 56.2402 108.079 55.9985 108.025C55.7625 107.969 55.5065 107.972 55.2305 108.032C54.7968 108.126 54.4481 108.3 54.1843 108.552C53.9192 108.8 53.6876 109.119 53.4893 109.511L54.333 113.407ZM53.0861 108.18C53.3541 107.701 53.6866 107.289 54.0834 106.943C54.4802 106.596 54.9827 106.357 55.591 106.224C56.0641 106.122 56.5164 106.126 56.9478 106.239C57.3849 106.352 57.7853 106.566 58.149 106.883C58.5167 107.193 58.8366 107.608 59.1086 108.128C59.3847 108.642 59.5997 109.254 59.7541 109.966C59.8948 110.615 59.9374 111.236 59.8827 111.827C59.8279 112.418 59.6809 112.952 59.4423 113.43C59.2095 113.907 58.8873 114.31 58.4752 114.643C58.0683 114.968 57.58 115.192 57.0111 115.316C56.5267 115.422 56.0968 115.438 55.7214 115.366C55.3449 115.288 54.9926 115.146 54.6649 114.94L55.4351 118.497L53.3482 118.951L50.8524 107.424L52.1282 107.147C52.3985 107.088 52.6034 107.176 52.7429 107.412L53.0861 108.18ZM66.7649 107.464C66.7061 107.193 66.6116 106.948 66.4814 106.728C66.3557 106.501 66.1972 106.314 66.0059 106.166C65.8151 106.019 65.5903 105.92 65.3315 105.87C65.0774 105.812 64.7955 105.818 64.4854 105.885C63.8831 106.016 63.4445 106.292 63.1696 106.713C62.9005 107.132 62.7869 107.668 62.8278 108.321L66.7649 107.464ZM63.059 109.592C63.1892 110.031 63.3517 110.401 63.5466 110.701C63.7402 110.996 63.9615 111.229 64.2111 111.399C64.4589 111.564 64.7327 111.67 65.0318 111.717C65.3356 111.757 65.656 111.741 65.9943 111.667C66.3321 111.594 66.6133 111.491 66.8387 111.36C67.0692 111.226 67.2646 111.092 67.4237 110.957C67.5891 110.821 67.7303 110.698 67.8485 110.59C67.9724 110.48 68.0992 110.411 68.2283 110.383C68.4029 110.345 68.5464 110.382 68.6594 110.493L69.4242 111.125C69.2519 111.446 69.0421 111.731 68.7954 111.98C68.5476 112.224 68.2779 112.436 67.9868 112.617C67.7003 112.792 67.3983 112.938 67.0819 113.054C66.7701 113.169 66.4629 113.259 66.1586 113.325C65.5557 113.456 64.9742 113.48 64.4128 113.395C63.8509 113.305 63.3362 113.106 62.8688 112.8C62.4002 112.488 61.9939 112.068 61.6492 111.539C61.304 111.006 61.0486 110.358 60.8832 109.596C60.7553 109.003 60.7305 108.426 60.8095 107.865C60.8873 107.298 61.0619 106.784 61.3334 106.323C61.61 105.855 61.9795 105.452 62.4434 105.115C62.9126 104.776 63.4711 104.536 64.1189 104.395C64.6653 104.276 65.188 104.254 65.6877 104.329C66.1874 104.403 66.6404 104.574 67.0462 104.84C67.4502 105.101 67.7989 105.457 68.0911 105.908C68.3879 106.352 68.6041 106.887 68.7395 107.513C68.8081 107.83 68.8208 108.052 68.7776 108.18C68.7332 108.302 68.615 108.383 68.4237 108.425L63.059 109.592ZM71.7769 104.45C71.9348 103.871 72.1682 103.394 72.476 103.02C72.7832 102.64 73.1901 102.395 73.6967 102.285C74.0967 102.197 74.4368 102.215 74.7169 102.338L74.9209 103.934C74.9151 104.042 74.8886 104.124 74.842 104.181C74.7999 104.232 74.7336 104.267 74.6437 104.287C74.559 104.305 74.4293 104.319 74.2541 104.327C74.0846 104.335 73.9215 104.355 73.7636 104.389C73.5325 104.44 73.3342 104.518 73.1688 104.626C73.0034 104.733 72.861 104.867 72.7429 105.028C72.6293 105.183 72.5354 105.364 72.4616 105.569C72.3942 105.773 72.3371 106.001 72.2916 106.253L73.4506 111.606L71.3637 112.06L69.4824 103.37L70.7072 103.104C70.921 103.057 71.0789 103.064 71.181 103.125C71.2812 103.18 71.3665 103.303 71.4374 103.494L71.7769 104.45ZM85.9281 107.028C86.3506 106.936 86.6941 106.809 86.9592 106.644C87.2249 106.48 87.4238 106.295 87.5558 106.089C87.6935 105.881 87.7748 105.657 87.799 105.415C87.829 105.172 87.8169 104.923 87.7615 104.67C87.7039 104.404 87.6105 104.176 87.4808 103.986C87.35 103.789 87.1783 103.638 86.9662 103.53C86.7529 103.416 86.4941 103.352 86.1898 103.335C85.8913 103.318 85.542 103.352 85.142 103.439L82.8521 103.938L83.6302 107.528L85.9281 107.028ZM81.745 98.822L82.5115 102.362L84.3195 101.969C85.0965 101.799 85.6521 101.531 85.9852 101.163C86.3235 100.793 86.4267 100.301 86.293 99.6857C86.1552 99.0473 85.8763 98.6325 85.4573 98.4395C85.0382 98.2471 84.4458 98.2344 83.6798 98.4008L81.745 98.822ZM83.2982 96.6391C84.0976 96.4652 84.7985 96.3924 85.4008 96.4213C86.0025 96.4496 86.5143 96.5663 86.9356 96.7697C87.3633 96.9725 87.7045 97.2562 87.9604 97.6202C88.2163 97.9842 88.3984 98.4175 88.5073 98.9202C88.5696 99.2079 88.5874 99.4939 88.5604 99.7776C88.5321 100.056 88.4526 100.33 88.3229 100.601C88.1967 100.865 88.0163 101.12 87.7805 101.366C87.5506 101.611 87.2613 101.84 86.912 102.052C88.6722 102.065 89.7079 102.791 90.0197 104.231C90.1326 104.751 90.1378 105.252 90.0358 105.736C89.9344 106.219 89.7292 106.662 89.422 107.066C89.1131 107.464 88.7021 107.814 88.1892 108.115C87.6762 108.416 87.0653 108.643 86.3552 108.798L81.7426 109.801L79.0908 97.5549L83.2982 96.6391ZM94.3441 97.8184C94.9861 97.6785 95.5919 97.6566 96.1607 97.7513C96.7354 97.8449 97.2501 98.0431 97.7048 98.3465C98.1653 98.6481 98.5572 99.0537 98.8794 99.5633C99.2022 100.072 99.4373 100.669 99.5854 101.351C99.7347 102.041 99.7676 102.684 99.6846 103.281C99.6016 103.879 99.4137 104.413 99.1209 104.885C98.8333 105.355 98.4477 105.752 97.9636 106.077C97.4846 106.4 96.9244 106.631 96.2823 106.77C95.6345 106.911 95.0236 106.935 94.449 106.842C93.8738 106.748 93.3556 106.547 92.894 106.239C92.4381 105.931 92.0461 105.522 91.7176 105.015C91.3949 104.506 91.1591 103.906 91.0099 103.218C90.8623 102.534 90.8295 101.894 90.9125 101.297C91.0012 100.698 91.1897 100.166 91.4784 99.7013C91.7724 99.2351 92.162 98.8405 92.6461 98.5163C93.1303 98.1922 93.6962 97.9593 94.3441 97.8184ZM95.9337 105.161C96.6547 105.005 97.1348 104.646 97.3728 104.086C97.6172 103.524 97.6374 102.775 97.4345 101.837C97.2316 100.9 96.9025 100.224 96.4466 99.8088C95.9971 99.3922 95.4115 99.2622 94.6905 99.4194C93.9585 99.5783 93.4686 99.9452 93.2213 100.519C92.9787 101.086 92.9579 101.836 93.1597 102.768C93.3614 103.699 93.6899 104.373 94.1458 104.788C94.6057 105.196 95.2017 105.321 95.9337 105.161ZM104.876 104.909C104.121 105.074 103.495 104.989 102.997 104.653C102.505 104.311 102.177 103.764 102.015 103.014L100.964 98.1604L100.076 98.3534C99.9641 98.3782 99.8604 98.3621 99.7653 98.306C99.6707 98.25 99.6073 98.1483 99.5756 98.0015L99.3958 97.1713L100.74 96.6397L100.666 94.1726C100.67 94.0536 100.705 93.9542 100.77 93.875C100.836 93.7959 100.93 93.7427 101.054 93.7156L102.135 93.4804L102.728 96.2162L105.043 95.7124L105.366 97.203L103.05 97.7063L104.07 102.416C104.129 102.687 104.24 102.884 104.402 103.009C104.57 103.132 104.77 103.168 105.001 103.118C105.13 103.089 105.234 103.052 105.313 103.006C105.395 102.952 105.464 102.902 105.518 102.854C105.579 102.806 105.631 102.762 105.676 102.723C105.719 102.677 105.766 102.65 105.817 102.639C105.879 102.625 105.933 102.631 105.98 102.656C106.026 102.676 106.077 102.712 106.136 102.764L106.981 103.645C106.732 103.965 106.424 104.233 106.058 104.448C105.692 104.664 105.298 104.818 104.876 104.909Z" fill="#212121"/>
</g>
</svg>
