<svg width="225" height="133" viewBox="0 0 225 133" fill="none" xmlns="http://www.w3.org/2000/svg">
<g clip-path="url(#clip0_4002_1428)">
<mask id="mask0_4002_1428" style="mask-type:luminance" maskUnits="userSpaceOnUse" x="0" y="0" width="225" height="133">
<path d="M225 0H0V133H225V0Z" fill="white"/>
</mask>
<g mask="url(#mask0_4002_1428)">
<mask id="mask1_4002_1428" style="mask-type:luminance" maskUnits="userSpaceOnUse" x="0" y="0" width="225" height="133">
<path d="M225 0H0V133H225V0Z" fill="white"/>
</mask>
<g mask="url(#mask1_4002_1428)">
<path d="M192.029 0H36.2319C35.2314 0 34.4203 0.811255 34.4203 1.81199V104.008C34.4203 105.009 35.2314 105.82 36.2319 105.82H192.029C193.029 105.82 193.841 105.009 193.841 104.008V1.81199C193.841 0.811255 193.029 0 192.029 0Z" fill="#DFDFDF"/>
<path d="M186.956 6.52316H41.6666V94.9482H186.956V6.52316Z" fill="#555555"/>
<path d="M186.956 6.52316H41.6666V94.9482H186.956V6.52316Z" fill="url(#paint0_linear_4002_1428)" fill-opacity="0.4"/>
<path d="M41.3043 63.138C68.2195 48.2134 84.1322 47.8898 114.13 63.138C142.029 74.1103 157.27 76.9041 186.956 63.138V95.3106H41.3043V63.138Z" fill="#FFC200" fill-opacity="0.15"/>
<path d="M186.956 81.101C160.041 74.5093 144.022 65.166 114.13 81.101C89.855 94.0422 73.7319 92.4114 41.3043 81.101V95.3106H186.956V81.101Z" fill="#FFC200" fill-opacity="0.15"/>
<path d="M33.2088 107.642C33.5246 107.4 33.9109 107.27 34.3081 107.27H192.476C192.89 107.27 193.292 107.411 193.614 107.672L221.007 129.778C222.337 130.851 221.578 133 219.87 133H5.35836C3.62521 133 2.88146 130.8 4.25905 129.748L33.2088 107.642Z" fill="#DFDFDF"/>
<path d="M21.4529 124.549C24.7464 124.549 28.058 124.545 31.395 124.549C30.3877 125.545 29.4203 126.549 28.4674 127.553C24.9964 127.55 21.5435 127.55 18.116 127.553C19.2065 126.549 20.3152 125.549 21.4529 124.549Z" fill="#5D5D5D"/>
<path d="M33.779 124.549C37.1377 124.549 40.4855 124.553 43.837 124.553C42.9928 125.553 42.1739 126.549 41.3732 127.553C37.9022 127.553 34.4239 127.553 30.9457 127.55C31.8696 126.549 32.8152 125.549 33.779 124.549Z" fill="#5D5D5D"/>
<path d="M46.2247 124.549C49.5797 124.549 52.9348 124.549 56.2826 124.553C55.5979 125.549 54.9239 126.549 54.2681 127.553C50.7935 127.553 47.3225 127.553 43.8551 127.557C44.6232 126.553 45.4239 125.549 46.2247 124.549Z" fill="#5D5D5D"/>
<path d="M58.6739 124.553C62.0217 124.549 65.3623 124.549 68.7065 124.553C68.1775 125.549 67.6594 126.549 67.1449 127.553C63.6812 127.553 60.2138 127.553 56.75 127.553C57.3768 126.549 58.0145 125.553 58.6739 124.553Z" fill="#5D5D5D"/>
<path d="M71.1015 124.553C74.4421 124.549 77.779 124.549 81.1268 124.553C80.75 125.549 80.3841 126.549 80.0218 127.553C76.5544 127.553 73.0906 127.557 69.616 127.557C70.1087 126.549 70.5942 125.549 71.1015 124.553Z" fill="#5D5D5D"/>
<path d="M83.5145 124.549C86.855 124.549 90.1956 124.549 93.5398 124.553C93.3188 125.553 93.0978 126.553 92.8913 127.557C89.4203 127.557 85.9565 127.553 82.4963 127.553C82.8297 126.549 83.1666 125.549 83.5145 124.549Z" fill="#5D5D5D"/>
<path d="M95.9239 124.549C99.2609 124.549 102.601 124.549 105.942 124.553C105.877 125.553 105.815 126.553 105.75 127.557C102.294 127.553 98.8225 127.553 95.366 127.557C95.5435 126.553 95.7319 125.549 95.9239 124.549Z" fill="#5D5D5D"/>
<path d="M108.33 124.553C111.67 124.549 115.007 124.549 118.351 124.553C118.424 125.553 118.525 126.553 118.616 127.557C115.152 127.553 111.685 127.553 108.221 127.557C108.261 126.553 108.297 125.553 108.33 124.553Z" fill="#5D5D5D"/>
<path d="M120.739 124.553C124.069 124.549 127.42 124.549 130.761 124.549C131.004 125.549 131.243 126.553 131.475 127.557C128.011 127.553 124.547 127.553 121.091 127.557C120.975 126.553 120.855 125.553 120.739 124.553Z" fill="#5D5D5D"/>
<path d="M133.145 124.553C136.489 124.549 139.826 124.549 143.163 124.549C143.565 125.549 143.96 126.549 144.344 127.553C140.88 127.553 137.417 127.557 133.953 127.557C133.685 126.553 133.413 125.553 133.145 124.553Z" fill="#5D5D5D"/>
<path d="M145.558 124.553C148.895 124.549 152.236 124.549 155.587 124.553C156.134 125.549 156.685 126.549 157.217 127.557C153.75 127.557 150.283 127.553 146.822 127.553C146.402 126.549 145.982 125.549 145.558 124.553Z" fill="#5D5D5D"/>
<path d="M157.975 124.553C161.322 124.549 164.67 124.549 168.014 124.553C168.717 125.549 169.413 126.549 170.098 127.553C166.63 127.553 163.163 127.553 159.696 127.553C159.127 126.549 158.562 125.549 157.975 124.553Z" fill="#5D5D5D"/>
<path d="M170.402 124.552C173.746 124.552 177.094 124.552 180.449 124.552C181.308 125.553 182.159 126.557 182.993 127.56C179.518 127.557 176.047 127.557 172.58 127.557C171.87 126.553 171.138 125.549 170.402 124.552Z" fill="#5D5D5D"/>
<path d="M182.841 124.556C186.199 124.556 189.558 124.552 192.899 124.552C193.92 125.553 194.92 126.553 195.902 127.557C192.417 127.557 188.953 127.557 185.471 127.557C184.612 126.553 183.736 125.556 182.841 124.556Z" fill="#5D5D5D"/>
<path d="M195.293 124.552C198.63 124.552 201.938 124.556 205.232 124.556C206.417 125.556 207.591 126.557 208.75 127.56C205.301 127.557 201.851 127.557 198.377 127.56C197.373 126.553 196.341 125.553 195.293 124.552Z" fill="#5D5D5D"/>
<path d="M37.1595 111.256C39.9457 111.256 42.7029 111.256 45.4638 111.256C44.9783 111.724 44.4928 112.198 44.0001 112.673C41.1848 112.673 38.3479 112.677 35.4819 112.677C36.0435 112.198 36.6015 111.724 37.1595 111.256Z" fill="#5D5D5D"/>
<path d="M47.4276 111.256C50.1739 111.256 52.9276 111.256 55.6739 111.256C55.2682 111.724 54.866 112.198 54.4457 112.677C51.6341 112.677 48.8261 112.673 46.0145 112.673C46.4892 112.198 46.9602 111.724 47.4276 111.256Z" fill="#5D5D5D"/>
<path d="M57.634 111.256C60.4022 111.256 63.1522 111.256 65.9203 111.256C65.5761 111.724 65.2427 112.198 64.9022 112.673C62.0833 112.673 59.2717 112.673 56.4529 112.677C56.8551 112.198 57.25 111.724 57.634 111.256Z" fill="#5D5D5D"/>
<path d="M67.8805 111.256C70.645 111.256 73.4058 111.256 76.1667 111.256C75.9058 111.724 75.6413 112.198 75.366 112.677C72.5508 112.677 69.7247 112.677 66.9131 112.677C67.2392 112.198 67.558 111.724 67.8805 111.256Z" fill="#5D5D5D"/>
<path d="M78.1341 111.256C80.8986 111.256 83.6595 111.256 86.424 111.256C86.2356 111.724 86.0472 112.198 85.8587 112.677C83.029 112.677 80.2138 112.673 77.3914 112.673C77.6414 112.198 77.8914 111.724 78.1341 111.256Z" fill="#5D5D5D"/>
<path d="M88.3949 111.256C91.1594 111.256 93.9239 111.256 96.6884 111.256C96.5761 111.724 96.4638 112.198 96.3479 112.673C93.5218 112.673 90.7029 112.673 87.8768 112.673C88.0471 112.198 88.221 111.724 88.3949 111.256Z" fill="#5D5D5D"/>
<path d="M98.6703 111.256C101.428 111.256 104.185 111.256 106.953 111.256C106.913 111.724 106.877 112.198 106.841 112.673C104.011 112.673 101.192 112.677 98.366 112.677C98.4638 112.198 98.5616 111.724 98.6703 111.256Z" fill="#5D5D5D"/>
<path d="M108.931 111.256C111.688 111.256 114.46 111.256 117.221 111.256C117.261 111.724 117.301 112.198 117.337 112.677C114.511 112.673 111.681 112.673 108.855 112.677C108.884 112.198 108.906 111.724 108.931 111.256Z" fill="#5D5D5D"/>
<path d="M119.196 111.256C121.96 111.256 124.721 111.256 127.482 111.256C127.598 111.724 127.717 112.198 127.822 112.677C124.996 112.677 122.178 112.673 119.351 112.673C119.297 112.198 119.243 111.724 119.196 111.256Z" fill="#5D5D5D"/>
<path d="M129.467 111.256C132.228 111.256 134.993 111.256 137.757 111.256C137.942 111.724 138.13 112.198 138.322 112.673C135.493 112.673 132.674 112.673 129.844 112.673C129.717 112.198 129.594 111.724 129.467 111.256Z" fill="#5D5D5D"/>
<path d="M139.728 111.256C142.493 111.256 145.257 111.256 148.015 111.256C148.272 111.724 148.547 112.198 148.804 112.673C145.982 112.673 143.159 112.677 140.337 112.677C140.134 112.198 139.928 111.724 139.728 111.256Z" fill="#5D5D5D"/>
<path d="M149.989 111.256C152.746 111.256 155.511 111.256 158.268 111.256C158.605 111.724 158.942 112.198 159.283 112.677C156.457 112.677 153.641 112.677 150.819 112.677C150.543 112.198 150.261 111.724 149.989 111.256Z" fill="#5D5D5D"/>
<path d="M160.239 111.256C162.996 111.256 165.754 111.256 168.511 111.256C168.913 111.724 169.33 112.198 169.743 112.677C166.924 112.673 164.109 112.673 161.293 112.673C160.942 112.198 160.587 111.724 160.239 111.256Z" fill="#5D5D5D"/>
<path d="M170.478 111.256C173.225 111.256 175.978 111.256 178.728 111.256C179.207 111.727 179.696 112.202 180.185 112.677C177.37 112.677 174.554 112.68 171.75 112.677C171.315 112.198 170.899 111.724 170.478 111.256Z" fill="#5D5D5D"/>
<path d="M180.688 111.256C183.442 111.256 186.214 111.256 189.004 111.256C189.572 111.727 190.141 112.202 190.717 112.68C187.855 112.68 185.015 112.677 182.192 112.677C181.688 112.202 181.185 111.727 180.688 111.256Z" fill="#5D5D5D"/>
<path d="M34.6377 113.394C39.0326 113.394 43.3913 113.391 47.7246 113.391C46.7391 114.391 45.7391 115.395 44.7464 116.399C40.1993 116.399 35.6377 116.399 31.0435 116.399C32.2391 115.391 33.442 114.391 34.6377 113.394Z" fill="#5D5D5D"/>
<path d="M49.7572 113.391C52.5978 113.391 55.442 113.391 58.2826 113.391C57.4637 114.391 56.6376 115.395 55.8115 116.399C52.826 116.399 49.8478 116.399 46.8695 116.399C47.8405 115.395 48.8007 114.391 49.7572 113.391Z" fill="#5D5D5D"/>
<path d="M60.3225 113.394C63.1631 113.394 66.0182 113.394 68.866 113.394C68.1993 114.391 67.5471 115.391 66.8805 116.391C63.895 116.391 60.9131 116.399 57.9348 116.399C58.7355 115.395 59.529 114.395 60.3225 113.394Z" fill="#5D5D5D"/>
<path d="M70.9058 113.391C73.7572 113.391 76.6051 113.394 79.4601 113.394C78.9601 114.391 78.4601 115.391 77.9638 116.399C74.9746 116.391 71.9927 116.391 69.0109 116.391C69.6377 115.391 70.2681 114.391 70.9058 113.391Z" fill="#5D5D5D"/>
<path d="M81.4927 113.391C84.3478 113.391 87.1993 113.391 90.0543 113.391C89.721 114.391 89.3877 115.391 89.0507 116.399C86.0652 116.399 83.0761 116.391 80.0906 116.391C80.5616 115.391 81.029 114.391 81.4927 113.391Z" fill="#5D5D5D"/>
<path d="M92.0979 113.391C94.9529 113.391 97.8044 113.394 100.663 113.394C100.486 114.391 100.319 115.391 100.145 116.391C97.1558 116.391 94.1739 116.399 91.1848 116.399C91.4892 115.395 91.7971 114.391 92.0979 113.391Z" fill="#5D5D5D"/>
<path d="M102.707 113.394C105.562 113.391 108.417 113.391 111.272 113.391C111.254 114.391 111.243 115.391 111.239 116.399C108.25 116.391 105.268 116.391 102.283 116.391C102.417 115.391 102.565 114.391 102.707 113.394Z" fill="#5D5D5D"/>
<path d="M113.308 113.391C116.17 113.391 119.025 113.391 121.877 113.394C122.025 114.394 122.181 115.395 122.333 116.399C119.348 116.391 116.355 116.391 113.377 116.391C113.355 115.391 113.33 114.391 113.308 113.391Z" fill="#5D5D5D"/>
<path d="M123.917 113.391C126.772 113.391 129.63 113.394 132.482 113.394C132.793 114.391 133.105 115.391 133.424 116.399C130.435 116.399 127.449 116.399 124.467 116.399C124.279 115.395 124.101 114.391 123.917 113.391Z" fill="#5D5D5D"/>
<path d="M134.529 113.394C137.388 113.394 140.239 113.394 143.091 113.394C143.562 114.395 144.04 115.395 144.518 116.399C141.533 116.399 138.543 116.391 135.562 116.391C135.217 115.391 134.866 114.395 134.529 113.394Z" fill="#5D5D5D"/>
<path d="M145.127 113.394C147.982 113.394 150.833 113.394 153.685 113.394C154.322 114.395 154.956 115.391 155.605 116.391C152.627 116.391 149.638 116.399 146.652 116.399C146.141 115.395 145.634 114.395 145.127 113.394Z" fill="#5D5D5D"/>
<path d="M155.721 113.394C158.572 113.391 161.424 113.391 164.268 113.391C165.069 114.391 165.873 115.391 166.685 116.391C163.699 116.391 160.721 116.391 157.732 116.399C157.062 115.395 156.391 114.394 155.721 113.394Z" fill="#5D5D5D"/>
<path d="M166.308 113.394C169.149 113.391 171.996 113.391 174.837 113.394C175.801 114.394 176.768 115.395 177.75 116.395C174.772 116.395 171.79 116.395 168.812 116.391C167.975 115.391 167.13 114.391 166.308 113.394Z" fill="#5D5D5D"/>
<path d="M176.87 113.394C181.739 113.394 186.649 113.394 191.591 113.398C192.819 114.395 194.047 115.395 195.283 116.402C190.116 116.402 184.986 116.402 179.877 116.402C178.866 115.395 177.862 114.395 176.87 113.394Z" fill="#5D5D5D"/>
<path d="M30.192 117.112C33.9565 117.112 37.6993 117.112 41.442 117.112C40.3877 118.109 39.3333 119.113 38.2935 120.117C34.3949 120.117 30.4964 120.113 26.6123 120.113C27.8007 119.113 28.9855 118.109 30.192 117.112Z" fill="#5D5D5D"/>
<path d="M41.442 117.112C44.4529 117.112 47.4637 117.112 50.4819 117.112C49.5616 118.113 48.6522 119.113 47.7464 120.113C44.5906 120.113 41.4456 120.113 38.2935 120.117C39.3333 119.113 40.3877 118.109 41.442 117.112Z" fill="#5D5D5D"/>
<path d="M52.6304 117.109C55.6377 117.109 58.6558 117.109 61.663 117.112C60.9203 118.109 60.1884 119.113 59.4529 120.113C56.2971 120.113 53.1486 120.113 50 120.113C50.8696 119.113 51.7464 118.109 52.6304 117.109Z" fill="#5D5D5D"/>
<path d="M63.8152 117.109C66.8333 117.109 69.8406 117.109 72.8659 117.112C72.2935 118.109 71.7246 119.113 71.1558 120.113C68.0036 120.113 64.8587 120.113 61.7029 120.113C62.4094 119.113 63.1087 118.109 63.8152 117.109Z" fill="#5D5D5D"/>
<path d="M75.0181 117.112C78.0362 117.112 81.0543 117.112 84.0725 117.112C83.6594 118.109 83.2609 119.113 82.8551 120.117C79.7101 120.117 76.558 120.113 73.4094 120.113C73.942 119.113 74.4783 118.113 75.0181 117.112Z" fill="#5D5D5D"/>
<path d="M86.2282 117.112C89.2427 117.112 92.2608 117.112 95.2753 117.112C95.0362 118.113 94.8007 119.113 94.5615 120.113C91.4094 120.113 88.2572 120.113 85.1086 120.113C85.4818 119.113 85.8478 118.109 86.2282 117.112Z" fill="#5D5D5D"/>
<path d="M97.4384 117.112C100.449 117.112 103.467 117.109 106.489 117.109C106.417 118.109 106.337 119.113 106.257 120.113C103.109 120.113 99.9638 120.113 96.808 120.113C97.0181 119.113 97.2246 118.113 97.4384 117.112Z" fill="#5D5D5D"/>
<path d="M108.649 117.109C111.656 117.109 114.678 117.109 117.696 117.109C117.786 118.109 117.866 119.117 117.949 120.117C114.808 120.117 111.656 120.117 108.514 120.117C108.554 119.117 108.598 118.109 108.649 117.109Z" fill="#5D5D5D"/>
<path d="M119.848 117.109C122.877 117.109 125.891 117.112 128.913 117.112C129.159 118.113 129.406 119.113 129.663 120.113C126.507 120.113 123.362 120.113 120.206 120.113C120.091 119.113 119.975 118.109 119.848 117.109Z" fill="#5D5D5D"/>
<path d="M131.069 117.112C134.083 117.112 137.101 117.112 140.116 117.112C140.533 118.109 140.946 119.113 141.359 120.113C138.214 120.113 135.062 120.113 131.906 120.113C131.62 119.113 131.348 118.113 131.069 117.112Z" fill="#5D5D5D"/>
<path d="M142.275 117.112C145.293 117.112 148.308 117.112 151.322 117.112C151.906 118.113 152.485 119.113 153.065 120.113C149.909 120.113 146.757 120.117 143.616 120.117C143.167 119.113 142.717 118.109 142.275 117.112Z" fill="#5D5D5D"/>
<path d="M153.478 117.112C156.493 117.109 159.514 117.109 162.533 117.109C163.275 118.109 164.025 119.113 164.768 120.113C161.62 120.113 158.464 120.113 155.308 120.113C154.703 119.113 154.091 118.109 153.478 117.112Z" fill="#5D5D5D"/>
<path d="M164.681 117.112C167.696 117.109 170.71 117.109 173.717 117.112C174.638 118.113 175.551 119.117 176.475 120.117C173.319 120.117 170.167 120.113 167.018 120.113C166.236 119.113 165.457 118.109 164.681 117.112Z" fill="#5D5D5D"/>
<path d="M175.877 117.116C178.884 117.116 181.895 117.116 184.906 117.116C185.996 118.113 187.094 119.117 188.178 120.12C185.029 120.117 181.873 120.117 178.725 120.117C177.775 119.117 176.83 118.116 175.877 117.116Z" fill="#5D5D5D"/>
<path d="M184.906 117.116C188.649 117.116 192.391 117.116 196.159 117.116C197.402 118.116 198.63 119.12 199.859 120.12C195.978 120.117 192.076 120.117 188.178 120.12C187.094 119.117 185.996 118.113 184.906 117.116Z" fill="#5D5D5D"/>
<path d="M25.7681 120.827C31.3442 120.827 36.9384 120.827 42.5507 120.831C41.5869 121.831 40.6449 122.831 39.7065 123.831C33.8587 123.831 28.0435 123.831 22.2717 123.831C23.4239 122.831 24.5942 121.831 25.7681 120.827Z" fill="#5D5D5D"/>
<path d="M42.5507 120.831C45.7355 120.831 48.9203 120.831 52.1087 120.831C51.279 121.831 50.4747 122.831 49.6667 123.835C46.3442 123.831 43.0254 123.831 39.7065 123.831C40.6449 122.831 41.587 121.831 42.5507 120.831Z" fill="#5D5D5D"/>
<path d="M54.3877 120.831C57.5652 120.827 60.75 120.827 63.9348 120.827C63.2826 121.831 62.6268 122.831 61.9855 123.831C58.6703 123.831 55.3515 123.831 52.0363 123.831C52.808 122.831 53.5906 121.835 54.3877 120.831Z" fill="#5D5D5D"/>
<path d="M66.2101 120.831C69.3876 120.827 72.5724 120.827 75.7499 120.827C75.2644 121.831 74.7789 122.835 74.297 123.835C70.9891 123.831 67.6739 123.831 64.3586 123.831C64.9673 122.831 65.5833 121.831 66.2101 120.831Z" fill="#5D5D5D"/>
<path d="M78.0254 120.831C81.2101 120.827 84.3877 120.827 87.5761 120.831C87.25 121.835 86.9203 122.831 86.6014 123.831C83.2826 123.831 79.9783 123.831 76.6703 123.835C77.1051 122.831 77.5652 121.831 78.0254 120.831Z" fill="#5D5D5D"/>
<path d="M89.8478 120.827C93.029 120.827 96.2102 120.827 99.3913 120.831C99.221 121.835 99.0616 122.831 98.8986 123.831C95.5906 123.831 92.279 123.835 88.9674 123.835C89.2573 122.835 89.5507 121.831 89.8478 120.827Z" fill="#5D5D5D"/>
<path d="M101.659 120.831C104.844 120.831 108.025 120.827 111.206 120.827C111.196 121.831 111.196 122.831 111.196 123.835C107.88 123.835 104.572 123.835 101.264 123.835C101.391 122.835 101.529 121.835 101.659 120.831Z" fill="#5D5D5D"/>
<path d="M113.478 120.831C116.656 120.831 119.837 120.827 123.022 120.827C123.174 121.831 123.333 122.831 123.482 123.831C120.174 123.831 116.866 123.835 113.554 123.835C113.518 122.835 113.496 121.835 113.478 120.831Z" fill="#5D5D5D"/>
<path d="M125.29 120.831C128.475 120.827 131.656 120.827 134.833 120.831C135.152 121.835 135.471 122.831 135.786 123.831C132.475 123.831 129.156 123.831 125.851 123.831C125.656 122.831 125.475 121.835 125.29 120.831Z" fill="#5D5D5D"/>
<path d="M137.109 120.827C140.293 120.827 143.475 120.827 146.663 120.827C147.134 121.831 147.609 122.831 148.083 123.835C144.768 123.831 141.464 123.831 138.152 123.835C137.808 122.831 137.46 121.831 137.109 120.827Z" fill="#5D5D5D"/>
<path d="M148.927 120.827C152.105 120.827 155.293 120.831 158.475 120.831C159.12 121.835 159.754 122.831 160.391 123.831C157.08 123.831 153.764 123.831 150.456 123.835C149.946 122.831 149.442 121.831 148.927 120.827Z" fill="#5D5D5D"/>
<path d="M160.754 120.831C163.935 120.831 167.116 120.831 170.304 120.831C171.109 121.835 171.917 122.835 172.714 123.835C169.395 123.831 166.076 123.835 162.757 123.835C162.094 122.831 161.424 121.831 160.754 120.831Z" fill="#5D5D5D"/>
<path d="M172.576 120.831C175.754 120.831 178.946 120.834 182.127 120.834C183.112 121.835 184.08 122.835 185.04 123.835C181.721 123.835 178.399 123.835 175.076 123.835C174.25 122.835 173.42 121.835 172.576 120.831Z" fill="#5D5D5D"/>
<path d="M182.127 120.834C188.351 120.831 194.551 120.831 200.739 120.834C201.957 121.838 203.174 122.838 204.373 123.835C197.975 123.835 191.525 123.835 185.04 123.835C184.08 122.835 183.112 121.835 182.127 120.834Z" fill="#5D5D5D"/>
<path d="M97.5199 25.2258C97.4503 25.3475 97.3749 25.4374 97.2938 25.4954C97.2184 25.5476 97.1228 25.5737 97.0068 25.5737C96.8851 25.5737 96.7518 25.5302 96.6068 25.4432C96.4677 25.3504 96.2996 25.249 96.1025 25.1388C95.9054 25.0286 95.6735 24.9301 95.4068 24.8431C95.146 24.7503 94.8358 24.7039 94.4764 24.7039C94.1518 24.7039 93.8677 24.7445 93.6242 24.8257C93.3807 24.9011 93.1749 25.0083 93.0068 25.1475C92.8445 25.2867 92.7228 25.4548 92.6416 25.652C92.5604 25.8433 92.5199 26.0549 92.5199 26.2869C92.5199 26.5826 92.601 26.829 92.7633 27.0262C92.9315 27.2233 93.1518 27.3915 93.4242 27.5306C93.6967 27.6698 94.0068 27.7945 94.3547 27.9046C94.7025 28.0148 95.059 28.1337 95.4242 28.2612C95.7894 28.383 96.146 28.5279 96.4938 28.6961C96.8416 28.8585 97.1517 29.0672 97.4242 29.3223C97.6967 29.5717 97.9141 29.879 98.0764 30.2443C98.2445 30.6096 98.3286 31.0531 98.3286 31.575C98.3286 32.1432 98.23 32.6767 98.0329 33.1753C97.8416 33.6682 97.5575 34.1002 97.1807 34.4713C96.8097 34.8366 96.3546 35.1265 95.8155 35.341C95.2764 35.5498 94.659 35.6541 93.9633 35.6541C93.5633 35.6541 93.1691 35.6136 92.7807 35.5324C92.3923 35.457 92.0184 35.3468 91.659 35.2019C91.3054 35.0569 90.972 34.883 90.659 34.68C90.3459 34.4771 90.0677 34.2509 89.8242 34.0016L90.5112 32.8796C90.5691 32.7984 90.6445 32.7318 90.7373 32.6796C90.83 32.6216 90.9286 32.5926 91.0329 32.5926C91.1778 32.5926 91.3344 32.6535 91.5025 32.7753C91.6706 32.8912 91.8706 33.0217 92.1025 33.1666C92.3344 33.3116 92.6039 33.445 92.9112 33.5667C93.2242 33.6827 93.5981 33.7407 94.0329 33.7407C94.6996 33.7407 95.2155 33.5841 95.5807 33.271C95.946 32.9521 96.1286 32.4969 96.1286 31.9055C96.1286 31.575 96.0445 31.3054 95.8764 31.0966C95.7141 30.8879 95.4967 30.7139 95.2242 30.5748C94.9517 30.4298 94.6416 30.308 94.2938 30.2095C93.946 30.1109 93.5923 30.0036 93.2329 29.8877C92.8735 29.7717 92.5199 29.6325 92.172 29.4702C91.8242 29.3078 91.5141 29.0962 91.2416 28.8353C90.9691 28.5743 90.7489 28.2496 90.5807 27.8611C90.4184 27.4668 90.3373 26.9827 90.3373 26.4086C90.3373 25.9506 90.4271 25.5041 90.6068 25.0692C90.7923 24.6343 91.059 24.2488 91.4068 23.9125C91.7546 23.5761 92.1836 23.3065 92.6938 23.1036C93.2039 22.9006 93.7894 22.7992 94.4503 22.7992C95.1923 22.7992 95.8764 22.9151 96.5025 23.1471C97.1286 23.379 97.6619 23.7037 98.1025 24.1212L97.5199 25.2258ZM102.613 35.6541C101.836 35.6541 101.239 35.4367 100.822 35.0018C100.41 34.5611 100.204 33.9552 100.204 33.184V28.2003H99.2912C99.1753 28.2003 99.0767 28.1627 98.9956 28.0873C98.9144 28.0119 98.8739 27.8988 98.8739 27.7481V26.8957L100.309 26.6609L100.761 24.2256C100.79 24.1096 100.845 24.0197 100.926 23.9559C101.007 23.8922 101.112 23.8603 101.239 23.8603H102.352V26.6696H104.735V28.2003H102.352V33.0362C102.352 33.3145 102.419 33.5319 102.552 33.6885C102.691 33.845 102.88 33.9233 103.117 33.9233C103.251 33.9233 103.361 33.9088 103.448 33.8798C103.541 33.845 103.619 33.8103 103.683 33.7755C103.752 33.7407 103.813 33.7088 103.865 33.6798C103.917 33.645 103.97 33.6276 104.022 33.6276C104.085 33.6276 104.138 33.645 104.178 33.6798C104.219 33.7088 104.262 33.7552 104.309 33.819L104.952 34.8627C104.639 35.1236 104.28 35.3207 103.874 35.4541C103.468 35.5875 103.048 35.6541 102.613 35.6541ZM109.99 26.4521C110.651 26.4521 111.251 26.5594 111.79 26.7739C112.335 26.9885 112.798 27.2929 113.181 27.6872C113.57 28.0815 113.868 28.5627 114.077 29.131C114.285 29.6992 114.39 30.3341 114.39 31.0357C114.39 31.7431 114.285 32.381 114.077 32.9492C113.868 33.5174 113.57 34.0016 113.181 34.4017C112.798 34.8018 112.335 35.1091 111.79 35.3236C111.251 35.5382 110.651 35.6454 109.99 35.6454C109.323 35.6454 108.717 35.5382 108.172 35.3236C107.627 35.1091 107.161 34.8018 106.772 34.4017C106.39 34.0016 106.091 33.5174 105.877 32.9492C105.668 32.381 105.564 31.7431 105.564 31.0357C105.564 30.3341 105.668 29.6992 105.877 29.131C106.091 28.5627 106.39 28.0815 106.772 27.6872C107.161 27.2929 107.627 26.9885 108.172 26.7739C108.717 26.5594 109.323 26.4521 109.99 26.4521ZM109.99 33.9929C110.732 33.9929 111.28 33.7436 111.633 33.2449C111.993 32.7463 112.172 32.0157 112.172 31.0531C112.172 30.0906 111.993 29.3571 111.633 28.8527C111.28 28.3482 110.732 28.096 109.99 28.096C109.236 28.096 108.677 28.3511 108.312 28.8614C107.952 29.3658 107.772 30.0964 107.772 31.0531C107.772 32.0099 107.952 32.7405 108.312 33.2449C108.677 33.7436 109.236 33.9929 109.99 33.9929ZM118.055 28.1395C118.333 27.606 118.663 27.1885 119.046 26.887C119.429 26.5797 119.881 26.426 120.402 26.426C120.814 26.426 121.145 26.5159 121.394 26.6957L121.255 28.3047C121.226 28.4091 121.182 28.4845 121.124 28.5308C121.072 28.5714 121 28.5917 120.907 28.5917C120.82 28.5917 120.689 28.5772 120.516 28.5482C120.347 28.5193 120.182 28.5048 120.02 28.5048C119.782 28.5048 119.571 28.5395 119.385 28.6091C119.2 28.6787 119.031 28.7802 118.881 28.9135C118.736 29.0411 118.605 29.1977 118.489 29.3832C118.379 29.5688 118.275 29.7804 118.176 30.0181V35.515H116.029V26.5913H117.289C117.51 26.5913 117.663 26.6319 117.75 26.7131C117.837 26.7884 117.895 26.9276 117.924 27.1305L118.055 28.1395ZM122.516 35.515V26.5913H123.829C124.108 26.5913 124.29 26.7218 124.377 26.9827L124.516 27.6437C124.673 27.4697 124.835 27.3103 125.003 27.1653C125.177 27.0204 125.36 26.8957 125.551 26.7913C125.748 26.687 125.957 26.6058 126.177 26.5478C126.403 26.484 126.65 26.4521 126.916 26.4521C127.479 26.4521 127.939 26.6058 128.299 26.9131C128.664 27.2146 128.937 27.6176 129.116 28.1221C129.255 27.8263 129.429 27.5741 129.638 27.3654C129.847 27.1508 130.076 26.9769 130.325 26.8435C130.574 26.7102 130.838 26.6116 131.116 26.5478C131.4 26.484 131.684 26.4521 131.968 26.4521C132.461 26.4521 132.899 26.5275 133.281 26.6783C133.664 26.829 133.986 27.0494 134.247 27.3393C134.508 27.6292 134.705 27.9829 134.838 28.4004C134.977 28.8179 135.047 29.2962 135.047 29.8355V35.515H132.899V29.8355C132.899 29.2672 132.774 28.8411 132.525 28.5569C132.276 28.267 131.91 28.1221 131.429 28.1221C131.209 28.1221 131.003 28.1598 130.812 28.2351C130.626 28.3105 130.461 28.4207 130.316 28.5656C130.177 28.7048 130.067 28.8816 129.986 29.0962C129.905 29.3107 129.864 29.5572 129.864 29.8355V35.515H127.708V29.8355C127.708 29.2382 127.586 28.8034 127.342 28.5308C127.105 28.2583 126.754 28.1221 126.29 28.1221C125.977 28.1221 125.684 28.2003 125.412 28.3569C125.145 28.5077 124.896 28.7164 124.664 28.9831V35.515H122.516ZM85.5978 43.582C85.8152 43.379 86.0543 43.2141 86.3152 43.0873C86.576 42.9604 86.8822 42.897 87.2336 42.897C87.538 42.897 87.8079 42.9496 88.0434 43.0547C88.2789 43.1561 88.4746 43.3011 88.6304 43.4895C88.7898 43.6744 88.9094 43.8972 88.9891 44.1582C89.0724 44.4155 89.1141 44.7 89.1141 45.0116V48.5613H87.7717V45.0116C87.7717 44.671 87.6938 44.4082 87.538 44.2234C87.3822 44.035 87.1449 43.9407 86.826 43.9407C86.5941 43.9407 86.3767 43.9933 86.1738 44.0984C85.971 44.2035 85.7789 44.3466 85.5978 44.5278V48.5613H84.2554V40.4835H85.5978V43.582ZM93.3362 46.1803C92.9485 46.1985 92.6224 46.2329 92.3579 46.2836C92.0934 46.3307 91.8815 46.3924 91.722 46.4685C91.5626 46.5446 91.4485 46.6333 91.3796 46.7348C91.3108 46.8363 91.2764 46.9468 91.2764 47.0664C91.2764 47.302 91.3452 47.4705 91.4829 47.572C91.6242 47.6734 91.8072 47.7242 92.0318 47.7242C92.3072 47.7242 92.5445 47.6752 92.7438 47.5774C92.9467 47.4759 93.1441 47.3237 93.3362 47.1208V46.1803ZM90.2601 43.7613C90.9014 43.1743 91.6731 42.8807 92.5753 42.8807C92.9014 42.8807 93.1931 42.9351 93.4503 43.0438C93.7075 43.1489 93.9249 43.2975 94.1025 43.4895C94.28 43.678 94.4141 43.9045 94.5047 44.169C94.5989 44.4336 94.6459 44.7235 94.6459 45.0388V48.5613H94.0373C93.9104 48.5613 93.8126 48.5432 93.7438 48.5069C93.6749 48.4671 93.6206 48.3892 93.5807 48.2732L93.4612 47.8709C93.3199 47.9978 93.1822 48.1101 93.0481 48.208C92.9141 48.3022 92.7746 48.3819 92.6296 48.4471C92.4847 48.5124 92.3289 48.5613 92.1623 48.5939C91.9992 48.6302 91.8181 48.6483 91.6188 48.6483C91.3833 48.6483 91.1659 48.6175 90.9666 48.5559C90.7673 48.4906 90.5952 48.3946 90.4503 48.2678C90.3054 48.1409 90.1931 47.9833 90.1133 47.7948C90.0336 47.6064 89.9938 47.3871 89.9938 47.1371C89.9938 46.9957 90.0173 46.8562 90.0644 46.7185C90.1115 46.5772 90.1876 46.4431 90.2927 46.3162C90.4014 46.1894 90.5409 46.0698 90.7112 45.9575C90.8815 45.8451 91.0898 45.7473 91.3362 45.6639C91.5862 45.5806 91.876 45.5135 92.2057 45.4628C92.5354 45.4084 92.9123 45.3758 93.3362 45.365V45.0388C93.3362 44.6655 93.2565 44.3901 93.097 44.2125C92.9376 44.0313 92.7075 43.9407 92.4068 43.9407C92.1894 43.9407 92.0083 43.9661 91.8633 44.0168C91.722 44.0676 91.597 44.1256 91.4883 44.1908C91.3796 44.2524 91.28 44.3086 91.1894 44.3593C91.1025 44.41 91.0046 44.4354 90.896 44.4354C90.8017 44.4354 90.722 44.4118 90.6568 44.3647C90.5916 44.314 90.5391 44.256 90.4992 44.1908L90.2601 43.7613ZM99.3126 44.0712C99.2764 44.1292 99.2383 44.1709 99.1985 44.1962C99.1586 44.218 99.1079 44.2288 99.0463 44.2288C98.9811 44.2288 98.9104 44.2107 98.8344 44.1745C98.7619 44.1382 98.6768 44.0984 98.5789 44.0549C98.4811 44.0078 98.3688 43.9661 98.242 43.9299C98.1188 43.8936 97.972 43.8755 97.8018 43.8755C97.5373 43.8755 97.3289 43.9317 97.1768 44.044C97.0282 44.1564 96.9539 44.3031 96.9539 44.4843C96.9539 44.6039 96.992 44.7054 97.0681 44.7887C97.1478 44.8685 97.251 44.9391 97.3778 45.0007C97.5083 45.0624 97.655 45.1185 97.8181 45.1693C97.9811 45.2164 98.1459 45.2689 98.3126 45.3269C98.4829 45.3849 98.6496 45.4519 98.8126 45.528C98.9757 45.6005 99.1206 45.6947 99.2474 45.8107C99.3778 45.923 99.4811 46.0589 99.5572 46.2184C99.6369 46.3779 99.6768 46.5699 99.6768 46.7946C99.6768 47.0628 99.6278 47.311 99.53 47.5393C99.4358 47.764 99.2945 47.9597 99.1061 48.1264C98.9177 48.2895 98.684 48.4182 98.405 48.5124C98.1296 48.603 97.8108 48.6483 97.4485 48.6483C97.2565 48.6483 97.0681 48.6302 96.8833 48.5939C96.7021 48.5613 96.5264 48.5142 96.3561 48.4526C96.1894 48.391 96.0336 48.3185 95.8887 48.2351C95.7474 48.1518 95.6224 48.0612 95.5137 47.9633L95.8235 47.4524C95.8633 47.3908 95.9104 47.3436 95.9648 47.311C96.0191 47.2784 96.088 47.2621 96.1713 47.2621C96.2547 47.2621 96.3325 47.2857 96.405 47.3328C96.4811 47.3799 96.5681 47.4306 96.6659 47.485C96.7637 47.5393 96.8778 47.5901 97.0083 47.6372C97.1423 47.6843 97.3108 47.7079 97.5137 47.7079C97.6731 47.7079 97.809 47.6897 97.9213 47.6535C98.0373 47.6136 98.1315 47.5629 98.2039 47.5013C98.28 47.4397 98.3344 47.369 98.367 47.2893C98.4032 47.2059 98.4213 47.1208 98.4213 47.0338C98.4213 46.9033 98.3815 46.7964 98.3017 46.7131C98.2257 46.6297 98.1224 46.5572 97.992 46.4956C97.8652 46.434 97.7184 46.3797 97.5518 46.3326C97.3887 46.2818 97.2202 46.2275 97.0463 46.1695C96.876 46.1115 96.7075 46.0444 96.5409 45.9683C96.3778 45.8886 96.2311 45.789 96.1007 45.6694C95.9739 45.5498 95.8706 45.403 95.7909 45.2291C95.7148 45.0551 95.6767 44.8449 95.6767 44.5985C95.6767 44.3702 95.722 44.1527 95.8126 43.9462C95.9032 43.7396 96.0354 43.5602 96.2094 43.408C96.3869 43.2522 96.6061 43.129 96.867 43.0384C97.1315 42.9441 97.4358 42.897 97.78 42.897C98.1641 42.897 98.5137 42.9604 98.8289 43.0873C99.1441 43.2141 99.4068 43.3808 99.617 43.5874L99.3126 44.0712ZM106.276 46.1803C105.888 46.1985 105.562 46.2329 105.297 46.2836C105.033 46.3307 104.821 46.3924 104.662 46.4685C104.502 46.5446 104.388 46.6333 104.319 46.7348C104.25 46.8363 104.216 46.9468 104.216 47.0664C104.216 47.302 104.285 47.4705 104.422 47.572C104.564 47.6734 104.747 47.7242 104.971 47.7242C105.247 47.7242 105.484 47.6752 105.683 47.5774C105.886 47.4759 106.084 47.3237 106.276 47.1208V46.1803ZM103.2 43.7613C103.841 43.1743 104.613 42.8807 105.515 42.8807C105.841 42.8807 106.133 42.9351 106.39 43.0438C106.647 43.1489 106.864 43.2975 107.042 43.4895C107.22 43.678 107.354 43.9045 107.444 44.169C107.538 44.4336 107.585 44.7235 107.585 45.0388V48.5613H106.977C106.85 48.5613 106.752 48.5432 106.683 48.5069C106.614 48.4671 106.56 48.3892 106.52 48.2732L106.401 47.8709C106.259 47.9978 106.122 48.1101 105.988 48.208C105.854 48.3022 105.714 48.3819 105.569 48.4471C105.424 48.5124 105.268 48.5613 105.102 48.5939C104.939 48.6302 104.758 48.6483 104.558 48.6483C104.323 48.6483 104.105 48.6175 103.906 48.5559C103.707 48.4906 103.535 48.3946 103.39 48.2678C103.245 48.1409 103.133 47.9833 103.053 47.7948C102.973 47.6064 102.933 47.3871 102.933 47.1371C102.933 46.9957 102.957 46.8562 103.004 46.7185C103.051 46.5772 103.127 46.4431 103.232 46.3162C103.341 46.1894 103.48 46.0698 103.651 45.9575C103.821 45.8451 104.029 45.7473 104.276 45.6639C104.526 45.5806 104.816 45.5135 105.145 45.4628C105.475 45.4084 105.852 45.3758 106.276 45.365V45.0388C106.276 44.6655 106.196 44.3901 106.037 44.2125C105.877 44.0313 105.647 43.9407 105.346 43.9407C105.129 43.9407 104.948 43.9661 104.803 44.0168C104.662 44.0676 104.537 44.1256 104.428 44.1908C104.319 44.2524 104.22 44.3086 104.129 44.3593C104.042 44.41 103.944 44.4354 103.835 44.4354C103.741 44.4354 103.662 44.4118 103.596 44.3647C103.531 44.314 103.479 44.256 103.439 44.1908L103.2 43.7613ZM109.146 48.5613V43.9951L108.662 43.919C108.557 43.8972 108.472 43.861 108.406 43.8103C108.345 43.7559 108.314 43.6798 108.314 43.582V43.0329H109.146V42.7176C109.146 42.3987 109.193 42.1124 109.287 41.8588C109.385 41.6051 109.522 41.3894 109.7 41.2119C109.881 41.0343 110.1 40.8984 110.358 40.8042C110.615 40.71 110.905 40.6628 111.227 40.6628C111.484 40.6628 111.723 40.6973 111.945 40.7661L111.917 41.4347C111.914 41.4855 111.899 41.5272 111.874 41.5598C111.848 41.5924 111.814 41.6178 111.771 41.6359C111.731 41.6504 111.684 41.6612 111.629 41.6685C111.575 41.6721 111.517 41.6739 111.455 41.6739C111.296 41.6739 111.153 41.692 111.026 41.7283C110.903 41.7609 110.798 41.8207 110.711 41.9077C110.624 41.991 110.557 42.1034 110.51 42.2447C110.466 42.3824 110.445 42.5546 110.445 42.7611V43.0329H112.667V42.5382C112.667 42.2193 112.714 41.933 112.809 41.6794C112.906 41.4257 113.044 41.2101 113.222 41.0325C113.403 40.8549 113.622 40.719 113.879 40.6248C114.137 40.5306 114.426 40.4835 114.749 40.4835C114.876 40.4835 114.997 40.4925 115.113 40.5106C115.233 40.5251 115.35 40.5487 115.466 40.5813L115.434 41.2554C115.426 41.3605 115.377 41.4275 115.287 41.4565C115.2 41.4819 115.097 41.4945 114.977 41.4945C114.818 41.4945 114.675 41.5127 114.548 41.5489C114.425 41.5815 114.32 41.6413 114.233 41.7283C114.146 41.8116 114.079 41.924 114.031 42.0653C113.988 42.203 113.966 42.3752 113.966 42.5817V43.0329H115.412V43.9897H114.01V48.5613H112.667V43.9897H110.488V48.5613H109.146ZM119.618 45.1312C119.618 44.9573 119.592 44.7942 119.542 44.642C119.495 44.4861 119.422 44.3502 119.324 44.2343C119.226 44.1183 119.101 44.0277 118.949 43.9625C118.801 43.8936 118.627 43.8592 118.427 43.8592C118.04 43.8592 117.734 43.9697 117.509 44.1908C117.288 44.4118 117.147 44.7253 117.085 45.1312H119.618ZM117.058 45.9412C117.08 46.2275 117.13 46.4757 117.21 46.6859C117.29 46.8925 117.395 47.0646 117.525 47.2023C117.656 47.3364 117.81 47.4379 117.987 47.5067C118.168 47.572 118.368 47.6046 118.585 47.6046C118.802 47.6046 118.989 47.5792 119.145 47.5285C119.304 47.4777 119.442 47.4216 119.558 47.3599C119.677 47.2983 119.781 47.2422 119.868 47.1914C119.958 47.1407 120.045 47.1153 120.129 47.1153C120.241 47.1153 120.324 47.157 120.379 47.2404L120.764 47.7296C120.616 47.9035 120.449 48.0503 120.264 48.1699C120.08 48.2859 119.886 48.3801 119.683 48.4526C119.484 48.5214 119.279 48.5704 119.069 48.5993C118.862 48.6283 118.661 48.6428 118.466 48.6428C118.078 48.6428 117.717 48.5794 117.384 48.4526C117.051 48.3221 116.761 48.1319 116.514 47.8818C116.268 47.6281 116.074 47.3165 115.933 46.9468C115.792 46.5735 115.721 46.1423 115.721 45.6531C115.721 45.2725 115.783 44.9156 115.906 44.5822C116.029 44.2451 116.205 43.9534 116.433 43.707C116.665 43.4569 116.946 43.2594 117.275 43.1145C117.609 42.9695 117.984 42.897 118.4 42.897C118.752 42.897 119.076 42.9532 119.373 43.0655C119.67 43.1779 119.926 43.3428 120.139 43.5602C120.353 43.774 120.52 44.0386 120.639 44.3539C120.763 44.6655 120.824 45.0225 120.824 45.4247C120.824 45.6277 120.802 45.7654 120.759 45.8379C120.716 45.9067 120.632 45.9412 120.509 45.9412H117.058ZM125.826 44.1636C125.787 44.2143 125.747 44.2542 125.707 44.2832C125.671 44.3122 125.616 44.3267 125.544 44.3267C125.475 44.3267 125.408 44.3068 125.343 44.2669C125.277 44.2234 125.2 44.1763 125.109 44.1256C125.018 44.0712 124.91 44.0241 124.783 43.9842C124.66 43.9407 124.506 43.919 124.321 43.919C124.085 43.919 123.879 43.9625 123.701 44.0494C123.524 44.1328 123.375 44.2542 123.256 44.4137C123.14 44.5731 123.053 44.767 122.995 44.9953C122.937 45.22 122.908 45.4755 122.908 45.7618C122.908 46.0589 122.939 46.3235 123 46.5554C123.066 46.7874 123.158 46.9831 123.277 47.1425C123.397 47.2983 123.542 47.4179 123.712 47.5013C123.883 47.581 124.075 47.6209 124.288 47.6209C124.502 47.6209 124.674 47.5955 124.805 47.5448C124.939 47.4904 125.051 47.4324 125.142 47.3708C125.232 47.3056 125.31 47.2476 125.375 47.1969C125.444 47.1425 125.52 47.1153 125.604 47.1153C125.712 47.1153 125.794 47.157 125.848 47.2404L126.234 47.7296C126.085 47.9035 125.924 48.0503 125.75 48.1699C125.576 48.2859 125.395 48.3801 125.207 48.4526C125.022 48.5214 124.83 48.5704 124.631 48.5993C124.435 48.6283 124.239 48.6428 124.044 48.6428C123.7 48.6428 123.375 48.5794 123.071 48.4526C122.767 48.3221 122.5 48.1337 122.272 47.8872C122.044 47.6408 121.863 47.34 121.729 46.9849C121.598 46.6261 121.533 46.2184 121.533 45.7618C121.533 45.3523 121.591 44.9736 121.707 44.6257C121.826 44.2741 122 43.9715 122.229 43.7179C122.457 43.4606 122.739 43.2594 123.076 43.1145C123.413 42.9695 123.801 42.897 124.239 42.897C124.656 42.897 125.02 42.9641 125.332 43.0982C125.647 43.2322 125.93 43.4243 126.18 43.6744L125.826 44.1636ZM128.934 48.6483C128.448 48.6483 128.075 48.5124 127.814 48.2406C127.557 47.9652 127.429 47.5864 127.429 47.1045V43.9897H126.858C126.785 43.9897 126.724 43.9661 126.673 43.919C126.622 43.8719 126.597 43.8012 126.597 43.707V43.1743L127.494 43.0275L127.776 41.5054C127.795 41.4329 127.829 41.3768 127.88 41.3369C127.93 41.297 127.996 41.2771 128.075 41.2771H128.771V43.0329H130.26V43.9897H128.771V47.0121C128.771 47.186 128.813 47.3219 128.896 47.4197C128.983 47.5176 129.101 47.5665 129.249 47.5665C129.333 47.5665 129.401 47.5575 129.456 47.5393C129.514 47.5176 129.563 47.4958 129.602 47.4741C129.646 47.4524 129.684 47.4324 129.717 47.4143C129.749 47.3926 129.782 47.3817 129.814 47.3817C129.854 47.3817 129.887 47.3926 129.912 47.4143C129.938 47.4324 129.965 47.4614 129.994 47.5013L130.396 48.1536C130.2 48.3167 129.976 48.4399 129.722 48.5232C129.468 48.6066 129.206 48.6483 128.934 48.6483ZM134.67 45.1312C134.67 44.9573 134.644 44.7942 134.593 44.642C134.546 44.4861 134.474 44.3502 134.376 44.2343C134.278 44.1183 134.153 44.0277 134.001 43.9625C133.852 43.8936 133.679 43.8592 133.479 43.8592C133.092 43.8592 132.785 43.9697 132.561 44.1908C132.34 44.4118 132.198 44.7253 132.137 45.1312H134.67ZM132.11 45.9412C132.131 46.2275 132.182 46.4757 132.262 46.6859C132.342 46.8925 132.447 47.0646 132.577 47.2023C132.708 47.3364 132.862 47.4379 133.039 47.5067C133.22 47.572 133.42 47.6046 133.637 47.6046C133.854 47.6046 134.041 47.5792 134.197 47.5285C134.356 47.4777 134.494 47.4216 134.61 47.3599C134.729 47.2983 134.833 47.2422 134.92 47.1914C135.01 47.1407 135.097 47.1153 135.18 47.1153C135.293 47.1153 135.376 47.157 135.43 47.2404L135.816 47.7296C135.668 47.9035 135.501 48.0503 135.316 48.1699C135.131 48.2859 134.938 48.3801 134.735 48.4526C134.535 48.5214 134.331 48.5704 134.121 48.5993C133.914 48.6283 133.713 48.6428 133.517 48.6428C133.13 48.6428 132.769 48.5794 132.436 48.4526C132.102 48.3221 131.813 48.1319 131.566 47.8818C131.32 47.6281 131.126 47.3165 130.985 46.9468C130.843 46.5735 130.773 46.1423 130.773 45.6531C130.773 45.2725 130.834 44.9156 130.958 44.5822C131.081 44.2451 131.256 43.9534 131.485 43.707C131.717 43.4569 131.997 43.2594 132.327 43.1145C132.66 42.9695 133.035 42.897 133.452 42.897C133.804 42.897 134.128 42.9532 134.425 43.0655C134.722 43.1779 134.977 43.3428 135.191 43.5602C135.405 43.774 135.572 44.0386 135.691 44.3539C135.814 44.6655 135.876 45.0225 135.876 45.4247C135.876 45.6277 135.854 45.7654 135.811 45.8379C135.767 45.9067 135.684 45.9412 135.561 45.9412H132.11ZM140.384 44.4082C140.231 44.2234 140.065 44.0929 139.884 44.0168C139.706 43.9407 139.514 43.9027 139.308 43.9027C139.105 43.9027 138.922 43.9407 138.759 44.0168C138.596 44.0929 138.456 44.2089 138.34 44.3647C138.224 44.5169 138.135 44.7126 138.074 44.9518C138.012 45.1874 137.981 45.4664 137.981 45.789C137.981 46.1151 138.007 46.3923 138.058 46.6207C138.112 46.8453 138.188 47.0302 138.286 47.1751C138.384 47.3165 138.503 47.4197 138.645 47.485C138.786 47.5466 138.943 47.5774 139.117 47.5774C139.396 47.5774 139.634 47.5194 139.829 47.4034C140.025 47.2875 140.21 47.1226 140.384 46.9088V44.4082ZM141.726 40.4835V48.5613H140.905C140.728 48.5613 140.616 48.4798 140.568 48.3167L140.454 47.7785C140.23 48.0358 139.971 48.2442 139.677 48.4037C139.387 48.5631 139.048 48.6428 138.661 48.6428C138.356 48.6428 138.077 48.5794 137.824 48.4526C137.57 48.3257 137.351 48.1427 137.166 47.9035C136.985 47.6607 136.844 47.3618 136.742 47.0066C136.645 46.6515 136.596 46.2456 136.596 45.789C136.596 45.3758 136.652 44.9917 136.764 44.6365C136.876 44.2814 137.038 43.9733 137.248 43.7124C137.458 43.4515 137.71 43.2485 138.003 43.1036C138.297 42.955 138.626 42.8807 138.992 42.8807C139.304 42.8807 139.57 42.9296 139.791 43.0275C140.012 43.1253 140.21 43.2576 140.384 43.4243V40.4835H141.726Z" fill="white"/>
<path d="M105.003 64.7098V66.3188H98.0467V64.7098H100.595V57.3777C100.595 57.0878 100.603 56.7892 100.621 56.4819L98.8119 57.9953C98.7076 58.0764 98.6032 58.1286 98.4989 58.1518C98.4003 58.1692 98.3047 58.1692 98.2119 58.1518C98.1249 58.1344 98.0467 58.1054 97.9771 58.0648C97.9076 58.0185 97.8554 57.9692 97.8206 57.917L97.1423 56.9863L100.977 53.7248H102.742V64.7098H105.003ZM121.126 53.7422V66.3188H119.066V58.1953C119.066 57.8706 119.083 57.5198 119.118 57.1429L115.318 64.2836C115.138 64.6257 114.863 64.7967 114.492 64.7967H114.161C113.79 64.7967 113.515 64.6257 113.335 64.2836L109.492 57.1168C109.509 57.3082 109.523 57.4966 109.535 57.6821C109.547 57.8677 109.552 58.0387 109.552 58.1953V66.3188H107.492V53.7422H109.257C109.361 53.7422 109.451 53.7451 109.526 53.7509C109.602 53.7567 109.668 53.7711 109.726 53.7943C109.79 53.8175 109.845 53.8552 109.892 53.9074C109.944 53.9596 109.993 54.0292 110.039 54.1162L113.805 61.1003C113.903 61.2858 113.993 61.4772 114.074 61.6743C114.161 61.8715 114.245 62.0744 114.326 62.2831C114.408 62.0686 114.492 61.8628 114.579 61.6656C114.666 61.4627 114.758 61.2684 114.857 61.0829L118.57 54.1162C118.616 54.0292 118.666 53.9596 118.718 53.9074C118.77 53.8552 118.825 53.8175 118.883 53.7943C118.947 53.7711 119.016 53.7567 119.092 53.7509C119.167 53.7451 119.257 53.7422 119.361 53.7422H121.126ZM131.819 61.2742H128.445V64.8576H126.697V61.2742H123.341V59.6826H126.697V56.1166H128.445V59.6826H131.819V61.2742ZM81.9648 75.2121C81.8126 75.0272 81.646 74.8968 81.4648 74.8207C81.2873 74.7446 81.0952 74.7065 80.8887 74.7065C80.6858 74.7065 80.5028 74.7446 80.3398 74.8207C80.1768 74.8968 80.0373 75.0127 79.9213 75.1686C79.8054 75.3208 79.7166 75.5165 79.655 75.7556C79.5934 75.9912 79.5626 76.2703 79.5626 76.5928C79.5626 76.9189 79.588 77.1962 79.6387 77.4245C79.6931 77.6492 79.7691 77.834 79.867 77.979C79.9648 78.1203 80.0844 78.2236 80.2257 78.2888C80.367 78.3504 80.5246 78.3812 80.6985 78.3812C80.9775 78.3812 81.2148 78.3232 81.4104 78.2073C81.6061 78.0913 81.7909 77.9264 81.9648 77.7126V75.2121ZM83.3072 71.2873V79.3651H82.4865C82.309 79.3651 82.1967 79.2836 82.1496 79.1205L82.0355 78.5824C81.8108 78.8397 81.5518 79.048 81.2583 79.2075C80.9684 79.3669 80.6297 79.4467 80.242 79.4467C79.9376 79.4467 79.6586 79.3833 79.405 79.2564C79.1514 79.1296 78.9322 78.9466 78.7474 78.7074C78.5662 78.4646 78.4249 78.1656 78.3235 77.8104C78.2257 77.4553 78.1768 77.0494 78.1768 76.5928C78.1768 76.1797 78.2329 75.7955 78.3452 75.4404C78.4576 75.0852 78.6188 74.7772 78.8289 74.5162C79.0391 74.2553 79.2909 74.0524 79.5844 73.9074C79.8778 73.7588 80.2076 73.6845 80.5735 73.6845C80.8851 73.6845 81.1514 73.7335 81.3724 73.8313C81.5934 73.9292 81.7909 74.0614 81.9648 74.2281V71.2873H83.3072ZM88.2246 75.935C88.2246 75.7611 88.1992 75.598 88.1485 75.4458C88.1014 75.29 88.0289 75.1541 87.9311 75.0381C87.8333 74.9221 87.7083 74.8315 87.5561 74.7663C87.4076 74.6974 87.2336 74.663 87.0344 74.663C86.6467 74.663 86.3405 74.7736 86.1159 74.9946C85.8949 75.2157 85.7536 75.5292 85.692 75.935H88.2246ZM85.6648 76.745C85.6865 77.0313 85.7373 77.2795 85.817 77.4897C85.8967 77.6963 86.0018 77.8684 86.1322 78.0061C86.2626 78.1402 86.4166 78.2417 86.5941 78.3106C86.7753 78.3758 86.9746 78.4084 87.192 78.4084C87.4094 78.4084 87.596 78.383 87.7518 78.3323C87.9112 78.2816 88.0489 78.2254 88.1648 78.1638C88.2844 78.1022 88.3876 78.046 88.4746 77.9953C88.5652 77.9445 88.6521 77.9192 88.7355 77.9192C88.8478 77.9192 88.9311 77.9608 88.9855 78.0442L89.3713 78.5334C89.2228 78.7074 89.0561 78.8542 88.8713 78.9737C88.6865 79.0897 88.4927 79.1839 88.2898 79.2564C88.0905 79.3253 87.8858 79.3742 87.6757 79.4032C87.4691 79.4322 87.2681 79.4467 87.0724 79.4467C86.6847 79.4467 86.3242 79.3833 85.9909 79.2564C85.6576 79.1259 85.3677 78.9357 85.1213 78.6856C84.8749 78.432 84.6811 78.1203 84.5398 77.7506C84.3985 77.3774 84.3278 76.9461 84.3278 76.4569C84.3278 76.0764 84.3894 75.7194 84.5126 75.386C84.6358 75.049 84.8115 74.7572 85.0398 74.5108C85.2717 74.2608 85.5525 74.0633 85.8822 73.9183C86.2155 73.7733 86.5905 73.7009 87.0072 73.7009C87.3586 73.7009 87.6829 73.757 87.98 73.8694C88.2771 73.9817 88.5326 74.1466 88.7463 74.364C88.9601 74.5779 89.1268 74.8424 89.2463 75.1577C89.3695 75.4694 89.4311 75.8263 89.4311 76.2286C89.4311 76.4315 89.4094 76.5692 89.3659 76.6417C89.3224 76.7106 89.2391 76.745 89.1159 76.745H85.6648ZM95.3275 73.7878L93.1155 79.3651H91.8981L89.6862 73.7878H90.7949C90.8963 73.7878 90.9797 73.8114 91.0449 73.8585C91.1137 73.9056 91.159 73.9654 91.1807 74.0379L92.2568 77.0168C92.3148 77.1907 92.3655 77.3611 92.409 77.5278C92.4525 77.6945 92.4905 77.8612 92.5231 78.0279C92.5594 77.8612 92.5992 77.6945 92.6427 77.5278C92.6862 77.3611 92.7387 77.1907 92.8003 77.0168L93.8981 74.0379C93.9235 73.9654 93.9688 73.9056 94.034 73.8585C94.0992 73.8114 94.1771 73.7878 94.2677 73.7878H95.3275ZM97.4344 73.7878V79.3651H96.0865V73.7878H97.4344ZM97.6191 72.1625C97.6191 72.2784 97.5956 72.3872 97.5485 72.4886C97.5014 72.5901 97.438 72.6789 97.3583 72.755C97.2822 72.8311 97.1916 72.8927 97.0865 72.9398C96.9815 72.9833 96.8691 73.005 96.7496 73.005C96.6336 73.005 96.5231 72.9833 96.4181 72.9398C96.3166 72.8927 96.2278 72.8311 96.1518 72.755C96.0757 72.6789 96.0141 72.5901 95.967 72.4886C95.9235 72.3872 95.9018 72.2784 95.9018 72.1625C95.9018 72.0429 95.9235 71.9305 95.967 71.8254C96.0141 71.7204 96.0757 71.6298 96.1518 71.5536C96.2278 71.4775 96.3166 71.4177 96.4181 71.3743C96.5231 71.3271 96.6336 71.3036 96.7496 71.3036C96.8691 71.3036 96.9815 71.3271 97.0865 71.3743C97.1916 71.4177 97.2822 71.4775 97.3583 71.5536C97.438 71.6298 97.5014 71.7204 97.5485 71.8254C97.5956 71.9305 97.6191 72.0429 97.6191 72.1625ZM102.797 74.9674C102.758 75.0182 102.718 75.058 102.678 75.087C102.642 75.116 102.587 75.1305 102.515 75.1305C102.446 75.1305 102.379 75.1106 102.314 75.0707C102.248 75.0272 102.171 74.9801 102.08 74.9294C101.989 74.875 101.881 74.8279 101.754 74.788C101.631 74.7446 101.477 74.7228 101.292 74.7228C101.056 74.7228 100.85 74.7663 100.672 74.8533C100.495 74.9366 100.346 75.058 100.227 75.2175C100.111 75.3769 100.024 75.5708 99.9659 75.7991C99.9079 76.0238 99.8789 76.2793 99.8789 76.5656C99.8789 76.8628 99.9097 77.1273 99.9713 77.3593C100.037 77.5912 100.129 77.7869 100.248 77.9463C100.368 78.1022 100.513 78.2218 100.683 78.3051C100.854 78.3848 101.046 78.4247 101.259 78.4247C101.473 78.4247 101.645 78.3993 101.776 78.3486C101.91 78.2942 102.022 78.2363 102.113 78.1747C102.203 78.1094 102.281 78.0514 102.346 78.0007C102.415 77.9463 102.491 77.9192 102.575 77.9192C102.683 77.9192 102.765 77.9608 102.819 78.0442L103.205 78.5334C103.056 78.7074 102.895 78.8542 102.721 78.9737C102.547 79.0897 102.366 79.1839 102.178 79.2564C101.993 79.3253 101.801 79.3742 101.602 79.4032C101.406 79.4322 101.21 79.4467 101.015 79.4467C100.671 79.4467 100.346 79.3833 100.042 79.2564C99.7376 79.1259 99.4713 78.9375 99.2431 78.6911C99.0148 78.4446 98.8336 78.1438 98.6996 77.7887C98.5692 77.4299 98.5039 77.0222 98.5039 76.5656C98.5039 76.1561 98.5619 75.7774 98.6778 75.4295C98.7974 75.078 98.9713 74.7754 99.1996 74.5217C99.4278 74.2644 99.7105 74.0633 100.047 73.9183C100.384 73.7733 100.772 73.7009 101.21 73.7009C101.627 73.7009 101.991 73.7679 102.303 73.902C102.618 74.0361 102.901 74.2281 103.151 74.4782L102.797 74.9674ZM107.543 75.935C107.543 75.7611 107.518 75.598 107.467 75.4458C107.42 75.29 107.348 75.1541 107.25 75.0381C107.152 74.9221 107.027 74.8315 106.875 74.7663C106.726 74.6974 106.552 74.663 106.353 74.663C105.966 74.663 105.659 74.7736 105.435 74.9946C105.214 75.2157 105.072 75.5292 105.011 75.935H107.543ZM104.984 76.745C105.005 77.0313 105.056 77.2795 105.136 77.4897C105.216 77.6963 105.321 77.8684 105.451 78.0061C105.581 78.1402 105.735 78.2417 105.913 78.3106C106.094 78.3758 106.293 78.4084 106.511 78.4084C106.728 78.4084 106.915 78.383 107.071 78.3323C107.23 78.2816 107.368 78.2254 107.484 78.1638C107.603 78.1022 107.706 78.046 107.793 77.9953C107.884 77.9445 107.971 77.9192 108.054 77.9192C108.167 77.9192 108.25 77.9608 108.304 78.0442L108.69 78.5334C108.542 78.7074 108.375 78.8542 108.19 78.9737C108.005 79.0897 107.812 79.1839 107.609 79.2564C107.409 79.3253 107.205 79.3742 106.995 79.4032C106.788 79.4322 106.587 79.4467 106.391 79.4467C106.004 79.4467 105.643 79.3833 105.31 79.2564C104.976 79.1259 104.687 78.9357 104.44 78.6856C104.194 78.432 104 78.1203 103.859 77.7506C103.717 77.3774 103.647 76.9461 103.647 76.4569C103.647 76.0764 103.708 75.7194 103.831 75.386C103.955 75.049 104.13 74.7572 104.359 74.5108C104.591 74.2608 104.871 74.0633 105.201 73.9183C105.534 73.7733 105.909 73.7009 106.326 73.7009C106.677 73.7009 107.002 73.757 107.299 73.8694C107.596 73.9817 107.851 74.1466 108.065 74.364C108.279 74.5779 108.446 74.8424 108.565 75.1577C108.688 75.4694 108.75 75.8263 108.75 76.2286C108.75 76.4315 108.728 76.5692 108.685 76.6417C108.641 76.7106 108.558 76.745 108.435 76.745H104.984ZM113.16 74.875C113.124 74.933 113.085 74.9747 113.046 75.0001C113.006 75.0218 112.955 75.0327 112.893 75.0327C112.828 75.0327 112.758 75.0145 112.681 74.9783C112.609 74.9421 112.524 74.9022 112.426 74.8587C112.328 74.8116 112.216 74.7699 112.089 74.7337C111.966 74.6974 111.819 74.6793 111.649 74.6793C111.384 74.6793 111.176 74.7355 111.024 74.8478C110.875 74.9602 110.801 75.107 110.801 75.2882C110.801 75.4077 110.839 75.5092 110.915 75.5926C110.995 75.6723 111.098 75.743 111.225 75.8046C111.355 75.8662 111.502 75.9224 111.665 75.9731C111.828 76.0202 111.993 76.0727 112.16 76.1307C112.33 76.1887 112.497 76.2558 112.66 76.3319C112.823 76.4043 112.968 76.4986 113.095 76.6145C113.225 76.7269 113.328 76.8628 113.404 77.0222C113.484 77.1817 113.524 77.3738 113.524 77.5984C113.524 77.8666 113.475 78.1149 113.377 78.3432C113.283 78.5679 113.142 78.7636 112.953 78.9303C112.765 79.0933 112.531 79.222 112.252 79.3162C111.977 79.4068 111.658 79.4521 111.296 79.4521C111.104 79.4521 110.915 79.434 110.73 79.3977C110.549 79.3651 110.374 79.318 110.203 79.2564C110.037 79.1948 109.881 79.1223 109.736 79.039C109.595 78.9556 109.47 78.865 109.361 78.7672L109.671 78.2562C109.71 78.1946 109.758 78.1475 109.812 78.1149C109.866 78.0822 109.935 78.0659 110.018 78.0659C110.102 78.0659 110.18 78.0895 110.252 78.1366C110.328 78.1837 110.415 78.2345 110.513 78.2888C110.611 78.3432 110.725 78.3939 110.855 78.441C110.989 78.4881 111.158 78.5117 111.361 78.5117C111.52 78.5117 111.656 78.4936 111.768 78.4573C111.884 78.4175 111.979 78.3667 112.051 78.3051C112.127 78.2435 112.181 78.1728 112.214 78.0931C112.25 78.0098 112.268 77.9246 112.268 77.8376C112.268 77.7072 112.229 77.6003 112.149 77.5169C112.073 77.4335 111.97 77.3611 111.839 77.2995C111.712 77.2379 111.566 77.1835 111.399 77.1364C111.236 77.0857 111.067 77.0313 110.893 76.9733C110.723 76.9153 110.555 76.8483 110.388 76.7722C110.225 76.6924 110.078 76.5928 109.948 76.4732C109.821 76.3536 109.718 76.2068 109.638 76.0329C109.562 75.8589 109.524 75.6487 109.524 75.4023C109.524 75.174 109.569 74.9566 109.66 74.75C109.75 74.5434 109.883 74.364 110.056 74.2118C110.234 74.056 110.453 73.9328 110.714 73.8422C110.979 73.748 111.283 73.7009 111.627 73.7009C112.011 73.7009 112.361 73.7643 112.676 73.8911C112.991 74.018 113.254 74.1847 113.464 74.3912L113.16 74.875ZM119.036 79.4521C118.55 79.4521 118.177 79.3162 117.916 79.0444C117.659 78.769 117.53 78.3903 117.53 77.9083V74.7935H116.96C116.887 74.7935 116.826 74.7699 116.775 74.7228C116.724 74.6757 116.699 74.605 116.699 74.5108V73.9781L117.596 73.8313L117.878 72.3092C117.896 72.2368 117.931 72.1806 117.981 72.1407C118.032 72.1009 118.097 72.0809 118.177 72.0809H118.873V73.8368H120.362V74.7935H118.873V77.8159C118.873 77.9898 118.914 78.1257 118.998 78.2236C119.085 78.3214 119.202 78.3704 119.351 78.3704C119.434 78.3704 119.503 78.3613 119.558 78.3432C119.616 78.3214 119.664 78.2997 119.704 78.2779C119.748 78.2562 119.786 78.2363 119.818 78.2181C119.851 78.1964 119.884 78.1855 119.916 78.1855C119.956 78.1855 119.989 78.1964 120.014 78.2181C120.039 78.2363 120.067 78.2653 120.096 78.3051L120.498 78.9574C120.302 79.1205 120.077 79.2437 119.824 79.3271C119.57 79.4104 119.308 79.4521 119.036 79.4521ZM123.646 73.7009C124.059 73.7009 124.434 73.7679 124.771 73.902C125.112 74.0361 125.402 74.2263 125.641 74.4728C125.884 74.7192 126.07 75.02 126.201 75.3751C126.331 75.7303 126.396 76.1271 126.396 76.5656C126.396 77.0077 126.331 77.4064 126.201 77.7615C126.07 78.1167 125.884 78.4193 125.641 78.6693C125.402 78.9194 125.112 79.1115 124.771 79.2455C124.434 79.3796 124.059 79.4467 123.646 79.4467C123.23 79.4467 122.851 79.3796 122.51 79.2455C122.17 79.1115 121.878 78.9194 121.635 78.6693C121.396 78.4193 121.21 78.1167 121.076 77.7615C120.945 77.4064 120.88 77.0077 120.88 76.5656C120.88 76.1271 120.945 75.7303 121.076 75.3751C121.21 75.02 121.396 74.7192 121.635 74.4728C121.878 74.2263 122.17 74.0361 122.51 73.902C122.851 73.7679 123.23 73.7009 123.646 73.7009ZM123.646 78.4138C124.11 78.4138 124.452 78.258 124.673 77.9463C124.898 77.6347 125.01 77.1781 125.01 76.5765C125.01 75.9749 124.898 75.5165 124.673 75.2012C124.452 74.8859 124.11 74.7283 123.646 74.7283C123.175 74.7283 122.826 74.8877 122.597 75.2066C122.373 75.5219 122.26 75.9785 122.26 76.5765C122.26 77.1744 122.373 77.6311 122.597 77.9463C122.826 78.258 123.175 78.4138 123.646 78.4138ZM133.564 75.2121C133.412 75.0272 133.245 74.8968 133.064 74.8207C132.886 74.7446 132.694 74.7065 132.488 74.7065C132.285 74.7065 132.102 74.7446 131.939 74.8207C131.776 74.8968 131.636 75.0127 131.52 75.1686C131.404 75.3208 131.316 75.5165 131.254 75.7556C131.192 75.9912 131.162 76.2703 131.162 76.5928C131.162 76.9189 131.187 77.1962 131.238 77.4245C131.292 77.6492 131.368 77.834 131.466 77.979C131.564 78.1203 131.683 78.2236 131.825 78.2888C131.966 78.3504 132.123 78.3812 132.297 78.3812C132.576 78.3812 132.814 78.3232 133.009 78.2073C133.205 78.0913 133.39 77.9264 133.564 77.7126V75.2121ZM134.906 71.2873V79.3651H134.085C133.908 79.3651 133.796 79.2836 133.748 79.1205L133.634 78.5824C133.41 78.8397 133.151 79.048 132.857 79.2075C132.567 79.3669 132.229 79.4467 131.841 79.4467C131.537 79.4467 131.258 79.3833 131.004 79.2564C130.75 79.1296 130.531 78.9466 130.346 78.7074C130.165 78.4646 130.024 78.1656 129.922 77.8104C129.825 77.4553 129.776 77.0494 129.776 76.5928C129.776 76.1797 129.832 75.7955 129.944 75.4404C130.056 75.0852 130.218 74.7772 130.428 74.5162C130.638 74.2553 130.89 74.0524 131.183 73.9074C131.477 73.7588 131.806 73.6845 132.172 73.6845C132.484 73.6845 132.75 73.7335 132.971 73.8313C133.192 73.9292 133.39 74.0614 133.564 74.2281V71.2873H134.906ZM139.176 76.9842C138.789 77.0023 138.463 77.0367 138.198 77.0875C137.934 77.1346 137.722 77.1962 137.562 77.2723C137.403 77.3484 137.289 77.4372 137.22 77.5386C137.151 77.6401 137.117 77.7507 137.117 77.8702C137.117 78.1058 137.185 78.2743 137.323 78.3758C137.464 78.4773 137.647 78.528 137.872 78.528C138.147 78.528 138.385 78.4791 138.584 78.3812C138.787 78.2798 138.984 78.1275 139.176 77.9246V76.9842ZM136.1 74.5652C136.742 73.9781 137.513 73.6845 138.416 73.6845C138.742 73.6845 139.033 73.7389 139.291 73.8476C139.548 73.9527 139.765 74.1013 139.943 74.2934C140.12 74.4818 140.254 74.7083 140.345 74.9729C140.439 75.2374 140.486 75.5273 140.486 75.8426V79.3651H139.877C139.751 79.3651 139.653 79.347 139.584 79.3108C139.515 79.2709 139.461 79.193 139.421 79.077L139.301 78.6748C139.16 78.8016 139.022 78.9139 138.888 79.0118C138.754 79.106 138.615 79.1857 138.47 79.251C138.325 79.3162 138.169 79.3651 138.002 79.3977C137.839 79.434 137.658 79.4521 137.459 79.4521C137.223 79.4521 137.006 79.4213 136.807 79.3597C136.608 79.2945 136.435 79.1984 136.291 79.0716C136.146 78.9448 136.033 78.7871 135.954 78.5987C135.874 78.4102 135.834 78.191 135.834 77.9409C135.834 77.7996 135.858 77.66 135.905 77.5223C135.952 77.381 136.028 77.2469 136.133 77.1201C136.242 76.9932 136.381 76.8736 136.551 76.7613C136.722 76.649 136.93 76.5511 137.176 76.4678C137.426 76.3844 137.716 76.3174 138.046 76.2666C138.376 76.2123 138.752 76.1797 139.176 76.1688V75.8426C139.176 75.4694 139.097 75.1939 138.937 75.0164C138.778 74.8352 138.548 74.7446 138.247 74.7446C138.03 74.7446 137.848 74.7699 137.704 74.8207C137.562 74.8714 137.437 74.9294 137.329 74.9946C137.22 75.0562 137.12 75.1124 137.03 75.1631C136.943 75.2139 136.845 75.2392 136.736 75.2392C136.642 75.2392 136.562 75.2157 136.497 75.1686C136.432 75.1178 136.379 75.0598 136.339 74.9946L136.1 74.5652ZM143.535 79.4521C143.049 79.4521 142.676 79.3162 142.415 79.0444C142.158 78.769 142.029 78.3903 142.029 77.9083V74.7935H141.459C141.386 74.7935 141.325 74.7699 141.274 74.7228C141.223 74.6757 141.198 74.605 141.198 74.5108V73.9781L142.095 73.8313L142.377 72.3092C142.395 72.2368 142.43 72.1806 142.48 72.1407C142.531 72.1009 142.596 72.0809 142.676 72.0809H143.372V73.8368H144.861V74.7935H143.372V77.8159C143.372 77.9898 143.413 78.1257 143.497 78.2236C143.584 78.3214 143.701 78.3704 143.85 78.3704C143.933 78.3704 144.002 78.3613 144.056 78.3432C144.114 78.3214 144.163 78.2997 144.203 78.2779C144.247 78.2562 144.285 78.2363 144.317 78.2181C144.35 78.1964 144.383 78.1855 144.415 78.1855C144.455 78.1855 144.488 78.1964 144.513 78.2181C144.538 78.2363 144.566 78.2653 144.595 78.3051L144.997 78.9574C144.801 79.1205 144.576 79.2437 144.323 79.3271C144.069 79.4104 143.806 79.4521 143.535 79.4521ZM149.27 75.935C149.27 75.7611 149.245 75.598 149.194 75.4458C149.147 75.29 149.075 75.1541 148.977 75.0381C148.879 74.9221 148.754 74.8315 148.602 74.7663C148.453 74.6974 148.279 74.663 148.08 74.663C147.692 74.663 147.386 74.7736 147.162 74.9946C146.941 75.2157 146.799 75.5292 146.738 75.935H149.27ZM146.71 76.745C146.732 77.0313 146.783 77.2795 146.863 77.4897C146.942 77.6963 147.047 77.8684 147.178 78.0061C147.308 78.1402 147.462 78.2417 147.64 78.3106C147.821 78.3758 148.02 78.4084 148.238 78.4084C148.455 78.4084 148.642 78.383 148.797 78.3323C148.957 78.2816 149.095 78.2254 149.21 78.1638C149.33 78.1022 149.433 78.046 149.52 77.9953C149.611 77.9445 149.698 77.9192 149.781 77.9192C149.893 77.9192 149.977 77.9608 150.031 78.0442L150.417 78.5334C150.268 78.7074 150.102 78.8542 149.917 78.9737C149.732 79.0897 149.538 79.1839 149.335 79.2564C149.136 79.3253 148.931 79.3742 148.721 79.4032C148.515 79.4322 148.314 79.4467 148.118 79.4467C147.73 79.4467 147.37 79.3833 147.037 79.2564C146.703 79.1259 146.413 78.9357 146.167 78.6856C145.921 78.432 145.727 78.1203 145.585 77.7506C145.444 77.3774 145.373 76.9461 145.373 76.4569C145.373 76.0764 145.435 75.7194 145.558 75.386C145.681 75.049 145.857 74.7572 146.085 74.5108C146.317 74.2608 146.598 74.0633 146.928 73.9183C147.261 73.7733 147.636 73.7009 148.053 73.7009C148.404 73.7009 148.729 73.757 149.026 73.8694C149.323 73.9817 149.578 74.1466 149.792 74.364C150.006 74.5779 150.172 74.8424 150.292 75.1577C150.415 75.4694 150.477 75.8263 150.477 76.2286C150.477 76.4315 150.455 76.5692 150.412 76.6417C150.368 76.7106 150.285 76.745 150.162 76.745H146.71Z" fill="white"/>
<path d="M176.583 63.0572C180.685 63.0572 184.01 59.7311 184.01 55.6281C184.01 51.5251 180.685 48.1989 176.583 48.1989C172.481 48.1989 169.155 51.5251 169.155 55.6281C169.155 59.7311 172.481 63.0572 176.583 63.0572Z" fill="#373737"/>
<path d="M164.13 24.4618C164.13 24.4618 164.674 20.2943 151.812 23.5558C151.812 26.2738 152.899 29.3542 155.797 31.7098C159.902 35.0457 170.471 35.515 171.739 34.2492C180.797 31.1662 178.985 35.6962 187.056 32.5494C189.937 33.1631 192.304 34.8416 193.847 38.3884C196.196 34.609 196.558 31.1662 194.384 28.4482C192.754 22.4687 183.877 21.9251 177.355 23.0651C174.555 21.2594 166.391 23.6052 164.13 24.4618Z" fill="#B33737"/>
<path d="M175.906 48.1989C174.456 48.2841 171.739 49.2861 169.928 54.5409C168.23 55.6911 165.78 64.8884 167.048 67.7876C168.316 70.6868 176.348 75.2142 183.614 74.6815C190.701 76.2206 197.268 77.2491 196.003 78.1243C195.517 78.4609 195.371 79.0926 195.641 79.7551C195.163 80.4404 194.326 80.2729 193.829 80.4799V87.3654C194.554 87.0635 206.243 84.3249 203.25 76.4935C203.585 71.6888 195.129 68.5729 188.087 66.8899C185.484 65.349 181.426 64.9203 179.045 65.3516C175.94 63.6313 181.832 59.5978 181.341 55.8093C182.242 54.526 182.79 53.2725 182.79 51.4605C181.341 49.2861 178.985 48.0177 175.906 48.1989Z" fill="#B33737"/>
<path d="M151.812 20.3122C151.812 17.5003 154.091 15.2207 156.902 15.2207C160.894 15.2207 164.13 18.4577 164.13 22.4507V24.2806H151.812V20.3122Z" fill="#B33737"/>
<path d="M171.338 22.8934C172.867 24.1219 174.139 23.73 174.775 23.2765C174.854 23.1747 174.943 23.0978 175.04 23.0504C174.971 23.1226 174.882 23.2004 174.775 23.2765C174.273 23.9238 174.147 25.5767 174.435 27.0285C173.534 25.2242 172.828 24.3359 171.338 22.8934Z" fill="#E5E2C9"/>
<path d="M182.142 25.7303C181.864 27.6719 182.85 28.5672 183.565 28.8834C183.693 28.8995 183.804 28.9362 183.894 28.9958C183.797 28.9732 183.685 28.9365 183.565 28.8834C182.752 28.7814 181.266 29.5159 180.164 30.5038C181.257 28.8083 181.661 27.748 182.142 25.7303Z" fill="#E5E2C9"/>
<path d="M164.069 29.1302C163.393 30.9716 164.171 32.0527 164.804 32.5107C164.926 32.5529 165.027 32.612 165.103 32.6892C165.013 32.6468 164.91 32.5875 164.804 32.5107C164.031 32.2417 162.425 32.6507 161.141 33.3875C162.563 31.9566 163.179 31.0036 164.069 29.1302Z" fill="#E5E2C9"/>
<path d="M190.837 31.8117C192.752 32.2329 193.718 31.3161 194.087 30.6271C194.112 30.5008 194.157 30.3927 194.223 30.3069C194.193 30.4023 194.148 30.5115 194.087 30.6271C193.924 31.4301 194.546 32.9668 195.449 34.1394C193.84 32.9236 192.813 32.4416 190.837 31.8117Z" fill="#E5E2C9"/>
<path d="M175.156 60.9727C173.534 59.8699 172.297 60.3621 171.699 60.8647C171.628 60.9724 171.546 61.0561 171.453 61.1112C171.516 61.0336 171.599 60.9492 171.699 60.8647C172.147 60.1794 172.141 58.5218 171.739 57.0976C172.781 58.8244 173.555 59.6536 175.156 60.9727Z" fill="#E5E2C9"/>
<path d="M183.614 71.222C181.707 71.6787 181.237 72.9253 181.206 73.7059C181.238 73.8306 181.245 73.9476 181.223 74.0538C181.208 73.9549 181.201 73.8371 181.206 73.7059C181.002 72.9126 179.772 71.8012 178.449 71.1401C180.426 71.5319 181.561 71.5174 183.614 71.222Z" fill="#E5E2C9"/>
<path d="M190.828 74.5811C192.78 74.7652 193.627 73.7371 193.908 73.0083C193.918 72.88 193.949 72.7673 194.005 72.6738C193.987 72.7724 193.955 72.8862 193.908 73.0083C193.845 73.8252 194.65 75.2744 195.689 76.3279C193.944 75.3179 192.866 74.9649 190.828 74.5811Z" fill="#E5E2C9"/>
<path d="M198.697 84.6079C196.993 83.6363 195.799 84.2242 195.242 84.7725C195.18 84.8852 195.105 84.975 195.016 85.0374C195.073 84.9551 195.149 84.8642 195.242 84.7725C195.635 84.0538 195.499 82.4017 194.986 81.0137C196.16 82.6532 196.998 83.4189 198.697 84.6079Z" fill="#E5E2C9"/>
<path d="M165.761 23.9182L164.13 24.4618C162.791 29.3955 160.409 29.3125 155.797 31.5286C161.66 29.509 164.546 28.4063 165.761 23.9182Z" fill="#812424"/>
<path d="M203.261 76.466C203.259 75.5096 203.163 75.1421 202.899 74.654C202.536 77.1907 199.457 79.1839 196.196 77.9155C199.275 79.7275 202.421 78.8168 203.261 76.466Z" fill="#812424"/>
<path d="M179.348 22.8311L177.355 23.0122C179.449 26.1372 177.702 31.9391 171.604 34.226C178.088 32.8909 180.8 27.2103 179.348 22.8311Z" fill="#812424"/>
<path d="M187.053 32.5178L188.043 32.797C188.32 31.128 188.807 29.2408 194.203 28.4482C188.795 28.3717 187.42 30.5861 187.053 32.5178Z" fill="#812424"/>
<path d="M168.116 68.1311C168.297 69.0368 169.203 69.7616 169.565 69.9428C169.69 67.485 172.39 62.714 177.174 64.3256C172.634 62.2059 169.688 65.7509 168.116 68.1311Z" fill="#812424"/>
<path d="M190.761 67.5872C190.217 67.406 188.587 67.0436 188.043 66.8624C188.854 69.1861 188.553 74.3434 183.514 74.6539C188.518 74.9062 190.202 70.3842 190.761 67.5872Z" fill="#812424"/>
<path d="M182.246 54.1785C181.971 54.9508 181.791 55.0356 181.341 55.8093C179.99 53.7664 174.457 51.4605 170.29 54.3597C173.732 51.0981 179.7 52.946 182.246 54.1785Z" fill="#812424"/>
<path d="M200.457 84.3699L198.551 85.5259C200.222 83.6012 199.457 80.3933 195.833 79.7275C199.638 80.4266 200.25 82.5579 200.457 84.3699Z" fill="#812424"/>
<path d="M157.848 21.5443C160.353 21.9507 162.541 21.3096 162.735 20.1123C162.93 18.915 161.056 17.615 158.552 17.2086C156.047 16.8022 153.859 17.4434 153.665 18.6406C153.47 19.8379 155.344 21.1379 157.848 21.5443Z" fill="#373737"/>
<path d="M156.679 12.7742L158.882 17.4657L154.844 17.622L156.679 12.7742Z" fill="#E5E2C9"/>
<path d="M161.837 13.5467L161.95 18.7289L158.195 17.2345L161.837 13.5467Z" fill="#E5E2C9"/>
<path d="M166.592 19.1473L161.975 21.0907L161.703 18.0558L166.592 19.1473Z" fill="#E5E2C9"/>
<path d="M150.745 15.3539L153.521 19.5311L155.439 17.1185L150.745 15.3539Z" fill="#E5E2C9"/>
<path d="M151.543 23.41L153.759 19.0303L155.886 21.1244L151.543 23.41Z" fill="#E5E2C9"/>
<path d="M156.647 25.7133L155.454 20.6692L159.438 21.3458L156.647 25.7133Z" fill="#E5E2C9"/>
<path d="M161.062 25.7038L158.304 21.3153L162.293 20.6688L161.062 25.7038Z" fill="#E5E2C9"/>
</g>
</g>
</g>
<defs>
<linearGradient id="paint0_linear_4002_1428" x1="114.13" y1="6.52316" x2="114.312" y2="94.9482" gradientUnits="userSpaceOnUse">
<stop/>
<stop offset="0.432186" stop-opacity="0"/>
</linearGradient>
<clipPath id="clip0_4002_1428">
<rect width="225" height="133" fill="white"/>
</clipPath>
</defs>
</svg>
