<svg width="229" height="229" viewBox="0 0 229 229" fill="none" xmlns="http://www.w3.org/2000/svg">
<g clip-path="url(#clip0_4412_143)">
<rect width="229" height="229" fill="white"/>
<path d="M68.4306 152.876H122.58L113.344 166.3H59.1948L68.4306 152.876Z" fill="#878E94"/>
<g opacity="0.3">
<path d="M130.352 151.801C129.621 153.917 95.1224 169.38 89.6239 176.454C98.9998 175.916 104.14 178.648 108.83 181.141L108.907 181.182C106.759 178.758 101.977 173.667 100.027 172.692C97.5902 171.473 105.206 161.421 112.212 157.461C119.218 153.501 131.266 149.157 130.352 151.801Z" fill="#1E5073"/>
<path fill-rule="evenodd" clip-rule="evenodd" d="M81.9285 141.538L51.0629 188.502C69.2318 180.094 81.1556 176.94 89.6239 176.454C95.1224 169.38 129.621 153.917 130.352 151.801C131.266 149.157 119.218 153.501 112.212 157.461C105.206 161.421 97.5902 171.473 100.027 172.692C101.977 173.667 106.759 178.758 108.907 181.182C114.347 184.074 119.209 186.618 129.42 183.317C145.594 178.089 142.918 168.887 153.794 162.892C175.227 151.078 200.128 166.341 216.05 155.72L164.922 141.538H81.9285ZM134.333 155.72C130.633 154.69 129.01 155.488 125.977 156.981C124.297 157.808 122.185 158.847 119.049 159.907C123.641 158.522 130.045 156.836 131.287 157.461C132.781 158.213 140.888 157.774 144.755 157.461C143.365 157.461 139.336 157.113 134.333 155.72ZM108.83 171.112C106.124 171.882 106.505 168.867 107.033 167.264C106.406 168.547 105.529 171.428 107.033 172.692C108.914 174.272 118.14 166.142 118.14 165.019C118.14 164.121 124.66 161.011 127.92 159.568C125.355 160.676 119.807 162.892 118.14 162.892C117.152 162.892 115.768 164.523 114.226 166.341C112.515 168.358 110.609 170.606 108.83 171.112Z" fill="#2C6288"/>
<path d="M144.755 157.461C143.365 157.461 139.336 157.113 134.333 155.72C130.633 154.69 129.01 155.488 125.977 156.981C124.297 157.808 122.185 158.847 119.049 159.907C123.641 158.522 130.045 156.836 131.287 157.461C132.781 158.213 140.888 157.774 144.755 157.461Z" fill="#1E5073"/>
<path d="M107.033 167.264C106.505 168.867 106.124 171.882 108.83 171.112C110.609 170.606 112.515 168.358 114.226 166.341C115.768 164.523 117.152 162.892 118.14 162.892C119.807 162.892 125.355 160.676 127.92 159.568C124.66 161.011 118.14 164.121 118.14 165.019C118.14 166.142 108.914 174.272 107.033 172.692C105.529 171.428 106.406 168.547 107.033 167.264Z" fill="#1E5073"/>
</g>
<g opacity="0.3">
<path d="M142.471 145.779C143.202 147.895 177.7 163.357 183.199 170.431C173.823 169.893 168.683 172.626 163.993 175.119L163.916 175.16C166.064 172.736 170.846 167.644 172.796 166.669C175.233 165.451 167.617 155.399 160.611 151.439C153.605 147.479 141.557 143.134 142.471 145.779Z" fill="#1E5073"/>
<path fill-rule="evenodd" clip-rule="evenodd" d="M172.796 141.502L221.76 182.479C203.591 174.071 191.667 170.917 183.199 170.431C177.7 163.357 143.202 147.895 142.471 145.779C141.557 143.134 153.605 147.479 160.611 151.439C167.617 155.399 175.233 165.451 172.796 166.669C170.846 167.644 166.064 172.736 163.916 175.16C158.476 178.052 153.614 180.595 143.403 177.295C127.229 172.066 128.068 161.242 119.028 156.87C99.009 147.187 90.723 162.036 71.0289 158.361L82.0115 141.502H108.27L172.796 141.502ZM138.49 149.698C142.19 148.667 143.813 149.466 146.846 150.959C148.526 151.785 150.638 152.825 153.774 153.884C149.182 152.5 142.778 150.814 141.536 151.439C140.042 152.19 131.935 151.752 128.068 151.439C129.457 151.439 133.487 151.09 138.49 149.698ZM163.993 165.09C166.699 165.859 166.318 162.845 165.79 161.242C166.416 162.524 167.294 165.406 165.79 166.669C163.909 168.249 154.683 160.119 154.683 158.997C154.683 158.099 148.163 154.989 144.903 153.546C147.468 154.654 153.016 156.87 154.683 156.87C155.671 156.87 157.055 158.5 158.597 160.319C160.308 162.336 162.214 164.584 163.993 165.09Z" fill="#2C6288"/>
<path d="M128.068 151.439C129.457 151.439 133.487 151.09 138.49 149.698C142.19 148.667 143.813 149.466 146.846 150.959C148.526 151.785 150.638 152.825 153.774 153.884C149.182 152.5 142.778 150.814 141.536 151.439C140.042 152.19 131.935 151.752 128.068 151.439Z" fill="#1E5073"/>
<path d="M165.79 161.242C166.318 162.845 166.699 165.859 163.993 165.09C162.214 164.584 160.308 162.336 158.597 160.319C157.055 158.5 155.671 156.87 154.683 156.87C153.016 156.87 147.468 154.654 144.903 153.546C148.163 154.989 154.683 158.099 154.683 158.997C154.683 160.119 163.909 168.249 165.79 166.669C167.294 165.406 166.416 162.524 165.79 161.242Z" fill="#1E5073"/>
</g>
<path d="M178.597 156.353C197.129 158.804 228.019 157.101 228.019 157.101C228.019 157.101 229.446 150.273 228.69 138.583C223.093 132.159 216.323 132.629 208.751 133.156C204.648 133.441 200.31 133.743 195.796 132.973C192.79 132.869 189.2 132.753 185.32 132.636C168.096 132.117 145.157 131.59 142.186 132.162C140.06 132.571 135.543 134.743 130.895 137.104C127.393 138.884 125.921 139.733 121.132 142.094C119.723 142.073 100.254 161.11 100.241 161.988C100.228 162.866 105.249 161.47 105.774 161.478C106.3 161.486 104.698 163.138 106.176 164.098C106.571 164.354 107.535 163.893 108.574 163.909C108.574 163.909 109.391 164.987 110.972 164.243C115.076 162.313 116.183 156.851 122.427 153.746C128.671 150.641 142.448 151.852 146.615 144.8C146.615 144.8 164.374 154.472 178.597 156.353Z" fill="#DFB48F"/>
<path d="M195.796 132.973C192.623 122.541 189.826 113.965 184.834 98.9283C185.976 112.535 186.384 120.322 185.32 132.636C189.2 132.753 192.79 132.869 195.796 132.973Z" fill="#68A82A"/>
<path fill-rule="evenodd" clip-rule="evenodd" d="M128.675 69.2918C135.308 67.4704 127.783 69.8017 136.158 66.6938C119.689 74.113 131.486 82.4902 133.81 92.519C135.547 100.015 141.238 105.79 142.375 107.638C142.411 107.696 142.444 107.749 142.474 107.799C145.309 112.418 152.293 106.44 155.776 103.459L155.858 103.389C157.375 102.09 161.402 93.6637 165.799 84.4629C168.955 77.8597 169.773 75.0508 172.52 69.9975C172.255 70.4657 172.797 69.487 172.52 69.9975C174.29 66.8626 179.794 56.8264 182.569 57.2001C196.411 59.0648 204.139 64.3116 208.523 71.9894C223.362 97.9789 227.745 123.961 228.69 138.583C223.093 132.159 216.323 132.629 208.751 133.156C204.648 133.441 200.31 133.743 195.796 132.973C192.623 122.541 189.826 113.965 184.834 98.9283C185.976 112.535 186.384 120.322 185.32 132.636C168.096 132.117 145.157 131.59 142.186 132.162C140.06 132.571 135.543 134.743 130.895 137.104C120.332 127.507 117.523 121.157 112.759 110.412C114.841 121.663 116.415 128.592 121.132 142.094L94.6925 141.357C94.6925 141.357 91.5174 104.557 98.0569 88.0225C99.5611 84.2193 101.707 81.3531 104.461 79.0679C110.092 74.3947 118.263 72.151 128.675 69.2918Z" fill="#7ABA3B"/>
<path d="M112.759 110.412C114.841 121.663 116.415 128.592 121.132 142.094C125.921 139.733 127.393 138.884 130.895 137.104C120.332 127.507 117.523 121.157 112.759 110.412Z" fill="#68A82A"/>
<path d="M136.158 66.6938C119.689 74.113 131.486 82.4902 133.81 92.519C142.893 98.4654 146.121 101.666 146.6 102.522C150.983 96.5969 160.012 83.1671 161.074 76.8515C162.135 70.5359 161.572 63.6851 161.217 60.5165C159.965 60.7306 150.463 60.5048 146.338 62.3937C142.43 62.69 138.91 63.8113 135.111 61.9567C131.884 62.6699 138.19 65.9395 136.158 66.6938Z" fill="#C79A73"/>
<path fill-rule="evenodd" clip-rule="evenodd" d="M161.217 60.5165C161.572 63.6851 162.135 70.5359 161.074 76.8515C160.012 83.1671 150.983 96.5969 146.6 102.522C146.121 101.666 142.893 98.4654 133.81 92.519C135.547 100.015 141.238 105.79 142.375 107.638L142.474 107.799C145.309 112.418 152.293 106.44 155.776 103.459L155.858 103.389C157.375 102.09 161.402 93.6637 165.799 84.4629C168.955 77.8597 169.773 75.0508 172.52 69.9975C172.255 70.4657 172.797 69.487 172.52 69.9975C173.469 68.1551 174.863 63.1993 172.654 61.1307C170.856 59.4473 165.806 61.3157 161.217 60.5165Z" fill="#D7AC87"/>
<path d="M182.569 57.2001C167.159 59.248 163.224 60.1734 161.217 60.5165C165.806 61.3157 170.856 59.4473 172.654 61.1307C174.863 63.1993 173.469 68.1551 172.52 69.9975C174.29 66.8626 179.794 56.8264 182.569 57.2001Z" fill="#68A82A"/>
<mask id="mask0_4412_143" style="mask-type:alpha" maskUnits="userSpaceOnUse" x="94" y="57" width="135" height="86">
<path fill-rule="evenodd" clip-rule="evenodd" d="M128.758 69.6798C135.391 67.8585 142.933 65.7874 151.308 62.6795C134.839 70.0987 133.451 82.4624 135.774 92.4912C137.511 99.9869 141.321 106.178 142.458 108.026C142.494 108.084 142.527 108.137 142.557 108.187C145.391 112.806 152.376 106.828 155.858 103.847L155.94 103.777C157.458 102.478 161.485 94.0518 165.882 84.851C169.038 78.2478 169.856 75.4389 172.602 70.3856C172.338 70.8538 172.88 69.8751 172.602 70.3856C174.373 67.2507 181.748 57.9972 182.652 57.5882C196.493 59.4529 204.222 64.6997 208.605 72.3775C223.445 98.367 227.753 124.011 228.698 138.633C223.101 132.208 216.331 132.679 208.759 133.206C204.656 133.491 200.318 133.793 195.804 133.023C192.631 122.59 189.909 114.353 184.917 99.3165C186.058 112.923 186.392 120.372 185.328 132.686C168.104 132.167 145.165 131.639 142.194 132.212C140.068 132.621 135.551 134.793 130.903 137.154C120.34 127.557 117.606 121.545 112.842 110.8C114.924 122.051 116.423 128.642 121.14 142.144L94.7753 141.745C94.7753 141.745 91.6001 104.946 98.1397 88.4106C99.6439 84.6074 101.79 81.7412 104.544 79.456C110.175 74.7828 118.346 72.5391 128.758 69.6798Z" fill="#B2E77E"/>
</mask>
<g mask="url(#mask0_4412_143)">
<path d="M193.072 59.9031L199.019 65.2654L200.457 57.584L203.705 64.9447L208.275 58.8625L208.18 66.7636L214.977 63.4853L211.559 70.362L219.236 70.5368L213.172 75.0271L220.209 78.6205L212.699 79.8349L217.703 86.1352L210.235 83.8332L212.213 91.5925L206.266 86.2301L204.829 93.9116L201.581 86.5509L197.011 92.6331L197.105 84.7319L190.309 88.0103L193.726 81.1336L186.049 80.9587L192.114 76.4685L185.076 72.875L192.586 71.6606L187.583 65.3604L195.051 67.6623L193.072 59.9031Z" fill="#C3D02D"/>
<path d="M213.819 113.187L219.766 118.55L221.204 110.868L224.452 118.229L229.022 112.147L228.927 120.048L235.724 116.77L232.306 123.646L239.983 123.821L233.919 128.311L240.956 131.905L233.446 133.119L238.45 139.42L230.982 137.118L232.96 144.877L227.013 139.515L225.576 147.196L222.328 139.835L217.758 145.918L217.852 138.016L211.055 141.295L214.473 134.418L206.796 134.243L212.861 129.753L205.823 126.159L213.333 124.945L208.33 118.645L215.798 120.947L213.819 113.187Z" fill="#C3D02D"/>
<path d="M218.112 121.806L224.059 127.169L225.496 119.487L228.744 126.848L233.314 120.766L233.22 128.667L240.017 125.389L236.599 132.265L244.276 132.44L238.211 136.93L245.249 140.524L237.739 141.738L242.742 148.038L235.274 145.737L237.253 153.496L231.306 148.133L229.868 155.815L226.62 148.454L222.05 154.536L222.145 146.635L215.348 149.914L218.766 143.037L211.089 142.862L217.153 138.372L210.116 134.778L217.626 133.564L212.622 127.264L220.09 129.566L218.112 121.806Z" fill="#C3D02D"/>
<path d="M128.015 81.8637L133.962 87.2261L135.4 79.5447L138.648 86.9053L143.218 80.8231L143.124 88.7243L149.92 85.446L146.502 92.3227L154.18 92.4975L148.115 96.9878L155.152 100.581L147.642 101.796L152.646 108.096L145.178 105.794L147.157 113.553L141.21 108.191L139.772 115.872L136.524 108.512L131.954 114.594L132.048 106.693L125.252 109.971L128.67 103.094L120.992 102.919L127.057 98.4292L120.02 94.8357L127.53 93.6213L122.526 87.3211L129.994 89.623L128.015 81.8637Z" fill="#C3D02D"/>
<path d="M84.2211 118.257L90.1682 123.62L91.606 115.938L94.854 123.299L99.4238 117.217L99.3296 125.118L106.126 121.84L102.708 128.716L110.386 128.891L104.321 133.381L111.358 136.975L103.848 138.189L108.852 144.489L101.384 142.188L103.363 149.947L97.4156 144.584L95.9778 152.266L92.7297 144.905L88.16 150.987L88.2542 143.086L81.4577 146.365L84.8755 139.488L77.1983 139.313L83.2628 134.823L76.2255 131.229L83.7355 130.015L78.7319 123.715L86.2 126.017L84.2211 118.257Z" fill="#C3D02D"/>
<path d="M86.9107 70.0115L92.8577 75.3739L94.2956 67.6924L97.5436 75.0531L102.113 68.9709L102.019 76.8721L108.816 73.5937L105.398 80.4704L113.075 80.6453L107.011 85.1355L114.048 88.7289L106.538 89.9434L111.541 96.2436L104.073 93.9417L106.052 101.701L100.105 96.3386L98.6674 104.02L95.4193 96.6593L90.8496 102.742L90.9438 94.8404L84.1472 98.1187L87.5651 91.242L79.8879 91.0672L85.9524 86.5769L78.915 82.9835L86.4251 81.7691L81.4215 75.4688L88.8896 77.7708L86.9107 70.0115Z" fill="#C3D02D"/>
<path d="M163.872 113.089L169.819 118.452L171.257 110.77L174.505 118.131L179.074 112.049L178.98 119.95L185.777 116.672L182.359 123.548L190.036 123.723L183.971 128.213L191.009 131.807L183.499 133.021L188.502 139.321L181.034 137.02L183.013 144.779L177.066 139.416L175.628 147.098L172.38 139.737L167.811 145.819L167.905 137.918L161.108 141.197L164.526 134.32L156.849 134.145L162.913 129.655L155.876 126.061L163.386 124.847L158.382 118.547L165.851 120.849L163.872 113.089Z" fill="#C3D02D"/>
<path d="M145.242 67.9698L152.012 72.2463L152.126 64.4323L156.575 71.1357L160.048 64.3668L161.294 72.1696L167.437 67.7864L165.234 75.143L172.83 74.0138L167.615 79.4672L175.159 81.8155L167.964 84.2855L173.963 89.6463L166.213 88.6438L169.479 95.9552L162.709 91.6788L162.594 99.4928L158.145 92.7893L154.672 99.5582L153.426 91.7555L147.283 96.1386L149.486 88.782L141.89 89.9113L147.106 84.4579L139.561 82.1096L146.756 79.6395L140.757 74.2788L148.507 75.2812L145.242 67.9698Z" fill="#C3D02D"/>
</g>
<ellipse cx="145.787" cy="13.2926" rx="12.1145" ry="4.06955" transform="rotate(26.0416 145.787 13.2926)" fill="#212121"/>
<ellipse cx="141.176" cy="8.95363" rx="14.4286" ry="8.45066" transform="rotate(10.7963 141.176 8.95363)" fill="#212121"/>
<path d="M155.076 63.4501C155.045 63.3062 155.016 63.1637 154.988 63.0224C154.435 61.2621 151.494 57.3918 150.417 55.9323C127.354 56.3001 109.635 54.2441 103.358 47.6858C92.9506 14.611 162.201 -16.9721 160.164 47.9891C156.719 50.1912 153.208 54.0925 154.988 63.0224C155.038 63.1839 155.069 63.3276 155.076 63.4501Z" fill="#212121"/>
<path d="M106.904 64.5554C104.417 62.0639 103.363 47.731 103.363 47.731C108.462 50.4792 111.624 49.8217 118.359 45.3307C124.677 48.3032 130.324 49.8193 134.515 49.1818C141.366 53.9479 143.545 55.0374 150.412 55.9366C154.232 58.4674 157.815 68.4635 156.693 74.8482C155.571 81.2329 143.264 95.208 137.25 93.9563C132.231 94.1969 116.886 81.284 112.178 74.2146C109.341 69.9563 110.771 68.4302 106.904 64.5554Z" fill="#E0B48E"/>
<path d="M132.278 18.4718C132.278 18.4718 119.892 30.8103 118.154 45.6245C117.775 28.7247 132.278 18.4718 132.278 18.4718Z" fill="#E1CBB9"/>
<path d="M160.606 8.75206C158.459 11.0984 157.076 12.3017 154.032 14.0827C154.363 14.425 155.094 13.7065 156.73 12.7685C158.366 11.8305 160.109 10.0896 160.606 8.75206Z" fill="#212121"/>
<path d="M158.423 3.26761C155.895 11.4422 155.57 12.4928 153.22 15.1068C153.64 15.332 153.867 14.3412 155.14 12.9497C156.413 11.5583 158.384 4.60712 158.449 3.18203L158.423 3.26761Z" fill="#212121"/>
<path d="M162.312 51.0477C162.949 53.8282 159.044 63.6732 156.811 64.1848C154.578 64.6964 153.946 55.3235 154.226 52.9004C154.505 50.4773 154.882 47.4512 157.116 46.9395C159.349 46.4279 161.675 48.2672 162.312 51.0477Z" fill="#E0B48E"/>
<path d="M86.9509 150.366C84.775 151.021 85.0698 149.67 76.3663 138.797L81.9536 137.397C84.0441 141.502 88.6916 149.842 86.9509 150.366Z" fill="#DFB48F"/>
<path d="M88.3703 150.366C89.3942 150.366 91.3141 150.366 90.8021 137.397L84.5305 136.611C85.4691 141.196 87.5511 150.366 88.3703 150.366Z" fill="#DFB48F"/>
<path d="M94.6185 134.928C95.1492 138.059 99.2737 145.219 101.393 145.154C104.298 145.064 100.679 139.952 100.196 136.622C99.3842 131.023 98.8928 125.602 98.0058 122.302C96.7148 125.555 94.2298 132.634 94.6185 134.928Z" fill="#DFB48F"/>
<path d="M-0.234131 131.97L3.22206 121.142H57.6293L75.4833 138.824H84.2108H85.6999H95.473C90.9117 137.46 82.7161 111.211 85.1208 95.3971L-0.234131 92.6434V131.97Z" fill="#C0B5A5"/>
<path d="M97.1983 83.5914L-0.234131 79.9556V86.4042V92.6434L85.1208 95.3971C86.1692 88.5024 94.4717 83.5914 97.1983 83.5914Z" fill="#D5CABA"/>
<path fill-rule="evenodd" clip-rule="evenodd" d="M85.1208 157.842L84.2108 138.824H85.6999L85.1208 157.842Z" fill="#D9D9D9"/>
<path d="M95.473 138.824C102.023 140.782 106.179 83.5914 97.1983 83.5914C94.4717 83.5914 86.1692 88.5024 85.1208 95.3971C82.7161 111.211 90.9117 137.46 95.473 138.824Z" fill="#D1C9BB"/>
<path d="M-0.234131 79.9556L97.1983 83.5914L-0.234131 76.0128V79.9556Z" fill="#E3DDD2"/>
<path d="M12.0938 207.375L78.6089 188.656L85.2127 190.73L86.4836 195.246L93.1446 197.515L92.042 199.452L98.1244 199.983L100.396 201.586L106.296 205.088L18.4106 229.821L12.0938 207.375Z" fill="#840032"/>
<path d="M170.915 202.744L129.542 201.447L125.954 205.122L125.807 209.811L122.211 213.689L123.111 215.284L119.624 217.335L118.507 219.46L115.519 224.337L170.184 226.051L170.915 202.744Z" fill="#212121"/>
<path d="M192.141 178.128C188.298 190.093 194.883 202.908 206.848 206.751C211.85 208.357 221.262 206.066 225.843 204.397C227.332 203.854 224.5 205.233 225.843 204.397C230.257 201.648 233.757 197.381 235.471 192.043C239.314 180.078 232.729 167.263 220.764 163.42C216.589 162.079 212.31 162.008 208.346 162.992C207.808 163.125 207.276 163.278 206.75 163.45C206.009 163.692 205.282 163.972 204.571 164.288C205.011 164.058 204.117 164.49 204.571 164.288C199.473 166.964 194.04 172.213 192.141 178.128Z" fill="#212121"/>
<path d="M195.654 213.346C199.496 201.38 192.911 188.565 180.946 184.722C175.155 182.863 169.166 183.445 164.09 185.898C180.282 174.905 183.463 169.768 199.83 165.438C201.298 165.049 202.872 164.667 204.571 164.288C199.473 166.964 194.04 172.213 192.141 178.128C188.298 190.093 194.883 202.908 206.848 206.751C211.85 208.357 221.262 206.066 225.843 204.397C210.172 216.483 204.441 220.662 184.274 226.685C189.507 224.034 193.718 219.372 195.654 213.346Z" fill="#212121"/>
<path fill-rule="evenodd" clip-rule="evenodd" d="M183.621 227.003C183.84 226.901 184.058 226.795 184.274 226.685L183.621 227.003Z" fill="#3D3D3D"/>
<path d="M167.03 228.053C155.065 224.21 148.48 211.395 152.323 199.43C154.306 193.255 158.678 188.513 164.09 185.898C169.166 183.445 175.155 182.863 180.946 184.722C192.911 188.565 199.496 201.38 195.654 213.346C193.718 219.372 189.507 224.034 184.274 226.685L183.621 227.003C178.603 229.35 172.721 229.88 167.03 228.053Z" fill="#3D3D3D"/>
<path d="M206.75 163.45C206.009 163.692 205.282 163.972 204.571 164.288C202.872 164.667 201.298 165.049 199.83 165.438L206.75 163.45Z" fill="#212121"/>
<circle cx="7.10326" cy="7.10326" r="7.10326" transform="matrix(-1 0 0 1 179.229 198.288)" fill="white"/>
<circle cx="7.10326" cy="7.10326" r="7.10326" transform="matrix(-1 0 0 1 179.229 201.031)" fill="white"/>
<circle cx="7.10326" cy="7.10326" r="7.10326" transform="matrix(-1 0 0 1 179.229 199.658)" fill="#212121"/>
<path d="M235.514 180.695C231.671 192.66 238.256 205.475 250.221 209.318C255.224 210.924 264.635 208.633 269.217 206.963C270.705 206.421 267.873 207.8 269.217 206.963C273.63 204.215 277.13 199.948 278.844 194.61C282.687 182.645 276.102 169.83 264.137 165.987C259.962 164.646 255.683 164.575 251.719 165.559C251.181 165.692 250.649 165.845 250.124 166.017C249.383 166.259 248.655 166.539 247.944 166.855C248.384 166.624 247.491 167.057 247.944 166.855C242.846 169.531 237.414 174.78 235.514 180.695Z" fill="#6297B9"/>
<path d="M239.027 215.912C242.869 203.947 236.285 191.132 224.319 187.289C218.529 185.43 212.539 186.012 207.463 188.465C223.655 177.472 226.836 172.335 243.203 168.005C244.671 167.616 246.245 167.234 247.944 166.855C242.846 169.531 237.414 174.78 235.514 180.695C231.671 192.66 238.256 205.475 250.221 209.318C255.224 210.924 264.635 208.633 269.217 206.963C253.545 219.05 247.814 223.229 227.647 229.252C232.88 226.601 237.091 221.939 239.027 215.912Z" fill="#528AAF"/>
<path fill-rule="evenodd" clip-rule="evenodd" d="M226.994 229.57C227.214 229.468 227.431 229.362 227.647 229.252L226.994 229.57Z" fill="#6297B9"/>
<path d="M210.404 230.62C198.438 226.777 191.853 213.962 195.696 201.997C197.679 195.822 202.052 191.08 207.463 188.465C212.539 186.012 218.529 185.43 224.319 187.289C236.285 191.132 242.869 203.947 239.027 215.912C237.091 221.939 232.88 226.601 227.647 229.252L226.994 229.57C221.976 231.916 216.094 232.447 210.404 230.62Z" fill="#6297B9"/>
<path d="M250.124 166.017C249.383 166.259 248.655 166.539 247.944 166.855C246.245 167.234 244.671 167.616 243.203 168.005L250.124 166.017Z" fill="#6297B9"/>
<circle cx="7.10326" cy="7.10326" r="7.10326" transform="matrix(-1 0 0 1 222.602 200.855)" fill="white"/>
<circle cx="7.10326" cy="7.10326" r="7.10326" transform="matrix(-1 0 0 1 222.602 203.598)" fill="white"/>
<circle cx="7.10326" cy="7.10326" r="7.10326" transform="matrix(-1 0 0 1 222.602 202.225)" fill="#212121"/>
<path d="M-2.27026 157.751C-2.27026 157.199 -1.82255 156.751 -1.27026 156.751H43.2255C43.7778 156.751 44.2255 157.199 44.2255 157.751V167.519C44.2255 168.071 43.7778 168.519 43.2255 168.519H-1.27026C-1.82255 168.519 -2.27026 168.071 -2.27026 167.519V157.751Z" fill="#FFC200"/>
<path d="M-7.9873 151.762H35.4069L43.3901 156.751H-7.9873V151.762Z" fill="#FFD244"/>
<rect x="0.141602" y="172.201" width="46.4958" height="9.18175" rx="1" fill="#FFD85C"/>
<rect x="-1.30566" y="181.383" width="46.4958" height="14.3539" rx="1" fill="#FFCD2C"/>
<rect x="-1.30566" y="168.519" width="46.4958" height="3.68169" rx="1" fill="#FFE285"/>
<path d="M-0.513975 178.143C3.32871 190.108 -3.25603 202.923 -15.2214 206.766C-20.2235 208.372 -29.6351 206.081 -34.2166 204.412C-35.7052 203.869 -32.8728 205.248 -34.2166 204.412C-38.6302 201.663 -42.1301 197.396 -43.8444 192.058C-47.6871 180.093 -41.1024 167.278 -29.137 163.435C-24.962 162.094 -20.6835 162.023 -16.7188 163.007C-16.1809 163.141 -15.6488 163.293 -15.1235 163.465C-14.3826 163.708 -13.6552 163.987 -12.9443 164.303C-13.3839 164.073 -12.4905 164.505 -12.9443 164.303C-7.84611 166.979 -2.41356 172.228 -0.513975 178.143Z" fill="#F07913"/>
<path d="M-4.02664 213.361C-7.86933 201.395 -1.28459 188.58 10.6808 184.738C16.4715 182.878 22.4612 183.46 27.5365 185.913C11.3447 174.92 8.16384 169.783 -8.20307 165.453C-9.67109 165.064 -11.2452 164.682 -12.9443 164.303C-7.84611 166.979 -2.41356 172.228 -0.513975 178.143C3.32871 190.108 -3.25603 202.923 -15.2214 206.766C-20.2235 208.372 -29.6351 206.081 -34.2166 204.412C-18.5455 216.498 -12.8137 220.677 7.35292 226.701C2.12029 224.049 -2.09122 219.387 -4.02664 213.361Z" fill="#840032"/>
<path fill-rule="evenodd" clip-rule="evenodd" d="M8.00572 227.019C7.78644 226.916 7.56881 226.81 7.35292 226.701L8.00572 227.019Z" fill="#D66300"/>
<path d="M24.5964 228.068C36.5618 224.225 43.1465 211.41 39.3038 199.445C37.3208 193.27 32.9485 188.529 27.5365 185.913C22.4612 183.46 16.4715 182.878 10.6808 184.738C-1.28459 188.58 -7.86933 201.395 -4.02664 213.361C-2.09122 219.387 2.12029 224.049 7.35292 226.701L8.00572 227.019C13.0239 229.365 18.9062 229.896 24.5964 228.068Z" fill="#9F1C4E"/>
<path d="M-15.1235 163.465C-14.3826 163.708 -13.6552 163.987 -12.9443 164.303C-11.2452 164.682 -9.67109 165.064 -8.20307 165.453L-15.1235 163.465Z" fill="#F07913"/>
<circle cx="19.5012" cy="205.407" r="7.10326" fill="white"/>
<circle cx="19.5012" cy="208.149" r="7.10326" fill="white"/>
<circle cx="19.5012" cy="206.776" r="7.10326" fill="#212121"/>
<rect x="-2.07178" y="101.357" width="73.2997" height="2.48859" rx="1.2443" transform="rotate(1.42093 -2.07178 101.357)" fill="#B3A897"/>
<circle cx="74.3979" cy="104.417" r="1.2453" fill="#B3A897"/>
</g>
<defs>
<clipPath id="clip0_4412_143">
<rect width="229" height="229" fill="white"/>
</clipPath>
</defs>
</svg>
