<svg width="229" height="91" viewBox="0 0 229 91" fill="none" xmlns="http://www.w3.org/2000/svg">
<g clip-path="url(#clip0_4412_85)">
<rect width="229" height="90" transform="translate(0 0.799927)" fill="white"/>
<rect y="0.799927" width="232" height="90" fill="url(#paint0_linear_4412_85)"/>
<path d="M91.4827 78.9671H140.07V78.5046H91.4827V78.9671Z" fill="#F07913"/>
<path d="M91.4827 78.5046H140.07L140.073 78.0892L117.439 78.0602L114.828 78.0568L113.038 78.0545L95.9803 78.0326H91.4827V78.5046Z" fill="#FFAC36"/>
<path d="M95.9803 69.8092V78.0326L113.038 78.0545V69.8312L95.9803 69.8092Z" fill="#FFD368"/>
<path d="M114.828 69.8335V78.0568L117.439 78.0602V69.8368L114.828 69.8335Z" fill="#FFD368"/>
<path d="M91.4839 69.8092L91.4827 78.0326H95.9803V69.8092H91.4839Z" fill="#FFC40D"/>
<path d="M113.038 69.8312V78.0545L114.828 78.0568V69.8335L113.038 69.8312Z" fill="#FFC40D"/>
<path d="M140.073 78.0892V69.8659L117.439 69.8368V78.0602L140.073 78.0892Z" fill="#FFC40D"/>
<path d="M140.073 69.331H91.4839V69.8092H95.9803L113.038 69.8312L114.828 69.8335L117.439 69.8368L140.073 69.8659V69.331Z" fill="#FFE29B"/>
<path d="M95.1365 69.3308H143.724V68.8683H95.1365V69.3308Z" fill="#F07913"/>
<path d="M95.1365 68.8683H143.724L143.727 68.4529L121.093 68.4239L118.482 68.4205L116.692 68.4182L99.6341 68.3963H95.1365V68.8683Z" fill="#FFAC36"/>
<path d="M99.6341 60.1729V68.3963L116.692 68.4182V60.1949L99.6341 60.1729Z" fill="#FFD368"/>
<path d="M118.482 60.1972V68.4205L121.093 68.4239V60.2005L118.482 60.1972Z" fill="#FFD368"/>
<path d="M95.1377 60.1729L95.1365 68.3963H99.6341V60.1729H95.1377Z" fill="#FFC40D"/>
<path d="M116.692 60.1949V68.4182L118.482 68.4205V60.1972L116.692 60.1949Z" fill="#FFC40D"/>
<path d="M143.727 68.4529V60.2297L121.093 60.2005V68.4239L143.727 68.4529Z" fill="#FFC40D"/>
<path d="M143.727 59.6947H95.1377V60.1729H99.6341L116.692 60.1949L118.482 60.1972L121.093 60.2005L143.727 60.2297V59.6947Z" fill="#FFE29B"/>
<path d="M91.4827 59.6948H140.07V59.2323H91.4827V59.6948Z" fill="#F07913"/>
<path d="M91.4827 59.2323H140.07L140.073 58.8169L117.439 58.7879L114.828 58.7845L113.038 58.7822L95.9803 58.7603H91.4827V59.2323Z" fill="#FFAC36"/>
<path d="M95.9803 50.537V58.7603L113.038 58.7822V50.5589L95.9803 50.537Z" fill="#FFD368"/>
<path d="M114.828 50.5612V58.7845L117.439 58.7879V50.5646L114.828 50.5612Z" fill="#FFD368"/>
<path d="M91.4839 50.537L91.4827 58.7603H95.9803V50.537H91.4839Z" fill="#FFC40D"/>
<path d="M113.038 50.5589V58.7822L114.828 58.7845V50.5612L113.038 50.5589Z" fill="#FFC40D"/>
<path d="M140.073 58.8169V50.5937L117.439 50.5646V58.7879L140.073 58.8169Z" fill="#FFC40D"/>
<path d="M140.073 50.0587H91.4839V50.537H95.9803L113.038 50.5589L114.828 50.5612L117.439 50.5646L140.073 50.5937V50.0587Z" fill="#FFE29B"/>
<path d="M95.1365 50.0588H143.724V49.5963H95.1365V50.0588Z" fill="#F07913"/>
<path d="M95.1365 49.5963H143.724L143.727 49.1809L121.093 49.1519L118.482 49.1485L116.692 49.1462L99.6341 49.1243H95.1365V49.5963Z" fill="#FFAC36"/>
<path d="M99.6341 40.901V49.1243L116.692 49.1462V40.9229L99.6341 40.901Z" fill="#FFD368"/>
<path d="M118.482 40.9252V49.1485L121.093 49.1519V40.9286L118.482 40.9252Z" fill="#FFD368"/>
<path d="M95.1377 40.901L95.1365 49.1243H99.6341V40.901H95.1377Z" fill="#FFC40D"/>
<path d="M116.692 40.9229V49.1462L118.482 49.1485V40.9252L116.692 40.9229Z" fill="#FFC40D"/>
<path d="M143.727 49.1809V40.9577L121.093 40.9286V49.1519L143.727 49.1809Z" fill="#FFC40D"/>
<path d="M143.727 40.4227H95.1377V40.901H99.6341L116.692 40.9229L118.482 40.9252L121.093 40.9286L143.727 40.9577V40.4227Z" fill="#FFE29B"/>
<path d="M85.67 40.4228H134.257V39.9603H85.67V40.4228Z" fill="#F07913"/>
<path d="M85.67 39.9603H134.257L134.26 39.5449L111.627 39.5158L109.015 39.5125L107.225 39.5102L90.1676 39.4882H85.67V39.9603Z" fill="#FFAC36"/>
<path d="M90.1676 31.2649V39.4882L107.225 39.5102V31.2869L90.1676 31.2649Z" fill="#FFD368"/>
<path d="M109.015 31.2892V39.5125L111.627 39.5158V31.2925L109.015 31.2892Z" fill="#FFD368"/>
<path d="M85.6713 31.2649L85.67 39.4882H90.1676V31.2649H85.6713Z" fill="#FFC40D"/>
<path d="M107.225 31.2869V39.5102L109.015 39.5125V31.2892L107.225 31.2869Z" fill="#FFC40D"/>
<path d="M134.26 39.5449V31.3216L111.627 31.2925V39.5158L134.26 39.5449Z" fill="#FFC40D"/>
<path d="M134.26 30.7867H85.6713V31.2649H90.1676L107.225 31.2869L109.015 31.2892L111.627 31.2925L134.26 31.3216V30.7867Z" fill="#FFE29B"/>
<path d="M89.3589 30.7865H137.946V30.324H89.3589V30.7865Z" fill="#F07913"/>
<path d="M89.3589 30.324H137.946L137.949 29.9086L115.316 29.8796L112.704 29.8762L110.914 29.8739L93.8565 29.852H89.3589V30.324Z" fill="#FFAC36"/>
<path d="M93.8565 21.6286V29.852L110.914 29.8739V21.6506L93.8565 21.6286Z" fill="#FFD368"/>
<path d="M112.704 21.6529V29.8762L115.316 29.8796V21.6562L112.704 21.6529Z" fill="#FFD368"/>
<path d="M89.3601 21.6286L89.3589 29.852H93.8565V21.6286H89.3601Z" fill="#FFC40D"/>
<path d="M110.914 21.6506V29.8739L112.704 29.8762V21.6529L110.914 21.6506Z" fill="#FFC40D"/>
<path d="M137.949 29.9086V21.6853L115.316 21.6562V29.8796L137.949 29.9086Z" fill="#FFC40D"/>
<path d="M137.949 21.1504H89.3601V21.6286H93.8565L110.914 21.6506L112.704 21.6529L115.316 21.6562L137.949 21.6853V21.1504Z" fill="#FFE29B"/>
<path d="M79.192 34.4251C79.8446 34.3677 80.5052 34.3384 81.1727 34.3384H77.2113C77.8788 34.3384 78.5394 34.3677 79.192 34.4251Z" fill="#FFC40E"/>
<path d="M81.1727 78.967C80.5052 78.967 79.8446 78.9377 79.192 78.8803C78.5394 78.9377 77.8788 78.967 77.2113 78.967H81.1727Z" fill="#E49119"/>
<path d="M81.1727 78.967C93.4966 78.967 103.487 68.9766 103.487 56.6527C103.487 44.3289 93.4966 34.3384 81.1727 34.3384C80.5052 34.3384 79.8446 34.3677 79.192 34.4251C81.9091 34.6641 84.4864 35.3901 86.8361 36.5152C89.316 37.7026 91.5425 39.3346 93.4122 41.308C93.8454 41.7652 94.2594 42.2408 94.6531 42.7334C95.1213 43.3193 95.5606 43.9294 95.9689 44.5614C96.3216 45.1075 96.6512 45.67 96.9561 46.2475C98.5967 49.3543 99.5256 52.895 99.5256 56.6527C99.5256 68.3091 90.588 77.878 79.192 78.8803C79.8446 78.9377 80.5052 78.967 81.1727 78.967Z" fill="url(#paint1_linear_4412_85)"/>
<path d="M86.8361 36.5152L57.0737 66.2776C58.2611 68.7575 59.8932 70.9839 61.8666 72.8537L93.4122 41.308C91.5425 39.3346 89.316 37.7026 86.8361 36.5152Z" fill="#FFD368"/>
<path d="M95.9689 44.5614L65.12 75.4103C65.6661 75.7631 66.2285 76.0926 66.806 76.3976L96.9561 46.2475C96.6512 45.67 96.3216 45.1075 95.9689 44.5614Z" fill="#FFD368"/>
<path fill-rule="evenodd" clip-rule="evenodd" d="M79.192 78.8803C90.588 77.878 99.5256 68.3091 99.5256 56.6527C99.5256 52.895 98.5967 49.3543 96.9561 46.2475L66.806 76.3976C69.9128 78.0382 73.4536 78.967 77.2113 78.967C77.8788 78.967 78.5394 78.9377 79.192 78.8803ZM94.6531 42.7334C95.1213 43.3193 95.5606 43.9294 95.9689 44.5614L65.12 75.4103C64.4879 75.0021 63.8778 74.5628 63.2919 74.0945L94.6531 42.7334ZM86.8361 36.5152C84.4864 35.3901 81.9091 34.6641 79.192 34.4251C78.5394 34.3677 77.8788 34.3384 77.2113 34.3384C64.8874 34.3384 54.897 44.3289 54.897 56.6527C54.897 60.0994 55.6784 63.3635 57.0737 66.2776L86.8361 36.5152Z" fill="#FFC100"/>
<path d="M93.4122 41.308L61.8666 72.8537C62.3238 73.2869 62.7993 73.7009 63.2919 74.0945L94.6531 42.7334C94.2594 42.2408 93.8454 41.7652 93.4122 41.308Z" fill="#FFD368"/>
<path d="M95.1682 56.6033C95.1956 66.4717 87.1998 74.4975 77.3044 74.525C67.4091 74.5525 59.3688 66.5711 59.3414 56.7027C59.3141 46.8344 67.3099 38.8085 77.2052 38.781C87.1005 38.7535 95.1408 46.7349 95.1682 56.6033Z" stroke="#ECA800" stroke-width="2"/>
<path d="M167.858 27.4584C168.205 27.4584 168.478 27.558 168.677 27.7574C168.885 27.948 168.989 28.2037 168.989 28.5244V30.4484H156.093V29.3824C156.093 29.1657 156.136 28.9404 156.223 28.7064C156.318 28.4637 156.466 28.247 156.665 28.0564L162.372 22.3364C162.849 21.851 163.273 21.3874 163.646 20.9454C164.027 20.5034 164.344 20.0657 164.595 19.6324C164.846 19.199 165.037 18.7614 165.167 18.3194C165.306 17.8687 165.375 17.3964 165.375 16.9024C165.375 16.4517 165.31 16.0574 165.18 15.7194C165.05 15.3727 164.864 15.0824 164.621 14.8484C164.387 14.6144 164.101 14.441 163.763 14.3284C163.434 14.207 163.061 14.1464 162.645 14.1464C162.264 14.1464 161.908 14.2027 161.579 14.3154C161.258 14.4194 160.972 14.571 160.721 14.7704C160.47 14.961 160.257 15.1864 160.084 15.4464C159.911 15.7064 159.781 15.9924 159.694 16.3044C159.547 16.703 159.356 16.9674 159.122 17.0974C158.888 17.2274 158.55 17.2577 158.108 17.1884L156.418 16.8894C156.548 15.988 156.799 15.1994 157.172 14.5234C157.545 13.8387 158.008 13.271 158.563 12.8204C159.126 12.361 159.768 12.0187 160.487 11.7934C161.215 11.5594 161.995 11.4424 162.827 11.4424C163.694 11.4424 164.487 11.5724 165.206 11.8324C165.925 12.0837 166.541 12.4434 167.052 12.9114C167.563 13.3794 167.962 13.9427 168.248 14.6014C168.534 15.26 168.677 15.9924 168.677 16.7984C168.677 17.4917 168.573 18.133 168.365 18.7224C168.166 19.3117 167.893 19.875 167.546 20.4124C167.208 20.9497 166.809 21.4697 166.35 21.9724C165.891 22.475 165.41 22.9864 164.907 23.5064L160.669 27.8354C161.076 27.714 161.479 27.623 161.878 27.5624C162.285 27.493 162.671 27.4584 163.035 27.4584H167.858ZM179.443 23.3634V17.2144C179.443 16.6337 179.482 15.9924 179.56 15.2904L173.723 23.3634H179.443ZM184.604 23.3634V25.2224C184.604 25.3957 184.548 25.5474 184.435 25.6774C184.322 25.7987 184.162 25.8594 183.954 25.8594H182.238V30.4484H179.443V25.8594H171.513C171.296 25.8594 171.106 25.7944 170.941 25.6644C170.776 25.5257 170.672 25.3567 170.629 25.1574L170.291 23.5324L179.196 11.6374H182.238V23.3634H184.604ZM186.387 28.6804C186.387 28.4117 186.435 28.156 186.53 27.9134C186.634 27.6707 186.773 27.4627 186.946 27.2894C187.119 27.116 187.327 26.9774 187.57 26.8734C187.813 26.7694 188.073 26.7174 188.35 26.7174C188.627 26.7174 188.883 26.7694 189.117 26.8734C189.36 26.9774 189.568 27.116 189.741 27.2894C189.923 27.4627 190.066 27.6707 190.17 27.9134C190.274 28.156 190.326 28.4117 190.326 28.6804C190.326 28.9577 190.274 29.2177 190.17 29.4604C190.066 29.6944 189.923 29.898 189.741 30.0714C189.568 30.2447 189.36 30.379 189.117 30.4744C188.883 30.5784 188.627 30.6304 188.35 30.6304C188.073 30.6304 187.813 30.5784 187.57 30.4744C187.327 30.379 187.119 30.2447 186.946 30.0714C186.773 29.898 186.634 29.6944 186.53 29.4604C186.435 29.2177 186.387 28.9577 186.387 28.6804ZM205.635 11.6504V13.0414C205.635 13.4574 205.592 13.7954 205.505 14.0554C205.418 14.3067 205.332 14.519 205.245 14.6924L198.121 29.3564C197.974 29.6597 197.766 29.9197 197.497 30.1364C197.228 30.3444 196.869 30.4484 196.418 30.4484H194.091L201.358 16.0834C201.523 15.7887 201.683 15.52 201.839 15.2774C202.004 15.026 202.186 14.7877 202.385 14.5624H193.389C193.19 14.5624 193.016 14.4887 192.869 14.3414C192.722 14.194 192.648 14.0207 192.648 13.8214V11.6504H205.635ZM216.206 16.2004C216.206 16.911 216.085 17.5524 215.842 18.1244C215.608 18.6964 215.292 19.186 214.893 19.5934C214.494 19.992 214.031 20.2997 213.502 20.5164C212.973 20.733 212.423 20.8414 211.851 20.8414C211.227 20.8414 210.651 20.733 210.122 20.5164C209.593 20.2997 209.134 19.992 208.744 19.5934C208.363 19.186 208.064 18.6964 207.847 18.1244C207.63 17.5524 207.522 16.911 207.522 16.2004C207.522 15.4724 207.63 14.8137 207.847 14.2244C208.064 13.635 208.363 13.1367 208.744 12.7294C209.134 12.322 209.593 12.01 210.122 11.7934C210.651 11.568 211.227 11.4554 211.851 11.4554C212.475 11.4554 213.051 11.568 213.58 11.7934C214.117 12.01 214.581 12.322 214.971 12.7294C215.361 13.1367 215.664 13.635 215.881 14.2244C216.098 14.8137 216.206 15.4724 216.206 16.2004ZM213.736 16.2004C213.736 15.6977 213.684 15.2774 213.58 14.9394C213.485 14.6014 213.35 14.3284 213.177 14.1204C213.012 13.9124 212.813 13.765 212.579 13.6784C212.354 13.583 212.111 13.5354 211.851 13.5354C211.591 13.5354 211.348 13.583 211.123 13.6784C210.898 13.765 210.703 13.9124 210.538 14.1204C210.382 14.3284 210.256 14.6014 210.161 14.9394C210.066 15.2774 210.018 15.6977 210.018 16.2004C210.018 16.6857 210.066 17.093 210.161 17.4224C210.256 17.743 210.382 18.003 210.538 18.2024C210.703 18.4017 210.898 18.5447 211.123 18.6314C211.348 18.718 211.591 18.7614 211.851 18.7614C212.111 18.7614 212.354 18.718 212.579 18.6314C212.813 18.5447 213.012 18.4017 213.177 18.2024C213.35 18.003 213.485 17.743 213.58 17.4224C213.684 17.093 213.736 16.6857 213.736 16.2004ZM222.459 12.1574C222.572 12.0274 222.702 11.9104 222.849 11.8064C223.005 11.7024 223.222 11.6504 223.499 11.6504H225.839L211.877 29.9674C211.764 30.106 211.63 30.223 211.474 30.3184C211.318 30.405 211.127 30.4484 210.902 30.4484H208.51L222.459 12.1574ZM226.827 26.0284C226.827 26.739 226.706 27.3804 226.463 27.9524C226.229 28.5244 225.913 29.014 225.514 29.4214C225.115 29.82 224.652 30.132 224.123 30.3574C223.594 30.574 223.044 30.6824 222.472 30.6824C221.848 30.6824 221.272 30.574 220.743 30.3574C220.214 30.132 219.755 29.82 219.365 29.4214C218.984 29.014 218.685 28.5244 218.468 27.9524C218.251 27.3804 218.143 26.739 218.143 26.0284C218.143 25.3004 218.251 24.6417 218.468 24.0524C218.685 23.463 218.984 22.9647 219.365 22.5574C219.755 22.15 220.214 21.838 220.743 21.6214C221.272 21.396 221.848 21.2834 222.472 21.2834C223.096 21.2834 223.672 21.396 224.201 21.6214C224.738 21.838 225.198 22.15 225.579 22.5574C225.969 22.9647 226.272 23.463 226.489 24.0524C226.714 24.6417 226.827 25.3004 226.827 26.0284ZM224.344 26.0284C224.344 25.5257 224.296 25.1054 224.201 24.7674C224.106 24.4294 223.971 24.1564 223.798 23.9484C223.633 23.7404 223.434 23.593 223.2 23.5064C222.975 23.411 222.732 23.3634 222.472 23.3634C222.212 23.3634 221.969 23.411 221.744 23.5064C221.519 23.593 221.324 23.7404 221.159 23.9484C220.994 24.1564 220.864 24.4294 220.769 24.7674C220.682 25.1054 220.639 25.5257 220.639 26.0284C220.639 26.5137 220.682 26.921 220.769 27.2504C220.864 27.5797 220.994 27.844 221.159 28.0434C221.324 28.2427 221.519 28.3857 221.744 28.4724C221.969 28.559 222.212 28.6024 222.472 28.6024C222.732 28.6024 222.975 28.559 223.2 28.4724C223.434 28.3857 223.633 28.2427 223.798 28.0434C223.971 27.844 224.106 27.5797 224.201 27.2504C224.296 26.921 224.344 26.5137 224.344 26.0284Z" fill="#212121"/>
<path d="M157.409 38.8519C157.713 38.8519 157.989 38.9012 158.237 38.9999C158.488 39.0986 158.701 39.2386 158.877 39.4199C159.056 39.6012 159.193 39.8226 159.289 40.0839C159.385 40.3452 159.433 40.6372 159.433 40.9599C159.433 41.2852 159.385 41.5786 159.289 41.8399C159.193 42.1012 159.056 42.3239 158.877 42.5079C158.701 42.6919 158.488 42.8332 158.237 42.9319C157.989 43.0306 157.713 43.0799 157.409 43.0799C157.102 43.0799 156.824 43.0306 156.573 42.9319C156.322 42.8332 156.108 42.6919 155.929 42.5079C155.753 42.3239 155.616 42.1012 155.517 41.8399C155.421 41.5786 155.373 41.2852 155.373 40.9599C155.373 40.6372 155.421 40.3452 155.517 40.0839C155.616 39.8226 155.753 39.6012 155.929 39.4199C156.108 39.2386 156.322 39.0986 156.573 38.9999C156.824 38.9012 157.102 38.8519 157.409 38.8519ZM157.409 42.3199C157.75 42.3199 158.002 42.2052 158.165 41.9759C158.33 41.7466 158.413 41.4106 158.413 40.9679C158.413 40.5252 158.33 40.1879 158.165 39.9559C158.002 39.7239 157.75 39.6079 157.409 39.6079C157.062 39.6079 156.805 39.7252 156.637 39.9599C156.472 40.1919 156.389 40.5279 156.389 40.9679C156.389 41.4079 156.472 41.7439 156.637 41.9759C156.805 42.2052 157.062 42.3199 157.409 42.3199ZM160.373 43.0199V39.6599L160.017 39.6039C159.94 39.5879 159.877 39.5612 159.829 39.5239C159.784 39.4839 159.761 39.4279 159.761 39.3559V38.9519H160.373V38.6479C160.373 38.4132 160.408 38.2026 160.477 38.0159C160.549 37.8292 160.651 37.6706 160.781 37.5399C160.915 37.4092 161.076 37.3092 161.265 37.2399C161.455 37.1706 161.668 37.1359 161.905 37.1359C162.095 37.1359 162.271 37.1612 162.433 37.2119L162.413 37.7079C162.411 37.7452 162.4 37.7759 162.381 37.7999C162.363 37.8212 162.337 37.8386 162.305 37.8519C162.276 37.8626 162.241 37.8706 162.201 37.8759C162.161 37.8786 162.119 37.8799 162.073 37.8799C161.956 37.8799 161.851 37.8932 161.757 37.9199C161.667 37.9439 161.589 37.9879 161.525 38.0519C161.461 38.1132 161.412 38.1959 161.377 38.2999C161.345 38.4012 161.329 38.5279 161.329 38.6799V38.9519H162.397V39.6559H161.361V43.0199H160.373ZM166.117 43.0839C165.76 43.0839 165.485 42.9839 165.293 42.7839C165.104 42.5812 165.009 42.3026 165.009 41.9479V39.6559H164.589C164.536 39.6559 164.491 39.6386 164.453 39.6039C164.416 39.5692 164.397 39.5172 164.397 39.4479V39.0559L165.057 38.9479L165.265 37.8279C165.279 37.7746 165.304 37.7332 165.341 37.7039C165.379 37.6746 165.427 37.6599 165.485 37.6599H165.997V38.9519H167.093V39.6559H165.997V41.8799C165.997 42.0079 166.028 42.1079 166.089 42.1799C166.153 42.2519 166.24 42.2879 166.349 42.2879C166.411 42.2879 166.461 42.2812 166.501 42.2679C166.544 42.2519 166.58 42.2359 166.609 42.2199C166.641 42.2039 166.669 42.1892 166.693 42.1759C166.717 42.1599 166.741 42.1519 166.765 42.1519C166.795 42.1519 166.819 42.1599 166.837 42.1759C166.856 42.1892 166.876 42.2106 166.897 42.2399L167.193 42.7199C167.049 42.8399 166.884 42.9306 166.697 42.9919C166.511 43.0532 166.317 43.0839 166.117 43.0839ZM168.714 39.3559C168.874 39.2066 169.05 39.0852 169.242 38.9919C169.434 38.8986 169.659 38.8519 169.918 38.8519C170.142 38.8519 170.341 38.8906 170.514 38.9679C170.687 39.0426 170.831 39.1492 170.946 39.2879C171.063 39.4239 171.151 39.5879 171.21 39.7799C171.271 39.9692 171.302 40.1786 171.302 40.4079V43.0199H170.314V40.4079C170.314 40.1572 170.257 39.9639 170.142 39.8279C170.027 39.6892 169.853 39.6199 169.618 39.6199C169.447 39.6199 169.287 39.6586 169.138 39.7359C168.989 39.8132 168.847 39.9186 168.714 40.0519V43.0199H167.726V37.0759H168.714V39.3559ZM174.886 40.4959C174.886 40.3679 174.867 40.2479 174.83 40.1359C174.795 40.0212 174.742 39.9212 174.67 39.8359C174.598 39.7506 174.506 39.6839 174.394 39.6359C174.284 39.5852 174.156 39.5599 174.01 39.5599C173.724 39.5599 173.499 39.6412 173.334 39.8039C173.171 39.9666 173.067 40.1972 173.022 40.4959H174.886ZM173.002 41.0919C173.018 41.3026 173.055 41.4852 173.114 41.6399C173.172 41.7919 173.25 41.9186 173.346 42.0199C173.442 42.1186 173.555 42.1932 173.686 42.2439C173.819 42.2919 173.966 42.3159 174.126 42.3159C174.286 42.3159 174.423 42.2972 174.538 42.2599C174.655 42.2226 174.756 42.1812 174.842 42.1359C174.93 42.0906 175.006 42.0492 175.07 42.0119C175.136 41.9746 175.2 41.9559 175.262 41.9559C175.344 41.9559 175.406 41.9866 175.446 42.0479L175.73 42.4079C175.62 42.5359 175.498 42.6439 175.362 42.7319C175.226 42.8172 175.083 42.8866 174.934 42.9399C174.787 42.9906 174.636 43.0266 174.482 43.0479C174.33 43.0692 174.182 43.0799 174.038 43.0799C173.752 43.0799 173.487 43.0332 173.242 42.9399C172.996 42.8439 172.783 42.7039 172.602 42.5199C172.42 42.3332 172.278 42.1039 172.174 41.8319C172.07 41.5572 172.018 41.2399 172.018 40.8799C172.018 40.5999 172.063 40.3372 172.154 40.0919C172.244 39.8439 172.374 39.6292 172.542 39.4479C172.712 39.2639 172.919 39.1186 173.162 39.0119C173.407 38.9052 173.683 38.8519 173.99 38.8519C174.248 38.8519 174.487 38.8932 174.706 38.9759C174.924 39.0586 175.112 39.1799 175.27 39.3399C175.427 39.4972 175.55 39.6919 175.638 39.9239C175.728 40.1532 175.774 40.4159 175.774 40.7119C175.774 40.8612 175.758 40.9626 175.726 41.0159C175.694 41.0666 175.632 41.0919 175.542 41.0919H173.002ZM179.448 41.9559C179.56 42.0919 179.682 42.1879 179.812 42.2439C179.946 42.2999 180.09 42.3279 180.244 42.3279C180.394 42.3279 180.528 42.2999 180.648 42.2439C180.768 42.1879 180.87 42.1026 180.952 41.9879C181.038 41.8732 181.103 41.7292 181.148 41.5559C181.194 41.3799 181.216 41.1732 181.216 40.9359C181.216 40.6959 181.196 40.4932 181.156 40.3279C181.119 40.1599 181.064 40.0239 180.992 39.9199C180.92 39.8159 180.832 39.7399 180.728 39.6919C180.627 39.6439 180.511 39.6199 180.38 39.6199C180.175 39.6199 180 39.6639 179.856 39.7519C179.712 39.8372 179.576 39.9586 179.448 40.1159V41.9559ZM179.396 39.4759C179.564 39.2866 179.755 39.1332 179.968 39.0159C180.182 38.8986 180.432 38.8399 180.72 38.8399C180.944 38.8399 181.148 38.8866 181.332 38.9799C181.519 39.0732 181.679 39.2092 181.812 39.3879C181.948 39.5639 182.052 39.7826 182.124 40.0439C182.199 40.3026 182.236 40.5999 182.236 40.9359C182.236 41.2426 182.195 41.5266 182.112 41.7879C182.03 42.0492 181.911 42.2759 181.756 42.4679C181.604 42.6599 181.419 42.8106 181.2 42.9199C180.984 43.0266 180.742 43.0799 180.472 43.0799C180.243 43.0799 180.047 43.0452 179.884 42.9759C179.722 42.9039 179.576 42.8052 179.448 42.6799V44.3599H178.46V38.9159H179.064C179.192 38.9159 179.276 38.9759 179.316 39.0959L179.396 39.4759ZM184.823 38.8519C185.127 38.8519 185.403 38.9012 185.651 38.9999C185.902 39.0986 186.115 39.2386 186.291 39.4199C186.47 39.6012 186.607 39.8226 186.703 40.0839C186.799 40.3452 186.847 40.6372 186.847 40.9599C186.847 41.2852 186.799 41.5786 186.703 41.8399C186.607 42.1012 186.47 42.3239 186.291 42.5079C186.115 42.6919 185.902 42.8332 185.651 42.9319C185.403 43.0306 185.127 43.0799 184.823 43.0799C184.516 43.0799 184.238 43.0306 183.987 42.9319C183.736 42.8332 183.522 42.6919 183.343 42.5079C183.167 42.3239 183.03 42.1012 182.931 41.8399C182.835 41.5786 182.787 41.2852 182.787 40.9599C182.787 40.6372 182.835 40.3452 182.931 40.0839C183.03 39.8226 183.167 39.6012 183.343 39.4199C183.522 39.2386 183.736 39.0986 183.987 38.9999C184.238 38.9012 184.516 38.8519 184.823 38.8519ZM184.823 42.3199C185.164 42.3199 185.416 42.2052 185.579 41.9759C185.744 41.7466 185.827 41.4106 185.827 40.9679C185.827 40.5252 185.744 40.1879 185.579 39.9559C185.416 39.7239 185.164 39.6079 184.823 39.6079C184.476 39.6079 184.219 39.7252 184.051 39.9599C183.886 40.1919 183.803 40.5279 183.803 40.9679C183.803 41.4079 183.886 41.7439 184.051 41.9759C184.219 42.2052 184.476 42.3199 184.823 42.3199ZM188.589 41.9559C188.701 42.0919 188.822 42.1879 188.953 42.2439C189.086 42.2999 189.23 42.3279 189.385 42.3279C189.534 42.3279 189.669 42.2999 189.789 42.2439C189.909 42.1879 190.01 42.1026 190.093 41.9879C190.178 41.8732 190.244 41.7292 190.289 41.5559C190.334 41.3799 190.357 41.1732 190.357 40.9359C190.357 40.6959 190.337 40.4932 190.297 40.3279C190.26 40.1599 190.205 40.0239 190.133 39.9199C190.061 39.8159 189.973 39.7399 189.869 39.6919C189.768 39.6439 189.652 39.6199 189.521 39.6199C189.316 39.6199 189.141 39.6639 188.997 39.7519C188.853 39.8372 188.717 39.9586 188.589 40.1159V41.9559ZM188.537 39.4759C188.705 39.2866 188.896 39.1332 189.109 39.0159C189.322 38.8986 189.573 38.8399 189.861 38.8399C190.085 38.8399 190.289 38.8866 190.473 38.9799C190.66 39.0732 190.82 39.2092 190.953 39.3879C191.089 39.5639 191.193 39.7826 191.265 40.0439C191.34 40.3026 191.377 40.5999 191.377 40.9359C191.377 41.2426 191.336 41.5266 191.253 41.7879C191.17 42.0492 191.052 42.2759 190.897 42.4679C190.745 42.6599 190.56 42.8106 190.341 42.9199C190.125 43.0266 189.882 43.0799 189.613 43.0799C189.384 43.0799 189.188 43.0452 189.025 42.9759C188.862 42.9039 188.717 42.8052 188.589 42.6799V44.3599H187.601V38.9159H188.205C188.333 38.9159 188.417 38.9759 188.457 39.0959L188.537 39.4759ZM195.684 38.9159V43.0199H195.08C194.949 43.0199 194.866 42.9599 194.832 42.8399L194.764 42.5119C194.596 42.6826 194.41 42.8212 194.208 42.9279C194.005 43.0319 193.766 43.0839 193.492 43.0839C193.268 43.0839 193.069 43.0466 192.896 42.9719C192.725 42.8946 192.581 42.7866 192.464 42.6479C192.346 42.5092 192.257 42.3452 192.196 42.1559C192.137 41.9639 192.108 41.7532 192.108 41.5239V38.9159H193.096V41.5239C193.096 41.7746 193.153 41.9692 193.268 42.1079C193.385 42.2439 193.56 42.3119 193.792 42.3119C193.962 42.3119 194.122 42.2746 194.272 42.1999C194.421 42.1226 194.562 42.0172 194.696 41.8839V38.9159H195.684ZM197.663 37.0759V43.0199H196.675V37.0759H197.663ZM200.816 41.2679C200.53 41.2812 200.29 41.3066 200.096 41.3439C199.901 41.3786 199.745 41.4239 199.628 41.4799C199.51 41.5359 199.426 41.6012 199.376 41.6759C199.325 41.7506 199.3 41.8319 199.3 41.9199C199.3 42.0932 199.35 42.2172 199.452 42.2919C199.556 42.3666 199.69 42.4039 199.856 42.4039C200.058 42.4039 200.233 42.3679 200.38 42.2959C200.529 42.2212 200.674 42.1092 200.816 41.9599V41.2679ZM198.552 39.4879C199.024 39.0559 199.592 38.8399 200.256 38.8399C200.496 38.8399 200.71 38.8799 200.9 38.9599C201.089 39.0372 201.249 39.1466 201.38 39.2879C201.51 39.4266 201.609 39.5932 201.676 39.7879C201.745 39.9826 201.78 40.1959 201.78 40.4279V43.0199H201.332C201.238 43.0199 201.166 43.0066 201.116 42.9799C201.065 42.9506 201.025 42.8932 200.996 42.8079L200.908 42.5119C200.804 42.6052 200.702 42.6879 200.604 42.7599C200.505 42.8292 200.402 42.8879 200.296 42.9359C200.189 42.9839 200.074 43.0199 199.952 43.0439C199.832 43.0706 199.698 43.0839 199.552 43.0839C199.378 43.0839 199.218 43.0612 199.072 43.0159C198.925 42.9679 198.798 42.8972 198.692 42.8039C198.585 42.7106 198.502 42.5946 198.444 42.4559C198.385 42.3172 198.356 42.1559 198.356 41.9719C198.356 41.8679 198.373 41.7652 198.408 41.6639C198.442 41.5599 198.498 41.4612 198.576 41.3679C198.656 41.2746 198.758 41.1866 198.884 41.1039C199.009 41.0212 199.162 40.9492 199.344 40.8879C199.528 40.8266 199.741 40.7772 199.984 40.7399C200.226 40.6999 200.504 40.6759 200.816 40.6679V40.4279C200.816 40.1532 200.757 39.9506 200.64 39.8199C200.522 39.6866 200.353 39.6199 200.132 39.6199C199.972 39.6199 199.838 39.6386 199.732 39.6759C199.628 39.7132 199.536 39.7559 199.456 39.8039C199.376 39.8492 199.302 39.8906 199.236 39.9279C199.172 39.9652 199.1 39.9839 199.02 39.9839C198.95 39.9839 198.892 39.9666 198.844 39.9319C198.796 39.8946 198.757 39.8519 198.728 39.8039L198.552 39.4879ZM206.796 43.0199H205.808V39.6559H203.904V41.8799C203.904 42.0079 203.934 42.1079 203.996 42.1799C204.06 42.2519 204.146 42.2879 204.256 42.2879C204.317 42.2879 204.368 42.2812 204.408 42.2679C204.45 42.2519 204.486 42.2359 204.516 42.2199C204.548 42.2039 204.576 42.1892 204.6 42.1759C204.624 42.1599 204.648 42.1519 204.672 42.1519C204.701 42.1519 204.725 42.1599 204.744 42.1759C204.762 42.1892 204.782 42.2106 204.804 42.2399L205.1 42.7199C204.956 42.8399 204.79 42.9306 204.604 42.9919C204.417 43.0532 204.224 43.0839 204.024 43.0839C203.666 43.0839 203.392 42.9839 203.2 42.7839C203.01 42.5812 202.916 42.3026 202.916 41.9479V39.6559H202.496C202.442 39.6559 202.397 39.6386 202.36 39.6039C202.322 39.5692 202.304 39.5172 202.304 39.4479V39.0559L202.964 38.9439L203.172 37.8279C203.185 37.7746 203.21 37.7332 203.248 37.7039C203.285 37.6746 203.333 37.6599 203.392 37.6599H203.904V38.9519H206.796V43.0199ZM206.968 37.7039C206.968 37.7892 206.95 37.8706 206.916 37.9479C206.881 38.0226 206.834 38.0879 206.776 38.1439C206.72 38.1999 206.652 38.2452 206.572 38.2799C206.494 38.3119 206.412 38.3279 206.324 38.3279C206.238 38.3279 206.158 38.3119 206.084 38.2799C206.009 38.2452 205.944 38.1999 205.888 38.1439C205.832 38.0879 205.786 38.0226 205.752 37.9479C205.72 37.8706 205.704 37.7892 205.704 37.7039C205.704 37.6159 205.72 37.5346 205.752 37.4599C205.786 37.3826 205.832 37.3159 205.888 37.2599C205.944 37.2012 206.009 37.1559 206.084 37.1239C206.158 37.0892 206.238 37.0719 206.324 37.0719C206.412 37.0719 206.494 37.0892 206.572 37.1239C206.652 37.1559 206.72 37.2012 206.776 37.2599C206.834 37.3159 206.881 37.3826 206.916 37.4599C206.95 37.5346 206.968 37.6159 206.968 37.7039ZM209.62 38.8519C209.924 38.8519 210.2 38.9012 210.448 38.9999C210.699 39.0986 210.912 39.2386 211.088 39.4199C211.267 39.6012 211.404 39.8226 211.5 40.0839C211.596 40.3452 211.644 40.6372 211.644 40.9599C211.644 41.2852 211.596 41.5786 211.5 41.8399C211.404 42.1012 211.267 42.3239 211.088 42.5079C210.912 42.6919 210.699 42.8332 210.448 42.9319C210.2 43.0306 209.924 43.0799 209.62 43.0799C209.313 43.0799 209.035 43.0306 208.784 42.9319C208.533 42.8332 208.319 42.6919 208.14 42.5079C207.964 42.3239 207.827 42.1012 207.728 41.8399C207.632 41.5786 207.584 41.2852 207.584 40.9599C207.584 40.6372 207.632 40.3452 207.728 40.0839C207.827 39.8226 207.964 39.6012 208.14 39.4199C208.319 39.2386 208.533 39.0986 208.784 38.9999C209.035 38.9012 209.313 38.8519 209.62 38.8519ZM209.62 42.3199C209.961 42.3199 210.213 42.2052 210.376 41.9759C210.541 41.7466 210.624 41.4106 210.624 40.9679C210.624 40.5252 210.541 40.1879 210.376 39.9559C210.213 39.7239 209.961 39.6079 209.62 39.6079C209.273 39.6079 209.016 39.7252 208.848 39.9599C208.683 40.1919 208.6 40.5279 208.6 40.9679C208.6 41.4079 208.683 41.7439 208.848 41.9759C209.016 42.2052 209.273 42.3199 209.62 42.3199ZM213.322 39.4199C213.404 39.3372 213.491 39.2612 213.582 39.1919C213.675 39.1199 213.772 39.0599 213.874 39.0119C213.978 38.9612 214.088 38.9226 214.206 38.8959C214.323 38.8666 214.451 38.8519 214.59 38.8519C214.814 38.8519 215.012 38.8906 215.186 38.9679C215.359 39.0426 215.503 39.1492 215.618 39.2879C215.735 39.4239 215.823 39.5879 215.882 39.7799C215.943 39.9692 215.974 40.1786 215.974 40.4079V43.0199H214.986V40.4079C214.986 40.1572 214.928 39.9639 214.814 39.8279C214.699 39.6892 214.524 39.6199 214.29 39.6199C214.119 39.6199 213.959 39.6586 213.81 39.7359C213.66 39.8132 213.519 39.9186 213.386 40.0519V43.0199H212.398V38.9159H213.002C213.13 38.9159 213.214 38.9759 213.254 39.0959L213.322 39.4199ZM220.675 38.8519C220.979 38.8519 221.255 38.9012 221.503 38.9999C221.753 39.0986 221.967 39.2386 222.143 39.4199C222.321 39.6012 222.459 39.8226 222.555 40.0839C222.651 40.3452 222.699 40.6372 222.699 40.9599C222.699 41.2852 222.651 41.5786 222.555 41.8399C222.459 42.1012 222.321 42.3239 222.143 42.5079C221.967 42.6919 221.753 42.8332 221.503 42.9319C221.255 43.0306 220.979 43.0799 220.675 43.0799C220.368 43.0799 220.089 43.0306 219.839 42.9319C219.588 42.8332 219.373 42.6919 219.195 42.5079C219.019 42.3239 218.881 42.1012 218.783 41.8399C218.687 41.5786 218.639 41.2852 218.639 40.9599C218.639 40.6372 218.687 40.3452 218.783 40.0839C218.881 39.8226 219.019 39.6012 219.195 39.4199C219.373 39.2386 219.588 39.0986 219.839 38.9999C220.089 38.9012 220.368 38.8519 220.675 38.8519ZM220.675 42.3199C221.016 42.3199 221.268 42.2052 221.431 41.9759C221.596 41.7466 221.679 41.4106 221.679 40.9679C221.679 40.5252 221.596 40.1879 221.431 39.9559C221.268 39.7239 221.016 39.6079 220.675 39.6079C220.328 39.6079 220.071 39.7252 219.903 39.9599C219.737 40.1919 219.655 40.5279 219.655 40.9679C219.655 41.4079 219.737 41.7439 219.903 41.9759C220.071 42.2052 220.328 42.3199 220.675 42.3199ZM223.639 43.0199V39.6599L223.283 39.6039C223.206 39.5879 223.143 39.5612 223.095 39.5239C223.05 39.4839 223.027 39.4279 223.027 39.3559V38.9519H223.639V38.6479C223.639 38.4132 223.674 38.2026 223.743 38.0159C223.815 37.8292 223.916 37.6706 224.047 37.5399C224.18 37.4092 224.342 37.3092 224.531 37.2399C224.72 37.1706 224.934 37.1359 225.171 37.1359C225.36 37.1359 225.536 37.1612 225.699 37.2119L225.679 37.7079C225.676 37.7452 225.666 37.7759 225.647 37.7999C225.628 37.8212 225.603 37.8386 225.571 37.8519C225.542 37.8626 225.507 37.8706 225.467 37.8759C225.427 37.8786 225.384 37.8799 225.339 37.8799C225.222 37.8799 225.116 37.8932 225.023 37.9199C224.932 37.9439 224.855 37.9879 224.791 38.0519C224.727 38.1132 224.678 38.1959 224.643 38.2999C224.611 38.4012 224.595 38.5279 224.595 38.6799V38.9519H225.663V39.6559H224.627V43.0199H223.639Z" fill="#212121"/>
<path d="M160.125 54.6379C160.189 54.6379 160.245 54.6625 160.295 54.7118L160.756 55.2121C160.501 55.5282 160.186 55.7703 159.812 55.9385C159.441 56.1067 158.994 56.1908 158.472 56.1908C158.005 56.1908 157.585 56.1111 157.211 55.9516C156.839 55.7921 156.522 55.5702 156.258 55.286C155.994 55.0018 155.791 54.6625 155.649 54.2681C155.51 53.8737 155.44 53.4431 155.44 52.9762C155.44 52.5035 155.515 52.0714 155.666 51.6799C155.817 51.2855 156.029 50.9462 156.301 50.662C156.577 50.3778 156.905 50.1574 157.284 50.0008C157.664 49.8413 158.085 49.7615 158.546 49.7615C159.004 49.7615 159.41 49.8369 159.764 49.9877C160.121 50.1385 160.424 50.3357 160.673 50.5793L160.282 51.1231C160.258 51.1579 160.228 51.1883 160.19 51.2144C160.155 51.2405 160.106 51.2536 160.042 51.2536C159.999 51.2536 159.954 51.242 159.908 51.2188C159.861 51.1927 159.81 51.1622 159.755 51.1274C159.7 51.0897 159.636 51.0491 159.564 51.0056C159.491 50.9621 159.407 50.923 159.312 50.8882C159.216 50.8505 159.104 50.82 158.977 50.7968C158.852 50.7707 158.707 50.7577 158.542 50.7577C158.26 50.7577 158.002 50.8084 157.767 50.9099C157.535 51.0085 157.335 51.1535 157.167 51.3449C156.999 51.5334 156.868 51.7654 156.776 52.0409C156.683 52.3135 156.636 52.6253 156.636 52.9762C156.636 53.33 156.686 53.6446 156.784 53.9201C156.886 54.1956 157.022 54.4276 157.193 54.6161C157.364 54.8046 157.566 54.9496 157.798 55.0511C158.03 55.1497 158.279 55.199 158.546 55.199C158.705 55.199 158.849 55.1903 158.977 55.1729C159.107 55.1555 159.226 55.128 159.333 55.0903C159.444 55.0526 159.546 55.0047 159.642 54.9467C159.741 54.8858 159.838 54.8119 159.934 54.7249C159.963 54.6988 159.993 54.6785 160.025 54.664C160.057 54.6466 160.09 54.6379 160.125 54.6379ZM162.462 52.1366C162.636 51.9742 162.828 51.8423 163.036 51.7408C163.245 51.6393 163.49 51.5885 163.771 51.5885C164.015 51.5885 164.231 51.6306 164.42 51.7147C164.608 51.7959 164.765 51.9119 164.889 52.0627C165.017 52.2106 165.113 52.3889 165.177 52.5977C165.243 52.8036 165.277 53.0313 165.277 53.2807V56.1212H164.202V53.2807C164.202 53.0081 164.14 52.7978 164.015 52.6499C163.89 52.4991 163.7 52.4237 163.445 52.4237C163.26 52.4237 163.086 52.4658 162.923 52.5499C162.761 52.634 162.607 52.7485 162.462 52.8935V56.1212H161.388V49.6571H162.462V52.1366ZM167.412 51.6581V56.1212H166.333V51.6581H167.412ZM167.56 50.3575C167.56 50.4503 167.541 50.5373 167.503 50.6185C167.466 50.6997 167.415 50.7707 167.351 50.8316C167.29 50.8925 167.218 50.9418 167.134 50.9795C167.05 51.0143 166.96 51.0317 166.864 51.0317C166.771 51.0317 166.683 51.0143 166.599 50.9795C166.517 50.9418 166.446 50.8925 166.385 50.8316C166.325 50.7707 166.275 50.6997 166.238 50.6185C166.203 50.5373 166.185 50.4503 166.185 50.3575C166.185 50.2618 166.203 50.1719 166.238 50.0878C166.275 50.0037 166.325 49.9312 166.385 49.8703C166.446 49.8094 166.517 49.7615 166.599 49.7267C166.683 49.689 166.771 49.6702 166.864 49.6702C166.96 49.6702 167.05 49.689 167.134 49.7267C167.218 49.7615 167.29 49.8094 167.351 49.8703C167.415 49.9312 167.466 50.0037 167.503 50.0878C167.541 50.1719 167.56 50.2618 167.56 50.3575ZM169.512 52.2062C169.602 52.1163 169.696 52.0337 169.795 51.9583C169.896 51.88 170.002 51.8147 170.113 51.7625C170.226 51.7074 170.346 51.6654 170.474 51.6364C170.601 51.6045 170.74 51.5885 170.891 51.5885C171.135 51.5885 171.351 51.6306 171.539 51.7147C171.728 51.7959 171.884 51.9119 172.009 52.0627C172.137 52.2106 172.232 52.3889 172.296 52.5977C172.363 52.8036 172.396 53.0313 172.396 53.2807V56.1212H171.322V53.2807C171.322 53.0081 171.259 52.7978 171.135 52.6499C171.01 52.4991 170.82 52.4237 170.565 52.4237C170.379 52.4237 170.205 52.4658 170.043 52.5499C169.881 52.634 169.727 52.7485 169.582 52.8935V56.1212H168.507V51.6581H169.164C169.303 51.6581 169.395 51.7234 169.438 51.8539L169.512 52.2062ZM175.776 54.2159C175.466 54.2304 175.205 54.258 174.993 54.2986C174.781 54.3363 174.611 54.3856 174.484 54.4465C174.356 54.5074 174.265 54.5784 174.21 54.6596C174.155 54.7408 174.127 54.8293 174.127 54.925C174.127 55.1135 174.182 55.2483 174.292 55.3295C174.406 55.4107 174.552 55.4513 174.732 55.4513C174.952 55.4513 175.142 55.4122 175.302 55.3339C175.464 55.2527 175.622 55.1309 175.776 54.9685V54.2159ZM173.314 52.2802C173.827 51.8104 174.445 51.5755 175.167 51.5755C175.428 51.5755 175.661 51.619 175.867 51.706C176.073 51.7901 176.247 51.909 176.389 52.0627C176.531 52.2135 176.639 52.3947 176.711 52.6064C176.786 52.8181 176.824 53.0501 176.824 53.3024V56.1212H176.337C176.235 56.1212 176.157 56.1067 176.102 56.0777C176.047 56.0458 176.003 55.9835 175.972 55.8907L175.876 55.5688C175.763 55.6703 175.653 55.7602 175.545 55.8385C175.438 55.9139 175.326 55.9777 175.21 56.0299C175.094 56.0821 174.97 56.1212 174.836 56.1473C174.706 56.1763 174.561 56.1908 174.401 56.1908C174.213 56.1908 174.039 56.1662 173.879 56.1169C173.72 56.0647 173.582 55.9878 173.466 55.8863C173.35 55.7848 173.26 55.6587 173.196 55.5079C173.132 55.3571 173.101 55.1816 173.101 54.9815C173.101 54.8684 173.119 54.7568 173.157 54.6466C173.195 54.5335 173.256 54.4262 173.34 54.3247C173.427 54.2232 173.538 54.1275 173.675 54.0376C173.811 53.9477 173.978 53.8694 174.175 53.8027C174.375 53.736 174.607 53.6823 174.871 53.6417C175.135 53.5982 175.437 53.5721 175.776 53.5634V53.3024C175.776 53.0037 175.712 52.7833 175.584 52.6412C175.457 52.4962 175.273 52.4237 175.032 52.4237C174.858 52.4237 174.713 52.444 174.597 52.4846C174.484 52.5252 174.384 52.5716 174.297 52.6238C174.21 52.6731 174.13 52.7181 174.058 52.7587C173.988 52.7993 173.91 52.8196 173.823 52.8196C173.747 52.8196 173.683 52.8007 173.631 52.763C173.579 52.7224 173.537 52.676 173.505 52.6238L173.314 52.2802ZM182.827 53.3764C182.827 53.2372 182.807 53.1067 182.766 52.9849C182.728 52.8602 182.67 52.7514 182.592 52.6586C182.514 52.5658 182.414 52.4933 182.292 52.4411C182.173 52.386 182.034 52.3585 181.874 52.3585C181.564 52.3585 181.319 52.4469 181.139 52.6238C180.962 52.8007 180.849 53.0516 180.8 53.3764H182.827ZM180.778 54.0245C180.796 54.2536 180.836 54.4523 180.9 54.6205C180.964 54.7858 181.048 54.9235 181.152 55.0337C181.257 55.141 181.38 55.2222 181.522 55.2773C181.667 55.3295 181.826 55.3556 182 55.3556C182.174 55.3556 182.324 55.3353 182.449 55.2947C182.576 55.2541 182.686 55.2092 182.779 55.1599C182.875 55.1106 182.957 55.0656 183.027 55.025C183.1 54.9844 183.169 54.9641 183.236 54.9641C183.326 54.9641 183.392 54.9975 183.436 55.0642L183.745 55.4557C183.626 55.5949 183.493 55.7123 183.345 55.808C183.197 55.9008 183.042 55.9762 182.879 56.0342C182.72 56.0893 182.556 56.1285 182.388 56.1517C182.222 56.1749 182.061 56.1865 181.905 56.1865C181.594 56.1865 181.306 56.1357 181.039 56.0342C180.772 55.9298 180.54 55.7776 180.343 55.5775C180.146 55.3745 179.991 55.1251 179.878 54.8293C179.765 54.5306 179.708 54.1855 179.708 53.794C179.708 53.4895 179.757 53.2038 179.856 52.937C179.955 52.6673 180.095 52.4339 180.278 52.2367C180.463 52.0366 180.688 51.8785 180.952 51.7625C181.219 51.6465 181.519 51.5885 181.853 51.5885C182.134 51.5885 182.393 51.6335 182.631 51.7234C182.869 51.8133 183.073 51.9452 183.245 52.1192C183.416 52.2903 183.549 52.502 183.645 52.7543C183.743 53.0037 183.793 53.2894 183.793 53.6113C183.793 53.7737 183.775 53.8839 183.74 53.9419C183.706 53.997 183.639 54.0245 183.54 54.0245H180.778ZM186.957 54.2159C186.646 54.2304 186.385 54.258 186.174 54.2986C185.962 54.3363 185.792 54.3856 185.665 54.4465C185.537 54.5074 185.446 54.5784 185.391 54.6596C185.336 54.7408 185.308 54.8293 185.308 54.925C185.308 55.1135 185.363 55.2483 185.473 55.3295C185.586 55.4107 185.733 55.4513 185.913 55.4513C186.133 55.4513 186.323 55.4122 186.483 55.3339C186.645 55.2527 186.803 55.1309 186.957 54.9685V54.2159ZM184.495 52.2802C185.008 51.8104 185.626 51.5755 186.348 51.5755C186.609 51.5755 186.842 51.619 187.048 51.706C187.254 51.7901 187.428 51.909 187.57 52.0627C187.712 52.2135 187.819 52.3947 187.892 52.6064C187.967 52.8181 188.005 53.0501 188.005 53.3024V56.1212H187.518C187.416 56.1212 187.338 56.1067 187.283 56.0777C187.228 56.0458 187.184 55.9835 187.152 55.8907L187.057 55.5688C186.944 55.6703 186.833 55.7602 186.726 55.8385C186.619 55.9139 186.507 55.9777 186.391 56.0299C186.275 56.0821 186.15 56.1212 186.017 56.1473C185.887 56.1763 185.742 56.1908 185.582 56.1908C185.394 56.1908 185.22 56.1662 185.06 56.1169C184.901 56.0647 184.763 55.9878 184.647 55.8863C184.531 55.7848 184.441 55.6587 184.377 55.5079C184.313 55.3571 184.281 55.1816 184.281 54.9815C184.281 54.8684 184.3 54.7568 184.338 54.6466C184.376 54.5335 184.437 54.4262 184.521 54.3247C184.608 54.2232 184.719 54.1275 184.856 54.0376C184.992 53.9477 185.159 53.8694 185.356 53.8027C185.556 53.736 185.788 53.6823 186.052 53.6417C186.316 53.5982 186.617 53.5721 186.957 53.5634V53.3024C186.957 53.0037 186.893 52.7833 186.765 52.6412C186.638 52.4962 186.454 52.4237 186.213 52.4237C186.039 52.4237 185.894 52.444 185.778 52.4846C185.665 52.5252 185.565 52.5716 185.478 52.6238C185.391 52.6731 185.311 52.7181 185.238 52.7587C185.169 52.7993 185.091 52.8196 185.004 52.8196C184.928 52.8196 184.864 52.8007 184.812 52.763C184.76 52.7224 184.718 52.676 184.686 52.6238L184.495 52.2802ZM190.031 52.4324C190.17 52.1656 190.335 51.9568 190.526 51.806C190.718 51.6523 190.944 51.5755 191.205 51.5755C191.411 51.5755 191.576 51.6204 191.701 51.7103L191.631 52.5151C191.617 52.5673 191.595 52.605 191.566 52.6282C191.54 52.6485 191.504 52.6586 191.457 52.6586C191.414 52.6586 191.349 52.6514 191.262 52.6369C191.177 52.6224 191.095 52.6151 191.014 52.6151C190.895 52.6151 190.789 52.6325 190.696 52.6673C190.603 52.7021 190.519 52.7529 190.444 52.8196C190.371 52.8834 190.306 52.9617 190.248 53.0545C190.193 53.1473 190.141 53.2531 190.091 53.372V56.1212H189.017V51.6581H189.648C189.758 51.6581 189.835 51.6784 189.878 51.719C189.922 51.7567 189.951 51.8263 189.965 51.9278L190.031 52.4324ZM193.267 52.2062C193.357 52.1163 193.451 52.0337 193.55 51.9583C193.652 51.88 193.757 51.8147 193.868 51.7625C193.981 51.7074 194.101 51.6654 194.229 51.6364C194.356 51.6045 194.495 51.5885 194.646 51.5885C194.89 51.5885 195.106 51.6306 195.294 51.7147C195.483 51.7959 195.64 51.9119 195.764 52.0627C195.892 52.2106 195.988 52.3889 196.051 52.5977C196.118 52.8036 196.151 53.0313 196.151 53.2807V56.1212H195.077V53.2807C195.077 53.0081 195.015 52.7978 194.89 52.6499C194.765 52.4991 194.575 52.4237 194.32 52.4237C194.134 52.4237 193.96 52.4658 193.798 52.5499C193.636 52.634 193.482 52.7485 193.337 52.8935V56.1212H192.262V51.6581H192.919C193.059 51.6581 193.15 51.7234 193.193 51.8539L193.267 52.2062ZM199.896 52.5281C199.867 52.5745 199.837 52.6079 199.805 52.6282C199.773 52.6456 199.732 52.6543 199.683 52.6543C199.631 52.6543 199.574 52.6398 199.514 52.6108C199.456 52.5818 199.387 52.5499 199.309 52.5151C199.231 52.4774 199.141 52.444 199.039 52.415C198.941 52.386 198.823 52.3715 198.687 52.3715C198.475 52.3715 198.309 52.4165 198.187 52.5064C198.068 52.5963 198.008 52.7137 198.008 52.8587C198.008 52.9544 198.039 53.0356 198.1 53.1023C198.164 53.1661 198.246 53.2227 198.348 53.272C198.452 53.3213 198.57 53.3662 198.7 53.4068C198.831 53.4445 198.963 53.4866 199.096 53.533C199.232 53.5794 199.366 53.633 199.496 53.6939C199.627 53.7519 199.743 53.8273 199.844 53.9201C199.949 54.01 200.031 54.1188 200.092 54.2464C200.156 54.374 200.188 54.5277 200.188 54.7075C200.188 54.9221 200.149 55.1207 200.07 55.3034C199.995 55.4832 199.882 55.6398 199.731 55.7732C199.58 55.9037 199.393 56.0067 199.17 56.0821C198.949 56.1546 198.694 56.1908 198.404 56.1908C198.251 56.1908 198.1 56.1763 197.952 56.1473C197.807 56.1212 197.666 56.0835 197.53 56.0342C197.397 55.9849 197.272 55.9269 197.156 55.8602C197.043 55.7935 196.943 55.721 196.856 55.6427L197.104 55.2338C197.136 55.1845 197.173 55.1468 197.217 55.1207C197.26 55.0946 197.315 55.0816 197.382 55.0816C197.449 55.0816 197.511 55.1004 197.569 55.1381C197.63 55.1758 197.7 55.2164 197.778 55.2599C197.856 55.3034 197.948 55.344 198.052 55.3817C198.159 55.4194 198.294 55.4383 198.456 55.4383C198.584 55.4383 198.693 55.4238 198.783 55.3948C198.876 55.3629 198.951 55.3223 199.009 55.273C199.07 55.2237 199.113 55.1671 199.139 55.1033C199.168 55.0366 199.183 54.9685 199.183 54.8989C199.183 54.7945 199.151 54.7089 199.087 54.6422C199.026 54.5755 198.944 54.5175 198.839 54.4682C198.738 54.4189 198.62 54.3754 198.487 54.3377C198.356 54.2971 198.222 54.2536 198.082 54.2072C197.946 54.1608 197.811 54.1072 197.678 54.0463C197.547 53.9825 197.43 53.9027 197.325 53.807C197.224 53.7113 197.141 53.5939 197.078 53.4547C197.017 53.3155 196.986 53.1473 196.986 52.9501C196.986 52.7674 197.022 52.5934 197.095 52.4281C197.167 52.2628 197.273 52.1192 197.412 51.9974C197.555 51.8727 197.73 51.7741 197.939 51.7016C198.151 51.6262 198.394 51.5885 198.67 51.5885C198.977 51.5885 199.257 51.6393 199.509 51.7408C199.761 51.8423 199.972 51.9757 200.14 52.141L199.896 52.5281ZM204.186 54.9641C204.308 55.112 204.44 55.2164 204.582 55.2773C204.727 55.3382 204.88 55.3687 205.039 55.3687C205.204 55.3687 205.352 55.3397 205.483 55.2817C205.616 55.2208 205.729 55.128 205.822 55.0033C205.915 54.8757 205.986 54.7147 206.035 54.5204C206.084 54.3232 206.109 54.0883 206.109 53.8157C206.109 53.3256 206.028 52.9718 205.866 52.7543C205.703 52.5339 205.47 52.4237 205.165 52.4237C204.959 52.4237 204.779 52.4716 204.626 52.5673C204.472 52.6601 204.326 52.792 204.186 52.9631V54.9641ZM204.186 52.2062C204.366 52.0177 204.565 51.8684 204.782 51.7582C205.003 51.6451 205.254 51.5885 205.535 51.5885C205.793 51.5885 206.025 51.6393 206.231 51.7408C206.44 51.8423 206.617 51.9887 206.762 52.1801C206.91 52.3686 207.023 52.5977 207.101 52.8674C207.179 53.1371 207.218 53.4402 207.218 53.7766C207.218 54.1391 207.173 54.4682 207.084 54.764C206.994 55.0598 206.865 55.3136 206.696 55.5253C206.531 55.7341 206.331 55.8965 206.096 56.0125C205.861 56.1285 205.6 56.1865 205.313 56.1865C205.174 56.1865 205.048 56.172 204.935 56.143C204.822 56.1169 204.717 56.0792 204.621 56.0299C204.526 55.9806 204.437 55.9211 204.356 55.8515C204.278 55.779 204.202 55.6993 204.13 55.6123L204.082 55.9124C204.065 55.9878 204.034 56.0415 203.991 56.0734C203.95 56.1053 203.894 56.1212 203.821 56.1212H203.112V49.6571H204.186V52.2062ZM210.924 53.3764C210.924 53.2372 210.903 53.1067 210.863 52.9849C210.825 52.8602 210.767 52.7514 210.689 52.6586C210.61 52.5658 210.51 52.4933 210.389 52.4411C210.27 52.386 210.13 52.3585 209.971 52.3585C209.661 52.3585 209.416 52.4469 209.236 52.6238C209.059 52.8007 208.946 53.0516 208.896 53.3764H210.924ZM208.875 54.0245C208.892 54.2536 208.933 54.4523 208.997 54.6205C209.06 54.7858 209.144 54.9235 209.249 55.0337C209.353 55.141 209.476 55.2222 209.619 55.2773C209.764 55.3295 209.923 55.3556 210.097 55.3556C210.271 55.3556 210.42 55.3353 210.545 55.2947C210.673 55.2541 210.783 55.2092 210.876 55.1599C210.971 55.1106 211.054 55.0656 211.124 55.025C211.196 54.9844 211.266 54.9641 211.332 54.9641C211.422 54.9641 211.489 54.9975 211.533 55.0642L211.841 55.4557C211.723 55.5949 211.589 55.7123 211.441 55.808C211.293 55.9008 211.138 55.9762 210.976 56.0342C210.816 56.0893 210.652 56.1285 210.484 56.1517C210.319 56.1749 210.158 56.1865 210.001 56.1865C209.691 56.1865 209.403 56.1357 209.136 56.0342C208.869 55.9298 208.637 55.7776 208.44 55.5775C208.243 55.3745 208.087 55.1251 207.974 54.8293C207.861 54.5306 207.805 54.1855 207.805 53.794C207.805 53.4895 207.854 53.2038 207.953 52.937C208.051 52.6673 208.192 52.4339 208.374 52.2367C208.56 52.0366 208.785 51.8785 209.049 51.7625C209.316 51.6465 209.616 51.5885 209.949 51.5885C210.23 51.5885 210.49 51.6335 210.728 51.7234C210.966 51.8133 211.17 51.9452 211.341 52.1192C211.512 52.2903 211.646 52.502 211.741 52.7543C211.84 53.0037 211.889 53.2894 211.889 53.6113C211.889 53.7737 211.872 53.8839 211.837 53.9419C211.802 53.997 211.736 54.0245 211.637 54.0245H208.875ZM213.783 49.6571V56.1212H212.709V49.6571H213.783ZM216.828 51.5885C217.159 51.5885 217.459 51.6422 217.729 51.7495C218.002 51.8568 218.234 52.009 218.425 52.2062C218.619 52.4034 218.769 52.6441 218.873 52.9283C218.977 53.2125 219.03 53.5301 219.03 53.881C219.03 54.2348 218.977 54.5538 218.873 54.838C218.769 55.1222 218.619 55.3643 218.425 55.5644C218.234 55.7645 218.002 55.9182 217.729 56.0255C217.459 56.1328 217.159 56.1865 216.828 56.1865C216.495 56.1865 216.192 56.1328 215.919 56.0255C215.647 55.9182 215.413 55.7645 215.219 55.5644C215.028 55.3643 214.878 55.1222 214.771 54.838C214.667 54.5538 214.614 54.2348 214.614 53.881C214.614 53.5301 214.667 53.2125 214.771 52.9283C214.878 52.6441 215.028 52.4034 215.219 52.2062C215.413 52.009 215.647 51.8568 215.919 51.7495C216.192 51.6422 216.495 51.5885 216.828 51.5885ZM216.828 55.36C217.2 55.36 217.474 55.2353 217.651 54.9859C217.83 54.7365 217.92 54.3711 217.92 53.8897C217.92 53.4083 217.83 53.0414 217.651 52.7891C217.474 52.5368 217.2 52.4107 216.828 52.4107C216.451 52.4107 216.172 52.5383 215.989 52.7935C215.809 53.0458 215.719 53.4112 215.719 53.8897C215.719 54.3682 215.809 54.7336 215.989 54.9859C216.172 55.2353 216.451 55.36 216.828 55.36ZM226.146 51.6581L224.727 56.1212H223.866C223.768 56.1212 223.699 56.0574 223.662 55.9298L222.861 53.3503C222.835 53.2633 222.811 53.1777 222.787 53.0936C222.767 53.0066 222.75 52.9196 222.735 52.8326C222.718 52.9196 222.697 53.0081 222.674 53.098C222.654 53.185 222.631 53.272 222.605 53.359L221.791 55.9298C221.756 56.0574 221.68 56.1212 221.561 56.1212H220.734L219.32 51.6581H220.177C220.256 51.6581 220.322 51.677 220.377 51.7147C220.433 51.7524 220.469 51.8002 220.486 51.8582L221.126 54.242C221.158 54.3725 221.185 54.5001 221.208 54.6248C221.234 54.7495 221.256 54.8742 221.274 54.9989C221.305 54.8742 221.339 54.7495 221.374 54.6248C221.411 54.5001 221.45 54.3725 221.491 54.242L222.231 51.8495C222.248 51.7915 222.281 51.7437 222.331 51.706C222.383 51.6683 222.445 51.6494 222.518 51.6494H222.992C223.067 51.6494 223.131 51.6683 223.183 51.706C223.238 51.7437 223.275 51.7915 223.292 51.8495L224.01 54.242C224.047 54.3725 224.082 54.5016 224.114 54.6292C224.149 54.7539 224.182 54.8786 224.214 55.0033C224.252 54.7568 224.306 54.503 224.375 54.242L225.032 51.8582C225.052 51.8002 225.089 51.7524 225.141 51.7147C225.193 51.677 225.255 51.6581 225.328 51.6581H226.146Z" fill="#212121"/>
<path d="M162.046 76.8439C162.823 76.7413 163.41 76.4809 163.806 76.0629C164.209 75.6376 164.411 75.0839 164.411 74.4019C164.411 74.1233 164.36 73.8813 164.257 73.6759C164.162 73.4633 164.022 73.2763 163.839 73.1149C163.663 72.9536 163.454 72.8143 163.212 72.6969C162.97 72.5796 162.706 72.4696 162.42 72.3669L162.046 76.8439ZM161.342 65.2169C160.931 65.2683 160.583 65.3563 160.297 65.4809C160.011 65.5983 159.776 65.7449 159.593 65.9209C159.41 66.0969 159.274 66.2949 159.186 66.5149C159.105 66.7349 159.065 66.9659 159.065 67.2079C159.065 67.4866 159.113 67.7323 159.208 67.9449C159.311 68.1503 159.446 68.3373 159.615 68.5059C159.791 68.6673 159.996 68.8139 160.231 68.9459C160.466 69.0706 160.722 69.1879 161.001 69.2979L161.342 65.2169ZM162.629 69.8259C163.157 69.9873 163.681 70.1669 164.202 70.3649C164.723 70.5556 165.188 70.8049 165.599 71.1129C166.017 71.4209 166.354 71.8059 166.611 72.2679C166.868 72.7226 166.996 73.2946 166.996 73.9839C166.996 74.6659 166.882 75.3076 166.655 75.9089C166.428 76.5029 166.094 77.0309 165.654 77.4929C165.214 77.9476 164.675 78.3216 164.037 78.6149C163.399 78.9009 162.669 79.0696 161.848 79.1209L161.716 80.7379C161.709 80.9066 161.635 81.0606 161.496 81.1999C161.364 81.3466 161.195 81.4199 160.99 81.4199H159.989L160.187 79.0659C159.329 78.9486 158.522 78.7139 157.767 78.3619C157.012 78.0099 156.37 77.5736 155.842 77.0529L156.678 75.8099C156.751 75.6999 156.847 75.6119 156.964 75.5459C157.089 75.4726 157.221 75.4359 157.36 75.4359C157.521 75.4359 157.694 75.4946 157.877 75.6119C158.06 75.7219 158.269 75.8539 158.504 76.0079C158.739 76.1546 159.006 76.3049 159.307 76.4589C159.608 76.6129 159.963 76.7266 160.374 76.7999L160.781 71.8829C160.26 71.7363 159.743 71.5639 159.23 71.3659C158.724 71.1679 158.266 70.9076 157.855 70.5849C157.452 70.2549 157.125 69.8406 156.876 69.3419C156.627 68.8433 156.502 68.2199 156.502 67.4719C156.502 66.9146 156.612 66.3719 156.832 65.8439C157.052 65.3086 157.375 64.8319 157.8 64.4139C158.233 63.9959 158.761 63.6513 159.384 63.3799C160.007 63.1086 160.722 62.9546 161.529 62.9179L161.65 61.5319C161.665 61.3559 161.738 61.1983 161.87 61.0589C162.002 60.9196 162.174 60.8499 162.387 60.8499H163.388L163.212 63.0059C163.989 63.1306 164.66 63.3543 165.225 63.6769C165.79 63.9923 166.277 64.3479 166.688 64.7439L166.028 65.7449C165.933 65.8916 165.834 66.0016 165.731 66.0749C165.628 66.1483 165.504 66.1849 165.357 66.1849C165.247 66.1849 165.115 66.1519 164.961 66.0859C164.807 66.0126 164.635 65.9283 164.444 65.8329C164.253 65.7303 164.037 65.6276 163.795 65.5249C163.56 65.4223 163.3 65.3379 163.014 65.2719L162.629 69.8259ZM173.609 68.8359L173.059 69.5179C173.367 69.3639 173.697 69.2466 174.049 69.1659C174.408 69.0779 174.793 69.0339 175.204 69.0339C175.805 69.0339 176.388 69.1329 176.953 69.3309C177.525 69.5289 178.027 69.8296 178.46 70.2329C178.892 70.6289 179.241 71.1239 179.505 71.7179C179.769 72.3119 179.901 73.0049 179.901 73.7969C179.901 74.5376 179.765 75.2343 179.494 75.8869C179.222 76.5323 178.841 77.0969 178.35 77.5809C177.858 78.0649 177.264 78.4463 176.568 78.7249C175.878 79.0036 175.116 79.1429 174.28 79.1429C173.429 79.1429 172.666 79.0073 171.992 78.7359C171.317 78.4646 170.741 78.0869 170.265 77.6029C169.788 77.1116 169.421 76.5249 169.165 75.8429C168.915 75.1536 168.791 74.3909 168.791 73.5549C168.791 72.8069 168.941 72.0406 169.242 71.2559C169.55 70.4639 170.023 69.6426 170.661 68.7919L174.456 63.6989C174.588 63.5229 174.778 63.3726 175.028 63.2479C175.284 63.1233 175.578 63.0609 175.908 63.0609H178.328L173.609 68.8359ZM174.225 76.9209C174.657 76.9209 175.053 76.8476 175.413 76.7009C175.779 76.5543 176.091 76.3489 176.348 76.0849C176.612 75.8209 176.817 75.5129 176.964 75.1609C177.11 74.8016 177.184 74.4129 177.184 73.9949C177.184 73.5403 177.114 73.1333 176.975 72.7739C176.835 72.4073 176.637 72.0993 176.381 71.8499C176.124 71.5933 175.816 71.3989 175.457 71.2669C175.097 71.1349 174.701 71.0689 174.269 71.0689C173.836 71.0689 173.444 71.1423 173.092 71.2889C172.74 71.4356 172.439 71.6409 172.19 71.9049C171.94 72.1616 171.746 72.4696 171.607 72.8289C171.467 73.1809 171.398 73.5623 171.398 73.9729C171.398 74.4129 171.456 74.8163 171.574 75.1829C171.698 75.5423 171.878 75.8503 172.113 76.1069C172.355 76.3636 172.652 76.5653 173.004 76.7119C173.356 76.8513 173.763 76.9209 174.225 76.9209ZM181.575 77.4709C181.575 77.2436 181.615 77.0273 181.696 76.8219C181.784 76.6166 181.901 76.4406 182.048 76.2939C182.194 76.1473 182.37 76.0299 182.576 75.9419C182.781 75.8539 183.001 75.8099 183.236 75.8099C183.47 75.8099 183.687 75.8539 183.885 75.9419C184.09 76.0299 184.266 76.1473 184.413 76.2939C184.567 76.4406 184.688 76.6166 184.776 76.8219C184.864 77.0273 184.908 77.2436 184.908 77.4709C184.908 77.7056 184.864 77.9256 184.776 78.1309C184.688 78.3289 184.567 78.5013 184.413 78.6479C184.266 78.7946 184.09 78.9083 183.885 78.9889C183.687 79.0769 183.47 79.1209 183.236 79.1209C183.001 79.1209 182.781 79.0769 182.576 78.9889C182.37 78.9083 182.194 78.7946 182.048 78.6479C181.901 78.5013 181.784 78.3289 181.696 78.1309C181.615 77.9256 181.575 77.7056 181.575 77.4709ZM192.229 77.0199C192.677 77.0199 193.069 76.9576 193.406 76.8329C193.744 76.7009 194.026 76.5213 194.253 76.2939C194.488 76.0666 194.664 75.7953 194.781 75.4799C194.899 75.1646 194.957 74.8236 194.957 74.4569C194.957 73.5843 194.715 72.9243 194.231 72.4769C193.747 72.0296 193.08 71.8059 192.229 71.8059C191.379 71.8059 190.711 72.0296 190.227 72.4769C189.743 72.9243 189.501 73.5843 189.501 74.4569C189.501 74.8236 189.56 75.1646 189.677 75.4799C189.795 75.7953 189.967 76.0666 190.194 76.2939C190.429 76.5213 190.715 76.7009 191.052 76.8329C191.39 76.9576 191.782 77.0199 192.229 77.0199ZM192.229 64.9309C191.826 64.9309 191.478 64.9933 191.184 65.1179C190.891 65.2426 190.645 65.4113 190.447 65.6239C190.257 65.8293 190.114 66.0676 190.018 66.3389C189.93 66.6103 189.886 66.8963 189.886 67.1969C189.886 67.5123 189.923 67.8203 189.996 68.1209C190.077 68.4143 190.209 68.6783 190.392 68.9129C190.576 69.1403 190.818 69.3236 191.118 69.4629C191.419 69.6023 191.789 69.6719 192.229 69.6719C192.669 69.6719 193.04 69.6023 193.34 69.4629C193.641 69.3236 193.883 69.1403 194.066 68.9129C194.25 68.6783 194.378 68.4143 194.451 68.1209C194.532 67.8203 194.572 67.5123 194.572 67.1969C194.572 66.8963 194.525 66.6103 194.429 66.3389C194.334 66.0676 194.191 65.8293 194 65.6239C193.81 65.4113 193.568 65.2426 193.274 65.1179C192.981 64.9933 192.633 64.9309 192.229 64.9309ZM194.913 70.6729C195.881 70.9883 196.596 71.4723 197.058 72.1249C197.52 72.7703 197.751 73.5623 197.751 74.5009C197.751 75.2049 197.616 75.8429 197.344 76.4149C197.08 76.9869 196.706 77.4746 196.222 77.8779C195.738 78.2813 195.155 78.5929 194.473 78.8129C193.799 79.0329 193.051 79.1429 192.229 79.1429C191.408 79.1429 190.656 79.0329 189.974 78.8129C189.3 78.5929 188.72 78.2813 188.236 77.8779C187.752 77.4746 187.375 76.9869 187.103 76.4149C186.839 75.8429 186.707 75.2049 186.707 74.5009C186.707 73.5623 186.938 72.7703 187.4 72.1249C187.862 71.4723 188.577 70.9883 189.545 70.6729C188.775 70.3503 188.196 69.8919 187.807 69.2979C187.426 68.7039 187.235 67.9889 187.235 67.1529C187.235 66.5516 187.356 65.9906 187.598 65.4699C187.848 64.9493 188.192 64.4983 188.632 64.1169C189.072 63.7283 189.597 63.4276 190.205 63.2149C190.821 62.9949 191.496 62.8849 192.229 62.8849C192.963 62.8849 193.634 62.9949 194.242 63.2149C194.858 63.4276 195.386 63.7283 195.826 64.1169C196.266 64.4983 196.607 64.9493 196.849 65.4699C197.099 65.9906 197.223 66.5516 197.223 67.1529C197.223 67.9889 197.029 68.7039 196.64 69.2979C196.259 69.8919 195.683 70.3503 194.913 70.6729ZM203.077 68.8359C203.429 68.7626 203.766 68.7113 204.089 68.6819C204.412 68.6453 204.723 68.6269 205.024 68.6269C205.86 68.6269 206.597 68.7516 207.235 69.0009C207.873 69.2503 208.408 69.5949 208.841 70.0349C209.274 70.4749 209.6 70.9919 209.82 71.5859C210.04 72.1726 210.15 72.8069 210.15 73.4889C210.15 74.3323 210 75.1023 209.699 75.7989C209.406 76.4956 208.995 77.0933 208.467 77.5919C207.939 78.0833 207.312 78.4646 206.586 78.7359C205.867 79.0073 205.083 79.1429 204.232 79.1429C203.733 79.1429 203.26 79.0916 202.813 78.9889C202.366 78.8863 201.944 78.7506 201.548 78.5819C201.159 78.4059 200.796 78.2079 200.459 77.9879C200.129 77.7606 199.832 77.5223 199.568 77.2729L200.404 76.1179C200.58 75.8686 200.811 75.7439 201.097 75.7439C201.28 75.7439 201.467 75.8026 201.658 75.9199C201.849 76.0373 202.065 76.1656 202.307 76.3049C202.556 76.4443 202.846 76.5726 203.176 76.6899C203.513 76.8073 203.917 76.8659 204.386 76.8659C204.885 76.8659 205.325 76.7853 205.706 76.6239C206.087 76.4626 206.403 76.2389 206.652 75.9529C206.909 75.6596 207.099 75.3149 207.224 74.9189C207.356 74.5156 207.422 74.0793 207.422 73.6099C207.422 72.7446 207.169 72.0699 206.663 71.5859C206.164 71.0946 205.424 70.8489 204.441 70.8489C203.686 70.8489 202.912 70.9883 202.12 71.2669L200.426 70.7829L201.746 63.0609H209.6V64.2159C209.6 64.6046 209.479 64.9199 209.237 65.1619C208.995 65.4039 208.584 65.5249 208.005 65.5249H203.638L203.077 68.8359Z" fill="#212121"/>
<path d="M215.987 68.0921C216.099 68.2281 216.22 68.3241 216.351 68.3801C216.484 68.4361 216.628 68.4641 216.783 68.4641C216.932 68.4641 217.067 68.4361 217.187 68.3801C217.307 68.3241 217.408 68.2388 217.491 68.1241C217.576 68.0095 217.642 67.8655 217.687 67.6921C217.732 67.5161 217.755 67.3095 217.755 67.0721C217.755 66.8321 217.735 66.6295 217.695 66.4641C217.658 66.2961 217.603 66.1601 217.531 66.0561C217.459 65.9521 217.371 65.8761 217.267 65.8281C217.166 65.7801 217.05 65.7561 216.919 65.7561C216.714 65.7561 216.539 65.8001 216.395 65.8881C216.251 65.9735 216.115 66.0948 215.987 66.2521V68.0921ZM215.935 65.6121C216.103 65.4228 216.294 65.2695 216.507 65.1521C216.72 65.0348 216.971 64.9761 217.259 64.9761C217.483 64.9761 217.687 65.0228 217.871 65.1161C218.058 65.2095 218.218 65.3455 218.351 65.5241C218.487 65.7001 218.591 65.9188 218.663 66.1801C218.738 66.4388 218.775 66.7361 218.775 67.0721C218.775 67.3788 218.734 67.6628 218.651 67.9241C218.568 68.1855 218.45 68.4121 218.295 68.6041C218.143 68.7961 217.958 68.9468 217.739 69.0561C217.523 69.1628 217.28 69.2161 217.011 69.2161C216.782 69.2161 216.586 69.1815 216.423 69.1121C216.26 69.0401 216.115 68.9415 215.987 68.8161V70.4961H214.999V65.0521H215.603C215.731 65.0521 215.815 65.1121 215.855 65.2321L215.935 65.6121ZM222.19 66.6321C222.19 66.5041 222.171 66.3841 222.134 66.2721C222.099 66.1575 222.046 66.0575 221.974 65.9721C221.902 65.8868 221.81 65.8201 221.698 65.7721C221.589 65.7215 221.461 65.6961 221.314 65.6961C221.029 65.6961 220.803 65.7775 220.638 65.9401C220.475 66.1028 220.371 66.3335 220.326 66.6321H222.19ZM220.306 67.2281C220.322 67.4388 220.359 67.6215 220.418 67.7761C220.477 67.9281 220.554 68.0548 220.65 68.1561C220.746 68.2548 220.859 68.3295 220.99 68.3801C221.123 68.4281 221.27 68.4521 221.43 68.4521C221.59 68.4521 221.727 68.4335 221.842 68.3961C221.959 68.3588 222.061 68.3175 222.146 68.2721C222.234 68.2268 222.31 68.1855 222.374 68.1481C222.441 68.1108 222.505 68.0921 222.566 68.0921C222.649 68.0921 222.71 68.1228 222.75 68.1841L223.034 68.5441C222.925 68.6721 222.802 68.7801 222.666 68.8681C222.53 68.9535 222.387 69.0228 222.238 69.0761C222.091 69.1268 221.941 69.1628 221.786 69.1841C221.634 69.2055 221.486 69.2161 221.342 69.2161C221.057 69.2161 220.791 69.1695 220.546 69.0761C220.301 68.9801 220.087 68.8401 219.906 68.6561C219.725 68.4695 219.582 68.2401 219.478 67.9681C219.374 67.6935 219.322 67.3761 219.322 67.0161C219.322 66.7361 219.367 66.4735 219.458 66.2281C219.549 65.9801 219.678 65.7655 219.846 65.5841C220.017 65.4001 220.223 65.2548 220.466 65.1481C220.711 65.0415 220.987 64.9881 221.294 64.9881C221.553 64.9881 221.791 65.0295 222.01 65.1121C222.229 65.1948 222.417 65.3161 222.574 65.4761C222.731 65.6335 222.854 65.8281 222.942 66.0601C223.033 66.2895 223.078 66.5521 223.078 66.8481C223.078 66.9975 223.062 67.0988 223.03 67.1521C222.998 67.2028 222.937 67.2281 222.846 67.2281H220.306ZM224.751 65.7641C224.879 65.5188 225.031 65.3268 225.207 65.1881C225.383 65.0468 225.591 64.9761 225.831 64.9761C226.021 64.9761 226.173 65.0175 226.287 65.1001L226.223 65.8401C226.21 65.8881 226.19 65.9228 226.163 65.9441C226.139 65.9628 226.106 65.9721 226.063 65.9721C226.023 65.9721 225.963 65.9655 225.883 65.9521C225.806 65.9388 225.73 65.9321 225.655 65.9321C225.546 65.9321 225.449 65.9481 225.363 65.9801C225.278 66.0121 225.201 66.0588 225.131 66.1201C225.065 66.1788 225.005 66.2508 224.951 66.3361C224.901 66.4215 224.853 66.5188 224.807 66.6281V69.1561H223.819V65.0521H224.399C224.501 65.0521 224.571 65.0708 224.611 65.1081C224.651 65.1428 224.678 65.2068 224.691 65.3001L224.751 65.7641Z" fill="#212121"/>
<path d="M216.035 75.367C215.923 75.231 215.8 75.135 215.667 75.079C215.536 75.023 215.395 74.995 215.243 74.995C215.093 74.995 214.959 75.023 214.839 75.079C214.719 75.135 214.616 75.2203 214.531 75.335C214.445 75.447 214.38 75.591 214.335 75.767C214.289 75.9403 214.267 76.1456 214.267 76.383C214.267 76.623 214.285 76.827 214.323 76.995C214.363 77.1603 214.419 77.2963 214.491 77.403C214.563 77.507 214.651 77.583 214.755 77.631C214.859 77.6763 214.975 77.699 215.103 77.699C215.308 77.699 215.483 77.6563 215.627 77.571C215.771 77.4856 215.907 77.3643 216.035 77.207V75.367ZM217.023 72.479V78.423H216.419C216.288 78.423 216.205 78.363 216.171 78.243L216.087 77.847C215.921 78.0363 215.731 78.1896 215.515 78.307C215.301 78.4243 215.052 78.483 214.767 78.483C214.543 78.483 214.337 78.4363 214.151 78.343C213.964 78.2496 213.803 78.115 213.667 77.939C213.533 77.7603 213.429 77.5403 213.355 77.279C213.283 77.0176 213.247 76.719 213.247 76.383C213.247 76.079 213.288 75.7963 213.371 75.535C213.453 75.2736 213.572 75.047 213.727 74.855C213.881 74.663 214.067 74.5136 214.283 74.407C214.499 74.2976 214.741 74.243 215.011 74.243C215.24 74.243 215.436 74.279 215.599 74.351C215.761 74.423 215.907 74.5203 216.035 74.643V72.479H217.023ZM220.166 76.671C219.881 76.6843 219.641 76.7096 219.446 76.747C219.251 76.7816 219.095 76.827 218.978 76.883C218.861 76.939 218.777 77.0043 218.726 77.079C218.675 77.1536 218.65 77.235 218.65 77.323C218.65 77.4963 218.701 77.6203 218.802 77.695C218.906 77.7696 219.041 77.807 219.206 77.807C219.409 77.807 219.583 77.771 219.73 77.699C219.879 77.6243 220.025 77.5123 220.166 77.363V76.671ZM217.902 74.891C218.374 74.459 218.942 74.243 219.606 74.243C219.846 74.243 220.061 74.283 220.25 74.363C220.439 74.4403 220.599 74.5496 220.73 74.691C220.861 74.8296 220.959 74.9963 221.026 75.191C221.095 75.3856 221.13 75.599 221.13 75.831V78.423H220.682C220.589 78.423 220.517 78.4096 220.466 78.383C220.415 78.3536 220.375 78.2963 220.346 78.211L220.258 77.915C220.154 78.0083 220.053 78.091 219.954 78.163C219.855 78.2323 219.753 78.291 219.646 78.339C219.539 78.387 219.425 78.423 219.302 78.447C219.182 78.4736 219.049 78.487 218.902 78.487C218.729 78.487 218.569 78.4643 218.422 78.419C218.275 78.371 218.149 78.3003 218.042 78.207C217.935 78.1136 217.853 77.9976 217.794 77.859C217.735 77.7203 217.706 77.559 217.706 77.375C217.706 77.271 217.723 77.1683 217.758 77.067C217.793 76.963 217.849 76.8643 217.926 76.771C218.006 76.6776 218.109 76.5896 218.234 76.507C218.359 76.4243 218.513 76.3523 218.694 76.291C218.878 76.2296 219.091 76.1803 219.334 76.143C219.577 76.103 219.854 76.079 220.166 76.071V75.831C220.166 75.5563 220.107 75.3536 219.99 75.223C219.873 75.0896 219.703 75.023 219.482 75.023C219.322 75.023 219.189 75.0416 219.082 75.079C218.978 75.1163 218.886 75.159 218.806 75.207C218.726 75.2523 218.653 75.2936 218.586 75.331C218.522 75.3683 218.45 75.387 218.37 75.387C218.301 75.387 218.242 75.3696 218.194 75.335C218.146 75.2976 218.107 75.255 218.078 75.207L217.902 74.891ZM225.671 74.319L223.435 79.551C223.406 79.6203 223.367 79.6723 223.319 79.707C223.274 79.7443 223.203 79.763 223.107 79.763H222.371L223.139 78.115L221.479 74.319H222.347C222.424 74.319 222.484 74.3376 222.527 74.375C222.572 74.4123 222.606 74.455 222.627 74.503L223.499 76.631C223.528 76.703 223.552 76.775 223.571 76.847C223.592 76.919 223.612 76.9923 223.631 77.067C223.655 76.9923 223.679 76.919 223.703 76.847C223.727 76.7723 223.754 76.699 223.783 76.627L224.607 74.503C224.628 74.4496 224.663 74.4056 224.711 74.371C224.762 74.3363 224.818 74.319 224.879 74.319H225.671ZM225.729 77.879C225.729 77.7963 225.744 77.7176 225.773 77.643C225.805 77.5683 225.848 77.5043 225.901 77.451C225.954 77.3976 226.018 77.355 226.093 77.323C226.168 77.291 226.248 77.275 226.333 77.275C226.418 77.275 226.497 77.291 226.569 77.323C226.644 77.355 226.708 77.3976 226.761 77.451C226.817 77.5043 226.861 77.5683 226.893 77.643C226.925 77.7176 226.941 77.7963 226.941 77.879C226.941 77.9643 226.925 78.0443 226.893 78.119C226.861 78.191 226.817 78.2536 226.761 78.307C226.708 78.3603 226.644 78.4016 226.569 78.431C226.497 78.463 226.418 78.479 226.333 78.479C226.248 78.479 226.168 78.463 226.093 78.431C226.018 78.4016 225.954 78.3603 225.901 78.307C225.848 78.2536 225.805 78.191 225.773 78.119C225.744 78.0443 225.729 77.9643 225.729 77.879Z" fill="#212121"/>
<path d="M20.4333 12.4484L23.3926 21.5563H32.9692L25.2216 27.1853L28.1809 36.2932L20.4333 30.6642L12.6856 36.2932L15.645 27.1853L7.89732 21.5563H17.4739L20.4333 12.4484Z" fill="#FFFF00"/>
<path d="M50.6882 30.393L51.6331 33.3012H54.691L52.2171 35.0986L53.1621 38.0068L50.6882 36.2094L48.2143 38.0068L49.1592 35.0986L46.6854 33.3012H49.7432L50.6882 30.393Z" fill="#FFFF00"/>
<path d="M43.5436 39.4129L43.3741 42.4661L46.2255 43.5707L43.2694 44.353L43.0999 47.4062L41.4424 44.8365L38.4863 45.6188L40.418 43.2484L38.7605 40.6787L41.6119 41.7834L43.5436 39.4129Z" fill="#FFFF00"/>
<path d="M48.8404 17.6674L50.9661 19.8656L53.7136 18.5231L52.2799 21.2241L54.4056 23.4223L51.3938 22.8934L49.9602 25.5944L49.5325 22.5665L46.5207 22.0377L49.2681 20.6952L48.8404 17.6674Z" fill="#FFFF00"/>
<path d="M43.6084 8.65221L43.3155 11.696L46.1199 12.9152L43.1345 13.5772L42.8417 16.6211L41.2895 13.9864L38.3041 14.6485L40.3302 12.3581L38.778 9.72347L41.5824 10.9426L43.6084 8.65221Z" fill="#FFFF00"/>
</g>
<defs>
<linearGradient id="paint0_linear_4412_85" x1="0" y1="0.799927" x2="158.533" y2="0.799925" gradientUnits="userSpaceOnUse">
<stop offset="0.365" stop-color="#EE1D26"/>
<stop offset="1" stop-color="white" stop-opacity="0"/>
</linearGradient>
<linearGradient id="paint1_linear_4412_85" x1="79.192" y1="34.3384" x2="79.192" y2="78.967" gradientUnits="userSpaceOnUse">
<stop stop-color="#FFC40D"/>
<stop offset="1" stop-color="#E39019"/>
</linearGradient>
<clipPath id="clip0_4412_85">
<rect width="229" height="90" fill="white" transform="translate(0 0.799927)"/>
</clipPath>
</defs>
</svg>
