<svg width="229" height="242" viewBox="0 0 229 242" fill="none" xmlns="http://www.w3.org/2000/svg">
<g clip-path="url(#clip0_4412_112)">
<rect width="229" height="241" transform="translate(0 0.799927)" fill="white"/>
<path d="M110.971 16.3079C116.385 13.1503 137.255 21.1299 137.255 21.1299L200.478 16.3079C200.478 16.3079 225.48 19.0058 228.56 23.596C231.639 28.1862 217.556 50.253 217.556 50.253C218.491 63.64 221.301 43.3454 217.556 113.662C218.41 121.07 218.463 125.224 217.556 132.632C183.662 166.597 163.57 172.268 139.338 152.951C135.762 146.401 128.957 139.515 119.075 132.632C116.915 124.974 115.143 121.033 119.075 109.556C117.467 81.44 118.282 69.7167 119.075 47.2505C119.075 47.2505 105.19 19.6788 110.971 16.3079Z" fill="#212121"/>
<path d="M169.851 32.1313C145.62 32.1313 125.978 51.7741 125.978 76.0046C125.978 78.9081 126.26 81.7456 126.798 84.4914L140.793 94.6249L142.64 110.897H164.732C167.578 114.51 171.889 114.79 174.595 110.897H197.136L199.115 94.6249L212.904 84.4914C213.442 81.7456 213.724 78.9081 213.724 76.0046C213.724 51.7741 194.081 32.1313 169.851 32.1313Z" fill="#DF0043"/>
<path d="M133.539 76.6164C133.539 77.6413 133.582 78.6562 133.665 79.6596L147.746 90.3584L149.073 103.28H165.769C168.293 106.455 172.132 106.401 174.495 103.28H191.067L191.99 90.3584L206.044 79.5698C206.123 78.5957 206.163 77.6107 206.163 76.6164C206.163 73.3334 205.727 70.1522 204.911 67.1275L181.203 91.7428L203.943 64.0864C203.379 60.2151 201.523 56.7124 198.053 53.7405L177.791 89.3478L195.562 50.9747C193.187 47.6189 189.957 45.3159 186.043 44.1055L174.11 88.1853L182.928 42.7307C180.145 40.6201 176.213 39.8849 171.535 40.3429L170.106 87.604L168.167 40.3429C163.349 39.8464 159.498 40.6811 156.774 42.7307L165.843 88.1853L153.291 44.2918C148.941 45.5348 145.797 47.7655 144.14 50.9747L162.485 89.3478L141.649 53.7405C138.624 56.7306 136.645 60.2218 135.759 64.0864L159.45 91.7428L134.701 67.4675C133.943 70.3903 133.539 73.4562 133.539 76.6164Z" fill="#FFE669"/>
<path d="M163.198 65.9162C164.176 66.4692 164.866 67.4577 164.263 68.4632C163.921 69.0329 164.522 69.7693 164.065 70.2511C162.645 71.7475 162.987 72.9946 160.395 75.5798C160.091 75.8839 159.139 76.4623 158.723 76.5735C158.121 76.7347 157.606 76.268 157.014 76.0708C154.149 75.1156 152.223 76.5735 150.212 73.9595C149.685 73.2748 149.725 72.4612 150.212 71.7475C152.474 68.4297 154.501 67.374 156.059 66.4692C158.477 65.0654 160.885 64.6089 163.198 65.9162Z" fill="#212121"/>
<path d="M182.349 76.0167C182.16 74.8861 177.481 72.0021 177.481 68.6362C177.481 67.7725 180.025 66.0767 182.349 66.2023C185.254 66.3593 186.353 68.5577 186.981 70.4421C187.609 72.3265 187.923 75.4671 188.473 76.0167C189.022 76.5663 189.886 78.2151 189.337 79.0787C188.897 79.7697 185.892 79.9036 184.226 79.0787C184.174 78.3983 182.537 77.1473 182.349 76.0167Z" fill="#212121"/>
<rect x="8.13086" y="120.276" width="150.126" height="84.8724" fill="#212121"/>
<rect x="8.13086" y="120.276" width="150.126" height="43.6907" fill="#EFE8E8"/>
<path d="M24.9042 148.23C24.9042 149.125 24.7942 149.931 24.5742 150.65C24.3542 151.369 24.0242 151.981 23.5842 152.487C23.1515 152.993 22.6088 153.382 21.9562 153.653C21.3035 153.924 20.5445 154.06 19.6792 154.06C19.2832 154.06 18.8945 154.034 18.5132 153.983C18.1318 153.939 17.7322 153.866 17.3142 153.763C17.3362 153.47 17.3618 153.176 17.3912 152.883C17.4205 152.59 17.4462 152.296 17.4682 152.003C17.4902 151.842 17.5525 151.713 17.6552 151.618C17.7652 151.515 17.9192 151.464 18.1172 151.464C18.2418 151.464 18.4032 151.49 18.6012 151.541C18.8065 151.592 19.0632 151.618 19.3712 151.618C19.7892 151.618 20.1595 151.559 20.4822 151.442C20.8048 151.317 21.0725 151.123 21.2852 150.859C21.5052 150.595 21.6702 150.254 21.7802 149.836C21.8902 149.411 21.9452 148.897 21.9452 148.296V137.978H24.9042V148.23ZM34.6983 151.497C35.2703 151.497 35.78 151.402 36.2273 151.211C36.682 151.02 37.0633 150.753 37.3713 150.408C37.6793 150.063 37.914 149.645 38.0753 149.154C38.244 148.663 38.3283 148.113 38.3283 147.504V137.978H41.2873V147.504C41.2873 148.45 41.1333 149.326 40.8253 150.133C40.5246 150.932 40.0883 151.625 39.5163 152.212C38.9516 152.791 38.2623 153.246 37.4483 153.576C36.6343 153.899 35.7176 154.06 34.6983 154.06C33.6716 154.06 32.7513 153.899 31.9373 153.576C31.1233 153.246 30.4303 152.791 29.8583 152.212C29.2936 151.625 28.8573 150.932 28.5493 150.133C28.2486 149.326 28.0983 148.45 28.0983 147.504V137.978H31.0573V147.493C31.0573 148.102 31.138 148.652 31.2993 149.143C31.468 149.634 31.7063 150.056 32.0143 150.408C32.3296 150.753 32.711 151.02 33.1583 151.211C33.613 151.402 34.1263 151.497 34.6983 151.497ZM53.0944 140.871C53.0064 141.025 52.9111 141.139 52.8084 141.212C52.7131 141.278 52.5921 141.311 52.4454 141.311C52.2914 141.311 52.1228 141.256 51.9394 141.146C51.7634 141.029 51.5508 140.9 51.3014 140.761C51.0521 140.622 50.7588 140.497 50.4214 140.387C50.0914 140.27 49.6991 140.211 49.2444 140.211C48.8338 140.211 48.4744 140.262 48.1664 140.365C47.8584 140.46 47.5981 140.596 47.3854 140.772C47.1801 140.948 47.0261 141.161 46.9234 141.41C46.8208 141.652 46.7694 141.92 46.7694 142.213C46.7694 142.587 46.8721 142.899 47.0774 143.148C47.2901 143.397 47.5688 143.61 47.9134 143.786C48.2581 143.962 48.6504 144.12 49.0904 144.259C49.5304 144.398 49.9814 144.549 50.4434 144.71C50.9054 144.864 51.3564 145.047 51.7964 145.26C52.2364 145.465 52.6288 145.729 52.9734 146.052C53.3181 146.367 53.5931 146.756 53.7984 147.218C54.0111 147.68 54.1174 148.241 54.1174 148.901C54.1174 149.62 53.9928 150.294 53.7434 150.925C53.5014 151.548 53.1421 152.095 52.6654 152.564C52.1961 153.026 51.6204 153.393 50.9384 153.664C50.2564 153.928 49.4754 154.06 48.5954 154.06C48.0894 154.06 47.5908 154.009 47.0994 153.906C46.6081 153.811 46.1351 153.671 45.6804 153.488C45.2331 153.305 44.8114 153.085 44.4154 152.828C44.0194 152.571 43.6674 152.285 43.3594 151.97L44.2284 150.551C44.3018 150.448 44.3971 150.364 44.5144 150.298C44.6318 150.225 44.7564 150.188 44.8884 150.188C45.0718 150.188 45.2698 150.265 45.4824 150.419C45.6951 150.566 45.9481 150.731 46.2414 150.914C46.5348 151.097 46.8758 151.266 47.2644 151.42C47.6604 151.567 48.1334 151.64 48.6834 151.64C49.5268 151.64 50.1794 151.442 50.6414 151.046C51.1034 150.643 51.3344 150.067 51.3344 149.319C51.3344 148.901 51.2281 148.56 51.0154 148.296C50.8101 148.032 50.5351 147.812 50.1904 147.636C49.8458 147.453 49.4534 147.299 49.0134 147.174C48.5734 147.049 48.1261 146.914 47.6714 146.767C47.2168 146.62 46.7694 146.444 46.3294 146.239C45.8894 146.034 45.4971 145.766 45.1524 145.436C44.8078 145.106 44.5291 144.695 44.3164 144.204C44.1111 143.705 44.0084 143.093 44.0084 142.367C44.0084 141.788 44.1221 141.223 44.3494 140.673C44.5841 140.123 44.9214 139.635 45.3614 139.21C45.8014 138.785 46.3441 138.444 46.9894 138.187C47.6348 137.93 48.3754 137.802 49.2114 137.802C50.1501 137.802 51.0154 137.949 51.8074 138.242C52.5994 138.535 53.2741 138.946 53.8314 139.474L53.0944 140.871ZM67.8086 140.409H63.0126V153.884H60.0536V140.409H55.2576V137.978H67.8086V140.409ZM72.86 153.884H69.89V137.978H72.86V153.884ZM87.3443 150.133C87.5056 150.133 87.6486 150.195 87.7733 150.32L88.9393 151.585C88.294 152.384 87.4983 152.997 86.5523 153.422C85.6136 153.847 84.4843 154.06 83.1643 154.06C81.9836 154.06 80.9203 153.858 79.9743 153.455C79.0356 153.052 78.2326 152.491 77.5653 151.772C76.898 151.053 76.3846 150.195 76.0253 149.198C75.6733 148.201 75.4973 147.112 75.4973 145.931C75.4973 144.736 75.688 143.643 76.0693 142.653C76.4506 141.656 76.986 140.798 77.6753 140.079C78.372 139.36 79.2006 138.803 80.1613 138.407C81.122 138.004 82.1853 137.802 83.3513 137.802C84.51 137.802 85.5366 137.993 86.4313 138.374C87.3333 138.755 88.0996 139.254 88.7303 139.87L87.7403 141.245C87.6816 141.333 87.6046 141.41 87.5093 141.476C87.4213 141.542 87.2966 141.575 87.1353 141.575C87.0253 141.575 86.9116 141.546 86.7943 141.487C86.677 141.421 86.5486 141.344 86.4093 141.256C86.27 141.161 86.1086 141.058 85.9253 140.948C85.742 140.838 85.5293 140.739 85.2873 140.651C85.0453 140.556 84.763 140.479 84.4403 140.42C84.125 140.354 83.7583 140.321 83.3403 140.321C82.629 140.321 81.9763 140.449 81.3823 140.706C80.7956 140.955 80.2896 141.322 79.8643 141.806C79.439 142.283 79.109 142.869 78.8743 143.566C78.6396 144.255 78.5223 145.044 78.5223 145.931C78.5223 146.826 78.647 147.621 78.8963 148.318C79.153 149.015 79.4976 149.601 79.9303 150.078C80.363 150.555 80.8726 150.921 81.4593 151.178C82.046 151.427 82.6766 151.552 83.3513 151.552C83.7546 151.552 84.1176 151.53 84.4403 151.486C84.7703 151.442 85.071 151.372 85.3423 151.277C85.621 151.182 85.8813 151.061 86.1233 150.914C86.3726 150.76 86.6183 150.573 86.8603 150.353C86.9336 150.287 87.0106 150.236 87.0913 150.199C87.172 150.155 87.2563 150.133 87.3443 150.133ZM93.9362 140.332V144.743H99.5022V147.02H93.9362V151.519H100.998V153.884H90.9662V137.978H100.998V140.332H93.9362ZM111.94 140.332V145.04H117.902V147.405H111.94V153.884H108.97V137.978H119.002V140.332H111.94ZM136.45 145.931C136.45 147.097 136.255 148.179 135.867 149.176C135.485 150.166 134.943 151.024 134.239 151.75C133.535 152.476 132.688 153.044 131.698 153.455C130.708 153.858 129.608 154.06 128.398 154.06C127.195 154.06 126.099 153.858 125.109 153.455C124.119 153.044 123.268 152.476 122.557 151.75C121.853 151.024 121.306 150.166 120.918 149.176C120.529 148.179 120.335 147.097 120.335 145.931C120.335 144.765 120.529 143.687 120.918 142.697C121.306 141.7 121.853 140.838 122.557 140.112C123.268 139.386 124.119 138.821 125.109 138.418C126.099 138.007 127.195 137.802 128.398 137.802C129.204 137.802 129.963 137.897 130.675 138.088C131.386 138.271 132.039 138.535 132.633 138.88C133.227 139.217 133.758 139.632 134.228 140.123C134.704 140.607 135.108 141.15 135.438 141.751C135.768 142.352 136.017 143.005 136.186 143.709C136.362 144.413 136.45 145.154 136.45 145.931ZM133.425 145.931C133.425 145.058 133.307 144.277 133.073 143.588C132.838 142.891 132.504 142.301 132.072 141.817C131.639 141.333 131.111 140.963 130.488 140.706C129.872 140.449 129.175 140.321 128.398 140.321C127.62 140.321 126.92 140.449 126.297 140.706C125.681 140.963 125.153 141.333 124.713 141.817C124.28 142.301 123.946 142.891 123.712 143.588C123.477 144.277 123.36 145.058 123.36 145.931C123.36 146.804 123.477 147.588 123.712 148.285C123.946 148.974 124.28 149.561 124.713 150.045C125.153 150.522 125.681 150.888 126.297 151.145C126.92 151.402 127.62 151.53 128.398 151.53C129.175 151.53 129.872 151.402 130.488 151.145C131.111 150.888 131.639 150.522 132.072 150.045C132.504 149.561 132.838 148.974 133.073 148.285C133.307 147.588 133.425 146.804 133.425 145.931ZM143.855 145.546C144.413 145.546 144.897 145.476 145.307 145.337C145.725 145.198 146.066 145.007 146.33 144.765C146.602 144.516 146.803 144.222 146.935 143.885C147.067 143.548 147.133 143.177 147.133 142.774C147.133 141.967 146.866 141.348 146.33 140.915C145.802 140.482 144.992 140.266 143.899 140.266H142.007V145.546H143.855ZM151.467 153.884H148.794C148.288 153.884 147.922 153.686 147.694 153.29L144.35 148.197C144.226 148.006 144.086 147.871 143.932 147.79C143.786 147.709 143.566 147.669 143.272 147.669H142.007V153.884H139.048V137.978H143.899C144.977 137.978 145.901 138.092 146.671 138.319C147.449 138.539 148.083 138.851 148.574 139.254C149.073 139.657 149.44 140.141 149.674 140.706C149.909 141.263 150.026 141.879 150.026 142.554C150.026 143.089 149.946 143.595 149.784 144.072C149.63 144.549 149.403 144.981 149.102 145.37C148.809 145.759 148.442 146.1 148.002 146.393C147.57 146.686 147.075 146.917 146.517 147.086C146.708 147.196 146.884 147.328 147.045 147.482C147.207 147.629 147.353 147.805 147.485 148.01L151.467 153.884Z" fill="black"/>
<path d="M38.3538 176.989H33.5578V190.464H30.5988V176.989H25.8028V174.558H38.3538V176.989ZM53.8442 174.558V190.464H50.8742V183.512H43.4052V190.464H40.4352V174.558H43.4052V181.4H50.8742V174.558H53.8442ZM60.3564 176.912V181.323H65.9224V183.6H60.3564V188.099H67.4184V190.464H57.3864V174.558H67.4184V176.912H60.3564ZM90.5593 182.511C90.5593 183.677 90.365 184.758 89.9763 185.756C89.595 186.746 89.0523 187.604 88.3483 188.33C87.6443 189.056 86.7973 189.624 85.8073 190.035C84.8173 190.438 83.7173 190.64 82.5073 190.64C81.3046 190.64 80.2083 190.438 79.2183 190.035C78.2283 189.624 77.3776 189.056 76.6663 188.33C75.9623 187.604 75.416 186.746 75.0273 185.756C74.6386 184.758 74.4443 183.677 74.4443 182.511C74.4443 181.345 74.6386 180.267 75.0273 179.277C75.416 178.279 75.9623 177.418 76.6663 176.692C77.3776 175.966 78.2283 175.401 79.2183 174.998C80.2083 174.587 81.3046 174.382 82.5073 174.382C83.314 174.382 84.073 174.477 84.7843 174.668C85.4956 174.851 86.1483 175.115 86.7423 175.46C87.3363 175.797 87.868 176.211 88.3373 176.703C88.814 177.187 89.2173 177.729 89.5473 178.331C89.8773 178.932 90.1266 179.585 90.2953 180.289C90.4713 180.993 90.5593 181.733 90.5593 182.511ZM87.5343 182.511C87.5343 181.638 87.417 180.857 87.1823 180.168C86.9476 179.471 86.614 178.881 86.1813 178.397C85.7486 177.913 85.2206 177.542 84.5973 177.286C83.9813 177.029 83.2846 176.901 82.5073 176.901C81.73 176.901 81.0296 177.029 80.4063 177.286C79.7903 177.542 79.2623 177.913 78.8223 178.397C78.3896 178.881 78.056 179.471 77.8213 180.168C77.5866 180.857 77.4693 181.638 77.4693 182.511C77.4693 183.383 77.5866 184.168 77.8213 184.865C78.056 185.554 78.3896 186.141 78.8223 186.625C79.2623 187.101 79.7903 187.468 80.4063 187.725C81.0296 187.981 81.73 188.11 82.5073 188.11C83.2846 188.11 83.9813 187.981 84.5973 187.725C85.2206 187.468 85.7486 187.101 86.1813 186.625C86.614 186.141 86.9476 185.554 87.1823 184.865C87.417 184.168 87.5343 183.383 87.5343 182.511ZM106.27 182.489V188.924C105.463 189.518 104.602 189.954 103.685 190.233C102.776 190.504 101.8 190.64 100.759 190.64C99.4609 190.64 98.2839 190.438 97.2279 190.035C96.1792 189.631 95.2809 189.07 94.5329 188.352C93.7922 187.633 93.2202 186.775 92.8169 185.778C92.4135 184.78 92.2119 183.691 92.2119 182.511C92.2119 181.315 92.4062 180.219 92.7949 179.222C93.1835 178.224 93.7335 177.366 94.4449 176.648C95.1635 175.929 96.0325 175.372 97.0519 174.976C98.0712 174.58 99.2152 174.382 100.484 174.382C101.129 174.382 101.731 174.433 102.288 174.536C102.853 174.638 103.373 174.781 103.85 174.965C104.334 175.141 104.774 175.357 105.17 175.614C105.566 175.87 105.929 176.153 106.259 176.461L105.412 177.803C105.28 178.015 105.108 178.147 104.895 178.199C104.682 178.243 104.451 178.188 104.202 178.034C103.96 177.894 103.718 177.755 103.476 177.616C103.234 177.476 102.963 177.355 102.662 177.253C102.369 177.15 102.035 177.066 101.661 177C101.294 176.934 100.869 176.901 100.385 176.901C99.6002 176.901 98.8889 177.033 98.2509 177.297C97.6202 177.561 97.0812 177.938 96.6339 178.43C96.1865 178.921 95.8419 179.511 95.5999 180.201C95.3579 180.89 95.2369 181.66 95.2369 182.511C95.2369 183.42 95.3652 184.234 95.6219 184.953C95.8859 185.664 96.2525 186.269 96.7219 186.768C97.1985 187.259 97.7705 187.637 98.4379 187.901C99.1052 188.157 99.8495 188.286 100.671 188.286C101.258 188.286 101.782 188.223 102.244 188.099C102.706 187.974 103.157 187.805 103.597 187.593V184.711H101.595C101.404 184.711 101.254 184.659 101.144 184.557C101.041 184.447 100.99 184.315 100.99 184.161V182.489H106.27ZM124.29 182.511C124.29 183.677 124.095 184.758 123.707 185.756C123.325 186.746 122.783 187.604 122.079 188.33C121.375 189.056 120.528 189.624 119.538 190.035C118.548 190.438 117.448 190.64 116.238 190.64C115.035 190.64 113.939 190.438 112.949 190.035C111.959 189.624 111.108 189.056 110.397 188.33C109.693 187.604 109.146 186.746 108.758 185.756C108.369 184.758 108.175 183.677 108.175 182.511C108.175 181.345 108.369 180.267 108.758 179.277C109.146 178.279 109.693 177.418 110.397 176.692C111.108 175.966 111.959 175.401 112.949 174.998C113.939 174.587 115.035 174.382 116.238 174.382C117.044 174.382 117.803 174.477 118.515 174.668C119.226 174.851 119.879 175.115 120.473 175.46C121.067 175.797 121.598 176.211 122.068 176.703C122.544 177.187 122.948 177.729 123.278 178.331C123.608 178.932 123.857 179.585 124.026 180.289C124.202 180.993 124.29 181.733 124.29 182.511ZM121.265 182.511C121.265 181.638 121.147 180.857 120.913 180.168C120.678 179.471 120.344 178.881 119.912 178.397C119.479 177.913 118.951 177.542 118.328 177.286C117.712 177.029 117.015 176.901 116.238 176.901C115.46 176.901 114.76 177.029 114.137 177.286C113.521 177.542 112.993 177.913 112.553 178.397C112.12 178.881 111.786 179.471 111.552 180.168C111.317 180.857 111.2 181.638 111.2 182.511C111.2 183.383 111.317 184.168 111.552 184.865C111.786 185.554 112.12 186.141 112.553 186.625C112.993 187.101 113.521 187.468 114.137 187.725C114.76 187.981 115.46 188.11 116.238 188.11C117.015 188.11 117.712 187.981 118.328 187.725C118.951 187.468 119.479 187.101 119.912 186.625C120.344 186.141 120.678 185.554 120.913 184.865C121.147 184.168 121.265 183.383 121.265 182.511ZM140.297 174.558V190.464H138.779C138.545 190.464 138.347 190.427 138.185 190.354C138.031 190.273 137.881 190.141 137.734 189.958L129.429 179.354C129.473 179.838 129.495 180.285 129.495 180.696V190.464H126.888V174.558H128.439C128.564 174.558 128.67 174.565 128.758 174.58C128.854 174.587 128.934 174.609 129 174.646C129.074 174.675 129.143 174.723 129.209 174.789C129.275 174.847 129.349 174.928 129.429 175.031L137.767 185.679C137.745 185.422 137.727 185.169 137.712 184.92C137.698 184.67 137.69 184.439 137.69 184.227V174.558H140.297ZM146.81 190.464H143.84V174.558H146.81V190.464Z" fill="#F7ECEC"/>
<rect x="78.818" y="198.109" width="10.2365" height="43.6907" fill="#D0C4C4"/>
<circle cx="83.9362" cy="203.369" r="1.77949" fill="#212121"/>
</g>
<defs>
<clipPath id="clip0_4412_112">
<rect width="229" height="241" fill="white" transform="translate(0 0.799927)"/>
</clipPath>
</defs>
</svg>
