<svg width="229" height="244" viewBox="0 0 229 244" fill="none" xmlns="http://www.w3.org/2000/svg">
<g clip-path="url(#clip0_4412_66)">
<rect width="229" height="243" transform="translate(0 0.799927)" fill="white"/>
<mask id="mask0_4412_66" style="mask-type:alpha" maskUnits="userSpaceOnUse" x="1" y="0" width="227" height="238">
<path d="M149.197 0.836173L109.678 1.59119C108.042 1.62245 106.514 2.41453 105.545 3.73345C104.901 4.61069 104 5.26611 102.967 5.60909L89.236 10.1685C87.4257 10.7696 85.4408 10.5222 83.8333 9.49526C82.2419 8.47848 80.2795 8.22543 78.4821 8.80523L66.8549 12.5559C63.6107 13.6025 60.9975 16.0336 59.7199 19.194C59.288 20.2623 58.6981 21.2597 57.9699 22.1528L56.6989 23.7116C55.8029 24.8105 55.0672 26.0309 54.5138 27.3363L53.0404 30.812C52.7542 31.4873 52.4188 32.1406 52.037 32.7667L50.1437 35.8717C49.4515 37.007 48.9137 38.2295 48.5447 39.5069L46.9347 45.0801C46.5768 46.3188 45.6325 47.3021 44.4094 47.7098L44.0735 47.8218C42.6741 48.2882 41.7302 49.5978 41.7302 51.0729C41.7302 52.1674 41.2074 53.1961 40.3233 53.8412L38.3441 55.2855C37.169 56.143 35.7414 56.6051 34.2867 56.6051C30.623 56.6051 27.5827 59.4987 27.4386 63.1596C27.3751 64.7741 26.7406 66.3137 25.6481 67.5042L22.313 71.1387C22.015 71.4634 21.7478 71.8152 21.5149 72.1895L20.6839 73.525C20.1832 74.3298 19.3735 74.8933 18.4449 75.0832C17.4127 75.2943 16.3406 75.0225 15.5337 74.3451L13.9156 72.9866C12.8615 72.1017 11.5603 71.5631 10.1891 71.4442C8.9208 71.3343 7.64745 71.5882 6.51836 72.1763L4.39622 73.2816C2.62155 74.2059 1.50842 76.0407 1.50842 78.0417C1.50842 79.5861 2.17374 81.0556 3.33427 82.0746L4.38642 82.9985L5.87752 84.409C6.59953 85.092 7.50351 85.5518 8.48069 85.7331L12.0391 86.3934C12.9941 86.5706 13.6075 87.5096 13.3862 88.4553C13.1808 89.3329 12.327 89.8983 11.4389 89.745L10.2221 89.5351C9.41163 89.3952 8.57918 89.5928 7.91801 90.082L7.21181 90.6046C5.92037 91.5602 5.15857 93.0715 5.15857 94.6781V102.035C5.15857 103.713 5.70021 105.345 6.70286 106.689L7.35966 107.57C7.93588 108.343 8.24716 109.281 8.24716 110.245V110.499C8.24716 111.415 8.57815 112.299 9.1791 112.99L9.59369 113.466C10.4819 114.487 11.9468 114.779 13.159 114.179C13.976 113.774 14.5622 113.016 14.7495 112.124L15.5673 108.228C15.6652 107.761 16.1699 107.506 16.6041 107.702L21.3478 109.852C22.679 110.455 24.17 110.61 25.5967 110.293L27.1486 109.948C27.5051 109.869 27.8773 109.902 28.2139 110.044C29.1587 110.442 29.5652 111.559 29.097 112.471L28.5163 113.602C28.013 114.582 27.0037 115.198 25.9019 115.198H23.5712C23.0599 115.198 22.5503 115.256 22.0521 115.371L20.4579 115.739C18.9797 116.08 17.7022 117.005 16.9159 118.302L16.6174 118.795C16.0655 119.705 15.1863 120.37 14.16 120.653C12.9778 120.979 11.7119 120.769 10.6992 120.077L9.39875 119.189C8.18828 118.362 6.6003 118.341 5.36859 119.136C4.32855 119.807 3.70025 120.96 3.70025 122.198V124.689C3.70025 126.868 4.56579 128.957 6.10645 130.498L7.29172 131.683C8.38937 132.781 9.26861 134.077 9.88274 135.503L11.8251 140.012C12.0599 140.557 12.7535 140.722 13.2087 140.341L16.0163 137.992C17.3614 136.866 19.1473 136.418 20.8645 136.774C23.063 137.23 24.7934 138.927 25.2927 141.116L25.6311 142.6C25.8907 143.739 26.3931 144.808 27.1039 145.734L29.2143 148.484C29.7128 149.133 30.1293 149.842 30.4545 150.593L32.2245 154.682C32.9369 156.328 32.4766 158.247 31.0949 159.39C30.3649 159.994 29.871 160.836 29.6998 161.768L29.5965 162.331C29.1722 164.641 30.2329 166.97 32.2536 168.167L37.9636 171.548L45.3583 176.478C46.5851 177.295 48.0883 177.588 49.5321 177.289L49.6542 177.264C50.3678 177.116 51.1051 177.128 51.8136 177.298L52.1472 177.378C53.159 177.62 54.2253 177.468 55.1288 176.952L58.1909 175.202C59.5511 174.425 61.2436 175.407 61.2436 176.974C61.2436 177.477 61.0574 177.963 60.7209 178.337L59.3931 179.815C58.9268 180.334 58.7353 181.044 58.8773 181.727C59.0542 182.578 59.7175 183.245 60.5681 183.426L61.3576 183.594C62.271 183.788 63.0658 184.346 63.5583 185.14L64.6899 186.963C65.1567 187.715 65.9158 188.238 66.7845 188.407L68.3726 188.716C69.1297 188.863 69.6415 189.574 69.541 190.339C69.4872 190.747 69.2632 191.114 68.9241 191.349L66.163 193.258C65.1406 193.965 64.3433 194.951 63.8664 196.099L63.4962 196.991C63.3028 197.456 63.2354 197.964 63.3007 198.464L63.4175 199.359C63.476 199.806 63.2948 200.252 62.9405 200.532C62.1761 201.135 62.3368 202.337 63.2328 202.718L68.9847 205.167L88.4451 211.283L101.789 216.288L110.686 221.014L126.254 231.022L137.059 237.45C137.474 237.697 138.007 237.612 138.324 237.247L142.744 232.177C143.413 231.409 144.003 230.574 144.503 229.687L147.194 224.915C147.716 223.987 148.048 222.964 148.169 221.906C148.379 220.071 149.22 218.366 150.548 217.081L151.696 215.971C152.926 214.781 154.388 213.858 155.991 213.26L156.132 213.207C157.256 212.787 158.318 212.216 159.287 211.508L159.697 211.209C161.139 210.157 162.381 208.856 163.365 207.368L165.425 204.252C166.363 202.834 167.536 201.585 168.892 200.56L176.709 194.652C177.574 193.998 178.507 193.44 179.492 192.988L181.484 192.072C183.8 191.009 185.806 189.373 187.314 187.319L192.907 179.7C194.017 178.189 195.4 176.898 196.985 175.897L197.147 175.794C200.641 173.587 203.052 170.018 203.797 165.952L204.128 159.586C204.297 156.336 205.519 153.229 207.608 150.734L209.073 148.986C211.035 146.643 213.934 145.29 216.989 145.29H217.159C218.682 145.29 220.183 144.929 221.539 144.235L221.919 144.041C223.04 143.468 224.007 142.634 224.739 141.609C225.845 140.061 226.353 138.165 226.168 136.271L225.96 134.144C225.788 132.382 225.963 130.604 226.474 128.909L227.139 126.704C227.373 125.929 227.492 125.124 227.492 124.314V122.836C227.492 121.404 226.877 120.041 225.805 119.093L225.641 118.948C224.744 118.155 223.566 117.755 222.371 117.837C220.964 117.934 219.686 118.688 218.921 119.873L215.606 125.007C215.078 125.826 214.429 126.561 213.683 127.189L211.715 128.843C209.826 130.432 207.159 130.704 204.988 129.53L204.673 129.359C203.493 128.721 202.111 128.57 200.822 128.938L200.625 128.995C199.701 129.259 198.885 129.811 198.297 130.572L196.937 132.33C196.653 132.698 196.176 132.86 195.726 132.741C195.218 132.606 194.865 132.147 194.865 131.622V130.924C194.865 130.4 195.064 129.895 195.422 129.513L197.383 127.417C198.756 125.95 199.618 124.079 199.843 122.083L200.121 119.607C200.262 118.349 200.6 117.121 201.122 115.968L201.149 115.91C202.24 113.5 204.104 111.523 206.444 110.29L207.507 109.73C208.494 109.21 209.342 108.461 209.979 107.545C211.444 105.441 211.635 102.703 210.477 100.416L209.126 97.7491C208.767 97.0402 208.308 96.3868 207.762 95.8094C206.698 94.6839 205.972 93.2814 205.668 91.7625L204.452 85.6783C204.254 84.6883 204.198 83.6752 204.285 82.6694L204.519 79.9787C204.701 77.8827 203.759 75.847 202.043 74.6298L201.651 74.3522C201.066 73.9371 200.383 73.682 199.669 73.612L197.736 73.4225C196.722 73.3231 195.949 72.4708 195.949 71.4524C195.949 71.298 195.931 71.1441 195.895 70.9939L195.406 68.9379C195.298 68.4828 195.273 68.0119 195.332 67.5479L195.393 67.0724C195.46 66.5532 195.357 66.0263 195.1 65.5704C194.516 64.5352 194.768 63.2295 195.694 62.4853L196.533 61.8115C197.406 61.1103 197.914 60.0508 197.914 58.9308V57.9781C197.914 56.7238 197.499 55.5047 196.734 54.511L194.855 52.0723C194.237 51.269 193.432 50.6284 192.51 50.2059L192.163 50.0472C191.114 49.5663 190.257 48.7467 189.73 47.7201C189.388 47.0532 188.904 46.4692 188.312 46.0089L187.841 45.6425C186.712 44.7644 186.051 43.4143 186.051 41.984C186.051 41.0377 185.762 40.1141 185.221 39.3373L183.489 36.8467C182.952 36.0756 182.496 35.2519 182.126 34.3885L181.253 32.3517C180.676 31.0059 179.691 29.8751 178.438 29.1186C177.052 28.2823 175.999 26.9912 175.459 25.4654L174.867 23.7946C174.236 22.0145 173.193 20.4093 171.822 19.1106L165.084 12.7269C163.864 11.5714 162.871 10.1978 162.157 8.67702C160.442 5.02418 157.178 2.3338 153.265 1.34726L152.934 1.26381C151.713 0.955926 150.456 0.812116 149.197 0.836173Z" fill="#D9D9D9"/>
<path d="M57.7535 186.209H57.3198C56.5176 186.209 55.7742 185.789 55.3615 185.101C55.1069 184.676 54.7213 184.346 54.2627 184.16L53.6054 183.893C53.0174 183.654 52.3848 183.545 51.7507 183.573L34.4978 184.338C32.8951 184.41 31.3361 184.883 29.9648 185.716C29.007 186.385 29.2687 187.868 30.3976 188.169L40.4274 190.844C40.7676 190.935 41.0995 191.054 41.4194 191.201L49.3303 194.838C50.8929 195.556 52.21 196.718 53.1179 198.178L54.1925 199.907C54.6911 200.709 55.479 201.289 56.3931 201.527L57.1841 201.732C57.5291 201.822 57.8948 201.785 58.2145 201.627C58.7849 201.346 59.1129 200.733 59.0304 200.102L58.8266 198.546C58.7135 197.682 58.9105 196.807 59.3825 196.075L60.7493 193.956C61.0765 193.449 61.3155 192.89 61.4565 192.303L61.5387 191.96C61.8854 190.517 61.5239 188.995 60.5652 187.861L60.0821 187.29C59.5027 186.605 58.6509 186.209 57.7535 186.209Z" fill="#D9D9D9"/>
</mask>
<g mask="url(#mask0_4412_66)">
<rect x="-0.15387" y="-0.643005" width="229.165" height="80.0101" fill="#47BD5C"/>
<rect x="-0.153809" y="79.3671" width="229.165" height="80.0101" fill="#EDF1F8"/>
<rect x="-0.153809" y="159.377" width="229.165" height="80.0101" fill="#0073C6"/>
</g>
<g opacity="0.7">
<path d="M154.724 73.3851L114.5 69.6606L74.2768 73.3851L58.7287 83.2976L73.1632 92.5545L114.5 96.4769L155.837 92.5545L170.272 83.2976L154.724 73.3851Z" fill="#D6F3FF"/>
<path d="M114.5 185.908L123.924 166.223L114.5 133.641L105.077 166.223L114.5 185.908Z" fill="#83DAFF"/>
<path d="M123.924 166.223L114.5 185.908L149.825 154.833L173.414 126.236L123.924 166.223Z" fill="#64D0FF"/>
<path d="M114.5 185.908L105.077 166.223L55.5862 126.236L79.1758 154.833L114.5 185.908Z" fill="#64D0FF"/>
<path d="M55.5862 126.236L36.166 116.996L57.6709 135.914L79.1758 154.833L55.5862 126.236Z" fill="#93DFFF"/>
<path d="M84.2192 132.036L67.3109 126.236H55.5862L105.077 166.223L84.2192 132.036Z" fill="#75D6FF"/>
<path d="M93.4755 130.185L84.2192 132.036L105.077 166.223L114.5 133.641L93.4755 130.185Z" fill="#93DFFF"/>
<path d="M144.781 132.036L135.525 130.185L114.5 133.641L123.924 166.223L144.781 132.036Z" fill="#93DFFF"/>
<path d="M161.69 126.236L144.781 132.036L123.924 166.223L173.414 126.236H161.69Z" fill="#75D6FF"/>
<path d="M192.834 116.996L183.124 121.616L173.414 126.236L149.825 154.833L192.834 116.996Z" fill="#93DFFF"/>
<path d="M47.4473 100.147L36.166 116.996L53.0804 120.168L47.4473 100.147Z" fill="#A1E3FF"/>
<path d="M85.9308 107.497L53.0804 120.168L67.3109 126.236L82.8616 125.372L85.9308 107.497Z" fill="#B0E6FE"/>
<path d="M114.5 128.21L85.9308 107.497L82.8616 125.372L93.4755 130.185L114.5 128.21Z" fill="#A1E3FF"/>
<path d="M143.07 107.497L114.5 128.21L135.525 130.185L146.139 125.372L143.07 107.497Z" fill="#B0E6FE"/>
<path d="M175.92 120.168L143.07 107.497L146.139 125.372L161.69 126.236L175.92 120.168Z" fill="#A1E3FF"/>
<path d="M192.834 116.996L181.553 100.147L175.92 120.168L192.834 116.996Z" fill="#B0E6FE"/>
<path d="M192.834 116.996L199.71 110.948L181.553 100.147L192.834 116.996Z" fill="#A1E3FF"/>
<path d="M199.71 110.948V103.596L182.193 86.0932L199.71 110.948Z" fill="#A1E3FF"/>
<path d="M29.2909 103.596V110.948L46.8077 86.0932L29.2909 103.596Z" fill="#A1E3FF"/>
<path d="M29.2909 110.948L36.166 116.996L47.4473 100.147L29.2909 110.948Z" fill="#B0E6FE"/>
<path d="M73.1632 92.5545L47.4473 100.147L53.0804 120.168L85.9308 107.497L73.1632 92.5545Z" fill="#CDF0FF"/>
<path d="M58.7287 83.2976L46.8077 86.0932L29.2909 110.948L47.4473 100.147L58.7287 83.2976Z" fill="#CDF0FF"/>
<path d="M143.07 107.497L114.5 96.4769L85.9308 107.497L114.5 128.21L143.07 107.497Z" fill="#CDF0FF"/>
<path d="M181.553 100.147L155.837 92.5545L143.07 107.497L175.92 120.168L181.553 100.147Z" fill="#CDF0FF"/>
<path d="M182.193 86.0932L170.272 83.2976L181.553 100.147L199.71 110.948L182.193 86.0932Z" fill="#CDF0FF"/>
<path d="M74.2768 73.3851L60.5423 79.7392L46.8077 86.0932L58.7287 83.2976L74.2768 73.3851Z" fill="#B1E8FF"/>
<path d="M73.1632 92.5545L58.7287 83.2976L47.4473 100.147L73.1632 92.5545Z" fill="#E8F8FF"/>
<path d="M114.5 96.4769L73.1632 92.5545L85.9308 107.497L114.5 96.4769Z" fill="#E8F8FF"/>
<path d="M155.837 92.5545L114.5 96.4769L143.07 107.497L155.837 92.5545Z" fill="#E8F8FF"/>
<path d="M170.272 83.2976L155.837 92.5545L181.553 100.147L170.272 83.2976Z" fill="#E8F8FF"/>
<path d="M182.193 86.0932L154.724 73.3851L170.272 83.2976L182.193 86.0932Z" fill="#B1E8FF"/>
<path d="M53.0804 120.168L36.166 116.996L55.5862 126.236H67.3109L53.0804 120.168Z" fill="#82D9FF"/>
<path d="M93.4755 130.185L82.8616 125.372L67.3109 126.236L84.2192 132.036L93.4755 130.185Z" fill="#82D9FF"/>
<path d="M135.525 130.185L114.5 128.21L93.4755 130.185L114.5 133.641L135.525 130.185Z" fill="#82D9FF"/>
<path d="M146.139 125.372L135.525 130.185L144.781 132.036L161.69 126.236L146.139 125.372Z" fill="#82D9FF"/>
<path d="M192.834 116.996L175.92 120.168L161.69 126.236H173.414L183.124 121.616L192.834 116.996Z" fill="#82D9FF"/>
</g>
<path fill-rule="evenodd" clip-rule="evenodd" d="M66.1419 42.0664C62.6139 42.0664 59.7538 44.9265 59.7538 48.4546C59.7538 49.5547 60.0319 50.5899 60.5216 51.4937L60.8581 52.0459L66.1419 60.7172L71.4258 52.0459L71.7622 51.4937C72.252 50.5899 72.5301 49.5547 72.5301 48.4546C72.5301 44.9265 69.67 42.0664 66.1419 42.0664ZM66.1419 50.7214C67.4124 50.7214 68.4424 49.6914 68.4424 48.4209C68.4424 47.1504 67.4124 46.1205 66.1419 46.1205C64.8714 46.1205 63.8415 47.1504 63.8415 48.4209C63.8415 49.6914 64.8714 50.7214 66.1419 50.7214Z" fill="#99DEFD"/>
<path d="M82.2948 51.9898C82.2348 52.0948 82.1698 52.1723 82.0998 52.2223C82.0348 52.2673 81.9523 52.2898 81.8523 52.2898C81.7473 52.2898 81.6323 52.2523 81.5073 52.1773C81.3873 52.0973 81.2423 52.0098 81.0723 51.9148C80.9023 51.8198 80.7023 51.7348 80.4723 51.6598C80.2473 51.5798 79.9798 51.5398 79.6698 51.5398C79.3898 51.5397 79.1448 51.5747 78.9348 51.6447C78.7248 51.7097 78.5473 51.8022 78.4023 51.9222C78.2623 52.0422 78.1573 52.1872 78.0873 52.3572C78.0173 52.5222 77.9823 52.7047 77.9823 52.9047C77.9823 53.1597 78.0523 53.3722 78.1923 53.5422C78.3373 53.7122 78.5273 53.8572 78.7623 53.9772C78.9973 54.0972 79.2648 54.2047 79.5648 54.2997C79.8648 54.3948 80.1723 54.4973 80.4873 54.6073C80.8023 54.7123 81.1098 54.8373 81.4098 54.9823C81.7098 55.1223 81.9773 55.3023 82.2123 55.5223C82.4473 55.7373 82.6348 56.0023 82.7748 56.3173C82.9198 56.6323 82.9923 57.0148 82.9923 57.4648C82.9923 57.9548 82.9073 58.4148 82.7373 58.8448C82.5723 59.2698 82.3273 59.6423 82.0023 59.9623C81.6823 60.2773 81.2898 60.5273 80.8248 60.7123C80.3598 60.8923 79.8273 60.9823 79.2273 60.9822C78.8823 60.9822 78.5423 60.9472 78.2073 60.8772C77.8723 60.8122 77.5498 60.7172 77.2398 60.5922C76.9348 60.4672 76.6473 60.3172 76.3773 60.1422C76.1073 59.9672 75.8673 59.7722 75.6573 59.5572L76.2498 58.5897C76.2998 58.5197 76.3648 58.4622 76.4448 58.4172C76.5248 58.3672 76.6098 58.3422 76.6998 58.3422C76.8248 58.3422 76.9598 58.3947 77.1048 58.4997C77.2498 58.5997 77.4223 58.7122 77.6223 58.8372C77.8223 58.9622 78.0548 59.0772 78.3198 59.1822C78.5898 59.2822 78.9123 59.3322 79.2873 59.3322C79.8623 59.3323 80.3073 59.1973 80.6223 58.9273C80.9373 58.6523 81.0948 58.2598 81.0948 57.7498C81.0948 57.4648 81.0223 57.2323 80.8773 57.0523C80.7373 56.8723 80.5498 56.7223 80.3148 56.6023C80.0798 56.4773 79.8123 56.3723 79.5123 56.2873C79.2123 56.2022 78.9073 56.1097 78.5973 56.0097C78.2873 55.9097 77.9823 55.7897 77.6823 55.6497C77.3823 55.5097 77.1148 55.3272 76.8798 55.1022C76.6448 54.8772 76.4548 54.5972 76.3098 54.2622C76.1698 53.9222 76.0998 53.5047 76.0998 53.0097C76.0998 52.6147 76.1773 52.2297 76.3323 51.8547C76.4923 51.4797 76.7223 51.1472 77.0223 50.8572C77.3223 50.5672 77.6923 50.3347 78.1323 50.1597C78.5723 49.9847 79.0773 49.8972 79.6473 49.8973C80.2873 49.8973 80.8773 49.9973 81.4173 50.1973C81.9573 50.3973 82.4173 50.6773 82.7973 51.0373L82.2948 51.9898ZM86.7772 60.8623L84.7522 60.8623L84.7522 50.0173L86.7772 50.0173L86.7772 60.8623ZM91.2304 51.6223L91.2304 54.6298L95.0254 54.6298L95.0254 56.1823L91.2304 56.1823L91.2304 59.2498L96.0454 59.2498L96.0454 60.8623L89.2054 60.8623L89.2054 50.0173L96.0454 50.0173L96.0454 51.6223L91.2304 51.6223ZM101.111 55.1773C101.491 55.1773 101.821 55.1298 102.101 55.0348C102.386 54.9398 102.618 54.8098 102.798 54.6448C102.983 54.4748 103.121 54.2748 103.211 54.0448C103.301 53.8148 103.346 53.5623 103.346 53.2873C103.346 52.7373 103.163 52.3148 102.798 52.0198C102.438 51.7248 101.886 51.5773 101.141 51.5773L99.8508 51.5773L99.8508 55.1773L101.111 55.1773ZM106.301 60.8623L104.478 60.8623C104.133 60.8623 103.883 60.7273 103.728 60.4573L101.448 56.9848C101.363 56.8548 101.268 56.7623 101.163 56.7073C101.063 56.6523 100.913 56.6248 100.713 56.6248L99.8508 56.6248L99.8508 60.8623L97.8333 60.8623L97.8333 50.0173L101.141 50.0173C101.876 50.0173 102.506 50.0948 103.031 50.2498C103.561 50.3998 103.993 50.6123 104.328 50.8873C104.668 51.1623 104.918 51.4923 105.078 51.8773C105.238 52.2573 105.318 52.6773 105.318 53.1373C105.318 53.5023 105.263 53.8473 105.153 54.1723C105.048 54.4973 104.893 54.7923 104.688 55.0573C104.488 55.3223 104.238 55.5548 103.938 55.7548C103.643 55.9548 103.306 56.1123 102.926 56.2273C103.056 56.3023 103.176 56.3923 103.286 56.4973C103.396 56.5973 103.496 56.7173 103.586 56.8573L106.301 60.8623ZM110.749 55.1773C111.129 55.1773 111.459 55.1298 111.739 55.0348C112.024 54.9398 112.257 54.8098 112.437 54.6448C112.622 54.4748 112.759 54.2748 112.849 54.0448C112.939 53.8148 112.984 53.5623 112.984 53.2873C112.984 52.7373 112.802 52.3148 112.437 52.0198C112.077 51.7248 111.524 51.5773 110.779 51.5773L109.489 51.5773L109.489 55.1773L110.749 55.1773ZM115.939 60.8623L114.117 60.8623C113.772 60.8623 113.522 60.7273 113.367 60.4573L111.087 56.9848C111.002 56.8548 110.907 56.7623 110.802 56.7073C110.702 56.6523 110.552 56.6248 110.352 56.6248L109.489 56.6248L109.489 60.8623L107.472 60.8623L107.472 50.0173L110.779 50.0173C111.514 50.0173 112.144 50.0948 112.669 50.2498C113.199 50.3998 113.632 50.6123 113.967 50.8873C114.307 51.1623 114.557 51.4923 114.717 51.8773C114.877 52.2573 114.957 52.6773 114.957 53.1373C114.957 53.5023 114.902 53.8473 114.792 54.1723C114.687 54.4973 114.532 54.7923 114.327 55.0573C114.127 55.3223 113.877 55.5548 113.577 55.7548C113.282 55.9548 112.944 56.1123 112.564 56.2273C112.694 56.3023 112.814 56.3923 112.924 56.4973C113.034 56.5973 113.134 56.7173 113.224 56.8573L115.939 60.8623ZM122.841 56.7673L121.521 53.1598C121.456 52.9998 121.388 52.8098 121.318 52.5898C121.248 52.3698 121.178 52.1323 121.108 51.8773C121.043 52.1323 120.976 52.3723 120.906 52.5973C120.836 52.8173 120.768 53.0098 120.703 53.1748L119.391 56.7673L122.841 56.7673ZM126.403 60.8623L124.843 60.8623C124.668 60.8623 124.526 60.8198 124.416 60.7348C124.306 60.6448 124.223 60.5348 124.168 60.4048L123.358 58.1923L118.866 58.1923L118.056 60.4048C118.016 60.5198 117.938 60.6248 117.823 60.7198C117.708 60.8148 117.566 60.8623 117.396 60.8623L115.821 60.8623L120.088 50.0173L122.143 50.0173L126.403 60.8623ZM137.028 59.1973L137.028 60.8623L130.675 60.8623L130.675 50.0173L132.693 50.0173L132.693 59.1973L137.028 59.1973ZM140.493 51.6223L140.493 54.6298L144.288 54.6299L144.288 56.1824L140.493 56.1823L140.493 59.2498L145.308 59.2499L145.308 60.8624L138.468 60.8623L138.468 50.0173L145.308 50.0174L145.308 51.6224L140.493 51.6223ZM157.204 55.4399C157.204 56.2349 157.072 56.9724 156.807 57.6524C156.547 58.3274 156.177 58.9124 155.697 59.4074C155.217 59.9024 154.639 60.2899 153.964 60.5699C153.289 60.8449 152.539 60.9824 151.714 60.9824C150.894 60.9824 150.147 60.8449 149.472 60.5699C148.797 60.2899 148.217 59.9024 147.732 59.4074C147.252 58.9124 146.879 58.3274 146.614 57.6524C146.349 56.9724 146.217 56.2349 146.217 55.4399C146.217 54.6449 146.349 53.9099 146.614 53.2349C146.879 52.5549 147.252 51.9674 147.732 51.4724C148.217 50.9774 148.797 50.5924 149.472 50.3174C150.147 50.0374 150.894 49.8974 151.714 49.8974C152.264 49.8974 152.782 49.9624 153.267 50.0924C153.752 50.2174 154.197 50.3974 154.602 50.6324C155.007 50.8624 155.369 51.1449 155.689 51.4799C156.014 51.8099 156.289 52.1799 156.514 52.5899C156.739 52.9999 156.909 53.4449 157.024 53.9249C157.144 54.4049 157.204 54.9099 157.204 55.4399ZM155.142 55.4399C155.142 54.8449 155.062 54.3124 154.902 53.8424C154.742 53.3674 154.514 52.9649 154.219 52.6349C153.924 52.3049 153.564 52.0524 153.139 51.8774C152.719 51.7024 152.244 51.6149 151.714 51.6149C151.184 51.6149 150.707 51.7024 150.282 51.8774C149.862 52.0524 149.502 52.3049 149.202 52.6349C148.907 52.9649 148.679 53.3674 148.519 53.8424C148.359 54.3124 148.279 54.8449 148.279 55.4399C148.279 56.0349 148.359 56.5699 148.519 57.0449C148.679 57.5149 148.907 57.9149 149.202 58.2449C149.502 58.5699 149.862 58.8199 150.282 58.9949C150.707 59.1699 151.184 59.2574 151.714 59.2574C152.244 59.2574 152.719 59.1699 153.139 58.9949C153.564 58.8199 153.924 58.5699 154.219 58.2449C154.514 57.9149 154.742 57.5149 154.902 57.0449C155.062 56.5699 155.142 56.0349 155.142 55.4399ZM168.118 50.0174L168.118 60.8624L167.083 60.8624C166.923 60.8624 166.788 60.8374 166.678 60.7874C166.573 60.7324 166.471 60.6424 166.371 60.5174L160.708 53.2874C160.738 53.6174 160.753 53.9224 160.753 54.2024L160.753 60.8624L158.976 60.8624L158.976 50.0174L160.033 50.0174C160.118 50.0174 160.191 50.0224 160.251 50.0324C160.316 50.0374 160.371 50.0524 160.416 50.0774C160.466 50.0974 160.513 50.1299 160.558 50.1749C160.603 50.2149 160.653 50.2699 160.708 50.3399L166.393 57.5999C166.378 57.4249 166.366 57.2524 166.356 57.0824C166.346 56.9124 166.341 56.7549 166.341 56.6099L166.341 50.0174L168.118 50.0174ZM172.558 51.6224L172.558 54.6299L176.353 54.6299L176.353 56.1824L172.558 56.1824L172.558 59.2499L177.373 59.2499L177.373 60.8624L170.533 60.8624L170.533 50.0174L177.373 50.0174L177.373 51.6224L172.558 51.6224Z" fill="#212121"/>
<path d="M194.29 55.8901L178.376 87.2699L196.606 80.7251L178.708 88.8806L193.846 97.9778L177.866 90.4578L181.044 109.868L176.343 91.0776L160.786 118.63L175.031 90.3769L156.8 96.9217L174.698 88.7662L159.56 79.669L175.541 87.189L172.363 67.7788L177.064 86.5692L194.29 55.8901Z" fill="url(#paint0_radial_4412_66)"/>
</g>
<defs>
<radialGradient id="paint0_radial_4412_66" cx="0" cy="0" r="1" gradientUnits="userSpaceOnUse" gradientTransform="translate(176.634 88.6202) rotate(117.61) scale(36.8422 17.8334)">
<stop stop-color="white"/>
<stop offset="0.0484234" stop-color="white"/>
<stop offset="0.854167" stop-color="white" stop-opacity="0"/>
</radialGradient>
<clipPath id="clip0_4412_66">
<rect width="229" height="243" fill="white" transform="translate(0 0.799927)"/>
</clipPath>
</defs>
</svg>
