<svg width="228" height="158" viewBox="0 0 228 158" fill="none" xmlns="http://www.w3.org/2000/svg">
<path fill-rule="evenodd" clip-rule="evenodd" d="M169.664 105.514C169.664 134.099 132.202 157.306 86.0602 157.306C85.8591 157.306 85.9522 115.816 85.9522 115.816L86.06 115.749L86.0602 115.816C132.202 115.816 169.664 112.506 169.664 83.9204V105.514Z" fill="#2C2C2C"/>
<path fill-rule="evenodd" clip-rule="evenodd" d="M2.45654 105.514C2.45654 134.099 39.918 157.306 86.0601 157.306C86.2611 157.306 86.1681 115.816 86.1681 115.816L86.0602 115.749L86.0601 115.816C39.918 115.816 2.45654 112.506 2.45654 83.9204V105.514Z" fill="#981541"/>
<path fill-rule="evenodd" clip-rule="evenodd" d="M134.942 41.9099C155.969 51.3209 169.663 66.6378 169.663 83.9204C169.663 112.506 132.202 135.713 86.0597 135.713L85.9517 83.8484L134.942 41.9099H134.942ZM134.854 41.8706C134.854 41.8706 134.818 41.8547 134.852 41.8698L134.928 41.9037L134.854 41.8706Z" fill="#484848"/>
<path fill-rule="evenodd" clip-rule="evenodd" d="M86.0602 135.713C86.0602 135.713 85.9882 135.713 85.9522 135.713C39.8597 135.677 2.45654 112.484 2.45654 83.9206C2.45654 55.3354 39.918 32.1279 86.0601 32.1279C104.2 32.1279 120.999 35.7149 134.707 41.8053C134.786 41.8401 134.942 41.9101 134.942 41.9101L85.9521 83.8486L86.0601 135.713L86.0602 135.713Z" fill="#AE5472"/>
<path d="M27.806 70.4203C28.6395 70.4203 29.4501 70.506 30.2378 70.6775C31.0256 70.849 31.7193 71.1078 32.3189 71.454C32.9186 71.8001 33.4014 72.2304 33.7673 72.7448C34.1333 73.2593 34.3162 73.8594 34.3162 74.5454C34.3162 75.1868 34.1282 75.7886 33.7521 76.3507C33.376 76.9127 32.8475 77.4034 32.1665 77.8225C31.4855 78.2417 30.6647 78.572 29.7042 78.8133C28.7437 79.0546 27.6841 79.1753 26.5254 79.1753C25.3463 79.1753 24.2892 79.0578 23.3541 78.8228C22.419 78.5878 21.6212 78.2592 20.9605 77.8368C20.2998 77.4145 19.7941 76.9064 19.4435 76.3126C19.0928 75.7187 18.9175 75.0598 18.9175 74.3358C18.9175 73.688 19.1284 73.0227 19.5502 72.3399C19.972 71.6572 20.6251 70.9474 21.5093 70.2107L26.7693 65.7999C26.9523 65.6474 27.2191 65.5172 27.5697 65.4093C27.9204 65.3013 28.3244 65.2473 28.7818 65.2473H32.136L25.5953 70.2488C25.453 70.3568 25.3184 70.4584 25.1913 70.5537C25.0643 70.6489 24.9398 70.7474 24.8178 70.849C25.2447 70.7156 25.7046 70.6108 26.1976 70.5346C26.6905 70.4584 27.2267 70.4203 27.806 70.4203ZM22.5308 74.6978C22.5308 75.0788 22.6147 75.4266 22.7824 75.741C22.9501 76.0553 23.1991 76.3237 23.5295 76.546C23.8598 76.7682 24.2689 76.9413 24.7568 77.0652C25.2447 77.189 25.8088 77.2509 26.4491 77.2509C27.0488 77.2509 27.6002 77.1874 28.1033 77.0604C28.6065 76.9334 29.0385 76.7555 29.3993 76.5269C29.7601 76.2983 30.0422 76.0299 30.2454 75.7219C30.4487 75.4139 30.5504 75.0789 30.5504 74.7168C30.5504 74.3231 30.4538 73.969 30.2607 73.6546C30.0676 73.3402 29.7931 73.0735 29.4374 72.8544C29.0817 72.6353 28.6548 72.4685 28.1567 72.3542C27.6587 72.2399 27.1098 72.1827 26.5101 72.1827C25.9104 72.1827 25.3666 72.2463 24.8788 72.3733C24.3909 72.5003 23.9716 72.6765 23.621 72.902C23.2703 73.1275 23.0009 73.3942 22.8129 73.7022C22.6249 74.0103 22.5308 74.3421 22.5308 74.6978Z" fill="white"/>
<path d="M52.2001 72.1354C52.2001 73.3358 51.9943 74.379 51.5826 75.2649C51.171 76.1509 50.6018 76.8829 49.875 77.4608C49.1483 78.0388 48.2894 78.4691 47.2984 78.7517C46.3074 79.0343 45.2376 79.1756 44.0891 79.1756C42.9405 79.1756 41.8758 79.0343 40.895 78.7517C39.9142 78.4691 39.0629 78.0388 38.3412 77.4608C37.6196 76.8829 37.0555 76.1509 36.6489 75.2649C36.2423 74.379 36.0391 73.3358 36.0391 72.1354C36.0391 70.9287 36.2423 69.884 36.6489 69.0012C37.0555 68.1184 37.6196 67.388 38.3412 66.81C39.0629 66.2321 39.9142 65.8018 40.895 65.5192C41.8758 65.2365 42.9405 65.0952 44.0891 65.0952C45.2376 65.0952 46.3074 65.2365 47.2984 65.5192C48.2894 65.8018 49.1483 66.2321 49.875 66.81C50.6018 67.388 51.171 68.1184 51.5826 69.0012C51.9943 69.884 52.2001 70.9287 52.2001 72.1354ZM48.3123 72.1354C48.3123 71.1383 48.1954 70.3127 47.9616 69.6585C47.7279 69.0043 47.4153 68.4835 47.024 68.0961C46.6327 67.7087 46.1829 67.4372 45.6747 67.2816C45.1665 67.126 44.638 67.0482 44.0891 67.0482C43.5504 67.0482 43.0295 67.126 42.5263 67.2816C42.0232 67.4372 41.5785 67.7087 41.1923 68.0961C40.8061 68.4835 40.4986 69.0043 40.2699 69.6585C40.0412 70.3127 39.9269 71.1383 39.9269 72.1354C39.9269 73.1326 40.0412 73.9582 40.2699 74.6124C40.4986 75.2665 40.8061 75.7873 41.1923 76.1747C41.5785 76.5622 42.0232 76.8337 42.5263 76.9893C43.0295 77.1449 43.5504 77.2227 44.0891 77.2227C44.638 77.2227 45.1665 77.1449 45.6747 76.9893C46.1829 76.8337 46.6327 76.5622 47.024 76.1747C47.4153 75.7873 47.7279 75.2665 47.9616 74.6124C48.1954 73.9582 48.3123 73.1326 48.3123 72.1354Z" fill="white"/>
<path d="M64.0771 68.582C64.0771 69.1028 63.9373 69.5727 63.6578 69.9919C63.3783 70.4111 63.0048 70.7683 62.5372 71.0637C62.0697 71.359 61.5259 71.5861 60.9059 71.7448C60.2858 71.9036 59.6404 71.983 58.9696 71.983C58.2378 71.983 57.5618 71.9036 56.9418 71.7448C56.3218 71.5861 55.7857 71.359 55.3334 71.0637C54.881 70.7683 54.5278 70.4111 54.2737 69.9919C54.0196 69.5727 53.8926 69.1028 53.8926 68.582C53.8926 68.0485 54.0196 67.5658 54.2737 67.1339C54.5278 66.702 54.881 66.3369 55.3334 66.0383C55.7857 65.7398 56.3218 65.5096 56.9418 65.3477C57.5618 65.1857 58.2378 65.1047 58.9696 65.1047C59.7014 65.1047 60.3799 65.1857 61.005 65.3477C61.6301 65.5096 62.1713 65.7398 62.6287 66.0383C63.0861 66.3369 63.4418 66.702 63.6959 67.1339C63.95 67.5658 64.0771 68.0485 64.0771 68.582ZM61.165 68.582C61.165 68.2136 61.1091 67.9056 60.9973 67.6579C60.8855 67.4102 60.7305 67.2101 60.5323 67.0577C60.3341 66.9053 60.1003 66.7957 59.831 66.729C59.5617 66.6624 59.2745 66.629 58.9696 66.629C58.6647 66.629 58.3801 66.6624 58.1158 66.729C57.8515 66.7957 57.6228 66.9053 57.4297 67.0577C57.2366 67.2101 57.0867 67.4102 56.9799 67.6579C56.8732 67.9056 56.8199 68.2136 56.8199 68.582C56.8199 68.9376 56.8732 69.2345 56.9799 69.4727C57.0867 69.7109 57.2366 69.903 57.4297 70.0491C57.6228 70.1952 57.8515 70.3 58.1158 70.3635C58.3801 70.427 58.6647 70.4587 58.9696 70.4587C59.2745 70.4587 59.5617 70.427 59.831 70.3635C60.1003 70.3 60.3341 70.1952 60.5323 70.0491C60.7305 69.903 60.8855 69.7109 60.9973 69.4727C61.1091 69.2345 61.165 68.9376 61.165 68.582ZM71.4106 65.6192C71.5325 65.5239 71.685 65.4382 71.868 65.362C72.0509 65.2857 72.305 65.2476 72.6303 65.2476H75.3594L58.9849 78.6708C58.8629 78.7724 58.7079 78.8565 58.5199 78.9232C58.3318 78.9899 58.1057 79.0233 57.8414 79.0233H55.0361L71.4106 65.6193L71.4106 65.6192ZM76.5181 75.7842C76.5181 76.3049 76.3783 76.7749 76.0988 77.1941C75.8193 77.6133 75.4457 77.9705 74.9782 78.2659C74.5106 78.5612 73.9669 78.7898 73.3468 78.9518C72.7268 79.1137 72.0814 79.1947 71.4106 79.1947C70.6787 79.1947 70.0028 79.1137 69.3828 78.9518C68.7628 78.7898 68.2266 78.5612 67.7743 78.2659C67.322 77.9705 66.9688 77.6133 66.7147 77.1941C66.4606 76.7749 66.3336 76.3049 66.3336 75.7842C66.3336 75.2507 66.4606 74.768 66.7147 74.3361C66.9688 73.9042 67.322 73.539 67.7743 73.2405C68.2266 72.942 68.7628 72.7118 69.3828 72.5498C70.0028 72.3879 70.6787 72.3069 71.4106 72.3069C72.1424 72.3069 72.8208 72.3879 73.4459 72.5498C74.071 72.7118 74.6123 72.942 75.0697 73.2405C75.5271 73.539 75.8828 73.9042 76.1369 74.3361C76.391 74.768 76.5181 75.2507 76.5181 75.7842ZM73.6213 75.7842C73.6213 75.4158 73.5628 75.1078 73.4459 74.8601C73.3291 74.6124 73.1715 74.4123 72.9733 74.2599C72.7751 74.1075 72.5413 73.9979 72.272 73.9312C72.0026 73.8645 71.7155 73.8312 71.4106 73.8312C71.1056 73.8312 70.821 73.8645 70.5568 73.9312C70.2925 73.9979 70.0664 74.1075 69.8783 74.2599C69.6903 74.4123 69.5404 74.6124 69.4285 74.8601C69.3167 75.1078 69.2608 75.4158 69.2608 75.7842C69.2608 76.1398 69.3167 76.4383 69.4285 76.6797C69.5404 76.921 69.6903 77.1147 69.8783 77.2608C70.0664 77.4069 70.2925 77.5117 70.5568 77.5752C70.821 77.6387 71.1056 77.6704 71.4106 77.6704C71.7155 77.6704 72.0026 77.6387 72.272 77.5752C72.5413 77.5117 72.7751 77.4069 72.9733 77.2608C73.1715 77.1147 73.3291 76.921 73.4459 76.6797C73.5628 76.4383 73.6213 76.1398 73.6213 75.7842Z" fill="white"/>
<path d="M110.857 97.3819H113.632V98.7442C113.632 98.8712 113.566 98.9808 113.434 99.0729C113.302 99.1649 113.108 99.211 112.854 99.211H110.857V102.574H107.564V99.211H98.2636C98.0095 99.211 97.7859 99.1618 97.5928 99.0633C97.3996 98.9649 97.2777 98.8426 97.2269 98.6966L96.8457 97.5057L107.289 88.7888H110.857V97.3819L110.857 97.3819ZM107.564 92.8758C107.564 92.6725 107.574 92.4534 107.594 92.2184C107.615 91.9834 107.65 91.7389 107.701 91.4849L100.855 97.3819H107.564V92.8758Z" fill="white"/>
<path d="M131.105 95.686C131.105 96.8863 130.899 97.9295 130.487 98.8155C130.076 99.7015 129.507 100.433 128.78 101.011C128.053 101.589 127.194 102.02 126.203 102.302C125.212 102.585 124.142 102.726 122.994 102.726C121.845 102.726 120.781 102.585 119.8 102.302C118.819 102.02 117.968 101.589 117.246 101.011C116.524 100.433 115.96 99.7015 115.554 98.8155C115.147 97.9295 114.944 96.8863 114.944 95.686C114.944 94.4793 115.147 93.4345 115.554 92.5517C115.96 91.6689 116.524 90.9385 117.246 90.3606C117.968 89.7826 118.819 89.3523 119.8 89.0697C120.781 88.7871 121.845 88.6458 122.994 88.6458C124.142 88.6458 125.212 88.7871 126.203 89.0697C127.194 89.3523 128.053 89.7826 128.78 90.3606C129.507 90.9385 130.076 91.6689 130.487 92.5517C130.899 93.4345 131.105 94.4793 131.105 95.686ZM127.217 95.686C127.217 94.6888 127.1 93.8632 126.866 93.209C126.633 92.5549 126.32 92.0341 125.929 91.6466C125.537 91.2592 125.088 90.9877 124.579 90.8321C124.071 90.6765 123.543 90.5987 122.994 90.5987C122.455 90.5987 121.934 90.6765 121.431 90.8321C120.928 90.9877 120.483 91.2592 120.097 91.6466C119.711 92.0341 119.403 92.5549 119.175 93.209C118.946 93.8632 118.832 94.6888 118.832 95.686C118.832 96.6831 118.946 97.5087 119.175 98.1629C119.403 98.8171 119.711 99.3379 120.097 99.7253C120.483 100.113 120.928 100.384 121.431 100.54C121.934 100.695 122.455 100.773 122.994 100.773C123.543 100.773 124.071 100.695 124.579 100.54C125.088 100.384 125.537 100.113 125.929 99.7253C126.32 99.3379 126.633 98.8171 126.866 98.1629C127.1 97.5087 127.217 96.6831 127.217 95.686Z" fill="white"/>
<path d="M142.981 92.1328C142.981 92.6535 142.841 93.1235 142.562 93.5427C142.282 93.9619 141.909 94.3191 141.441 94.6145C140.973 94.9098 140.43 95.1368 139.81 95.2956C139.19 95.4544 138.544 95.5338 137.873 95.5338C137.142 95.5338 136.466 95.4544 135.846 95.2956C135.226 95.1368 134.689 94.9098 134.237 94.6145C133.785 94.3191 133.432 93.9619 133.178 93.5427C132.923 93.1235 132.796 92.6535 132.796 92.1328C132.796 91.5993 132.923 91.1166 133.178 90.6847C133.432 90.2528 133.785 89.8876 134.237 89.5891C134.689 89.2906 135.226 89.0604 135.846 88.8984C136.466 88.7365 137.142 88.6555 137.873 88.6555C138.605 88.6555 139.284 88.7365 139.909 88.8984C140.534 89.0604 141.075 89.2906 141.532 89.5891C141.99 89.8876 142.346 90.2528 142.6 90.6847C142.854 91.1166 142.981 91.5993 142.981 92.1328ZM140.069 92.1328C140.069 91.7644 140.013 91.4564 139.901 91.2087C139.789 90.961 139.634 90.7609 139.436 90.6085C139.238 90.4561 139.004 90.3465 138.735 90.2798C138.465 90.2131 138.178 90.1798 137.873 90.1798C137.568 90.1798 137.284 90.2131 137.02 90.2798C136.755 90.3465 136.527 90.4561 136.334 90.6085C136.14 90.7609 135.99 90.961 135.884 91.2087C135.777 91.4564 135.724 91.7644 135.724 92.1328C135.724 92.4884 135.777 92.7853 135.884 93.0235C135.99 93.2617 136.14 93.4538 136.334 93.5999C136.527 93.7459 136.755 93.8507 137.02 93.9142C137.284 93.9778 137.568 94.0095 137.873 94.0095C138.178 94.0095 138.465 93.9778 138.735 93.9142C139.004 93.8507 139.238 93.7459 139.436 93.5999C139.634 93.4538 139.789 93.2617 139.901 93.0235C140.013 92.7853 140.069 92.4884 140.069 92.1328ZM150.314 89.17C150.436 89.0747 150.589 88.9889 150.772 88.9127C150.955 88.8365 151.209 88.7984 151.534 88.7984H154.263L137.889 102.222C137.767 102.323 137.612 102.407 137.424 102.474C137.236 102.541 137.01 102.574 136.745 102.574H133.94L150.314 89.17V89.17ZM155.422 99.3349C155.422 99.8557 155.282 100.326 155.003 100.745C154.723 101.164 154.35 101.521 153.882 101.817C153.414 102.112 152.871 102.341 152.251 102.503C151.631 102.665 150.985 102.745 150.314 102.745C149.583 102.745 148.907 102.665 148.287 102.503C147.667 102.341 147.13 102.112 146.678 101.817C146.226 101.521 145.873 101.164 145.619 100.745C145.364 100.326 145.237 99.8557 145.237 99.3349C145.237 98.8014 145.364 98.3188 145.619 97.8869C145.873 97.455 146.226 97.0898 146.678 96.7913C147.13 96.4928 147.667 96.2626 148.287 96.1006C148.907 95.9387 149.583 95.8577 150.314 95.8577C151.046 95.8577 151.725 95.9387 152.35 96.1006C152.975 96.2626 153.516 96.4928 153.973 96.7913C154.431 97.0898 154.787 97.455 155.041 97.8869C155.295 98.3188 155.422 98.8014 155.422 99.3349ZM152.525 99.3349C152.525 98.9666 152.467 98.6585 152.35 98.4108C152.233 98.1632 152.075 97.9631 151.877 97.8107C151.679 97.6582 151.445 97.5487 151.176 97.482C150.906 97.4153 150.619 97.382 150.314 97.382C150.009 97.382 149.725 97.4153 149.461 97.482C149.196 97.5487 148.97 97.6582 148.782 97.8107C148.594 97.9631 148.444 98.1632 148.332 98.4108C148.221 98.6585 148.165 98.9666 148.165 99.3349C148.165 99.6906 148.221 99.9891 148.332 100.23C148.444 100.472 148.594 100.665 148.782 100.812C148.97 100.958 149.196 101.062 149.461 101.126C149.725 101.189 150.009 101.221 150.314 101.221C150.619 101.221 150.906 101.189 151.176 101.126C151.445 101.062 151.679 100.958 151.877 100.812C152.075 100.665 152.233 100.472 152.35 100.23C152.467 99.9891 152.525 99.6906 152.525 99.3349Z" fill="white"/>
<path d="M189.334 39.5041C189.334 40.0501 189.248 40.5548 189.076 41.0081C188.904 41.4717 188.655 41.8631 188.34 42.2031C188.024 42.5327 187.642 42.8005 187.202 42.986C186.753 43.1714 186.265 43.2641 185.72 43.2641H183.015V35.7544H185.72C186.265 35.7544 186.753 35.8574 187.202 36.0428C187.642 36.2283 188.024 36.4961 188.34 36.8257C188.655 37.1554 188.904 37.5571 189.076 38.0104C189.248 38.474 189.334 38.9684 189.334 39.5144V39.5041ZM187.68 39.4938C187.68 39.123 187.632 38.7933 187.546 38.4946C187.46 38.1958 187.326 37.9383 187.164 37.7323C186.992 37.5262 186.791 37.3717 186.552 37.2584C186.303 37.1451 186.026 37.0833 185.72 37.0833H184.64V41.9146H185.72C186.026 41.9146 186.303 41.8631 186.552 41.7498C186.791 41.6365 186.992 41.4717 187.164 41.2656C187.326 41.0596 187.46 40.8021 187.546 40.5033C187.632 40.2046 187.68 39.875 187.68 39.4938Z" fill="#981541"/>
<path d="M191.637 37.9178V43.2642H190.155V37.9178H191.637ZM191.809 36.455C191.809 36.5786 191.79 36.6919 191.742 36.8053C191.694 36.9186 191.628 37.0216 191.542 37.104C191.455 37.1864 191.36 37.2482 191.255 37.2997C191.14 37.3512 191.025 37.3718 190.901 37.3718C190.777 37.3718 190.672 37.3512 190.566 37.2997C190.461 37.2482 190.366 37.1864 190.28 37.104C190.203 37.0216 190.136 36.9186 190.088 36.8053C190.041 36.6919 190.021 36.5786 190.021 36.455C190.021 36.3211 190.041 36.1975 190.088 36.0842C190.136 35.9708 190.203 35.8678 190.28 35.7854C190.366 35.703 190.461 35.6309 190.566 35.5897C190.672 35.5382 190.777 35.5176 190.901 35.5176C191.025 35.5176 191.14 35.5382 191.255 35.5897C191.36 35.6309 191.455 35.703 191.542 35.7854C191.628 35.8678 191.694 35.9708 191.742 36.0842C191.79 36.1975 191.809 36.3211 191.809 36.455Z" fill="#981541"/>
<path d="M195.863 39.092C195.825 39.1538 195.786 39.2053 195.738 39.2362C195.7 39.2568 195.643 39.2774 195.576 39.2774C195.509 39.2671 195.433 39.2568 195.366 39.2259C195.299 39.195 195.222 39.1538 195.136 39.1126C195.06 39.0817 194.964 39.0405 194.869 39.0096C194.763 38.9787 194.649 38.9684 194.515 38.9684C194.324 38.9684 194.18 38.9993 194.085 39.0817C193.979 39.1538 193.932 39.2671 193.932 39.401C193.932 39.504 193.96 39.5864 194.027 39.6483C194.094 39.7101 194.18 39.7719 194.295 39.8234C194.4 39.8749 194.524 39.9161 194.658 39.9573C194.792 40.0088 194.935 40.0603 195.079 40.1118C195.222 40.1633 195.366 40.2354 195.499 40.3075C195.633 40.3796 195.758 40.4724 195.872 40.5754C195.977 40.6887 196.064 40.8123 196.13 40.9668C196.197 41.1214 196.226 41.3068 196.226 41.5231C196.226 41.7909 196.178 42.0382 196.092 42.2545C196.006 42.4811 195.872 42.6769 195.691 42.8314C195.519 42.9962 195.299 43.1198 195.041 43.2125C194.782 43.3052 194.477 43.3465 194.142 43.3465C193.97 43.3465 193.807 43.3258 193.635 43.2949C193.463 43.264 193.301 43.2125 193.148 43.1507C192.985 43.0992 192.842 43.0271 192.708 42.9447C192.574 42.8623 192.459 42.7799 192.364 42.6872L192.708 42.1C192.746 42.0279 192.804 41.9764 192.861 41.9352C192.918 41.894 192.985 41.8734 193.081 41.8734C193.167 41.8734 193.243 41.894 193.31 41.9352C193.377 41.9764 193.454 42.0279 193.54 42.0691C193.616 42.1206 193.712 42.1618 193.817 42.203C193.922 42.2442 194.056 42.2648 194.218 42.2648C194.333 42.2648 194.429 42.2545 194.515 42.2339C194.591 42.203 194.658 42.1721 194.706 42.1206C194.754 42.0794 194.782 42.0279 194.811 41.9764C194.83 41.9249 194.84 41.8631 194.84 41.8012C194.84 41.6982 194.811 41.6158 194.744 41.5437C194.677 41.4716 194.582 41.4201 194.477 41.3686C194.371 41.3171 194.247 41.2656 194.104 41.2244C193.97 41.1832 193.826 41.1317 193.683 41.0801C193.54 41.0286 193.396 40.9565 193.262 40.8844C193.119 40.802 192.995 40.7093 192.89 40.5857C192.784 40.4724 192.698 40.3281 192.631 40.153C192.565 39.9779 192.526 39.7719 192.526 39.5246C192.526 39.298 192.565 39.092 192.651 38.8859C192.727 38.6799 192.851 38.4945 193.014 38.34C193.176 38.1855 193.377 38.0721 193.626 37.9794C193.874 37.8867 194.161 37.8352 194.486 37.8352C194.668 37.8352 194.84 37.8558 195.002 37.8867C195.174 37.9279 195.327 37.9691 195.48 38.0309C195.624 38.0927 195.758 38.1752 195.882 38.2576C195.997 38.34 196.102 38.4327 196.197 38.5254L195.863 39.092Z" fill="#981541"/>
<path d="M200.614 39.1846C200.566 39.2464 200.528 39.298 200.48 39.3289C200.442 39.3598 200.384 39.3804 200.308 39.3804C200.231 39.3804 200.165 39.3598 200.107 39.3186C200.05 39.2877 199.983 39.2464 199.916 39.1949C199.84 39.1537 199.753 39.1125 199.658 39.0713C199.553 39.0301 199.428 39.0095 199.285 39.0095C199.103 39.0198 198.95 39.0507 198.817 39.1228C198.683 39.1949 198.578 39.298 198.492 39.4319C198.406 39.5658 198.339 39.7306 198.3 39.9263C198.253 40.1221 198.233 40.3384 198.233 40.5856C198.233 41.0904 198.329 41.4819 198.511 41.76C198.692 42.0381 198.941 42.172 199.266 42.172C199.438 42.172 199.572 42.1514 199.677 42.0999C199.773 42.0587 199.859 42.0072 199.935 41.9454C200.002 41.8939 200.069 41.8424 200.126 41.7909C200.184 41.7394 200.26 41.7188 200.346 41.7188C200.461 41.7188 200.557 41.7703 200.614 41.863L201.044 42.4296C200.891 42.615 200.729 42.7695 200.566 42.8931C200.394 43.0065 200.222 43.0992 200.04 43.1713C199.868 43.2331 199.687 43.2846 199.514 43.3052C199.333 43.3361 199.161 43.3464 198.989 43.3464C198.683 43.3464 198.396 43.2846 198.119 43.161C197.841 43.0374 197.602 42.8622 197.392 42.6253C197.182 42.3884 197.019 42.0999 196.895 41.76C196.771 41.4097 196.713 41.0183 196.713 40.5856C196.713 40.1942 196.771 39.8336 196.876 39.504C196.981 39.164 197.134 38.8756 197.344 38.6284C197.555 38.3811 197.813 38.1957 198.119 38.0515C198.425 37.9073 198.788 37.8455 199.189 37.8455C199.581 37.8455 199.916 37.9073 200.212 38.0412C200.509 38.1751 200.767 38.3708 201.006 38.6284L200.614 39.1846Z" fill="#981541"/>
<path d="M203.893 37.8352C204.266 37.8455 204.61 37.9073 204.926 38.0309C205.231 38.1545 205.499 38.34 205.719 38.5769C205.939 38.8138 206.111 39.1023 206.235 39.4422C206.36 39.7822 206.417 40.153 206.417 40.5754C206.417 41.008 206.36 41.3892 206.235 41.7291C206.111 42.0691 205.939 42.3678 205.719 42.6048C205.499 42.8417 205.231 43.0271 204.916 43.1507C204.61 43.2846 204.266 43.3465 203.893 43.3465C203.511 43.3465 203.167 43.2846 202.861 43.1507C202.545 43.0271 202.277 42.8417 202.058 42.6048C201.828 42.3678 201.656 42.0691 201.532 41.7291C201.407 41.3892 201.35 41.008 201.35 40.5857C201.35 40.153 201.407 39.7822 201.532 39.4422C201.656 39.1023 201.828 38.8138 202.058 38.5769C202.277 38.34 202.545 38.1545 202.861 38.0309C203.167 37.9073 203.511 37.8352 203.893 37.8352ZM203.893 42.1515C204.237 42.1515 204.486 42.0176 204.648 41.76C204.811 41.5025 204.887 41.111 204.887 40.5857C204.887 40.05 204.811 39.6586 204.648 39.401C204.486 39.1435 204.237 39.0199 203.893 39.0199C203.539 39.0096 203.281 39.1435 203.119 39.401C202.956 39.6586 202.88 40.05 202.88 40.5857C202.88 41.111 202.956 41.5025 203.119 41.76C203.281 42.0176 203.539 42.1515 203.893 42.1515Z" fill="#981541"/>
<path d="M208.616 37.9175V41.3169C208.616 41.5745 208.673 41.7805 208.778 41.9247C208.893 42.0689 209.055 42.1411 209.275 42.1411C209.438 42.1411 209.591 42.0998 209.734 42.0277C209.878 41.9556 210.011 41.8629 210.145 41.729V37.9278H211.627V43.2639H210.709C210.528 43.2639 210.403 43.1712 210.346 42.9961L210.25 42.687C210.155 42.79 210.059 42.8725 209.954 42.9549C209.858 43.0373 209.744 43.1094 209.629 43.1609C209.514 43.2227 209.39 43.2639 209.256 43.2948C209.122 43.3257 208.979 43.3463 208.816 43.3463C208.549 43.3463 208.31 43.2948 208.099 43.1918C207.889 43.0888 207.707 42.9549 207.564 42.7694C207.421 42.584 207.315 42.3677 207.239 42.1205C207.172 41.8835 207.134 41.6054 207.134 41.3066V37.9278L208.616 37.9175Z" fill="#981541"/>
<path d="M212.774 43.264V37.9176L213.692 37.9279C213.788 37.9279 213.864 37.9485 213.922 37.9897C213.989 38.0309 214.027 38.103 214.055 38.1957L214.142 38.4944C214.237 38.4017 214.333 38.309 214.438 38.2266C214.543 38.1442 214.648 38.0824 214.763 38.0206C214.878 37.9691 215.011 37.9176 215.145 37.8867C215.279 37.8558 215.423 37.8455 215.585 37.8455C215.853 37.8455 216.092 37.8867 216.302 37.9897C216.512 38.0927 216.694 38.2369 216.828 38.412C216.981 38.5975 217.086 38.8138 217.153 39.061C217.229 39.3083 217.268 39.5761 217.268 39.8748V43.264H215.786V39.8645C215.786 39.607 215.728 39.401 215.614 39.2568C215.509 39.1125 215.346 39.0404 215.126 39.0404C214.964 39.0404 214.811 39.0816 214.667 39.1537C214.524 39.2258 214.39 39.3289 214.256 39.4628V43.264H212.774Z" fill="#981541"/>
<path d="M220.059 43.3466C219.82 43.3466 219.619 43.3054 219.438 43.2333C219.256 43.1612 219.103 43.0582 218.979 42.9242C218.855 42.7903 218.769 42.6255 218.702 42.4298C218.635 42.2341 218.606 42.0177 218.606 41.7808V39.02L218.185 39.0303C218.109 39.02 218.042 38.9994 217.985 38.9479C217.937 38.8964 217.908 38.814 217.908 38.711V38.0826L218.692 37.9281L218.988 36.6198C219.027 36.455 219.132 36.3726 219.314 36.3726H220.088V37.9384H221.292V39.0303H220.088V41.6778C220.088 41.8014 220.117 41.9044 220.174 41.9868C220.231 42.0692 220.308 42.1104 220.413 42.1104C220.47 42.1104 220.509 42.1001 220.547 42.0898C220.585 42.0795 220.614 42.0589 220.642 42.0486C220.671 42.028 220.7 42.0177 220.719 42.0074C220.748 41.9971 220.776 41.9868 220.805 41.9868C220.853 41.9868 220.881 41.9971 220.91 42.0177C220.939 42.0383 220.967 42.0795 220.996 42.131L221.445 42.883C221.254 43.0376 221.034 43.1509 220.795 43.2333C220.556 43.3054 220.317 43.3466 220.059 43.3466Z" fill="#981541"/>
<path d="M225.173 39.092C225.135 39.1538 225.097 39.2053 225.049 39.2362C225.011 39.2568 224.953 39.2774 224.886 39.2774C224.82 39.2671 224.743 39.2568 224.676 39.2259C224.609 39.195 224.533 39.1538 224.447 39.1126C224.37 39.0817 224.275 39.0405 224.179 39.0096C224.074 38.9787 223.959 38.9684 223.825 38.9684C223.634 38.9684 223.491 38.9993 223.395 39.0817C223.29 39.1538 223.242 39.2671 223.242 39.401C223.242 39.504 223.271 39.5864 223.338 39.6483C223.405 39.7101 223.491 39.7719 223.605 39.8234C223.711 39.8749 223.835 39.9161 223.969 39.9573C224.103 40.0088 224.246 40.0603 224.389 40.1118C224.533 40.1633 224.676 40.2354 224.81 40.3075C224.944 40.3796 225.068 40.4724 225.183 40.5754C225.288 40.6887 225.374 40.8123 225.441 40.9668C225.508 41.1214 225.537 41.3068 225.537 41.5231C225.537 41.7909 225.489 42.0382 225.403 42.2545C225.317 42.4811 225.183 42.6769 225.001 42.8314C224.829 42.9962 224.609 43.1198 224.351 43.2125C224.093 43.3052 223.787 43.3465 223.452 43.3465C223.28 43.3465 223.118 43.3258 222.946 43.2949C222.774 43.264 222.611 43.2125 222.458 43.1507C222.296 43.0992 222.152 43.0271 222.018 42.9447C221.885 42.8623 221.77 42.7799 221.674 42.6872L222.018 42.1C222.057 42.0279 222.114 41.9764 222.171 41.9352C222.229 41.894 222.296 41.8734 222.391 41.8734C222.477 41.8734 222.554 41.894 222.621 41.9352C222.688 41.9764 222.764 42.0279 222.85 42.0691C222.927 42.1206 223.022 42.1618 223.127 42.203C223.233 42.2442 223.366 42.2648 223.529 42.2648C223.644 42.2648 223.739 42.2545 223.825 42.2339C223.902 42.203 223.969 42.1721 224.017 42.1206C224.064 42.0794 224.093 42.0279 224.122 41.9764C224.141 41.9249 224.15 41.8631 224.15 41.8012C224.15 41.6982 224.122 41.6158 224.055 41.5437C223.988 41.4716 223.892 41.4201 223.787 41.3686C223.682 41.3171 223.558 41.2656 223.414 41.2244C223.28 41.1832 223.137 41.1317 222.994 41.0801C222.85 41.0286 222.707 40.9565 222.573 40.8844C222.43 40.802 222.305 40.7093 222.2 40.5857C222.095 40.4724 222.009 40.3281 221.942 40.153C221.875 39.9779 221.837 39.7719 221.837 39.5246C221.837 39.298 221.875 39.092 221.961 38.8859C222.038 38.6799 222.162 38.4945 222.324 38.34C222.487 38.1855 222.688 38.0721 222.936 37.9794C223.185 37.8867 223.472 37.8352 223.797 37.8352C223.978 37.8352 224.15 37.8558 224.313 37.8867C224.485 37.9279 224.638 37.9691 224.791 38.0309C224.934 38.0927 225.068 38.1752 225.192 38.2576C225.307 38.34 225.412 38.4327 225.508 38.5254L225.173 39.092Z" fill="#981541"/>
<path d="M185.615 45.9731C185.921 45.9731 186.198 46.0247 186.427 46.1277C186.666 46.2204 186.867 46.3543 187.03 46.5088C187.192 46.6736 187.316 46.8591 187.412 47.0651C187.508 47.2711 187.565 47.4874 187.584 47.7038L186.628 47.9098C186.609 47.9201 186.599 47.9201 186.59 47.9201C186.58 47.9201 186.561 47.9201 186.552 47.9201C186.418 47.9201 186.322 47.848 186.255 47.6935C186.179 47.5184 186.093 47.3844 185.997 47.2917C185.902 47.199 185.777 47.1475 185.615 47.1475C185.5 47.1475 185.404 47.1784 185.318 47.2196C185.242 47.2608 185.175 47.3226 185.118 47.3947C185.06 47.4668 185.012 47.5493 184.984 47.642C184.955 47.745 184.945 47.8377 184.945 47.9407C184.945 48.0334 184.955 48.1158 184.965 48.1982C184.984 48.2807 185.003 48.3734 185.041 48.4558C185.07 48.5382 185.118 48.6206 185.175 48.7133C185.232 48.806 185.309 48.8987 185.404 49.0018L187.125 50.959C187.211 50.753 187.278 50.5367 187.336 50.31C187.383 50.0937 187.422 49.8568 187.441 49.6198C187.45 49.5271 187.479 49.4447 187.527 49.3932C187.584 49.3417 187.651 49.3108 187.737 49.3108H188.674C188.674 49.8156 188.617 50.2791 188.492 50.7118C188.368 51.1444 188.186 51.5462 187.957 51.9067L189.42 53.5653H187.957C187.88 53.5653 187.823 53.5653 187.766 53.555C187.708 53.5447 187.651 53.5241 187.603 53.5035C187.555 53.4829 187.508 53.4623 187.46 53.4211C187.412 53.3798 187.364 53.3386 187.316 53.2768L187.02 52.9369C186.714 53.1635 186.38 53.3386 186.026 53.4623C185.663 53.5859 185.28 53.6477 184.879 53.6477C184.601 53.6477 184.334 53.5962 184.066 53.4932C183.798 53.3901 183.559 53.2459 183.359 53.0502C183.148 52.8648 182.976 52.6278 182.852 52.36C182.728 52.0922 182.661 51.7831 182.661 51.4432C182.661 51.2166 182.689 51.0105 182.756 50.8045C182.823 50.5985 182.919 50.413 183.033 50.2379C183.148 50.0628 183.292 49.9083 183.454 49.7641C183.617 49.6198 183.798 49.4962 183.999 49.3932C183.846 49.146 183.741 48.8987 183.674 48.6515C183.607 48.4146 183.569 48.1776 183.569 47.951C183.569 47.6832 183.617 47.4359 183.703 47.199C183.798 46.9621 183.932 46.7457 184.104 46.5706C184.276 46.3852 184.487 46.241 184.745 46.138C184.993 46.035 185.29 45.9731 185.615 45.9731ZM184.171 51.3196C184.171 51.4844 184.19 51.6286 184.238 51.7625C184.286 51.8964 184.353 52.0201 184.439 52.1128C184.525 52.2055 184.63 52.2879 184.745 52.3394C184.869 52.3909 185.003 52.4115 185.146 52.4115C185.357 52.4115 185.557 52.3909 185.739 52.3291C185.921 52.2673 186.093 52.1849 186.255 52.0716L184.659 50.2379C184.477 50.3924 184.353 50.5676 184.286 50.7427C184.209 50.9281 184.171 51.1238 184.171 51.3196Z" fill="#981541"/>
<path d="M196.456 51.6183C196.484 51.6286 196.522 51.6286 196.561 51.6492C196.599 51.6595 196.637 51.6904 196.675 51.7316L197.316 52.4527C197.039 52.8442 196.685 53.1429 196.264 53.3489C195.844 53.5447 195.337 53.6477 194.763 53.6477C194.238 53.6477 193.76 53.555 193.339 53.3592C192.918 53.1635 192.565 52.8957 192.278 52.5557C191.981 52.2158 191.762 51.8037 191.599 51.3402C191.446 50.8663 191.37 50.3615 191.37 49.8053C191.37 49.249 191.456 48.7339 191.637 48.2704C191.819 47.7965 192.068 47.3947 192.383 47.0548C192.708 46.7148 193.09 46.447 193.53 46.2616C193.98 46.0762 194.477 45.9731 195.012 45.9731C195.27 45.9731 195.519 46.004 195.748 46.0556C195.978 46.1071 196.197 46.1689 196.398 46.2616C196.599 46.344 196.781 46.447 196.953 46.5706C197.125 46.6942 197.268 46.8282 197.402 46.9724L196.857 47.7656C196.819 47.8171 196.781 47.8583 196.733 47.8995C196.685 47.9407 196.618 47.951 196.532 47.951C196.475 47.951 196.417 47.9407 196.37 47.9098C196.322 47.8892 196.264 47.8583 196.207 47.8171C196.15 47.7759 196.083 47.7347 196.016 47.6832C195.949 47.642 195.872 47.6008 195.777 47.5596C195.681 47.5184 195.566 47.4874 195.442 47.4565C195.318 47.4256 195.175 47.4153 195.002 47.4153C194.706 47.4153 194.438 47.4668 194.199 47.5802C193.96 47.6935 193.75 47.8583 193.578 48.0643C193.406 48.2704 193.263 48.5176 193.167 48.8163C193.071 49.1151 193.024 49.4447 193.024 49.8053C193.024 50.1967 193.071 50.5367 193.167 50.8354C193.263 51.1341 193.396 51.3814 193.568 51.5874C193.731 51.7934 193.932 51.948 194.152 52.051C194.371 52.1643 194.61 52.2158 194.869 52.2158C195.012 52.2158 195.146 52.2055 195.27 52.1952C195.394 52.1746 195.5 52.154 195.605 52.1128C195.71 52.0716 195.805 52.0304 195.901 51.9686C195.997 51.9067 196.092 51.8346 196.188 51.7419C196.226 51.711 196.264 51.6801 196.312 51.6595C196.36 51.6389 196.408 51.6183 196.456 51.6183Z" fill="#981541"/>
<path d="M198.052 53.5654V48.2189L198.932 48.2292C199.008 48.2292 199.066 48.2292 199.113 48.2498C199.161 48.2601 199.209 48.2807 199.238 48.3116C199.276 48.3426 199.295 48.3735 199.314 48.425C199.333 48.4765 199.352 48.528 199.362 48.6001L199.448 49.0946C199.62 48.7958 199.83 48.5589 200.06 48.3838C200.28 48.2086 200.528 48.1262 200.796 48.1262C201.025 48.1262 201.207 48.1777 201.341 48.291L201.15 49.4654C201.14 49.5478 201.111 49.589 201.073 49.6199C201.035 49.6508 200.987 49.6714 200.92 49.6714C200.863 49.6611 200.806 49.6611 200.729 49.6405C200.653 49.6302 200.567 49.6199 200.452 49.6199C200.06 49.6199 199.754 49.8466 199.534 50.2895V53.5654H198.052Z" fill="#981541"/>
<path d="M204.123 48.1365C204.448 48.1468 204.754 48.1983 205.022 48.3013C205.299 48.4146 205.528 48.5794 205.729 48.7855C205.92 48.9915 206.073 49.249 206.188 49.5581C206.293 49.8568 206.351 50.2071 206.351 50.5882C206.351 50.7118 206.341 50.8045 206.332 50.8869C206.332 50.9591 206.312 51.0209 206.284 51.0621C206.255 51.1033 206.226 51.1342 206.179 51.1548C206.14 51.1754 206.083 51.1754 206.016 51.1754H203.158C203.205 51.6286 203.33 51.948 203.54 52.154C203.741 52.3497 203.999 52.4528 204.324 52.4528C204.496 52.4528 204.649 52.4322 204.773 52.3806C204.898 52.3394 205.003 52.2879 205.098 52.2364C205.194 52.1849 205.289 52.1334 205.366 52.0819C205.452 52.0407 205.538 52.0201 205.624 52.0201C205.739 52.0201 205.834 52.0716 205.892 52.1643L206.322 52.7309C206.169 52.9163 206.006 53.0708 205.825 53.1945C205.653 53.3078 205.471 53.4005 205.28 53.4726C205.098 53.5344 204.907 53.5859 204.725 53.6065C204.534 53.6374 204.362 53.6477 204.19 53.6477C203.846 53.6477 203.521 53.5859 203.215 53.4623C202.909 53.3387 202.641 53.1636 202.412 52.9266C202.182 52.6794 202.01 52.3806 201.877 52.0304C201.743 51.6699 201.676 51.2578 201.676 50.7736C201.676 50.4234 201.733 50.0834 201.848 49.7641C201.963 49.4448 202.125 49.1666 202.335 48.9194C202.546 48.6824 202.804 48.497 203.1 48.3528C203.406 48.2086 203.741 48.1365 204.123 48.1365ZM204.152 49.2387C203.865 49.2387 203.645 49.3211 203.483 49.4963C203.33 49.6714 203.225 49.9186 203.167 50.2483L205.022 50.238C205.022 50.1143 205.003 49.9907 204.974 49.8774C204.945 49.7538 204.898 49.6405 204.831 49.5478C204.764 49.4551 204.668 49.3829 204.553 49.3211C204.448 49.2593 204.314 49.2387 204.152 49.2387Z" fill="#981541"/>
<path d="M210.681 53.5651C210.585 53.5651 210.509 53.5445 210.451 53.493C210.384 53.4518 210.346 53.39 210.317 53.2973L210.203 52.8852C210.107 53.0088 210.002 53.1015 209.897 53.2046C209.782 53.2973 209.667 53.3694 209.543 53.4415C209.419 53.5033 209.275 53.5548 209.132 53.596C208.989 53.6269 208.836 53.6475 208.664 53.6475C208.405 53.6475 208.166 53.5857 207.946 53.4621C207.727 53.3385 207.535 53.1634 207.373 52.9264C207.22 52.6895 207.096 52.4114 207 52.0714C206.914 51.7315 206.866 51.34 206.866 50.9177C206.866 50.5159 206.914 50.145 207.019 49.8051C207.124 49.4652 207.268 49.1664 207.449 48.9192C207.641 48.6719 207.86 48.4762 208.119 48.332C208.386 48.1878 208.673 48.126 208.989 48.126C209.247 48.126 209.457 48.1569 209.639 48.2393C209.811 48.3217 209.973 48.4247 210.117 48.5586V45.8494H211.598V53.5651H210.681ZM209.18 52.4217C209.285 52.4217 209.39 52.4114 209.476 52.3908C209.562 52.3701 209.639 52.3289 209.715 52.298C209.792 52.2465 209.859 52.195 209.925 52.1332C209.992 52.0817 210.05 52.0096 210.117 51.9272V49.6506C210.002 49.5167 209.878 49.4239 209.753 49.3724C209.62 49.3209 209.486 49.29 209.342 49.29C209.208 49.3003 209.075 49.3209 208.96 49.3827C208.845 49.4446 208.75 49.5373 208.664 49.6609C208.577 49.7948 208.511 49.9596 208.463 50.1656C208.415 50.3717 208.396 50.6189 208.396 50.9177C208.396 51.1958 208.415 51.4327 208.453 51.6284C208.491 51.8139 208.549 51.9684 208.616 52.092C208.683 52.2053 208.759 52.298 208.855 52.3495C208.95 52.4011 209.065 52.4217 209.18 52.4217Z" fill="#981541"/>
<path d="M214.276 48.2188V53.5653H212.794V48.2188H214.276ZM214.448 46.756C214.448 46.8796 214.429 46.993 214.381 47.1063C214.333 47.2196 214.266 47.3226 214.18 47.405C214.094 47.4874 213.999 47.5492 213.893 47.6007C213.779 47.6523 213.664 47.6729 213.54 47.6729C213.415 47.6729 213.31 47.6523 213.205 47.6007C213.1 47.5492 213.004 47.4874 212.918 47.405C212.842 47.3226 212.775 47.2196 212.727 47.1063C212.679 46.993 212.66 46.8796 212.66 46.756C212.66 46.6221 212.679 46.4985 212.727 46.3852C212.775 46.2719 212.842 46.1689 212.918 46.0864C213.004 46.004 213.1 45.9319 213.205 45.8907C213.31 45.8392 213.415 45.8186 213.54 45.8186C213.664 45.8186 213.779 45.8392 213.893 45.8907C213.999 45.9319 214.094 46.004 214.18 46.0864C214.266 46.1689 214.333 46.2719 214.381 46.3852C214.429 46.4985 214.448 46.6221 214.448 46.756Z" fill="#981541"/>
<path d="M217.211 53.6476C216.972 53.6476 216.771 53.6064 216.589 53.5343C216.408 53.4622 216.255 53.3592 216.13 53.2253C216.006 53.0914 215.92 52.9265 215.853 52.7308C215.786 52.5351 215.757 52.3187 215.757 52.0818V49.321L215.337 49.3313C215.26 49.321 215.193 49.3004 215.136 49.2489C215.088 49.1974 215.06 49.115 215.06 49.012V48.3836L215.843 48.2291L216.14 46.9208C216.178 46.756 216.283 46.6736 216.465 46.6736H217.239V48.2394H218.444V49.3313H217.239V51.9788C217.239 52.1024 217.268 52.2054 217.325 52.2878C217.383 52.3703 217.459 52.4115 217.564 52.4115C217.622 52.4115 217.66 52.4012 217.698 52.3909C217.736 52.3806 217.765 52.36 217.794 52.3497C217.822 52.3291 217.851 52.3188 217.87 52.3084C217.899 52.2981 217.928 52.2878 217.956 52.2878C218.004 52.2878 218.033 52.2981 218.061 52.3187C218.09 52.3394 218.119 52.3806 218.147 52.4321L218.597 53.1841C218.406 53.3386 218.186 53.4519 217.947 53.5343C217.708 53.6064 217.469 53.6476 217.211 53.6476Z" fill="#981541"/>
<path d="M222.325 49.3932C222.286 49.4551 222.248 49.5066 222.2 49.5375C222.162 49.5581 222.105 49.5787 222.038 49.5787C221.971 49.5684 221.894 49.5581 221.828 49.5272C221.761 49.4963 221.684 49.4551 221.598 49.4138C221.522 49.3829 221.426 49.3417 221.33 49.3108C221.225 49.2799 221.111 49.2696 220.977 49.2696C220.785 49.2696 220.642 49.3005 220.546 49.3829C220.441 49.4551 220.394 49.5684 220.394 49.7023C220.394 49.8053 220.422 49.8877 220.489 49.9495C220.556 50.0113 220.642 50.0731 220.757 50.1246C220.862 50.1762 220.986 50.2174 221.12 50.2586C221.254 50.3101 221.397 50.3616 221.541 50.4131C221.684 50.4646 221.828 50.5367 221.961 50.6088C222.095 50.6809 222.22 50.7736 222.334 50.8766C222.439 50.99 222.525 51.1136 222.592 51.2681C222.659 51.4226 222.688 51.608 222.688 51.8244C222.688 52.0922 222.64 52.3394 222.554 52.5558C222.468 52.7824 222.334 52.9781 222.153 53.1327C221.981 53.2975 221.761 53.4211 221.502 53.5138C221.244 53.6065 220.938 53.6477 220.604 53.6477C220.432 53.6477 220.269 53.6271 220.097 53.5962C219.925 53.5653 219.763 53.5138 219.61 53.452C219.447 53.4005 219.304 53.3284 219.17 53.246C219.036 53.1636 218.921 53.0811 218.826 52.9884L219.17 52.4013C219.208 52.3291 219.265 52.2776 219.323 52.2364C219.38 52.1952 219.447 52.1746 219.543 52.1746C219.629 52.1746 219.705 52.1952 219.772 52.2364C219.839 52.2776 219.916 52.3291 220.002 52.3703C220.078 52.4219 220.174 52.4631 220.279 52.5043C220.384 52.5455 220.518 52.5661 220.68 52.5661C220.795 52.5661 220.891 52.5558 220.977 52.5352C221.053 52.5043 221.12 52.4734 221.168 52.4219C221.216 52.3806 221.244 52.3291 221.273 52.2776C221.292 52.2261 221.302 52.1643 221.302 52.1025C221.302 51.9995 221.273 51.9171 221.206 51.845C221.139 51.7729 221.044 51.7214 220.938 51.6699C220.833 51.6183 220.709 51.5668 220.566 51.5256C220.432 51.4844 220.288 51.4329 220.145 51.3814C220.002 51.3299 219.858 51.2578 219.724 51.1857C219.581 51.1033 219.457 51.0106 219.351 50.8869C219.246 50.7736 219.16 50.6294 219.093 50.4543C219.026 50.2792 218.988 50.0731 218.988 49.8259C218.988 49.5993 219.026 49.3932 219.112 49.1872C219.189 48.9812 219.313 48.7958 219.476 48.6412C219.638 48.4867 219.839 48.3734 220.088 48.2807C220.336 48.188 220.623 48.1365 220.948 48.1365C221.13 48.1365 221.302 48.1571 221.464 48.188C221.636 48.2292 221.789 48.2704 221.942 48.3322C222.086 48.394 222.22 48.4764 222.344 48.5588C222.459 48.6412 222.564 48.734 222.659 48.8267L222.325 49.3932Z" fill="#981541"/>
<path fill-rule="evenodd" clip-rule="evenodd" d="M179.05 42.6495C179.05 41.5812 178.182 40.7139 177.114 40.7139H173.243C172.174 40.7139 171.307 41.5812 171.307 42.6495V46.5208C171.307 47.5891 172.174 48.4564 173.243 48.4564H177.114C178.182 48.4564 179.05 47.5891 179.05 46.5208V42.6495Z" fill="#981541"/>
<path fill-rule="evenodd" clip-rule="evenodd" d="M179.05 66.2C179.05 65.1317 178.182 64.2644 177.114 64.2644H173.243C172.174 64.2644 171.307 65.1317 171.307 66.2V70.0713C171.307 71.1396 172.174 72.0069 173.243 72.0069H177.114C178.182 72.0069 179.05 71.1396 179.05 70.0713V66.2Z" fill="#2C2C2C"/>
<path d="M190.325 65.9416H189.042C188.895 65.9416 188.778 65.91 188.69 65.8361C188.592 65.7623 188.533 65.6674 188.494 65.5619L188.073 64.2117L185.361 64.2222L184.94 65.5619C184.911 65.6568 184.843 65.7412 184.754 65.8256C184.657 65.8994 184.539 65.9416 184.402 65.9416H183.11L185.87 58.2517H187.564L190.325 65.9416ZM185.743 62.9986L187.691 63.0091L187.035 60.8994C186.996 60.7623 186.947 60.604 186.889 60.4247C186.83 60.2454 186.771 60.0555 186.722 59.8445C186.663 60.0555 186.614 60.2559 186.556 60.4353C186.497 60.6146 186.448 60.7728 186.399 60.91L185.743 63.0091V62.9986Z" fill="#2C2C2C"/>
<path d="M192.469 58.041H190.952V65.9419H192.469V58.041Z" fill="#2C2C2C"/>
<path d="M195.259 58.041H193.742V65.9419H195.259V58.041Z" fill="#2C2C2C"/>
<path d="M205.411 62.0916C205.411 62.6506 205.323 63.1675 205.146 63.6528C204.97 64.1274 204.716 64.5388 204.393 64.8975C204.069 65.2456 203.678 65.5199 203.228 65.7203C202.767 65.9207 202.268 66.0262 201.71 66.0262C201.152 66.0262 200.653 65.9207 200.193 65.7203C199.733 65.5199 199.341 65.2456 199.018 64.8975C198.695 64.5388 198.441 64.1274 198.264 63.6422C198.088 63.1675 198 62.6506 198 62.0916C198 61.543 198.088 61.0261 198.264 60.5409C198.441 60.0662 198.695 59.6548 199.018 59.2962C199.341 58.9481 199.733 58.6738 200.193 58.4734C200.653 58.273 201.152 58.1675 201.71 58.1675C202.268 58.1675 202.767 58.273 203.228 58.4734C203.678 58.6738 204.069 58.9586 204.393 59.3067C204.716 59.6548 204.97 60.0768 205.146 60.5515C205.323 61.0261 205.411 61.543 205.411 62.1021V62.0916ZM203.717 62.081C203.717 61.7013 203.668 61.3637 203.58 61.0578C203.492 60.7519 203.355 60.4987 203.188 60.2877C203.012 60.0768 202.807 59.9185 202.562 59.8025C202.307 59.6865 202.023 59.6337 201.71 59.6337C201.387 59.6337 201.103 59.6865 200.859 59.8025C200.604 59.9185 200.398 60.0768 200.222 60.2877C200.056 60.4987 199.919 60.7519 199.831 61.0578C199.743 61.3637 199.694 61.7013 199.694 62.081C199.694 62.4713 199.743 62.8089 199.831 63.1148C199.919 63.4207 200.056 63.6738 200.222 63.8848C200.398 64.0958 200.604 64.2646 200.859 64.3701C201.103 64.4861 201.387 64.5388 201.71 64.5388C202.023 64.5388 202.307 64.4861 202.562 64.3701C202.807 64.2646 203.012 64.0958 203.188 63.8848C203.355 63.6738 203.492 63.4207 203.58 63.1148C203.668 62.8089 203.717 62.4713 203.717 62.081Z" fill="#2C2C2C"/>
<path d="M207.985 66.0259C207.741 66.0259 207.535 65.9837 207.349 65.9099C207.163 65.836 207.006 65.7306 206.879 65.5934C206.752 65.4563 206.664 65.2875 206.595 65.0871C206.527 64.8867 206.497 64.6652 206.497 64.4225V61.5955L206.067 61.6061C205.988 61.5955 205.92 61.5744 205.861 61.5217C205.812 61.4689 205.783 61.3845 205.783 61.2791V60.6356L206.585 60.4774L206.889 59.1377C206.928 58.9689 207.036 58.8845 207.222 58.8845H208.015V60.4879H209.248V61.6061H208.015V64.317C208.015 64.4436 208.044 64.5491 208.103 64.6335C208.162 64.7179 208.24 64.7601 208.348 64.7601C208.406 64.7601 208.445 64.7495 208.485 64.739C208.524 64.7284 208.553 64.7073 208.583 64.6968C208.612 64.6757 208.641 64.6652 208.661 64.6546C208.69 64.6441 208.72 64.6335 208.749 64.6335C208.798 64.6335 208.827 64.6441 208.857 64.6652C208.886 64.6862 208.915 64.7284 208.945 64.7812L209.405 65.5512C209.209 65.7095 208.984 65.8255 208.739 65.9099C208.494 65.9837 208.25 66.0259 207.985 66.0259Z" fill="#2C2C2C"/>
<path d="M210.119 65.9419V58.041H211.636V60.9524C211.822 60.7837 212.018 60.6465 212.233 60.541C212.449 60.4355 212.703 60.3934 212.997 60.3934C213.271 60.3934 213.516 60.4355 213.731 60.541C213.946 60.6465 214.123 60.7942 214.269 60.9735C214.416 61.1634 214.534 61.3849 214.602 61.6381C214.681 61.8913 214.72 62.1655 214.72 62.4714V65.9419H213.202V62.4609C213.202 62.1972 213.144 61.9862 213.026 61.8385C212.918 61.6908 212.752 61.617 212.527 61.617C212.36 61.617 212.204 61.6592 212.057 61.733C211.91 61.8069 211.773 61.9123 211.636 62.0495V65.9419H210.119Z" fill="#2C2C2C"/>
<path d="M217.97 60.3826C218.303 60.3931 218.616 60.4459 218.89 60.5513C219.174 60.6674 219.409 60.8362 219.615 61.0471C219.81 61.2581 219.967 61.5218 220.084 61.8383C220.192 62.1442 220.251 62.5028 220.251 62.8931C220.251 63.0197 220.241 63.1147 220.231 63.199C220.231 63.2729 220.212 63.3362 220.182 63.3784C220.153 63.4206 220.124 63.4522 220.075 63.4733C220.036 63.4944 219.977 63.4944 219.908 63.4944H216.981C217.03 63.9585 217.157 64.2855 217.373 64.4965C217.578 64.6969 217.843 64.8024 218.176 64.8024C218.352 64.8024 218.508 64.7813 218.636 64.7286C218.763 64.6864 218.871 64.6337 218.968 64.5809C219.066 64.5282 219.164 64.4754 219.243 64.4227C219.331 64.3805 219.419 64.3594 219.507 64.3594C219.624 64.3594 219.722 64.4121 219.781 64.5071L220.222 65.0872C220.065 65.2771 219.898 65.4353 219.712 65.5619C219.536 65.678 219.35 65.7729 219.154 65.8467C218.968 65.91 218.773 65.9628 218.587 65.9839C218.391 66.0155 218.215 66.0261 218.038 66.0261C217.686 66.0261 217.353 65.9628 217.04 65.8362C216.727 65.7096 216.453 65.5303 216.218 65.2877C215.983 65.0345 215.806 64.7286 215.669 64.3699C215.532 64.0007 215.464 63.5788 215.464 63.083C215.464 62.7244 215.523 62.3763 215.64 62.0492C215.758 61.7222 215.924 61.4374 216.139 61.1843C216.355 60.9416 216.619 60.7518 216.922 60.6041C217.236 60.4564 217.578 60.3826 217.97 60.3826ZM217.999 61.5113C217.706 61.5113 217.48 61.5957 217.314 61.775C217.157 61.9543 217.05 62.2075 216.991 62.545L218.89 62.5345C218.89 62.4079 218.871 62.2813 218.841 62.1653C218.812 62.0387 218.763 61.9227 218.694 61.8277C218.626 61.7328 218.528 61.6589 218.41 61.5957C218.303 61.5324 218.166 61.5113 217.999 61.5113Z" fill="#2C2C2C"/>
<path d="M221.123 65.9417V60.467L222.023 60.4776C222.102 60.4776 222.16 60.4776 222.209 60.4987C222.258 60.5092 222.307 60.5303 222.336 60.5619C222.376 60.5936 222.395 60.6252 222.415 60.678C222.434 60.7307 222.454 60.7835 222.464 60.8573L222.552 61.3636C222.728 61.0577 222.943 60.8151 223.178 60.6358C223.404 60.4565 223.658 60.3721 223.932 60.3721C224.167 60.3721 224.353 60.4248 224.49 60.5408L224.294 61.7434C224.285 61.8278 224.255 61.87 224.216 61.9016C224.177 61.9333 224.128 61.9544 224.059 61.9544C224.001 61.9438 223.942 61.9438 223.864 61.9227C223.785 61.9122 223.697 61.9016 223.58 61.9016C223.178 61.9016 222.865 62.1337 222.64 62.5873V65.9417H221.123Z" fill="#2C2C2C"/>
<path d="M188.279 68.8V70.1714H185.352V71.9646H187.594V73.2832H185.352V75.1187H188.279V76.49H183.688V68.8H188.279Z" fill="#2C2C2C"/>
<path d="M190.433 73.663L188.798 71.0259H190.257C190.364 71.0259 190.443 71.0364 190.492 71.0681C190.541 71.0997 190.589 71.1419 190.629 71.2158L191.539 72.8297C191.559 72.7664 191.578 72.7137 191.608 72.6504C191.637 72.5871 191.666 72.5238 191.705 72.4605L192.352 71.2474C192.391 71.163 192.44 71.0997 192.498 71.0681C192.547 71.0364 192.606 71.0259 192.684 71.0259H194.075L192.44 73.5892L194.143 76.4901H192.684C192.577 76.4901 192.489 76.4584 192.42 76.4057C192.361 76.3529 192.303 76.2791 192.263 76.2052L191.363 74.528C191.343 74.5913 191.324 74.644 191.294 74.6968C191.275 74.7495 191.255 74.8023 191.226 74.8445L190.482 76.2052C190.443 76.2791 190.394 76.3424 190.325 76.4057C190.257 76.4584 190.178 76.4901 190.08 76.4901H188.729L190.433 73.663Z" fill="#2C2C2C"/>
<path d="M194.828 78.2306V71.0153L195.768 71.0259C195.866 71.0259 195.944 71.047 196.003 71.0892C196.071 71.1314 196.111 71.2052 196.14 71.3002L196.257 71.6905C196.355 71.5744 196.453 71.4689 196.571 71.3845C196.678 71.2896 196.806 71.2052 196.933 71.1314C197.06 71.0681 197.197 71.0153 197.344 70.9732C197.491 70.931 197.657 70.9204 197.833 70.9204C198.098 70.9204 198.343 70.9837 198.568 71.0997C198.793 71.2369 198.989 71.4162 199.155 71.6483C199.312 71.8909 199.439 72.1862 199.537 72.5343C199.625 72.8824 199.674 73.2727 199.674 73.7052C199.674 74.1272 199.625 74.5069 199.517 74.855C199.41 75.2031 199.263 75.4985 199.067 75.7622C198.881 76.0154 198.646 76.2158 198.382 76.3635C198.117 76.5006 197.824 76.5745 197.501 76.5745C197.236 76.5745 197.011 76.5323 196.835 76.4584C196.659 76.374 196.492 76.2685 196.345 76.1314V78.2306H194.828ZM197.305 72.1651C197.197 72.1651 197.089 72.1757 197.001 72.1968C196.913 72.2179 196.835 72.2601 196.757 72.3023C196.678 72.3445 196.61 72.3972 196.541 72.4605C196.473 72.5238 196.414 72.5976 196.345 72.682V75.0027C196.463 75.1398 196.58 75.2348 196.717 75.2875C196.855 75.3403 196.992 75.3719 197.138 75.3719C197.275 75.3719 197.413 75.3403 197.53 75.2875C197.647 75.2242 197.745 75.1293 197.833 74.9922C197.922 74.8656 197.99 74.6968 198.039 74.4858C198.088 74.2749 198.108 74.0111 198.108 73.7158C198.108 73.4204 198.088 73.1778 198.049 72.9879C198.01 72.7875 197.951 72.6293 197.882 72.5027C197.814 72.3867 197.736 72.3023 197.638 72.2495C197.54 72.1968 197.422 72.1651 197.305 72.1651Z" fill="#2C2C2C"/>
<path d="M202.659 70.9309C202.992 70.9415 203.306 70.9942 203.58 71.0997C203.864 71.2157 204.098 71.3845 204.304 71.5955C204.5 71.8064 204.656 72.0702 204.774 72.3866C204.882 72.6925 204.94 73.0512 204.94 73.4415C204.94 73.5681 204.931 73.663 204.921 73.7474C204.921 73.8212 204.901 73.8845 204.872 73.9267C204.842 73.9689 204.813 74.0005 204.764 74.0216C204.725 74.0427 204.666 74.0427 204.598 74.0427H201.671C201.72 74.5069 201.847 74.8339 202.062 75.0449C202.268 75.2453 202.532 75.3508 202.865 75.3508C203.041 75.3508 203.198 75.3297 203.325 75.2769C203.452 75.2347 203.56 75.182 203.658 75.1292C203.756 75.0765 203.854 75.0238 203.932 74.971C204.02 74.9288 204.108 74.9077 204.196 74.9077C204.314 74.9077 204.412 74.9605 204.47 75.0554L204.911 75.6356C204.754 75.8255 204.588 75.9837 204.402 76.1103C204.226 76.2263 204.04 76.3212 203.844 76.3951C203.658 76.4584 203.462 76.5111 203.276 76.5322C203.08 76.5639 202.904 76.5744 202.728 76.5744C202.376 76.5744 202.043 76.5111 201.729 76.3845C201.416 76.2579 201.142 76.0786 200.907 75.836C200.672 75.5828 200.496 75.2769 200.359 74.9183C200.222 74.5491 200.153 74.1271 200.153 73.6313C200.153 73.2727 200.212 72.9246 200.33 72.5976C200.447 72.2706 200.613 71.9858 200.829 71.7326C201.044 71.49 201.308 71.3001 201.612 71.1524C201.925 71.0047 202.268 70.9309 202.659 70.9309ZM202.689 72.0596C202.395 72.0596 202.17 72.144 202.004 72.3233C201.847 72.5026 201.739 72.7558 201.68 73.0934L203.58 73.0828C203.58 72.9562 203.56 72.8297 203.531 72.7136C203.501 72.587 203.452 72.471 203.384 72.3761C203.315 72.2811 203.217 72.2073 203.1 72.144C202.992 72.0807 202.855 72.0596 202.689 72.0596Z" fill="#2C2C2C"/>
<path d="M205.812 76.49V71.0152L206.751 71.0258C206.849 71.0258 206.928 71.0469 206.986 71.0891C207.055 71.1313 207.094 71.2051 207.123 71.3001L207.211 71.606C207.309 71.511 207.407 71.4161 207.515 71.3317C207.623 71.2473 207.73 71.184 207.848 71.1207C207.965 71.068 208.102 71.0152 208.239 70.9836C208.376 70.952 208.523 70.9414 208.69 70.9414C208.964 70.9414 209.208 70.9836 209.424 71.0891C209.639 71.1946 209.825 71.3423 209.962 71.5216C210.119 71.7115 210.227 71.933 210.295 72.1861C210.373 72.4393 210.413 72.7136 210.413 73.0195V76.49H208.895V73.0089C208.895 72.7452 208.836 72.5342 208.719 72.3866C208.611 72.2389 208.445 72.165 208.22 72.165C208.053 72.165 207.897 72.2072 207.75 72.2811C207.603 72.3549 207.466 72.4604 207.329 72.5975V76.49H205.812Z" fill="#2C2C2C"/>
<path d="M214.593 72.2178C214.554 72.2811 214.514 72.3339 214.465 72.3655C214.426 72.3866 214.368 72.4077 214.299 72.4077C214.231 72.3972 214.152 72.3866 214.084 72.355C214.015 72.3233 213.937 72.2811 213.849 72.2389C213.77 72.2073 213.673 72.1651 213.575 72.1334C213.467 72.1018 213.349 72.0913 213.212 72.0913C213.017 72.0913 212.87 72.1229 212.772 72.2073C212.664 72.2811 212.615 72.3972 212.615 72.5343C212.615 72.6398 212.645 72.7242 212.713 72.7875C212.782 72.8508 212.87 72.914 212.987 72.9668C213.095 73.0195 213.222 73.0617 213.359 73.1039C213.496 73.1567 213.643 73.2094 213.79 73.2621C213.937 73.3149 214.084 73.3887 214.221 73.4626C214.358 73.5364 214.485 73.6313 214.603 73.7368C214.71 73.8529 214.798 73.9795 214.867 74.1377C214.935 74.2959 214.965 74.4858 214.965 74.7073C214.965 74.9816 214.916 75.2347 214.828 75.4563C214.74 75.6883 214.603 75.8887 214.417 76.047C214.24 76.2158 214.015 76.3423 213.751 76.4373C213.487 76.5322 213.173 76.5744 212.831 76.5744C212.654 76.5744 212.488 76.5533 212.312 76.5217C212.136 76.49 211.969 76.4373 211.813 76.374C211.646 76.3212 211.499 76.2474 211.362 76.163C211.225 76.0786 211.108 75.9942 211.01 75.8993L211.362 75.298C211.401 75.2242 211.46 75.1714 211.519 75.1292C211.578 75.0871 211.646 75.066 211.744 75.066C211.832 75.066 211.91 75.0871 211.979 75.1292C212.047 75.1714 212.126 75.2242 212.214 75.2664C212.292 75.3191 212.39 75.3613 212.498 75.4035C212.605 75.4457 212.743 75.4668 212.909 75.4668C213.026 75.4668 213.124 75.4563 213.212 75.4352C213.291 75.4035 213.359 75.3719 213.408 75.3191C213.457 75.2769 213.487 75.2242 213.516 75.1714C213.535 75.1187 213.545 75.0554 213.545 74.9921C213.545 74.8866 213.516 74.8022 213.447 74.7284C213.379 74.6546 213.281 74.6018 213.173 74.5491C213.066 74.4963 212.938 74.4436 212.791 74.4014C212.654 74.3592 212.508 74.3065 212.361 74.2537C212.214 74.201 212.067 74.1271 211.93 74.0533C211.783 73.9689 211.656 73.874 211.548 73.7474C211.441 73.6313 211.352 73.4837 211.284 73.3043C211.215 73.125 211.176 72.914 211.176 72.6609C211.176 72.4288 211.215 72.2178 211.303 72.0069C211.382 71.7959 211.509 71.606 211.675 71.4478C211.842 71.2896 212.047 71.1735 212.302 71.0786C212.557 70.9837 212.85 70.9309 213.183 70.9309C213.369 70.9309 213.545 70.952 213.712 70.9837C213.888 71.0258 214.045 71.068 214.201 71.1313C214.348 71.1946 214.485 71.279 214.612 71.3634C214.73 71.4478 214.837 71.5427 214.935 71.6377L214.593 72.2178Z" fill="#2C2C2C"/>
<path d="M217.97 70.9309C218.303 70.9415 218.616 70.9942 218.89 71.0997C219.174 71.2157 219.409 71.3845 219.615 71.5955C219.81 71.8064 219.967 72.0702 220.084 72.3866C220.192 72.6925 220.251 73.0512 220.251 73.4415C220.251 73.5681 220.241 73.663 220.231 73.7474C220.231 73.8212 220.212 73.8845 220.182 73.9267C220.153 73.9689 220.124 74.0005 220.075 74.0216C220.036 74.0427 219.977 74.0427 219.908 74.0427H216.981C217.03 74.5069 217.157 74.8339 217.373 75.0449C217.578 75.2453 217.843 75.3508 218.176 75.3508C218.352 75.3508 218.508 75.3297 218.636 75.2769C218.763 75.2347 218.871 75.182 218.968 75.1292C219.066 75.0765 219.164 75.0238 219.243 74.971C219.331 74.9288 219.419 74.9077 219.507 74.9077C219.624 74.9077 219.722 74.9605 219.781 75.0554L220.222 75.6356C220.065 75.8255 219.898 75.9837 219.712 76.1103C219.536 76.2263 219.35 76.3212 219.154 76.3951C218.968 76.4584 218.773 76.5111 218.587 76.5322C218.391 76.5639 218.215 76.5744 218.038 76.5744C217.686 76.5744 217.353 76.5111 217.04 76.3845C216.727 76.2579 216.453 76.0786 216.218 75.836C215.983 75.5828 215.806 75.2769 215.669 74.9183C215.532 74.5491 215.464 74.1271 215.464 73.6313C215.464 73.2727 215.523 72.9246 215.64 72.5976C215.758 72.2706 215.924 71.9858 216.139 71.7326C216.355 71.49 216.619 71.3001 216.922 71.1524C217.236 71.0047 217.578 70.9309 217.97 70.9309ZM217.999 72.0596C217.706 72.0596 217.48 72.144 217.314 72.3233C217.157 72.5026 217.05 72.7558 216.991 73.0934L218.89 73.0828C218.89 72.9562 218.871 72.8297 218.841 72.7136C218.812 72.587 218.763 72.471 218.694 72.3761C218.626 72.2811 218.528 72.2073 218.41 72.144C218.303 72.0807 218.166 72.0596 217.999 72.0596Z" fill="#2C2C2C"/>
<path d="M224.226 72.2178C224.186 72.2811 224.147 72.3339 224.098 72.3655C224.059 72.3866 224 72.4077 223.932 72.4077C223.863 72.3972 223.785 72.3866 223.716 72.355C223.648 72.3233 223.57 72.2811 223.482 72.2389C223.403 72.2073 223.305 72.1651 223.207 72.1334C223.1 72.1018 222.982 72.0913 222.845 72.0913C222.649 72.0913 222.503 72.1229 222.405 72.2073C222.297 72.2811 222.248 72.3972 222.248 72.5343C222.248 72.6398 222.277 72.7242 222.346 72.7875C222.414 72.8508 222.503 72.914 222.62 72.9668C222.728 73.0195 222.855 73.0617 222.992 73.1039C223.129 73.1567 223.276 73.2094 223.423 73.2621C223.57 73.3149 223.716 73.3887 223.854 73.4626C223.991 73.5364 224.118 73.6313 224.235 73.7368C224.343 73.8529 224.431 73.9795 224.5 74.1377C224.568 74.2959 224.598 74.4858 224.598 74.7073C224.598 74.9816 224.549 75.2347 224.46 75.4563C224.372 75.6883 224.235 75.8887 224.049 76.047C223.873 76.2158 223.648 76.3423 223.384 76.4373C223.119 76.5322 222.806 76.5744 222.463 76.5744C222.287 76.5744 222.121 76.5533 221.945 76.5217C221.768 76.49 221.602 76.4373 221.445 76.374C221.279 76.3212 221.132 76.2474 220.995 76.163C220.858 76.0786 220.74 75.9942 220.643 75.8993L220.995 75.298C221.034 75.2242 221.093 75.1714 221.152 75.1292C221.21 75.0871 221.279 75.066 221.377 75.066C221.465 75.066 221.543 75.0871 221.612 75.1292C221.68 75.1714 221.759 75.2242 221.847 75.2664C221.925 75.3191 222.023 75.3613 222.131 75.4035C222.238 75.4457 222.375 75.4668 222.542 75.4668C222.659 75.4668 222.757 75.4563 222.845 75.4352C222.924 75.4035 222.992 75.3719 223.041 75.3191C223.09 75.2769 223.119 75.2242 223.149 75.1714C223.168 75.1187 223.178 75.0554 223.178 74.9921C223.178 74.8866 223.149 74.8022 223.08 74.7284C223.012 74.6546 222.914 74.6018 222.806 74.5491C222.698 74.4963 222.571 74.4436 222.424 74.4014C222.287 74.3592 222.14 74.3065 221.994 74.2537C221.847 74.201 221.7 74.1271 221.563 74.0533C221.416 73.9689 221.289 73.874 221.181 73.7474C221.073 73.6313 220.985 73.4837 220.917 73.3043C220.848 73.125 220.809 72.914 220.809 72.6609C220.809 72.4288 220.848 72.2178 220.936 72.0069C221.015 71.7959 221.142 71.606 221.308 71.4478C221.475 71.2896 221.68 71.1735 221.935 71.0786C222.189 70.9837 222.483 70.9309 222.816 70.9309C223.002 70.9309 223.178 70.952 223.344 70.9837C223.521 71.0258 223.677 71.068 223.834 71.1313C223.981 71.1946 224.118 71.279 224.245 71.3634C224.363 71.4478 224.47 71.5427 224.568 71.6377L224.226 72.2178Z" fill="#2C2C2C"/>
<path fill-rule="evenodd" clip-rule="evenodd" d="M227.993 15.0018C227.993 6.72207 221.271 0 212.991 0H15.0008C6.72109 0 -0.000976562 6.7221 -0.000976562 15.0018C-0.000976562 23.2815 6.72112 30.0036 15.0008 30.0036H212.991C221.271 30.0036 227.993 23.2815 227.993 15.0018Z" fill="#2C2C2C"/>
<path d="M14.6851 14.7173C14.7711 14.8792 14.8508 15.0475 14.9242 15.2221C14.9976 15.3966 15.0697 15.5725 15.1405 15.7496C15.2114 15.5674 15.2847 15.3878 15.3606 15.2107C15.4366 15.0336 15.5175 14.864 15.6035 14.7021L18.8523 8.62205C18.8928 8.54615 18.9345 8.48542 18.9776 8.43987C19.0206 8.39433 19.0686 8.36144 19.1218 8.3412C19.1749 8.32095 19.2344 8.3083 19.3002 8.30325C19.3659 8.29819 19.4444 8.29565 19.5355 8.29565H21.0764V19.2716H19.2774V12.182C19.2774 12.0504 19.2812 11.9062 19.2888 11.7494C19.2964 11.5925 19.3077 11.4331 19.3229 11.2711L16.0058 17.4954C15.9299 17.6371 15.8313 17.7472 15.7098 17.8256C15.5884 17.9041 15.4467 17.9433 15.2847 17.9433H15.0039C14.842 17.9433 14.7003 17.9041 14.5788 17.8256C14.4574 17.7472 14.3587 17.6371 14.2828 17.4954L10.9201 11.2484C10.9404 11.4154 10.9543 11.5786 10.9619 11.738C10.9695 11.8974 10.9733 12.0454 10.9733 12.182V19.2716H9.17432V8.29565H10.7152C10.8063 8.29565 10.8847 8.29819 10.9505 8.30325C11.0163 8.3083 11.0758 8.32095 11.1289 8.3412C11.182 8.36144 11.2314 8.39433 11.2769 8.43987C11.3225 8.48542 11.3655 8.54615 11.4059 8.62205L14.6851 14.7173Z" fill="white"/>
<path d="M29.2898 19.2715H28.4472C28.2701 19.2715 28.1309 19.2449 28.0297 19.1918C27.9285 19.1387 27.8526 19.0312 27.802 18.8692L27.635 18.3151C27.4377 18.4922 27.2441 18.6478 27.0543 18.7819C26.8646 18.916 26.6685 19.0286 26.4661 19.1197C26.2636 19.2108 26.0486 19.2791 25.8209 19.3247C25.5931 19.3702 25.3401 19.393 25.0618 19.393C24.7329 19.393 24.4292 19.3487 24.1509 19.2601C23.8726 19.1716 23.6335 19.0387 23.4336 18.8616C23.2337 18.6845 23.0781 18.4644 22.9668 18.2012C22.8555 17.9381 22.7998 17.6319 22.7998 17.2828C22.7998 16.9893 22.877 16.6996 23.0313 16.4137C23.1857 16.1278 23.4425 15.8697 23.8018 15.6394C24.161 15.4092 24.6393 15.2181 25.2364 15.0663C25.8335 14.9145 26.5749 14.8285 27.4604 14.8083V14.3528C27.4604 13.8316 27.3504 13.4457 27.1302 13.1953C26.9101 12.9448 26.59 12.8195 26.17 12.8195C25.8664 12.8195 25.6134 12.8549 25.411 12.9258C25.2085 12.9966 25.0327 13.0763 24.8834 13.1649C24.7341 13.2534 24.5962 13.3331 24.4697 13.404C24.3432 13.4748 24.2041 13.5103 24.0523 13.5103C23.9257 13.5103 23.8169 13.4774 23.7259 13.4116C23.6348 13.3458 23.5614 13.2648 23.5057 13.1687L23.1642 12.569C24.0598 11.7492 25.1402 11.3394 26.4053 11.3394C26.8608 11.3394 27.2669 11.414 27.6236 11.5633C27.9804 11.7126 28.2827 11.92 28.5307 12.1857C28.7787 12.4514 28.9672 12.7689 29.0962 13.1383C29.2252 13.5077 29.2898 13.9126 29.2898 14.3528V19.2715ZM25.6463 18.1026C25.8386 18.1026 26.0157 18.0849 26.1776 18.0494C26.3395 18.014 26.4926 17.9609 26.6368 17.89C26.7811 17.8192 26.9202 17.7319 27.0543 17.6282C27.1884 17.5244 27.3238 17.4017 27.4604 17.26V15.9468C26.9139 15.9721 26.4572 16.0189 26.0903 16.0873C25.7234 16.1556 25.4287 16.2429 25.206 16.3491C24.9834 16.4554 24.8252 16.5794 24.7316 16.7211C24.638 16.8628 24.5912 17.0171 24.5912 17.1841C24.5912 17.513 24.6886 17.7483 24.8834 17.89C25.0782 18.0317 25.3325 18.1026 25.6463 18.1026Z" fill="white"/>
<path d="M31.1338 19.2715V11.4836H32.2344C32.4267 11.4836 32.5608 11.519 32.6367 11.5898C32.7126 11.6607 32.7632 11.7821 32.7885 11.9542L32.9024 12.8954C33.1807 12.4147 33.5071 12.0352 33.8816 11.7568C34.2561 11.4785 34.6761 11.3394 35.1416 11.3394C35.5262 11.3394 35.845 11.4279 36.098 11.605L35.8551 13.0093C35.84 13.1004 35.8071 13.1649 35.7565 13.2028C35.7059 13.2408 35.6375 13.2598 35.5515 13.2598C35.4756 13.2598 35.3719 13.2421 35.2403 13.2066C35.1087 13.1712 34.9341 13.1535 34.7165 13.1535C34.3269 13.1535 33.9929 13.261 33.7146 13.4761C33.4363 13.6912 33.201 14.0062 33.0087 14.4211V19.2715H31.1338Z" fill="white"/>
<path d="M39.2338 7.99197V14.4516H39.5829C39.7094 14.4516 39.8081 14.4338 39.879 14.3984C39.9498 14.363 40.0257 14.2972 40.1067 14.2011L42.0423 11.81C42.1283 11.7088 42.2194 11.6291 42.3155 11.5709C42.4117 11.5127 42.5382 11.4836 42.6951 11.4836H44.4105L41.9891 14.3757C41.9031 14.4819 41.8146 14.5793 41.7235 14.6679C41.6324 14.7564 41.5337 14.8336 41.4274 14.8994C41.5337 14.9753 41.6273 15.0639 41.7083 15.1651C41.7893 15.2663 41.8702 15.3751 41.9512 15.4915L44.5472 19.2716H42.8545C42.7077 19.2716 42.5837 19.2463 42.4825 19.1957C42.3813 19.1451 42.2902 19.059 42.2093 18.9376L40.2281 15.9849C40.1522 15.8685 40.0763 15.7926 40.0004 15.7571C39.9245 15.7217 39.8106 15.704 39.6588 15.704H39.2338V19.2716H37.3589V7.99194H39.2338V7.99197Z" fill="white"/>
<path d="M48.4712 11.3621C48.962 11.3621 49.4137 11.4405 49.8261 11.5974C50.2385 11.7542 50.594 11.9832 50.8926 12.2843C51.1911 12.5854 51.4239 12.9548 51.5909 13.3925C51.7579 13.8303 51.8414 14.33 51.8414 14.8917C51.8414 15.0334 51.8351 15.151 51.8224 15.2446C51.8098 15.3383 51.787 15.4116 51.7541 15.4648C51.7212 15.5179 51.6769 15.5559 51.6213 15.5786C51.5656 15.6014 51.4947 15.6128 51.4087 15.6128H46.5963C46.6519 16.4123 46.867 16.9993 47.2415 17.3738C47.616 17.7483 48.1119 17.9355 48.7292 17.9355C49.0329 17.9355 49.2947 17.9001 49.5149 17.8292C49.735 17.7584 49.9273 17.68 50.0918 17.5939C50.2562 17.5079 50.4004 17.4295 50.5244 17.3586C50.6484 17.2878 50.7686 17.2524 50.885 17.2524C50.9609 17.2524 51.0267 17.2675 51.0823 17.2979C51.138 17.3283 51.1861 17.3713 51.2265 17.4269L51.7731 18.1101C51.5656 18.353 51.3328 18.5567 51.0747 18.7211C50.8167 18.8856 50.5472 19.0172 50.2663 19.1159C49.9855 19.2145 49.6996 19.2841 49.4086 19.3246C49.1176 19.3651 48.8355 19.3853 48.5622 19.3853C48.0208 19.3853 47.5173 19.2955 47.0517 19.1159C46.5862 18.9362 46.1813 18.6705 45.8372 18.3188C45.4931 17.9671 45.2224 17.5319 45.025 17.0133C44.8277 16.4946 44.729 15.8936 44.729 15.2105C44.729 14.6792 44.815 14.1794 44.9871 13.7113C45.1591 13.2433 45.4058 12.8359 45.7272 12.4893C46.0485 12.1426 46.4407 11.8681 46.9037 11.6657C47.3667 11.4633 47.8892 11.3621 48.4712 11.3621ZM48.5091 12.7056C47.9626 12.7056 47.535 12.8599 47.2263 13.1686C46.9176 13.4773 46.7203 13.915 46.6342 14.4818H50.1563C50.1563 14.2389 50.1234 14.0099 50.0576 13.7948C49.9918 13.5798 49.8906 13.3913 49.754 13.2293C49.6173 13.0674 49.4453 12.9396 49.2378 12.846C49.0303 12.7524 48.7874 12.7056 48.5091 12.7056Z" fill="white"/>
<path d="M55.9251 19.3932C55.2521 19.3932 54.7334 19.2022 54.369 18.8201C54.0047 18.438 53.8225 17.9105 53.8225 17.2375V12.888H53.0331C52.9319 12.888 52.8446 12.8552 52.7712 12.7894C52.6978 12.7236 52.6611 12.6249 52.6611 12.4933V11.7495L53.9136 11.5445L54.3083 9.41915C54.3285 9.31794 54.3753 9.23951 54.4487 9.18384C54.5221 9.12818 54.6144 9.10034 54.7258 9.10034H55.6974V11.5521H57.7468V12.888H55.6974V17.1084C55.6974 17.3513 55.7581 17.5411 55.8795 17.6777C56.001 17.8143 56.1629 17.8827 56.3653 17.8827C56.4817 17.8827 56.5791 17.8687 56.6576 17.8409C56.736 17.8131 56.8043 17.784 56.8625 17.7536C56.9207 17.7233 56.9726 17.6942 57.0181 17.6663C57.0637 17.6385 57.1092 17.6246 57.1548 17.6246C57.2104 17.6246 57.256 17.6385 57.2914 17.6663C57.3268 17.6942 57.3648 17.7359 57.4052 17.7916L57.967 18.7024C57.6937 18.9302 57.3799 19.1022 57.0257 19.2186C56.6715 19.335 56.3046 19.3932 55.9251 19.3932Z" fill="white"/>
<path d="M61.2384 11.4838V19.2717H59.3635V11.4838H61.2384ZM61.5192 9.21421C61.5192 9.37614 61.4863 9.52795 61.4205 9.66965C61.3548 9.81133 61.2675 9.93531 61.1587 10.0416C61.0499 10.1479 60.9221 10.2326 60.7754 10.2959C60.6286 10.3591 60.4717 10.3908 60.3047 10.3908C60.1428 10.3908 59.9897 10.3591 59.8455 10.2959C59.7013 10.2326 59.576 10.1479 59.4698 10.0416C59.3635 9.93531 59.2787 9.81133 59.2155 9.66965C59.1522 9.52795 59.1206 9.37614 59.1206 9.21421C59.1206 9.04722 59.1522 8.89035 59.2155 8.74359C59.2787 8.59684 59.3635 8.47033 59.4698 8.36407C59.576 8.25779 59.7013 8.17303 59.8455 8.10978C59.9897 8.04652 60.1428 8.01489 60.3047 8.01489C60.4717 8.01489 60.6286 8.04652 60.7754 8.10978C60.9221 8.17303 61.0499 8.25779 61.1587 8.36407C61.2675 8.47033 61.3548 8.59684 61.4205 8.74359C61.4863 8.89035 61.5192 9.04722 61.5192 9.21421Z" fill="white"/>
<path d="M63.3564 19.2715V11.4835H64.5026C64.7455 11.4835 64.9049 11.5974 64.9808 11.8251L65.1099 12.4399C65.2667 12.278 65.4325 12.1312 65.6071 11.9997C65.7816 11.8681 65.9663 11.7542 66.1612 11.6581C66.356 11.5619 66.5647 11.4886 66.7874 11.438C67.0101 11.3874 67.2529 11.3621 67.5161 11.3621C67.9412 11.3621 68.3182 11.4342 68.6471 11.5784C68.976 11.7226 69.2505 11.925 69.4707 12.1856C69.6908 12.4463 69.8578 12.7575 69.9716 13.1193C70.0855 13.4811 70.1424 13.8796 70.1424 14.3148V19.2715H68.2676V14.3148C68.2676 13.8391 68.1575 13.471 67.9374 13.2104C67.7172 12.9498 67.387 12.8195 66.9468 12.8195C66.6229 12.8195 66.3193 12.8928 66.0359 13.0396C65.7525 13.1863 65.4843 13.3862 65.2313 13.6392V19.2715H63.3564Z" fill="white"/>
<path d="M74.6812 11.3472C75.0152 11.3472 75.329 11.3813 75.6225 11.4496C75.916 11.518 76.1842 11.6179 76.4271 11.7495H78.6663V12.4478C78.6663 12.5642 78.636 12.6553 78.5752 12.7211C78.5145 12.7868 78.4108 12.8324 78.264 12.8577L77.5657 12.9867C77.6163 13.1183 77.6555 13.2575 77.6833 13.4042C77.7112 13.551 77.7251 13.7053 77.7251 13.8672C77.7251 14.2518 77.6479 14.5997 77.4936 14.9109C77.3392 15.2222 77.1267 15.4866 76.856 15.7042C76.5852 15.9218 76.2639 16.09 75.892 16.2089C75.52 16.3279 75.1164 16.3873 74.6812 16.3873C74.3877 16.3873 74.1018 16.3595 73.8235 16.3038C73.5806 16.4506 73.4592 16.615 73.4592 16.7972C73.4592 16.9541 73.5313 17.0692 73.6755 17.1426C73.8197 17.216 74.0095 17.2678 74.2448 17.2982C74.4801 17.3286 74.747 17.3475 75.0456 17.3551C75.3442 17.3627 75.6503 17.3792 75.9641 17.4045C76.2778 17.4298 76.584 17.474 76.8825 17.5373C77.1811 17.6005 77.448 17.7005 77.6833 17.8371C77.9186 17.9738 78.1084 18.1597 78.2526 18.395C78.3968 18.6303 78.469 18.9327 78.469 19.3021C78.469 19.6462 78.3842 19.9802 78.2147 20.3041C78.0452 20.6279 77.7997 20.9164 77.4784 21.1694C77.1571 21.4224 76.7636 21.6261 76.298 21.7804C75.8325 21.9348 75.3012 22.0119 74.704 22.0119C74.112 22.0119 73.5983 21.955 73.1631 21.8412C72.7279 21.7273 72.3674 21.5755 72.0815 21.3857C71.7956 21.196 71.5818 20.9771 71.4401 20.7291C71.2984 20.4812 71.2275 20.2231 71.2275 19.9549C71.2275 19.5905 71.3389 19.2844 71.5615 19.0364C71.7842 18.7885 72.0929 18.5911 72.4876 18.4444C72.2953 18.3381 72.1409 18.1964 72.0246 18.0193C71.9082 17.8422 71.85 17.6119 71.85 17.3286C71.85 17.2122 71.8702 17.092 71.9107 16.968C71.9512 16.844 72.0132 16.7213 72.0967 16.5999C72.1802 16.4784 72.2852 16.3633 72.4117 16.2545C72.5382 16.1457 72.6875 16.0483 72.8595 15.9622C72.4648 15.7497 72.1548 15.4663 71.9297 15.1121C71.7045 14.7579 71.5919 14.3429 71.5919 13.8672C71.5919 13.4827 71.6691 13.1348 71.8234 12.8235C71.9777 12.5123 72.1928 12.2467 72.4686 12.0265C72.7444 11.8064 73.0708 11.6381 73.4478 11.5218C73.8248 11.4054 74.2359 11.3472 74.6812 11.3472ZM76.7383 19.6209C76.7383 19.4691 76.6928 19.3451 76.6017 19.249C76.5106 19.1528 76.3866 19.0782 76.2297 19.025C76.0729 18.9719 75.8894 18.9327 75.6794 18.9074C75.4694 18.8821 75.2468 18.8631 75.0114 18.8505C74.7761 18.8378 74.5332 18.8251 74.2827 18.8125C74.0323 18.7998 73.7906 18.7783 73.5578 18.748C73.3453 18.8644 73.1745 19.0023 73.0455 19.1617C72.9164 19.3211 72.8519 19.5045 72.8519 19.712C72.8519 19.8486 72.8861 19.9764 72.9544 20.0953C73.0227 20.2142 73.1315 20.3167 73.2808 20.4027C73.4301 20.4888 73.6236 20.5558 73.8615 20.6039C74.0993 20.652 74.3903 20.676 74.7344 20.676C75.0835 20.676 75.3846 20.6494 75.6377 20.5963C75.8907 20.5432 76.0994 20.4698 76.2639 20.3762C76.4284 20.2825 76.5485 20.1712 76.6244 20.0422C76.7003 19.9131 76.7383 19.7727 76.7383 19.6209ZM74.6812 15.188C74.914 15.188 75.1164 15.1564 75.2885 15.0931C75.4606 15.0299 75.6035 14.9426 75.7174 14.8312C75.8312 14.7199 75.9173 14.5858 75.9755 14.4289C76.0336 14.2721 76.0627 14.1 76.0627 13.9128C76.0627 13.5282 75.9476 13.2233 75.7174 12.9981C75.4871 12.7729 75.1417 12.6603 74.6812 12.6603C74.2208 12.6603 73.8754 12.7729 73.6451 12.9981C73.4149 13.2233 73.2998 13.5282 73.2998 13.9128C73.2998 14.095 73.3289 14.2645 73.3871 14.4213C73.4453 14.5782 73.5313 14.7136 73.6451 14.8274C73.759 14.9413 73.9032 15.0299 74.0778 15.0931C74.2524 15.1564 74.4535 15.188 74.6812 15.188Z" fill="white"/>
<path d="M89.8015 8.29565V9.92004H84.936V12.9639H88.7692V14.5351H84.936V17.6397H89.8015V19.2716H82.8789V8.29567H89.8015V8.29565Z" fill="white"/>
<path d="M93.3083 15.2564L90.7503 11.4839H92.5569C92.6935 11.4839 92.7947 11.5029 92.8605 11.5408C92.9263 11.5788 92.9845 11.6408 93.0351 11.7268L94.6671 14.3304C94.6924 14.2443 94.724 14.1583 94.7619 14.0723C94.7999 13.9863 94.8467 13.9002 94.9024 13.8142L96.2155 11.7647C96.2763 11.6686 96.3395 11.5977 96.4053 11.5522C96.4711 11.5067 96.552 11.4839 96.6482 11.4839H98.3713L95.8056 15.1729L98.4775 19.2718H96.671C96.5343 19.2718 96.4243 19.2364 96.3408 19.1656C96.2573 19.0947 96.1877 19.0138 96.132 18.9227L94.4773 16.2128C94.4318 16.395 94.3685 16.5468 94.2875 16.6683L92.8301 18.9227C92.7745 19.0087 92.7061 19.0884 92.6252 19.1618C92.5442 19.2352 92.443 19.2718 92.3216 19.2718H90.644L93.3083 15.2564Z" fill="white"/>
<path d="M99.6621 21.8143V11.4836H100.808C100.93 11.4836 101.033 11.5114 101.12 11.5671C101.206 11.6227 101.261 11.7088 101.286 11.8252L101.438 12.5463C101.752 12.187 102.113 11.896 102.52 11.6733C102.927 11.4507 103.404 11.3394 103.951 11.3394C104.376 11.3394 104.764 11.4279 105.116 11.605C105.468 11.7821 105.771 12.039 106.027 12.3755C106.282 12.712 106.48 13.1269 106.619 13.6203C106.758 14.1137 106.828 14.6792 106.828 15.3168C106.828 15.8988 106.749 16.4377 106.592 16.9336C106.435 17.4295 106.212 17.8597 105.921 18.224C105.63 18.5884 105.278 18.873 104.865 19.078C104.453 19.2829 103.991 19.3854 103.48 19.3854C103.04 19.3854 102.667 19.3183 102.361 19.1842C102.054 19.0501 101.78 18.8642 101.537 18.6263V21.8144H99.6621V21.8143ZM103.306 12.8195C102.916 12.8195 102.583 12.9017 102.307 13.0662C102.032 13.2306 101.775 13.4622 101.537 13.7607V17.2524C101.75 17.5155 101.981 17.699 102.232 17.8027C102.482 17.9064 102.751 17.9583 103.04 17.9583C103.323 17.9583 103.58 17.9052 103.81 17.7989C104.041 17.6926 104.235 17.5307 104.395 17.3131C104.554 17.0955 104.677 16.821 104.763 16.4895C104.849 16.1581 104.892 15.7672 104.892 15.3168C104.892 14.8614 104.855 14.4755 104.782 14.1592C104.709 13.843 104.604 13.5861 104.467 13.3888C104.33 13.1914 104.165 13.0472 103.97 12.9561C103.775 12.865 103.554 12.8195 103.306 12.8195Z" fill="white"/>
<path d="M111.465 11.3621C111.956 11.3621 112.407 11.4405 112.82 11.5974C113.232 11.7542 113.588 11.9832 113.886 12.2843C114.185 12.5854 114.418 12.9548 114.585 13.3925C114.752 13.8303 114.835 14.33 114.835 14.8917C114.835 15.0334 114.829 15.151 114.816 15.2446C114.803 15.3383 114.781 15.4116 114.748 15.4648C114.715 15.5179 114.671 15.5559 114.615 15.5786C114.559 15.6014 114.488 15.6128 114.402 15.6128H109.59C109.646 16.4123 109.861 16.9993 110.235 17.3738C110.61 17.7483 111.106 17.9355 111.723 17.9355C112.027 17.9355 112.288 17.9001 112.509 17.8292C112.729 17.7584 112.921 17.68 113.085 17.5939C113.25 17.5079 113.394 17.4295 113.518 17.3586C113.642 17.2878 113.762 17.2524 113.879 17.2524C113.955 17.2524 114.02 17.2675 114.076 17.2979C114.132 17.3283 114.18 17.3713 114.22 17.4269L114.767 18.1101C114.559 18.353 114.326 18.5567 114.068 18.7211C113.81 18.8856 113.541 19.0172 113.26 19.1159C112.979 19.2145 112.693 19.2841 112.402 19.3246C112.111 19.3651 111.829 19.3853 111.556 19.3853C111.014 19.3853 110.511 19.2955 110.045 19.1159C109.58 18.9362 109.175 18.6705 108.831 18.3188C108.487 17.9671 108.216 17.5319 108.019 17.0133C107.821 16.4946 107.723 15.8936 107.723 15.2105C107.723 14.6792 107.809 14.1794 107.981 13.7113C108.153 13.2433 108.399 12.8359 108.721 12.4893C109.042 12.1426 109.434 11.8681 109.897 11.6657C110.36 11.4633 110.883 11.3621 111.465 11.3621ZM111.503 12.7056C110.956 12.7056 110.529 12.8599 110.22 13.1686C109.911 13.4773 109.714 13.915 109.628 14.4818H113.15C113.15 14.2389 113.117 14.0099 113.051 13.7948C112.985 13.5798 112.884 13.3913 112.748 13.2293C112.611 13.0674 112.439 12.9396 112.231 12.846C112.024 12.7524 111.781 12.7056 111.503 12.7056Z" fill="white"/>
<path d="M116.361 19.2715V11.4835H117.507C117.75 11.4835 117.909 11.5974 117.985 11.8251L118.114 12.4399C118.271 12.278 118.437 12.1312 118.611 11.9997C118.786 11.8681 118.971 11.7542 119.166 11.6581C119.36 11.5619 119.569 11.4886 119.792 11.438C120.014 11.3874 120.257 11.3621 120.52 11.3621C120.946 11.3621 121.323 11.4342 121.651 11.5784C121.98 11.7226 122.255 11.925 122.475 12.1856C122.695 12.4463 122.862 12.7575 122.976 13.1193C123.09 13.4811 123.147 13.8796 123.147 14.3148V19.2715H121.272V14.3148C121.272 13.8391 121.162 13.471 120.942 13.2104C120.722 12.9498 120.391 12.8195 119.951 12.8195C119.627 12.8195 119.324 12.8928 119.04 13.0396C118.757 13.1863 118.489 13.3862 118.236 13.6392V19.2715H116.361Z" fill="white"/>
<path d="M129.614 13.0016C129.563 13.0826 129.51 13.1395 129.455 13.1724C129.399 13.2053 129.328 13.2218 129.242 13.2218C129.151 13.2218 129.053 13.1965 128.95 13.1459C128.846 13.0952 128.726 13.0383 128.589 12.9751C128.453 12.9118 128.297 12.8549 128.122 12.8043C127.948 12.7537 127.742 12.7284 127.504 12.7284C127.134 12.7284 126.843 12.8068 126.631 12.9637C126.418 13.1206 126.312 13.3255 126.312 13.5785C126.312 13.7455 126.366 13.8859 126.475 13.9998C126.584 14.1136 126.728 14.2136 126.908 14.2996C127.088 14.3856 127.291 14.4628 127.519 14.5311C127.747 14.5994 127.979 14.6741 128.217 14.7551C128.455 14.836 128.688 14.9284 128.916 15.0321C129.143 15.1358 129.347 15.2674 129.527 15.4268C129.706 15.5862 129.85 15.7773 129.959 15.9999C130.068 16.2226 130.122 16.4908 130.122 16.8045C130.122 17.179 130.054 17.5244 129.918 17.8406C129.781 18.1569 129.581 18.4302 129.318 18.6604C129.055 18.8907 128.73 19.0703 128.342 19.1993C127.955 19.3284 127.511 19.3929 127.01 19.3929C126.742 19.3929 126.48 19.3689 126.225 19.3208C125.969 19.2727 125.724 19.2057 125.488 19.1196C125.253 19.0336 125.036 18.9324 124.836 18.816C124.636 18.6996 124.46 18.5731 124.308 18.4365L124.741 17.723C124.796 17.6369 124.862 17.5712 124.938 17.5256C125.014 17.4801 125.11 17.4573 125.227 17.4573C125.343 17.4573 125.453 17.4902 125.557 17.556C125.66 17.6218 125.781 17.6926 125.917 17.7685C126.054 17.8444 126.215 17.9153 126.399 17.9811C126.584 18.0468 126.818 18.0797 127.101 18.0797C127.324 18.0797 127.515 18.0532 127.675 18C127.834 17.9469 127.965 17.8773 128.069 17.7913C128.173 17.7053 128.249 17.6053 128.297 17.4915C128.345 17.3776 128.369 17.26 128.369 17.1385C128.369 16.9563 128.315 16.807 128.206 16.6907C128.097 16.5743 127.953 16.4731 127.773 16.387C127.594 16.301 127.389 16.2238 127.158 16.1555C126.928 16.0872 126.693 16.0126 126.452 15.9316C126.212 15.8506 125.977 15.7558 125.747 15.647C125.516 15.5381 125.311 15.4003 125.132 15.2333C124.952 15.0663 124.808 14.8613 124.699 14.6184C124.59 14.3755 124.536 14.082 124.536 13.7379C124.536 13.4191 124.599 13.1155 124.726 12.827C124.852 12.5386 125.038 12.2869 125.283 12.0718C125.529 11.8567 125.835 11.6847 126.202 11.5556C126.569 11.4266 126.993 11.3621 127.473 11.3621C128.01 11.3621 128.498 11.4506 128.938 11.6277C129.379 11.8048 129.745 12.0376 130.039 12.3261L129.614 13.0016Z" fill="white"/>
<path d="M134.844 11.3621C135.335 11.3621 135.787 11.4405 136.199 11.5974C136.612 11.7542 136.967 11.9832 137.266 12.2843C137.564 12.5854 137.797 12.9548 137.964 13.3925C138.131 13.8303 138.214 14.33 138.214 14.8917C138.214 15.0334 138.208 15.151 138.195 15.2446C138.183 15.3383 138.16 15.4116 138.127 15.4648C138.094 15.5179 138.05 15.5559 137.994 15.5786C137.939 15.6014 137.868 15.6128 137.782 15.6128H132.969C133.025 16.4123 133.24 16.9993 133.615 17.3738C133.989 17.7483 134.485 17.9355 135.102 17.9355C135.406 17.9355 135.668 17.9001 135.888 17.8292C136.108 17.7584 136.3 17.68 136.465 17.5939C136.629 17.5079 136.773 17.4295 136.897 17.3586C137.021 17.2878 137.142 17.2524 137.258 17.2524C137.334 17.2524 137.4 17.2675 137.455 17.2979C137.511 17.3283 137.559 17.3713 137.6 17.4269L138.146 18.1101C137.939 18.353 137.706 18.5567 137.448 18.7211C137.19 18.8856 136.92 19.0172 136.639 19.1159C136.359 19.2145 136.073 19.2841 135.782 19.3246C135.491 19.3651 135.209 19.3853 134.935 19.3853C134.394 19.3853 133.89 19.2955 133.425 19.1159C132.959 18.9362 132.554 18.6705 132.21 18.3188C131.866 17.9671 131.595 17.5319 131.398 17.0133C131.201 16.4946 131.102 15.8936 131.102 15.2105C131.102 14.6792 131.188 14.1794 131.36 13.7113C131.532 13.2433 131.779 12.8359 132.1 12.4893C132.422 12.1426 132.814 11.8681 133.277 11.6657C133.74 11.4633 134.262 11.3621 134.844 11.3621ZM134.882 12.7056C134.336 12.7056 133.908 12.8599 133.599 13.1686C133.291 13.4773 133.093 13.915 133.007 14.4818H136.529C136.529 14.2389 136.496 14.0099 136.431 13.7948C136.365 13.5798 136.264 13.3913 136.127 13.2293C135.99 13.0674 135.818 12.9396 135.611 12.846C135.403 12.7524 135.16 12.7056 134.882 12.7056Z" fill="white"/>
<path d="M142.777 19.2716V8.29565H146.565C147.283 8.29565 147.897 8.36397 148.405 8.5006C148.914 8.63723 149.331 8.83206 149.658 9.08507C149.984 9.33809 150.223 9.64425 150.375 10.0035C150.527 10.3628 150.603 10.7677 150.603 11.218C150.603 11.4761 150.565 11.7228 150.489 11.9581C150.413 12.1934 150.295 12.4135 150.136 12.6185C149.977 12.8234 149.774 13.0094 149.529 13.1764C149.283 13.3434 148.991 13.4851 148.652 13.6015C150.16 13.9405 150.914 14.7552 150.914 16.0456C150.914 16.5112 150.825 16.9413 150.648 17.336C150.471 17.7308 150.213 18.0711 149.874 18.357C149.535 18.6429 149.118 18.8668 148.622 19.0287C148.126 19.1907 147.559 19.2716 146.921 19.2716H142.777V19.2716ZM144.819 14.4592V17.6776H146.891C147.27 17.6776 147.588 17.6321 147.844 17.541C148.099 17.4499 148.304 17.3284 148.458 17.1766C148.613 17.0248 148.724 16.8477 148.792 16.6453C148.861 16.4429 148.895 16.2278 148.895 16.0001C148.895 15.7622 148.857 15.5484 148.781 15.3587C148.705 15.1689 148.586 15.007 148.424 14.8729C148.262 14.7388 148.055 14.6363 147.802 14.5655C147.549 14.4946 147.243 14.4592 146.883 14.4592H144.819ZM144.819 13.0473H146.451C147.144 13.0473 147.67 12.9208 148.03 12.6678C148.389 12.4148 148.568 12.0125 148.568 11.4609C148.568 10.8891 148.407 10.4817 148.083 10.2388C147.759 9.99593 147.253 9.87448 146.565 9.87448H144.819V13.0473Z" fill="white"/>
<path d="M152.561 19.2715V11.4836H153.661C153.853 11.4836 153.988 11.519 154.063 11.5898C154.139 11.6607 154.19 11.7821 154.215 11.9542L154.329 12.8954C154.607 12.4147 154.934 12.0352 155.308 11.7568C155.683 11.4785 156.103 11.3394 156.568 11.3394C156.953 11.3394 157.272 11.4279 157.525 11.605L157.282 13.0093C157.267 13.1004 157.234 13.1649 157.183 13.2028C157.133 13.2408 157.064 13.2598 156.978 13.2598C156.902 13.2598 156.799 13.2421 156.667 13.2066C156.535 13.1712 156.361 13.1535 156.143 13.1535C155.754 13.1535 155.42 13.261 155.141 13.4761C154.863 13.6912 154.628 14.0062 154.435 14.4211V19.2715H152.561Z" fill="white"/>
<path d="M161.98 11.3621C162.471 11.3621 162.923 11.4405 163.335 11.5974C163.748 11.7542 164.103 11.9832 164.402 12.2843C164.7 12.5854 164.933 12.9548 165.1 13.3925C165.267 13.8303 165.351 14.33 165.351 14.8917C165.351 15.0334 165.344 15.151 165.332 15.2446C165.319 15.3383 165.296 15.4116 165.263 15.4648C165.23 15.5179 165.186 15.5559 165.131 15.5786C165.075 15.6014 165.004 15.6128 164.918 15.6128H160.106C160.161 16.4123 160.376 16.9993 160.751 17.3738C161.125 17.7483 161.621 17.9355 162.239 17.9355C162.542 17.9355 162.804 17.9001 163.024 17.8292C163.244 17.7584 163.437 17.68 163.601 17.5939C163.766 17.5079 163.91 17.4295 164.034 17.3586C164.158 17.2878 164.278 17.2524 164.394 17.2524C164.47 17.2524 164.536 17.2675 164.592 17.2979C164.647 17.3283 164.695 17.3713 164.736 17.4269L165.282 18.1101C165.075 18.353 164.842 18.5567 164.584 18.7211C164.326 18.8856 164.056 19.0172 163.776 19.1159C163.495 19.2145 163.209 19.2841 162.918 19.3246C162.627 19.3651 162.345 19.3853 162.072 19.3853C161.53 19.3853 161.027 19.2955 160.561 19.1159C160.095 18.9362 159.691 18.6705 159.347 18.3188C159.002 17.9671 158.732 17.5319 158.534 17.0133C158.337 16.4946 158.238 15.8936 158.238 15.2105C158.238 14.6792 158.324 14.1794 158.496 13.7113C158.668 13.2433 158.915 12.8359 159.236 12.4893C159.558 12.1426 159.95 11.8681 160.413 11.6657C160.876 11.4633 161.398 11.3621 161.98 11.3621ZM162.018 12.7056C161.472 12.7056 161.044 12.8599 160.736 13.1686C160.427 13.4773 160.23 13.915 160.144 14.4818H163.666C163.666 14.2389 163.633 14.0099 163.567 13.7948C163.501 13.5798 163.4 13.3913 163.263 13.2293C163.127 13.0674 162.955 12.9396 162.747 12.846C162.54 12.7524 162.297 12.7056 162.018 12.7056Z" fill="white"/>
<path d="M172.979 19.2715H172.137C171.96 19.2715 171.82 19.2449 171.719 19.1918C171.618 19.1387 171.542 19.0312 171.491 18.8692L171.324 18.3151C171.127 18.4922 170.934 18.6478 170.744 18.7819C170.554 18.916 170.358 19.0286 170.156 19.1197C169.953 19.2108 169.738 19.2791 169.51 19.3247C169.283 19.3702 169.03 19.393 168.751 19.393C168.422 19.393 168.119 19.3487 167.84 19.2601C167.562 19.1716 167.323 19.0387 167.123 18.8616C166.923 18.6845 166.768 18.4644 166.656 18.2012C166.545 17.9381 166.489 17.6319 166.489 17.2828C166.489 16.9893 166.566 16.6996 166.721 16.4137C166.875 16.1278 167.132 15.8697 167.491 15.6394C167.851 15.4092 168.329 15.2181 168.926 15.0663C169.523 14.9145 170.264 14.8285 171.15 14.8083V14.3528C171.15 13.8316 171.04 13.4457 170.82 13.1953C170.6 12.9448 170.279 12.8195 169.859 12.8195C169.556 12.8195 169.303 12.8549 169.1 12.9258C168.898 12.9966 168.722 13.0763 168.573 13.1649C168.424 13.2534 168.286 13.3331 168.159 13.404C168.033 13.4748 167.894 13.5103 167.742 13.5103C167.615 13.5103 167.506 13.4774 167.415 13.4116C167.324 13.3458 167.251 13.2648 167.195 13.1687L166.854 12.569C167.749 11.7492 168.83 11.3394 170.095 11.3394C170.55 11.3394 170.956 11.414 171.313 11.5633C171.67 11.7126 171.972 11.92 172.22 12.1857C172.468 12.4514 172.657 12.7689 172.786 13.1383C172.915 13.5077 172.979 13.9126 172.979 14.3528V19.2715ZM169.336 18.1026C169.528 18.1026 169.705 18.0849 169.867 18.0494C170.029 18.014 170.182 17.9609 170.326 17.89C170.471 17.8192 170.61 17.7319 170.744 17.6282C170.878 17.5244 171.013 17.4017 171.15 17.26V15.9468C170.603 15.9721 170.147 16.0189 169.78 16.0873C169.413 16.1556 169.118 16.2429 168.895 16.3491C168.673 16.4554 168.515 16.5794 168.421 16.7211C168.327 16.8628 168.281 17.0171 168.281 17.1841C168.281 17.513 168.378 17.7483 168.573 17.89C168.768 18.0317 169.022 18.1026 169.336 18.1026Z" fill="white"/>
<path d="M176.722 7.99197V14.4516H177.071C177.197 14.4516 177.296 14.4338 177.367 14.3984C177.438 14.363 177.514 14.2972 177.594 14.2011L179.53 11.81C179.616 11.7088 179.707 11.6291 179.803 11.5709C179.899 11.5127 180.026 11.4836 180.183 11.4836H181.898L179.477 14.3757C179.391 14.4819 179.302 14.5793 179.211 14.6679C179.12 14.7564 179.022 14.8336 178.915 14.8994C179.022 14.9753 179.115 15.0639 179.196 15.1651C179.277 15.2663 179.358 15.3751 179.439 15.4915L182.035 19.2716H180.342C180.196 19.2716 180.072 19.2463 179.97 19.1957C179.869 19.1451 179.778 19.059 179.697 18.9376L177.716 15.9849C177.64 15.8685 177.564 15.7926 177.488 15.7571C177.412 15.7217 177.298 15.704 177.147 15.704H176.722V19.2716H174.847V7.99194H176.722V7.99197Z" fill="white"/>
<path d="M188.221 19.2716C187.979 19.2716 187.819 19.1577 187.743 18.93L187.591 18.1785C187.43 18.3607 187.26 18.5251 187.083 18.6719C186.906 18.8187 186.715 18.9452 186.51 19.0514C186.305 19.1577 186.085 19.2399 185.849 19.2981C185.614 19.3563 185.36 19.3854 185.087 19.3854C184.662 19.3854 184.272 19.2969 183.918 19.1197C183.563 18.9426 183.259 18.6858 183.003 18.3493C182.747 18.0128 182.55 17.5966 182.411 17.1006C182.272 16.6047 182.202 16.038 182.202 15.4004C182.202 14.8235 182.281 14.2871 182.437 13.7912C182.594 13.2952 182.82 12.8651 183.113 12.5007C183.407 12.1364 183.758 11.8518 184.168 11.6468C184.578 11.4419 185.039 11.3394 185.55 11.3394C185.985 11.3394 186.357 11.409 186.665 11.5481C186.974 11.6873 187.25 11.8733 187.493 12.106V7.99194H189.368V19.2716H188.221V19.2716ZM185.724 17.8977C186.114 17.8977 186.445 17.8167 186.719 17.6548C186.992 17.4928 187.25 17.2626 187.493 16.964V13.4723C187.28 13.2143 187.049 13.0321 186.798 12.9258C186.548 12.8196 186.278 12.7664 185.99 12.7664C185.706 12.7664 185.45 12.8196 185.219 12.9258C184.989 13.0321 184.794 13.1928 184.635 13.4078C184.476 13.6229 184.353 13.8962 184.267 14.2276C184.181 14.5591 184.138 14.95 184.138 15.4004C184.138 15.8558 184.174 16.2416 184.248 16.5579C184.321 16.8742 184.426 17.1323 184.563 17.3322C184.699 17.532 184.866 17.6763 185.064 17.7648C185.261 17.8534 185.481 17.8977 185.724 17.8977Z" fill="white"/>
<path d="M194.719 11.3621C195.301 11.3621 195.829 11.4557 196.302 11.6429C196.775 11.8302 197.178 12.0958 197.512 12.4399C197.846 12.784 198.104 13.2041 198.287 13.7C198.469 14.1959 198.56 14.75 198.56 15.3623C198.56 15.9797 198.469 16.5363 198.287 17.0322C198.104 17.5282 197.846 17.9507 197.512 18.2999C197.178 18.649 196.775 18.9172 196.302 19.1045C195.829 19.2917 195.301 19.3853 194.719 19.3853C194.137 19.3853 193.608 19.2917 193.133 19.1045C192.657 18.9172 192.251 18.649 191.914 18.2999C191.578 17.9507 191.317 17.5282 191.133 17.0322C190.948 16.5363 190.855 15.9797 190.855 15.3623C190.855 14.75 190.948 14.1959 191.133 13.7C191.317 13.2041 191.578 12.784 191.914 12.4399C192.251 12.0958 192.657 11.8302 193.133 11.6429C193.608 11.4557 194.137 11.3621 194.719 11.3621ZM194.719 17.9431C195.367 17.9431 195.846 17.7255 196.157 17.2903C196.469 16.8551 196.624 16.2175 196.624 15.3775C196.624 14.5375 196.469 13.8973 196.157 13.4571C195.846 13.0168 195.367 12.7967 194.719 12.7967C194.061 12.7967 193.575 13.0181 193.262 13.4609C192.948 13.9036 192.791 14.5425 192.791 15.3775C192.791 16.2124 192.948 16.8488 193.262 17.2865C193.575 17.7242 194.061 17.9431 194.719 17.9431Z" fill="white"/>
<path d="M199.076 11.4837H200.564C200.706 11.4837 200.825 11.5166 200.921 11.5824C201.017 11.6481 201.078 11.7316 201.103 11.8329L202.219 15.9925C202.279 16.2202 202.329 16.4429 202.367 16.6605C202.405 16.8781 202.441 17.0957 202.477 17.3133C202.532 17.0957 202.592 16.8781 202.655 16.6605C202.718 16.4429 202.785 16.2202 202.856 15.9925L204.147 11.8177C204.177 11.7165 204.238 11.633 204.329 11.5672C204.42 11.5014 204.526 11.4685 204.648 11.4685H205.475C205.612 11.4685 205.726 11.5014 205.817 11.5672C205.908 11.633 205.968 11.7165 205.999 11.8177L207.274 16.0684C207.34 16.286 207.399 16.4973 207.452 16.7022C207.506 16.9072 207.557 17.1134 207.608 17.3209C207.643 17.1032 207.683 16.8857 207.726 16.6681C207.769 16.4505 207.823 16.2253 207.889 15.9925L209.043 11.8329C209.068 11.7316 209.129 11.6481 209.225 11.5824C209.321 11.5166 209.432 11.4837 209.559 11.4837H210.978L208.511 19.2716H207.001C206.839 19.2716 206.722 19.1603 206.652 18.9376L205.247 14.4364C205.202 14.2897 205.16 14.1417 205.122 13.9924C205.084 13.8431 205.052 13.6951 205.027 13.5483C204.997 13.7001 204.964 13.8507 204.929 14C204.893 14.1492 204.853 14.2998 204.807 14.4516L203.388 18.9376C203.317 19.1603 203.18 19.2716 202.978 19.2716H201.543L199.076 11.4837Z" fill="white"/>
<path d="M212.033 19.2715V11.4835H213.179C213.422 11.4835 213.581 11.5974 213.657 11.8251L213.786 12.4399C213.943 12.278 214.109 12.1312 214.283 11.9997C214.458 11.8681 214.643 11.7542 214.837 11.6581C215.032 11.5619 215.241 11.4886 215.464 11.438C215.686 11.3874 215.929 11.3621 216.192 11.3621C216.617 11.3621 216.994 11.4342 217.323 11.5784C217.652 11.7226 217.927 11.925 218.147 12.1856C218.367 12.4463 218.534 12.7575 218.648 13.1193C218.762 13.4811 218.819 13.8796 218.819 14.3148V19.2715H216.944V14.3148C216.944 13.8391 216.834 13.471 216.614 13.2104C216.394 12.9498 216.063 12.8195 215.623 12.8195C215.299 12.8195 214.996 12.8928 214.712 13.0396C214.429 13.1863 214.161 13.3862 213.908 13.6392V19.2715H212.033Z" fill="white"/>
</svg>
