<svg width="229" height="219" viewBox="0 0 229 219" fill="none" xmlns="http://www.w3.org/2000/svg">
<path fill-rule="evenodd" clip-rule="evenodd" d="M228.977 10.7197C228.977 8.28193 226.997 6.30273 224.559 6.30273H4.41708C1.97862 6.30273 0 8.28193 0 10.7197V208.247C0 210.685 1.97862 212.665 4.41708 212.665H224.559C226.997 212.665 228.977 210.685 228.977 208.247V10.7197Z" fill="#2C2C2C"/>
<path fill-rule="evenodd" clip-rule="evenodd" d="M228.977 10.7197C228.977 8.28193 226.997 6.30273 224.559 6.30273H4.41708C1.97862 6.30273 0 8.28193 0 10.7197V208.247C0 210.685 1.97862 212.665 4.41708 212.665H224.559C226.997 212.665 228.977 210.685 228.977 208.247V10.7197ZM5.6438 11.9463V207.021H223.333V11.9463H5.6438Z" fill="#B2B2B2"/>
<path fill-rule="evenodd" clip-rule="evenodd" d="M209.799 27.2214C209.799 25.191 208.151 23.5425 206.12 23.5425H22.8572C20.8266 23.5425 19.1782 25.191 19.1782 27.2214V191.746C19.1782 193.776 20.8266 195.426 22.8572 195.426H206.12C208.151 195.426 209.799 193.776 209.799 191.746V27.2214Z" fill="#3A3A3A"/>
<path fill-rule="evenodd" clip-rule="evenodd" d="M209.799 27.2214C209.799 25.191 208.151 23.5425 206.12 23.5425H22.8572C20.8266 23.5425 19.1782 25.191 19.1782 27.2214V191.746C19.1782 193.776 20.8266 195.426 22.8572 195.426H206.12C208.151 195.426 209.799 193.776 209.799 191.746V27.2214ZM209.732 27.2214V191.746C209.732 193.74 208.114 195.358 206.12 195.358H22.8572C20.8633 195.358 19.2451 193.74 19.2451 191.746V27.2214C19.2451 25.228 20.8633 23.6095 22.8572 23.6095H206.12C208.114 23.6095 209.732 25.228 209.732 27.2214Z" fill="#3C3C3C"/>
<path d="M59.4114 178.747C59.5924 179.156 59.8034 179.565 59.9844 179.974C60.1653 180.415 60.3462 180.855 60.5272 181.295C60.6779 180.855 60.8589 180.415 61.07 179.974C61.2509 179.534 61.4318 179.093 61.6429 178.684L67.2819 167.108C67.3724 166.919 67.493 166.762 67.5835 166.667C67.7041 166.541 67.8247 166.479 67.9453 166.416C68.0659 166.353 68.2167 166.321 68.3976 166.321C68.5484 166.321 68.7595 166.29 68.9706 166.29H72.8606V189.223H68.3675V176.042C68.3675 175.413 68.3976 174.721 68.4579 173.966L62.638 185.731C62.4571 186.108 62.2158 186.392 61.9143 186.58C61.6127 186.769 61.2509 186.863 60.8589 186.863H60.1653C59.7733 186.863 59.4114 186.769 59.1099 186.58C58.8083 186.392 58.5671 186.108 58.3861 185.731L52.5361 173.934C52.5662 174.312 52.5964 174.689 52.6265 175.035C52.6567 175.413 52.6567 175.727 52.6567 176.042V189.223H48.1636V166.29H52.0536C52.2647 166.29 52.4758 166.321 52.6265 166.321C52.8075 166.321 52.9582 166.353 53.0789 166.416C53.1995 166.479 53.3201 166.541 53.4407 166.667C53.5312 166.762 53.6518 166.919 53.7423 167.108L59.4114 178.747Z" fill="white"/>
<path d="M82.058 166.29H76.9316V189.223H82.058V166.29Z" fill="white"/>
<path d="M88.8127 166.29C89.0238 166.29 89.2349 166.321 89.3857 166.321C89.5364 166.353 89.6571 166.384 89.7777 166.447C89.8983 166.51 90.0189 166.604 90.1395 166.699C90.23 166.793 90.3506 166.95 90.5014 167.108L100.935 180.886C100.905 180.446 100.875 180.006 100.845 179.597C100.814 179.188 100.814 178.81 100.814 178.433V166.29H105.308V189.223H102.654C102.262 189.223 101.93 189.16 101.659 189.034C101.387 188.908 101.116 188.688 100.875 188.342L90.5315 174.689C90.5617 175.098 90.5617 175.476 90.5919 175.853C90.622 176.231 90.622 176.608 90.622 176.923V189.223H86.1289V166.29H88.8127Z" fill="white"/>
<path d="M118.063 185.007C118.757 185.007 119.36 184.913 119.903 184.661C120.445 184.441 120.898 184.095 121.259 183.655C121.621 183.214 121.923 182.68 122.104 182.05C122.315 181.421 122.405 180.698 122.405 179.88V166.29H127.502V179.88C127.502 181.295 127.291 182.585 126.838 183.749C126.416 184.913 125.783 185.92 124.969 186.769C124.154 187.65 123.159 188.311 122.013 188.751C120.837 189.223 119.51 189.475 118.063 189.475C116.585 189.475 115.289 189.223 114.113 188.751C112.937 188.311 111.972 187.65 111.158 186.769C110.343 185.92 109.71 184.913 109.288 183.749C108.836 182.585 108.625 181.295 108.625 179.88V166.29H113.721V179.848C113.721 180.666 113.811 181.39 114.022 182.019C114.203 182.648 114.505 183.214 114.867 183.655C115.228 184.095 115.681 184.441 116.224 184.661C116.766 184.913 117.369 185.007 118.063 185.007Z" fill="white"/>
<path d="M146.77 166.29V170.505H140.589V189.223H135.492V170.505H129.311V166.29H146.77Z" fill="white"/>
<path d="M163.024 166.29V170.379H154.008V175.727H160.913V179.66H154.008V185.133H163.024V189.223H148.881V166.29H163.024Z" fill="white"/>
<path d="M178.162 170.946C178.012 171.197 177.861 171.386 177.68 171.512C177.529 171.638 177.318 171.701 177.047 171.701C176.805 171.701 176.564 171.638 176.293 171.48C176.021 171.323 175.72 171.166 175.388 170.977C175.057 170.788 174.664 170.631 174.242 170.474C173.82 170.316 173.308 170.222 172.765 170.222C171.8 170.222 171.106 170.442 170.624 170.883C170.171 171.292 169.93 171.858 169.93 172.581C169.93 173.053 170.081 173.431 170.352 173.745C170.624 174.06 171.016 174.312 171.468 174.532C171.92 174.752 172.433 174.941 173.036 175.13C173.609 175.318 174.212 175.538 174.845 175.759C175.449 175.979 176.052 176.231 176.625 176.545C177.228 176.86 177.74 177.237 178.193 177.709C178.645 178.181 179.037 178.747 179.308 179.439C179.58 180.1 179.731 180.918 179.731 181.862C179.731 182.931 179.55 183.938 179.218 184.85C178.856 185.762 178.343 186.58 177.68 187.272C177.017 187.964 176.172 188.499 175.207 188.877C174.212 189.286 173.096 189.474 171.86 189.474C171.166 189.474 170.473 189.412 169.779 189.254C169.056 189.097 168.362 188.908 167.729 188.625C167.065 188.373 166.432 188.059 165.859 187.681C165.256 187.304 164.743 186.895 164.321 186.454L165.829 183.969C165.95 183.781 166.1 183.623 166.312 183.497C166.492 183.403 166.704 183.34 166.945 183.34C167.246 183.34 167.548 183.434 167.849 183.623C168.151 183.843 168.513 184.064 168.905 184.284C169.297 184.536 169.719 184.756 170.232 184.944C170.744 185.165 171.317 185.259 172.011 185.259C172.946 185.259 173.669 185.039 174.182 184.63C174.664 184.189 174.936 183.529 174.936 182.585C174.936 182.05 174.785 181.641 174.514 181.295C174.242 180.949 173.85 180.666 173.398 180.446C172.946 180.226 172.433 180.037 171.86 179.88C171.257 179.722 170.654 179.534 170.051 179.313C169.448 179.125 168.845 178.873 168.272 178.558C167.669 178.275 167.156 177.866 166.704 177.395C166.251 176.891 165.859 176.293 165.588 175.57C165.316 174.846 165.166 173.934 165.166 172.865C165.166 172.015 165.347 171.166 165.678 170.348C166.01 169.53 166.492 168.806 167.126 168.146C167.759 167.517 168.573 167.013 169.508 166.636C170.443 166.258 171.498 166.038 172.704 166.038C173.368 166.038 174.031 166.101 174.664 166.227C175.298 166.321 175.931 166.478 176.504 166.699C177.077 166.919 177.59 167.171 178.102 167.485C178.585 167.768 179.037 168.114 179.429 168.492L178.162 170.946Z" fill="white"/>
<path d="M68.1472 52.4102H64.5952C64.1885 52.4102 63.8631 52.3254 63.6191 52.1273C63.3479 51.9293 63.1852 51.6748 63.0768 51.3636L61.9108 47.7712H54.4L53.2341 51.3636C53.1527 51.6465 52.9629 51.8728 52.7189 52.0991C52.4477 52.2971 52.1223 52.4102 51.7427 52.4102H48.1636L55.81 31.7893H60.5008L68.1472 52.4102ZM55.4575 44.5183H60.8533L59.0366 38.8892C58.9282 38.5215 58.7926 38.0972 58.6299 37.6163C58.4672 37.1355 58.3045 36.598 58.169 36.0323C58.0063 36.6263 57.8707 37.1638 57.708 37.6446C57.5453 38.1255 57.4097 38.5498 57.2742 38.9175L55.4575 44.5183Z" fill="#FFCB00"/>
<path d="M87.67 42.0856C87.67 43.5848 87.426 44.9708 86.9379 46.2155C86.4498 47.4884 85.7448 48.5632 84.8501 49.4967C83.9553 50.4019 82.8707 51.1373 81.6234 51.6465C80.349 52.1556 78.9661 52.4102 77.4206 52.4102H69.7471V31.7893H77.4206C78.9661 31.7893 80.349 32.0722 81.6234 32.5813C82.8707 33.0905 83.9553 33.8259 84.8501 34.7311C85.7448 35.6363 86.4498 36.7395 86.9379 37.9841C87.426 39.257 87.67 40.6147 87.67 42.0856ZM82.9791 42.0856C82.9791 41.0673 82.8436 40.1621 82.5995 39.3418C82.3555 38.5215 81.9759 37.8143 81.5149 37.2486C81.0269 36.6829 80.4574 36.2586 79.7796 35.9474C79.0746 35.6363 78.2883 35.4666 77.4206 35.4666H74.3566V48.733H77.4206C78.2883 48.733 79.0746 48.5915 79.7796 48.2804C80.4574 47.9692 81.0269 47.5166 81.5149 46.9509C81.9759 46.3852 82.3555 45.678 82.5995 44.8577C82.8436 44.0374 82.9791 43.1322 82.9791 42.0856Z" fill="#FFCB00"/>
<path d="M107.816 31.7893V35.4666H99.7091V40.2753H105.918V43.8111H99.7091V48.733H107.816V52.4102H95.0996V31.7893H107.816Z" fill="#FFCB00"/>
<path d="M108.792 31.7893H112.48C112.887 31.7893 113.212 31.9025 113.456 32.0722C113.7 32.2702 113.89 32.5248 113.999 32.8359L117.822 43.8677C117.984 44.3485 118.174 44.8577 118.337 45.4234C118.527 45.9892 118.689 46.5832 118.852 47.2055C118.961 46.5832 119.123 45.9892 119.286 45.4234C119.449 44.8577 119.611 44.3485 119.774 43.8677L123.57 32.8359C123.651 32.5813 123.841 32.3268 124.112 32.1287C124.356 31.9025 124.682 31.7893 125.061 31.7893H128.776L120.859 52.4102H116.71L108.792 31.7893Z" fill="#FFCB00"/>
<path d="M143.12 31.7893V35.4666H135.013V40.2753H141.222V43.8111H135.013V48.733H143.12V52.4102H130.403V31.7893H143.12Z" fill="#FFCB00"/>
<path d="M150.306 44.7728V52.4102H145.723V31.7893H152.149C153.586 31.7893 154.807 31.959 155.81 32.2702C156.813 32.5813 157.627 33.0056 158.277 33.5431C158.901 34.0805 159.362 34.7311 159.66 35.4666C159.958 36.2303 160.094 37.0223 160.094 37.8992C160.094 38.5781 160.013 39.2004 159.85 39.7944C159.66 40.3884 159.416 40.9542 159.064 41.4633C158.738 41.9725 158.304 42.3968 157.816 42.7928C157.328 43.1888 156.759 43.5282 156.135 43.7828C156.434 43.9525 156.705 44.1505 156.976 44.3768C157.247 44.6031 157.491 44.886 157.681 45.2254L161.884 52.4102H157.735C156.976 52.4102 156.406 52.0991 156.081 51.505L152.8 45.5083C152.665 45.2537 152.475 45.0557 152.285 44.9426C152.095 44.8294 151.824 44.7728 151.471 44.7728H150.306ZM150.306 41.4916H152.149C152.773 41.4916 153.315 41.4067 153.749 41.237C154.183 41.0673 154.535 40.841 154.834 40.5581C155.105 40.2753 155.295 39.9358 155.43 39.5398C155.566 39.1438 155.62 38.7195 155.62 38.2669C155.62 37.3618 155.349 36.6546 154.78 36.1454C154.21 35.6363 153.342 35.3817 152.149 35.3817H150.306V41.4916Z" fill="#FFCB00"/>
<path d="M173.597 44.5748V52.4102H169.015V44.5748L161.856 31.7893H165.897C166.303 31.7893 166.602 31.9025 166.846 32.1005C167.09 32.2985 167.279 32.5248 167.415 32.8359L170.208 38.8327C170.425 39.3135 170.642 39.7661 170.831 40.1621C171.021 40.5581 171.184 40.9542 171.347 41.3502C171.482 40.9542 171.645 40.5581 171.835 40.1338C172.025 39.7378 172.214 39.3135 172.431 38.8327L175.197 32.8359C175.251 32.7228 175.333 32.5813 175.414 32.4682C175.522 32.355 175.631 32.2419 175.739 32.1287C175.875 32.0439 176.01 31.959 176.173 31.9025C176.336 31.8459 176.498 31.7893 176.688 31.7893H180.756L173.597 44.5748Z" fill="#FFCB00"/>
<path fill-rule="evenodd" clip-rule="evenodd" d="M58.6072 68.7969L48.0215 58.2222H104.604L94.017 68.7969H58.6072Z" fill="#FF1200"/>
<path fill-rule="evenodd" clip-rule="evenodd" d="M58.6072 68.7969L48.0215 58.2222H104.604L94.017 68.7969H58.6072ZM58.9726 67.915L50.152 59.104C57.0497 59.104 78.3251 59.104 78.3251 59.104H102.474C102.474 59.104 95.1329 66.4365 93.6517 67.915H58.9726Z" fill="#3A3A3A"/>
<path fill-rule="evenodd" clip-rule="evenodd" d="M58.6072 150.207L48.0215 160.781H104.604L94.017 150.207H58.6072Z" fill="#FF1200"/>
<path fill-rule="evenodd" clip-rule="evenodd" d="M78.3251 160.781H48.0215L58.6072 150.207H94.017L104.604 160.781H78.3251V159.899H102.474L93.6517 151.088H58.9726L50.152 159.899H78.3251V160.781Z" fill="#3A3A3A"/>
<path fill-rule="evenodd" clip-rule="evenodd" d="M58.6073 114.791L53.3145 109.504L58.6073 104.216H94.0171L99.31 109.504L94.0171 114.791H58.6073Z" fill="#FF1200"/>
<path fill-rule="evenodd" clip-rule="evenodd" d="M94.0171 104.216V105.098L94.2748 104.474L99.31 109.504L94.0171 114.791H93.2102C93.1642 114.758 93.1352 114.753 93.1352 114.791H58.6073L53.3145 109.504L57.9896 104.834C58.2472 105.064 58.6021 105.098 58.6073 105.098C58.6034 105.093 58.4088 104.852 58.2038 104.621L58.3497 104.474L58.6073 105.098V104.216H93.1352C93.1352 104.519 93.2614 104.718 93.4178 104.85L94.0171 105.098C94.0105 105.089 93.4231 104.364 93.2102 104.216H94.0171ZM93.6518 105.098H58.9727L54.5631 109.504L58.9727 113.909H93.6518L98.0627 109.504L93.6518 105.098Z" fill="#3A3A3A"/>
<path fill-rule="evenodd" clip-rule="evenodd" d="M104.602 104.212L99.3145 109.505L94.0269 104.212V68.8044L104.602 58.2244V68.8044V104.212Z" fill="#FF1200"/>
<path fill-rule="evenodd" clip-rule="evenodd" d="M104.602 104.212L99.3145 109.505L94.0269 104.212V68.8044L104.602 58.2244V68.8044V104.212ZM94.9088 69.1697L103.72 60.3535V68.8044V103.847L99.3145 108.257L94.9088 103.847V69.1697Z" fill="#3A3A3A"/>
<path fill-rule="evenodd" clip-rule="evenodd" d="M48.0229 114.798L53.3105 109.505L58.5981 114.798V150.206L48.0229 160.786V150.206V114.798Z" fill="#FF1200"/>
<path fill-rule="evenodd" clip-rule="evenodd" d="M48.0229 151.088V150.206V114.798L53.3105 109.505L58.5981 114.798V150.206L48.0229 160.786V151.088L48.9048 150.206V158.657L57.7162 149.84V115.163L53.3105 110.753L48.9048 115.163V150.206L48.0229 151.088Z" fill="#3A3A3A"/>
<path fill-rule="evenodd" clip-rule="evenodd" d="M104.602 114.798L99.3145 109.505L94.0269 114.798V150.206L104.602 160.786V150.206V114.798Z" fill="#FF1200" fill-opacity="0.25"/>
<path fill-rule="evenodd" clip-rule="evenodd" d="M104.602 114.798L99.3145 109.505L94.0269 114.798V150.206L104.602 160.786V150.206V114.798ZM94.9088 115.163L99.3145 110.753L103.72 115.163V150.206V158.657L94.9088 149.84V115.163Z" fill="#3A3A3A"/>
<path fill-rule="evenodd" clip-rule="evenodd" d="M48.0175 104.212L53.3052 109.505L58.5928 104.212V68.8044L48.0175 58.2244V68.8044V104.212Z" fill="#FF1200" fill-opacity="0.25"/>
<path fill-rule="evenodd" clip-rule="evenodd" d="M48.0175 104.212L53.3052 109.505L58.5928 104.212V68.8044L48.0175 58.2244V68.8044V104.212ZM57.7109 69.1697V103.847L53.3052 108.257L48.8995 103.847V68.8044V60.3535L57.7109 69.1697Z" fill="#3A3A3A"/>
<path fill-rule="evenodd" clip-rule="evenodd" d="M135.167 68.7969L124.582 58.2222H181.164L170.577 68.7969H135.167Z" fill="#FF1200"/>
<path fill-rule="evenodd" clip-rule="evenodd" d="M135.167 68.7969L124.582 58.2222H181.164L170.577 68.7969H135.167ZM135.533 67.915L126.712 59.104H154.885H179.034L170.212 67.915H135.533Z" fill="#3A3A3A"/>
<path fill-rule="evenodd" clip-rule="evenodd" d="M135.167 150.207L124.582 160.781H181.164L170.577 150.207H135.167Z" fill="#FF1200"/>
<path fill-rule="evenodd" clip-rule="evenodd" d="M154.885 160.781H124.582L135.167 150.207H170.577L181.164 160.781H154.885V159.899H179.034L170.212 151.088H135.533L126.712 159.899H154.885V160.781Z" fill="#3A3A3A"/>
<path fill-rule="evenodd" clip-rule="evenodd" d="M135.167 114.791L129.874 109.504L135.167 104.216H170.577L175.87 109.504L170.577 114.791H135.167Z" fill="#FF1200"/>
<path fill-rule="evenodd" clip-rule="evenodd" d="M170.577 104.216V105.098L170.834 104.474L175.87 109.504L170.577 114.791H135.167L129.874 109.504L134.549 104.834C134.807 105.064 135.162 105.098 135.167 105.098C135.163 105.093 134.968 104.852 134.763 104.621L134.909 104.474L135.167 105.098V104.216H170.577ZM170.211 105.098H135.532L131.123 109.504L135.532 113.909H170.211L174.622 109.504L170.211 105.098Z" fill="#3A3A3A"/>
<path fill-rule="evenodd" clip-rule="evenodd" d="M181.162 104.212L175.875 109.505L170.587 104.212V68.8044L181.162 58.2244V68.8044V104.212Z" fill="#FF1200"/>
<path fill-rule="evenodd" clip-rule="evenodd" d="M181.162 104.212L175.875 109.505L170.587 104.212V68.8044L181.162 58.2244V68.8044V104.212ZM171.469 69.1697L180.28 60.3535V68.8044V103.847L175.875 108.257L171.469 103.847V69.1697Z" fill="#3A3A3A"/>
<path fill-rule="evenodd" clip-rule="evenodd" d="M124.588 114.798L129.875 109.505L135.163 114.798V150.206L124.588 160.786V150.206V114.798Z" fill="#FF1200"/>
<path fill-rule="evenodd" clip-rule="evenodd" d="M124.588 114.798L129.875 109.505L135.163 114.798V150.206L124.588 160.786V150.206V114.798ZM125.47 115.163L129.875 110.753L134.281 115.163V149.84L125.47 158.657V150.206V115.163Z" fill="#3A3A3A"/>
<path fill-rule="evenodd" clip-rule="evenodd" d="M181.162 114.798L175.875 109.505L170.587 114.798V150.206L181.162 160.786V150.206V114.798Z" fill="#FF1200"/>
<path fill-rule="evenodd" clip-rule="evenodd" d="M181.162 114.798L175.875 109.505L170.587 114.798V150.206L181.162 160.786V150.206V114.798ZM171.469 115.163L175.875 110.753L180.28 115.163V150.206V158.657L171.469 149.84V115.163Z" fill="#3A3A3A"/>
<path fill-rule="evenodd" clip-rule="evenodd" d="M124.578 104.212L129.865 109.505L135.153 104.212V68.8044L124.578 58.2244V68.8044V104.212Z" fill="#FF1200"/>
<path fill-rule="evenodd" clip-rule="evenodd" d="M124.578 104.212L129.865 109.505L135.153 104.212V68.8044L124.578 58.2244V68.8044V104.212ZM134.271 69.1697V103.847L129.865 108.257L125.46 103.847V68.8044V60.3535L134.271 69.1697Z" fill="#3A3A3A"/>
<path d="M113.973 160.781C117.486 160.781 120.334 157.933 120.334 154.42C120.334 150.907 117.486 148.06 113.973 148.06C110.46 148.06 107.612 150.907 107.612 154.42C107.612 157.933 110.46 160.781 113.973 160.781Z" fill="#FF1200"/>
<path fill-rule="evenodd" clip-rule="evenodd" d="M113.973 148.06C117.484 148.06 120.334 150.91 120.334 154.42C120.334 157.931 117.484 160.78 113.973 160.78C110.462 160.78 107.612 157.931 107.612 154.42C107.612 150.91 110.462 148.06 113.973 148.06ZM113.973 148.941C116.997 148.941 119.452 151.397 119.452 154.42C119.452 157.444 116.997 159.9 113.973 159.9C110.949 159.9 108.494 157.444 108.494 154.42C108.494 151.397 110.949 148.941 113.973 148.941Z" fill="#3A3A3A"/>
</svg>
