<svg width="248" height="219" viewBox="0 0 248 219" fill="none" xmlns="http://www.w3.org/2000/svg">
<g clip-path="url(#clip0_276_359)">
<rect width="248" height="219" fill="white"/>
<rect x="124" y="184.872" width="110.231" height="15.3095" rx="3" fill="#212121"/>
<path d="M124 153C124 151.343 125.343 150 127 150H231.231C232.887 150 234.231 151.343 234.231 153V164.01C234.231 165.667 232.887 167.01 231.23 167.01L127 167C125.343 167 124 165.657 124 164V153Z" fill="#212121"/>
<rect x="129.087" y="150.851" width="97.5116" height="14.459" rx="3" fill="#840032"/>
<path d="M129.087 189.573C129.087 187.916 130.431 186.573 132.087 186.573H227.415C229.072 186.573 230.415 187.916 230.415 189.573V195.055C230.415 196.712 229.072 198.055 227.415 198.055H132.087C130.431 198.055 129.087 196.712 129.087 195.055V189.573Z" fill="#134E78"/>
<path d="M153.78 192.108C153.78 192.532 153.709 192.921 153.568 193.276C153.427 193.631 153.228 193.936 152.972 194.192C152.716 194.448 152.408 194.647 152.048 194.788C151.688 194.929 151.288 195 150.848 195H148.644V189.216H150.848C151.288 189.216 151.688 189.288 152.048 189.432C152.408 189.573 152.716 189.772 152.972 190.028C153.228 190.281 153.427 190.585 153.568 190.94C153.709 191.295 153.78 191.684 153.78 192.108ZM152.676 192.108C152.676 191.791 152.633 191.507 152.548 191.256C152.465 191.003 152.344 190.789 152.184 190.616C152.027 190.44 151.835 190.305 151.608 190.212C151.384 190.119 151.131 190.072 150.848 190.072H149.724V194.144H150.848C151.131 194.144 151.384 194.097 151.608 194.004C151.835 193.911 152.027 193.777 152.184 193.604C152.344 193.428 152.465 193.215 152.548 192.964C152.633 192.711 152.676 192.425 152.676 192.108ZM155.81 195H154.73V189.216H155.81V195ZM160.185 190.268C160.153 190.324 160.118 190.365 160.081 190.392C160.046 190.416 160.002 190.428 159.949 190.428C159.893 190.428 159.832 190.408 159.765 190.368C159.701 190.325 159.624 190.279 159.533 190.228C159.442 190.177 159.336 190.132 159.213 190.092C159.093 190.049 158.95 190.028 158.785 190.028C158.636 190.028 158.505 190.047 158.393 190.084C158.281 190.119 158.186 190.168 158.109 190.232C158.034 190.296 157.978 190.373 157.941 190.464C157.904 190.552 157.885 190.649 157.885 190.756C157.885 190.892 157.922 191.005 157.997 191.096C158.074 191.187 158.176 191.264 158.301 191.328C158.426 191.392 158.569 191.449 158.729 191.5C158.889 191.551 159.053 191.605 159.221 191.664C159.389 191.72 159.553 191.787 159.713 191.864C159.873 191.939 160.016 192.035 160.141 192.152C160.266 192.267 160.366 192.408 160.441 192.576C160.518 192.744 160.557 192.948 160.557 193.188C160.557 193.449 160.512 193.695 160.421 193.924C160.333 194.151 160.202 194.349 160.029 194.52C159.858 194.688 159.649 194.821 159.401 194.92C159.153 195.016 158.869 195.064 158.549 195.064C158.365 195.064 158.184 195.045 158.005 195.008C157.826 194.973 157.654 194.923 157.489 194.856C157.326 194.789 157.173 194.709 157.029 194.616C156.885 194.523 156.757 194.419 156.645 194.304L156.961 193.788C156.988 193.751 157.022 193.72 157.065 193.696C157.108 193.669 157.153 193.656 157.201 193.656C157.268 193.656 157.34 193.684 157.417 193.74C157.494 193.793 157.586 193.853 157.693 193.92C157.8 193.987 157.924 194.048 158.065 194.104C158.209 194.157 158.381 194.184 158.581 194.184C158.888 194.184 159.125 194.112 159.293 193.968C159.461 193.821 159.545 193.612 159.545 193.34C159.545 193.188 159.506 193.064 159.429 192.968C159.354 192.872 159.254 192.792 159.129 192.728C159.004 192.661 158.861 192.605 158.701 192.56C158.541 192.515 158.378 192.465 158.213 192.412C158.048 192.359 157.885 192.295 157.725 192.22C157.565 192.145 157.422 192.048 157.297 191.928C157.172 191.808 157.07 191.659 156.993 191.48C156.918 191.299 156.881 191.076 156.881 190.812C156.881 190.601 156.922 190.396 157.005 190.196C157.09 189.996 157.213 189.819 157.373 189.664C157.533 189.509 157.73 189.385 157.965 189.292C158.2 189.199 158.469 189.152 158.773 189.152C159.114 189.152 159.429 189.205 159.717 189.312C160.005 189.419 160.25 189.568 160.453 189.76L160.185 190.268ZM166.372 189.216V195H165.82C165.734 195 165.662 194.987 165.604 194.96C165.548 194.931 165.493 194.883 165.44 194.816L162.42 190.96C162.436 191.136 162.444 191.299 162.444 191.448V195H161.496V189.216H162.06C162.105 189.216 162.144 189.219 162.176 189.224C162.21 189.227 162.24 189.235 162.264 189.248C162.29 189.259 162.316 189.276 162.34 189.3C162.364 189.321 162.39 189.351 162.42 189.388L165.452 193.26C165.444 193.167 165.437 193.075 165.432 192.984C165.426 192.893 165.424 192.809 165.424 192.732V189.216H166.372ZM168.74 190.072V191.676H170.764V192.504H168.74V194.14H171.308V195H167.66V189.216H171.308V190.072H168.74ZM174.745 192.76V195H173.673V192.76L171.565 189.216H172.513C172.607 189.216 172.68 189.239 172.733 189.284C172.789 189.329 172.836 189.387 172.873 189.456L173.929 191.388C173.991 191.503 174.044 191.611 174.089 191.712C174.137 191.813 174.18 191.915 174.217 192.016C174.252 191.915 174.292 191.813 174.337 191.712C174.383 191.611 174.435 191.503 174.493 191.388L175.545 189.456C175.575 189.397 175.619 189.343 175.677 189.292C175.736 189.241 175.811 189.216 175.901 189.216H176.853L174.745 192.76ZM185.338 189.216V195H184.39V191.264C184.39 191.115 184.398 190.953 184.414 190.78L182.666 194.064C182.583 194.221 182.457 194.3 182.286 194.3H182.134C181.963 194.3 181.837 194.221 181.754 194.064L179.986 190.768C179.994 190.856 180.001 190.943 180.006 191.028C180.011 191.113 180.014 191.192 180.014 191.264V195H179.066V189.216H179.878C179.926 189.216 179.967 189.217 180.002 189.22C180.037 189.223 180.067 189.229 180.094 189.24C180.123 189.251 180.149 189.268 180.17 189.292C180.194 189.316 180.217 189.348 180.238 189.388L181.97 192.6C182.015 192.685 182.057 192.773 182.094 192.864C182.134 192.955 182.173 193.048 182.21 193.144C182.247 193.045 182.286 192.951 182.326 192.86C182.366 192.767 182.409 192.677 182.454 192.592L184.162 189.388C184.183 189.348 184.206 189.316 184.23 189.292C184.254 189.268 184.279 189.251 184.306 189.24C184.335 189.229 184.367 189.223 184.402 189.22C184.437 189.217 184.478 189.216 184.526 189.216H185.338ZM192.144 192.108C192.144 192.532 192.074 192.925 191.932 193.288C191.794 193.648 191.596 193.96 191.34 194.224C191.084 194.488 190.776 194.695 190.416 194.844C190.056 194.991 189.656 195.064 189.216 195.064C188.779 195.064 188.38 194.991 188.02 194.844C187.66 194.695 187.351 194.488 187.092 194.224C186.836 193.96 186.638 193.648 186.496 193.288C186.355 192.925 186.284 192.532 186.284 192.108C186.284 191.684 186.355 191.292 186.496 190.932C186.638 190.569 186.836 190.256 187.092 189.992C187.351 189.728 187.66 189.523 188.02 189.376C188.38 189.227 188.779 189.152 189.216 189.152C189.51 189.152 189.786 189.187 190.044 189.256C190.303 189.323 190.54 189.419 190.756 189.544C190.972 189.667 191.166 189.817 191.336 189.996C191.51 190.172 191.656 190.369 191.776 190.588C191.896 190.807 191.987 191.044 192.048 191.3C192.112 191.556 192.144 191.825 192.144 192.108ZM191.044 192.108C191.044 191.791 191.002 191.507 190.916 191.256C190.831 191.003 190.71 190.788 190.552 190.612C190.395 190.436 190.203 190.301 189.976 190.208C189.752 190.115 189.499 190.068 189.216 190.068C188.934 190.068 188.679 190.115 188.452 190.208C188.228 190.301 188.036 190.436 187.876 190.612C187.719 190.788 187.598 191.003 187.512 191.256C187.427 191.507 187.384 191.791 187.384 192.108C187.384 192.425 187.427 192.711 187.512 192.964C187.598 193.215 187.719 193.428 187.876 193.604C188.036 193.777 188.228 193.911 188.452 194.004C188.679 194.097 188.934 194.144 189.216 194.144C189.499 194.144 189.752 194.097 189.976 194.004C190.203 193.911 190.395 193.777 190.552 193.604C190.71 193.428 190.831 193.215 190.916 192.964C191.002 192.711 191.044 192.425 191.044 192.108ZM197.858 189.216L195.522 195H194.55L192.214 189.216H193.078C193.171 189.216 193.247 189.239 193.306 189.284C193.364 189.329 193.408 189.388 193.438 189.46L194.802 192.988C194.847 193.103 194.89 193.229 194.93 193.368C194.972 193.504 195.012 193.647 195.05 193.796C195.082 193.647 195.116 193.504 195.154 193.368C195.191 193.229 195.232 193.103 195.278 192.988L196.634 189.46C196.655 189.399 196.696 189.343 196.758 189.292C196.822 189.241 196.899 189.216 196.99 189.216H197.858ZM199.537 195H198.457V189.216H199.537V195ZM201.912 190.072V191.676H203.936V192.504H201.912V194.14H204.48V195H200.832V189.216H204.48V190.072H201.912Z" fill="white"/>
<path d="M155.78 158.108C155.78 158.532 155.709 158.921 155.568 159.276C155.427 159.631 155.228 159.936 154.972 160.192C154.716 160.448 154.408 160.647 154.048 160.788C153.688 160.929 153.288 161 152.848 161H150.644V155.216H152.848C153.288 155.216 153.688 155.288 154.048 155.432C154.408 155.573 154.716 155.772 154.972 156.028C155.228 156.281 155.427 156.585 155.568 156.94C155.709 157.295 155.78 157.684 155.78 158.108ZM154.676 158.108C154.676 157.791 154.633 157.507 154.548 157.256C154.465 157.003 154.344 156.789 154.184 156.616C154.027 156.44 153.835 156.305 153.608 156.212C153.384 156.119 153.131 156.072 152.848 156.072H151.724V160.144H152.848C153.131 160.144 153.384 160.097 153.608 160.004C153.835 159.911 154.027 159.777 154.184 159.604C154.344 159.428 154.465 159.215 154.548 158.964C154.633 158.711 154.676 158.425 154.676 158.108ZM157.81 161H156.73V155.216H157.81V161ZM162.185 156.268C162.153 156.324 162.118 156.365 162.081 156.392C162.046 156.416 162.002 156.428 161.949 156.428C161.893 156.428 161.832 156.408 161.765 156.368C161.701 156.325 161.624 156.279 161.533 156.228C161.442 156.177 161.336 156.132 161.213 156.092C161.093 156.049 160.95 156.028 160.785 156.028C160.636 156.028 160.505 156.047 160.393 156.084C160.281 156.119 160.186 156.168 160.109 156.232C160.034 156.296 159.978 156.373 159.941 156.464C159.904 156.552 159.885 156.649 159.885 156.756C159.885 156.892 159.922 157.005 159.997 157.096C160.074 157.187 160.176 157.264 160.301 157.328C160.426 157.392 160.569 157.449 160.729 157.5C160.889 157.551 161.053 157.605 161.221 157.664C161.389 157.72 161.553 157.787 161.713 157.864C161.873 157.939 162.016 158.035 162.141 158.152C162.266 158.267 162.366 158.408 162.441 158.576C162.518 158.744 162.557 158.948 162.557 159.188C162.557 159.449 162.512 159.695 162.421 159.924C162.333 160.151 162.202 160.349 162.029 160.52C161.858 160.688 161.649 160.821 161.401 160.92C161.153 161.016 160.869 161.064 160.549 161.064C160.365 161.064 160.184 161.045 160.005 161.008C159.826 160.973 159.654 160.923 159.489 160.856C159.326 160.789 159.173 160.709 159.029 160.616C158.885 160.523 158.757 160.419 158.645 160.304L158.961 159.788C158.988 159.751 159.022 159.72 159.065 159.696C159.108 159.669 159.153 159.656 159.201 159.656C159.268 159.656 159.34 159.684 159.417 159.74C159.494 159.793 159.586 159.853 159.693 159.92C159.8 159.987 159.924 160.048 160.065 160.104C160.209 160.157 160.381 160.184 160.581 160.184C160.888 160.184 161.125 160.112 161.293 159.968C161.461 159.821 161.545 159.612 161.545 159.34C161.545 159.188 161.506 159.064 161.429 158.968C161.354 158.872 161.254 158.792 161.129 158.728C161.004 158.661 160.861 158.605 160.701 158.56C160.541 158.515 160.378 158.465 160.213 158.412C160.048 158.359 159.885 158.295 159.725 158.22C159.565 158.145 159.422 158.048 159.297 157.928C159.172 157.808 159.07 157.659 158.993 157.48C158.918 157.299 158.881 157.076 158.881 156.812C158.881 156.601 158.922 156.396 159.005 156.196C159.09 155.996 159.213 155.819 159.373 155.664C159.533 155.509 159.73 155.385 159.965 155.292C160.2 155.199 160.469 155.152 160.773 155.152C161.114 155.152 161.429 155.205 161.717 155.312C162.005 155.419 162.25 155.568 162.453 155.76L162.185 156.268ZM168.372 155.216V161H167.82C167.734 161 167.662 160.987 167.604 160.96C167.548 160.931 167.493 160.883 167.44 160.816L164.42 156.96C164.436 157.136 164.444 157.299 164.444 157.448V161H163.496V155.216H164.06C164.105 155.216 164.144 155.219 164.176 155.224C164.21 155.227 164.24 155.235 164.264 155.248C164.29 155.259 164.316 155.276 164.34 155.3C164.364 155.321 164.39 155.351 164.42 155.388L167.452 159.26C167.444 159.167 167.437 159.075 167.432 158.984C167.426 158.893 167.424 158.809 167.424 158.732V155.216H168.372ZM170.74 156.072V157.676H172.764V158.504H170.74V160.14H173.308V161H169.66V155.216H173.308V156.072H170.74ZM176.745 158.76V161H175.673V158.76L173.565 155.216H174.513C174.607 155.216 174.68 155.239 174.733 155.284C174.789 155.329 174.836 155.387 174.873 155.456L175.929 157.388C175.991 157.503 176.044 157.611 176.089 157.712C176.137 157.813 176.18 157.915 176.217 158.016C176.252 157.915 176.292 157.813 176.337 157.712C176.383 157.611 176.435 157.503 176.493 157.388L177.545 155.456C177.575 155.397 177.619 155.343 177.677 155.292C177.736 155.241 177.811 155.216 177.901 155.216H178.853L176.745 158.76ZM187.338 155.216V161H186.39V157.264C186.39 157.115 186.398 156.953 186.414 156.78L184.666 160.064C184.583 160.221 184.457 160.3 184.286 160.3H184.134C183.963 160.3 183.837 160.221 183.754 160.064L181.986 156.768C181.994 156.856 182.001 156.943 182.006 157.028C182.011 157.113 182.014 157.192 182.014 157.264V161H181.066V155.216H181.878C181.926 155.216 181.967 155.217 182.002 155.22C182.037 155.223 182.067 155.229 182.094 155.24C182.123 155.251 182.149 155.268 182.17 155.292C182.194 155.316 182.217 155.348 182.238 155.388L183.97 158.6C184.015 158.685 184.057 158.773 184.094 158.864C184.134 158.955 184.173 159.048 184.21 159.144C184.247 159.045 184.286 158.951 184.326 158.86C184.366 158.767 184.409 158.677 184.454 158.592L186.162 155.388C186.183 155.348 186.206 155.316 186.23 155.292C186.254 155.268 186.279 155.251 186.306 155.24C186.335 155.229 186.367 155.223 186.402 155.22C186.437 155.217 186.478 155.216 186.526 155.216H187.338ZM194.144 158.108C194.144 158.532 194.074 158.925 193.932 159.288C193.794 159.648 193.596 159.96 193.34 160.224C193.084 160.488 192.776 160.695 192.416 160.844C192.056 160.991 191.656 161.064 191.216 161.064C190.779 161.064 190.38 160.991 190.02 160.844C189.66 160.695 189.351 160.488 189.092 160.224C188.836 159.96 188.638 159.648 188.496 159.288C188.355 158.925 188.284 158.532 188.284 158.108C188.284 157.684 188.355 157.292 188.496 156.932C188.638 156.569 188.836 156.256 189.092 155.992C189.351 155.728 189.66 155.523 190.02 155.376C190.38 155.227 190.779 155.152 191.216 155.152C191.51 155.152 191.786 155.187 192.044 155.256C192.303 155.323 192.54 155.419 192.756 155.544C192.972 155.667 193.166 155.817 193.336 155.996C193.51 156.172 193.656 156.369 193.776 156.588C193.896 156.807 193.987 157.044 194.048 157.3C194.112 157.556 194.144 157.825 194.144 158.108ZM193.044 158.108C193.044 157.791 193.002 157.507 192.916 157.256C192.831 157.003 192.71 156.788 192.552 156.612C192.395 156.436 192.203 156.301 191.976 156.208C191.752 156.115 191.499 156.068 191.216 156.068C190.934 156.068 190.679 156.115 190.452 156.208C190.228 156.301 190.036 156.436 189.876 156.612C189.719 156.788 189.598 157.003 189.512 157.256C189.427 157.507 189.384 157.791 189.384 158.108C189.384 158.425 189.427 158.711 189.512 158.964C189.598 159.215 189.719 159.428 189.876 159.604C190.036 159.777 190.228 159.911 190.452 160.004C190.679 160.097 190.934 160.144 191.216 160.144C191.499 160.144 191.752 160.097 191.976 160.004C192.203 159.911 192.395 159.777 192.552 159.604C192.71 159.428 192.831 159.215 192.916 158.964C193.002 158.711 193.044 158.425 193.044 158.108ZM199.858 155.216L197.522 161H196.55L194.214 155.216H195.078C195.171 155.216 195.247 155.239 195.306 155.284C195.364 155.329 195.408 155.388 195.438 155.46L196.802 158.988C196.847 159.103 196.89 159.229 196.93 159.368C196.972 159.504 197.012 159.647 197.05 159.796C197.082 159.647 197.116 159.504 197.154 159.368C197.191 159.229 197.232 159.103 197.278 158.988L198.634 155.46C198.655 155.399 198.696 155.343 198.758 155.292C198.822 155.241 198.899 155.216 198.99 155.216H199.858ZM201.537 161H200.457V155.216H201.537V161ZM203.912 156.072V157.676H205.936V158.504H203.912V160.14H206.48V161H202.832V155.216H206.48V156.072H203.912Z" fill="white"/>
<path d="M125.54 169.513C125.54 167.856 126.883 166.513 128.54 166.513H229.663C231.32 166.513 232.663 167.856 232.663 169.513V182C232.663 183.657 231.32 185 229.663 185H128.54C126.883 185 125.54 183.657 125.54 182V169.513Z" fill="#303030"/>
<path d="M131.811 170.629C131.811 168.972 133.154 167.629 134.811 167.629H223.915C225.571 167.629 226.915 168.972 226.915 170.629V180.696C226.915 182.352 225.571 183.696 223.915 183.696H134.811C133.154 183.696 131.811 182.352 131.811 180.696V170.629Z" fill="#FFC200"/>
<path d="M148.003 172.469C148.003 172.84 147.941 173.181 147.817 173.491C147.693 173.802 147.52 174.069 147.296 174.293C147.072 174.517 146.802 174.691 146.487 174.814C146.172 174.938 145.822 175 145.437 175H143.509V169.939H145.437C145.822 169.939 146.172 170.002 146.487 170.128C146.802 170.252 147.072 170.425 147.296 170.649C147.52 170.871 147.693 171.137 147.817 171.447C147.941 171.758 148.003 172.098 148.003 172.469ZM147.037 172.469C147.037 172.192 146.999 171.943 146.925 171.724C146.852 171.502 146.746 171.316 146.606 171.164C146.468 171.01 146.3 170.892 146.102 170.81C145.906 170.729 145.684 170.688 145.437 170.688H144.454V174.251H145.437C145.684 174.251 145.906 174.21 146.102 174.128C146.3 174.047 146.468 173.93 146.606 173.778C146.746 173.624 146.852 173.438 146.925 173.218C146.999 172.997 147.037 172.747 147.037 172.469ZM149.779 175H148.834V169.939H149.779V175ZM153.607 170.859C153.579 170.908 153.549 170.945 153.516 170.968C153.486 170.989 153.447 170.999 153.4 170.999C153.351 170.999 153.298 170.982 153.239 170.947C153.183 170.91 153.116 170.869 153.036 170.824C152.957 170.78 152.864 170.74 152.756 170.705C152.651 170.668 152.527 170.649 152.382 170.649C152.251 170.649 152.137 170.666 152.039 170.698C151.941 170.729 151.858 170.772 151.79 170.828C151.725 170.884 151.676 170.952 151.643 171.031C151.611 171.108 151.594 171.193 151.594 171.286C151.594 171.405 151.627 171.505 151.692 171.584C151.76 171.663 151.849 171.731 151.958 171.787C152.068 171.843 152.193 171.893 152.333 171.937C152.473 171.982 152.616 172.03 152.763 172.081C152.91 172.13 153.054 172.188 153.194 172.256C153.334 172.321 153.459 172.405 153.568 172.508C153.678 172.608 153.766 172.732 153.831 172.879C153.899 173.026 153.932 173.204 153.932 173.414C153.932 173.643 153.893 173.858 153.813 174.058C153.736 174.257 153.622 174.431 153.47 174.58C153.321 174.727 153.138 174.844 152.921 174.93C152.704 175.014 152.455 175.056 152.175 175.056C152.014 175.056 151.856 175.04 151.699 175.007C151.543 174.977 151.393 174.932 151.248 174.874C151.106 174.816 150.971 174.746 150.845 174.664C150.719 174.582 150.607 174.491 150.509 174.391L150.786 173.939C150.809 173.907 150.84 173.88 150.877 173.859C150.914 173.836 150.954 173.824 150.996 173.824C151.054 173.824 151.117 173.848 151.185 173.897C151.253 173.944 151.333 173.997 151.426 174.055C151.52 174.113 151.628 174.167 151.752 174.216C151.878 174.263 152.028 174.286 152.203 174.286C152.472 174.286 152.679 174.223 152.826 174.097C152.973 173.969 153.047 173.785 153.047 173.547C153.047 173.414 153.013 173.306 152.945 173.222C152.88 173.138 152.793 173.068 152.683 173.012C152.573 172.954 152.448 172.905 152.308 172.865C152.168 172.825 152.026 172.782 151.881 172.735C151.737 172.689 151.594 172.633 151.454 172.567C151.314 172.502 151.19 172.417 151.08 172.312C150.97 172.207 150.882 172.076 150.814 171.92C150.749 171.761 150.716 171.566 150.716 171.335C150.716 171.151 150.752 170.971 150.824 170.796C150.899 170.621 151.006 170.466 151.146 170.331C151.286 170.196 151.459 170.087 151.664 170.005C151.87 169.924 152.105 169.883 152.371 169.883C152.67 169.883 152.945 169.93 153.197 170.023C153.449 170.116 153.664 170.247 153.841 170.415L153.607 170.859ZM159.02 169.939V175H158.537C158.463 175 158.4 174.988 158.348 174.965C158.299 174.939 158.251 174.897 158.205 174.839L155.562 171.465C155.576 171.619 155.583 171.761 155.583 171.892V175H154.754V169.939H155.247C155.287 169.939 155.321 169.941 155.349 169.946C155.379 169.948 155.405 169.955 155.426 169.967C155.449 169.976 155.471 169.991 155.492 170.012C155.513 170.031 155.537 170.057 155.562 170.089L158.215 173.477C158.208 173.396 158.202 173.315 158.198 173.236C158.193 173.157 158.191 173.083 158.191 173.015V169.939H159.02ZM161.092 170.688V172.091H162.863V172.816H161.092V174.247H163.339V175H160.147V169.939H163.339V170.688H161.092ZM166.347 173.04V175H165.409V173.04L163.565 169.939H164.394C164.476 169.939 164.54 169.959 164.587 169.998C164.636 170.038 164.677 170.088 164.709 170.149L165.633 171.839C165.687 171.94 165.734 172.034 165.773 172.123C165.815 172.212 165.853 172.3 165.885 172.389C165.916 172.3 165.951 172.212 165.99 172.123C166.03 172.034 166.075 171.94 166.127 171.839L167.047 170.149C167.073 170.098 167.111 170.05 167.163 170.005C167.214 169.961 167.279 169.939 167.359 169.939H168.192L166.347 173.04ZM173.092 174.223V175H170.128V169.939H171.069V174.223H173.092ZM174.709 175H173.764V169.939H174.709V175ZM180.179 169.939L178.135 175H177.285L175.241 169.939H175.997C176.078 169.939 176.145 169.959 176.196 169.998C176.247 170.038 176.286 170.089 176.312 170.152L177.505 173.239C177.545 173.34 177.582 173.451 177.617 173.572C177.654 173.691 177.689 173.816 177.722 173.946C177.75 173.816 177.78 173.691 177.813 173.572C177.846 173.451 177.882 173.34 177.922 173.239L179.108 170.152C179.127 170.099 179.163 170.05 179.217 170.005C179.273 169.961 179.34 169.939 179.42 169.939H180.179ZM181.648 170.688V172.091H183.419V172.816H181.648V174.247H183.895V175H180.703V169.939H183.895V170.688H181.648ZM184.565 172.525H186.378V173.246H184.565V172.525ZM190.015 173.089L189.399 171.405C189.368 171.331 189.337 171.242 189.304 171.139C189.272 171.037 189.239 170.926 189.206 170.807C189.176 170.926 189.144 171.038 189.112 171.143C189.079 171.246 189.048 171.335 189.017 171.412L188.405 173.089H190.015ZM191.677 175H190.949C190.868 175 190.801 174.98 190.75 174.94C190.698 174.898 190.66 174.847 190.634 174.786L190.256 173.754H188.16L187.782 174.786C187.763 174.84 187.727 174.889 187.673 174.933C187.62 174.978 187.553 175 187.474 175H186.739L188.73 169.939H189.689L191.677 175ZM195.526 173.806C195.577 173.806 195.623 173.826 195.663 173.866L196.034 174.268C195.828 174.523 195.575 174.718 195.274 174.853C194.975 174.988 194.616 175.056 194.196 175.056C193.82 175.056 193.482 174.992 193.181 174.863C192.882 174.735 192.627 174.557 192.415 174.328C192.202 174.099 192.039 173.826 191.925 173.509C191.813 173.192 191.757 172.845 191.757 172.469C191.757 172.089 191.817 171.741 191.939 171.426C192.06 171.109 192.23 170.836 192.45 170.607C192.671 170.379 192.935 170.201 193.241 170.075C193.546 169.947 193.885 169.883 194.256 169.883C194.624 169.883 194.951 169.944 195.236 170.065C195.523 170.186 195.766 170.345 195.967 170.541L195.652 170.978C195.633 171.006 195.609 171.031 195.579 171.052C195.551 171.073 195.511 171.083 195.46 171.083C195.425 171.083 195.388 171.074 195.351 171.055C195.314 171.034 195.273 171.01 195.229 170.982C195.184 170.952 195.133 170.919 195.075 170.884C195.016 170.849 194.949 170.817 194.872 170.789C194.795 170.759 194.705 170.735 194.602 170.716C194.502 170.695 194.385 170.684 194.252 170.684C194.026 170.684 193.818 170.725 193.629 170.807C193.442 170.886 193.281 171.003 193.146 171.157C193.011 171.309 192.906 171.495 192.831 171.717C192.756 171.936 192.719 172.187 192.719 172.469C192.719 172.754 192.759 173.007 192.838 173.229C192.92 173.451 193.029 173.637 193.167 173.789C193.305 173.941 193.467 174.057 193.654 174.139C193.84 174.218 194.041 174.258 194.256 174.258C194.384 174.258 194.499 174.251 194.602 174.237C194.707 174.223 194.803 174.201 194.889 174.17C194.978 174.14 195.061 174.102 195.138 174.055C195.217 174.006 195.295 173.946 195.372 173.876C195.395 173.855 195.42 173.839 195.446 173.827C195.471 173.813 195.498 173.806 195.526 173.806ZM200.214 170.712H198.688V175H197.746V170.712H196.22V169.939H200.214V170.712ZM201.821 175H200.876V169.939H201.821V175ZM207.78 172.469C207.78 172.84 207.719 173.185 207.595 173.502C207.474 173.817 207.301 174.09 207.077 174.321C206.853 174.552 206.583 174.733 206.268 174.863C205.953 174.992 205.603 175.056 205.218 175.056C204.836 175.056 204.487 174.992 204.172 174.863C203.857 174.733 203.586 174.552 203.36 174.321C203.136 174.09 202.962 173.817 202.838 173.502C202.715 173.185 202.653 172.84 202.653 172.469C202.653 172.098 202.715 171.755 202.838 171.44C202.962 171.123 203.136 170.849 203.36 170.618C203.586 170.387 203.857 170.207 204.172 170.079C204.487 169.948 204.836 169.883 205.218 169.883C205.475 169.883 205.717 169.913 205.943 169.974C206.169 170.032 206.377 170.116 206.566 170.226C206.755 170.333 206.924 170.465 207.073 170.621C207.225 170.775 207.353 170.948 207.458 171.139C207.563 171.331 207.643 171.538 207.696 171.762C207.752 171.986 207.78 172.222 207.78 172.469ZM206.818 172.469C206.818 172.192 206.781 171.943 206.706 171.724C206.631 171.502 206.525 171.314 206.387 171.16C206.25 171.006 206.082 170.889 205.883 170.807C205.687 170.725 205.466 170.684 205.218 170.684C204.971 170.684 204.748 170.725 204.55 170.807C204.354 170.889 204.186 171.006 204.046 171.16C203.908 171.314 203.802 171.502 203.727 171.724C203.653 171.943 203.615 172.192 203.615 172.469C203.615 172.747 203.653 172.997 203.727 173.218C203.802 173.438 203.908 173.624 204.046 173.778C204.186 173.93 204.354 174.047 204.55 174.128C204.748 174.21 204.971 174.251 205.218 174.251C205.466 174.251 205.687 174.21 205.883 174.128C206.082 174.047 206.25 173.93 206.387 173.778C206.525 173.624 206.631 173.438 206.706 173.218C206.781 172.997 206.818 172.747 206.818 172.469ZM212.874 169.939V175H212.391C212.316 175 212.253 174.988 212.202 174.965C212.153 174.939 212.105 174.897 212.058 174.839L209.416 171.465C209.43 171.619 209.437 171.761 209.437 171.892V175H208.607V169.939H209.101C209.14 169.939 209.174 169.941 209.202 169.946C209.233 169.948 209.258 169.955 209.279 169.967C209.303 169.976 209.325 169.991 209.346 170.012C209.367 170.031 209.39 170.057 209.416 170.089L212.069 173.477C212.062 173.396 212.056 173.315 212.051 173.236C212.047 173.157 212.044 173.083 212.044 173.015V169.939H212.874ZM165.871 180.347C166.048 180.347 166.202 180.325 166.333 180.28C166.466 180.236 166.574 180.175 166.658 180.098C166.744 180.019 166.809 179.926 166.851 179.818C166.893 179.711 166.914 179.593 166.914 179.465C166.914 179.208 166.828 179.011 166.658 178.873C166.49 178.736 166.232 178.667 165.885 178.667H165.283V180.347H165.871ZM168.293 183H167.442C167.281 183 167.164 182.937 167.092 182.811L166.028 181.19C165.988 181.13 165.944 181.087 165.895 181.061C165.848 181.035 165.778 181.023 165.685 181.023H165.283V183H164.341V177.939H165.885C166.228 177.939 166.522 177.975 166.767 178.047C167.014 178.117 167.216 178.217 167.372 178.345C167.531 178.473 167.647 178.627 167.722 178.807C167.797 178.984 167.834 179.18 167.834 179.395C167.834 179.565 167.808 179.726 167.757 179.878C167.708 180.03 167.636 180.167 167.54 180.291C167.447 180.415 167.33 180.523 167.19 180.616C167.052 180.71 166.895 180.783 166.718 180.837C166.778 180.872 166.834 180.914 166.886 180.963C166.937 181.01 166.984 181.066 167.026 181.131L168.293 183ZM169.784 178.688V180.091H171.555V180.816H169.784V182.247H172.031V183H168.839V177.939H172.031V178.688H169.784ZM178.354 177.939V183H177.524V179.731C177.524 179.6 177.531 179.459 177.545 179.307L176.016 182.181C175.943 182.319 175.832 182.387 175.683 182.387H175.55C175.401 182.387 175.29 182.319 175.218 182.181L173.671 179.297C173.678 179.374 173.683 179.45 173.688 179.524C173.693 179.599 173.695 179.668 173.695 179.731V183H172.866V177.939H173.576C173.618 177.939 173.654 177.94 173.685 177.942C173.715 177.945 173.742 177.951 173.765 177.96C173.791 177.969 173.813 177.984 173.832 178.005C173.853 178.026 173.872 178.054 173.891 178.089L175.407 180.9C175.446 180.975 175.482 181.052 175.515 181.131C175.55 181.21 175.584 181.292 175.617 181.376C175.649 181.29 175.683 181.207 175.718 181.127C175.753 181.046 175.79 180.968 175.83 180.893L177.325 178.089C177.343 178.054 177.363 178.026 177.384 178.005C177.405 177.984 177.427 177.969 177.451 177.96C177.476 177.951 177.504 177.945 177.535 177.942C177.565 177.94 177.601 177.939 177.643 177.939H178.354ZM182.157 181.089L181.541 179.405C181.51 179.331 181.479 179.242 181.446 179.139C181.414 179.037 181.381 178.926 181.348 178.807C181.318 178.926 181.286 179.038 181.254 179.143C181.221 179.246 181.19 179.335 181.159 179.412L180.547 181.089H182.157ZM183.819 183H183.091C183.01 183 182.943 182.98 182.892 182.94C182.84 182.898 182.802 182.847 182.776 182.786L182.398 181.754H180.302L179.924 182.786C179.905 182.84 179.869 182.889 179.815 182.933C179.762 182.978 179.695 183 179.616 183H178.881L180.872 177.939H181.831L183.819 183ZM185.285 180.06H185.505C185.594 180.06 185.667 180.048 185.726 180.025C185.784 179.999 185.834 179.96 185.876 179.906L187.273 178.138C187.331 178.064 187.392 178.012 187.455 177.984C187.52 177.954 187.602 177.939 187.7 177.939H188.512L186.807 180.042C186.707 180.171 186.603 180.262 186.496 180.315C186.573 180.343 186.641 180.383 186.702 180.434C186.765 180.483 186.825 180.549 186.881 180.63L188.638 183H187.808C187.696 183 187.612 182.985 187.556 182.954C187.502 182.922 187.457 182.875 187.42 182.814L185.988 180.945C185.944 180.882 185.892 180.838 185.834 180.812C185.776 180.787 185.692 180.774 185.582 180.774H185.285V183H184.343V177.939H185.285V180.06ZM190.087 178.688V180.091H191.858V180.816H190.087V182.247H192.334V183H189.142V177.939H192.334V178.688H190.087Z" fill="white"/>
<path d="M125.018 202.985C125.018 201.328 126.361 199.985 128.018 199.985H229.14C230.797 199.985 232.14 201.328 232.14 202.985V215.283C232.14 216.94 230.797 218.283 229.14 218.283H128.018C126.361 218.283 125.018 216.94 125.018 215.283V202.985Z" fill="#303030"/>
<path d="M131.288 204.101C131.288 202.444 132.631 201.101 134.288 201.101H223.392C225.049 201.101 226.392 202.444 226.392 204.101V214.168C226.392 215.825 225.049 217.168 223.392 217.168H134.288C132.631 217.168 131.288 215.825 131.288 214.168V204.101Z" fill="#FFC200"/>
<path d="M149.003 205.469C149.003 205.84 148.941 206.181 148.817 206.491C148.693 206.802 148.52 207.069 148.296 207.293C148.072 207.517 147.802 207.691 147.487 207.814C147.172 207.938 146.822 208 146.437 208H144.509V202.939H146.437C146.822 202.939 147.172 203.002 147.487 203.128C147.802 203.252 148.072 203.425 148.296 203.649C148.52 203.871 148.693 204.137 148.817 204.447C148.941 204.758 149.003 205.098 149.003 205.469ZM148.037 205.469C148.037 205.192 147.999 204.943 147.925 204.724C147.852 204.502 147.746 204.316 147.606 204.164C147.468 204.01 147.3 203.892 147.102 203.81C146.906 203.729 146.684 203.688 146.437 203.688H145.454V207.251H146.437C146.684 207.251 146.906 207.21 147.102 207.128C147.3 207.047 147.468 206.93 147.606 206.778C147.746 206.624 147.852 206.438 147.925 206.218C147.999 205.997 148.037 205.747 148.037 205.469ZM150.779 208H149.834V202.939H150.779V208ZM154.607 203.859C154.579 203.908 154.549 203.945 154.516 203.968C154.486 203.989 154.447 203.999 154.4 203.999C154.351 203.999 154.298 203.982 154.239 203.947C154.183 203.91 154.116 203.869 154.036 203.824C153.957 203.78 153.864 203.74 153.756 203.705C153.651 203.668 153.527 203.649 153.382 203.649C153.251 203.649 153.137 203.666 153.039 203.698C152.941 203.729 152.858 203.772 152.79 203.828C152.725 203.884 152.676 203.952 152.643 204.031C152.611 204.108 152.594 204.193 152.594 204.286C152.594 204.405 152.627 204.505 152.692 204.584C152.76 204.663 152.849 204.731 152.958 204.787C153.068 204.843 153.193 204.893 153.333 204.937C153.473 204.982 153.616 205.03 153.763 205.081C153.91 205.13 154.054 205.188 154.194 205.256C154.334 205.321 154.459 205.405 154.568 205.508C154.678 205.608 154.766 205.732 154.831 205.879C154.899 206.026 154.932 206.204 154.932 206.414C154.932 206.643 154.893 206.858 154.813 207.058C154.736 207.257 154.622 207.431 154.47 207.58C154.321 207.727 154.138 207.844 153.921 207.93C153.704 208.014 153.455 208.056 153.175 208.056C153.014 208.056 152.856 208.04 152.699 208.007C152.543 207.977 152.393 207.932 152.248 207.874C152.106 207.816 151.971 207.746 151.845 207.664C151.719 207.582 151.607 207.491 151.509 207.391L151.786 206.939C151.809 206.907 151.84 206.88 151.877 206.859C151.914 206.836 151.954 206.824 151.996 206.824C152.054 206.824 152.117 206.848 152.185 206.897C152.253 206.944 152.333 206.997 152.426 207.055C152.52 207.113 152.628 207.167 152.752 207.216C152.878 207.263 153.028 207.286 153.203 207.286C153.472 207.286 153.679 207.223 153.826 207.097C153.973 206.969 154.047 206.785 154.047 206.547C154.047 206.414 154.013 206.306 153.945 206.222C153.88 206.138 153.793 206.068 153.683 206.012C153.573 205.954 153.448 205.905 153.308 205.865C153.168 205.825 153.026 205.782 152.881 205.735C152.737 205.689 152.594 205.633 152.454 205.567C152.314 205.502 152.19 205.417 152.08 205.312C151.97 205.207 151.882 205.076 151.814 204.92C151.749 204.761 151.716 204.566 151.716 204.335C151.716 204.151 151.752 203.971 151.824 203.796C151.899 203.621 152.006 203.466 152.146 203.331C152.286 203.196 152.459 203.087 152.664 203.005C152.87 202.924 153.105 202.883 153.371 202.883C153.67 202.883 153.945 202.93 154.197 203.023C154.449 203.116 154.664 203.247 154.841 203.415L154.607 203.859ZM160.02 202.939V208H159.537C159.463 208 159.4 207.988 159.348 207.965C159.299 207.939 159.251 207.897 159.205 207.839L156.562 204.465C156.576 204.619 156.583 204.761 156.583 204.892V208H155.754V202.939H156.247C156.287 202.939 156.321 202.941 156.349 202.946C156.379 202.948 156.405 202.955 156.426 202.967C156.449 202.976 156.471 202.991 156.492 203.012C156.513 203.031 156.537 203.057 156.562 203.089L159.215 206.477C159.208 206.396 159.202 206.315 159.198 206.236C159.193 206.157 159.191 206.083 159.191 206.015V202.939H160.02ZM162.092 203.688V205.091H163.863V205.816H162.092V207.247H164.339V208H161.147V202.939H164.339V203.688H162.092ZM167.347 206.04V208H166.409V206.04L164.565 202.939H165.394C165.476 202.939 165.54 202.959 165.587 202.998C165.636 203.038 165.677 203.088 165.709 203.149L166.633 204.839C166.687 204.94 166.734 205.034 166.773 205.123C166.815 205.212 166.853 205.3 166.885 205.389C166.916 205.3 166.951 205.212 166.99 205.123C167.03 205.034 167.075 204.94 167.127 204.839L168.047 203.149C168.073 203.098 168.111 203.05 168.163 203.005C168.214 202.961 168.279 202.939 168.359 202.939H169.192L167.347 206.04ZM174.092 207.223V208H171.128V202.939H172.069V207.223H174.092ZM175.709 208H174.764V202.939H175.709V208ZM181.179 202.939L179.135 208H178.285L176.241 202.939H176.997C177.078 202.939 177.145 202.959 177.196 202.998C177.247 203.038 177.286 203.089 177.312 203.152L178.505 206.239C178.545 206.34 178.582 206.451 178.617 206.572C178.654 206.691 178.689 206.816 178.722 206.946C178.75 206.816 178.78 206.691 178.813 206.572C178.846 206.451 178.882 206.34 178.922 206.239L180.108 203.152C180.127 203.099 180.163 203.05 180.217 203.005C180.273 202.961 180.34 202.939 180.42 202.939H181.179ZM182.648 203.688V205.091H184.419V205.816H182.648V207.247H184.895V208H181.703V202.939H184.895V203.688H182.648ZM185.565 205.525H187.378V206.246H185.565V205.525ZM191.015 206.089L190.399 204.405C190.368 204.331 190.337 204.242 190.304 204.139C190.272 204.037 190.239 203.926 190.206 203.807C190.176 203.926 190.144 204.038 190.112 204.143C190.079 204.246 190.048 204.335 190.017 204.412L189.405 206.089H191.015ZM192.677 208H191.949C191.868 208 191.801 207.98 191.75 207.94C191.698 207.898 191.66 207.847 191.634 207.786L191.256 206.754H189.16L188.782 207.786C188.763 207.84 188.727 207.889 188.673 207.933C188.62 207.978 188.553 208 188.474 208H187.739L189.73 202.939H190.689L192.677 208ZM196.526 206.806C196.577 206.806 196.623 206.826 196.663 206.866L197.034 207.268C196.828 207.523 196.575 207.718 196.274 207.853C195.975 207.988 195.616 208.056 195.196 208.056C194.82 208.056 194.482 207.992 194.181 207.863C193.882 207.735 193.627 207.557 193.415 207.328C193.202 207.099 193.039 206.826 192.925 206.509C192.813 206.192 192.757 205.845 192.757 205.469C192.757 205.089 192.817 204.741 192.939 204.426C193.06 204.109 193.23 203.836 193.45 203.607C193.671 203.379 193.935 203.201 194.241 203.075C194.546 202.947 194.885 202.883 195.256 202.883C195.624 202.883 195.951 202.944 196.236 203.065C196.523 203.186 196.766 203.345 196.967 203.541L196.652 203.978C196.633 204.006 196.609 204.031 196.579 204.052C196.551 204.073 196.511 204.083 196.46 204.083C196.425 204.083 196.388 204.074 196.351 204.055C196.314 204.034 196.273 204.01 196.229 203.982C196.184 203.952 196.133 203.919 196.075 203.884C196.016 203.849 195.949 203.817 195.872 203.789C195.795 203.759 195.705 203.735 195.602 203.716C195.502 203.695 195.385 203.684 195.252 203.684C195.026 203.684 194.818 203.725 194.629 203.807C194.442 203.886 194.281 204.003 194.146 204.157C194.011 204.309 193.906 204.495 193.831 204.717C193.756 204.936 193.719 205.187 193.719 205.469C193.719 205.754 193.759 206.007 193.838 206.229C193.92 206.451 194.029 206.637 194.167 206.789C194.305 206.941 194.467 207.057 194.654 207.139C194.84 207.218 195.041 207.258 195.256 207.258C195.384 207.258 195.499 207.251 195.602 207.237C195.707 207.223 195.803 207.201 195.889 207.17C195.978 207.14 196.061 207.102 196.138 207.055C196.217 207.006 196.295 206.946 196.372 206.876C196.395 206.855 196.42 206.839 196.446 206.827C196.471 206.813 196.498 206.806 196.526 206.806ZM201.214 203.712H199.688V208H198.746V203.712H197.22V202.939H201.214V203.712ZM202.821 208H201.876V202.939H202.821V208ZM208.78 205.469C208.78 205.84 208.719 206.185 208.595 206.502C208.474 206.817 208.301 207.09 208.077 207.321C207.853 207.552 207.583 207.733 207.268 207.863C206.953 207.992 206.603 208.056 206.218 208.056C205.836 208.056 205.487 207.992 205.172 207.863C204.857 207.733 204.586 207.552 204.36 207.321C204.136 207.09 203.962 206.817 203.838 206.502C203.715 206.185 203.653 205.84 203.653 205.469C203.653 205.098 203.715 204.755 203.838 204.44C203.962 204.123 204.136 203.849 204.36 203.618C204.586 203.387 204.857 203.207 205.172 203.079C205.487 202.948 205.836 202.883 206.218 202.883C206.475 202.883 206.717 202.913 206.943 202.974C207.169 203.032 207.377 203.116 207.566 203.226C207.755 203.333 207.924 203.465 208.073 203.621C208.225 203.775 208.353 203.948 208.458 204.139C208.563 204.331 208.643 204.538 208.696 204.762C208.752 204.986 208.78 205.222 208.78 205.469ZM207.818 205.469C207.818 205.192 207.781 204.943 207.706 204.724C207.631 204.502 207.525 204.314 207.387 204.16C207.25 204.006 207.082 203.889 206.883 203.807C206.687 203.725 206.466 203.684 206.218 203.684C205.971 203.684 205.748 203.725 205.55 203.807C205.354 203.889 205.186 204.006 205.046 204.16C204.908 204.314 204.802 204.502 204.727 204.724C204.653 204.943 204.615 205.192 204.615 205.469C204.615 205.747 204.653 205.997 204.727 206.218C204.802 206.438 204.908 206.624 205.046 206.778C205.186 206.93 205.354 207.047 205.55 207.128C205.748 207.21 205.971 207.251 206.218 207.251C206.466 207.251 206.687 207.21 206.883 207.128C207.082 207.047 207.25 206.93 207.387 206.778C207.525 206.624 207.631 206.438 207.706 206.218C207.781 205.997 207.818 205.747 207.818 205.469ZM213.874 202.939V208H213.391C213.316 208 213.253 207.988 213.202 207.965C213.153 207.939 213.105 207.897 213.058 207.839L210.416 204.465C210.43 204.619 210.437 204.761 210.437 204.892V208H209.607V202.939H210.101C210.14 202.939 210.174 202.941 210.202 202.946C210.233 202.948 210.258 202.955 210.279 202.967C210.303 202.976 210.325 202.991 210.346 203.012C210.367 203.031 210.39 203.057 210.416 203.089L213.069 206.477C213.062 206.396 213.056 206.315 213.051 206.236C213.047 206.157 213.044 206.083 213.044 206.015V202.939H213.874ZM166.871 213.347C167.048 213.347 167.202 213.325 167.333 213.28C167.466 213.236 167.574 213.175 167.658 213.098C167.744 213.019 167.809 212.926 167.851 212.818C167.893 212.711 167.914 212.593 167.914 212.465C167.914 212.208 167.828 212.011 167.658 211.873C167.49 211.736 167.232 211.667 166.885 211.667H166.283V213.347H166.871ZM169.293 216H168.442C168.281 216 168.164 215.937 168.092 215.811L167.028 214.19C166.988 214.13 166.944 214.087 166.895 214.061C166.848 214.035 166.778 214.023 166.685 214.023H166.283V216H165.341V210.939H166.885C167.228 210.939 167.522 210.975 167.767 211.047C168.014 211.117 168.216 211.217 168.372 211.345C168.531 211.473 168.647 211.627 168.722 211.807C168.797 211.984 168.834 212.18 168.834 212.395C168.834 212.565 168.808 212.726 168.757 212.878C168.708 213.03 168.636 213.167 168.54 213.291C168.447 213.415 168.33 213.523 168.19 213.616C168.052 213.71 167.895 213.783 167.718 213.837C167.778 213.872 167.834 213.914 167.886 213.963C167.937 214.01 167.984 214.066 168.026 214.131L169.293 216ZM170.784 211.688V213.091H172.555V213.816H170.784V215.247H173.031V216H169.839V210.939H173.031V211.688H170.784ZM179.354 210.939V216H178.524V212.731C178.524 212.6 178.531 212.459 178.545 212.307L177.016 215.181C176.943 215.319 176.832 215.387 176.683 215.387H176.55C176.401 215.387 176.29 215.319 176.218 215.181L174.671 212.297C174.678 212.374 174.683 212.45 174.688 212.524C174.693 212.599 174.695 212.668 174.695 212.731V216H173.866V210.939H174.576C174.618 210.939 174.654 210.94 174.685 210.942C174.715 210.945 174.742 210.951 174.765 210.96C174.791 210.969 174.813 210.984 174.832 211.005C174.853 211.026 174.872 211.054 174.891 211.089L176.407 213.9C176.446 213.975 176.482 214.052 176.515 214.131C176.55 214.21 176.584 214.292 176.617 214.376C176.649 214.29 176.683 214.207 176.718 214.127C176.753 214.046 176.79 213.968 176.83 213.893L178.325 211.089C178.343 211.054 178.363 211.026 178.384 211.005C178.405 210.984 178.427 210.969 178.451 210.96C178.476 210.951 178.504 210.945 178.535 210.942C178.565 210.94 178.601 210.939 178.643 210.939H179.354ZM183.157 214.089L182.541 212.405C182.51 212.331 182.479 212.242 182.446 212.139C182.414 212.037 182.381 211.926 182.348 211.807C182.318 211.926 182.286 212.038 182.254 212.143C182.221 212.246 182.19 212.335 182.159 212.412L181.547 214.089H183.157ZM184.819 216H184.091C184.01 216 183.943 215.98 183.892 215.94C183.84 215.898 183.802 215.847 183.776 215.786L183.398 214.754H181.302L180.924 215.786C180.905 215.84 180.869 215.889 180.815 215.933C180.762 215.978 180.695 216 180.616 216H179.881L181.872 210.939H182.831L184.819 216ZM186.285 213.06H186.505C186.594 213.06 186.667 213.048 186.726 213.025C186.784 212.999 186.834 212.96 186.876 212.906L188.273 211.138C188.331 211.064 188.392 211.012 188.455 210.984C188.52 210.954 188.602 210.939 188.7 210.939H189.512L187.807 213.042C187.707 213.171 187.603 213.262 187.496 213.315C187.573 213.343 187.641 213.383 187.702 213.434C187.765 213.483 187.825 213.549 187.881 213.63L189.638 216H188.808C188.696 216 188.612 215.985 188.556 215.954C188.502 215.922 188.457 215.875 188.42 215.814L186.988 213.945C186.944 213.882 186.892 213.838 186.834 213.812C186.776 213.787 186.692 213.774 186.582 213.774H186.285V216H185.343V210.939H186.285V213.06ZM191.087 211.688V213.091H192.858V213.816H191.087V215.247H193.334V216H190.142V210.939H193.334V211.688H191.087Z" fill="white"/>
<path d="M111.709 205L108.709 203.5L104.209 202.5L99.7095 202H93.2095V203.5H97.7095H99.7095L105.188 204.254L108.709 205L114.709 206.5L111.709 205Z" fill="#212121"/>
<path d="M65.7095 186.5H38.7095V228.5L39.2095 235L41.2095 237.5L44.2095 240L48.7095 241.5L54.2095 242.5H59.2095L66.7095 239L76.2095 235L86.7095 229.5L82.7095 224L78.7095 219.5L73.7095 217.5L65.7095 217V186.5Z" fill="#8D5524"/>
<path d="M120.5 209C119.68 207.614 117.36 207.578 114.5 206.5C112.592 205.781 110.687 205.496 108.709 205C105.253 204.134 101.056 203.733 97.5 203.5C94.3758 203.5 88.8307 203.368 85.7093 203.5C83.1657 203.608 81.7419 203.74 79.2093 204C73.2215 204.615 63.9998 206.5 63.9998 206.5L62.9998 218H70.0358L79.2093 219.833L78.7093 219.5L84.7093 223.5L93.7093 229L99.7093 231L105.209 232H111.209L115.209 230.5L118.209 228L119.709 225.5L120.709 223L120.709 218C120.709 218 121 215.562 121 214C121 212.5 121.32 210.386 120.5 209Z" fill="#8D5524"/>
<path d="M111.709 181L103.209 183.5L95.2095 186.5L93.2095 203.5H94.7095C94.7095 203.5 97.2461 204.391 99.0001 204.5C101.563 204.659 102.98 204.506 105.5 205C108.66 205.62 109.983 206.874 113 208C115.864 209.069 120.709 210 120.709 210C120.709 210 120.497 207.548 120.209 206C119.915 204.417 119.641 203.551 119.209 202C118.382 199.026 117.736 197.412 116.709 194.5C115.775 191.849 115.186 190.386 114.209 187.75C113.233 185.114 111.709 181 111.709 181Z" fill="#8D5524"/>
<path d="M39 146L31.2095 163.5C31.2095 163.5 28.7318 170.495 27.2095 175C24.9756 181.611 23.6018 185.284 21.7095 192C19.0502 201.439 16.2095 216.5 16.2095 216.5L13.7095 228L13.2095 232.5L27.8633 230L37.2095 228L39 221L38.7095 213L39 146Z" fill="#134E78"/>
<path d="M100.709 155L98.7095 164L96.7095 175.5L95.2095 186.5L103.209 183.5L111.709 181C111.709 181 110.531 177.026 109.709 174.5C109.328 173.326 109.137 172.659 108.709 171.5C108.345 170.513 108.092 169.98 107.709 169C107.103 167.446 106.833 166.547 106.209 165C105.654 163.621 105.332 162.851 104.709 161.5C103.978 159.914 103.676 158.954 102.709 157.5C102.017 156.459 100.709 155 100.709 155Z" fill="#134E78"/>
<path d="M91.7095 140L79.2095 131L75.2095 128L73.7095 126.5L72.0001 126L70.5001 130.5L69.2095 133L67.2095 137.5L64.2095 144L66.0001 148L66.7095 155.5L77.7095 161.5L86.2095 159L89.7095 149L91.7095 140Z" fill="#8D5524"/>
<path d="M67.7094 156.179C67.3536 152.597 68.1244 150.212 66.5001 147C65.489 145 64.4013 144.006 62.7094 142.537C59.8584 140.06 58.2459 139.479 54.5001 139C50.9113 138.54 48.5001 139 46.5001 139.5C44.5001 140 40.3872 142.537 39.0001 145C37.1892 148.215 36.7094 151.5 36.7094 155.168C36.7094 167.599 36.7094 187 36.7094 187L67.7094 186.5V170.326C67.7094 170.326 68.2556 161.676 67.7094 156.179Z" fill="#134E78"/>
<path d="M101 155.295C99.8646 153.285 98.7361 151.653 97.0001 150.131C97.0001 150.131 93.7858 147.668 92.6522 147.033C91.6964 146.497 90.0435 146 90.0435 146C90.0435 146 89.5411 148.558 89 150.131C88.4998 151.586 88.186 152.403 87.4348 153.746C86.5847 155.265 86.1015 156.176 84.8261 157.361C83.7531 158.358 83.0711 158.923 81.6957 159.426C80.3462 159.92 79.4807 159.878 78.0435 159.878C76.6064 159.878 75.7661 159.845 74.3913 159.426C73.0865 159.029 72.4149 158.604 71.2609 157.877C69.6786 156.88 68.9811 156.049 67.6087 154.779C66.557 153.805 65 152.197 65 152.197V209L78.0435 206.418L93.174 205.385C93.174 205.385 94.764 189.919 96.3044 180.082C97.8285 170.349 105.846 163.873 101 155.295Z" fill="#134E78"/>
<path d="M118.209 90.5L114.209 90L110.709 89L107.209 87L104.709 83L101.709 86.5L99.2094 88L96.2094 89H92.7094L88.7094 88.5L85.7094 87.5L81.2094 83L83.2094 89.5L83.7094 93.5L83.2094 97.5L78.2094 105.5V115.5L77.8552 114L77.2094 111.5V107.5L76.2094 105.5L73.5001 103.5L69.5001 102.5L65.5001 103.5L63.2094 106.5L61.7094 108.5L61.0001 112V114.5L62.0001 117L63.2094 119.5L65.0001 121.5L68.5001 123L72.7094 122.5L71.7094 126L74.7094 127.5L78.2094 131L81.2094 133.5C81.2094 133.5 83.2216 135.487 84.7094 136.5C86.5137 137.729 87.7338 138.071 89.7094 139C91.4498 139.818 92.3492 140.512 94.2094 141C95.7321 141.399 96.6385 141.397 98.2094 141.5C99.963 141.615 100.974 141.774 102.709 141.5C104.539 141.211 105.584 140.888 107.209 140C109.273 138.873 110.213 137.814 111.709 136C113.159 134.244 113.819 133.096 114.709 131C115.58 128.951 115.704 127.668 116.209 125.5C117.771 118.801 117.82 114.868 118.209 108C118.38 105 118.531 101.255 118.5 98C118.484 96.3103 118.529 95.2527 118.5 94C118.457 92.1774 118.209 90.5 118.209 90.5Z" fill="#8D5524"/>
<path d="M116.709 107.5H108.709C108.709 107.5 108.615 108.121 108.709 108.5C108.91 109.304 109.526 109.532 110.209 110C111.229 110.697 111.977 111.073 113.209 111C114.259 110.938 115.056 110.823 115.709 110C115.981 109.658 116.037 109.401 116.209 109C116.453 108.432 116.709 107.5 116.709 107.5Z" fill="#212121"/>
<path d="M108.21 99H106.71C106.71 99 106.372 102.077 106.71 104C106.849 104.793 107.014 105.219 107.21 106C107.405 106.781 107.469 107.232 107.71 108C108.024 109.003 108.327 109.52 108.71 110.5C109.316 112.054 109.99 112.846 110.21 114.5C110.338 115.468 110.34 116.032 110.21 117C110.102 117.798 110.142 118.321 109.71 119C109.413 119.466 108.647 120.226 107.71 120.5C106.96 120.719 106.08 120.623 105.71 120.5C105.186 120.325 104.884 120.024 104.71 119.5C104.586 119.13 104.661 118.888 104.71 118.5C104.786 117.887 105.113 117.61 105.21 117C105.301 116.421 105.21 115.5 105.21 115.5L104.21 117.5C104.21 117.5 103.786 118.387 103.71 119C103.661 119.388 103.625 119.872 103.71 120.253C103.794 120.635 104.792 121.372 105.21 121.5C105.956 121.73 107.222 121.568 108 121.5C108.655 121.443 110 120.753 110.5 120.253C111.285 119.468 111.361 119.201 111.71 118C112 117 111.929 116.349 111.71 115C111.442 113.353 110.772 112.571 110.21 111C109.377 108.675 108.464 107.457 108.21 105C108.089 103.835 108.21 102 108.21 102V99Z" fill="#212121"/>
<path d="M109.709 128C109.648 127.568 109.518 127.309 109.209 127C108.901 126.691 108.631 126.615 108.209 126.5C107.644 126.346 107.292 126.44 106.709 126.5C105.909 126.583 105.442 126.666 104.709 127C104.069 127.292 103.69 127.486 103.209 128C102.613 128.638 102.333 129.136 102.209 130C102.154 130.387 102.209 131 102.209 131C102.209 131 103.301 129.629 104.209 129C104.927 128.503 105.357 128.189 106.209 128C106.972 127.831 107.441 127.86 108.209 128C108.817 128.11 109.709 128.5 109.709 128.5C109.709 128.5 109.737 128.193 109.709 128Z" fill="#212121"/>
<path d="M101.325 108.546H90.2094C90.2094 108.546 90.1306 109.136 90.2094 109.5C90.3017 109.926 90.4072 110.185 90.7094 110.5C91.0115 110.815 93.8533 112.06 96 112C97.5388 111.957 98.5946 111.971 99.8247 111.046C100.266 110.714 100.528 110.512 100.825 110.046C101.156 109.525 101.325 108.546 101.325 108.546Z" fill="#212121"/>
<path d="M118.5 94.0001C118.5 94.0001 117.088 94.1696 116.209 94.0001C115.603 93.8832 115.277 93.7434 114.709 93.5001C114.308 93.3281 114.082 93.2278 113.709 93.0001C113.293 92.7456 113.1 92.543 112.709 92.2501C112.319 91.9572 112.168 91.6685 111.709 91.5001C111.159 91.2982 110.712 91.1988 110.209 91.5001C109.973 91.6422 109.879 91.7822 109.709 92.0001C109.441 92.3448 109.304 92.5739 109.209 93.0001C109.125 93.3814 109.209 93.6096 109.209 94.0001C109.209 94.5859 108.979 94.9617 109.209 95.5001C109.427 96.0078 109.609 96.1097 110 96.5002C110.391 96.8908 110.786 97.1449 111.209 97.5001C111.748 97.953 112.069 98.2079 112.709 98.5001C113.442 98.8344 113.91 98.9033 114.709 99.0001C115.485 99.0941 115.928 99.0001 116.709 99.0001C117.409 99.0001 118.5 99.0001 118.5 99.0001V95.5001V94.0001Z" fill="#212121"/>
<path d="M104.709 92.5C104.492 91.9924 104.163 91.8144 103.709 91.5C103.35 91.2515 103.412 91.1438 103 91.0001C101.566 90.5001 99.3571 92.5237 97.2092 93.5C95.0614 94.4763 93.7194 94.7648 91.7092 96C91.1094 96.3686 90.5106 96.3637 90.2092 97C89.9585 97.5294 90.1179 97.9214 90.2092 98.5C90.3055 99.1099 90.2877 99.5488 90.7092 100C91.2589 100.588 91.9042 100.5 92.7092 100.5C93.5143 100.5 93.9345 100.219 94.7092 100C95.8977 99.6643 96.5673 99.4702 97.7092 99C98.9204 98.5013 99.5749 98.1549 100.709 97.5C101.929 96.796 102.782 96.5597 103.709 95.5C104.173 94.9702 104.524 94.6792 104.709 94C104.863 93.4349 104.94 93.0384 104.709 92.5Z" fill="#212121"/>
<path d="M121.209 72.4999C118.605 70.0292 117.49 68.271 114.709 65.9999C111.648 63.4986 109.837 62.0729 106.209 60.4999C103.773 59.4433 102.297 59.1005 99.7095 58.4999C97.3955 57.9628 96.0671 57.7902 93.7095 57.4999C91.1826 57.1889 89.7538 57.0894 87.2095 56.9999C85.0629 56.9245 83.8461 56.7803 81.7095 56.9999C79.118 57.2663 77.6102 57.4885 75.2095 58.4999C72.8633 59.4884 71.6579 60.3612 69.7095 61.9999C68.4415 63.0664 67.3791 63.4844 66.7095 64.9999C66.3071 65.9106 66.2095 67.4999 66.2095 67.4999C66.2095 67.4999 64.0447 67.2078 62.7095 67.4999C61.6822 67.7246 61.1247 67.9822 60.2095 68.4999C59.1213 69.1156 58.6748 69.7054 57.7095 70.4999C56.3195 71.6439 55.3858 72.1372 54.2095 73.4999C53.0057 74.8943 52.5169 75.8442 51.7095 77.4999C50.9782 78.9995 50.6888 79.9019 50.2095 81.4999C49.6923 83.2243 49.392 84.209 49.2095 85.9999C49.0511 87.554 49.1639 88.4385 49.2095 89.9999C49.2838 92.5448 49.2738 93.9916 49.7095 96.4999C50.196 99.3011 50.9469 100.761 51.7095 103.5C52.3066 105.645 52.6123 106.855 53.2095 109C53.972 111.739 54.2096 113.338 55.2095 116C56.0392 118.209 56.5214 119.462 57.7095 121.5C58.4185 122.716 58.7935 123.43 59.7095 124.5C60.8805 125.867 61.6817 126.548 63.2095 127.5C64.9942 128.612 66.2739 128.678 68.2095 129.5C69.1078 129.882 70.5001 130.5 70.5001 130.5L72.0001 126L72.7095 122.5C72.7095 122.5 68.9286 121.953 66.7095 121C65.9071 120.655 65.4094 120.522 64.7095 120C63.7073 119.252 63.2396 118.632 62.7095 117.5C62.4476 116.941 62.3719 116.596 62.2095 116C61.8462 114.668 61.7678 113.879 61.7095 112.5C61.6847 111.915 61.6492 111.583 61.7095 111C61.7923 110.199 62.2095 109 62.2095 109L62.7095 108C62.7095 108 63.24 107.025 63.7095 106.5C64.3605 105.772 64.8767 105.509 65.7095 105C66.978 104.224 67.7333 103.68 69.2095 103.5C70.5801 103.333 71.4594 103.414 72.7095 104C73.3469 104.299 73.6614 104.558 74.2095 105C74.8543 105.52 75.289 105.786 75.7095 106.5C76.3123 107.523 75.9746 108.336 76.2095 109.5C76.5278 111.078 76.9149 111.917 77.2095 113.5C77.4975 115.048 77.7095 117.5 77.7095 117.5L80.2095 117C80.2095 117 78.1552 110.91 78.7095 107C79.2857 102.935 82.2855 101.5 83.2095 97.4999C83.4768 96.3427 83.6211 95.6844 83.7095 94.4999C83.7821 93.5263 83.7727 92.9742 83.7095 91.9999C83.5804 90.0128 83.1 88.9526 82.7095 86.9999C82.5142 86.0236 82.2095 84.4999 82.2095 84.4999C82.2095 84.4999 82.9819 85.8489 83.7095 86.4999C84.6856 87.3733 85.4983 87.5012 86.7095 87.9999C87.8514 88.4701 88.4944 88.779 89.7095 88.9999C91.2464 89.2794 92.1474 88.9999 93.7095 88.9999C94.881 88.9999 95.5522 89.1827 96.7095 88.9999C97.9293 88.8073 98.6267 88.5937 99.7095 87.9999C100.566 87.5305 100.964 87.1306 101.709 86.4999C102.763 85.6081 104.209 83.9999 104.209 83.9999C104.209 83.9999 104.707 85.2859 105.209 85.9999C106.425 87.7269 107.829 88.0375 109.709 88.9999C111.744 90.0414 112.98 90.4952 115.209 90.9999C117.882 91.6052 119.476 91.6932 122.209 91.4999C123.587 91.4026 124.459 91.5861 125.709 90.9999C126.347 90.7011 126.685 90.4694 127.209 89.9999C127.937 89.3489 128.709 87.9999 128.709 87.9999C128.709 87.9999 127.459 88.2193 126.709 87.9999C125.772 87.7257 124.709 86.4999 124.709 86.4999C124.709 86.4999 126.254 86.2812 127.209 85.9999C128.218 85.7028 128.795 85.5196 129.709 84.9999C130.558 84.5174 130.978 84.1469 131.709 83.4999C133.377 82.0246 135.209 78.9999 135.209 78.9999C135.209 78.9999 129.703 79.0499 126.709 77.4999C124.132 76.1651 123.315 74.4978 121.209 72.4999Z" fill="#212121"/>
</g>
<defs>
<clipPath id="clip0_276_359">
<rect width="248" height="219" fill="white"/>
</clipPath>
</defs>
</svg>
