<svg width="229" height="220" viewBox="0 0 229 220" fill="none" xmlns="http://www.w3.org/2000/svg">
<rect width="229" height="219" transform="translate(0 0.75)" fill="white"/>
<path d="M113.486 71.246C113.486 80.9021 113.486 113.207 113.486 113.207C113.486 113.207 113.486 117.654 93.3563 117.654C71.5249 117.654 71.5249 113.207 71.5249 113.207C71.5249 113.207 71.5249 80.9021 71.5249 71.246C71.5249 61.5899 82.8495 51.1395 92.5056 51.1395C102.162 51.1395 113.486 61.5899 113.486 71.246Z" fill="#002642"/>
<mask id="mask0_8642_1529" style="mask-type:alpha" maskUnits="userSpaceOnUse" x="71" y="51" width="43" height="67">
<path d="M113.486 71.246C113.486 80.9021 113.486 113.207 113.486 113.207C113.486 113.207 113.486 117.654 93.3563 117.654C71.5249 117.654 71.5249 113.207 71.5249 113.207C71.5249 113.207 71.5249 80.9021 71.5249 71.246C71.5249 61.5899 82.8495 51.1395 92.5056 51.1395C102.162 51.1395 113.486 61.5899 113.486 71.246Z" fill="#002642"/>
</mask>
<g mask="url(#mask0_8642_1529)">
<mask id="mask1_8642_1529" style="mask-type:alpha" maskUnits="userSpaceOnUse" x="71" y="51" width="43" height="63">
<path d="M113.486 71.246C113.486 80.9021 113.486 113.207 113.486 113.207C108.307 113.207 71.5249 113.207 71.5249 113.207C71.5249 113.207 71.5249 80.9021 71.5249 71.246C71.5249 61.5899 82.8495 51.1395 92.5056 51.1395C102.162 51.1395 113.486 61.5899 113.486 71.246Z" fill="#134E78"/>
</mask>
<g mask="url(#mask1_8642_1529)">
<path d="M103.87 51.5768L102.559 55.0736L92.5055 76.0543L81.578 51.5768L92.5055 47.6429L103.87 51.5768Z" fill="white"/>
<mask id="mask2_8642_1529" style="mask-type:alpha" maskUnits="userSpaceOnUse" x="81" y="47" width="23" height="30">
<path d="M103.87 51.5768L102.559 55.0736L92.5055 76.0543L81.578 51.5768L92.5055 47.6429L103.87 51.5768Z" fill="white"/>
</mask>
<g mask="url(#mask2_8642_1529)">
<path d="M89.4457 52.8882C89.4457 48.9543 95.5651 48.9543 95.5651 52.8882C95.5651 56.822 94.2538 58.1333 94.2538 58.1333H90.757C90.757 58.1333 89.4457 56.822 89.4457 52.8882Z" fill="#4A8EBF"/>
<path d="M89.0086 77.3655H96.0022L94.2538 58.1332H90.757L89.0086 77.3655Z" fill="#4A8EBF"/>
</g>
<path d="M98.1876 58.1332L92.9425 52.888H92.0683L86.8231 58.1332L83.3263 52.0138L92.9425 49.3912L97.3135 50.9211L101.684 52.4509L98.1876 58.1332Z" fill="#F5F5F5"/>
<path d="M92.5054 76.4913L99.9479 52.8881L103.637 54.6035L106.493 59.3208L102.034 60.6074L105.502 63.1805L92.5054 76.4913Z" fill="#134E78"/>
<path d="M92.5054 76.4913L85.0629 52.8881L81.374 54.6035L78.5183 59.3208L82.9767 60.6074L79.509 63.1805L92.5054 76.4913Z" fill="#134E78"/>
</g>
</g>
<path d="M73.6635 79.5391C74.725 84.6119 71.2566 90.0608 74.3063 90.9736C74.5071 92.8568 73.4912 95.6739 69.852 96.6909C66.0217 97.7612 66.8655 98.518 63.7744 96.0155C58.2497 91.5428 60.1973 80.3279 62.8641 73.1866C65.531 66.0453 72.3929 57.9406 80.2004 56.0349C80.2004 56.0349 78.11 59.2111 76.2044 62.3874C74.2987 65.5636 73.0281 67.115 73.0281 69.3751L73.0281 69.4506C73.028 71.7413 73.0279 76.5017 73.6635 79.5391Z" fill="#134E78"/>
<path d="M72.6521 86.3732C74.0177 90.4982 75.621 95.2003 71.4959 96.566C67.3709 97.9316 59.0795 95.4436 57.7139 91.3186C56.3483 87.1935 58.5852 82.7424 62.7103 81.3768C66.8353 80.0111 71.2864 82.2481 72.6521 86.3732Z" fill="#CFD4E3"/>
<circle cx="92.5054" cy="35.4038" r="17.4839" fill="#CFD4E3"/>
<path d="M49.9614 89.033C49.9614 98.6891 49.9614 130.994 49.9614 130.994C49.9614 130.994 49.9614 135.441 29.8314 135.441C8 135.441 8 130.994 8 130.994C8 130.994 8 98.6891 8 89.033C8 79.3769 19.3246 68.9265 28.9807 68.9265C38.6368 68.9265 49.9614 79.3769 49.9614 89.033Z" fill="#002642"/>
<mask id="mask3_8642_1529" style="mask-type:alpha" maskUnits="userSpaceOnUse" x="8" y="68" width="42" height="63">
<path d="M49.9614 89.033C49.9614 98.6891 49.9614 130.994 49.9614 130.994C44.7819 130.994 8 130.994 8 130.994C8 130.994 8 98.6891 8 89.033C8 79.3769 19.3246 68.9265 28.9807 68.9265C38.6368 68.9265 49.9614 79.3769 49.9614 89.033Z" fill="#134E78"/>
</mask>
<g mask="url(#mask3_8642_1529)">
<path d="M44.1598 63.2632L44.5233 66.98L44.9385 90.631L24.1482 73.085L32.2246 64.739L44.1598 63.2632Z" fill="white"/>
<mask id="mask4_8642_1529" style="mask-type:alpha" maskUnits="userSpaceOnUse" x="8" y="68" width="42" height="68">
<path d="M49.9622 89.0333C49.9622 98.6894 49.9622 130.995 49.9622 130.995C49.9622 130.995 49.9622 135.441 29.8323 135.441C8.00082 135.441 8.00082 130.995 8.00082 130.995C8.00082 130.995 8.00082 98.6894 8.00082 89.0333C8.00082 79.3772 19.3254 68.9268 28.9815 68.9268C38.6376 68.9268 49.9622 79.3772 49.9622 89.0333Z" fill="#002642"/>
</mask>
<g mask="url(#mask4_8642_1529)">
<mask id="mask5_8642_1529" style="mask-type:alpha" maskUnits="userSpaceOnUse" x="24" y="63" width="26" height="28">
<path d="M44.1598 63.2632L49.525 73.085L44.9385 90.631L24.1482 73.085L32.2246 64.739L44.1598 63.2632Z" fill="white"/>
</mask>
<g mask="url(#mask5_8642_1529)">
<path d="M30.6221 71.0074C28.7502 67.1935 34.2436 64.4973 36.1155 68.3113C37.9875 72.1252 37.3941 72.6219 37.3941 72.6219L34.255 74.1626C34.255 74.1626 32.4941 74.8214 30.6221 71.0074Z" fill="#4A8EBF"/>
<path d="M42.181 92.9616L48.4592 91.1507C48.4592 91.1507 45.4179 82.5507 42.5371 78.9043C40.4808 76.3013 37.1454 72.1152 37.1454 72.1152L34.0063 73.6559C34.0063 73.6559 37.2427 78.648 38.7289 81.403C40.9655 85.5491 42.181 92.9616 42.181 92.9616Z" fill="#4A8EBF"/>
</g>
<path d="M50.7374 72.9608L44.9353 90.6362C44.9353 90.6362 45.6689 81.3505 43.1725 76.3631C41.4058 72.8332 36.185 69.3754 36.185 69.3754L45.2842 66.0829L49.9262 69.0594L46.4908 72.1787L50.7374 72.9608Z" fill="#134E78"/>
<path d="M40.6767 71.6524L33.657 69.2548L32.8723 69.64L29.8319 76.3631L20.9387 70.0106L33.3868 66.1158L37.9847 65.5633L42.5826 65.0107L40.6767 71.6524Z" fill="#F5F5F5"/>
<path d="M44.9348 90.6361C44.9348 90.6361 39.5055 83.609 35.5492 79.5394C31.3846 75.2555 22.2092 70.0107 22.2092 70.0107L20.3032 71.2811C20.3032 71.2811 23.4904 74.4974 24.0278 77.1623C24.4535 79.2733 24.8132 81.3848 24.8132 81.3848L29.3824 80.5754L27.4032 84.4131L44.9348 90.6361Z" fill="#134E78"/>
</g>
</g>
<circle cx="28.9805" cy="53.1909" r="17.4839" fill="#CFD4E3"/>
<path d="M36.1839 95.4204C31.1019 94.404 26.6552 83.3506 24.7496 81.4449C20.9379 80.1744 18.082 82.2029 15.8561 85.2564C13.5134 88.4702 14.7126 93.1337 16.4912 96.6909C18.3969 100.502 26.0202 109.396 33.6432 109.396C41.2662 109.396 55.4534 103.467 60.3237 100.502L52.4676 91.2624L52.4569 91.2674C49.6931 92.543 41.2594 96.4354 36.1839 95.4204Z" fill="#134E78"/>
<path d="M50.365 86.17C50.3444 83.0788 56.6991 85.1969 57.5016 83.4173L71.0492 86.7296C73.8656 90.3175 77.949 96.8091 71.7518 99.1543C64.0053 102.086 63.2957 103.041 58.4138 101.076C53.8808 99.2512 50.3959 90.7946 50.365 86.17Z" fill="#E6E8EE"/>
<path d="M77.755 84.765C76.7763 94.981 77.183 96.1859 71.1226 97.9615C65.0623 99.737 59.3391 98.7267 57.5636 92.6664C55.788 86.606 59.2616 80.2538 65.322 78.4782C71.3823 76.7027 78.7337 74.549 77.755 84.765Z" fill="#E6E8EE"/>
<path d="M57.9747 85.7333C56.2872 90.0908 55.0809 94.0671 53.1179 93.3069C51.1549 92.5467 48.9671 85.9176 51.3009 82.5861C53.6347 79.2546 54.1238 78.0666 57.9019 78.0043C60.5387 77.9608 65.3981 76.6701 64.0292 80.8429C63.6942 81.864 58.885 84.1681 57.9747 85.7333Z" fill="#E6E8EE"/>
<path d="M77.7877 93.9736C77.1546 91.966 76.6414 90.3386 66.3421 93.5863C56.0428 96.834 56.8772 97.8323 57.5102 99.8399C57.891 101.047 59.6258 104.091 62.4016 103.943C64.2408 103.844 66.3678 101.571 68.6346 100.856C74.3228 99.0627 78.4207 95.9812 77.7877 93.9736Z" fill="#CFD4E3"/>
<path d="M65.6067 78.9542C66.4543 80.7751 61.6832 86.8051 59.2723 86.5764C56.8614 86.3478 56.5725 83.8232 56.4283 82.5612C56.2842 81.2992 56.8193 79.1611 59.0788 77.7824C62.3935 75.7599 64.7591 77.1333 65.6067 78.9542Z" fill="#CFD4E3"/>
<path d="M79.61 28.315L199.73 1.75V121.87L79.61 148.435V28.315Z" fill="#E1F0FD" fill-opacity="0.6"/>
<mask id="mask6_8642_1529" style="mask-type:alpha" maskUnits="userSpaceOnUse" x="79" y="1" width="121" height="148">
<path d="M79.61 28.315L199.73 1.75V121.87L79.61 148.435V28.315Z" fill="#D9D9D9" fill-opacity="0.7"/>
</mask>
<g mask="url(#mask6_8642_1529)">
<rect x="161.433" y="-13.1108" width="13.86" height="184.8" transform="rotate(38.4839 161.433 -13.1108)" fill="white"/>
<rect x="191.401" y="-20.402" width="7.04762" height="193.419" transform="rotate(38.4839 191.401 -20.402)" fill="white"/>
<rect x="214.422" y="13.3" width="16.8046" height="224.061" transform="rotate(38.4839 214.422 13.3)" fill="white"/>
</g>
<path d="M212.816 111.671C212.816 121.327 212.816 153.632 212.816 153.632C212.816 153.632 212.816 158.079 192.686 158.079C170.855 158.079 170.855 153.632 170.855 153.632C170.855 153.632 170.855 121.327 170.855 111.671C170.855 102.015 182.18 91.5645 191.836 91.5645C201.492 91.5645 212.816 102.015 212.816 111.671Z" fill="#840032"/>
<circle cx="191.836" cy="75.8289" r="17.4839" fill="#CFD4E3"/>
<path d="M60.15 166.601H55.1142V180.75H52.0072V166.601H46.9714V164.049H60.15V166.601ZM62.2526 170.956C62.6222 170.247 63.0611 169.693 63.5693 169.292C64.0775 168.884 64.6781 168.68 65.3711 168.68C65.9178 168.68 66.3567 168.8 66.6878 169.038L66.503 171.175C66.4645 171.314 66.4067 171.414 66.3297 171.475C66.2604 171.529 66.1642 171.556 66.041 171.556C65.9255 171.556 65.7522 171.537 65.5212 171.498C65.2979 171.46 65.0785 171.441 64.8629 171.441C64.5472 171.441 64.2661 171.487 64.0197 171.579C63.7733 171.672 63.55 171.806 63.3498 171.984C63.1573 172.153 62.9841 172.361 62.8301 172.607C62.6838 172.854 62.5452 173.135 62.4143 173.45V180.75H59.5614V168.9H61.2362C61.5288 168.9 61.7328 168.954 61.8483 169.061C61.9638 169.161 62.0408 169.346 62.0793 169.616L62.2526 170.956ZM74.281 175.691C73.4571 175.73 72.7641 175.803 72.202 175.911C71.6399 176.011 71.1895 176.142 70.8507 176.303C70.5119 176.465 70.2693 176.654 70.123 176.869C69.9767 177.085 69.9036 177.32 69.9036 177.574C69.9036 178.074 70.0499 178.432 70.3425 178.648C70.6428 178.863 71.0316 178.971 71.509 178.971C72.0942 178.971 72.5986 178.867 73.0221 178.659C73.4533 178.444 73.8729 178.12 74.281 177.689V175.691ZM67.7437 170.551C69.1066 169.304 70.7467 168.68 72.664 168.68C73.357 168.68 73.9769 168.796 74.5236 169.027C75.0703 169.25 75.5323 169.566 75.9096 169.974C76.2869 170.374 76.5718 170.855 76.7643 171.418C76.9645 171.98 77.0646 172.596 77.0646 173.266V180.75H75.771C75.5015 180.75 75.2936 180.711 75.1473 180.634C75.001 180.55 74.8855 180.384 74.8008 180.138L74.5467 179.283C74.2464 179.553 73.9538 179.791 73.6689 179.999C73.384 180.199 73.0875 180.369 72.7795 180.507C72.4715 180.646 72.1404 180.75 71.7862 180.819C71.4397 180.896 71.0547 180.935 70.6312 180.935C70.1307 180.935 69.6687 180.869 69.2452 180.738C68.8217 180.6 68.456 180.396 68.148 180.126C67.84 179.857 67.6013 179.522 67.4319 179.121C67.2625 178.721 67.1778 178.255 67.1778 177.724C67.1778 177.424 67.2278 177.127 67.3279 176.835C67.428 176.534 67.5897 176.249 67.813 175.98C68.044 175.71 68.3405 175.456 68.7024 175.218C69.0643 174.979 69.507 174.771 70.0306 174.594C70.5619 174.417 71.1779 174.274 71.8786 174.166C72.5793 174.051 73.3801 173.982 74.281 173.959V173.266C74.281 172.472 74.1116 171.887 73.7728 171.51C73.434 171.125 72.9451 170.932 72.306 170.932C71.844 170.932 71.459 170.986 71.151 171.094C70.8507 171.202 70.585 171.325 70.354 171.464C70.123 171.595 69.9113 171.714 69.7188 171.822C69.534 171.93 69.3261 171.984 69.0951 171.984C68.8949 171.984 68.7255 171.933 68.5869 171.833C68.4483 171.726 68.3366 171.602 68.2519 171.464L67.7437 170.551ZM82.4194 170.355C82.6581 170.116 82.9084 169.897 83.1702 169.697C83.4397 169.489 83.7207 169.315 84.0133 169.177C84.3136 169.031 84.6332 168.919 84.972 168.842C85.3108 168.757 85.6804 168.715 86.0808 168.715C86.7276 168.715 87.3012 168.827 87.8017 169.05C88.3022 169.265 88.718 169.573 89.0491 169.974C89.3879 170.367 89.642 170.84 89.8114 171.394C89.9885 171.941 90.0771 172.546 90.0771 173.208V180.75H87.2242V173.208C87.2242 172.484 87.0587 171.926 86.7276 171.533C86.3965 171.133 85.8921 170.932 85.2145 170.932C84.7217 170.932 84.2597 171.044 83.8285 171.267C83.3973 171.491 82.9892 171.795 82.6042 172.18V180.75H79.7514V168.9H81.4954C81.865 168.9 82.1076 169.073 82.2231 169.419L82.4194 170.355ZM100.021 171.21C99.9435 171.333 99.8627 171.421 99.778 171.475C99.6933 171.522 99.5855 171.545 99.4546 171.545C99.316 171.545 99.1658 171.506 99.0041 171.429C98.8501 171.352 98.6692 171.267 98.4613 171.175C98.2534 171.075 98.0147 170.986 97.7452 170.909C97.4834 170.832 97.1715 170.794 96.8096 170.794C96.2475 170.794 95.8048 170.913 95.4814 171.152C95.1657 171.391 95.0078 171.702 95.0078 172.087C95.0078 172.342 95.0887 172.557 95.2504 172.734C95.4198 172.904 95.6392 173.054 95.9087 173.185C96.1859 173.316 96.4978 173.435 96.8443 173.543C97.1908 173.643 97.5411 173.755 97.8953 173.878C98.2572 174.001 98.6114 174.143 98.9579 174.305C99.3044 174.459 99.6124 174.659 99.882 174.906C100.159 175.144 100.379 175.433 100.54 175.772C100.71 176.111 100.794 176.519 100.794 176.996C100.794 177.566 100.69 178.093 100.483 178.579C100.282 179.056 99.982 179.472 99.5816 179.826C99.1812 180.172 98.6846 180.446 98.0917 180.646C97.5065 180.839 96.8289 180.935 96.0589 180.935C95.6508 180.935 95.2504 180.896 94.8577 180.819C94.4727 180.75 94.0992 180.65 93.7373 180.519C93.3831 180.388 93.052 180.234 92.744 180.057C92.4437 179.88 92.1781 179.687 91.9471 179.479L92.6054 178.394C92.6901 178.263 92.7902 178.163 92.9057 178.093C93.0212 178.024 93.1675 177.99 93.3446 177.99C93.5217 177.99 93.6873 178.04 93.8413 178.14C94.003 178.24 94.1878 178.348 94.3957 178.463C94.6036 178.579 94.8461 178.686 95.1233 178.786C95.4082 178.887 95.7663 178.937 96.1975 178.937C96.5363 178.937 96.825 178.898 97.0637 178.821C97.3101 178.736 97.5103 178.629 97.6643 178.498C97.826 178.367 97.9415 178.217 98.0108 178.047C98.0878 177.87 98.1263 177.689 98.1263 177.504C98.1263 177.227 98.0416 177 97.8722 176.823C97.7105 176.646 97.4911 176.492 97.2139 176.361C96.9444 176.23 96.6325 176.115 96.2783 176.014C95.9318 175.907 95.5738 175.791 95.2042 175.668C94.8423 175.545 94.4842 175.402 94.13 175.241C93.7835 175.071 93.4717 174.859 93.1945 174.605C92.925 174.351 92.7055 174.039 92.5361 173.67C92.3744 173.3 92.2936 172.854 92.2936 172.33C92.2936 171.845 92.3898 171.383 92.5823 170.944C92.7748 170.505 93.0559 170.124 93.4255 169.801C93.8028 169.469 94.2686 169.208 94.823 169.015C95.3851 168.815 96.0319 168.715 96.7634 168.715C97.5796 168.715 98.3227 168.85 98.9926 169.119C99.6625 169.389 100.221 169.743 100.667 170.182L100.021 171.21ZM105.794 177.678C106.118 178.07 106.468 178.348 106.846 178.509C107.231 178.671 107.646 178.752 108.093 178.752C108.524 178.752 108.913 178.671 109.259 178.509C109.606 178.348 109.899 178.101 110.137 177.77C110.384 177.439 110.572 177.023 110.703 176.523C110.834 176.014 110.9 175.418 110.9 174.732C110.9 174.039 110.842 173.454 110.726 172.977C110.619 172.492 110.461 172.099 110.253 171.799C110.045 171.498 109.791 171.279 109.49 171.14C109.198 171.002 108.863 170.932 108.486 170.932C107.893 170.932 107.388 171.06 106.973 171.314C106.557 171.56 106.164 171.91 105.794 172.365V177.678ZM105.644 170.517C106.129 169.97 106.68 169.527 107.296 169.188C107.912 168.85 108.636 168.68 109.467 168.68C110.114 168.68 110.703 168.815 111.235 169.084C111.774 169.354 112.236 169.747 112.621 170.263C113.013 170.771 113.314 171.402 113.521 172.157C113.737 172.904 113.845 173.762 113.845 174.732C113.845 175.618 113.725 176.438 113.487 177.193C113.248 177.947 112.905 178.602 112.459 179.156C112.02 179.71 111.485 180.146 110.853 180.461C110.23 180.769 109.529 180.923 108.751 180.923C108.089 180.923 107.523 180.823 107.053 180.623C106.584 180.415 106.164 180.13 105.794 179.768V184.619H102.942V168.9H104.686C105.055 168.9 105.298 169.073 105.413 169.419L105.644 170.517ZM122.331 175.691C121.507 175.73 120.814 175.803 120.252 175.911C119.69 176.011 119.239 176.142 118.9 176.303C118.562 176.465 118.319 176.654 118.173 176.869C118.027 177.085 117.953 177.32 117.953 177.574C117.953 178.074 118.1 178.432 118.392 178.648C118.693 178.863 119.081 178.971 119.559 178.971C120.144 178.971 120.648 178.867 121.072 178.659C121.503 178.444 121.923 178.12 122.331 177.689V175.691ZM115.794 170.551C117.156 169.304 118.797 168.68 120.714 168.68C121.407 168.68 122.027 168.796 122.573 169.027C123.12 169.25 123.582 169.566 123.959 169.974C124.337 170.374 124.622 170.855 124.814 171.418C125.014 171.98 125.114 172.596 125.114 173.266V180.75H123.821C123.551 180.75 123.343 180.711 123.197 180.634C123.051 180.55 122.935 180.384 122.851 180.138L122.596 179.283C122.296 179.553 122.004 179.791 121.719 179.999C121.434 180.199 121.137 180.369 120.829 180.507C120.521 180.646 120.19 180.75 119.836 180.819C119.49 180.896 119.105 180.935 118.681 180.935C118.181 180.935 117.719 180.869 117.295 180.738C116.872 180.6 116.506 180.396 116.198 180.126C115.89 179.857 115.651 179.522 115.482 179.121C115.312 178.721 115.228 178.255 115.228 177.724C115.228 177.424 115.278 177.127 115.378 176.835C115.478 176.534 115.64 176.249 115.863 175.98C116.094 175.71 116.39 175.456 116.752 175.218C117.114 174.979 117.557 174.771 118.08 174.594C118.612 174.417 119.228 174.274 119.928 174.166C120.629 174.051 121.43 173.982 122.331 173.959V173.266C122.331 172.472 122.161 171.887 121.823 171.51C121.484 171.125 120.995 170.932 120.356 170.932C119.894 170.932 119.509 170.986 119.201 171.094C118.9 171.202 118.635 171.325 118.404 171.464C118.173 171.595 117.961 171.714 117.769 171.822C117.584 171.93 117.376 171.984 117.145 171.984C116.945 171.984 116.775 171.933 116.637 171.833C116.498 171.726 116.386 171.602 116.302 171.464L115.794 170.551ZM130.492 170.956C130.862 170.247 131.301 169.693 131.809 169.292C132.317 168.884 132.918 168.68 133.611 168.68C134.158 168.68 134.596 168.8 134.928 169.038L134.743 171.175C134.704 171.314 134.646 171.414 134.569 171.475C134.5 171.529 134.404 171.556 134.281 171.556C134.165 171.556 133.992 171.537 133.761 171.498C133.538 171.46 133.318 171.441 133.103 171.441C132.787 171.441 132.506 171.487 132.259 171.579C132.013 171.672 131.79 171.806 131.59 171.984C131.397 172.153 131.224 172.361 131.07 172.607C130.924 172.854 130.785 173.135 130.654 173.45V180.75H127.801V168.9H129.476C129.769 168.9 129.973 168.954 130.088 169.061C130.204 169.161 130.281 169.346 130.319 169.616L130.492 170.956ZM143.715 173.462C143.715 173.092 143.661 172.746 143.553 172.422C143.453 172.091 143.299 171.803 143.091 171.556C142.883 171.31 142.617 171.117 142.294 170.979C141.978 170.832 141.609 170.759 141.185 170.759C140.361 170.759 139.711 170.994 139.233 171.464C138.764 171.933 138.463 172.6 138.332 173.462H143.715ZM138.275 175.183C138.321 175.791 138.429 176.319 138.598 176.765C138.767 177.204 138.991 177.57 139.268 177.862C139.545 178.147 139.872 178.363 140.25 178.509C140.635 178.648 141.058 178.717 141.52 178.717C141.982 178.717 142.379 178.663 142.71 178.555C143.049 178.448 143.341 178.328 143.588 178.197C143.842 178.067 144.061 177.947 144.246 177.839C144.439 177.732 144.623 177.678 144.8 177.678C145.039 177.678 145.216 177.766 145.332 177.943L146.152 178.983C145.836 179.352 145.482 179.664 145.089 179.918C144.696 180.165 144.285 180.365 143.853 180.519C143.43 180.665 142.995 180.769 142.548 180.831C142.109 180.892 141.682 180.923 141.266 180.923C140.442 180.923 139.676 180.788 138.968 180.519C138.259 180.242 137.643 179.838 137.12 179.306C136.596 178.767 136.184 178.105 135.884 177.32C135.584 176.527 135.433 175.61 135.433 174.571C135.433 173.762 135.564 173.004 135.826 172.295C136.088 171.579 136.461 170.959 136.946 170.436C137.439 169.905 138.036 169.485 138.737 169.177C139.445 168.869 140.242 168.715 141.128 168.715C141.874 168.715 142.564 168.834 143.195 169.073C143.826 169.312 144.369 169.662 144.824 170.124C145.278 170.578 145.632 171.14 145.886 171.81C146.148 172.472 146.279 173.231 146.279 174.086C146.279 174.517 146.233 174.809 146.14 174.963C146.048 175.11 145.871 175.183 145.609 175.183H138.275ZM151.088 170.355C151.327 170.116 151.577 169.897 151.839 169.697C152.108 169.489 152.389 169.315 152.682 169.177C152.982 169.031 153.302 168.919 153.64 168.842C153.979 168.757 154.349 168.715 154.749 168.715C155.396 168.715 155.97 168.827 156.47 169.05C156.971 169.265 157.386 169.573 157.718 169.974C158.056 170.367 158.31 170.84 158.48 171.394C158.657 171.941 158.745 172.546 158.745 173.208V180.75H155.893V173.208C155.893 172.484 155.727 171.926 155.396 171.533C155.065 171.133 154.561 170.932 153.883 170.932C153.39 170.932 152.928 171.044 152.497 171.267C152.066 171.491 151.658 171.795 151.273 172.18V180.75H148.42V168.9H150.164C150.533 168.9 150.776 169.073 150.891 169.419L151.088 170.355ZM169.948 171.406C169.863 171.514 169.778 171.599 169.694 171.66C169.617 171.722 169.501 171.753 169.347 171.753C169.201 171.753 169.058 171.71 168.92 171.625C168.781 171.533 168.616 171.433 168.423 171.325C168.231 171.21 168 171.11 167.73 171.025C167.468 170.932 167.141 170.886 166.749 170.886C166.248 170.886 165.809 170.979 165.432 171.163C165.054 171.341 164.739 171.599 164.485 171.937C164.238 172.276 164.053 172.688 163.93 173.173C163.807 173.651 163.745 174.193 163.745 174.802C163.745 175.433 163.811 175.995 163.942 176.488C164.08 176.981 164.277 177.397 164.531 177.735C164.785 178.067 165.093 178.321 165.455 178.498C165.817 178.667 166.225 178.752 166.679 178.752C167.133 178.752 167.499 178.698 167.776 178.59C168.061 178.475 168.3 178.351 168.493 178.221C168.685 178.082 168.851 177.959 168.989 177.851C169.136 177.735 169.297 177.678 169.474 177.678C169.705 177.678 169.879 177.766 169.994 177.943L170.814 178.983C170.498 179.352 170.156 179.664 169.786 179.918C169.417 180.165 169.032 180.365 168.631 180.519C168.238 180.665 167.83 180.769 167.407 180.831C166.991 180.892 166.575 180.923 166.159 180.923C165.428 180.923 164.739 180.788 164.092 180.519C163.445 180.242 162.879 179.841 162.394 179.318C161.909 178.794 161.524 178.155 161.239 177.4C160.962 176.638 160.823 175.772 160.823 174.802C160.823 173.932 160.947 173.127 161.193 172.388C161.447 171.641 161.817 170.998 162.302 170.459C162.787 169.912 163.387 169.485 164.104 169.177C164.82 168.869 165.644 168.715 166.575 168.715C167.461 168.715 168.235 168.857 168.897 169.142C169.567 169.427 170.167 169.835 170.699 170.367L169.948 171.406ZM183.367 168.9L176.911 184.007C176.826 184.207 176.714 184.357 176.576 184.458C176.445 184.565 176.241 184.619 175.964 184.619H173.838L176.056 179.861L171.263 168.9H173.769C173.992 168.9 174.166 168.954 174.289 169.061C174.42 169.169 174.516 169.292 174.578 169.431L177.096 175.576C177.18 175.783 177.25 175.991 177.303 176.199C177.365 176.407 177.423 176.619 177.477 176.835C177.546 176.619 177.615 176.407 177.685 176.199C177.754 175.984 177.831 175.772 177.916 175.564L180.295 169.431C180.356 169.277 180.457 169.15 180.595 169.05C180.741 168.95 180.903 168.9 181.08 168.9H183.367ZM25.8139 203.691C24.99 203.73 24.297 203.803 23.7349 203.911C23.1728 204.011 22.7223 204.142 22.3835 204.303C22.0447 204.465 21.8022 204.654 21.6559 204.869C21.5096 205.085 21.4364 205.32 21.4364 205.574C21.4364 206.074 21.5827 206.432 21.8753 206.648C22.1756 206.863 22.5645 206.971 23.0419 206.971C23.6271 206.971 24.1314 206.867 24.5549 206.659C24.9861 206.444 25.4058 206.12 25.8139 205.689V203.691ZM19.2766 198.551C20.6395 197.304 22.2796 196.68 24.1969 196.68C24.8899 196.68 25.5097 196.796 26.0564 197.027C26.6031 197.25 27.0651 197.566 27.4424 197.974C27.8197 198.374 28.1046 198.855 28.2971 199.418C28.4973 199.98 28.5974 200.596 28.5974 201.266V208.75H27.3038C27.0343 208.75 26.8264 208.711 26.6801 208.634C26.5338 208.55 26.4183 208.384 26.3336 208.138L26.0795 207.283C25.7792 207.553 25.4866 207.791 25.2017 207.999C24.9168 208.199 24.6204 208.369 24.3124 208.507C24.0044 208.646 23.6733 208.75 23.3191 208.819C22.9726 208.896 22.5876 208.935 22.1641 208.935C21.6636 208.935 21.2016 208.869 20.7781 208.738C20.3546 208.6 19.9888 208.396 19.6808 208.126C19.3728 207.857 19.1341 207.522 18.9647 207.121C18.7953 206.721 18.7106 206.255 18.7106 205.724C18.7106 205.424 18.7607 205.127 18.8608 204.835C18.9609 204.534 19.1226 204.249 19.3459 203.98C19.5769 203.71 19.8733 203.456 20.2352 203.218C20.5971 202.979 21.0399 202.771 21.5635 202.594C22.0948 202.417 22.7108 202.274 23.4115 202.166C24.1122 202.051 24.913 201.982 25.8139 201.959V201.266C25.8139 200.472 25.6445 199.887 25.3057 199.51C24.9669 199.125 24.4779 198.932 23.8388 198.932C23.3768 198.932 22.9918 198.986 22.6838 199.094C22.3835 199.202 22.1179 199.325 21.8869 199.464C21.6559 199.595 21.4441 199.714 21.2516 199.822C21.0668 199.93 20.8589 199.984 20.6279 199.984C20.4277 199.984 20.2583 199.933 20.1197 199.833C19.9811 199.726 19.8695 199.602 19.7848 199.464L19.2766 198.551ZM34.1371 205.678C34.4605 206.07 34.8108 206.348 35.1881 206.509C35.5731 206.671 35.9774 206.752 36.4009 206.752C36.8398 206.752 37.2325 206.675 37.579 206.521C37.9332 206.359 38.2335 206.113 38.4799 205.782C38.7263 205.443 38.9149 205.015 39.0458 204.5C39.1767 203.976 39.2422 203.352 39.2422 202.628C39.2422 201.327 39.0266 200.388 38.5954 199.81C38.1642 199.225 37.5443 198.932 36.7358 198.932C36.1891 198.932 35.7117 199.06 35.3036 199.314C34.8955 199.56 34.5067 199.91 34.1371 200.365V205.678ZM34.1371 198.355C34.6145 197.854 35.1419 197.458 35.7194 197.165C36.3046 196.865 36.9707 196.715 37.7176 196.715C38.4029 196.715 39.0189 196.85 39.5656 197.119C40.12 197.389 40.5897 197.777 40.9747 198.286C41.3674 198.786 41.6677 199.394 41.8756 200.111C42.0835 200.827 42.1874 201.631 42.1874 202.525C42.1874 203.487 42.0681 204.361 41.8294 205.146C41.5907 205.932 41.248 206.606 40.8014 207.168C40.3625 207.722 39.8312 208.153 39.2075 208.461C38.5838 208.769 37.8908 208.923 37.1285 208.923C36.7589 208.923 36.424 208.885 36.1237 208.808C35.8234 208.738 35.5462 208.638 35.2921 208.507C35.038 208.377 34.8031 208.219 34.5875 208.034C34.3796 207.841 34.1794 207.63 33.9869 207.399L33.8599 208.196C33.8137 208.396 33.7328 208.538 33.6173 208.623C33.5095 208.708 33.3594 208.75 33.1669 208.75H31.2842V191.587H34.1371V198.355ZM49.6345 196.715C50.5123 196.715 51.3092 196.857 52.0253 197.142C52.7491 197.427 53.3651 197.831 53.8733 198.355C54.3892 198.879 54.7858 199.518 55.063 200.272C55.3402 201.027 55.4788 201.87 55.4788 202.802C55.4788 203.741 55.3402 204.588 55.063 205.343C54.7858 206.097 54.3892 206.74 53.8733 207.272C53.3651 207.803 52.7491 208.211 52.0253 208.496C51.3092 208.781 50.5123 208.923 49.6345 208.923C48.749 208.923 47.9443 208.781 47.2205 208.496C46.4967 208.211 45.8769 207.803 45.361 207.272C44.8528 206.74 44.4562 206.097 44.1713 205.343C43.8941 204.588 43.7555 203.741 43.7555 202.802C43.7555 201.87 43.8941 201.027 44.1713 200.272C44.4562 199.518 44.8528 198.879 45.361 198.355C45.8769 197.831 46.4967 197.427 47.2205 197.142C47.9443 196.857 48.749 196.715 49.6345 196.715ZM49.6345 206.729C50.6201 206.729 51.3477 206.398 51.8174 205.735C52.2948 205.073 52.5335 204.103 52.5335 202.825C52.5335 201.547 52.2948 200.573 51.8174 199.903C51.3477 199.233 50.6201 198.898 49.6345 198.898C48.6335 198.898 47.8904 199.237 47.4053 199.914C46.9279 200.584 46.6892 201.554 46.6892 202.825C46.6892 204.095 46.9279 205.066 47.4053 205.735C47.8904 206.398 48.6335 206.729 49.6345 206.729ZM67.8654 196.9V208.75H66.1214C65.7441 208.75 65.5054 208.577 65.4053 208.23L65.2089 207.283C64.7238 207.776 64.1887 208.176 63.6035 208.484C63.0183 208.785 62.3291 208.935 61.536 208.935C60.8892 208.935 60.3156 208.827 59.8151 208.611C59.3223 208.388 58.9065 208.076 58.5677 207.676C58.2289 207.275 57.9709 206.802 57.7938 206.255C57.6244 205.701 57.5397 205.092 57.5397 204.43V196.9H60.3926V204.43C60.3926 205.154 60.5581 205.716 60.8892 206.117C61.228 206.509 61.7324 206.706 62.4023 206.706C62.8951 206.706 63.3571 206.598 63.7883 206.382C64.2195 206.159 64.6276 205.855 65.0126 205.47V196.9H67.8654ZM74.6442 208.935C73.6124 208.935 72.8193 208.646 72.2649 208.069C71.7182 207.483 71.4449 206.679 71.4449 205.655V199.036H70.2321C70.0781 199.036 69.9472 198.986 69.8394 198.886C69.7316 198.786 69.6777 198.636 69.6777 198.436V197.304L71.5835 196.992L72.1841 193.758C72.2226 193.604 72.2957 193.485 72.4035 193.4C72.5113 193.315 72.6499 193.273 72.8193 193.273H74.2977V197.004H77.4624V199.036H74.2977V205.458C74.2977 205.828 74.3863 206.117 74.5634 206.324C74.7482 206.532 74.9984 206.636 75.3141 206.636C75.4912 206.636 75.6375 206.617 75.753 206.579C75.8762 206.532 75.9802 206.486 76.0649 206.44C76.1573 206.394 76.2381 206.351 76.3074 206.313C76.3767 206.267 76.446 206.244 76.5153 206.244C76.6 206.244 76.6693 206.267 76.7232 206.313C76.7771 206.351 76.8349 206.413 76.8965 206.498L77.7512 207.884C77.3354 208.23 76.858 208.492 76.319 208.669C75.78 208.846 75.2217 208.935 74.6442 208.935ZM87.7589 205.678C88.0823 206.07 88.4326 206.348 88.8099 206.509C89.1949 206.671 89.6107 206.752 90.0573 206.752C90.4885 206.752 90.8774 206.671 91.2239 206.509C91.5704 206.348 91.863 206.101 92.1017 205.77C92.3481 205.439 92.5367 205.023 92.6676 204.523C92.7985 204.014 92.864 203.418 92.864 202.732C92.864 202.039 92.8062 201.454 92.6907 200.977C92.5829 200.492 92.4251 200.099 92.2172 199.799C92.0093 199.498 91.7552 199.279 91.4549 199.14C91.1623 199.002 90.8273 198.932 90.45 198.932C89.8571 198.932 89.3528 199.06 88.937 199.314C88.5212 199.56 88.1285 199.91 87.7589 200.365V205.678ZM87.6087 198.517C88.0938 197.97 88.6444 197.527 89.2604 197.188C89.8764 196.85 90.6002 196.68 91.4318 196.68C92.0786 196.68 92.6676 196.815 93.1989 197.084C93.7379 197.354 94.1999 197.747 94.5849 198.263C94.9776 198.771 95.2779 199.402 95.4858 200.157C95.7014 200.904 95.8092 201.762 95.8092 202.732C95.8092 203.618 95.6899 204.438 95.4512 205.193C95.2125 205.947 94.8698 206.602 94.4232 207.156C93.9843 207.71 93.4492 208.146 92.8178 208.461C92.1941 208.769 91.4934 208.923 90.7157 208.923C90.0535 208.923 89.4875 208.823 89.0178 208.623C88.5481 208.415 88.1285 208.13 87.7589 207.768V212.619H84.906V196.9H86.6501C87.0197 196.9 87.2622 197.073 87.3777 197.419L87.6087 198.517ZM104.295 203.691C103.471 203.73 102.778 203.803 102.216 203.911C101.654 204.011 101.204 204.142 100.865 204.303C100.526 204.465 100.284 204.654 100.137 204.869C99.9909 205.085 99.9178 205.32 99.9178 205.574C99.9178 206.074 100.064 206.432 100.357 206.648C100.657 206.863 101.046 206.971 101.523 206.971C102.108 206.971 102.613 206.867 103.036 206.659C103.467 206.444 103.887 206.12 104.295 205.689V203.691ZM97.7579 198.551C99.1208 197.304 100.761 196.68 102.678 196.68C103.371 196.68 103.991 196.796 104.538 197.027C105.084 197.25 105.546 197.566 105.924 197.974C106.301 198.374 106.586 198.855 106.778 199.418C106.979 199.98 107.079 200.596 107.079 201.266V208.75H105.785C105.516 208.75 105.308 208.711 105.161 208.634C105.015 208.55 104.9 208.384 104.815 208.138L104.561 207.283C104.261 207.553 103.968 207.791 103.683 207.999C103.398 208.199 103.102 208.369 102.794 208.507C102.486 208.646 102.155 208.75 101.8 208.819C101.454 208.896 101.069 208.935 100.645 208.935C100.145 208.935 99.6829 208.869 99.2594 208.738C98.8359 208.6 98.4702 208.396 98.1622 208.126C97.8542 207.857 97.6155 207.522 97.4461 207.121C97.2767 206.721 97.192 206.255 97.192 205.724C97.192 205.424 97.242 205.127 97.3421 204.835C97.4422 204.534 97.6039 204.249 97.8272 203.98C98.0582 203.71 98.3547 203.456 98.7166 203.218C99.0785 202.979 99.5212 202.771 100.045 202.594C100.576 202.417 101.192 202.274 101.893 202.166C102.594 202.051 103.394 201.982 104.295 201.959V201.266C104.295 200.472 104.126 199.887 103.787 199.51C103.448 199.125 102.959 198.932 102.32 198.932C101.858 198.932 101.473 198.986 101.165 199.094C100.865 199.202 100.599 199.325 100.368 199.464C100.137 199.595 99.9255 199.714 99.733 199.822C99.5482 199.93 99.3403 199.984 99.1093 199.984C98.9091 199.984 98.7397 199.933 98.6011 199.833C98.4625 199.726 98.3508 199.602 98.2661 199.464L97.7579 198.551ZM112.457 198.956C112.826 198.247 113.265 197.693 113.773 197.292C114.282 196.884 114.882 196.68 115.575 196.68C116.122 196.68 116.561 196.8 116.892 197.038L116.707 199.175C116.669 199.314 116.611 199.414 116.534 199.475C116.465 199.529 116.368 199.556 116.245 199.556C116.13 199.556 115.956 199.537 115.725 199.498C115.502 199.46 115.283 199.441 115.067 199.441C114.751 199.441 114.47 199.487 114.224 199.579C113.977 199.672 113.754 199.806 113.554 199.984C113.361 200.153 113.188 200.361 113.034 200.607C112.888 200.854 112.749 201.135 112.618 201.45V208.75H109.766V196.9H111.44C111.733 196.9 111.937 196.954 112.052 197.061C112.168 197.161 112.245 197.346 112.283 197.616L112.457 198.956ZM122.333 208.935C121.301 208.935 120.508 208.646 119.954 208.069C119.407 207.483 119.134 206.679 119.134 205.655V199.036H117.921C117.767 199.036 117.636 198.986 117.528 198.886C117.42 198.786 117.367 198.636 117.367 198.436V197.304L119.272 196.992L119.873 193.758C119.911 193.604 119.985 193.485 120.092 193.4C120.2 193.315 120.339 193.273 120.508 193.273H121.987V197.004H125.151V199.036H121.987V205.458C121.987 205.828 122.075 206.117 122.252 206.324C122.437 206.532 122.687 206.636 123.003 206.636C123.18 206.636 123.326 206.617 123.442 206.579C123.565 206.532 123.669 206.486 123.754 206.44C123.846 206.394 123.927 206.351 123.996 206.313C124.066 206.267 124.135 206.244 124.204 206.244C124.289 206.244 124.358 206.267 124.412 206.313C124.466 206.351 124.524 206.413 124.585 206.498L125.44 207.884C125.024 208.23 124.547 208.492 124.008 208.669C123.469 208.846 122.911 208.935 122.333 208.935ZM129.646 198.355C129.885 198.116 130.135 197.897 130.397 197.697C130.666 197.489 130.947 197.315 131.24 197.177C131.54 197.031 131.86 196.919 132.198 196.842C132.537 196.757 132.907 196.715 133.307 196.715C133.954 196.715 134.528 196.827 135.028 197.05C135.529 197.265 135.944 197.573 136.276 197.974C136.614 198.367 136.868 198.84 137.038 199.394C137.215 199.941 137.304 200.546 137.304 201.208V208.75H134.451V201.208C134.451 200.484 134.285 199.926 133.954 199.533C133.623 199.133 133.119 198.932 132.441 198.932C131.948 198.932 131.486 199.044 131.055 199.267C130.624 199.491 130.216 199.795 129.831 200.18V208.75H126.978V196.9H128.722C129.091 196.9 129.334 197.073 129.45 197.419L129.646 198.355ZM147.651 201.462C147.651 201.092 147.597 200.746 147.49 200.422C147.389 200.091 147.235 199.803 147.028 199.556C146.82 199.31 146.554 199.117 146.231 198.979C145.915 198.832 145.545 198.759 145.122 198.759C144.298 198.759 143.647 198.994 143.17 199.464C142.7 199.933 142.4 200.6 142.269 201.462H147.651ZM142.211 203.183C142.257 203.791 142.365 204.319 142.535 204.765C142.704 205.204 142.927 205.57 143.204 205.862C143.482 206.147 143.809 206.363 144.186 206.509C144.571 206.648 144.995 206.717 145.457 206.717C145.919 206.717 146.315 206.663 146.646 206.555C146.985 206.448 147.278 206.328 147.524 206.197C147.778 206.067 147.998 205.947 148.183 205.839C148.375 205.732 148.56 205.678 148.737 205.678C148.976 205.678 149.153 205.766 149.268 205.943L150.088 206.983C149.773 207.352 149.418 207.664 149.026 207.918C148.633 208.165 148.221 208.365 147.79 208.519C147.366 208.665 146.931 208.769 146.485 208.831C146.046 208.892 145.618 208.923 145.203 208.923C144.379 208.923 143.613 208.788 142.904 208.519C142.196 208.242 141.58 207.838 141.056 207.306C140.533 206.767 140.121 206.105 139.82 205.32C139.52 204.527 139.37 203.61 139.37 202.571C139.37 201.762 139.501 201.004 139.763 200.295C140.024 199.579 140.398 198.959 140.883 198.436C141.376 197.905 141.972 197.485 142.673 197.177C143.382 196.869 144.179 196.715 145.064 196.715C145.811 196.715 146.5 196.834 147.131 197.073C147.763 197.312 148.306 197.662 148.76 198.124C149.214 198.578 149.569 199.14 149.823 199.81C150.084 200.472 150.215 201.231 150.215 202.086C150.215 202.517 150.169 202.809 150.077 202.963C149.984 203.11 149.807 203.183 149.545 203.183H142.211ZM155.047 198.956C155.417 198.247 155.856 197.693 156.364 197.292C156.872 196.884 157.473 196.68 158.166 196.68C158.713 196.68 159.151 196.8 159.483 197.038L159.298 199.175C159.259 199.314 159.202 199.414 159.125 199.475C159.055 199.529 158.959 199.556 158.836 199.556C158.72 199.556 158.547 199.537 158.316 199.498C158.093 199.46 157.873 199.441 157.658 199.441C157.342 199.441 157.061 199.487 156.815 199.579C156.568 199.672 156.345 199.806 156.145 199.984C155.952 200.153 155.779 200.361 155.625 200.607C155.479 200.854 155.34 201.135 155.209 201.45V208.75H152.356V196.9H154.031C154.324 196.9 154.528 196.954 154.643 197.061C154.759 197.161 154.836 197.346 154.874 197.616L155.047 198.956ZM168.159 199.21C168.082 199.333 168.001 199.421 167.916 199.475C167.832 199.522 167.724 199.545 167.593 199.545C167.454 199.545 167.304 199.506 167.142 199.429C166.988 199.352 166.807 199.267 166.6 199.175C166.392 199.075 166.153 198.986 165.883 198.909C165.622 198.832 165.31 198.794 164.948 198.794C164.386 198.794 163.943 198.913 163.62 199.152C163.304 199.391 163.146 199.702 163.146 200.087C163.146 200.342 163.227 200.557 163.389 200.734C163.558 200.904 163.777 201.054 164.047 201.185C164.324 201.316 164.636 201.435 164.983 201.543C165.329 201.643 165.679 201.755 166.034 201.878C166.395 202.001 166.75 202.143 167.096 202.305C167.443 202.459 167.751 202.659 168.02 202.906C168.297 203.144 168.517 203.433 168.679 203.772C168.848 204.111 168.933 204.519 168.933 204.996C168.933 205.566 168.829 206.093 168.621 206.579C168.421 207.056 168.12 207.472 167.72 207.826C167.319 208.172 166.823 208.446 166.23 208.646C165.645 208.839 164.967 208.935 164.197 208.935C163.789 208.935 163.389 208.896 162.996 208.819C162.611 208.75 162.237 208.65 161.876 208.519C161.521 208.388 161.19 208.234 160.882 208.057C160.582 207.88 160.316 207.687 160.085 207.479L160.744 206.394C160.828 206.263 160.928 206.163 161.044 206.093C161.159 206.024 161.306 205.99 161.483 205.99C161.66 205.99 161.826 206.04 161.98 206.14C162.141 206.24 162.326 206.348 162.534 206.463C162.742 206.579 162.984 206.686 163.262 206.786C163.546 206.887 163.905 206.937 164.336 206.937C164.675 206.937 164.963 206.898 165.202 206.821C165.448 206.736 165.649 206.629 165.803 206.498C165.964 206.367 166.08 206.217 166.149 206.047C166.226 205.87 166.265 205.689 166.265 205.504C166.265 205.227 166.18 205 166.01 204.823C165.849 204.646 165.629 204.492 165.352 204.361C165.083 204.23 164.771 204.115 164.417 204.014C164.07 203.907 163.712 203.791 163.342 203.668C162.981 203.545 162.622 203.402 162.268 203.241C161.922 203.071 161.61 202.859 161.333 202.605C161.063 202.351 160.844 202.039 160.674 201.67C160.513 201.3 160.432 200.854 160.432 200.33C160.432 199.845 160.528 199.383 160.721 198.944C160.913 198.505 161.194 198.124 161.564 197.801C161.941 197.469 162.407 197.208 162.961 197.015C163.523 196.815 164.17 196.715 164.902 196.715C165.718 196.715 166.461 196.85 167.131 197.119C167.801 197.389 168.359 197.743 168.806 198.182L168.159 199.21ZM173.933 198.17C174.395 197.739 174.903 197.389 175.457 197.119C176.012 196.85 176.662 196.715 177.409 196.715C178.056 196.715 178.63 196.827 179.13 197.05C179.631 197.265 180.046 197.573 180.378 197.974C180.716 198.367 180.97 198.84 181.14 199.394C181.317 199.941 181.406 200.546 181.406 201.208V208.75H178.553V201.208C178.553 200.484 178.387 199.926 178.056 199.533C177.725 199.133 177.221 198.932 176.543 198.932C176.05 198.932 175.588 199.044 175.157 199.267C174.726 199.491 174.318 199.795 173.933 200.18V208.75H171.08V191.587H173.933V198.17ZM187.076 196.9V208.75H184.211V196.9H187.076ZM187.468 193.446C187.468 193.693 187.418 193.924 187.318 194.139C187.218 194.355 187.083 194.543 186.914 194.705C186.752 194.867 186.56 194.998 186.336 195.098C186.113 195.19 185.874 195.236 185.62 195.236C185.374 195.236 185.139 195.19 184.916 195.098C184.7 194.998 184.511 194.867 184.35 194.705C184.188 194.543 184.057 194.355 183.957 194.139C183.865 193.924 183.818 193.693 183.818 193.446C183.818 193.192 183.865 192.953 183.957 192.73C184.057 192.507 184.188 192.314 184.35 192.153C184.511 191.991 184.7 191.864 184.916 191.771C185.139 191.671 185.374 191.621 185.62 191.621C185.874 191.621 186.113 191.671 186.336 191.771C186.56 191.864 186.752 191.991 186.914 192.153C187.083 192.314 187.218 192.507 187.318 192.73C187.418 192.953 187.468 193.192 187.468 193.446ZM192.837 205.678C193.16 206.07 193.511 206.348 193.888 206.509C194.273 206.671 194.689 206.752 195.135 206.752C195.566 206.752 195.955 206.671 196.302 206.509C196.648 206.348 196.941 206.101 197.18 205.77C197.426 205.439 197.615 205.023 197.746 204.523C197.876 204.014 197.942 203.418 197.942 202.732C197.942 202.039 197.884 201.454 197.769 200.977C197.661 200.492 197.503 200.099 197.295 199.799C197.087 199.498 196.833 199.279 196.533 199.14C196.24 199.002 195.905 198.932 195.528 198.932C194.935 198.932 194.431 199.06 194.015 199.314C193.599 199.56 193.206 199.91 192.837 200.365V205.678ZM192.687 198.517C193.172 197.97 193.722 197.527 194.338 197.188C194.954 196.85 195.678 196.68 196.51 196.68C197.157 196.68 197.746 196.815 198.277 197.084C198.816 197.354 199.278 197.747 199.663 198.263C200.056 198.771 200.356 199.402 200.564 200.157C200.779 200.904 200.887 201.762 200.887 202.732C200.887 203.618 200.768 204.438 200.529 205.193C200.29 205.947 199.948 206.602 199.501 207.156C199.062 207.71 198.527 208.146 197.896 208.461C197.272 208.769 196.571 208.923 195.794 208.923C195.131 208.923 194.565 208.823 194.096 208.623C193.626 208.415 193.206 208.13 192.837 207.768V212.619H189.984V196.9H191.728C192.098 196.9 192.34 197.073 192.456 197.419L192.687 198.517ZM210.343 199.21C210.266 199.333 210.185 199.421 210.101 199.475C210.016 199.522 209.908 199.545 209.777 199.545C209.639 199.545 209.489 199.506 209.327 199.429C209.173 199.352 208.992 199.267 208.784 199.175C208.576 199.075 208.337 198.986 208.068 198.909C207.806 198.832 207.494 198.794 207.132 198.794C206.57 198.794 206.128 198.913 205.804 199.152C205.488 199.391 205.331 199.702 205.331 200.087C205.331 200.342 205.411 200.557 205.573 200.734C205.743 200.904 205.962 201.054 206.232 201.185C206.509 201.316 206.821 201.435 207.167 201.543C207.514 201.643 207.864 201.755 208.218 201.878C208.58 202.001 208.934 202.143 209.281 202.305C209.627 202.459 209.935 202.659 210.205 202.906C210.482 203.144 210.701 203.433 210.863 203.772C211.032 204.111 211.117 204.519 211.117 204.996C211.117 205.566 211.013 206.093 210.805 206.579C210.605 207.056 210.305 207.472 209.904 207.826C209.504 208.172 209.007 208.446 208.414 208.646C207.829 208.839 207.152 208.935 206.382 208.935C205.974 208.935 205.573 208.896 205.18 208.819C204.795 208.75 204.422 208.65 204.06 208.519C203.706 208.388 203.375 208.234 203.067 208.057C202.767 207.88 202.501 207.687 202.27 207.479L202.928 206.394C203.013 206.263 203.113 206.163 203.229 206.093C203.344 206.024 203.49 205.99 203.667 205.99C203.845 205.99 204.01 206.04 204.164 206.14C204.326 206.24 204.511 206.348 204.718 206.463C204.926 206.579 205.169 206.686 205.446 206.786C205.731 206.887 206.089 206.937 206.52 206.937C206.859 206.937 207.148 206.898 207.387 206.821C207.633 206.736 207.833 206.629 207.987 206.498C208.149 206.367 208.264 206.217 208.334 206.047C208.411 205.87 208.449 205.689 208.449 205.504C208.449 205.227 208.364 205 208.195 204.823C208.033 204.646 207.814 204.492 207.537 204.361C207.267 204.23 206.955 204.115 206.601 204.014C206.255 203.907 205.897 203.791 205.527 203.668C205.165 203.545 204.807 203.402 204.453 203.241C204.106 203.071 203.794 202.859 203.517 202.605C203.248 202.351 203.028 202.039 202.859 201.67C202.697 201.3 202.616 200.854 202.616 200.33C202.616 199.845 202.713 199.383 202.905 198.944C203.098 198.505 203.379 198.124 203.748 197.801C204.126 197.469 204.591 197.208 205.146 197.015C205.708 196.815 206.355 196.715 207.086 196.715C207.902 196.715 208.645 196.85 209.315 197.119C209.985 197.389 210.544 197.743 210.99 198.182L210.343 199.21Z" fill="#134E78"/>
</svg>
