<svg width="229" height="136" viewBox="0 0 229 136" fill="none" xmlns="http://www.w3.org/2000/svg">
<rect width="229" height="136" fill="white"/>
<path d="M12.3867 29.9906L14.8867 31.434L14.8867 28.5473L12.3867 29.9906ZM92.8534 29.9906L90.3534 28.5473L90.3534 31.434L92.8534 29.9906ZM14.6367 30.2406L90.6034 30.2406L90.6034 29.7406L14.6367 29.7406L14.6367 30.2406Z" fill="#1A425F"/>
<path d="M12.4224 56.6025L15.1992 57.3261L14.4615 54.5352L12.4224 56.6025ZM90.9246 34.699L88.1477 33.9754L88.8854 36.7663L90.9246 34.699ZM14.6535 56.2395L88.8212 35.5454L88.6935 35.062L14.5257 55.7561L14.6535 56.2395Z" fill="#1A425F"/>
<path d="M12.7271 83.5611L15.4595 84.449L14.8825 81.6205L12.7271 83.5611ZM92.8519 66.3073L90.1194 65.4193L90.6964 68.2478L92.8519 66.3073ZM14.9766 83.3324L90.7022 67.0259L90.6023 66.536L14.8767 82.8425L14.9766 83.3324Z" fill="#1A425F"/>
<path d="M14.3457 114.541L17.1217 115.27L16.3882 112.478L14.3457 114.541ZM92.8536 92.7895L90.0776 92.061L90.811 94.853L92.8536 92.7895ZM16.5775 114.182L90.7488 93.6321L90.6217 93.1485L16.4505 113.699L16.5775 114.182Z" fill="#1A425F"/>
<path d="M12.3867 109.903L15.1893 109.368L13.347 107.145L12.3867 109.903ZM92.8382 39.5071L90.0356 40.0422L91.8778 42.2647L92.8382 39.5071ZM14.2396 108.613L91.3044 41.1813L90.9853 40.7963L13.9205 108.228L14.2396 108.613Z" fill="#1A425F"/>
<path d="M12.7271 92.1498L14.747 94.2367L15.5101 91.4526L12.7271 92.1498ZM90.9243 114.775L88.9043 112.688L88.1412 115.472L90.9243 114.775ZM14.8223 93.0163L88.6968 114.39L88.829 113.908L14.9545 92.534L14.8223 93.0163Z" fill="#1A425F"/>
<path d="M12.3867 39.5248L13.3404 42.2847L15.1879 40.0666L12.3867 39.5248ZM92.8381 110.265L91.8844 107.505L90.0369 109.723L92.8381 110.265ZM13.9164 41.2027L90.9884 108.971L91.3084 108.587L14.2364 40.8185L13.9164 41.2027Z" fill="#1A425F"/>
<path d="M12.3867 119.508L14.8867 120.951L14.8867 118.064L12.3867 119.508ZM92.8534 119.508L90.3534 118.064L90.3534 120.951L92.8534 119.508ZM14.6367 119.758L90.6034 119.758L90.6034 119.258L14.6367 119.258L14.6367 119.758Z" fill="#1A425F"/>
<path d="M14.3457 61.3937L16.8457 62.8371L16.8457 59.9504L14.3457 61.3937ZM90.927 61.3957L88.4271 59.9523L88.427 62.839L90.927 61.3957ZM16.5957 61.6438L88.677 61.6457L88.677 61.1457L16.5957 61.1438L16.5957 61.6438Z" fill="#1A425F"/>
<path d="M14.3298 34.4839L16.3573 36.5628L17.1107 33.7761L14.3298 34.4839ZM92.8538 56.8753L90.8264 54.7964L90.073 57.5831L92.8538 56.8753ZM16.4283 35.3422L90.6248 56.4996L90.7553 56.0169L16.5588 34.8596L16.4283 35.3422Z" fill="#1A425F"/>
<path d="M12.4224 66.3145L14.5842 68.2476L15.152 65.4173L12.4224 66.3145ZM92.735 83.3217L90.5731 81.3886L90.0053 84.2189L92.735 83.3217ZM14.5744 67.0258L90.4846 83.1006L90.5829 82.6104L14.6727 66.5356L14.5744 67.0258Z" fill="#1A425F"/>
<path d="M14.3457 88.0775L16.8457 89.5209L16.8457 86.6341L14.3457 88.0775ZM90.927 88.0795L88.4271 86.636L88.427 89.5228L90.927 88.0795ZM16.5957 88.3275L88.677 88.3294L88.677 87.8294L16.5957 87.8275L16.5957 88.3275Z" fill="#1A425F"/>
<path d="M6.6601 39.5452C9.57467 39.5452 11.9374 37.1825 11.9374 34.2679C11.9374 31.3534 9.57467 28.9906 6.6601 28.9906C3.74554 28.9906 1.38281 31.3534 1.38281 34.2679C1.38281 37.1825 3.74554 39.5452 6.6601 39.5452Z" fill="url(#paint0_angular_6602_228)"/>
<path d="M6.6601 39.5452C9.57467 39.5452 11.9374 37.1825 11.9374 34.2679C11.9374 31.3534 9.57467 28.9906 6.6601 28.9906C3.74554 28.9906 1.38281 31.3534 1.38281 34.2679C1.38281 37.1825 3.74554 39.5452 6.6601 39.5452Z" fill="white" fill-opacity="0.2"/>
<path d="M6.6601 39.5452C9.57467 39.5452 11.9374 37.1825 11.9374 34.2679C11.9374 31.3534 9.57467 28.9906 6.6601 28.9906C3.74554 28.9906 1.38281 31.3534 1.38281 34.2679C1.38281 37.1825 3.74554 39.5452 6.6601 39.5452Z" stroke="url(#paint1_angular_6602_228)" stroke-width="2"/>
<path d="M6.6601 119.284C9.57467 119.284 11.9374 116.922 11.9374 114.007C11.9374 111.092 9.57467 108.73 6.6601 108.73C3.74554 108.73 1.38281 111.092 1.38281 114.007C1.38281 116.922 3.74554 119.284 6.6601 119.284Z" fill="url(#paint2_angular_6602_228)"/>
<path d="M6.6601 119.284C9.57467 119.284 11.9374 116.922 11.9374 114.007C11.9374 111.092 9.57467 108.73 6.6601 108.73C3.74554 108.73 1.38281 111.092 1.38281 114.007C1.38281 116.922 3.74554 119.284 6.6601 119.284Z" fill="white" fill-opacity="0.2"/>
<path d="M6.6601 119.284C9.57467 119.284 11.9374 116.922 11.9374 114.007C11.9374 111.092 9.57467 108.73 6.6601 108.73C3.74554 108.73 1.38281 111.092 1.38281 114.007C1.38281 116.922 3.74554 119.284 6.6601 119.284Z" stroke="url(#paint3_angular_6602_228)" stroke-width="2"/>
<path d="M6.6601 92.7046C9.57467 92.7046 11.9374 90.3419 11.9374 87.4273C11.9374 84.5127 9.57467 82.15 6.6601 82.15C3.74554 82.15 1.38281 84.5127 1.38281 87.4273C1.38281 90.3419 3.74554 92.7046 6.6601 92.7046Z" fill="url(#paint4_angular_6602_228)"/>
<path d="M6.6601 92.7046C9.57467 92.7046 11.9374 90.3419 11.9374 87.4273C11.9374 84.5127 9.57467 82.15 6.6601 82.15C3.74554 82.15 1.38281 84.5127 1.38281 87.4273C1.38281 90.3419 3.74554 92.7046 6.6601 92.7046Z" fill="white" fill-opacity="0.2"/>
<path d="M6.6601 92.7046C9.57467 92.7046 11.9374 90.3419 11.9374 87.4273C11.9374 84.5127 9.57467 82.15 6.6601 82.15C3.74554 82.15 1.38281 84.5127 1.38281 87.4273C1.38281 90.3419 3.74554 92.7046 6.6601 92.7046Z" stroke="url(#paint5_angular_6602_228)" stroke-width="2"/>
<path d="M6.6601 66.1249C9.57467 66.1249 11.9374 63.7622 11.9374 60.8476C11.9374 57.933 9.57467 55.5703 6.6601 55.5703C3.74554 55.5703 1.38281 57.933 1.38281 60.8476C1.38281 63.7622 3.74554 66.1249 6.6601 66.1249Z" fill="url(#paint6_angular_6602_228)"/>
<path d="M6.6601 66.1249C9.57467 66.1249 11.9374 63.7622 11.9374 60.8476C11.9374 57.933 9.57467 55.5703 6.6601 55.5703C3.74554 55.5703 1.38281 57.933 1.38281 60.8476C1.38281 63.7622 3.74554 66.1249 6.6601 66.1249Z" fill="white" fill-opacity="0.2"/>
<path d="M6.6601 66.1249C9.57467 66.1249 11.9374 63.7622 11.9374 60.8476C11.9374 57.933 9.57467 55.5703 6.6601 55.5703C3.74554 55.5703 1.38281 57.933 1.38281 60.8476C1.38281 63.7622 3.74554 66.1249 6.6601 66.1249Z" stroke="url(#paint7_angular_6602_228)" stroke-width="2"/>
<path d="M98.34 39.5452C101.255 39.5452 103.617 37.1825 103.617 34.2679C103.617 31.3534 101.255 28.9906 98.34 28.9906C95.4255 28.9906 93.0627 31.3534 93.0627 34.2679C93.0627 37.1825 95.4255 39.5452 98.34 39.5452Z" fill="url(#paint8_angular_6602_228)"/>
<path d="M98.34 39.5452C101.255 39.5452 103.617 37.1825 103.617 34.2679C103.617 31.3534 101.255 28.9906 98.34 28.9906C95.4255 28.9906 93.0627 31.3534 93.0627 34.2679C93.0627 37.1825 95.4255 39.5452 98.34 39.5452Z" fill="white" fill-opacity="0.2"/>
<path d="M98.34 39.5452C101.255 39.5452 103.617 37.1825 103.617 34.2679C103.617 31.3534 101.255 28.9906 98.34 28.9906C95.4255 28.9906 93.0627 31.3534 93.0627 34.2679C93.0627 37.1825 95.4255 39.5452 98.34 39.5452Z" stroke="url(#paint9_angular_6602_228)" stroke-width="2"/>
<path d="M98.34 119.284C101.255 119.284 103.617 116.922 103.617 114.007C103.617 111.092 101.255 108.73 98.34 108.73C95.4255 108.73 93.0627 111.092 93.0627 114.007C93.0627 116.922 95.4255 119.284 98.34 119.284Z" fill="url(#paint10_angular_6602_228)"/>
<path d="M98.34 119.284C101.255 119.284 103.617 116.922 103.617 114.007C103.617 111.092 101.255 108.73 98.34 108.73C95.4255 108.73 93.0627 111.092 93.0627 114.007C93.0627 116.922 95.4255 119.284 98.34 119.284Z" fill="white" fill-opacity="0.2"/>
<path d="M98.34 119.284C101.255 119.284 103.617 116.922 103.617 114.007C103.617 111.092 101.255 108.73 98.34 108.73C95.4255 108.73 93.0627 111.092 93.0627 114.007C93.0627 116.922 95.4255 119.284 98.34 119.284Z" stroke="url(#paint11_angular_6602_228)" stroke-width="2"/>
<path d="M98.34 92.7046C101.255 92.7046 103.617 90.3419 103.617 87.4273C103.617 84.5128 101.255 82.1501 98.34 82.1501C95.4255 82.1501 93.0627 84.5128 93.0627 87.4273C93.0627 90.3419 95.4255 92.7046 98.34 92.7046Z" fill="url(#paint12_angular_6602_228)"/>
<path d="M98.34 92.7046C101.255 92.7046 103.617 90.3419 103.617 87.4273C103.617 84.5128 101.255 82.1501 98.34 82.1501C95.4255 82.1501 93.0627 84.5128 93.0627 87.4273C93.0627 90.3419 95.4255 92.7046 98.34 92.7046Z" fill="white" fill-opacity="0.2"/>
<path d="M98.34 92.7046C101.255 92.7046 103.617 90.3419 103.617 87.4273C103.617 84.5128 101.255 82.1501 98.34 82.1501C95.4255 82.1501 93.0627 84.5128 93.0627 87.4273C93.0627 90.3419 95.4255 92.7046 98.34 92.7046Z" stroke="url(#paint13_angular_6602_228)" stroke-width="2"/>
<path d="M98.34 66.1249C101.255 66.1249 103.617 63.7622 103.617 60.8476C103.617 57.9331 101.255 55.5703 98.34 55.5703C95.4255 55.5703 93.0627 57.9331 93.0627 60.8476C93.0627 63.7622 95.4255 66.1249 98.34 66.1249Z" fill="url(#paint14_angular_6602_228)"/>
<path d="M98.34 66.1249C101.255 66.1249 103.617 63.7622 103.617 60.8476C103.617 57.9331 101.255 55.5703 98.34 55.5703C95.4255 55.5703 93.0627 57.9331 93.0627 60.8476C93.0627 63.7622 95.4255 66.1249 98.34 66.1249Z" fill="white" fill-opacity="0.2"/>
<path d="M98.34 66.1249C101.255 66.1249 103.617 63.7622 103.617 60.8476C103.617 57.9331 101.255 55.5703 98.34 55.5703C95.4255 55.5703 93.0627 57.9331 93.0627 60.8476C93.0627 63.7622 95.4255 66.1249 98.34 66.1249Z" stroke="url(#paint15_angular_6602_228)" stroke-width="2"/>
<path d="M179.889 35.7866C179.889 37.5966 178.421 39.0639 176.611 39.0639C174.801 39.0639 173.334 37.5966 173.334 35.7866C173.334 33.9766 174.801 32.5093 176.611 32.5093C178.421 32.5093 179.889 33.9766 179.889 35.7866Z" fill="url(#paint16_angular_6602_228)"/>
<path d="M179.889 35.7866C179.889 37.5966 178.421 39.0639 176.611 39.0639C174.801 39.0639 173.334 37.5966 173.334 35.7866C173.334 33.9766 174.801 32.5093 176.611 32.5093C178.421 32.5093 179.889 33.9766 179.889 35.7866Z" fill="white" fill-opacity="0.2"/>
<path d="M179.889 35.7866C179.889 37.5966 178.421 39.0639 176.611 39.0639C174.801 39.0639 173.334 37.5966 173.334 35.7866C173.334 33.9766 174.801 32.5093 176.611 32.5093C178.421 32.5093 179.889 33.9766 179.889 35.7866Z" stroke="url(#paint17_angular_6602_228)" stroke-width="2"/>
<path d="M212.701 45.9448C212.701 47.7548 211.234 49.2221 209.424 49.2221C207.614 49.2221 206.146 47.7548 206.146 45.9448C206.146 44.1348 207.614 42.6675 209.424 42.6675C211.234 42.6675 212.701 44.1348 212.701 45.9448Z" fill="url(#paint18_angular_6602_228)"/>
<path d="M212.701 45.9448C212.701 47.7548 211.234 49.2221 209.424 49.2221C207.614 49.2221 206.146 47.7548 206.146 45.9448C206.146 44.1348 207.614 42.6675 209.424 42.6675C211.234 42.6675 212.701 44.1348 212.701 45.9448Z" fill="white" fill-opacity="0.2"/>
<path d="M212.701 45.9448C212.701 47.7548 211.234 49.2221 209.424 49.2221C207.614 49.2221 206.146 47.7548 206.146 45.9448C206.146 44.1348 207.614 42.6675 209.424 42.6675C211.234 42.6675 212.701 44.1348 212.701 45.9448Z" stroke="url(#paint19_angular_6602_228)" stroke-width="2"/>
<path d="M226.208 74.7492C226.208 76.5592 224.74 78.0264 222.93 78.0264C221.12 78.0264 219.653 76.5592 219.653 74.7492C219.653 72.9392 221.12 71.4719 222.93 71.4719C224.74 71.4719 226.208 72.9392 226.208 74.7492Z" fill="url(#paint20_angular_6602_228)"/>
<path d="M226.208 74.7492C226.208 76.5592 224.74 78.0264 222.93 78.0264C221.12 78.0264 219.653 76.5592 219.653 74.7492C219.653 72.9392 221.12 71.4719 222.93 71.4719C224.74 71.4719 226.208 72.9392 226.208 74.7492Z" fill="white" fill-opacity="0.2"/>
<path d="M226.208 74.7492C226.208 76.5592 224.74 78.0264 222.93 78.0264C221.12 78.0264 219.653 76.5592 219.653 74.7492C219.653 72.9392 221.12 71.4719 222.93 71.4719C224.74 71.4719 226.208 72.9392 226.208 74.7492Z" stroke="url(#paint21_angular_6602_228)" stroke-width="2"/>
<path d="M212.701 103.554C212.701 105.364 211.234 106.831 209.424 106.831C207.614 106.831 206.146 105.364 206.146 103.554C206.146 101.744 207.614 100.276 209.424 100.276C211.234 100.276 212.701 101.744 212.701 103.554Z" fill="url(#paint22_angular_6602_228)"/>
<path d="M212.701 103.554C212.701 105.364 211.234 106.831 209.424 106.831C207.614 106.831 206.146 105.364 206.146 103.554C206.146 101.744 207.614 100.276 209.424 100.276C211.234 100.276 212.701 101.744 212.701 103.554Z" fill="white" fill-opacity="0.2"/>
<path d="M212.701 103.554C212.701 105.364 211.234 106.831 209.424 106.831C207.614 106.831 206.146 105.364 206.146 103.554C206.146 101.744 207.614 100.276 209.424 100.276C211.234 100.276 212.701 101.744 212.701 103.554Z" stroke="url(#paint23_angular_6602_228)" stroke-width="2"/>
<path d="M179.783 115.526C179.783 117.336 178.316 118.803 176.506 118.803C174.696 118.803 173.228 117.336 173.228 115.526C173.228 113.716 174.696 112.248 176.506 112.248C178.316 112.248 179.783 113.716 179.783 115.526Z" fill="url(#paint24_angular_6602_228)"/>
<path d="M179.783 115.526C179.783 117.336 178.316 118.803 176.506 118.803C174.696 118.803 173.228 117.336 173.228 115.526C173.228 113.716 174.696 112.248 176.506 112.248C178.316 112.248 179.783 113.716 179.783 115.526Z" fill="white" fill-opacity="0.2"/>
<path d="M179.783 115.526C179.783 117.336 178.316 118.803 176.506 118.803C174.696 118.803 173.228 117.336 173.228 115.526C173.228 113.716 174.696 112.248 176.506 112.248C178.316 112.248 179.783 113.716 179.783 115.526Z" stroke="url(#paint25_angular_6602_228)" stroke-width="2"/>
<path d="M146.865 103.554C146.865 105.364 145.398 106.831 143.588 106.831C141.778 106.831 140.311 105.364 140.311 103.554C140.311 101.744 141.778 100.276 143.588 100.276C145.398 100.276 146.865 101.744 146.865 103.554Z" fill="url(#paint26_angular_6602_228)"/>
<path d="M146.865 103.554C146.865 105.364 145.398 106.831 143.588 106.831C141.778 106.831 140.311 105.364 140.311 103.554C140.311 101.744 141.778 100.276 143.588 100.276C145.398 100.276 146.865 101.744 146.865 103.554Z" fill="white" fill-opacity="0.2"/>
<path d="M146.865 103.554C146.865 105.364 145.398 106.831 143.588 106.831C141.778 106.831 140.311 105.364 140.311 103.554C140.311 101.744 141.778 100.276 143.588 100.276C145.398 100.276 146.865 101.744 146.865 103.554Z" stroke="url(#paint27_angular_6602_228)" stroke-width="2"/>
<path d="M133.475 74.5164C133.475 76.3264 132.008 77.7937 130.198 77.7937C128.388 77.7937 126.921 76.3264 126.921 74.5164C126.921 72.7064 128.388 71.2391 130.198 71.2391C132.008 71.2391 133.475 72.7064 133.475 74.5164Z" fill="url(#paint28_angular_6602_228)"/>
<path d="M133.475 74.5164C133.475 76.3264 132.008 77.7937 130.198 77.7937C128.388 77.7937 126.921 76.3264 126.921 74.5164C126.921 72.7064 128.388 71.2391 130.198 71.2391C132.008 71.2391 133.475 72.7064 133.475 74.5164Z" fill="white" fill-opacity="0.2"/>
<path d="M133.475 74.5164C133.475 76.3264 132.008 77.7937 130.198 77.7937C128.388 77.7937 126.921 76.3264 126.921 74.5164C126.921 72.7064 128.388 71.2391 130.198 71.2391C132.008 71.2391 133.475 72.7064 133.475 74.5164Z" stroke="url(#paint29_angular_6602_228)" stroke-width="2"/>
<path d="M146.865 45.9448C146.865 47.7548 145.398 49.2221 143.588 49.2221C141.778 49.2221 140.311 47.7548 140.311 45.9448C140.311 44.1348 141.778 42.6675 143.588 42.6675C145.398 42.6675 146.865 44.1348 146.865 45.9448Z" fill="url(#paint30_angular_6602_228)"/>
<path d="M146.865 45.9448C146.865 47.7548 145.398 49.2221 143.588 49.2221C141.778 49.2221 140.311 47.7548 140.311 45.9448C140.311 44.1348 141.778 42.6675 143.588 42.6675C145.398 42.6675 146.865 44.1348 146.865 45.9448Z" fill="white" fill-opacity="0.2"/>
<path d="M146.865 45.9448C146.865 47.7548 145.398 49.2221 143.588 49.2221C141.778 49.2221 140.311 47.7548 140.311 45.9448C140.311 44.1348 141.778 42.6675 143.588 42.6675C145.398 42.6675 146.865 44.1348 146.865 45.9448Z" stroke="url(#paint31_angular_6602_228)" stroke-width="2"/>
<circle cx="222.897" cy="74.4881" r="5.103" fill="url(#paint32_angular_6602_228)"/>
<circle cx="222.897" cy="74.4881" r="5.103" fill="white" fill-opacity="0.2"/>
<circle cx="222.897" cy="74.4881" r="5.103" stroke="url(#paint33_angular_6602_228)" stroke-width="2"/>
<circle cx="176.472" cy="115.251" r="5.103" fill="url(#paint34_angular_6602_228)"/>
<circle cx="176.472" cy="115.251" r="5.103" fill="white" fill-opacity="0.2"/>
<circle cx="176.472" cy="115.251" r="5.103" stroke="url(#paint35_angular_6602_228)" stroke-width="2"/>
<circle cx="209.39" cy="103.279" r="5.103" fill="url(#paint36_angular_6602_228)"/>
<circle cx="209.39" cy="103.279" r="5.103" fill="white" fill-opacity="0.2"/>
<circle cx="209.39" cy="103.279" r="5.103" stroke="url(#paint37_angular_6602_228)" stroke-width="2"/>
<circle cx="209.39" cy="45.6705" r="5.103" fill="url(#paint38_angular_6602_228)"/>
<circle cx="209.39" cy="45.6705" r="5.103" fill="white" fill-opacity="0.2"/>
<circle cx="209.39" cy="45.6705" r="5.103" stroke="url(#paint39_angular_6602_228)" stroke-width="2"/>
<circle cx="143.554" cy="45.6705" r="5.103" fill="url(#paint40_angular_6602_228)"/>
<circle cx="143.554" cy="45.6705" r="5.103" fill="white" fill-opacity="0.2"/>
<circle cx="143.554" cy="45.6705" r="5.103" stroke="url(#paint41_angular_6602_228)" stroke-width="2"/>
<circle cx="143.554" cy="103.279" r="5.103" fill="url(#paint42_angular_6602_228)"/>
<circle cx="143.554" cy="103.279" r="5.103" fill="white" fill-opacity="0.2"/>
<circle cx="143.554" cy="103.279" r="5.103" stroke="url(#paint43_angular_6602_228)" stroke-width="2"/>
<circle cx="130.164" cy="74.2421" r="5.103" fill="url(#paint44_angular_6602_228)"/>
<circle cx="130.164" cy="74.2421" r="5.103" fill="white" fill-opacity="0.2"/>
<circle cx="130.164" cy="74.2421" r="5.103" stroke="url(#paint45_angular_6602_228)" stroke-width="2"/>
<path d="M181.633 35.5123C181.633 38.3306 179.349 40.6153 176.53 40.6153C173.712 40.6153 171.427 38.3306 171.427 35.5123C171.427 32.694 173.712 30.4093 176.53 30.4093C179.349 30.4093 181.633 32.694 181.633 35.5123Z" fill="url(#paint46_angular_6602_228)"/>
<path d="M181.633 35.5123C181.633 38.3306 179.349 40.6153 176.53 40.6153C173.712 40.6153 171.427 38.3306 171.427 35.5123C171.427 32.694 173.712 30.4093 176.53 30.4093C179.349 30.4093 181.633 32.694 181.633 35.5123Z" fill="white" fill-opacity="0.2"/>
<path d="M181.633 35.5123C181.633 38.3306 179.349 40.6153 176.53 40.6153C173.712 40.6153 171.427 38.3306 171.427 35.5123C171.427 32.694 173.712 30.4093 176.53 30.4093C179.349 30.4093 181.633 32.694 181.633 35.5123Z" stroke="url(#paint47_angular_6602_228)" stroke-width="2"/>
<path d="M168.631 70.2629L178.375 74.0582L175.898 70.2629M168.631 70.2629L160.199 66.9886L175.898 70.2629M168.631 70.2629L173.42 66.4677L175.898 70.2629" stroke="#D5D5D5"/>
<mask id="mask0_6602_228" style="mask-type:alpha" maskUnits="userSpaceOnUse" x="160" y="65" width="20" height="11">
<path d="M168.631 70.2629L178.375 74.0582L175.898 70.2629M168.631 70.2629L160.199 66.9886L175.898 70.2629M168.631 70.2629L173.42 66.4677L175.898 70.2629" stroke="#B9B9B9"/>
</mask>
<g mask="url(#mask0_6602_228)">
<path d="M160.436 68.1935L159.975 67.4523L176.415 65.7443V73.591C175.159 66.3618 174.143 66.7084 160.436 68.1935Z" fill="black" fill-opacity="0.28"/>
</g>
<rect x="157.864" y="66.4677" width="18.6667" height="1.41901" transform="rotate(-6.12837 157.864 66.4677)" fill="#E4E4E4"/>
<path d="M176.312 60.7045L193.139 66.874V91.4407H176.312V60.7045Z" fill="#D5D5D5"/>
<mask id="mask1_6602_228" style="mask-type:alpha" maskUnits="userSpaceOnUse" x="176" y="60" width="18" height="32">
<path d="M176.312 60.7045L193.139 66.874V91.4407H176.312V60.7045Z" fill="#D5D5D5"/>
</mask>
<g mask="url(#mask1_6602_228)">
<ellipse cx="172.256" cy="80.0757" rx="12.9281" ry="8.72231" fill="#C5C5C5"/>
<rect x="160.537" y="79.8297" width="24.6472" height="11.6112" fill="#C5C5C5"/>
</g>
<path d="M186.771 66.9986L193.139 69.3332V71.1343V89.7271V90.2606H186.771V66.9986Z" fill="#134E78"/>
<mask id="mask2_6602_228" style="mask-type:alpha" maskUnits="userSpaceOnUse" x="186" y="66" width="8" height="25">
<path d="M186.771 66.9986L193.139 69.3332V71.1343V89.7271V90.2606H186.771V66.9986Z" fill="#134E78"/>
</mask>
<g mask="url(#mask2_6602_228)">
<rect width="2.11448" height="2.12721" transform="matrix(4.37114e-08 1 1 -4.37114e-08 191.026 75.4582)" stroke="#306388" stroke-width="0.2"/>
<rect width="2.11448" height="2.12721" transform="matrix(4.37114e-08 1 1 -4.37114e-08 191.026 77.5728)" stroke="#306388" stroke-width="0.2"/>
<rect width="2.11448" height="2.12721" transform="matrix(4.37114e-08 1 1 -4.37114e-08 191.026 79.6874)" stroke="#306388" stroke-width="0.2"/>
<rect width="2.11448" height="2.12721" transform="matrix(4.37114e-08 1 1 -4.37114e-08 191.026 81.8023)" stroke="#306388" stroke-width="0.2"/>
<rect width="2.11448" height="2.12721" transform="matrix(4.37114e-08 1 1 -4.37114e-08 191.026 66.9998)" stroke="#306388" stroke-width="0.2"/>
<rect width="2.11448" height="2.12721" transform="matrix(4.37114e-08 1 1 -4.37114e-08 191.026 69.1141)" stroke="#306388" stroke-width="0.2"/>
<rect width="2.11448" height="2.12721" transform="matrix(4.37114e-08 1 1 -4.37114e-08 191.026 71.2286)" stroke="#306388" stroke-width="0.2"/>
<rect width="2.11448" height="2.12721" transform="matrix(4.37114e-08 1 1 -4.37114e-08 191.026 73.3433)" stroke="#306388" stroke-width="0.2"/>
<rect width="2.11448" height="2.12721" transform="matrix(4.37114e-08 1 1 -4.37114e-08 191.026 83.9163)" stroke="#306388" stroke-width="0.2"/>
<rect width="2.11448" height="2.12721" transform="matrix(4.37114e-08 1 1 -4.37114e-08 191.026 86.0312)" stroke="#306388" stroke-width="0.2"/>
<rect width="2.11448" height="2.12721" transform="matrix(4.37114e-08 1 1 -4.37114e-08 191.026 88.1456)" stroke="#306388" stroke-width="0.2"/>
<rect width="2.11448" height="2.12721" transform="matrix(4.37114e-08 1 1 -4.37114e-08 188.899 75.4588)" stroke="#306388" stroke-width="0.2"/>
<rect width="2.11448" height="2.12721" transform="matrix(4.37114e-08 1 1 -4.37114e-08 188.899 77.5728)" stroke="#306388" stroke-width="0.2"/>
<rect width="2.11448" height="2.12721" transform="matrix(4.37114e-08 1 1 -4.37114e-08 188.899 79.688)" stroke="#306388" stroke-width="0.2"/>
<rect width="2.11448" height="2.12721" transform="matrix(4.37114e-08 1 1 -4.37114e-08 188.899 81.8023)" stroke="#306388" stroke-width="0.2"/>
<rect width="2.11448" height="2.12721" transform="matrix(4.37114e-08 1 1 -4.37114e-08 188.899 67.0004)" stroke="#306388" stroke-width="0.2"/>
<rect width="2.11448" height="2.12721" transform="matrix(4.37114e-08 1 1 -4.37114e-08 188.899 69.1141)" stroke="#306388" stroke-width="0.2"/>
<rect width="2.11448" height="2.12721" transform="matrix(4.37114e-08 1 1 -4.37114e-08 188.899 71.2293)" stroke="#306388" stroke-width="0.2"/>
<rect width="2.11448" height="2.12721" transform="matrix(4.37114e-08 1 1 -4.37114e-08 188.899 73.3433)" stroke="#306388" stroke-width="0.2"/>
<rect width="2.11448" height="2.12721" transform="matrix(4.37114e-08 1 1 -4.37114e-08 188.899 83.9169)" stroke="#306388" stroke-width="0.2"/>
<rect width="2.11448" height="2.12721" transform="matrix(4.37114e-08 1 1 -4.37114e-08 188.899 86.0312)" stroke="#306388" stroke-width="0.2"/>
<rect width="2.11448" height="2.12721" transform="matrix(4.37114e-08 1 1 -4.37114e-08 188.899 88.1461)" stroke="#306388" stroke-width="0.2"/>
<rect width="2.11448" height="2.12721" transform="matrix(4.37114e-08 1 1 -4.37114e-08 186.771 75.4588)" stroke="#306388" stroke-width="0.2"/>
<rect width="2.11448" height="2.12721" transform="matrix(4.37114e-08 1 1 -4.37114e-08 186.771 77.5728)" stroke="#306388" stroke-width="0.2"/>
<rect width="2.11448" height="2.12721" transform="matrix(4.37114e-08 1 1 -4.37114e-08 186.771 79.688)" stroke="#306388" stroke-width="0.2"/>
<rect width="2.11448" height="2.12721" transform="matrix(4.37114e-08 1 1 -4.37114e-08 186.771 81.8023)" stroke="#306388" stroke-width="0.2"/>
<rect width="2.11448" height="2.12721" transform="matrix(4.37114e-08 1 1 -4.37114e-08 186.771 67.0007)" stroke="#306388" stroke-width="0.2"/>
<rect width="2.11448" height="2.12721" transform="matrix(4.37114e-08 1 1 -4.37114e-08 186.771 69.1141)" stroke="#306388" stroke-width="0.2"/>
<rect width="2.11448" height="2.12721" transform="matrix(4.37114e-08 1 1 -4.37114e-08 186.771 71.2293)" stroke="#306388" stroke-width="0.2"/>
<rect width="2.11448" height="2.12721" transform="matrix(4.37114e-08 1 1 -4.37114e-08 186.771 73.3433)" stroke="#306388" stroke-width="0.2"/>
<rect width="2.11448" height="2.12721" transform="matrix(4.37114e-08 1 1 -4.37114e-08 186.771 83.9169)" stroke="#306388" stroke-width="0.2"/>
<rect width="2.11448" height="2.12721" transform="matrix(4.37114e-08 1 1 -4.37114e-08 186.771 86.0312)" stroke="#306388" stroke-width="0.2"/>
<rect width="2.11448" height="2.12721" transform="matrix(4.37114e-08 1 1 -4.37114e-08 186.771 88.1461)" stroke="#306388" stroke-width="0.2"/>
</g>
<path d="M193.139 66.6337L176.303 61.0167C192.121 68.0809 192.517 69.447 193.139 71.8229V66.6337Z" fill="black" fill-opacity="0.28"/>
<rect x="175.05" y="59.0328" width="22.3318" height="1.38898" transform="rotate(21.5051 175.05 59.0328)" fill="#E4E4E4"/>
<rect x="160.078" y="81.0417" width="24.6472" height="10.399" fill="#E4E4E4"/>
<ellipse cx="172.389" cy="81.0417" rx="12.3236" ry="9.21888" fill="#E4E4E4"/>
<rect x="161.07" y="82.3595" width="22.6343" height="9.08124" fill="#134E78"/>
<ellipse cx="172.389" cy="82.4696" rx="11.3185" ry="8.41143" fill="#134E78"/>
<mask id="mask3_6602_228" style="mask-type:alpha" maskUnits="userSpaceOnUse" x="161" y="74" width="23" height="18">
<rect x="161.106" y="82.9978" width="22.5715" height="8.44289" fill="#134E78"/>
<ellipse cx="172.389" cy="82.7495" rx="11.3185" ry="8.69128" fill="#134E78"/>
</mask>
<g mask="url(#mask3_6602_228)">
<rect width="2.05088" height="2.06323" transform="matrix(-1 0 0 1 175.502 81.1245)" stroke="#306388" stroke-width="0.2"/>
<rect width="2.05088" height="2.06323" transform="matrix(-1 0 0 1 173.451 81.1245)" stroke="#306388" stroke-width="0.2"/>
<rect width="2.05088" height="2.06323" transform="matrix(-1 0 0 1 171.4 81.1245)" stroke="#306388" stroke-width="0.2"/>
<rect width="2.05088" height="2.06323" transform="matrix(-1 0 0 1 169.349 81.1245)" stroke="#306388" stroke-width="0.2"/>
<rect width="2.05088" height="2.06323" transform="matrix(-1 0 0 1 183.707 81.1245)" stroke="#306388" stroke-width="0.2"/>
<rect width="2.05088" height="2.06323" transform="matrix(-1 0 0 1 181.656 81.1245)" stroke="#306388" stroke-width="0.2"/>
<rect width="2.05088" height="2.06323" transform="matrix(-1 0 0 1 179.604 81.1245)" stroke="#306388" stroke-width="0.2"/>
<rect width="2.05088" height="2.06323" transform="matrix(-1 0 0 1 177.554 81.1245)" stroke="#306388" stroke-width="0.2"/>
<rect width="2.05088" height="2.06323" transform="matrix(-1 0 0 1 167.298 81.1245)" stroke="#306388" stroke-width="0.2"/>
<rect width="2.05088" height="2.06323" transform="matrix(-1 0 0 1 165.247 81.1245)" stroke="#306388" stroke-width="0.2"/>
<rect width="2.05088" height="2.06323" transform="matrix(-1 0 0 1 163.196 81.1245)" stroke="#306388" stroke-width="0.2"/>
<rect width="2.05088" height="2.06323" transform="matrix(-1 0 0 1 175.502 79.0612)" stroke="#306388" stroke-width="0.2"/>
<rect width="2.05088" height="2.06323" transform="matrix(-1 0 0 1 173.451 79.0612)" stroke="#306388" stroke-width="0.2"/>
<rect width="2.05088" height="2.06323" transform="matrix(-1 0 0 1 171.4 79.0612)" stroke="#306388" stroke-width="0.2"/>
<rect width="2.05088" height="2.06323" transform="matrix(-1 0 0 1 169.349 79.0612)" stroke="#306388" stroke-width="0.2"/>
<rect width="2.05088" height="2.06323" transform="matrix(-1 0 0 1 183.706 79.0612)" stroke="#306388" stroke-width="0.2"/>
<rect width="2.05088" height="2.06323" transform="matrix(-1 0 0 1 181.655 79.0612)" stroke="#306388" stroke-width="0.2"/>
<rect width="2.05088" height="2.06323" transform="matrix(-1 0 0 1 179.604 79.0612)" stroke="#306388" stroke-width="0.2"/>
<rect width="2.05088" height="2.06323" transform="matrix(-1 0 0 1 177.554 79.0612)" stroke="#306388" stroke-width="0.2"/>
<rect width="2.05088" height="2.06323" transform="matrix(-1 0 0 1 167.298 79.0612)" stroke="#306388" stroke-width="0.2"/>
<rect width="2.05088" height="2.06323" transform="matrix(-1 0 0 1 165.247 79.0612)" stroke="#306388" stroke-width="0.2"/>
<rect width="2.05088" height="2.06323" transform="matrix(-1 0 0 1 163.196 79.0612)" stroke="#306388" stroke-width="0.2"/>
<rect width="2.05088" height="2.06323" transform="matrix(-1 0 0 1 175.502 76.998)" stroke="#306388" stroke-width="0.2"/>
<rect width="2.05088" height="2.06323" transform="matrix(-1 0 0 1 173.451 76.998)" stroke="#306388" stroke-width="0.2"/>
<rect width="2.05088" height="2.06323" transform="matrix(-1 0 0 1 171.4 76.998)" stroke="#306388" stroke-width="0.2"/>
<rect width="2.05088" height="2.06323" transform="matrix(-1 0 0 1 169.349 76.998)" stroke="#306388" stroke-width="0.2"/>
<rect width="2.05088" height="2.06323" transform="matrix(-1 0 0 1 183.706 76.998)" stroke="#306388" stroke-width="0.2"/>
<rect width="2.05088" height="2.06323" transform="matrix(-1 0 0 1 181.655 76.998)" stroke="#306388" stroke-width="0.2"/>
<rect width="2.05088" height="2.06323" transform="matrix(-1 0 0 1 179.604 76.998)" stroke="#306388" stroke-width="0.2"/>
<rect width="2.05088" height="2.06323" transform="matrix(-1 0 0 1 177.553 76.998)" stroke="#306388" stroke-width="0.2"/>
<rect width="2.05088" height="2.06323" transform="matrix(-1 0 0 1 167.298 76.998)" stroke="#306388" stroke-width="0.2"/>
<rect width="2.05088" height="2.06323" transform="matrix(-1 0 0 1 165.247 76.998)" stroke="#306388" stroke-width="0.2"/>
<rect width="2.05088" height="2.06323" transform="matrix(-1 0 0 1 163.196 76.998)" stroke="#306388" stroke-width="0.2"/>
<rect width="2.05088" height="2.06323" transform="matrix(-1 0 0 1 175.501 74.9348)" stroke="#306388" stroke-width="0.2"/>
<rect width="2.05088" height="2.06323" transform="matrix(-1 0 0 1 173.451 74.9348)" stroke="#306388" stroke-width="0.2"/>
<rect width="2.05088" height="2.06323" transform="matrix(-1 0 0 1 171.399 74.9348)" stroke="#306388" stroke-width="0.2"/>
<rect width="2.05088" height="2.06323" transform="matrix(-1 0 0 1 169.349 74.9348)" stroke="#306388" stroke-width="0.2"/>
<rect width="2.05088" height="2.06323" transform="matrix(-1 0 0 1 183.706 74.9348)" stroke="#306388" stroke-width="0.2"/>
<rect width="2.05088" height="2.06323" transform="matrix(-1 0 0 1 181.655 74.9348)" stroke="#306388" stroke-width="0.2"/>
<rect width="2.05088" height="2.06323" transform="matrix(-1 0 0 1 179.604 74.9348)" stroke="#306388" stroke-width="0.2"/>
<rect width="2.05088" height="2.06323" transform="matrix(-1 0 0 1 177.553 74.9348)" stroke="#306388" stroke-width="0.2"/>
<rect width="2.05088" height="2.06323" transform="matrix(-1 0 0 1 167.298 74.9348)" stroke="#306388" stroke-width="0.2"/>
<rect width="2.05088" height="2.06323" transform="matrix(-1 0 0 1 165.247 74.9348)" stroke="#306388" stroke-width="0.2"/>
<rect width="2.05088" height="2.06323" transform="matrix(-1 0 0 1 163.196 74.9348)" stroke="#306388" stroke-width="0.2"/>
<rect width="2.05088" height="2.06323" transform="matrix(-1 0 0 1 175.501 72.8715)" stroke="#306388" stroke-width="0.2"/>
<rect width="2.05088" height="2.06323" transform="matrix(-1 0 0 1 173.451 72.8715)" stroke="#306388" stroke-width="0.2"/>
<rect width="2.05088" height="2.06323" transform="matrix(-1 0 0 1 171.399 72.8715)" stroke="#306388" stroke-width="0.2"/>
<rect width="2.05088" height="2.06323" transform="matrix(-1 0 0 1 169.349 72.8715)" stroke="#306388" stroke-width="0.2"/>
<rect width="2.05088" height="2.06323" transform="matrix(-1 0 0 1 183.706 72.8715)" stroke="#306388" stroke-width="0.2"/>
<rect width="2.05088" height="2.06323" transform="matrix(-1 0 0 1 181.655 72.8715)" stroke="#306388" stroke-width="0.2"/>
<rect width="2.05088" height="2.06323" transform="matrix(-1 0 0 1 179.604 72.8715)" stroke="#306388" stroke-width="0.2"/>
<rect width="2.05088" height="2.06323" transform="matrix(-1 0 0 1 177.553 72.8715)" stroke="#306388" stroke-width="0.2"/>
<rect width="2.05088" height="2.06323" transform="matrix(-1 0 0 1 167.298 72.8715)" stroke="#306388" stroke-width="0.2"/>
<rect width="2.05088" height="2.06323" transform="matrix(-1 0 0 1 165.247 72.8715)" stroke="#306388" stroke-width="0.2"/>
<rect width="2.05088" height="2.06323" transform="matrix(-1 0 0 1 163.196 72.8715)" stroke="#306388" stroke-width="0.2"/>
<rect width="2.05088" height="2.06323" transform="matrix(-1 0 0 1 175.503 89.3775)" stroke="#306388" stroke-width="0.2"/>
<rect width="2.05088" height="2.06323" transform="matrix(-1 0 0 1 173.452 89.3775)" stroke="#306388" stroke-width="0.2"/>
<rect width="2.05088" height="2.06323" transform="matrix(-1 0 0 1 171.401 89.3775)" stroke="#306388" stroke-width="0.2"/>
<rect width="2.05088" height="2.06323" transform="matrix(-1 0 0 1 169.35 89.3775)" stroke="#306388" stroke-width="0.2"/>
<rect width="2.05088" height="2.06323" transform="matrix(-1 0 0 1 183.707 89.3775)" stroke="#306388" stroke-width="0.2"/>
<rect width="2.05088" height="2.06323" transform="matrix(-1 0 0 1 181.657 89.3775)" stroke="#306388" stroke-width="0.2"/>
<rect width="2.05088" height="2.06323" transform="matrix(-1 0 0 1 179.605 89.3775)" stroke="#306388" stroke-width="0.2"/>
<rect width="2.05088" height="2.06323" transform="matrix(-1 0 0 1 177.555 89.3775)" stroke="#306388" stroke-width="0.2"/>
<rect width="2.05088" height="2.06323" transform="matrix(-1 0 0 1 167.299 89.3775)" stroke="#306388" stroke-width="0.2"/>
<rect width="2.05088" height="2.06323" transform="matrix(-1 0 0 1 165.248 89.3775)" stroke="#306388" stroke-width="0.2"/>
<rect width="2.05088" height="2.06323" transform="matrix(-1 0 0 1 163.197 89.3775)" stroke="#306388" stroke-width="0.2"/>
<rect width="2.05088" height="2.06323" transform="matrix(-1 0 0 1 175.503 87.3143)" stroke="#306388" stroke-width="0.2"/>
<rect width="2.05088" height="2.06323" transform="matrix(-1 0 0 1 173.452 87.3143)" stroke="#306388" stroke-width="0.2"/>
<rect width="2.05088" height="2.06323" transform="matrix(-1 0 0 1 171.401 87.3143)" stroke="#306388" stroke-width="0.2"/>
<rect width="2.05088" height="2.06323" transform="matrix(-1 0 0 1 169.35 87.3143)" stroke="#306388" stroke-width="0.2"/>
<rect width="2.05088" height="2.06323" transform="matrix(-1 0 0 1 183.707 87.3143)" stroke="#306388" stroke-width="0.2"/>
<rect width="2.05088" height="2.06323" transform="matrix(-1 0 0 1 181.657 87.3143)" stroke="#306388" stroke-width="0.2"/>
<rect width="2.05088" height="2.06323" transform="matrix(-1 0 0 1 179.605 87.3143)" stroke="#306388" stroke-width="0.2"/>
<rect width="2.05088" height="2.06323" transform="matrix(-1 0 0 1 177.554 87.3143)" stroke="#306388" stroke-width="0.2"/>
<rect width="2.05088" height="2.06323" transform="matrix(-1 0 0 1 167.299 87.3143)" stroke="#306388" stroke-width="0.2"/>
<rect width="2.05088" height="2.06323" transform="matrix(-1 0 0 1 165.248 87.3143)" stroke="#306388" stroke-width="0.2"/>
<rect width="2.05088" height="2.06323" transform="matrix(-1 0 0 1 163.197 87.3143)" stroke="#306388" stroke-width="0.2"/>
<rect width="2.05088" height="2.06323" transform="matrix(-1 0 0 1 175.503 85.251)" stroke="#306388" stroke-width="0.2"/>
<rect width="2.05088" height="2.06323" transform="matrix(-1 0 0 1 173.452 85.251)" stroke="#306388" stroke-width="0.2"/>
<rect width="2.05088" height="2.06323" transform="matrix(-1 0 0 1 171.401 85.251)" stroke="#306388" stroke-width="0.2"/>
<rect width="2.05088" height="2.06323" transform="matrix(-1 0 0 1 169.349 85.251)" stroke="#306388" stroke-width="0.2"/>
<rect width="2.05088" height="2.06323" transform="matrix(-1 0 0 1 183.707 85.251)" stroke="#306388" stroke-width="0.2"/>
<rect width="2.05088" height="2.06323" transform="matrix(-1 0 0 1 181.656 85.251)" stroke="#306388" stroke-width="0.2"/>
<rect width="2.05088" height="2.06323" transform="matrix(-1 0 0 1 179.605 85.251)" stroke="#306388" stroke-width="0.2"/>
<rect width="2.05088" height="2.06323" transform="matrix(-1 0 0 1 177.554 85.251)" stroke="#306388" stroke-width="0.2"/>
<rect width="2.05088" height="2.06323" transform="matrix(-1 0 0 1 167.299 85.251)" stroke="#306388" stroke-width="0.2"/>
<rect width="2.05088" height="2.06323" transform="matrix(-1 0 0 1 165.248 85.251)" stroke="#306388" stroke-width="0.2"/>
<rect width="2.05088" height="2.06323" transform="matrix(-1 0 0 1 163.197 85.251)" stroke="#306388" stroke-width="0.2"/>
<rect width="2.05088" height="2.06323" transform="matrix(-1 0 0 1 175.502 83.1878)" stroke="#306388" stroke-width="0.2"/>
<rect width="2.05088" height="2.06323" transform="matrix(-1 0 0 1 173.452 83.1878)" stroke="#306388" stroke-width="0.2"/>
<rect width="2.05088" height="2.06323" transform="matrix(-1 0 0 1 171.4 83.1878)" stroke="#306388" stroke-width="0.2"/>
<rect width="2.05088" height="2.06323" transform="matrix(-1 0 0 1 169.349 83.1878)" stroke="#306388" stroke-width="0.2"/>
<rect width="2.05088" height="2.06323" transform="matrix(-1 0 0 1 183.707 83.1878)" stroke="#306388" stroke-width="0.2"/>
<rect width="2.05088" height="2.06323" transform="matrix(-1 0 0 1 181.656 83.1878)" stroke="#306388" stroke-width="0.2"/>
<rect width="2.05088" height="2.06323" transform="matrix(-1 0 0 1 179.604 83.1878)" stroke="#306388" stroke-width="0.2"/>
<rect width="2.05088" height="2.06323" transform="matrix(-1 0 0 1 177.554 83.1878)" stroke="#306388" stroke-width="0.2"/>
<rect width="2.05088" height="2.06323" transform="matrix(-1 0 0 1 167.298 83.1878)" stroke="#306388" stroke-width="0.2"/>
<rect width="2.05088" height="2.06323" transform="matrix(-1 0 0 1 165.248 83.1878)" stroke="#306388" stroke-width="0.2"/>
<rect width="2.05088" height="2.06323" transform="matrix(-1 0 0 1 163.196 83.1878)" stroke="#306388" stroke-width="0.2"/>
<path d="M172.421 71.4858C165.217 71.4858 159.377 78.6809 159.377 87.5565C159.377 88.7747 161.016 89.5158 161.225 90.6565C162.535 83.4868 167.735 78.1314 173.95 78.1314C180.164 78.1314 185.364 83.4868 186.674 90.6565C186.883 89.5158 186.993 88.3292 186.993 87.111C186.993 78.2354 179.624 71.4858 172.421 71.4858Z" fill="black" fill-opacity="0.28"/>
</g>
<path d="M168.504 59.8432V67.0732H167.154V63.9132H163.759V67.0732H162.409V59.8432H163.759V62.9532H167.154V59.8432H168.504ZM173.025 65.9882C173.285 65.9882 173.516 65.9448 173.72 65.8582C173.926 65.7715 174.1 65.6498 174.24 65.4932C174.38 65.3365 174.486 65.1465 174.56 64.9232C174.636 64.6998 174.675 64.4498 174.675 64.1732V59.8432H176.02V64.1732C176.02 64.6032 175.95 65.0015 175.81 65.3682C175.673 65.7315 175.475 66.0465 175.215 66.3132C174.958 66.5765 174.645 66.7832 174.275 66.9332C173.905 67.0798 173.488 67.1532 173.025 67.1532C172.558 67.1532 172.14 67.0798 171.77 66.9332C171.4 66.7832 171.085 66.5765 170.825 66.3132C170.568 66.0465 170.37 65.7315 170.23 65.3682C170.093 65.0015 170.025 64.6032 170.025 64.1732V59.8432H171.37V64.1682C171.37 64.4448 171.406 64.6948 171.48 64.9182C171.556 65.1415 171.665 65.3332 171.805 65.4932C171.948 65.6498 172.121 65.7715 172.325 65.8582C172.531 65.9448 172.765 65.9882 173.025 65.9882ZM180.241 66.0232C180.491 66.0232 180.701 65.9932 180.871 65.9332C181.041 65.8732 181.176 65.7932 181.276 65.6932C181.38 65.5932 181.453 65.4765 181.496 65.3432C181.543 65.2098 181.566 65.0682 181.566 64.9182C181.566 64.7615 181.541 64.6215 181.491 64.4982C181.441 64.3715 181.363 64.2648 181.256 64.1782C181.15 64.0882 181.011 64.0198 180.841 63.9732C180.675 63.9265 180.473 63.9032 180.236 63.9032H178.881V66.0232H180.241ZM178.881 60.8832V62.9732H179.951C180.411 62.9732 180.758 62.8898 180.991 62.7232C181.228 62.5565 181.346 62.2915 181.346 61.9282C181.346 61.5515 181.24 61.2832 181.026 61.1232C180.813 60.9632 180.48 60.8832 180.026 60.8832H178.881ZM180.026 59.8432C180.5 59.8432 180.905 59.8882 181.241 59.9782C181.578 60.0682 181.853 60.1965 182.066 60.3632C182.283 60.5298 182.441 60.7315 182.541 60.9682C182.641 61.2048 182.691 61.4715 182.691 61.7682C182.691 61.9382 182.666 62.1015 182.616 62.2582C182.566 62.4115 182.488 62.5565 182.381 62.6932C182.278 62.8265 182.145 62.9482 181.981 63.0582C181.821 63.1682 181.63 63.2615 181.406 63.3382C182.4 63.5615 182.896 64.0982 182.896 64.9482C182.896 65.2548 182.838 65.5382 182.721 65.7982C182.605 66.0582 182.435 66.2832 182.211 66.4732C181.988 66.6598 181.713 66.8065 181.386 66.9132C181.06 67.0198 180.686 67.0732 180.266 67.0732H177.536V59.8432H180.026Z" fill="#134E78"/>
<path d="M194.87 58.4612L197.703 57.9052L195.805 55.73L194.87 58.4612ZM158.292 90.3753L155.46 90.9313L157.357 93.1065L158.292 90.3753ZM149.148 98.3538L151.981 97.7979L150.083 95.6227L149.148 98.3538ZM204.015 50.4827L201.182 51.0387L203.08 53.2139L204.015 50.4827ZM156.433 91.6662L150.679 96.6862L151.008 97.063L156.761 92.0429L156.433 91.6662ZM202.155 51.7736L196.401 56.7936L196.73 57.1704L202.483 52.1503L202.155 51.7736Z" fill="#1A425F"/>
<path d="M158.576 58.7085L155.743 58.1525L157.641 55.9773L158.576 58.7085ZM194.927 90.4248L197.76 90.9807L195.862 93.1559L194.927 90.4248ZM204.015 98.3538L201.182 97.7978L203.08 95.6226L204.015 98.3538ZM149.488 50.7794L152.321 51.3354L150.423 53.5106L149.488 50.7794ZM196.787 91.7156L202.484 96.6862L202.155 97.063L196.458 92.0924L196.787 91.7156ZM151.348 52.0702L157.045 57.0409L156.716 57.4176L151.019 52.447L151.348 52.0702Z" fill="#1A425F"/>
<path d="M176.667 55.8394L178.075 53.3194L175.188 53.3599L176.667 55.8394ZM176.479 42.5088L175.071 45.0288L177.958 44.9882L176.479 42.5088ZM176.479 94.9512L175.077 97.4743L177.963 97.4274L176.479 94.9512ZM176.704 108.758L178.106 106.235L175.22 106.282L176.704 108.758ZM176.261 44.7621L176.385 53.5931L176.885 53.5861L176.761 44.755L176.261 44.7621ZM176.266 97.205L176.417 106.513L176.917 106.505L176.766 97.1968L176.266 97.205Z" fill="#1A425F"/>
<path d="M214.515 75.4936L212.015 74.0502L212.015 76.9369L214.515 75.4936ZM151.493 75.4936L151.493 75.2436L151.493 75.4936ZM138.888 75.4936L141.388 76.9369L141.388 74.0502L138.888 75.4936ZM198.759 75.4936L201.259 76.9369L201.259 74.0502L198.759 75.4936ZM154.644 75.4936L152.144 74.0502L152.144 76.9369L154.644 75.4936ZM212.265 75.2436L201.911 75.2436L201.911 75.7436L212.265 75.7436L212.265 75.2436ZM151.493 75.2436L141.138 75.2436L141.138 75.7436L151.493 75.7436L151.493 75.2436ZM201.911 75.2436L201.009 75.2436L201.009 75.7436L201.911 75.7436L201.911 75.2436ZM152.394 75.2436L151.493 75.2436L151.493 75.7436L152.394 75.7436L152.394 75.2436Z" fill="#1A425F"/>
<path d="M15.7684 15.2023C16.0975 15.2023 16.3845 15.1623 16.6291 15.0822C16.8738 14.9977 17.0762 14.8798 17.2364 14.7285C17.401 14.5728 17.5233 14.386 17.6034 14.168C17.6834 13.9456 17.7235 13.6987 17.7235 13.4274C17.7235 13.1694 17.6834 12.9358 17.6034 12.7267C17.5233 12.5176 17.4032 12.3397 17.243 12.1929C17.0829 12.0461 16.8805 11.9349 16.6358 11.8593C16.3911 11.7792 16.102 11.7392 15.7684 11.7392H14.4271V15.2023H15.7684ZM15.7684 10.3512C16.4134 10.3512 16.9717 10.4269 17.4432 10.5781C17.9148 10.7294 18.304 10.9407 18.6109 11.212C18.9179 11.4834 19.1448 11.8081 19.2916 12.1862C19.4428 12.5644 19.5184 12.9781 19.5184 13.4274C19.5184 13.8945 19.4406 14.3237 19.2849 14.7152C19.1292 15.1022 18.8956 15.4359 18.5842 15.7161C18.2729 15.9964 17.8814 16.2143 17.4098 16.37C16.9428 16.5257 16.3956 16.6036 15.7684 16.6036H14.4271V20H12.6322V10.3512H15.7684ZM23.3513 13.047C23.8584 13.047 24.3188 13.1293 24.7325 13.2939C25.1507 13.4585 25.5066 13.692 25.8002 13.9945C26.0982 14.297 26.3273 14.6663 26.4875 15.1022C26.6476 15.5382 26.7277 16.0253 26.7277 16.5635C26.7277 17.1063 26.6476 17.5956 26.4875 18.0315C26.3273 18.4675 26.0982 18.8389 25.8002 19.1459C25.5066 19.4528 25.1507 19.6886 24.7325 19.8532C24.3188 20.0178 23.8584 20.1001 23.3513 20.1001C22.8397 20.1001 22.3748 20.0178 21.9567 19.8532C21.5385 19.6886 21.1804 19.4528 20.8824 19.1459C20.5888 18.8389 20.3597 18.4675 20.1951 18.0315C20.0349 17.5956 19.9549 17.1063 19.9549 16.5635C19.9549 16.0253 20.0349 15.5382 20.1951 15.1022C20.3597 14.6663 20.5888 14.297 20.8824 13.9945C21.1804 13.692 21.5385 13.4585 21.9567 13.2939C22.3748 13.1293 22.8397 13.047 23.3513 13.047ZM23.3513 18.8323C23.9207 18.8323 24.3411 18.641 24.6124 18.2584C24.8882 17.8758 25.0261 17.3153 25.0261 16.5769C25.0261 15.8384 24.8882 15.2757 24.6124 14.8887C24.3411 14.5017 23.9207 14.3082 23.3513 14.3082C22.773 14.3082 22.3437 14.5039 22.0634 14.8954C21.7876 15.2824 21.6497 15.8429 21.6497 16.5769C21.6497 17.3109 21.7876 17.8714 22.0634 18.2584C22.3437 18.641 22.773 18.8323 23.3513 18.8323ZM29.6933 13.1538V20H28.0385V13.1538H29.6933ZM29.9202 11.1586C29.9202 11.301 29.8913 11.4344 29.8334 11.559C29.7756 11.6836 29.6977 11.7925 29.5999 11.886C29.5065 11.9794 29.3952 12.055 29.2662 12.1128C29.1372 12.1662 28.9993 12.1929 28.8525 12.1929C28.7102 12.1929 28.5745 12.1662 28.4455 12.1128C28.3209 12.055 28.212 11.9794 28.1185 11.886C28.0251 11.7925 27.9495 11.6836 27.8917 11.559C27.8383 11.4344 27.8116 11.301 27.8116 11.1586C27.8116 11.0118 27.8383 10.8739 27.8917 10.7449C27.9495 10.6159 28.0251 10.5047 28.1185 10.4113C28.212 10.3179 28.3209 10.2445 28.4455 10.1911C28.5745 10.1333 28.7102 10.1043 28.8525 10.1043C28.9993 10.1043 29.1372 10.1333 29.2662 10.1911C29.3952 10.2445 29.5065 10.3179 29.5999 10.4113C29.6977 10.5047 29.7756 10.6159 29.8334 10.7449C29.8913 10.8739 29.9202 11.0118 29.9202 11.1586ZM32.915 13.9945C33.0529 13.8566 33.1975 13.7299 33.3487 13.6142C33.5044 13.4941 33.6668 13.394 33.8358 13.3139C34.0093 13.2294 34.1939 13.1649 34.3896 13.1204C34.5854 13.0715 34.7989 13.047 35.0302 13.047C35.4039 13.047 35.7353 13.1115 36.0245 13.2405C36.3136 13.3651 36.5538 13.543 36.7451 13.7743C36.9409 14.0012 37.0877 14.2748 37.1855 14.5951C37.2878 14.9109 37.339 15.2601 37.339 15.6427V20H35.6908V15.6427C35.6908 15.2246 35.5952 14.902 35.4039 14.6752C35.2126 14.4438 34.9212 14.3282 34.5298 14.3282C34.2451 14.3282 33.9782 14.3927 33.729 14.5217C33.4799 14.6507 33.2442 14.8264 33.0217 15.0488V20H31.3736V13.1538H32.3812C32.5947 13.1538 32.7348 13.2539 32.8015 13.4541L32.915 13.9945ZM41.0973 20.1068C40.5012 20.1068 40.043 19.9399 39.7227 19.6063C39.4069 19.2682 39.249 18.8034 39.249 18.2117V14.3882H38.5483C38.4593 14.3882 38.3837 14.3593 38.3214 14.3015C38.2592 14.2437 38.228 14.1569 38.228 14.0413V13.3873L39.329 13.2072L39.676 11.3388C39.6983 11.2498 39.7405 11.1809 39.8028 11.1319C39.8651 11.083 39.9451 11.0585 40.043 11.0585H40.8971V13.2138H42.7254V14.3882H40.8971V18.0983C40.8971 18.3118 40.9483 18.4786 41.0506 18.5987C41.1574 18.7188 41.3019 18.7789 41.4843 18.7789C41.5866 18.7789 41.6712 18.7678 41.7379 18.7455C41.8091 18.7188 41.8691 18.6921 41.918 18.6655C41.9714 18.6388 42.0181 18.6143 42.0582 18.5921C42.0982 18.5654 42.1382 18.552 42.1783 18.552C42.2272 18.552 42.2673 18.5654 42.2984 18.5921C42.3295 18.6143 42.3629 18.6499 42.3985 18.6988L42.8923 19.4995C42.652 19.6997 42.3762 19.851 42.0648 19.9533C41.7535 20.0556 41.4309 20.1068 41.0973 20.1068ZM49.3079 20.1068C48.7118 20.1068 48.2536 19.9399 47.9333 19.6063C47.6175 19.2682 47.4595 18.8034 47.4595 18.2117V14.3882H46.7589C46.6699 14.3882 46.5943 14.3593 46.532 14.3015C46.4698 14.2437 46.4386 14.1569 46.4386 14.0413V13.3873L47.5396 13.2072L47.8866 11.3388C47.9088 11.2498 47.9511 11.1809 48.0134 11.1319C48.0757 11.083 48.1557 11.0585 48.2536 11.0585H49.1077V13.2138H50.936V14.3882H49.1077V18.0983C49.1077 18.3118 49.1589 18.4786 49.2612 18.5987C49.3679 18.7188 49.5125 18.7789 49.6949 18.7789C49.7972 18.7789 49.8817 18.7678 49.9485 18.7455C50.0196 18.7188 50.0797 18.6921 50.1286 18.6655C50.182 18.6388 50.2287 18.6143 50.2688 18.5921C50.3088 18.5654 50.3488 18.552 50.3889 18.552C50.4378 18.552 50.4778 18.5654 50.509 18.5921C50.5401 18.6143 50.5735 18.6499 50.6091 18.6988L51.1028 19.4995C50.8626 19.6997 50.5868 19.851 50.2754 19.9533C49.964 20.0556 49.6415 20.1068 49.3079 20.1068ZM54.9685 13.047C55.4757 13.047 55.9361 13.1293 56.3498 13.2939C56.768 13.4585 57.1238 13.692 57.4174 13.9945C57.7155 14.297 57.9446 14.6663 58.1047 15.1022C58.2649 15.5382 58.3449 16.0253 58.3449 16.5635C58.3449 17.1063 58.2649 17.5956 58.1047 18.0315C57.9446 18.4675 57.7155 18.8389 57.4174 19.1459C57.1238 19.4528 56.768 19.6886 56.3498 19.8532C55.9361 20.0178 55.4757 20.1001 54.9685 20.1001C54.457 20.1001 53.9921 20.0178 53.5739 19.8532C53.1558 19.6886 52.7977 19.4528 52.4996 19.1459C52.206 18.8389 51.9769 18.4675 51.8123 18.0315C51.6522 17.5956 51.5721 17.1063 51.5721 16.5635C51.5721 16.0253 51.6522 15.5382 51.8123 15.1022C51.9769 14.6663 52.206 14.297 52.4996 13.9945C52.7977 13.692 53.1558 13.4585 53.5739 13.2939C53.9921 13.1293 54.457 13.047 54.9685 13.047ZM54.9685 18.8323C55.538 18.8323 55.9583 18.641 56.2297 18.2584C56.5055 17.8758 56.6434 17.3153 56.6434 16.5769C56.6434 15.8384 56.5055 15.2757 56.2297 14.8887C55.9583 14.5017 55.538 14.3082 54.9685 14.3082C54.3902 14.3082 53.961 14.5039 53.6807 14.8954C53.4049 15.2824 53.267 15.8429 53.267 16.5769C53.267 17.3109 53.4049 17.8714 53.6807 18.2584C53.961 18.641 54.3902 18.8323 54.9685 18.8323ZM66.2439 15.2023C66.5731 15.2023 66.86 15.1623 67.1047 15.0822C67.3493 14.9977 67.5517 14.8798 67.7119 14.7285C67.8765 14.5728 67.9988 14.386 68.0789 14.168C68.159 13.9456 68.199 13.6987 68.199 13.4274C68.199 13.1694 68.159 12.9358 68.0789 12.7267C67.9988 12.5176 67.8787 12.3397 67.7186 12.1929C67.5584 12.0461 67.356 11.9349 67.1113 11.8593C66.8667 11.7792 66.5775 11.7392 66.2439 11.7392H64.9027V15.2023H66.2439ZM66.2439 10.3512C66.8889 10.3512 67.4472 10.4269 67.9187 10.5781C68.3903 10.7294 68.7795 10.9407 69.0865 11.212C69.3934 11.4834 69.6203 11.8081 69.7671 12.1862C69.9183 12.5644 69.994 12.9781 69.994 13.4274C69.994 13.8945 69.9161 14.3237 69.7604 14.7152C69.6047 15.1022 69.3712 15.4359 69.0598 15.7161C68.7484 15.9964 68.3569 16.2143 67.8854 16.37C67.4183 16.5257 66.8711 16.6036 66.2439 16.6036H64.9027V20H63.1077V10.3512H66.2439ZM73.8268 13.047C74.3339 13.047 74.7944 13.1293 75.2081 13.2939C75.6262 13.4585 75.9821 13.692 76.2757 13.9945C76.5738 14.297 76.8029 14.6663 76.963 15.1022C77.1231 15.5382 77.2032 16.0253 77.2032 16.5635C77.2032 17.1063 77.1231 17.5956 76.963 18.0315C76.8029 18.4675 76.5738 18.8389 76.2757 19.1459C75.9821 19.4528 75.6262 19.6886 75.2081 19.8532C74.7944 20.0178 74.3339 20.1001 73.8268 20.1001C73.3152 20.1001 72.8504 20.0178 72.4322 19.8532C72.0141 19.6886 71.656 19.4528 71.3579 19.1459C71.0643 18.8389 70.8352 18.4675 70.6706 18.0315C70.5105 17.5956 70.4304 17.1063 70.4304 16.5635C70.4304 16.0253 70.5105 15.5382 70.6706 15.1022C70.8352 14.6663 71.0643 14.297 71.3579 13.9945C71.656 13.692 72.0141 13.4585 72.4322 13.2939C72.8504 13.1293 73.3152 13.047 73.8268 13.047ZM73.8268 18.8323C74.3962 18.8323 74.8166 18.641 75.088 18.2584C75.3638 17.8758 75.5017 17.3153 75.5017 16.5769C75.5017 15.8384 75.3638 15.2757 75.088 14.8887C74.8166 14.5017 74.3962 14.3082 73.8268 14.3082C73.2485 14.3082 72.8192 14.5039 72.539 14.8954C72.2632 15.2824 72.1253 15.8429 72.1253 16.5769C72.1253 17.3109 72.2632 17.8714 72.539 18.2584C72.8192 18.641 73.2485 18.8323 73.8268 18.8323ZM80.1688 13.1538V20H78.514V13.1538H80.1688ZM80.3957 11.1586C80.3957 11.301 80.3668 11.4344 80.309 11.559C80.2511 11.6836 80.1733 11.7925 80.0754 11.886C79.982 11.9794 79.8708 12.055 79.7418 12.1128C79.6128 12.1662 79.4749 12.1929 79.3281 12.1929C79.1857 12.1929 79.05 12.1662 78.921 12.1128C78.7965 12.055 78.6875 11.9794 78.5941 11.886C78.5007 11.7925 78.425 11.6836 78.3672 11.559C78.3138 11.4344 78.2871 11.301 78.2871 11.1586C78.2871 11.0118 78.3138 10.8739 78.3672 10.7449C78.425 10.6159 78.5007 10.5047 78.5941 10.4113C78.6875 10.3179 78.7965 10.2445 78.921 10.1911C79.05 10.1333 79.1857 10.1043 79.3281 10.1043C79.4749 10.1043 79.6128 10.1333 79.7418 10.1911C79.8708 10.2445 79.982 10.3179 80.0754 10.4113C80.1733 10.5047 80.2511 10.6159 80.309 10.7449C80.3668 10.8739 80.3957 11.0118 80.3957 11.1586ZM83.3905 13.9945C83.5284 13.8566 83.673 13.7299 83.8242 13.6142C83.9799 13.4941 84.1423 13.394 84.3113 13.3139C84.4848 13.2294 84.6694 13.1649 84.8652 13.1204C85.0609 13.0715 85.2744 13.047 85.5058 13.047C85.8794 13.047 86.2108 13.1115 86.5 13.2405C86.7892 13.3651 87.0294 13.543 87.2207 13.7743C87.4164 14.0012 87.5632 14.2748 87.6611 14.5951C87.7634 14.9109 87.8145 15.2601 87.8145 15.6427V20H86.1664V15.6427C86.1664 15.2246 86.0707 14.902 85.8794 14.6752C85.6881 14.4438 85.3968 14.3282 85.0053 14.3282C84.7206 14.3282 84.4537 14.3927 84.2046 14.5217C83.9555 14.6507 83.7197 14.8264 83.4973 15.0488V20H81.8491V13.1538H82.8567C83.0702 13.1538 83.2103 13.2539 83.2771 13.4541L83.3905 13.9945ZM91.5728 20.1068C90.9767 20.1068 90.5185 19.9399 90.1982 19.6063C89.8824 19.2682 89.7245 18.8034 89.7245 18.2117V14.3882H89.0238C88.9349 14.3882 88.8593 14.3593 88.797 14.3015C88.7347 14.2437 88.7036 14.1569 88.7036 14.0413V13.3873L89.8046 13.2072L90.1515 11.3388C90.1738 11.2498 90.216 11.1809 90.2783 11.1319C90.3406 11.083 90.4207 11.0585 90.5185 11.0585H91.3726V13.2138H93.201V14.3882H91.3726V18.0983C91.3726 18.3118 91.4238 18.4786 91.5261 18.5987C91.6329 18.7188 91.7775 18.7789 91.9598 18.7789C92.0622 18.7789 92.1467 18.7678 92.2134 18.7455C92.2846 18.7188 92.3446 18.6921 92.3936 18.6655C92.447 18.6388 92.4937 18.6143 92.5337 18.5921C92.5737 18.5654 92.6138 18.552 92.6538 18.552C92.7027 18.552 92.7428 18.5654 92.7739 18.5921C92.8051 18.6143 92.8384 18.6499 92.874 18.6988L93.3678 19.4995C93.1276 19.6997 92.8518 19.851 92.5404 19.9533C92.229 20.0556 91.9065 20.1068 91.5728 20.1068Z" fill="#306388"/>
<path d="M146.863 10.3512V20H145.061V15.7828H140.53V20H138.729V10.3512H140.53V14.5017H145.061V10.3512H146.863ZM154.52 13.1538V20H153.512C153.294 20 153.156 19.8999 153.098 19.6997L152.985 19.1526C152.705 19.4373 152.395 19.6686 152.057 19.8465C151.719 20.02 151.321 20.1068 150.863 20.1068C150.489 20.1068 150.158 20.0445 149.869 19.9199C149.584 19.7909 149.344 19.6108 149.148 19.3794C148.952 19.1481 148.803 18.8745 148.701 18.5587C148.603 18.2384 148.554 17.887 148.554 17.5044V13.1538H150.202V17.5044C150.202 17.9226 150.298 18.2473 150.489 18.4786C150.685 18.7055 150.976 18.8189 151.363 18.8189C151.648 18.8189 151.915 18.7566 152.164 18.6321C152.413 18.5031 152.649 18.3274 152.871 18.1049V13.1538H154.52ZM157.802 18.2251C157.989 18.4519 158.191 18.6121 158.409 18.7055C158.632 18.7989 158.865 18.8456 159.11 18.8456C159.363 18.8456 159.59 18.8011 159.79 18.7122C159.995 18.6187 160.168 18.4764 160.311 18.2851C160.453 18.0894 160.562 17.8425 160.638 17.5444C160.713 17.2419 160.751 16.8816 160.751 16.4635C160.751 15.7117 160.627 15.1689 160.378 14.8353C160.128 14.4972 159.77 14.3282 159.303 14.3282C158.987 14.3282 158.712 14.4016 158.476 14.5484C158.24 14.6907 158.015 14.8931 157.802 15.1556V18.2251ZM157.802 13.9945C158.078 13.7054 158.382 13.4763 158.716 13.3073C159.054 13.1338 159.439 13.047 159.87 13.047C160.266 13.047 160.622 13.1249 160.938 13.2806C161.258 13.4363 161.53 13.6609 161.752 13.9545C161.979 14.2437 162.152 14.5951 162.273 15.0088C162.393 15.4225 162.453 15.8874 162.453 16.4034C162.453 16.9595 162.384 17.4644 162.246 17.9181C162.108 18.3719 161.91 18.7611 161.652 19.0858C161.398 19.4061 161.092 19.6552 160.731 19.8332C160.371 20.0111 159.971 20.1001 159.53 20.1001C159.317 20.1001 159.123 20.0778 158.95 20.0334C158.776 19.9933 158.616 19.9355 158.469 19.8599C158.322 19.7842 158.187 19.6931 158.062 19.5863C157.942 19.4751 157.826 19.3527 157.715 19.2193L157.642 19.6797C157.615 19.7954 157.568 19.8777 157.502 19.9266C157.439 19.9755 157.353 20 157.241 20H156.154V10.0843H157.802V13.9945ZM169.346 15.4892C168.99 15.7206 168.73 15.983 168.566 16.2766C168.405 16.5658 168.325 16.8772 168.325 17.2108C168.325 17.4555 168.368 17.6757 168.452 17.8714C168.537 18.0671 168.65 18.234 168.792 18.3719C168.939 18.5053 169.108 18.6098 169.3 18.6855C169.495 18.7566 169.702 18.7922 169.92 18.7922C170.312 18.7922 170.67 18.7322 170.994 18.6121C171.319 18.4875 171.613 18.3162 171.875 18.0983L169.346 15.4892ZM175.772 20H174.157C173.988 20 173.85 19.98 173.744 19.9399C173.641 19.8999 173.532 19.8154 173.417 19.6864L172.749 18.9991C172.327 19.3461 171.853 19.6174 171.328 19.8132C170.803 20.0089 170.236 20.1068 169.627 20.1068C169.257 20.1068 168.893 20.0445 168.532 19.9199C168.176 19.7909 167.858 19.6063 167.578 19.3661C167.298 19.1259 167.071 18.8367 166.897 18.4986C166.728 18.1561 166.644 17.7713 166.644 17.3443C166.644 17.0418 166.693 16.7571 166.791 16.4901C166.889 16.2188 167.024 15.9674 167.198 15.7361C167.371 15.5048 167.578 15.298 167.818 15.1156C168.058 14.9287 168.321 14.7686 168.606 14.6351C168.365 14.3015 168.192 13.9768 168.085 13.6609C167.978 13.3406 167.925 13.0226 167.925 12.7067C167.925 12.3731 167.985 12.0572 168.105 11.7592C168.23 11.4567 168.408 11.1942 168.639 10.9718C168.87 10.7494 169.155 10.5737 169.493 10.4447C169.831 10.3112 170.214 10.2445 170.641 10.2445C171.032 10.2445 171.382 10.3045 171.688 10.4246C172 10.5447 172.265 10.7049 172.483 10.9051C172.705 11.1053 172.878 11.3344 173.003 11.5924C173.132 11.8504 173.208 12.1173 173.23 12.3931L172.182 12.6133C171.986 12.6533 171.844 12.5688 171.755 12.3597C171.715 12.2441 171.662 12.1351 171.595 12.0328C171.533 11.926 171.457 11.8348 171.368 11.7592C171.279 11.6791 171.175 11.6168 171.055 11.5723C170.934 11.5234 170.797 11.4989 170.641 11.4989C170.454 11.4989 170.287 11.5323 170.14 11.599C169.994 11.6613 169.869 11.7481 169.767 11.8593C169.669 11.966 169.593 12.0928 169.54 12.2396C169.486 12.382 169.46 12.5332 169.46 12.6934C169.46 12.8268 169.473 12.9558 169.5 13.0804C169.526 13.2049 169.571 13.3295 169.633 13.4541C169.696 13.5786 169.776 13.7076 169.873 13.8411C169.976 13.9701 170.1 14.1102 170.247 14.2615L172.809 16.9239C172.956 16.6436 173.074 16.3478 173.163 16.0364C173.252 15.725 173.31 15.4092 173.337 15.0889C173.35 14.9866 173.386 14.9043 173.443 14.842C173.501 14.7797 173.581 14.7486 173.684 14.7486H174.711C174.707 15.3358 174.622 15.8963 174.458 16.4301C174.293 16.9639 174.057 17.4555 173.75 17.9048L175.772 20ZM185.271 12.1062C185.218 12.1996 185.16 12.2685 185.098 12.313C185.04 12.3531 184.967 12.3731 184.878 12.3731C184.784 12.3731 184.682 12.3397 184.571 12.273C184.464 12.2018 184.335 12.124 184.184 12.0394C184.033 11.9549 183.855 11.8793 183.65 11.8126C183.45 11.7414 183.212 11.7058 182.936 11.7058C182.687 11.7058 182.469 11.7369 182.282 11.7992C182.095 11.857 181.937 11.9393 181.808 12.0461C181.684 12.1529 181.59 12.2819 181.528 12.4331C181.466 12.5799 181.435 12.7423 181.435 12.9202C181.435 13.1471 181.497 13.3362 181.621 13.4874C181.75 13.6387 181.919 13.7677 182.129 13.8744C182.338 13.9812 182.576 14.0768 182.843 14.1614C183.109 14.2459 183.383 14.3371 183.663 14.4349C183.944 14.5284 184.217 14.6396 184.484 14.7686C184.751 14.8931 184.989 15.0533 185.198 15.249C185.407 15.4403 185.574 15.6761 185.698 15.9563C185.827 16.2366 185.892 16.5769 185.892 16.9773C185.892 17.4132 185.816 17.8225 185.665 18.205C185.518 18.5832 185.3 18.9146 185.011 19.1993C184.726 19.4795 184.377 19.702 183.964 19.8665C183.55 20.0267 183.076 20.1068 182.542 20.1068C182.235 20.1068 181.933 20.0756 181.635 20.0133C181.337 19.9555 181.05 19.871 180.774 19.7598C180.503 19.6486 180.247 19.5151 180.007 19.3594C179.766 19.2037 179.553 19.0302 179.366 18.8389L179.893 17.9782C179.938 17.9159 179.996 17.8647 180.067 17.8247C180.138 17.7802 180.213 17.758 180.294 17.758C180.405 17.758 180.525 17.8047 180.654 17.8981C180.783 17.9871 180.936 18.0872 181.114 18.1984C181.292 18.3096 181.499 18.4119 181.735 18.5053C181.975 18.5943 182.262 18.6388 182.596 18.6388C183.107 18.6388 183.503 18.5187 183.783 18.2784C184.064 18.0338 184.204 17.6846 184.204 17.2308C184.204 16.9773 184.139 16.7704 184.01 16.6103C183.886 16.4501 183.719 16.3167 183.51 16.2099C183.301 16.0987 183.063 16.0053 182.796 15.9296C182.529 15.854 182.258 15.7717 181.982 15.6827C181.706 15.5938 181.435 15.487 181.168 15.3625C180.901 15.2379 180.663 15.0755 180.454 14.8753C180.245 14.6752 180.076 14.426 179.947 14.128C179.822 13.8255 179.76 13.4541 179.76 13.0137C179.76 12.6622 179.829 12.3197 179.967 11.9861C180.109 11.6524 180.314 11.3566 180.58 11.0986C180.847 10.8406 181.177 10.6337 181.568 10.478C181.96 10.3223 182.409 10.2445 182.916 10.2445C183.485 10.2445 184.01 10.3334 184.491 10.5114C184.971 10.6893 185.38 10.9384 185.718 11.2587L185.271 12.1062ZM188.715 18.2251C188.902 18.4519 189.105 18.6121 189.323 18.7055C189.545 18.7989 189.785 18.8456 190.043 18.8456C190.292 18.8456 190.517 18.7989 190.717 18.7055C190.917 18.6121 191.086 18.4697 191.224 18.2784C191.367 18.0872 191.476 17.8469 191.551 17.5578C191.627 17.2642 191.665 16.9194 191.665 16.5235C191.665 16.1231 191.631 15.7851 191.565 15.5093C191.502 15.229 191.411 15.0021 191.291 14.8286C191.171 14.6551 191.024 14.5284 190.851 14.4483C190.682 14.3682 190.488 14.3282 190.27 14.3282C189.928 14.3282 189.636 14.4016 189.396 14.5484C189.156 14.6907 188.929 14.8931 188.715 15.1556V18.2251ZM188.629 14.088C188.909 13.7721 189.227 13.5163 189.583 13.3206C189.939 13.1249 190.357 13.027 190.837 13.027C191.211 13.027 191.551 13.1048 191.858 13.2605C192.17 13.4162 192.437 13.6431 192.659 13.9412C192.886 14.2348 193.059 14.5995 193.179 15.0355C193.304 15.467 193.366 15.963 193.366 16.5235C193.366 17.0351 193.297 17.5088 193.159 17.9448C193.022 18.3808 192.824 18.7589 192.566 19.0792C192.312 19.3995 192.003 19.6508 191.638 19.8332C191.278 20.0111 190.873 20.1001 190.424 20.1001C190.041 20.1001 189.714 20.0423 189.443 19.9266C189.171 19.8065 188.929 19.6419 188.715 19.4328V22.2354H187.067V13.1538H188.075C188.288 13.1538 188.428 13.2539 188.495 13.4541L188.629 14.088ZM197.682 13.047C198.189 13.047 198.649 13.1293 199.063 13.2939C199.481 13.4585 199.837 13.692 200.131 13.9945C200.429 14.297 200.658 14.6663 200.818 15.1022C200.978 15.5382 201.058 16.0253 201.058 16.5635C201.058 17.1063 200.978 17.5956 200.818 18.0315C200.658 18.4675 200.429 18.8389 200.131 19.1459C199.837 19.4528 199.481 19.6886 199.063 19.8532C198.649 20.0178 198.189 20.1001 197.682 20.1001C197.17 20.1001 196.705 20.0178 196.287 19.8532C195.869 19.6886 195.511 19.4528 195.213 19.1459C194.919 18.8389 194.69 18.4675 194.525 18.0315C194.365 17.5956 194.285 17.1063 194.285 16.5635C194.285 16.0253 194.365 15.5382 194.525 15.1022C194.69 14.6663 194.919 14.297 195.213 13.9945C195.511 13.692 195.869 13.4585 196.287 13.2939C196.705 13.1293 197.17 13.047 197.682 13.047ZM197.682 18.8323C198.251 18.8323 198.671 18.641 198.943 18.2584C199.219 17.8758 199.356 17.3153 199.356 16.5769C199.356 15.8384 199.219 15.2757 198.943 14.8887C198.671 14.5017 198.251 14.3082 197.682 14.3082C197.103 14.3082 196.674 14.5039 196.394 14.8954C196.118 15.2824 195.98 15.8429 195.98 16.5769C195.98 17.3109 196.118 17.8714 196.394 18.2584C196.674 18.641 197.103 18.8323 197.682 18.8323ZM203.964 10.0843V15.7628H204.271C204.382 15.7628 204.468 15.7495 204.531 15.7228C204.598 15.6916 204.664 15.6316 204.731 15.5426L206.433 13.4407C206.504 13.3473 206.582 13.2761 206.666 13.2272C206.755 13.1782 206.868 13.1538 207.006 13.1538H208.514L206.386 15.6961C206.235 15.8963 206.07 16.0497 205.892 16.1565C205.985 16.2232 206.068 16.3011 206.139 16.3901C206.215 16.479 206.286 16.5747 206.352 16.677L208.635 20H207.146C207.017 20 206.906 19.98 206.813 19.9399C206.719 19.8955 206.642 19.8176 206.579 19.7064L204.831 17.1107C204.769 17.0084 204.704 16.9417 204.638 16.9105C204.571 16.8794 204.471 16.8638 204.337 16.8638H203.964V20H202.315V10.0843H203.964ZM213.503 15.7895C213.503 15.576 213.472 15.3758 213.41 15.189C213.352 14.9977 213.263 14.8309 213.143 14.6885C213.023 14.5462 212.869 14.4349 212.682 14.3549C212.5 14.2704 212.286 14.2281 212.042 14.2281C211.566 14.2281 211.19 14.3638 210.914 14.6351C210.643 14.9065 210.469 15.2913 210.394 15.7895H213.503ZM210.36 16.7837C210.387 17.1352 210.449 17.4399 210.547 17.6979C210.645 17.9515 210.774 18.1628 210.934 18.3318C211.094 18.4964 211.283 18.621 211.501 18.7055C211.724 18.7856 211.968 18.8256 212.235 18.8256C212.502 18.8256 212.731 18.7945 212.923 18.7322C213.118 18.6699 213.287 18.601 213.43 18.5253C213.576 18.4497 213.703 18.3808 213.81 18.3185C213.921 18.2562 214.028 18.2251 214.13 18.2251C214.268 18.2251 214.371 18.2762 214.437 18.3785L214.911 18.9791C214.729 19.1926 214.524 19.3728 214.297 19.5196C214.07 19.6619 213.832 19.7776 213.583 19.8665C213.339 19.9511 213.087 20.0111 212.829 20.0467C212.576 20.0823 212.329 20.1001 212.088 20.1001C211.612 20.1001 211.17 20.0222 210.761 19.8665C210.351 19.7064 209.995 19.4729 209.693 19.1659C209.39 18.8545 209.152 18.4719 208.979 18.0182C208.805 17.56 208.719 17.0306 208.719 16.4301C208.719 15.963 208.794 15.5248 208.946 15.1156C209.097 14.7019 209.313 14.3438 209.593 14.0413C209.878 13.7343 210.222 13.4919 210.627 13.3139C211.036 13.136 211.497 13.047 212.008 13.047C212.44 13.047 212.838 13.116 213.203 13.2539C213.568 13.3918 213.881 13.5942 214.144 13.8611C214.406 14.1236 214.611 14.4483 214.758 14.8353C214.909 15.2179 214.984 15.6561 214.984 16.1498C214.984 16.399 214.958 16.568 214.904 16.657C214.851 16.7415 214.749 16.7837 214.597 16.7837H210.36Z" fill="#306388"/>
<path d="M114.5 13.743V122.257" stroke="#D7EAF8" stroke-width="0.5" stroke-linecap="round"/>
<defs>
<radialGradient id="paint0_angular_6602_228" cx="0" cy="0" r="1" gradientUnits="userSpaceOnUse" gradientTransform="translate(6.6601 34.2679) rotate(-90) scale(4.34233)">
<stop stop-color="#165A8B"/>
<stop offset="1" stop-color="#1B415D"/>
</radialGradient>
<radialGradient id="paint1_angular_6602_228" cx="0" cy="0" r="1" gradientUnits="userSpaceOnUse" gradientTransform="translate(6.6601 34.2679) rotate(-90) scale(4.27729)">
<stop stop-color="#165A8B"/>
<stop offset="1" stop-color="#1B415D"/>
</radialGradient>
<radialGradient id="paint2_angular_6602_228" cx="0" cy="0" r="1" gradientUnits="userSpaceOnUse" gradientTransform="translate(6.6601 114.007) rotate(-90) scale(4.34233)">
<stop stop-color="#165A8B"/>
<stop offset="1" stop-color="#1B415D"/>
</radialGradient>
<radialGradient id="paint3_angular_6602_228" cx="0" cy="0" r="1" gradientUnits="userSpaceOnUse" gradientTransform="translate(6.6601 114.007) rotate(-90) scale(4.27729)">
<stop stop-color="#165A8B"/>
<stop offset="1" stop-color="#1B415D"/>
</radialGradient>
<radialGradient id="paint4_angular_6602_228" cx="0" cy="0" r="1" gradientUnits="userSpaceOnUse" gradientTransform="translate(6.6601 87.4273) rotate(-90) scale(4.34233)">
<stop stop-color="#165A8B"/>
<stop offset="1" stop-color="#1B415D"/>
</radialGradient>
<radialGradient id="paint5_angular_6602_228" cx="0" cy="0" r="1" gradientUnits="userSpaceOnUse" gradientTransform="translate(6.6601 87.4273) rotate(-90) scale(4.27729)">
<stop stop-color="#165A8B"/>
<stop offset="1" stop-color="#1B415D"/>
</radialGradient>
<radialGradient id="paint6_angular_6602_228" cx="0" cy="0" r="1" gradientUnits="userSpaceOnUse" gradientTransform="translate(6.6601 60.8476) rotate(-90) scale(4.34233)">
<stop stop-color="#165A8B"/>
<stop offset="1" stop-color="#1B415D"/>
</radialGradient>
<radialGradient id="paint7_angular_6602_228" cx="0" cy="0" r="1" gradientUnits="userSpaceOnUse" gradientTransform="translate(6.6601 60.8476) rotate(-90) scale(4.27729)">
<stop stop-color="#165A8B"/>
<stop offset="1" stop-color="#1B415D"/>
</radialGradient>
<radialGradient id="paint8_angular_6602_228" cx="0" cy="0" r="1" gradientUnits="userSpaceOnUse" gradientTransform="translate(98.34 34.2679) rotate(-90) scale(4.34233)">
<stop stop-color="#165A8B"/>
<stop offset="1" stop-color="#1B415D"/>
</radialGradient>
<radialGradient id="paint9_angular_6602_228" cx="0" cy="0" r="1" gradientUnits="userSpaceOnUse" gradientTransform="translate(98.34 34.2679) rotate(-90) scale(4.27729)">
<stop stop-color="#165A8B"/>
<stop offset="1" stop-color="#1B415D"/>
</radialGradient>
<radialGradient id="paint10_angular_6602_228" cx="0" cy="0" r="1" gradientUnits="userSpaceOnUse" gradientTransform="translate(98.34 114.007) rotate(-90) scale(4.34233)">
<stop stop-color="#165A8B"/>
<stop offset="1" stop-color="#1B415D"/>
</radialGradient>
<radialGradient id="paint11_angular_6602_228" cx="0" cy="0" r="1" gradientUnits="userSpaceOnUse" gradientTransform="translate(98.34 114.007) rotate(-90) scale(4.27729)">
<stop stop-color="#165A8B"/>
<stop offset="1" stop-color="#1B415D"/>
</radialGradient>
<radialGradient id="paint12_angular_6602_228" cx="0" cy="0" r="1" gradientUnits="userSpaceOnUse" gradientTransform="translate(98.34 87.4273) rotate(-90) scale(4.34233)">
<stop stop-color="#165A8B"/>
<stop offset="1" stop-color="#1B415D"/>
</radialGradient>
<radialGradient id="paint13_angular_6602_228" cx="0" cy="0" r="1" gradientUnits="userSpaceOnUse" gradientTransform="translate(98.34 87.4273) rotate(-90) scale(4.27729)">
<stop stop-color="#165A8B"/>
<stop offset="1" stop-color="#1B415D"/>
</radialGradient>
<radialGradient id="paint14_angular_6602_228" cx="0" cy="0" r="1" gradientUnits="userSpaceOnUse" gradientTransform="translate(98.34 60.8476) rotate(-90) scale(4.34233)">
<stop stop-color="#165A8B"/>
<stop offset="1" stop-color="#1B415D"/>
</radialGradient>
<radialGradient id="paint15_angular_6602_228" cx="0" cy="0" r="1" gradientUnits="userSpaceOnUse" gradientTransform="translate(98.34 60.8476) rotate(-90) scale(4.27729)">
<stop stop-color="#165A8B"/>
<stop offset="1" stop-color="#1B415D"/>
</radialGradient>
<radialGradient id="paint16_angular_6602_228" cx="0" cy="0" r="1" gradientUnits="userSpaceOnUse" gradientTransform="translate(176.611 35.7866) rotate(-90) scale(4.34233)">
<stop stop-color="#165A8B"/>
<stop offset="1" stop-color="#1B415D"/>
</radialGradient>
<radialGradient id="paint17_angular_6602_228" cx="0" cy="0" r="1" gradientUnits="userSpaceOnUse" gradientTransform="translate(176.611 35.7866) rotate(-90) scale(4.27729)">
<stop stop-color="#165A8B"/>
<stop offset="1" stop-color="#1B415D"/>
</radialGradient>
<radialGradient id="paint18_angular_6602_228" cx="0" cy="0" r="1" gradientUnits="userSpaceOnUse" gradientTransform="translate(209.424 45.9448) rotate(-90) scale(4.34233)">
<stop stop-color="#165A8B"/>
<stop offset="1" stop-color="#1B415D"/>
</radialGradient>
<radialGradient id="paint19_angular_6602_228" cx="0" cy="0" r="1" gradientUnits="userSpaceOnUse" gradientTransform="translate(209.424 45.9448) rotate(-90) scale(4.27729)">
<stop stop-color="#165A8B"/>
<stop offset="1" stop-color="#1B415D"/>
</radialGradient>
<radialGradient id="paint20_angular_6602_228" cx="0" cy="0" r="1" gradientUnits="userSpaceOnUse" gradientTransform="translate(222.93 74.7492) rotate(-90) scale(4.34233)">
<stop stop-color="#165A8B"/>
<stop offset="1" stop-color="#1B415D"/>
</radialGradient>
<radialGradient id="paint21_angular_6602_228" cx="0" cy="0" r="1" gradientUnits="userSpaceOnUse" gradientTransform="translate(222.93 74.7492) rotate(-90) scale(4.27729)">
<stop stop-color="#165A8B"/>
<stop offset="1" stop-color="#1B415D"/>
</radialGradient>
<radialGradient id="paint22_angular_6602_228" cx="0" cy="0" r="1" gradientUnits="userSpaceOnUse" gradientTransform="translate(209.424 103.554) rotate(-90) scale(4.34233)">
<stop stop-color="#165A8B"/>
<stop offset="1" stop-color="#1B415D"/>
</radialGradient>
<radialGradient id="paint23_angular_6602_228" cx="0" cy="0" r="1" gradientUnits="userSpaceOnUse" gradientTransform="translate(209.424 103.554) rotate(-90) scale(4.27729)">
<stop stop-color="#165A8B"/>
<stop offset="1" stop-color="#1B415D"/>
</radialGradient>
<radialGradient id="paint24_angular_6602_228" cx="0" cy="0" r="1" gradientUnits="userSpaceOnUse" gradientTransform="translate(176.506 115.526) rotate(-90) scale(4.34233)">
<stop stop-color="#165A8B"/>
<stop offset="1" stop-color="#1B415D"/>
</radialGradient>
<radialGradient id="paint25_angular_6602_228" cx="0" cy="0" r="1" gradientUnits="userSpaceOnUse" gradientTransform="translate(176.506 115.526) rotate(-90) scale(4.27729)">
<stop stop-color="#165A8B"/>
<stop offset="1" stop-color="#1B415D"/>
</radialGradient>
<radialGradient id="paint26_angular_6602_228" cx="0" cy="0" r="1" gradientUnits="userSpaceOnUse" gradientTransform="translate(143.588 103.554) rotate(-90) scale(4.34233)">
<stop stop-color="#165A8B"/>
<stop offset="1" stop-color="#1B415D"/>
</radialGradient>
<radialGradient id="paint27_angular_6602_228" cx="0" cy="0" r="1" gradientUnits="userSpaceOnUse" gradientTransform="translate(143.588 103.554) rotate(-90) scale(4.27729)">
<stop stop-color="#165A8B"/>
<stop offset="1" stop-color="#1B415D"/>
</radialGradient>
<radialGradient id="paint28_angular_6602_228" cx="0" cy="0" r="1" gradientUnits="userSpaceOnUse" gradientTransform="translate(130.198 74.5164) rotate(-90) scale(4.34233)">
<stop stop-color="#165A8B"/>
<stop offset="1" stop-color="#1B415D"/>
</radialGradient>
<radialGradient id="paint29_angular_6602_228" cx="0" cy="0" r="1" gradientUnits="userSpaceOnUse" gradientTransform="translate(130.198 74.5164) rotate(-90) scale(4.27729)">
<stop stop-color="#165A8B"/>
<stop offset="1" stop-color="#1B415D"/>
</radialGradient>
<radialGradient id="paint30_angular_6602_228" cx="0" cy="0" r="1" gradientUnits="userSpaceOnUse" gradientTransform="translate(143.588 45.9448) rotate(-90) scale(4.34233)">
<stop stop-color="#165A8B"/>
<stop offset="1" stop-color="#1B415D"/>
</radialGradient>
<radialGradient id="paint31_angular_6602_228" cx="0" cy="0" r="1" gradientUnits="userSpaceOnUse" gradientTransform="translate(143.588 45.9448) rotate(-90) scale(4.27729)">
<stop stop-color="#165A8B"/>
<stop offset="1" stop-color="#1B415D"/>
</radialGradient>
<radialGradient id="paint32_angular_6602_228" cx="0" cy="0" r="1" gradientUnits="userSpaceOnUse" gradientTransform="translate(222.897 74.4881) rotate(-90) scale(6.1958)">
<stop stop-color="#165A8B"/>
<stop offset="1" stop-color="#1B415D"/>
</radialGradient>
<radialGradient id="paint33_angular_6602_228" cx="0" cy="0" r="1" gradientUnits="userSpaceOnUse" gradientTransform="translate(222.897 74.4881) rotate(-90) scale(6.103)">
<stop stop-color="#165A8B"/>
<stop offset="1" stop-color="#1B415D"/>
</radialGradient>
<radialGradient id="paint34_angular_6602_228" cx="0" cy="0" r="1" gradientUnits="userSpaceOnUse" gradientTransform="translate(176.472 115.251) rotate(-90) scale(6.1958)">
<stop stop-color="#165A8B"/>
<stop offset="1" stop-color="#1B415D"/>
</radialGradient>
<radialGradient id="paint35_angular_6602_228" cx="0" cy="0" r="1" gradientUnits="userSpaceOnUse" gradientTransform="translate(176.472 115.251) rotate(-90) scale(6.103)">
<stop stop-color="#165A8B"/>
<stop offset="1" stop-color="#1B415D"/>
</radialGradient>
<radialGradient id="paint36_angular_6602_228" cx="0" cy="0" r="1" gradientUnits="userSpaceOnUse" gradientTransform="translate(209.39 103.279) rotate(-90) scale(6.1958)">
<stop stop-color="#165A8B"/>
<stop offset="1" stop-color="#1B415D"/>
</radialGradient>
<radialGradient id="paint37_angular_6602_228" cx="0" cy="0" r="1" gradientUnits="userSpaceOnUse" gradientTransform="translate(209.39 103.279) rotate(-90) scale(6.103)">
<stop stop-color="#165A8B"/>
<stop offset="1" stop-color="#1B415D"/>
</radialGradient>
<radialGradient id="paint38_angular_6602_228" cx="0" cy="0" r="1" gradientUnits="userSpaceOnUse" gradientTransform="translate(209.39 45.6705) rotate(-90) scale(6.1958)">
<stop stop-color="#165A8B"/>
<stop offset="1" stop-color="#1B415D"/>
</radialGradient>
<radialGradient id="paint39_angular_6602_228" cx="0" cy="0" r="1" gradientUnits="userSpaceOnUse" gradientTransform="translate(209.39 45.6705) rotate(-90) scale(6.103)">
<stop stop-color="#165A8B"/>
<stop offset="1" stop-color="#1B415D"/>
</radialGradient>
<radialGradient id="paint40_angular_6602_228" cx="0" cy="0" r="1" gradientUnits="userSpaceOnUse" gradientTransform="translate(143.554 45.6705) rotate(-90) scale(6.1958)">
<stop stop-color="#165A8B"/>
<stop offset="1" stop-color="#1B415D"/>
</radialGradient>
<radialGradient id="paint41_angular_6602_228" cx="0" cy="0" r="1" gradientUnits="userSpaceOnUse" gradientTransform="translate(143.554 45.6705) rotate(-90) scale(6.103)">
<stop stop-color="#165A8B"/>
<stop offset="1" stop-color="#1B415D"/>
</radialGradient>
<radialGradient id="paint42_angular_6602_228" cx="0" cy="0" r="1" gradientUnits="userSpaceOnUse" gradientTransform="translate(143.554 103.279) rotate(-90) scale(6.1958)">
<stop stop-color="#165A8B"/>
<stop offset="1" stop-color="#1B415D"/>
</radialGradient>
<radialGradient id="paint43_angular_6602_228" cx="0" cy="0" r="1" gradientUnits="userSpaceOnUse" gradientTransform="translate(143.554 103.279) rotate(-90) scale(6.103)">
<stop stop-color="#165A8B"/>
<stop offset="1" stop-color="#1B415D"/>
</radialGradient>
<radialGradient id="paint44_angular_6602_228" cx="0" cy="0" r="1" gradientUnits="userSpaceOnUse" gradientTransform="translate(130.164 74.2421) rotate(-90) scale(6.1958)">
<stop stop-color="#165A8B"/>
<stop offset="1" stop-color="#1B415D"/>
</radialGradient>
<radialGradient id="paint45_angular_6602_228" cx="0" cy="0" r="1" gradientUnits="userSpaceOnUse" gradientTransform="translate(130.164 74.2421) rotate(-90) scale(6.103)">
<stop stop-color="#165A8B"/>
<stop offset="1" stop-color="#1B415D"/>
</radialGradient>
<radialGradient id="paint46_angular_6602_228" cx="0" cy="0" r="1" gradientUnits="userSpaceOnUse" gradientTransform="translate(176.53 35.5123) rotate(-90) scale(6.1958)">
<stop stop-color="#165A8B"/>
<stop offset="1" stop-color="#1B415D"/>
</radialGradient>
<radialGradient id="paint47_angular_6602_228" cx="0" cy="0" r="1" gradientUnits="userSpaceOnUse" gradientTransform="translate(176.53 35.5123) rotate(-90) scale(6.103)">
<stop stop-color="#165A8B"/>
<stop offset="1" stop-color="#1B415D"/>
</radialGradient>
</defs>
</svg>
