<svg width="229" height="193" viewBox="0 0 229 193" fill="none" xmlns="http://www.w3.org/2000/svg">
<g clip-path="url(#clip0_6602_459)">
<rect width="229" height="193" fill="white"/>
<path d="M64.3705 34.9973C72.718 26.667 83.6944 21.487 95.4314 20.339L108.312 19.0792C112.363 18.6829 116.353 17.803 120.195 16.4583L131.052 12.6583C144.087 8.09617 158.446 9.2858 170.553 15.9308L171.962 16.7044C175.947 18.8915 180.279 20.3734 184.769 21.0847L191.319 22.1225C203.552 24.0606 213.314 33.3564 215.848 45.4794C216.808 50.0723 218.838 54.3739 221.773 58.0347C229.52 67.6975 230.49 81.1426 224.21 91.8171L220.847 97.5337C218.542 101.451 216.931 105.738 216.086 110.204L215.788 111.784C213.221 125.353 205.011 137.194 193.203 144.355L183.368 150.321C179.887 152.432 176.672 154.952 173.79 157.828L164.629 166.97C156.282 175.3 145.306 180.48 133.569 181.628L120.688 182.888C116.637 183.284 112.647 184.164 108.805 185.509L97.9476 189.309C84.9128 193.871 70.5537 192.681 58.4474 186.036L57.0379 185.262C53.0533 183.075 48.7207 181.593 44.2313 180.882L37.6805 179.844C25.4481 177.906 15.686 168.61 13.1521 156.487C12.1921 151.894 10.1621 147.593 7.22697 143.932C-0.520307 134.269 -1.49014 120.824 4.79016 110.15L8.15342 104.433C10.4583 100.516 12.0687 96.229 12.9135 91.7629L13.2123 90.183C15.779 76.6135 23.9889 64.7731 35.7969 57.6114L45.6323 51.646C49.1129 49.535 52.3283 47.0148 55.2097 44.1392L64.3705 34.9973Z" fill="#D7EAF8"/>
<path d="M195.78 107.079C198.998 110.006 202.811 112.381 190.663 112.196C187.912 112.196 185.667 110.025 185.551 107.302C185.548 107.228 185.546 107.154 185.546 107.079C185.546 104.253 187.837 101.963 190.663 101.963C193.489 101.963 195.78 104.253 195.78 107.079Z" fill="white"/>
<path d="M176.923 112.196C173.743 112.196 170.908 110.719 169.067 108.414C168.071 110.619 164.271 112.28 159.677 112.376L168.089 112.288L176.923 112.196Z" fill="white"/>
<path fill-rule="evenodd" clip-rule="evenodd" d="M185.551 107.302C186.453 105.795 186.972 104.032 186.972 102.147C186.972 96.5974 182.473 92.0983 176.923 92.0983C171.373 92.0983 166.874 96.5974 166.874 102.147C166.874 102.789 166.934 103.417 167.049 104.025C165.203 102.879 162.397 102.147 159.255 102.147C153.696 102.147 149.178 104.025 149.178 112.196C149.178 112.196 153.696 112.381 159.255 112.381C159.397 112.381 159.537 112.379 159.677 112.376C164.271 112.28 168.071 110.619 169.067 108.414C170.908 110.719 173.743 112.196 176.923 112.196C180.589 112.196 183.796 110.234 185.551 107.302ZM167.049 104.025C168.47 104.908 169.322 106.035 169.322 107.264C169.322 107.659 169.234 108.044 169.067 108.414C168.066 107.161 167.359 105.663 167.049 104.025Z" fill="white"/>
<path d="M169.067 108.414C169.234 108.044 169.322 107.659 169.322 107.264C169.322 106.035 168.47 104.908 167.049 104.025C167.359 105.663 168.066 107.161 169.067 108.414Z" fill="white"/>
<path d="M176.923 112.196H183.793H190.663C187.912 112.196 185.667 110.025 185.551 107.302C183.796 110.234 180.589 112.196 176.923 112.196Z" fill="white"/>
<path d="M36.9908 77.3612C36.9908 80.1871 43.0001 79.618 45.8261 79.618C48.5774 79.618 50.8216 77.4465 50.9381 74.7238C50.9412 74.65 50.9428 74.5758 50.9428 74.5013C50.9428 71.6753 48.652 69.3845 45.8261 69.3845C43.0001 69.3845 36.9908 74.5353 36.9908 77.3612Z" fill="white"/>
<path d="M59.566 79.618C62.7459 79.618 65.5809 78.141 67.4222 75.8356C68.4183 78.0408 72.218 79.7021 76.8122 79.7983L68.3999 79.7104L59.566 79.618Z" fill="white"/>
<path fill-rule="evenodd" clip-rule="evenodd" d="M50.9381 74.7238C50.0357 73.2167 49.5171 71.4535 49.5171 69.5691C49.5171 64.0193 54.0161 59.5202 59.566 59.5202C65.1159 59.5202 69.6149 64.0193 69.6149 69.5691C69.6149 70.211 69.5548 70.8389 69.4397 71.4473C71.2858 70.3008 74.0917 69.5691 77.2338 69.5691C82.7935 69.5691 88.5055 74.5353 88.5055 77.3612C88.5055 80.1871 82.7935 79.8027 77.2338 79.8027C77.0926 79.8027 76.952 79.8012 76.8122 79.7983C72.218 79.7021 68.4183 78.0408 67.4222 75.8356C65.5809 78.141 62.7459 79.618 59.566 79.618C55.9005 79.618 52.6934 77.6555 50.9381 74.7238ZM69.4397 71.4473C68.0193 72.3294 67.1671 73.4571 67.1671 74.6859C67.1671 75.0812 67.2553 75.466 67.4222 75.8356C68.4228 74.5828 69.13 73.0853 69.4397 71.4473Z" fill="white"/>
<path d="M67.4222 75.8356C67.2553 75.466 67.1671 75.0812 67.1671 74.6859C67.1671 73.4571 68.0193 72.3294 69.4397 71.4473C69.13 73.0853 68.4228 74.5828 67.4222 75.8356Z" fill="white"/>
<path d="M59.566 79.618H52.696H45.8261C48.5774 79.618 50.8216 77.4465 50.9381 74.7238C52.6934 77.6555 55.9005 79.618 59.566 79.618Z" fill="white"/>
<path d="M81.821 77.3612C81.821 80.1871 85.6796 79.7104 88.5055 79.7104C91.2569 79.7104 104.825 79.9836 104.825 78.417C104.825 76.8505 97.8476 73.0998 89.4866 73.0998C86.6606 73.0998 81.821 75.8356 81.821 77.3612Z" fill="white"/>
<path d="M53.4478 145.781C45.4533 145.781 42.2841 144.804 42.2841 140.741C42.2841 136.677 48.9296 131.066 53.4478 131.066C57.966 131.066 62.0007 132.118 64.6553 133.767C66.6978 135.035 67.9232 136.657 67.9232 138.424C74.2458 138.424 83.9983 145.775 67.9232 145.775C64.6553 145.775 60.6603 145.637 54.054 145.775C53.853 145.779 53.6509 145.781 53.4478 145.781Z" fill="white"/>
<path d="M16.1273 126.093C16.1273 122.779 18.8135 120.093 22.1273 120.093H45.7084C49.0221 120.093 51.7084 122.779 51.7084 126.093V134.162C51.7084 135.994 50.8708 137.727 49.4341 138.865L33.4792 151.504L18.2892 138.862C16.9194 137.722 16.1273 136.033 16.1273 134.251V126.093Z" fill="#FFC200"/>
<path d="M16.1273 126.093C16.1273 122.779 18.8135 120.093 22.1273 120.093H45.7084C49.0221 120.093 51.7084 122.779 51.7084 126.093V134.388C51.7084 137.702 49.0221 140.388 45.7084 140.388H33.9178H22.1273C18.8135 140.388 16.1273 137.702 16.1273 134.388V126.093Z" fill="#FFF0C2" fill-opacity="0.58"/>
<path d="M25.3485 132.984C25.5085 132.984 25.6345 133.03 25.7265 133.122C25.8225 133.21 25.8705 133.328 25.8705 133.476V134.364H19.9185V133.872C19.9185 133.772 19.9385 133.668 19.9785 133.56C20.0225 133.448 20.0905 133.348 20.1825 133.26L22.8165 130.62C23.0365 130.396 23.2325 130.182 23.4045 129.978C23.5805 129.774 23.7265 129.572 23.8425 129.372C23.9585 129.172 24.0465 128.97 24.1065 128.766C24.1705 128.558 24.2025 128.34 24.2025 128.112C24.2025 127.904 24.1725 127.722 24.1125 127.566C24.0525 127.406 23.9665 127.272 23.8545 127.164C23.7465 127.056 23.6145 126.976 23.4585 126.924C23.3065 126.868 23.1345 126.84 22.9425 126.84C22.7665 126.84 22.6025 126.866 22.4505 126.918C22.3025 126.966 22.1705 127.036 22.0545 127.128C21.9385 127.216 21.8405 127.32 21.7605 127.44C21.6805 127.56 21.6205 127.692 21.5805 127.836C21.5125 128.02 21.4245 128.142 21.3165 128.202C21.2085 128.262 21.0525 128.276 20.8485 128.244L20.0685 128.106C20.1285 127.69 20.2445 127.326 20.4165 127.014C20.5885 126.698 20.8025 126.436 21.0585 126.228C21.3185 126.016 21.6145 125.858 21.9465 125.754C22.2825 125.646 22.6425 125.592 23.0265 125.592C23.4265 125.592 23.7925 125.652 24.1245 125.772C24.4565 125.888 24.7405 126.054 24.9765 126.27C25.2125 126.486 25.3965 126.746 25.5285 127.05C25.6605 127.354 25.7265 127.692 25.7265 128.064C25.7265 128.384 25.6785 128.68 25.5825 128.952C25.4905 129.224 25.3645 129.484 25.2045 129.732C25.0485 129.98 24.8645 130.22 24.6525 130.452C24.4405 130.684 24.2185 130.92 23.9865 131.16L22.0305 133.158C22.2185 133.102 22.4045 133.06 22.5885 133.032C22.7765 133 22.9545 132.984 23.1225 132.984H25.3485ZM33.0834 130.026C33.0834 130.782 33.0014 131.44 32.8374 132C32.6774 132.556 32.4534 133.016 32.1654 133.38C31.8814 133.744 31.5434 134.016 31.1514 134.196C30.7634 134.372 30.3434 134.46 29.8914 134.46C29.4394 134.46 29.0194 134.372 28.6314 134.196C28.2474 134.016 27.9134 133.744 27.6294 133.38C27.3454 133.016 27.1234 132.556 26.9634 132C26.8034 131.44 26.7234 130.782 26.7234 130.026C26.7234 129.266 26.8034 128.608 26.9634 128.052C27.1234 127.496 27.3454 127.036 27.6294 126.672C27.9134 126.308 28.2474 126.038 28.6314 125.862C29.0194 125.682 29.4394 125.592 29.8914 125.592C30.3434 125.592 30.7634 125.682 31.1514 125.862C31.5434 126.038 31.8814 126.308 32.1654 126.672C32.4534 127.036 32.6774 127.496 32.8374 128.052C33.0014 128.608 33.0834 129.266 33.0834 130.026ZM31.5534 130.026C31.5534 129.398 31.5074 128.878 31.4154 128.466C31.3234 128.054 31.1994 127.726 31.0434 127.482C30.8914 127.238 30.7154 127.068 30.5154 126.972C30.3154 126.872 30.1074 126.822 29.8914 126.822C29.6794 126.822 29.4734 126.872 29.2734 126.972C29.0774 127.068 28.9034 127.238 28.7514 127.482C28.5994 127.726 28.4774 128.054 28.3854 128.466C28.2974 128.878 28.2534 129.398 28.2534 130.026C28.2534 130.654 28.2974 131.174 28.3854 131.586C28.4774 131.998 28.5994 132.326 28.7514 132.57C28.9034 132.814 29.0774 132.986 29.2734 133.086C29.4734 133.182 29.6794 133.23 29.8914 133.23C30.1074 133.23 30.3154 133.182 30.5154 133.086C30.7154 132.986 30.8914 132.814 31.0434 132.57C31.1994 132.326 31.3234 131.998 31.4154 131.586C31.5074 131.174 31.5534 130.654 31.5534 130.026ZM39.5943 133.254V134.364H34.7943V133.254H36.5523V128.196C36.5523 127.996 36.5583 127.79 36.5703 127.578L35.3223 128.622C35.2503 128.678 35.1783 128.714 35.1063 128.73C35.0383 128.742 34.9723 128.742 34.9083 128.73C34.8483 128.718 34.7943 128.698 34.7463 128.67C34.6983 128.638 34.6623 128.604 34.6383 128.568L34.1703 127.926L36.8163 125.676H38.0343V133.254H39.5943ZM42.3253 128.292C42.3253 128.776 42.4493 129.146 42.6973 129.402C42.9493 129.654 43.3053 129.78 43.7653 129.78C44.0053 129.78 44.2193 129.742 44.4073 129.666C44.5953 129.59 44.7533 129.486 44.8813 129.354C45.0093 129.222 45.1053 129.066 45.1693 128.886C45.2373 128.706 45.2713 128.512 45.2713 128.304C45.2713 128.068 45.2353 127.858 45.1633 127.674C45.0913 127.486 44.9893 127.328 44.8573 127.2C44.7253 127.072 44.5673 126.974 44.3833 126.906C44.2033 126.838 44.0053 126.804 43.7893 126.804C43.5653 126.804 43.3633 126.842 43.1833 126.918C43.0033 126.99 42.8493 127.092 42.7213 127.224C42.5933 127.356 42.4953 127.514 42.4273 127.698C42.3593 127.878 42.3253 128.076 42.3253 128.292ZM44.2933 130.998C44.3613 130.914 44.4253 130.832 44.4853 130.752C44.5453 130.672 44.6033 130.592 44.6593 130.512C44.4593 130.64 44.2393 130.738 43.9993 130.806C43.7593 130.87 43.5073 130.902 43.2433 130.902C42.9433 130.902 42.6493 130.85 42.3613 130.746C42.0733 130.642 41.8173 130.486 41.5933 130.278C41.3693 130.066 41.1873 129.806 41.0473 129.498C40.9113 129.186 40.8433 128.822 40.8433 128.406C40.8433 128.018 40.9153 127.654 41.0593 127.314C41.2033 126.974 41.4053 126.676 41.6653 126.42C41.9253 126.164 42.2373 125.962 42.6013 125.814C42.9653 125.666 43.3673 125.592 43.8073 125.592C44.2513 125.592 44.6493 125.662 45.0013 125.802C45.3573 125.942 45.6593 126.138 45.9073 126.39C46.1593 126.642 46.3513 126.944 46.4833 127.296C46.6193 127.648 46.6873 128.034 46.6873 128.454C46.6873 128.722 46.6633 128.976 46.6153 129.216C46.5713 129.456 46.5073 129.688 46.4233 129.912C46.3393 130.132 46.2373 130.348 46.1173 130.56C45.9973 130.772 45.8633 130.982 45.7153 131.19L43.7293 134.022C43.6613 134.118 43.5593 134.2 43.4233 134.268C43.2873 134.332 43.1333 134.364 42.9613 134.364H41.5993L44.2933 130.998Z" fill="#427BA3"/>
<path d="M162.941 22.0932C162.941 18.7795 165.628 16.0932 168.941 16.0932H192.522C195.836 16.0932 198.522 18.7795 198.522 22.0932V30.1617C198.522 31.9945 197.685 33.7267 196.248 34.8648L180.293 47.504L165.103 34.8624C163.733 33.7224 162.941 32.0326 162.941 30.2505V22.0932Z" fill="#FFC200"/>
<path d="M162.941 22.0932C162.941 18.7795 165.628 16.0932 168.941 16.0932H192.522C195.836 16.0932 198.522 18.7795 198.522 22.0932V30.3879C198.522 33.7016 195.836 36.3879 192.522 36.3879H180.732H168.941C165.628 36.3879 162.941 33.7016 162.941 30.3879V22.0932Z" fill="#FFF0C2" fill-opacity="0.58"/>
<path d="M172.162 28.9843C172.322 28.9843 172.448 29.0303 172.54 29.1223C172.636 29.2103 172.684 29.3283 172.684 29.4763V30.3643H166.732V29.8723C166.732 29.7723 166.752 29.6683 166.792 29.5603C166.836 29.4483 166.904 29.3483 166.996 29.2603L169.63 26.6203C169.85 26.3963 170.046 26.1823 170.218 25.9783C170.394 25.7743 170.54 25.5723 170.656 25.3723C170.772 25.1723 170.86 24.9703 170.92 24.7663C170.984 24.5583 171.016 24.3403 171.016 24.1123C171.016 23.9043 170.986 23.7223 170.926 23.5663C170.866 23.4063 170.78 23.2723 170.668 23.1643C170.56 23.0563 170.428 22.9763 170.272 22.9243C170.12 22.8683 169.948 22.8403 169.756 22.8403C169.58 22.8403 169.416 22.8663 169.264 22.9183C169.116 22.9663 168.984 23.0363 168.868 23.1283C168.752 23.2163 168.654 23.3203 168.574 23.4403C168.494 23.5603 168.434 23.6923 168.394 23.8363C168.326 24.0203 168.238 24.1423 168.13 24.2023C168.022 24.2623 167.866 24.2763 167.662 24.2443L166.882 24.1063C166.942 23.6903 167.058 23.3263 167.23 23.0143C167.402 22.6983 167.616 22.4363 167.872 22.2283C168.132 22.0163 168.428 21.8583 168.76 21.7543C169.096 21.6463 169.456 21.5923 169.84 21.5923C170.24 21.5923 170.606 21.6523 170.938 21.7723C171.27 21.8883 171.554 22.0543 171.79 22.2703C172.026 22.4863 172.21 22.7463 172.342 23.0503C172.474 23.3543 172.54 23.6923 172.54 24.0643C172.54 24.3843 172.492 24.6803 172.396 24.9523C172.304 25.2243 172.178 25.4843 172.018 25.7323C171.862 25.9803 171.678 26.2203 171.466 26.4523C171.254 26.6843 171.032 26.9203 170.8 27.1603L168.844 29.1583C169.032 29.1023 169.218 29.0603 169.402 29.0323C169.59 29.0003 169.768 28.9843 169.936 28.9843H172.162ZM179.897 26.0263C179.897 26.7823 179.815 27.4403 179.651 28.0003C179.491 28.5563 179.267 29.0163 178.979 29.3803C178.695 29.7443 178.357 30.0163 177.965 30.1963C177.577 30.3723 177.157 30.4603 176.705 30.4603C176.253 30.4603 175.833 30.3723 175.445 30.1963C175.061 30.0163 174.727 29.7443 174.443 29.3803C174.159 29.0163 173.937 28.5563 173.777 28.0003C173.617 27.4403 173.537 26.7823 173.537 26.0263C173.537 25.2663 173.617 24.6083 173.777 24.0523C173.937 23.4963 174.159 23.0363 174.443 22.6723C174.727 22.3083 175.061 22.0383 175.445 21.8623C175.833 21.6823 176.253 21.5923 176.705 21.5923C177.157 21.5923 177.577 21.6823 177.965 21.8623C178.357 22.0383 178.695 22.3083 178.979 22.6723C179.267 23.0363 179.491 23.4963 179.651 24.0523C179.815 24.6083 179.897 25.2663 179.897 26.0263ZM178.367 26.0263C178.367 25.3983 178.321 24.8783 178.229 24.4663C178.137 24.0543 178.013 23.7263 177.857 23.4823C177.705 23.2383 177.529 23.0683 177.329 22.9723C177.129 22.8723 176.921 22.8223 176.705 22.8223C176.493 22.8223 176.287 22.8723 176.087 22.9723C175.891 23.0683 175.717 23.2383 175.565 23.4823C175.413 23.7263 175.291 24.0543 175.199 24.4663C175.111 24.8783 175.067 25.3983 175.067 26.0263C175.067 26.6543 175.111 27.1743 175.199 27.5863C175.291 27.9983 175.413 28.3263 175.565 28.5703C175.717 28.8143 175.891 28.9863 176.087 29.0863C176.287 29.1823 176.493 29.2303 176.705 29.2303C176.921 29.2303 177.129 29.1823 177.329 29.0863C177.529 28.9863 177.705 28.8143 177.857 28.5703C178.013 28.3263 178.137 27.9983 178.229 27.5863C178.321 27.1743 178.367 26.6543 178.367 26.0263ZM186.084 28.9843C186.244 28.9843 186.37 29.0303 186.462 29.1223C186.558 29.2103 186.606 29.3283 186.606 29.4763V30.3643H180.654V29.8723C180.654 29.7723 180.674 29.6683 180.714 29.5603C180.758 29.4483 180.826 29.3483 180.918 29.2603L183.552 26.6203C183.772 26.3963 183.968 26.1823 184.14 25.9783C184.316 25.7743 184.462 25.5723 184.578 25.3723C184.694 25.1723 184.782 24.9703 184.842 24.7663C184.906 24.5583 184.938 24.3403 184.938 24.1123C184.938 23.9043 184.908 23.7223 184.848 23.5663C184.788 23.4063 184.702 23.2723 184.59 23.1643C184.482 23.0563 184.35 22.9763 184.194 22.9243C184.042 22.8683 183.87 22.8403 183.678 22.8403C183.502 22.8403 183.338 22.8663 183.186 22.9183C183.038 22.9663 182.906 23.0363 182.79 23.1283C182.674 23.2163 182.576 23.3203 182.496 23.4403C182.416 23.5603 182.356 23.6923 182.316 23.8363C182.248 24.0203 182.16 24.1423 182.052 24.2023C181.944 24.2623 181.788 24.2763 181.584 24.2443L180.804 24.1063C180.864 23.6903 180.98 23.3263 181.152 23.0143C181.324 22.6983 181.538 22.4363 181.794 22.2283C182.054 22.0163 182.35 21.8583 182.682 21.7543C183.018 21.6463 183.378 21.5923 183.762 21.5923C184.162 21.5923 184.528 21.6523 184.86 21.7723C185.192 21.8883 185.476 22.0543 185.712 22.2703C185.948 22.4863 186.132 22.7463 186.264 23.0503C186.396 23.3543 186.462 23.6923 186.462 24.0643C186.462 24.3843 186.414 24.6803 186.318 24.9523C186.226 25.2243 186.1 25.4843 185.94 25.7323C185.784 25.9803 185.6 26.2203 185.388 26.4523C185.176 26.6843 184.954 26.9203 184.722 27.1603L182.766 29.1583C182.954 29.1023 183.14 29.0603 183.324 29.0323C183.512 29.0003 183.69 28.9843 183.858 28.9843H186.084ZM193.045 28.9843C193.205 28.9843 193.331 29.0303 193.423 29.1223C193.519 29.2103 193.567 29.3283 193.567 29.4763V30.3643H187.615V29.8723C187.615 29.7723 187.635 29.6683 187.675 29.5603C187.719 29.4483 187.787 29.3483 187.879 29.2603L190.513 26.6203C190.733 26.3963 190.929 26.1823 191.101 25.9783C191.277 25.7743 191.423 25.5723 191.539 25.3723C191.655 25.1723 191.743 24.9703 191.803 24.7663C191.867 24.5583 191.899 24.3403 191.899 24.1123C191.899 23.9043 191.869 23.7223 191.809 23.5663C191.749 23.4063 191.663 23.2723 191.551 23.1643C191.443 23.0563 191.311 22.9763 191.155 22.9243C191.003 22.8683 190.831 22.8403 190.639 22.8403C190.463 22.8403 190.299 22.8663 190.147 22.9183C189.999 22.9663 189.867 23.0363 189.751 23.1283C189.635 23.2163 189.537 23.3203 189.457 23.4403C189.377 23.5603 189.317 23.6923 189.277 23.8363C189.209 24.0203 189.121 24.1423 189.013 24.2023C188.905 24.2623 188.749 24.2763 188.545 24.2443L187.765 24.1063C187.825 23.6903 187.941 23.3263 188.113 23.0143C188.285 22.6983 188.499 22.4363 188.755 22.2283C189.015 22.0163 189.311 21.8583 189.643 21.7543C189.979 21.6463 190.339 21.5923 190.723 21.5923C191.123 21.5923 191.489 21.6523 191.821 21.7723C192.153 21.8883 192.437 22.0543 192.673 22.2703C192.909 22.4863 193.093 22.7463 193.225 23.0503C193.357 23.3543 193.423 23.6923 193.423 24.0643C193.423 24.3843 193.375 24.6803 193.279 24.9523C193.187 25.2243 193.061 25.4843 192.901 25.7323C192.745 25.9803 192.561 26.2203 192.349 26.4523C192.137 26.6843 191.915 26.9203 191.683 27.1603L189.727 29.1583C189.915 29.1023 190.101 29.0603 190.285 29.0323C190.473 29.0003 190.651 28.9843 190.819 28.9843H193.045Z" fill="#427BA3"/>
<path d="M33.9178 150.274L180.732 47.504" stroke="#909090" stroke-linecap="round" stroke-dasharray="5 5"/>
<path d="M92.7828 163.14C92.7828 162.868 92.7432 162.613 92.6638 162.375C92.5902 162.132 92.4768 161.919 92.3238 161.738C92.1708 161.557 91.9753 161.415 91.7373 161.313C91.505 161.205 91.233 161.151 90.9213 161.151C90.315 161.151 89.8362 161.324 89.4848 161.67C89.1392 162.016 88.9182 162.506 88.8218 163.14H92.7828ZM88.7793 164.407C88.8133 164.855 88.8927 165.243 89.0173 165.571C89.142 165.894 89.3063 166.164 89.5103 166.379C89.7143 166.589 89.9552 166.747 90.2328 166.855C90.5162 166.957 90.8278 167.008 91.1678 167.008C91.5078 167.008 91.7997 166.968 92.0433 166.889C92.2927 166.81 92.508 166.722 92.6893 166.625C92.8763 166.529 93.0378 166.441 93.1738 166.362C93.3155 166.283 93.4515 166.243 93.5818 166.243C93.7575 166.243 93.8878 166.308 93.9728 166.438L94.5763 167.203C94.344 167.475 94.0833 167.705 93.7943 167.892C93.5053 168.073 93.2022 168.221 92.8848 168.334C92.5732 168.442 92.253 168.518 91.9243 168.563C91.6013 168.609 91.2868 168.631 90.9808 168.631C90.3745 168.631 89.8107 168.532 89.2893 168.334C88.768 168.13 88.3147 167.832 87.9293 167.441C87.544 167.045 87.2408 166.557 87.0198 165.979C86.7988 165.396 86.6883 164.721 86.6883 163.956C86.6883 163.361 86.7847 162.803 86.9773 162.282C87.17 161.755 87.4448 161.299 87.8018 160.913C88.1645 160.522 88.6037 160.214 89.1193 159.987C89.6407 159.76 90.2272 159.647 90.8788 159.647C91.4285 159.647 91.9357 159.735 92.4003 159.91C92.865 160.086 93.2645 160.344 93.5988 160.684C93.9332 161.018 94.1938 161.432 94.3808 161.925C94.5735 162.412 94.6698 162.97 94.6698 163.599C94.6698 163.917 94.6358 164.132 94.5678 164.245C94.4998 164.353 94.3695 164.407 94.1768 164.407H88.7793ZM103.899 168.504H101.876C101.723 168.504 101.598 168.464 101.502 168.385C101.411 168.306 101.334 168.215 101.272 168.113L99.4276 165.078C99.3992 165.175 99.3652 165.265 99.3256 165.35C99.2916 165.435 99.2519 165.515 99.2066 165.588L97.5746 168.113C97.5122 168.209 97.4357 168.3 97.3451 168.385C97.2544 168.464 97.1411 168.504 97.0051 168.504H95.1266L98.1186 164.007L95.2456 159.783H97.2686C97.4216 159.783 97.5349 159.806 97.6086 159.851C97.6822 159.891 97.7474 159.959 97.8041 160.055L99.6316 162.962C99.6939 162.769 99.7817 162.579 99.8951 162.392L101.366 160.097C101.49 159.888 101.652 159.783 101.85 159.783H103.78L100.915 163.914L103.899 168.504ZM107.094 166.243C107.332 166.532 107.59 166.736 107.867 166.855C108.151 166.974 108.457 167.033 108.785 167.033C109.103 167.033 109.389 166.974 109.644 166.855C109.899 166.736 110.114 166.555 110.29 166.311C110.471 166.067 110.61 165.761 110.706 165.393C110.803 165.019 110.851 164.58 110.851 164.075C110.851 163.565 110.808 163.135 110.723 162.783C110.644 162.426 110.528 162.137 110.375 161.916C110.222 161.695 110.035 161.534 109.814 161.432C109.599 161.33 109.352 161.279 109.074 161.279C108.638 161.279 108.267 161.372 107.961 161.559C107.655 161.741 107.366 161.999 107.094 162.333V166.243ZM106.983 160.973C107.34 160.571 107.746 160.245 108.199 159.995C108.652 159.746 109.185 159.621 109.797 159.621C110.273 159.621 110.706 159.721 111.097 159.919C111.494 160.117 111.834 160.406 112.117 160.786C112.406 161.16 112.627 161.625 112.78 162.18C112.939 162.73 113.018 163.361 113.018 164.075C113.018 164.727 112.931 165.331 112.755 165.886C112.579 166.441 112.327 166.923 111.998 167.331C111.675 167.739 111.282 168.059 110.817 168.291C110.358 168.518 109.842 168.631 109.27 168.631C108.783 168.631 108.366 168.558 108.02 168.41C107.675 168.257 107.366 168.048 107.094 167.781V171.351H104.994V159.783H106.278C106.55 159.783 106.728 159.91 106.813 160.165L106.983 160.973ZM119.264 164.781C118.657 164.809 118.147 164.863 117.734 164.942C117.32 165.016 116.988 165.112 116.739 165.231C116.49 165.35 116.311 165.489 116.204 165.648C116.096 165.807 116.042 165.979 116.042 166.166C116.042 166.535 116.15 166.798 116.365 166.957C116.586 167.116 116.872 167.195 117.224 167.195C117.654 167.195 118.025 167.118 118.337 166.965C118.654 166.807 118.963 166.569 119.264 166.251V164.781ZM114.453 160.998C115.456 160.08 116.663 159.621 118.074 159.621C118.584 159.621 119.04 159.706 119.442 159.876C119.844 160.041 120.184 160.273 120.462 160.573C120.74 160.868 120.949 161.222 121.091 161.636C121.238 162.05 121.312 162.503 121.312 162.996V168.504H120.36C120.162 168.504 120.009 168.476 119.901 168.419C119.793 168.357 119.708 168.235 119.646 168.053L119.459 167.424C119.238 167.623 119.023 167.798 118.813 167.951C118.603 168.099 118.385 168.223 118.159 168.325C117.932 168.427 117.688 168.504 117.428 168.555C117.173 168.612 116.889 168.64 116.578 168.64C116.209 168.64 115.869 168.592 115.558 168.495C115.246 168.393 114.977 168.243 114.75 168.045C114.523 167.847 114.348 167.6 114.223 167.305C114.098 167.011 114.036 166.668 114.036 166.277C114.036 166.056 114.073 165.838 114.147 165.622C114.22 165.401 114.339 165.192 114.504 164.993C114.674 164.795 114.892 164.608 115.158 164.432C115.424 164.257 115.75 164.104 116.136 163.973C116.527 163.843 116.98 163.738 117.496 163.659C118.011 163.574 118.601 163.523 119.264 163.506V162.996C119.264 162.412 119.139 161.982 118.89 161.704C118.64 161.421 118.28 161.279 117.81 161.279C117.47 161.279 117.187 161.319 116.96 161.398C116.739 161.477 116.544 161.568 116.374 161.67C116.204 161.766 116.048 161.854 115.906 161.933C115.77 162.013 115.617 162.052 115.447 162.052C115.3 162.052 115.175 162.016 115.073 161.942C114.971 161.863 114.889 161.772 114.827 161.67L114.453 160.998ZM125.253 160.854C125.428 160.678 125.613 160.517 125.805 160.369C126.004 160.216 126.21 160.089 126.426 159.987C126.647 159.879 126.882 159.797 127.131 159.74C127.381 159.678 127.653 159.647 127.947 159.647C128.423 159.647 128.845 159.729 129.214 159.893C129.582 160.052 129.888 160.279 130.132 160.573C130.381 160.862 130.568 161.211 130.693 161.619C130.823 162.021 130.888 162.466 130.888 162.953V168.504H128.789V162.953C128.789 162.421 128.667 162.01 128.423 161.721C128.18 161.426 127.808 161.279 127.31 161.279C126.947 161.279 126.607 161.361 126.29 161.525C125.972 161.69 125.672 161.914 125.389 162.197V168.504H123.289V159.783H124.573C124.845 159.783 125.023 159.91 125.108 160.165L125.253 160.854ZM138.359 162.01C138.121 161.721 137.86 161.517 137.577 161.398C137.299 161.279 136.999 161.219 136.676 161.219C136.359 161.219 136.073 161.279 135.818 161.398C135.563 161.517 135.344 161.698 135.163 161.942C134.982 162.18 134.843 162.486 134.747 162.86C134.65 163.228 134.602 163.665 134.602 164.169C134.602 164.679 134.642 165.112 134.721 165.469C134.806 165.821 134.925 166.11 135.078 166.336C135.231 166.557 135.418 166.719 135.639 166.821C135.86 166.917 136.107 166.965 136.379 166.965C136.815 166.965 137.186 166.875 137.492 166.693C137.798 166.512 138.087 166.254 138.359 165.92V162.01ZM140.459 155.873V168.504H139.175C138.897 168.504 138.722 168.376 138.648 168.121L138.47 167.28C138.118 167.682 137.713 168.008 137.254 168.257C136.801 168.507 136.271 168.631 135.665 168.631C135.189 168.631 134.752 168.532 134.356 168.334C133.959 168.136 133.616 167.849 133.327 167.475C133.044 167.096 132.823 166.628 132.664 166.073C132.511 165.518 132.435 164.883 132.435 164.169C132.435 163.523 132.522 162.922 132.698 162.367C132.874 161.812 133.126 161.33 133.455 160.922C133.783 160.514 134.177 160.197 134.636 159.97C135.095 159.738 135.611 159.621 136.183 159.621C136.67 159.621 137.087 159.698 137.433 159.851C137.778 160.004 138.087 160.211 138.359 160.471V155.873H140.459ZM148.149 163.14C148.149 162.868 148.109 162.613 148.03 162.375C147.956 162.132 147.843 161.919 147.69 161.738C147.537 161.557 147.342 161.415 147.104 161.313C146.871 161.205 146.599 161.151 146.288 161.151C145.681 161.151 145.202 161.324 144.851 161.67C144.505 162.016 144.284 162.506 144.188 163.14H148.149ZM144.146 164.407C144.18 164.855 144.259 165.243 144.384 165.571C144.508 165.894 144.673 166.164 144.877 166.379C145.081 166.589 145.321 166.747 145.599 166.855C145.882 166.957 146.194 167.008 146.534 167.008C146.874 167.008 147.166 166.968 147.41 166.889C147.659 166.81 147.874 166.722 148.056 166.625C148.243 166.529 148.404 166.441 148.54 166.362C148.682 166.283 148.818 166.243 148.948 166.243C149.124 166.243 149.254 166.308 149.339 166.438L149.943 167.203C149.71 167.475 149.45 167.705 149.161 167.892C148.872 168.073 148.568 168.221 148.251 168.334C147.939 168.442 147.619 168.518 147.291 168.563C146.968 168.609 146.653 168.631 146.347 168.631C145.741 168.631 145.177 168.532 144.656 168.334C144.134 168.13 143.681 167.832 143.296 167.441C142.91 167.045 142.607 166.557 142.386 165.979C142.165 165.396 142.055 164.721 142.055 163.956C142.055 163.361 142.151 162.803 142.344 162.282C142.536 161.755 142.811 161.299 143.168 160.913C143.531 160.522 143.97 160.214 144.486 159.987C145.007 159.76 145.593 159.647 146.245 159.647C146.795 159.647 147.302 159.735 147.767 159.91C148.231 160.086 148.631 160.344 148.965 160.684C149.299 161.018 149.56 161.432 149.747 161.925C149.94 162.412 150.036 162.97 150.036 163.599C150.036 163.917 150.002 164.132 149.934 164.245C149.866 164.353 149.736 164.407 149.543 164.407H144.146ZM157.086 162.01C156.848 161.721 156.587 161.517 156.304 161.398C156.026 161.279 155.726 161.219 155.403 161.219C155.085 161.219 154.799 161.279 154.544 161.398C154.289 161.517 154.071 161.698 153.89 161.942C153.708 162.18 153.569 162.486 153.473 162.86C153.377 163.228 153.329 163.665 153.329 164.169C153.329 164.679 153.368 165.112 153.448 165.469C153.533 165.821 153.652 166.11 153.805 166.336C153.958 166.557 154.145 166.719 154.366 166.821C154.587 166.917 154.833 166.965 155.105 166.965C155.541 166.965 155.913 166.875 156.219 166.693C156.525 166.512 156.814 166.254 157.086 165.92V162.01ZM159.185 155.873V168.504H157.902C157.624 168.504 157.448 168.376 157.375 168.121L157.196 167.28C156.845 167.682 156.44 168.008 155.981 168.257C155.527 168.507 154.997 168.631 154.391 168.631C153.915 168.631 153.479 168.532 153.082 168.334C152.685 168.136 152.343 167.849 152.054 167.475C151.77 167.096 151.549 166.628 151.391 166.073C151.238 165.518 151.161 164.883 151.161 164.169C151.161 163.523 151.249 162.922 151.425 162.367C151.6 161.812 151.852 161.33 152.181 160.922C152.51 160.514 152.904 160.197 153.363 159.97C153.822 159.738 154.337 159.621 154.91 159.621C155.397 159.621 155.813 159.698 156.159 159.851C156.505 160.004 156.814 160.211 157.086 160.471V155.873H159.185ZM170.865 162.01C170.633 161.721 170.375 161.517 170.091 161.398C169.808 161.279 169.505 161.219 169.182 161.219C168.865 161.219 168.578 161.279 168.323 161.398C168.068 161.517 167.85 161.698 167.669 161.942C167.488 162.18 167.349 162.486 167.252 162.86C167.156 163.228 167.108 163.665 167.108 164.169C167.108 164.679 167.148 165.112 167.227 165.469C167.312 165.821 167.431 166.11 167.584 166.336C167.737 166.557 167.924 166.719 168.145 166.821C168.366 166.917 168.612 166.965 168.884 166.965C169.321 166.965 169.692 166.875 169.998 166.693C170.304 166.512 170.593 166.254 170.865 165.92V162.01ZM172.964 159.783V171.351H170.865V167.399C170.519 167.767 170.128 168.065 169.692 168.291C169.256 168.518 168.748 168.631 168.17 168.631C167.694 168.631 167.258 168.532 166.861 168.334C166.465 168.136 166.122 167.849 165.833 167.475C165.55 167.096 165.329 166.628 165.17 166.073C165.017 165.518 164.94 164.883 164.94 164.169C164.94 163.523 165.028 162.922 165.204 162.367C165.38 161.812 165.632 161.33 165.96 160.922C166.289 160.514 166.683 160.197 167.142 159.97C167.601 159.738 168.117 159.621 168.689 159.621C169.233 159.621 169.689 159.715 170.057 159.902C170.426 160.089 170.754 160.341 171.043 160.658L171.154 160.165C171.228 159.91 171.403 159.783 171.681 159.783H172.964ZM182.55 159.783V168.504H181.267C180.989 168.504 180.814 168.376 180.74 168.121L180.595 167.424C180.238 167.787 179.845 168.082 179.414 168.308C178.983 168.529 178.476 168.64 177.892 168.64C177.416 168.64 176.994 168.561 176.626 168.402C176.263 168.238 175.957 168.008 175.708 167.713C175.459 167.419 175.269 167.07 175.138 166.668C175.014 166.26 174.951 165.812 174.951 165.325V159.783H177.051V165.325C177.051 165.858 177.173 166.271 177.416 166.566C177.666 166.855 178.037 166.999 178.53 166.999C178.893 166.999 179.233 166.92 179.55 166.761C179.867 166.597 180.168 166.373 180.451 166.09V159.783H182.55ZM186.808 159.783V168.504H184.7V159.783H186.808ZM187.097 157.241C187.097 157.423 187.06 157.593 186.987 157.751C186.913 157.91 186.814 158.049 186.689 158.168C186.57 158.287 186.428 158.383 186.264 158.457C186.1 158.525 185.924 158.559 185.737 158.559C185.556 158.559 185.383 158.525 185.219 158.457C185.06 158.383 184.921 158.287 184.802 158.168C184.683 158.049 184.587 157.91 184.513 157.751C184.445 157.593 184.411 157.423 184.411 157.241C184.411 157.054 184.445 156.879 184.513 156.714C184.587 156.55 184.683 156.408 184.802 156.289C184.921 156.17 185.06 156.077 185.219 156.009C185.383 155.935 185.556 155.898 185.737 155.898C185.924 155.898 186.1 155.935 186.264 156.009C186.428 156.077 186.57 156.17 186.689 156.289C186.814 156.408 186.913 156.55 186.987 156.714C187.06 156.879 187.097 157.054 187.097 157.241ZM195.196 161.627C195.134 161.707 195.071 161.769 195.009 161.814C194.952 161.86 194.867 161.882 194.754 161.882C194.646 161.882 194.541 161.851 194.439 161.789C194.337 161.721 194.216 161.647 194.074 161.568C193.932 161.483 193.762 161.409 193.564 161.347C193.371 161.279 193.13 161.245 192.841 161.245C192.473 161.245 192.15 161.313 191.872 161.449C191.595 161.579 191.362 161.769 191.175 162.018C190.994 162.268 190.858 162.571 190.767 162.928C190.677 163.279 190.631 163.679 190.631 164.126C190.631 164.591 190.68 165.005 190.776 165.367C190.878 165.73 191.022 166.036 191.209 166.285C191.396 166.529 191.623 166.716 191.889 166.846C192.156 166.971 192.456 167.033 192.79 167.033C193.125 167.033 193.394 166.994 193.598 166.914C193.808 166.829 193.983 166.739 194.125 166.642C194.267 166.54 194.388 166.45 194.49 166.37C194.598 166.285 194.717 166.243 194.847 166.243C195.017 166.243 195.145 166.308 195.23 166.438L195.833 167.203C195.601 167.475 195.349 167.705 195.077 167.892C194.805 168.073 194.522 168.221 194.227 168.334C193.938 168.442 193.638 168.518 193.326 168.563C193.02 168.609 192.714 168.631 192.408 168.631C191.87 168.631 191.362 168.532 190.886 168.334C190.41 168.13 189.994 167.835 189.637 167.45C189.28 167.065 188.997 166.594 188.787 166.039C188.583 165.478 188.481 164.84 188.481 164.126C188.481 163.486 188.572 162.894 188.753 162.35C188.94 161.8 189.212 161.327 189.569 160.93C189.926 160.528 190.368 160.214 190.895 159.987C191.422 159.76 192.028 159.647 192.714 159.647C193.366 159.647 193.935 159.752 194.422 159.961C194.915 160.171 195.357 160.471 195.748 160.862L195.196 161.627ZM199.249 155.873V163.106H199.64C199.782 163.106 199.892 163.089 199.972 163.055C200.057 163.016 200.142 162.939 200.227 162.826L202.394 160.148C202.485 160.029 202.584 159.939 202.692 159.876C202.805 159.814 202.95 159.783 203.125 159.783H205.046L202.335 163.021C202.142 163.276 201.932 163.472 201.706 163.608C201.825 163.693 201.93 163.792 202.02 163.905C202.117 164.019 202.207 164.141 202.292 164.271L205.199 168.504H203.304C203.139 168.504 202.998 168.478 202.879 168.427C202.76 168.371 202.661 168.272 202.581 168.13L200.354 164.823C200.275 164.693 200.193 164.608 200.108 164.568C200.023 164.529 199.895 164.509 199.725 164.509H199.249V168.504H197.15V155.873H199.249ZM208.356 155.873V168.504H206.256V155.873H208.356ZM218.37 159.783L213.618 170.901C213.556 171.048 213.474 171.159 213.372 171.232C213.275 171.312 213.125 171.351 212.921 171.351H211.357L212.989 167.849L209.462 159.783H211.306C211.47 159.783 211.598 159.823 211.689 159.902C211.785 159.981 211.856 160.072 211.901 160.174L213.754 164.696C213.816 164.849 213.867 165.002 213.907 165.155C213.952 165.308 213.995 165.464 214.035 165.622C214.086 165.464 214.137 165.308 214.188 165.155C214.239 164.996 214.295 164.84 214.358 164.687L216.109 160.174C216.154 160.061 216.228 159.967 216.33 159.893C216.437 159.82 216.556 159.783 216.687 159.783H218.37Z" fill="#306388"/>
<path d="M98.9931 147.348C98.9931 147.172 99.0243 147.005 99.0866 146.846C99.1546 146.688 99.2453 146.552 99.3586 146.438C99.4719 146.325 99.6079 146.234 99.7666 146.166C99.9253 146.098 100.095 146.064 100.277 146.064C100.458 146.064 100.625 146.098 100.778 146.166C100.937 146.234 101.073 146.325 101.186 146.438C101.305 146.552 101.399 146.688 101.467 146.846C101.535 147.005 101.569 147.172 101.569 147.348C101.569 147.529 101.535 147.699 101.467 147.858C101.399 148.011 101.305 148.144 101.186 148.257C101.073 148.371 100.937 148.459 100.778 148.521C100.625 148.589 100.458 148.623 100.277 148.623C100.095 148.623 99.9253 148.589 99.7666 148.521C99.6079 148.459 99.4719 148.371 99.3586 148.257C99.2453 148.144 99.1546 148.011 99.0866 147.858C99.0243 147.699 98.9931 147.529 98.9931 147.348ZM103.027 147.348C103.027 147.172 103.058 147.005 103.121 146.846C103.189 146.688 103.279 146.552 103.393 146.438C103.506 146.325 103.642 146.234 103.801 146.166C103.959 146.098 104.129 146.064 104.311 146.064C104.492 146.064 104.659 146.098 104.812 146.166C104.971 146.234 105.107 146.325 105.22 146.438C105.339 146.552 105.433 146.688 105.501 146.846C105.569 147.005 105.603 147.172 105.603 147.348C105.603 147.529 105.569 147.699 105.501 147.858C105.433 148.011 105.339 148.144 105.22 148.257C105.107 148.371 104.971 148.459 104.812 148.521C104.659 148.589 104.492 148.623 104.311 148.623C104.129 148.623 103.959 148.589 103.801 148.521C103.642 148.459 103.506 148.371 103.393 148.257C103.279 148.144 103.189 148.011 103.121 147.858C103.058 147.699 103.027 147.529 103.027 147.348ZM107.061 147.348C107.061 147.172 107.093 147.005 107.155 146.846C107.223 146.688 107.314 146.552 107.427 146.438C107.54 146.325 107.676 146.234 107.835 146.166C107.994 146.098 108.164 146.064 108.345 146.064C108.526 146.064 108.693 146.098 108.846 146.166C109.005 146.234 109.141 146.325 109.254 146.438C109.373 146.552 109.467 146.688 109.535 146.846C109.603 147.005 109.637 147.172 109.637 147.348C109.637 147.529 109.603 147.699 109.535 147.858C109.467 148.011 109.373 148.144 109.254 148.257C109.141 148.371 109.005 148.459 108.846 148.521C108.693 148.589 108.526 148.623 108.345 148.623C108.164 148.623 107.994 148.589 107.835 148.521C107.676 148.459 107.54 148.371 107.427 148.257C107.314 148.144 107.223 148.011 107.155 147.858C107.093 147.699 107.061 147.529 107.061 147.348ZM113.501 146.243C113.739 146.532 113.997 146.736 114.275 146.855C114.558 146.974 114.855 147.033 115.167 147.033C115.49 147.033 115.779 146.977 116.034 146.863C116.295 146.744 116.516 146.563 116.697 146.319C116.878 146.07 117.017 145.756 117.114 145.376C117.21 144.991 117.258 144.532 117.258 143.999C117.258 143.041 117.099 142.35 116.782 141.925C116.465 141.494 116.009 141.279 115.414 141.279C115.011 141.279 114.66 141.372 114.36 141.559C114.059 141.741 113.773 141.999 113.501 142.333V146.243ZM113.501 140.854C113.852 140.486 114.241 140.194 114.666 139.978C115.096 139.757 115.586 139.647 116.136 139.647C116.64 139.647 117.094 139.746 117.496 139.944C117.904 140.143 118.25 140.429 118.533 140.803C118.822 141.171 119.043 141.619 119.196 142.146C119.349 142.673 119.426 143.265 119.426 143.922C119.426 144.631 119.338 145.274 119.162 145.852C118.986 146.43 118.734 146.926 118.406 147.339C118.083 147.747 117.692 148.065 117.233 148.291C116.774 148.518 116.264 148.631 115.703 148.631C115.431 148.631 115.184 148.603 114.963 148.546C114.742 148.495 114.538 148.422 114.351 148.325C114.164 148.229 113.991 148.113 113.833 147.977C113.68 147.835 113.532 147.679 113.391 147.509L113.297 148.096C113.263 148.243 113.204 148.348 113.119 148.41C113.039 148.473 112.929 148.504 112.787 148.504H111.402V135.873H113.501V140.854ZM128.561 139.783V148.504H127.278C127 148.504 126.824 148.376 126.751 148.121L126.606 147.424C126.249 147.787 125.855 148.082 125.425 148.308C124.994 148.529 124.487 148.64 123.903 148.64C123.427 148.64 123.005 148.561 122.637 148.402C122.274 148.238 121.968 148.008 121.719 147.713C121.469 147.419 121.279 147.07 121.149 146.668C121.024 146.26 120.962 145.812 120.962 145.325V139.783H123.062V145.325C123.062 145.858 123.183 146.271 123.427 146.566C123.676 146.855 124.048 146.999 124.541 146.999C124.903 146.999 125.243 146.92 125.561 146.761C125.878 146.597 126.178 146.373 126.462 146.09V139.783H128.561ZM133.55 148.64C132.791 148.64 132.207 148.427 131.799 148.002C131.397 147.572 131.195 146.98 131.195 146.226V141.355H130.303C130.19 141.355 130.093 141.319 130.014 141.245C129.935 141.171 129.895 141.061 129.895 140.913V140.08L131.297 139.851L131.739 137.471C131.768 137.358 131.822 137.27 131.901 137.207C131.98 137.145 132.082 137.114 132.207 137.114H133.295V139.859H135.624V141.355H133.295V146.081C133.295 146.353 133.36 146.566 133.49 146.719C133.626 146.872 133.811 146.948 134.043 146.948C134.173 146.948 134.281 146.934 134.366 146.906C134.457 146.872 134.533 146.838 134.595 146.804C134.663 146.77 134.723 146.739 134.774 146.71C134.825 146.676 134.876 146.659 134.927 146.659C134.989 146.659 135.04 146.676 135.08 146.71C135.12 146.739 135.162 146.784 135.207 146.846L135.836 147.866C135.53 148.121 135.179 148.314 134.782 148.444C134.386 148.575 133.975 148.64 133.55 148.64ZM148.633 146.617V148.504H141.433V136.213H143.72V146.617H148.633ZM158.274 145.605C158.399 145.605 158.509 145.654 158.606 145.75L159.507 146.727C159.008 147.345 158.393 147.818 157.662 148.147C156.937 148.476 156.064 148.64 155.044 148.64C154.132 148.64 153.31 148.484 152.579 148.172C151.854 147.861 151.233 147.427 150.718 146.872C150.202 146.317 149.805 145.654 149.528 144.883C149.256 144.112 149.12 143.271 149.12 142.358C149.12 141.435 149.267 140.59 149.562 139.825C149.856 139.055 150.27 138.392 150.803 137.836C151.341 137.281 151.981 136.85 152.724 136.544C153.466 136.233 154.288 136.077 155.189 136.077C156.084 136.077 156.877 136.224 157.569 136.519C158.266 136.814 158.858 137.199 159.345 137.675L158.58 138.737C158.535 138.805 158.475 138.865 158.402 138.916C158.334 138.967 158.237 138.992 158.113 138.992C158.028 138.992 157.94 138.97 157.849 138.924C157.759 138.873 157.659 138.814 157.552 138.746C157.444 138.672 157.319 138.593 157.178 138.508C157.036 138.423 156.872 138.346 156.685 138.278C156.498 138.205 156.28 138.145 156.03 138.1C155.787 138.049 155.503 138.023 155.18 138.023C154.631 138.023 154.126 138.123 153.667 138.321C153.214 138.514 152.823 138.797 152.494 139.171C152.166 139.539 151.911 139.993 151.729 140.531C151.548 141.064 151.457 141.673 151.457 142.358C151.457 143.05 151.554 143.665 151.746 144.203C151.945 144.741 152.211 145.195 152.545 145.563C152.88 145.931 153.273 146.215 153.727 146.413C154.18 146.606 154.667 146.702 155.189 146.702C155.5 146.702 155.781 146.685 156.03 146.651C156.285 146.617 156.518 146.563 156.727 146.489C156.943 146.416 157.144 146.322 157.331 146.209C157.523 146.09 157.713 145.945 157.9 145.775C157.957 145.724 158.016 145.685 158.079 145.656C158.141 145.622 158.206 145.605 158.274 145.605ZM169.248 145.605C169.373 145.605 169.483 145.654 169.579 145.75L170.48 146.727C169.982 147.345 169.367 147.818 168.636 148.147C167.911 148.476 167.038 148.64 166.018 148.64C165.106 148.64 164.284 148.484 163.553 148.172C162.828 147.861 162.207 147.427 161.691 146.872C161.176 146.317 160.779 145.654 160.501 144.883C160.229 144.112 160.093 143.271 160.093 142.358C160.093 141.435 160.241 140.59 160.535 139.825C160.83 139.055 161.244 138.392 161.776 137.836C162.315 137.281 162.955 136.85 163.697 136.544C164.44 136.233 165.261 136.077 166.162 136.077C167.058 136.077 167.851 136.224 168.542 136.519C169.239 136.814 169.832 137.199 170.319 137.675L169.554 138.737C169.509 138.805 169.449 138.865 169.375 138.916C169.307 138.967 169.211 138.992 169.086 138.992C169.001 138.992 168.914 138.97 168.823 138.924C168.732 138.873 168.633 138.814 168.525 138.746C168.418 138.672 168.293 138.593 168.151 138.508C168.01 138.423 167.845 138.346 167.658 138.278C167.471 138.205 167.253 138.145 167.004 138.1C166.76 138.049 166.477 138.023 166.154 138.023C165.604 138.023 165.1 138.123 164.641 138.321C164.188 138.514 163.797 138.797 163.468 139.171C163.139 139.539 162.884 139.993 162.703 140.531C162.522 141.064 162.431 141.673 162.431 142.358C162.431 143.05 162.527 143.665 162.72 144.203C162.918 144.741 163.185 145.195 163.519 145.563C163.853 145.931 164.247 146.215 164.7 146.413C165.154 146.606 165.641 146.702 166.162 146.702C166.474 146.702 166.755 146.685 167.004 146.651C167.259 146.617 167.491 146.563 167.701 146.489C167.916 146.416 168.117 146.322 168.304 146.209C168.497 146.09 168.687 145.945 168.874 145.775C168.931 145.724 168.99 145.685 169.052 145.656C169.115 145.622 169.18 145.605 169.248 145.605ZM177.036 141.483C176.979 141.574 176.92 141.639 176.858 141.678C176.795 141.712 176.716 141.729 176.62 141.729C176.518 141.729 176.407 141.701 176.288 141.644C176.175 141.588 176.042 141.525 175.889 141.457C175.736 141.384 175.56 141.319 175.362 141.262C175.169 141.205 174.939 141.177 174.673 141.177C174.259 141.177 173.934 141.265 173.696 141.44C173.463 141.616 173.347 141.846 173.347 142.129C173.347 142.316 173.407 142.475 173.526 142.605C173.65 142.73 173.812 142.84 174.01 142.936C174.214 143.033 174.444 143.121 174.699 143.2C174.954 143.274 175.211 143.356 175.472 143.446C175.738 143.537 175.999 143.642 176.254 143.761C176.509 143.874 176.736 144.022 176.934 144.203C177.138 144.379 177.3 144.591 177.419 144.84C177.543 145.09 177.606 145.39 177.606 145.741C177.606 146.161 177.529 146.549 177.376 146.906C177.229 147.257 177.008 147.563 176.713 147.824C176.418 148.079 176.053 148.28 175.617 148.427C175.186 148.569 174.687 148.64 174.121 148.64C173.82 148.64 173.526 148.612 173.237 148.555C172.953 148.504 172.678 148.43 172.412 148.334C172.151 148.238 171.908 148.124 171.681 147.994C171.46 147.864 171.265 147.722 171.095 147.569L171.579 146.77C171.641 146.674 171.715 146.6 171.8 146.549C171.885 146.498 171.993 146.472 172.123 146.472C172.253 146.472 172.375 146.509 172.489 146.583C172.608 146.657 172.744 146.736 172.897 146.821C173.05 146.906 173.228 146.985 173.432 147.059C173.642 147.133 173.905 147.169 174.223 147.169C174.472 147.169 174.684 147.141 174.86 147.084C175.041 147.022 175.189 146.943 175.302 146.846C175.421 146.75 175.506 146.64 175.557 146.515C175.614 146.385 175.642 146.251 175.642 146.115C175.642 145.911 175.58 145.744 175.455 145.614C175.336 145.484 175.175 145.37 174.971 145.274C174.772 145.178 174.543 145.093 174.282 145.019C174.027 144.94 173.764 144.855 173.492 144.764C173.225 144.673 172.962 144.568 172.701 144.449C172.446 144.325 172.217 144.169 172.013 143.982C171.814 143.795 171.653 143.565 171.528 143.293C171.409 143.021 171.35 142.693 171.35 142.307C171.35 141.95 171.42 141.61 171.562 141.287C171.704 140.964 171.911 140.684 172.183 140.446C172.46 140.202 172.803 140.01 173.211 139.868C173.625 139.721 174.101 139.647 174.639 139.647C175.24 139.647 175.787 139.746 176.28 139.944C176.773 140.143 177.183 140.403 177.512 140.726L177.036 141.483ZM188.641 141.483C188.584 141.574 188.524 141.639 188.462 141.678C188.4 141.712 188.32 141.729 188.224 141.729C188.122 141.729 188.012 141.701 187.893 141.644C187.779 141.588 187.646 141.525 187.493 141.457C187.34 141.384 187.164 141.319 186.966 141.262C186.773 141.205 186.544 141.177 186.278 141.177C185.864 141.177 185.538 141.265 185.3 141.44C185.068 141.616 184.952 141.846 184.952 142.129C184.952 142.316 185.011 142.475 185.13 142.605C185.255 142.73 185.416 142.84 185.615 142.936C185.819 143.033 186.048 143.121 186.303 143.2C186.558 143.274 186.816 143.356 187.077 143.446C187.343 143.537 187.604 143.642 187.859 143.761C188.114 143.874 188.34 144.022 188.539 144.203C188.743 144.379 188.904 144.591 189.023 144.84C189.148 145.09 189.21 145.39 189.21 145.741C189.21 146.161 189.134 146.549 188.981 146.906C188.833 147.257 188.612 147.563 188.318 147.824C188.023 148.079 187.657 148.28 187.221 148.427C186.79 148.569 186.292 148.64 185.725 148.64C185.425 148.64 185.13 148.612 184.841 148.555C184.558 148.504 184.283 148.43 184.017 148.334C183.756 148.238 183.512 148.124 183.286 147.994C183.065 147.864 182.869 147.722 182.699 147.569L183.184 146.77C183.246 146.674 183.32 146.6 183.405 146.549C183.49 146.498 183.597 146.472 183.728 146.472C183.858 146.472 183.98 146.509 184.093 146.583C184.212 146.657 184.348 146.736 184.501 146.821C184.654 146.906 184.833 146.985 185.037 147.059C185.246 147.133 185.51 147.169 185.827 147.169C186.076 147.169 186.289 147.141 186.465 147.084C186.646 147.022 186.793 146.943 186.907 146.846C187.026 146.75 187.111 146.64 187.162 146.515C187.218 146.385 187.247 146.251 187.247 146.115C187.247 145.911 187.184 145.744 187.06 145.614C186.941 145.484 186.779 145.37 186.575 145.274C186.377 145.178 186.147 145.093 185.887 145.019C185.632 144.94 185.368 144.855 185.096 144.764C184.83 144.673 184.566 144.568 184.306 144.449C184.051 144.325 183.821 144.169 183.617 143.982C183.419 143.795 183.257 143.565 183.133 143.293C183.014 143.021 182.954 142.693 182.954 142.307C182.954 141.95 183.025 141.61 183.167 141.287C183.308 140.964 183.515 140.684 183.787 140.446C184.065 140.202 184.408 140.01 184.816 139.868C185.229 139.721 185.705 139.647 186.244 139.647C186.844 139.647 187.391 139.746 187.884 139.944C188.377 140.143 188.788 140.403 189.117 140.726L188.641 141.483ZM199.588 148.504H197.488V141.355H193.442V146.081C193.442 146.353 193.507 146.566 193.638 146.719C193.774 146.872 193.958 146.948 194.19 146.948C194.321 146.948 194.428 146.934 194.513 146.906C194.604 146.872 194.68 146.838 194.743 146.804C194.811 146.77 194.87 146.739 194.921 146.71C194.972 146.676 195.023 146.659 195.074 146.659C195.137 146.659 195.188 146.676 195.227 146.71C195.267 146.739 195.309 146.784 195.355 146.846L195.984 147.866C195.678 148.121 195.326 148.314 194.93 148.444C194.533 148.575 194.122 148.64 193.697 148.64C192.938 148.64 192.354 148.427 191.946 148.002C191.544 147.572 191.343 146.98 191.343 146.226V141.355H190.45C190.337 141.355 190.241 141.319 190.161 141.245C190.082 141.171 190.042 141.061 190.042 140.913V140.08L191.445 139.842L191.887 137.471C191.915 137.358 191.969 137.27 192.048 137.207C192.128 137.145 192.23 137.114 192.354 137.114H193.442V139.859H199.588V148.504ZM199.953 137.207C199.953 137.389 199.916 137.562 199.843 137.726C199.769 137.885 199.67 138.023 199.545 138.142C199.426 138.261 199.282 138.358 199.112 138.431C198.947 138.499 198.772 138.533 198.585 138.533C198.403 138.533 198.233 138.499 198.075 138.431C197.916 138.358 197.777 138.261 197.658 138.142C197.539 138.023 197.443 137.885 197.369 137.726C197.301 137.562 197.267 137.389 197.267 137.207C197.267 137.02 197.301 136.848 197.369 136.689C197.443 136.525 197.539 136.383 197.658 136.264C197.777 136.139 197.916 136.043 198.075 135.975C198.233 135.901 198.403 135.864 198.585 135.864C198.772 135.864 198.947 135.901 199.112 135.975C199.282 136.043 199.426 136.139 199.545 136.264C199.67 136.383 199.769 136.525 199.843 136.689C199.916 136.848 199.953 137.02 199.953 137.207ZM203.856 135.873V148.504H201.756V135.873H203.856ZM208.073 135.873V148.504H205.973V135.873H208.073Z" fill="#306388"/>
<path d="M59.2273 60.274C59.2273 61.534 59.0906 62.6306 58.8173 63.564C58.5506 64.4906 58.1773 65.2573 57.6973 65.864C57.2239 66.4706 56.6606 66.924 56.0073 67.224C55.3606 67.5173 54.6606 67.664 53.9073 67.664C53.1539 67.664 52.4539 67.5173 51.8073 67.224C51.1673 66.924 50.6106 66.4706 50.1373 65.864C49.6639 65.2573 49.2939 64.4906 49.0273 63.564C48.7606 62.6306 48.6273 61.534 48.6273 60.274C48.6273 59.0073 48.7606 57.9106 49.0273 56.984C49.2939 56.0573 49.6639 55.2906 50.1373 54.684C50.6106 54.0773 51.1673 53.6273 51.8073 53.334C52.4539 53.034 53.1539 52.884 53.9073 52.884C54.6606 52.884 55.3606 53.034 56.0073 53.334C56.6606 53.6273 57.2239 54.0773 57.6973 54.684C58.1773 55.2906 58.5506 56.0573 58.8173 56.984C59.0906 57.9106 59.2273 59.0073 59.2273 60.274ZM56.6773 60.274C56.6773 59.2273 56.6006 58.3606 56.4473 57.674C56.2939 56.9873 56.0873 56.4406 55.8273 56.034C55.5739 55.6273 55.2806 55.344 54.9473 55.184C54.6139 55.0173 54.2673 54.934 53.9073 54.934C53.5539 54.934 53.2106 55.0173 52.8773 55.184C52.5506 55.344 52.2606 55.6273 52.0073 56.034C51.7539 56.4406 51.5506 56.9873 51.3973 57.674C51.2506 58.3606 51.1773 59.2273 51.1773 60.274C51.1773 61.3206 51.2506 62.1873 51.3973 62.874C51.5506 63.5606 51.7539 64.1073 52.0073 64.514C52.2606 64.9206 52.5506 65.2073 52.8773 65.374C53.2106 65.534 53.5539 65.614 53.9073 65.614C54.2673 65.614 54.6139 65.534 54.9473 65.374C55.2806 65.2073 55.5739 64.9206 55.8273 64.514C56.0873 64.1073 56.2939 63.5606 56.4473 62.874C56.6006 62.1873 56.6773 61.3206 56.6773 60.274ZM60.5888 66.144C60.5888 65.9373 60.6255 65.7406 60.6988 65.554C60.7788 65.3673 60.8855 65.2073 61.0188 65.074C61.1522 64.9406 61.3122 64.834 61.4988 64.754C61.6855 64.674 61.8855 64.634 62.0988 64.634C62.3122 64.634 62.5088 64.674 62.6888 64.754C62.8755 64.834 63.0355 64.9406 63.1688 65.074C63.3088 65.2073 63.4188 65.3673 63.4988 65.554C63.5788 65.7406 63.6188 65.9373 63.6188 66.144C63.6188 66.3573 63.5788 66.5573 63.4988 66.744C63.4188 66.924 63.3088 67.0806 63.1688 67.214C63.0355 67.3473 62.8755 67.4506 62.6888 67.524C62.5088 67.604 62.3122 67.644 62.0988 67.644C61.8855 67.644 61.6855 67.604 61.4988 67.524C61.3122 67.4506 61.1522 67.3473 61.0188 67.214C60.8855 67.0806 60.7788 66.924 60.6988 66.744C60.6255 66.5573 60.5888 66.3573 60.5888 66.144ZM75.3949 53.044V54.114C75.3949 54.434 75.3616 54.694 75.2949 54.894C75.2282 55.0873 75.1616 55.2506 75.0949 55.384L69.6149 66.664C69.5016 66.8973 69.3416 67.0973 69.1349 67.264C68.9282 67.424 68.6516 67.504 68.3049 67.504H66.5149L72.1049 56.454C72.2316 56.2273 72.3549 56.0206 72.4749 55.834C72.6016 55.6406 72.7416 55.4573 72.8949 55.284H65.9749C65.8216 55.284 65.6882 55.2273 65.5749 55.114C65.4616 55.0006 65.4049 54.8673 65.4049 54.714V53.044H75.3949ZM83.5265 56.544C83.5265 57.0906 83.4331 57.584 83.2465 58.024C83.0665 58.464 82.8231 58.8406 82.5165 59.154C82.2098 59.4606 81.8531 59.6973 81.4465 59.864C81.0398 60.0306 80.6165 60.114 80.1765 60.114C79.6965 60.114 79.2531 60.0306 78.8465 59.864C78.4398 59.6973 78.0865 59.4606 77.7865 59.154C77.4931 58.8406 77.2631 58.464 77.0965 58.024C76.9298 57.584 76.8465 57.0906 76.8465 56.544C76.8465 55.984 76.9298 55.4773 77.0965 55.024C77.2631 54.5706 77.4931 54.1873 77.7865 53.874C78.0865 53.5606 78.4398 53.3206 78.8465 53.154C79.2531 52.9806 79.6965 52.894 80.1765 52.894C80.6565 52.894 81.0998 52.9806 81.5065 53.154C81.9198 53.3206 82.2765 53.5606 82.5765 53.874C82.8765 54.1873 83.1098 54.5706 83.2765 55.024C83.4431 55.4773 83.5265 55.984 83.5265 56.544ZM81.6265 56.544C81.6265 56.1573 81.5865 55.834 81.5065 55.574C81.4331 55.314 81.3298 55.104 81.1965 54.944C81.0698 54.784 80.9165 54.6706 80.7365 54.604C80.5631 54.5306 80.3765 54.494 80.1765 54.494C79.9765 54.494 79.7898 54.5306 79.6165 54.604C79.4431 54.6706 79.2931 54.784 79.1665 54.944C79.0465 55.104 78.9498 55.314 78.8765 55.574C78.8031 55.834 78.7665 56.1573 78.7665 56.544C78.7665 56.9173 78.8031 57.2306 78.8765 57.484C78.9498 57.7306 79.0465 57.9306 79.1665 58.084C79.2931 58.2373 79.4431 58.3473 79.6165 58.414C79.7898 58.4806 79.9765 58.514 80.1765 58.514C80.3765 58.514 80.5631 58.4806 80.7365 58.414C80.9165 58.3473 81.0698 58.2373 81.1965 58.084C81.3298 57.9306 81.4331 57.7306 81.5065 57.484C81.5865 57.2306 81.6265 56.9173 81.6265 56.544ZM88.3365 53.434C88.4231 53.334 88.5231 53.244 88.6365 53.164C88.7565 53.084 88.9231 53.044 89.1365 53.044H90.9365L80.1965 67.134C80.1098 67.2406 80.0065 67.3306 79.8865 67.404C79.7665 67.4706 79.6198 67.504 79.4465 67.504H77.6065L88.3365 53.434ZM91.6965 64.104C91.6965 64.6506 91.6031 65.144 91.4165 65.584C91.2365 66.024 90.9931 66.4006 90.6865 66.714C90.3798 67.0206 90.0231 67.2606 89.6165 67.434C89.2098 67.6006 88.7865 67.684 88.3465 67.684C87.8665 67.684 87.4231 67.6006 87.0165 67.434C86.6098 67.2606 86.2565 67.0206 85.9565 66.714C85.6631 66.4006 85.4331 66.024 85.2665 65.584C85.0998 65.144 85.0165 64.6506 85.0165 64.104C85.0165 63.544 85.0998 63.0373 85.2665 62.584C85.4331 62.1306 85.6631 61.7473 85.9565 61.434C86.2565 61.1206 86.6098 60.8806 87.0165 60.714C87.4231 60.5406 87.8665 60.454 88.3465 60.454C88.8265 60.454 89.2698 60.5406 89.6765 60.714C90.0898 60.8806 90.4431 61.1206 90.7365 61.434C91.0365 61.7473 91.2698 62.1306 91.4365 62.584C91.6098 63.0373 91.6965 63.544 91.6965 64.104ZM89.7865 64.104C89.7865 63.7173 89.7498 63.394 89.6765 63.134C89.6031 62.874 89.4998 62.664 89.3665 62.504C89.2398 62.344 89.0865 62.2306 88.9065 62.164C88.7331 62.0906 88.5465 62.054 88.3465 62.054C88.1465 62.054 87.9598 62.0906 87.7865 62.164C87.6131 62.2306 87.4631 62.344 87.3365 62.504C87.2098 62.664 87.1098 62.874 87.0365 63.134C86.9698 63.394 86.9365 63.7173 86.9365 64.104C86.9365 64.4773 86.9698 64.7906 87.0365 65.044C87.1098 65.2973 87.2098 65.5006 87.3365 65.654C87.4631 65.8073 87.6131 65.9173 87.7865 65.984C87.9598 66.0506 88.1465 66.084 88.3465 66.084C88.5465 66.084 88.7331 66.0506 88.9065 65.984C89.0865 65.9173 89.2398 65.8073 89.3665 65.654C89.4998 65.5006 89.6031 65.2973 89.6765 65.044C89.7498 64.7906 89.7865 64.4773 89.7865 64.104ZM93.3232 66.144C93.3232 65.9373 93.3599 65.7406 93.4332 65.554C93.5132 65.3673 93.6199 65.2073 93.7532 65.074C93.8865 64.9406 94.0465 64.834 94.2332 64.754C94.4199 64.674 94.6199 64.634 94.8332 64.634C95.0465 64.634 95.2432 64.674 95.4232 64.754C95.6099 64.834 95.7699 64.9406 95.9032 65.074C96.0432 65.2073 96.1532 65.3673 96.2332 65.554C96.3132 65.7406 96.3532 65.9373 96.3532 66.144C96.3532 66.3573 96.3132 66.5573 96.2332 66.744C96.1532 66.924 96.0432 67.0806 95.9032 67.214C95.7699 67.3473 95.6099 67.4506 95.4232 67.524C95.2432 67.604 95.0465 67.644 94.8332 67.644C94.6199 67.644 94.4199 67.604 94.2332 67.524C94.0465 67.4506 93.8865 67.3473 93.7532 67.214C93.6199 67.0806 93.5132 66.924 93.4332 66.744C93.3599 66.5573 93.3232 66.3573 93.3232 66.144ZM98.0693 66.144C98.0693 65.9373 98.106 65.7406 98.1793 65.554C98.2593 65.3673 98.366 65.2073 98.4993 65.074C98.6326 64.9406 98.7926 64.834 98.9793 64.754C99.166 64.674 99.366 64.634 99.5793 64.634C99.7926 64.634 99.9893 64.674 100.169 64.754C100.356 64.834 100.516 64.9406 100.649 65.074C100.789 65.2073 100.899 65.3673 100.979 65.554C101.059 65.7406 101.099 65.9373 101.099 66.144C101.099 66.3573 101.059 66.5573 100.979 66.744C100.899 66.924 100.789 67.0806 100.649 67.214C100.516 67.3473 100.356 67.4506 100.169 67.524C99.9893 67.604 99.7926 67.644 99.5793 67.644C99.366 67.644 99.166 67.604 98.9793 67.524C98.7926 67.4506 98.6326 67.3473 98.4993 67.214C98.366 67.0806 98.2593 66.924 98.1793 66.744C98.106 66.5573 98.0693 66.3573 98.0693 66.144ZM102.815 66.144C102.815 65.9373 102.852 65.7406 102.925 65.554C103.005 65.3673 103.112 65.2073 103.245 65.074C103.379 64.9406 103.539 64.834 103.725 64.754C103.912 64.674 104.112 64.634 104.325 64.634C104.539 64.634 104.735 64.674 104.915 64.754C105.102 64.834 105.262 64.9406 105.395 65.074C105.535 65.2073 105.645 65.3673 105.725 65.554C105.805 65.7406 105.845 65.9373 105.845 66.144C105.845 66.3573 105.805 66.5573 105.725 66.744C105.645 66.924 105.535 67.0806 105.395 67.214C105.262 67.3473 105.102 67.4506 104.915 67.524C104.735 67.604 104.539 67.644 104.325 67.644C104.112 67.644 103.912 67.604 103.725 67.524C103.539 67.4506 103.379 67.3473 103.245 67.214C103.112 67.0806 103.005 66.924 102.925 66.744C102.852 66.5573 102.815 66.3573 102.815 66.144Z" fill="#306388"/>
<path d="M27.7823 44.9465C27.8923 44.9465 27.9898 44.989 28.0748 45.074L28.8698 45.9365C28.4298 46.4815 27.8873 46.899 27.2423 47.189C26.6023 47.479 25.8323 47.624 24.9323 47.624C24.1273 47.624 23.4023 47.4865 22.7573 47.2115C22.1173 46.9365 21.5698 46.554 21.1148 46.064C20.6598 45.574 20.3098 44.989 20.0648 44.309C19.8248 43.629 19.7048 42.8865 19.7048 42.0815C19.7048 41.2665 19.8348 40.5215 20.0948 39.8465C20.3548 39.1665 20.7198 38.5815 21.1898 38.0915C21.6648 37.6015 22.2298 37.2215 22.8848 36.9515C23.5398 36.6765 24.2648 36.539 25.0598 36.539C25.8498 36.539 26.5498 36.669 27.1598 36.929C27.7748 37.189 28.2973 37.529 28.7273 37.949L28.0523 38.8865C28.0123 38.9465 27.9598 38.999 27.8948 39.044C27.8348 39.089 27.7498 39.1115 27.6398 39.1115C27.5648 39.1115 27.4873 39.0915 27.4073 39.0515C27.3273 39.0065 27.2398 38.954 27.1448 38.894C27.0498 38.829 26.9398 38.759 26.8148 38.684C26.6898 38.609 26.5448 38.5415 26.3798 38.4815C26.2148 38.4165 26.0223 38.364 25.8023 38.324C25.5873 38.279 25.3373 38.2565 25.0523 38.2565C24.5673 38.2565 24.1223 38.344 23.7173 38.519C23.3173 38.689 22.9723 38.939 22.6823 39.269C22.3923 39.594 22.1673 39.994 22.0073 40.469C21.8473 40.939 21.7673 41.4765 21.7673 42.0815C21.7673 42.6915 21.8523 43.234 22.0223 43.709C22.1973 44.184 22.4323 44.584 22.7273 44.909C23.0223 45.234 23.3698 45.484 23.7698 45.659C24.1698 45.829 24.5998 45.914 25.0598 45.914C25.3348 45.914 25.5823 45.899 25.8023 45.869C26.0273 45.839 26.2323 45.7915 26.4173 45.7265C26.6073 45.6615 26.7848 45.579 26.9498 45.479C27.1198 45.374 27.2873 45.2465 27.4523 45.0965C27.5023 45.0515 27.5548 45.0165 27.6098 44.9915C27.6648 44.9615 27.7223 44.9465 27.7823 44.9465ZM35.9818 43.409L34.6618 39.8015C34.5968 39.6415 34.5293 39.4515 34.4593 39.2315C34.3893 39.0115 34.3193 38.774 34.2493 38.519C34.1843 38.774 34.1168 39.014 34.0468 39.239C33.9768 39.459 33.9093 39.6515 33.8443 39.8165L32.5318 43.409H35.9818ZM39.5443 47.504H37.9843C37.8093 47.504 37.6668 47.4615 37.5568 47.3765C37.4468 47.2865 37.3643 47.1765 37.3093 47.0465L36.4993 44.834H32.0068L31.1968 47.0465C31.1568 47.1615 31.0793 47.2665 30.9643 47.3615C30.8493 47.4565 30.7068 47.504 30.5368 47.504H28.9618L33.2293 36.659H35.2843L39.5443 47.504ZM49.2845 42.0665V46.454C48.7345 46.859 48.147 47.1565 47.522 47.3465C46.902 47.5315 46.237 47.624 45.527 47.624C44.642 47.624 43.8395 47.4865 43.1195 47.2115C42.4045 46.9365 41.792 46.554 41.282 46.064C40.777 45.574 40.387 44.989 40.112 44.309C39.837 43.629 39.6995 42.8865 39.6995 42.0815C39.6995 41.2665 39.832 40.519 40.097 39.839C40.362 39.159 40.737 38.574 41.222 38.084C41.712 37.594 42.3045 37.214 42.9995 36.944C43.6945 36.674 44.4745 36.539 45.3395 36.539C45.7795 36.539 46.1895 36.574 46.5695 36.644C46.9545 36.714 47.3095 36.8115 47.6345 36.9365C47.9645 37.0565 48.2645 37.204 48.5345 37.379C48.8045 37.554 49.052 37.7465 49.277 37.9565L48.6995 38.8715C48.6095 39.0165 48.492 39.1065 48.347 39.1415C48.202 39.1715 48.0445 39.134 47.8745 39.029C47.7095 38.934 47.5445 38.839 47.3795 38.744C47.2145 38.649 47.0295 38.5665 46.8245 38.4965C46.6245 38.4265 46.397 38.369 46.142 38.324C45.892 38.279 45.602 38.2565 45.272 38.2565C44.737 38.2565 44.252 38.3465 43.817 38.5265C43.387 38.7065 43.0195 38.964 42.7145 39.299C42.4095 39.634 42.1745 40.0365 42.0095 40.5065C41.8445 40.9765 41.762 41.5015 41.762 42.0815C41.762 42.7015 41.8495 43.2565 42.0245 43.7465C42.2045 44.2315 42.4545 44.644 42.7745 44.984C43.0995 45.319 43.4895 45.5765 43.9445 45.7565C44.3995 45.9315 44.907 46.019 45.467 46.019C45.867 46.019 46.2245 45.9765 46.5395 45.8915C46.8545 45.8065 47.162 45.6915 47.462 45.5465V43.5815H46.097C45.967 43.5815 45.8645 43.5465 45.7895 43.4765C45.7195 43.4015 45.6845 43.3115 45.6845 43.2065V42.0665H49.2845ZM54.5058 41.819C54.8858 41.819 55.2158 41.7715 55.4958 41.6765C55.7808 41.5815 56.0133 41.4515 56.1933 41.2865C56.3783 41.1165 56.5158 40.9165 56.6058 40.6865C56.6958 40.4565 56.7408 40.204 56.7408 39.929C56.7408 39.379 56.5583 38.9565 56.1933 38.6615C55.8333 38.3665 55.2808 38.219 54.5358 38.219H53.2458V41.819H54.5058ZM59.6958 47.504H57.8733C57.5283 47.504 57.2783 47.369 57.1233 47.099L54.8433 43.6265C54.7583 43.4965 54.6633 43.404 54.5583 43.349C54.4583 43.294 54.3083 43.2665 54.1083 43.2665H53.2458V47.504H51.2283V36.659H54.5358C55.2708 36.659 55.9008 36.7365 56.4258 36.8915C56.9558 37.0415 57.3883 37.254 57.7233 37.529C58.0633 37.804 58.3133 38.134 58.4733 38.519C58.6333 38.899 58.7133 39.319 58.7133 39.779C58.7133 40.144 58.6583 40.489 58.5483 40.814C58.4433 41.139 58.2883 41.434 58.0833 41.699C57.8833 41.964 57.6333 42.1965 57.3333 42.3965C57.0383 42.5965 56.7008 42.754 56.3208 42.869C56.4508 42.944 56.5708 43.034 56.6808 43.139C56.7908 43.239 56.8908 43.359 56.9808 43.499L59.6958 47.504ZM67.6269 39.689C68.1969 39.689 68.7144 39.7815 69.1794 39.9665C69.6494 40.1515 70.0494 40.414 70.3794 40.754C70.7144 41.094 70.9719 41.509 71.1519 41.999C71.3319 42.489 71.4219 43.0365 71.4219 43.6415C71.4219 44.2515 71.3319 44.8015 71.1519 45.2915C70.9719 45.7815 70.7144 46.199 70.3794 46.544C70.0494 46.889 69.6494 47.154 69.1794 47.339C68.7144 47.524 68.1969 47.6165 67.6269 47.6165C67.0519 47.6165 66.5294 47.524 66.0594 47.339C65.5894 47.154 65.1869 46.889 64.8519 46.544C64.5219 46.199 64.2644 45.7815 64.0794 45.2915C63.8994 44.8015 63.8094 44.2515 63.8094 43.6415C63.8094 43.0365 63.8994 42.489 64.0794 41.999C64.2644 41.509 64.5219 41.094 64.8519 40.754C65.1869 40.414 65.5894 40.1515 66.0594 39.9665C66.5294 39.7815 67.0519 39.689 67.6269 39.689ZM67.6269 46.1915C68.2669 46.1915 68.7394 45.9765 69.0444 45.5465C69.3544 45.1165 69.5094 44.4865 69.5094 43.6565C69.5094 42.8265 69.3544 42.194 69.0444 41.759C68.7394 41.324 68.2669 41.1065 67.6269 41.1065C66.9769 41.1065 66.4944 41.3265 66.1794 41.7665C65.8694 42.2015 65.7144 42.8315 65.7144 43.6565C65.7144 44.4815 65.8694 45.1115 66.1794 45.5465C66.4944 45.9765 66.9769 46.1915 67.6269 46.1915ZM73.1848 47.504V41.204L72.5173 41.099C72.3723 41.069 72.2548 41.019 72.1648 40.949C72.0798 40.874 72.0373 40.769 72.0373 40.634V39.8765H73.1848V39.3065C73.1848 38.8665 73.2498 38.4715 73.3798 38.1215C73.5148 37.7715 73.7048 37.474 73.9498 37.229C74.1998 36.984 74.5023 36.7965 74.8573 36.6665C75.2123 36.5365 75.6123 36.4715 76.0573 36.4715C76.4123 36.4715 76.7423 36.519 77.0473 36.614L77.0098 37.544C77.0048 37.614 76.9848 37.6715 76.9498 37.7165C76.9148 37.7565 76.8673 37.789 76.8073 37.814C76.7523 37.834 76.6873 37.849 76.6123 37.859C76.5373 37.864 76.4573 37.8665 76.3723 37.8665C76.1523 37.8665 75.9548 37.8915 75.7798 37.9415C75.6098 37.9865 75.4648 38.069 75.3448 38.189C75.2248 38.304 75.1323 38.459 75.0673 38.654C75.0073 38.844 74.9773 39.0815 74.9773 39.3665V39.8765H76.9798V41.1965H75.0373V47.504H73.1848ZM21.9623 57.809V65.7665C21.9623 66.1015 21.9173 66.4165 21.8273 66.7115C21.7423 67.0065 21.6023 67.264 21.4073 67.484C21.2173 67.709 20.9648 67.884 20.6498 68.009C20.3398 68.139 19.9598 68.204 19.5098 68.204C19.3348 68.204 19.1723 68.1915 19.0223 68.1665C18.8723 68.1465 18.7173 68.1115 18.5573 68.0615L18.6248 67.064C18.6398 66.964 18.6798 66.899 18.7448 66.869C18.8098 66.844 18.9348 66.8315 19.1198 66.8315C19.3048 66.8315 19.4598 66.8115 19.5848 66.7715C19.7148 66.7365 19.8173 66.6765 19.8923 66.5915C19.9673 66.5115 20.0198 66.404 20.0498 66.269C20.0848 66.134 20.1023 65.9665 20.1023 65.7665V57.809H21.9623ZM22.2173 55.5665C22.2173 55.7265 22.1848 55.8765 22.1198 56.0165C22.0548 56.1565 21.9673 56.279 21.8573 56.384C21.7523 56.489 21.6248 56.574 21.4748 56.639C21.3298 56.699 21.1748 56.729 21.0098 56.729C20.8498 56.729 20.6998 56.699 20.5598 56.639C20.4198 56.574 20.2973 56.489 20.1923 56.384C20.0873 56.279 20.0023 56.1565 19.9373 56.0165C19.8773 55.8765 19.8473 55.7265 19.8473 55.5665C19.8473 55.4015 19.8773 55.2465 19.9373 55.1015C20.0023 54.9565 20.0873 54.8315 20.1923 54.7265C20.2973 54.6215 20.4198 54.539 20.5598 54.479C20.6998 54.414 20.8498 54.3815 21.0098 54.3815C21.1748 54.3815 21.3298 54.414 21.4748 54.479C21.6248 54.539 21.7523 54.6215 21.8573 54.7265C21.9673 54.8315 22.0548 54.9565 22.1198 55.1015C22.1848 55.2465 22.2173 55.4015 22.2173 55.5665ZM30.4809 57.809V65.504H29.3484C29.1034 65.504 28.9484 65.3915 28.8834 65.1665L28.7559 64.5515C28.4409 64.8715 28.0934 65.1315 27.7134 65.3315C27.3334 65.5265 26.8859 65.624 26.3709 65.624C25.9509 65.624 25.5784 65.554 25.2534 65.414C24.9334 65.269 24.6634 65.0665 24.4434 64.8065C24.2234 64.5465 24.0559 64.239 23.9409 63.884C23.8309 63.524 23.7759 63.129 23.7759 62.699V57.809H25.6284V62.699C25.6284 63.169 25.7359 63.534 25.9509 63.794C26.1709 64.049 26.4984 64.1765 26.9334 64.1765C27.2534 64.1765 27.5534 64.1065 27.8334 63.9665C28.1134 63.8215 28.3784 63.624 28.6284 63.374V57.809H30.4809ZM37.0126 59.309C36.9626 59.389 36.9101 59.4465 36.8551 59.4815C36.8001 59.5115 36.7301 59.5265 36.6451 59.5265C36.5551 59.5265 36.4576 59.5015 36.3526 59.4515C36.2526 59.4015 36.1351 59.3465 36.0001 59.2865C35.8651 59.2215 35.7101 59.164 35.5351 59.114C35.3651 59.064 35.1626 59.039 34.9276 59.039C34.5626 59.039 34.2751 59.1165 34.0651 59.2715C33.8601 59.4265 33.7576 59.629 33.7576 59.879C33.7576 60.044 33.8101 60.184 33.9151 60.299C34.0251 60.409 34.1676 60.5065 34.3426 60.5915C34.5226 60.6765 34.7251 60.754 34.9501 60.824C35.1751 60.889 35.4026 60.9615 35.6326 61.0415C35.8676 61.1215 36.0976 61.214 36.3226 61.319C36.5476 61.419 36.7476 61.549 36.9226 61.709C37.1026 61.864 37.2451 62.0515 37.3501 62.2715C37.4601 62.4915 37.5151 62.7565 37.5151 63.0665C37.5151 63.4365 37.4476 63.779 37.3126 64.094C37.1826 64.404 36.9876 64.674 36.7276 64.904C36.4676 65.129 36.1451 65.3065 35.7601 65.4365C35.3801 65.5615 34.9401 65.624 34.4401 65.624C34.1751 65.624 33.9151 65.599 33.6601 65.549C33.4101 65.504 33.1676 65.439 32.9326 65.354C32.7026 65.269 32.4876 65.169 32.2876 65.054C32.0926 64.939 31.9201 64.814 31.7701 64.679L32.1976 63.974C32.2526 63.889 32.3176 63.824 32.3926 63.779C32.4676 63.734 32.5626 63.7115 32.6776 63.7115C32.7926 63.7115 32.9001 63.744 33.0001 63.809C33.1051 63.874 33.2251 63.944 33.3601 64.019C33.4951 64.094 33.6526 64.164 33.8326 64.229C34.0176 64.294 34.2501 64.3265 34.5301 64.3265C34.7501 64.3265 34.9376 64.3015 35.0926 64.2515C35.2526 64.1965 35.3826 64.1265 35.4826 64.0415C35.5876 63.9565 35.6626 63.859 35.7076 63.749C35.7576 63.634 35.7826 63.5165 35.7826 63.3965C35.7826 63.2165 35.7276 63.069 35.6176 62.954C35.5126 62.839 35.3701 62.739 35.1901 62.654C35.0151 62.569 34.8126 62.494 34.5826 62.429C34.3576 62.359 34.1251 62.284 33.8851 62.204C33.6501 62.124 33.4176 62.0315 33.1876 61.9265C32.9626 61.8165 32.7601 61.679 32.5801 61.514C32.4051 61.349 32.2626 61.1465 32.1526 60.9065C32.0476 60.6665 31.9951 60.3765 31.9951 60.0365C31.9951 59.7215 32.0576 59.4215 32.1826 59.1365C32.3076 58.8515 32.4901 58.604 32.7301 58.394C32.9751 58.179 33.2776 58.009 33.6376 57.884C34.0026 57.754 34.4226 57.689 34.8976 57.689C35.4276 57.689 35.9101 57.7765 36.3451 57.9515C36.7801 58.1265 37.1426 58.3565 37.4326 58.6415L37.0126 59.309ZM41.4744 65.624C40.8044 65.624 40.2894 65.4365 39.9294 65.0615C39.5744 64.6815 39.3969 64.159 39.3969 63.494V59.1965H38.6094C38.5094 59.1965 38.4244 59.164 38.3544 59.099C38.2844 59.034 38.2494 58.9365 38.2494 58.8065V58.0715L39.4869 57.869L39.8769 55.769C39.9019 55.669 39.9494 55.5915 40.0194 55.5365C40.0894 55.4815 40.1794 55.454 40.2894 55.454H41.2494V57.8765H43.3044V59.1965H41.2494V63.3665C41.2494 63.6065 41.3069 63.794 41.4219 63.929C41.5419 64.064 41.7044 64.1315 41.9094 64.1315C42.0244 64.1315 42.1194 64.119 42.1944 64.094C42.2744 64.064 42.3419 64.034 42.3969 64.004C42.4569 63.974 42.5094 63.9465 42.5544 63.9215C42.5994 63.8915 42.6444 63.8765 42.6894 63.8765C42.7444 63.8765 42.7894 63.8915 42.8244 63.9215C42.8594 63.9465 42.8969 63.9865 42.9369 64.0415L43.4919 64.9415C43.2219 65.1665 42.9119 65.3365 42.5619 65.4515C42.2119 65.5665 41.8494 65.624 41.4744 65.624Z" fill="#306388"/>
<mask id="mask0_6602_459" style="mask-type:alpha" maskUnits="userSpaceOnUse" x="73" y="81" width="82" height="56">
<path d="M107.788 102.116L82.4068 82.8029L85.2728 81.0437L127.436 92.9097C133.153 90.1004 145.991 84.3268 151.606 83.7068C157.22 83.0869 154.248 88.042 152.319 90.1623L133.245 104.136L129.359 135.793L127.116 136.041L115.127 112.004L96.8369 119.912L89.6816 131.257L87.7802 131.467L86.7932 122.529L80.4131 123.233L83.8574 119.334L73.5197 113.439L75.0928 112.26L90.9652 113.523L107.788 102.116Z" fill="#FFC200"/>
</mask>
<g mask="url(#mask0_6602_459)">
<path d="M107.788 102.116L82.4068 82.8029L85.2728 81.0437L127.436 92.9097C133.153 90.1004 145.991 84.3268 151.606 83.7068C157.22 83.0869 154.248 88.042 152.319 90.1623L133.245 104.136L129.359 135.793L127.116 136.041L114.571 110.917L96.8369 119.912L89.6816 131.257L87.7802 131.467L86.7932 122.529L80.4131 123.233L83.8574 119.334L73.5197 113.439L75.0928 112.26L90.9652 113.523L107.788 102.116Z" fill="#FFC200"/>
<path d="M107.788 102.116L116.627 98.004L127.436 92.9097C133.154 90.1004 145.991 84.3267 151.606 83.7068C157.22 83.0869 154.248 88.042 152.319 90.1623L133.245 104.136L133.245 102.116L114.572 110.917L115.127 112.004L96.837 119.912L86.7933 122.529L80.4133 123.233L83.8575 119.334L73.5198 113.439L75.0929 112.26L90.9653 113.523L107.788 102.116Z" fill="white"/>
<path d="M103.077 114.685L103.511 115.524L100.782 116.936L98.4388 112.406L99.4896 111.863L101.398 115.553L103.077 114.685ZM106.386 112.552C106.41 112.539 106.438 112.531 106.468 112.528C106.497 112.524 106.529 112.527 106.564 112.538L107.207 112.761C107.148 113.094 107.012 113.392 106.8 113.657C106.589 113.919 106.295 114.147 105.92 114.341C105.576 114.519 105.237 114.621 104.904 114.646C104.571 114.668 104.256 114.626 103.96 114.52C103.664 114.41 103.392 114.24 103.145 114.011C102.896 113.78 102.686 113.498 102.515 113.167C102.34 112.829 102.235 112.491 102.199 112.152C102.162 111.811 102.19 111.487 102.283 111.179C102.375 110.871 102.531 110.588 102.75 110.33C102.969 110.072 103.245 109.857 103.579 109.685C103.749 109.597 103.916 109.53 104.081 109.484C104.248 109.434 104.41 109.403 104.569 109.389C104.726 109.374 104.879 109.375 105.027 109.392C105.176 109.41 105.315 109.441 105.445 109.484L105.337 110.143C105.329 110.183 105.316 110.224 105.298 110.265C105.278 110.304 105.241 110.338 105.185 110.367C105.147 110.386 105.108 110.396 105.066 110.397C105.024 110.397 104.979 110.396 104.93 110.392C104.88 110.387 104.825 110.382 104.765 110.379C104.707 110.373 104.641 110.374 104.567 110.383C104.494 110.39 104.411 110.406 104.32 110.432C104.231 110.457 104.131 110.498 104.021 110.555C103.847 110.645 103.704 110.76 103.592 110.899C103.482 111.037 103.407 111.196 103.365 111.375C103.325 111.551 103.323 111.744 103.358 111.954C103.394 112.162 103.472 112.38 103.591 112.61C103.711 112.842 103.848 113.032 104.004 113.181C104.161 113.328 104.326 113.436 104.498 113.504C104.671 113.57 104.847 113.597 105.025 113.586C105.204 113.575 105.376 113.527 105.542 113.441C105.637 113.392 105.722 113.343 105.796 113.294C105.87 113.243 105.935 113.189 105.993 113.133C106.049 113.075 106.099 113.013 106.141 112.946C106.181 112.878 106.218 112.8 106.252 112.711C106.266 112.678 106.284 112.647 106.307 112.62C106.328 112.59 106.354 112.568 106.386 112.552ZM110.356 110.497C110.381 110.485 110.409 110.477 110.439 110.474C110.468 110.47 110.5 110.473 110.535 110.484L111.178 110.707C111.119 111.04 110.983 111.338 110.771 111.603C110.559 111.865 110.266 112.093 109.891 112.287C109.547 112.465 109.208 112.567 108.875 112.592C108.542 112.614 108.227 112.572 107.931 112.466C107.635 112.356 107.363 112.186 107.116 111.957C106.867 111.726 106.657 111.444 106.486 111.113C106.311 110.775 106.206 110.437 106.17 110.098C106.133 109.757 106.161 109.433 106.254 109.125C106.346 108.816 106.502 108.534 106.721 108.276C106.94 108.018 107.216 107.803 107.55 107.631C107.719 107.543 107.887 107.476 108.052 107.43C108.219 107.38 108.381 107.349 108.54 107.335C108.697 107.32 108.85 107.321 108.998 107.338C109.147 107.356 109.286 107.387 109.416 107.43L109.308 108.089C109.3 108.129 109.287 108.17 109.268 108.211C109.249 108.25 109.212 108.284 109.156 108.313C109.118 108.332 109.079 108.342 109.037 108.343C108.995 108.343 108.95 108.342 108.901 108.338C108.851 108.333 108.796 108.328 108.736 108.325C108.678 108.319 108.611 108.32 108.537 108.329C108.465 108.336 108.382 108.352 108.291 108.378C108.201 108.403 108.102 108.444 107.992 108.501C107.818 108.591 107.675 108.706 107.563 108.845C107.453 108.983 107.378 109.142 107.336 109.321C107.296 109.497 107.293 109.69 107.329 109.9C107.365 110.108 107.443 110.326 107.562 110.556C107.682 110.788 107.819 110.978 107.975 111.127C108.132 111.274 108.297 111.381 108.469 111.45C108.642 111.516 108.818 111.543 108.996 111.532C109.175 111.521 109.347 111.473 109.512 111.387C109.608 111.338 109.693 111.289 109.767 111.24C109.841 111.189 109.906 111.135 109.964 111.079C110.02 111.021 110.07 110.959 110.111 110.892C110.152 110.824 110.189 110.746 110.222 110.657C110.237 110.624 110.255 110.593 110.278 110.566C110.299 110.536 110.325 110.514 110.356 110.497Z" fill="#840032"/>
<path d="M150.705 83.7483C151.089 84.4825 151.053 85.769 150.127 87.004C148.627 89.004 147.011 89.7382 146.627 89.004C146.244 88.2699 146.486 84.6034 147.465 84.0919C148.444 83.5804 150.322 83.0141 150.705 83.7483Z" fill="#134E78"/>
</g>
</g>
<defs>
<clipPath id="clip0_6602_459">
<rect width="229" height="193" fill="white"/>
</clipPath>
</defs>
</svg>
