<svg width="229" height="139" viewBox="0 0 229 139" fill="none" xmlns="http://www.w3.org/2000/svg">
<g clip-path="url(#clip0_6602_503)">
<rect width="229" height="139" fill="white"/>
<path d="M175.077 61.8845L182.906 67.9826L144.191 117.686C144.191 117.686 143.269 118.869 139.355 115.82C135.44 112.771 136.362 111.588 136.362 111.588L175.077 61.8845Z" fill="#002642"/>
<rect x="164.625" y="72.6113" width="13.2312" height="4.96171" rx="0.800811" transform="rotate(37.9163 164.625 72.6113)" fill="#002642"/>
<rect x="173.772" y="60.8681" width="13.2312" height="9.92342" rx="0.800811" transform="rotate(37.9163 173.772 60.8681)" fill="#002642"/>
<circle cx="193.22" cy="46.6665" r="29.7703" transform="rotate(37.9163 193.22 46.6665)" fill="#427BA3"/>
<mask id="mask0_6602_503" style="mask-type:alpha" maskUnits="userSpaceOnUse" x="168" y="21" width="51" height="51">
<circle cx="193.22" cy="46.6665" r="24.8086" transform="rotate(37.9163 193.22 46.6665)" fill="white"/>
</mask>
<g mask="url(#mask0_6602_503)">
<circle cx="193.22" cy="46.6665" r="24.8086" transform="rotate(37.9163 193.22 46.6665)" fill="white"/>
<path d="M211.995 60.2428C203.856 70.6916 188.495 72.3366 177.686 63.917C166.877 55.4973 164.713 40.2014 172.852 29.7526C180.991 19.3037 196.351 17.6587 207.16 26.0784C217.969 34.498 220.134 49.7939 211.995 60.2428Z" fill="#E9F6FF"/>
<path d="M193.151 41.372C191.447 32.4916 200.412 30.2562 208.465 27.0949C206.46 25.1836 199.95 19.0101 193.385 19.541C184.366 20.2704 179.253 28.2827 178.503 37.2999C177.666 47.3801 188.866 49.5647 193.502 58.4165C197.21 65.4979 187.859 71.4917 184.135 73.133L198.858 73.0711C199.9 70.3883 209.742 65.826 203.294 56.6103C196.846 47.3946 194.214 46.9109 193.151 41.372Z" fill="white"/>
</g>
<path d="M39.1491 103.343H13.238C25.8671 84.1528 34.33 73.8653 54.591 57.2792C44.1219 67.4865 56.6848 78.4791 66.8922 72.1976L86.7835 59.1113C94.74 54.0861 100.917 57.0174 103.011 59.1113L146.196 88.9482C149.755 91.6702 150.819 94.9679 150.907 96.2766C150.279 108.63 137.559 106.135 131.277 103.343C128.346 122.188 114.352 116.953 107.722 111.98C101.964 128.207 94.1118 125.241 86.7835 121.664C81.7583 134.855 71.4288 130.476 66.8922 126.637L39.1491 103.343Z" fill="#244157"/>
<path d="M103.011 59.1113L146.196 88.9482C161.945 71.2085 165.205 62.6585 166.087 48.6422H138.344L112.956 30.583C103.011 22.4694 95.4204 24.825 92.018 27.1805L54.5909 57.2792C44.1218 67.4865 56.6847 78.4791 66.8921 72.1977L86.7834 59.1113C94.7399 54.0861 100.917 57.0175 103.011 59.1113Z" fill="#D7EAF8"/>
<path d="M9.448 112.742V116.166H13.784V117.886H9.448V122.598H7.288V111.03H14.584V112.742H9.448ZM22.3855 113.134C22.3215 113.246 22.2522 113.329 22.1775 113.382C22.1082 113.43 22.0202 113.454 21.9135 113.454C21.8015 113.454 21.6788 113.414 21.5455 113.334C21.4175 113.249 21.2628 113.155 21.0815 113.054C20.9002 112.953 20.6868 112.862 20.4415 112.782C20.2015 112.697 19.9162 112.654 19.5855 112.654C19.2868 112.654 19.0255 112.691 18.8015 112.766C18.5775 112.835 18.3882 112.934 18.2335 113.062C18.0842 113.19 17.9722 113.345 17.8975 113.526C17.8228 113.702 17.7855 113.897 17.7855 114.11C17.7855 114.382 17.8602 114.609 18.0095 114.79C18.1642 114.971 18.3668 115.126 18.6175 115.254C18.8682 115.382 19.1535 115.497 19.4735 115.598C19.7935 115.699 20.1215 115.809 20.4575 115.926C20.7935 116.038 21.1215 116.171 21.4415 116.326C21.7615 116.475 22.0468 116.667 22.2975 116.902C22.5482 117.131 22.7482 117.414 22.8975 117.75C23.0522 118.086 23.1295 118.494 23.1295 118.974C23.1295 119.497 23.0388 119.987 22.8575 120.446C22.6815 120.899 22.4202 121.297 22.0735 121.638C21.7322 121.974 21.3135 122.241 20.8175 122.438C20.3215 122.63 19.7535 122.726 19.1135 122.726C18.7455 122.726 18.3828 122.689 18.0255 122.614C17.6682 122.545 17.3242 122.443 16.9935 122.31C16.6682 122.177 16.3615 122.017 16.0735 121.83C15.7855 121.643 15.5295 121.435 15.3055 121.206L15.9375 120.174C15.9908 120.099 16.0602 120.038 16.1455 119.99C16.2308 119.937 16.3215 119.91 16.4175 119.91C16.5508 119.91 16.6948 119.966 16.8495 120.078C17.0042 120.185 17.1882 120.305 17.4015 120.438C17.6148 120.571 17.8628 120.694 18.1455 120.806C18.4335 120.913 18.7775 120.966 19.1775 120.966C19.7908 120.966 20.2655 120.822 20.6015 120.534C20.9375 120.241 21.1055 119.822 21.1055 119.278C21.1055 118.974 21.0282 118.726 20.8735 118.534C20.7242 118.342 20.5242 118.182 20.2735 118.054C20.0228 117.921 19.7375 117.809 19.4175 117.718C19.0975 117.627 18.7722 117.529 18.4415 117.422C18.1108 117.315 17.7855 117.187 17.4655 117.038C17.1455 116.889 16.8602 116.694 16.6095 116.454C16.3588 116.214 16.1562 115.915 16.0015 115.558C15.8522 115.195 15.7775 114.75 15.7775 114.222C15.7775 113.801 15.8602 113.39 16.0255 112.99C16.1962 112.59 16.4415 112.235 16.7615 111.926C17.0815 111.617 17.4762 111.369 17.9455 111.182C18.4148 110.995 18.9535 110.902 19.5615 110.902C20.2442 110.902 20.8735 111.009 21.4495 111.222C22.0255 111.435 22.5162 111.734 22.9215 112.118L22.3855 113.134ZM32.9508 119.87C33.0681 119.87 33.1721 119.915 33.2628 120.006L34.1108 120.926C33.6414 121.507 33.0628 121.953 32.3748 122.262C31.6921 122.571 30.8708 122.726 29.9108 122.726C29.0521 122.726 28.2788 122.579 27.5908 122.286C26.9081 121.993 26.3241 121.585 25.8388 121.062C25.3534 120.539 24.9801 119.915 24.7188 119.19C24.4628 118.465 24.3348 117.673 24.3348 116.814C24.3348 115.945 24.4734 115.15 24.7508 114.43C25.0281 113.705 25.4174 113.081 25.9188 112.558C26.4254 112.035 27.0281 111.63 27.7268 111.342C28.4254 111.049 29.1988 110.902 30.0468 110.902C30.8894 110.902 31.6361 111.041 32.2868 111.318C32.9428 111.595 33.5001 111.958 33.9588 112.406L33.2388 113.406C33.1961 113.47 33.1401 113.526 33.0708 113.574C33.0068 113.622 32.9161 113.646 32.7988 113.646C32.7188 113.646 32.6361 113.625 32.5508 113.582C32.4654 113.534 32.3721 113.478 32.2708 113.414C32.1694 113.345 32.0521 113.27 31.9188 113.19C31.7854 113.11 31.6308 113.038 31.4548 112.974C31.2788 112.905 31.0734 112.849 30.8388 112.806C30.6094 112.758 30.3428 112.734 30.0388 112.734C29.5214 112.734 29.0468 112.827 28.6148 113.014C28.1881 113.195 27.8201 113.462 27.5108 113.814C27.2014 114.161 26.9614 114.587 26.7908 115.094C26.6201 115.595 26.5348 116.169 26.5348 116.814C26.5348 117.465 26.6254 118.043 26.8068 118.55C26.9934 119.057 27.2441 119.483 27.5588 119.83C27.8734 120.177 28.2441 120.443 28.6708 120.63C29.0974 120.811 29.5561 120.902 30.0468 120.902C30.3401 120.902 30.6041 120.886 30.8388 120.854C31.0788 120.822 31.2974 120.771 31.4948 120.702C31.6974 120.633 31.8868 120.545 32.0628 120.438C32.2441 120.326 32.4228 120.19 32.5988 120.03C32.6521 119.982 32.7081 119.945 32.7668 119.918C32.8254 119.886 32.8868 119.87 32.9508 119.87Z" fill="#244157"/>
<path d="M127.069 25.9052V27.6812H120.293V16.1132H122.445V25.9052H127.069ZM136.143 24.9532C136.26 24.9532 136.364 24.9985 136.455 25.0892L137.303 26.0092C136.834 26.5905 136.255 27.0359 135.567 27.3452C134.884 27.6545 134.063 27.8092 133.103 27.8092C132.244 27.8092 131.471 27.6625 130.783 27.3692C130.1 27.0759 129.516 26.6679 129.031 26.1452C128.546 25.6225 128.172 24.9985 127.911 24.2732C127.655 23.5479 127.527 22.7559 127.527 21.8972C127.527 21.0279 127.666 20.2332 127.943 19.5132C128.22 18.7879 128.61 18.1639 129.111 17.6412C129.618 17.1185 130.22 16.7132 130.919 16.4252C131.618 16.1319 132.391 15.9852 133.239 15.9852C134.082 15.9852 134.828 16.1239 135.479 16.4012C136.135 16.6785 136.692 17.0412 137.151 17.4892L136.431 18.4892C136.388 18.5532 136.332 18.6092 136.263 18.6572C136.199 18.7052 136.108 18.7292 135.991 18.7292C135.911 18.7292 135.828 18.7079 135.743 18.6652C135.658 18.6172 135.564 18.5612 135.463 18.4972C135.362 18.4279 135.244 18.3532 135.111 18.2732C134.978 18.1932 134.823 18.1212 134.647 18.0572C134.471 17.9879 134.266 17.9319 134.031 17.8892C133.802 17.8412 133.535 17.8172 133.231 17.8172C132.714 17.8172 132.239 17.9105 131.807 18.0972C131.38 18.2785 131.012 18.5452 130.703 18.8972C130.394 19.2439 130.154 19.6705 129.983 20.1772C129.812 20.6785 129.727 21.2519 129.727 21.8972C129.727 22.5479 129.818 23.1265 129.999 23.6332C130.186 24.1399 130.436 24.5665 130.751 24.9132C131.066 25.2599 131.436 25.5265 131.863 25.7132C132.29 25.8945 132.748 25.9852 133.239 25.9852C133.532 25.9852 133.796 25.9692 134.031 25.9372C134.271 25.9052 134.49 25.8545 134.687 25.7852C134.89 25.7159 135.079 25.6279 135.255 25.5212C135.436 25.4092 135.615 25.2732 135.791 25.1132C135.844 25.0652 135.9 25.0279 135.959 25.0012C136.018 24.9692 136.079 24.9532 136.143 24.9532ZM146.471 24.9532C146.588 24.9532 146.692 24.9985 146.783 25.0892L147.631 26.0092C147.162 26.5905 146.583 27.0359 145.895 27.3452C145.212 27.6545 144.391 27.8092 143.431 27.8092C142.572 27.8092 141.799 27.6625 141.111 27.3692C140.428 27.0759 139.844 26.6679 139.359 26.1452C138.874 25.6225 138.5 24.9985 138.239 24.2732C137.983 23.5479 137.855 22.7559 137.855 21.8972C137.855 21.0279 137.994 20.2332 138.271 19.5132C138.548 18.7879 138.938 18.1639 139.439 17.6412C139.946 17.1185 140.548 16.7132 141.247 16.4252C141.946 16.1319 142.719 15.9852 143.567 15.9852C144.41 15.9852 145.156 16.1239 145.807 16.4012C146.463 16.6785 147.02 17.0412 147.479 17.4892L146.759 18.4892C146.716 18.5532 146.66 18.6092 146.591 18.6572C146.527 18.7052 146.436 18.7292 146.319 18.7292C146.239 18.7292 146.156 18.7079 146.071 18.6652C145.986 18.6172 145.892 18.5612 145.791 18.4972C145.69 18.4279 145.572 18.3532 145.439 18.2732C145.306 18.1932 145.151 18.1212 144.975 18.0572C144.799 17.9879 144.594 17.9319 144.359 17.8892C144.13 17.8412 143.863 17.8172 143.559 17.8172C143.042 17.8172 142.567 17.9105 142.135 18.0972C141.708 18.2785 141.34 18.5452 141.031 18.8972C140.722 19.2439 140.482 19.6705 140.311 20.1772C140.14 20.6785 140.055 21.2519 140.055 21.8972C140.055 22.5479 140.146 23.1265 140.327 23.6332C140.514 24.1399 140.764 24.5665 141.079 24.9132C141.394 25.2599 141.764 25.5265 142.191 25.7132C142.618 25.8945 143.076 25.9852 143.567 25.9852C143.86 25.9852 144.124 25.9692 144.359 25.9372C144.599 25.9052 144.818 25.8545 145.015 25.7852C145.218 25.7159 145.407 25.6279 145.583 25.5212C145.764 25.4092 145.943 25.2732 146.119 25.1132C146.172 25.0652 146.228 25.0279 146.287 25.0012C146.346 24.9692 146.407 24.9532 146.471 24.9532Z" fill="#87A0B1"/>
<path d="M39.318 22.9238L36.853 13.2361C36.4556 11.6771 34.2435 11.6771 33.8461 13.2361L31.3811 22.9238C31.2422 23.4658 30.8253 23.8909 30.2862 24.0382L19.5619 26.9701C18.0084 27.3953 18.0529 29.613 19.6202 29.977L29.4969 32.2697C30.0555 32.4004 30.5002 32.8283 30.6447 33.3841L33.8461 45.5118C34.2519 47.0514 36.439 47.0514 36.8447 45.5118L40.0462 33.3841C40.1934 32.8283 40.6353 32.4004 41.1939 32.2697L51.0706 29.977C52.638 29.613 52.6824 27.3953 51.129 26.9701L40.4046 24.0382C39.8738 23.8882 39.457 23.463 39.318 22.9238Z" fill="#FFC200"/>
<path d="M52.2015 9.4886L51.215 5.61184C51.0565 4.98933 50.17 4.98933 50.0116 5.61184L49.0251 9.4886C48.9695 9.70536 48.8028 9.87487 48.5888 9.93323L44.2979 11.106C43.6754 11.2755 43.6949 12.162 44.3202 12.3093L48.272 13.2264C48.4971 13.2792 48.6721 13.4487 48.7305 13.6738L50.0116 18.526C50.1756 19.143 51.0482 19.143 51.2122 18.526L52.4933 13.6738C52.5517 13.4515 52.7295 13.2792 52.9519 13.2264L56.9036 12.3093C57.5317 12.1648 57.5484 11.2755 56.9259 11.106L52.6351 9.93323C52.4238 9.87487 52.2571 9.70536 52.2015 9.4886Z" fill="#FFC200"/>
<path d="M190.303 87.9043C190.316 87.3594 191.068 87.2263 191.268 87.7333L196.095 99.9781C196.216 100.286 196.598 100.393 196.862 100.193L207.353 92.2449C207.787 91.9157 208.36 92.4203 208.088 92.8927L201.525 104.301C201.36 104.588 201.514 104.954 201.835 105.035L214.59 108.282C215.118 108.416 215.081 109.178 214.542 109.26L201.53 111.242C201.203 111.292 201.013 111.64 201.15 111.942L206.564 123.938C206.788 124.435 206.169 124.881 205.769 124.511L196.107 115.573C195.864 115.349 195.473 115.418 195.322 115.712L189.319 127.426C189.071 127.911 188.336 127.704 188.376 127.161L189.339 114.034C189.363 113.704 189.066 113.442 188.741 113.508L175.841 116.117C175.307 116.225 175.009 115.522 175.459 115.214L186.323 107.783C186.596 107.596 186.616 107.2 186.362 106.988L176.278 98.5284C175.861 98.1781 176.225 97.5074 176.746 97.6673L189.33 101.528C189.646 101.625 189.968 101.393 189.976 101.062L190.303 87.9043Z" fill="#FFC200"/>
<circle cx="214.805" cy="74.3373" r="4.30957" stroke="#FFC200" stroke-width="3"/>
<circle cx="24.23" cy="66.6777" r="4.30957" stroke="#FFDD73" stroke-width="3"/>
<circle cx="76.8984" cy="23.3059" r="5.17401" fill="#FFDD73"/>
<circle cx="158.403" cy="113.695" r="5.17401" fill="#FFDD73"/>
</g>
<defs>
<clipPath id="clip0_6602_503">
<rect width="229" height="139" fill="white"/>
</clipPath>
</defs>
</svg>
