<svg width="229" height="165" viewBox="0 0 229 165" fill="none" xmlns="http://www.w3.org/2000/svg">
<rect width="229" height="164.25" transform="translate(0 0.25)" fill="white"/>
<mask id="path-1-inside-1_8637_2606" fill="white">
<path fill-rule="evenodd" clip-rule="evenodd" d="M224.238 50.4606C229.102 65.2712 225.078 79.5565 215.251 82.3677C214.427 82.6032 213.589 82.7507 212.742 82.8146L42.4794 141.903L42.2232 129.937L28.8202 93.5477L18.3758 87.0905L3 80.5134L192.685 31.504C194.112 30.2164 195.77 29.2679 197.637 28.7338C207.465 25.9226 219.375 35.65 224.238 50.4606Z"/>
</mask>
<path fill-rule="evenodd" clip-rule="evenodd" d="M224.238 50.4606C229.102 65.2712 225.078 79.5565 215.251 82.3677C214.427 82.6032 213.589 82.7507 212.742 82.8146L42.4794 141.903L42.2232 129.937L28.8202 93.5477L18.3758 87.0905L3 80.5134L192.685 31.504C194.112 30.2164 195.77 29.2679 197.637 28.7338C207.465 25.9226 219.375 35.65 224.238 50.4606Z" fill="#ECECEC"/>
<path d="M215.251 82.3677L215.526 83.3291L215.251 82.3677ZM224.238 50.4606L225.188 50.1486V50.1486L224.238 50.4606ZM212.742 82.8146L212.667 81.8175L212.537 81.8272L212.414 81.8699L212.742 82.8146ZM42.4794 141.903L41.4796 141.924L41.509 143.298L42.8072 142.847L42.4794 141.903ZM42.2232 129.937L43.223 129.915L43.2194 129.748L43.1616 129.591L42.2232 129.937ZM28.8202 93.5477L29.7586 93.202L29.6394 92.8784L29.3461 92.6971L28.8202 93.5477ZM18.3758 87.0905L18.9016 86.2399L18.8379 86.2006L18.769 86.1711L18.3758 87.0905ZM3 80.5134L2.74984 79.5452L-0.0904903 80.279L2.60671 81.4328L3 80.5134ZM192.685 31.504L192.935 32.4722L193.172 32.4108L193.355 32.2464L192.685 31.504ZM197.637 28.7338L197.362 27.7723V27.7723L197.637 28.7338ZM215.526 83.3291C220.876 81.7987 224.529 77.1748 226.216 71.185C227.905 65.1902 227.672 57.7114 225.188 50.1486L223.288 50.7726C225.668 58.0204 225.856 65.0895 224.291 70.6428C222.725 76.2011 219.453 80.1255 214.975 81.4063L215.526 83.3291ZM212.817 83.8118C213.73 83.7429 214.635 83.5837 215.526 83.3291L214.975 81.4063C214.219 81.6227 213.448 81.7585 212.667 81.8175L212.817 83.8118ZM42.8072 142.847L213.07 83.7593L212.414 81.8699L42.1515 140.958L42.8072 142.847ZM41.2235 129.958L41.4796 141.924L43.4791 141.881L43.223 129.915L41.2235 129.958ZM43.1616 129.591L29.7586 93.202L27.8819 93.8933L41.2849 130.282L43.1616 129.591ZM17.8499 87.9411L28.2944 94.3982L29.3461 92.6971L18.9016 86.2399L17.8499 87.9411ZM2.60671 81.4328L17.9825 88.0099L18.769 86.1711L3.39329 79.594L2.60671 81.4328ZM192.435 30.5358L2.74984 79.5452L3.25016 81.4816L192.935 32.4722L192.435 30.5358ZM197.362 27.7723C195.34 28.3507 193.549 29.3774 192.015 30.7615L193.355 32.2464C194.675 31.0553 196.199 30.1852 197.912 29.6952L197.362 27.7723ZM225.188 50.1486C222.704 42.5846 218.411 36.2812 213.432 32.2145C208.464 28.157 202.697 26.2463 197.362 27.7723L197.912 29.6952C202.405 28.4101 207.507 29.9574 212.167 33.7635C216.815 37.5603 220.908 43.5259 223.288 50.7726L225.188 50.1486Z" fill="#ECECEC" mask="url(#path-1-inside-1_8637_2606)"/>
<ellipse cx="18.5083" cy="25.6933" rx="18.5083" ry="25.6933" transform="matrix(0.961438 -0.27502 0.312008 0.95008 9.72681 98.4287)" fill="#ECECEC"/>
<g filter="url(#filter0_f_8637_2606)">
<path d="M52.0102 101.142L148.663 74.1152" stroke="#A3A0A0"/>
</g>
<g filter="url(#filter1_f_8637_2606)">
<path d="M54.5728 108.317L150.892 80.9208" stroke="#A3A0A0"/>
</g>
<g filter="url(#filter2_f_8637_2606)">
<path d="M130.491 93.6677L152.408 88.0558" stroke="#A3A0A0"/>
</g>
<g filter="url(#filter3_f_8637_2606)">
<path d="M56.8152 115.492L91.7219 105.571" stroke="#A3A0A0"/>
</g>
<g filter="url(#filter4_f_8637_2606)">
<path d="M59.3073 122.299L154.9 94.8635" stroke="#A3A0A0"/>
</g>
<path d="M52.7542 112.661C54.7083 118.612 54.8176 124.45 53.4396 129.072C52.0606 133.698 49.2143 137.052 45.2895 138.175C41.3648 139.298 36.9932 138.008 33.0741 134.898C29.1576 131.79 25.7426 126.897 23.7885 120.947C21.8343 114.997 21.7251 109.158 23.1031 104.536C24.4821 99.9107 27.3284 96.5561 31.2531 95.4334C35.1779 94.3108 39.5495 95.6007 43.4686 98.7104C47.385 101.818 50.8001 106.711 52.7542 112.661Z" fill="#ECECEC" stroke="#E4E4E4"/>
<path d="M52.7326 112.596C54.3639 117.564 54.491 122.423 53.4028 126.256C52.3132 130.094 50.0294 132.844 46.8794 133.745C43.7295 134.646 40.1871 133.563 36.9804 130.954C33.7776 128.348 30.9651 124.257 29.3338 119.289C27.7024 114.322 27.5754 109.462 28.6636 105.629C29.7531 101.791 32.037 99.0416 35.187 98.1406C38.3369 97.2396 41.8793 98.3223 45.0859 100.931C48.2888 103.537 51.1012 107.629 52.7326 112.596Z" fill="#E4E4E4" stroke="#E4E4E4"/>
<path d="M178.538 47.3994L179.648 51.2265C179.697 51.3947 179.773 51.491 179.877 51.5154L180.582 51.6917C180.734 51.7323 180.893 51.5533 181.061 51.1546C181.097 51.0719 181.164 51.0408 181.261 51.0614C181.356 51.0767 181.375 51.1424 181.318 51.2585C180.907 52.0243 180.63 52.7444 180.488 53.4189C180.428 53.5642 180.324 53.5907 180.176 53.4985C179.76 53.2371 179.388 53.0521 179.06 52.9437C178.737 52.8338 178.294 52.7884 177.731 52.8076C177.622 52.8071 177.559 52.778 177.542 52.7201C177.525 52.6623 177.549 52.6109 177.615 52.566C177.976 52.412 178.073 52.0624 177.908 51.517L176.932 48.1811C176.775 47.6448 176.572 47.3435 176.323 47.277C176.031 47.1877 175.844 47.2945 175.763 47.5976C175.733 47.7238 175.671 47.768 175.575 47.7303C175.479 47.6925 175.455 47.5998 175.503 47.4521C175.595 47.1686 175.678 46.8821 175.751 46.5924C175.829 46.3013 175.91 46.0095 175.994 45.717C176.044 45.5348 176.162 45.4736 176.349 45.5334C177.286 45.6958 177.92 46.0427 178.251 46.5742C178.283 46.6225 178.327 46.648 178.382 46.6509C178.436 46.6485 178.476 46.6186 178.502 46.5613L179.395 44.834C179.419 44.7938 179.455 44.7706 179.502 44.7644C179.547 44.753 179.589 44.7647 179.63 44.7995L180.98 46.1588C181.017 46.2003 181.024 46.2465 181.003 46.2971L180.321 47.691C180.292 47.7379 180.252 47.7651 180.199 47.7728C180.153 47.779 180.115 47.7632 180.086 47.7254L179.055 46.7168C179.024 46.691 178.982 46.6819 178.929 46.6896C178.881 46.6905 178.843 46.7144 178.814 46.7613L178.548 47.3119C178.532 47.3387 178.529 47.3679 178.538 47.3994Z" fill="#5C5858"/>
<path d="M173.622 55.2436C173.574 55.1203 173.473 55.0443 173.32 55.0156C173.172 54.9855 173.043 54.9504 172.935 54.9103C172.167 54.6652 171.562 54.2826 171.119 53.7626C170.681 53.2359 170.348 52.6457 170.12 51.9918C169.615 50.5106 169.715 49.2593 170.421 48.2377C170.672 47.8744 170.989 47.5508 171.372 47.2669C171.753 46.9776 172.156 46.7197 172.58 46.4931C172.713 46.431 172.837 46.4701 172.951 46.6107L174.947 48.9664C175.044 49.094 175.051 49.1884 174.966 49.2496L174.949 49.2539L171.851 51.3901C171.793 51.4389 171.779 51.496 171.81 51.5615C172.428 52.6583 173.109 53.2899 173.853 53.4562C174.596 53.6172 175.255 53.5002 175.83 53.1054C175.929 53.0293 176.001 53.0193 176.048 53.0752C176.1 53.1297 176.094 53.182 176.03 53.2322C175.637 53.564 175.265 53.896 174.914 54.2282C174.569 54.559 174.269 54.8896 174.015 55.2199C173.973 55.2644 173.9 55.2942 173.796 55.3095C173.697 55.3234 173.639 55.3014 173.622 55.2436ZM171.534 50.9879C171.552 51.0285 171.581 51.0577 171.623 51.0754C171.663 51.0878 171.705 51.077 171.75 51.0431L173.365 49.9538C173.44 49.9008 173.45 49.8391 173.393 49.7689L171.672 47.6733C171.588 47.5706 171.482 47.5806 171.354 47.7035C171.08 47.9655 170.976 48.4296 171.044 49.0959C171.112 49.7622 171.275 50.3929 171.534 50.9879Z" fill="#5C5858"/>
<path d="M161.794 46.2147C161.383 46.4437 161.238 46.7434 161.358 47.1138C161.433 47.349 161.641 47.5332 161.983 47.6665C162.329 47.7932 162.703 47.8419 163.106 47.8127C163.112 47.8112 163.118 47.8124 163.125 47.8163C164.428 47.9251 165.613 48.1996 166.68 48.6397C167.752 49.0783 168.532 49.9135 169.019 51.1452L169.026 51.1689C169.185 52.1454 169.17 52.9964 168.983 53.722C168.795 54.4476 168.497 55.0406 168.087 55.5009L168.083 55.5188C167.901 55.7683 167.672 56.0076 167.394 56.2366C167.116 56.4656 166.876 56.6905 166.674 56.9113C166.545 57.0514 166.444 57.0772 166.37 56.9888C165.85 56.3699 164.823 56.0579 163.291 56.0528C163.202 56.0585 163.145 56.0306 163.121 55.9689C163.097 55.9073 163.115 55.8547 163.175 55.8112C163.493 55.5946 163.568 55.1998 163.4 54.6267L162.424 51.3503C162.37 51.1663 162.435 51.0566 162.619 51.0212C163.202 50.9461 163.713 50.6238 164.152 50.0545C164.179 50.0249 164.185 49.9811 164.168 49.9233C164.144 49.8841 164.107 49.8597 164.056 49.8502C163.817 49.8206 163.579 49.7936 163.342 49.7693C163.103 49.7396 162.869 49.7033 162.638 49.6604C162.05 49.5729 161.577 49.3854 161.221 49.0977C160.87 48.8086 160.621 48.4962 160.475 48.1607L160.463 48.1213C160.311 47.0812 160.688 46.3835 161.595 46.0283C161.735 45.97 161.822 45.9762 161.854 46.0469C161.893 46.1162 161.873 46.1721 161.794 46.2147ZM164.653 49.9354C164.596 49.9273 164.549 49.9448 164.514 49.9878L164.202 50.3807C164.112 50.4883 164.084 50.5973 164.116 50.7077L165.289 54.595C165.312 54.6738 165.362 54.7204 165.438 54.7348L167.556 55.2715C167.727 55.3183 167.853 55.2524 167.934 55.0736C168.246 54.2768 168.182 53.3414 167.74 52.2674C167.303 51.1867 166.571 50.4722 165.543 50.1239C165.356 50.0642 165.059 50.0014 164.653 49.9354Z" fill="#5C5858"/>
<path d="M156.645 56.2707C156.887 57.1187 157.199 57.5646 157.581 57.6085C157.628 57.6247 157.658 57.6565 157.672 57.7038C157.685 57.7459 157.674 57.7825 157.641 57.8135C157.238 58.3002 156.966 58.8807 156.824 59.5552C156.803 59.6058 156.767 59.6376 156.716 59.6505C156.665 59.6634 156.617 59.6532 156.571 59.6197C156.082 59.1059 155.515 58.7418 154.871 58.5272C154.832 58.5148 154.805 58.4849 154.791 58.4376C154.777 58.3903 154.786 58.3485 154.818 58.3122C155.145 58.0875 155.186 57.5519 154.938 56.7054L154.173 54.0871C154.016 53.5509 153.813 53.2495 153.563 53.1831C153.271 53.0937 153.084 53.2006 153.003 53.5036C152.974 53.6298 152.911 53.6741 152.815 53.6363C152.719 53.5986 152.695 53.5058 152.743 53.3581C152.836 53.0747 152.918 52.7881 152.991 52.4985C153.069 52.2074 153.15 51.9155 153.234 51.623C153.28 51.4476 153.397 51.3838 153.587 51.4315L153.598 51.4373C154.539 51.6155 155.174 51.965 155.502 52.486C155.53 52.541 155.568 52.568 155.617 52.567C155.665 52.566 155.707 52.544 155.743 52.501C155.982 52.1803 156.225 51.8442 156.474 51.4929C156.722 51.1415 156.872 50.8378 156.925 50.5816C156.947 50.4291 157.049 50.4059 157.231 50.512C157.666 50.7571 158.03 50.9469 158.324 51.0811C158.623 51.214 159.073 51.2546 159.676 51.2029C159.783 51.1981 159.846 51.2272 159.865 51.2903C159.887 51.3467 159.865 51.3948 159.798 51.4344C159.667 51.5243 159.564 51.6493 159.49 51.8094C159.414 51.9643 159.42 52.1916 159.508 52.4913L160.483 55.8272C160.64 56.3635 160.843 56.6648 161.092 56.7313C161.382 56.8101 161.565 56.7013 161.641 56.405C161.674 56.2893 161.738 56.2503 161.834 56.2881C161.934 56.3191 161.96 56.4085 161.913 56.5562C161.816 56.8464 161.728 57.137 161.65 57.4281C161.576 57.7125 161.499 57.9976 161.419 58.2835C161.361 58.4565 161.244 58.5229 161.069 58.4828C159.908 58.2812 159.195 57.7257 158.929 56.8161L157.757 52.7761C157.711 52.6184 157.639 52.5266 157.54 52.5008L157.532 52.503L157.527 52.4872L156.648 52.1181C156.573 52.0918 156.508 52.1056 156.451 52.1597L155.759 53.0223C155.727 53.0586 155.717 53.0951 155.727 53.132L156.645 56.2707Z" fill="#5C5858"/>
<path d="M150.773 61.0622C150.725 60.9389 150.624 60.8629 150.47 60.8342C150.322 60.8041 150.194 60.769 150.086 60.7289C149.318 60.4837 148.713 60.1012 148.27 59.5812C147.832 59.0545 147.499 58.4642 147.271 57.8104C146.766 56.3292 146.866 55.0778 147.572 54.0563C147.823 53.693 148.14 53.3694 148.523 53.0854C148.904 52.7962 149.307 52.5383 149.731 52.3117C149.864 52.2495 149.988 52.2887 150.101 52.4292L152.098 54.785C152.195 54.9126 152.202 55.007 152.117 55.0682L152.1 55.0725L149.002 57.2087C148.944 57.2574 148.93 57.3145 148.961 57.38C149.579 58.4769 150.26 59.1085 151.004 59.2747C151.747 59.4357 152.406 59.3188 152.981 58.9239C153.08 58.8479 153.152 58.8379 153.199 58.8938C153.251 58.9483 153.245 59.0006 153.181 59.0508C152.788 59.3826 152.416 59.7146 152.065 60.0468C151.72 60.3776 151.42 60.7082 151.166 61.0385C151.124 61.0829 151.051 61.1128 150.947 61.1281C150.848 61.142 150.79 61.12 150.773 61.0622ZM148.685 56.8065C148.703 56.8471 148.732 56.8763 148.774 56.8939C148.814 56.9064 148.856 56.8956 148.901 56.8617L150.516 55.7724C150.591 55.7193 150.6 55.6577 150.544 55.5874L148.823 53.4919C148.739 53.3892 148.633 53.3992 148.505 53.5221C148.231 53.784 148.127 54.2482 148.195 54.9145C148.263 55.5807 148.426 56.2114 148.685 56.8065Z" fill="#5C5858"/>
<path d="M144.051 53.97L145.513 53.5977C145.603 53.5747 145.661 53.6053 145.685 53.6894L145.828 54.1784C145.853 54.2625 145.82 54.3161 145.73 54.339L144.707 54.5994C144.668 54.6094 144.636 54.6345 144.611 54.6747C144.592 54.7134 144.593 54.7471 144.614 54.7758C144.734 55.0616 144.845 55.4738 144.948 56.0125L146.52 64.5263C146.55 64.7108 146.52 64.8146 146.429 64.8375C146.341 64.8657 146.257 64.7854 146.177 64.5966C145.566 63.0237 144.953 61.4541 144.338 59.8878C143.722 58.3215 143.098 56.7548 142.464 55.1875L141.484 55.4372C141.4 55.4587 141.347 55.4326 141.325 55.359C141.296 55.2816 141.314 55.229 141.379 55.2013C141.728 55.0502 141.981 54.7966 142.137 54.4405C142.293 54.0844 142.285 53.674 142.113 53.2095C141.855 52.4729 141.776 51.8207 141.877 51.2529C141.976 50.6798 142.43 50.4116 143.24 50.4483C143.689 50.475 144.098 50.4953 144.465 50.5091C144.836 50.5162 145.062 50.3993 145.143 50.1584C145.178 50.0308 145.227 49.9677 145.288 49.9691C145.348 49.9706 145.37 50.0752 145.352 50.2832C145.325 50.9342 145.178 51.4064 144.913 51.6999C144.652 51.9868 144.136 52.0645 143.365 51.9331C142.623 51.8171 142.276 52.058 142.323 52.6559C142.375 53.2472 142.607 53.5837 143.018 53.6654C143.419 53.7552 143.691 53.8443 143.831 53.9327C143.91 53.9748 143.984 53.9872 144.051 53.97Z" fill="#5C5858"/>
<path d="M140.278 63.7348C140.23 63.6115 140.129 63.5355 139.976 63.5068C139.828 63.4767 139.699 63.4416 139.591 63.4015C138.823 63.1564 138.218 62.7738 137.775 62.2538C137.337 61.7271 137.004 61.1369 136.776 60.483C136.271 59.0018 136.371 57.7504 137.077 56.7289C137.328 56.3656 137.645 56.042 138.028 55.758C138.409 55.4688 138.812 55.2109 139.236 54.9843C139.369 54.9221 139.493 54.9613 139.607 55.1018L141.603 57.4576C141.701 57.5852 141.707 57.6796 141.622 57.7408L141.605 57.7451L138.507 59.8813C138.449 59.93 138.435 59.9872 138.466 60.0526C139.084 61.1495 139.765 61.7811 140.509 61.9474C141.252 62.1084 141.911 61.9914 142.486 61.5965C142.585 61.5205 142.657 61.5105 142.704 61.5664C142.756 61.6209 142.75 61.6732 142.686 61.7234C142.293 62.0552 141.921 62.3872 141.57 62.7194C141.225 63.0502 140.925 63.3808 140.671 63.7111C140.629 63.7555 140.556 63.7854 140.452 63.8007C140.353 63.8146 140.295 63.7926 140.278 63.7348ZM138.19 59.4791C138.208 59.5197 138.237 59.5489 138.279 59.5665C138.319 59.579 138.361 59.5682 138.406 59.5343L140.021 58.445C140.096 58.392 140.106 58.3303 140.049 58.26L138.328 56.1645C138.244 56.0618 138.138 56.0718 138.01 56.1947C137.736 56.4566 137.632 56.9208 137.7 57.5871C137.768 58.2534 137.931 58.884 138.19 59.4791Z" fill="#5C5858"/>
<path d="M124.88 66.5291C124.759 66.6558 124.646 66.6818 124.539 66.6073C124.433 66.5327 124.429 66.4264 124.528 66.2882C125.252 65.2055 125.964 64.4509 126.663 64.0245C127.361 63.5981 128.444 63.5963 129.911 64.0191C131.215 64.399 132.282 64.4352 133.112 64.1278C133.94 63.8151 134.426 63.18 134.57 62.2226C134.811 60.5626 134.18 59.1387 132.677 57.9511C131.179 56.7621 129.48 56.1978 127.579 56.2582C126.259 56.3004 125.049 56.7159 123.948 57.5047C122.847 58.2935 122.324 59.1838 122.378 60.1756C122.436 61.3696 122.932 62.1219 123.864 62.4324C124.801 62.7416 125.659 62.6927 126.436 62.2859C126.535 62.2323 126.631 62.1683 126.724 62.0937C126.858 61.9919 126.971 61.9857 127.064 62.075C127.162 62.163 127.144 62.2664 127.01 62.3855C126.82 62.5241 126.697 62.6092 126.639 62.6408C125.909 63.0811 124.986 63.1775 123.873 62.93C122.76 62.6825 121.993 61.8411 121.573 60.4058C121.341 59.6119 121.398 58.8235 121.744 58.0405C122.089 57.2523 122.621 56.5575 123.341 55.9561C124.06 55.3495 124.909 54.8903 125.889 54.5785C126.874 54.2601 127.888 54.1175 128.933 54.1509C130.083 54.2535 131.111 54.5622 132.018 55.0769C132.931 55.5901 133.671 56.2291 134.24 56.9938C134.809 57.7585 135.177 58.6052 135.346 59.5339C135.52 60.4611 135.445 61.3841 135.12 62.3028C134.621 63.701 133.823 64.7488 132.725 65.4463C131.63 66.1491 130.01 66.2706 127.866 65.8111C127.323 65.695 126.79 65.6527 126.267 65.6843C125.749 65.7145 125.287 65.9961 124.88 66.5291ZM129.191 63.4485C129.054 63.5623 128.941 63.5797 128.852 63.5009C128.761 63.4168 128.765 63.3169 128.864 63.2012C129.392 62.6261 129.383 62.1708 128.837 61.8354C128.297 61.4984 127.81 61.2325 127.378 61.0375C125.954 60.4115 125.343 59.7085 125.545 58.9284C125.747 58.1483 126.223 57.417 126.973 56.7343C127.11 56.6206 127.224 56.6084 127.317 56.6977C127.414 56.7804 127.404 56.8817 127.288 57.0017C126.591 57.7044 126.966 58.3659 128.413 58.9862C129.72 59.5457 130.42 60.2093 130.511 60.977C130.602 61.7446 130.162 62.5684 129.191 63.4485Z" fill="#5C5858"/>
<path d="M114.398 70.2406C114.352 70.3935 114.248 70.4201 114.085 70.3202C113.255 69.7577 112.156 69.4558 110.788 69.4143C110.679 69.4139 110.619 69.384 110.608 69.3247C110.591 69.2669 110.609 69.2169 110.664 69.1749C110.99 68.9674 111.068 68.5719 110.898 67.9883L109.697 63.9726C109.68 63.9148 109.661 63.8716 109.64 63.8429C109.618 63.8089 109.612 63.7767 109.621 63.7461C109.635 63.7088 109.669 63.6804 109.723 63.6608C111.188 63.1635 112.409 62.443 113.386 61.4994C113.429 61.4602 113.472 61.4408 113.514 61.4413C113.562 61.4404 113.598 61.4707 113.623 61.5324C113.884 62.0758 114.346 62.5571 115.007 62.9762C115.375 63.2213 115.73 63.5944 116.07 64.0953C116.415 64.5947 116.622 65.0308 116.688 65.4037C116.756 65.8439 116.719 66.2657 116.577 66.6691C116.433 67.0673 116.248 67.4478 116.021 67.8106C115.753 68.2403 115.442 68.6247 115.087 68.9636C114.732 69.3025 114.502 69.7282 114.398 70.2406ZM111.416 63.4247L112.778 67.9587C112.801 68.0375 112.851 68.0841 112.927 68.0984L114.677 68.5851C114.849 68.6372 114.977 68.5764 115.059 68.4029C115.438 67.7304 115.492 67.0246 115.221 66.2857C115.073 65.8206 114.852 65.4278 114.559 65.1071C114.271 64.7849 113.95 64.5164 113.597 64.3013C113.036 63.9978 112.55 63.568 112.139 63.0116C112.12 62.9882 112.089 62.9736 112.045 62.9679C111.999 62.9569 111.962 62.9636 111.933 62.988C111.781 63.0889 111.626 63.1819 111.469 63.267C111.414 63.3038 111.396 63.3563 111.416 63.4247Z" fill="#5C5858"/>
<path d="M107.778 70.7317C107.423 71.0085 106.992 71.3271 106.486 71.6876C105.979 72.0428 105.597 72.3717 105.34 72.6743C105.244 72.778 105.168 72.8284 105.112 72.8256C105.057 72.8227 105.024 72.783 105.014 72.7066C104.992 72.6105 104.9 72.4616 104.738 72.2599C104.582 72.0568 104.413 71.8823 104.231 71.7366C103.727 71.3394 103.363 70.9521 103.138 70.5745C102.912 70.1969 102.684 69.7381 102.454 69.198C102.235 68.6775 102.213 68.1379 102.389 67.5791C102.57 67.0189 102.865 66.4861 103.275 65.9809C103.534 65.6663 103.769 65.3437 103.981 65.0129C104.193 64.6821 104.352 64.3054 104.459 63.8829C104.507 63.6955 104.632 63.658 104.834 63.7703C105.941 64.4489 107 64.7583 108.011 64.6984C108.276 64.6931 108.354 64.7636 108.246 64.9099C107.935 65.7516 107.916 66.536 108.189 67.263C108.46 67.9847 108.862 68.6846 109.393 69.3628L109.395 69.3707L109.406 69.3765C110.419 70.9771 110.614 72.2748 109.99 73.2695C109.374 74.2681 108.661 74.913 107.85 75.2042C106.447 75.7028 105.39 75.599 104.682 74.8926C104.519 74.7306 104.464 74.5526 104.516 74.3585C104.574 74.163 104.7 74.0237 104.893 73.9405C105.275 73.7755 105.698 73.9277 106.162 74.397C106.808 75.0743 107.486 75.1586 108.197 74.6499C108.806 74.2067 109.065 73.6437 108.974 72.9606C108.883 72.2776 108.561 71.549 108.008 70.7747C108.005 70.7642 108 70.757 107.993 70.7532L107.982 70.7475C107.925 70.6772 107.857 70.672 107.778 70.7317ZM106.981 66.2063C106.63 66.1657 106.201 66.0745 105.694 65.9326C105.186 65.7907 104.806 65.6588 104.552 65.5369L104.533 65.5333C104.531 65.5281 104.53 65.5228 104.528 65.5176C104.244 65.2906 104.057 65.3128 103.967 65.5843C103.612 66.5671 103.644 67.5448 104.062 68.5174C104.341 69.1636 104.676 69.7393 105.066 70.2445C105.456 70.7497 105.912 71.0287 106.436 71.0817L106.447 71.0875L106.456 71.0853C106.794 71.0839 107.17 70.8694 107.584 70.4421C107.633 70.4014 107.638 70.3465 107.599 70.2772C107.186 69.7328 106.917 69.1432 106.792 68.5085C106.671 67.8671 106.772 67.1577 107.096 66.3805C107.122 66.2835 107.084 66.2254 106.981 66.2063Z" fill="#5C5858"/>
<path d="M99.2438 72.7524C99.0164 73.0306 98.767 73.337 98.4956 73.6716C98.2227 74.001 97.9697 74.3055 97.7368 74.5851C97.6569 74.6845 97.5844 74.7369 97.5194 74.7422C97.46 74.746 97.4236 74.7044 97.4103 74.6174C97.378 74.507 97.1419 74.3412 96.7019 74.1199C95.5485 73.5493 94.8004 72.6157 94.4576 71.319C94.1686 70.2063 94.445 69.1332 95.2869 68.0997C95.546 67.7852 95.7787 67.4632 95.985 67.1339C96.197 66.8031 96.3591 66.4257 96.4712 66.0017C96.5137 65.8158 96.6361 65.7789 96.8384 65.8913C97.959 66.5775 98.9713 66.8931 99.8752 66.838C100.159 66.8165 100.217 66.9092 100.047 67.1162C99.8348 67.3624 99.7558 67.6198 99.8101 67.8884L99.8147 67.9042L100.894 71.5018C100.964 71.7437 101.106 71.8856 101.318 71.9276C101.535 71.9682 101.721 71.8475 101.875 71.5655C101.933 71.4546 102.006 71.4135 102.093 71.4422C102.184 71.4641 102.21 71.5423 102.171 71.6766C102.051 72.0122 101.935 72.341 101.823 72.6632C101.717 72.9839 101.643 73.308 101.599 73.6354L101.593 73.6455C101.55 73.7865 101.454 73.8109 101.306 73.7186C101.225 73.6713 101.14 73.6479 101.049 73.6484C100.369 73.6805 99.8469 73.3868 99.4842 72.7674C99.4637 72.7387 99.4263 72.7144 99.372 72.6943C99.3198 72.7019 99.277 72.7213 99.2438 72.7524ZM97.9787 68.0836C97.6033 68.0832 97.1211 67.9348 96.5321 67.6385C96.233 67.4436 96.0458 67.4658 95.9705 67.7053C95.6162 68.688 95.6507 69.665 96.0738 70.6362C96.6737 72.0257 97.4735 72.7738 98.4733 72.8808C98.4789 72.8794 98.4853 72.8806 98.4925 72.8844C98.7434 72.8939 98.9846 72.6941 99.216 72.2849C99.2294 72.2476 99.2322 72.2158 99.2245 72.1896C99.1958 72.1121 99.1569 71.9893 99.1077 71.8211L98.1254 68.1818C98.107 68.1187 98.0581 68.086 97.9787 68.0836Z" fill="#5C5858"/>
<path d="M91.8618 76.0728C91.8136 75.9494 91.7127 75.8735 91.5591 75.8448C91.411 75.8147 91.2827 75.7796 91.1742 75.7394C90.4064 75.4943 89.8013 75.1118 89.3587 74.5918C88.9203 74.0651 88.5873 73.4748 88.3598 72.821C87.8542 71.3398 87.9544 70.0884 88.6605 69.0669C88.9114 68.7036 89.2284 68.38 89.6114 68.096C89.9929 67.8068 90.3957 67.5489 90.8197 67.3223C90.9375 67.2697 91.0609 67.3089 91.19 67.4398L92.7228 69.0492C92.8462 69.1816 92.8519 69.2734 92.7397 69.3245C92.3398 69.4885 91.9995 69.7221 91.7189 70.0251C91.5888 70.1599 91.4454 70.1456 91.2887 69.9822L89.9118 68.5025C89.8232 68.4064 89.7172 68.4165 89.5938 68.5326C89.2819 68.8324 89.1883 69.3816 89.3128 70.1803C89.4374 70.979 89.6674 71.683 90.003 72.2924C90.6228 73.4395 91.3094 74.1007 92.0628 74.276C92.8162 74.4513 93.485 74.3375 94.0693 73.9345C94.1431 73.8762 94.2094 73.8649 94.2683 73.9008C94.3333 73.9577 94.3339 74.0112 94.2698 74.0614C93.8766 74.3932 93.5045 74.7252 93.1538 75.0574C92.8086 75.3882 92.5088 75.7187 92.2543 76.0491C92.2128 76.0935 92.1399 76.1234 92.0354 76.1387C91.9365 76.1526 91.8787 76.1306 91.8618 76.0728Z" fill="#5C5858"/>
<path d="M85.0422 75.5724L83.7196 71.2657C83.6904 71.1658 83.6497 71.0886 83.5974 71.0341C83.4023 70.8635 83.2722 70.8429 83.2071 70.9725L82.9637 71.3819C82.9012 71.4995 82.817 71.5322 82.7109 71.4802C82.6106 71.4266 82.5947 71.3205 82.6633 71.1618C82.8266 70.8095 82.9646 70.4637 83.0772 70.1243C83.1898 69.7849 83.3089 69.4468 83.4343 69.1098C83.4952 68.9869 83.6002 68.963 83.7493 69.038C84.0643 69.2459 84.3644 69.4237 84.6497 69.5714C84.9334 69.7138 85.3168 69.8449 85.7997 69.9649C85.9303 69.9768 85.9956 70.0138 85.9956 70.076C86.0013 70.1367 85.9739 70.1775 85.9135 70.1986C85.7824 70.2884 85.6797 70.4134 85.6055 70.5736C85.5297 70.7285 85.5356 70.9557 85.6232 71.2554L86.5985 74.5914C86.7553 75.1276 86.9584 75.429 87.2078 75.4954C87.4956 75.569 87.6815 75.4595 87.7655 75.167C87.7926 75.0527 87.8541 75.0145 87.9498 75.0522C88.0497 75.0833 88.0758 75.1727 88.0282 75.3204C87.9315 75.6105 87.8468 75.9004 87.7741 76.1901C87.6998 76.4745 87.6228 76.7596 87.5429 77.0454C87.479 77.2199 87.3558 77.2852 87.1735 77.2412C86.6004 77.1443 86.1366 76.9658 85.7822 76.7058C85.4334 76.4444 85.1867 76.0666 85.0422 75.5724ZM83.5307 65.8992C84.156 65.7399 84.5227 65.9488 84.6308 66.5257C84.68 66.8182 84.5723 67.1535 84.3076 67.5316C84.0469 67.903 83.8144 68.1119 83.6101 68.1583C83.4073 68.21 83.2086 68.0996 83.0139 67.8272C82.8193 67.5547 82.6963 67.2895 82.6451 67.0314C82.5913 66.7852 82.6568 66.5539 82.8417 66.3373C83.0306 66.1141 83.2603 65.968 83.5307 65.8992Z" fill="#5C5858"/>
<path d="M73.9499 69.2456C73.8474 69.1644 73.8308 69.0867 73.8999 69.0126C73.9675 68.9333 74.0574 68.9302 74.1695 69.0033C74.502 69.2293 74.7926 69.4886 75.0416 69.7811C75.0738 69.8294 75.121 69.8456 75.1829 69.8298C75.2367 69.8274 75.2756 69.7949 75.2997 69.7323C75.4666 69.1023 75.8562 68.5512 76.4687 68.0788C77.0852 67.5998 77.7625 67.2974 78.5005 67.1716C78.6485 67.1396 78.7379 67.1762 78.7686 67.2813C78.7994 67.3865 78.7428 67.4517 78.5989 67.4771C77.9966 67.5909 77.518 67.8483 77.1632 68.2494C76.8083 68.6505 76.7544 69.263 77.0013 70.087L77.5347 71.8493C77.5501 71.9018 77.5841 71.9355 77.6369 71.9503C77.6881 71.9599 77.7324 71.9458 77.7698 71.908C78.0335 71.6714 78.2926 71.419 78.5471 71.1508C78.8072 70.8812 79.0351 70.5944 79.2307 70.2904C79.3823 70.0428 79.5106 70.0468 79.6156 70.3025C79.695 70.4913 79.833 70.6426 80.0297 70.7563C80.2264 70.8701 80.411 70.984 80.5836 71.0983C81.6085 71.8089 82.2859 72.6871 82.6159 73.7329C83.1072 75.2686 82.9238 76.784 82.0657 78.2793C81.206 79.7692 80.3747 80.9525 79.5717 81.8292C79.4627 81.9531 79.3651 81.992 79.279 81.9461C79.2002 81.9041 79.1999 81.8307 79.2783 81.726C79.8804 80.8666 80.4705 79.9452 81.0486 78.9619C81.6323 77.9772 81.6409 76.6503 81.0742 74.9813C80.8468 74.3275 80.5548 73.7324 80.1983 73.1962C79.8458 72.6532 79.3705 72.2489 78.7723 71.9832C78.4676 71.8518 78.1247 71.9419 77.7437 72.2536C77.6976 72.2823 77.6838 72.3282 77.7022 72.3913L79.1286 77.1461C79.2531 77.5719 79.4877 77.7014 79.8324 77.5346C79.9051 77.4935 79.964 77.4361 80.009 77.3625C80.0541 77.2889 80.1071 77.2217 80.168 77.161C80.2331 77.0936 80.3042 77.0783 80.3816 77.1151C80.4589 77.1519 80.4751 77.2071 80.43 77.2807C80.237 77.6349 80.035 77.9688 79.824 78.2824C79.6131 78.596 79.4738 78.9167 79.4062 79.2446C79.3755 79.388 79.2741 79.4138 79.102 79.3221C78.4531 78.945 77.796 78.7056 77.1307 78.6039C76.9115 78.558 76.872 78.4748 77.0124 78.3544C77.3391 78.1469 77.4151 77.7547 77.2404 77.1778L75.6833 71.914C75.4702 71.2057 75.213 70.6469 74.9118 70.2378C74.6162 69.8273 74.2956 69.4965 73.9499 69.2456Z" fill="#5C5858"/>
<path d="M70.5196 79.2198C70.3956 79.3135 70.2912 79.3288 70.2061 79.2657C70.1211 79.2026 70.1226 79.1146 70.2107 79.0018C70.732 78.3833 70.9542 77.9115 70.8774 77.5865C70.8312 77.3666 70.6496 77.1389 70.3326 76.9032C70.0212 76.6662 69.5067 76.3764 68.7891 76.0337C67.3341 75.3423 66.5169 74.6691 66.3375 74.0143C66.1623 73.4149 66.4769 72.7106 67.2814 71.9013C67.3106 71.8769 67.4271 71.7682 67.6309 71.575C67.8332 71.3766 67.977 71.227 68.0626 71.1262C68.101 71.0712 68.1068 71.0189 68.0802 70.9691C67.695 70.2933 67.1052 70.0566 66.3109 70.2588C65.5053 70.464 65.0394 71.0854 64.913 72.1231C64.7851 73.1555 64.9417 74.2088 65.3828 75.2827C66.1482 77.1554 67.2356 78.4319 68.6451 79.1124C70.0531 79.7876 71.481 79.9409 72.9287 79.5722C73.7287 79.3685 74.5096 78.955 75.2716 78.3316C75.3843 78.2408 75.4847 78.2322 75.5728 78.3058C75.6593 78.3741 75.6573 78.4707 75.5667 78.5954C74.5108 79.932 73.1181 80.8205 71.3887 81.2609C69.6592 81.7013 68.046 81.4314 66.5488 80.4512C65.0502 79.4658 64.0811 78.3766 63.6415 77.1836C63.0098 75.4577 62.9325 73.8787 63.4097 72.4466C63.8868 71.0145 64.7619 70.1364 66.0351 69.8122C66.5533 69.6802 67.0035 69.6983 67.3856 69.8665C67.7718 70.028 68.074 70.2646 68.2922 70.5762C68.3624 70.6713 68.4397 70.6771 68.5242 70.5934C68.92 70.1254 69.2692 69.6326 69.5718 69.1149C69.7193 68.9361 69.929 68.8771 70.201 68.9377C70.477 68.9917 70.7303 69.0402 70.9608 69.0832C71.1759 69.1357 71.4386 69.1959 71.749 69.2638C72.0593 69.3316 72.349 69.2663 72.6178 69.068C72.7248 68.9786 72.8185 68.9575 72.899 69.0048C72.9835 69.0454 73.0006 69.1145 72.9505 69.212C72.74 69.5481 72.5416 69.8528 72.3552 70.1262C72.1673 70.3944 71.9842 70.6585 71.806 70.9185C71.7651 70.9855 71.7369 71.0237 71.7215 71.0333C71.7021 71.0495 71.6755 71.0619 71.6417 71.0706C71.5966 71.082 71.5377 71.0773 71.465 71.0562C71.3979 71.0338 71.3415 71.0171 71.296 71.0061C70.1923 70.8126 69.4545 70.7632 69.0827 70.8579C68.8154 70.9373 68.5737 71.1146 68.3576 71.39C67.994 71.8441 67.8571 72.2349 67.9467 72.5623C68.0497 72.9767 68.5399 73.38 69.4173 73.7723C71.2421 74.59 72.2977 75.3436 72.5841 76.0333C72.8372 76.6919 72.149 77.7541 70.5196 79.2198Z" fill="#5C5858"/>
<path d="M119.847 57.9836C119.832 57.9874 119.815 57.9918 119.795 57.9968C119.78 58.0006 119.762 58.0027 119.741 58.0031C119.177 58.1072 118.736 58.1897 118.419 58.2506C118.102 58.3115 117.909 58.3507 117.84 58.3683C117.766 58.3872 117.695 58.4078 117.627 58.43C117.558 58.4477 117.494 58.4663 117.436 58.4861C117.373 58.507 117.247 58.549 117.058 58.612C116.868 58.6703 116.612 58.7555 116.288 58.8675L116.337 58.6246C116.427 58.6066 116.529 58.5732 116.642 58.5245C116.761 58.4746 116.862 58.414 116.948 58.3426C117.038 58.27 117.087 58.1907 117.093 58.1047C117.096 58.0049 117.075 57.8318 117.029 57.5856C116.989 57.3381 116.926 57.0144 116.841 56.6146L116.561 55.3026C116.541 55.1985 116.518 55.1027 116.493 55.015C116.466 54.9227 116.442 54.8396 116.42 54.7658C116.312 54.3966 116.223 54.1936 116.154 54.1567C116.056 54.0925 115.903 54.0868 115.695 54.1397C115.66 54.1485 115.627 54.1597 115.593 54.1731C115.559 54.1819 115.522 54.1936 115.484 54.2083L115.539 53.9862C115.673 53.9719 115.826 53.9503 115.998 53.9213C116.17 53.8924 116.362 53.8485 116.573 53.7897L118.673 53.2326C118.739 53.2208 118.782 53.2496 118.802 53.3188C118.809 53.3418 118.812 53.3905 118.813 53.4648C118.817 53.5332 118.814 53.6406 118.803 53.787C118.802 53.8914 118.802 53.9906 118.803 54.0846C118.807 54.1727 118.812 54.2434 118.817 54.2967L118.595 54.3011C118.634 54.0532 118.646 53.9015 118.629 53.8461C118.607 53.7677 118.551 53.7224 118.462 53.7102C118.372 53.6935 118.267 53.6956 118.145 53.7166C118.024 53.7375 117.904 53.7632 117.785 53.7934C117.602 53.84 117.45 53.8813 117.327 53.9174C117.204 53.9489 117.105 53.9816 117.029 54.0156C117.023 54.1561 117.043 54.3791 117.09 54.6845C117.141 54.9887 117.214 55.3644 117.307 55.8116L118.846 55.4049C118.881 55.3961 118.911 55.3984 118.936 55.4118C118.961 55.4252 118.974 55.4516 118.975 55.4911C118.975 55.5108 118.976 55.5479 118.976 55.6025C118.976 55.657 118.976 55.704 118.977 55.7434C118.983 55.8013 118.99 55.8615 118.998 55.924C119.006 55.9865 119.019 56.0524 119.04 56.1216L118.874 56.2085L118.834 56.1814C118.836 56.1164 118.829 56.0539 118.811 55.9939C118.787 55.9108 118.74 55.8584 118.67 55.8366C118.599 55.8148 118.494 55.8192 118.355 55.8498C118.069 55.9078 117.829 55.9613 117.637 56.0104C117.587 56.023 117.538 56.0356 117.488 56.0482C117.444 56.0595 117.402 56.0725 117.364 56.0872C117.397 56.2374 117.436 56.406 117.48 56.5931C117.523 56.7756 117.566 56.9581 117.608 57.1406C117.655 57.3172 117.697 57.4724 117.737 57.6063C117.758 57.6801 117.777 57.7447 117.793 57.8001C117.813 57.8496 117.829 57.8876 117.842 57.914C117.87 57.9912 117.922 58.0325 117.998 58.0379C118.031 58.0396 118.088 58.0373 118.172 58.031C118.26 58.0234 118.36 58.0127 118.473 57.9989C118.581 57.9863 118.701 57.963 118.835 57.929C119.324 57.8043 119.638 57.6675 119.775 57.5186C119.806 57.4808 119.838 57.4332 119.869 57.3757C119.903 57.3124 119.937 57.2368 119.97 57.1492C120.001 57.0569 120.022 56.9746 120.033 56.9025C120.049 56.829 120.049 56.7768 120.035 56.7458L120.224 56.7646C120.194 56.8813 120.176 57.0023 120.171 57.1277C120.163 57.2486 120.163 57.3751 120.17 57.5072C120.173 57.571 120.169 57.6314 120.159 57.6884C120.154 57.7442 120.14 57.7875 120.117 57.8181C120.071 57.8944 119.981 57.9496 119.847 57.9836Z" fill="#5C5858"/>
<path d="M112.138 59.9245C111.997 59.9354 111.824 59.9598 111.617 59.9975C111.414 60.0294 111.196 60.075 110.964 60.1342C110.751 60.1883 110.536 60.2506 110.317 60.3211C110.102 60.3858 109.903 60.4565 109.718 60.5333L109.768 60.2973C109.794 60.2956 109.82 60.2939 109.847 60.2922C109.871 60.286 109.896 60.2797 109.921 60.2734C110.059 60.2381 110.192 60.1745 110.319 60.0826C110.451 59.9895 110.52 59.8877 110.525 59.7774C110.532 59.5475 110.453 59.042 110.289 58.2608C110.102 57.4059 109.949 56.773 109.829 56.3623C109.755 56.1085 109.686 55.9375 109.623 55.8495C109.565 55.7601 109.447 55.7381 109.269 55.7834C109.22 55.796 109.166 55.8122 109.108 55.8319C109.055 55.8504 108.996 55.873 108.929 55.8999L108.987 55.662C109.038 55.654 109.127 55.6412 109.255 55.6236C109.381 55.6013 109.512 55.5778 109.648 55.5531C109.783 55.5237 109.888 55.4995 109.962 55.4807C110.155 55.4315 110.352 55.3713 110.555 55.3C110.757 55.2286 110.945 55.1634 111.119 55.1042L111.003 55.3345C110.977 55.3362 110.952 55.3402 110.927 55.3465C110.901 55.3482 110.875 55.3522 110.851 55.3585C110.682 55.4013 110.571 55.4841 110.517 55.6071C110.461 55.7254 110.442 55.8766 110.458 56.0608C110.475 56.245 110.51 56.4566 110.564 56.6958C110.622 56.929 110.68 57.1843 110.74 57.4616C111.297 57.3495 111.813 57.233 112.288 57.1122C112.565 57.0416 112.836 56.9701 113.102 56.8975C113.366 56.8202 113.633 56.7424 113.902 56.6639C113.843 56.3715 113.783 56.1116 113.722 55.8842C113.661 55.6569 113.607 55.4647 113.561 55.3078C113.498 55.0909 113.433 54.9437 113.368 54.8661C113.308 54.7872 113.177 54.7736 112.974 54.8252C112.885 54.8479 112.785 54.8882 112.674 54.9461L112.74 54.7063C112.791 54.6983 112.882 54.6849 113.015 54.666C113.146 54.6425 113.282 54.6177 113.424 54.5917C113.568 54.5598 113.68 54.5338 113.759 54.5136C113.853 54.4897 113.966 54.4561 114.096 54.4129C114.227 54.3697 114.361 54.3258 114.496 54.2813C114.636 54.231 114.761 54.1867 114.872 54.1485L114.756 54.3789C114.735 54.3793 114.712 54.3826 114.687 54.3889C114.667 54.394 114.645 54.3996 114.62 54.4059C114.442 54.4513 114.326 54.518 114.272 54.6061C114.219 54.6942 114.203 54.8146 114.227 54.9673C114.249 55.1154 114.277 55.304 114.312 55.533C114.353 55.7805 114.4 56.0413 114.453 56.3152C114.507 56.5892 114.566 56.8717 114.629 57.1629C114.695 57.4041 114.75 57.6206 114.795 57.8123C114.844 57.9981 114.888 58.1557 114.926 58.2849C114.981 58.4741 115.045 58.6115 115.118 58.697C115.189 58.778 115.291 58.8166 115.423 58.8128C115.554 58.809 115.733 58.7735 115.957 58.7064L115.876 58.9726C115.77 58.9747 115.614 58.9946 115.407 59.0324C115.199 59.0656 114.971 59.1136 114.724 59.1766C114.511 59.2307 114.296 59.2931 114.078 59.3636C113.859 59.4341 113.657 59.5054 113.471 59.5776L113.521 59.3416C113.594 59.3378 113.668 59.3265 113.742 59.3076C113.876 59.2736 113.995 59.2161 114.098 59.1351C114.207 59.0529 114.263 58.9543 114.267 58.8393C114.27 58.7244 114.26 58.5807 114.237 58.4083C114.211 58.2312 114.18 58.0508 114.142 57.8671C114.108 57.6775 114.074 57.5076 114.041 57.3574C114.011 57.2013 113.988 57.0857 113.971 57.0106C113.339 57.1567 112.771 57.294 112.267 57.4224C111.708 57.5647 111.226 57.695 110.819 57.8133C110.837 57.8931 110.868 58.0242 110.91 58.2066C110.957 58.3833 111.005 58.5744 111.054 58.7799C111.107 58.9796 111.157 59.1579 111.202 59.3148C111.22 59.3748 111.236 59.4302 111.251 59.4809C111.264 59.5271 111.278 59.5657 111.293 59.5967C111.332 59.6957 111.426 59.7513 111.573 59.7634C111.725 59.7743 111.872 59.7615 112.016 59.725C112.05 59.7162 112.082 59.708 112.112 59.7005C112.145 59.687 112.176 59.6742 112.204 59.6621L112.138 59.9245Z" fill="#5C5858"/>
<path d="M105.891 61.5153L105.954 61.2686C105.995 61.2632 106.033 61.2584 106.069 61.2542C106.104 61.2453 106.139 61.2365 106.173 61.2277C106.331 61.1874 106.46 61.1274 106.559 61.0477C106.663 60.9667 106.709 60.8706 106.698 60.7595C106.686 60.6089 106.662 60.4266 106.626 60.2126C106.588 59.994 106.544 59.7623 106.494 59.5173C106.447 59.2664 106.395 59.0168 106.339 58.7684C106.282 58.5201 106.228 58.2885 106.176 58.0737C106.122 57.8543 106.075 57.6678 106.036 57.5143C106.018 57.4346 105.999 57.3624 105.981 57.2978C105.965 57.2273 105.951 57.169 105.937 57.1229C105.9 56.9936 105.855 56.9133 105.803 56.8818C105.75 56.8458 105.654 56.8454 105.516 56.8806C105.229 56.9537 104.999 57.0296 104.826 57.1085C104.656 57.1815 104.559 57.2508 104.536 57.3162C104.451 57.536 104.427 57.7976 104.462 58.1009L104.245 58.067C104.248 58.0414 104.248 57.9845 104.243 57.8964C104.237 57.8037 104.23 57.6988 104.223 57.5818C104.214 57.4601 104.205 57.3408 104.198 57.2237C104.189 57.1021 104.18 56.9978 104.17 56.911L104.192 56.8757C104.856 56.7511 105.513 56.6063 106.16 56.4413C106.986 56.231 107.722 56.0214 108.367 55.8124L108.407 55.8394C108.4 55.9057 108.392 56.0068 108.384 56.1428C108.375 56.2741 108.368 56.4146 108.364 56.5644C108.364 56.7083 108.366 56.8342 108.371 56.942C108.379 57.0439 108.392 57.0976 108.41 57.1031L108.187 57.0779C108.191 56.9978 108.19 56.9137 108.185 56.8256C108.18 56.7329 108.166 56.6496 108.144 56.5758C108.124 56.5065 108.099 56.456 108.068 56.4241C108.026 56.3704 107.904 56.3543 107.703 56.3757C107.501 56.3925 107.244 56.4406 106.933 56.5199C106.75 56.5665 106.649 56.659 106.631 56.7974C106.618 56.9346 106.637 57.128 106.689 57.3776C106.781 57.8005 106.87 58.2043 106.956 58.589C107.04 58.9691 107.117 59.3116 107.184 59.6166C107.256 59.9157 107.319 60.1576 107.373 60.3422C107.386 60.3883 107.399 60.4321 107.411 60.4737C107.422 60.5106 107.434 60.5446 107.449 60.5756C107.474 60.6436 107.528 60.6918 107.611 60.7203C107.692 60.7442 107.786 60.7551 107.891 60.753C107.995 60.7463 108.092 60.7316 108.181 60.709C108.265 60.6875 108.33 60.6636 108.375 60.6372L108.309 60.8996C108.243 60.8916 108.136 60.9013 107.99 60.9286C107.849 60.9546 107.699 60.9855 107.539 61.0212C107.38 61.0568 107.248 61.0879 107.144 61.1143C107.04 61.1408 106.884 61.188 106.676 61.256C106.466 61.3193 106.204 61.4058 105.891 61.5153Z" fill="#5C5858"/>
<rect width="156.828" height="2.40423" transform="matrix(0.968277 -0.249878 0.284067 0.958804 47.573 91.5529)" fill="#BDBDBD"/>
<rect width="51.3952" height="23.0349" transform="matrix(0.960955 -0.276705 0.313875 0.949464 152.706 72.0333)" fill="#D9D9D9"/>
<path d="M129.067 92.3513L129.043 92.253C129.029 92.2118 129.038 92.1644 129.069 92.1107C129.24 91.7974 129.276 91.485 129.174 91.1737C129.146 91.0868 129.079 91.0109 128.972 90.9461C128.873 90.889 128.762 90.868 128.638 90.883L128.628 90.7511C128.713 90.7018 128.794 90.6214 128.871 90.5099L128.925 90.4046C128.944 90.3643 128.963 90.3413 128.983 90.3358C129.225 90.3072 129.393 90.4349 129.485 90.7187C129.638 91.2251 129.542 91.7219 129.197 92.2094C129.179 92.2346 129.158 92.2606 129.134 92.2872C129.114 92.3079 129.092 92.3292 129.067 92.3513ZM127.727 92.7298L127.696 92.6337C127.683 92.5925 127.692 92.545 127.722 92.4913C127.894 92.178 127.929 91.8657 127.828 91.5544C127.797 91.4582 127.729 91.3823 127.626 91.3267C127.528 91.2742 127.419 91.2525 127.299 91.2615L127.281 91.1317C127.322 91.11 127.364 91.0808 127.405 91.0441C127.45 91.0014 127.49 90.9502 127.524 90.8905L127.578 90.7852C127.602 90.7435 127.624 90.7198 127.644 90.7143C127.88 90.6826 128.045 90.8109 128.138 91.0993C128.292 91.6057 128.196 92.1026 127.851 92.59C127.832 92.6152 127.811 92.6412 127.788 92.6678C127.768 92.6885 127.748 92.7091 127.727 92.7298Z" fill="#840032"/>
<path d="M126.518 96.9852C126.003 97.1308 125.61 97.1169 125.339 96.9434C125.074 96.7686 124.868 96.4569 124.723 96.0082C124.644 95.7656 124.589 95.5137 124.558 95.2527C124.531 94.9902 124.547 94.7508 124.606 94.5344C124.735 93.993 125.18 93.6148 125.941 93.3999C126.382 93.2751 126.74 93.2813 127.015 93.4185C127.277 93.5494 127.445 93.7792 127.52 94.108C127.509 94.141 127.492 94.1859 127.467 94.2428C127.441 94.2951 127.409 94.3616 127.371 94.4423C127.333 94.5382 127.296 94.6159 127.262 94.6756C127.231 94.7293 127.203 94.7573 127.177 94.7596C127.122 94.7703 127.062 94.7847 126.998 94.8027C126.938 94.8148 126.876 94.8298 126.812 94.8478C126.699 94.8797 126.597 94.9111 126.505 94.942C126.412 94.9684 126.316 94.9954 126.218 95.0232C126.115 95.0523 125.993 95.0892 125.853 95.134C125.712 95.1788 125.582 95.2231 125.462 95.2669C125.341 95.3062 125.256 95.335 125.209 95.3535C125.254 95.5407 125.3 95.7076 125.347 95.8541C125.462 96.2066 125.614 96.4534 125.804 96.5945C126 96.7343 126.284 96.7514 126.657 96.646C127.304 96.463 127.619 96.0717 127.601 95.472C127.598 95.4477 127.594 95.4264 127.588 95.4081C127.582 95.3898 127.58 95.3753 127.582 95.3648L127.772 95.2063C127.78 95.2489 127.791 95.3134 127.803 95.4C127.819 95.4852 127.843 95.5985 127.873 95.74C127.888 95.7858 127.904 95.8361 127.922 95.8911C127.94 95.946 127.957 96.0085 127.975 96.0786C127.979 96.1422 127.957 96.206 127.908 96.2698C127.828 96.4024 127.668 96.5276 127.428 96.6455C127.194 96.7666 126.89 96.8798 126.518 96.9852ZM125.638 94.8947C125.692 94.8794 125.751 94.8628 125.815 94.8448C125.884 94.8254 125.954 94.803 126.026 94.7776C126.231 94.7148 126.405 94.658 126.549 94.6072C126.698 94.5551 126.818 94.5113 126.908 94.4758C126.982 94.4399 127.007 94.3603 126.983 94.2371C126.903 93.9899 126.77 93.82 126.585 93.7275C126.398 93.6303 126.172 93.6192 125.907 93.6941C125.392 93.8397 125.128 94.1544 125.113 94.6383C125.115 94.7079 125.116 94.77 125.118 94.8245C125.124 94.8776 125.133 94.9376 125.144 95.0045C125.196 94.9998 125.262 94.9886 125.342 94.971C125.427 94.952 125.526 94.9266 125.638 94.8947Z" fill="#840032"/>
<path d="M122.669 98.043L122.728 97.8016C122.74 97.808 122.786 97.8001 122.865 97.7779C123.237 97.6725 123.424 97.5124 123.424 97.2975C123.426 97.2219 123.403 97.0609 123.355 96.8145C123.307 96.5682 123.231 96.225 123.125 95.7849L122.881 94.7595C122.839 94.5813 122.799 94.4229 122.759 94.2842C122.718 94.1409 122.679 94.012 122.641 93.8976C122.535 93.5679 122.444 93.381 122.371 93.3367C122.282 93.2921 122.166 93.2898 122.024 93.33C121.935 93.355 121.837 93.3978 121.728 93.4586L121.774 93.2283C121.819 93.2204 121.889 93.2055 121.984 93.1838C122.084 93.1606 122.208 93.1305 122.356 93.0935C122.381 93.0866 122.409 93.0812 122.44 93.0775C122.469 93.0692 122.498 93.0608 122.528 93.0525C122.562 93.0428 122.598 93.0301 122.636 93.0145C122.679 92.9974 122.723 92.9774 122.769 92.9543C122.81 92.9327 122.847 92.9147 122.88 92.9005C122.913 92.8862 122.937 92.877 122.952 92.8728C123.02 92.8534 123.065 92.8757 123.086 92.9398L123.097 92.9742C123.106 93.1666 123.143 93.446 123.208 93.8123C123.279 94.1773 123.38 94.6309 123.513 95.173L123.628 95.6504C123.695 95.9214 123.755 96.1568 123.809 96.3564C123.868 96.5547 123.919 96.7202 123.962 96.8529C123.981 96.9124 123.998 96.9651 124.013 97.0109C124.027 97.0521 124.041 97.088 124.056 97.1187C124.107 97.2244 124.228 97.2752 124.419 97.271C124.526 97.2708 124.634 97.2554 124.741 97.2249C124.771 97.2165 124.803 97.2075 124.837 97.1978C124.87 97.1835 124.903 97.1693 124.936 97.155L124.891 97.4149C124.835 97.4058 124.724 97.4173 124.557 97.4494C124.396 97.48 124.162 97.536 123.857 97.6174C123.778 97.6396 123.382 97.7814 122.669 98.043Z" fill="#840032"/>
<path d="M121.856 98.2879C121.63 98.3517 121.448 98.3757 121.309 98.36C121.168 98.3398 121.057 98.2764 120.974 98.1698C120.89 98.0587 120.816 97.9047 120.752 97.7078C120.719 97.6071 120.666 97.3924 120.591 97.0636C120.603 97.1002 120.599 97.0812 120.581 97.0066C120.565 96.926 120.539 96.8133 120.503 96.6686C120.472 96.5226 120.435 96.368 120.393 96.205C120.349 96.0374 120.31 95.8836 120.275 95.7435C120.239 95.5988 120.21 95.4944 120.189 95.4303L119.689 95.5717L119.814 95.3116L120.137 95.2201L119.968 94.5257C119.961 94.5029 119.977 94.4609 120.016 94.3999C120.06 94.3374 120.112 94.2677 120.173 94.1905C120.233 94.1134 120.292 94.0468 120.349 93.9908C120.411 93.9334 120.459 93.8998 120.493 93.8901L120.587 93.9311C120.583 94.1172 120.589 94.3103 120.606 94.5104C120.628 94.7092 120.653 94.8945 120.682 95.0662L121.793 94.7522C121.822 94.7439 121.841 94.7534 121.85 94.7809C121.862 94.8175 121.832 94.881 121.76 94.9715C121.689 95.0665 121.624 95.1148 121.566 95.1163C121.457 95.1271 121.332 95.1473 121.192 95.177C121.05 95.2021 120.892 95.2366 120.719 95.2806C120.86 96.1104 121.019 96.7977 121.196 97.3425C121.265 97.5577 121.348 97.7293 121.443 97.8573C121.543 97.984 121.694 98.0189 121.895 97.9621C122.076 97.9108 122.2 97.8383 122.266 97.7447C122.335 97.6451 122.367 97.5211 122.362 97.3726C122.357 97.2242 122.341 97.0513 122.314 96.8539L122.488 96.7222L122.536 96.7461C122.539 96.7704 122.546 96.8258 122.558 96.9124C122.569 96.9944 122.582 97.0855 122.599 97.1858C122.615 97.2861 122.631 97.3765 122.647 97.4571C122.662 97.5377 122.672 97.5849 122.676 97.5986C122.701 97.6916 122.67 97.7854 122.583 97.88C122.499 97.9686 122.389 98.0497 122.252 98.1234C122.116 98.197 121.983 98.2519 121.856 98.2879Z" fill="#840032"/>
<path d="M118.842 99.1775C118.547 99.2607 118.24 99.2951 117.919 99.2808C117.838 99.2787 117.805 99.2506 117.82 99.1965C117.817 99.0073 117.803 98.8314 117.777 98.6688C117.754 98.5002 117.722 98.342 117.679 98.1941L117.858 98.0762C117.919 98.3138 117.964 98.4784 117.994 98.57C118.031 98.6844 118.105 98.7711 118.215 98.8299C118.325 98.8887 118.446 98.9244 118.579 98.9369C118.715 98.9434 118.842 98.9301 118.959 98.8968C119.16 98.8399 119.313 98.7319 119.416 98.5727C119.523 98.4075 119.545 98.2264 119.481 98.0296C119.429 97.8693 119.331 97.7571 119.187 97.6929C119.047 97.6226 118.886 97.5731 118.705 97.5442C118.462 97.5031 118.254 97.4668 118.083 97.4351C117.911 97.3989 117.771 97.3385 117.663 97.254C117.555 97.1695 117.471 97.0334 117.41 96.8457C117.357 96.6809 117.374 96.5111 117.462 96.3364C117.548 96.157 117.683 95.9963 117.868 95.8543C118.052 95.7123 118.262 95.608 118.497 95.5414L118.504 95.5393C118.794 95.4575 119.019 95.4263 119.181 95.4456C119.226 95.4528 119.263 95.4674 119.291 95.4893C119.323 95.5052 119.346 95.5338 119.359 95.575L119.366 95.5956C119.367 95.6804 119.381 95.7814 119.408 95.8986C119.435 96.0158 119.475 96.1546 119.527 96.3148L119.372 96.456L119.322 96.4252C119.324 96.4147 119.319 96.3836 119.308 96.3318C119.301 96.2787 119.279 96.1949 119.242 96.0804C119.19 95.9202 119.095 95.8171 118.957 95.7712C118.819 95.7253 118.676 95.7231 118.529 95.7647C118.402 95.8007 118.282 95.862 118.171 95.9484C118.06 96.0348 117.978 96.1356 117.924 96.2507C117.874 96.3599 117.868 96.4739 117.906 96.593C117.942 96.7028 118.014 96.7849 118.123 96.8392C118.232 96.8934 118.369 96.9371 118.535 96.9701C118.699 96.9986 118.888 97.0352 119.101 97.08C119.335 97.1239 119.532 97.188 119.693 97.2724C119.853 97.3522 119.963 97.4836 120.022 97.6668C120.096 97.8957 120.089 98.1126 120 98.3176C119.91 98.5181 119.763 98.6921 119.559 98.8397C119.355 98.9872 119.116 99.0998 118.842 99.1775Z" fill="#840032"/>
<path d="M115.265 100.203C115.02 100.273 114.802 100.287 114.612 100.246C114.422 100.204 114.294 100.081 114.227 99.8747C114.196 99.7786 114.157 99.6444 114.112 99.4722C114.067 99.3001 114.019 99.1112 113.968 98.9056C113.916 98.6954 113.863 98.4906 113.809 98.2909C113.754 98.0867 113.7 97.9045 113.648 97.7443C113.627 97.6802 113.605 97.6214 113.583 97.5678C113.565 97.5129 113.547 97.4655 113.528 97.4257C113.455 97.2664 113.279 97.2263 112.999 97.3053C112.955 97.3178 112.909 97.3333 112.862 97.3517C112.819 97.3688 112.784 97.3838 112.756 97.3967L112.814 97.1553C112.987 97.1265 113.156 97.0937 113.32 97.0571C113.485 97.0205 113.646 96.9801 113.803 96.9357C113.96 96.8913 114.111 96.8438 114.255 96.793C114.404 96.7409 114.55 96.6871 114.693 96.6318L114.63 96.8594C114.62 96.8622 114.608 96.8657 114.593 96.8698C114.582 96.868 114.571 96.8685 114.561 96.8713C114.419 96.9115 114.325 96.9832 114.278 97.0864C114.229 97.185 114.211 97.3026 114.224 97.4391C114.236 97.5756 114.26 97.7162 114.296 97.8609C114.373 98.1791 114.432 98.4273 114.473 98.6054C114.52 98.7822 114.554 98.9101 114.574 98.9893C114.594 99.0686 114.61 99.1265 114.622 99.1631C114.792 99.685 115.058 99.8946 115.421 99.792C115.548 99.756 115.676 99.695 115.803 99.609C115.929 99.5184 116.042 99.4192 116.14 99.3113C116.243 99.1974 116.311 99.0955 116.346 99.0056C116.227 98.5047 116.127 98.1079 116.049 97.8153C115.973 97.5168 115.909 97.2851 115.855 97.1203C115.836 97.0608 115.816 97.0089 115.797 96.9645C115.782 96.9187 115.766 96.8782 115.749 96.8429C115.662 96.6576 115.443 96.6171 115.091 96.7215L115.168 96.5124C115.187 96.522 115.245 96.5182 115.341 96.501C115.44 96.4778 115.552 96.4512 115.676 96.4211C115.799 96.3865 115.905 96.3567 115.993 96.3317C116.165 96.2832 116.339 96.2264 116.516 96.1614C116.693 96.0963 116.818 96.0511 116.89 96.0257L116.852 96.2313C116.803 96.2301 116.759 96.235 116.72 96.2461C116.494 96.3099 116.384 96.4485 116.389 96.662C116.389 96.7619 116.403 96.8931 116.429 97.0557C116.453 97.2137 116.488 97.3863 116.532 97.5736C116.577 97.7609 116.625 97.9498 116.676 98.1402C116.731 98.3247 116.782 98.4925 116.831 98.6436C116.851 98.7031 116.869 98.7603 116.887 98.8153C116.904 98.8656 116.922 98.913 116.941 98.9574C117.003 99.1149 117.081 99.2152 117.176 99.2585C117.268 99.2973 117.389 99.2958 117.536 99.2542C117.595 99.2376 117.657 99.215 117.723 99.1864C117.793 99.1565 117.866 99.1258 117.942 99.0945L117.845 99.3916C117.772 99.4124 117.658 99.442 117.505 99.4804C117.356 99.5174 117.193 99.5609 117.017 99.6108C116.909 99.6413 116.815 99.6729 116.734 99.7056C116.654 99.7384 116.609 99.7561 116.599 99.7589C116.565 99.7686 116.532 99.7678 116.502 99.7564C116.478 99.7482 116.464 99.7297 116.46 99.7008C116.451 99.6234 116.44 99.549 116.427 99.4775C116.42 99.4047 116.414 99.3539 116.41 99.325C116.233 99.5051 116.091 99.6527 115.983 99.768C115.88 99.8773 115.777 99.9639 115.674 100.028C115.573 100.096 115.437 100.155 115.265 100.203Z" fill="#840032"/>
<path d="M111.825 101.108L111.881 100.86C111.976 100.838 112.066 100.793 112.15 100.724C112.233 100.651 112.28 100.57 112.289 100.482C112.306 100.388 112.302 100.276 112.277 100.149C112.251 100.021 112.203 99.8145 112.132 99.5296C112.06 99.2251 112.003 98.9914 111.961 98.8284C111.917 98.6608 111.883 98.5404 111.86 98.4671C111.784 98.2337 111.678 98.0736 111.543 97.9868C111.413 97.8987 111.262 97.879 111.09 97.9275C110.972 97.9608 110.867 98.008 110.775 98.0691C110.687 98.1289 110.601 98.1956 110.518 98.2691C110.348 98.4221 110.23 98.5703 110.164 98.7139L110.334 99.4083C110.363 99.515 110.396 99.643 110.434 99.7922C110.472 99.9415 110.512 100.09 110.555 100.238C110.597 100.386 110.638 100.519 110.677 100.638C110.714 100.753 110.742 100.832 110.762 100.877C110.842 101.059 111.061 101.097 111.418 100.991L111.374 101.228C111.303 101.223 111.202 101.234 111.071 101.261C110.94 101.284 110.77 101.322 110.562 101.375C110.523 101.386 110.403 101.428 110.201 101.5C110.004 101.571 109.728 101.669 109.373 101.794L109.418 101.564C109.435 101.564 109.453 101.564 109.474 101.563C109.499 101.556 109.523 101.549 109.548 101.542C109.71 101.496 109.84 101.435 109.938 101.357C110.067 101.26 110.134 101.154 110.139 101.038C110.144 100.986 110.134 100.897 110.108 100.769C110.083 100.641 110.042 100.455 109.984 100.212C109.931 99.9669 109.856 99.6457 109.76 99.2482C109.675 98.8874 109.605 98.6072 109.551 98.4075C109.5 98.2019 109.46 98.0435 109.429 97.9323C109.398 97.821 109.371 97.7287 109.347 97.6555C109.24 97.3259 109.15 97.1389 109.077 97.0947C108.987 97.05 108.871 97.0478 108.729 97.088C108.641 97.1129 108.542 97.1558 108.433 97.2165L108.479 96.9862C108.5 96.9852 108.546 96.9773 108.616 96.9625C108.685 96.9431 108.762 96.9239 108.846 96.9049C108.936 96.8845 109.016 96.8669 109.086 96.8521C109.16 96.8313 109.209 96.8174 109.233 96.8105C109.302 96.791 109.378 96.7597 109.46 96.7164C109.542 96.6732 109.608 96.6446 109.657 96.6307C109.736 96.6086 109.78 96.6309 109.791 96.6978C109.804 96.7541 109.81 96.7898 109.81 96.8049C109.81 96.82 109.811 96.8571 109.814 96.9162C109.832 97.0862 109.864 97.2943 109.912 97.5407C109.959 97.7825 110.019 98.0678 110.094 98.3966C110.172 98.3245 110.241 98.2574 110.301 98.1954C110.367 98.132 110.424 98.0707 110.475 98.0115C110.675 97.77 110.934 97.6042 111.253 97.514C111.479 97.4503 111.692 97.4376 111.891 97.4761C112.091 97.5145 112.223 97.6322 112.287 97.829C112.309 97.8977 112.34 98.0089 112.379 98.1628C112.417 98.3121 112.458 98.478 112.501 98.6607C112.547 98.8375 112.593 99.0096 112.636 99.1772C112.707 99.4121 112.773 99.6309 112.833 99.8338C112.892 100.032 112.937 100.169 112.967 100.246C113.049 100.433 113.311 100.463 113.752 100.339C113.787 100.329 113.814 100.321 113.833 100.316C113.858 100.309 113.879 100.3 113.897 100.29L113.94 100.323L113.903 100.506C113.741 100.537 113.578 100.57 113.414 100.607C113.249 100.643 113.083 100.685 112.916 100.732C112.553 100.835 112.189 100.96 111.825 101.108Z" fill="#840032"/>
<path d="M105.927 102.805C105.412 102.951 105.019 102.937 104.749 102.764C104.483 102.589 104.278 102.277 104.132 101.829C104.053 101.586 103.999 101.334 103.967 101.073C103.941 100.81 103.957 100.571 104.015 100.355C104.145 99.8132 104.59 99.4351 105.35 99.2202C105.792 99.0954 106.15 99.1016 106.425 99.2388C106.687 99.3697 106.855 99.5995 106.929 99.9283C106.919 99.9613 106.901 100.006 106.877 100.063C106.851 100.115 106.819 100.182 106.781 100.263C106.742 100.358 106.706 100.436 106.672 100.496C106.641 100.55 106.613 100.578 106.587 100.58C106.531 100.591 106.472 100.605 106.408 100.623C106.348 100.635 106.285 100.65 106.222 100.668C106.109 100.7 106.007 100.731 105.915 100.762C105.822 100.789 105.726 100.816 105.628 100.843C105.525 100.873 105.403 100.91 105.262 100.954C105.122 100.999 104.991 101.043 104.872 101.087C104.751 101.126 104.666 101.155 104.619 101.174C104.663 101.361 104.709 101.528 104.757 101.674C104.871 102.027 105.024 102.274 105.214 102.415C105.409 102.555 105.693 102.572 106.066 102.466C106.714 102.283 107.029 101.892 107.011 101.292C107.008 101.268 107.004 101.247 106.998 101.228C106.992 101.21 106.99 101.196 106.992 101.185L107.181 101.027C107.19 101.069 107.2 101.134 107.212 101.22C107.229 101.305 107.253 101.419 107.282 101.56C107.297 101.606 107.314 101.656 107.331 101.711C107.349 101.766 107.367 101.829 107.384 101.899C107.389 101.963 107.367 102.026 107.318 102.09C107.238 102.223 107.077 102.348 106.837 102.466C106.603 102.587 106.3 102.7 105.927 102.805ZM105.048 100.715C105.102 100.7 105.161 100.683 105.225 100.665C105.293 100.646 105.364 100.623 105.436 100.598C105.64 100.535 105.815 100.478 105.959 100.428C106.108 100.375 106.228 100.332 106.318 100.296C106.392 100.26 106.417 100.181 106.393 100.057C106.313 99.8102 106.18 99.6403 105.995 99.5478C105.808 99.4506 105.582 99.4395 105.317 99.5144C104.802 99.66 104.537 99.9747 104.523 100.459C104.524 100.528 104.526 100.59 104.527 100.645C104.534 100.698 104.543 100.758 104.554 100.825C104.606 100.82 104.672 100.809 104.752 100.791C104.836 100.772 104.935 100.747 105.048 100.715Z" fill="#840032"/>
<path d="M103.09 103.608C103.011 103.63 102.952 103.597 102.913 103.508C102.907 103.489 102.897 103.467 102.883 103.441C102.874 103.414 102.862 103.377 102.847 103.331C102.838 103.304 102.826 103.267 102.812 103.221C102.802 103.174 102.788 103.125 102.772 103.075C102.687 103.274 102.552 103.452 102.367 103.609C102.181 103.762 101.943 103.879 101.654 103.961C101.394 104.034 101.163 104.04 100.96 103.977C100.756 103.91 100.584 103.791 100.443 103.621C100.306 103.445 100.197 103.236 100.119 102.993C100.062 102.819 100.018 102.634 99.9868 102.438C99.9554 102.242 99.9416 102.051 99.9455 101.865C99.9494 101.679 99.9761 101.514 100.026 101.37C100.167 100.93 100.542 100.624 101.15 100.452C101.326 100.403 101.508 100.384 101.694 100.396C101.883 100.403 102.053 100.447 102.203 100.53C102.117 100.214 102.041 99.9557 101.976 99.7542C101.863 99.4063 101.777 99.2157 101.718 99.1824C101.617 99.1359 101.495 99.1328 101.353 99.173C101.27 99.1965 101.176 99.238 101.072 99.2974L101.118 99.067C101.173 99.0563 101.264 99.0383 101.39 99.0127C101.514 98.9827 101.675 98.9422 101.872 98.8913C101.926 98.876 102.002 98.847 102.101 98.8041C102.203 98.7553 102.269 98.7267 102.298 98.7184C102.323 98.7115 102.347 98.7121 102.371 98.7203C102.399 98.7225 102.416 98.7351 102.423 98.758C102.425 98.7626 102.428 98.7891 102.433 98.8377C102.438 98.8862 102.442 98.9378 102.443 98.9923C102.448 99.0408 102.452 99.0773 102.455 99.1015C102.489 99.3218 102.544 99.6161 102.621 99.9842C102.702 100.351 102.82 100.855 102.975 101.496C103.026 101.721 103.078 101.922 103.129 102.097C103.18 102.268 103.226 102.42 103.269 102.552C103.329 102.735 103.381 102.871 103.425 102.958C103.509 103.119 103.743 103.146 104.125 103.037C104.165 103.026 104.201 103.016 104.236 103.006C104.27 102.997 104.296 102.987 104.315 102.976L104.357 103.009L104.288 103.216C104.216 103.227 104.138 103.241 104.053 103.26C103.97 103.284 103.867 103.313 103.744 103.348C103.646 103.375 103.558 103.403 103.482 103.429C103.406 103.461 103.34 103.489 103.284 103.515C103.247 103.531 103.21 103.549 103.173 103.569C103.142 103.588 103.114 103.601 103.09 103.608ZM101.825 103.598C102.124 103.513 102.345 103.333 102.486 103.059C102.627 102.784 102.642 102.42 102.533 101.966C102.52 101.909 102.505 101.856 102.489 101.806C102.477 101.754 102.464 101.705 102.449 101.659C102.313 101.238 102.144 100.959 101.944 100.82C101.749 100.68 101.521 100.647 101.261 100.721C100.888 100.826 100.644 101.07 100.527 101.453C100.481 101.626 100.474 101.826 100.504 102.052C100.535 102.278 100.58 102.483 100.639 102.666C100.737 102.968 100.851 103.193 100.979 103.342C101.108 103.491 101.244 103.582 101.389 103.616C101.533 103.645 101.678 103.639 101.825 103.598Z" fill="#840032"/>
<path d="M98.2689 100.69C98.2002 100.709 98.1003 100.69 97.969 100.632C97.854 100.574 97.7883 100.52 97.772 100.47C97.762 100.423 97.8211 100.316 97.9493 100.15C98.0437 100.028 98.1105 99.9621 98.1497 99.951C98.1742 99.9441 98.2138 99.9504 98.2683 99.97C98.3278 99.9881 98.397 100.004 98.4761 100.016C98.5601 100.027 98.6487 100.02 98.7419 99.9935L98.8047 100.088C98.7456 100.17 98.6798 100.256 98.6074 100.346C98.5399 100.435 98.4768 100.513 98.4181 100.58C98.3579 100.642 98.3081 100.678 98.2689 100.69ZM98.186 104.964L98.2317 104.733C98.7075 104.599 98.9471 104.421 98.9504 104.2C98.9492 104.131 98.9361 104.024 98.9112 103.882C98.8862 103.739 98.8536 103.58 98.8134 103.407C98.7716 103.229 98.7274 103.051 98.6808 102.875C98.6391 102.697 98.5976 102.536 98.5565 102.392C98.5187 102.243 98.488 102.132 98.4642 102.059C98.4122 101.898 98.3647 101.777 98.3218 101.694C98.2823 101.605 98.2271 101.551 98.1564 101.531C98.0905 101.51 97.9939 101.517 97.8663 101.553C97.7731 101.579 97.6721 101.623 97.5633 101.684L97.609 101.453C97.6954 101.439 97.8055 101.415 97.9395 101.382C98.0783 101.348 98.2287 101.308 98.3905 101.262C98.4592 101.243 98.5379 101.213 98.6267 101.173C98.7154 101.133 98.7696 101.11 98.7892 101.105C98.8579 101.085 98.9011 101.103 98.9189 101.158C98.9264 101.181 98.9304 101.21 98.931 101.245C98.9316 101.279 98.9336 101.319 98.9372 101.363C98.9413 101.442 98.9549 101.558 98.9779 101.711C99.0059 101.863 99.0397 102.033 99.0795 102.222C99.1193 102.411 99.1623 102.601 99.2085 102.793C99.2532 102.98 99.2967 103.155 99.3389 103.318C99.3796 103.477 99.4155 103.604 99.4467 103.7C99.5091 103.892 99.579 104.025 99.6562 104.098C99.7335 104.171 99.8347 104.203 99.9599 104.192C100.088 104.176 100.257 104.141 100.464 104.087L100.415 104.334C100.289 104.339 100.155 104.355 100.013 104.38C99.8709 104.405 99.7093 104.443 99.5278 104.494C99.3414 104.547 99.1449 104.61 98.9385 104.684C98.732 104.757 98.4812 104.85 98.186 104.964Z" fill="#840032"/>
<path d="M96.6992 105.436C96.4049 105.52 96.0974 105.554 95.7768 105.54C95.6958 105.538 95.6626 105.51 95.6772 105.455C95.6747 105.266 95.6604 105.09 95.6345 104.928C95.6119 104.759 95.5793 104.601 95.5367 104.453L95.7153 104.335C95.7763 104.573 95.8217 104.737 95.8514 104.829C95.8885 104.943 95.9622 105.03 96.0723 105.089C96.1824 105.148 96.3038 105.183 96.4364 105.196C96.5724 105.202 96.6992 105.189 96.817 105.156C97.0181 105.099 97.1705 104.991 97.2741 104.832C97.3811 104.666 97.4027 104.485 97.3388 104.289C97.2868 104.128 97.1888 104.016 97.0448 103.952C96.9042 103.882 96.7435 103.832 96.5628 103.803C96.3192 103.762 96.1119 103.726 95.941 103.694C95.7686 103.658 95.6285 103.598 95.5207 103.513C95.413 103.429 95.3287 103.292 95.2678 103.105C95.2143 102.94 95.2315 102.77 95.3193 102.595C95.4057 102.416 95.541 102.255 95.7252 102.113C95.9094 101.971 96.1192 101.867 96.3546 101.8L96.362 101.798C96.6514 101.717 96.8769 101.685 97.0385 101.705C97.0836 101.712 97.1205 101.726 97.149 101.748C97.181 101.764 97.2036 101.793 97.217 101.834L97.2237 101.855C97.2244 101.939 97.2385 102.04 97.2658 102.158C97.2931 102.275 97.3328 102.414 97.3848 102.574L97.2298 102.715L97.1797 102.684C97.1816 102.674 97.1768 102.643 97.1654 102.591C97.1589 102.538 97.137 102.454 97.0999 102.339C97.0479 102.179 96.9529 102.076 96.8148 102.03C96.6767 101.984 96.5341 101.982 96.3869 102.024C96.2594 102.06 96.14 102.121 96.0288 102.207C95.9176 102.294 95.8352 102.395 95.7815 102.51C95.7313 102.619 95.7255 102.733 95.7641 102.852C95.7997 102.962 95.8719 103.044 95.9805 103.098C96.0892 103.152 96.2265 103.196 96.3925 103.229C96.5571 103.258 96.7457 103.294 96.9584 103.339C97.1922 103.383 97.3897 103.447 97.551 103.531C97.7107 103.611 97.8203 103.743 97.8798 103.926C97.954 104.155 97.9468 104.372 97.858 104.577C97.7678 104.777 97.6208 104.951 97.417 105.099C97.2131 105.246 96.9739 105.359 96.6992 105.436Z" fill="#840032"/>
<path d="M93.9464 102.279C93.7088 102.306 93.547 102.187 93.4608 101.921C93.2915 101.399 93.3843 100.893 93.7393 100.403C93.7799 100.347 93.821 100.3 93.8626 100.263L93.8865 100.361C93.8998 100.403 93.8911 100.45 93.8603 100.504C93.6938 100.816 93.6611 101.127 93.7621 101.439C93.7933 101.535 93.8583 101.611 93.9572 101.668C94.0643 101.718 94.1756 101.739 94.2909 101.732L94.3016 101.863C94.2158 101.913 94.1348 101.993 94.0585 102.105L94.0043 102.21C93.9853 102.25 93.966 102.273 93.9464 102.279ZM92.6072 102.657C92.3663 102.69 92.199 102.563 92.1054 102.274C91.9518 101.768 92.0476 101.271 92.3928 100.784C92.4114 100.758 92.4307 100.735 92.4508 100.715C92.4743 100.688 92.4961 100.665 92.5161 100.644L92.5473 100.74C92.5607 100.781 92.552 100.829 92.5212 100.882C92.3483 101.191 92.3131 101.503 92.4156 101.819C92.4483 101.92 92.5158 101.996 92.618 102.047C92.7154 102.099 92.8242 102.121 92.9444 102.112L92.9625 102.242C92.9213 102.264 92.8806 102.295 92.8405 102.336C92.7989 102.373 92.7585 102.422 92.7194 102.483L92.6652 102.588C92.6462 102.629 92.6269 102.652 92.6072 102.657Z" fill="#840032"/>
<defs>
<filter id="filter0_f_8637_2606" x="50.8574" y="72.6391" width="98.9585" height="29.9787" filterUnits="userSpaceOnUse" color-interpolation-filters="sRGB">
<feFlood flood-opacity="0" result="BackgroundImageFix"/>
<feBlend mode="normal" in="SourceGraphic" in2="BackgroundImageFix" result="shape"/>
<feGaussianBlur stdDeviation="0.5" result="effect1_foregroundBlur_8637_2606"/>
</filter>
<filter id="filter1_f_8637_2606" x="53.418" y="79.4453" width="98.6287" height="30.347" filterUnits="userSpaceOnUse" color-interpolation-filters="sRGB">
<feFlood flood-opacity="0" result="BackgroundImageFix"/>
<feBlend mode="normal" in="SourceGraphic" in2="BackgroundImageFix" result="shape"/>
<feGaussianBlur stdDeviation="0.5" result="effect1_foregroundBlur_8637_2606"/>
</filter>
<filter id="filter2_f_8637_2606" x="129.349" y="86.5769" width="24.2014" height="8.56976" filterUnits="userSpaceOnUse" color-interpolation-filters="sRGB">
<feFlood flood-opacity="0" result="BackgroundImageFix"/>
<feBlend mode="normal" in="SourceGraphic" in2="BackgroundImageFix" result="shape"/>
<feGaussianBlur stdDeviation="0.5" result="effect1_foregroundBlur_8637_2606"/>
</filter>
<filter id="filter3_f_8637_2606" x="55.6604" y="104.096" width="37.2163" height="12.8716" filterUnits="userSpaceOnUse" color-interpolation-filters="sRGB">
<feFlood flood-opacity="0" result="BackgroundImageFix"/>
<feBlend mode="normal" in="SourceGraphic" in2="BackgroundImageFix" result="shape"/>
<feGaussianBlur stdDeviation="0.5" result="effect1_foregroundBlur_8637_2606"/>
</filter>
<filter id="filter4_f_8637_2606" x="58.1511" y="93.3883" width="97.905" height="30.3864" filterUnits="userSpaceOnUse" color-interpolation-filters="sRGB">
<feFlood flood-opacity="0" result="BackgroundImageFix"/>
<feBlend mode="normal" in="SourceGraphic" in2="BackgroundImageFix" result="shape"/>
<feGaussianBlur stdDeviation="0.5" result="effect1_foregroundBlur_8637_2606"/>
</filter>
</defs>
</svg>
