<svg width="229" height="165" viewBox="0 0 229 165" fill="none" xmlns="http://www.w3.org/2000/svg">
<rect width="229" height="164.25" transform="translate(0 0.25)" fill="white"/>
<ellipse cx="114.5" cy="141.75" rx="87.5" ry="13.5" fill="#212121"/>
<path d="M111.96 12.5558H118.088V138.885H111.96V12.5558Z" fill="#CCA000" stroke="#CCA000"/>
<path d="M65.2153 24.9097L64.8181 25.0354L88.3834 101.044L88.7806 100.919L65.2153 24.9097Z" fill="#CCA000" stroke="#CCA000"/>
<path d="M64.3994 25.4878L64.7965 25.6135L41.2312 101.623L40.8341 101.497L64.3994 25.4878Z" fill="#CCA000" stroke="#CCA000"/>
<path d="M100.07 100.11C100.07 105.77 83.9315 120.606 64.9219 120.606C45.9124 120.606 30.6842 105.397 30.6842 99.7376C30.6842 99.365 45.9124 99.7377 64.9219 99.7377C100.07 99.7377 100.07 99.7598 100.07 100.11Z" fill="#CCA000"/>
<path d="M67.1987 26.0155C67.1987 27.3309 66.1197 28.4061 64.7776 28.4061C63.4355 28.4061 62.3565 27.3309 62.3565 26.0155C62.3565 24.7002 63.4355 23.6249 64.7776 23.6249C66.1197 23.6249 67.1987 24.7002 67.1987 26.0155Z" fill="#CCA000" stroke="#CCA000"/>
<ellipse cx="64.7632" cy="57.1774" rx="3.89529" ry="4.00371" fill="#212121"/>
<ellipse cx="57.5291" cy="79.9572" rx="1.66941" ry="1.65671" fill="#212121"/>
<ellipse cx="71.9973" cy="79.9572" rx="1.66941" ry="1.65671" fill="#212121"/>
<ellipse cx="67.5455" cy="99.8376" rx="2.22588" ry="2.20894" fill="#212121"/>
<ellipse cx="62.259" cy="99.8376" rx="2.22588" ry="2.20894" fill="#212121"/>
<rect x="60.0331" y="81.6139" width="4.45175" height="18.2238" fill="#212121"/>
<rect x="65.3196" y="81.6139" width="4.45175" height="18.2238" fill="#212121"/>
<rect x="60.0331" y="68.3602" width="9.73821" height="13.2537" fill="#212121"/>
<rect x="55.8597" y="66.4274" width="3.33882" height="13.5298" fill="#212121"/>
<rect x="70.3278" y="65.8751" width="3.33882" height="14.082" fill="#212121"/>
<rect x="55.8597" y="62.2856" width="17.807" height="8.00742" rx="4.00371" fill="#212121"/>
<path d="M77.7207 107.915L76.0044 111.961C75.9819 112.015 75.9522 112.055 75.9154 112.082C75.8806 112.111 75.8264 112.125 75.7527 112.125H75.1878L75.7772 110.851L74.5031 107.915H75.1693C75.2287 107.915 75.2748 107.93 75.3075 107.959C75.3423 107.988 75.3679 108.02 75.3843 108.058L76.0536 109.703C76.0761 109.759 76.0945 109.815 76.1088 109.87C76.1252 109.926 76.1405 109.983 76.1549 110.04C76.1733 109.983 76.1917 109.926 76.2101 109.87C76.2286 109.813 76.249 109.756 76.2715 109.7L76.904 108.058C76.9204 108.016 76.947 107.982 76.9838 107.956C77.0227 107.929 77.0657 107.915 77.1128 107.915H77.7207Z" fill="white"/>
<path d="M73.6245 111.138C73.3502 111.138 73.1394 111.061 72.992 110.906C72.8467 110.75 72.7741 110.534 72.7741 110.26V108.488H72.4517C72.4108 108.488 72.376 108.474 72.3473 108.447C72.3187 108.421 72.3043 108.38 72.3043 108.327V108.024L72.8109 107.94L72.9706 107.074C72.9808 107.033 73.0002 107.001 73.0289 106.978C73.0575 106.955 73.0944 106.944 73.1394 106.944H73.5324V107.943H74.3736V108.488H73.5324V110.207C73.5324 110.306 73.5559 110.384 73.603 110.439C73.6521 110.495 73.7187 110.523 73.8026 110.523C73.8497 110.523 73.8885 110.518 73.9192 110.507C73.952 110.495 73.9796 110.483 74.0021 110.47C74.0267 110.458 74.0482 110.447 74.0666 110.436C74.085 110.424 74.1035 110.418 74.1219 110.418C74.1444 110.418 74.1628 110.424 74.1771 110.436C74.1915 110.447 74.2068 110.463 74.2232 110.486L74.4504 110.857C74.3399 110.95 74.213 111.02 74.0697 111.067C73.9264 111.115 73.778 111.138 73.6245 111.138Z" fill="white"/>
<path d="M71.8014 107.915V111.089H71.04V107.915H71.8014ZM71.9058 106.991C71.9058 107.057 71.8925 107.118 71.8659 107.176C71.8393 107.234 71.8034 107.284 71.7584 107.328C71.7154 107.371 71.6643 107.406 71.6049 107.433C71.5455 107.458 71.4821 107.47 71.4146 107.47C71.3491 107.47 71.2866 107.458 71.2273 107.433C71.17 107.406 71.1198 107.371 71.0768 107.328C71.0339 107.284 70.9991 107.234 70.9725 107.176C70.9479 107.118 70.9356 107.057 70.9356 106.991C70.9356 106.922 70.9479 106.859 70.9725 106.799C70.9991 106.739 71.0339 106.687 71.0768 106.644C71.1198 106.601 71.17 106.567 71.2273 106.542C71.2866 106.515 71.3491 106.502 71.4146 106.502C71.4821 106.502 71.5455 106.515 71.6049 106.542C71.6643 106.567 71.7154 106.601 71.7584 106.644C71.8034 106.687 71.8393 106.739 71.8659 106.799C71.8925 106.859 71.9058 106.922 71.9058 106.991Z" fill="white"/>
<path d="M69.4402 108.466C69.5384 108.276 69.6551 108.128 69.7902 108.021C69.9252 107.911 70.0849 107.857 70.2691 107.857C70.4144 107.857 70.5311 107.889 70.6191 107.952L70.57 108.525C70.5597 108.562 70.5444 108.589 70.5239 108.605C70.5055 108.62 70.4799 108.627 70.4472 108.627C70.4165 108.627 70.3704 108.622 70.309 108.611C70.2497 108.601 70.1913 108.596 70.134 108.596C70.0501 108.596 69.9754 108.608 69.9099 108.633C69.8444 108.658 69.785 108.694 69.7318 108.741C69.6806 108.787 69.6346 108.842 69.5937 108.908C69.5548 108.974 69.5179 109.05 69.4831 109.134V111.089H68.7248V107.915H69.17C69.2478 107.915 69.302 107.93 69.3327 107.959C69.3634 107.985 69.3839 108.035 69.3941 108.107L69.4402 108.466Z" fill="white"/>
<path d="M65.9992 110.266C66.0851 110.371 66.1783 110.446 66.2785 110.489C66.3809 110.532 66.4883 110.554 66.6009 110.554C66.7176 110.554 66.822 110.533 66.9141 110.492C67.0082 110.449 67.0881 110.383 67.1535 110.294C67.219 110.203 67.2692 110.089 67.304 109.951C67.3388 109.81 67.3562 109.643 67.3562 109.45C67.3562 109.101 67.2989 108.849 67.1842 108.695C67.0696 108.538 66.9049 108.46 66.69 108.46C66.5446 108.46 66.4177 108.494 66.3093 108.562C66.2008 108.628 66.0974 108.722 65.9992 108.843V110.266ZM65.9992 108.305C66.1261 108.171 66.2663 108.065 66.4198 107.986C66.5753 107.906 66.7524 107.866 66.9509 107.866C67.1331 107.866 67.2968 107.902 67.4421 107.974C67.5895 108.046 67.7144 108.15 67.8167 108.287C67.9211 108.421 68.0009 108.583 68.0562 108.775C68.1114 108.967 68.1391 109.183 68.1391 109.422C68.1391 109.68 68.1074 109.914 68.0439 110.124C67.9804 110.334 67.8894 110.515 67.7707 110.665C67.654 110.814 67.5128 110.929 67.347 111.012C67.1812 111.094 66.997 111.135 66.7943 111.135C66.6961 111.135 66.6071 111.125 66.5272 111.104C66.4474 111.086 66.3737 111.059 66.3062 111.024C66.2386 110.989 66.1762 110.947 66.1189 110.897C66.0636 110.846 66.0104 110.789 65.9593 110.727L65.9255 110.941C65.9132 110.994 65.8917 111.032 65.861 111.055C65.8324 111.078 65.7924 111.089 65.7413 111.089H65.2408V106.492H65.9992V108.305Z" fill="white"/>
<path d="M63.9901 109.137C63.9901 109.038 63.9758 108.945 63.9472 108.859C63.9206 108.77 63.8796 108.693 63.8244 108.627C63.7691 108.561 63.6985 108.509 63.6125 108.472C63.5286 108.433 63.4304 108.413 63.3178 108.413C63.0988 108.413 62.9258 108.476 62.7989 108.602C62.6741 108.728 62.5942 108.906 62.5594 109.137H63.9901ZM62.5441 109.598C62.5564 109.761 62.585 109.902 62.6301 110.022C62.6751 110.139 62.7344 110.237 62.8081 110.316C62.8818 110.392 62.9688 110.45 63.0691 110.489C63.1714 110.526 63.284 110.545 63.4068 110.545C63.5296 110.545 63.635 110.53 63.723 110.501C63.8131 110.472 63.8909 110.44 63.9564 110.405C64.0239 110.37 64.0823 110.338 64.1314 110.309C64.1825 110.281 64.2317 110.266 64.2787 110.266C64.3422 110.266 64.3893 110.29 64.42 110.337L64.638 110.616C64.554 110.715 64.4599 110.798 64.3555 110.866C64.2511 110.932 64.1416 110.986 64.027 111.027C63.9144 111.066 63.7988 111.094 63.6801 111.111C63.5634 111.127 63.4498 111.135 63.3393 111.135C63.1203 111.135 62.9166 111.099 62.7283 111.027C62.54 110.953 62.3763 110.845 62.2371 110.702C62.0979 110.558 61.9884 110.381 61.9086 110.17C61.8287 109.958 61.7888 109.712 61.7888 109.434C61.7888 109.218 61.8236 109.014 61.8932 108.825C61.9628 108.633 62.0621 108.467 62.191 108.327C62.322 108.184 62.4806 108.072 62.6669 107.99C62.8552 107.907 63.0671 107.866 63.3024 107.866C63.501 107.866 63.6842 107.898 63.852 107.962C64.0198 108.026 64.1641 108.119 64.2849 108.243C64.4056 108.365 64.4998 108.515 64.5673 108.695C64.6369 108.872 64.6717 109.075 64.6717 109.304C64.6717 109.42 64.6594 109.498 64.6349 109.539C64.6103 109.578 64.5632 109.598 64.4937 109.598H62.5441Z" fill="white"/>
<path d="M61.2053 106.492V111.089H60.447V106.492H61.2053Z" fill="white"/>
<path d="M59.1871 109.137C59.1871 109.038 59.1728 108.945 59.1441 108.859C59.1175 108.77 59.0766 108.693 59.0213 108.627C58.966 108.561 58.8954 108.509 58.8095 108.472C58.7255 108.433 58.6273 108.413 58.5147 108.413C58.2957 108.413 58.1228 108.476 57.9959 108.602C57.871 108.728 57.7912 108.906 57.7564 109.137H59.1871ZM57.741 109.598C57.7533 109.761 57.782 109.902 57.827 110.022C57.872 110.139 57.9314 110.237 58.0051 110.316C58.0788 110.392 58.1657 110.45 58.266 110.489C58.3684 110.526 58.4809 110.545 58.6038 110.545C58.7266 110.545 58.832 110.53 58.92 110.501C59.01 110.472 59.0878 110.44 59.1533 110.405C59.2209 110.37 59.2792 110.338 59.3283 110.309C59.3795 110.281 59.4286 110.266 59.4757 110.266C59.5391 110.266 59.5862 110.29 59.6169 110.337L59.8349 110.616C59.751 110.715 59.6568 110.798 59.5524 110.866C59.4481 110.932 59.3385 110.986 59.2239 111.027C59.1114 111.066 58.9957 111.094 58.877 111.111C58.7603 111.127 58.6467 111.135 58.5362 111.135C58.3172 111.135 58.1135 111.099 57.9252 111.027C57.7369 110.953 57.5732 110.845 57.434 110.702C57.2948 110.558 57.1853 110.381 57.1055 110.17C57.0257 109.958 56.9858 109.712 56.9858 109.434C56.9858 109.218 57.0206 109.014 57.0902 108.825C57.1597 108.633 57.259 108.467 57.388 108.327C57.519 108.184 57.6776 108.072 57.8638 107.99C58.0521 107.907 58.264 107.866 58.4994 107.866C58.6979 107.866 58.8811 107.898 59.0489 107.962C59.2168 108.026 59.3611 108.119 59.4818 108.243C59.6026 108.365 59.6967 108.515 59.7643 108.695C59.8339 108.872 59.8687 109.075 59.8687 109.304C59.8687 109.42 59.8564 109.498 59.8318 109.539C59.8073 109.578 59.7602 109.598 59.6906 109.598H57.741Z" fill="white"/>
<path d="M56.3323 110.034C56.3773 110.034 56.4172 110.052 56.452 110.087L56.7775 110.443C56.5973 110.667 56.3753 110.839 56.1112 110.959C55.8492 111.079 55.534 111.138 55.1656 111.138C54.8361 111.138 54.5393 111.082 54.2753 110.968C54.0133 110.855 53.7891 110.697 53.6029 110.495C53.4166 110.293 53.2734 110.052 53.1731 109.771C53.0748 109.491 53.0257 109.185 53.0257 108.853C53.0257 108.516 53.0789 108.209 53.1853 107.931C53.2918 107.65 53.4412 107.409 53.6336 107.207C53.828 107.005 54.0593 106.848 54.3275 106.737C54.5956 106.623 54.8924 106.567 55.2178 106.567C55.5412 106.567 55.8277 106.62 56.0775 106.728C56.3292 106.835 56.5431 106.975 56.7191 107.148L56.4428 107.535C56.4264 107.56 56.4049 107.581 56.3783 107.6C56.3538 107.618 56.319 107.628 56.2739 107.628C56.2432 107.628 56.2115 107.619 56.1788 107.603C56.146 107.584 56.1102 107.563 56.0713 107.538C56.0324 107.511 55.9874 107.482 55.9362 107.451C55.8851 107.42 55.8257 107.393 55.7582 107.368C55.6906 107.341 55.6118 107.319 55.5217 107.303C55.4337 107.284 55.3314 107.275 55.2147 107.275C55.0162 107.275 54.834 107.311 54.6682 107.383C54.5045 107.453 54.3633 107.557 54.2446 107.693C54.1258 107.827 54.0337 107.992 53.9682 108.188C53.9027 108.381 53.87 108.603 53.87 108.853C53.87 109.104 53.9048 109.328 53.9744 109.524C54.046 109.72 54.1422 109.885 54.263 110.019C54.3837 110.153 54.526 110.256 54.6897 110.328C54.8535 110.398 55.0295 110.433 55.2178 110.433C55.3304 110.433 55.4317 110.427 55.5217 110.415C55.6139 110.402 55.6978 110.383 55.7735 110.356C55.8513 110.329 55.9239 110.295 55.9915 110.254C56.0611 110.211 56.1296 110.158 56.1972 110.096C56.2177 110.078 56.2391 110.063 56.2617 110.053C56.2842 110.04 56.3077 110.034 56.3323 110.034Z" fill="white"/>
<path d="M165.215 25.2832L164.817 25.4179L189.279 102.652L189.676 102.517L165.215 25.2832Z" fill="#CCA000" stroke="#CCA000"/>
<path d="M164.515 25.4964L164.913 25.6311L140.757 101.898L140.36 101.763L164.515 25.4964Z" fill="#CCA000" stroke="#CCA000"/>
<path d="M200.158 99.4917C200.158 105.151 184.019 119.987 165.01 119.987C146 119.987 130.772 104.779 130.772 99.119C130.772 98.7463 146 99.119 165.01 99.119C200.158 99.119 200.158 99.1412 200.158 99.4917Z" fill="#CCA000"/>
<path d="M167.1 26.0155C167.1 27.3309 166.021 28.4061 164.679 28.4061C163.337 28.4061 162.258 27.3309 162.258 26.0155C162.258 24.7002 163.337 23.6249 164.679 23.6249C166.021 23.6249 167.1 24.7002 167.1 26.0155Z" fill="#CCA000" stroke="#CCA000"/>
<ellipse cx="155.027" cy="54.7029" rx="3.89529" ry="4.00371" fill="#3B3838"/>
<ellipse cx="147.792" cy="77.4826" rx="1.66941" ry="1.65671" fill="#3B3838"/>
<ellipse cx="162.261" cy="77.4826" rx="1.66941" ry="1.65671" fill="#3B3838"/>
<ellipse cx="157.809" cy="97.3631" rx="2.22588" ry="2.20894" fill="#3B3838"/>
<ellipse cx="152.523" cy="97.3631" rx="2.22588" ry="2.20894" fill="#3B3838"/>
<rect x="150.297" y="79.1393" width="4.45175" height="18.2238" fill="#3B3838"/>
<rect x="155.583" y="79.1393" width="4.45175" height="18.2238" fill="#3B3838"/>
<rect x="150.297" y="65.8857" width="9.73821" height="13.2537" fill="#3B3838"/>
<rect x="146.123" y="63.9528" width="3.33882" height="13.5298" fill="#3B3838"/>
<rect x="160.591" y="63.4006" width="3.33882" height="14.082" fill="#3B3838"/>
<rect x="146.123" y="59.811" width="17.807" height="8.00742" rx="4.00371" fill="#3B3838"/>
<ellipse cx="176.518" cy="54.7029" rx="3.89529" ry="4.00371" fill="#3B3838"/>
<ellipse cx="169.284" cy="77.4826" rx="1.66941" ry="1.65671" fill="#3B3838"/>
<ellipse cx="183.752" cy="77.4826" rx="1.66941" ry="1.65671" fill="#3B3838"/>
<ellipse cx="179.3" cy="97.3631" rx="2.22588" ry="2.20894" fill="#3B3838"/>
<ellipse cx="174.013" cy="97.3631" rx="2.22588" ry="2.20894" fill="#3B3838"/>
<rect x="171.788" y="79.1393" width="4.45175" height="18.2238" fill="#3B3838"/>
<rect x="177.074" y="79.1393" width="4.45175" height="18.2238" fill="#3B3838"/>
<rect x="171.788" y="65.8857" width="9.73821" height="13.2537" fill="#3B3838"/>
<rect x="167.614" y="63.9528" width="3.33882" height="13.5298" fill="#3B3838"/>
<rect x="182.082" y="63.4006" width="3.33882" height="14.082" fill="#3B3838"/>
<rect x="167.614" y="59.811" width="17.807" height="8.00742" rx="4.00371" fill="#3B3838"/>
<ellipse cx="143.36" cy="57.7961" rx="3.89529" ry="4.00371" fill="#212121"/>
<ellipse cx="136.126" cy="80.5758" rx="1.66941" ry="1.65671" fill="#212121"/>
<ellipse cx="150.594" cy="80.5758" rx="1.66941" ry="1.65671" fill="#212121"/>
<ellipse cx="146.142" cy="100.456" rx="2.22588" ry="2.20894" fill="#212121"/>
<ellipse cx="140.856" cy="100.456" rx="2.22588" ry="2.20894" fill="#212121"/>
<rect x="138.63" y="82.2325" width="4.45175" height="18.2238" fill="#212121"/>
<rect x="143.916" y="82.2325" width="4.45175" height="18.2238" fill="#212121"/>
<rect x="138.63" y="68.9789" width="9.73821" height="13.2537" fill="#212121"/>
<rect x="134.456" y="67.0461" width="3.33882" height="13.5298" fill="#212121"/>
<rect x="148.925" y="66.4938" width="3.33882" height="14.082" fill="#212121"/>
<rect x="134.456" y="62.9043" width="17.807" height="8.00742" rx="4.00371" fill="#212121"/>
<ellipse cx="163.851" cy="57.7961" rx="3.89529" ry="4.00371" fill="#212121"/>
<ellipse cx="156.617" cy="80.5758" rx="1.66941" ry="1.65671" fill="#212121"/>
<ellipse cx="171.085" cy="80.5758" rx="1.66941" ry="1.65671" fill="#212121"/>
<ellipse cx="166.633" cy="100.456" rx="2.22588" ry="2.20894" fill="#212121"/>
<ellipse cx="161.347" cy="100.456" rx="2.22588" ry="2.20894" fill="#212121"/>
<rect x="159.121" y="82.2325" width="4.45175" height="18.2238" fill="#212121"/>
<rect x="164.408" y="82.2325" width="4.45175" height="18.2238" fill="#212121"/>
<rect x="159.121" y="68.9789" width="9.73821" height="13.2537" fill="#212121"/>
<rect x="154.948" y="67.0461" width="3.33882" height="13.5298" fill="#212121"/>
<rect x="169.416" y="66.4938" width="3.33882" height="14.082" fill="#212121"/>
<rect x="154.948" y="62.9043" width="17.807" height="8.00742" rx="4.00371" fill="#212121"/>
<ellipse cx="188.184" cy="57.1774" rx="3.89529" ry="4.00371" fill="#212121"/>
<ellipse cx="180.95" cy="79.9572" rx="1.66941" ry="1.65671" fill="#212121"/>
<ellipse cx="195.418" cy="79.9572" rx="1.66941" ry="1.65671" fill="#212121"/>
<ellipse cx="190.967" cy="99.8377" rx="2.22588" ry="2.20894" fill="#212121"/>
<ellipse cx="185.68" cy="99.8377" rx="2.22588" ry="2.20894" fill="#212121"/>
<rect x="183.454" y="81.6139" width="4.45175" height="18.2238" fill="#212121"/>
<rect x="188.741" y="81.6139" width="4.45175" height="18.2238" fill="#212121"/>
<rect x="183.454" y="68.3602" width="9.73821" height="13.2537" fill="#212121"/>
<rect x="179.281" y="66.4274" width="3.33882" height="13.5298" fill="#212121"/>
<rect x="193.749" y="65.8752" width="3.33882" height="14.082" fill="#212121"/>
<rect x="179.281" y="62.2856" width="17.807" height="8.00742" rx="4.00371" fill="#212121"/>
<path d="M177.9 112.483C177.879 112.516 177.858 112.54 177.835 112.554C177.813 112.567 177.784 112.573 177.749 112.573C177.712 112.573 177.672 112.563 177.629 112.542C177.588 112.521 177.54 112.499 177.485 112.474C177.43 112.447 177.366 112.423 177.295 112.403C177.225 112.382 177.142 112.372 177.046 112.372C176.897 112.372 176.779 112.404 176.693 112.468C176.609 112.532 176.567 112.615 176.567 112.718C176.567 112.786 176.589 112.844 176.632 112.891C176.677 112.937 176.735 112.977 176.807 113.012C176.88 113.047 176.963 113.079 177.055 113.108C177.147 113.135 177.241 113.165 177.335 113.198C177.431 113.231 177.525 113.269 177.617 113.312C177.709 113.353 177.791 113.407 177.863 113.473C177.936 113.537 177.995 113.614 178.038 113.705C178.083 113.796 178.105 113.905 178.105 114.033C178.105 114.185 178.078 114.327 178.022 114.457C177.969 114.584 177.889 114.696 177.783 114.791C177.677 114.883 177.544 114.957 177.387 115.01C177.231 115.062 177.051 115.088 176.847 115.088C176.738 115.088 176.632 115.077 176.527 115.057C176.425 115.038 176.326 115.011 176.229 114.976C176.135 114.941 176.047 114.9 175.965 114.853C175.886 114.805 175.815 114.754 175.754 114.698L175.929 114.407C175.951 114.372 175.978 114.345 176.008 114.327C176.039 114.308 176.078 114.299 176.125 114.299C176.172 114.299 176.216 114.312 176.257 114.339C176.3 114.366 176.349 114.395 176.404 114.426C176.46 114.457 176.524 114.485 176.598 114.512C176.674 114.539 176.769 114.552 176.883 114.552C176.973 114.552 177.05 114.542 177.114 114.522C177.179 114.499 177.232 114.47 177.273 114.435C177.316 114.4 177.347 114.36 177.365 114.314C177.386 114.267 177.396 114.218 177.396 114.169C177.396 114.095 177.374 114.034 177.329 113.986C177.286 113.939 177.227 113.898 177.154 113.863C177.082 113.828 176.999 113.797 176.905 113.77C176.813 113.741 176.718 113.71 176.619 113.677C176.523 113.644 176.428 113.606 176.334 113.563C176.242 113.517 176.159 113.461 176.085 113.393C176.013 113.324 175.955 113.241 175.91 113.142C175.867 113.043 175.846 112.923 175.846 112.783C175.846 112.653 175.871 112.53 175.922 112.412C175.974 112.294 176.048 112.192 176.147 112.106C176.247 112.017 176.371 111.947 176.518 111.895C176.667 111.842 176.839 111.815 177.034 111.815C177.251 111.815 177.448 111.851 177.626 111.923C177.804 111.995 177.953 112.09 178.072 112.208L177.9 112.483Z" fill="white"/>
<path d="M174.414 112.415C174.513 112.225 174.629 112.077 174.764 111.97C174.9 111.86 175.059 111.806 175.243 111.806C175.389 111.806 175.505 111.838 175.593 111.902L175.544 112.474C175.534 112.511 175.519 112.538 175.498 112.554C175.48 112.569 175.454 112.576 175.421 112.576C175.391 112.576 175.345 112.571 175.283 112.56C175.224 112.55 175.166 112.545 175.108 112.545C175.024 112.545 174.95 112.557 174.884 112.582C174.819 112.607 174.759 112.643 174.706 112.69C174.655 112.736 174.609 112.791 174.568 112.857C174.529 112.923 174.492 112.999 174.457 113.083V115.038H173.699V111.864H174.144C174.222 111.864 174.276 111.879 174.307 111.908C174.338 111.935 174.358 111.984 174.368 112.056L174.414 112.415Z" fill="white"/>
<path d="M171.567 111.815C171.8 111.815 172.012 111.853 172.203 111.929C172.395 112.006 172.559 112.114 172.694 112.254C172.831 112.394 172.936 112.566 173.01 112.768C173.084 112.97 173.121 113.196 173.121 113.445C173.121 113.697 173.084 113.924 173.01 114.126C172.936 114.328 172.831 114.5 172.694 114.642C172.559 114.784 172.395 114.894 172.203 114.97C172.012 115.046 171.8 115.085 171.567 115.085C171.332 115.085 171.118 115.046 170.925 114.97C170.733 114.894 170.568 114.784 170.431 114.642C170.296 114.5 170.191 114.328 170.115 114.126C170.041 113.924 170.004 113.697 170.004 113.445C170.004 113.196 170.041 112.97 170.115 112.768C170.191 112.566 170.296 112.394 170.431 112.254C170.568 112.114 170.733 112.006 170.925 111.929C171.118 111.853 171.332 111.815 171.567 111.815ZM171.567 114.497C171.829 114.497 172.023 114.408 172.147 114.231C172.274 114.053 172.338 113.794 172.338 113.451C172.338 113.109 172.274 112.848 172.147 112.669C172.023 112.489 171.829 112.4 171.567 112.4C171.301 112.4 171.104 112.49 170.975 112.672C170.848 112.851 170.784 113.111 170.784 113.451C170.784 113.792 170.848 114.051 170.975 114.231C171.104 114.408 171.301 114.497 171.567 114.497Z" fill="white"/>
<path d="M168.963 115.088C168.688 115.088 168.477 115.01 168.33 114.856C168.185 114.699 168.112 114.483 168.112 114.209V112.437H167.79C167.749 112.437 167.714 112.423 167.685 112.397C167.657 112.37 167.642 112.33 167.642 112.276V111.973L168.149 111.889L168.309 111.023C168.319 110.982 168.338 110.95 168.367 110.927C168.396 110.905 168.432 110.893 168.477 110.893H168.87V111.892H169.712V112.437H168.87V114.157C168.87 114.256 168.894 114.333 168.941 114.389C168.99 114.444 169.057 114.472 169.141 114.472C169.188 114.472 169.227 114.467 169.257 114.457C169.29 114.444 169.318 114.432 169.34 114.419C169.365 114.407 169.386 114.396 169.405 114.385C169.423 114.373 169.442 114.367 169.46 114.367C169.482 114.367 169.501 114.373 169.515 114.385C169.53 114.396 169.545 114.412 169.561 114.435L169.788 114.806C169.678 114.899 169.551 114.969 169.408 115.016C169.264 115.064 169.116 115.088 168.963 115.088Z" fill="white"/>
<path d="M167.136 112.483C167.116 112.516 167.094 112.54 167.072 112.554C167.049 112.567 167.02 112.573 166.986 112.573C166.949 112.573 166.909 112.563 166.866 112.542C166.825 112.521 166.777 112.499 166.722 112.474C166.666 112.447 166.603 112.423 166.531 112.403C166.462 112.382 166.379 112.372 166.283 112.372C166.133 112.372 166.015 112.404 165.93 112.468C165.846 112.532 165.804 112.615 165.804 112.718C165.804 112.786 165.825 112.844 165.868 112.891C165.913 112.937 165.971 112.977 166.043 113.012C166.117 113.047 166.2 113.079 166.292 113.108C166.384 113.135 166.477 113.165 166.571 113.198C166.667 113.231 166.762 113.269 166.854 113.312C166.946 113.353 167.028 113.407 167.099 113.473C167.173 113.537 167.231 113.614 167.274 113.705C167.319 113.796 167.342 113.905 167.342 114.033C167.342 114.185 167.314 114.327 167.259 114.457C167.206 114.584 167.126 114.696 167.019 114.791C166.913 114.883 166.781 114.957 166.623 115.01C166.468 115.062 166.288 115.088 166.083 115.088C165.975 115.088 165.868 115.077 165.764 115.057C165.661 115.038 165.562 115.011 165.466 114.976C165.372 114.941 165.284 114.9 165.202 114.853C165.122 114.805 165.051 114.754 164.99 114.698L165.165 114.407C165.188 114.372 165.214 114.345 165.245 114.327C165.276 114.308 165.314 114.299 165.362 114.299C165.409 114.299 165.453 114.312 165.494 114.339C165.537 114.366 165.586 114.395 165.641 114.426C165.696 114.457 165.761 114.485 165.834 114.512C165.91 114.539 166.005 114.552 166.12 114.552C166.21 114.552 166.287 114.542 166.35 114.522C166.416 114.499 166.469 114.47 166.51 114.435C166.553 114.4 166.583 114.36 166.602 114.314C166.622 114.267 166.633 114.218 166.633 114.169C166.633 114.095 166.61 114.034 166.565 113.986C166.522 113.939 166.464 113.898 166.39 113.863C166.318 113.828 166.236 113.797 166.141 113.77C166.049 113.741 165.954 113.71 165.856 113.677C165.76 113.644 165.664 113.606 165.57 113.563C165.478 113.517 165.395 113.461 165.322 113.393C165.25 113.324 165.192 113.241 165.147 113.142C165.104 113.043 165.082 112.923 165.082 112.783C165.082 112.653 165.108 112.53 165.159 112.412C165.21 112.294 165.285 112.192 165.383 112.106C165.483 112.017 165.607 111.947 165.755 111.895C165.904 111.842 166.076 111.815 166.27 111.815C166.487 111.815 166.685 111.851 166.863 111.923C167.041 111.995 167.189 112.09 167.308 112.208L167.136 112.483Z" fill="white"/>
<path d="M163.964 113.086C163.964 112.987 163.949 112.895 163.921 112.808C163.894 112.719 163.853 112.642 163.798 112.576C163.743 112.51 163.672 112.458 163.586 112.421C163.502 112.382 163.404 112.362 163.291 112.362C163.072 112.362 162.899 112.425 162.772 112.551C162.648 112.677 162.568 112.855 162.533 113.086H163.964ZM162.518 113.547C162.53 113.71 162.558 113.851 162.603 113.971C162.649 114.089 162.708 114.186 162.782 114.265C162.855 114.341 162.942 114.399 163.043 114.438C163.145 114.475 163.257 114.494 163.38 114.494C163.503 114.494 163.608 114.479 163.696 114.45C163.787 114.422 163.864 114.39 163.93 114.355C163.997 114.319 164.056 114.288 164.105 114.259C164.156 114.23 164.205 114.215 164.252 114.215C164.316 114.215 164.363 114.239 164.393 114.286L164.611 114.565C164.527 114.664 164.433 114.747 164.329 114.815C164.225 114.881 164.115 114.935 164 114.976C163.888 115.015 163.772 115.043 163.653 115.06C163.537 115.076 163.423 115.085 163.313 115.085C163.094 115.085 162.89 115.048 162.702 114.976C162.513 114.902 162.35 114.794 162.211 114.651C162.071 114.507 161.962 114.33 161.882 114.119C161.802 113.907 161.762 113.662 161.762 113.383C161.762 113.167 161.797 112.964 161.867 112.774C161.936 112.582 162.036 112.416 162.164 112.276C162.295 112.134 162.454 112.021 162.64 111.939C162.829 111.856 163.04 111.815 163.276 111.815C163.474 111.815 163.658 111.847 163.825 111.911C163.993 111.975 164.138 112.069 164.258 112.192C164.379 112.314 164.473 112.465 164.541 112.644C164.61 112.821 164.645 113.024 164.645 113.253C164.645 113.369 164.633 113.447 164.608 113.488C164.584 113.528 164.537 113.547 164.467 113.547H162.518Z" fill="white"/>
<path d="M161.626 111.864L160.376 115.038H159.689L158.439 111.864H159.065C159.123 111.864 159.17 111.878 159.207 111.905C159.246 111.932 159.271 111.966 159.283 112.007L159.891 113.702C159.924 113.801 159.953 113.898 159.977 113.993C160.002 114.087 160.023 114.182 160.042 114.277C160.062 114.182 160.085 114.087 160.109 113.993C160.134 113.898 160.164 113.801 160.198 113.702L160.818 112.007C160.833 111.966 160.858 111.932 160.895 111.905C160.932 111.878 160.976 111.864 161.027 111.864H161.626Z" fill="white"/>
<path d="M156.101 112.254C156.165 112.19 156.231 112.132 156.301 112.078C156.372 112.022 156.447 111.976 156.525 111.939C156.605 111.9 156.69 111.87 156.78 111.849C156.87 111.826 156.968 111.815 157.074 111.815C157.246 111.815 157.399 111.845 157.532 111.905C157.665 111.962 157.775 112.045 157.863 112.152C157.954 112.257 158.021 112.384 158.066 112.533C158.113 112.679 158.137 112.841 158.137 113.018V115.038H157.378V113.018C157.378 112.824 157.334 112.675 157.246 112.57C157.158 112.463 157.024 112.409 156.844 112.409C156.713 112.409 156.59 112.439 156.476 112.499C156.361 112.558 156.253 112.64 156.15 112.743V115.038H155.392V111.864H155.856C155.954 111.864 156.018 111.911 156.049 112.004L156.101 112.254Z" fill="white"/>
<path d="M154.566 115.038H153.737V110.565H154.566V115.038Z" fill="white"/>
<path d="M179.92 103.018V107.614H179.162V103.018H179.92Z" fill="white"/>
<path d="M177.699 106.26C177.48 106.27 177.296 106.289 177.146 106.318C176.997 106.345 176.877 106.38 176.787 106.424C176.697 106.467 176.632 106.517 176.594 106.575C176.555 106.633 176.535 106.696 176.535 106.764C176.535 106.898 176.574 106.994 176.652 107.051C176.732 107.109 176.835 107.138 176.962 107.138C177.117 107.138 177.252 107.11 177.364 107.055C177.479 106.997 177.59 106.91 177.699 106.795V106.26ZM175.961 104.883C176.323 104.549 176.759 104.382 177.269 104.382C177.453 104.382 177.618 104.413 177.763 104.475C177.909 104.535 178.031 104.619 178.132 104.728C178.232 104.836 178.308 104.965 178.359 105.115C178.412 105.266 178.439 105.431 178.439 105.61V107.614H178.095C178.023 107.614 177.968 107.604 177.929 107.583C177.89 107.561 177.859 107.516 177.837 107.45L177.769 107.222C177.69 107.294 177.612 107.358 177.536 107.413C177.46 107.467 177.382 107.512 177.3 107.549C177.218 107.587 177.13 107.614 177.036 107.633C176.944 107.654 176.841 107.664 176.729 107.664C176.596 107.664 176.473 107.646 176.36 107.611C176.248 107.574 176.15 107.52 176.069 107.447C175.987 107.375 175.923 107.285 175.878 107.178C175.833 107.071 175.811 106.946 175.811 106.804C175.811 106.724 175.824 106.644 175.851 106.566C175.877 106.485 175.92 106.409 175.979 106.337C176.041 106.265 176.12 106.197 176.216 106.133C176.312 106.069 176.43 106.013 176.569 105.966C176.71 105.918 176.874 105.88 177.06 105.851C177.246 105.82 177.459 105.802 177.699 105.796V105.61C177.699 105.398 177.654 105.241 177.564 105.14C177.474 105.037 177.344 104.985 177.174 104.985C177.051 104.985 176.949 105 176.867 105.028C176.787 105.057 176.716 105.09 176.655 105.127C176.594 105.163 176.537 105.194 176.486 105.223C176.437 105.252 176.382 105.267 176.32 105.267C176.267 105.267 176.222 105.253 176.185 105.226C176.148 105.198 176.119 105.165 176.096 105.127L175.961 104.883Z" fill="white"/>
<path d="M173.278 104.831C173.342 104.767 173.408 104.708 173.478 104.654C173.549 104.599 173.624 104.552 173.702 104.515C173.782 104.476 173.867 104.446 173.957 104.425C174.047 104.403 174.145 104.391 174.251 104.391C174.423 104.391 174.576 104.421 174.709 104.481C174.842 104.539 174.952 104.621 175.04 104.728C175.13 104.834 175.198 104.96 175.243 105.109C175.29 105.255 175.314 105.417 175.314 105.595V107.614H174.555V105.595C174.555 105.401 174.511 105.251 174.423 105.146C174.335 105.039 174.201 104.985 174.021 104.985C173.89 104.985 173.767 105.015 173.653 105.075C173.538 105.135 173.43 105.216 173.327 105.319V107.614H172.569V104.441H173.033C173.131 104.441 173.195 104.487 173.226 104.58L173.278 104.831Z" fill="white"/>
<path d="M170.437 104.391C170.67 104.391 170.882 104.429 171.072 104.506C171.265 104.582 171.428 104.69 171.563 104.831C171.701 104.971 171.806 105.142 171.88 105.344C171.953 105.546 171.99 105.772 171.99 106.021C171.99 106.273 171.953 106.5 171.88 106.702C171.806 106.904 171.701 107.076 171.563 107.218C171.428 107.361 171.265 107.47 171.072 107.546C170.882 107.623 170.67 107.661 170.437 107.661C170.201 107.661 169.987 107.623 169.795 107.546C169.603 107.47 169.438 107.361 169.301 107.218C169.166 107.076 169.06 106.904 168.985 106.702C168.911 106.5 168.874 106.273 168.874 106.021C168.874 105.772 168.911 105.546 168.985 105.344C169.06 105.142 169.166 104.971 169.301 104.831C169.438 104.69 169.603 104.582 169.795 104.506C169.987 104.429 170.201 104.391 170.437 104.391ZM170.437 107.073C170.699 107.073 170.892 106.984 171.017 106.807C171.144 106.63 171.207 106.37 171.207 106.028C171.207 105.685 171.144 105.424 171.017 105.245C170.892 105.066 170.699 104.976 170.437 104.976C170.171 104.976 169.973 105.067 169.844 105.248C169.717 105.427 169.654 105.687 169.654 106.028C169.654 106.368 169.717 106.628 169.844 106.807C169.973 106.984 170.171 107.073 170.437 107.073Z" fill="white"/>
<path d="M168.269 107.614H167.511V105.013H166.049V106.733C166.049 106.832 166.073 106.909 166.12 106.965C166.169 107.021 166.235 107.048 166.319 107.048C166.366 107.048 166.405 107.043 166.436 107.033C166.469 107.021 166.496 107.008 166.519 106.996C166.543 106.983 166.565 106.972 166.583 106.962C166.602 106.949 166.62 106.943 166.639 106.943C166.661 106.943 166.68 106.949 166.694 106.962C166.708 106.972 166.724 106.989 166.74 107.011L166.967 107.382C166.857 107.475 166.73 107.545 166.586 107.593C166.443 107.64 166.295 107.664 166.141 107.664C165.867 107.664 165.656 107.587 165.509 107.432C165.363 107.275 165.291 107.06 165.291 106.785V105.013H164.968C164.927 105.013 164.893 105 164.864 104.973C164.835 104.946 164.821 104.906 164.821 104.852V104.549L165.328 104.462L165.487 103.599C165.498 103.558 165.517 103.526 165.546 103.504C165.574 103.481 165.611 103.469 165.656 103.469H166.049V104.469H168.269V107.614ZM168.401 103.504C168.401 103.57 168.388 103.632 168.361 103.692C168.334 103.75 168.299 103.8 168.254 103.844C168.211 103.887 168.158 103.922 168.097 103.949C168.038 103.974 167.974 103.986 167.907 103.986C167.841 103.986 167.78 103.974 167.722 103.949C167.665 103.922 167.615 103.887 167.572 103.844C167.529 103.8 167.494 103.75 167.468 103.692C167.443 103.632 167.431 103.57 167.431 103.504C167.431 103.435 167.443 103.373 167.468 103.315C167.494 103.255 167.529 103.203 167.572 103.16C167.615 103.115 167.665 103.08 167.722 103.055C167.78 103.028 167.841 103.015 167.907 103.015C167.974 103.015 168.038 103.028 168.097 103.055C168.158 103.08 168.211 103.115 168.254 103.16C168.299 103.203 168.334 103.255 168.361 103.315C168.388 103.373 168.401 103.435 168.401 103.504Z" fill="white"/>
<path d="M164.318 104.441V107.614H163.557V104.441H164.318ZM164.423 103.516C164.423 103.582 164.409 103.644 164.383 103.702C164.356 103.759 164.32 103.81 164.275 103.853C164.232 103.896 164.181 103.931 164.122 103.958C164.062 103.983 163.999 103.995 163.931 103.995C163.866 103.995 163.803 103.983 163.744 103.958C163.687 103.931 163.637 103.896 163.594 103.853C163.551 103.81 163.516 103.759 163.489 103.702C163.465 103.644 163.452 103.582 163.452 103.516C163.452 103.448 163.465 103.384 163.489 103.324C163.516 103.264 163.551 103.213 163.594 103.17C163.637 103.126 163.687 103.092 163.744 103.067C163.803 103.041 163.866 103.027 163.931 103.027C163.999 103.027 164.062 103.041 164.122 103.067C164.181 103.092 164.232 103.126 164.275 103.17C164.32 103.213 164.356 103.264 164.383 103.324C164.409 103.384 164.423 103.448 164.423 103.516Z" fill="white"/>
<path d="M162.026 105.251C161.94 105.146 161.845 105.072 161.743 105.028C161.643 104.985 161.534 104.964 161.418 104.964C161.303 104.964 161.2 104.985 161.108 105.028C161.015 105.072 160.937 105.138 160.871 105.226C160.806 105.313 160.755 105.424 160.721 105.561C160.686 105.695 160.668 105.853 160.668 106.037C160.668 106.222 160.683 106.38 160.711 106.51C160.742 106.638 160.785 106.743 160.84 106.826C160.896 106.906 160.963 106.965 161.043 107.002C161.123 107.037 161.212 107.055 161.31 107.055C161.468 107.055 161.602 107.022 161.712 106.956C161.823 106.89 161.927 106.796 162.026 106.674V105.251ZM162.784 103.018V107.614H162.32C162.22 107.614 162.156 107.568 162.13 107.475L162.065 107.169C161.939 107.315 161.792 107.434 161.626 107.525C161.463 107.615 161.271 107.661 161.052 107.661C160.88 107.661 160.723 107.625 160.579 107.553C160.436 107.48 160.312 107.376 160.208 107.24C160.106 107.102 160.026 106.932 159.968 106.73C159.913 106.528 159.886 106.297 159.886 106.037C159.886 105.802 159.917 105.583 159.981 105.381C160.044 105.179 160.135 105.004 160.254 104.855C160.373 104.707 160.515 104.591 160.681 104.509C160.847 104.424 161.033 104.382 161.24 104.382C161.416 104.382 161.566 104.41 161.691 104.466C161.816 104.521 161.927 104.596 162.026 104.691V103.018H162.784Z" fill="white"/>
<path d="M158.594 106.26C158.375 106.27 158.191 106.289 158.041 106.318C157.892 106.345 157.772 106.38 157.682 106.424C157.592 106.467 157.528 106.517 157.489 106.575C157.45 106.633 157.43 106.696 157.43 106.764C157.43 106.898 157.469 106.994 157.547 107.051C157.627 107.109 157.73 107.138 157.857 107.138C158.013 107.138 158.147 107.11 158.259 107.055C158.374 106.997 158.486 106.91 158.594 106.795V106.26ZM156.856 104.883C157.219 104.549 157.655 104.382 158.164 104.382C158.348 104.382 158.513 104.413 158.659 104.475C158.804 104.535 158.927 104.619 159.027 104.728C159.127 104.836 159.203 104.965 159.254 105.115C159.307 105.266 159.334 105.431 159.334 105.61V107.614H158.99C158.919 107.614 158.863 107.604 158.824 107.583C158.785 107.561 158.755 107.516 158.732 107.45L158.665 107.222C158.585 107.294 158.507 107.358 158.431 107.413C158.356 107.467 158.277 107.512 158.195 107.549C158.113 107.587 158.025 107.614 157.931 107.633C157.839 107.654 157.736 107.664 157.624 107.664C157.491 107.664 157.368 107.646 157.255 107.611C157.143 107.574 157.046 107.52 156.964 107.447C156.882 107.375 156.819 107.285 156.773 107.178C156.728 107.071 156.706 106.946 156.706 106.804C156.706 106.724 156.719 106.644 156.746 106.566C156.772 106.485 156.815 106.409 156.875 106.337C156.936 106.265 157.015 106.197 157.111 106.133C157.207 106.069 157.325 106.013 157.464 105.966C157.605 105.918 157.769 105.88 157.955 105.851C158.142 105.82 158.355 105.802 158.594 105.796V105.61C158.594 105.398 158.549 105.241 158.459 105.14C158.369 105.037 158.239 104.985 158.069 104.985C157.946 104.985 157.844 105 157.762 105.028C157.682 105.057 157.612 105.09 157.55 105.127C157.489 105.163 157.433 105.194 157.381 105.223C157.332 105.252 157.277 105.267 157.216 105.267C157.162 105.267 157.117 105.253 157.08 105.226C157.044 105.198 157.014 105.165 156.991 105.127L156.856 104.883Z" fill="white"/>
<path d="M155.397 104.991C155.495 104.802 155.612 104.653 155.747 104.546C155.882 104.437 156.041 104.382 156.226 104.382C156.371 104.382 156.488 104.414 156.576 104.478L156.527 105.05C156.516 105.087 156.501 105.114 156.481 105.131C156.462 105.145 156.436 105.152 156.404 105.152C156.373 105.152 156.327 105.147 156.266 105.137C156.206 105.126 156.148 105.121 156.091 105.121C156.007 105.121 155.932 105.134 155.866 105.158C155.801 105.183 155.742 105.219 155.688 105.267C155.637 105.312 155.591 105.368 155.55 105.434C155.511 105.5 155.475 105.575 155.44 105.659V107.614H154.681V104.441H155.127C155.204 104.441 155.259 104.455 155.289 104.484C155.32 104.511 155.34 104.56 155.351 104.633L155.397 104.991Z" fill="white"/>
<path d="M154.838 103.825H153.499V107.614H152.673V103.825H151.335V103.142H154.838V103.825Z" fill="white"/>
<path d="M81.5878 141.64H148.409" stroke="#CCA000" stroke-width="10" stroke-linecap="round"/>
<rect x="53.0091" y="21.3124" width="126.359" height="3.62497" rx="1.81249" fill="#CCA000" stroke="#CCA000"/>
<path d="M118.61 13.2969C118.61 15.2508 117.008 16.8437 115.02 16.8437C113.033 16.8437 111.431 15.2508 111.431 13.2969C111.431 11.3429 113.033 9.75 115.02 9.75C117.008 9.75 118.61 11.3429 118.61 13.2969Z" fill="#CCA000" stroke="#CCA000"/>
</svg>
