<svg width="211" height="158" viewBox="0 0 211 158" fill="none" xmlns="http://www.w3.org/2000/svg">
<path d="M20.4422 66.0201V71.0789C19.808 71.5459 19.1306 71.8889 18.41 72.108C17.6951 72.3213 16.9284 72.4279 16.1098 72.4279C15.0894 72.4279 14.1641 72.2694 13.3339 71.9523C12.5095 71.6352 11.8033 71.1942 11.2153 70.6293C10.633 70.0643 10.1833 69.3898 9.86624 68.6057C9.54916 67.8217 9.39062 66.9656 9.39062 66.0374C9.39062 65.0977 9.5434 64.2358 9.84894 63.4518C10.1545 62.6677 10.5869 61.9932 11.1461 61.4283C11.711 60.8633 12.3942 60.4252 13.1955 60.1138C13.9969 59.8025 14.8962 59.6469 15.8936 59.6469C16.4009 59.6469 16.8736 59.6872 17.3118 59.7679C17.7557 59.8486 18.165 59.9611 18.5397 60.1052C18.9202 60.2436 19.2661 60.4136 19.5774 60.6154C19.8887 60.8172 20.1741 61.0391 20.4335 61.2813L19.7677 62.3363C19.6639 62.5034 19.5284 62.6072 19.3612 62.6476C19.1941 62.6822 19.0125 62.6389 18.8164 62.5179C18.6262 62.4083 18.436 62.2988 18.2457 62.1892C18.0555 62.0797 17.8422 61.9846 17.6058 61.9039C17.3752 61.8232 17.1129 61.7569 16.8189 61.705C16.5306 61.6531 16.1962 61.6272 15.8157 61.6272C15.1989 61.6272 14.6397 61.7309 14.1381 61.9385C13.6423 62.146 13.2186 62.4429 12.8669 62.8292C12.5153 63.2154 12.2443 63.6795 12.0541 64.2214C11.8638 64.7633 11.7687 65.3687 11.7687 66.0374C11.7687 66.7523 11.8696 67.3922 12.0714 67.9572C12.2789 68.5164 12.5672 68.992 12.9361 69.384C13.3108 69.7703 13.7605 70.0672 14.2851 70.2747C14.8098 70.4765 15.3949 70.5774 16.0406 70.5774C16.5018 70.5774 16.914 70.5284 17.2772 70.4304C17.6404 70.3324 17.9949 70.1998 18.3408 70.0326V67.7669H16.767C16.6171 67.7669 16.4989 67.7266 16.4124 67.6458C16.3317 67.5594 16.2914 67.4556 16.2914 67.3345V66.0201H20.4422ZM24.2259 64.9565C24.5026 64.4261 24.8312 64.011 25.2117 63.7112C25.5922 63.4057 26.0419 63.2529 26.5607 63.2529C26.97 63.2529 27.2986 63.3423 27.5465 63.521L27.4082 65.1208C27.3794 65.2245 27.3361 65.2995 27.2785 65.3456C27.2266 65.386 27.1545 65.4061 27.0623 65.4061C26.9758 65.4061 26.8461 65.3917 26.6731 65.3629C26.506 65.3341 26.3417 65.3197 26.1802 65.3197C25.9439 65.3197 25.7334 65.3542 25.549 65.4234C25.3645 65.4926 25.1973 65.5935 25.0474 65.7261C24.9033 65.8529 24.7736 66.0086 24.6583 66.1931C24.5487 66.3775 24.445 66.588 24.347 66.8243V72.2896H22.211V63.4172H23.4649C23.684 63.4172 23.8367 63.4576 23.9232 63.5383C24.0097 63.6132 24.0673 63.7516 24.0962 63.9533L24.2259 64.9565ZM32.3356 63.2788C32.9928 63.2788 33.5894 63.3855 34.1256 63.5988C34.6675 63.8121 35.1287 64.1148 35.5092 64.5068C35.8955 64.8988 36.1924 65.3773 36.3999 65.9423C36.6074 66.5073 36.7112 67.1385 36.7112 67.8361C36.7112 68.5394 36.6074 69.1736 36.3999 69.7386C36.1924 70.3035 35.8955 70.7849 35.5092 71.1827C35.1287 71.5805 34.6675 71.886 34.1256 72.0993C33.5894 72.3126 32.9928 72.4193 32.3356 72.4193C31.6726 72.4193 31.0701 72.3126 30.5282 72.0993C29.9863 71.886 29.5222 71.5805 29.136 71.1827C28.7555 70.7849 28.4586 70.3035 28.2453 69.7386C28.0377 69.1736 27.934 68.5394 27.934 67.8361C27.934 67.1385 28.0377 66.5073 28.2453 65.9423C28.4586 65.3773 28.7555 64.8988 29.136 64.5068C29.5222 64.1148 29.9863 63.8121 30.5282 63.5988C31.0701 63.3855 31.6726 63.2788 32.3356 63.2788ZM32.3356 70.7763C33.0735 70.7763 33.6183 70.5284 33.9699 70.0326C34.3274 69.5368 34.5061 68.8104 34.5061 67.8534C34.5061 66.8964 34.3274 66.1671 33.9699 65.6656C33.6183 65.164 33.0735 64.9132 32.3356 64.9132C31.5861 64.9132 31.0298 65.1669 30.6666 65.6742C30.3091 66.1758 30.1304 66.9022 30.1304 67.8534C30.1304 68.8046 30.3091 69.531 30.6666 70.0326C31.0298 70.5284 31.5861 70.7763 32.3356 70.7763ZM50.8573 63.4172L48.0382 72.2896H46.326C46.13 72.2896 45.9945 72.1627 45.9196 71.9091L44.3284 66.7811C44.2765 66.6081 44.2275 66.4381 44.1814 66.2709C44.1411 66.0979 44.1065 65.925 44.0776 65.752C44.0431 65.925 44.0027 66.1008 43.9566 66.2795C43.9162 66.4525 43.8701 66.6254 43.8182 66.7984L42.2011 71.9091C42.1319 72.1627 41.9792 72.2896 41.7428 72.2896H40.0998L37.2893 63.4172H38.9929C39.1485 63.4172 39.2811 63.4547 39.3907 63.5296C39.5002 63.6046 39.5723 63.6997 39.6069 63.815L40.878 68.5538C40.9415 68.8133 40.9962 69.0669 41.0424 69.3148C41.0942 69.5627 41.1375 69.8106 41.1721 70.0585C41.2355 69.8106 41.3018 69.5627 41.371 69.3148C41.4459 69.0669 41.5237 68.8133 41.6044 68.5538L43.0745 63.7977C43.1091 63.6824 43.1754 63.5873 43.2734 63.5123C43.3772 63.4374 43.5011 63.3999 43.6453 63.3999H44.5878C44.7377 63.3999 44.8646 63.4374 44.9683 63.5123C45.0779 63.5873 45.1499 63.6824 45.1845 63.7977L46.6114 68.5538C46.6863 68.8133 46.7555 69.0698 46.8189 69.3235C46.8881 69.5714 46.9544 69.8193 47.0178 70.0672C47.0928 69.5771 47.1994 69.0727 47.3378 68.5538L48.6435 63.815C48.6839 63.6997 48.756 63.6046 48.8597 63.5296C48.9635 63.4547 49.0875 63.4172 49.2316 63.4172H50.8573ZM55.0295 72.4279C54.257 72.4279 53.6632 72.2117 53.2481 71.7794C52.8388 71.3412 52.6341 70.7388 52.6341 69.972V65.017H51.7261C51.6108 65.017 51.5128 64.9795 51.4321 64.9046C51.3514 64.8296 51.311 64.7172 51.311 64.5673V63.7199L52.7379 63.4864L53.1875 61.0651C53.2164 60.9498 53.2711 60.8604 53.3518 60.797C53.4325 60.7336 53.5363 60.7019 53.6632 60.7019H54.77V63.495H57.1395V65.017H54.77V69.825C54.77 70.1017 54.8363 70.3179 54.9689 70.4736C55.1073 70.6292 55.2947 70.7071 55.531 70.7071C55.6636 70.7071 55.7732 70.6927 55.8596 70.6638C55.9519 70.6292 56.0297 70.5947 56.0931 70.5601C56.1623 70.5255 56.2228 70.4938 56.2747 70.4649C56.3266 70.4304 56.3785 70.4131 56.4304 70.4131C56.4938 70.4131 56.5457 70.4304 56.586 70.4649C56.6264 70.4938 56.6696 70.5399 56.7157 70.6033L57.3557 71.641C57.0443 71.9004 56.6869 72.0964 56.2834 72.229C55.8798 72.3616 55.4618 72.4279 55.0295 72.4279ZM60.643 64.3684C60.9889 64.0456 61.3694 63.7833 61.7845 63.5815C62.1995 63.3797 62.6867 63.2788 63.2459 63.2788C63.7302 63.2788 64.1597 63.3624 64.5344 63.5296C64.9091 63.691 65.2204 63.9216 65.4683 64.2214C65.722 64.5154 65.9122 64.87 66.0391 65.2851C66.1716 65.6944 66.2379 66.1469 66.2379 66.6427V72.2896H64.102V66.6427C64.102 66.1008 63.9781 65.6829 63.7302 65.3888C63.4823 65.0891 63.1047 64.9392 62.5973 64.9392C62.2284 64.9392 61.8825 65.0228 61.5596 65.1899C61.2368 65.3571 60.9312 65.5849 60.643 65.8731V72.2896H58.507V59.4393H60.643V64.3684Z" fill="#3D7534"/>
<path d="M35.2612 132.246L54.8623 153L86.57 102.844L98.6765 118.986L115.395 90.7377L136.149 76.9016L141.338 60.7596L173.045 51.5355" stroke="#002642" stroke-width="5.76503"/>
<path d="M6.09235 137.838C6.24608 137.838 6.36715 137.882 6.45555 137.97C6.54779 138.055 6.59391 138.168 6.59391 138.311V139.164H0.875V138.691C0.875 138.595 0.894209 138.495 0.93265 138.391C0.974919 138.284 1.04026 138.188 1.12866 138.103L3.65951 135.566C3.87089 135.351 4.05921 135.146 4.22448 134.95C4.39358 134.754 4.53387 134.56 4.64533 134.367C4.75678 134.175 4.84134 133.981 4.89899 133.785C4.96048 133.585 4.99123 133.376 4.99123 133.157C4.99123 132.957 4.9624 132.782 4.90475 132.632C4.8471 132.478 4.76447 132.35 4.65686 132.246C4.55309 132.142 4.42626 132.065 4.27637 132.015C4.13032 131.961 3.96505 131.934 3.78057 131.934C3.61146 131.934 3.45388 131.959 3.30784 132.009C3.16563 132.056 3.0388 132.123 2.92735 132.211C2.81589 132.296 2.72172 132.396 2.64486 132.511C2.56799 132.626 2.51034 132.753 2.47191 132.891C2.40657 133.068 2.32202 133.185 2.21825 133.243C2.11448 133.301 1.96459 133.314 1.76858 133.283L1.01913 133.151C1.07678 132.751 1.18823 132.401 1.3535 132.102C1.51876 131.798 1.72437 131.546 1.97036 131.346C2.22017 131.143 2.50458 130.991 2.82358 130.891C3.14642 130.787 3.49232 130.735 3.86128 130.735C4.24562 130.735 4.59728 130.793 4.91628 130.908C5.23527 131.02 5.50816 131.179 5.73492 131.387C5.96167 131.594 6.13847 131.844 6.2653 132.136C6.39213 132.428 6.45555 132.753 6.45555 133.111C6.45555 133.418 6.40943 133.702 6.31719 133.964C6.22879 134.225 6.10772 134.475 5.95399 134.713C5.8041 134.952 5.6273 135.182 5.42361 135.405C5.21991 135.628 5.0066 135.855 4.78369 136.085L2.90429 138.005C3.08492 137.951 3.26364 137.911 3.44044 137.884C3.62107 137.853 3.7921 137.838 3.95352 137.838H6.09235ZM13.5244 134.996C13.5244 135.722 13.4456 136.354 13.288 136.892C13.1342 137.427 12.9191 137.869 12.6424 138.218C12.3695 138.568 12.0446 138.829 11.6681 139.002C11.2952 139.172 10.8917 139.256 10.4574 139.256C10.0231 139.256 9.61952 139.172 9.24672 139.002C8.87776 138.829 8.55683 138.568 8.28396 138.218C8.01108 137.869 7.79777 137.427 7.64404 136.892C7.4903 136.354 7.41344 135.722 7.41344 134.996C7.41344 134.266 7.4903 133.633 7.64404 133.099C7.79777 132.565 8.01108 132.123 8.28396 131.773C8.55683 131.423 8.87776 131.164 9.24672 130.995C9.61952 130.822 10.0231 130.735 10.4574 130.735C10.8917 130.735 11.2952 130.822 11.6681 130.995C12.0446 131.164 12.3695 131.423 12.6424 131.773C12.9191 132.123 13.1342 132.565 13.288 133.099C13.4456 133.633 13.5244 134.266 13.5244 134.996ZM12.0543 134.996C12.0543 134.392 12.0101 133.893 11.9217 133.497C11.8333 133.101 11.7142 132.786 11.5643 132.551C11.4182 132.317 11.2491 132.154 11.057 132.061C10.8648 131.965 10.6649 131.917 10.4574 131.917C10.2537 131.917 10.0557 131.965 9.86358 132.061C9.67525 132.154 9.50806 132.317 9.36202 132.551C9.21597 132.786 9.09874 133.101 9.01035 133.497C8.92579 133.893 8.88352 134.392 8.88352 134.996C8.88352 135.599 8.92579 136.099 9.01035 136.495C9.09874 136.89 9.21597 137.206 9.36202 137.44C9.50806 137.674 9.67525 137.84 9.86358 137.936C10.0557 138.028 10.2537 138.074 10.4574 138.074C10.6649 138.074 10.8648 138.028 11.057 137.936C11.2491 137.84 11.4182 137.674 11.5643 137.44C11.7142 137.206 11.8333 136.89 11.9217 136.495C12.0101 136.099 12.0543 135.599 12.0543 134.996ZM19.469 137.838C19.6228 137.838 19.7438 137.882 19.8322 137.97C19.9244 138.055 19.9705 138.168 19.9705 138.311V139.164H14.2516V138.691C14.2516 138.595 14.2709 138.495 14.3093 138.391C14.3516 138.284 14.417 138.188 14.5053 138.103L17.0361 135.566C17.2476 135.351 17.4359 135.146 17.6011 134.95C17.7702 134.754 17.9106 134.56 18.0219 134.367C18.1334 134.175 18.218 133.981 18.2756 133.785C18.3372 133.585 18.3678 133.376 18.3678 133.157C18.3678 132.957 18.339 132.782 18.2814 132.632C18.2237 132.478 18.1412 132.35 18.0335 132.246C17.9297 132.142 17.8029 132.065 17.653 132.015C17.507 131.961 17.3417 131.934 17.1572 131.934C16.9882 131.934 16.8305 131.959 16.6845 132.009C16.5423 132.056 16.4155 132.123 16.304 132.211C16.1926 132.296 16.0984 132.396 16.0215 132.511C15.9447 132.626 15.887 132.753 15.8485 132.891C15.7833 133.068 15.6986 133.185 15.5949 133.243C15.4911 133.301 15.3412 133.314 15.1452 133.283L14.3957 133.151C14.4534 132.751 14.5649 132.401 14.7301 132.102C14.8955 131.798 15.101 131.546 15.347 131.346C15.5968 131.143 15.8813 130.991 16.2002 130.891C16.523 130.787 16.8689 130.735 17.2379 130.735C17.6223 130.735 17.974 130.793 18.2929 130.908C18.6119 131.02 18.8849 131.179 19.1115 131.387C19.3383 131.594 19.5151 131.844 19.6419 132.136C19.7687 132.428 19.8322 132.753 19.8322 133.111C19.8322 133.418 19.786 133.702 19.6938 133.964C19.6055 134.225 19.4844 134.475 19.3306 134.713C19.1807 134.952 19.004 135.182 18.8002 135.405C18.5966 135.628 18.3833 135.855 18.1603 136.085L16.2809 138.005C16.4616 137.951 16.6403 137.911 16.8171 137.884C16.9977 137.853 17.1687 137.838 17.3301 137.838H19.469ZM21.1245 133.151C21.1821 132.751 21.2936 132.401 21.4588 132.102C21.6242 131.798 21.8297 131.546 22.0757 131.346C22.3255 131.143 22.61 130.991 22.9289 130.891C23.2517 130.787 23.5976 130.735 23.9666 130.735C24.351 130.735 24.6969 130.791 25.0043 130.903C25.3156 131.01 25.5808 131.162 25.7999 131.358C26.019 131.55 26.1861 131.777 26.3014 132.038C26.4207 132.3 26.4802 132.582 26.4802 132.886C26.4802 133.151 26.4495 133.385 26.3879 133.589C26.3303 133.789 26.2458 133.964 26.1343 134.114C26.0229 134.264 25.8845 134.39 25.7192 134.494C25.554 134.598 25.3675 134.684 25.16 134.754C25.6597 134.911 26.0324 135.151 26.2784 135.474C26.5244 135.797 26.6473 136.203 26.6473 136.691C26.6473 137.106 26.5706 137.473 26.4167 137.792C26.2631 138.111 26.0555 138.38 25.7941 138.599C25.5329 138.814 25.2292 138.977 24.8832 139.089C24.5413 139.2 24.1781 139.256 23.7937 139.256C23.3748 139.256 23.0096 139.208 22.6983 139.112C22.387 139.016 22.116 138.874 21.8854 138.685C21.6548 138.497 21.4588 138.266 21.2974 137.994C21.136 137.721 20.9976 137.405 20.8823 137.048L21.5107 136.789C21.676 136.719 21.8297 136.702 21.9719 136.737C22.118 136.768 22.2237 136.844 22.289 136.967C22.3582 137.102 22.4331 137.234 22.5138 137.365C22.5985 137.496 22.6983 137.613 22.8136 137.717C22.9289 137.817 23.0635 137.899 23.2172 137.965C23.3748 138.026 23.5612 138.057 23.7764 138.057C24.0185 138.057 24.23 138.019 24.4105 137.942C24.5912 137.861 24.7411 137.757 24.8602 137.63C24.9832 137.503 25.0735 137.363 25.1311 137.209C25.1927 137.052 25.2234 136.894 25.2234 136.737C25.2234 136.537 25.2023 136.356 25.16 136.195C25.1178 136.03 25.0293 135.889 24.8948 135.774C24.7603 135.659 24.5662 135.568 24.3125 135.503C24.0628 135.438 23.7264 135.405 23.3036 135.405V134.39C23.6535 134.387 23.9435 134.354 24.1742 134.292C24.4048 134.231 24.5874 134.146 24.7218 134.039C24.8602 133.927 24.9563 133.795 25.0101 133.641C25.0639 133.487 25.0908 133.318 25.0908 133.134C25.0908 132.742 24.9813 132.444 24.7622 132.24C24.5431 132.036 24.2511 131.934 23.8859 131.934C23.7169 131.934 23.5612 131.959 23.4189 132.009C23.2768 132.056 23.148 132.123 23.0327 132.211C22.9213 132.296 22.8271 132.396 22.7502 132.511C22.6734 132.626 22.6157 132.753 22.5772 132.891C22.512 133.068 22.4255 133.185 22.3178 133.243C22.214 133.301 22.0661 133.314 21.8739 133.283L21.1245 133.151Z" fill="#002642"/>
<path d="M189.42 51.3625C189.574 51.3625 189.695 51.4067 189.784 51.4951C189.876 51.5796 189.922 51.6931 189.922 51.8353V52.6885H184.203V52.2157C184.203 52.1197 184.223 52.0197 184.261 51.916C184.303 51.8084 184.368 51.7122 184.457 51.6277L186.988 49.0911C187.199 48.8758 187.388 48.6703 187.553 48.4742C187.722 48.2782 187.862 48.0842 187.973 47.892C188.085 47.6998 188.169 47.5057 188.227 47.3097C188.288 47.1099 188.319 46.9004 188.319 46.6813C188.319 46.4815 188.291 46.3066 188.233 46.1567C188.175 46.003 188.092 45.8742 187.985 45.7704C187.881 45.6667 187.754 45.5898 187.604 45.5398C187.458 45.486 187.293 45.4591 187.109 45.4591C186.939 45.4591 186.782 45.4842 186.636 45.5341C186.494 45.5802 186.367 45.6474 186.255 45.7359C186.144 45.8204 186.05 45.9203 185.973 46.0356C185.896 46.1509 185.838 46.2778 185.8 46.4161C185.734 46.5929 185.65 46.7101 185.546 46.7678C185.443 46.8254 185.293 46.8389 185.097 46.8082L184.347 46.6756C184.405 46.2758 184.517 45.9261 184.682 45.6263C184.846 45.3227 185.053 45.0709 185.298 44.8711C185.549 44.6674 185.832 44.5156 186.152 44.4157C186.475 44.3119 186.82 44.26 187.189 44.26C187.573 44.26 187.925 44.3177 188.244 44.433C188.564 44.5445 188.836 44.7039 189.063 44.9115C189.29 45.119 189.467 45.3689 189.593 45.6609C189.72 45.953 189.784 46.2778 189.784 46.6352C189.784 46.9427 189.738 47.227 189.645 47.4884C189.557 47.7498 189.435 47.9996 189.282 48.2379C189.132 48.4762 188.956 48.7068 188.752 48.9297C188.548 49.1526 188.334 49.3794 188.112 49.61L186.232 51.5297C186.413 51.4759 186.592 51.4355 186.769 51.4086C186.95 51.3779 187.12 51.3625 187.282 51.3625H189.42ZM196.853 48.5204C196.853 49.2468 196.773 49.879 196.616 50.4171C196.462 50.9512 196.247 51.3933 195.971 51.743C195.697 52.0927 195.372 52.3541 194.996 52.5271C194.623 52.6962 194.219 52.7807 193.786 52.7807C193.351 52.7807 192.948 52.6962 192.575 52.5271C192.206 52.3541 191.884 52.0927 191.612 51.743C191.339 51.3933 191.126 50.9512 190.972 50.4171C190.818 49.879 190.742 49.2468 190.742 48.5204C190.742 47.7902 190.818 47.1579 190.972 46.6237C191.126 46.0895 191.339 45.6474 191.612 45.2977C191.884 44.948 192.206 44.6886 192.575 44.5194C192.948 44.3465 193.351 44.26 193.786 44.26C194.219 44.26 194.623 44.3465 194.996 44.5194C195.372 44.6886 195.697 44.948 195.971 45.2977C196.247 45.6474 196.462 46.0895 196.616 46.6237C196.773 47.1579 196.853 47.7902 196.853 48.5204ZM195.383 48.5204C195.383 47.917 195.338 47.4173 195.25 47.0215C195.161 46.6256 195.043 46.3104 194.893 46.076C194.746 45.8416 194.577 45.6782 194.385 45.586C194.193 45.4899 193.993 45.4418 193.786 45.4418C193.582 45.4418 193.383 45.4899 193.192 45.586C193.003 45.6782 192.836 45.8416 192.69 46.076C192.544 46.3104 192.426 46.6256 192.339 47.0215C192.253 47.4173 192.212 47.917 192.212 48.5204C192.212 49.1237 192.253 49.6234 192.339 50.0193C192.426 50.4151 192.544 50.7303 192.69 50.9647C192.836 51.1991 193.003 51.3645 193.192 51.4605C193.383 51.5528 193.582 51.5989 193.786 51.5989C193.993 51.5989 194.193 51.5528 194.385 51.4605C194.577 51.3645 194.746 51.1991 194.893 50.9647C195.043 50.7303 195.161 50.4151 195.25 50.0193C195.338 49.6234 195.383 49.1237 195.383 48.5204ZM202.796 51.3625C202.951 51.3625 203.072 51.4067 203.16 51.4951C203.252 51.5796 203.298 51.6931 203.298 51.8353V52.6885H197.579V52.2157C197.579 52.1197 197.599 52.0197 197.637 51.916C197.679 51.8084 197.745 51.7122 197.833 51.6277L200.364 49.0911C200.576 48.8758 200.764 48.6703 200.929 48.4742C201.098 48.2782 201.239 48.0842 201.349 47.892C201.461 47.6998 201.545 47.5057 201.603 47.3097C201.665 47.1099 201.695 46.9004 201.695 46.6813C201.695 46.4815 201.667 46.3066 201.609 46.1567C201.551 46.003 201.469 45.8742 201.361 45.7704C201.257 45.6667 201.13 45.5898 200.981 45.5398C200.835 45.486 200.669 45.4591 200.485 45.4591C200.316 45.4591 200.158 45.4842 200.012 45.5341C199.87 45.5802 199.743 45.6474 199.631 45.7359C199.521 45.8204 199.426 45.9203 199.349 46.0356C199.273 46.1509 199.215 46.2778 199.176 46.4161C199.111 46.5929 199.026 46.7101 198.922 46.7678C198.819 46.8254 198.669 46.8389 198.473 46.8082L197.723 46.6756C197.781 46.2758 197.893 45.9261 198.058 45.6263C198.224 45.3227 198.429 45.0709 198.674 44.8711C198.925 44.6674 199.209 44.5156 199.528 44.4157C199.851 44.3119 200.196 44.26 200.565 44.26C200.951 44.26 201.302 44.3177 201.62 44.433C201.94 44.5445 202.213 44.7039 202.439 44.9115C202.666 45.119 202.843 45.3689 202.969 45.6609C203.096 45.953 203.16 46.2778 203.16 46.6352C203.16 46.9427 203.114 47.227 203.021 47.4884C202.934 47.7498 202.813 47.9996 202.658 48.2379C202.508 48.4762 202.332 48.7068 202.128 48.9297C201.925 49.1526 201.712 49.3794 201.488 49.61L199.608 51.5297C199.789 51.4759 199.968 51.4355 200.145 51.4086C200.326 51.3779 200.496 51.3625 200.658 51.3625H202.796ZM210.125 44.3523V44.9691C210.125 45.1536 210.107 45.3035 210.067 45.4188C210.029 45.5303 209.991 45.6244 209.952 45.7013L206.793 52.2042C206.728 52.3388 206.636 52.4541 206.516 52.5501C206.397 52.6424 206.238 52.6885 206.038 52.6885H205.006L208.228 46.3181C208.302 46.1875 208.372 46.0683 208.442 45.9607C208.515 45.8492 208.596 45.7436 208.684 45.6436H204.694C204.607 45.6436 204.529 45.611 204.464 45.5456C204.399 45.4802 204.366 45.4034 204.366 45.315V44.3523H210.125Z" fill="#002642"/>
<path d="M100.119 26.5337L103.488 42.8447C103.832 44.5092 105.46 45.5798 107.125 45.2359L137.183 39.026C138.847 38.6821 139.918 37.054 139.574 35.3895L136.204 19.0785C135.86 17.4141 134.232 16.3435 132.568 16.6874L102.51 22.8973C100.845 23.2412 99.7747 24.8693 100.119 26.5337Z" fill="#6B1414"/>
<path d="M115.625 33.822L102.04 29.1005C99.122 28.0864 99.4059 23.9201 102.435 23.3017L132.992 17.063C134.642 16.7259 136.256 17.7752 136.598 19.4064L139.935 35.3713C140.39 37.5478 138.388 39.4465 136.206 38.9074L115.625 33.822Z" fill="#771616"/>
<path d="M115.625 33.822L102.04 29.1005C99.122 28.0864 99.4059 23.9201 102.435 23.3017L132.992 17.063C134.642 16.7259 136.256 17.7752 136.598 19.4064L139.935 35.3713C140.39 37.5478 138.388 39.4465 136.206 38.9074L115.625 33.822Z" fill="#771616"/>
<path d="M115.671 23.7617L103.643 26.2467L104.353 29.6834L116.381 27.1985L115.671 23.7617Z" fill="#530202"/>
<path d="M109.685 29.4771L104.53 30.5421L105.24 33.9788L110.395 32.9139L109.685 29.4771Z" fill="#530202"/>
<path d="M135.162 31.3809L130.007 32.4459L130.717 35.8826L135.872 34.8177L135.162 31.3809Z" fill="#FEB4B4"/>
<path d="M80.5356 43.4523L74.4699 58.964C73.8509 60.5469 74.6323 62.3319 76.2152 62.9508L104.8 74.1287C106.383 74.7477 108.168 73.9663 108.787 72.3834L114.853 56.8717C115.472 55.2889 114.69 53.5039 113.107 52.8849L84.5224 41.707C82.9395 41.088 81.1546 41.8694 80.5356 43.4523Z" fill="#1F6698"/>
<path d="M114.54 53.446L105.967 50.0936C105.176 49.7841 104.284 50.1748 103.974 50.9662L96.7876 69.344C96.4781 70.1354 96.8688 71.0279 97.6602 71.3374L106.233 74.6898C107.025 74.9993 107.917 74.6086 108.227 73.8171L115.413 55.4394C115.723 54.6479 115.332 53.7555 114.54 53.446Z" fill="#216EA4"/>
<path d="M93.9356 52.548L82.4966 48.0748L81.2185 51.3431L92.6576 55.8163L93.9356 52.548Z" fill="#184E73"/>
<path d="M89.1878 45.4157L84.2854 43.4987L83.0074 46.767L87.9098 48.684L89.1878 45.4157Z" fill="#184E73"/>
<path d="M105.959 65.1627L101.057 63.2456L99.7786 66.5139L104.681 68.431L105.959 65.1627Z" fill="#A9C9E0"/>
<path d="M99.6034 6.84247L83.911 1.26112C82.3096 0.691571 80.5498 1.528 79.9802 3.12934L70.8709 28.7409C70.3014 30.3423 71.1378 32.1021 72.7391 32.6717L88.4316 38.253C90.0329 38.8226 91.7928 37.9861 92.3623 36.3848L101.472 10.7732C102.041 9.17188 101.205 7.41202 99.6034 6.84247Z" fill="#956A2B"/>
<path d="M85.8421 18.7087L77.1692 15.624C76.3686 15.3393 75.4886 15.7575 75.2039 16.5581L70.3552 30.1905C70.0704 30.9912 70.4887 31.8711 71.2893 32.1559L79.9622 35.2406C80.7628 35.5253 81.6428 35.1071 81.9275 34.3065L86.7762 20.6741C87.061 19.8734 86.6427 18.9935 85.8421 18.7087Z" fill="#9B6E29"/>
<path d="M101.053 7.35776L92.3804 4.27308C91.5797 3.9883 90.6998 4.40652 90.415 5.20719L85.5664 18.8396C85.2816 19.6402 85.6998 20.5202 86.5005 20.8049L95.1734 23.8896C95.974 24.1744 96.854 23.7562 97.1387 22.9555L101.987 9.32313C102.272 8.52246 101.854 7.64254 101.053 7.35776Z" fill="#9B6E29"/>
<path d="M95.8352 8.29557L91.7192 19.8679L95.0256 21.0439L99.1416 9.47156L95.8352 8.29557Z" fill="#60451C"/>
<path d="M90.8752 6.53138L89.6992 9.83777L93.0056 11.0138L94.1816 7.70737L90.8752 6.53138Z" fill="#60451C"/>
<path d="M89.4638 10.4993L88.2878 13.8057L91.5942 14.9816L92.7702 11.6753L89.4638 10.4993Z" fill="#60451C"/>
<path d="M75.5533 23.43L73.7893 28.3895L77.0957 29.5655L78.8597 24.6059L75.5533 23.43Z" fill="#ECC488"/>
<path d="M179.141 49.2601L172.696 58.7979L168.384 45.1647L179.141 49.2601Z" fill="#002642"/>
<path d="M17.6924 48.7829V50.3827H10.7743V48.7829H13.3081V41.493C13.3081 41.2048 13.3167 40.9079 13.334 40.6023L11.5353 42.107C11.4316 42.1877 11.3278 42.2396 11.224 42.2627C11.126 42.28 11.0309 42.28 10.9386 42.2627C10.8522 42.2454 10.7743 42.2165 10.7052 42.1762C10.636 42.1301 10.5841 42.0811 10.5495 42.0292L9.875 41.1039L13.6886 37.8611H15.444V48.7829H17.6924ZM27.7249 48.7829V50.3827H20.8069V48.7829H23.3406V41.493C23.3406 41.2048 23.3493 40.9079 23.3665 40.6023L21.5679 42.107C21.4641 42.1877 21.3603 42.2396 21.2565 42.2627C21.1585 42.28 21.0634 42.28 20.9712 42.2627C20.8847 42.2454 20.8069 42.2165 20.7377 42.1762C20.6685 42.1301 20.6166 42.0811 20.582 42.0292L19.9075 41.1039L23.7211 37.8611H25.4765V48.7829H27.7249ZM29.5508 49.2066C29.5508 49.0279 29.5825 48.8578 29.6459 48.6964C29.7151 48.535 29.8074 48.3966 29.9227 48.2813C30.038 48.166 30.1763 48.0738 30.3377 48.0046C30.4992 47.9354 30.6721 47.9009 30.8566 47.9009C31.0411 47.9009 31.2111 47.9354 31.3668 48.0046C31.5282 48.0738 31.6666 48.166 31.7819 48.2813C31.9029 48.3966 31.9981 48.535 32.0672 48.6964C32.1364 48.8578 32.171 49.0279 32.171 49.2066C32.171 49.3911 32.1364 49.5641 32.0672 49.7255C31.9981 49.8811 31.9029 50.0166 31.7819 50.1319C31.6666 50.2472 31.5282 50.3366 31.3668 50.4C31.2111 50.4692 31.0411 50.5038 30.8566 50.5038C30.6721 50.5038 30.4992 50.4692 30.3377 50.4C30.1763 50.3366 30.038 50.2472 29.9227 50.1319C29.8074 50.0166 29.7151 49.8811 29.6459 49.7255C29.5825 49.5641 29.5508 49.3911 29.5508 49.2066ZM37.9269 48.8521C38.2786 48.8521 38.587 48.8031 38.8522 48.7051C39.1174 48.6013 39.3394 48.4601 39.5181 48.2813C39.7026 48.1026 39.8409 47.8893 39.9332 47.6414C40.0254 47.3935 40.0715 47.1255 40.0715 46.8372C40.0715 46.1512 39.8813 45.6323 39.5008 45.2806C39.1203 44.929 38.5957 44.7531 37.9269 44.7531C37.2582 44.7531 36.7336 44.929 36.3531 45.2806C35.9726 45.6323 35.7823 46.1512 35.7823 46.8372C35.7823 47.1255 35.8285 47.3935 35.9207 47.6414C36.0129 47.8893 36.1484 48.1026 36.3271 48.2813C36.5116 48.4601 36.7365 48.6013 37.0016 48.7051C37.2668 48.8031 37.5753 48.8521 37.9269 48.8521ZM37.9269 39.3484C37.6099 39.3484 37.336 39.3974 37.1054 39.4954C36.8748 39.5934 36.6817 39.726 36.526 39.8932C36.3761 40.0546 36.2637 40.242 36.1888 40.4553C36.1196 40.6686 36.085 40.8935 36.085 41.1298C36.085 41.3777 36.1138 41.6199 36.1715 41.8562C36.2349 42.0868 36.3387 42.2944 36.4828 42.4788C36.6269 42.6576 36.8172 42.8017 37.0535 42.9112C37.2899 43.0208 37.581 43.0755 37.9269 43.0755C38.2728 43.0755 38.564 43.0208 38.8003 42.9112C39.0367 42.8017 39.2269 42.6576 39.3711 42.4788C39.5152 42.2944 39.6161 42.0868 39.6737 41.8562C39.7372 41.6199 39.7689 41.3777 39.7689 41.1298C39.7689 40.8935 39.7314 40.6686 39.6564 40.4553C39.5815 40.242 39.4691 40.0546 39.3192 39.8932C39.1693 39.726 38.979 39.5934 38.7484 39.4954C38.5178 39.3974 38.244 39.3484 37.9269 39.3484ZM40.0369 43.8624C40.7979 44.1103 41.36 44.4908 41.7232 45.0039C42.0864 45.5112 42.268 46.1339 42.268 46.8718C42.268 47.4252 42.1613 47.9268 41.948 48.3765C41.7405 48.8261 41.4465 49.2095 41.066 49.5266C40.6855 49.8437 40.2272 50.0887 39.691 50.2616C39.1606 50.4346 38.5726 50.5211 37.9269 50.5211C37.2812 50.5211 36.6903 50.4346 36.1542 50.2616C35.6238 50.0887 35.1684 49.8437 34.7879 49.5266C34.4074 49.2095 34.1105 48.8261 33.8972 48.3765C33.6896 47.9268 33.5859 47.4252 33.5859 46.8718C33.5859 46.1339 33.7675 45.5112 34.1307 45.0039C34.4939 44.4908 35.0559 44.1103 35.8169 43.8624C35.2116 43.6088 34.7562 43.2485 34.4506 42.7815C34.1508 42.3145 34.0009 41.7524 34.0009 41.0952C34.0009 40.6225 34.0961 40.1815 34.2863 39.7722C34.4823 39.3628 34.7533 39.0083 35.0992 38.7085C35.4451 38.403 35.8573 38.1666 36.3358 37.9994C36.82 37.8265 37.3504 37.74 37.9269 37.74C38.5034 37.74 39.0309 37.8265 39.5094 37.9994C39.9937 38.1666 40.4088 38.403 40.7547 38.7085C41.1006 39.0083 41.3687 39.3628 41.5589 39.7722C41.7549 40.1815 41.8529 40.6225 41.8529 41.0952C41.8529 41.7524 41.7001 42.3145 41.3946 42.7815C41.0948 43.2485 40.6423 43.6088 40.0369 43.8624ZM49.3863 40.905C49.3863 41.3777 49.3056 41.8043 49.1442 42.1848C48.9885 42.5653 48.7781 42.891 48.5129 43.162C48.2477 43.4272 47.9393 43.6318 47.5876 43.776C47.236 43.9201 46.8699 43.9922 46.4894 43.9922C46.0743 43.9922 45.6909 43.9201 45.3393 43.776C44.9876 43.6318 44.682 43.4272 44.4226 43.162C44.169 42.891 43.9701 42.5653 43.8259 42.1848C43.6818 41.8043 43.6097 41.3777 43.6097 40.905C43.6097 40.4207 43.6818 39.9826 43.8259 39.5906C43.9701 39.1985 44.169 38.8671 44.4226 38.5961C44.682 38.3251 44.9876 38.1176 45.3393 37.9735C45.6909 37.8236 46.0743 37.7486 46.4894 37.7486C46.9045 37.7486 47.2878 37.8236 47.6395 37.9735C47.9969 38.1176 48.3054 38.3251 48.5648 38.5961C48.8242 38.8671 49.026 39.1985 49.1701 39.5906C49.3142 39.9826 49.3863 40.4207 49.3863 40.905ZM47.7433 40.905C47.7433 40.5706 47.7087 40.291 47.6395 40.0662C47.5761 39.8413 47.4867 39.6597 47.3714 39.5214C47.2619 39.383 47.1293 39.285 46.9736 39.2274C46.8237 39.164 46.6623 39.1322 46.4894 39.1322C46.3164 39.1322 46.155 39.164 46.0051 39.2274C45.8552 39.285 45.7255 39.383 45.616 39.5214C45.5122 39.6597 45.4286 39.8413 45.3652 40.0662C45.3018 40.291 45.2701 40.5706 45.2701 40.905C45.2701 41.2278 45.3018 41.4988 45.3652 41.7179C45.4286 41.9312 45.5122 42.1041 45.616 42.2367C45.7255 42.3693 45.8552 42.4644 46.0051 42.5221C46.155 42.5797 46.3164 42.6086 46.4894 42.6086C46.6623 42.6086 46.8237 42.5797 46.9736 42.5221C47.1293 42.4644 47.2619 42.3693 47.3714 42.2367C47.4867 42.1041 47.5761 41.9312 47.6395 41.7179C47.7087 41.4988 47.7433 41.2278 47.7433 40.905ZM53.5458 38.2156C53.6207 38.1291 53.7072 38.0513 53.8052 37.9821C53.909 37.9129 54.0531 37.8784 54.2376 37.8784H55.7941L46.5067 50.0627C46.4317 50.155 46.3424 50.2328 46.2386 50.2962C46.1348 50.3539 46.008 50.3827 45.8581 50.3827H44.267L53.5458 38.2156ZM56.4513 47.4425C56.4513 47.9153 56.3706 48.3419 56.2092 48.7224C56.0536 49.1029 55.8431 49.4286 55.5779 49.6995C55.3128 49.9647 55.0043 50.1723 54.6527 50.3222C54.301 50.4663 53.9349 50.5384 53.5544 50.5384C53.1393 50.5384 52.756 50.4663 52.4043 50.3222C52.0526 50.1723 51.7471 49.9647 51.4877 49.6995C51.234 49.4286 51.0351 49.1029 50.891 48.7224C50.7468 48.3419 50.6748 47.9153 50.6748 47.4425C50.6748 46.9583 50.7468 46.5201 50.891 46.1281C51.0351 45.7361 51.234 45.4046 51.4877 45.1336C51.7471 44.8627 52.0526 44.6551 52.4043 44.511C52.756 44.3611 53.1393 44.2862 53.5544 44.2862C53.9695 44.2862 54.3529 44.3611 54.7045 44.511C55.062 44.6551 55.3675 44.8627 55.6212 45.1336C55.8806 45.4046 56.0824 45.7361 56.2265 46.1281C56.3764 46.5201 56.4513 46.9583 56.4513 47.4425ZM54.7997 47.4425C54.7997 47.1082 54.768 46.8286 54.7045 46.6037C54.6411 46.3789 54.5518 46.1973 54.4365 46.0589C54.3269 45.9206 54.1943 45.8226 54.0387 45.7649C53.8888 45.7015 53.7274 45.6698 53.5544 45.6698C53.3815 45.6698 53.22 45.7015 53.0702 45.7649C52.9203 45.8226 52.7906 45.9206 52.681 46.0589C52.5715 46.1973 52.485 46.3789 52.4216 46.6037C52.3639 46.8286 52.3351 47.1082 52.3351 47.4425C52.3351 47.7654 52.3639 48.0363 52.4216 48.2554C52.485 48.4745 52.5715 48.6503 52.681 48.7829C52.7906 48.9155 52.9203 49.0106 53.0702 49.0683C53.22 49.1259 53.3815 49.1547 53.5544 49.1547C53.7274 49.1547 53.8888 49.1259 54.0387 49.0683C54.1943 49.0106 54.3269 48.9155 54.4365 48.7829C54.5518 48.6503 54.6411 48.4745 54.7045 48.2554C54.768 48.0363 54.7997 47.7654 54.7997 47.4425Z" fill="#3D7534"/>
</svg>
