<svg width="218" height="218" viewBox="0 0 218 218" fill="none" xmlns="http://www.w3.org/2000/svg">
<rect width="218" height="218" fill="white"/>
<g clip-path="url(#clip0_4420_635)">
<path d="M158.665 101.512C158.665 112.441 154.967 123.059 148.155 131.694C141.342 140.329 131.801 146.491 121.035 149.209C110.269 151.927 98.8891 151.046 88.6879 146.706C78.4867 142.366 70.0439 134.812 64.689 125.236C59.3341 115.659 57.3716 104.603 59.1103 93.8087C60.8492 83.0147 66.1906 73.096 74.2933 65.6149C82.3961 58.1338 92.7998 53.5153 103.866 52.4868C114.932 51.4583 126.032 54.0783 135.417 59.9341L122.086 80.5875C117.362 77.6404 111.776 76.322 106.207 76.8395C100.638 77.3571 95.4024 79.6814 91.3245 83.4464C87.2467 87.2113 84.5585 92.2031 83.6835 97.6352C82.8084 103.068 83.7961 108.632 86.491 113.451C89.1859 118.271 93.4349 122.072 98.5688 124.256C103.703 126.44 109.43 126.884 114.848 125.516C120.266 124.148 125.067 121.047 128.496 116.701C131.924 112.356 133.785 107.012 133.785 101.512H158.665Z" fill="#1F6698"/>
<path d="M143.797 56.3467C150.92 60.7912 156.786 66.9327 160.85 74.2012C164.914 81.4699 167.045 89.63 167.045 97.9246H142.167C142.167 93.75 141.095 89.6429 139.05 85.9846C137.004 82.3264 134.052 79.2354 130.467 76.9984L143.797 56.3467Z" fill="#94B9D3"/>
<path d="M41.6579 165.066H29.0312V177.693H41.6579V165.066Z" fill="#1F6698"/>
<path d="M41.6579 183.794H29.0312V196.42H41.6579V183.794Z" fill="#94B9D3"/>
<path d="M38.7309 32.2127L36.879 27.1516C36.7877 26.9271 36.693 26.6606 36.5948 26.3519C36.4966 26.0432 36.3984 25.71 36.3002 25.3523C36.209 25.71 36.1143 26.0468 36.0161 26.3624C35.9179 26.6711 35.8232 26.9411 35.732 27.1726L33.8906 32.2127H38.7309ZM43.7289 37.9579H41.5403C41.2947 37.9579 41.0948 37.8983 40.9405 37.779C40.7861 37.6527 40.6704 37.4984 40.5933 37.316L39.4569 34.212H33.1541L32.0177 37.316C31.9616 37.4774 31.8528 37.6247 31.6915 37.7579C31.5302 37.8912 31.3302 37.9579 31.0917 37.9579H28.8821L34.8692 22.7428H37.7523L43.7289 37.9579ZM51.4436 29.9189C51.149 29.5612 50.8263 29.3086 50.4756 29.1613C50.1319 29.014 49.7601 28.9404 49.3602 28.9404C48.9674 28.9404 48.6131 29.014 48.2975 29.1613C47.9818 29.3086 47.7118 29.5331 47.4873 29.8347C47.2628 30.1294 47.091 30.5082 46.9717 30.9711C46.8524 31.4271 46.7928 31.9672 46.7928 32.5915C46.7928 33.2229 46.8419 33.7595 46.9401 34.2014C47.0453 34.6364 47.1926 34.9941 47.382 35.2747C47.5714 35.5483 47.8029 35.7482 48.0765 35.8745C48.3501 35.9937 48.6552 36.0533 48.9919 36.0533C49.5321 36.0533 49.9915 35.9411 50.3703 35.7166C50.7491 35.4921 51.1069 35.173 51.4436 34.7591V29.9189ZM54.0426 22.3219V37.9579H52.4537C52.11 37.9579 51.8925 37.8 51.8014 37.4844L51.5804 36.4427C51.1454 36.9407 50.6439 37.344 50.0757 37.6527C49.5145 37.9614 48.8587 38.1157 48.1081 38.1157C47.5188 38.1157 46.9787 37.993 46.4877 37.7474C45.9967 37.5019 45.5722 37.1477 45.2145 36.6847C44.8637 36.2147 44.5901 35.636 44.3937 34.9485C44.2043 34.261 44.1096 33.4754 44.1096 32.5915C44.1096 31.7919 44.2184 31.0483 44.4358 30.3608C44.6533 29.6734 44.9655 29.0771 45.3723 28.5721C45.7791 28.067 46.2667 27.6742 46.8349 27.3936C47.4031 27.106 48.0414 26.9622 48.7499 26.9622C49.3532 26.9622 49.8688 27.0569 50.2967 27.2463C50.7246 27.4357 51.1069 27.6917 51.4436 28.0144V22.3219H54.0426ZM65.9092 27.1621V37.9579H64.3203C63.9765 37.9579 63.7591 37.8 63.6679 37.4844L63.4891 36.6215C63.0471 37.0705 62.5596 37.4353 62.0265 37.7158C61.4933 37.9894 60.8655 38.1262 60.143 38.1262C59.5538 38.1262 59.0311 38.028 58.5752 37.8316C58.1262 37.6281 57.7474 37.344 57.4388 36.9793C57.1301 36.6146 56.8951 36.1831 56.7338 35.6851C56.5794 35.18 56.5023 34.6259 56.5023 34.0226V27.1621H59.1013V34.0226C59.1013 34.6819 59.2521 35.1941 59.5538 35.5588C59.8624 35.9166 60.3219 36.0954 60.9322 36.0954C61.3811 36.0954 61.802 35.9972 62.1948 35.8008C62.5876 35.5974 62.9594 35.3203 63.3102 34.9696V27.1621H65.9092ZM71.1166 22.3219V37.9579H68.5177V22.3219H71.1166ZM77.3047 38.1262C76.3647 38.1262 75.6422 37.8632 75.1371 37.3371C74.639 36.804 74.39 36.0709 74.39 35.1379V29.1087H73.2852C73.1449 29.1087 73.0256 29.0631 72.9275 28.9719C72.8292 28.8808 72.7801 28.744 72.7801 28.5616V27.5304L74.5163 27.2463L75.0635 24.3001C75.0985 24.1598 75.1651 24.051 75.2634 23.9739C75.3615 23.8967 75.4878 23.8581 75.6422 23.8581H76.989V27.2568H79.8721V29.1087H76.989V34.959C76.989 35.2957 77.0697 35.5588 77.231 35.7482C77.3994 35.9376 77.6273 36.0323 77.915 36.0323C78.0763 36.0323 78.2096 36.0148 78.3148 35.9797C78.427 35.9376 78.5217 35.8955 78.5989 35.8534C78.6831 35.8113 78.7567 35.7728 78.8199 35.7377C78.883 35.6956 78.9461 35.6745 79.0093 35.6745C79.0864 35.6745 79.1495 35.6956 79.1987 35.7377C79.2477 35.7728 79.3004 35.8288 79.3565 35.906L80.1351 37.1687C79.7563 37.4844 79.3214 37.7228 78.8304 37.8842C78.3393 38.0456 77.8308 38.1262 77.3047 38.1262ZM88.1229 29.2665C88.0528 29.3787 87.9791 29.4595 87.9019 29.5085C87.8248 29.5506 87.7266 29.5717 87.6073 29.5717C87.4811 29.5717 87.3443 29.5366 87.197 29.4665C87.0567 29.3963 86.8918 29.3191 86.7024 29.235C86.513 29.1438 86.2956 29.0631 86.05 28.993C85.8116 28.9228 85.5275 28.8877 85.1977 28.8877C84.6857 28.8877 84.2823 28.9965 83.9877 29.2139C83.7001 29.4314 83.5563 29.7155 83.5563 30.0662C83.5563 30.2977 83.6299 30.4941 83.7773 30.6555C83.9316 30.8098 84.1315 30.9466 84.377 31.0658C84.6295 31.1851 84.9136 31.2938 85.2293 31.392C85.545 31.4832 85.8642 31.585 86.1868 31.6972C86.5165 31.8094 86.8392 31.9392 87.1549 32.0865C87.4705 32.2268 87.7512 32.4091 87.9966 32.6336C88.2492 32.8511 88.4491 33.1141 88.5964 33.4228C88.7508 33.7315 88.8279 34.1032 88.8279 34.5382C88.8279 35.0573 88.7332 35.5378 88.5438 35.9797C88.3615 36.4146 88.0879 36.7934 87.7231 37.1161C87.3583 37.4318 86.9059 37.6807 86.3657 37.8632C85.8326 38.0385 85.2153 38.1262 84.5138 38.1262C84.1421 38.1262 83.7772 38.0911 83.4195 38.021C83.0688 37.9579 82.7286 37.8667 82.3988 37.7474C82.0762 37.6281 81.7746 37.4879 81.4939 37.3265C81.2204 37.1652 80.9784 36.9898 80.7679 36.8004L81.3677 35.8113C81.4449 35.6921 81.536 35.6009 81.6413 35.5378C81.7465 35.4746 81.8798 35.4431 82.0411 35.4431C82.2025 35.4431 82.3533 35.4887 82.4935 35.5798C82.6409 35.671 82.8092 35.7692 82.9986 35.8745C83.188 35.9797 83.409 36.0779 83.6615 36.1691C83.9211 36.2603 84.2473 36.3059 84.6401 36.3059C84.9487 36.3059 85.2118 36.2708 85.4292 36.2007C85.6537 36.1235 85.8361 36.0253 85.9764 35.906C86.1237 35.7868 86.2289 35.65 86.292 35.4957C86.3623 35.3343 86.3973 35.1695 86.3973 35.0011C86.3973 34.7486 86.3202 34.5417 86.1658 34.3803C86.0185 34.219 85.8186 34.0787 85.566 33.9594C85.3206 33.8402 85.0365 33.7349 84.7137 33.6438C84.3981 33.5455 84.0719 33.4403 83.7352 33.3281C83.4055 33.2159 83.0793 33.0861 82.7566 32.9388C82.4409 32.7845 82.1568 32.5915 81.9043 32.3601C81.6588 32.1286 81.4589 31.8445 81.3045 31.5078C81.1572 31.1711 81.0836 30.7642 81.0836 30.2872C81.0836 29.8453 81.1713 29.4244 81.3466 29.0245C81.5221 28.6247 81.778 28.2775 82.1147 27.9828C82.4585 27.6812 82.8829 27.4427 83.3879 27.2673C83.9001 27.0849 84.4893 26.9937 85.1557 26.9937C85.8993 26.9937 86.5761 27.1165 87.1864 27.362C87.7967 27.6076 88.3053 27.9302 88.7122 28.3301L88.1229 29.2665ZM98.595 27.1621V37.9579H95.9855V27.1621H98.595ZM98.9528 24.016C98.9528 24.2404 98.9071 24.4509 98.816 24.6473C98.7247 24.8437 98.602 25.0156 98.4477 25.1629C98.3004 25.3102 98.125 25.4295 97.9216 25.5206C97.7181 25.6048 97.5007 25.6469 97.2692 25.6469C97.0447 25.6469 96.8307 25.6048 96.6274 25.5206C96.4309 25.4295 96.2591 25.3102 96.1118 25.1629C95.9645 25.0156 95.8452 24.8437 95.754 24.6473C95.6698 24.4509 95.6277 24.2404 95.6277 24.016C95.6277 23.7845 95.6698 23.567 95.754 23.3636C95.8452 23.1602 95.9645 22.9848 96.1118 22.8375C96.2591 22.6902 96.4309 22.5744 96.6274 22.4903C96.8307 22.3991 97.0447 22.3535 97.2692 22.3535C97.5007 22.3535 97.7181 22.3991 97.9216 22.4903C98.125 22.5744 98.3004 22.6902 98.4477 22.8375C98.602 22.9848 98.7247 23.1602 98.816 23.3636C98.9071 23.567 98.9528 23.7845 98.9528 24.016ZM103.675 28.4879C103.893 28.2705 104.121 28.0705 104.359 27.8881C104.605 27.6987 104.861 27.5409 105.127 27.4146C105.401 27.2814 105.692 27.1796 106.001 27.1095C106.309 27.0323 106.646 26.9937 107.011 26.9937C107.6 26.9937 108.123 27.0954 108.579 27.2989C109.035 27.4953 109.413 27.7759 109.715 28.1407C110.024 28.4984 110.255 28.9298 110.409 29.4349C110.571 29.933 110.651 30.4836 110.651 31.0869V37.9579H108.052V31.0869C108.052 30.4275 107.902 29.9189 107.6 29.5612C107.298 29.1964 106.839 29.014 106.222 29.014C105.773 29.014 105.352 29.1157 104.959 29.3191C104.566 29.5226 104.194 29.7996 103.844 30.1504V37.9579H101.245V27.1621H102.833C103.17 27.1621 103.391 27.3199 103.496 27.6356L103.675 28.4879ZM121.839 38.1262C120.899 38.1262 120.176 37.8632 119.671 37.3371C119.173 36.804 118.925 36.0709 118.925 35.1379V29.1087H117.819C117.679 29.1087 117.56 29.0631 117.462 28.9719C117.363 28.8808 117.314 28.744 117.314 28.5616V27.5304L119.051 27.2463L119.598 24.3001C119.633 24.1598 119.699 24.051 119.798 23.9739C119.896 23.8967 120.022 23.8581 120.176 23.8581H121.523V27.2568H124.406V29.1087H121.523V34.959C121.523 35.2957 121.604 35.5588 121.766 35.7482C121.934 35.9376 122.161 36.0323 122.449 36.0323C122.611 36.0323 122.744 36.0148 122.849 35.9797C122.961 35.9376 123.056 35.8955 123.133 35.8534C123.218 35.8113 123.291 35.7728 123.354 35.7377C123.417 35.6956 123.48 35.6745 123.543 35.6745C123.621 35.6745 123.684 35.6956 123.733 35.7377C123.782 35.7728 123.835 35.8288 123.891 35.906L124.67 37.1687C124.291 37.4844 123.856 37.7228 123.365 37.8842C122.873 38.0456 122.365 38.1262 121.839 38.1262ZM128.669 28.3195C129.09 27.9267 129.553 27.6076 130.058 27.362C130.563 27.1165 131.156 26.9937 131.837 26.9937C132.426 26.9937 132.949 27.0954 133.404 27.2989C133.86 27.4953 134.239 27.7759 134.54 28.1407C134.849 28.4984 135.081 28.9298 135.235 29.4349C135.396 29.933 135.477 30.4836 135.477 31.0869V37.9579H132.878V31.0869C132.878 30.4275 132.727 29.9189 132.426 29.5612C132.124 29.1964 131.665 29.014 131.047 29.014C130.598 29.014 130.177 29.1157 129.784 29.3191C129.392 29.5226 129.02 29.7996 128.669 30.1504V37.9579H126.07V22.3219H128.669V28.3195ZM144.904 31.3184C144.904 30.9817 144.855 30.666 144.757 30.3714C144.665 30.0698 144.525 29.8067 144.336 29.5822C144.147 29.3577 143.904 29.1824 143.61 29.0561C143.323 28.9228 142.986 28.8562 142.6 28.8562C141.849 28.8562 141.256 29.0702 140.822 29.498C140.393 29.9259 140.12 30.5327 140.001 31.3184H144.904ZM139.948 32.8862C139.99 33.4403 140.089 33.9209 140.243 34.3277C140.397 34.7276 140.6 35.0607 140.853 35.3273C141.105 35.5868 141.403 35.7833 141.748 35.9166C142.098 36.0428 142.484 36.106 142.905 36.106C143.326 36.106 143.687 36.0569 143.988 35.9586C144.297 35.8604 144.564 35.7517 144.788 35.6325C145.02 35.5132 145.22 35.4045 145.388 35.3063C145.563 35.208 145.732 35.159 145.893 35.159C146.111 35.159 146.272 35.2396 146.377 35.401L147.124 36.348C146.837 36.6847 146.514 36.9688 146.156 37.2003C145.798 37.4248 145.423 37.6071 145.031 37.7474C144.644 37.8807 144.249 37.9754 143.841 38.0315C143.441 38.0877 143.052 38.1157 142.674 38.1157C141.923 38.1157 141.225 37.993 140.579 37.7474C139.934 37.4949 139.373 37.1266 138.896 36.6426C138.419 36.1516 138.044 35.5483 137.77 34.8328C137.497 34.1103 137.359 33.2755 137.359 32.3285C137.359 31.5919 137.479 30.901 137.717 30.2556C137.956 29.6032 138.296 29.0386 138.738 28.5616C139.187 28.0775 139.731 27.6952 140.369 27.4146C141.014 27.1341 141.74 26.9937 142.547 26.9937C143.227 26.9937 143.855 27.1025 144.43 27.3199C145.006 27.5374 145.5 27.8566 145.914 28.2775C146.328 28.6914 146.651 29.2034 146.882 29.8137C147.121 30.417 147.24 31.1079 147.24 31.8866C147.24 32.2794 147.198 32.5459 147.114 32.6862C147.03 32.8195 146.868 32.8862 146.63 32.8862H139.948ZM160.842 35.6745C161.389 35.6745 161.876 35.5834 162.305 35.401C162.739 35.2186 163.104 34.9626 163.399 34.6328C163.694 34.3031 163.917 33.9033 164.072 33.4333C164.233 32.9634 164.314 32.4373 164.314 31.855V22.7428H167.145V31.855C167.145 32.7599 166.997 33.5981 166.703 34.3698C166.415 35.1344 165.997 35.7973 165.45 36.3585C164.911 36.9126 164.251 37.3476 163.472 37.6632C162.694 37.9719 161.817 38.1262 160.842 38.1262C159.86 38.1262 158.98 37.9719 158.201 37.6632C157.422 37.3476 156.759 36.9126 156.212 36.3585C155.672 35.7973 155.255 35.1344 154.96 34.3698C154.672 33.5981 154.528 32.7599 154.528 31.855V22.7428H157.359V31.8445C157.359 32.4267 157.436 32.9528 157.591 33.4228C157.751 33.8928 157.98 34.2961 158.274 34.6328C158.576 34.9626 158.941 35.2186 159.368 35.401C159.804 35.5834 160.294 35.6745 160.842 35.6745ZM169.178 36.5268C169.178 36.3094 169.216 36.1024 169.294 35.906C169.378 35.7096 169.49 35.5413 169.631 35.401C169.77 35.2606 169.939 35.1484 170.136 35.0643C170.332 34.9801 170.542 34.938 170.767 34.938C170.991 34.938 171.198 34.9801 171.387 35.0643C171.583 35.1484 171.752 35.2606 171.892 35.401C172.04 35.5413 172.156 35.7096 172.24 35.906C172.324 36.1024 172.366 36.3094 172.366 36.5268C172.366 36.7513 172.324 36.9618 172.24 37.1582C172.156 37.3476 172.04 37.5124 171.892 37.6527C171.752 37.793 171.583 37.9017 171.387 37.9789C171.198 38.0631 170.991 38.1052 170.767 38.1052C170.542 38.1052 170.332 38.0631 170.136 37.9789C169.939 37.9017 169.77 37.793 169.631 37.6527C169.49 37.5124 169.378 37.3476 169.294 37.1582C169.216 36.9618 169.178 36.7513 169.178 36.5268ZM183.063 25.5101C182.979 25.6574 182.888 25.7662 182.789 25.8363C182.698 25.8994 182.582 25.931 182.442 25.931C182.295 25.931 182.133 25.8784 181.958 25.7732C181.79 25.661 181.586 25.5382 181.348 25.4049C181.109 25.2716 180.829 25.1524 180.506 25.0471C180.191 24.9349 179.815 24.8788 179.38 24.8788C178.988 24.8788 178.643 24.9279 178.349 25.0261C178.054 25.1173 177.805 25.2471 177.602 25.4154C177.405 25.5838 177.258 25.7872 177.16 26.0257C177.062 26.2572 177.013 26.5133 177.013 26.7938C177.013 27.1516 177.111 27.4497 177.308 27.6882C177.51 27.9267 177.777 28.1301 178.107 28.2985C178.436 28.4669 178.812 28.6177 179.233 28.751C179.654 28.8842 180.085 29.0281 180.527 29.1824C180.969 29.3297 181.4 29.505 181.821 29.7085C182.242 29.9049 182.617 30.1574 182.947 30.4661C183.277 30.7677 183.54 31.1395 183.736 31.5814C183.94 32.0233 184.042 32.56 184.042 33.1913C184.042 33.8788 183.922 34.5241 183.684 35.1274C183.453 35.7236 183.108 36.2463 182.653 36.6952C182.203 37.1371 181.653 37.4879 181 37.7474C180.348 37.9999 179.601 38.1262 178.76 38.1262C178.276 38.1262 177.798 38.0771 177.329 37.9789C176.858 37.8877 176.406 37.7544 175.971 37.5791C175.543 37.4037 175.14 37.1933 174.761 36.9477C174.382 36.7022 174.046 36.4286 173.751 36.127L174.582 34.7696C174.653 34.6714 174.744 34.5908 174.855 34.5276C174.968 34.4575 175.087 34.4224 175.213 34.4224C175.389 34.4224 175.579 34.4961 175.781 34.6434C175.985 34.7837 176.227 34.9415 176.508 35.1169C176.788 35.2922 177.115 35.4536 177.486 35.6009C177.865 35.7412 178.318 35.8113 178.844 35.8113C179.65 35.8113 180.275 35.6219 180.717 35.2431C181.159 34.8574 181.379 34.3067 181.379 33.5912C181.379 33.1913 181.277 32.8651 181.074 32.6126C180.878 32.3601 180.615 32.1496 180.285 31.9813C179.956 31.8059 179.58 31.6586 179.159 31.5393C178.739 31.4201 178.31 31.2903 177.876 31.15C177.441 31.0097 177.013 30.8413 176.592 30.6449C176.171 30.4486 175.796 30.1925 175.466 29.8768C175.137 29.5612 174.87 29.1683 174.666 28.6983C174.47 28.2213 174.371 27.6356 174.371 26.9411C174.371 26.387 174.48 25.8468 174.698 25.3207C174.922 24.7946 175.245 24.3281 175.666 23.9213C176.087 23.5144 176.606 23.1882 177.223 22.9427C177.84 22.6972 178.549 22.5744 179.349 22.5744C180.246 22.5744 181.075 22.7147 181.832 22.9953C182.59 23.2759 183.234 23.6687 183.768 24.1738L183.063 25.5101ZM185.721 36.5268C185.721 36.3094 185.76 36.1024 185.837 35.906C185.921 35.7096 186.033 35.5413 186.174 35.401C186.315 35.2606 186.483 35.1484 186.679 35.0643C186.875 34.9801 187.086 34.938 187.31 34.938C187.535 34.938 187.741 34.9801 187.931 35.0643C188.128 35.1484 188.296 35.2606 188.436 35.401C188.583 35.5413 188.699 35.7096 188.783 35.906C188.868 36.1024 188.91 36.3094 188.91 36.5268C188.91 36.7513 188.868 36.9618 188.783 37.1582C188.699 37.3476 188.583 37.5124 188.436 37.6527C188.296 37.793 188.128 37.9017 187.931 37.9789C187.741 38.0631 187.535 38.1052 187.31 38.1052C187.086 38.1052 186.875 38.0631 186.679 37.9789C186.483 37.9017 186.315 37.793 186.174 37.6527C186.033 37.5124 185.921 37.3476 185.837 37.1582C185.76 36.9618 185.721 36.7513 185.721 36.5268Z" fill="#002642"/>
<path d="M56.8898 187.806C56.8898 188.336 56.8015 188.822 56.6248 189.266C56.4481 189.709 56.1998 190.091 55.8798 190.411C55.5598 190.731 55.1748 190.979 54.7248 191.156C54.2748 191.332 53.7748 191.421 53.2248 191.421H50.4698V184.191H53.2248C53.7748 184.191 54.2748 184.281 54.7248 184.461C55.1748 184.637 55.5598 184.886 55.8798 185.206C56.1998 185.522 56.4481 185.902 56.6248 186.346C56.8015 186.789 56.8898 187.276 56.8898 187.806ZM55.5098 187.806C55.5098 187.409 55.4565 187.054 55.3498 186.741C55.2465 186.424 55.0948 186.157 54.8948 185.941C54.6981 185.721 54.4581 185.552 54.1748 185.436C53.8948 185.319 53.5781 185.261 53.2248 185.261H51.8198V190.351H53.2248C53.5781 190.351 53.8948 190.292 54.1748 190.176C54.4581 190.059 54.6981 189.892 54.8948 189.676C55.0948 189.456 55.2465 189.189 55.3498 188.876C55.4565 188.559 55.5098 188.202 55.5098 187.806ZM60.0839 186.211C60.4639 186.211 60.8089 186.272 61.1189 186.396C61.4322 186.519 61.6989 186.694 61.9189 186.921C62.1422 187.147 62.3139 187.424 62.4339 187.751C62.5539 188.077 62.6139 188.442 62.6139 188.846C62.6139 189.252 62.5539 189.619 62.4339 189.946C62.3139 190.272 62.1422 190.551 61.9189 190.781C61.6989 191.011 61.4322 191.187 61.1189 191.311C60.8089 191.434 60.4639 191.496 60.0839 191.496C59.7005 191.496 59.3522 191.434 59.0389 191.311C58.7255 191.187 58.4572 191.011 58.2339 190.781C58.0139 190.551 57.8422 190.272 57.7189 189.946C57.5989 189.619 57.5389 189.252 57.5389 188.846C57.5389 188.442 57.5989 188.077 57.7189 187.751C57.8422 187.424 58.0139 187.147 58.2339 186.921C58.4572 186.694 58.7255 186.519 59.0389 186.396C59.3522 186.272 59.7005 186.211 60.0839 186.211ZM60.0839 190.546C60.5105 190.546 60.8255 190.402 61.0289 190.116C61.2355 189.829 61.3389 189.409 61.3389 188.856C61.3389 188.302 61.2355 187.881 61.0289 187.591C60.8255 187.301 60.5105 187.156 60.0839 187.156C59.6505 187.156 59.3289 187.302 59.1189 187.596C58.9122 187.886 58.8089 188.306 58.8089 188.856C58.8089 189.406 58.9122 189.826 59.1189 190.116C59.3289 190.402 59.6505 190.546 60.0839 190.546ZM67.1427 186.921C67.246 186.817 67.3544 186.722 67.4677 186.636C67.5844 186.546 67.706 186.471 67.8327 186.411C67.9627 186.347 68.101 186.299 68.2477 186.266C68.3944 186.229 68.5544 186.211 68.7277 186.211C69.0077 186.211 69.256 186.259 69.4727 186.356C69.6894 186.449 69.8694 186.582 70.0127 186.756C70.1594 186.926 70.2694 187.131 70.3427 187.371C70.4194 187.607 70.4577 187.869 70.4577 188.156V191.421H69.2227V188.156C69.2227 187.842 69.151 187.601 69.0077 187.431C68.8644 187.257 68.646 187.171 68.3527 187.171C68.1394 187.171 67.9394 187.219 67.7527 187.316C67.566 187.412 67.3894 187.544 67.2227 187.711V191.421H65.9877V186.291H66.7427C66.9027 186.291 67.0077 186.366 67.0577 186.516L67.1427 186.921ZM73.9022 186.211C74.2822 186.211 74.6272 186.272 74.9372 186.396C75.2506 186.519 75.5172 186.694 75.7372 186.921C75.9606 187.147 76.1322 187.424 76.2522 187.751C76.3722 188.077 76.4322 188.442 76.4322 188.846C76.4322 189.252 76.3722 189.619 76.2522 189.946C76.1322 190.272 75.9606 190.551 75.7372 190.781C75.5172 191.011 75.2506 191.187 74.9372 191.311C74.6272 191.434 74.2822 191.496 73.9022 191.496C73.5189 191.496 73.1706 191.434 72.8572 191.311C72.5439 191.187 72.2756 191.011 72.0522 190.781C71.8322 190.551 71.6606 190.272 71.5372 189.946C71.4172 189.619 71.3572 189.252 71.3572 188.846C71.3572 188.442 71.4172 188.077 71.5372 187.751C71.6606 187.424 71.8322 187.147 72.0522 186.921C72.2756 186.694 72.5439 186.519 72.8572 186.396C73.1706 186.272 73.5189 186.211 73.9022 186.211ZM73.9022 190.546C74.3289 190.546 74.6439 190.402 74.8472 190.116C75.0539 189.829 75.1572 189.409 75.1572 188.856C75.1572 188.302 75.0539 187.881 74.8472 187.591C74.6439 187.301 74.3289 187.156 73.9022 187.156C73.4689 187.156 73.1472 187.302 72.9372 187.596C72.7306 187.886 72.6272 188.306 72.6272 188.856C72.6272 189.406 72.7306 189.826 72.9372 190.116C73.1472 190.402 73.4689 190.546 73.9022 190.546ZM78.9867 191.501C78.5401 191.501 78.1967 191.376 77.9567 191.126C77.7201 190.872 77.6017 190.524 77.6017 190.081V187.216H77.0767C77.0101 187.216 76.9534 187.194 76.9067 187.151C76.8601 187.107 76.8367 187.042 76.8367 186.956V186.466L77.6617 186.331L77.9217 184.931C77.9384 184.864 77.9701 184.812 78.0167 184.776C78.0634 184.739 78.1234 184.721 78.1967 184.721H78.8367V186.336H80.2067V187.216H78.8367V189.996C78.8367 190.156 78.8751 190.281 78.9517 190.371C79.0317 190.461 79.1401 190.506 79.2767 190.506C79.3534 190.506 79.4167 190.497 79.4667 190.481C79.5201 190.461 79.5651 190.441 79.6017 190.421C79.6417 190.401 79.6767 190.382 79.7067 190.366C79.7367 190.346 79.7667 190.336 79.7967 190.336C79.8334 190.336 79.8634 190.346 79.8867 190.366C79.9101 190.382 79.9351 190.409 79.9617 190.446L80.3317 191.046C80.1517 191.196 79.9451 191.309 79.7117 191.386C79.4784 191.462 79.2367 191.501 78.9867 191.501ZM84.6641 186.841C84.8641 186.654 85.0841 186.502 85.3241 186.386C85.5641 186.269 85.8458 186.211 86.1691 186.211C86.4491 186.211 86.6974 186.259 86.9141 186.356C87.1308 186.449 87.3108 186.582 87.4541 186.756C87.6008 186.926 87.7108 187.131 87.7841 187.371C87.8608 187.607 87.8991 187.869 87.8991 188.156V191.421H86.6641V188.156C86.6641 187.842 86.5924 187.601 86.4491 187.431C86.3058 187.257 86.0874 187.171 85.7941 187.171C85.5808 187.171 85.3808 187.219 85.1941 187.316C85.0074 187.412 84.8308 187.544 84.6641 187.711V191.421H83.4291V183.991H84.6641V186.841ZM91.7836 189.231C91.427 189.247 91.127 189.279 90.8836 189.326C90.6403 189.369 90.4453 189.426 90.2986 189.496C90.152 189.566 90.047 189.647 89.9836 189.741C89.9203 189.834 89.8886 189.936 89.8886 190.046C89.8886 190.262 89.952 190.417 90.0786 190.511C90.2086 190.604 90.377 190.651 90.5836 190.651C90.837 190.651 91.0553 190.606 91.2386 190.516C91.4253 190.422 91.607 190.282 91.7836 190.096V189.231ZM88.9536 187.006C89.5436 186.466 90.2536 186.196 91.0836 186.196C91.3836 186.196 91.652 186.246 91.8886 186.346C92.1253 186.442 92.3253 186.579 92.4886 186.756C92.652 186.929 92.7753 187.137 92.8586 187.381C92.9453 187.624 92.9886 187.891 92.9886 188.181V191.421H92.4286C92.312 191.421 92.222 191.404 92.1586 191.371C92.0953 191.334 92.0453 191.262 92.0086 191.156L91.8986 190.786C91.7686 190.902 91.642 191.006 91.5186 191.096C91.3953 191.182 91.267 191.256 91.1336 191.316C91.0003 191.376 90.857 191.421 90.7036 191.451C90.5536 191.484 90.387 191.501 90.2036 191.501C89.987 191.501 89.787 191.472 89.6036 191.416C89.4203 191.356 89.262 191.267 89.1286 191.151C88.9953 191.034 88.892 190.889 88.8186 190.716C88.7453 190.542 88.7086 190.341 88.7086 190.111C88.7086 189.981 88.7303 189.852 88.7736 189.726C88.817 189.596 88.887 189.472 88.9836 189.356C89.0836 189.239 89.212 189.129 89.3686 189.026C89.5253 188.922 89.717 188.832 89.9436 188.756C90.1736 188.679 90.4403 188.617 90.7436 188.571C91.047 188.521 91.3936 188.491 91.7836 188.481V188.181C91.7836 187.837 91.7103 187.584 91.5636 187.421C91.417 187.254 91.2053 187.171 90.9286 187.171C90.7286 187.171 90.562 187.194 90.4286 187.241C90.2986 187.287 90.1836 187.341 90.0836 187.401C89.9836 187.457 89.892 187.509 89.8086 187.556C89.7286 187.602 89.6386 187.626 89.5386 187.626C89.452 187.626 89.3786 187.604 89.3186 187.561C89.2586 187.514 89.2103 187.461 89.1736 187.401L88.9536 187.006ZM98.6596 186.291L96.6246 191.421H95.5046L93.4696 186.291H94.4896C94.5829 186.291 94.6596 186.312 94.7196 186.356C94.7829 186.399 94.8246 186.454 94.8446 186.521L95.8346 189.261C95.8879 189.421 95.9346 189.577 95.9746 189.731C96.0146 189.884 96.0496 190.037 96.0796 190.191C96.1129 190.037 96.1496 189.884 96.1896 189.731C96.2296 189.577 96.2779 189.421 96.3346 189.261L97.3446 186.521C97.3679 186.454 97.4096 186.399 97.4696 186.356C97.5296 186.312 97.6012 186.291 97.6846 186.291H98.6596ZM102.467 188.266C102.467 188.106 102.443 187.956 102.397 187.816C102.353 187.672 102.287 187.547 102.197 187.441C102.107 187.334 101.992 187.251 101.852 187.191C101.715 187.127 101.555 187.096 101.372 187.096C101.015 187.096 100.733 187.197 100.527 187.401C100.323 187.604 100.193 187.892 100.137 188.266H102.467ZM100.112 189.011C100.132 189.274 100.178 189.502 100.252 189.696C100.325 189.886 100.422 190.044 100.542 190.171C100.662 190.294 100.803 190.387 100.967 190.451C101.133 190.511 101.317 190.541 101.517 190.541C101.717 190.541 101.888 190.517 102.032 190.471C102.178 190.424 102.305 190.372 102.412 190.316C102.522 190.259 102.617 190.207 102.697 190.161C102.78 190.114 102.86 190.091 102.937 190.091C103.04 190.091 103.117 190.129 103.167 190.206L103.522 190.656C103.385 190.816 103.232 190.951 103.062 191.061C102.892 191.167 102.713 191.254 102.527 191.321C102.343 191.384 102.155 191.429 101.962 191.456C101.772 191.482 101.587 191.496 101.407 191.496C101.05 191.496 100.718 191.437 100.412 191.321C100.105 191.201 99.8382 191.026 99.6115 190.796C99.3848 190.562 99.2065 190.276 99.0765 189.936C98.9465 189.592 98.8815 189.196 98.8815 188.746C98.8815 188.396 98.9382 188.067 99.0515 187.761C99.1648 187.451 99.3265 187.182 99.5365 186.956C99.7498 186.726 100.008 186.544 100.312 186.411C100.618 186.277 100.963 186.211 101.347 186.211C101.67 186.211 101.968 186.262 102.242 186.366C102.515 186.469 102.75 186.621 102.947 186.821C103.143 187.017 103.297 187.261 103.407 187.551C103.52 187.837 103.577 188.166 103.577 188.536C103.577 188.722 103.557 188.849 103.517 188.916C103.477 188.979 103.4 189.011 103.287 189.011H100.112ZM110.61 187.376C110.573 187.422 110.537 187.459 110.5 187.486C110.467 187.512 110.417 187.526 110.35 187.526C110.287 187.526 110.225 187.507 110.165 187.471C110.105 187.431 110.033 187.387 109.95 187.341C109.867 187.291 109.767 187.247 109.65 187.211C109.537 187.171 109.395 187.151 109.225 187.151C109.008 187.151 108.818 187.191 108.655 187.271C108.492 187.347 108.355 187.459 108.245 187.606C108.138 187.752 108.058 187.931 108.005 188.141C107.952 188.347 107.925 188.582 107.925 188.846C107.925 189.119 107.953 189.362 108.01 189.576C108.07 189.789 108.155 189.969 108.265 190.116C108.375 190.259 108.508 190.369 108.665 190.446C108.822 190.519 108.998 190.556 109.195 190.556C109.392 190.556 109.55 190.532 109.67 190.486C109.793 190.436 109.897 190.382 109.98 190.326C110.063 190.266 110.135 190.212 110.195 190.166C110.258 190.116 110.328 190.091 110.405 190.091C110.505 190.091 110.58 190.129 110.63 190.206L110.985 190.656C110.848 190.816 110.7 190.951 110.54 191.061C110.38 191.167 110.213 191.254 110.04 191.321C109.87 191.384 109.693 191.429 109.51 191.456C109.33 191.482 109.15 191.496 108.97 191.496C108.653 191.496 108.355 191.437 108.075 191.321C107.795 191.201 107.55 191.027 107.34 190.801C107.13 190.574 106.963 190.297 106.84 189.971C106.72 189.641 106.66 189.266 106.66 188.846C106.66 188.469 106.713 188.121 106.82 187.801C106.93 187.477 107.09 187.199 107.3 186.966C107.51 186.729 107.77 186.544 108.08 186.411C108.39 186.277 108.747 186.211 109.15 186.211C109.533 186.211 109.868 186.272 110.155 186.396C110.445 186.519 110.705 186.696 110.935 186.926L110.61 187.376ZM112.924 187.181C113.084 186.874 113.274 186.634 113.494 186.461C113.714 186.284 113.974 186.196 114.274 186.196C114.511 186.196 114.701 186.247 114.844 186.351L114.764 187.276C114.748 187.336 114.723 187.379 114.689 187.406C114.659 187.429 114.618 187.441 114.564 187.441C114.514 187.441 114.439 187.432 114.339 187.416C114.243 187.399 114.148 187.391 114.054 187.391C113.918 187.391 113.796 187.411 113.689 187.451C113.583 187.491 113.486 187.549 113.399 187.626C113.316 187.699 113.241 187.789 113.174 187.896C113.111 188.002 113.051 188.124 112.994 188.261V191.421H111.759V186.291H112.484C112.611 186.291 112.699 186.314 112.749 186.361C112.799 186.404 112.833 186.484 112.849 186.601L112.924 187.181ZM118.648 188.266C118.648 188.106 118.625 187.956 118.578 187.816C118.535 187.672 118.468 187.547 118.378 187.441C118.288 187.334 118.173 187.251 118.033 187.191C117.896 187.127 117.736 187.096 117.553 187.096C117.196 187.096 116.915 187.197 116.708 187.401C116.505 187.604 116.375 187.892 116.318 188.266H118.648ZM116.293 189.011C116.313 189.274 116.36 189.502 116.433 189.696C116.506 189.886 116.603 190.044 116.723 190.171C116.843 190.294 116.985 190.387 117.148 190.451C117.315 190.511 117.498 190.541 117.698 190.541C117.898 190.541 118.07 190.517 118.213 190.471C118.36 190.424 118.486 190.372 118.593 190.316C118.703 190.259 118.798 190.207 118.878 190.161C118.961 190.114 119.041 190.091 119.118 190.091C119.221 190.091 119.298 190.129 119.348 190.206L119.703 190.656C119.566 190.816 119.413 190.951 119.243 191.061C119.073 191.167 118.895 191.254 118.708 191.321C118.525 191.384 118.336 191.429 118.143 191.456C117.953 191.482 117.768 191.496 117.588 191.496C117.231 191.496 116.9 191.437 116.593 191.321C116.286 191.201 116.02 191.026 115.793 190.796C115.566 190.562 115.388 190.276 115.258 189.936C115.128 189.592 115.063 189.196 115.063 188.746C115.063 188.396 115.12 188.067 115.233 187.761C115.346 187.451 115.508 187.182 115.718 186.956C115.931 186.726 116.19 186.544 116.493 186.411C116.8 186.277 117.145 186.211 117.528 186.211C117.851 186.211 118.15 186.262 118.423 186.366C118.696 186.469 118.931 186.621 119.128 186.821C119.325 187.017 119.478 187.261 119.588 187.551C119.701 187.837 119.758 188.166 119.758 188.536C119.758 188.722 119.738 188.849 119.698 188.916C119.658 188.979 119.581 189.011 119.468 189.011H116.293ZM123.905 187.601C123.765 187.431 123.612 187.311 123.445 187.241C123.282 187.171 123.105 187.136 122.915 187.136C122.728 187.136 122.56 187.171 122.41 187.241C122.26 187.311 122.132 187.417 122.025 187.561C121.918 187.701 121.837 187.881 121.78 188.101C121.723 188.317 121.695 188.574 121.695 188.871C121.695 189.171 121.718 189.426 121.765 189.636C121.815 189.842 121.885 190.012 121.975 190.146C122.065 190.276 122.175 190.371 122.305 190.431C122.435 190.487 122.58 190.516 122.74 190.516C122.997 190.516 123.215 190.462 123.395 190.356C123.575 190.249 123.745 190.097 123.905 189.901V187.601ZM125.14 183.991V191.421H124.385C124.222 191.421 124.118 191.346 124.075 191.196L123.97 190.701C123.763 190.937 123.525 191.129 123.255 191.276C122.988 191.422 122.677 191.496 122.32 191.496C122.04 191.496 121.783 191.437 121.55 191.321C121.317 191.204 121.115 191.036 120.945 190.816C120.778 190.592 120.648 190.317 120.555 189.991C120.465 189.664 120.42 189.291 120.42 188.871C120.42 188.491 120.472 188.137 120.575 187.811C120.678 187.484 120.827 187.201 121.02 186.961C121.213 186.721 121.445 186.534 121.715 186.401C121.985 186.264 122.288 186.196 122.625 186.196C122.912 186.196 123.157 186.241 123.36 186.331C123.563 186.421 123.745 186.542 123.905 186.696V183.991H125.14ZM127.639 186.291V191.421H126.399V186.291H127.639ZM127.809 184.796C127.809 184.902 127.787 185.002 127.744 185.096C127.7 185.189 127.642 185.271 127.569 185.341C127.499 185.411 127.415 185.467 127.319 185.511C127.222 185.551 127.119 185.571 127.009 185.571C126.902 185.571 126.8 185.551 126.704 185.511C126.61 185.467 126.529 185.411 126.459 185.341C126.389 185.271 126.332 185.189 126.289 185.096C126.249 185.002 126.229 184.902 126.229 184.796C126.229 184.686 126.249 184.582 126.289 184.486C126.332 184.389 126.389 184.306 126.459 184.236C126.529 184.166 126.61 184.111 126.704 184.071C126.8 184.027 126.902 184.006 127.009 184.006C127.119 184.006 127.222 184.027 127.319 184.071C127.415 184.111 127.499 184.166 127.569 184.236C127.642 184.306 127.7 184.389 127.744 184.486C127.787 184.582 127.809 184.686 127.809 184.796ZM130.608 191.501C130.161 191.501 129.818 191.376 129.578 191.126C129.341 190.872 129.223 190.524 129.223 190.081V187.216H128.698C128.631 187.216 128.575 187.194 128.528 187.151C128.481 187.107 128.458 187.042 128.458 186.956V186.466L129.283 186.331L129.543 184.931C129.56 184.864 129.591 184.812 129.638 184.776C129.685 184.739 129.745 184.721 129.818 184.721H130.458V186.336H131.828V187.216H130.458V189.996C130.458 190.156 130.496 190.281 130.573 190.371C130.653 190.461 130.761 190.506 130.898 190.506C130.975 190.506 131.038 190.497 131.088 190.481C131.141 190.461 131.186 190.441 131.223 190.421C131.263 190.401 131.298 190.382 131.328 190.366C131.358 190.346 131.388 190.336 131.418 190.336C131.455 190.336 131.485 190.346 131.508 190.366C131.531 190.382 131.556 190.409 131.583 190.446L131.953 191.046C131.773 191.196 131.566 191.309 131.333 191.386C131.1 191.462 130.858 191.501 130.608 191.501ZM138.725 187.376C138.689 187.422 138.652 187.459 138.615 187.486C138.582 187.512 138.532 187.526 138.465 187.526C138.402 187.526 138.34 187.507 138.28 187.471C138.22 187.431 138.149 187.387 138.065 187.341C137.982 187.291 137.882 187.247 137.765 187.211C137.652 187.171 137.51 187.151 137.34 187.151C137.124 187.151 136.934 187.191 136.77 187.271C136.607 187.347 136.47 187.459 136.36 187.606C136.254 187.752 136.174 187.931 136.12 188.141C136.067 188.347 136.04 188.582 136.04 188.846C136.04 189.119 136.069 189.362 136.125 189.576C136.185 189.789 136.27 189.969 136.38 190.116C136.49 190.259 136.624 190.369 136.78 190.446C136.937 190.519 137.114 190.556 137.31 190.556C137.507 190.556 137.665 190.532 137.785 190.486C137.909 190.436 138.012 190.382 138.095 190.326C138.179 190.266 138.25 190.212 138.31 190.166C138.374 190.116 138.444 190.091 138.52 190.091C138.62 190.091 138.695 190.129 138.745 190.206L139.1 190.656C138.964 190.816 138.815 190.951 138.655 191.061C138.495 191.167 138.329 191.254 138.155 191.321C137.985 191.384 137.809 191.429 137.625 191.456C137.445 191.482 137.265 191.496 137.085 191.496C136.769 191.496 136.47 191.437 136.19 191.321C135.91 191.201 135.665 191.027 135.455 190.801C135.245 190.574 135.079 190.297 134.955 189.971C134.835 189.641 134.775 189.266 134.775 188.846C134.775 188.469 134.829 188.121 134.935 187.801C135.045 187.477 135.205 187.199 135.415 186.966C135.625 186.729 135.885 186.544 136.195 186.411C136.505 186.277 136.862 186.211 137.265 186.211C137.649 186.211 137.984 186.272 138.27 186.396C138.56 186.519 138.82 186.696 139.05 186.926L138.725 187.376ZM142.584 189.231C142.228 189.247 141.928 189.279 141.684 189.326C141.441 189.369 141.246 189.426 141.099 189.496C140.953 189.566 140.848 189.647 140.784 189.741C140.721 189.834 140.689 189.936 140.689 190.046C140.689 190.262 140.753 190.417 140.879 190.511C141.009 190.604 141.178 190.651 141.384 190.651C141.638 190.651 141.856 190.606 142.039 190.516C142.226 190.422 142.408 190.282 142.584 190.096V189.231ZM139.754 187.006C140.344 186.466 141.054 186.196 141.884 186.196C142.184 186.196 142.453 186.246 142.689 186.346C142.926 186.442 143.126 186.579 143.289 186.756C143.453 186.929 143.576 187.137 143.659 187.381C143.746 187.624 143.789 187.891 143.789 188.181V191.421H143.229C143.113 191.421 143.023 191.404 142.959 191.371C142.896 191.334 142.846 191.262 142.809 191.156L142.699 190.786C142.569 190.902 142.443 191.006 142.319 191.096C142.196 191.182 142.068 191.256 141.934 191.316C141.801 191.376 141.658 191.421 141.504 191.451C141.354 191.484 141.188 191.501 141.004 191.501C140.788 191.501 140.588 191.472 140.404 191.416C140.221 191.356 140.063 191.267 139.929 191.151C139.796 191.034 139.693 190.889 139.619 190.716C139.546 190.542 139.509 190.341 139.509 190.111C139.509 189.981 139.531 189.852 139.574 189.726C139.618 189.596 139.688 189.472 139.784 189.356C139.884 189.239 140.013 189.129 140.169 189.026C140.326 188.922 140.518 188.832 140.744 188.756C140.974 188.679 141.241 188.617 141.544 188.571C141.848 188.521 142.194 188.491 142.584 188.481V188.181C142.584 187.837 142.511 187.584 142.364 187.421C142.218 187.254 142.006 187.171 141.729 187.171C141.529 187.171 141.363 187.194 141.229 187.241C141.099 187.287 140.984 187.341 140.884 187.401C140.784 187.457 140.693 187.509 140.609 187.556C140.529 187.602 140.439 187.626 140.339 187.626C140.253 187.626 140.179 187.604 140.119 187.561C140.059 187.514 140.011 187.461 139.974 187.401L139.754 187.006ZM146.118 187.181C146.278 186.874 146.468 186.634 146.688 186.461C146.908 186.284 147.168 186.196 147.468 186.196C147.704 186.196 147.894 186.247 148.038 186.351L147.958 187.276C147.941 187.336 147.916 187.379 147.883 187.406C147.853 187.429 147.811 187.441 147.758 187.441C147.708 187.441 147.633 187.432 147.533 187.416C147.436 187.399 147.341 187.391 147.248 187.391C147.111 187.391 146.989 187.411 146.883 187.451C146.776 187.491 146.679 187.549 146.593 187.626C146.509 187.699 146.434 187.789 146.368 187.896C146.304 188.002 146.244 188.124 146.188 188.261V191.421H144.953V186.291H145.678C145.804 186.291 145.893 186.314 145.943 186.361C145.993 186.404 146.026 186.484 146.043 186.601L146.118 187.181ZM151.766 187.601C151.626 187.431 151.473 187.311 151.306 187.241C151.143 187.171 150.966 187.136 150.776 187.136C150.59 187.136 150.421 187.171 150.271 187.241C150.121 187.311 149.993 187.417 149.886 187.561C149.78 187.701 149.698 187.881 149.641 188.101C149.585 188.317 149.556 188.574 149.556 188.871C149.556 189.171 149.58 189.426 149.626 189.636C149.676 189.842 149.746 190.012 149.836 190.146C149.926 190.276 150.036 190.371 150.166 190.431C150.296 190.487 150.441 190.516 150.601 190.516C150.858 190.516 151.076 190.462 151.256 190.356C151.436 190.249 151.606 190.097 151.766 189.901V187.601ZM153.001 183.991V191.421H152.246C152.083 191.421 151.98 191.346 151.936 191.196L151.831 190.701C151.625 190.937 151.386 191.129 151.116 191.276C150.85 191.422 150.538 191.496 150.181 191.496C149.901 191.496 149.645 191.437 149.411 191.321C149.178 191.204 148.976 191.036 148.806 190.816C148.64 190.592 148.51 190.317 148.416 189.991C148.326 189.664 148.281 189.291 148.281 188.871C148.281 188.491 148.333 188.137 148.436 187.811C148.54 187.484 148.688 187.201 148.881 186.961C149.075 186.721 149.306 186.534 149.576 186.401C149.846 186.264 150.15 186.196 150.486 186.196C150.773 186.196 151.018 186.241 151.221 186.331C151.425 186.421 151.606 186.542 151.766 186.696V183.991H153.001ZM157.35 187.291C157.317 187.344 157.282 187.382 157.245 187.406C157.208 187.426 157.162 187.436 157.105 187.436C157.045 187.436 156.98 187.419 156.91 187.386C156.843 187.352 156.765 187.316 156.675 187.276C156.585 187.232 156.482 187.194 156.365 187.161C156.252 187.127 156.117 187.111 155.96 187.111C155.717 187.111 155.525 187.162 155.385 187.266C155.248 187.369 155.18 187.504 155.18 187.671C155.18 187.781 155.215 187.874 155.285 187.951C155.358 188.024 155.453 188.089 155.57 188.146C155.69 188.202 155.825 188.254 155.975 188.301C156.125 188.344 156.277 188.392 156.43 188.446C156.587 188.499 156.74 188.561 156.89 188.631C157.04 188.697 157.173 188.784 157.29 188.891C157.41 188.994 157.505 189.119 157.575 189.266C157.648 189.412 157.685 189.589 157.685 189.796C157.685 190.042 157.64 190.271 157.55 190.481C157.463 190.687 157.333 190.867 157.16 191.021C156.987 191.171 156.772 191.289 156.515 191.376C156.262 191.459 155.968 191.501 155.635 191.501C155.458 191.501 155.285 191.484 155.115 191.451C154.948 191.421 154.787 191.377 154.63 191.321C154.477 191.264 154.333 191.197 154.2 191.121C154.07 191.044 153.955 190.961 153.855 190.871L154.14 190.401C154.177 190.344 154.22 190.301 154.27 190.271C154.32 190.241 154.383 190.226 154.46 190.226C154.537 190.226 154.608 190.247 154.675 190.291C154.745 190.334 154.825 190.381 154.915 190.431C155.005 190.481 155.11 190.527 155.23 190.571C155.353 190.614 155.508 190.636 155.695 190.636C155.842 190.636 155.967 190.619 156.07 190.586C156.177 190.549 156.263 190.502 156.33 190.446C156.4 190.389 156.45 190.324 156.48 190.251C156.513 190.174 156.53 190.096 156.53 190.016C156.53 189.896 156.493 189.797 156.42 189.721C156.35 189.644 156.255 189.577 156.135 189.521C156.018 189.464 155.883 189.414 155.73 189.371C155.58 189.324 155.425 189.274 155.265 189.221C155.108 189.167 154.953 189.106 154.8 189.036C154.65 188.962 154.515 188.871 154.395 188.761C154.278 188.651 154.183 188.516 154.11 188.356C154.04 188.196 154.005 188.002 154.005 187.776C154.005 187.566 154.047 187.366 154.13 187.176C154.213 186.986 154.335 186.821 154.495 186.681C154.658 186.537 154.86 186.424 155.1 186.341C155.343 186.254 155.623 186.211 155.94 186.211C156.293 186.211 156.615 186.269 156.905 186.386C157.195 186.502 157.437 186.656 157.63 186.846L157.35 187.291Z" fill="#134E78"/>
<path d="M56.5648 167.649V174.879H55.2148V171.719H51.8198V174.879H50.4698V167.649H51.8198V170.759H55.2148V167.649H56.5648ZM60.5629 172.689C60.2063 172.706 59.9063 172.738 59.6629 172.784C59.4196 172.828 59.2246 172.884 59.0779 172.954C58.9313 173.024 58.8263 173.106 58.7629 173.199C58.6996 173.293 58.6679 173.394 58.6679 173.504C58.6679 173.721 58.7313 173.876 58.8579 173.969C58.9879 174.063 59.1563 174.109 59.3629 174.109C59.6163 174.109 59.8346 174.064 60.0179 173.974C60.2046 173.881 60.3863 173.741 60.5629 173.554V172.689ZM57.7329 170.464C58.3229 169.924 59.0329 169.654 59.8629 169.654C60.1629 169.654 60.4313 169.704 60.6679 169.804C60.9046 169.901 61.1046 170.038 61.2679 170.214C61.4313 170.388 61.5546 170.596 61.6379 170.839C61.7246 171.083 61.7679 171.349 61.7679 171.639V174.879H61.2079C61.0913 174.879 61.0013 174.863 60.9379 174.829C60.8746 174.793 60.8246 174.721 60.7879 174.614L60.6779 174.244C60.5479 174.361 60.4213 174.464 60.2979 174.554C60.1746 174.641 60.0463 174.714 59.9129 174.774C59.7796 174.834 59.6363 174.879 59.4829 174.909C59.3329 174.943 59.1663 174.959 58.9829 174.959C58.7663 174.959 58.5663 174.931 58.3829 174.874C58.1996 174.814 58.0413 174.726 57.9079 174.609C57.7746 174.493 57.6713 174.348 57.5979 174.174C57.5246 174.001 57.4879 173.799 57.4879 173.569C57.4879 173.439 57.5096 173.311 57.5529 173.184C57.5963 173.054 57.6663 172.931 57.7629 172.814C57.8629 172.698 57.9913 172.588 58.1479 172.484C58.3046 172.381 58.4963 172.291 58.7229 172.214C58.9529 172.138 59.2196 172.076 59.5229 172.029C59.8263 171.979 60.1729 171.949 60.5629 171.939V171.639C60.5629 171.296 60.4896 171.043 60.3429 170.879C60.1963 170.713 59.9846 170.629 59.7079 170.629C59.5079 170.629 59.3413 170.653 59.2079 170.699C59.0779 170.746 58.9629 170.799 58.8629 170.859C58.7629 170.916 58.6713 170.968 58.5879 171.014C58.5079 171.061 58.4179 171.084 58.3179 171.084C58.2313 171.084 58.1579 171.063 58.0979 171.019C58.0379 170.973 57.9896 170.919 57.9529 170.859L57.7329 170.464ZM67.4389 169.749L65.4039 174.879H64.2839L62.2489 169.749H63.2689C63.3622 169.749 63.4389 169.771 63.4989 169.814C63.5622 169.858 63.6039 169.913 63.6239 169.979L64.6139 172.719C64.6672 172.879 64.7139 173.036 64.7539 173.189C64.7939 173.343 64.8289 173.496 64.8589 173.649C64.8922 173.496 64.9289 173.343 64.9689 173.189C65.0089 173.036 65.0572 172.879 65.1139 172.719L66.1239 169.979C66.1472 169.913 66.1889 169.858 66.2489 169.814C66.3089 169.771 66.3805 169.749 66.4639 169.749H67.4389ZM71.2458 171.724C71.2458 171.564 71.2225 171.414 71.1758 171.274C71.1325 171.131 71.0658 171.006 70.9758 170.899C70.8858 170.793 70.7708 170.709 70.6308 170.649C70.4941 170.586 70.3341 170.554 70.1508 170.554C69.7941 170.554 69.5125 170.656 69.3058 170.859C69.1025 171.063 68.9725 171.351 68.9158 171.724H71.2458ZM68.8908 172.469C68.9108 172.733 68.9575 172.961 69.0308 173.154C69.1041 173.344 69.2008 173.503 69.3208 173.629C69.4408 173.753 69.5825 173.846 69.7458 173.909C69.9125 173.969 70.0958 173.999 70.2958 173.999C70.4958 173.999 70.6675 173.976 70.8108 173.929C70.9575 173.883 71.0841 173.831 71.1908 173.774C71.3008 173.718 71.3958 173.666 71.4758 173.619C71.5591 173.573 71.6391 173.549 71.7158 173.549C71.8191 173.549 71.8958 173.588 71.9458 173.664L72.3008 174.114C72.1641 174.274 72.0108 174.409 71.8408 174.519C71.6708 174.626 71.4925 174.713 71.3058 174.779C71.1225 174.843 70.9341 174.888 70.7408 174.914C70.5508 174.941 70.3658 174.954 70.1858 174.954C69.8291 174.954 69.4975 174.896 69.1908 174.779C68.8841 174.659 68.6175 174.484 68.3908 174.254C68.1641 174.021 67.9858 173.734 67.8558 173.394C67.7258 173.051 67.6608 172.654 67.6608 172.204C67.6608 171.854 67.7175 171.526 67.8308 171.219C67.9441 170.909 68.1058 170.641 68.3158 170.414C68.5291 170.184 68.7875 170.003 69.0908 169.869C69.3975 169.736 69.7425 169.669 70.1258 169.669C70.4491 169.669 70.7475 169.721 71.0208 169.824C71.2941 169.928 71.5291 170.079 71.7258 170.279C71.9225 170.476 72.0758 170.719 72.1858 171.009C72.2991 171.296 72.3558 171.624 72.3558 171.994C72.3558 172.181 72.3358 172.308 72.2958 172.374C72.2558 172.438 72.1791 172.469 72.0658 172.469H68.8908ZM79.3892 170.834C79.3526 170.881 79.3159 170.918 79.2792 170.944C79.2459 170.971 79.1959 170.984 79.1292 170.984C79.0659 170.984 79.0042 170.966 78.9442 170.929C78.8842 170.889 78.8126 170.846 78.7292 170.799C78.6459 170.749 78.5459 170.706 78.4292 170.669C78.3159 170.629 78.1742 170.609 78.0042 170.609C77.7876 170.609 77.5976 170.649 77.4342 170.729C77.2709 170.806 77.1342 170.918 77.0242 171.064C76.9176 171.211 76.8376 171.389 76.7842 171.599C76.7309 171.806 76.7042 172.041 76.7042 172.304C76.7042 172.578 76.7326 172.821 76.7892 173.034C76.8492 173.248 76.9342 173.428 77.0442 173.574C77.1542 173.718 77.2876 173.828 77.4442 173.904C77.6009 173.978 77.7776 174.014 77.9742 174.014C78.1709 174.014 78.3292 173.991 78.4492 173.944C78.5726 173.894 78.6759 173.841 78.7592 173.784C78.8426 173.724 78.9142 173.671 78.9742 173.624C79.0376 173.574 79.1076 173.549 79.1842 173.549C79.2842 173.549 79.3592 173.588 79.4092 173.664L79.7642 174.114C79.6276 174.274 79.4792 174.409 79.3192 174.519C79.1592 174.626 78.9926 174.713 78.8192 174.779C78.6492 174.843 78.4726 174.888 78.2892 174.914C78.1092 174.941 77.9292 174.954 77.7492 174.954C77.4326 174.954 77.1342 174.896 76.8542 174.779C76.5742 174.659 76.3292 174.486 76.1192 174.259C75.9092 174.033 75.7426 173.756 75.6192 173.429C75.4992 173.099 75.4392 172.724 75.4392 172.304C75.4392 171.928 75.4926 171.579 75.5992 171.259C75.7092 170.936 75.8692 170.658 76.0792 170.424C76.2892 170.188 76.5492 170.003 76.8592 169.869C77.1692 169.736 77.5259 169.669 77.9292 169.669C78.3126 169.669 78.6476 169.731 78.9342 169.854C79.2242 169.978 79.4842 170.154 79.7142 170.384L79.3892 170.834ZM81.7035 170.639C81.8635 170.333 82.0535 170.093 82.2735 169.919C82.4935 169.743 82.7535 169.654 83.0535 169.654C83.2901 169.654 83.4801 169.706 83.6235 169.809L83.5435 170.734C83.5268 170.794 83.5018 170.838 83.4685 170.864C83.4385 170.888 83.3968 170.899 83.3435 170.899C83.2935 170.899 83.2185 170.891 83.1185 170.874C83.0218 170.858 82.9268 170.849 82.8335 170.849C82.6968 170.849 82.5751 170.869 82.4685 170.909C82.3618 170.949 82.2651 171.008 82.1785 171.084C82.0951 171.158 82.0201 171.248 81.9535 171.354C81.8901 171.461 81.8301 171.583 81.7735 171.719V174.879H80.5385V169.749H81.2635C81.3901 169.749 81.4785 169.773 81.5285 169.819C81.5785 169.863 81.6118 169.943 81.6285 170.059L81.7035 170.639ZM87.4275 171.724C87.4275 171.564 87.4041 171.414 87.3575 171.274C87.3141 171.131 87.2475 171.006 87.1575 170.899C87.0675 170.793 86.9525 170.709 86.8125 170.649C86.6758 170.586 86.5158 170.554 86.3325 170.554C85.9758 170.554 85.6941 170.656 85.4875 170.859C85.2841 171.063 85.1541 171.351 85.0975 171.724H87.4275ZM85.0725 172.469C85.0925 172.733 85.1391 172.961 85.2125 173.154C85.2858 173.344 85.3825 173.503 85.5025 173.629C85.6225 173.753 85.7641 173.846 85.9275 173.909C86.0941 173.969 86.2775 173.999 86.4775 173.999C86.6775 173.999 86.8491 173.976 86.9925 173.929C87.1391 173.883 87.2658 173.831 87.3725 173.774C87.4825 173.718 87.5775 173.666 87.6575 173.619C87.7408 173.573 87.8208 173.549 87.8975 173.549C88.0008 173.549 88.0775 173.588 88.1275 173.664L88.4825 174.114C88.3458 174.274 88.1925 174.409 88.0225 174.519C87.8525 174.626 87.6741 174.713 87.4875 174.779C87.3041 174.843 87.1158 174.888 86.9225 174.914C86.7325 174.941 86.5475 174.954 86.3675 174.954C86.0108 174.954 85.6791 174.896 85.3725 174.779C85.0658 174.659 84.7991 174.484 84.5725 174.254C84.3458 174.021 84.1675 173.734 84.0375 173.394C83.9075 173.051 83.8425 172.654 83.8425 172.204C83.8425 171.854 83.8991 171.526 84.0125 171.219C84.1258 170.909 84.2875 170.641 84.4975 170.414C84.7108 170.184 84.9691 170.003 85.2725 169.869C85.5791 169.736 85.9241 169.669 86.3075 169.669C86.6308 169.669 86.9291 169.721 87.2025 169.824C87.4758 169.928 87.7108 170.079 87.9075 170.279C88.1041 170.476 88.2575 170.719 88.3675 171.009C88.4808 171.296 88.5375 171.624 88.5375 171.994C88.5375 172.181 88.5175 172.308 88.4775 172.374C88.4375 172.438 88.3608 172.469 88.2475 172.469H85.0725ZM92.6842 171.059C92.5442 170.889 92.3909 170.769 92.2242 170.699C92.0609 170.629 91.8842 170.594 91.6942 170.594C91.5076 170.594 91.3392 170.629 91.1892 170.699C91.0392 170.769 90.9109 170.876 90.8042 171.019C90.6976 171.159 90.6159 171.339 90.5592 171.559C90.5026 171.776 90.4742 172.033 90.4742 172.329C90.4742 172.629 90.4976 172.884 90.5442 173.094C90.5942 173.301 90.6642 173.471 90.7542 173.604C90.8442 173.734 90.9542 173.829 91.0842 173.889C91.2142 173.946 91.3592 173.974 91.5192 173.974C91.7759 173.974 91.9942 173.921 92.1742 173.814C92.3542 173.708 92.5242 173.556 92.6842 173.359V171.059ZM93.9192 167.449V174.879H93.1642C93.0009 174.879 92.8976 174.804 92.8542 174.654L92.7492 174.159C92.5426 174.396 92.3042 174.588 92.0342 174.734C91.7676 174.881 91.4559 174.954 91.0992 174.954C90.8192 174.954 90.5626 174.896 90.3292 174.779C90.0959 174.663 89.8942 174.494 89.7242 174.274C89.5576 174.051 89.4276 173.776 89.3342 173.449C89.2442 173.123 89.1992 172.749 89.1992 172.329C89.1992 171.949 89.2509 171.596 89.3542 171.269C89.4576 170.943 89.6059 170.659 89.7992 170.419C89.9926 170.179 90.2242 169.993 90.4942 169.859C90.7642 169.723 91.0676 169.654 91.4042 169.654C91.6909 169.654 91.9359 169.699 92.1392 169.789C92.3426 169.879 92.5242 170.001 92.6842 170.154V167.449H93.9192ZM96.4181 169.749V174.879H95.1781V169.749H96.4181ZM96.5881 168.254C96.5881 168.361 96.5664 168.461 96.5231 168.554C96.4797 168.648 96.4214 168.729 96.3481 168.799C96.2781 168.869 96.1947 168.926 96.0981 168.969C96.0014 169.009 95.8981 169.029 95.7881 169.029C95.6814 169.029 95.5797 169.009 95.4831 168.969C95.3897 168.926 95.3081 168.869 95.2381 168.799C95.1681 168.729 95.1114 168.648 95.0681 168.554C95.0281 168.461 95.0081 168.361 95.0081 168.254C95.0081 168.144 95.0281 168.041 95.0681 167.944C95.1114 167.848 95.1681 167.764 95.2381 167.694C95.3081 167.624 95.3897 167.569 95.4831 167.529C95.5797 167.486 95.6814 167.464 95.7881 167.464C95.8981 167.464 96.0014 167.486 96.0981 167.529C96.1947 167.569 96.2781 167.624 96.3481 167.694C96.4214 167.764 96.4797 167.848 96.5231 167.944C96.5664 168.041 96.5881 168.144 96.5881 168.254ZM99.3871 174.959C98.9405 174.959 98.5971 174.834 98.3571 174.584C98.1205 174.331 98.0021 173.983 98.0021 173.539V170.674H97.4771C97.4105 170.674 97.3538 170.653 97.3071 170.609C97.2605 170.566 97.2371 170.501 97.2371 170.414V169.924L98.0621 169.789L98.3221 168.389C98.3388 168.323 98.3705 168.271 98.4171 168.234C98.4638 168.198 98.5238 168.179 98.5971 168.179H99.2371V169.794H100.607V170.674H99.2371V173.454C99.2371 173.614 99.2755 173.739 99.3521 173.829C99.4321 173.919 99.5405 173.964 99.6771 173.964C99.7538 173.964 99.8171 173.956 99.8671 173.939C99.9205 173.919 99.9655 173.899 100.002 173.879C100.042 173.859 100.077 173.841 100.107 173.824C100.137 173.804 100.167 173.794 100.197 173.794C100.234 173.794 100.264 173.804 100.287 173.824C100.31 173.841 100.335 173.868 100.362 173.904L100.732 174.504C100.552 174.654 100.345 174.768 100.112 174.844C99.8788 174.921 99.6371 174.959 99.3871 174.959ZM107.504 170.834C107.468 170.881 107.431 170.918 107.394 170.944C107.361 170.971 107.311 170.984 107.244 170.984C107.181 170.984 107.119 170.966 107.059 170.929C106.999 170.889 106.928 170.846 106.844 170.799C106.761 170.749 106.661 170.706 106.544 170.669C106.431 170.629 106.289 170.609 106.119 170.609C105.903 170.609 105.713 170.649 105.549 170.729C105.386 170.806 105.249 170.918 105.139 171.064C105.033 171.211 104.953 171.389 104.899 171.599C104.846 171.806 104.819 172.041 104.819 172.304C104.819 172.578 104.848 172.821 104.904 173.034C104.964 173.248 105.049 173.428 105.159 173.574C105.269 173.718 105.403 173.828 105.559 173.904C105.716 173.978 105.893 174.014 106.089 174.014C106.286 174.014 106.444 173.991 106.564 173.944C106.688 173.894 106.791 173.841 106.874 173.784C106.958 173.724 107.029 173.671 107.089 173.624C107.153 173.574 107.223 173.549 107.299 173.549C107.399 173.549 107.474 173.588 107.524 173.664L107.879 174.114C107.743 174.274 107.594 174.409 107.434 174.519C107.274 174.626 107.108 174.713 106.934 174.779C106.764 174.843 106.588 174.888 106.404 174.914C106.224 174.941 106.044 174.954 105.864 174.954C105.548 174.954 105.249 174.896 104.969 174.779C104.689 174.659 104.444 174.486 104.234 174.259C104.024 174.033 103.858 173.756 103.734 173.429C103.614 173.099 103.554 172.724 103.554 172.304C103.554 171.928 103.608 171.579 103.714 171.259C103.824 170.936 103.984 170.658 104.194 170.424C104.404 170.188 104.664 170.003 104.974 169.869C105.284 169.736 105.641 169.669 106.044 169.669C106.428 169.669 106.763 169.731 107.049 169.854C107.339 169.978 107.599 170.154 107.829 170.384L107.504 170.834ZM111.364 172.689C111.007 172.706 110.707 172.738 110.464 172.784C110.22 172.828 110.025 172.884 109.879 172.954C109.732 173.024 109.627 173.106 109.564 173.199C109.5 173.293 109.469 173.394 109.469 173.504C109.469 173.721 109.532 173.876 109.659 173.969C109.789 174.063 109.957 174.109 110.164 174.109C110.417 174.109 110.635 174.064 110.819 173.974C111.005 173.881 111.187 173.741 111.364 173.554V172.689ZM108.534 170.464C109.124 169.924 109.834 169.654 110.664 169.654C110.964 169.654 111.232 169.704 111.469 169.804C111.705 169.901 111.905 170.038 112.069 170.214C112.232 170.388 112.355 170.596 112.439 170.839C112.525 171.083 112.569 171.349 112.569 171.639V174.879H112.009C111.892 174.879 111.802 174.863 111.739 174.829C111.675 174.793 111.625 174.721 111.589 174.614L111.479 174.244C111.349 174.361 111.222 174.464 111.099 174.554C110.975 174.641 110.847 174.714 110.714 174.774C110.58 174.834 110.437 174.879 110.284 174.909C110.134 174.943 109.967 174.959 109.784 174.959C109.567 174.959 109.367 174.931 109.184 174.874C109 174.814 108.842 174.726 108.709 174.609C108.575 174.493 108.472 174.348 108.399 174.174C108.325 174.001 108.289 173.799 108.289 173.569C108.289 173.439 108.31 173.311 108.354 173.184C108.397 173.054 108.467 172.931 108.564 172.814C108.664 172.698 108.792 172.588 108.949 172.484C109.105 172.381 109.297 172.291 109.524 172.214C109.754 172.138 110.02 172.076 110.324 172.029C110.627 171.979 110.974 171.949 111.364 171.939V171.639C111.364 171.296 111.29 171.043 111.144 170.879C110.997 170.713 110.785 170.629 110.509 170.629C110.309 170.629 110.142 170.653 110.009 170.699C109.879 170.746 109.764 170.799 109.664 170.859C109.564 170.916 109.472 170.968 109.389 171.014C109.309 171.061 109.219 171.084 109.119 171.084C109.032 171.084 108.959 171.063 108.899 171.019C108.839 170.973 108.79 170.919 108.754 170.859L108.534 170.464ZM114.897 170.639C115.057 170.333 115.247 170.093 115.467 169.919C115.687 169.743 115.947 169.654 116.247 169.654C116.483 169.654 116.673 169.706 116.817 169.809L116.737 170.734C116.72 170.794 116.695 170.838 116.662 170.864C116.632 170.888 116.59 170.899 116.537 170.899C116.487 170.899 116.412 170.891 116.312 170.874C116.215 170.858 116.12 170.849 116.027 170.849C115.89 170.849 115.768 170.869 115.662 170.909C115.555 170.949 115.458 171.008 115.372 171.084C115.288 171.158 115.213 171.248 115.147 171.354C115.083 171.461 115.023 171.583 114.967 171.719V174.879H113.732V169.749H114.457C114.583 169.749 114.672 169.773 114.722 169.819C114.772 169.863 114.805 169.943 114.822 170.059L114.897 170.639ZM120.546 171.059C120.406 170.889 120.252 170.769 120.086 170.699C119.922 170.629 119.746 170.594 119.556 170.594C119.369 170.594 119.201 170.629 119.051 170.699C118.901 170.769 118.772 170.876 118.666 171.019C118.559 171.159 118.477 171.339 118.421 171.559C118.364 171.776 118.336 172.033 118.336 172.329C118.336 172.629 118.359 172.884 118.406 173.094C118.456 173.301 118.526 173.471 118.616 173.604C118.706 173.734 118.816 173.829 118.946 173.889C119.076 173.946 119.221 173.974 119.381 173.974C119.637 173.974 119.856 173.921 120.036 173.814C120.216 173.708 120.386 173.556 120.546 173.359V171.059ZM121.781 167.449V174.879H121.026C120.862 174.879 120.759 174.804 120.716 174.654L120.611 174.159C120.404 174.396 120.166 174.588 119.896 174.734C119.629 174.881 119.317 174.954 118.961 174.954C118.681 174.954 118.424 174.896 118.191 174.779C117.957 174.663 117.756 174.494 117.586 174.274C117.419 174.051 117.289 173.776 117.196 173.449C117.106 173.123 117.061 172.749 117.061 172.329C117.061 171.949 117.112 171.596 117.216 171.269C117.319 170.943 117.467 170.659 117.661 170.419C117.854 170.179 118.086 169.993 118.356 169.859C118.626 169.723 118.929 169.654 119.266 169.654C119.552 169.654 119.797 169.699 120.001 169.789C120.204 169.879 120.386 170.001 120.546 170.154V167.449H121.781ZM126.129 170.749C126.096 170.803 126.061 170.841 126.024 170.864C125.988 170.884 125.941 170.894 125.884 170.894C125.824 170.894 125.759 170.878 125.689 170.844C125.623 170.811 125.544 170.774 125.454 170.734C125.364 170.691 125.261 170.653 125.144 170.619C125.031 170.586 124.896 170.569 124.739 170.569C124.496 170.569 124.304 170.621 124.164 170.724C124.028 170.828 123.959 170.963 123.959 171.129C123.959 171.239 123.994 171.333 124.064 171.409C124.138 171.483 124.233 171.548 124.349 171.604C124.469 171.661 124.604 171.713 124.754 171.759C124.904 171.803 125.056 171.851 125.209 171.904C125.366 171.958 125.519 172.019 125.669 172.089C125.819 172.156 125.953 172.243 126.069 172.349C126.189 172.453 126.284 172.578 126.354 172.724C126.428 172.871 126.464 173.048 126.464 173.254C126.464 173.501 126.419 173.729 126.329 173.939C126.243 174.146 126.113 174.326 125.939 174.479C125.766 174.629 125.551 174.748 125.294 174.834C125.041 174.918 124.748 174.959 124.414 174.959C124.238 174.959 124.064 174.943 123.894 174.909C123.728 174.879 123.566 174.836 123.409 174.779C123.256 174.723 123.113 174.656 122.979 174.579C122.849 174.503 122.734 174.419 122.634 174.329L122.919 173.859C122.956 173.803 122.999 173.759 123.049 173.729C123.099 173.699 123.163 173.684 123.239 173.684C123.316 173.684 123.388 173.706 123.454 173.749C123.524 173.793 123.604 173.839 123.694 173.889C123.784 173.939 123.889 173.986 124.009 174.029C124.133 174.073 124.288 174.094 124.474 174.094C124.621 174.094 124.746 174.078 124.849 174.044C124.956 174.008 125.043 173.961 125.109 173.904C125.179 173.848 125.229 173.783 125.259 173.709C125.293 173.633 125.309 173.554 125.309 173.474C125.309 173.354 125.273 173.256 125.199 173.179C125.129 173.103 125.034 173.036 124.914 172.979C124.798 172.923 124.663 172.873 124.509 172.829C124.359 172.783 124.204 172.733 124.044 172.679C123.888 172.626 123.733 172.564 123.579 172.494C123.429 172.421 123.294 172.329 123.174 172.219C123.058 172.109 122.963 171.974 122.889 171.814C122.819 171.654 122.784 171.461 122.784 171.234C122.784 171.024 122.826 170.824 122.909 170.634C122.993 170.444 123.114 170.279 123.274 170.139C123.438 169.996 123.639 169.883 123.879 169.799C124.123 169.713 124.403 169.669 124.719 169.669C125.073 169.669 125.394 169.728 125.684 169.844C125.974 169.961 126.216 170.114 126.409 170.304L126.129 170.749Z" fill="#134E78"/>
<path d="M146.642 83.6261V84.5511H142.642V83.6261H144.107V79.4111C144.107 79.2445 144.112 79.0728 144.122 78.8961L143.082 79.7661C143.022 79.8128 142.962 79.8428 142.902 79.8561C142.845 79.8661 142.79 79.8661 142.737 79.8561C142.687 79.8461 142.642 79.8295 142.602 79.8061C142.562 79.7795 142.532 79.7511 142.512 79.7211L142.122 79.1861L144.327 77.3111H145.342V83.6261H146.642ZM149.878 79.9461L149.628 80.2561C149.768 80.1861 149.918 80.1328 150.078 80.0961C150.241 80.0561 150.416 80.0361 150.603 80.0361C150.876 80.0361 151.141 80.0811 151.398 80.1711C151.658 80.2611 151.886 80.3978 152.083 80.5811C152.279 80.7611 152.438 80.9861 152.558 81.2561C152.678 81.5261 152.738 81.8411 152.738 82.2011C152.738 82.5378 152.676 82.8545 152.553 83.1511C152.429 83.4445 152.256 83.7011 152.033 83.9211C151.809 84.1411 151.539 84.3145 151.223 84.4411C150.909 84.5678 150.563 84.6311 150.183 84.6311C149.796 84.6311 149.449 84.5695 149.143 84.4461C148.836 84.3228 148.574 84.1511 148.358 83.9311C148.141 83.7078 147.974 83.4411 147.858 83.1311C147.744 82.8178 147.688 82.4711 147.688 82.0911C147.688 81.7511 147.756 81.4028 147.893 81.0461C148.033 80.6861 148.248 80.3128 148.538 79.9261L150.263 77.6111C150.323 77.5311 150.409 77.4628 150.523 77.4061C150.639 77.3495 150.773 77.3211 150.923 77.3211H152.023L149.878 79.9461ZM150.158 83.6211C150.354 83.6211 150.534 83.5878 150.698 83.5211C150.864 83.4545 151.006 83.3611 151.123 83.2411C151.243 83.1211 151.336 82.9811 151.403 82.8211C151.469 82.6578 151.503 82.4811 151.503 82.2911C151.503 82.0845 151.471 81.8995 151.408 81.7361C151.344 81.5695 151.254 81.4295 151.138 81.3161C151.021 81.1995 150.881 81.1111 150.718 81.0511C150.554 80.9911 150.374 80.9611 150.178 80.9611C149.981 80.9611 149.803 80.9945 149.643 81.0611C149.483 81.1278 149.346 81.2211 149.233 81.3411C149.119 81.4578 149.031 81.5978 148.968 81.7611C148.904 81.9211 148.873 82.0945 148.873 82.2811C148.873 82.4811 148.899 82.6645 148.953 82.8311C149.009 82.9945 149.091 83.1345 149.198 83.2511C149.308 83.3678 149.443 83.4595 149.603 83.5261C149.763 83.5895 149.948 83.6211 150.158 83.6211ZM156.793 79.0711C156.793 79.3445 156.747 79.5911 156.653 79.8111C156.563 80.0311 156.442 80.2195 156.288 80.3761C156.135 80.5295 155.957 80.6478 155.753 80.7311C155.55 80.8145 155.338 80.8561 155.118 80.8561C154.878 80.8561 154.657 80.8145 154.453 80.7311C154.25 80.6478 154.073 80.5295 153.923 80.3761C153.777 80.2195 153.662 80.0311 153.578 79.8111C153.495 79.5911 153.453 79.3445 153.453 79.0711C153.453 78.7911 153.495 78.5378 153.578 78.3111C153.662 78.0845 153.777 77.8928 153.923 77.7361C154.073 77.5795 154.25 77.4595 154.453 77.3761C154.657 77.2895 154.878 77.2461 155.118 77.2461C155.358 77.2461 155.58 77.2895 155.783 77.3761C155.99 77.4595 156.168 77.5795 156.318 77.7361C156.468 77.8928 156.585 78.0845 156.668 78.3111C156.752 78.5378 156.793 78.7911 156.793 79.0711ZM155.843 79.0711C155.843 78.8778 155.823 78.7161 155.783 78.5861C155.747 78.4561 155.695 78.3511 155.628 78.2711C155.565 78.1911 155.488 78.1345 155.398 78.1011C155.312 78.0645 155.218 78.0461 155.118 78.0461C155.018 78.0461 154.925 78.0645 154.838 78.1011C154.752 78.1345 154.677 78.1911 154.613 78.2711C154.553 78.3511 154.505 78.4561 154.468 78.5861C154.432 78.7161 154.413 78.8778 154.413 79.0711C154.413 79.2578 154.432 79.4145 154.468 79.5411C154.505 79.6645 154.553 79.7645 154.613 79.8411C154.677 79.9178 154.752 79.9728 154.838 80.0061C154.925 80.0395 155.018 80.0561 155.118 80.0561C155.218 80.0561 155.312 80.0395 155.398 80.0061C155.488 79.9728 155.565 79.9178 155.628 79.8411C155.695 79.7645 155.747 79.6645 155.783 79.5411C155.823 79.4145 155.843 79.2578 155.843 79.0711ZM159.198 77.5161C159.242 77.4661 159.292 77.4211 159.348 77.3811C159.408 77.3411 159.492 77.3211 159.598 77.3211H160.498L155.128 84.3661C155.085 84.4195 155.033 84.4645 154.973 84.5011C154.913 84.5345 154.84 84.5511 154.753 84.5511H153.833L159.198 77.5161ZM160.878 82.8511C160.878 83.1245 160.832 83.3711 160.738 83.5911C160.648 83.8111 160.527 83.9995 160.373 84.1561C160.22 84.3095 160.042 84.4295 159.838 84.5161C159.635 84.5995 159.423 84.6411 159.203 84.6411C158.963 84.6411 158.742 84.5995 158.538 84.5161C158.335 84.4295 158.158 84.3095 158.008 84.1561C157.862 83.9995 157.747 83.8111 157.663 83.5911C157.58 83.3711 157.538 83.1245 157.538 82.8511C157.538 82.5711 157.58 82.3178 157.663 82.0911C157.747 81.8645 157.862 81.6728 158.008 81.5161C158.158 81.3595 158.335 81.2395 158.538 81.1561C158.742 81.0695 158.963 81.0261 159.203 81.0261C159.443 81.0261 159.665 81.0695 159.868 81.1561C160.075 81.2395 160.252 81.3595 160.398 81.5161C160.548 81.6728 160.665 81.8645 160.748 82.0911C160.835 82.3178 160.878 82.5711 160.878 82.8511ZM159.923 82.8511C159.923 82.6578 159.905 82.4961 159.868 82.3661C159.832 82.2361 159.78 82.1311 159.713 82.0511C159.65 81.9711 159.573 81.9145 159.483 81.8811C159.397 81.8445 159.303 81.8261 159.203 81.8261C159.103 81.8261 159.01 81.8445 158.923 81.8811C158.837 81.9145 158.762 81.9711 158.698 82.0511C158.635 82.1311 158.585 82.2361 158.548 82.3661C158.515 82.4961 158.498 82.6578 158.498 82.8511C158.498 83.0378 158.515 83.1945 158.548 83.3211C158.585 83.4478 158.635 83.5495 158.698 83.6261C158.762 83.7028 158.837 83.7578 158.923 83.7911C159.01 83.8245 159.103 83.8411 159.203 83.8411C159.303 83.8411 159.397 83.8245 159.483 83.7911C159.573 83.7578 159.65 83.7028 159.713 83.6261C159.78 83.5495 159.832 83.4478 159.868 83.3211C159.905 83.1945 159.923 83.0378 159.923 82.8511Z" fill="white"/>
<path d="M45.8426 139.848C46.046 139.848 46.2243 139.819 46.3776 139.763C46.531 139.703 46.6593 139.621 46.7626 139.518C46.8693 139.414 46.9493 139.291 47.0026 139.148C47.056 139.004 47.0826 138.849 47.0826 138.683C47.0826 138.286 46.9726 137.986 46.7526 137.783C46.5326 137.579 46.2293 137.478 45.8426 137.478C45.456 137.478 45.1526 137.579 44.9326 137.783C44.7126 137.986 44.6026 138.286 44.6026 138.683C44.6026 138.849 44.6293 139.004 44.6826 139.148C44.736 139.291 44.8143 139.414 44.9176 139.518C45.0243 139.621 45.1543 139.703 45.3076 139.763C45.461 139.819 45.6393 139.848 45.8426 139.848ZM45.8426 134.353C45.6593 134.353 45.501 134.381 45.3676 134.438C45.2343 134.494 45.1226 134.571 45.0326 134.668C44.946 134.761 44.881 134.869 44.8376 134.993C44.7976 135.116 44.7776 135.246 44.7776 135.383C44.7776 135.526 44.7943 135.666 44.8276 135.803C44.8643 135.936 44.9243 136.056 45.0076 136.163C45.091 136.266 45.201 136.349 45.3376 136.413C45.4743 136.476 45.6426 136.508 45.8426 136.508C46.0426 136.508 46.211 136.476 46.3476 136.413C46.4843 136.349 46.5943 136.266 46.6776 136.163C46.761 136.056 46.8193 135.936 46.8526 135.803C46.8893 135.666 46.9076 135.526 46.9076 135.383C46.9076 135.246 46.886 135.116 46.8426 134.993C46.7993 134.869 46.7343 134.761 46.6476 134.668C46.561 134.571 46.451 134.494 46.3176 134.438C46.1843 134.381 46.026 134.353 45.8426 134.353ZM47.0626 136.963C47.5026 137.106 47.8276 137.326 48.0376 137.623C48.2476 137.916 48.3526 138.276 48.3526 138.703C48.3526 139.023 48.291 139.313 48.1676 139.573C48.0476 139.833 47.8776 140.054 47.6576 140.238C47.4376 140.421 47.1726 140.563 46.8626 140.663C46.556 140.763 46.216 140.813 45.8426 140.813C45.4693 140.813 45.1276 140.763 44.8176 140.663C44.511 140.563 44.2476 140.421 44.0276 140.238C43.8076 140.054 43.636 139.833 43.5126 139.573C43.3926 139.313 43.3326 139.023 43.3326 138.703C43.3326 138.276 43.4376 137.916 43.6476 137.623C43.8576 137.326 44.1826 137.106 44.6226 136.963C44.2726 136.816 44.0093 136.608 43.8326 136.338C43.6593 136.068 43.5726 135.743 43.5726 135.363C43.5726 135.089 43.6276 134.834 43.7376 134.598C43.851 134.361 44.0076 134.156 44.2076 133.983C44.4076 133.806 44.646 133.669 44.9226 133.573C45.2026 133.473 45.5093 133.423 45.8426 133.423C46.176 133.423 46.481 133.473 46.7576 133.573C47.0376 133.669 47.2776 133.806 47.4776 133.983C47.6776 134.156 47.8326 134.361 47.9426 134.598C48.056 134.834 48.1126 135.089 48.1126 135.363C48.1126 135.743 48.0243 136.068 47.8476 136.338C47.6743 136.608 47.4126 136.816 47.0626 136.963ZM52.3034 138.008V135.643C52.3034 135.419 52.3184 135.173 52.3484 134.903L50.1034 138.008H52.3034ZM54.2884 138.008V138.723C54.2884 138.789 54.2667 138.848 54.2234 138.898C54.1801 138.944 54.1184 138.968 54.0384 138.968H53.3784V140.733H52.3034V138.968H49.2534C49.1701 138.968 49.0967 138.943 49.0334 138.893C48.9701 138.839 48.9301 138.774 48.9134 138.698L48.7834 138.073L52.2084 133.498H53.3784V138.008H54.2884ZM58.2692 135.253C58.2692 135.526 58.2225 135.773 58.1292 135.993C58.0392 136.213 57.9175 136.401 57.7642 136.558C57.6109 136.711 57.4325 136.829 57.2292 136.913C57.0259 136.996 56.8142 137.038 56.5942 137.038C56.3542 137.038 56.1325 136.996 55.9292 136.913C55.7259 136.829 55.5492 136.711 55.3992 136.558C55.2525 136.401 55.1375 136.213 55.0542 135.993C54.9709 135.773 54.9292 135.526 54.9292 135.253C54.9292 134.973 54.9709 134.719 55.0542 134.493C55.1375 134.266 55.2525 134.074 55.3992 133.918C55.5492 133.761 55.7259 133.641 55.9292 133.558C56.1325 133.471 56.3542 133.428 56.5942 133.428C56.8342 133.428 57.0559 133.471 57.2592 133.558C57.4659 133.641 57.6442 133.761 57.7942 133.918C57.9442 134.074 58.0609 134.266 58.1442 134.493C58.2275 134.719 58.2692 134.973 58.2692 135.253ZM57.3192 135.253C57.3192 135.059 57.2992 134.898 57.2592 134.768C57.2225 134.638 57.1709 134.533 57.1042 134.453C57.0409 134.373 56.9642 134.316 56.8742 134.283C56.7875 134.246 56.6942 134.228 56.5942 134.228C56.4942 134.228 56.4009 134.246 56.3142 134.283C56.2275 134.316 56.1525 134.373 56.0892 134.453C56.0292 134.533 55.9809 134.638 55.9442 134.768C55.9075 134.898 55.8892 135.059 55.8892 135.253C55.8892 135.439 55.9075 135.596 55.9442 135.723C55.9809 135.846 56.0292 135.946 56.0892 136.023C56.1525 136.099 56.2275 136.154 56.3142 136.188C56.4009 136.221 56.4942 136.238 56.5942 136.238C56.6942 136.238 56.7875 136.221 56.8742 136.188C56.9642 136.154 57.0409 136.099 57.1042 136.023C57.1709 135.946 57.2225 135.846 57.2592 135.723C57.2992 135.596 57.3192 135.439 57.3192 135.253ZM60.6742 133.698C60.7175 133.648 60.7675 133.603 60.8242 133.563C60.8842 133.523 60.9675 133.503 61.0742 133.503H61.9742L56.6042 140.548C56.5609 140.601 56.5092 140.646 56.4492 140.683C56.3892 140.716 56.3159 140.733 56.2292 140.733H55.3092L60.6742 133.698ZM62.3542 139.033C62.3542 139.306 62.3075 139.553 62.2142 139.773C62.1242 139.993 62.0025 140.181 61.8492 140.338C61.6959 140.491 61.5175 140.611 61.3142 140.698C61.1109 140.781 60.8992 140.823 60.6792 140.823C60.4392 140.823 60.2175 140.781 60.0142 140.698C59.8109 140.611 59.6342 140.491 59.4842 140.338C59.3375 140.181 59.2225 139.993 59.1392 139.773C59.0559 139.553 59.0142 139.306 59.0142 139.033C59.0142 138.753 59.0559 138.499 59.1392 138.273C59.2225 138.046 59.3375 137.854 59.4842 137.698C59.6342 137.541 59.8109 137.421 60.0142 137.338C60.2175 137.251 60.4392 137.208 60.6792 137.208C60.9192 137.208 61.1409 137.251 61.3442 137.338C61.5509 137.421 61.7275 137.541 61.8742 137.698C62.0242 137.854 62.1409 138.046 62.2242 138.273C62.3109 138.499 62.3542 138.753 62.3542 139.033ZM61.3992 139.033C61.3992 138.839 61.3809 138.678 61.3442 138.548C61.3075 138.418 61.2559 138.313 61.1892 138.233C61.1259 138.153 61.0492 138.096 60.9592 138.063C60.8725 138.026 60.7792 138.008 60.6792 138.008C60.5792 138.008 60.4859 138.026 60.3992 138.063C60.3125 138.096 60.2375 138.153 60.1742 138.233C60.1109 138.313 60.0609 138.418 60.0242 138.548C59.9909 138.678 59.9742 138.839 59.9742 139.033C59.9742 139.219 59.9909 139.376 60.0242 139.503C60.0609 139.629 60.1109 139.731 60.1742 139.808C60.2375 139.884 60.3125 139.939 60.3992 139.973C60.4859 140.006 60.5792 140.023 60.6792 140.023C60.7792 140.023 60.8725 140.006 60.9592 139.973C61.0492 139.939 61.1259 139.884 61.1892 139.808C61.2559 139.731 61.3075 139.629 61.3442 139.503C61.3809 139.376 61.3992 139.219 61.3992 139.033Z" fill="#1F6698"/>
</g>
<defs>
<clipPath id="clip0_4420_635">
<rect width="161.621" height="183.507" fill="white" transform="translate(28.1897 16.9138)"/>
</clipPath>
</defs>
</svg>
