<svg width="232" height="120" viewBox="0 0 232 120" fill="none" xmlns="http://www.w3.org/2000/svg">
<rect width="232" height="120" fill="white"/>
<path d="M17.3311 31.8887C17.5392 31.8454 17.7385 31.8151 17.9292 31.7977C18.1199 31.776 18.3041 31.7652 18.4818 31.7652C18.9759 31.7652 19.4115 31.8389 19.7885 31.9862C20.1656 32.1336 20.482 32.3373 20.7377 32.5973C20.9934 32.8574 21.1863 33.1629 21.3163 33.514C21.4463 33.8607 21.5113 34.2356 21.5113 34.6387C21.5113 35.1371 21.4225 35.5922 21.2448 36.0039C21.0714 36.4156 20.8287 36.7689 20.5166 37.0636C20.2046 37.354 19.834 37.5793 19.405 37.7397C18.9802 37.9001 18.5165 37.9802 18.0137 37.9802C17.719 37.9802 17.4395 37.9499 17.1751 37.8892C16.9107 37.8285 16.6615 37.7484 16.4275 37.6487C16.1978 37.5447 15.9832 37.4276 15.7839 37.2976C15.5888 37.1633 15.4133 37.0224 15.2573 36.8751L15.7514 36.1924C15.8554 36.0451 15.9919 35.9714 16.1609 35.9714C16.2693 35.9714 16.3798 36.0061 16.4925 36.0754C16.6052 36.1448 16.733 36.2206 16.876 36.303C17.0234 36.3853 17.1946 36.4612 17.3896 36.5305C17.589 36.5998 17.8274 36.6345 18.1047 36.6345C18.3995 36.6345 18.6595 36.5868 18.8849 36.4915C19.1102 36.3961 19.2966 36.264 19.444 36.0949C19.5957 35.9216 19.7083 35.7179 19.782 35.4838C19.86 35.2455 19.899 34.9876 19.899 34.7102C19.899 34.1988 19.7495 33.8 19.4505 33.514C19.1558 33.2236 18.718 33.0784 18.1373 33.0784C17.6908 33.0784 17.2336 33.1608 16.7655 33.3255L15.7644 33.0394L16.5445 28.4757H21.1863V29.1583C21.1863 29.388 21.1147 29.5743 20.9717 29.7174C20.8287 29.8604 20.586 29.9319 20.2436 29.9319H17.6627L17.3311 31.8887ZM29.4501 33.1759C29.4501 33.9951 29.3613 34.708 29.1836 35.3148C29.0102 35.9172 28.7675 36.4156 28.4555 36.81C28.1478 37.2044 27.7815 37.4992 27.3568 37.6942C26.9364 37.8849 26.4813 37.9802 25.9916 37.9802C25.5018 37.9802 25.0467 37.8849 24.6263 37.6942C24.2103 37.4992 23.8484 37.2044 23.5407 36.81C23.2329 36.4156 22.9924 35.9172 22.819 35.3148C22.6457 34.708 22.559 33.9951 22.559 33.1759C22.559 32.3525 22.6457 31.6395 22.819 31.0371C22.9924 30.4347 23.2329 29.9362 23.5407 29.5418C23.8484 29.1474 24.2103 28.8549 24.6263 28.6642C25.0467 28.4692 25.5018 28.3716 25.9916 28.3716C26.4813 28.3716 26.9364 28.4692 27.3568 28.6642C27.7815 28.8549 28.1478 29.1474 28.4555 29.5418C28.7675 29.9362 29.0102 30.4347 29.1836 31.0371C29.3613 31.6395 29.4501 32.3525 29.4501 33.1759ZM27.7924 33.1759C27.7924 32.4955 27.7425 31.9321 27.6428 31.4857C27.5432 31.0393 27.4088 30.6839 27.2398 30.4195C27.0751 30.1551 26.8844 29.9709 26.6677 29.8669C26.451 29.7585 26.2256 29.7044 25.9916 29.7044C25.7619 29.7044 25.5387 29.7585 25.322 29.8669C25.1096 29.9709 24.9211 30.1551 24.7564 30.4195C24.5917 30.6839 24.4595 31.0393 24.3598 31.4857C24.2645 31.9321 24.2168 32.4955 24.2168 33.1759C24.2168 33.8564 24.2645 34.4198 24.3598 34.8662C24.4595 35.3126 24.5917 35.668 24.7564 35.9324C24.9211 36.1968 25.1096 36.3831 25.322 36.4915C25.5387 36.5955 25.7619 36.6475 25.9916 36.6475C26.2256 36.6475 26.451 36.5955 26.6677 36.4915C26.8844 36.3831 27.0751 36.1968 27.2398 35.9324C27.4088 35.668 27.5432 35.3126 27.6428 34.8662C27.7425 34.4198 27.7924 33.8564 27.7924 33.1759ZM34.6195 30.751C34.6195 31.1064 34.5588 31.4272 34.4375 31.7132C34.3205 31.9992 34.1623 32.2441 33.9629 32.4478C33.7635 32.6472 33.5317 32.801 33.2673 32.9094C33.0029 33.0178 32.7277 33.0719 32.4416 33.0719C32.1296 33.0719 31.8414 33.0178 31.577 32.9094C31.3126 32.801 31.0829 32.6472 30.8879 32.4478C30.6972 32.2441 30.5477 31.9992 30.4393 31.7132C30.331 31.4272 30.2768 31.1064 30.2768 30.751C30.2768 30.387 30.331 30.0576 30.4393 29.7629C30.5477 29.4682 30.6972 29.219 30.8879 29.0153C31.0829 28.8116 31.3126 28.6555 31.577 28.5472C31.8414 28.4345 32.1296 28.3782 32.4416 28.3782C32.7537 28.3782 33.0419 28.4345 33.3063 28.5472C33.575 28.6555 33.8069 28.8116 34.0019 29.0153C34.1969 29.219 34.3486 29.4682 34.457 29.7629C34.5653 30.0576 34.6195 30.387 34.6195 30.751ZM33.3843 30.751C33.3843 30.4997 33.3583 30.2895 33.3063 30.1204C33.2586 29.9514 33.1914 29.8149 33.1048 29.7109C33.0224 29.6069 32.9227 29.5332 32.8057 29.4898C32.693 29.4422 32.5717 29.4183 32.4416 29.4183C32.3116 29.4183 32.1903 29.4422 32.0776 29.4898C31.9649 29.5332 31.8674 29.6069 31.785 29.7109C31.707 29.8149 31.6442 29.9514 31.5965 30.1204C31.5488 30.2895 31.525 30.4997 31.525 30.751C31.525 30.9937 31.5488 31.1974 31.5965 31.3621C31.6442 31.5225 31.707 31.6525 31.785 31.7522C31.8674 31.8519 31.9649 31.9234 32.0776 31.9667C32.1903 32.0101 32.3116 32.0318 32.4416 32.0318C32.5717 32.0318 32.693 32.0101 32.8057 31.9667C32.9227 31.9234 33.0224 31.8519 33.1048 31.7522C33.1914 31.6525 33.2586 31.5225 33.3063 31.3621C33.3583 31.1974 33.3843 30.9937 33.3843 30.751ZM37.7465 28.7292C37.8029 28.6642 37.8679 28.6057 37.9416 28.5537C38.0196 28.5017 38.1279 28.4757 38.2666 28.4757H39.4368L32.4547 37.6357C32.3983 37.705 32.3311 37.7635 32.2531 37.8112C32.1751 37.8546 32.0798 37.8762 31.9671 37.8762H30.7709L37.7465 28.7292ZM39.9309 35.6659C39.9309 36.0212 39.8702 36.342 39.7489 36.628C39.6318 36.9141 39.4736 37.1589 39.2743 37.3626C39.0749 37.562 38.843 37.718 38.5787 37.8307C38.3143 37.9391 38.0391 37.9932 37.753 37.9932C37.441 37.9932 37.1528 37.9391 36.8884 37.8307C36.624 37.718 36.3943 37.562 36.1993 37.3626C36.0086 37.1589 35.859 36.9141 35.7507 36.628C35.6423 36.342 35.5882 36.0212 35.5882 35.6659C35.5882 35.3018 35.6423 34.9724 35.7507 34.6777C35.859 34.383 36.0086 34.1338 36.1993 33.9301C36.3943 33.7264 36.624 33.5703 36.8884 33.462C37.1528 33.3493 37.441 33.293 37.753 33.293C38.0651 33.293 38.3533 33.3493 38.6177 33.462C38.8864 33.5703 39.1161 33.7264 39.3068 33.9301C39.5018 34.1338 39.6535 34.383 39.7619 34.6777C39.8745 34.9724 39.9309 35.3018 39.9309 35.6659ZM38.6892 35.6659C38.6892 35.4145 38.6653 35.2043 38.6177 35.0353C38.57 34.8662 38.5028 34.7297 38.4161 34.6257C38.3338 34.5217 38.2341 34.448 38.1171 34.4046C38.0044 34.357 37.883 34.3331 37.753 34.3331C37.623 34.3331 37.5017 34.357 37.389 34.4046C37.2763 34.448 37.1788 34.5217 37.0964 34.6257C37.0141 34.7297 36.9491 34.8662 36.9014 35.0353C36.858 35.2043 36.8364 35.4145 36.8364 35.6659C36.8364 35.9086 36.858 36.1123 36.9014 36.277C36.9491 36.4417 37.0141 36.5738 37.0964 36.6735C37.1788 36.7732 37.2763 36.8447 37.389 36.8881C37.5017 36.9314 37.623 36.9531 37.753 36.9531C37.883 36.9531 38.0044 36.9314 38.1171 36.8881C38.2341 36.8447 38.3338 36.7732 38.4161 36.6735C38.5028 36.5738 38.57 36.4417 38.6177 36.277C38.6653 36.1123 38.6892 35.9086 38.6892 35.6659ZM47.3356 31.1021C47.8297 31.1021 48.2783 31.1823 48.6813 31.3426C49.0887 31.503 49.4355 31.7305 49.7215 32.0253C50.0119 32.32 50.2351 32.6797 50.3911 33.1044C50.5471 33.5292 50.6252 34.0037 50.6252 34.5282C50.6252 35.0569 50.5471 35.5337 50.3911 35.9584C50.2351 36.3831 50.0119 36.745 49.7215 37.0441C49.4355 37.3431 49.0887 37.5728 48.6813 37.7332C48.2783 37.8936 47.8297 37.9737 47.3356 37.9737C46.8372 37.9737 46.3843 37.8936 45.9769 37.7332C45.5695 37.5728 45.2206 37.3431 44.9302 37.0441C44.6442 36.745 44.421 36.3831 44.2606 35.9584C44.1046 35.5337 44.0266 35.0569 44.0266 34.5282C44.0266 34.0037 44.1046 33.5292 44.2606 33.1044C44.421 32.6797 44.6442 32.32 44.9302 32.0253C45.2206 31.7305 45.5695 31.503 45.9769 31.3426C46.3843 31.1823 46.8372 31.1021 47.3356 31.1021ZM47.3356 36.7385C47.8904 36.7385 48.2999 36.5522 48.5643 36.1794C48.833 35.8067 48.9674 35.2606 48.9674 34.5412C48.9674 33.8217 48.833 33.2735 48.5643 32.8964C48.2999 32.5193 47.8904 32.3308 47.3356 32.3308C46.7722 32.3308 46.3539 32.5215 46.0809 32.9029C45.8122 33.28 45.6778 33.8261 45.6778 34.5412C45.6778 35.2563 45.8122 35.8024 46.0809 36.1794C46.3539 36.5522 46.7722 36.7385 47.3356 36.7385ZM52.1532 37.8762V32.4153L51.5746 32.3243C51.4489 32.2983 51.3471 32.255 51.2691 32.1943C51.1954 32.1293 51.1585 32.0383 51.1585 31.9212V31.2646H52.1532V30.7705C52.1532 30.3891 52.2096 30.0468 52.3222 29.7434C52.4393 29.44 52.604 29.1821 52.8163 28.9697C53.033 28.7574 53.2952 28.5949 53.603 28.4822C53.9107 28.3695 54.2574 28.3131 54.6431 28.3131C54.9508 28.3131 55.2369 28.3543 55.5013 28.4367L55.4688 29.2428C55.4644 29.3035 55.4471 29.3533 55.4168 29.3923C55.3864 29.427 55.3452 29.4552 55.2932 29.4768C55.2456 29.4942 55.1892 29.5072 55.1242 29.5158C55.0592 29.5202 54.9898 29.5223 54.9162 29.5223C54.7255 29.5223 54.5543 29.544 54.4026 29.5874C54.2552 29.6264 54.1295 29.6979 54.0255 29.8019C53.9215 29.9016 53.8413 30.0359 53.785 30.205C53.733 30.3696 53.707 30.5755 53.707 30.8226V31.2646H55.4428V32.4088H53.759V37.8762H52.1532ZM61.4889 37.9802C60.9081 37.9802 60.4617 37.8177 60.1496 37.4927C59.8419 37.1633 59.6881 36.7104 59.6881 36.1339V32.4088H59.0054C58.9188 32.4088 58.8451 32.3806 58.7844 32.3243C58.7237 32.268 58.6934 32.1834 58.6934 32.0708V31.4337L59.7661 31.2581L60.1041 29.4378C60.1258 29.3511 60.167 29.284 60.2276 29.2363C60.2883 29.1886 60.3663 29.1648 60.4617 29.1648H61.2938V31.2646H63.0751V32.4088H61.2938V36.0234C61.2938 36.2314 61.3437 36.394 61.4433 36.511C61.5474 36.628 61.6882 36.6865 61.8659 36.6865C61.9656 36.6865 62.0479 36.6757 62.113 36.654C62.1823 36.628 62.2408 36.602 62.2885 36.576C62.3405 36.55 62.386 36.5262 62.425 36.5045C62.464 36.4785 62.503 36.4655 62.542 36.4655C62.5897 36.4655 62.6287 36.4785 62.659 36.5045C62.6894 36.5262 62.7219 36.5608 62.7566 36.6085L63.2376 37.3886C63.0036 37.5837 62.7349 37.731 62.4315 37.8307C62.1281 37.9304 61.8139 37.9802 61.4889 37.9802ZM65.709 31.9212C65.969 31.6785 66.2551 31.4813 66.5671 31.3296C66.8792 31.1779 67.2454 31.1021 67.6658 31.1021C68.0299 31.1021 68.3527 31.1649 68.6345 31.2906C68.9162 31.412 69.1502 31.5853 69.3366 31.8107C69.5273 32.0318 69.6703 32.2983 69.7656 32.6104C69.8653 32.9181 69.9152 33.2583 69.9152 33.631V37.8762H68.3094V33.631C68.3094 33.2236 68.2162 32.9094 68.0299 32.6884C67.8435 32.463 67.5596 32.3503 67.1782 32.3503C66.9008 32.3503 66.6408 32.4132 66.3981 32.5388C66.1554 32.6645 65.9257 32.8357 65.709 33.0524V37.8762H64.1032V28.2156H65.709V31.9212ZM75.7395 33.774C75.7395 33.566 75.7092 33.371 75.6485 33.1889C75.5922 33.0026 75.5055 32.8401 75.3885 32.7014C75.2714 32.5627 75.1219 32.4543 74.9399 32.3763C74.7622 32.294 74.5541 32.2528 74.3158 32.2528C73.852 32.2528 73.4858 32.385 73.2171 32.6494C72.9527 32.9137 72.7837 33.2886 72.71 33.774H75.7395ZM72.6775 34.7427C72.7035 35.0851 72.7642 35.382 72.8595 35.6333C72.9549 35.8804 73.0806 36.0863 73.2366 36.251C73.3926 36.4113 73.5768 36.5327 73.7892 36.615C74.0059 36.693 74.2443 36.732 74.5043 36.732C74.7644 36.732 74.9876 36.7017 75.1739 36.641C75.3646 36.5803 75.5293 36.5132 75.668 36.4395C75.811 36.3658 75.9345 36.2986 76.0386 36.2379C76.1469 36.1773 76.2509 36.1469 76.3506 36.1469C76.485 36.1469 76.5847 36.1968 76.6497 36.2965L77.1112 36.8816C76.9335 37.0896 76.7342 37.2651 76.5131 37.4081C76.2921 37.5468 76.0602 37.6595 75.8175 37.7462C75.5792 37.8285 75.3343 37.8871 75.0829 37.9217C74.8359 37.9564 74.5953 37.9737 74.3613 37.9737C73.8975 37.9737 73.4663 37.8979 73.0676 37.7462C72.6688 37.5902 72.3221 37.3626 72.0274 37.0636C71.7327 36.7602 71.5008 36.3875 71.3318 35.9454C71.1628 35.499 71.0782 34.9832 71.0782 34.3981C71.0782 33.9431 71.1519 33.5162 71.2993 33.1174C71.4466 32.7144 71.6568 32.3655 71.9299 32.0708C72.2073 31.7717 72.5431 31.5355 72.9375 31.3621C73.3363 31.1888 73.7849 31.1021 74.2833 31.1021C74.7037 31.1021 75.0916 31.1693 75.447 31.3036C75.8024 31.438 76.1079 31.6352 76.3636 31.8952C76.6193 32.1509 76.8187 32.4673 76.9617 32.8444C77.1091 33.2171 77.1827 33.644 77.1827 34.1251C77.1827 34.3678 77.1567 34.5325 77.1047 34.6192C77.0527 34.7015 76.953 34.7427 76.8057 34.7427H72.6775ZM83.1747 28.2156V37.8762H81.569V28.2156H83.1747ZM87.7261 31.1021C88.2202 31.1021 88.6687 31.1823 89.0718 31.3426C89.4792 31.503 89.8259 31.7305 90.112 32.0253C90.4024 32.32 90.6256 32.6797 90.7816 33.1044C90.9376 33.5292 91.0156 34.0037 91.0156 34.5282C91.0156 35.0569 90.9376 35.5337 90.7816 35.9584C90.6256 36.3831 90.4024 36.745 90.112 37.0441C89.8259 37.3431 89.4792 37.5728 89.0718 37.7332C88.6687 37.8936 88.2202 37.9737 87.7261 37.9737C87.2277 37.9737 86.7748 37.8936 86.3674 37.7332C85.96 37.5728 85.6111 37.3431 85.3207 37.0441C85.0346 36.745 84.8114 36.3831 84.6511 35.9584C84.495 35.5337 84.417 35.0569 84.417 34.5282C84.417 34.0037 84.495 33.5292 84.6511 33.1044C84.8114 32.6797 85.0346 32.32 85.3207 32.0253C85.6111 31.7305 85.96 31.503 86.3674 31.3426C86.7748 31.1823 87.2277 31.1021 87.7261 31.1021ZM87.7261 36.7385C88.2808 36.7385 88.6904 36.5522 88.9548 36.1794C89.2235 35.8067 89.3578 35.2606 89.3578 34.5412C89.3578 33.8217 89.2235 33.2735 88.9548 32.8964C88.6904 32.5193 88.2808 32.3308 87.7261 32.3308C87.1627 32.3308 86.7444 32.5215 86.4714 32.9029C86.2027 33.28 86.0683 33.8261 86.0683 34.5412C86.0683 35.2563 86.2027 35.8024 86.4714 36.1794C86.7444 36.5522 87.1627 36.7385 87.7261 36.7385ZM101.65 31.2061L99.5311 37.8762H98.2439C98.0965 37.8762 97.9947 37.7809 97.9383 37.5902L96.7421 33.735C96.7031 33.605 96.6663 33.4772 96.6316 33.3515C96.6013 33.2215 96.5753 33.0914 96.5536 32.9614C96.5276 33.0914 96.4973 33.2236 96.4626 33.358C96.4323 33.488 96.3976 33.618 96.3586 33.748L95.1429 37.5902C95.0909 37.7809 94.976 37.8762 94.7983 37.8762H93.5631L91.4503 31.2061H92.731C92.848 31.2061 92.9477 31.2343 93.03 31.2906C93.1124 31.347 93.1666 31.4185 93.1926 31.5052L94.1482 35.0678C94.1959 35.2628 94.2371 35.4535 94.2717 35.6399C94.3107 35.8262 94.3432 36.0126 94.3693 36.1989C94.4169 36.0126 94.4668 35.8262 94.5188 35.6399C94.5751 35.4535 94.6336 35.2628 94.6943 35.0678L95.7995 31.4922C95.8255 31.4055 95.8753 31.334 95.949 31.2776C96.027 31.2213 96.1202 31.1931 96.2286 31.1931H96.9372C97.0499 31.1931 97.1452 31.2213 97.2232 31.2776C97.3056 31.334 97.3597 31.4055 97.3858 31.4922L98.4584 35.0678C98.5148 35.2628 98.5668 35.4557 98.6145 35.6464C98.6665 35.8327 98.7163 36.0191 98.764 36.2054C98.8203 35.8371 98.9005 35.4578 99.0045 35.0678L99.9862 31.5052C100.017 31.4185 100.071 31.347 100.149 31.2906C100.227 31.2343 100.32 31.2061 100.428 31.2061H101.65ZM102.512 33.28H105.879V34.6192H102.512V33.28ZM2.89625 47.2061V53.8762H1.28398V47.2061H2.89625ZM3.11728 45.2623C3.11728 45.401 3.08911 45.531 3.03277 45.6524C2.97643 45.7737 2.90058 45.8799 2.80523 45.9709C2.71422 46.0619 2.60586 46.1356 2.48018 46.192C2.35449 46.244 2.22013 46.27 2.07711 46.27C1.93842 46.27 1.80623 46.244 1.68054 46.192C1.55919 46.1356 1.45301 46.0619 1.36199 45.9709C1.27098 45.8799 1.1973 45.7737 1.14096 45.6524C1.08895 45.531 1.06294 45.401 1.06294 45.2623C1.06294 45.1193 1.08895 44.9849 1.14096 44.8592C1.1973 44.7335 1.27098 44.6252 1.36199 44.5342C1.45301 44.4432 1.55919 44.3716 1.68054 44.3196C1.80623 44.2633 1.93842 44.2351 2.07711 44.2351C2.22013 44.2351 2.35449 44.2633 2.48018 44.3196C2.60586 44.3716 2.71422 44.4432 2.80523 44.5342C2.90058 44.6252 2.97643 44.7335 3.03277 44.8592C3.08911 44.9849 3.11728 45.1193 3.11728 45.2623ZM6.03505 48.0253C6.1694 47.8909 6.31026 47.7674 6.45761 47.6547C6.60931 47.5377 6.7675 47.4402 6.93219 47.3621C7.10122 47.2798 7.28108 47.217 7.47178 47.1736C7.66248 47.1259 7.87052 47.1021 8.09589 47.1021C8.45995 47.1021 8.78283 47.1649 9.06455 47.2906C9.34626 47.412 9.5803 47.5853 9.76666 47.8107C9.95736 48.0318 10.1004 48.2983 10.1957 48.6104C10.2954 48.9181 10.3453 49.2583 10.3453 49.631V53.8762H8.73949V49.631C8.73949 49.2236 8.64631 48.9094 8.45995 48.6884C8.27358 48.463 7.9897 48.3503 7.60831 48.3503C7.33093 48.3503 7.07088 48.4132 6.82818 48.5388C6.58547 48.6645 6.35576 48.8357 6.13906 49.0524V53.8762H4.5333V47.2061H5.51496C5.72299 47.2061 5.85952 47.3036 5.92453 47.4987L6.03505 48.0253ZM16.6507 48.6169C16.603 48.6775 16.5553 48.7252 16.5077 48.7599C16.4643 48.7945 16.3993 48.8119 16.3126 48.8119C16.2303 48.8119 16.1501 48.788 16.0721 48.7404C15.9941 48.6884 15.9009 48.632 15.7925 48.5713C15.6842 48.5063 15.5542 48.45 15.4025 48.4023C15.2551 48.3503 15.0709 48.3243 14.8499 48.3243C14.5682 48.3243 14.3211 48.3763 14.1088 48.4803C13.8964 48.58 13.7187 48.7252 13.5757 48.9159C13.437 49.1066 13.333 49.3385 13.2636 49.6115C13.1943 49.8802 13.1596 50.1858 13.1596 50.5282C13.1596 50.8836 13.1965 51.1999 13.2701 51.4773C13.3481 51.7547 13.4587 51.9887 13.6017 52.1794C13.7447 52.3658 13.9181 52.5088 14.1218 52.6085C14.3255 52.7039 14.5552 52.7515 14.8109 52.7515C15.0666 52.7515 15.2725 52.7212 15.4285 52.6605C15.5888 52.5955 15.7232 52.5262 15.8316 52.4525C15.9399 52.3745 16.0331 52.3051 16.1111 52.2445C16.1934 52.1794 16.2845 52.1469 16.3841 52.1469C16.5142 52.1469 16.6117 52.1968 16.6767 52.2965L17.1383 52.8816C16.9606 53.0896 16.7677 53.2651 16.5597 53.4081C16.3516 53.5468 16.1349 53.6595 15.9096 53.7462C15.6885 53.8285 15.4588 53.8871 15.2205 53.9217C14.9864 53.9564 14.7524 53.9737 14.5183 53.9737C14.1066 53.9737 13.7187 53.8979 13.3546 53.7462C12.9906 53.5902 12.672 53.3648 12.399 53.0701C12.1259 52.7754 11.9092 52.4156 11.7489 51.9909C11.5929 51.5618 11.5148 51.0743 11.5148 50.5282C11.5148 50.0384 11.5842 49.5855 11.7229 49.1694C11.8659 48.749 12.0739 48.3871 12.347 48.0838C12.62 47.776 12.9581 47.5355 13.3611 47.3621C13.7642 47.1888 14.228 47.1021 14.7524 47.1021C15.2508 47.1021 15.6864 47.1823 16.0591 47.3426C16.4362 47.503 16.7742 47.7327 17.0733 48.0318L16.6507 48.6169ZM20.9821 47.1021C21.4762 47.1021 21.9248 47.1823 22.3279 47.3426C22.7353 47.503 23.082 47.7305 23.368 48.0253C23.6584 48.32 23.8816 48.6797 24.0376 49.1044C24.1937 49.5292 24.2717 50.0037 24.2717 50.5282C24.2717 51.0569 24.1937 51.5337 24.0376 51.9584C23.8816 52.3831 23.6584 52.745 23.368 53.0441C23.082 53.3431 22.7353 53.5728 22.3279 53.7332C21.9248 53.8936 21.4762 53.9737 20.9821 53.9737C20.4837 53.9737 20.0308 53.8936 19.6234 53.7332C19.216 53.5728 18.8671 53.3431 18.5767 53.0441C18.2907 52.745 18.0675 52.3831 17.9071 51.9584C17.7511 51.5337 17.6731 51.0569 17.6731 50.5282C17.6731 50.0037 17.7511 49.5292 17.9071 49.1044C18.0675 48.6797 18.2907 48.32 18.5767 48.0253C18.8671 47.7305 19.216 47.503 19.6234 47.3426C20.0308 47.1823 20.4837 47.1021 20.9821 47.1021ZM20.9821 52.7385C21.5369 52.7385 21.9465 52.5522 22.2108 52.1794C22.4795 51.8067 22.6139 51.2606 22.6139 50.5412C22.6139 49.8217 22.4795 49.2735 22.2108 48.8964C21.9465 48.5193 21.5369 48.3308 20.9821 48.3308C20.4187 48.3308 20.0005 48.5215 19.7274 48.9029C19.4587 49.28 19.3244 49.8261 19.3244 50.5412C19.3244 51.2563 19.4587 51.8024 19.7274 52.1794C20.0005 52.5522 20.4187 52.7385 20.9821 52.7385ZM25.4967 53.8762V47.2061H26.4784C26.6864 47.2061 26.8229 47.3036 26.888 47.4987L26.992 47.9927C27.109 47.8627 27.2303 47.7435 27.356 47.6352C27.4861 47.5268 27.6226 47.4337 27.7656 47.3556C27.913 47.2776 28.069 47.217 28.2337 47.1736C28.4027 47.1259 28.5869 47.1021 28.7863 47.1021C29.2067 47.1021 29.5512 47.217 29.8199 47.4467C30.093 47.672 30.2967 47.9732 30.431 48.3503C30.5351 48.1293 30.6651 47.9407 30.8211 47.7847C30.9771 47.6244 31.1483 47.4943 31.3347 47.3946C31.5211 47.295 31.7183 47.2213 31.9263 47.1736C32.1387 47.1259 32.351 47.1021 32.5634 47.1021C32.9318 47.1021 33.259 47.1584 33.5451 47.2711C33.8311 47.3838 34.0716 47.5485 34.2667 47.7652C34.4617 47.9819 34.6091 48.2463 34.7087 48.5583C34.8128 48.8704 34.8648 49.228 34.8648 49.631V53.8762H33.259V49.631C33.259 49.2063 33.1658 48.8877 32.9795 48.6754C32.7931 48.4587 32.52 48.3503 32.1603 48.3503C31.9956 48.3503 31.8418 48.3785 31.6987 48.4348C31.5601 48.4912 31.4365 48.5735 31.3282 48.6819C31.2242 48.7859 31.1418 48.9181 31.0811 49.0784C31.0205 49.2388 30.9901 49.423 30.9901 49.631V53.8762H29.3779V49.631C29.3779 49.1846 29.2868 48.8596 29.1048 48.6559C28.9271 48.4522 28.6649 48.3503 28.3182 48.3503C28.0841 48.3503 27.8653 48.4088 27.6616 48.5258C27.4622 48.6385 27.2758 48.7945 27.1025 48.9939V53.8762H25.4967ZM40.6883 49.774C40.6883 49.566 40.658 49.371 40.5973 49.1889C40.541 49.0026 40.4543 48.8401 40.3373 48.7014C40.2202 48.5627 40.0707 48.4543 39.8887 48.3763C39.711 48.294 39.5029 48.2528 39.2646 48.2528C38.8008 48.2528 38.4346 48.385 38.1659 48.6494C37.9015 48.9137 37.7325 49.2886 37.6588 49.774H40.6883ZM37.6263 50.7427C37.6523 51.0851 37.713 51.382 37.8083 51.6333C37.9037 51.8804 38.0294 52.0863 38.1854 52.251C38.3414 52.4113 38.5256 52.5327 38.738 52.615C38.9547 52.693 39.1931 52.732 39.4531 52.732C39.7131 52.732 39.9364 52.7017 40.1227 52.641C40.3134 52.5803 40.4781 52.5132 40.6168 52.4395C40.7598 52.3658 40.8833 52.2986 40.9874 52.2379C41.0957 52.1773 41.1997 52.1469 41.2994 52.1469C41.4338 52.1469 41.5335 52.1968 41.5985 52.2965L42.06 52.8816C41.8823 53.0896 41.683 53.2651 41.4619 53.4081C41.2409 53.5468 41.009 53.6595 40.7663 53.7462C40.528 53.8285 40.2831 53.8871 40.0317 53.9217C39.7847 53.9564 39.5441 53.9737 39.3101 53.9737C38.8463 53.9737 38.4151 53.8979 38.0164 53.7462C37.6176 53.5902 37.2709 53.3626 36.9762 53.0636C36.6815 52.7602 36.4496 52.3875 36.2806 51.9454C36.1116 51.499 36.027 50.9832 36.027 50.3981C36.027 49.9431 36.1007 49.5162 36.2481 49.1174C36.3954 48.7144 36.6056 48.3655 36.8787 48.0708C37.1561 47.7717 37.4919 47.5355 37.8863 47.3621C38.2851 47.1888 38.7337 47.1021 39.2321 47.1021C39.6525 47.1021 40.0404 47.1693 40.3958 47.3036C40.7512 47.438 41.0567 47.6352 41.3124 47.8952C41.5681 48.1509 41.7675 48.4673 41.9105 48.8444C42.0579 49.2171 42.1315 49.644 42.1315 50.1251C42.1315 50.3678 42.1055 50.5325 42.0535 50.6192C42.0015 50.7015 41.9018 50.7427 41.7545 50.7427H37.6263ZM50.6849 48.9094C50.5029 48.6884 50.3035 48.5323 50.0868 48.4413C49.8745 48.3503 49.6448 48.3048 49.3977 48.3048C49.155 48.3048 48.9361 48.3503 48.7411 48.4413C48.5461 48.5323 48.3792 48.671 48.2405 48.8574C48.1018 49.0394 47.9957 49.2735 47.922 49.5595C47.8483 49.8412 47.8115 50.1749 47.8115 50.5607C47.8115 50.9507 47.8418 51.2823 47.9025 51.5553C47.9675 51.824 48.0585 52.0451 48.1755 52.2184C48.2925 52.3875 48.4356 52.511 48.6046 52.589C48.7736 52.6627 48.9621 52.6995 49.1702 52.6995C49.5039 52.6995 49.7878 52.6302 50.0218 52.4915C50.2559 52.3528 50.4769 52.1556 50.6849 51.8999V48.9094ZM52.2907 44.2156V53.8762H51.309C51.0967 53.8762 50.9623 53.7787 50.906 53.5837L50.7694 52.9401C50.5007 53.2478 50.1909 53.497 49.8398 53.6877C49.4931 53.8784 49.0878 53.9737 48.6241 53.9737C48.26 53.9737 47.9263 53.8979 47.6229 53.7462C47.3195 53.5945 47.0573 53.3756 46.8363 53.0896C46.6196 52.7992 46.4506 52.4417 46.3292 52.0169C46.2122 51.5922 46.1537 51.1068 46.1537 50.5607C46.1537 50.0666 46.2209 49.6072 46.3552 49.1824C46.4896 48.7577 46.6824 48.3893 46.9338 48.0773C47.1852 47.7652 47.4864 47.5225 47.8375 47.3491C48.1885 47.1714 48.5829 47.0826 49.0207 47.0826C49.3934 47.0826 49.7119 47.1411 49.9763 47.2581C50.2407 47.3751 50.4769 47.5333 50.6849 47.7327V44.2156H52.2907ZM58.1726 49.774C58.1726 49.566 58.1423 49.371 58.0816 49.1889C58.0253 49.0026 57.9386 48.8401 57.8216 48.7014C57.7046 48.5627 57.555 48.4543 57.373 48.3763C57.1953 48.294 56.9873 48.2528 56.7489 48.2528C56.2852 48.2528 55.9189 48.385 55.6502 48.6494C55.3858 48.9137 55.2168 49.2886 55.1431 49.774H58.1726ZM55.1106 50.7427C55.1366 51.0851 55.1973 51.382 55.2927 51.6333C55.388 51.8804 55.5137 52.0863 55.6697 52.251C55.8258 52.4113 56.01 52.5327 56.2223 52.615C56.439 52.693 56.6774 52.732 56.9374 52.732C57.1975 52.732 57.4207 52.7017 57.6071 52.641C57.7977 52.5803 57.9624 52.5132 58.1011 52.4395C58.2442 52.3658 58.3677 52.2986 58.4717 52.2379C58.58 52.1773 58.6841 52.1469 58.7837 52.1469C58.9181 52.1469 59.0178 52.1968 59.0828 52.2965L59.5444 52.8816C59.3667 53.0896 59.1673 53.2651 58.9463 53.4081C58.7252 53.5468 58.4934 53.6595 58.2507 53.7462C58.0123 53.8285 57.7674 53.8871 57.516 53.9217C57.269 53.9564 57.0285 53.9737 56.7944 53.9737C56.3307 53.9737 55.8994 53.8979 55.5007 53.7462C55.102 53.5902 54.7552 53.3626 54.4605 53.0636C54.1658 52.7602 53.9339 52.3875 53.7649 51.9454C53.5959 51.499 53.5114 50.9832 53.5114 50.3981C53.5114 49.9431 53.5851 49.5162 53.7324 49.1174C53.8798 48.7144 54.09 48.3655 54.363 48.0708C54.6404 47.7717 54.9763 47.5355 55.3707 47.3621C55.7694 47.1888 56.218 47.1021 56.7164 47.1021C57.1368 47.1021 57.5247 47.1693 57.8801 47.3036C58.2355 47.438 58.541 47.6352 58.7967 47.8952C59.0525 48.1509 59.2518 48.4673 59.3948 48.8444C59.5422 49.2171 59.6159 49.644 59.6159 50.1251C59.6159 50.3678 59.5899 50.5325 59.5379 50.6192C59.4859 50.7015 59.3862 50.7427 59.2388 50.7427H55.1106ZM60.8209 53.8762V47.2061H61.8026C62.0106 47.2061 62.1471 47.3036 62.2121 47.4987L62.3162 47.9927C62.4332 47.8627 62.5545 47.7435 62.6802 47.6352C62.8102 47.5268 62.9468 47.4337 63.0898 47.3556C63.2371 47.2776 63.3932 47.217 63.5579 47.1736C63.7269 47.1259 63.9111 47.1021 64.1105 47.1021C64.5309 47.1021 64.8754 47.217 65.1441 47.4467C65.4172 47.672 65.6209 47.9732 65.7552 48.3503C65.8593 48.1293 65.9893 47.9407 66.1453 47.7847C66.3013 47.6244 66.4725 47.4943 66.6589 47.3946C66.8452 47.295 67.0424 47.2213 67.2505 47.1736C67.4628 47.1259 67.6752 47.1021 67.8876 47.1021C68.256 47.1021 68.5832 47.1584 68.8692 47.2711C69.1553 47.3838 69.3958 47.5485 69.5909 47.7652C69.7859 47.9819 69.9333 48.2463 70.0329 48.5583C70.137 48.8704 70.189 49.228 70.189 49.631V53.8762H68.5832V49.631C68.5832 49.2063 68.49 48.8877 68.3037 48.6754C68.1173 48.4587 67.8442 48.3503 67.4845 48.3503C67.3198 48.3503 67.166 48.3785 67.0229 48.4348C66.8843 48.4912 66.7607 48.5735 66.6524 48.6819C66.5484 48.7859 66.466 48.9181 66.4053 49.0784C66.3447 49.2388 66.3143 49.423 66.3143 49.631V53.8762H64.7021V49.631C64.7021 49.1846 64.611 48.8596 64.429 48.6559C64.2513 48.4522 63.9891 48.3503 63.6424 48.3503C63.4083 48.3503 63.1895 48.4088 62.9858 48.5258C62.7864 48.6385 62.6 48.7945 62.4267 48.9939V53.8762H60.8209ZM74.6668 47.1021C75.1609 47.1021 75.6094 47.1823 76.0125 47.3426C76.4199 47.503 76.7666 47.7305 77.0527 48.0253C77.3431 48.32 77.5663 48.6797 77.7223 49.1044C77.8783 49.5292 77.9563 50.0037 77.9563 50.5282C77.9563 51.0569 77.8783 51.5337 77.7223 51.9584C77.5663 52.3831 77.3431 52.745 77.0527 53.0441C76.7666 53.3431 76.4199 53.5728 76.0125 53.7332C75.6094 53.8936 75.1609 53.9737 74.6668 53.9737C74.1684 53.9737 73.7155 53.8936 73.3081 53.7332C72.9007 53.5728 72.5518 53.3431 72.2614 53.0441C71.9753 52.745 71.7521 52.3831 71.5918 51.9584C71.4357 51.5337 71.3577 51.0569 71.3577 50.5282C71.3577 50.0037 71.4357 49.5292 71.5918 49.1044C71.7521 48.6797 71.9753 48.32 72.2614 48.0253C72.5518 47.7305 72.9007 47.503 73.3081 47.3426C73.7155 47.1823 74.1684 47.1021 74.6668 47.1021ZM74.6668 52.7385C75.2215 52.7385 75.6311 52.5522 75.8955 52.1794C76.1642 51.8067 76.2986 51.2606 76.2986 50.5412C76.2986 49.8217 76.1642 49.2735 75.8955 48.8964C75.6311 48.5193 75.2215 48.3308 74.6668 48.3308C74.1034 48.3308 73.6851 48.5215 73.4121 48.9029C73.1434 49.28 73.009 49.8261 73.009 50.5412C73.009 51.2563 73.1434 51.8024 73.4121 52.1794C73.6851 52.5522 74.1034 52.7385 74.6668 52.7385ZM81.5685 50.3786C81.7678 50.3786 81.9412 50.3526 82.0886 50.3006C82.2359 50.2443 82.3573 50.1684 82.4526 50.0731C82.5523 49.9777 82.626 49.8629 82.6737 49.7285C82.7257 49.5942 82.7517 49.4468 82.7517 49.2865C82.7517 48.9571 82.652 48.697 82.4526 48.5063C82.2576 48.3113 81.9629 48.2138 81.5685 48.2138C81.1741 48.2138 80.8772 48.3113 80.6778 48.5063C80.4828 48.697 80.3853 48.9571 80.3853 49.2865C80.3853 49.4425 80.4091 49.5877 80.4568 49.722C80.5088 49.8564 80.5825 49.9734 80.6778 50.0731C80.7775 50.1684 80.901 50.2443 81.0484 50.3006C81.2001 50.3526 81.3734 50.3786 81.5685 50.3786ZM83.3823 54.1753C83.3823 54.0452 83.3433 53.9391 83.2653 53.8567C83.1872 53.7744 83.0811 53.7115 82.9467 53.6682C82.8124 53.6205 82.6542 53.5858 82.4721 53.5642C82.2944 53.5425 82.1037 53.5273 81.9 53.5187C81.7007 53.5057 81.4926 53.4948 81.2759 53.4862C81.0636 53.4775 80.8555 53.4602 80.6518 53.4341C80.4741 53.5338 80.3289 53.6509 80.2163 53.7852C80.1079 53.9196 80.0537 54.0756 80.0537 54.2533C80.0537 54.3703 80.0819 54.4787 80.1382 54.5783C80.1989 54.6824 80.2921 54.7712 80.4178 54.8449C80.5478 54.9186 80.7147 54.9749 80.9184 55.0139C81.1221 55.0572 81.3713 55.0789 81.666 55.0789C81.965 55.0789 82.2229 55.0551 82.4396 55.0074C82.6563 54.9641 82.834 54.9012 82.9727 54.8189C83.1157 54.7409 83.2198 54.6455 83.2848 54.5328C83.3498 54.4245 83.3823 54.3053 83.3823 54.1753ZM84.9815 47.4337V48.0318C84.9815 48.2225 84.8667 48.3395 84.637 48.3828L84.0389 48.4933C84.1299 48.723 84.1754 48.9744 84.1754 49.2475C84.1754 49.5768 84.1082 49.8759 83.9739 50.1446C83.8439 50.409 83.6618 50.6344 83.4278 50.8207C83.1938 51.0071 82.9164 51.1523 82.5957 51.2563C82.2793 51.356 81.9369 51.4058 81.5685 51.4058C81.4385 51.4058 81.3128 51.3993 81.1914 51.3863C81.0701 51.3733 80.9509 51.356 80.8339 51.3343C80.6258 51.46 80.5218 51.6008 80.5218 51.7569C80.5218 51.8912 80.5825 51.9909 80.7038 52.0559C80.8295 52.1166 80.9942 52.1599 81.1979 52.1859C81.4016 52.2119 81.6335 52.2293 81.8935 52.2379C82.1536 52.2423 82.4201 52.2553 82.6932 52.277C82.9662 52.2986 83.2328 52.3376 83.4928 52.394C83.7528 52.446 83.9847 52.5305 84.1884 52.6475C84.3921 52.7645 84.5546 52.9249 84.676 53.1286C84.8017 53.328 84.8645 53.5858 84.8645 53.9022C84.8645 54.1969 84.7908 54.483 84.6435 54.7604C84.5005 55.0377 84.2903 55.2848 84.0129 55.5015C83.7398 55.7182 83.4018 55.8916 82.9987 56.0216C82.6 56.1559 82.1449 56.2231 81.6335 56.2231C81.1307 56.2231 80.693 56.1733 80.3203 56.0736C79.9475 55.9782 79.6377 55.8482 79.3906 55.6835C79.1436 55.5232 78.9594 55.3368 78.838 55.1244C78.7167 54.9121 78.656 54.691 78.656 54.4613C78.656 54.1493 78.7492 53.8892 78.9355 53.6812C79.1262 53.4688 79.3863 53.2998 79.7157 53.1741C79.538 53.0831 79.3971 52.9617 79.2931 52.81C79.1891 52.6584 79.1371 52.459 79.1371 52.2119C79.1371 52.1123 79.1544 52.0104 79.1891 51.9064C79.2281 51.798 79.2823 51.6919 79.3516 51.5878C79.4253 51.4838 79.5163 51.3863 79.6247 51.2953C79.733 51.1999 79.8609 51.1154 80.0082 51.0418C79.6702 50.8597 79.4036 50.617 79.2086 50.3136C79.0179 50.0102 78.9225 49.6549 78.9225 49.2475C78.9225 48.9181 78.9876 48.6212 79.1176 48.3568C79.2519 48.0881 79.4361 47.8606 79.6702 47.6742C79.9085 47.4835 80.1881 47.3383 80.5088 47.2386C80.8339 47.1389 81.1871 47.0891 81.5685 47.0891C81.8545 47.0891 82.1232 47.1194 82.3746 47.1801C82.626 47.2365 82.8557 47.321 83.0637 47.4337H84.9815ZM87.5146 48.3633C87.7227 47.9646 87.9697 47.6525 88.2558 47.4272C88.5418 47.1974 88.8799 47.0826 89.2699 47.0826C89.5776 47.0826 89.8247 47.1498 90.0111 47.2841L89.907 48.4868C89.8854 48.5648 89.8529 48.6212 89.8095 48.6559C89.7705 48.6862 89.7163 48.7014 89.647 48.7014C89.582 48.7014 89.4845 48.6905 89.3544 48.6689C89.2288 48.6472 89.1052 48.6364 88.9839 48.6364C88.8062 48.6364 88.648 48.6624 88.5093 48.7144C88.3706 48.7664 88.2449 48.8422 88.1322 48.9419C88.0239 49.0373 87.9264 49.1543 87.8397 49.293C87.7573 49.4317 87.6793 49.5898 87.6057 49.7675V53.8762H85.9999V47.2061H86.9425C87.1072 47.2061 87.2221 47.2365 87.2871 47.2971C87.3521 47.3535 87.3955 47.4575 87.4171 47.6092L87.5146 48.3633ZM94.285 51.0288C93.8212 51.0504 93.4312 51.0916 93.1148 51.1523C92.7984 51.2086 92.5449 51.2823 92.3542 51.3733C92.1635 51.4643 92.027 51.5705 91.9446 51.6919C91.8623 51.8132 91.8211 51.9454 91.8211 52.0884C91.8211 52.3701 91.9034 52.5717 92.0681 52.693C92.2372 52.8144 92.456 52.8751 92.7247 52.8751C93.0541 52.8751 93.338 52.8165 93.5764 52.6995C93.8191 52.5782 94.0553 52.3961 94.285 52.1534V51.0288ZM90.6054 48.1358C91.3725 47.4337 92.2957 47.0826 93.3748 47.0826C93.7649 47.0826 94.1138 47.1476 94.4215 47.2776C94.7292 47.4033 94.9893 47.581 95.2016 47.8107C95.414 48.0361 95.5744 48.307 95.6827 48.6234C95.7954 48.9397 95.8517 49.2865 95.8517 49.6635V53.8762H95.1236C94.9719 53.8762 94.8549 53.8546 94.7726 53.8112C94.6902 53.7635 94.6252 53.6704 94.5775 53.5317L94.4345 53.0506C94.2655 53.2023 94.1008 53.3366 93.9404 53.4537C93.7801 53.5663 93.6132 53.6617 93.4399 53.7397C93.2665 53.8177 93.0801 53.8762 92.8808 53.9152C92.6857 53.9586 92.469 53.9802 92.2307 53.9802C91.9489 53.9802 91.6889 53.9434 91.4505 53.8697C91.2121 53.7917 91.0063 53.6769 90.8329 53.5252C90.6596 53.3735 90.5252 53.1849 90.4299 52.9596C90.3345 52.7342 90.2868 52.472 90.2868 52.1729C90.2868 52.0039 90.315 51.8371 90.3713 51.6724C90.4277 51.5033 90.5187 51.343 90.6444 51.1913C90.7744 51.0396 90.9413 50.8966 91.145 50.7622C91.3487 50.6279 91.5979 50.5108 91.8926 50.4111C92.1916 50.3115 92.5384 50.2313 92.9328 50.1706C93.3272 50.1056 93.7779 50.0666 94.285 50.0536V49.6635C94.285 49.2171 94.1896 48.8877 93.9989 48.6754C93.8082 48.4587 93.533 48.3503 93.1733 48.3503C92.9133 48.3503 92.6966 48.3806 92.5232 48.4413C92.3542 48.502 92.2046 48.5713 92.0746 48.6494C91.9446 48.723 91.8254 48.7902 91.7171 48.8509C91.613 48.9116 91.496 48.9419 91.366 48.9419C91.2533 48.9419 91.158 48.9137 91.08 48.8574C91.0019 48.7967 90.9391 48.7274 90.8914 48.6494L90.6054 48.1358ZM98.9698 52.1469C99.1519 52.368 99.3491 52.524 99.5614 52.615C99.7781 52.706 100.012 52.7515 100.264 52.7515C100.506 52.7515 100.725 52.706 100.92 52.615C101.115 52.524 101.28 52.3853 101.414 52.1989C101.553 52.0126 101.659 51.7785 101.733 51.4968C101.806 51.2108 101.843 50.8749 101.843 50.4892C101.843 50.0991 101.811 49.7697 101.746 49.501C101.685 49.228 101.596 49.0069 101.479 48.8379C101.362 48.6689 101.219 48.5453 101.05 48.4673C100.885 48.3893 100.697 48.3503 100.485 48.3503C100.151 48.3503 99.867 48.4218 99.6329 48.5648C99.3989 48.7035 99.1779 48.9007 98.9698 49.1564V52.1469ZM98.8853 48.1163C99.1584 47.8086 99.4683 47.5593 99.815 47.3686C100.162 47.1779 100.569 47.0826 101.037 47.0826C101.401 47.0826 101.733 47.1584 102.032 47.3101C102.335 47.4618 102.595 47.6829 102.812 47.9732C103.033 48.2593 103.202 48.6147 103.319 49.0394C103.44 49.4598 103.501 49.9431 103.501 50.4892C103.501 50.9876 103.434 51.4492 103.3 51.8739C103.165 52.2986 102.972 52.667 102.721 52.9791C102.474 53.2911 102.173 53.536 101.817 53.7137C101.466 53.8871 101.072 53.9737 100.634 53.9737C100.261 53.9737 99.9428 53.9174 99.6785 53.8047C99.4141 53.6877 99.1779 53.5273 98.9698 53.3236V56.0541H97.3641V47.2061H98.3457C98.5538 47.2061 98.6903 47.3036 98.7553 47.4987L98.8853 48.1163ZM106.36 47.9212C106.62 47.6785 106.906 47.4813 107.218 47.3296C107.53 47.1779 107.896 47.1021 108.317 47.1021C108.681 47.1021 109.003 47.1649 109.285 47.2906C109.567 47.412 109.801 47.5853 109.987 47.8107C110.178 48.0318 110.321 48.2983 110.416 48.6104C110.516 48.9181 110.566 49.2583 110.566 49.631V53.8762H108.96V49.631C108.96 49.2236 108.867 48.9094 108.681 48.6884C108.494 48.463 108.21 48.3503 107.829 48.3503C107.552 48.3503 107.292 48.4132 107.049 48.5388C106.806 48.6645 106.576 48.8357 106.36 49.0524V53.8762H104.754V44.2156H106.36V47.9212ZM113.757 47.2061V53.8762H112.145V47.2061H113.757ZM113.978 45.2623C113.978 45.401 113.95 45.531 113.894 45.6524C113.838 45.7737 113.762 45.8799 113.666 45.9709C113.575 46.0619 113.467 46.1356 113.341 46.192C113.216 46.244 113.081 46.27 112.938 46.27C112.8 46.27 112.667 46.244 112.542 46.192C112.42 46.1356 112.314 46.0619 112.223 45.9709C112.132 45.8799 112.058 45.7737 112.002 45.6524C111.95 45.531 111.924 45.401 111.924 45.2623C111.924 45.1193 111.95 44.9849 112.002 44.8592C112.058 44.7335 112.132 44.6252 112.223 44.5342C112.314 44.4432 112.42 44.3716 112.542 44.3196C112.667 44.2633 112.8 44.2351 112.938 44.2351C113.081 44.2351 113.216 44.2633 113.341 44.3196C113.467 44.3716 113.575 44.4432 113.666 44.5342C113.762 44.6252 113.838 44.7335 113.894 44.8592C113.95 44.9849 113.978 45.1193 113.978 45.2623ZM120.173 48.6169C120.125 48.6775 120.077 48.7252 120.03 48.7599C119.986 48.7945 119.921 48.8119 119.835 48.8119C119.752 48.8119 119.672 48.788 119.594 48.7404C119.516 48.6884 119.423 48.632 119.315 48.5713C119.206 48.5063 119.076 48.45 118.924 48.4023C118.777 48.3503 118.593 48.3243 118.372 48.3243C118.09 48.3243 117.843 48.3763 117.631 48.4803C117.418 48.58 117.241 48.7252 117.098 48.9159C116.959 49.1066 116.855 49.3385 116.786 49.6115C116.716 49.8802 116.682 50.1858 116.682 50.5282C116.682 50.8836 116.718 51.1999 116.792 51.4773C116.87 51.7547 116.981 51.9887 117.124 52.1794C117.267 52.3658 117.44 52.5088 117.644 52.6085C117.847 52.7039 118.077 52.7515 118.333 52.7515C118.589 52.7515 118.794 52.7212 118.95 52.6605C119.111 52.5955 119.245 52.5262 119.354 52.4525C119.462 52.3745 119.555 52.3051 119.633 52.2445C119.715 52.1794 119.806 52.1469 119.906 52.1469C120.036 52.1469 120.134 52.1968 120.199 52.2965L120.66 52.8816C120.483 53.0896 120.29 53.2651 120.082 53.4081C119.874 53.5468 119.657 53.6595 119.432 53.7462C119.211 53.8285 118.981 53.8871 118.742 53.9217C118.508 53.9564 118.274 53.9737 118.04 53.9737C117.629 53.9737 117.241 53.8979 116.877 53.7462C116.513 53.5902 116.194 53.3648 115.921 53.0701C115.648 52.7754 115.431 52.4156 115.271 51.9909C115.115 51.5618 115.037 51.0743 115.037 50.5282C115.037 50.0384 115.106 49.5855 115.245 49.1694C115.388 48.749 115.596 48.3871 115.869 48.0838C116.142 47.776 116.48 47.5355 116.883 47.3621C117.286 47.1888 117.75 47.1021 118.274 47.1021C118.773 47.1021 119.208 47.1823 119.581 47.3426C119.958 47.503 120.296 47.7327 120.595 48.0318L120.173 48.6169ZM14.1998 64.3633C14.4078 63.9646 14.6549 63.6525 14.9409 63.4272C15.227 63.1974 15.565 63.0826 15.9551 63.0826C16.2628 63.0826 16.5098 63.1498 16.6962 63.2841L16.5922 64.4868C16.5705 64.5648 16.538 64.6212 16.4947 64.6559C16.4557 64.6862 16.4015 64.7014 16.3321 64.7014C16.2671 64.7014 16.1696 64.6905 16.0396 64.6689C15.9139 64.6472 15.7904 64.6364 15.669 64.6364C15.4913 64.6364 15.3331 64.6624 15.1945 64.7144C15.0558 64.7664 14.9301 64.8422 14.8174 64.9419C14.709 65.0373 14.6115 65.1543 14.5248 65.293C14.4425 65.4317 14.3645 65.5898 14.2908 65.7675V69.8762H12.685V63.2061H13.6277C13.7924 63.2061 13.9072 63.2365 13.9723 63.2971C14.0373 63.3535 14.0806 63.4575 14.1023 63.6092L14.1998 64.3633ZM21.6422 65.774C21.6422 65.566 21.6119 65.371 21.5512 65.1889C21.4948 65.0026 21.4082 64.8401 21.2911 64.7014C21.1741 64.5627 21.0246 64.4543 20.8426 64.3763C20.6649 64.294 20.4568 64.2528 20.2185 64.2528C19.7547 64.2528 19.3885 64.385 19.1198 64.6494C18.8554 64.9137 18.6864 65.2886 18.6127 65.774H21.6422ZM18.5802 66.7427C18.6062 67.0851 18.6669 67.382 18.7622 67.6333C18.8576 67.8804 18.9833 68.0863 19.1393 68.251C19.2953 68.4113 19.4795 68.5327 19.6919 68.615C19.9086 68.693 20.147 68.732 20.407 68.732C20.667 68.732 20.8902 68.7017 21.0766 68.641C21.2673 68.5803 21.432 68.5132 21.5707 68.4395C21.7137 68.3658 21.8372 68.2986 21.9412 68.2379C22.0496 68.1773 22.1536 68.1469 22.2533 68.1469C22.3877 68.1469 22.4873 68.1968 22.5523 68.2965L23.0139 68.8816C22.8362 69.0896 22.6369 69.2651 22.4158 69.4081C22.1948 69.5468 21.9629 69.6595 21.7202 69.7462C21.4818 69.8285 21.237 69.8871 20.9856 69.9217C20.7385 69.9564 20.498 69.9737 20.264 69.9737C19.8002 69.9737 19.369 69.8979 18.9703 69.7462C18.5715 69.5902 18.2248 69.3626 17.9301 69.0636C17.6354 68.7602 17.4035 68.3875 17.2345 67.9454C17.0654 67.499 16.9809 66.9832 16.9809 66.3981C16.9809 65.9431 17.0546 65.5162 17.202 65.1174C17.3493 64.7144 17.5595 64.3655 17.8326 64.0708C18.1099 63.7717 18.4458 63.5355 18.8402 63.3621C19.239 63.1888 19.6875 63.1021 20.186 63.1021C20.6064 63.1021 20.9943 63.1693 21.3497 63.3036C21.705 63.438 22.0106 63.6352 22.2663 63.8952C22.522 64.1509 22.7214 64.4673 22.8644 64.8444C23.0118 65.2171 23.0854 65.644 23.0854 66.1251C23.0854 66.3678 23.0594 66.5325 23.0074 66.6192C22.9554 66.7015 22.8557 66.7427 22.7084 66.7427H18.5802ZM25.9157 60.2156V69.8762H24.31V60.2156H25.9157ZM29.1799 63.2061V69.8762H27.5676V63.2061H29.1799ZM29.4009 61.2623C29.4009 61.401 29.3728 61.531 29.3164 61.6524C29.2601 61.7737 29.1842 61.8799 29.0889 61.9709C28.9979 62.0619 28.8895 62.1356 28.7638 62.192C28.6381 62.244 28.5038 62.27 28.3608 62.27C28.2221 62.27 28.0899 62.244 27.9642 62.192C27.8428 62.1356 27.7367 62.0619 27.6456 61.9709C27.5546 61.8799 27.4809 61.7737 27.4246 61.6524C27.3726 61.531 27.3466 61.401 27.3466 61.2623C27.3466 61.1193 27.3726 60.9849 27.4246 60.8592C27.4809 60.7335 27.5546 60.6252 27.6456 60.5342C27.7367 60.4432 27.8428 60.3716 27.9642 60.3196C28.0899 60.2633 28.2221 60.2351 28.3608 60.2351C28.5038 60.2351 28.6381 60.2633 28.7638 60.3196C28.8895 60.3716 28.9979 60.4432 29.0889 60.5342C29.1842 60.6252 29.2601 60.7335 29.3164 60.8592C29.3728 60.9849 29.4009 61.1193 29.4009 61.2623ZM35.1142 65.774C35.1142 65.566 35.0838 65.371 35.0231 65.1889C34.9668 65.0026 34.8801 64.8401 34.7631 64.7014C34.6461 64.5627 34.4965 64.4543 34.3145 64.3763C34.1368 64.294 33.9288 64.2528 33.6904 64.2528C33.2267 64.2528 32.8604 64.385 32.5917 64.6494C32.3274 64.9137 32.1583 65.2886 32.0847 65.774H35.1142ZM32.0521 66.7427C32.0781 67.0851 32.1388 67.382 32.2342 67.6333C32.3295 67.8804 32.4552 68.0863 32.6112 68.251C32.7673 68.4113 32.9515 68.5327 33.1638 68.615C33.3805 68.693 33.6189 68.732 33.8789 68.732C34.139 68.732 34.3622 68.7017 34.5486 68.641C34.7393 68.5803 34.9039 68.5132 35.0426 68.4395C35.1857 68.3658 35.3092 68.2986 35.4132 68.2379C35.5216 68.1773 35.6256 68.1469 35.7253 68.1469C35.8596 68.1469 35.9593 68.1968 36.0243 68.2965L36.4859 68.8816C36.3082 69.0896 36.1088 69.2651 35.8878 69.4081C35.6667 69.5468 35.4349 69.6595 35.1922 69.7462C34.9538 69.8285 34.7089 69.8871 34.4575 69.9217C34.2105 69.9564 33.97 69.9737 33.7359 69.9737C33.2722 69.9737 32.8409 69.8979 32.4422 69.7462C32.0435 69.5902 31.6968 69.3626 31.402 69.0636C31.1073 68.7602 30.8755 68.3875 30.7064 67.9454C30.5374 67.499 30.4529 66.9832 30.4529 66.3981C30.4529 65.9431 30.5266 65.5162 30.6739 65.1174C30.8213 64.7144 31.0315 64.3655 31.3045 64.0708C31.5819 63.7717 31.9178 63.5355 32.3122 63.3621C32.7109 63.1888 33.1595 63.1021 33.6579 63.1021C34.0783 63.1021 34.4662 63.1693 34.8216 63.3036C35.177 63.438 35.4825 63.6352 35.7383 63.8952C35.994 64.1509 36.1933 64.4673 36.3364 64.8444C36.4837 65.2171 36.5574 65.644 36.5574 66.1251C36.5574 66.3678 36.5314 66.5325 36.4794 66.6192C36.4274 66.7015 36.3277 66.7427 36.1803 66.7427H32.0521ZM41.8321 64.5063C41.7888 64.5757 41.7432 64.6255 41.6956 64.6559C41.6479 64.6819 41.5872 64.6949 41.5135 64.6949C41.4355 64.6949 41.351 64.6732 41.26 64.6299C41.1733 64.5865 41.0715 64.5388 40.9545 64.4868C40.8374 64.4305 40.7031 64.3806 40.5514 64.3373C40.404 64.294 40.2285 64.2723 40.0248 64.2723C39.7084 64.2723 39.4592 64.3395 39.2772 64.4738C39.0995 64.6082 39.0106 64.7837 39.0106 65.0004C39.0106 65.1434 39.0561 65.2648 39.1472 65.3645C39.2425 65.4598 39.366 65.5443 39.5177 65.618C39.6737 65.6917 39.8493 65.7589 40.0443 65.8196C40.2393 65.8759 40.4365 65.9387 40.6359 66.0081C40.8396 66.0774 41.039 66.1576 41.234 66.2486C41.429 66.3353 41.6024 66.448 41.7541 66.5867C41.9101 66.721 42.0336 66.8836 42.1246 67.0743C42.22 67.265 42.2677 67.4947 42.2677 67.7634C42.2677 68.0841 42.2092 68.381 42.0921 68.654C41.9795 68.9227 41.8104 69.1568 41.5851 69.3561C41.3597 69.5512 41.0801 69.705 40.7464 69.8177C40.417 69.9261 40.0356 69.9802 39.6022 69.9802C39.3725 69.9802 39.1472 69.9586 38.9261 69.9152C38.7094 69.8762 38.4992 69.8199 38.2955 69.7462C38.0961 69.6725 37.9098 69.5858 37.7364 69.4862C37.5674 69.3865 37.4179 69.2781 37.2878 69.1611L37.6584 68.55C37.7061 68.4763 37.7624 68.42 37.8274 68.381C37.8924 68.342 37.9748 68.3225 38.0745 68.3225C38.1742 68.3225 38.2673 68.3506 38.354 68.407C38.445 68.4633 38.5491 68.524 38.6661 68.589C38.7831 68.654 38.9196 68.7147 39.0756 68.771C39.236 68.8274 39.4375 68.8556 39.6802 68.8556C39.8709 68.8556 40.0335 68.8339 40.1678 68.7905C40.3065 68.7429 40.4192 68.6822 40.5059 68.6085C40.5969 68.5348 40.6619 68.4503 40.7009 68.355C40.7442 68.2553 40.7659 68.1534 40.7659 68.0494C40.7659 67.8934 40.7182 67.7655 40.6229 67.6659C40.5319 67.5662 40.4084 67.4795 40.2523 67.4058C40.1006 67.3321 39.9251 67.2671 39.7257 67.2108C39.5307 67.1501 39.3292 67.0851 39.1211 67.0157C38.9174 66.9464 38.7159 66.8662 38.5165 66.7752C38.3215 66.6799 38.146 66.5607 37.99 66.4176C37.8383 66.2746 37.7147 66.0991 37.6194 65.8911C37.5284 65.683 37.4829 65.4317 37.4829 65.1369C37.4829 64.8639 37.5371 64.6038 37.6454 64.3568C37.7538 64.1098 37.9119 63.8952 38.12 63.7132C38.3324 63.5268 38.5946 63.3795 38.9066 63.2711C39.223 63.1584 39.5871 63.1021 39.9988 63.1021C40.4582 63.1021 40.8764 63.1779 41.2535 63.3296C41.6306 63.4813 41.9448 63.6807 42.1962 63.9277L41.8321 64.5063ZM49.5894 63.1021C50.0835 63.1021 50.5321 63.1823 50.9351 63.3426C51.3425 63.503 51.6892 63.7305 51.9753 64.0253C52.2657 64.32 52.4889 64.6797 52.6449 65.1044C52.8009 65.5292 52.8789 66.0037 52.8789 66.5282C52.8789 67.0569 52.8009 67.5337 52.6449 67.9584C52.4889 68.3831 52.2657 68.745 51.9753 69.0441C51.6892 69.3431 51.3425 69.5728 50.9351 69.7332C50.5321 69.8936 50.0835 69.9737 49.5894 69.9737C49.091 69.9737 48.6381 69.8936 48.2307 69.7332C47.8233 69.5728 47.4744 69.3431 47.184 69.0441C46.898 68.745 46.6748 68.3831 46.5144 67.9584C46.3584 67.5337 46.2804 67.0569 46.2804 66.5282C46.2804 66.0037 46.3584 65.5292 46.5144 65.1044C46.6748 64.6797 46.898 64.32 47.184 64.0253C47.4744 63.7305 47.8233 63.503 48.2307 63.3426C48.6381 63.1823 49.091 63.1021 49.5894 63.1021ZM49.5894 68.7385C50.1442 68.7385 50.5537 68.5522 50.8181 68.1794C51.0868 67.8067 51.2212 67.2606 51.2212 66.5412C51.2212 65.8217 51.0868 65.2735 50.8181 64.8964C50.5537 64.5193 50.1442 64.3308 49.5894 64.3308C49.026 64.3308 48.6077 64.5215 48.3347 64.9029C48.066 65.28 47.9316 65.8261 47.9316 66.5412C47.9316 67.2563 48.066 67.8024 48.3347 68.1794C48.6077 68.5522 49.026 68.7385 49.5894 68.7385ZM55.6057 64.0253C55.7401 63.8909 55.881 63.7674 56.0283 63.6547C56.18 63.5377 56.3382 63.4402 56.5029 63.3621C56.6719 63.2798 56.8518 63.217 57.0425 63.1736C57.2332 63.1259 57.4412 63.1021 57.6666 63.1021C58.0306 63.1021 58.3535 63.1649 58.6352 63.2906C58.917 63.412 59.151 63.5853 59.3374 63.8107C59.5281 64.0318 59.6711 64.2983 59.7664 64.6104C59.8661 64.9181 59.916 65.2583 59.916 65.631V69.8762H58.3102V65.631C58.3102 65.2236 58.217 64.9094 58.0306 64.6884C57.8443 64.463 57.5604 64.3503 57.179 64.3503C56.9016 64.3503 56.6416 64.4132 56.3989 64.5388C56.1562 64.6645 55.9265 64.8357 55.7098 65.0524V69.8762H54.104V63.2061H55.0857C55.2937 63.2061 55.4302 63.3036 55.4952 63.4987L55.6057 64.0253ZM69.383 64.6169C69.3354 64.6775 69.2877 64.7252 69.24 64.7599C69.1967 64.7945 69.1317 64.8119 69.045 64.8119C68.9626 64.8119 68.8825 64.788 68.8044 64.7404C68.7264 64.6884 68.6332 64.632 68.5249 64.5713C68.4165 64.5063 68.2865 64.45 68.1348 64.4023C67.9875 64.3503 67.8033 64.3243 67.5822 64.3243C67.3005 64.3243 67.0535 64.3763 66.8411 64.4803C66.6288 64.58 66.4511 64.7252 66.308 64.9159C66.1693 65.1066 66.0653 65.3385 65.996 65.6115C65.9266 65.8802 65.892 66.1858 65.892 66.5282C65.892 66.8836 65.9288 67.1999 66.0025 67.4773C66.0805 67.7547 66.191 67.9887 66.334 68.1794C66.4771 68.3658 66.6504 68.5088 66.8541 68.6085C67.0578 68.7039 67.2875 68.7515 67.5432 68.7515C67.7989 68.7515 68.0048 68.7212 68.1608 68.6605C68.3212 68.5955 68.4556 68.5262 68.5639 68.4525C68.6723 68.3745 68.7654 68.3051 68.8435 68.2445C68.9258 68.1794 69.0168 68.1469 69.1165 68.1469C69.2465 68.1469 69.344 68.1968 69.409 68.2965L69.8706 68.8816C69.6929 69.0896 69.5001 69.2651 69.292 69.4081C69.084 69.5468 68.8673 69.6595 68.6419 69.7462C68.4209 69.8285 68.1912 69.8871 67.9528 69.9217C67.7188 69.9564 67.4847 69.9737 67.2507 69.9737C66.839 69.9737 66.4511 69.8979 66.087 69.7462C65.7229 69.5902 65.4044 69.3648 65.1313 69.0701C64.8583 68.7754 64.6416 68.4156 64.4812 67.9909C64.3252 67.5618 64.2472 67.0743 64.2472 66.5282C64.2472 66.0384 64.3165 65.5855 64.4552 65.1694C64.5982 64.749 64.8063 64.3871 65.0793 64.0838C65.3524 63.776 65.6904 63.5355 66.0935 63.3621C66.4966 63.1888 66.9603 63.1021 67.4847 63.1021C67.9831 63.1021 68.4187 63.1823 68.7914 63.3426C69.1685 63.503 69.5066 63.7327 69.8056 64.0318L69.383 64.6169ZM74.4009 67.0288C73.9371 67.0504 73.547 67.0916 73.2307 67.1523C72.9143 67.2086 72.6607 67.2823 72.47 67.3733C72.2793 67.4643 72.1428 67.5705 72.0605 67.6919C71.9781 67.8132 71.9369 67.9454 71.9369 68.0884C71.9369 68.3701 72.0193 68.5717 72.184 68.693C72.353 68.8144 72.5719 68.8751 72.8406 68.8751C73.17 68.8751 73.4539 68.8165 73.6922 68.6995C73.9349 68.5782 74.1711 68.3961 74.4009 68.1534V67.0288ZM70.7212 64.1358C71.4884 63.4337 72.4115 63.0826 73.4907 63.0826C73.8808 63.0826 74.2297 63.1476 74.5374 63.2776C74.8451 63.4033 75.1051 63.581 75.3175 63.8107C75.5299 64.0361 75.6902 64.307 75.7986 64.6234C75.9113 64.9397 75.9676 65.2865 75.9676 65.6635V69.8762H75.2395C75.0878 69.8762 74.9708 69.8546 74.8884 69.8112C74.8061 69.7635 74.7411 69.6704 74.6934 69.5317L74.5504 69.0506C74.3813 69.2023 74.2167 69.3366 74.0563 69.4537C73.8959 69.5663 73.7291 69.6617 73.5557 69.7397C73.3823 69.8177 73.196 69.8762 72.9966 69.9152C72.8016 69.9586 72.5849 69.9802 72.3465 69.9802C72.0648 69.9802 71.8048 69.9434 71.5664 69.8697C71.328 69.7917 71.1221 69.6769 70.9488 69.5252C70.7754 69.3735 70.6411 69.1849 70.5457 68.9596C70.4504 68.7342 70.4027 68.472 70.4027 68.1729C70.4027 68.0039 70.4309 67.8371 70.4872 67.6724C70.5435 67.5033 70.6346 67.343 70.7602 67.1913C70.8903 67.0396 71.0571 66.8966 71.2608 66.7622C71.4645 66.6279 71.7137 66.5108 72.0085 66.4111C72.3075 66.3115 72.6542 66.2313 73.0486 66.1706C73.443 66.1056 73.8938 66.0666 74.4009 66.0536V65.6635C74.4009 65.2171 74.3055 64.8877 74.1148 64.6754C73.9241 64.4587 73.6489 64.3503 73.2892 64.3503C73.0291 64.3503 72.8124 64.3806 72.6391 64.4413C72.47 64.502 72.3205 64.5713 72.1905 64.6494C72.0605 64.723 71.9413 64.7902 71.8329 64.8509C71.7289 64.9116 71.6119 64.9419 71.4819 64.9419C71.3692 64.9419 71.2738 64.9137 71.1958 64.8574C71.1178 64.7967 71.055 64.7274 71.0073 64.6494L70.7212 64.1358ZM81.5496 64.5063C81.5063 64.5757 81.4607 64.6255 81.4131 64.6559C81.3654 64.6819 81.3047 64.6949 81.231 64.6949C81.153 64.6949 81.0685 64.6732 80.9775 64.6299C80.8908 64.5865 80.789 64.5388 80.6719 64.4868C80.5549 64.4305 80.4206 64.3806 80.2689 64.3373C80.1215 64.294 79.946 64.2723 79.7423 64.2723C79.4259 64.2723 79.1767 64.3395 78.9947 64.4738C78.817 64.6082 78.7281 64.7837 78.7281 65.0004C78.7281 65.1434 78.7736 65.2648 78.8647 65.3645C78.96 65.4598 79.0835 65.5443 79.2352 65.618C79.3912 65.6917 79.5668 65.7589 79.7618 65.8196C79.9568 65.8759 80.154 65.9387 80.3534 66.0081C80.5571 66.0774 80.7565 66.1576 80.9515 66.2486C81.1465 66.3353 81.3199 66.448 81.4716 66.5867C81.6276 66.721 81.7511 66.8836 81.8421 67.0743C81.9375 67.265 81.9852 67.4947 81.9852 67.7634C81.9852 68.0841 81.9267 68.381 81.8096 68.654C81.697 68.9227 81.5279 69.1568 81.3026 69.3561C81.0772 69.5512 80.7976 69.705 80.4639 69.8177C80.1345 69.9261 79.7531 69.9802 79.3197 69.9802C79.09 69.9802 78.8647 69.9586 78.6436 69.9152C78.4269 69.8762 78.2167 69.8199 78.013 69.7462C77.8136 69.6725 77.6273 69.5858 77.4539 69.4862C77.2849 69.3865 77.1354 69.2781 77.0053 69.1611L77.3759 68.55C77.4236 68.4763 77.4799 68.42 77.5449 68.381C77.6099 68.342 77.6923 68.3225 77.792 68.3225C77.8917 68.3225 77.9848 68.3506 78.0715 68.407C78.1625 68.4633 78.2666 68.524 78.3836 68.589C78.5006 68.654 78.6371 68.7147 78.7931 68.771C78.9535 68.8274 79.155 68.8556 79.3977 68.8556C79.5884 68.8556 79.751 68.8339 79.8853 68.7905C80.024 68.7429 80.1367 68.6822 80.2234 68.6085C80.3144 68.5348 80.3794 68.4503 80.4184 68.355C80.4617 68.2553 80.4834 68.1534 80.4834 68.0494C80.4834 67.8934 80.4357 67.7655 80.3404 67.6659C80.2494 67.5662 80.1259 67.4795 79.9698 67.4058C79.8181 67.3321 79.6426 67.2671 79.4432 67.2108C79.2482 67.1501 79.0467 67.0851 78.8386 67.0157C78.6349 66.9464 78.4334 66.8662 78.234 66.7752C78.039 66.6799 77.8635 66.5607 77.7075 66.4176C77.5558 66.2746 77.4322 66.0991 77.3369 65.8911C77.2459 65.683 77.2004 65.4317 77.2004 65.1369C77.2004 64.8639 77.2546 64.6038 77.3629 64.3568C77.4713 64.1098 77.6294 63.8952 77.8375 63.7132C78.0498 63.5268 78.3121 63.3795 78.6241 63.2711C78.9405 63.1584 79.3046 63.1021 79.7163 63.1021C80.1757 63.1021 80.5939 63.1779 80.971 63.3296C81.3481 63.4813 81.6623 63.6807 81.9137 63.9277L81.5496 64.5063ZM84.7995 63.9212C85.0596 63.6785 85.3456 63.4813 85.6577 63.3296C85.9697 63.1779 86.3359 63.1021 86.7563 63.1021C87.1204 63.1021 87.4433 63.1649 87.725 63.2906C88.0067 63.412 88.2408 63.5853 88.4271 63.8107C88.6178 64.0318 88.7608 64.2983 88.8562 64.6104C88.9559 64.9181 89.0057 65.2583 89.0057 65.631V69.8762H87.4V65.631C87.4 65.2236 87.3068 64.9094 87.1204 64.6884C86.934 64.463 86.6502 64.3503 86.2688 64.3503C85.9914 64.3503 85.7313 64.4132 85.4886 64.5388C85.2459 64.6645 85.0162 64.8357 84.7995 65.0524V69.8762H83.1938V60.2156H84.7995V63.9212ZM94.1626 69.8762V64.4153L93.584 64.3243C93.4583 64.2983 93.3565 64.255 93.2784 64.1943C93.2048 64.1293 93.1679 64.0383 93.1679 63.9212V63.2646H94.1626V62.7705C94.1626 62.3891 94.2189 62.0468 94.3316 61.7434C94.4486 61.44 94.6133 61.1821 94.8257 60.9697C95.0424 60.7574 95.3046 60.5949 95.6123 60.4822C95.92 60.3695 96.2668 60.3131 96.6525 60.3131C96.9602 60.3131 97.2463 60.3543 97.5106 60.4367L97.4781 61.2428C97.4738 61.3035 97.4565 61.3533 97.4261 61.3923C97.3958 61.427 97.3546 61.4552 97.3026 61.4768C97.2549 61.4942 97.1986 61.5072 97.1336 61.5158C97.0686 61.5202 96.9992 61.5223 96.9255 61.5223C96.7348 61.5223 96.5637 61.544 96.412 61.5874C96.2646 61.6264 96.1389 61.6979 96.0349 61.8019C95.9309 61.9016 95.8507 62.0359 95.7944 62.205C95.7424 62.3696 95.7163 62.5755 95.7163 62.8226V63.2646H97.4521V64.4088H95.7684V69.8762H94.1626ZM101.128 63.1021C101.622 63.1021 102.071 63.1823 102.474 63.3426C102.881 63.503 103.228 63.7305 103.514 64.0253C103.804 64.32 104.028 64.6797 104.184 65.1044C104.34 65.5292 104.418 66.0037 104.418 66.5282C104.418 67.0569 104.34 67.5337 104.184 67.9584C104.028 68.3831 103.804 68.745 103.514 69.0441C103.228 69.3431 102.881 69.5728 102.474 69.7332C102.071 69.8936 101.622 69.9737 101.128 69.9737C100.63 69.9737 100.177 69.8936 99.7695 69.7332C99.3621 69.5728 99.0132 69.3431 98.7228 69.0441C98.4367 68.745 98.2135 68.3831 98.0532 67.9584C97.8972 67.5337 97.8191 67.0569 97.8191 66.5282C97.8191 66.0037 97.8972 65.5292 98.0532 65.1044C98.2135 64.6797 98.4367 64.32 98.7228 64.0253C99.0132 63.7305 99.3621 63.503 99.7695 63.3426C100.177 63.1823 100.63 63.1021 101.128 63.1021ZM101.128 68.7385C101.683 68.7385 102.093 68.5522 102.357 68.1794C102.626 67.8067 102.76 67.2606 102.76 66.5412C102.76 65.8217 102.626 65.2735 102.357 64.8964C102.093 64.5193 101.683 64.3308 101.128 64.3308C100.565 64.3308 100.147 64.5215 99.8735 64.9029C99.6048 65.28 99.4704 65.8261 99.4704 66.5412C99.4704 67.2563 99.6048 67.8024 99.8735 68.1794C100.147 68.5522 100.565 68.7385 101.128 68.7385ZM107.158 64.3633C107.366 63.9646 107.613 63.6525 107.899 63.4272C108.185 63.1974 108.523 63.0826 108.913 63.0826C109.221 63.0826 109.468 63.1498 109.654 63.2841L109.55 64.4868C109.528 64.5648 109.496 64.6212 109.452 64.6559C109.413 64.6862 109.359 64.7014 109.29 64.7014C109.225 64.7014 109.127 64.6905 108.997 64.6689C108.872 64.6472 108.748 64.6364 108.627 64.6364C108.449 64.6364 108.291 64.6624 108.152 64.7144C108.014 64.7664 107.888 64.8422 107.775 64.9419C107.667 65.0373 107.569 65.1543 107.483 65.293C107.4 65.4317 107.322 65.5898 107.249 65.7675V69.8762H105.643V63.2061H106.585C106.75 63.2061 106.865 63.2365 106.93 63.2971C106.995 63.3535 107.038 63.4575 107.06 63.6092L107.158 64.3633ZM15.0404 85.8762V79.2061H16.0221C16.2301 79.2061 16.3666 79.3036 16.4316 79.4987L16.5357 79.9927C16.6527 79.8627 16.774 79.7435 16.8997 79.6352C17.0297 79.5268 17.1663 79.4337 17.3093 79.3556C17.4566 79.2776 17.6127 79.217 17.7774 79.1736C17.9464 79.1259 18.1306 79.1021 18.33 79.1021C18.7504 79.1021 19.0949 79.217 19.3636 79.4467C19.6367 79.672 19.8404 79.9732 19.9747 80.3503C20.0787 80.1293 20.2088 79.9407 20.3648 79.7847C20.5208 79.6244 20.692 79.4943 20.8784 79.3946C21.0647 79.295 21.2619 79.2213 21.47 79.1736C21.6823 79.1259 21.8947 79.1021 22.1071 79.1021C22.4755 79.1021 22.8027 79.1584 23.0887 79.2711C23.3748 79.3838 23.6153 79.5485 23.8104 79.7652C24.0054 79.9819 24.1527 80.2463 24.2524 80.5583C24.3564 80.8704 24.4085 81.228 24.4085 81.631V85.8762H22.8027V81.631C22.8027 81.2063 22.7095 80.8877 22.5231 80.6754C22.3368 80.4587 22.0637 80.3503 21.704 80.3503C21.5393 80.3503 21.3855 80.3785 21.2424 80.4348C21.1037 80.4912 20.9802 80.5735 20.8719 80.6819C20.7679 80.7859 20.6855 80.9181 20.6248 81.0784C20.5642 81.2388 20.5338 81.423 20.5338 81.631V85.8762H18.9215V81.631C18.9215 81.1846 18.8305 80.8596 18.6485 80.6559C18.4708 80.4522 18.2086 80.3503 17.8619 80.3503C17.6278 80.3503 17.409 80.4088 17.2053 80.5258C17.0059 80.6385 16.8195 80.7945 16.6462 80.9939V85.8762H15.0404ZM29.4584 83.0288C28.9946 83.0504 28.6046 83.0916 28.2882 83.1523C27.9718 83.2086 27.7182 83.2823 27.5275 83.3733C27.3369 83.4643 27.2003 83.5705 27.118 83.6919C27.0356 83.8132 26.9945 83.9454 26.9945 84.0884C26.9945 84.3701 27.0768 84.5717 27.2415 84.693C27.4105 84.8144 27.6294 84.8751 27.8981 84.8751C28.2275 84.8751 28.5114 84.8165 28.7498 84.6995C28.9925 84.5782 29.2287 84.3961 29.4584 84.1534V83.0288ZM25.7788 80.1358C26.5459 79.4337 27.469 79.0826 28.5482 79.0826C28.9383 79.0826 29.2872 79.1476 29.5949 79.2776C29.9026 79.4033 30.1627 79.581 30.375 79.8107C30.5874 80.0361 30.7477 80.307 30.8561 80.6234C30.9688 80.9397 31.0251 81.2865 31.0251 81.6635V85.8762H30.297C30.1453 85.8762 30.0283 85.8546 29.9459 85.8112C29.8636 85.7635 29.7986 85.6704 29.7509 85.5317L29.6079 85.0506C29.4389 85.2023 29.2742 85.3366 29.1138 85.4537C28.9535 85.5663 28.7866 85.6617 28.6132 85.7397C28.4399 85.8177 28.2535 85.8762 28.0541 85.9152C27.8591 85.9586 27.6424 85.9802 27.404 85.9802C27.1223 85.9802 26.8623 85.9434 26.6239 85.8697C26.3855 85.7917 26.1797 85.6769 26.0063 85.5252C25.8329 85.3735 25.6986 85.1849 25.6032 84.9596C25.5079 84.7342 25.4602 84.472 25.4602 84.1729C25.4602 84.0039 25.4884 83.8371 25.5447 83.6724C25.6011 83.5033 25.6921 83.343 25.8178 83.1913C25.9478 83.0396 26.1146 82.8966 26.3183 82.7622C26.522 82.6279 26.7713 82.5108 27.066 82.4111C27.365 82.3115 27.7117 82.2313 28.1061 82.1706C28.5005 82.1056 28.9513 82.0666 29.4584 82.0536V81.6635C29.4584 81.2171 29.363 80.8877 29.1723 80.6754C28.9816 80.4587 28.7064 80.3503 28.3467 80.3503C28.0866 80.3503 27.8699 80.3806 27.6966 80.4413C27.5275 80.502 27.378 80.5713 27.248 80.6494C27.118 80.723 26.9988 80.7902 26.8904 80.8509C26.7864 80.9116 26.6694 80.9419 26.5394 80.9419C26.4267 80.9419 26.3314 80.9137 26.2533 80.8574C26.1753 80.7967 26.1125 80.7274 26.0648 80.6494L25.7788 80.1358ZM34.2017 79.2061V86.1038C34.2017 86.3941 34.1627 86.6672 34.0847 86.9229C34.011 87.1786 33.8897 87.4018 33.7206 87.5925C33.5559 87.7875 33.3371 87.9392 33.064 88.0476C32.7953 88.1603 32.4659 88.2166 32.0759 88.2166C31.9242 88.2166 31.7833 88.2058 31.6533 88.1841C31.5233 88.1668 31.3889 88.1364 31.2502 88.0931L31.3087 87.2284C31.3217 87.1418 31.3564 87.0854 31.4128 87.0594C31.4691 87.0377 31.5774 87.0269 31.7378 87.0269C31.8982 87.0269 32.0325 87.0096 32.1409 86.9749C32.2536 86.9446 32.3424 86.8926 32.4074 86.8189C32.4724 86.7495 32.5179 86.6563 32.5439 86.5393C32.5743 86.4223 32.5894 86.2771 32.5894 86.1038V79.2061H34.2017ZM34.4228 77.2623C34.4228 77.401 34.3946 77.531 34.3382 77.6524C34.2819 77.7737 34.206 77.8799 34.1107 77.9709C34.0197 78.0619 33.9092 78.1356 33.7791 78.192C33.6535 78.244 33.5191 78.27 33.3761 78.27C33.2374 78.27 33.1074 78.244 32.986 78.192C32.8647 78.1356 32.7585 78.0619 32.6675 77.9709C32.5764 77.8799 32.5028 77.7737 32.4464 77.6524C32.3944 77.531 32.3684 77.401 32.3684 77.2623C32.3684 77.1193 32.3944 76.9849 32.4464 76.8592C32.5028 76.7335 32.5764 76.6252 32.6675 76.5342C32.7585 76.4432 32.8647 76.3716 32.986 76.3196C33.1074 76.2633 33.2374 76.2351 33.3761 76.2351C33.5191 76.2351 33.6535 76.2633 33.7791 76.3196C33.9092 76.3716 34.0197 76.4432 34.1107 76.5342C34.206 76.6252 34.2819 76.7335 34.3382 76.8592C34.3946 76.9849 34.4228 77.1193 34.4228 77.2623ZM38.7903 79.1021C39.2843 79.1021 39.7329 79.1823 40.136 79.3426C40.5434 79.503 40.8901 79.7305 41.1761 80.0253C41.4665 80.32 41.6897 80.6797 41.8458 81.1044C42.0018 81.5292 42.0798 82.0037 42.0798 82.5282C42.0798 83.0569 42.0018 83.5337 41.8458 83.9584C41.6897 84.3831 41.4665 84.745 41.1761 85.0441C40.8901 85.3431 40.5434 85.5728 40.136 85.7332C39.7329 85.8936 39.2843 85.9737 38.7903 85.9737C38.2918 85.9737 37.8389 85.8936 37.4315 85.7332C37.0241 85.5728 36.6752 85.3431 36.3849 85.0441C36.0988 84.745 35.8756 84.3831 35.7152 83.9584C35.5592 83.5337 35.4812 83.0569 35.4812 82.5282C35.4812 82.0037 35.5592 81.5292 35.7152 81.1044C35.8756 80.6797 36.0988 80.32 36.3849 80.0253C36.6752 79.7305 37.0241 79.503 37.4315 79.3426C37.8389 79.1823 38.2918 79.1021 38.7903 79.1021ZM38.7903 84.7385C39.345 84.7385 39.7546 84.5522 40.019 84.1794C40.2877 83.8067 40.422 83.2606 40.422 82.5412C40.422 81.8217 40.2877 81.2735 40.019 80.8964C39.7546 80.5193 39.345 80.3308 38.7903 80.3308C38.2268 80.3308 37.8086 80.5215 37.5355 80.9029C37.2668 81.28 37.1325 81.8261 37.1325 82.5412C37.1325 83.2563 37.2668 83.8024 37.5355 84.1794C37.8086 84.5522 38.2268 84.7385 38.7903 84.7385ZM44.8196 80.3633C45.0276 79.9646 45.2747 79.6525 45.5607 79.4272C45.8468 79.1974 46.1848 79.0826 46.5749 79.0826C46.8826 79.0826 47.1296 79.1498 47.316 79.2841L47.212 80.4868C47.1903 80.5648 47.1578 80.6212 47.1145 80.6559C47.0755 80.6862 47.0213 80.7014 46.9519 80.7014C46.8869 80.7014 46.7894 80.6905 46.6594 80.6689C46.5337 80.6472 46.4102 80.6364 46.2888 80.6364C46.1111 80.6364 45.9529 80.6624 45.8143 80.7144C45.6756 80.7664 45.5499 80.8422 45.4372 80.9419C45.3288 81.0373 45.2313 81.1543 45.1446 81.293C45.0623 81.4317 44.9843 81.5898 44.9106 81.7675V85.8762H43.3048V79.2061H44.2475C44.4122 79.2061 44.527 79.2365 44.5921 79.2971C44.6571 79.3535 44.7004 79.4575 44.7221 79.6092L44.8196 80.3633ZM49.8195 79.2061V85.8762H48.2073V79.2061H49.8195ZM50.0406 77.2623C50.0406 77.401 50.0124 77.531 49.9561 77.6524C49.8997 77.7737 49.8239 77.8799 49.7285 77.9709C49.6375 78.0619 49.5291 78.1356 49.4035 78.192C49.2778 78.244 49.1434 78.27 49.0004 78.27C48.8617 78.27 48.7295 78.244 48.6038 78.192C48.4825 78.1356 48.3763 78.0619 48.2853 77.9709C48.1943 77.8799 48.1206 77.7737 48.0642 77.6524C48.0122 77.531 47.9862 77.401 47.9862 77.2623C47.9862 77.1193 48.0122 76.9849 48.0642 76.8592C48.1206 76.7335 48.1943 76.6252 48.2853 76.5342C48.3763 76.4432 48.4825 76.3716 48.6038 76.3196C48.7295 76.2633 48.8617 76.2351 49.0004 76.2351C49.1434 76.2351 49.2778 76.2633 49.4035 76.3196C49.5291 76.3716 49.6375 76.4432 49.7285 76.5342C49.8239 76.6252 49.8997 76.7335 49.9561 76.8592C50.0124 76.9849 50.0406 77.1193 50.0406 77.2623ZM53.68 85.9802C53.0992 85.9802 52.6528 85.8177 52.3407 85.4927C52.033 85.1633 51.8792 84.7104 51.8792 84.1339V80.4088H51.1965C51.1099 80.4088 51.0362 80.3806 50.9755 80.3243C50.9148 80.268 50.8845 80.1834 50.8845 80.0708V79.4337L51.9572 79.2581L52.2952 77.4378C52.3169 77.3511 52.3581 77.284 52.4187 77.2363C52.4794 77.1886 52.5574 77.1648 52.6528 77.1648H53.4849V79.2646H55.2662V80.4088H53.4849V84.0234C53.4849 84.2314 53.5348 84.394 53.6344 84.511C53.7385 84.628 53.8793 84.6865 54.057 84.6865C54.1567 84.6865 54.239 84.6757 54.3041 84.654C54.3734 84.628 54.4319 84.602 54.4796 84.576C54.5316 84.55 54.5771 84.5262 54.6161 84.5045C54.6551 84.4785 54.6941 84.4655 54.7331 84.4655C54.7808 84.4655 54.8198 84.4785 54.8501 84.5045C54.8805 84.5262 54.913 84.5608 54.9477 84.6085L55.4287 85.3886C55.1947 85.5837 54.926 85.731 54.6226 85.8307C54.3192 85.9304 54.005 85.9802 53.68 85.9802ZM62.3533 79.2061L58.7192 87.7095C58.6715 87.8222 58.6087 87.9067 58.5307 87.9631C58.457 88.0237 58.3421 88.0541 58.1861 88.0541H56.9899L58.2381 85.3756L55.5402 79.2061H56.9509C57.0766 79.2061 57.1741 79.2365 57.2435 79.2971C57.3171 79.3578 57.3713 79.4272 57.406 79.5052L58.8232 82.9637C58.8709 83.0808 58.9099 83.1978 58.9402 83.3148C58.9749 83.4318 59.0074 83.551 59.0377 83.6724C59.0768 83.551 59.1158 83.4318 59.1548 83.3148C59.1938 83.1934 59.2371 83.0743 59.2848 82.9572L60.624 79.5052C60.6587 79.4185 60.715 79.347 60.793 79.2906C60.8754 79.2343 60.9664 79.2061 61.0661 79.2061H62.3533ZM68.9339 79.1021C69.428 79.1021 69.8766 79.1823 70.2796 79.3426C70.687 79.503 71.0338 79.7305 71.3198 80.0253C71.6102 80.32 71.8334 80.6797 71.9894 81.1044C72.1454 81.5292 72.2234 82.0037 72.2234 82.5282C72.2234 83.0569 72.1454 83.5337 71.9894 83.9584C71.8334 84.3831 71.6102 84.745 71.3198 85.0441C71.0338 85.3431 70.687 85.5728 70.2796 85.7332C69.8766 85.8936 69.428 85.9737 68.9339 85.9737C68.4355 85.9737 67.9826 85.8936 67.5752 85.7332C67.1678 85.5728 66.8189 85.3431 66.5285 85.0441C66.2425 84.745 66.0193 84.3831 65.8589 83.9584C65.7029 83.5337 65.6249 83.0569 65.6249 82.5282C65.6249 82.0037 65.7029 81.5292 65.8589 81.1044C66.0193 80.6797 66.2425 80.32 66.5285 80.0253C66.8189 79.7305 67.1678 79.503 67.5752 79.3426C67.9826 79.1823 68.4355 79.1021 68.9339 79.1021ZM68.9339 84.7385C69.4887 84.7385 69.8982 84.5522 70.1626 84.1794C70.4313 83.8067 70.5657 83.2606 70.5657 82.5412C70.5657 81.8217 70.4313 81.2735 70.1626 80.8964C69.8982 80.5193 69.4887 80.3308 68.9339 80.3308C68.3705 80.3308 67.9522 80.5215 67.6792 80.9029C67.4105 81.28 67.2761 81.8261 67.2761 82.5412C67.2761 83.2563 67.4105 83.8024 67.6792 84.1794C67.9522 84.5522 68.3705 84.7385 68.9339 84.7385ZM73.7515 85.8762V80.4153L73.1729 80.3243C73.0472 80.2983 72.9454 80.255 72.8674 80.1943C72.7937 80.1293 72.7568 80.0383 72.7568 79.9212V79.2646H73.7515V78.7705C73.7515 78.3891 73.8078 78.0468 73.9205 77.7434C74.0376 77.44 74.2022 77.1821 74.4146 76.9697C74.6313 76.7574 74.8935 76.5949 75.2012 76.4822C75.509 76.3695 75.8557 76.3131 76.2414 76.3131C76.5491 76.3131 76.8352 76.3543 77.0996 76.4367L77.0671 77.2428C77.0627 77.3035 77.0454 77.3533 77.015 77.3923C76.9847 77.427 76.9435 77.4552 76.8915 77.4768C76.8438 77.4942 76.7875 77.5072 76.7225 77.5158C76.6575 77.5202 76.5881 77.5223 76.5145 77.5223C76.3238 77.5223 76.1526 77.544 76.0009 77.5874C75.8535 77.6264 75.7278 77.6979 75.6238 77.8019C75.5198 77.9016 75.4396 78.0359 75.3833 78.205C75.3313 78.3696 75.3053 78.5755 75.3053 78.8226V79.2646H77.041V80.4088H75.3573V85.8762H73.7515ZM83.0872 85.9802C82.5064 85.9802 82.06 85.8177 81.7479 85.4927C81.4402 85.1633 81.2864 84.7104 81.2864 84.1339V80.4088H80.6037C80.5171 80.4088 80.4434 80.3806 80.3827 80.3243C80.322 80.268 80.2917 80.1834 80.2917 80.0708V79.4337L81.3644 79.2581L81.7024 77.4378C81.7241 77.3511 81.7653 77.284 81.8259 77.2363C81.8866 77.1886 81.9646 77.1648 82.06 77.1648H82.8921V79.2646H84.6734V80.4088H82.8921V84.0234C82.8921 84.2314 82.942 84.394 83.0416 84.511C83.1457 84.628 83.2865 84.6865 83.4642 84.6865C83.5639 84.6865 83.6462 84.6757 83.7113 84.654C83.7806 84.628 83.8391 84.602 83.8868 84.576C83.9388 84.55 83.9843 84.5262 84.0233 84.5045C84.0623 84.4785 84.1013 84.4655 84.1403 84.4655C84.188 84.4655 84.227 84.4785 84.2573 84.5045C84.2877 84.5262 84.3202 84.5608 84.3549 84.6085L84.8359 85.3886C84.6019 85.5837 84.3332 85.731 84.0298 85.8307C83.7264 85.9304 83.4122 85.9802 83.0872 85.9802ZM87.3073 79.9212C87.5673 79.6785 87.8534 79.4813 88.1654 79.3296C88.4775 79.1779 88.8437 79.1021 89.2641 79.1021C89.6281 79.1021 89.951 79.1649 90.2327 79.2906C90.5145 79.412 90.7485 79.5853 90.9349 79.8107C91.1256 80.0318 91.2686 80.2983 91.3639 80.6104C91.4636 80.9181 91.5135 81.2583 91.5135 81.631V85.8762H89.9077V81.631C89.9077 81.2236 89.8145 80.9094 89.6281 80.6884C89.4418 80.463 89.1579 80.3503 88.7765 80.3503C88.4991 80.3503 88.2391 80.4132 87.9964 80.5388C87.7537 80.6645 87.524 80.8357 87.3073 81.0524V85.8762H85.7015V76.2156H87.3073V79.9212ZM97.3378 81.774C97.3378 81.566 97.3075 81.371 97.2468 81.1889C97.1905 81.0026 97.1038 80.8401 96.9868 80.7014C96.8697 80.5627 96.7202 80.4543 96.5382 80.3763C96.3605 80.294 96.1524 80.2528 95.9141 80.2528C95.4503 80.2528 95.0841 80.385 94.8154 80.6494C94.551 80.9137 94.382 81.2886 94.3083 81.774H97.3378ZM94.2758 82.7427C94.3018 83.0851 94.3625 83.382 94.4578 83.6333C94.5532 83.8804 94.6789 84.0863 94.8349 84.251C94.9909 84.4113 95.1751 84.5327 95.3875 84.615C95.6042 84.693 95.8426 84.732 96.1026 84.732C96.3626 84.732 96.5859 84.7017 96.7722 84.641C96.9629 84.5803 97.1276 84.5132 97.2663 84.4395C97.4093 84.3658 97.5328 84.2986 97.6369 84.2379C97.7452 84.1773 97.8492 84.1469 97.9489 84.1469C98.0833 84.1469 98.1829 84.1968 98.248 84.2965L98.7095 84.8816C98.5318 85.0896 98.3325 85.2651 98.1114 85.4081C97.8904 85.5468 97.6585 85.6595 97.4158 85.7462C97.1774 85.8285 96.9326 85.8871 96.6812 85.9217C96.4342 85.9564 96.1936 85.9737 95.9596 85.9737C95.4958 85.9737 95.0646 85.8979 94.6659 85.7462C94.2671 85.5902 93.9204 85.3626 93.6257 85.0636C93.331 84.7602 93.0991 84.3875 92.9301 83.9454C92.7611 83.499 92.6765 82.9832 92.6765 82.3981C92.6765 81.9431 92.7502 81.5162 92.8976 81.1174C93.0449 80.7144 93.2551 80.3655 93.5282 80.0708C93.8056 79.7717 94.1414 79.5355 94.5358 79.3621C94.9346 79.1888 95.3832 79.1021 95.8816 79.1021C96.302 79.1021 96.6899 79.1693 97.0453 79.3036C97.4007 79.438 97.7062 79.6352 97.9619 79.8952C98.2176 80.1509 98.417 80.4673 98.56 80.8444C98.7074 81.2171 98.781 81.644 98.781 82.1251C98.781 82.3678 98.755 82.5325 98.703 82.6192C98.651 82.7015 98.5513 82.7427 98.404 82.7427H94.2758ZM101.65 79.2061V85.8762H100.038V79.2061H101.65ZM101.871 77.2623C101.871 77.401 101.843 77.531 101.787 77.6524C101.731 77.7737 101.655 77.8799 101.559 77.9709C101.468 78.0619 101.36 78.1356 101.234 78.192C101.109 78.244 100.974 78.27 100.831 78.27C100.693 78.27 100.56 78.244 100.435 78.192C100.313 78.1356 100.207 78.0619 100.116 77.9709C100.025 77.8799 99.9514 77.7737 99.8951 77.6524C99.8431 77.531 99.8171 77.401 99.8171 77.2623C99.8171 77.1193 99.8431 76.9849 99.8951 76.8592C99.9514 76.7335 100.025 76.6252 100.116 76.5342C100.207 76.4432 100.313 76.3716 100.435 76.3196C100.56 76.2633 100.693 76.2351 100.831 76.2351C100.974 76.2351 101.109 76.2633 101.234 76.3196C101.36 76.3716 101.468 76.4432 101.559 76.5342C101.655 76.6252 101.731 76.7335 101.787 76.8592C101.843 76.9849 101.871 77.1193 101.871 77.2623ZM104.802 80.3633C105.01 79.9646 105.257 79.6525 105.543 79.4272C105.829 79.1974 106.167 79.0826 106.557 79.0826C106.865 79.0826 107.112 79.1498 107.299 79.2841L107.195 80.4868C107.173 80.5648 107.14 80.6212 107.097 80.6559C107.058 80.6862 107.004 80.7014 106.935 80.7014C106.87 80.7014 106.772 80.6905 106.642 80.6689C106.516 80.6472 106.393 80.6364 106.271 80.6364C106.094 80.6364 105.936 80.6624 105.797 80.7144C105.658 80.7664 105.532 80.8422 105.42 80.9419C105.311 81.0373 105.214 81.1543 105.127 81.293C105.045 81.4317 104.967 81.5898 104.893 81.7675V85.8762H103.287V79.2061H104.23C104.395 79.2061 104.51 79.2365 104.575 79.2971C104.64 79.3535 104.683 79.4575 104.705 79.6092L104.802 80.3633ZM34.067 100.147C34.249 100.368 34.4462 100.524 34.6586 100.615C34.8753 100.706 35.1094 100.752 35.3607 100.752C35.6034 100.752 35.8223 100.706 36.0173 100.615C36.2124 100.524 36.3771 100.385 36.5114 100.199C36.6501 100.013 36.7563 99.7785 36.83 99.4968C36.9037 99.2108 36.9405 98.8749 36.9405 98.4892C36.9405 98.0991 36.908 97.7697 36.843 97.501C36.7823 97.228 36.6935 97.0069 36.5764 96.8379C36.4594 96.6689 36.3164 96.5453 36.1474 96.4673C35.9827 96.3893 35.7941 96.3503 35.5818 96.3503C35.248 96.3503 34.9642 96.4218 34.7301 96.5648C34.4961 96.7035 34.2751 96.9007 34.067 97.1564V100.147ZM33.9825 96.1163C34.2556 95.8086 34.5654 95.5593 34.9122 95.3686C35.2589 95.1779 35.6663 95.0826 36.1344 95.0826C36.4984 95.0826 36.83 95.1584 37.129 95.3101C37.4324 95.4618 37.6925 95.6829 37.9092 95.9732C38.1302 96.2593 38.2992 96.6147 38.4162 97.0394C38.5376 97.4598 38.5983 97.9431 38.5983 98.4892C38.5983 98.9876 38.5311 99.4492 38.3967 99.8739C38.2624 100.299 38.0695 100.667 37.8181 100.979C37.5711 101.291 37.2699 101.536 36.9145 101.714C36.5634 101.887 36.169 101.974 35.7313 101.974C35.3586 101.974 35.04 101.917 34.7756 101.805C34.5113 101.688 34.2751 101.527 34.067 101.324V104.054H32.4613V95.2061H33.4429C33.651 95.2061 33.7875 95.3036 33.8525 95.4987L33.9825 96.1163ZM45.5981 95.2061V101.876H44.6164C44.4041 101.876 44.2697 101.779 44.2134 101.584L44.1029 101.051C43.8298 101.328 43.5286 101.553 43.1992 101.727C42.8698 101.896 42.4819 101.98 42.0355 101.98C41.6714 101.98 41.3486 101.92 41.0668 101.798C40.7895 101.673 40.5554 101.497 40.3647 101.272C40.174 101.046 40.0288 100.78 39.9292 100.472C39.8338 100.16 39.7861 99.8175 39.7861 99.4448V95.2061H41.3919V99.4448C41.3919 99.8522 41.4851 100.169 41.6714 100.394C41.8621 100.615 42.146 100.726 42.5231 100.726C42.8005 100.726 43.0605 100.665 43.3032 100.544C43.5459 100.418 43.7756 100.247 43.9923 100.03V95.2061H45.5981ZM48.705 96.3633C48.913 95.9646 49.1601 95.6525 49.4461 95.4272C49.7322 95.1974 50.0702 95.0826 50.4603 95.0826C50.768 95.0826 51.015 95.1498 51.2014 95.2841L51.0974 96.4868C51.0757 96.5648 51.0432 96.6212 50.9999 96.6559C50.9609 96.6862 50.9067 96.7014 50.8374 96.7014C50.7723 96.7014 50.6748 96.6905 50.5448 96.6689C50.4191 96.6472 50.2956 96.6364 50.1742 96.6364C49.9965 96.6364 49.8384 96.6624 49.6997 96.7144C49.561 96.7664 49.4353 96.8422 49.3226 96.9419C49.2142 97.0373 49.1167 97.1543 49.0301 97.293C48.9477 97.4317 48.8697 97.5898 48.796 97.7675V101.876H47.1902V95.2061H48.1329C48.2976 95.2061 48.4125 95.2365 48.4775 95.2971C48.5425 95.3535 48.5858 95.4575 48.6075 95.6092L48.705 96.3633ZM56.6285 96.6169C56.5808 96.6775 56.5331 96.7252 56.4855 96.7599C56.4421 96.7945 56.3771 96.8119 56.2904 96.8119C56.2081 96.8119 56.1279 96.788 56.0499 96.7404C55.9719 96.6884 55.8787 96.632 55.7703 96.5713C55.662 96.5063 55.532 96.45 55.3803 96.4023C55.2329 96.3503 55.0487 96.3243 54.8277 96.3243C54.546 96.3243 54.2989 96.3763 54.0866 96.4803C53.8742 96.58 53.6965 96.7252 53.5535 96.9159C53.4148 97.1066 53.3108 97.3385 53.2414 97.6115C53.1721 97.8802 53.1374 98.1858 53.1374 98.5282C53.1374 98.8836 53.1743 99.1999 53.2479 99.4773C53.3259 99.7547 53.4365 99.9887 53.5795 100.179C53.7225 100.366 53.8959 100.509 54.0996 100.609C54.3033 100.704 54.533 100.752 54.7887 100.752C55.0444 100.752 55.2503 100.721 55.4063 100.661C55.5666 100.596 55.701 100.526 55.8094 100.452C55.9177 100.374 56.0109 100.305 56.0889 100.244C56.1712 100.179 56.2623 100.147 56.3619 100.147C56.492 100.147 56.5895 100.197 56.6545 100.296L57.1161 100.882C56.9384 101.09 56.7455 101.265 56.5375 101.408C56.3294 101.547 56.1127 101.66 55.8874 101.746C55.6663 101.829 55.4366 101.887 55.1983 101.922C54.9642 101.956 54.7302 101.974 54.4961 101.974C54.0844 101.974 53.6965 101.898 53.3324 101.746C52.9684 101.59 52.6498 101.365 52.3768 101.07C52.1037 100.775 51.887 100.416 51.7267 99.9909C51.5707 99.5618 51.4926 99.0743 51.4926 98.5282C51.4926 98.0384 51.562 97.5855 51.7007 97.1694C51.8437 96.749 52.0517 96.3871 52.3248 96.0838C52.5978 95.776 52.9359 95.5355 53.3389 95.3621C53.742 95.1888 54.2058 95.1021 54.7302 95.1021C55.2286 95.1021 55.6642 95.1823 56.0369 95.3426C56.414 95.503 56.752 95.7327 57.0511 96.0318L56.6285 96.6169ZM59.7285 95.9212C59.9885 95.6785 60.2746 95.4813 60.5866 95.3296C60.8987 95.1779 61.2649 95.1021 61.6853 95.1021C62.0494 95.1021 62.3723 95.1649 62.654 95.2906C62.9357 95.412 63.1697 95.5853 63.3561 95.8107C63.5468 96.0318 63.6898 96.2983 63.7852 96.6104C63.8848 96.9181 63.9347 97.2583 63.9347 97.631V101.876H62.3289V97.631C62.3289 97.2236 62.2357 96.9094 62.0494 96.6884C61.863 96.463 61.5791 96.3503 61.1977 96.3503C60.9204 96.3503 60.6603 96.4132 60.4176 96.5388C60.1749 96.6645 59.9452 96.8357 59.7285 97.0524V101.876H58.1227V92.2156H59.7285V95.9212ZM68.9854 99.0288C68.5217 99.0504 68.1316 99.0916 67.8152 99.1523C67.4988 99.2086 67.2453 99.2823 67.0546 99.3733C66.8639 99.4643 66.7274 99.5705 66.645 99.6919C66.5627 99.8132 66.5215 99.9454 66.5215 100.088C66.5215 100.37 66.6038 100.572 66.7685 100.693C66.9376 100.814 67.1564 100.875 67.4251 100.875C67.7545 100.875 68.0384 100.817 68.2768 100.7C68.5195 100.578 68.7557 100.396 68.9854 100.153V99.0288ZM65.3058 96.1358C66.0729 95.4337 66.9961 95.0826 68.0753 95.0826C68.4653 95.0826 68.8142 95.1476 69.1219 95.2776C69.4296 95.4033 69.6897 95.581 69.9021 95.8107C70.1144 96.0361 70.2748 96.307 70.3831 96.6234C70.4958 96.9397 70.5522 97.2865 70.5522 97.6635V101.876H69.824C69.6724 101.876 69.5553 101.855 69.473 101.811C69.3906 101.764 69.3256 101.67 69.278 101.532L69.1349 101.051C68.9659 101.202 68.8012 101.337 68.6408 101.454C68.4805 101.566 68.3136 101.662 68.1403 101.74C67.9669 101.818 67.7805 101.876 67.5812 101.915C67.3861 101.959 67.1694 101.98 66.9311 101.98C66.6494 101.98 66.3893 101.943 66.1509 101.87C65.9126 101.792 65.7067 101.677 65.5333 101.525C65.36 101.373 65.2256 101.185 65.1303 100.96C65.0349 100.734 64.9872 100.472 64.9872 100.173C64.9872 100.004 65.0154 99.8371 65.0718 99.6724C65.1281 99.5033 65.2191 99.343 65.3448 99.1913C65.4748 99.0396 65.6417 98.8966 65.8454 98.7622C66.0491 98.6279 66.2983 98.5108 66.593 98.4111C66.8921 98.3115 67.2388 98.2313 67.6332 98.1706C68.0276 98.1056 68.4783 98.0666 68.9854 98.0536V97.6635C68.9854 97.2171 68.8901 96.8877 68.6994 96.6754C68.5087 96.4587 68.2334 96.3503 67.8737 96.3503C67.6137 96.3503 67.397 96.3806 67.2236 96.4413C67.0546 96.502 66.9051 96.5713 66.775 96.6494C66.645 96.723 66.5258 96.7902 66.4175 96.8509C66.3135 96.9116 66.1964 96.9419 66.0664 96.9419C65.9537 96.9419 65.8584 96.9137 65.7804 96.8574C65.7024 96.7967 65.6395 96.7274 65.5918 96.6494L65.3058 96.1358ZM76.1342 96.5063C76.0908 96.5757 76.0453 96.6255 75.9976 96.6559C75.95 96.6819 75.8893 96.6949 75.8156 96.6949C75.7376 96.6949 75.6531 96.6732 75.5621 96.6299C75.4754 96.5865 75.3735 96.5388 75.2565 96.4868C75.1395 96.4305 75.0051 96.3806 74.8534 96.3373C74.7061 96.294 74.5306 96.2723 74.3269 96.2723C74.0105 96.2723 73.7613 96.3395 73.5792 96.4738C73.4015 96.6082 73.3127 96.7837 73.3127 97.0004C73.3127 97.1434 73.3582 97.2648 73.4492 97.3645C73.5446 97.4598 73.6681 97.5443 73.8198 97.618C73.9758 97.6917 74.1513 97.7589 74.3464 97.8196C74.5414 97.8759 74.7386 97.9387 74.938 98.0081C75.1417 98.0774 75.341 98.1576 75.5361 98.2486C75.7311 98.3353 75.9044 98.448 76.0561 98.5867C76.2122 98.721 76.3357 98.8836 76.4267 99.0743C76.522 99.265 76.5697 99.4947 76.5697 99.7634C76.5697 100.084 76.5112 100.381 76.3942 100.654C76.2815 100.923 76.1125 101.157 75.8871 101.356C75.6617 101.551 75.3822 101.705 75.0485 101.818C74.7191 101.926 74.3377 101.98 73.9043 101.98C73.6746 101.98 73.4492 101.959 73.2282 101.915C73.0115 101.876 72.8013 101.82 72.5976 101.746C72.3982 101.673 72.2118 101.586 72.0385 101.486C71.8694 101.386 71.7199 101.278 71.5899 101.161L71.9605 100.55C72.0081 100.476 72.0645 100.42 72.1295 100.381C72.1945 100.342 72.2768 100.322 72.3765 100.322C72.4762 100.322 72.5694 100.351 72.6561 100.407C72.7471 100.463 72.8511 100.524 72.9681 100.589C73.0851 100.654 73.2217 100.715 73.3777 100.771C73.5381 100.827 73.7396 100.856 73.9823 100.856C74.173 100.856 74.3355 100.834 74.4699 100.791C74.6086 100.743 74.7213 100.682 74.8079 100.609C74.8989 100.535 74.964 100.45 75.003 100.355C75.0463 100.255 75.068 100.153 75.068 100.049C75.068 99.8934 75.0203 99.7655 74.925 99.6659C74.8339 99.5662 74.7104 99.4795 74.5544 99.4058C74.4027 99.3321 74.2272 99.2671 74.0278 99.2108C73.8328 99.1501 73.6312 99.0851 73.4232 99.0157C73.2195 98.9464 73.018 98.8662 72.8186 98.7752C72.6236 98.6799 72.448 98.5607 72.292 98.4176C72.1403 98.2746 72.0168 98.0991 71.9215 97.8911C71.8304 97.683 71.7849 97.4317 71.7849 97.1369C71.7849 96.8639 71.8391 96.6038 71.9475 96.3568C72.0558 96.1098 72.214 95.8952 72.422 95.7132C72.6344 95.5268 72.8966 95.3795 73.2087 95.2711C73.5251 95.1584 73.8891 95.1021 74.3008 95.1021C74.7603 95.1021 75.1785 95.1779 75.5556 95.3296C75.9326 95.4813 76.2468 95.6807 76.4982 95.9277L76.1342 96.5063ZM82.0755 97.774C82.0755 97.566 82.0452 97.371 81.9845 97.1889C81.9282 97.0026 81.8415 96.8401 81.7245 96.7014C81.6074 96.5627 81.4579 96.4543 81.2759 96.3763C81.0982 96.294 80.8902 96.2528 80.6518 96.2528C80.188 96.2528 79.8218 96.385 79.5531 96.6494C79.2887 96.9137 79.1197 97.2886 79.046 97.774H82.0755ZM79.0135 98.7427C79.0395 99.0851 79.1002 99.382 79.1955 99.6333C79.2909 99.8804 79.4166 100.086 79.5726 100.251C79.7286 100.411 79.9128 100.533 80.1252 100.615C80.3419 100.693 80.5803 100.732 80.8403 100.732C81.1004 100.732 81.3236 100.702 81.5099 100.641C81.7006 100.58 81.8653 100.513 82.004 100.439C82.147 100.366 82.2706 100.299 82.3746 100.238C82.4829 100.177 82.5869 100.147 82.6866 100.147C82.821 100.147 82.9207 100.197 82.9857 100.296L83.4473 100.882C83.2696 101.09 83.0702 101.265 82.8492 101.408C82.6281 101.547 82.3962 101.66 82.1535 101.746C81.9152 101.829 81.6703 101.887 81.4189 101.922C81.1719 101.956 80.9313 101.974 80.6973 101.974C80.2336 101.974 79.8023 101.898 79.4036 101.746C79.0049 101.59 78.6581 101.363 78.3634 101.064C78.0687 100.76 77.8368 100.387 77.6678 99.9454C77.4988 99.499 77.4143 98.9832 77.4143 98.3981C77.4143 97.9431 77.4879 97.5162 77.6353 97.1174C77.7826 96.7144 77.9929 96.3655 78.2659 96.0708C78.5433 95.7717 78.8792 95.5355 79.2736 95.3621C79.6723 95.1888 80.1209 95.1021 80.6193 95.1021C81.0397 95.1021 81.4276 95.1693 81.783 95.3036C82.1384 95.438 82.4439 95.6352 82.6996 95.8952C82.9553 96.1509 83.1547 96.4673 83.2977 96.8444C83.4451 97.2171 83.5188 97.644 83.5188 98.1251C83.5188 98.3678 83.4928 98.5325 83.4408 98.6192C83.3887 98.7015 83.2891 98.7427 83.1417 98.7427H79.0135ZM88.7935 96.5063C88.7501 96.5757 88.7046 96.6255 88.6569 96.6559C88.6093 96.6819 88.5486 96.6949 88.4749 96.6949C88.3969 96.6949 88.3124 96.6732 88.2214 96.6299C88.1347 96.5865 88.0328 96.5388 87.9158 96.4868C87.7988 96.4305 87.6644 96.3806 87.5128 96.3373C87.3654 96.294 87.1899 96.2723 86.9862 96.2723C86.6698 96.2723 86.4206 96.3395 86.2385 96.4738C86.0608 96.6082 85.972 96.7837 85.972 97.0004C85.972 97.1434 86.0175 97.2648 86.1085 97.3645C86.2039 97.4598 86.3274 97.5443 86.4791 97.618C86.6351 97.6917 86.8106 97.7589 87.0057 97.8196C87.2007 97.8759 87.3979 97.9387 87.5973 98.0081C87.801 98.0774 88.0003 98.1576 88.1954 98.2486C88.3904 98.3353 88.5638 98.448 88.7155 98.5867C88.8715 98.721 88.995 98.8836 89.086 99.0743C89.1814 99.265 89.229 99.4947 89.229 99.7634C89.229 100.084 89.1705 100.381 89.0535 100.654C88.9408 100.923 88.7718 101.157 88.5464 101.356C88.3211 101.551 88.0415 101.705 87.7078 101.818C87.3784 101.926 86.997 101.98 86.5636 101.98C86.3339 101.98 86.1085 101.959 85.8875 101.915C85.6708 101.876 85.4606 101.82 85.2569 101.746C85.0575 101.673 84.8712 101.586 84.6978 101.486C84.5288 101.386 84.3792 101.278 84.2492 101.161L84.6198 100.55C84.6675 100.476 84.7238 100.42 84.7888 100.381C84.8538 100.342 84.9362 100.322 85.0358 100.322C85.1355 100.322 85.2287 100.351 85.3154 100.407C85.4064 100.463 85.5104 100.524 85.6274 100.589C85.7445 100.654 85.881 100.715 86.037 100.771C86.1974 100.827 86.3989 100.856 86.6416 100.856C86.8323 100.856 86.9948 100.834 87.1292 100.791C87.2679 100.743 87.3806 100.682 87.4672 100.609C87.5583 100.535 87.6233 100.45 87.6623 100.355C87.7056 100.255 87.7273 100.153 87.7273 100.049C87.7273 99.8934 87.6796 99.7655 87.5843 99.6659C87.4933 99.5662 87.3697 99.4795 87.2137 99.4058C87.062 99.3321 86.8865 99.2671 86.6871 99.2108C86.4921 99.1501 86.2906 99.0851 86.0825 99.0157C85.8788 98.9464 85.6773 98.8662 85.4779 98.7752C85.2829 98.6799 85.1074 98.5607 84.9513 98.4176C84.7996 98.2746 84.6761 98.0991 84.5808 97.8911C84.4898 97.683 84.4442 97.4317 84.4442 97.1369C84.4442 96.8639 84.4984 96.6038 84.6068 96.3568C84.7151 96.1098 84.8733 95.8952 85.0814 95.7132C85.2937 95.5268 85.5559 95.3795 85.868 95.2711C86.1844 95.1584 86.5484 95.1021 86.9602 95.1021C87.4196 95.1021 87.8378 95.1779 88.2149 95.3296C88.5919 95.4813 88.9062 95.6807 89.1575 95.9277L88.7935 96.5063Z" fill="#134E78"/>
<path d="M204.913 94.8466V107.875L155.08 95.8237V57.3898L158.662 54.4584L211.428 55.7612V92.8923L204.913 94.8466Z" fill="#212121"/>
<path d="M155.08 57.3898L204.913 68.464V107.875L155.08 95.8237V57.3898ZM155.08 57.3898L158.662 54.4584L211.428 55.7612V92.8923L204.913 94.8466" stroke="black" stroke-width="3.25711" stroke-linejoin="round"/>
<rect x="175.125" y="26.4467" width="36.0104" height="60.0174" transform="rotate(10.4888 175.125 26.4467)" fill="#137F5E"/>
<path d="M207.114 35.96L177.26 30.4329L167.491 83.1988L197.345 88.726L207.114 35.96Z" stroke="#0F3F31" stroke-width="1.41217"/>
<circle cx="187.65" cy="59.6433" r="9.17913" transform="rotate(10.4888 187.65 59.6433)" fill="#5CA791"/>
<path d="M182.653 59.9814C182.676 60.5849 182.834 61.0535 183.127 61.387C183.424 61.7267 183.834 61.9209 184.357 61.9696C184.571 61.9894 184.76 61.9673 184.925 61.9033C185.095 61.8453 185.248 61.7518 185.385 61.6227C185.521 61.4992 185.643 61.3489 185.751 61.1716C185.858 60.9944 185.961 60.7998 186.06 60.5878L182.653 59.9814ZM191.621 60.2712C191.611 59.9526 191.568 59.6792 191.493 59.4509C191.423 59.2232 191.328 59.0327 191.206 58.8796C191.084 58.7264 190.942 58.6082 190.779 58.525C190.616 58.4475 190.442 58.4 190.256 58.3828C190.043 58.3629 189.851 58.3819 189.681 58.4398C189.516 58.5039 189.363 58.5946 189.222 58.712C189.085 58.8354 188.958 58.9824 188.84 59.153C188.728 59.3241 188.619 59.5126 188.515 59.7185L191.621 60.2712ZM187.994 60.9294C187.833 61.3228 187.657 61.7122 187.468 62.0974C187.285 62.4831 187.061 62.8224 186.795 63.1154C186.529 63.414 186.21 63.6453 185.837 63.8092C185.47 63.9736 185.022 64.0312 184.493 63.982C183.97 63.9333 183.486 63.8003 183.041 63.5831C182.602 63.3663 182.221 63.0727 181.898 62.7023C181.581 62.3324 181.332 61.8923 181.153 61.382C180.979 60.8723 180.902 60.3006 180.921 59.6671L179.69 59.4504C179.561 59.4328 179.448 59.3655 179.351 59.2487C179.248 59.137 179.204 59.0024 179.219 58.8449L179.29 58.0772L181.082 58.3971C181.233 57.7474 181.47 57.1454 181.794 56.5912C182.118 56.037 182.499 55.5761 182.936 55.2083L183.829 55.9381C183.908 56.0022 183.969 56.0816 184.011 56.1763C184.059 56.2772 184.077 56.381 184.067 56.4879C184.056 56.6116 183.999 56.7396 183.896 56.8719C183.798 57.0046 183.682 57.1555 183.547 57.3245C183.418 57.494 183.283 57.6886 183.144 57.9082C183.004 58.1278 182.892 58.3925 182.806 58.7022L186.548 59.3652C186.698 58.9764 186.867 58.5922 187.056 58.2126C187.243 57.8386 187.476 57.5057 187.753 57.2137C188.035 56.9279 188.376 56.7072 188.776 56.5516C189.176 56.3959 189.663 56.3448 190.237 56.3982C190.664 56.438 191.073 56.5611 191.462 56.7675C191.857 56.9744 192.199 57.2559 192.489 57.6119C192.779 57.9736 193.006 58.4032 193.169 58.9006C193.333 59.398 193.4 59.9574 193.371 60.5787L194.425 60.7704C194.559 60.7942 194.675 60.8617 194.772 60.9729C194.87 61.0841 194.911 61.2212 194.896 61.3844L194.824 62.1521L193.183 61.8632C193.032 62.4505 192.813 62.9492 192.525 63.3592C192.243 63.7698 191.935 64.1185 191.602 64.4052L190.881 63.8275C190.776 63.744 190.698 63.6602 190.65 63.5762C190.601 63.4922 190.581 63.394 190.592 63.2815C190.6 63.1971 190.634 63.0983 190.696 62.9849C190.763 62.872 190.84 62.7458 190.927 62.6064C191.019 62.4675 191.114 62.3089 191.21 62.1306C191.305 61.958 191.388 61.7643 191.459 61.5497L187.994 60.9294Z" fill="#0F3F31"/>
<rect x="177.311" y="34.0325" width="28.9496" height="3.53044" transform="rotate(10.4888 177.311 34.0325)" fill="#5CA791"/>
<rect x="169.471" y="76.3843" width="28.9496" height="3.53044" transform="rotate(10.4888 169.471 76.3843)" fill="#5CA791"/>
<path d="M204.913 68.4638L155.08 57.3897V95.8236L204.913 107.875V68.4638Z" fill="#212121"/>
<path d="M211.428 55.7611V92.8922L206.216 94.5207M155.08 57.3897L204.913 68.4638V107.875L155.08 95.8236V57.3897Z" stroke="black" stroke-width="3.25711" stroke-linejoin="round"/>
<path d="M158.336 60.9724L201.33 71.0695V101.361" stroke="white" stroke-width="0.651422" stroke-linejoin="round" stroke-dasharray="1.95 1.95"/>
<path d="M221.096 13.0887C223.972 15.6119 222.241 19.9443 217.229 22.7653C212.217 25.5863 205.823 25.8277 202.947 23.3045C200.071 20.7812 201.803 16.4488 206.814 13.6278C211.826 10.8068 218.221 10.5654 221.096 13.0887Z" fill="url(#paint0_linear_4420_567)"/>
<path d="M200.343 21.0201L218.493 10.8043L221.313 13.2791L203.164 23.4948L200.343 21.0201Z" fill="url(#paint1_linear_4420_567)"/>
<ellipse cx="10.4136" cy="6.92745" rx="10.4136" ry="6.92745" transform="matrix(0.871439 -0.490504 0.751692 0.659514 195.353 16.6415)" fill="#FFC200"/>
<path d="M142.394 51.6244C139.123 53.5989 134.279 51.5661 131.573 47.0841C128.867 42.6021 129.325 37.368 132.596 35.3935C135.866 33.4191 140.711 35.4518 143.417 39.9339C146.123 44.4159 145.665 49.6499 142.394 51.6244Z" fill="url(#paint2_linear_4420_567)"/>
<path d="M135.886 33.4074L145.684 49.6382L142.394 51.6244L132.596 35.3935L135.886 33.4074Z" fill="url(#paint3_linear_4420_567)"/>
<ellipse cx="140.127" cy="41.9208" rx="9.4796" ry="7.42996" transform="rotate(58.8809 140.127 41.9208)" fill="#FFC200"/>
<mask id="mask0_4420_567" style="mask-type:alpha" maskUnits="userSpaceOnUse" x="132" y="32" width="17" height="19">
<ellipse cx="140.127" cy="41.9208" rx="9.4796" ry="7.42996" transform="rotate(58.8809 140.127 41.9208)" fill="#FFC200"/>
</mask>
<g mask="url(#mask0_4420_567)">
<rect x="134.165" y="31.7002" width="4.9087" height="24.3611" transform="rotate(-32.2517 134.165 31.7002)" fill="#FFE03B"/>
</g>
<defs>
<linearGradient id="paint0_linear_4420_567" x1="218.954" y1="27.0355" x2="222.629" y2="10.071" gradientUnits="userSpaceOnUse">
<stop stop-color="#A86F00"/>
<stop offset="1" stop-color="#E9A522"/>
</linearGradient>
<linearGradient id="paint1_linear_4420_567" x1="218.954" y1="27.0355" x2="222.629" y2="10.071" gradientUnits="userSpaceOnUse">
<stop stop-color="#A86F00"/>
<stop offset="1" stop-color="#E9A522"/>
</linearGradient>
<linearGradient id="paint2_linear_4420_567" x1="135.207" y1="51.0382" x2="137.369" y2="26.7005" gradientUnits="userSpaceOnUse">
<stop stop-color="#AD7200"/>
<stop offset="1" stop-color="#FFBA08"/>
</linearGradient>
<linearGradient id="paint3_linear_4420_567" x1="135.207" y1="51.0382" x2="137.369" y2="26.7005" gradientUnits="userSpaceOnUse">
<stop stop-color="#AD7200"/>
<stop offset="1" stop-color="#FFBA08"/>
</linearGradient>
</defs>
</svg>
