<svg width="232" height="68" viewBox="0 0 232 68" fill="none" xmlns="http://www.w3.org/2000/svg">
<rect width="232" height="68" fill="white"/>
<path d="M82 35C82 45.4934 71.5 54 61 54C50.5 54 40 45.4934 40 35C40 24.5066 49.402 16 61 16C72.598 16 82 24.5066 82 35Z" fill="#FFD401"/>
<ellipse cx="190.558" cy="36.4742" rx="25.4346" ry="23.5348" fill="#878787"/>
<path d="M199.751 40.444C194.389 51.9478 192.559 62.8971 181.059 58.3077C168.188 53.7709 161.6 39.188 166.962 27.6842C174.496 11.5218 193.623 10.104 203.735 16.3421C213.235 21.1625 205.113 28.9402 199.751 40.444Z" fill="#E4E4E4"/>
<path d="M206.717 20.3281C217.279 29.6953 216.51 42.8875 207.27 51.8076C198.03 60.7277 181.671 61.4031 173.256 52.6308C164.205 43.1953 163.463 30.0714 172.703 21.1513C181.943 12.2312 196.875 11.5996 206.717 20.3281Z" fill="#DDDDDD"/>
<path d="M213.541 36.4742C213.541 49.8169 202.99 58.3077 189.975 58.3077C176.96 58.3077 165.414 47.9974 166.409 36.4742C167.48 24.0798 176.96 14.6407 189.975 14.6407C202.99 14.6407 213.541 24.0413 213.541 36.4742Z" fill="#CACACA"/>
<path d="M209.251 30.8032C209.251 40.6802 197.3 59.4419 185.349 57.7406C172.478 54.9051 164.511 44.1301 167.575 32.7881C170.856 20.6437 180.446 14.3653 190.865 14.6408C202.203 14.9405 209.251 21.5996 209.251 30.8032Z" fill="#747474"/>
<path d="M212.316 36.1906C212.316 48.6669 202.575 56.6063 190.558 56.6063C178.542 56.6063 167.882 46.9656 168.801 36.1906C169.79 24.6011 178.542 15.7749 190.558 15.7749C202.575 15.7749 212.316 24.565 212.316 36.1906Z" fill="white"/>
<path d="M190.558 15.2079L191.784 16.0585L194.542 34.2058L210.171 45.8314V46.9656L208.945 47.5327L190.558 40.7275L172.172 47.5327L170.946 46.9656L171.252 45.8314L187.187 34.2058L189.333 16.0585L190.558 15.2079Z" fill="#D9D9D9"/>
<path d="M210.171 46.9656L190.558 36.4742L194.542 34.2058L210.171 45.8314L210.171 46.9656Z" fill="#CACACA"/>
<path d="M210.171 46.9656L190.558 36.4742L194.542 34.2058L210.171 45.8314L210.171 46.9656Z" fill="#CACACA"/>
<path d="M170.946 46.9656L190.558 36.4742V40.444L172.172 47.5327L170.946 46.9656Z" fill="#CACACA"/>
<path d="M170.946 46.9656L190.558 36.4742V40.444L172.172 47.5327L170.946 46.9656Z" fill="#CACACA"/>
<path d="M190.558 15.2079L190.558 36.4742L187.187 34.2058L189.332 16.0585L190.558 15.2079Z" fill="#CACACA"/>
<path d="M190.558 15.2079L190.558 36.4742L187.187 34.2058L189.332 16.0585L190.558 15.2079Z" fill="#CACACA"/>
<path d="M86.3685 43.5706C86.1335 43.3532 84.4037 43.4038 84.2234 43.5706C84.1754 43.615 84.0937 44.2577 83.9169 44.4213C83.7402 44.5848 83.6105 44.7829 83.6105 44.9884C83.6105 45.1301 84.407 45.5152 84.8363 45.5555C85.2128 45.5908 85.7556 45.2719 85.7556 44.7048C85.7556 44.2096 86.7469 43.9208 86.3685 43.5706Z" fill="#E41C4D"/>
<path d="M113.029 46.6897C113.029 47.0029 113.335 47.5403 113.642 48.6745C113.706 48.914 114.867 48.6745 114.867 48.391C114.867 47.8239 114.561 47.8239 114.561 46.9732C114.561 46.4061 114.255 46.1226 113.948 46.1226C113.443 46.1226 113.029 46.3765 113.029 46.6897Z" fill="#E41C4D"/>
<path d="M110.884 44.9883C111.19 45.2719 111.497 46.1226 112.109 46.1226C112.722 46.1226 113.029 45.5555 112.722 44.9883C112.63 44.8176 111.497 44.1377 111.19 44.1377C110.577 44.1377 110.577 44.7048 110.884 44.9883Z" fill="#E41C4D"/>
<path d="M112.109 23.1549C111.975 23.038 110.884 24.2891 110.271 24.5727C109.388 24.981 108.385 24.7122 107.513 25.1398C106.836 25.4718 106.302 25.6302 105.981 26.274C105.68 26.8772 105.856 27.321 105.981 27.9753C106.27 29.4915 110.271 30.5272 110.271 32.7956C110.271 34.2134 109.964 34.497 109.045 35.0641C108.293 35.5278 107.206 35.3476 106.9 35.3476C105.674 35.3476 102.303 33.0792 101.69 32.5121C101.046 31.9158 100.118 31.8853 99.239 31.6614C98.3087 31.4245 97.0791 31.405 96.1745 31.0943C95.8681 30.9891 94.1391 29.3913 93.1101 28.8259C92.1908 28.2588 90.7441 28.905 90.0457 28.2588C89.0809 27.3661 88.8119 27.1271 87.5942 26.5575C86.4791 26.036 85.4507 25.8209 85.1427 25.7069C82.6118 24.7701 82.2058 24.0223 80.2396 23.8588C78.8806 23.7457 78.6663 23.9463 77.4816 24.5727C77.223 24.7094 72.5786 27.8285 70.7399 30.3804C70.3314 30.9475 69.7402 31.2431 68.5949 33.3627C67.9223 34.6075 67.3691 39.3173 66.7562 40.168C66.5158 40.5016 64.6111 42.7199 64.3047 43.2871C63.9982 43.8542 62.7725 44.009 62.7725 44.4213C62.7725 44.8335 63.8417 44.5336 64.3047 44.4213C65.0459 44.2414 64.982 44.0658 65.5304 43.5706C66.3869 42.7972 66.9801 41.1511 67.982 41.0186C68.2189 40.9873 67.6755 41.5857 67.6755 41.5857C67.3691 41.8693 67.3839 41.9693 67.0627 42.4364C66.6317 43.0631 66.4498 44.1377 65.5304 44.7048C64.7527 45.1845 63.9982 45.2719 63.9982 45.839C63.9982 46.1226 65.8369 45.839 66.4498 45.5555C67.5376 45.0522 68.0187 43.9859 68.5949 44.0617C69.3026 44.1547 69.4555 44.7618 70.1271 44.9884C71.139 45.3297 71.7215 44.8721 73.4979 45.2719C74.1241 45.4129 73.799 45.387 74.4172 45.5555C75.0026 45.715 75.8822 45.9728 76.2559 45.839C76.9066 45.6059 76.8268 44.7822 76.8688 44.1377C76.9076 43.5425 76.0225 43.3292 76.5623 43.0035C76.7451 42.8932 76.9885 43.1515 77.1752 43.0035C77.2893 42.913 77.1245 42.3895 76.5623 41.8693C76.2033 41.5371 75.643 41.0186 75.643 40.7351C75.643 40.4515 75.0301 39.8844 75.0301 39.6009C75.0301 39.4901 75.5233 39.6009 75.643 39.6009C76.2559 39.6009 76.5623 39.6009 77.1752 39.6009C77.3444 39.6009 77.3462 39.7905 77.4816 39.8844C77.9473 40.2076 79.2178 40.0109 79.3203 39.8844C79.5501 39.6009 78.6548 38.6043 78.401 37.8996C78.3136 37.6572 78.401 36.1983 78.7074 36.1983C78.8271 36.1983 78.5889 36.1826 78.7074 36.1983C78.9146 36.2257 78.4614 36.6322 79.3203 38.1831C79.6385 38.7578 79.9332 39.6009 80.8525 39.6009C81.1589 39.6009 81.498 39.5654 81.7718 39.8844C81.9382 40.0783 82.0246 40.5012 81.7718 40.7351C81.519 40.969 80.3794 42.6614 80.2396 43.8542C80.2396 43.522 80.2009 44.1844 80.2396 43.8542C80.2396 44.9884 80.9691 45.0762 80.5461 45.2719C80.7778 45.3272 80.332 45.371 80.5461 45.2719C80.1519 45.1778 80.2396 45.2719 79.6267 44.4213C79.0139 43.5706 79.9332 42.7686 79.9332 42.4364C79.9332 42.1528 81.1589 40.4515 80.8525 40.168C79.9332 40.168 79.8524 40.3185 79.6267 40.4515C79.5153 40.5172 78.7074 42.4364 78.401 42.7199C78.0625 43.0331 77.7881 43.5706 78.0945 43.8542C78.3874 44.1251 79.0139 45.5555 79.3203 45.839C79.7485 46.2352 80.4339 46.0798 80.8525 46.1226C81.5154 46.1902 82.9976 46.9732 83.9169 47.2568C84.567 47.4573 85.677 47.8139 86.6749 47.5403C87.571 47.2946 87.7475 45.965 88.2071 45.839C88.3319 45.8048 88.6477 45.839 89.1264 45.839C89.4329 45.839 90.3054 44.657 90.3522 44.4213C90.417 44.0945 90.4782 44.1652 90.3522 43.8542C90.1918 43.4584 88.6238 43.3475 87.9006 43.5706C86.6938 43.9428 86.6234 45.7021 85.4491 45.839C85.2117 45.8667 85.3816 45.8513 85.1427 45.839C84.5334 45.8077 84.1403 45.8356 83.6105 45.5555C83.1696 45.3224 82.8143 44.877 82.6912 44.4213C82.6587 44.6407 82.6331 44.2064 82.6912 44.4213C82.818 43.5644 83.5245 43.0107 84.2233 42.4364C84.5953 42.1307 85.6324 41.7613 86.062 41.3022C86.5875 40.7406 86.6749 39.6009 86.9813 39.6009C87.101 39.6009 86.8633 39.5827 86.9813 39.6009C88.0423 39.7645 86.7417 41.105 87.5942 41.3022C88.82 41.5857 89.7123 41.074 91.2715 41.0186C92.972 40.9583 94.3359 41.3022 94.9488 41.3022C96.1746 41.3022 96.481 39.6009 96.481 39.0338C96.481 37.6659 95.942 37.1396 96.481 37.0489C96.7165 37.0093 96.2444 37.0156 96.481 37.0489C97.293 37.1634 96.7902 39.3651 97.4003 40.5883C97.737 41.2633 97.856 41.6574 98.6261 42.2896C99.5261 43.0285 99.3101 42.9738 100.465 43.2871C101.733 43.6312 104.448 43.8542 104.755 43.8542C105.368 43.8542 106.255 44.399 106.9 44.8416C107.444 45.2148 107.513 45.1251 107.819 45.5555C107.912 45.6862 108.126 45.9391 107.819 46.1226C107.513 46.306 107.206 45.2719 105.981 44.8416C105.438 44.6509 104.755 44.1377 104.142 44.1377C103.846 44.1377 100.465 44.1377 99.8519 43.8542C99.5503 43.7146 98.4495 43.4238 97.4003 42.1528C96.8121 41.4403 96.7874 41.3022 96.481 41.3022C96.1746 41.3022 96.1745 41.551 96.1746 41.8693C96.1746 41.9199 96.3476 42.5348 97.0939 43.5706C97.8401 44.6064 98.5524 44.353 99.239 44.9884C99.8519 45.5555 101.691 45.2719 102.303 45.2719C102.543 45.2719 103.91 45.2182 104.142 45.2719C104.635 45.3859 104.651 45.5627 105.061 45.839C105.494 46.1303 106.381 46.8915 107.206 46.9732C107.813 47.0333 108.454 46.5392 108.739 46.6897C109.488 47.0858 109.452 48.1385 110.271 48.391C110.936 48.5962 112.682 48.391 112.722 48.391C113.029 48.391 112.416 46.6897 112.11 46.4061C111.19 46.4061 111 45.6634 110.577 45.2719C110.271 44.9884 108.739 44.1377 108.432 43.5706C108.2 43.1409 108.147 42.4565 107.819 42.1528C107.206 41.5857 106.048 41.7985 105.368 41.5857C105.255 41.5505 104.274 41.0186 104.142 40.7351C103.878 40.168 104.755 39.5166 104.755 38.6034C104.755 37.4692 104.908 36.2274 105.061 36.1983C105.263 36.1598 105.19 36.1087 105.674 36.1983C107.206 36.4818 108.023 36.5134 109.045 36.1983C110.49 35.7526 111.19 34.9094 111.497 34.2134C111.816 33.4883 111.803 32.5121 111.803 31.945C111.803 30.5948 108.607 28.4203 108.126 27.9753C107.819 27.6917 107.686 27.2531 107.819 27.1246C108.316 26.6449 109.273 27.021 109.964 26.8411C110.636 26.6663 111.003 26.447 111.497 25.9904C111.99 25.5338 112.315 24.928 112.416 24.2891C112.441 24.1312 112.302 23.3215 112.109 23.1549Z" fill="#E41C4D"/>
<path d="M69.2076 37.6161C68.9011 37.8996 68.9011 39.6009 69.514 39.6009C69.6672 39.6009 69.514 39.0338 69.8204 38.1832C69.9808 37.844 70.7398 37.3325 70.7398 37.3325C71.3526 36.7654 71.9655 38.1832 72.272 37.8996C72.272 37.049 71.3526 35.6312 71.0462 35.6312C70.4842 35.6312 69.514 37.049 69.2076 37.6161Z" fill="#FFD401"/>
<path d="M78.0944 30.5273C78.0944 30.8405 78.0944 32.5121 78.4008 32.5121C78.5701 32.5121 79.0137 30.2437 79.3201 29.9602C79.6266 29.6766 79.7958 29.1095 79.6266 29.1095C78.8018 29.1095 78.0944 29.6766 78.0944 30.5273Z" fill="#FFD401"/>
<path d="M71.0463 43.2871C71.0463 43.5706 71.7596 43.8542 71.9656 43.8542C72.5785 43.8542 72.7243 43.422 72.2721 43.0035C71.7517 42.5219 71.6592 42.4364 71.3528 42.4364C70.7399 42.4364 71.0463 43.1305 71.0463 43.2871Z" fill="#FFD401"/>
<path d="M35.499 43.5706C35.7339 43.3532 37.4638 43.4038 37.644 43.5706C37.692 43.615 37.7737 44.2577 37.9505 44.4213C38.1272 44.5848 38.2569 44.7829 38.2569 44.9884C38.2569 45.1301 37.4604 45.5152 37.0312 45.5555C36.6547 45.5908 36.1118 45.2719 36.1118 44.7048C36.1118 44.2096 35.1205 43.9208 35.499 43.5706Z" fill="#E41C4D"/>
<path d="M8.83865 46.6897C8.83865 47.0029 8.53221 47.5403 8.22576 48.6745C8.16106 48.914 7 48.6745 7 48.391C7 47.8239 7.30644 47.8239 7.30644 46.9732C7.30644 46.4061 7.61288 46.1226 7.91932 46.1226C8.42405 46.1226 8.83865 46.3765 8.83865 46.6897Z" fill="#E41C4D"/>
<path d="M10.9838 44.9883C10.6773 45.2719 10.3709 46.1226 9.758 46.1226C9.14512 46.1226 8.83868 45.5555 9.14512 44.9883C9.2374 44.8176 10.3709 44.1377 10.6773 44.1377C11.2902 44.1377 11.2902 44.7048 10.9838 44.9883Z" fill="#E41C4D"/>
<path d="M9.75794 23.1549C9.89269 23.038 10.9837 24.2891 11.5966 24.5727C12.4792 24.981 13.4826 24.7122 14.3546 25.1398C15.0316 25.4718 15.5656 25.6302 15.8868 26.274C16.1877 26.8772 16.0115 27.321 15.8868 27.9753C15.5976 29.4915 11.5966 30.5272 11.5966 32.7956C11.5966 34.2134 11.903 34.497 12.8224 35.0641C13.5742 35.5278 14.661 35.3476 14.9674 35.3476C16.1932 35.3476 19.5641 33.0792 20.1769 32.5121C20.8214 31.9158 21.7498 31.8853 22.6285 31.6614C23.5587 31.4245 24.7884 31.405 25.6929 31.0943C25.9993 30.9891 27.7283 29.3913 28.7573 28.8259C29.6766 28.2588 31.1234 28.905 31.8217 28.2588C32.7865 27.3661 33.0555 27.1271 34.2732 26.5575C35.3883 26.036 36.4168 25.8209 36.7248 25.7069C39.2556 24.7701 39.6616 24.0223 41.6278 23.8588C42.9868 23.7457 43.2011 23.9463 44.3858 24.5727C44.6444 24.7094 49.2888 27.8285 51.1275 30.3804C51.5361 30.9475 52.1272 31.2431 53.2726 33.3627C53.9452 34.6075 54.4983 39.3173 55.1112 40.168C55.3516 40.5016 57.2563 42.7199 57.5628 43.2871C57.8692 43.8542 59.095 44.009 59.095 44.4213C59.095 44.8335 58.0258 44.5336 57.5628 44.4213C56.8215 44.2414 56.8854 44.0658 56.337 43.5706C55.4805 42.7972 54.8874 41.1511 53.8855 41.0186C53.6485 40.9873 54.1919 41.5857 54.1919 41.5857C54.4983 41.8693 54.4835 41.9693 54.8048 42.4364C55.2358 43.0631 55.4177 44.1377 56.337 44.7048C57.1147 45.1845 57.8692 45.2719 57.8692 45.839C57.8692 46.1226 56.0305 45.839 55.4177 45.5555C54.3298 45.0522 53.8487 43.9859 53.2726 44.0617C52.5648 44.1547 52.412 44.7618 51.7404 44.9884C50.7285 45.3297 50.1459 44.8721 48.3695 45.2719C47.7433 45.4129 48.0684 45.387 47.4502 45.5555C46.8649 45.715 45.9852 45.9728 45.6115 45.839C44.9608 45.6059 45.0407 44.7822 44.9987 44.1377C44.9599 43.5425 45.8449 43.3292 45.3051 43.0035C45.1224 42.8932 44.8789 43.1515 44.6922 43.0035C44.5781 42.913 44.7429 42.3895 45.3051 41.8693C45.6641 41.5371 46.2244 41.0186 46.2244 40.7351C46.2244 40.4515 46.8373 39.8844 46.8373 39.6009C46.8373 39.4901 46.3441 39.6009 46.2244 39.6009C45.6115 39.6009 45.3051 39.6009 44.6922 39.6009C44.523 39.6009 44.5212 39.7905 44.3858 39.8844C43.9201 40.2076 42.6497 40.0109 42.5471 39.8844C42.3173 39.6009 43.2126 38.6043 43.4665 37.8996C43.5538 37.6572 43.4665 36.1983 43.16 36.1983C43.0403 36.1983 43.2785 36.1826 43.16 36.1983C42.9528 36.2257 43.406 36.6322 42.5471 38.1831C42.2289 38.7578 41.9343 39.6009 41.0149 39.6009C40.7085 39.6009 40.3694 39.5654 40.0956 39.8844C39.9292 40.0783 39.8428 40.5012 40.0956 40.7351C40.3484 40.969 41.488 42.6614 41.6278 43.8542C41.6278 43.522 41.6665 44.1844 41.6278 43.8542C41.6278 44.9884 40.8984 45.0762 41.3214 45.2719C41.0896 45.3272 41.5354 45.371 41.3214 45.2719C41.7155 45.1778 41.6278 45.2719 42.2407 44.4213C42.8536 43.5706 41.9343 42.7686 41.9343 42.4364C41.9343 42.1528 40.7085 40.4515 41.0149 40.168C41.9343 40.168 42.015 40.3185 42.2407 40.4515C42.3522 40.5172 43.16 42.4364 43.4665 42.7199C43.8049 43.0331 44.0793 43.5706 43.7729 43.8542C43.4801 44.1251 42.8536 45.5555 42.5471 45.839C42.1189 46.2352 41.4336 46.0798 41.0149 46.1226C40.352 46.1902 38.8698 46.9732 37.9505 47.2568C37.3005 47.4573 36.1904 47.8139 35.1926 47.5403C34.2964 47.2946 34.1199 45.965 33.6603 45.839C33.5356 45.8048 33.2197 45.839 32.741 45.839C32.4346 45.839 31.5621 44.657 31.5153 44.4213C31.4504 44.0945 31.3892 44.1652 31.5153 43.8542C31.6756 43.4584 33.2436 43.3475 33.9668 43.5706C35.1737 43.9428 35.244 45.7021 36.4183 45.839C36.6558 45.8667 36.4858 45.8513 36.7248 45.839C37.334 45.8077 37.7272 45.8356 38.257 45.5555C38.6978 45.3224 39.0531 44.877 39.1763 44.4213C39.2088 44.6407 39.2343 44.2064 39.1763 44.4213C39.0494 43.5644 38.3429 43.0107 37.6441 42.4364C37.2721 42.1307 36.2351 41.7613 35.8054 41.3022C35.28 40.7406 35.1925 39.6009 34.8861 39.6009C34.7664 39.6009 35.0041 39.5827 34.8861 39.6009C33.8251 39.7645 35.1257 41.105 34.2732 41.3022C33.0475 41.5857 32.1551 41.074 30.5959 41.0186C28.8955 40.9583 27.5315 41.3022 26.9186 41.3022C25.6929 41.3022 25.3864 39.6009 25.3864 39.0338C25.3864 37.6659 25.9254 37.1396 25.3864 37.0489C25.1509 37.0093 25.623 37.0156 25.3864 37.0489C24.5745 37.1634 25.0772 39.3651 24.4671 40.5883C24.1304 41.2633 24.0114 41.6574 23.2414 42.2896C22.3413 43.0285 22.5573 42.9738 21.4027 43.2871C20.1343 43.6312 17.419 43.8542 17.1125 43.8542C16.4996 43.8542 15.6122 44.399 14.9674 44.8416C14.4238 45.2148 14.3546 45.1251 14.0481 45.5555C13.955 45.6862 13.7417 45.9391 14.0481 46.1226C14.3545 46.306 14.661 45.2719 15.8868 44.8416C16.4298 44.6509 17.1125 44.1377 17.7254 44.1377C18.0214 44.1377 21.4027 44.1377 22.0156 43.8542C22.3171 43.7146 23.418 43.4238 24.4671 42.1528C25.0553 41.4403 25.08 41.3022 25.3864 41.3022C25.6929 41.3022 25.6929 41.551 25.6929 41.8693C25.6929 41.9199 25.5198 42.5348 24.7735 43.5706C24.0273 44.6064 23.3151 44.353 22.6285 44.9884C22.0156 45.5555 20.1769 45.2719 19.564 45.2719C19.3247 45.2719 17.9576 45.2182 17.7254 45.2719C17.2328 45.3859 17.2167 45.5627 16.8061 45.839C16.3733 46.1303 15.4865 46.8915 14.661 46.9732C14.0542 47.0333 13.4134 46.5392 13.1288 46.6897C12.3795 47.0858 12.4153 48.1385 11.5966 48.391C10.9312 48.5962 9.18519 48.391 9.14504 48.391C8.8386 48.391 9.45148 46.6897 9.75793 46.4061C10.6773 46.4061 10.867 45.6634 11.2901 45.2719C11.5966 44.9884 13.1288 44.1377 13.4352 43.5706C13.6674 43.1409 13.72 42.4565 14.0481 42.1528C14.661 41.5857 15.8194 41.7985 16.4996 41.5857C16.6124 41.5505 17.5936 41.0186 17.7254 40.7351C17.9889 40.168 17.1125 39.5166 17.1125 38.6034C17.1125 37.4692 16.959 36.2274 16.8061 36.1983C16.6043 36.1598 16.677 36.1087 16.1932 36.1983C14.661 36.4818 13.8441 36.5134 12.8224 36.1983C11.3773 35.7526 10.6773 34.9094 10.3708 34.2134C10.0515 33.4883 10.0644 32.5121 10.0644 31.945C10.0644 30.5948 13.2607 28.4203 13.7417 27.9753C14.0481 27.6917 14.1811 27.2531 14.0481 27.1246C13.5513 26.6449 12.5942 27.021 11.903 26.8411C11.2313 26.6663 10.8642 26.447 10.3708 25.9904C9.8774 25.5338 9.55276 24.928 9.4515 24.2891C9.42646 24.1312 9.56587 23.3215 9.75794 23.1549Z" fill="#E41C4D"/>
<path d="M52.6596 37.616C52.9661 37.8995 52.9661 39.6008 52.3532 39.6008C52.2 39.6008 52.3532 39.0337 52.0467 38.1831C51.8864 37.8439 51.1274 37.3324 51.1274 37.3324C50.5145 36.7653 49.9017 38.1831 49.5952 37.8995C49.5952 37.0489 50.5145 35.6311 50.821 35.6311C51.383 35.6311 52.3532 37.0489 52.6596 37.616Z" fill="#FFD401"/>
<path d="M43.7728 30.5273C43.7728 30.8405 43.7728 32.5121 43.4664 32.5121C43.2971 32.5121 42.8535 30.2437 42.5471 29.9602C42.2406 29.6766 42.0714 29.1095 42.2406 29.1095C43.0654 29.1095 43.7728 29.6766 43.7728 30.5273Z" fill="#FFD401"/>
<path d="M50.8211 43.2871C50.8211 43.5706 50.1078 43.8542 49.9018 43.8542C49.2889 43.8542 49.1431 43.422 49.5953 43.0035C50.1158 42.5219 50.2082 42.4364 50.5147 42.4364C51.1276 42.4364 50.8211 43.1305 50.8211 43.2871Z" fill="#FFD401"/>
<path d="M128.631 28.8184H134.173L134.786 34.2058H135.092L138.463 28.8184H142.447L151.334 17.4763L151.64 17.1927L151.947 17.4763L133.56 45.8314L127.125 55.7557H126.818V55.4722L133.254 42.9959H131.415L128.631 28.8184Z" fill="#212121"/>
<path d="M143.462 32.5852C143.462 32.5852 143.462 32.3131 145.923 32.041C147.039 31.9176 153 32.041 153 32.8573C153 34.2449 152.077 36.9392 151.769 38.0277C151.708 38.2437 150.474 37.1883 149 36.667C147.462 36.1228 145.308 36.3949 145.615 36.667C145.923 36.9392 147.699 37.0255 149.308 38.2998C150.352 39.1266 150.931 39.7975 151.154 41.021C151.669 43.8472 148.692 45.6471 146.846 46.1913C145 46.7356 141.308 47.552 137 46.4635C137 45.375 137.923 42.9259 138.231 41.5653C138.316 41.1879 140.077 42.3816 141.615 42.6537C143.154 42.9259 144.865 42.5808 145 42.3816C145.369 41.8374 142.746 41.4811 141.615 40.7489C139.154 39.1548 139.154 38.5719 139.154 38.5719L143.462 32.5852Z" fill="#212121"/>
</svg>
