<svg width="229" height="89" viewBox="0 0 229 89" fill="none" xmlns="http://www.w3.org/2000/svg">
<g clip-path="url(#clip0_6612_1194)">
<rect width="229" height="89" fill="white"/>
<path d="M23.588 18.452C23.892 18.452 24.156 18.414 24.38 18.338C24.608 18.262 24.794 18.158 24.938 18.026C25.086 17.89 25.196 17.73 25.268 17.546C25.34 17.362 25.376 17.16 25.376 16.94C25.376 16.5 25.23 16.162 24.938 15.926C24.65 15.69 24.208 15.572 23.612 15.572H22.58V18.452H23.588ZM27.74 23H26.282C26.006 23 25.806 22.892 25.682 22.676L23.858 19.898C23.79 19.794 23.714 19.72 23.63 19.676C23.55 19.632 23.43 19.61 23.27 19.61H22.58V23H20.966V14.324H23.612C24.2 14.324 24.704 14.386 25.124 14.51C25.548 14.63 25.894 14.8 26.162 15.02C26.434 15.24 26.634 15.504 26.762 15.812C26.89 16.116 26.954 16.452 26.954 16.82C26.954 17.112 26.91 17.388 26.822 17.648C26.738 17.908 26.614 18.144 26.45 18.356C26.29 18.568 26.09 18.754 25.85 18.914C25.614 19.074 25.344 19.2 25.04 19.292C25.144 19.352 25.24 19.424 25.328 19.508C25.416 19.588 25.496 19.684 25.568 19.796L27.74 23ZM32.0105 19.214C32.0105 19.022 31.9825 18.842 31.9265 18.674C31.8745 18.502 31.7945 18.352 31.6865 18.224C31.5785 18.096 31.4405 17.996 31.2725 17.924C31.1085 17.848 30.9165 17.81 30.6965 17.81C30.2685 17.81 29.9305 17.932 29.6825 18.176C29.4385 18.42 29.2825 18.766 29.2145 19.214H32.0105ZM29.1845 20.108C29.2085 20.424 29.2645 20.698 29.3525 20.93C29.4405 21.158 29.5565 21.348 29.7005 21.5C29.8445 21.648 30.0145 21.76 30.2105 21.836C30.4105 21.908 30.6305 21.944 30.8705 21.944C31.1105 21.944 31.3165 21.916 31.4885 21.86C31.6645 21.804 31.8165 21.742 31.9445 21.674C32.0765 21.606 32.1905 21.544 32.2865 21.488C32.3865 21.432 32.4825 21.404 32.5745 21.404C32.6985 21.404 32.7905 21.45 32.8505 21.542L33.2765 22.082C33.1125 22.274 32.9285 22.436 32.7245 22.568C32.5205 22.696 32.3065 22.8 32.0825 22.88C31.8625 22.956 31.6365 23.01 31.4045 23.042C31.1765 23.074 30.9545 23.09 30.7385 23.09C30.3105 23.09 29.9125 23.02 29.5445 22.88C29.1765 22.736 28.8565 22.526 28.5845 22.25C28.3125 21.97 28.0985 21.626 27.9425 21.218C27.7865 20.806 27.7085 20.33 27.7085 19.79C27.7085 19.37 27.7765 18.976 27.9125 18.608C28.0485 18.236 28.2425 17.914 28.4945 17.642C28.7505 17.366 29.0605 17.148 29.4245 16.988C29.7925 16.828 30.2065 16.748 30.6665 16.748C31.0545 16.748 31.4125 16.81 31.7405 16.934C32.0685 17.058 32.3505 17.24 32.5865 17.48C32.8225 17.716 33.0065 18.008 33.1385 18.356C33.2745 18.7 33.3425 19.094 33.3425 19.538C33.3425 19.762 33.3185 19.914 33.2705 19.994C33.2225 20.07 33.1305 20.108 32.9945 20.108H29.1845ZM38.3187 18.416C38.1507 18.212 37.9667 18.068 37.7667 17.984C37.5707 17.9 37.3587 17.858 37.1307 17.858C36.9067 17.858 36.7047 17.9 36.5247 17.984C36.3447 18.068 36.1907 18.196 36.0627 18.368C35.9347 18.536 35.8367 18.752 35.7687 19.016C35.7007 19.276 35.6667 19.584 35.6667 19.94C35.6667 20.3 35.6947 20.606 35.7507 20.858C35.8107 21.106 35.8947 21.31 36.0027 21.47C36.1107 21.626 36.2427 21.74 36.3987 21.812C36.5547 21.88 36.7287 21.914 36.9207 21.914C37.2287 21.914 37.4907 21.85 37.7067 21.722C37.9227 21.594 38.1267 21.412 38.3187 21.176V18.416ZM39.8007 14.084V23H38.8947C38.6987 23 38.5747 22.91 38.5227 22.73L38.3967 22.136C38.1487 22.42 37.8627 22.65 37.5387 22.826C37.2187 23.002 36.8447 23.09 36.4167 23.09C36.0807 23.09 35.7727 23.02 35.4927 22.88C35.2127 22.74 34.9707 22.538 34.7667 22.274C34.5667 22.006 34.4107 21.676 34.2987 21.284C34.1907 20.892 34.1367 20.444 34.1367 19.94C34.1367 19.484 34.1987 19.06 34.3227 18.668C34.4467 18.276 34.6247 17.936 34.8567 17.648C35.0887 17.36 35.3667 17.136 35.6907 16.976C36.0147 16.812 36.3787 16.73 36.7827 16.73C37.1267 16.73 37.4207 16.784 37.6647 16.892C37.9087 17 38.1267 17.146 38.3187 17.33V14.084H39.8007ZM47.6612 21.74C47.9612 21.74 48.2132 21.704 48.4172 21.632C48.6212 21.56 48.7832 21.464 48.9032 21.344C49.0272 21.224 49.1152 21.084 49.1672 20.924C49.2232 20.764 49.2512 20.594 49.2512 20.414C49.2512 20.226 49.2212 20.058 49.1612 19.91C49.1012 19.758 49.0072 19.63 48.8792 19.526C48.7512 19.418 48.5852 19.336 48.3812 19.28C48.1812 19.224 47.9392 19.196 47.6552 19.196H46.0292V21.74H47.6612ZM46.0292 15.572V18.08H47.3132C47.8652 18.08 48.2812 17.98 48.5612 17.78C48.8452 17.58 48.9872 17.262 48.9872 16.826C48.9872 16.374 48.8592 16.052 48.6032 15.86C48.3472 15.668 47.9472 15.572 47.4032 15.572H46.0292ZM47.4032 14.324C47.9712 14.324 48.4572 14.378 48.8612 14.486C49.2652 14.594 49.5952 14.748 49.8512 14.948C50.1112 15.148 50.3012 15.39 50.4212 15.674C50.5412 15.958 50.6012 16.278 50.6012 16.634C50.6012 16.838 50.5712 17.034 50.5112 17.222C50.4512 17.406 50.3572 17.58 50.2292 17.744C50.1052 17.904 49.9452 18.05 49.7492 18.182C49.5572 18.314 49.3272 18.426 49.0592 18.518C50.2512 18.786 50.8472 19.43 50.8472 20.45C50.8472 20.818 50.7772 21.158 50.6372 21.47C50.4972 21.782 50.2932 22.052 50.0252 22.28C49.7572 22.504 49.4272 22.68 49.0352 22.808C48.6432 22.936 48.1952 23 47.6912 23H44.4152V14.324H47.4032ZM57.2782 16.844V23H56.3722C56.1762 23 56.0522 22.91 56.0002 22.73L55.8982 22.238C55.6462 22.494 55.3682 22.702 55.0642 22.862C54.7602 23.018 54.4022 23.096 53.9902 23.096C53.6542 23.096 53.3562 23.04 53.0962 22.928C52.8402 22.812 52.6242 22.65 52.4482 22.442C52.2722 22.234 52.1382 21.988 52.0462 21.704C51.9582 21.416 51.9142 21.1 51.9142 20.756V16.844H53.3962V20.756C53.3962 21.132 53.4822 21.424 53.6542 21.632C53.8302 21.836 54.0922 21.938 54.4402 21.938C54.6962 21.938 54.9362 21.882 55.1602 21.77C55.3842 21.654 55.5962 21.496 55.7962 21.296V16.844H57.2782ZM60.2476 14.084V23H58.7656V14.084H60.2476ZM63.2242 14.084V23H61.7422V14.084H63.2242ZM76.1626 16.844L74.2066 23H73.0186C72.8826 23 72.7886 22.912 72.7366 22.736L71.6326 19.178C71.5966 19.058 71.5626 18.94 71.5306 18.824C71.5026 18.704 71.4786 18.584 71.4586 18.464C71.4346 18.584 71.4066 18.706 71.3746 18.83C71.3466 18.95 71.3146 19.07 71.2786 19.19L70.1566 22.736C70.1086 22.912 70.0026 23 69.8386 23H68.6986L66.7486 16.844H67.9306C68.0386 16.844 68.1306 16.87 68.2066 16.922C68.2826 16.974 68.3326 17.04 68.3566 17.12L69.2386 20.408C69.2826 20.588 69.3206 20.764 69.3526 20.936C69.3886 21.108 69.4186 21.28 69.4426 21.452C69.4866 21.28 69.5326 21.108 69.5806 20.936C69.6326 20.764 69.6866 20.588 69.7426 20.408L70.7626 17.108C70.7866 17.028 70.8326 16.962 70.9006 16.91C70.9726 16.858 71.0586 16.832 71.1586 16.832H71.8126C71.9166 16.832 72.0046 16.858 72.0766 16.91C72.1526 16.962 72.2026 17.028 72.2266 17.108L73.2166 20.408C73.2686 20.588 73.3166 20.766 73.3606 20.942C73.4086 21.114 73.4546 21.286 73.4986 21.458C73.5506 21.118 73.6246 20.768 73.7206 20.408L74.6266 17.12C74.6546 17.04 74.7046 16.974 74.7766 16.922C74.8486 16.87 74.9346 16.844 75.0346 16.844H76.1626ZM79.624 16.748C80.08 16.748 80.494 16.822 80.866 16.97C81.242 17.118 81.562 17.328 81.826 17.6C82.094 17.872 82.3 18.204 82.444 18.596C82.588 18.988 82.66 19.426 82.66 19.91C82.66 20.398 82.588 20.838 82.444 21.23C82.3 21.622 82.094 21.956 81.826 22.232C81.562 22.508 81.242 22.72 80.866 22.868C80.494 23.016 80.08 23.09 79.624 23.09C79.164 23.09 78.746 23.016 78.37 22.868C77.994 22.72 77.672 22.508 77.404 22.232C77.14 21.956 76.934 21.622 76.786 21.23C76.642 20.838 76.57 20.398 76.57 19.91C76.57 19.426 76.642 18.988 76.786 18.596C76.934 18.204 77.14 17.872 77.404 17.6C77.672 17.328 77.994 17.118 78.37 16.97C78.746 16.822 79.164 16.748 79.624 16.748ZM79.624 21.95C80.136 21.95 80.514 21.778 80.758 21.434C81.006 21.09 81.13 20.586 81.13 19.922C81.13 19.258 81.006 18.752 80.758 18.404C80.514 18.056 80.136 17.882 79.624 17.882C79.104 17.882 78.718 18.058 78.466 18.41C78.218 18.758 78.094 19.262 78.094 19.922C78.094 20.582 78.218 21.086 78.466 21.434C78.718 21.778 79.104 21.95 79.624 21.95ZM85.1766 17.6C85.3006 17.476 85.4306 17.362 85.5666 17.258C85.7066 17.15 85.8526 17.06 86.0046 16.988C86.1606 16.912 86.3266 16.854 86.5026 16.814C86.6786 16.77 86.8706 16.748 87.0786 16.748C87.4146 16.748 87.7126 16.806 87.9726 16.922C88.2326 17.034 88.4486 17.194 88.6206 17.402C88.7966 17.606 88.9286 17.852 89.0166 18.14C89.1086 18.424 89.1546 18.738 89.1546 19.082V23H87.6726V19.082C87.6726 18.706 87.5866 18.416 87.4146 18.212C87.2426 18.004 86.9806 17.9 86.6286 17.9C86.3726 17.9 86.1326 17.958 85.9086 18.074C85.6846 18.19 85.4726 18.348 85.2726 18.548V23H83.7906V16.844H84.6966C84.8886 16.844 85.0146 16.934 85.0746 17.114L85.1766 17.6ZM98.636 21.62C98.796 21.62 98.922 21.666 99.014 21.758C99.11 21.846 99.158 21.964 99.158 22.112V23H93.206V22.508C93.206 22.408 93.226 22.304 93.266 22.196C93.31 22.084 93.378 21.984 93.47 21.896L96.104 19.256C96.324 19.032 96.52 18.818 96.692 18.614C96.868 18.41 97.014 18.208 97.13 18.008C97.246 17.808 97.334 17.606 97.394 17.402C97.458 17.194 97.49 16.976 97.49 16.748C97.49 16.54 97.46 16.358 97.4 16.202C97.34 16.042 97.254 15.908 97.142 15.8C97.034 15.692 96.902 15.612 96.746 15.56C96.594 15.504 96.422 15.476 96.23 15.476C96.054 15.476 95.89 15.502 95.738 15.554C95.59 15.602 95.458 15.672 95.342 15.764C95.226 15.852 95.128 15.956 95.048 16.076C94.968 16.196 94.908 16.328 94.868 16.472C94.8 16.656 94.712 16.778 94.604 16.838C94.496 16.898 94.34 16.912 94.136 16.88L93.356 16.742C93.416 16.326 93.532 15.962 93.704 15.65C93.876 15.334 94.09 15.072 94.346 14.864C94.606 14.652 94.902 14.494 95.234 14.39C95.57 14.282 95.93 14.228 96.314 14.228C96.714 14.228 97.08 14.288 97.412 14.408C97.744 14.524 98.028 14.69 98.264 14.906C98.5 15.122 98.684 15.382 98.816 15.686C98.948 15.99 99.014 16.328 99.014 16.7C99.014 17.02 98.966 17.316 98.87 17.588C98.778 17.86 98.652 18.12 98.492 18.368C98.336 18.616 98.152 18.856 97.94 19.088C97.728 19.32 97.506 19.556 97.274 19.796L95.318 21.794C95.506 21.738 95.692 21.696 95.876 21.668C96.064 21.636 96.242 21.62 96.41 21.62H98.636ZM105.921 21.89V23H101.121V21.89H102.879V16.832C102.879 16.632 102.885 16.426 102.897 16.214L101.649 17.258C101.577 17.314 101.505 17.35 101.433 17.366C101.365 17.378 101.299 17.378 101.235 17.366C101.175 17.354 101.121 17.334 101.073 17.306C101.025 17.274 100.989 17.24 100.965 17.204L100.497 16.562L103.143 14.312H104.361V21.89H105.921ZM113.046 16.748C113.502 16.748 113.916 16.822 114.288 16.97C114.664 17.118 114.984 17.328 115.248 17.6C115.516 17.872 115.722 18.204 115.866 18.596C116.01 18.988 116.082 19.426 116.082 19.91C116.082 20.398 116.01 20.838 115.866 21.23C115.722 21.622 115.516 21.956 115.248 22.232C114.984 22.508 114.664 22.72 114.288 22.868C113.916 23.016 113.502 23.09 113.046 23.09C112.586 23.09 112.168 23.016 111.792 22.868C111.416 22.72 111.094 22.508 110.826 22.232C110.562 21.956 110.356 21.622 110.208 21.23C110.064 20.838 109.992 20.398 109.992 19.91C109.992 19.426 110.064 18.988 110.208 18.596C110.356 18.204 110.562 17.872 110.826 17.6C111.094 17.328 111.416 17.118 111.792 16.97C112.168 16.822 112.586 16.748 113.046 16.748ZM113.046 21.95C113.558 21.95 113.936 21.778 114.18 21.434C114.428 21.09 114.552 20.586 114.552 19.922C114.552 19.258 114.428 18.752 114.18 18.404C113.936 18.056 113.558 17.882 113.046 17.882C112.526 17.882 112.14 18.058 111.888 18.41C111.64 18.758 111.516 19.262 111.516 19.922C111.516 20.582 111.64 21.086 111.888 21.434C112.14 21.778 112.526 21.95 113.046 21.95ZM122.516 16.844V23H121.61C121.414 23 121.29 22.91 121.238 22.73L121.136 22.238C120.884 22.494 120.606 22.702 120.302 22.862C119.998 23.018 119.64 23.096 119.228 23.096C118.892 23.096 118.594 23.04 118.334 22.928C118.078 22.812 117.862 22.65 117.686 22.442C117.51 22.234 117.376 21.988 117.284 21.704C117.196 21.416 117.152 21.1 117.152 20.756V16.844H118.634V20.756C118.634 21.132 118.72 21.424 118.892 21.632C119.068 21.836 119.33 21.938 119.678 21.938C119.934 21.938 120.174 21.882 120.398 21.77C120.622 21.654 120.834 21.496 121.034 21.296V16.844H122.516ZM126.038 23.096C125.502 23.096 125.09 22.946 124.802 22.646C124.518 22.342 124.376 21.924 124.376 21.392V17.954H123.746C123.666 17.954 123.598 17.928 123.542 17.876C123.486 17.824 123.458 17.746 123.458 17.642V17.054L124.448 16.892L124.76 15.212C124.78 15.132 124.818 15.07 124.874 15.026C124.93 14.982 125.002 14.96 125.09 14.96H125.858V16.898H127.502V17.954H125.858V21.29C125.858 21.482 125.904 21.632 125.996 21.74C126.092 21.848 126.222 21.902 126.386 21.902C126.478 21.902 126.554 21.892 126.614 21.872C126.678 21.848 126.732 21.824 126.776 21.8C126.824 21.776 126.866 21.754 126.902 21.734C126.938 21.71 126.974 21.698 127.01 21.698C127.054 21.698 127.09 21.71 127.118 21.734C127.146 21.754 127.176 21.786 127.208 21.83L127.652 22.55C127.436 22.73 127.188 22.866 126.908 22.958C126.628 23.05 126.338 23.096 126.038 23.096ZM134.093 16.748C134.549 16.748 134.963 16.822 135.335 16.97C135.711 17.118 136.031 17.328 136.295 17.6C136.563 17.872 136.769 18.204 136.913 18.596C137.057 18.988 137.129 19.426 137.129 19.91C137.129 20.398 137.057 20.838 136.913 21.23C136.769 21.622 136.563 21.956 136.295 22.232C136.031 22.508 135.711 22.72 135.335 22.868C134.963 23.016 134.549 23.09 134.093 23.09C133.633 23.09 133.215 23.016 132.839 22.868C132.463 22.72 132.141 22.508 131.873 22.232C131.609 21.956 131.403 21.622 131.255 21.23C131.111 20.838 131.039 20.398 131.039 19.91C131.039 19.426 131.111 18.988 131.255 18.596C131.403 18.204 131.609 17.872 131.873 17.6C132.141 17.328 132.463 17.118 132.839 16.97C133.215 16.822 133.633 16.748 134.093 16.748ZM134.093 21.95C134.605 21.95 134.983 21.778 135.227 21.434C135.475 21.09 135.599 20.586 135.599 19.922C135.599 19.258 135.475 18.752 135.227 18.404C134.983 18.056 134.605 17.882 134.093 17.882C133.573 17.882 133.187 18.058 132.935 18.41C132.687 18.758 132.563 19.262 132.563 19.922C132.563 20.582 132.687 21.086 132.935 21.434C133.187 21.778 133.573 21.95 134.093 21.95ZM138.539 23V17.96L138.005 17.876C137.889 17.852 137.795 17.812 137.723 17.756C137.655 17.696 137.621 17.612 137.621 17.504V16.898H138.539V16.442C138.539 16.09 138.591 15.774 138.695 15.494C138.803 15.214 138.955 14.976 139.151 14.78C139.351 14.584 139.593 14.434 139.877 14.33C140.161 14.226 140.481 14.174 140.837 14.174C141.121 14.174 141.385 14.212 141.629 14.288L141.599 15.032C141.595 15.088 141.579 15.134 141.551 15.17C141.523 15.202 141.485 15.228 141.437 15.248C141.393 15.264 141.341 15.276 141.281 15.284C141.221 15.288 141.157 15.29 141.089 15.29C140.913 15.29 140.755 15.31 140.615 15.35C140.479 15.386 140.363 15.452 140.267 15.548C140.171 15.64 140.097 15.764 140.045 15.92C139.997 16.072 139.973 16.262 139.973 16.49V16.898H141.575V17.954H140.021V23H138.539ZM150.257 21.62C150.417 21.62 150.543 21.666 150.635 21.758C150.731 21.846 150.779 21.964 150.779 22.112V23H144.827V22.508C144.827 22.408 144.847 22.304 144.887 22.196C144.931 22.084 144.999 21.984 145.091 21.896L147.725 19.256C147.945 19.032 148.141 18.818 148.313 18.614C148.489 18.41 148.635 18.208 148.751 18.008C148.867 17.808 148.955 17.606 149.015 17.402C149.079 17.194 149.111 16.976 149.111 16.748C149.111 16.54 149.081 16.358 149.021 16.202C148.961 16.042 148.875 15.908 148.763 15.8C148.655 15.692 148.523 15.612 148.367 15.56C148.215 15.504 148.043 15.476 147.851 15.476C147.675 15.476 147.511 15.502 147.359 15.554C147.211 15.602 147.079 15.672 146.963 15.764C146.847 15.852 146.749 15.956 146.669 16.076C146.589 16.196 146.529 16.328 146.489 16.472C146.421 16.656 146.333 16.778 146.225 16.838C146.117 16.898 145.961 16.912 145.757 16.88L144.977 16.742C145.037 16.326 145.153 15.962 145.325 15.65C145.497 15.334 145.711 15.072 145.967 14.864C146.227 14.652 146.523 14.494 146.855 14.39C147.191 14.282 147.551 14.228 147.935 14.228C148.335 14.228 148.701 14.288 149.033 14.408C149.365 14.524 149.649 14.69 149.885 14.906C150.121 15.122 150.305 15.382 150.437 15.686C150.569 15.99 150.635 16.328 150.635 16.7C150.635 17.02 150.587 17.316 150.491 17.588C150.399 17.86 150.273 18.12 150.113 18.368C149.957 18.616 149.773 18.856 149.561 19.088C149.349 19.32 149.127 19.556 148.895 19.796L146.939 21.794C147.127 21.738 147.313 21.696 147.497 21.668C147.685 21.636 147.863 21.62 148.031 21.62H150.257ZM157.218 21.62C157.378 21.62 157.504 21.666 157.596 21.758C157.692 21.846 157.74 21.964 157.74 22.112V23H151.788V22.508C151.788 22.408 151.808 22.304 151.848 22.196C151.892 22.084 151.96 21.984 152.052 21.896L154.686 19.256C154.906 19.032 155.102 18.818 155.274 18.614C155.45 18.41 155.596 18.208 155.712 18.008C155.828 17.808 155.916 17.606 155.976 17.402C156.04 17.194 156.072 16.976 156.072 16.748C156.072 16.54 156.042 16.358 155.982 16.202C155.922 16.042 155.836 15.908 155.724 15.8C155.616 15.692 155.484 15.612 155.328 15.56C155.176 15.504 155.004 15.476 154.812 15.476C154.636 15.476 154.472 15.502 154.32 15.554C154.172 15.602 154.04 15.672 153.924 15.764C153.808 15.852 153.71 15.956 153.63 16.076C153.55 16.196 153.49 16.328 153.45 16.472C153.382 16.656 153.294 16.778 153.186 16.838C153.078 16.898 152.922 16.912 152.718 16.88L151.938 16.742C151.998 16.326 152.114 15.962 152.286 15.65C152.458 15.334 152.672 15.072 152.928 14.864C153.188 14.652 153.484 14.494 153.816 14.39C154.152 14.282 154.512 14.228 154.896 14.228C155.296 14.228 155.662 14.288 155.994 14.408C156.326 14.524 156.61 14.69 156.846 14.906C157.082 15.122 157.266 15.382 157.398 15.686C157.53 15.99 157.596 16.328 157.596 16.7C157.596 17.02 157.548 17.316 157.452 17.588C157.36 17.86 157.234 18.12 157.074 18.368C156.918 18.616 156.734 18.856 156.522 19.088C156.31 19.32 156.088 19.556 155.856 19.796L153.9 21.794C154.088 21.738 154.274 21.696 154.458 21.668C154.646 21.636 154.824 21.62 154.992 21.62H157.218ZM163.341 17.912C163.533 17.544 163.761 17.256 164.025 17.048C164.289 16.836 164.601 16.73 164.961 16.73C165.245 16.73 165.473 16.792 165.645 16.916L165.549 18.026C165.529 18.098 165.499 18.15 165.459 18.182C165.423 18.21 165.373 18.224 165.309 18.224C165.249 18.224 165.159 18.214 165.039 18.194C164.923 18.174 164.809 18.164 164.697 18.164C164.533 18.164 164.387 18.188 164.259 18.236C164.131 18.284 164.015 18.354 163.911 18.446C163.811 18.534 163.721 18.642 163.641 18.77C163.565 18.898 163.493 19.044 163.425 19.208V23H161.943V16.844H162.813C162.965 16.844 163.071 16.872 163.131 16.928C163.191 16.98 163.231 17.076 163.251 17.216L163.341 17.912ZM169.589 20.372C169.161 20.392 168.801 20.43 168.509 20.486C168.217 20.538 167.983 20.606 167.807 20.69C167.631 20.774 167.505 20.872 167.429 20.984C167.353 21.096 167.315 21.218 167.315 21.35C167.315 21.61 167.391 21.796 167.543 21.908C167.699 22.02 167.901 22.076 168.149 22.076C168.453 22.076 168.715 22.022 168.935 21.914C169.159 21.802 169.377 21.634 169.589 21.41V20.372ZM166.193 17.702C166.901 17.054 167.753 16.73 168.749 16.73C169.109 16.73 169.431 16.79 169.715 16.91C169.999 17.026 170.239 17.19 170.435 17.402C170.631 17.61 170.779 17.86 170.879 18.152C170.983 18.444 171.035 18.764 171.035 19.112V23H170.363C170.223 23 170.115 22.98 170.039 22.94C169.963 22.896 169.903 22.81 169.859 22.682L169.727 22.238C169.571 22.378 169.419 22.502 169.271 22.61C169.123 22.714 168.969 22.802 168.809 22.874C168.649 22.946 168.477 23 168.293 23.036C168.113 23.076 167.913 23.096 167.693 23.096C167.433 23.096 167.193 23.062 166.973 22.994C166.753 22.922 166.563 22.816 166.403 22.676C166.243 22.536 166.119 22.362 166.031 22.154C165.943 21.946 165.899 21.704 165.899 21.428C165.899 21.272 165.925 21.118 165.977 20.966C166.029 20.81 166.113 20.662 166.229 20.522C166.349 20.382 166.503 20.25 166.691 20.126C166.879 20.002 167.109 19.894 167.381 19.802C167.657 19.71 167.977 19.636 168.341 19.58C168.705 19.52 169.121 19.484 169.589 19.472V19.112C169.589 18.7 169.501 18.396 169.325 18.2C169.149 18 168.895 17.9 168.563 17.9C168.323 17.9 168.123 17.928 167.963 17.984C167.807 18.04 167.669 18.104 167.549 18.176C167.429 18.244 167.319 18.306 167.219 18.362C167.123 18.418 167.015 18.446 166.895 18.446C166.791 18.446 166.703 18.42 166.631 18.368C166.559 18.312 166.501 18.248 166.457 18.176L166.193 17.702ZM176.841 18.146C176.797 18.202 176.753 18.246 176.709 18.278C176.669 18.31 176.609 18.326 176.529 18.326C176.453 18.326 176.379 18.304 176.307 18.26C176.235 18.212 176.149 18.16 176.049 18.104C175.949 18.044 175.829 17.992 175.689 17.948C175.553 17.9 175.383 17.876 175.179 17.876C174.919 17.876 174.691 17.924 174.495 18.02C174.299 18.112 174.135 18.246 174.003 18.422C173.875 18.598 173.779 18.812 173.715 19.064C173.651 19.312 173.619 19.594 173.619 19.91C173.619 20.238 173.653 20.53 173.721 20.786C173.793 21.042 173.895 21.258 174.027 21.434C174.159 21.606 174.319 21.738 174.507 21.83C174.695 21.918 174.907 21.962 175.143 21.962C175.379 21.962 175.569 21.934 175.713 21.878C175.861 21.818 175.985 21.754 176.085 21.686C176.185 21.614 176.271 21.55 176.343 21.494C176.419 21.434 176.503 21.404 176.595 21.404C176.715 21.404 176.805 21.45 176.865 21.542L177.291 22.082C177.127 22.274 176.949 22.436 176.757 22.568C176.565 22.696 176.365 22.8 176.157 22.88C175.953 22.956 175.741 23.01 175.521 23.042C175.305 23.074 175.089 23.09 174.873 23.09C174.493 23.09 174.135 23.02 173.799 22.88C173.463 22.736 173.169 22.528 172.917 22.256C172.665 21.984 172.465 21.652 172.317 21.26C172.173 20.864 172.101 20.414 172.101 19.91C172.101 19.458 172.165 19.04 172.293 18.656C172.425 18.268 172.617 17.934 172.869 17.654C173.121 17.37 173.433 17.148 173.805 16.988C174.177 16.828 174.605 16.748 175.089 16.748C175.549 16.748 175.951 16.822 176.295 16.97C176.643 17.118 176.955 17.33 177.231 17.606L176.841 18.146ZM182.081 19.214C182.081 19.022 182.053 18.842 181.997 18.674C181.945 18.502 181.865 18.352 181.757 18.224C181.649 18.096 181.511 17.996 181.343 17.924C181.179 17.848 180.987 17.81 180.767 17.81C180.339 17.81 180.001 17.932 179.753 18.176C179.509 18.42 179.353 18.766 179.285 19.214H182.081ZM179.255 20.108C179.279 20.424 179.335 20.698 179.423 20.93C179.511 21.158 179.627 21.348 179.771 21.5C179.915 21.648 180.085 21.76 180.281 21.836C180.481 21.908 180.701 21.944 180.941 21.944C181.181 21.944 181.387 21.916 181.559 21.86C181.735 21.804 181.887 21.742 182.015 21.674C182.147 21.606 182.261 21.544 182.357 21.488C182.457 21.432 182.553 21.404 182.645 21.404C182.769 21.404 182.861 21.45 182.921 21.542L183.347 22.082C183.183 22.274 182.999 22.436 182.795 22.568C182.591 22.696 182.377 22.8 182.153 22.88C181.933 22.956 181.707 23.01 181.475 23.042C181.247 23.074 181.025 23.09 180.809 23.09C180.381 23.09 179.983 23.02 179.615 22.88C179.247 22.736 178.927 22.526 178.655 22.25C178.383 21.97 178.169 21.626 178.013 21.218C177.857 20.806 177.779 20.33 177.779 19.79C177.779 19.37 177.847 18.976 177.983 18.608C178.119 18.236 178.313 17.914 178.565 17.642C178.821 17.366 179.131 17.148 179.495 16.988C179.863 16.828 180.277 16.748 180.737 16.748C181.125 16.748 181.483 16.81 181.811 16.934C182.139 17.058 182.421 17.24 182.657 17.48C182.893 17.716 183.077 18.008 183.209 18.356C183.345 18.7 183.413 19.094 183.413 19.538C183.413 19.762 183.389 19.914 183.341 19.994C183.293 20.07 183.201 20.108 183.065 20.108H179.255ZM188.281 18.044C188.241 18.108 188.199 18.154 188.155 18.182C188.111 18.206 188.055 18.218 187.987 18.218C187.915 18.218 187.837 18.198 187.753 18.158C187.673 18.118 187.579 18.074 187.471 18.026C187.363 17.974 187.239 17.928 187.099 17.888C186.963 17.848 186.801 17.828 186.613 17.828C186.321 17.828 186.091 17.89 185.923 18.014C185.759 18.138 185.677 18.3 185.677 18.5C185.677 18.632 185.719 18.744 185.803 18.836C185.891 18.924 186.005 19.002 186.145 19.07C186.289 19.138 186.451 19.2 186.631 19.256C186.811 19.308 186.993 19.366 187.177 19.43C187.365 19.494 187.549 19.568 187.729 19.652C187.909 19.732 188.069 19.836 188.209 19.964C188.353 20.088 188.467 20.238 188.551 20.414C188.639 20.59 188.683 20.802 188.683 21.05C188.683 21.346 188.629 21.62 188.521 21.872C188.417 22.12 188.261 22.336 188.053 22.52C187.845 22.7 187.587 22.842 187.279 22.946C186.975 23.046 186.623 23.096 186.223 23.096C186.011 23.096 185.803 23.076 185.599 23.036C185.399 23 185.205 22.948 185.017 22.88C184.833 22.812 184.661 22.732 184.501 22.64C184.345 22.548 184.207 22.448 184.087 22.34L184.429 21.776C184.473 21.708 184.525 21.656 184.585 21.62C184.645 21.584 184.721 21.566 184.813 21.566C184.905 21.566 184.991 21.592 185.071 21.644C185.155 21.696 185.251 21.752 185.359 21.812C185.467 21.872 185.593 21.928 185.737 21.98C185.885 22.032 186.071 22.058 186.295 22.058C186.471 22.058 186.621 22.038 186.745 21.998C186.873 21.954 186.977 21.898 187.057 21.83C187.141 21.762 187.201 21.684 187.237 21.596C187.277 21.504 187.297 21.41 187.297 21.314C187.297 21.17 187.253 21.052 187.165 20.96C187.081 20.868 186.967 20.788 186.823 20.72C186.683 20.652 186.521 20.592 186.337 20.54C186.157 20.484 185.971 20.424 185.779 20.36C185.591 20.296 185.405 20.222 185.221 20.138C185.041 20.05 184.879 19.94 184.735 19.808C184.595 19.676 184.481 19.514 184.393 19.322C184.309 19.13 184.267 18.898 184.267 18.626C184.267 18.374 184.317 18.134 184.417 17.906C184.517 17.678 184.663 17.48 184.855 17.312C185.051 17.14 185.293 17.004 185.581 16.904C185.873 16.8 186.209 16.748 186.589 16.748C187.013 16.748 187.399 16.818 187.747 16.958C188.095 17.098 188.385 17.282 188.617 17.51L188.281 18.044ZM194.252 16.844V23H192.764V16.844H194.252ZM194.456 15.05C194.456 15.178 194.43 15.298 194.378 15.41C194.326 15.522 194.256 15.62 194.168 15.704C194.084 15.788 193.984 15.856 193.868 15.908C193.752 15.956 193.628 15.98 193.496 15.98C193.368 15.98 193.246 15.956 193.13 15.908C193.018 15.856 192.92 15.788 192.836 15.704C192.752 15.62 192.684 15.522 192.632 15.41C192.584 15.298 192.56 15.178 192.56 15.05C192.56 14.918 192.584 14.794 192.632 14.678C192.684 14.562 192.752 14.462 192.836 14.378C192.92 14.294 193.018 14.228 193.13 14.18C193.246 14.128 193.368 14.102 193.496 14.102C193.628 14.102 193.752 14.128 193.868 14.18C193.984 14.228 194.084 14.294 194.168 14.378C194.256 14.462 194.326 14.562 194.378 14.678C194.43 14.794 194.456 14.918 194.456 15.05ZM197.149 17.6C197.273 17.476 197.403 17.362 197.539 17.258C197.679 17.15 197.825 17.06 197.977 16.988C198.133 16.912 198.299 16.854 198.475 16.814C198.651 16.77 198.843 16.748 199.051 16.748C199.387 16.748 199.685 16.806 199.945 16.922C200.205 17.034 200.421 17.194 200.593 17.402C200.769 17.606 200.901 17.852 200.989 18.14C201.081 18.424 201.127 18.738 201.127 19.082V23H199.645V19.082C199.645 18.706 199.559 18.416 199.387 18.212C199.215 18.004 198.953 17.9 198.601 17.9C198.345 17.9 198.105 17.958 197.881 18.074C197.657 18.19 197.445 18.348 197.245 18.548V23H195.763V16.844H196.669C196.861 16.844 196.987 16.934 197.047 17.114L197.149 17.6ZM25.886 35.62C26.046 35.62 26.172 35.666 26.264 35.758C26.36 35.846 26.408 35.964 26.408 36.112V37H20.456V36.508C20.456 36.408 20.476 36.304 20.516 36.196C20.56 36.084 20.628 35.984 20.72 35.896L23.354 33.256C23.574 33.032 23.77 32.818 23.942 32.614C24.118 32.41 24.264 32.208 24.38 32.008C24.496 31.808 24.584 31.606 24.644 31.402C24.708 31.194 24.74 30.976 24.74 30.748C24.74 30.54 24.71 30.358 24.65 30.202C24.59 30.042 24.504 29.908 24.392 29.8C24.284 29.692 24.152 29.612 23.996 29.56C23.844 29.504 23.672 29.476 23.48 29.476C23.304 29.476 23.14 29.502 22.988 29.554C22.84 29.602 22.708 29.672 22.592 29.764C22.476 29.852 22.378 29.956 22.298 30.076C22.218 30.196 22.158 30.328 22.118 30.472C22.05 30.656 21.962 30.778 21.854 30.838C21.746 30.898 21.59 30.912 21.386 30.88L20.606 30.742C20.666 30.326 20.782 29.962 20.954 29.65C21.126 29.334 21.34 29.072 21.596 28.864C21.856 28.652 22.152 28.494 22.484 28.39C22.82 28.282 23.18 28.228 23.564 28.228C23.964 28.228 24.33 28.288 24.662 28.408C24.994 28.524 25.278 28.69 25.514 28.906C25.75 29.122 25.934 29.382 26.066 29.686C26.198 29.99 26.264 30.328 26.264 30.7C26.264 31.02 26.216 31.316 26.12 31.588C26.028 31.86 25.902 32.12 25.742 32.368C25.586 32.616 25.402 32.856 25.19 33.088C24.978 33.32 24.756 33.556 24.524 33.796L22.568 35.794C22.756 35.738 22.942 35.696 23.126 35.668C23.314 35.636 23.492 35.62 23.66 35.62H25.886ZM33.6209 32.662C33.6209 33.418 33.5389 34.076 33.3749 34.636C33.2149 35.192 32.9909 35.652 32.7029 36.016C32.4189 36.38 32.0809 36.652 31.6889 36.832C31.3009 37.008 30.8809 37.096 30.4289 37.096C29.9769 37.096 29.5569 37.008 29.1689 36.832C28.7849 36.652 28.4509 36.38 28.1669 36.016C27.8829 35.652 27.6609 35.192 27.5009 34.636C27.3409 34.076 27.2609 33.418 27.2609 32.662C27.2609 31.902 27.3409 31.244 27.5009 30.688C27.6609 30.132 27.8829 29.672 28.1669 29.308C28.4509 28.944 28.7849 28.674 29.1689 28.498C29.5569 28.318 29.9769 28.228 30.4289 28.228C30.8809 28.228 31.3009 28.318 31.6889 28.498C32.0809 28.674 32.4189 28.944 32.7029 29.308C32.9909 29.672 33.2149 30.132 33.3749 30.688C33.5389 31.244 33.6209 31.902 33.6209 32.662ZM32.0909 32.662C32.0909 32.034 32.0449 31.514 31.9529 31.102C31.8609 30.69 31.7369 30.362 31.5809 30.118C31.4289 29.874 31.2529 29.704 31.0529 29.608C30.8529 29.508 30.6449 29.458 30.4289 29.458C30.2169 29.458 30.0109 29.508 29.8109 29.608C29.6149 29.704 29.4409 29.874 29.2889 30.118C29.1369 30.362 29.0149 30.69 28.9229 31.102C28.8349 31.514 28.7909 32.034 28.7909 32.662C28.7909 33.29 28.8349 33.81 28.9229 34.222C29.0149 34.634 29.1369 34.962 29.2889 35.206C29.4409 35.45 29.6149 35.622 29.8109 35.722C30.0109 35.818 30.2169 35.866 30.4289 35.866C30.6449 35.866 30.8529 35.818 31.0529 35.722C31.2529 35.622 31.4289 35.45 31.5809 35.206C31.7369 34.962 31.8609 34.634 31.9529 34.222C32.0449 33.81 32.0909 33.29 32.0909 32.662ZM39.8079 35.62C39.9679 35.62 40.0939 35.666 40.1859 35.758C40.2819 35.846 40.3299 35.964 40.3299 36.112V37H34.3779V36.508C34.3779 36.408 34.3979 36.304 34.4379 36.196C34.4819 36.084 34.5499 35.984 34.6419 35.896L37.2759 33.256C37.4959 33.032 37.6919 32.818 37.8639 32.614C38.0399 32.41 38.1859 32.208 38.3019 32.008C38.4179 31.808 38.5059 31.606 38.5659 31.402C38.6299 31.194 38.6619 30.976 38.6619 30.748C38.6619 30.54 38.6319 30.358 38.5719 30.202C38.5119 30.042 38.4259 29.908 38.3139 29.8C38.2059 29.692 38.0739 29.612 37.9179 29.56C37.7659 29.504 37.5939 29.476 37.4019 29.476C37.2259 29.476 37.0619 29.502 36.9099 29.554C36.7619 29.602 36.6299 29.672 36.5139 29.764C36.3979 29.852 36.2999 29.956 36.2199 30.076C36.1399 30.196 36.0799 30.328 36.0399 30.472C35.9719 30.656 35.8839 30.778 35.7759 30.838C35.6679 30.898 35.5119 30.912 35.3079 30.88L34.5279 30.742C34.5879 30.326 34.7039 29.962 34.8759 29.65C35.0479 29.334 35.2619 29.072 35.5179 28.864C35.7779 28.652 36.0739 28.494 36.4059 28.39C36.7419 28.282 37.1019 28.228 37.4859 28.228C37.8859 28.228 38.2519 28.288 38.5839 28.408C38.9159 28.524 39.1999 28.69 39.4359 28.906C39.6719 29.122 39.8559 29.382 39.9879 29.686C40.1199 29.99 40.1859 30.328 40.1859 30.7C40.1859 31.02 40.1379 31.316 40.0419 31.588C39.9499 31.86 39.8239 32.12 39.6639 32.368C39.5079 32.616 39.3239 32.856 39.1119 33.088C38.8999 33.32 38.6779 33.556 38.4459 33.796L36.4899 35.794C36.6779 35.738 36.8639 35.696 37.0479 35.668C37.2359 35.636 37.4139 35.62 37.5819 35.62H39.8079ZM41.5308 30.742C41.5908 30.326 41.7068 29.962 41.8788 29.65C42.0508 29.334 42.2648 29.072 42.5208 28.864C42.7808 28.652 43.0768 28.494 43.4088 28.39C43.7448 28.282 44.1048 28.228 44.4888 28.228C44.8888 28.228 45.2488 28.286 45.5688 28.402C45.8928 28.514 46.1688 28.672 46.3968 28.876C46.6248 29.076 46.7988 29.312 46.9188 29.584C47.0428 29.856 47.1048 30.15 47.1048 30.466C47.1048 30.742 47.0728 30.986 47.0088 31.198C46.9488 31.406 46.8608 31.588 46.7448 31.744C46.6288 31.9 46.4848 32.032 46.3128 32.14C46.1408 32.248 45.9468 32.338 45.7308 32.41C46.2508 32.574 46.6388 32.824 46.8948 33.16C47.1508 33.496 47.2788 33.918 47.2788 34.426C47.2788 34.858 47.1988 35.24 47.0388 35.572C46.8788 35.904 46.6628 36.184 46.3908 36.412C46.1188 36.636 45.8028 36.806 45.4428 36.922C45.0868 37.038 44.7088 37.096 44.3088 37.096C43.8728 37.096 43.4928 37.046 43.1688 36.946C42.8448 36.846 42.5628 36.698 42.3228 36.502C42.0828 36.306 41.8788 36.066 41.7108 35.782C41.5428 35.498 41.3988 35.17 41.2788 34.798L41.9328 34.528C42.1048 34.456 42.2648 34.438 42.4128 34.474C42.5648 34.506 42.6748 34.586 42.7428 34.714C42.8148 34.854 42.8928 34.992 42.9768 35.128C43.0648 35.264 43.1688 35.386 43.2888 35.494C43.4088 35.598 43.5488 35.684 43.7088 35.752C43.8728 35.816 44.0668 35.848 44.2908 35.848C44.5428 35.848 44.7628 35.808 44.9508 35.728C45.1388 35.644 45.2948 35.536 45.4188 35.404C45.5468 35.272 45.6408 35.126 45.7008 34.966C45.7648 34.802 45.7968 34.638 45.7968 34.474C45.7968 34.266 45.7748 34.078 45.7308 33.91C45.6868 33.738 45.5948 33.592 45.4548 33.472C45.3148 33.352 45.1128 33.258 44.8488 33.19C44.5888 33.122 44.2388 33.088 43.7988 33.088V32.032C44.1628 32.028 44.4648 31.994 44.7048 31.93C44.9448 31.866 45.1348 31.778 45.2748 31.666C45.4188 31.55 45.5188 31.412 45.5748 31.252C45.6308 31.092 45.6588 30.916 45.6588 30.724C45.6588 30.316 45.5448 30.006 45.3168 29.794C45.0888 29.582 44.7848 29.476 44.4048 29.476C44.2288 29.476 44.0668 29.502 43.9188 29.554C43.7708 29.602 43.6368 29.672 43.5168 29.764C43.4008 29.852 43.3028 29.956 43.2228 30.076C43.1428 30.196 43.0828 30.328 43.0428 30.472C42.9748 30.656 42.8848 30.778 42.7728 30.838C42.6648 30.898 42.5108 30.912 42.3108 30.88L41.5308 30.742ZM48.5518 38.47C48.4798 38.41 48.4438 38.336 48.4438 38.248C48.4438 38.216 48.4538 38.18 48.4738 38.14C48.4978 38.1 48.5258 38.064 48.5578 38.032C48.6018 37.984 48.6558 37.924 48.7198 37.852C48.7838 37.784 48.8478 37.704 48.9118 37.612C48.9758 37.524 49.0338 37.426 49.0858 37.318C49.1418 37.214 49.1838 37.102 49.2118 36.982C49.0838 36.982 48.9678 36.96 48.8638 36.916C48.7598 36.868 48.6698 36.804 48.5938 36.724C48.5218 36.644 48.4638 36.55 48.4198 36.442C48.3798 36.334 48.3598 36.216 48.3598 36.088C48.3598 35.976 48.3798 35.872 48.4198 35.776C48.4638 35.676 48.5238 35.59 48.5998 35.518C48.6758 35.442 48.7678 35.384 48.8758 35.344C48.9838 35.3 49.1018 35.278 49.2298 35.278C49.3818 35.278 49.5138 35.306 49.6258 35.362C49.7418 35.414 49.8358 35.488 49.9078 35.584C49.9838 35.676 50.0398 35.784 50.0758 35.908C50.1158 36.028 50.1358 36.156 50.1358 36.292C50.1358 36.484 50.1058 36.686 50.0458 36.898C49.9898 37.11 49.9058 37.322 49.7938 37.534C49.6818 37.746 49.5418 37.952 49.3738 38.152C49.2098 38.352 49.0218 38.536 48.8098 38.704L48.5518 38.47ZM57.5582 34.372C57.1302 34.392 56.7702 34.43 56.4782 34.486C56.1862 34.538 55.9522 34.606 55.7762 34.69C55.6002 34.774 55.4742 34.872 55.3982 34.984C55.3222 35.096 55.2842 35.218 55.2842 35.35C55.2842 35.61 55.3602 35.796 55.5122 35.908C55.6682 36.02 55.8702 36.076 56.1182 36.076C56.4222 36.076 56.6842 36.022 56.9042 35.914C57.1282 35.802 57.3462 35.634 57.5582 35.41V34.372ZM54.1622 31.702C54.8702 31.054 55.7222 30.73 56.7182 30.73C57.0782 30.73 57.4002 30.79 57.6842 30.91C57.9682 31.026 58.2082 31.19 58.4042 31.402C58.6002 31.61 58.7482 31.86 58.8482 32.152C58.9522 32.444 59.0042 32.764 59.0042 33.112V37H58.3322C58.1922 37 58.0842 36.98 58.0082 36.94C57.9322 36.896 57.8722 36.81 57.8282 36.682L57.6962 36.238C57.5402 36.378 57.3882 36.502 57.2402 36.61C57.0922 36.714 56.9382 36.802 56.7782 36.874C56.6182 36.946 56.4462 37 56.2622 37.036C56.0822 37.076 55.8822 37.096 55.6622 37.096C55.4022 37.096 55.1622 37.062 54.9422 36.994C54.7222 36.922 54.5322 36.816 54.3722 36.676C54.2122 36.536 54.0882 36.362 54.0002 36.154C53.9122 35.946 53.8682 35.704 53.8682 35.428C53.8682 35.272 53.8942 35.118 53.9462 34.966C53.9982 34.81 54.0822 34.662 54.1982 34.522C54.3182 34.382 54.4722 34.25 54.6602 34.126C54.8482 34.002 55.0782 33.894 55.3502 33.802C55.6262 33.71 55.9462 33.636 56.3102 33.58C56.6742 33.52 57.0902 33.484 57.5582 33.472V33.112C57.5582 32.7 57.4702 32.396 57.2942 32.2C57.1182 32 56.8642 31.9 56.5322 31.9C56.2922 31.9 56.0922 31.928 55.9322 31.984C55.7762 32.04 55.6382 32.104 55.5182 32.176C55.3982 32.244 55.2882 32.306 55.1882 32.362C55.0922 32.418 54.9842 32.446 54.8642 32.446C54.7602 32.446 54.6722 32.42 54.6002 32.368C54.5282 32.312 54.4702 32.248 54.4262 32.176L54.1622 31.702ZM61.786 31.6C61.91 31.476 62.04 31.362 62.176 31.258C62.316 31.15 62.462 31.06 62.614 30.988C62.77 30.912 62.936 30.854 63.112 30.814C63.288 30.77 63.48 30.748 63.688 30.748C64.024 30.748 64.322 30.806 64.582 30.922C64.842 31.034 65.058 31.194 65.23 31.402C65.406 31.606 65.538 31.852 65.626 32.14C65.718 32.424 65.764 32.738 65.764 33.082V37H64.282V33.082C64.282 32.706 64.196 32.416 64.024 32.212C63.852 32.004 63.59 31.9 63.238 31.9C62.982 31.9 62.742 31.958 62.518 32.074C62.294 32.19 62.082 32.348 61.882 32.548V37H60.4V30.844H61.306C61.498 30.844 61.624 30.934 61.684 31.114L61.786 31.6ZM71.0374 32.416C70.8694 32.212 70.6854 32.068 70.4854 31.984C70.2894 31.9 70.0774 31.858 69.8494 31.858C69.6254 31.858 69.4234 31.9 69.2434 31.984C69.0634 32.068 68.9094 32.196 68.7814 32.368C68.6534 32.536 68.5554 32.752 68.4874 33.016C68.4194 33.276 68.3854 33.584 68.3854 33.94C68.3854 34.3 68.4134 34.606 68.4694 34.858C68.5294 35.106 68.6134 35.31 68.7214 35.47C68.8294 35.626 68.9614 35.74 69.1174 35.812C69.2734 35.88 69.4474 35.914 69.6394 35.914C69.9474 35.914 70.2094 35.85 70.4254 35.722C70.6414 35.594 70.8454 35.412 71.0374 35.176V32.416ZM72.5194 28.084V37H71.6134C71.4174 37 71.2934 36.91 71.2414 36.73L71.1154 36.136C70.8674 36.42 70.5814 36.65 70.2574 36.826C69.9374 37.002 69.5634 37.09 69.1354 37.09C68.7994 37.09 68.4914 37.02 68.2114 36.88C67.9314 36.74 67.6894 36.538 67.4854 36.274C67.2854 36.006 67.1294 35.676 67.0174 35.284C66.9094 34.892 66.8554 34.444 66.8554 33.94C66.8554 33.484 66.9174 33.06 67.0414 32.668C67.1654 32.276 67.3434 31.936 67.5754 31.648C67.8074 31.36 68.0854 31.136 68.4094 30.976C68.7334 30.812 69.0974 30.73 69.5014 30.73C69.8454 30.73 70.1394 30.784 70.3834 30.892C70.6274 31 70.8454 31.146 71.0374 31.33V28.084H72.5194ZM78.436 30.844V37H76.948V30.844H78.436ZM78.64 29.05C78.64 29.178 78.614 29.298 78.562 29.41C78.51 29.522 78.44 29.62 78.352 29.704C78.268 29.788 78.168 29.856 78.052 29.908C77.936 29.956 77.812 29.98 77.68 29.98C77.552 29.98 77.43 29.956 77.314 29.908C77.202 29.856 77.104 29.788 77.02 29.704C76.936 29.62 76.868 29.522 76.816 29.41C76.768 29.298 76.744 29.178 76.744 29.05C76.744 28.918 76.768 28.794 76.816 28.678C76.868 28.562 76.936 28.462 77.02 28.378C77.104 28.294 77.202 28.228 77.314 28.18C77.43 28.128 77.552 28.102 77.68 28.102C77.812 28.102 77.936 28.128 78.052 28.18C78.168 28.228 78.268 28.294 78.352 28.378C78.44 28.462 78.51 28.562 78.562 28.678C78.614 28.794 78.64 28.918 78.64 29.05ZM83.7028 32.044C83.6628 32.108 83.6208 32.154 83.5768 32.182C83.5328 32.206 83.4768 32.218 83.4088 32.218C83.3368 32.218 83.2588 32.198 83.1748 32.158C83.0948 32.118 83.0008 32.074 82.8928 32.026C82.7848 31.974 82.6608 31.928 82.5208 31.888C82.3848 31.848 82.2228 31.828 82.0348 31.828C81.7428 31.828 81.5128 31.89 81.3448 32.014C81.1808 32.138 81.0988 32.3 81.0988 32.5C81.0988 32.632 81.1408 32.744 81.2248 32.836C81.3128 32.924 81.4268 33.002 81.5668 33.07C81.7108 33.138 81.8728 33.2 82.0528 33.256C82.2328 33.308 82.4148 33.366 82.5988 33.43C82.7868 33.494 82.9708 33.568 83.1508 33.652C83.3308 33.732 83.4908 33.836 83.6308 33.964C83.7748 34.088 83.8888 34.238 83.9728 34.414C84.0608 34.59 84.1048 34.802 84.1048 35.05C84.1048 35.346 84.0508 35.62 83.9428 35.872C83.8388 36.12 83.6828 36.336 83.4748 36.52C83.2668 36.7 83.0088 36.842 82.7008 36.946C82.3968 37.046 82.0448 37.096 81.6448 37.096C81.4328 37.096 81.2248 37.076 81.0208 37.036C80.8208 37 80.6268 36.948 80.4388 36.88C80.2548 36.812 80.0828 36.732 79.9228 36.64C79.7668 36.548 79.6288 36.448 79.5088 36.34L79.8508 35.776C79.8948 35.708 79.9468 35.656 80.0068 35.62C80.0668 35.584 80.1428 35.566 80.2348 35.566C80.3268 35.566 80.4128 35.592 80.4928 35.644C80.5768 35.696 80.6728 35.752 80.7808 35.812C80.8888 35.872 81.0148 35.928 81.1588 35.98C81.3068 36.032 81.4928 36.058 81.7168 36.058C81.8928 36.058 82.0428 36.038 82.1668 35.998C82.2948 35.954 82.3988 35.898 82.4788 35.83C82.5628 35.762 82.6228 35.684 82.6588 35.596C82.6988 35.504 82.7188 35.41 82.7188 35.314C82.7188 35.17 82.6748 35.052 82.5868 34.96C82.5028 34.868 82.3888 34.788 82.2448 34.72C82.1048 34.652 81.9428 34.592 81.7588 34.54C81.5788 34.484 81.3928 34.424 81.2008 34.36C81.0128 34.296 80.8268 34.222 80.6428 34.138C80.4628 34.05 80.3008 33.94 80.1568 33.808C80.0168 33.676 79.9028 33.514 79.8148 33.322C79.7308 33.13 79.6888 32.898 79.6888 32.626C79.6888 32.374 79.7388 32.134 79.8388 31.906C79.9388 31.678 80.0848 31.48 80.2768 31.312C80.4728 31.14 80.7148 31.004 81.0028 30.904C81.2948 30.8 81.6308 30.748 82.0108 30.748C82.4348 30.748 82.8208 30.818 83.1688 30.958C83.5168 31.098 83.8068 31.282 84.0388 31.51L83.7028 32.044ZM89.5243 31.6C89.6483 31.476 89.7783 31.362 89.9143 31.258C90.0543 31.15 90.2003 31.06 90.3523 30.988C90.5083 30.912 90.6743 30.854 90.8503 30.814C91.0263 30.77 91.2183 30.748 91.4263 30.748C91.7623 30.748 92.0603 30.806 92.3203 30.922C92.5803 31.034 92.7963 31.194 92.9683 31.402C93.1443 31.606 93.2763 31.852 93.3643 32.14C93.4563 32.424 93.5023 32.738 93.5023 33.082V37H92.0203V33.082C92.0203 32.706 91.9343 32.416 91.7623 32.212C91.5903 32.004 91.3283 31.9 90.9763 31.9C90.7203 31.9 90.4803 31.958 90.2563 32.074C90.0323 32.19 89.8203 32.348 89.6203 32.548V37H88.1383V30.844H89.0443C89.2363 30.844 89.3623 30.934 89.4223 31.114L89.5243 31.6ZM97.6357 30.748C98.0917 30.748 98.5057 30.822 98.8777 30.97C99.2537 31.118 99.5737 31.328 99.8377 31.6C100.106 31.872 100.312 32.204 100.456 32.596C100.6 32.988 100.672 33.426 100.672 33.91C100.672 34.398 100.6 34.838 100.456 35.23C100.312 35.622 100.106 35.956 99.8377 36.232C99.5737 36.508 99.2537 36.72 98.8777 36.868C98.5057 37.016 98.0917 37.09 97.6357 37.09C97.1757 37.09 96.7577 37.016 96.3817 36.868C96.0057 36.72 95.6837 36.508 95.4157 36.232C95.1517 35.956 94.9457 35.622 94.7977 35.23C94.6537 34.838 94.5817 34.398 94.5817 33.91C94.5817 33.426 94.6537 32.988 94.7977 32.596C94.9457 32.204 95.1517 31.872 95.4157 31.6C95.6837 31.328 96.0057 31.118 96.3817 30.97C96.7577 30.822 97.1757 30.748 97.6357 30.748ZM97.6357 35.95C98.1477 35.95 98.5257 35.778 98.7697 35.434C99.0177 35.09 99.1417 34.586 99.1417 33.922C99.1417 33.258 99.0177 32.752 98.7697 32.404C98.5257 32.056 98.1477 31.882 97.6357 31.882C97.1157 31.882 96.7297 32.058 96.4777 32.41C96.2297 32.758 96.1057 33.262 96.1057 33.922C96.1057 34.582 96.2297 35.086 96.4777 35.434C96.7297 35.778 97.1157 35.95 97.6357 35.95ZM110.487 30.844L108.531 37H107.343C107.207 37 107.113 36.912 107.061 36.736L105.957 33.178C105.921 33.058 105.887 32.94 105.855 32.824C105.827 32.704 105.803 32.584 105.783 32.464C105.759 32.584 105.731 32.706 105.699 32.83C105.671 32.95 105.639 33.07 105.603 33.19L104.481 36.736C104.433 36.912 104.327 37 104.163 37H103.023L101.073 30.844H102.255C102.363 30.844 102.455 30.87 102.531 30.922C102.607 30.974 102.657 31.04 102.681 31.12L103.563 34.408C103.607 34.588 103.645 34.764 103.677 34.936C103.713 35.108 103.743 35.28 103.767 35.452C103.811 35.28 103.857 35.108 103.905 34.936C103.957 34.764 104.011 34.588 104.067 34.408L105.087 31.108C105.111 31.028 105.157 30.962 105.225 30.91C105.297 30.858 105.383 30.832 105.483 30.832H106.137C106.241 30.832 106.329 30.858 106.401 30.91C106.477 30.962 106.527 31.028 106.551 31.108L107.541 34.408C107.593 34.588 107.641 34.766 107.685 34.942C107.733 35.114 107.779 35.286 107.823 35.458C107.875 35.118 107.949 34.768 108.045 34.408L108.951 31.12C108.979 31.04 109.029 30.974 109.101 30.922C109.173 30.87 109.259 30.844 109.359 30.844H110.487ZM116.054 37.096C115.518 37.096 115.106 36.946 114.818 36.646C114.534 36.342 114.392 35.924 114.392 35.392V31.954H113.762C113.682 31.954 113.614 31.928 113.558 31.876C113.502 31.824 113.474 31.746 113.474 31.642V31.054L114.464 30.892L114.776 29.212C114.796 29.132 114.834 29.07 114.89 29.026C114.946 28.982 115.018 28.96 115.106 28.96H115.874V30.898H117.518V31.954H115.874V35.29C115.874 35.482 115.92 35.632 116.012 35.74C116.108 35.848 116.238 35.902 116.402 35.902C116.494 35.902 116.57 35.892 116.63 35.872C116.694 35.848 116.748 35.824 116.792 35.8C116.84 35.776 116.882 35.754 116.918 35.734C116.954 35.71 116.99 35.698 117.026 35.698C117.07 35.698 117.106 35.71 117.134 35.734C117.162 35.754 117.192 35.786 117.224 35.83L117.668 36.55C117.452 36.73 117.204 36.866 116.924 36.958C116.644 37.05 116.354 37.096 116.054 37.096ZM119.948 31.504C120.188 31.28 120.452 31.098 120.74 30.958C121.028 30.818 121.366 30.748 121.754 30.748C122.09 30.748 122.388 30.806 122.648 30.922C122.908 31.034 123.124 31.194 123.296 31.402C123.472 31.606 123.604 31.852 123.692 32.14C123.784 32.424 123.83 32.738 123.83 33.082V37H122.348V33.082C122.348 32.706 122.262 32.416 122.09 32.212C121.918 32.004 121.656 31.9 121.304 31.9C121.048 31.9 120.808 31.958 120.584 32.074C120.36 32.19 120.148 32.348 119.948 32.548V37H118.466V28.084H119.948V31.504ZM129.206 33.214C129.206 33.022 129.178 32.842 129.122 32.674C129.07 32.502 128.99 32.352 128.882 32.224C128.774 32.096 128.636 31.996 128.468 31.924C128.304 31.848 128.112 31.81 127.892 31.81C127.464 31.81 127.126 31.932 126.878 32.176C126.634 32.42 126.478 32.766 126.41 33.214H129.206ZM126.38 34.108C126.404 34.424 126.46 34.698 126.548 34.93C126.636 35.158 126.752 35.348 126.896 35.5C127.04 35.648 127.21 35.76 127.406 35.836C127.606 35.908 127.826 35.944 128.066 35.944C128.306 35.944 128.512 35.916 128.684 35.86C128.86 35.804 129.012 35.742 129.14 35.674C129.272 35.606 129.386 35.544 129.482 35.488C129.582 35.432 129.678 35.404 129.77 35.404C129.894 35.404 129.986 35.45 130.046 35.542L130.472 36.082C130.308 36.274 130.124 36.436 129.92 36.568C129.716 36.696 129.502 36.8 129.278 36.88C129.058 36.956 128.832 37.01 128.6 37.042C128.372 37.074 128.15 37.09 127.934 37.09C127.506 37.09 127.108 37.02 126.74 36.88C126.372 36.736 126.052 36.526 125.78 36.25C125.508 35.97 125.294 35.626 125.138 35.218C124.982 34.806 124.904 34.33 124.904 33.79C124.904 33.37 124.972 32.976 125.108 32.608C125.244 32.236 125.438 31.914 125.69 31.642C125.946 31.366 126.256 31.148 126.62 30.988C126.988 30.828 127.402 30.748 127.862 30.748C128.25 30.748 128.608 30.81 128.936 30.934C129.264 31.058 129.546 31.24 129.782 31.48C130.018 31.716 130.202 32.008 130.334 32.356C130.47 32.7 130.538 33.094 130.538 33.538C130.538 33.762 130.514 33.914 130.466 33.994C130.418 34.07 130.326 34.108 130.19 34.108H126.38ZM134.568 37V30.844H135.474C135.666 30.844 135.792 30.934 135.852 31.114L135.948 31.57C136.056 31.45 136.168 31.34 136.284 31.24C136.404 31.14 136.53 31.054 136.662 30.982C136.798 30.91 136.942 30.854 137.094 30.814C137.25 30.77 137.42 30.748 137.604 30.748C137.992 30.748 138.31 30.854 138.558 31.066C138.81 31.274 138.998 31.552 139.122 31.9C139.218 31.696 139.338 31.522 139.482 31.378C139.626 31.23 139.784 31.11 139.956 31.018C140.128 30.926 140.31 30.858 140.502 30.814C140.698 30.77 140.894 30.748 141.09 30.748C141.43 30.748 141.732 30.8 141.996 30.904C142.26 31.008 142.482 31.16 142.662 31.36C142.842 31.56 142.978 31.804 143.07 32.092C143.166 32.38 143.214 32.71 143.214 33.082V37H141.732V33.082C141.732 32.69 141.646 32.396 141.474 32.2C141.302 32 141.05 31.9 140.718 31.9C140.566 31.9 140.424 31.926 140.292 31.978C140.164 32.03 140.05 32.106 139.95 32.206C139.854 32.302 139.778 32.424 139.722 32.572C139.666 32.72 139.638 32.89 139.638 33.082V37H138.15V33.082C138.15 32.67 138.066 32.37 137.898 32.182C137.734 31.994 137.492 31.9 137.172 31.9C136.956 31.9 136.754 31.954 136.566 32.062C136.382 32.166 136.21 32.31 136.05 32.494V37H134.568ZM147.347 30.748C147.803 30.748 148.217 30.822 148.589 30.97C148.965 31.118 149.285 31.328 149.549 31.6C149.817 31.872 150.023 32.204 150.167 32.596C150.311 32.988 150.383 33.426 150.383 33.91C150.383 34.398 150.311 34.838 150.167 35.23C150.023 35.622 149.817 35.956 149.549 36.232C149.285 36.508 148.965 36.72 148.589 36.868C148.217 37.016 147.803 37.09 147.347 37.09C146.887 37.09 146.469 37.016 146.093 36.868C145.717 36.72 145.395 36.508 145.127 36.232C144.863 35.956 144.657 35.622 144.509 35.23C144.365 34.838 144.293 34.398 144.293 33.91C144.293 33.426 144.365 32.988 144.509 32.596C144.657 32.204 144.863 31.872 145.127 31.6C145.395 31.328 145.717 31.118 146.093 30.97C146.469 30.822 146.887 30.748 147.347 30.748ZM147.347 35.95C147.859 35.95 148.237 35.778 148.481 35.434C148.729 35.09 148.853 34.586 148.853 33.922C148.853 33.258 148.729 32.752 148.481 32.404C148.237 32.056 147.859 31.882 147.347 31.882C146.827 31.882 146.441 32.058 146.189 32.41C145.941 32.758 145.817 33.262 145.817 33.922C145.817 34.582 145.941 35.086 146.189 35.434C146.441 35.778 146.827 35.95 147.347 35.95ZM155.269 32.044C155.229 32.108 155.187 32.154 155.143 32.182C155.099 32.206 155.043 32.218 154.975 32.218C154.903 32.218 154.825 32.198 154.741 32.158C154.661 32.118 154.567 32.074 154.459 32.026C154.351 31.974 154.227 31.928 154.087 31.888C153.951 31.848 153.789 31.828 153.601 31.828C153.309 31.828 153.079 31.89 152.911 32.014C152.747 32.138 152.665 32.3 152.665 32.5C152.665 32.632 152.707 32.744 152.791 32.836C152.879 32.924 152.993 33.002 153.133 33.07C153.277 33.138 153.439 33.2 153.619 33.256C153.799 33.308 153.981 33.366 154.165 33.43C154.353 33.494 154.537 33.568 154.717 33.652C154.897 33.732 155.057 33.836 155.197 33.964C155.341 34.088 155.455 34.238 155.539 34.414C155.627 34.59 155.671 34.802 155.671 35.05C155.671 35.346 155.617 35.62 155.509 35.872C155.405 36.12 155.249 36.336 155.041 36.52C154.833 36.7 154.575 36.842 154.267 36.946C153.963 37.046 153.611 37.096 153.211 37.096C152.999 37.096 152.791 37.076 152.587 37.036C152.387 37 152.193 36.948 152.005 36.88C151.821 36.812 151.649 36.732 151.489 36.64C151.333 36.548 151.195 36.448 151.075 36.34L151.417 35.776C151.461 35.708 151.513 35.656 151.573 35.62C151.633 35.584 151.709 35.566 151.801 35.566C151.893 35.566 151.979 35.592 152.059 35.644C152.143 35.696 152.239 35.752 152.347 35.812C152.455 35.872 152.581 35.928 152.725 35.98C152.873 36.032 153.059 36.058 153.283 36.058C153.459 36.058 153.609 36.038 153.733 35.998C153.861 35.954 153.965 35.898 154.045 35.83C154.129 35.762 154.189 35.684 154.225 35.596C154.265 35.504 154.285 35.41 154.285 35.314C154.285 35.17 154.241 35.052 154.153 34.96C154.069 34.868 153.955 34.788 153.811 34.72C153.671 34.652 153.509 34.592 153.325 34.54C153.145 34.484 152.959 34.424 152.767 34.36C152.579 34.296 152.393 34.222 152.209 34.138C152.029 34.05 151.867 33.94 151.723 33.808C151.583 33.676 151.469 33.514 151.381 33.322C151.297 33.13 151.255 32.898 151.255 32.626C151.255 32.374 151.305 32.134 151.405 31.906C151.505 31.678 151.651 31.48 151.843 31.312C152.039 31.14 152.281 31.004 152.569 30.904C152.861 30.8 153.197 30.748 153.577 30.748C154.001 30.748 154.387 30.818 154.735 30.958C155.083 31.098 155.373 31.282 155.605 31.51L155.269 32.044ZM158.839 37.096C158.303 37.096 157.891 36.946 157.603 36.646C157.319 36.342 157.177 35.924 157.177 35.392V31.954H156.547C156.467 31.954 156.399 31.928 156.343 31.876C156.287 31.824 156.259 31.746 156.259 31.642V31.054L157.249 30.892L157.561 29.212C157.581 29.132 157.619 29.07 157.675 29.026C157.731 28.982 157.803 28.96 157.891 28.96H158.659V30.898H160.303V31.954H158.659V35.29C158.659 35.482 158.705 35.632 158.797 35.74C158.893 35.848 159.023 35.902 159.187 35.902C159.279 35.902 159.355 35.892 159.415 35.872C159.479 35.848 159.533 35.824 159.577 35.8C159.625 35.776 159.667 35.754 159.703 35.734C159.739 35.71 159.775 35.698 159.811 35.698C159.855 35.698 159.891 35.71 159.919 35.734C159.947 35.754 159.977 35.786 160.009 35.83L160.453 36.55C160.237 36.73 159.989 36.866 159.709 36.958C159.429 37.05 159.139 37.096 158.839 37.096ZM167.926 32.044C167.886 32.108 167.844 32.154 167.8 32.182C167.756 32.206 167.7 32.218 167.632 32.218C167.56 32.218 167.482 32.198 167.398 32.158C167.318 32.118 167.224 32.074 167.116 32.026C167.008 31.974 166.884 31.928 166.743 31.888C166.608 31.848 166.446 31.828 166.258 31.828C165.966 31.828 165.736 31.89 165.568 32.014C165.404 32.138 165.322 32.3 165.322 32.5C165.322 32.632 165.364 32.744 165.448 32.836C165.536 32.924 165.65 33.002 165.79 33.07C165.934 33.138 166.096 33.2 166.276 33.256C166.456 33.308 166.638 33.366 166.822 33.43C167.01 33.494 167.194 33.568 167.374 33.652C167.554 33.732 167.714 33.836 167.854 33.964C167.998 34.088 168.112 34.238 168.196 34.414C168.284 34.59 168.328 34.802 168.328 35.05C168.328 35.346 168.274 35.62 168.166 35.872C168.062 36.12 167.906 36.336 167.698 36.52C167.49 36.7 167.232 36.842 166.924 36.946C166.62 37.046 166.268 37.096 165.868 37.096C165.656 37.096 165.448 37.076 165.244 37.036C165.044 37 164.85 36.948 164.662 36.88C164.478 36.812 164.306 36.732 164.146 36.64C163.99 36.548 163.852 36.448 163.732 36.34L164.074 35.776C164.118 35.708 164.17 35.656 164.229 35.62C164.289 35.584 164.366 35.566 164.458 35.566C164.55 35.566 164.636 35.592 164.716 35.644C164.8 35.696 164.896 35.752 165.004 35.812C165.112 35.872 165.238 35.928 165.382 35.98C165.53 36.032 165.716 36.058 165.94 36.058C166.116 36.058 166.266 36.038 166.39 35.998C166.518 35.954 166.622 35.898 166.702 35.83C166.786 35.762 166.845 35.684 166.882 35.596C166.922 35.504 166.942 35.41 166.942 35.314C166.942 35.17 166.898 35.052 166.81 34.96C166.726 34.868 166.612 34.788 166.467 34.72C166.328 34.652 166.166 34.592 165.982 34.54C165.802 34.484 165.616 34.424 165.424 34.36C165.236 34.296 165.05 34.222 164.866 34.138C164.686 34.05 164.524 33.94 164.38 33.808C164.24 33.676 164.126 33.514 164.038 33.322C163.954 33.13 163.912 32.898 163.912 32.626C163.912 32.374 163.962 32.134 164.062 31.906C164.162 31.678 164.308 31.48 164.5 31.312C164.696 31.14 164.938 31.004 165.226 30.904C165.518 30.8 165.854 30.748 166.234 30.748C166.658 30.748 167.044 30.818 167.392 30.958C167.74 31.098 168.03 31.282 168.262 31.51L167.926 32.044ZM174.747 30.844V37H173.841C173.645 37 173.521 36.91 173.469 36.73L173.367 36.238C173.115 36.494 172.837 36.702 172.533 36.862C172.229 37.018 171.871 37.096 171.459 37.096C171.123 37.096 170.825 37.04 170.565 36.928C170.309 36.812 170.093 36.65 169.917 36.442C169.741 36.234 169.607 35.988 169.515 35.704C169.427 35.416 169.383 35.1 169.383 34.756V30.844H170.865V34.756C170.865 35.132 170.951 35.424 171.123 35.632C171.299 35.836 171.561 35.938 171.909 35.938C172.165 35.938 172.405 35.882 172.629 35.77C172.853 35.654 173.065 35.496 173.265 35.296V30.844H174.747ZM180.626 32.146C180.582 32.202 180.538 32.246 180.494 32.278C180.454 32.31 180.394 32.326 180.314 32.326C180.238 32.326 180.164 32.304 180.092 32.26C180.02 32.212 179.934 32.16 179.834 32.104C179.734 32.044 179.614 31.992 179.474 31.948C179.338 31.9 179.168 31.876 178.964 31.876C178.704 31.876 178.476 31.924 178.28 32.02C178.084 32.112 177.92 32.246 177.788 32.422C177.66 32.598 177.564 32.812 177.5 33.064C177.436 33.312 177.404 33.594 177.404 33.91C177.404 34.238 177.438 34.53 177.506 34.786C177.578 35.042 177.68 35.258 177.812 35.434C177.944 35.606 178.104 35.738 178.292 35.83C178.48 35.918 178.692 35.962 178.928 35.962C179.164 35.962 179.354 35.934 179.498 35.878C179.646 35.818 179.77 35.754 179.87 35.686C179.97 35.614 180.056 35.55 180.128 35.494C180.204 35.434 180.288 35.404 180.38 35.404C180.5 35.404 180.59 35.45 180.65 35.542L181.076 36.082C180.912 36.274 180.734 36.436 180.542 36.568C180.35 36.696 180.15 36.8 179.942 36.88C179.738 36.956 179.526 37.01 179.306 37.042C179.09 37.074 178.874 37.09 178.658 37.09C178.278 37.09 177.92 37.02 177.584 36.88C177.248 36.736 176.954 36.528 176.702 36.256C176.45 35.984 176.25 35.652 176.102 35.26C175.958 34.864 175.886 34.414 175.886 33.91C175.886 33.458 175.95 33.04 176.078 32.656C176.21 32.268 176.402 31.934 176.654 31.654C176.906 31.37 177.218 31.148 177.59 30.988C177.962 30.828 178.39 30.748 178.874 30.748C179.334 30.748 179.736 30.822 180.08 30.97C180.428 31.118 180.74 31.33 181.016 31.606L180.626 32.146ZM186.31 32.146C186.266 32.202 186.222 32.246 186.178 32.278C186.138 32.31 186.078 32.326 185.998 32.326C185.922 32.326 185.848 32.304 185.776 32.26C185.704 32.212 185.618 32.16 185.518 32.104C185.418 32.044 185.298 31.992 185.158 31.948C185.022 31.9 184.852 31.876 184.648 31.876C184.388 31.876 184.16 31.924 183.964 32.02C183.768 32.112 183.604 32.246 183.472 32.422C183.344 32.598 183.248 32.812 183.184 33.064C183.12 33.312 183.088 33.594 183.088 33.91C183.088 34.238 183.122 34.53 183.19 34.786C183.262 35.042 183.364 35.258 183.496 35.434C183.628 35.606 183.788 35.738 183.976 35.83C184.164 35.918 184.376 35.962 184.612 35.962C184.848 35.962 185.038 35.934 185.182 35.878C185.33 35.818 185.454 35.754 185.554 35.686C185.654 35.614 185.74 35.55 185.812 35.494C185.888 35.434 185.972 35.404 186.064 35.404C186.184 35.404 186.274 35.45 186.334 35.542L186.76 36.082C186.596 36.274 186.418 36.436 186.226 36.568C186.034 36.696 185.834 36.8 185.626 36.88C185.422 36.956 185.21 37.01 184.99 37.042C184.774 37.074 184.558 37.09 184.342 37.09C183.962 37.09 183.604 37.02 183.268 36.88C182.932 36.736 182.638 36.528 182.386 36.256C182.134 35.984 181.934 35.652 181.786 35.26C181.642 34.864 181.57 34.414 181.57 33.91C181.57 33.458 181.634 33.04 181.762 32.656C181.894 32.268 182.086 31.934 182.338 31.654C182.59 31.37 182.902 31.148 183.274 30.988C183.646 30.828 184.074 30.748 184.558 30.748C185.018 30.748 185.42 30.822 185.764 30.97C186.112 31.118 186.424 31.33 186.7 31.606L186.31 32.146ZM191.55 33.214C191.55 33.022 191.522 32.842 191.466 32.674C191.414 32.502 191.334 32.352 191.226 32.224C191.118 32.096 190.98 31.996 190.812 31.924C190.648 31.848 190.456 31.81 190.236 31.81C189.808 31.81 189.47 31.932 189.222 32.176C188.978 32.42 188.822 32.766 188.754 33.214H191.55ZM188.724 34.108C188.748 34.424 188.804 34.698 188.892 34.93C188.98 35.158 189.096 35.348 189.24 35.5C189.384 35.648 189.554 35.76 189.75 35.836C189.95 35.908 190.17 35.944 190.41 35.944C190.65 35.944 190.856 35.916 191.028 35.86C191.204 35.804 191.356 35.742 191.484 35.674C191.616 35.606 191.73 35.544 191.826 35.488C191.926 35.432 192.022 35.404 192.114 35.404C192.238 35.404 192.33 35.45 192.39 35.542L192.816 36.082C192.652 36.274 192.468 36.436 192.264 36.568C192.06 36.696 191.846 36.8 191.622 36.88C191.402 36.956 191.176 37.01 190.944 37.042C190.716 37.074 190.494 37.09 190.278 37.09C189.85 37.09 189.452 37.02 189.084 36.88C188.716 36.736 188.396 36.526 188.124 36.25C187.852 35.97 187.638 35.626 187.482 35.218C187.326 34.806 187.248 34.33 187.248 33.79C187.248 33.37 187.316 32.976 187.452 32.608C187.588 32.236 187.782 31.914 188.034 31.642C188.29 31.366 188.6 31.148 188.964 30.988C189.332 30.828 189.746 30.748 190.206 30.748C190.594 30.748 190.952 30.81 191.28 30.934C191.608 31.058 191.89 31.24 192.126 31.48C192.362 31.716 192.546 32.008 192.678 32.356C192.814 32.7 192.882 33.094 192.882 33.538C192.882 33.762 192.858 33.914 192.81 33.994C192.762 34.07 192.67 34.108 192.534 34.108H188.724ZM197.75 32.044C197.71 32.108 197.668 32.154 197.624 32.182C197.58 32.206 197.524 32.218 197.456 32.218C197.384 32.218 197.306 32.198 197.222 32.158C197.142 32.118 197.048 32.074 196.94 32.026C196.832 31.974 196.708 31.928 196.568 31.888C196.432 31.848 196.27 31.828 196.082 31.828C195.79 31.828 195.56 31.89 195.392 32.014C195.228 32.138 195.146 32.3 195.146 32.5C195.146 32.632 195.188 32.744 195.272 32.836C195.36 32.924 195.474 33.002 195.614 33.07C195.758 33.138 195.92 33.2 196.1 33.256C196.28 33.308 196.462 33.366 196.646 33.43C196.834 33.494 197.018 33.568 197.198 33.652C197.378 33.732 197.538 33.836 197.678 33.964C197.822 34.088 197.936 34.238 198.02 34.414C198.108 34.59 198.152 34.802 198.152 35.05C198.152 35.346 198.098 35.62 197.99 35.872C197.886 36.12 197.73 36.336 197.522 36.52C197.314 36.7 197.056 36.842 196.748 36.946C196.444 37.046 196.092 37.096 195.692 37.096C195.48 37.096 195.272 37.076 195.068 37.036C194.868 37 194.674 36.948 194.486 36.88C194.302 36.812 194.13 36.732 193.97 36.64C193.814 36.548 193.676 36.448 193.556 36.34L193.898 35.776C193.942 35.708 193.994 35.656 194.054 35.62C194.114 35.584 194.19 35.566 194.282 35.566C194.374 35.566 194.46 35.592 194.54 35.644C194.624 35.696 194.72 35.752 194.828 35.812C194.936 35.872 195.062 35.928 195.206 35.98C195.354 36.032 195.54 36.058 195.764 36.058C195.94 36.058 196.09 36.038 196.214 35.998C196.342 35.954 196.446 35.898 196.526 35.83C196.61 35.762 196.67 35.684 196.706 35.596C196.746 35.504 196.766 35.41 196.766 35.314C196.766 35.17 196.722 35.052 196.634 34.96C196.55 34.868 196.436 34.788 196.292 34.72C196.152 34.652 195.99 34.592 195.806 34.54C195.626 34.484 195.44 34.424 195.248 34.36C195.06 34.296 194.874 34.222 194.69 34.138C194.51 34.05 194.348 33.94 194.204 33.808C194.064 33.676 193.95 33.514 193.862 33.322C193.778 33.13 193.736 32.898 193.736 32.626C193.736 32.374 193.786 32.134 193.886 31.906C193.986 31.678 194.132 31.48 194.324 31.312C194.52 31.14 194.762 31.004 195.05 30.904C195.342 30.8 195.678 30.748 196.058 30.748C196.482 30.748 196.868 30.818 197.216 30.958C197.564 31.098 197.854 31.282 198.086 31.51L197.75 32.044ZM203.023 32.044C202.983 32.108 202.941 32.154 202.897 32.182C202.853 32.206 202.797 32.218 202.729 32.218C202.657 32.218 202.579 32.198 202.495 32.158C202.415 32.118 202.321 32.074 202.213 32.026C202.105 31.974 201.981 31.928 201.841 31.888C201.705 31.848 201.543 31.828 201.355 31.828C201.063 31.828 200.833 31.89 200.665 32.014C200.501 32.138 200.419 32.3 200.419 32.5C200.419 32.632 200.461 32.744 200.545 32.836C200.633 32.924 200.747 33.002 200.887 33.07C201.031 33.138 201.193 33.2 201.373 33.256C201.553 33.308 201.735 33.366 201.919 33.43C202.107 33.494 202.291 33.568 202.471 33.652C202.651 33.732 202.811 33.836 202.951 33.964C203.095 34.088 203.209 34.238 203.293 34.414C203.381 34.59 203.425 34.802 203.425 35.05C203.425 35.346 203.371 35.62 203.263 35.872C203.159 36.12 203.003 36.336 202.795 36.52C202.587 36.7 202.329 36.842 202.021 36.946C201.717 37.046 201.365 37.096 200.965 37.096C200.753 37.096 200.545 37.076 200.341 37.036C200.141 37 199.947 36.948 199.759 36.88C199.575 36.812 199.403 36.732 199.243 36.64C199.087 36.548 198.949 36.448 198.829 36.34L199.171 35.776C199.215 35.708 199.267 35.656 199.327 35.62C199.387 35.584 199.463 35.566 199.555 35.566C199.647 35.566 199.733 35.592 199.813 35.644C199.897 35.696 199.993 35.752 200.101 35.812C200.209 35.872 200.335 35.928 200.479 35.98C200.627 36.032 200.813 36.058 201.037 36.058C201.213 36.058 201.363 36.038 201.487 35.998C201.615 35.954 201.719 35.898 201.799 35.83C201.883 35.762 201.943 35.684 201.979 35.596C202.019 35.504 202.039 35.41 202.039 35.314C202.039 35.17 201.995 35.052 201.907 34.96C201.823 34.868 201.709 34.788 201.565 34.72C201.425 34.652 201.263 34.592 201.079 34.54C200.899 34.484 200.713 34.424 200.521 34.36C200.333 34.296 200.147 34.222 199.963 34.138C199.783 34.05 199.621 33.94 199.477 33.808C199.337 33.676 199.223 33.514 199.135 33.322C199.051 33.13 199.009 32.898 199.009 32.626C199.009 32.374 199.059 32.134 199.159 31.906C199.259 31.678 199.405 31.48 199.597 31.312C199.793 31.14 200.035 31.004 200.323 30.904C200.615 30.8 200.951 30.748 201.331 30.748C201.755 30.748 202.141 30.818 202.489 30.958C202.837 31.098 203.127 31.282 203.359 31.51L203.023 32.044ZM204.973 37V31.96L204.439 31.876C204.323 31.852 204.229 31.812 204.157 31.756C204.089 31.696 204.055 31.612 204.055 31.504V30.898H204.973V30.442C204.973 30.09 205.025 29.774 205.129 29.494C205.237 29.214 205.389 28.976 205.585 28.78C205.785 28.584 206.027 28.434 206.311 28.33C206.595 28.226 206.915 28.174 207.271 28.174C207.555 28.174 207.819 28.212 208.063 28.288L208.033 29.032C208.029 29.088 208.013 29.134 207.985 29.17C207.957 29.202 207.919 29.228 207.871 29.248C207.827 29.264 207.775 29.276 207.715 29.284C207.655 29.288 207.591 29.29 207.523 29.29C207.347 29.29 207.189 29.31 207.049 29.35C206.913 29.386 206.797 29.452 206.701 29.548C206.605 29.64 206.531 29.764 206.479 29.92C206.431 30.072 206.407 30.262 206.407 30.49V30.898H208.009V31.954H206.455V37H204.973ZM214.145 30.844V37H213.239C213.043 37 212.919 36.91 212.867 36.73L212.765 36.238C212.513 36.494 212.235 36.702 211.931 36.862C211.627 37.018 211.269 37.096 210.857 37.096C210.521 37.096 210.223 37.04 209.963 36.928C209.707 36.812 209.491 36.65 209.315 36.442C209.139 36.234 209.005 35.988 208.913 35.704C208.825 35.416 208.781 35.1 208.781 34.756V30.844H210.263V34.756C210.263 35.132 210.349 35.424 210.521 35.632C210.697 35.836 210.959 35.938 211.307 35.938C211.563 35.938 211.803 35.882 212.027 35.77C212.251 35.654 212.463 35.496 212.663 35.296V30.844H214.145ZM217.115 28.084V37H215.633V28.084H217.115ZM25.142 46.146C25.098 46.202 25.054 46.246 25.01 46.278C24.97 46.31 24.91 46.326 24.83 46.326C24.754 46.326 24.68 46.304 24.608 46.26C24.536 46.212 24.45 46.16 24.35 46.104C24.25 46.044 24.13 45.992 23.99 45.948C23.854 45.9 23.684 45.876 23.48 45.876C23.22 45.876 22.992 45.924 22.796 46.02C22.6 46.112 22.436 46.246 22.304 46.422C22.176 46.598 22.08 46.812 22.016 47.064C21.952 47.312 21.92 47.594 21.92 47.91C21.92 48.238 21.954 48.53 22.022 48.786C22.094 49.042 22.196 49.258 22.328 49.434C22.46 49.606 22.62 49.738 22.808 49.83C22.996 49.918 23.208 49.962 23.444 49.962C23.68 49.962 23.87 49.934 24.014 49.878C24.162 49.818 24.286 49.754 24.386 49.686C24.486 49.614 24.572 49.55 24.644 49.494C24.72 49.434 24.804 49.404 24.896 49.404C25.016 49.404 25.106 49.45 25.166 49.542L25.592 50.082C25.428 50.274 25.25 50.436 25.058 50.568C24.866 50.696 24.666 50.8 24.458 50.88C24.254 50.956 24.042 51.01 23.822 51.042C23.606 51.074 23.39 51.09 23.174 51.09C22.794 51.09 22.436 51.02 22.1 50.88C21.764 50.736 21.47 50.528 21.218 50.256C20.966 49.984 20.766 49.652 20.618 49.26C20.474 48.864 20.402 48.414 20.402 47.91C20.402 47.458 20.466 47.04 20.594 46.656C20.726 46.268 20.918 45.934 21.17 45.654C21.422 45.37 21.734 45.148 22.106 44.988C22.478 44.828 22.906 44.748 23.39 44.748C23.85 44.748 24.252 44.822 24.596 44.97C24.944 45.118 25.256 45.33 25.532 45.606L25.142 46.146ZM29.7731 48.372C29.3451 48.392 28.9851 48.43 28.6931 48.486C28.4011 48.538 28.1671 48.606 27.9911 48.69C27.8151 48.774 27.6891 48.872 27.6131 48.984C27.5371 49.096 27.4991 49.218 27.4991 49.35C27.4991 49.61 27.5751 49.796 27.7271 49.908C27.8831 50.02 28.0851 50.076 28.3331 50.076C28.6371 50.076 28.8991 50.022 29.1191 49.914C29.3431 49.802 29.5611 49.634 29.7731 49.41V48.372ZM26.3771 45.702C27.0851 45.054 27.9371 44.73 28.9331 44.73C29.2931 44.73 29.6151 44.79 29.8991 44.91C30.1831 45.026 30.4231 45.19 30.6191 45.402C30.8151 45.61 30.9631 45.86 31.0631 46.152C31.1671 46.444 31.2191 46.764 31.2191 47.112V51H30.5471C30.4071 51 30.2991 50.98 30.2231 50.94C30.1471 50.896 30.0871 50.81 30.0431 50.682L29.9111 50.238C29.7551 50.378 29.6031 50.502 29.4551 50.61C29.3071 50.714 29.1531 50.802 28.9931 50.874C28.8331 50.946 28.6611 51 28.4771 51.036C28.2971 51.076 28.0971 51.096 27.8771 51.096C27.6171 51.096 27.3771 51.062 27.1571 50.994C26.9371 50.922 26.7471 50.816 26.5871 50.676C26.4271 50.536 26.3031 50.362 26.2151 50.154C26.1271 49.946 26.0831 49.704 26.0831 49.428C26.0831 49.272 26.1091 49.118 26.1611 48.966C26.2131 48.81 26.2971 48.662 26.4131 48.522C26.5331 48.382 26.6871 48.25 26.8751 48.126C27.0631 48.002 27.2931 47.894 27.5651 47.802C27.8411 47.71 28.1611 47.636 28.5251 47.58C28.8891 47.52 29.3051 47.484 29.7731 47.472V47.112C29.7731 46.7 29.6851 46.396 29.5091 46.2C29.3331 46 29.0791 45.9 28.7471 45.9C28.5071 45.9 28.3071 45.928 28.1471 45.984C27.9911 46.04 27.8531 46.104 27.7331 46.176C27.6131 46.244 27.5031 46.306 27.4031 46.362C27.3071 46.418 27.1991 46.446 27.0791 46.446C26.9751 46.446 26.8871 46.42 26.8151 46.368C26.7431 46.312 26.6851 46.248 26.6411 46.176L26.3771 45.702ZM34.0128 45.912C34.2048 45.544 34.4328 45.256 34.6968 45.048C34.9608 44.836 35.2728 44.73 35.6328 44.73C35.9168 44.73 36.1448 44.792 36.3168 44.916L36.2208 46.026C36.2008 46.098 36.1708 46.15 36.1308 46.182C36.0948 46.21 36.0448 46.224 35.9808 46.224C35.9208 46.224 35.8308 46.214 35.7108 46.194C35.5948 46.174 35.4808 46.164 35.3688 46.164C35.2048 46.164 35.0588 46.188 34.9308 46.236C34.8028 46.284 34.6868 46.354 34.5828 46.446C34.4828 46.534 34.3928 46.642 34.3128 46.77C34.2368 46.898 34.1648 47.044 34.0968 47.208V51H32.6148V44.844H33.4848C33.6368 44.844 33.7428 44.872 33.8028 44.928C33.8628 44.98 33.9028 45.076 33.9228 45.216L34.0128 45.912ZM41.2875 44.844V51H39.7995V44.844H41.2875ZM41.4915 43.05C41.4915 43.178 41.4655 43.298 41.4135 43.41C41.3615 43.522 41.2915 43.62 41.2035 43.704C41.1195 43.788 41.0195 43.856 40.9035 43.908C40.7875 43.956 40.6635 43.98 40.5315 43.98C40.4035 43.98 40.2815 43.956 40.1655 43.908C40.0535 43.856 39.9555 43.788 39.8715 43.704C39.7875 43.62 39.7195 43.522 39.6675 43.41C39.6195 43.298 39.5955 43.178 39.5955 43.05C39.5955 42.918 39.6195 42.794 39.6675 42.678C39.7195 42.562 39.7875 42.462 39.8715 42.378C39.9555 42.294 40.0535 42.228 40.1655 42.18C40.2815 42.128 40.4035 42.102 40.5315 42.102C40.6635 42.102 40.7875 42.128 40.9035 42.18C41.0195 42.228 41.1195 42.294 41.2035 42.378C41.2915 42.462 41.3615 42.562 41.4135 42.678C41.4655 42.794 41.4915 42.918 41.4915 43.05ZM44.1844 45.6C44.3084 45.476 44.4384 45.362 44.5744 45.258C44.7144 45.15 44.8604 45.06 45.0124 44.988C45.1684 44.912 45.3344 44.854 45.5104 44.814C45.6864 44.77 45.8784 44.748 46.0864 44.748C46.4224 44.748 46.7204 44.806 46.9804 44.922C47.2404 45.034 47.4564 45.194 47.6284 45.402C47.8044 45.606 47.9364 45.852 48.0244 46.14C48.1164 46.424 48.1624 46.738 48.1624 47.082V51H46.6804V47.082C46.6804 46.706 46.5944 46.416 46.4224 46.212C46.2504 46.004 45.9884 45.9 45.6364 45.9C45.3804 45.9 45.1404 45.958 44.9164 46.074C44.6924 46.19 44.4804 46.348 44.2804 46.548V51H42.7984V44.844H43.7044C43.8964 44.844 44.0224 44.934 44.0824 45.114L44.1844 45.6ZM54.0258 44.844V51H52.5378V44.844H54.0258ZM54.2298 43.05C54.2298 43.178 54.2038 43.298 54.1518 43.41C54.0998 43.522 54.0298 43.62 53.9418 43.704C53.8578 43.788 53.7578 43.856 53.6418 43.908C53.5258 43.956 53.4018 43.98 53.2698 43.98C53.1418 43.98 53.0198 43.956 52.9038 43.908C52.7918 43.856 52.6938 43.788 52.6098 43.704C52.5258 43.62 52.4578 43.522 52.4058 43.41C52.3578 43.298 52.3338 43.178 52.3338 43.05C52.3338 42.918 52.3578 42.794 52.4058 42.678C52.4578 42.562 52.5258 42.462 52.6098 42.378C52.6938 42.294 52.7918 42.228 52.9038 42.18C53.0198 42.128 53.1418 42.102 53.2698 42.102C53.4018 42.102 53.5258 42.128 53.6418 42.18C53.7578 42.228 53.8578 42.294 53.9418 42.378C54.0298 42.462 54.0998 42.562 54.1518 42.678C54.2038 42.794 54.2298 42.918 54.2298 43.05ZM56.9227 45.6C57.0467 45.476 57.1767 45.362 57.3127 45.258C57.4527 45.15 57.5987 45.06 57.7507 44.988C57.9067 44.912 58.0727 44.854 58.2487 44.814C58.4247 44.77 58.6167 44.748 58.8247 44.748C59.1607 44.748 59.4587 44.806 59.7187 44.922C59.9787 45.034 60.1947 45.194 60.3667 45.402C60.5427 45.606 60.6747 45.852 60.7627 46.14C60.8547 46.424 60.9007 46.738 60.9007 47.082V51H59.4187V47.082C59.4187 46.706 59.3327 46.416 59.1607 46.212C58.9887 46.004 58.7267 45.9 58.3747 45.9C58.1187 45.9 57.8787 45.958 57.6547 46.074C57.4307 46.19 57.2187 46.348 57.0187 46.548V51H55.5367V44.844H56.4427C56.6347 44.844 56.7607 44.934 56.8207 45.114L56.9227 45.6ZM66.7101 45.504C66.9501 45.28 67.2141 45.098 67.5021 44.958C67.7901 44.818 68.1281 44.748 68.5161 44.748C68.8521 44.748 69.1501 44.806 69.4101 44.922C69.6701 45.034 69.8861 45.194 70.0581 45.402C70.2341 45.606 70.3661 45.852 70.4541 46.14C70.5461 46.424 70.5921 46.738 70.5921 47.082V51H69.1101V47.082C69.1101 46.706 69.0241 46.416 68.8521 46.212C68.6801 46.004 68.4181 45.9 68.0661 45.9C67.8101 45.9 67.5701 45.958 67.3461 46.074C67.1221 46.19 66.9101 46.348 66.7101 46.548V51H65.2281V42.084H66.7101V45.504ZM73.5375 44.844V51H72.0495V44.844H73.5375ZM73.7415 43.05C73.7415 43.178 73.7155 43.298 73.6635 43.41C73.6115 43.522 73.5415 43.62 73.4535 43.704C73.3695 43.788 73.2695 43.856 73.1535 43.908C73.0375 43.956 72.9135 43.98 72.7815 43.98C72.6535 43.98 72.5315 43.956 72.4155 43.908C72.3035 43.856 72.2055 43.788 72.1215 43.704C72.0375 43.62 71.9695 43.522 71.9175 43.41C71.8695 43.298 71.8455 43.178 71.8455 43.05C71.8455 42.918 71.8695 42.794 71.9175 42.678C71.9695 42.562 72.0375 42.462 72.1215 42.378C72.2055 42.294 72.3035 42.228 72.4155 42.18C72.5315 42.128 72.6535 42.102 72.7815 42.102C72.9135 42.102 73.0375 42.128 73.1535 42.18C73.2695 42.228 73.3695 42.294 73.4535 42.378C73.5415 42.462 73.6115 42.562 73.6635 42.678C73.7155 42.794 73.7415 42.918 73.7415 43.05ZM78.8044 46.044C78.7644 46.108 78.7224 46.154 78.6784 46.182C78.6344 46.206 78.5784 46.218 78.5104 46.218C78.4384 46.218 78.3604 46.198 78.2764 46.158C78.1964 46.118 78.1024 46.074 77.9944 46.026C77.8864 45.974 77.7624 45.928 77.6224 45.888C77.4864 45.848 77.3244 45.828 77.1364 45.828C76.8444 45.828 76.6144 45.89 76.4464 46.014C76.2824 46.138 76.2004 46.3 76.2004 46.5C76.2004 46.632 76.2424 46.744 76.3264 46.836C76.4144 46.924 76.5284 47.002 76.6684 47.07C76.8124 47.138 76.9744 47.2 77.1544 47.256C77.3344 47.308 77.5164 47.366 77.7004 47.43C77.8884 47.494 78.0724 47.568 78.2524 47.652C78.4324 47.732 78.5924 47.836 78.7324 47.964C78.8764 48.088 78.9904 48.238 79.0744 48.414C79.1624 48.59 79.2064 48.802 79.2064 49.05C79.2064 49.346 79.1524 49.62 79.0444 49.872C78.9404 50.12 78.7844 50.336 78.5764 50.52C78.3684 50.7 78.1104 50.842 77.8024 50.946C77.4984 51.046 77.1464 51.096 76.7464 51.096C76.5344 51.096 76.3264 51.076 76.1224 51.036C75.9224 51 75.7284 50.948 75.5404 50.88C75.3564 50.812 75.1844 50.732 75.0244 50.64C74.8684 50.548 74.7304 50.448 74.6104 50.34L74.9524 49.776C74.9964 49.708 75.0484 49.656 75.1084 49.62C75.1684 49.584 75.2444 49.566 75.3364 49.566C75.4284 49.566 75.5144 49.592 75.5944 49.644C75.6784 49.696 75.7744 49.752 75.8824 49.812C75.9904 49.872 76.1164 49.928 76.2604 49.98C76.4084 50.032 76.5944 50.058 76.8184 50.058C76.9944 50.058 77.1444 50.038 77.2684 49.998C77.3964 49.954 77.5004 49.898 77.5804 49.83C77.6644 49.762 77.7244 49.684 77.7604 49.596C77.8004 49.504 77.8204 49.41 77.8204 49.314C77.8204 49.17 77.7764 49.052 77.6884 48.96C77.6044 48.868 77.4904 48.788 77.3464 48.72C77.2064 48.652 77.0444 48.592 76.8604 48.54C76.6804 48.484 76.4944 48.424 76.3024 48.36C76.1144 48.296 75.9284 48.222 75.7444 48.138C75.5644 48.05 75.4024 47.94 75.2584 47.808C75.1184 47.676 75.0044 47.514 74.9164 47.322C74.8324 47.13 74.7904 46.898 74.7904 46.626C74.7904 46.374 74.8404 46.134 74.9404 45.906C75.0404 45.678 75.1864 45.48 75.3784 45.312C75.5744 45.14 75.8164 45.004 76.1044 44.904C76.3964 44.8 76.7324 44.748 77.1124 44.748C77.5364 44.748 77.9224 44.818 78.2704 44.958C78.6184 45.098 78.9084 45.282 79.1404 45.51L78.8044 46.044ZM82.3738 51.096C81.8378 51.096 81.4258 50.946 81.1378 50.646C80.8538 50.342 80.7118 49.924 80.7118 49.392V45.954H80.0818C80.0018 45.954 79.9338 45.928 79.8778 45.876C79.8218 45.824 79.7938 45.746 79.7938 45.642V45.054L80.7838 44.892L81.0958 43.212C81.1158 43.132 81.1538 43.07 81.2098 43.026C81.2658 42.982 81.3378 42.96 81.4258 42.96H82.1938V44.898H83.8378V45.954H82.1938V49.29C82.1938 49.482 82.2398 49.632 82.3318 49.74C82.4278 49.848 82.5578 49.902 82.7218 49.902C82.8138 49.902 82.8898 49.892 82.9498 49.872C83.0138 49.848 83.0678 49.824 83.1118 49.8C83.1598 49.776 83.2018 49.754 83.2378 49.734C83.2738 49.71 83.3098 49.698 83.3458 49.698C83.3898 49.698 83.4258 49.71 83.4538 49.734C83.4818 49.754 83.5118 49.786 83.5438 49.83L83.9878 50.55C83.7718 50.73 83.5238 50.866 83.2438 50.958C82.9638 51.05 82.6738 51.096 82.3738 51.096ZM87.4638 44.748C87.9198 44.748 88.3338 44.822 88.7058 44.97C89.0818 45.118 89.4018 45.328 89.6658 45.6C89.9338 45.872 90.1398 46.204 90.2838 46.596C90.4278 46.988 90.4998 47.426 90.4998 47.91C90.4998 48.398 90.4278 48.838 90.2838 49.23C90.1398 49.622 89.9338 49.956 89.6658 50.232C89.4018 50.508 89.0818 50.72 88.7058 50.868C88.3338 51.016 87.9198 51.09 87.4638 51.09C87.0038 51.09 86.5858 51.016 86.2098 50.868C85.8338 50.72 85.5118 50.508 85.2438 50.232C84.9798 49.956 84.7738 49.622 84.6258 49.23C84.4818 48.838 84.4098 48.398 84.4098 47.91C84.4098 47.426 84.4818 46.988 84.6258 46.596C84.7738 46.204 84.9798 45.872 85.2438 45.6C85.5118 45.328 85.8338 45.118 86.2098 44.97C86.5858 44.822 87.0038 44.748 87.4638 44.748ZM87.4638 49.95C87.9758 49.95 88.3538 49.778 88.5978 49.434C88.8458 49.09 88.9698 48.586 88.9698 47.922C88.9698 47.258 88.8458 46.752 88.5978 46.404C88.3538 46.056 87.9758 45.882 87.4638 45.882C86.9438 45.882 86.5578 46.058 86.3058 46.41C86.0578 46.758 85.9338 47.262 85.9338 47.922C85.9338 48.582 86.0578 49.086 86.3058 49.434C86.5578 49.778 86.9438 49.95 87.4638 49.95ZM93.0284 45.912C93.2204 45.544 93.4484 45.256 93.7124 45.048C93.9764 44.836 94.2884 44.73 94.6484 44.73C94.9324 44.73 95.1604 44.792 95.3324 44.916L95.2364 46.026C95.2164 46.098 95.1864 46.15 95.1464 46.182C95.1104 46.21 95.0604 46.224 94.9964 46.224C94.9364 46.224 94.8464 46.214 94.7264 46.194C94.6104 46.174 94.4964 46.164 94.3844 46.164C94.2204 46.164 94.0744 46.188 93.9464 46.236C93.8184 46.284 93.7024 46.354 93.5984 46.446C93.4984 46.534 93.4084 46.642 93.3284 46.77C93.2524 46.898 93.1804 47.044 93.1124 47.208V51H91.6304V44.844H92.5004C92.6524 44.844 92.7584 44.872 92.8184 44.928C92.8784 44.98 92.9184 45.076 92.9384 45.216L93.0284 45.912ZM101.699 44.844L98.345 52.692C98.301 52.796 98.243 52.874 98.171 52.926C98.103 52.982 97.997 53.01 97.853 53.01H96.749L97.901 50.538L95.411 44.844H96.713C96.829 44.844 96.919 44.872 96.983 44.928C97.051 44.984 97.101 45.048 97.133 45.12L98.441 48.312C98.485 48.42 98.521 48.528 98.549 48.636C98.581 48.744 98.611 48.854 98.639 48.966C98.675 48.854 98.711 48.744 98.747 48.636C98.783 48.524 98.823 48.414 98.867 48.306L100.103 45.12C100.135 45.04 100.187 44.974 100.259 44.922C100.335 44.87 100.419 44.844 100.511 44.844H101.699ZM101.786 50.184C101.786 50.06 101.808 49.942 101.852 49.83C101.9 49.718 101.964 49.622 102.044 49.542C102.124 49.462 102.22 49.398 102.332 49.35C102.444 49.302 102.564 49.278 102.692 49.278C102.82 49.278 102.938 49.302 103.046 49.35C103.158 49.398 103.254 49.462 103.334 49.542C103.418 49.622 103.484 49.718 103.532 49.83C103.58 49.942 103.604 50.06 103.604 50.184C103.604 50.312 103.58 50.432 103.532 50.544C103.484 50.652 103.418 50.746 103.334 50.826C103.254 50.906 103.158 50.968 103.046 51.012C102.938 51.06 102.82 51.084 102.692 51.084C102.564 51.084 102.444 51.06 102.332 51.012C102.22 50.968 102.124 50.906 102.044 50.826C101.964 50.746 101.9 50.652 101.852 50.544C101.808 50.432 101.786 50.312 101.786 50.184ZM24.488 75.112C24.712 75.112 24.886 75.04 25.01 74.896C25.134 74.752 25.196 74.55 25.196 74.29H26.39C26.39 74.598 26.348 74.878 26.264 75.13C26.184 75.378 26.066 75.592 25.91 75.772C25.758 75.948 25.57 76.084 25.346 76.18C25.122 76.276 24.866 76.324 24.578 76.324C24.366 76.324 24.162 76.296 23.966 76.24C23.774 76.184 23.59 76.124 23.414 76.06C23.242 75.992 23.08 75.93 22.928 75.874C22.776 75.818 22.636 75.79 22.508 75.79C22.284 75.79 22.11 75.862 21.986 76.006C21.862 76.15 21.8 76.352 21.8 76.612H20.606C20.606 76.304 20.646 76.026 20.726 75.778C20.81 75.526 20.928 75.312 21.08 75.136C21.236 74.956 21.426 74.818 21.65 74.722C21.874 74.626 22.13 74.578 22.418 74.578C22.63 74.578 22.832 74.606 23.024 74.662C23.22 74.718 23.404 74.78 23.576 74.848C23.752 74.912 23.916 74.972 24.068 75.028C24.22 75.084 24.36 75.112 24.488 75.112ZM39.1189 74.662C39.1189 75.298 39.0129 75.888 38.8009 76.432C38.5929 76.972 38.2969 77.44 37.9129 77.836C37.5289 78.232 37.0669 78.542 36.5269 78.766C35.9869 78.986 35.3869 79.096 34.7269 79.096C34.0709 79.096 33.4729 78.986 32.9329 78.766C32.3929 78.542 31.9289 78.232 31.5409 77.836C31.1569 77.44 30.8589 76.972 30.6469 76.432C30.4349 75.888 30.3289 75.298 30.3289 74.662C30.3289 74.026 30.4349 73.438 30.6469 72.898C30.8589 72.354 31.1569 71.884 31.5409 71.488C31.9289 71.092 32.3929 70.784 32.9329 70.564C33.4729 70.34 34.0709 70.228 34.7269 70.228C35.1669 70.228 35.5809 70.28 35.9689 70.384C36.3569 70.484 36.7129 70.628 37.0369 70.816C37.3609 71 37.6509 71.226 37.9069 71.494C38.1669 71.758 38.3869 72.054 38.5669 72.382C38.7469 72.71 38.8829 73.066 38.9749 73.45C39.0709 73.834 39.1189 74.238 39.1189 74.662ZM37.4689 74.662C37.4689 74.186 37.4049 73.76 37.2769 73.384C37.1489 73.004 36.9669 72.682 36.7309 72.418C36.4949 72.154 36.2069 71.952 35.8669 71.812C35.5309 71.672 35.1509 71.602 34.7269 71.602C34.3029 71.602 33.9209 71.672 33.5809 71.812C33.2449 71.952 32.9569 72.154 32.7169 72.418C32.4809 72.682 32.2989 73.004 32.1709 73.384C32.0429 73.76 31.9789 74.186 31.9789 74.662C31.9789 75.138 32.0429 75.566 32.1709 75.946C32.2989 76.322 32.4809 76.642 32.7169 76.906C32.9569 77.166 33.2449 77.366 33.5809 77.506C33.9209 77.646 34.3029 77.716 34.7269 77.716C35.1509 77.716 35.5309 77.646 35.8669 77.506C36.2069 77.366 36.4949 77.166 36.7309 76.906C36.9669 76.642 37.1489 76.322 37.2769 75.946C37.4049 75.566 37.4689 75.138 37.4689 74.662ZM41.7086 70.084V79H40.2266V70.084H41.7086ZM44.7211 72.844V79H43.2331V72.844H44.7211ZM44.9251 71.05C44.9251 71.178 44.8991 71.298 44.8471 71.41C44.7951 71.522 44.7251 71.62 44.6371 71.704C44.5531 71.788 44.4531 71.856 44.3371 71.908C44.2211 71.956 44.0971 71.98 43.9651 71.98C43.8371 71.98 43.7151 71.956 43.5991 71.908C43.4871 71.856 43.3891 71.788 43.3051 71.704C43.2211 71.62 43.1531 71.522 43.1011 71.41C43.0531 71.298 43.0291 71.178 43.0291 71.05C43.0291 70.918 43.0531 70.794 43.1011 70.678C43.1531 70.562 43.2211 70.462 43.3051 70.378C43.3891 70.294 43.4871 70.228 43.5991 70.18C43.7151 70.128 43.8371 70.102 43.9651 70.102C44.0971 70.102 44.2211 70.128 44.3371 70.18C44.4531 70.228 44.5531 70.294 44.6371 70.378C44.7251 70.462 44.7951 70.562 44.8471 70.678C44.8991 70.794 44.9251 70.918 44.9251 71.05ZM51.782 72.844L49.34 79H47.996L45.554 72.844H46.778C46.89 72.844 46.982 72.87 47.054 72.922C47.13 72.974 47.18 73.04 47.204 73.12L48.392 76.408C48.456 76.6 48.512 76.788 48.56 76.972C48.608 77.156 48.65 77.34 48.686 77.524C48.726 77.34 48.77 77.156 48.818 76.972C48.866 76.788 48.924 76.6 48.992 76.408L50.204 73.12C50.232 73.04 50.282 72.974 50.354 72.922C50.426 72.87 50.512 72.844 50.612 72.844H51.782ZM56.3503 75.214C56.3503 75.022 56.3223 74.842 56.2663 74.674C56.2143 74.502 56.1343 74.352 56.0263 74.224C55.9183 74.096 55.7803 73.996 55.6123 73.924C55.4483 73.848 55.2563 73.81 55.0363 73.81C54.6083 73.81 54.2703 73.932 54.0223 74.176C53.7783 74.42 53.6223 74.766 53.5543 75.214H56.3503ZM53.5243 76.108C53.5483 76.424 53.6043 76.698 53.6923 76.93C53.7803 77.158 53.8963 77.348 54.0403 77.5C54.1843 77.648 54.3543 77.76 54.5503 77.836C54.7503 77.908 54.9703 77.944 55.2103 77.944C55.4503 77.944 55.6563 77.916 55.8283 77.86C56.0043 77.804 56.1563 77.742 56.2843 77.674C56.4163 77.606 56.5303 77.544 56.6263 77.488C56.7263 77.432 56.8223 77.404 56.9143 77.404C57.0383 77.404 57.1303 77.45 57.1903 77.542L57.6163 78.082C57.4523 78.274 57.2683 78.436 57.0643 78.568C56.8603 78.696 56.6463 78.8 56.4223 78.88C56.2023 78.956 55.9763 79.01 55.7443 79.042C55.5163 79.074 55.2943 79.09 55.0783 79.09C54.6503 79.09 54.2523 79.02 53.8843 78.88C53.5163 78.736 53.1963 78.526 52.9243 78.25C52.6523 77.97 52.4383 77.626 52.2823 77.218C52.1263 76.806 52.0483 76.33 52.0483 75.79C52.0483 75.37 52.1163 74.976 52.2523 74.608C52.3883 74.236 52.5823 73.914 52.8343 73.642C53.0903 73.366 53.4003 73.148 53.7643 72.988C54.1323 72.828 54.5463 72.748 55.0063 72.748C55.3943 72.748 55.7523 72.81 56.0803 72.934C56.4083 73.058 56.6903 73.24 56.9263 73.48C57.1623 73.716 57.3463 74.008 57.4783 74.356C57.6143 74.7 57.6823 75.094 57.6823 75.538C57.6823 75.762 57.6583 75.914 57.6103 75.994C57.5623 76.07 57.4703 76.108 57.3343 76.108H53.5243ZM60.1925 73.912C60.3845 73.544 60.6125 73.256 60.8765 73.048C61.1405 72.836 61.4525 72.73 61.8125 72.73C62.0965 72.73 62.3245 72.792 62.4965 72.916L62.4005 74.026C62.3805 74.098 62.3505 74.15 62.3105 74.182C62.2745 74.21 62.2245 74.224 62.1605 74.224C62.1005 74.224 62.0105 74.214 61.8905 74.194C61.7745 74.174 61.6605 74.164 61.5485 74.164C61.3845 74.164 61.2385 74.188 61.1105 74.236C60.9825 74.284 60.8665 74.354 60.7625 74.446C60.6625 74.534 60.5725 74.642 60.4925 74.77C60.4165 74.898 60.3445 75.044 60.2765 75.208V79H58.7945V72.844H59.6645C59.8165 72.844 59.9225 72.872 59.9825 72.928C60.0425 72.98 60.0825 73.076 60.1025 73.216L60.1925 73.912ZM73.4792 70.324V79H71.8592V75.208H67.7852V79H66.1652V70.324H67.7852V74.056H71.8592V70.324H73.4792ZM78.277 76.372C77.849 76.392 77.489 76.43 77.197 76.486C76.905 76.538 76.671 76.606 76.495 76.69C76.319 76.774 76.193 76.872 76.117 76.984C76.041 77.096 76.003 77.218 76.003 77.35C76.003 77.61 76.079 77.796 76.231 77.908C76.387 78.02 76.589 78.076 76.837 78.076C77.141 78.076 77.403 78.022 77.623 77.914C77.847 77.802 78.065 77.634 78.277 77.41V76.372ZM74.881 73.702C75.589 73.054 76.441 72.73 77.437 72.73C77.797 72.73 78.119 72.79 78.403 72.91C78.687 73.026 78.927 73.19 79.123 73.402C79.319 73.61 79.467 73.86 79.567 74.152C79.671 74.444 79.723 74.764 79.723 75.112V79H79.051C78.911 79 78.803 78.98 78.727 78.94C78.651 78.896 78.591 78.81 78.547 78.682L78.415 78.238C78.259 78.378 78.107 78.502 77.959 78.61C77.811 78.714 77.657 78.802 77.497 78.874C77.337 78.946 77.165 79 76.981 79.036C76.801 79.076 76.601 79.096 76.381 79.096C76.121 79.096 75.881 79.062 75.661 78.994C75.441 78.922 75.251 78.816 75.091 78.676C74.931 78.536 74.807 78.362 74.719 78.154C74.631 77.946 74.587 77.704 74.587 77.428C74.587 77.272 74.613 77.118 74.665 76.966C74.717 76.81 74.801 76.662 74.917 76.522C75.037 76.382 75.191 76.25 75.379 76.126C75.567 76.002 75.797 75.894 76.069 75.802C76.345 75.71 76.665 75.636 77.029 75.58C77.393 75.52 77.809 75.484 78.277 75.472V75.112C78.277 74.7 78.189 74.396 78.013 74.2C77.837 74 77.583 73.9 77.251 73.9C77.011 73.9 76.811 73.928 76.651 73.984C76.495 74.04 76.357 74.104 76.237 74.176C76.117 74.244 76.007 74.306 75.907 74.362C75.811 74.418 75.703 74.446 75.583 74.446C75.479 74.446 75.391 74.42 75.319 74.368C75.247 74.312 75.189 74.248 75.145 74.176L74.881 73.702ZM82.5167 73.912C82.7087 73.544 82.9367 73.256 83.2007 73.048C83.4647 72.836 83.7767 72.73 84.1367 72.73C84.4207 72.73 84.6487 72.792 84.8207 72.916L84.7247 74.026C84.7047 74.098 84.6747 74.15 84.6347 74.182C84.5987 74.21 84.5487 74.224 84.4847 74.224C84.4247 74.224 84.3347 74.214 84.2147 74.194C84.0987 74.174 83.9847 74.164 83.8727 74.164C83.7087 74.164 83.5627 74.188 83.4347 74.236C83.3067 74.284 83.1907 74.354 83.0867 74.446C82.9867 74.534 82.8967 74.642 82.8167 74.77C82.7407 74.898 82.6687 75.044 82.6007 75.208V79H81.1187V72.844H81.9887C82.1407 72.844 82.2467 72.872 82.3067 72.928C82.3667 72.98 82.4067 73.076 82.4267 73.216L82.5167 73.912ZM89.2952 74.416C89.1272 74.212 88.9432 74.068 88.7432 73.984C88.5472 73.9 88.3352 73.858 88.1072 73.858C87.8832 73.858 87.6812 73.9 87.5012 73.984C87.3212 74.068 87.1672 74.196 87.0392 74.368C86.9112 74.536 86.8132 74.752 86.7452 75.016C86.6772 75.276 86.6432 75.584 86.6432 75.94C86.6432 76.3 86.6712 76.606 86.7272 76.858C86.7872 77.106 86.8712 77.31 86.9792 77.47C87.0872 77.626 87.2192 77.74 87.3752 77.812C87.5312 77.88 87.7052 77.914 87.8972 77.914C88.2052 77.914 88.4672 77.85 88.6832 77.722C88.8992 77.594 89.1032 77.412 89.2952 77.176V74.416ZM90.7772 70.084V79H89.8712C89.6752 79 89.5512 78.91 89.4992 78.73L89.3732 78.136C89.1252 78.42 88.8392 78.65 88.5152 78.826C88.1952 79.002 87.8212 79.09 87.3932 79.09C87.0572 79.09 86.7492 79.02 86.4692 78.88C86.1892 78.74 85.9472 78.538 85.7432 78.274C85.5432 78.006 85.3872 77.676 85.2752 77.284C85.1672 76.892 85.1132 76.444 85.1132 75.94C85.1132 75.484 85.1752 75.06 85.2992 74.668C85.4232 74.276 85.6012 73.936 85.8332 73.648C86.0652 73.36 86.3432 73.136 86.6672 72.976C86.9912 72.812 87.3552 72.73 87.7592 72.73C88.1032 72.73 88.3972 72.784 88.6412 72.892C88.8852 73 89.1032 73.146 89.2952 73.33V70.084H90.7772ZM96.2058 75.214C96.2058 75.022 96.1778 74.842 96.1218 74.674C96.0698 74.502 95.9898 74.352 95.8818 74.224C95.7738 74.096 95.6358 73.996 95.4678 73.924C95.3038 73.848 95.1118 73.81 94.8918 73.81C94.4638 73.81 94.1258 73.932 93.8778 74.176C93.6338 74.42 93.4778 74.766 93.4098 75.214H96.2058ZM93.3798 76.108C93.4038 76.424 93.4598 76.698 93.5478 76.93C93.6358 77.158 93.7518 77.348 93.8958 77.5C94.0398 77.648 94.2098 77.76 94.4058 77.836C94.6058 77.908 94.8258 77.944 95.0658 77.944C95.3058 77.944 95.5118 77.916 95.6838 77.86C95.8598 77.804 96.0118 77.742 96.1398 77.674C96.2718 77.606 96.3858 77.544 96.4818 77.488C96.5818 77.432 96.6778 77.404 96.7698 77.404C96.8938 77.404 96.9858 77.45 97.0458 77.542L97.4718 78.082C97.3078 78.274 97.1238 78.436 96.9198 78.568C96.7158 78.696 96.5018 78.8 96.2778 78.88C96.0578 78.956 95.8318 79.01 95.5998 79.042C95.3718 79.074 95.1498 79.09 94.9338 79.09C94.5058 79.09 94.1078 79.02 93.7398 78.88C93.3718 78.736 93.0518 78.526 92.7798 78.25C92.5078 77.97 92.2938 77.626 92.1378 77.218C91.9818 76.806 91.9038 76.33 91.9038 75.79C91.9038 75.37 91.9718 74.976 92.1078 74.608C92.2438 74.236 92.4378 73.914 92.6898 73.642C92.9458 73.366 93.2558 73.148 93.6198 72.988C93.9878 72.828 94.4018 72.748 94.8618 72.748C95.2498 72.748 95.6078 72.81 95.9358 72.934C96.2638 73.058 96.5458 73.24 96.7818 73.48C97.0178 73.716 97.2018 74.008 97.3338 74.356C97.4698 74.7 97.5378 75.094 97.5378 75.538C97.5378 75.762 97.5138 75.914 97.4658 75.994C97.4178 76.07 97.3258 76.108 97.1898 76.108H93.3798ZM100.036 73.6C100.16 73.476 100.29 73.362 100.426 73.258C100.566 73.15 100.712 73.06 100.864 72.988C101.02 72.912 101.186 72.854 101.362 72.814C101.538 72.77 101.73 72.748 101.938 72.748C102.274 72.748 102.572 72.806 102.832 72.922C103.092 73.034 103.308 73.194 103.48 73.402C103.656 73.606 103.788 73.852 103.876 74.14C103.968 74.424 104.014 74.738 104.014 75.082V79H102.532V75.082C102.532 74.706 102.446 74.416 102.274 74.212C102.102 74.004 101.84 73.9 101.488 73.9C101.232 73.9 100.992 73.958 100.768 74.074C100.544 74.19 100.332 74.348 100.132 74.548V79H98.65V72.844H99.556C99.748 72.844 99.874 72.934 99.934 73.114L100.036 73.6ZM105.399 80.47C105.327 80.41 105.291 80.336 105.291 80.248C105.291 80.216 105.301 80.18 105.321 80.14C105.345 80.1 105.373 80.064 105.405 80.032C105.449 79.984 105.503 79.924 105.567 79.852C105.631 79.784 105.695 79.704 105.759 79.612C105.823 79.524 105.881 79.426 105.933 79.318C105.989 79.214 106.031 79.102 106.059 78.982C105.931 78.982 105.815 78.96 105.711 78.916C105.607 78.868 105.517 78.804 105.441 78.724C105.369 78.644 105.311 78.55 105.267 78.442C105.227 78.334 105.207 78.216 105.207 78.088C105.207 77.976 105.227 77.872 105.267 77.776C105.311 77.676 105.371 77.59 105.447 77.518C105.523 77.442 105.615 77.384 105.723 77.344C105.831 77.3 105.949 77.278 106.077 77.278C106.229 77.278 106.361 77.306 106.473 77.362C106.589 77.414 106.683 77.488 106.755 77.584C106.831 77.676 106.887 77.784 106.923 77.908C106.963 78.028 106.983 78.156 106.983 78.292C106.983 78.484 106.953 78.686 106.893 78.898C106.837 79.11 106.753 79.322 106.641 79.534C106.529 79.746 106.389 79.952 106.221 80.152C106.057 80.352 105.869 80.536 105.657 80.704L105.399 80.47ZM116.308 77.62C116.468 77.62 116.594 77.666 116.686 77.758C116.782 77.846 116.83 77.964 116.83 78.112V79H110.878V78.508C110.878 78.408 110.898 78.304 110.938 78.196C110.982 78.084 111.05 77.984 111.142 77.896L113.776 75.256C113.996 75.032 114.192 74.818 114.364 74.614C114.54 74.41 114.686 74.208 114.802 74.008C114.918 73.808 115.006 73.606 115.066 73.402C115.13 73.194 115.162 72.976 115.162 72.748C115.162 72.54 115.132 72.358 115.072 72.202C115.012 72.042 114.926 71.908 114.814 71.8C114.706 71.692 114.574 71.612 114.418 71.56C114.266 71.504 114.094 71.476 113.902 71.476C113.726 71.476 113.562 71.502 113.41 71.554C113.262 71.602 113.13 71.672 113.014 71.764C112.898 71.852 112.8 71.956 112.72 72.076C112.64 72.196 112.58 72.328 112.54 72.472C112.472 72.656 112.384 72.778 112.276 72.838C112.168 72.898 112.012 72.912 111.808 72.88L111.028 72.742C111.088 72.326 111.204 71.962 111.376 71.65C111.548 71.334 111.762 71.072 112.018 70.864C112.278 70.652 112.574 70.494 112.906 70.39C113.242 70.282 113.602 70.228 113.986 70.228C114.386 70.228 114.752 70.288 115.084 70.408C115.416 70.524 115.7 70.69 115.936 70.906C116.172 71.122 116.356 71.382 116.488 71.686C116.62 71.99 116.686 72.328 116.686 72.7C116.686 73.02 116.638 73.316 116.542 73.588C116.45 73.86 116.324 74.12 116.164 74.368C116.008 74.616 115.824 74.856 115.612 75.088C115.4 75.32 115.178 75.556 114.946 75.796L112.99 77.794C113.178 77.738 113.364 77.696 113.548 77.668C113.736 77.636 113.914 77.62 114.082 77.62H116.308ZM124.043 74.662C124.043 75.418 123.961 76.076 123.797 76.636C123.637 77.192 123.413 77.652 123.125 78.016C122.841 78.38 122.503 78.652 122.111 78.832C121.723 79.008 121.303 79.096 120.851 79.096C120.399 79.096 119.979 79.008 119.591 78.832C119.207 78.652 118.873 78.38 118.589 78.016C118.305 77.652 118.083 77.192 117.923 76.636C117.763 76.076 117.683 75.418 117.683 74.662C117.683 73.902 117.763 73.244 117.923 72.688C118.083 72.132 118.305 71.672 118.589 71.308C118.873 70.944 119.207 70.674 119.591 70.498C119.979 70.318 120.399 70.228 120.851 70.228C121.303 70.228 121.723 70.318 122.111 70.498C122.503 70.674 122.841 70.944 123.125 71.308C123.413 71.672 123.637 72.132 123.797 72.688C123.961 73.244 124.043 73.902 124.043 74.662ZM122.513 74.662C122.513 74.034 122.467 73.514 122.375 73.102C122.283 72.69 122.159 72.362 122.003 72.118C121.851 71.874 121.675 71.704 121.475 71.608C121.275 71.508 121.067 71.458 120.851 71.458C120.639 71.458 120.433 71.508 120.233 71.608C120.037 71.704 119.863 71.874 119.711 72.118C119.559 72.362 119.437 72.69 119.345 73.102C119.257 73.514 119.213 74.034 119.213 74.662C119.213 75.29 119.257 75.81 119.345 76.222C119.437 76.634 119.559 76.962 119.711 77.206C119.863 77.45 120.037 77.622 120.233 77.722C120.433 77.818 120.639 77.866 120.851 77.866C121.067 77.866 121.275 77.818 121.475 77.722C121.675 77.622 121.851 77.45 122.003 77.206C122.159 76.962 122.283 76.634 122.375 76.222C122.467 75.81 122.513 75.29 122.513 74.662ZM130.23 77.62C130.39 77.62 130.516 77.666 130.608 77.758C130.704 77.846 130.752 77.964 130.752 78.112V79H124.8V78.508C124.8 78.408 124.82 78.304 124.86 78.196C124.904 78.084 124.972 77.984 125.064 77.896L127.698 75.256C127.918 75.032 128.114 74.818 128.286 74.614C128.462 74.41 128.608 74.208 128.724 74.008C128.84 73.808 128.928 73.606 128.988 73.402C129.052 73.194 129.084 72.976 129.084 72.748C129.084 72.54 129.054 72.358 128.994 72.202C128.934 72.042 128.848 71.908 128.736 71.8C128.628 71.692 128.496 71.612 128.34 71.56C128.188 71.504 128.016 71.476 127.824 71.476C127.648 71.476 127.484 71.502 127.332 71.554C127.184 71.602 127.052 71.672 126.936 71.764C126.82 71.852 126.722 71.956 126.642 72.076C126.562 72.196 126.502 72.328 126.462 72.472C126.394 72.656 126.306 72.778 126.198 72.838C126.09 72.898 125.934 72.912 125.73 72.88L124.95 72.742C125.01 72.326 125.126 71.962 125.298 71.65C125.47 71.334 125.684 71.072 125.94 70.864C126.2 70.652 126.496 70.494 126.828 70.39C127.164 70.282 127.524 70.228 127.908 70.228C128.308 70.228 128.674 70.288 129.006 70.408C129.338 70.524 129.622 70.69 129.858 70.906C130.094 71.122 130.278 71.382 130.41 71.686C130.542 71.99 130.608 72.328 130.608 72.7C130.608 73.02 130.56 73.316 130.464 73.588C130.372 73.86 130.246 74.12 130.086 74.368C129.93 74.616 129.746 74.856 129.534 75.088C129.322 75.32 129.1 75.556 128.868 75.796L126.912 77.794C127.1 77.738 127.286 77.696 127.47 77.668C127.658 77.636 127.836 77.62 128.004 77.62H130.23ZM131.953 72.742C132.013 72.326 132.129 71.962 132.301 71.65C132.473 71.334 132.687 71.072 132.943 70.864C133.203 70.652 133.499 70.494 133.831 70.39C134.167 70.282 134.527 70.228 134.911 70.228C135.311 70.228 135.671 70.286 135.991 70.402C136.315 70.514 136.591 70.672 136.819 70.876C137.047 71.076 137.221 71.312 137.341 71.584C137.465 71.856 137.527 72.15 137.527 72.466C137.527 72.742 137.495 72.986 137.431 73.198C137.371 73.406 137.283 73.588 137.167 73.744C137.051 73.9 136.907 74.032 136.735 74.14C136.563 74.248 136.369 74.338 136.153 74.41C136.673 74.574 137.061 74.824 137.317 75.16C137.573 75.496 137.701 75.918 137.701 76.426C137.701 76.858 137.621 77.24 137.461 77.572C137.301 77.904 137.085 78.184 136.813 78.412C136.541 78.636 136.225 78.806 135.865 78.922C135.509 79.038 135.131 79.096 134.731 79.096C134.295 79.096 133.915 79.046 133.591 78.946C133.267 78.846 132.985 78.698 132.745 78.502C132.505 78.306 132.301 78.066 132.133 77.782C131.965 77.498 131.821 77.17 131.701 76.798L132.355 76.528C132.527 76.456 132.687 76.438 132.835 76.474C132.987 76.506 133.097 76.586 133.165 76.714C133.237 76.854 133.315 76.992 133.399 77.128C133.487 77.264 133.591 77.386 133.711 77.494C133.831 77.598 133.971 77.684 134.131 77.752C134.295 77.816 134.489 77.848 134.713 77.848C134.965 77.848 135.185 77.808 135.373 77.728C135.561 77.644 135.717 77.536 135.841 77.404C135.969 77.272 136.063 77.126 136.123 76.966C136.187 76.802 136.219 76.638 136.219 76.474C136.219 76.266 136.197 76.078 136.153 75.91C136.109 75.738 136.017 75.592 135.877 75.472C135.737 75.352 135.535 75.258 135.271 75.19C135.011 75.122 134.661 75.088 134.221 75.088V74.032C134.585 74.028 134.887 73.994 135.127 73.93C135.367 73.866 135.557 73.778 135.697 73.666C135.841 73.55 135.941 73.412 135.997 73.252C136.053 73.092 136.081 72.916 136.081 72.724C136.081 72.316 135.967 72.006 135.739 71.794C135.511 71.582 135.207 71.476 134.827 71.476C134.651 71.476 134.489 71.502 134.341 71.554C134.193 71.602 134.059 71.672 133.939 71.764C133.823 71.852 133.725 71.956 133.645 72.076C133.565 72.196 133.505 72.328 133.465 72.472C133.397 72.656 133.307 72.778 133.195 72.838C133.087 72.898 132.933 72.912 132.733 72.88L131.953 72.742Z" fill="#134E78"/>
<path d="M10.672 15.896C10.2027 15.1173 9.888 14.3013 9.728 13.448C9.568 12.584 9.552 11.7307 9.68 10.888C9.808 10.0453 10.08 9.24 10.496 8.472C10.9227 7.704 11.488 7.016 12.192 6.408L13.168 7C13.3387 7.11733 13.4133 7.26133 13.392 7.432C13.3707 7.592 13.312 7.72533 13.216 7.832C12.96 8.152 12.7307 8.552 12.528 9.032C12.336 9.50133 12.208 10.0133 12.144 10.568C12.08 11.1227 12.1013 11.6987 12.208 12.296C12.3147 12.8933 12.5387 13.48 12.88 14.056C13.0293 14.3013 13.072 14.52 13.008 14.712C12.944 14.904 12.8053 15.0427 12.592 15.128L10.672 15.896ZM15.648 15.896C15.1787 15.1173 14.864 14.3013 14.704 13.448C14.544 12.584 14.528 11.7307 14.656 10.888C14.784 10.0453 15.056 9.24 15.472 8.472C15.8987 7.704 16.464 7.016 17.168 6.408L18.144 7C18.3147 7.11733 18.3893 7.26133 18.368 7.432C18.3467 7.592 18.288 7.72533 18.192 7.832C17.936 8.152 17.7067 8.552 17.504 9.032C17.312 9.50133 17.184 10.0133 17.12 10.568C17.056 11.1227 17.0773 11.6987 17.184 12.296C17.2907 12.8933 17.5147 13.48 17.856 14.056C18.0053 14.3013 18.048 14.52 17.984 14.712C17.92 14.904 17.7813 15.0427 17.568 15.128L15.648 15.896Z" fill="#134E78"/>
<path d="M112.32 51.488C112.789 52.2667 113.104 53.088 113.264 53.952C113.435 54.8053 113.456 55.6533 113.328 56.496C113.2 57.328 112.923 58.1333 112.496 58.912C112.069 59.68 111.504 60.368 110.8 60.976L109.84 60.368C109.659 60.2507 109.579 60.112 109.6 59.952C109.621 59.7813 109.68 59.648 109.776 59.552C110.043 59.232 110.272 58.8373 110.464 58.368C110.667 57.888 110.8 57.3707 110.864 56.816C110.928 56.2507 110.907 55.6693 110.8 55.072C110.693 54.4747 110.469 53.888 110.128 53.312C109.979 53.0667 109.936 52.848 110 52.656C110.064 52.464 110.203 52.3253 110.416 52.24L112.32 51.488ZM117.296 51.488C117.765 52.2667 118.08 53.088 118.24 53.952C118.411 54.8053 118.432 55.6533 118.304 56.496C118.176 57.328 117.899 58.1333 117.472 58.912C117.045 59.68 116.48 60.368 115.776 60.976L114.816 60.368C114.635 60.2507 114.555 60.112 114.576 59.952C114.597 59.7813 114.656 59.648 114.752 59.552C115.019 59.232 115.248 58.8373 115.44 58.368C115.643 57.888 115.776 57.3707 115.84 56.816C115.904 56.2507 115.883 55.6693 115.776 55.072C115.669 54.4747 115.445 53.888 115.104 53.312C114.955 53.0667 114.912 52.848 114.976 52.656C115.04 52.464 115.179 52.3253 115.392 52.24L117.296 51.488Z" fill="#134E78"/>
</g>
<defs>
<clipPath id="clip0_6612_1194">
<rect width="229" height="89" fill="white"/>
</clipPath>
</defs>
</svg>
