<svg width="229" height="535" viewBox="0 0 229 535" fill="none" xmlns="http://www.w3.org/2000/svg">
<g clip-path="url(#clip0_6612_1154)">
<rect width="229" height="535" fill="white"/>
<path d="M26 511C26 511 55.0193 514.14 128.359 514.14C172.152 514.14 217 512.047 217 512.047V567H26V511Z" fill="#212121"/>
<path d="M217 512C217 515.012 168.494 518 115.169 518C61.8425 518 26 513.921 26 510.909C26 507.091 67.6464 500 120.972 500C174.298 500 217 506.545 217 512Z" fill="#414141"/>
<path d="M127.714 171.556C127.714 170.778 129.429 170.852 129.429 171.556C129.429 175.538 130 184 130 184C130 184 127.143 183.004 127.143 182.009C127.143 181.013 126 180.169 126 178.525C126 175.04 127.714 176.036 127.714 171.556Z" fill="#EDC597"/>
<path d="M133.017 168.948C137.339 167.217 141.831 165.228 146.365 166.305C153.419 167.979 160.448 171.014 162.384 177.935C163.165 180.727 163.245 183.095 162.384 185.865C160.248 192.737 154.909 201.724 154.909 202.253C154.909 208.501 145.284 202.459 139.424 200.138C131.415 196.966 129.279 185.138 129.279 186.922C129.279 188.706 127.481 171.164 133.017 168.948Z" fill="#EDC597"/>
<path d="M24.9866 54.2835C26.1891 52.6162 27.9012 51.5772 29.6912 50.5851C31.9553 49.3301 35.4413 49 35.4413 49L40 55.5C40 55.5 34.9185 53.7552 31.7821 54.8119C29.7234 55.5055 28.2858 56.9253 27.6002 58.5104C26.7825 60.401 26.5603 61.7979 27.0775 63.7939C27.9583 67.193 29.7716 67.7279 32.3049 70.1342C35.4004 73.0744 39.3725 73.9706 40.6686 78.0595C41.4807 80.6215 42.9084 81.8158 41.1913 83.8714C40.5328 84.6596 38.5777 84.4247 38.5777 85.4564C38.5777 86.4881 40.5792 85.6876 41.1913 86.5131C42.3 88.0083 41.7141 91.2683 41.7141 91.2683C41.7141 91.2683 40.1458 93.5973 40.1458 92.8534C40.1458 91.2683 40.2524 90.9963 39.6231 89.6832C38.2676 86.8548 34.6762 88.0176 32.3049 85.9848C31.6443 85.4186 31.1762 85.154 30.7366 84.3997C30.1064 83.3183 29.9792 82.0821 30.2139 81.2296C30.601 79.824 31.3841 78.5878 32.8276 78.5878C33.4731 78.5878 34.9185 78.5878 35.4413 80.7012C35.4413 81.7579 34.9185 82.8146 33.8731 82.8146C32.8276 82.8146 32.1374 82.1586 32.3048 83.343C32.3865 83.9207 32.8632 84.0864 33.3503 84.3997C34.5559 85.1751 37.0094 84.3997 37.0094 84.3997C37.0094 84.3997 38.0196 83.6784 38.5777 82.8146C39.4706 81.4326 39.0263 80.175 38.5776 78.5878C37.6815 75.4177 30.2139 73.3043 26.5548 69.0774C24.9871 67.2666 24.0353 66.6463 23.4184 64.3223C22.8365 62.1301 22.8851 60.1868 23.4184 57.982C23.7875 56.4556 24.0707 55.5533 24.9866 54.2835Z" fill="#E7AF00"/>
<path d="M92.5 226C92.5127 225.924 92.1594 224.33 92 224C89.4772 218.774 66.9417 184.868 63.7588 174.988C61.2208 167.11 59 145.05 59 145.05L79.6215 144C79.6215 144 85.5259 168.685 85.9666 169.211C88.6103 172.362 100.243 184.967 101.829 190.22C102.183 191.39 103.837 191.63 103.416 189.694C102.642 186.147 100.243 177.614 97.0704 172.362C98.1279 165.534 93.4747 155.03 93.4747 155.03L106 147C106 147 111.347 158.181 112.404 160.447C112.577 160.741 112.754 161.037 112.933 161.332C114.486 163.893 119.807 167.11 119.807 170.786C120.284 171.607 122.732 173.378 122.451 173.938C121.129 176.564 127.738 180.24 130.911 189.694C134.083 189.694 133.555 191.358 133.555 191.795C133.555 192.846 132.57 193.443 133.026 193.896C136.198 197.047 143.102 201.779 148 202.5C150.644 202.889 153.28 202.482 153.647 202.3C155.502 201.378 155.234 200.199 156.82 199.148C157.442 198.736 156.971 204.688 158.406 204.926C161.579 205.451 160.521 208.077 162.636 208.077C164.188 208.077 163.442 209 164.5 209C166.172 209 173.26 213.339 174.798 216.481C176.245 219.438 176.074 222.128 175.855 225.409C175.424 231.882 172.117 235.11 170.568 241.166C169.438 245.58 168.981 252.196 168.452 252.721C167.047 254.117 165.856 255.743 164.751 257.448C162.116 261.517 160.235 266.039 158 269C152.7 276.019 149.705 296.794 149.417 298.941C148.36 306.819 148.889 321 148.889 321L82.5 282C82.5 282 85.0854 270.6 88 255.5C89.5533 247.452 90.63 237.22 92.5 226Z" fill="#134E78"/>
<mask id="mask0_6612_1154" style="mask-type:alpha" maskUnits="userSpaceOnUse" x="59" y="144" width="117" height="177">
<path d="M92.5 226C92.5127 225.924 92.1594 224.33 92 224C89.4772 218.774 66.9417 184.868 63.7588 174.988C61.2208 167.11 59 145.05 59 145.05L79.6215 144C79.6215 144 85.5259 168.685 85.9666 169.211C88.6103 172.362 100.243 184.967 101.829 190.22C102.183 191.39 103.837 191.63 103.416 189.694C102.642 186.147 100.243 177.614 97.0704 172.362C98.1279 165.534 93.4747 155.03 93.4747 155.03L106 147C106 147 111.347 158.181 112.404 160.447C112.577 160.741 112.754 161.037 112.933 161.332C114.486 163.893 119.807 167.11 119.807 170.786C120.284 171.607 122.732 173.378 122.451 173.938C121.129 176.564 127.738 180.24 130.911 189.694C134.083 189.694 133.555 191.358 133.555 191.795C133.555 192.846 132.57 193.443 133.026 193.896C136.198 197.047 143.102 202.779 148 203.5C150.644 203.889 153.28 202.482 153.647 202.3C155.502 201.378 155.234 200.199 156.82 199.148C157.442 198.736 156.971 204.688 158.406 204.926C161.579 205.451 160.521 208.077 162.636 208.077C164.188 208.077 163.442 209 164.5 209C166.172 209 173.26 213.339 174.798 216.481C176.245 219.438 176.074 222.128 175.855 225.409C175.424 231.882 172.117 235.11 170.568 241.166C169.438 245.58 168.981 252.196 168.452 252.721C167.047 254.117 165.856 255.743 164.751 257.448C162.116 261.517 160.235 266.039 158 269C152.7 276.019 149.705 296.794 149.417 298.941C148.36 306.819 148.889 321 148.889 321L82.5 282C82.5 282 85.0854 270.6 88 255.5C89.5533 247.452 90.63 237.22 92.5 226Z" fill="#134E78"/>
</mask>
<g mask="url(#mask0_6612_1154)">
<path d="M102 184C102 184 102.504 186.877 103.053 188.229C103.769 189.991 105.238 191.882 106.213 193.514C109.373 198.8 111.909 202.441 115.693 207.786C120.158 214.093 132.715 226.28 138.339 231.571C146.765 239.5 164.672 258 164.672 258C164.672 258 166.252 255.357 168.358 253.243C169.411 250.071 170.465 241.086 170.991 240.029C171.518 238.971 147.73 232.346 138.339 224.171C130.532 217.375 125.833 213.849 118.853 206.2C111.518 198.163 102 184 102 184Z" fill="#002642"/>
</g>
<path d="M62.6667 175.013C60.5714 169.231 59 145.051 59 145.051L79.4286 144C79.4286 144 83.6721 159.605 85.7143 169.756C90.0728 191.422 92.5 226 92.5 226C92.3594 223.688 83.5534 210.798 82.5714 209.179C75.2381 197.09 65.1014 181.732 62.6667 175.013Z" fill="#002642"/>
<path d="M43 47.5C48.4044 44.3855 60.2202 42 66 42C72.7994 42 75.3219 42.4618 79 43.5C82.236 44.4134 86.1271 47.6717 86.9798 49.7481C87.193 50.2672 85.6546 55.3619 85.4035 59.0916C85.1298 63.1571 84.878 65.3205 85.9289 69.9923C87.8615 78.5838 72.2151 65.6496 63.3351 66.3587C54.7937 67.0407 41.567 77.7785 42.3176 72.5877C42.843 68.9541 44.0114 66.3694 43.3685 62.7251C42.7216 59.0591 42.3176 57.0152 39.165 54.9389C38.0204 54.1851 37.7942 50.5 43 47.5Z" fill="#E7AF00"/>
<path d="M60 17.3636V13H63.5V17.3636L70 25H55L60 17.3636Z" fill="#E7AF00"/>
<path d="M40.5 31.5C44.9125 27.2307 48.2931 27.2919 53.5 26C55.6362 25.4699 65.0233 23.9399 72.5 25C77.0703 25.648 79.5992 26.5492 83.5 29C86.3687 30.8023 88.6658 33.223 89.5 35.5C90.3342 37.7769 90.1658 37.223 91 39.5C91.8342 41.7769 91.1402 42.7534 90.1485 44.7538C89.0746 46.9197 87.2646 50.5843 86.9442 50.0543C82.1377 42.1035 59.3718 40.1499 46.8902 46.3439C36.2092 51.6444 39.7387 55.931 38.3454 54.8247C35.6751 52.7045 32.8673 47.104 33.0049 42.1036C33.1292 37.5833 36.7575 35.1209 40.5 31.5Z" fill="#FFC200"/>
<path d="M61.7167 24.0093C64.047 24.0093 79.2491 23.4818 86.1558 30.3398C86.5955 30.7763 89.7256 33.0602 90.9374 36.6698C92 39.8349 92 40.89 92 40.89C92 40.89 88.8123 36.3589 78.7178 33.5047C72.9172 31.8645 68.805 31.6682 62.7792 31.9221C55.6224 32.2237 48.4345 33.5047 45.7781 34.5597C33.3008 39.5152 33.0272 43 33.0272 43C33.0272 43 31.9646 35.0872 43.1217 28.2295C46.8407 25.9436 57.4662 24.0093 61.7167 24.0093Z" fill="#E7AF00"/>
<path d="M89.7573 39.2938C89.7573 39.2938 95.7366 38.6327 97.3673 39.2938C99.3237 40.0869 100.433 40.8056 101.716 42.4339C102.576 43.5262 102.875 44.2804 103.346 45.574C104.333 48.2807 104.094 50.1241 103.346 52.9009C102.599 55.6777 100.826 57.34 98.998 59.7045C96.5702 62.8446 92.2504 66.1104 91.388 68.6014C90.8468 70.1646 90.3009 70.6948 90.3009 72.2649C90.3009 73.2868 90.9247 74.5585 91.9316 74.8816C93.5623 75.405 95.193 74.8816 96.2801 74.3583C97.4959 73.773 98.8029 72.9135 98.4544 72.2649C98.1059 71.6162 96.5019 73.0018 95.7366 72.2649C94.9712 71.528 94.8004 70.6193 95.193 69.6481C95.5779 68.6958 96.3115 68.1832 97.3673 68.0781C98.5985 67.9554 99.5226 68.5866 100.085 69.6481C100.302 70.057 100.278 71.26 100.085 72.2649C99.9607 72.9114 98.9979 74.8816 97.9108 75.9283C95.989 77.7786 89.9385 80.1151 89.7573 82.7319C89.7291 83.1397 89.6698 82.8552 89.7573 83.2552C89.915 83.9763 90.3009 84.3019 90.8444 84.8253C91.4633 85.4211 88.6702 84.3019 88.6702 84.3019L88.1266 76.975C88.1266 76.975 90.8445 77.6434 90.8445 76.4517C90.8445 74.8816 87.0395 73.8349 87.0395 73.8349C87.0395 73.8349 86.9506 73.6013 87.0395 72.7882C87.3376 70.0612 89.1917 67.2744 90.3009 65.4613C93.8578 59.6473 98.998 56.041 100.085 51.8542C100.651 49.6732 100.629 49.2375 100.085 47.1441C99.7554 45.8745 98.6567 44.4178 97.3673 44.004C95.7366 43.4806 93.4019 43.881 91.388 44.5273C89.3742 45.1736 88.1266 47.1441 88.1266 47.1441L89.7573 39.2938Z" fill="#E7AF00"/>
<path d="M41.2333 73.9179C42.1518 70.2606 54.61 66.5889 63.8044 66.0808C73.3979 65.5506 85.6255 67.6482 87.4253 71.828C88.2737 73.7985 89 80.7101 89 86.9797C89 87.5022 74.9751 77.4134 65.3791 77.5752C55.0983 77.7486 41.2333 87.5022 41.2333 86.9797C41.2333 84.8898 40.7084 76.0078 41.2333 73.9179Z" fill="#FFC200"/>
<path d="M41.0286 86.4958C41.0286 82.8148 54.4729 77.504 65.2849 77.0305C74.3673 76.6327 87.1653 80.1856 88.4866 84.3924C89.3123 87.0216 89.0139 88.0734 88.4866 91.7543C88.0346 94.9094 77.01 102.819 67.9215 103.849C56.6604 105.125 43.5284 98.0645 41.556 92.2802C40.8147 90.1064 41.0287 88.7918 41.0286 86.4958Z" fill="#CE9C00"/>
<path d="M56.5 113L69.1944 102H75L72.8889 114.923L56 116L56.5 113Z" fill="#CE9C00"/>
<path d="M55 109.669C55 109.142 56.4204 108.578 56.5644 107.558C56.6555 106.912 56.1434 106.618 56.0429 105.974C55.9476 105.363 56.1324 104.3 56.5644 103.863C57.0858 103.335 57.1194 103.529 57.6073 102.807C58.4445 101.568 57.3721 100.402 58.1288 99.1116C58.6502 98.2221 64.108 97 64.3863 97C64.6646 97 69.0794 97 69.6009 97.5279C70.1224 98.0558 70.1224 99.1116 69.6009 99.1116C69.0794 99.1116 62.3005 100.167 62.3005 100.167C62.3005 100.167 61.7078 100.321 61.779 100.695C61.779 101.223 62.4093 101.223 63.3434 101.223C65.9507 101.223 69.0162 101.906 70.1224 102.279C71.6868 102.807 71.6868 104.391 71.6868 104.918C71.6868 105.974 71.1653 105.446 72.2082 105.974C72.519 106.132 73.2511 107.558 72.7297 108.086C71.6868 109.142 71.7754 108.909 72.7297 110.197C74.2941 112.309 68.558 111.253 68.558 111.253C68.558 111.253 64.9529 110.998 63.3434 111.253C59.9231 111.795 57.0858 115.476 56.5644 114.948C56.0429 114.42 56.0429 114.42 56.0429 112.309C55.5215 112.309 55 110.197 55 109.669Z" fill="#EDC597"/>
<path d="M73.9162 99.5932C74.8076 99.0698 75.7197 98.5729 76.417 99.5931C76.8819 100.273 77.1034 100.882 76.9535 101.686C76.5787 103.697 74.2711 106.476 73.9162 105.93C73.1981 104.826 71.5325 103.421 72.1251 101.686C72.4999 100.59 72.9007 100.189 73.9162 99.5932Z" fill="#EDC597"/>
<path d="M46.9796 119.506C48.1868 116.836 56.4431 113.413 65.7809 113.052C73.7929 112.743 83.2564 113.783 86.2852 116.694C90.233 120.488 93.7714 128.87 95.8744 130.951C100.495 135.524 89.7452 138.81 84.3079 142.397C80.1019 145.171 64.9298 144.998 57.4946 144.998C54.3401 144.998 41.683 142.245 40.1448 136.674C38.9957 132.512 45.0023 123.879 46.9796 119.506Z" fill="#E7AF00"/>
<path d="M97.9902 133.873C98.5208 141.483 77.5803 146.544 67.5 146C53.706 147.087 41.753 142.571 40.1614 137.134C38.0393 126.805 57.3277 123 69.3411 123C81.3544 123 92.6848 125.175 97.9902 133.873Z" fill="#FFC200"/>
<path d="M91.6067 150.162C90.7257 148.646 90.0192 148.039 87.9025 145.916C85.8587 143.866 87.1256 143.891 85.7859 142.732C81.5877 139.099 74.6733 137.425 72.5566 135.833C72.2121 135.573 71.4983 133.71 72.5566 132.648C72.5566 129.995 72.5566 128.933 73.0858 128.403C73.7431 127.194 75.4108 127.237 76.2608 126.81C77.3192 126.28 83.6692 126.28 86.315 126.28C90.0568 126.28 97.4276 135.302 95.8401 131.056C95.2525 129.485 92.1359 125.749 92.1359 125.749C92.1359 125.749 90.5484 123.612 90.5484 122.034C90.5484 121.503 97.4276 127.341 101.132 130.525C102.719 131.89 103.818 138.6 104.836 142.732C105.57 145.711 106 148.039 106 148.039L94.3583 156C94.3583 156 92.9596 152.49 91.6067 150.162Z" fill="#EDC597"/>
<path d="M158.216 159.352C156.498 158.333 155.198 158.517 153.392 157.721C151.955 157.088 151.508 156.113 150.03 155.614C148.422 155.07 144.888 154.276 142.599 154.645C141.741 154.783 137.261 157.456 136.764 159.06C136.46 160.042 136.215 160.29 135.71 161.157C134.911 162.528 135.247 161.326 133.601 162.206C132.175 162.969 131.299 164.318 130.438 165.876C129.524 167.533 129.402 168.658 129.384 170.596C129.368 172.225 129.196 171.614 129.384 173.217C129.129 176.055 129.384 178.461 129.384 178.461C129.384 178.461 132.02 174.266 133.074 172.169C133.52 171.282 132.986 170.781 135.183 168.498C136.506 167.123 140.97 168.264 142.563 167.974C146.253 167.303 153.552 167.798 154.161 169.547C154.243 169.781 154.171 169.813 154.161 170.071C154.113 171.27 155.204 171.081 155.544 172.19C155.914 173.398 156.075 174.131 156.096 175.434C156.118 176.721 155.664 178.716 155.664 178.716C155.664 178.716 156.548 176.616 156.69 175.178C156.807 173.992 156.098 172.107 156.529 172.152C156.87 172.188 157.109 172.27 157.311 172.588C158.007 173.68 156.396 175.956 157.324 177.412C157.977 178.437 159.641 177.134 160.487 177.936C161.252 178.662 161.507 180.947 161.372 182.131C161.014 185.277 161.372 187.115 161.372 187.115C161.372 187.115 164.705 183.18 165.759 181.082C168.464 175.702 166.83 176.833 166.436 173.444C166.122 170.732 164.44 168.255 162.521 164.921C161.164 162.564 160.374 160.632 158.216 159.352Z" fill="#351A07"/>
<path d="M163.584 184.083C164.678 183.041 165.225 182 167.413 182C169.118 182 166.593 187.727 166.319 188.769C166.018 189.915 164.662 191.278 163.037 192.413C161.806 193.274 160.85 192.934 159.209 192.934C157.986 192.934 162.49 185.124 163.584 184.083Z" fill="#EDC597"/>
<path d="M153.727 202.16C154.769 201.64 156.223 198 156.852 198C157.48 198 157.249 204.76 158.414 204.76C159.455 204.76 166.744 206.32 167.786 206.32C169.627 206.32 168.827 211 168.827 211L148 202.5C148 202.5 152.686 202.68 153.727 202.16Z" fill="#002642"/>
<path d="M60 10.5C61 9 61.7878 7 61.7878 7C61.7878 7 62.5 9 63.5 10.5C64.3073 11.7109 65.5 14 63.6844 14C61.4191 14 60.3654 14 59.4172 14C58 14 58.9557 12.0665 60 10.5Z" fill="#E7AF00"/>
<path d="M83 281L152.156 287.815C152.156 287.815 146.312 314.027 150.562 323.988C154.812 333.948 152.361 355.593 152.361 377.042C152.361 382.833 151.316 385.841 152.361 391.322C152.819 393.726 153.341 394.372 153.478 396.814C153.65 399.881 152.747 402.536 152.919 405.602C153.056 408.044 154.502 407.25 154.036 409.996C153.935 410.594 152.69 412.179 152.919 412.742C154.036 415.488 154.595 417.136 154.036 420.981C153.801 422.598 155.153 421.53 155.712 424.825C157.829 437.315 156.829 446.246 156.829 457.23C156.829 458.96 157.752 459.906 157.946 461.624C158.504 466.568 154.565 467.38 154.036 472.06C153.478 477.003 152.687 480.011 152.687 484.405C152.687 485.504 139.406 489.288 139.406 487.551C139.406 483.706 138.059 475.795 137.5 472.5C136.891 468.91 133.789 471.528 132.254 468.215C131.065 465.648 130.654 464.405 131.137 461.624C131.369 460.287 132.112 459.129 132.254 457.78C132.461 455.813 131.233 454.812 131.137 452.837C130.579 441.303 129.5 432.239 129.5 424C129.5 420.057 128.179 417.978 127.187 414.157C126.424 411.218 125.738 409.278 124.5 406.5C123.255 403.708 121.975 402.042 121.642 399.011C119.408 378.689 120.525 362.212 118.291 352.326C117.922 350.691 117.595 349.596 114.382 348.481C111.781 347.579 110.827 360.26 108.593 369.597C106.642 377.75 111.047 380.916 109.355 389.125C108.545 393.052 106.991 396.674 106.562 400.659C106.055 405.371 106.986 406.754 105.937 411.012C105.311 413.55 105.365 415.883 104.887 418.235C104.526 420.01 104.683 422.53 105 425.5C105.664 431.72 106.991 439.909 105.445 447.344C104.629 451.27 102.838 453.24 103.211 457.23C103.42 459.46 103.244 462.769 103.28 465.008C103.335 468.373 100 470.352 100 472C100 475.845 98 478.655 98 482.5C98 484.656 84 484.485 84 482.5C84 479.205 83.5 475.384 83.5 471.5C83.5 468.754 80.312 469.314 79.7535 467.117C78.6613 462.821 79.2588 458.319 79.195 453.386C79.0201 439.859 78.8426 433.568 78.8426 422.021C78.8426 419.824 80.0413 416.352 80.4363 413.633C80.9949 409.788 80.4202 410.364 80.312 406.701C80.261 404.972 80.3428 403.486 80.312 401.757C80.243 397.891 78.3789 397.924 78.0779 394.068C77.7898 390.376 78.0779 387.335 78.0779 383.633C78.0779 380.337 76.8563 379.794 76.4024 377.042C73.8981 361.855 74.0878 345.715 74.5 335C74.7437 328.664 75.5 324.225 75.5 323C75.5 319.705 83 281 83 281Z" fill="#124E78"/>
<path d="M83.5 471.5C83.5 471.5 88.5938 471 92.2318 471C95.3187 471 100 470.499 100 472C100 473 99.9491 473.926 99.4346 477.828C99.1594 479.915 99.4346 481.241 98.9201 483.192C98.6629 484.167 84.289 484.073 84 483.68C83.5 483 83.5 471.5 83.5 471.5Z" fill="#002642"/>
<path d="M83.5731 484.128C83.5731 483.504 87.5449 483.182 91.5731 483.096C94.3785 483.036 99.8735 482.817 99.9345 483.344C100.395 487.319 98.2767 495.006 98.2767 502.427C98.2767 504.589 97.724 507.198 93.8557 507.728C89.9874 508.258 92.1978 510.909 88.3295 511.439C82.8316 512.192 78.935 511.969 72.8561 511.969C71.2999 511.969 69.9044 511.585 68.9878 510.379C68.1839 509.321 67.5364 507.653 68.4352 506.668C70.3178 504.604 73.931 502.961 76.7245 500.837C79.671 498.597 78.935 497.657 82.2507 495.536C82.412 495.136 82.7134 494.377 82.8033 493.946C83.3559 491.296 83.5731 485.189 83.5731 484.128Z" fill="#212121"/>
<path d="M137.5 472.5C137.5 472.5 143.449 471 147.272 471C150.516 471 153.76 473.022 153.76 474.584C153.76 475.608 154.3 480.727 153.76 484.823C153.47 487.014 151.057 483.287 150.516 485.335C150.246 486.359 139.311 487.363 139.163 486.871C138.081 483.287 137.5 472.5 137.5 472.5Z" fill="#002642"/>
<path d="M139 486.368C139 485.255 143.538 484.29 146.636 484.143C149.891 483.988 154.421 483.636 154.818 485.255C155.364 487.481 155.257 488.205 155.364 490.818C155.47 493.423 155.311 497.944 156.455 500.276C157.545 502.501 159.727 503.057 161.364 506.951C161.71 507.775 161.682 508.312 161.909 509.177C162.143 510.067 163 510.48 163 511.402C163 513.071 163 514.184 162.455 515.852C162.273 516.409 155.364 514.74 151.545 515.296C149.659 515.571 146.337 517.262 144.455 516.965C143.227 516.771 142.12 516.498 141.727 515.296C141.182 513.627 141.727 512.515 141.182 510.289C140.809 508.769 139.655 507.958 139.545 506.395C139 498.607 139 491.375 139 486.368Z" fill="#212121"/>
<path d="M102.719 323.151C104.359 321.588 109.533 332.657 113.484 334.614C117.929 336.815 119.123 338.782 124.25 341.908C127.115 343.656 121.174 346.598 116.56 347.64C114.51 348.161 114.39 348.804 113.484 349.724C112.459 350.766 112.179 352.712 111.434 356.498C110.026 363.651 108.757 367.961 109.383 373.692C109.782 377.34 110.302 383.935 109.896 387.761C109.49 391.586 106.909 398.352 106.82 402.35C106.761 405.002 107.333 408.082 106.82 410.687C106.184 413.918 104.487 420.811 105 425.5C105.513 430.189 103.273 410.96 103.744 400.787C104.014 394.965 105.466 390.186 105.282 384.634C104.85 371.594 102.997 370.585 102.719 357.54C102.572 350.623 101.177 324.62 102.719 323.151Z" fill="#002642"/>
<path d="M146.724 281.621C150.501 272.042 158 269 158 269C158 269 154.063 276.354 153.704 278.991C152.63 286.879 151.323 290.591 150.482 298.448C149.803 304.799 149.285 313.267 149.408 317.379C149.432 318.168 149.32 319.77 149.408 320.009C151.556 325.793 152.093 330 152.093 330C152.093 330 143.103 319.963 141.354 311.069C139.79 303.112 143.743 289.18 146.724 281.621Z" fill="#002642"/>
<path d="M88 255.5C88 255.5 93.0282 261.197 89.9376 268.993C86.6505 277.285 81.1811 300.697 81.1811 311.092C81.1811 328.369 74.5 335 74.5 335C74.5 335 75 316.809 76.5453 309.533C78.5798 299.953 83.2414 278.349 83.2414 278.349L88 255.5Z" fill="#002642"/>
<path d="M124.5 406.5C124.5 406.5 131.981 411.649 132.898 414.212C133.303 415.343 132.405 416.273 131.911 417.303C129.898 421.504 129.5 424 129.5 424C129.5 424 129.443 420.909 127.468 415.758C127.159 414.952 126.494 413.076 126 410.5C125.65 409.204 124.994 407.53 124.5 406.5Z" fill="#002642"/>
<path d="M93.5 155L106 147L107 151.5L95 158L93.5 155Z" fill="#134E78"/>
</g>
<defs>
<clipPath id="clip0_6612_1154">
<rect width="229" height="535" fill="white"/>
</clipPath>
</defs>
</svg>
