<svg width="229" height="155" viewBox="0 0 229 155" fill="none" xmlns="http://www.w3.org/2000/svg">
<g clip-path="url(#clip0_6612_772)">
<rect width="229" height="155" fill="white"/>
<path d="M103.735 124.727C104.427 122.81 104.368 118.771 103.735 116.839C103.103 114.907 103.534 114.634 102.157 113.066C100.14 110.768 98.9906 109.405 96.4706 107.579C88.7513 101.984 73.1471 94.2025 73.1471 94.2025H64.3529L59 89.7438L81.5588 92.4876L76.2059 94.2025L114.824 108.264L149.606 93.8482L142.489 92.2046L176 87L168.29 97.9571L159.096 95.7657C159.096 95.7657 141.896 105.627 132.406 111.38C131.842 111.722 129.737 113.023 128.551 115.762C127.365 118.502 128.1 123.354 128.254 123.98C132.11 139.594 144.479 170 144.479 170H83.7709C83.7709 170 96.6179 144.45 103.735 124.727Z" fill="#212121"/>
<path d="M103.005 123.98C103.7 122.063 103.939 118.516 103.303 116.584C102.667 114.652 102.003 114.043 100.619 112.475C98.5905 110.177 96.8916 109.371 94.3579 107.545C86.5967 101.95 72.5918 95.7657 72.5918 95.7657L63.0505 97.6832L55 87L89.5 92.5L81.2386 94.1221L115.916 108.264C115.916 108.901 115.826 113.738 115.826 116.584C115.826 119.43 117.122 156.84 117.277 157.466C121.153 173.08 117.277 167.772 117.277 167.772L84.5184 170C84.5184 170 95.8487 143.703 103.005 123.98Z" fill="#FFC200"/>
<path d="M28.24 32L36.74 31.5C36.74 31.5 41.24 34.5 45.24 39.5C47.24 42 50.0693 46.6161 49.74 48.5C49.1453 51.903 46.6706 53.671 43.74 55.5C42.9389 56 37.7503 57.6516 33.74 58C28.6487 58.4423 25.404 58.589 20.74 56.5C18.1699 55.3489 16.1792 54.9206 14.74 52.5C12.368 48.5106 16.24 43.5 18.74 40C21.8791 35.6053 28.24 32 28.24 32Z" fill="#002642"/>
<path d="M29.2401 30.5C29.2401 30.5 30.7012 31.8372 31.7401 32C33.1041 32.2138 32.8593 31.5 34.2401 31.5C35.2401 31.5 35.2401 31.5 35.7401 31C36.0488 30.6913 36.3034 30 36.7401 30C37.2401 30 37.3248 30.6188 37.2401 31C36.8908 32.5718 34.8438 32.8556 33.2401 33C31.2856 33.176 28.2869 32.2412 28.2401 32C28.1932 31.7588 28.191 31.5858 28.2401 31.5C28.4567 31.1209 29.2401 30.5 29.2401 30.5Z" fill="#212121"/>
<path d="M29.24 31.5001C29.24 31.5001 27.8888 28.6498 26.74 27.0001C25.3964 25.0705 22.74 22.5001 22.74 22.5001C22.74 22.5001 28.24 21.793 28.24 22.5001C28.24 23.5001 26.6725 24.6148 27.24 25.5001C27.3136 25.6149 28.24 25.5001 29.24 25.0001C30.24 24.5001 32.74 24.5001 32.74 25.5001C32.74 26.0858 32.5092 26.4616 32.74 27.0001C32.9575 27.5077 33.2572 27.2318 33.74 27.5001C34.5934 27.9742 36.1553 27.7712 37.24 27.5001C39.24 27.0001 41.24 26.0001 41.24 26.0001L35.74 31.5001C35.74 31.5001 33.74 32.0001 32.74 32.0001C31.1298 32.0001 29.24 31.5001 29.24 31.5001Z" fill="#002642"/>
<path d="M27.74 23C27.6439 22.4169 22.74 23.181 22.74 22.5C22.74 22 24.6195 21.3967 26.24 21C27.5811 20.6717 30.24 20 30.24 20.5C30.24 20.9366 30.3034 21.5 30.74 21.5C31.24 21.5 31.74 21.5 32.74 21.5C33.1596 21.5 33.2863 21.2267 33.24 21C33.2208 20.9062 32.6127 20.6273 32.74 20.5C33.24 20 37.24 20 38.74 20C39.3575 20 41.7569 20.2652 41.74 21.5C41.7303 22.204 41.24 22.5 40.74 22.5C40.24 22.5 39.74 22.8064 39.74 23C39.74 23.2586 40.74 23.5 40.74 23.5C41.2074 23.72 41.676 24.1661 41.74 24.5C42.0689 26.2152 40.74 26.5 39.24 27C37.5626 27.5591 35.74 28 34.74 28C34.036 28 33.24 28 32.74 27C32.24 26 32.5 26 32.5 25.5C32.5 24.5237 30.6845 24.6851 29.74 25C28.24 25.5 27.24 26 26.74 25.5C26.24 25 27.7622 23.1349 27.74 23Z" fill="#134E78"/>
<mask id="mask0_6612_772" style="mask-type:alpha" maskUnits="userSpaceOnUse" x="22" y="20" width="20" height="8">
<path d="M27.74 23C27.6439 22.4169 22.74 23.181 22.74 22.5C22.74 22 24.6195 21.3967 26.24 21C27.5811 20.6717 30.24 20 30.24 20.5C30.24 20.9366 30.3034 21.5 30.74 21.5C31.24 21.5 31.74 21.5 32.74 21.5C33.1596 21.5 33.2863 21.2267 33.24 21C33.2208 20.9062 32.6127 20.6273 32.74 20.5C33.24 20 37.24 20 38.74 20C39.3575 20 41.7569 20.2652 41.74 21.5C41.7303 22.204 41.24 22.5 40.74 22.5C40.24 22.5 39.74 22.8064 39.74 23C39.74 23.2586 40.74 23.5 40.74 23.5C41.2074 23.72 41.676 24.1661 41.74 24.5C42.0689 26.2152 40.74 26.5 39.24 27C37.5626 27.5591 35.74 28 34.74 28C34.036 28 33.24 28 32.74 27C32.24 26 32.5 26 32.5 25.5C32.5 24.5237 30.6845 24.6851 29.74 25C28.24 25.5 27.24 26 26.74 25.5C26.24 25 27.7622 23.1349 27.74 23Z" fill="#134E78"/>
</mask>
<g mask="url(#mask0_6612_772)">
<path d="M30.24 20.5976C30.24 21.0976 30.3621 21.5 30.74 21.5C30.8143 21.5 30.74 25 30.74 25C30.74 25 30.3301 22.2212 30.24 21.6758C30.1652 21.2227 30.24 20.1385 30.24 20.5976Z" fill="#002642"/>
<path d="M32.74 21.5C33.24 21.5001 32.9639 21 33.24 21C33.5 21 32.24 25.5 32.24 24.5C32.24 23.5 32.6345 21.5 32.74 21.5Z" fill="#002642"/>
</g>
<path d="M25.24 41.5C26.74 40.75 29.487 40.8767 31.24 41C33.6096 41.1666 35.24 41.5 36.74 42C36.9927 42.0842 36.0563 43 35.74 43C34.74 43 33.5055 42.5975 31.74 42.5C29.9853 42.4031 27.74 42 26.74 42.5C26.493 42.6235 26.3451 42.7446 26.24 43C25.9719 43.651 28.0456 43.8842 28.74 44C31.0182 44.3797 33.74 44 35.74 44.5C36.423 44.6707 36.8078 44.9442 37.24 45.5C37.5081 45.8446 37.6682 46.0693 37.74 46.5C37.8836 47.3613 37.8575 47.3825 37.24 48C37.0864 48.1536 36.24 48.8148 35.24 49C32.928 49.4281 30.0536 49.4191 27.74 49C26.1556 48.7129 24.74 48.5 23.74 48C23.2928 47.7764 23.8034 46.9366 24.24 46.5C24.74 46 26.6354 47.3663 28.24 47.5C34.24 48 34.74 47.5 35.24 47C35.4353 46.8047 35.6771 46.1457 35.24 46C33.74 45.5 27.74 45.9 26.74 45.5C25.9292 45.1757 25.0171 44.8694 24.74 44.5C24.3695 44.006 24.1777 43.6143 24.24 43C24.3111 42.2995 24.6103 41.8148 25.24 41.5Z" fill="#07691D"/>
<path d="M28.74 39.5001C28.8818 39.3583 29.9353 39.6095 29.74 40.0001C29.24 41.0001 29.1458 41.6926 28.74 43.5001C28.1396 46.1741 27.9485 51.442 27.74 51.5001C27.1739 51.6578 25.74 51.746 25.74 51.5001C25.7399 49.4385 25.9837 47.1559 26.74 44.5001C27.316 42.4774 28.24 40.0001 28.74 39.5001Z" fill="#07691D"/>
<path d="M32.74 39.5C33.1591 39.6222 33.74 39.5634 33.74 40C33.74 40.5 34.1547 42.7339 34.24 44.5C34.3909 47.6266 34.24 52.5 33.74 52.5C33.24 52.5 31.74 51.8201 31.74 51.5C31.74 51 32.5454 46.8675 32.74 44.5C32.9319 42.1647 32.3208 39.3777 32.74 39.5Z" fill="#07691D"/>
<path d="M39.7401 23C39.7401 23.2656 40.6786 23.4385 40.7401 23.5C40.8016 23.5614 38.7688 26 38.7401 26C38.7114 26 39.7401 22.8609 39.7401 23Z" fill="#002642"/>
<path d="M27.2304 23H27.7304V24.4155L27.4804 23.5308L27.2304 23Z" fill="#002642"/>
<path d="M58.24 35L66.74 34.5C66.74 34.5 71.24 37.5 75.24 42.5C77.24 45 80.0693 49.6161 79.74 51.5C79.1453 54.903 76.6706 56.671 73.74 58.5C72.9389 59 67.7503 60.6516 63.74 61C58.6487 61.4423 55.404 61.589 50.74 59.5C48.1699 58.3489 46.1792 57.9206 44.74 55.5C42.368 51.5106 46.24 46.5 48.74 43C51.8791 38.6053 58.24 35 58.24 35Z" fill="#002642"/>
<path d="M59.2401 33.5C59.2401 33.5 60.7012 34.8372 61.7401 35C63.1041 35.2138 62.8593 34.5 64.2401 34.5C65.2401 34.5 65.2401 34.5 65.7401 34C66.0488 33.6913 66.3034 33 66.7401 33C67.2401 33 67.3248 33.6188 67.2401 34C66.8908 35.5718 64.8438 35.8556 63.2401 36C61.2856 36.176 58.2869 35.2412 58.2401 35C58.1932 34.7588 58.191 34.5858 58.2401 34.5C58.4567 34.1209 59.2401 33.5 59.2401 33.5Z" fill="#212121"/>
<path d="M59.24 34.5001C59.24 34.5001 57.8888 31.6498 56.74 30.0001C55.3964 28.0705 52.74 25.5001 52.74 25.5001C52.74 25.5001 58.24 24.793 58.24 25.5001C58.24 26.5001 56.6725 27.6148 57.24 28.5001C57.3136 28.6149 58.24 28.5001 59.24 28.0001C60.24 27.5001 62.74 27.5001 62.74 28.5001C62.74 29.0858 62.5092 29.4616 62.74 30.0001C62.9575 30.5077 63.2572 30.2318 63.74 30.5001C64.5934 30.9742 66.1553 30.7712 67.24 30.5001C69.24 30.0001 71.24 29.0001 71.24 29.0001L65.74 34.5001C65.74 34.5001 63.74 35.0001 62.74 35.0001C61.1298 35.0001 59.24 34.5001 59.24 34.5001Z" fill="#002642"/>
<path d="M57.74 26C57.6439 25.4169 52.74 26.181 52.74 25.5C52.74 25 54.6195 24.3967 56.24 24C57.5811 23.6717 60.24 23 60.24 23.5C60.24 23.9366 60.3034 24.5 60.74 24.5C61.24 24.5 61.74 24.5 62.74 24.5C63.1596 24.5 63.2863 24.2267 63.24 24C63.2208 23.9062 62.6127 23.6273 62.74 23.5C63.24 23 67.24 23 68.74 23C69.3575 23 71.7569 23.2652 71.74 24.5C71.7303 25.204 71.24 25.5 70.74 25.5C70.24 25.5 69.74 25.8064 69.74 26C69.74 26.2586 70.74 26.5 70.74 26.5C71.2074 26.72 71.676 27.1661 71.74 27.5C72.0689 29.2152 70.74 29.5 69.24 30C67.5626 30.5591 65.74 31 64.74 31C64.036 31 63.24 31 62.74 30C62.24 29 62.5 29 62.5 28.5C62.5 27.5237 60.6845 27.6851 59.74 28C58.24 28.5 57.24 29 56.74 28.5C56.24 28 57.7622 26.1349 57.74 26Z" fill="#134E78"/>
<path d="M55.24 44.5C56.74 43.75 59.487 43.8767 61.24 44C63.6096 44.1666 65.24 44.5 66.74 45C66.9927 45.0842 66.0563 46 65.74 46C64.74 46 63.5055 45.5975 61.74 45.5C59.9853 45.4031 57.74 45 56.74 45.5C56.493 45.6235 56.3451 45.7446 56.24 46C55.9719 46.651 58.0456 46.8842 58.74 47C61.0182 47.3797 63.74 47 65.74 47.5C66.423 47.6707 66.8078 47.9442 67.24 48.5C67.5081 48.8446 67.6682 49.0693 67.74 49.5C67.8836 50.3613 67.8575 50.3825 67.24 51C67.0864 51.1536 66.24 51.8148 65.24 52C62.928 52.4281 60.0536 52.4191 57.74 52C56.1556 51.7129 54.74 51.5 53.74 51C53.2928 50.7764 53.8034 49.9366 54.24 49.5C54.74 49 56.6354 50.3663 58.24 50.5C64.24 51 64.74 50.5 65.24 50C65.4353 49.8047 65.6771 49.1457 65.24 49C63.74 48.5 57.74 48.9 56.74 48.5C55.9292 48.1757 55.0171 47.8694 54.74 47.5C54.3695 47.006 54.1777 46.6143 54.24 46C54.3111 45.2995 54.6103 44.8148 55.24 44.5Z" fill="#07691D"/>
<mask id="mask1_6612_772" style="mask-type:alpha" maskUnits="userSpaceOnUse" x="52" y="23" width="20" height="8">
<path d="M57.74 26C57.6439 25.4169 52.74 26.181 52.74 25.5C52.74 25 54.6195 24.3967 56.24 24C57.5811 23.6717 60.24 23 60.24 23.5C60.24 23.9366 60.3034 24.5 60.74 24.5C61.24 24.5 61.74 24.5 62.74 24.5C63.1596 24.5 63.2863 24.2267 63.24 24C63.2208 23.9062 62.6127 23.6273 62.74 23.5C63.24 23 67.24 23 68.74 23C69.3575 23 71.7569 23.2652 71.74 24.5C71.7303 25.204 71.24 25.5 70.74 25.5C70.24 25.5 69.74 25.8064 69.74 26C69.74 26.2586 70.74 26.5 70.74 26.5C71.2074 26.72 71.676 27.1661 71.74 27.5C72.0689 29.2152 70.74 29.5 69.24 30C67.5626 30.5591 65.74 31 64.74 31C64.036 31 63.24 31 62.74 30C62.24 29 63.5 28.5 63.5 28C63.5 27.0237 60.6845 27.6851 59.74 28C58.24 28.5 57.24 29 56.74 28.5C56.24 28 57.7622 26.1349 57.74 26Z" fill="#134E78"/>
</mask>
<g mask="url(#mask1_6612_772)">
<path d="M60.24 23.5001C60.24 24.0001 60.3621 24.5001 60.74 24.5001C60.8143 24.5001 60.74 28.0001 60.74 28.0001C60.74 28.0001 60.3301 25.2213 60.24 24.6759C60.1652 24.2228 60.24 23.0409 60.24 23.5001Z" fill="#002642"/>
<path d="M62.74 24.5C63.24 24.5001 62.98 24 63.24 24C63.5 24 62.24 28.5 62.24 27.5C62.24 26.5 62.6345 24.5 62.74 24.5Z" fill="#002642"/>
</g>
<path d="M58.74 42.5001C58.8818 42.3583 59.9353 42.6095 59.74 43.0001C59.24 44.0001 59.1458 44.6926 58.74 46.5001C58.1396 49.1741 57.9485 54.442 57.74 54.5001C57.1739 54.6578 55.74 54.746 55.74 54.5001C55.7399 52.4385 55.9837 50.1559 56.74 47.5001C57.316 45.4774 58.24 43.0001 58.74 42.5001Z" fill="#07691D"/>
<path d="M62.74 42.5C63.1591 42.6222 63.74 42.5634 63.74 43C63.74 43.5 64.1547 45.7339 64.24 47.5C64.3909 50.6266 64.24 55.5 63.74 55.5C63.24 55.5 61.74 54.8201 61.74 54.5C61.74 54 62.5454 49.8675 62.74 47.5C62.9319 45.1647 62.3208 42.3777 62.74 42.5Z" fill="#07691D"/>
<path d="M69.7401 26C69.7401 26.2656 70.6786 26.4385 70.7401 26.5C70.8016 26.5614 68.7688 29 68.7401 29C68.7114 29 69.7401 25.8609 69.7401 26Z" fill="#002642"/>
<path d="M57 26L57.7265 26L57.875 27.5L57.5 26.5L57 26Z" fill="#002642"/>
<path d="M20.24 51L28.74 50.5C28.74 50.5 33.24 53.5 37.24 58.5C39.24 61 42.0693 65.6161 41.74 67.5C41.1453 70.903 38.6706 72.671 35.74 74.5C34.9389 75 29.7503 76.6516 25.74 77C20.6487 77.4423 17.404 77.589 12.74 75.5C10.1699 74.3489 8.17923 73.9206 6.74001 71.5C4.36797 67.5106 8.24001 62.5 10.74 59C13.8791 54.6053 20.24 51 20.24 51Z" fill="#134E78"/>
<path d="M21.2401 49.5C21.2401 49.5 22.7012 50.8372 23.7401 51C25.1041 51.2138 24.8593 50.5 26.2401 50.5C27.2401 50.5 27.2401 50.5 27.7401 50C28.0488 49.6913 28.3034 49 28.7401 49C29.2401 49 29.3248 49.6188 29.2401 50C28.8908 51.5718 26.8438 51.8556 25.2401 52C23.2856 52.176 20.2869 51.2412 20.2401 51C20.1932 50.7588 20.191 50.5858 20.2401 50.5C20.4567 50.1209 21.2401 49.5 21.2401 49.5Z" fill="#212121"/>
<path d="M21.24 50.5001C21.24 50.5001 19.8888 47.6498 18.74 46.0001C17.3964 44.0705 14.74 41.5001 14.74 41.5001C14.74 41.5001 20.24 40.793 20.24 41.5001C20.24 42.5001 18.6725 43.6148 19.24 44.5001C19.3136 44.6149 20.24 44.5001 21.24 44.0001C22.24 43.5001 24.74 43.5001 24.74 44.5001C24.74 45.0858 24.5092 45.4616 24.74 46.0001C24.9575 46.5077 25.2572 46.2318 25.74 46.5001C26.5934 46.9742 28.1553 46.7712 29.24 46.5001C31.24 46.0001 33.24 45.0001 33.24 45.0001L27.74 50.5001C27.74 50.5001 25.74 51.0001 24.74 51.0001C23.1298 51.0001 21.24 50.5001 21.24 50.5001Z" fill="#134E78"/>
<path d="M19.74 42C19.6439 41.4169 14.74 42.181 14.74 41.5C14.74 41 16.6195 40.3967 18.24 40C19.5811 39.6717 22.24 39 22.24 39.5C22.24 39.9366 22.3034 40.5 22.74 40.5C23.24 40.5 23.74 40.5 24.74 40.5C25.1596 40.5 25.2863 40.2267 25.24 40C25.2208 39.9062 24.6127 39.6273 24.74 39.5C25.24 39 29.24 39 30.74 39C31.3575 39 33.7569 39.2652 33.74 40.5C33.7303 41.204 33.24 41.5 32.74 41.5C32.24 41.5 31.74 41.8064 31.74 42C31.74 42.2586 32.74 42.5 32.74 42.5C33.2074 42.72 33.676 43.1661 33.74 43.5C34.0689 45.2152 32.74 45.5 31.24 46C29.5626 46.5591 27.74 47 26.74 47C26.036 47 25.24 47 24.74 46C24.24 45 24.74 45 24.74 44.5C24.74 43.5237 22.6845 43.6851 21.74 44C20.24 44.5 19.24 45 18.74 44.5C18.24 44 19.7622 42.1349 19.74 42Z" fill="#1A679D"/>
<mask id="mask2_6612_772" style="mask-type:alpha" maskUnits="userSpaceOnUse" x="14" y="39" width="20" height="8">
<path d="M19.74 42C19.6439 41.4169 14.74 42.181 14.74 41.5C14.74 41 16.6195 40.3967 18.24 40C19.5811 39.6717 22.24 39 22.24 39.5C22.24 39.9366 22.3034 40.5 22.74 40.5C23.24 40.5 23.74 40.5 24.74 40.5C25.1596 40.5 25.2863 40.2267 25.24 40C25.2208 39.9062 24.6127 39.6273 24.74 39.5C25.24 39 29.24 39 30.74 39C31.3575 39 33.7569 39.2652 33.74 40.5C33.7303 41.204 33.24 41.5 32.74 41.5C32.24 41.5 31.74 41.8064 31.74 42C31.74 42.2586 32.74 42.5 32.74 42.5C33.2074 42.72 33.676 43.1661 33.74 43.5C34.0689 45.2152 32.74 45.5 31.24 46C29.5626 46.5591 27.74 47 26.74 47C26.036 47 25.24 47 24.74 46C24.24 45 24.74 45 24.74 44.5C24.74 43.5237 22.6845 43.6851 21.74 44C20.24 44.5 19.24 45 18.74 44.5C18.24 44 19.7622 42.1349 19.74 42Z" fill="#1A679D"/>
</mask>
<g mask="url(#mask2_6612_772)">
<path d="M22.24 39.5001C22.24 40.0001 22.3621 40.5001 22.74 40.5001C22.8143 40.5001 22.74 44.0001 22.74 44.0001C22.74 44.0001 22.3301 41.2213 22.24 40.6759C22.1652 40.2228 22.24 39.0409 22.24 39.5001Z" fill="#134E78"/>
<path d="M24.74 40.5C25.24 40.5001 25 40 25.24 40C25.4572 40 24.24 44.5 24.24 43.5C24.24 42.5 24.6345 40.5 24.74 40.5Z" fill="#134E78"/>
</g>
<path d="M17.24 60.5C18.74 59.75 21.487 59.8767 23.24 60C25.6096 60.1666 27.24 60.5 28.74 61C28.9927 61.0842 28.0563 62 27.74 62C26.74 62 25.5055 61.5975 23.74 61.5C21.9853 61.4031 19.74 61 18.74 61.5C18.493 61.6235 18.3451 61.7446 18.24 62C17.9719 62.651 20.0456 62.8842 20.74 63C23.0182 63.3797 25.74 63 27.74 63.5C28.423 63.6707 28.8078 63.9442 29.24 64.5C29.5081 64.8446 29.6682 65.0693 29.74 65.5C29.8836 66.3613 29.8575 66.3825 29.24 67C29.0864 67.1536 28.24 67.8148 27.24 68C24.928 68.4281 22.0536 68.4191 19.74 68C18.1556 67.7129 16.74 67.5 15.74 67C15.2928 66.7764 15.8034 65.9366 16.24 65.5C16.74 65 18.6354 66.3663 20.24 66.5C26.24 67 26.74 66.5 27.24 66C27.4353 65.8047 27.6771 65.1457 27.24 65C25.74 64.5 19.74 64.9 18.74 64.5C17.9292 64.1757 17.0171 63.8694 16.74 63.5C16.3695 63.006 16.1777 62.6143 16.24 62C16.3111 61.2995 16.6103 60.8148 17.24 60.5Z" fill="#07691D"/>
<path d="M20.74 58.5001C20.8818 58.3583 21.9353 58.6095 21.74 59.0001C21.24 60.0001 21.1458 60.6926 20.74 62.5001C20.1396 65.1741 19.9485 70.442 19.74 70.5001C19.1739 70.6578 17.74 70.746 17.74 70.5001C17.7399 68.4385 17.9837 66.1559 18.74 63.5001C19.316 61.4774 20.24 59.0001 20.74 58.5001Z" fill="#07691D"/>
<path d="M24.74 58.5C25.1591 58.6222 25.74 58.5634 25.74 59C25.74 59.5 26.1547 61.7339 26.24 63.5C26.3909 66.6266 26.24 71.5 25.74 71.5C25.24 71.5 23.74 70.8201 23.74 70.5C23.74 70 24.5454 65.8675 24.74 63.5C24.9319 61.1647 24.3208 58.3777 24.74 58.5Z" fill="#07691D"/>
<path d="M31.7401 42C31.7401 42.2656 32.6786 42.4385 32.7401 42.5C32.8016 42.5614 30.7688 45 30.7401 45C30.7114 45 31.7401 41.8609 31.7401 42Z" fill="#134E78"/>
<path d="M19.2646 42H19.7255L19.7646 43.4155L19.5146 42.5308L19.2646 42Z" fill="#134E78"/>
<path d="M45.24 45L53.74 44.5C53.74 44.5 58.24 47.5 62.24 52.5C64.24 55 67.0693 59.6161 66.74 61.5C66.1453 64.903 63.6706 66.671 60.74 68.5C59.9389 69 54.7503 70.6516 50.74 71C45.6487 71.4423 42.404 71.589 37.74 69.5C35.1699 68.3489 33.1792 67.9206 31.74 65.5C29.368 61.5106 33.24 56.5 35.74 53C38.8791 48.6053 45.24 45 45.24 45Z" fill="#093F66"/>
<path d="M46.2401 43.5C46.2401 43.5 47.7012 44.8372 48.7401 45C50.1041 45.2138 49.8593 44.5 51.2401 44.5C52.2401 44.5 52.2401 44.5 52.7401 44C53.0488 43.6913 53.3034 43 53.7401 43C54.2401 43 54.3248 43.6188 54.2401 44C53.8908 45.5718 51.8438 45.8556 50.2401 46C48.2856 46.176 45.2869 45.2412 45.2401 45C45.1932 44.7588 45.191 44.5858 45.2401 44.5C45.4567 44.1209 46.2401 43.5 46.2401 43.5Z" fill="#212121"/>
<path d="M46.24 44.5001C46.24 44.5001 44.8888 41.6498 43.74 40.0001C42.3964 38.0705 39.74 35.5001 39.74 35.5001C39.74 35.5001 45.24 34.793 45.24 35.5001C45.24 36.5001 43.6725 37.6148 44.24 38.5001C44.3136 38.6149 45.24 38.5001 46.24 38.0001C47.24 37.5001 49.74 37.5001 49.74 38.5001C49.74 39.0858 49.5092 39.4616 49.74 40.0001C49.9575 40.5077 50.2572 40.2318 50.74 40.5001C51.5934 40.9742 53.1553 40.7712 54.24 40.5001C56.24 40.0001 58.24 39.0001 58.24 39.0001L52.74 44.5001C52.74 44.5001 50.74 45.0001 49.74 45.0001C48.1298 45.0001 46.24 44.5001 46.24 44.5001Z" fill="#093F66"/>
<path d="M44.74 36C44.6439 35.4169 39.74 36.181 39.74 35.5C39.74 35 41.6195 34.3967 43.24 34C44.5811 33.6717 47.24 33 47.24 33.5C47.24 33.9366 47.3034 34.5 47.74 34.5C48.24 34.5 48.74 34.5 49.74 34.5C50.1596 34.5 50.2863 34.2267 50.24 34C50.2208 33.9062 49.6127 33.6273 49.74 33.5C50.24 33 54.24 33 55.74 33C56.3575 33 58.7569 33.2652 58.74 34.5C58.7303 35.204 58.24 35.5 57.74 35.5C57.24 35.5 56.74 35.8064 56.74 36C56.74 36.2586 57.74 36.5 57.74 36.5C58.2074 36.72 58.676 37.1661 58.74 37.5C59.0689 39.2152 57.74 39.5 56.24 40C54.5626 40.5591 52.74 41 51.74 41C51.036 41 50.24 41 49.74 40C49.24 39 49.5 39 49.5 38.5C49.5 37.5237 47.6845 37.6851 46.74 38C45.24 38.5 44.24 39 43.74 38.5C43.24 38 44.7622 36.1349 44.74 36Z" fill="#105F97"/>
<mask id="mask3_6612_772" style="mask-type:alpha" maskUnits="userSpaceOnUse" x="39" y="33" width="20" height="8">
<path d="M44.74 36C44.6439 35.4169 39.74 36.181 39.74 35.5C39.74 35 41.6195 34.3967 43.24 34C44.5811 33.6717 47.24 33 47.24 33.5C47.24 33.9366 47.3034 34.5 47.74 34.5C48.24 34.5 48.74 34.5 49.74 34.5C50.1596 34.5 50.2863 34.2267 50.24 34C50.2208 33.9062 49.6127 33.6273 49.74 33.5C50.24 33 54.24 33 55.74 33C56.3575 33 58.7569 33.2652 58.74 34.5C58.7303 35.204 58.24 35.5 57.74 35.5C57.24 35.5 56.74 35.8064 56.74 36C56.74 36.2586 57.74 36.5 57.74 36.5C58.2074 36.72 58.676 37.1661 58.74 37.5C59.0689 39.2152 57.74 39.5 56.24 40C54.5626 40.5591 52.74 41 51.74 41C51.036 41 50.24 41 49.74 40C49.24 39 49.5 39 49.5 38.5C49.5 37.5237 47.6845 37.6851 46.74 38C45.24 38.5 44.24 39 43.74 38.5C43.24 38 44.7622 36.1349 44.74 36Z" fill="#105F97"/>
</mask>
<g mask="url(#mask3_6612_772)">
<path d="M49.74 34.5C50.24 34.5001 49.98 34 50.24 34C50.5 34 49.24 38.5 49.24 37.5C49.24 36.5 49.6345 34.5 49.74 34.5Z" fill="#093F66"/>
<path d="M47.24 33.5001C47.24 34.0001 47.3621 34.5001 47.74 34.5001C47.8143 34.5001 47.74 38.0001 47.74 38.0001C47.74 38.0001 47.3301 35.2213 47.24 34.6759C47.1652 34.2228 47.24 33.0409 47.24 33.5001Z" fill="#093F66"/>
</g>
<path d="M42.24 54.5C43.74 53.75 46.487 53.8767 48.24 54C50.6096 54.1666 52.24 54.5 53.74 55C53.9927 55.0842 53.0563 56 52.74 56C51.74 56 50.5055 55.5975 48.74 55.5C46.9853 55.4031 44.74 55 43.74 55.5C43.493 55.6235 43.3451 55.7446 43.24 56C42.9719 56.651 45.0456 56.8842 45.74 57C48.0182 57.3797 50.74 57 52.74 57.5C53.423 57.6707 53.8078 57.9442 54.24 58.5C54.5081 58.8446 54.6682 59.0693 54.74 59.5C54.8836 60.3613 54.8575 60.3825 54.24 61C54.0864 61.1536 53.24 61.8148 52.24 62C49.928 62.4281 47.0536 62.4191 44.74 62C43.1556 61.7129 41.74 61.5 40.74 61C40.2928 60.7764 40.8034 59.9366 41.24 59.5C41.74 59 43.6354 60.3663 45.24 60.5C51.24 61 51.74 60.5 52.24 60C52.4353 59.8047 52.6771 59.1457 52.24 59C50.74 58.5 44.74 58.9 43.74 58.5C42.9292 58.1757 42.0171 57.8694 41.74 57.5C41.3695 57.006 41.1777 56.6143 41.24 56C41.3111 55.2995 41.6103 54.8148 42.24 54.5Z" fill="#07691D"/>
<path d="M45.74 52.5001C45.8818 52.3583 46.9353 52.6095 46.74 53.0001C46.24 54.0001 46.1458 54.6926 45.74 56.5001C45.1396 59.1741 44.9485 64.442 44.74 64.5001C44.1739 64.6578 42.74 64.746 42.74 64.5001C42.7399 62.4385 42.9837 60.1559 43.74 57.5001C44.316 55.4774 45.24 53.0001 45.74 52.5001Z" fill="#07691D"/>
<path d="M49.74 52.5C50.1591 52.6222 50.74 52.5634 50.74 53C50.74 53.5 51.1547 55.7339 51.24 57.5C51.3909 60.6266 51.24 65.5 50.74 65.5C50.24 65.5 48.74 64.8201 48.74 64.5C48.74 64 49.5454 59.8675 49.74 57.5C49.9319 55.1647 49.3208 52.3777 49.74 52.5Z" fill="#07691D"/>
<path d="M56.7401 36C56.7401 36.2656 57.6786 36.4385 57.7401 36.5C57.8016 36.5614 55.7688 39 55.7401 39C55.7114 39 56.7401 35.8609 56.7401 36Z" fill="#093F66"/>
<path d="M44.2265 36H44.7265V37.4155L44.4765 36.5308L44.2265 36Z" fill="#093F66"/>
<path d="M69.24 52L77.74 51.5C77.74 51.5 82.24 54.5 86.24 59.5C88.24 62 91.0693 66.6161 90.74 68.5C90.1453 71.903 87.6706 73.671 84.74 75.5C83.9389 76 78.7503 77.6516 74.74 78C69.6487 78.4423 66.404 78.589 61.74 76.5C59.1699 75.3489 57.1792 74.9206 55.74 72.5C53.368 68.5106 57.24 63.5 59.74 60C62.8791 55.6053 69.24 52 69.24 52Z" fill="#134E78"/>
<path d="M70.2401 50.5C70.2401 50.5 71.7012 51.8372 72.7401 52C74.1041 52.2138 73.8593 51.5 75.2401 51.5C76.2401 51.5 76.2401 51.5 76.7401 51C77.0488 50.6913 77.3034 50 77.7401 50C78.2401 50 78.3248 50.6188 78.2401 51C77.8908 52.5718 75.8438 52.8556 74.2401 53C72.2856 53.176 69.2869 52.2412 69.2401 52C69.1932 51.7588 69.191 51.5858 69.2401 51.5C69.4567 51.1209 70.2401 50.5 70.2401 50.5Z" fill="#212121"/>
<path d="M70.24 51.5001C70.24 51.5001 68.8888 48.6498 67.74 47.0001C66.3964 45.0705 63.74 42.5001 63.74 42.5001C63.74 42.5001 69.24 41.793 69.24 42.5001C69.24 43.5001 67.6725 44.6148 68.24 45.5001C68.3136 45.6149 69.24 45.5001 70.24 45.0001C71.24 44.5001 73.74 44.5001 73.74 45.5001C73.74 46.0858 73.5092 46.4616 73.74 47.0001C73.9575 47.5077 74.2572 47.2318 74.74 47.5001C75.5934 47.9742 77.1553 47.7712 78.24 47.5001C80.24 47.0001 82.24 46.0001 82.24 46.0001L76.74 51.5001C76.74 51.5001 74.74 52.0001 73.74 52.0001C72.1298 52.0001 70.24 51.5001 70.24 51.5001Z" fill="#134E78"/>
<path d="M68.74 43C68.6439 42.4169 63.74 43.181 63.74 42.5C63.74 42 65.6195 41.3967 67.24 41C68.5811 40.6717 71.24 40 71.24 40.5C71.24 40.9366 71.24 41.5 71.74 41.5C72.24 41.5 72.74 41.5 73.74 41.5C74.1596 41.5 74.2863 41.2267 74.24 41C74.2208 40.9062 73.6127 40.6273 73.74 40.5C74.24 40 78.24 40 79.74 40C80.3575 40 82.7569 40.2652 82.74 41.5C82.7303 42.204 82.24 42.5 81.74 42.5C81.24 42.5 80.74 42.8064 80.74 43C80.74 43.2586 81.74 43.5 81.74 43.5C82.2074 43.72 82.676 44.1661 82.74 44.5C83.0689 46.2152 81.74 46.5 80.24 47C78.5626 47.5591 76.74 48 75.74 48C75.036 48 74.24 48 73.74 47C73.24 46 73.74 46 73.74 45.5C73.74 44.5237 71.6845 44.6851 70.74 45C69.24 45.5 68.24 46 67.74 45.5C67.24 45 68.7622 43.1349 68.74 43Z" fill="#1A679D"/>
<mask id="mask4_6612_772" style="mask-type:alpha" maskUnits="userSpaceOnUse" x="63" y="40" width="20" height="8">
<path d="M68.74 43C68.6439 42.4169 63.74 43.181 63.74 42.5C63.74 42 65.6195 41.3967 67.24 41C68.5811 40.6717 71.24 40 71.24 40.5C71.24 40.9366 71.24 41.5 71.74 41.5C72.24 41.5 72.74 41.5 73.74 41.5C74.1596 41.5 74.2863 41.2267 74.24 41C74.2208 40.9062 73.6127 40.6273 73.74 40.5C74.24 40 78.24 40 79.74 40C80.3575 40 82.7569 40.2652 82.74 41.5C82.7303 42.204 82.24 42.5 81.74 42.5C81.24 42.5 80.74 42.8064 80.74 43C80.74 43.2586 81.74 43.5 81.74 43.5C82.2074 43.72 82.676 44.1661 82.74 44.5C83.0689 46.2152 81.74 46.5 80.24 47C78.5626 47.5591 76.74 48 75.74 48C75.036 48 74.24 48 73.74 47C73.24 46 73.74 46 73.74 45.5C73.74 44.5237 71.6845 44.6851 70.74 45C69.24 45.5 68.24 46 67.74 45.5C67.24 45 68.7622 43.1349 68.74 43Z" fill="#1A679D"/>
</mask>
<g mask="url(#mask4_6612_772)">
<path d="M71.24 40.579C71.24 41.079 71.3621 41.5 71.74 41.5C71.8143 41.5 71.74 45 71.74 45C71.74 45 71.3301 42.2212 71.24 41.6758C71.1652 41.2227 71.24 40.1198 71.24 40.579Z" fill="#134E78"/>
<path d="M73.74 41.5C74.24 41.5002 74 41 74.24 41C74.48 41 73.24 45.5004 73.24 44.5003C73.24 43.5002 73.6345 41.5 73.74 41.5Z" fill="#134E78"/>
</g>
<path d="M66.24 61.5C67.74 60.75 70.487 60.8767 72.24 61C74.6096 61.1666 76.24 61.5 77.74 62C77.9927 62.0842 77.0563 63 76.74 63C75.74 63 74.5055 62.5975 72.74 62.5C70.9853 62.4031 68.74 62 67.74 62.5C67.493 62.6235 67.3451 62.7446 67.24 63C66.9719 63.651 69.0456 63.8842 69.74 64C72.0182 64.3797 74.74 64 76.74 64.5C77.423 64.6707 77.8078 64.9442 78.24 65.5C78.5081 65.8446 78.6682 66.0693 78.74 66.5C78.8836 67.3613 78.8575 67.3825 78.24 68C78.0864 68.1536 77.24 68.8148 76.24 69C73.928 69.4281 71.0536 69.4191 68.74 69C67.1556 68.7129 65.74 68.5 64.74 68C64.2928 67.7764 64.8034 66.9366 65.24 66.5C65.74 66 67.6354 67.3663 69.24 67.5C75.24 68 75.74 67.5 76.24 67C76.4353 66.8047 76.6771 66.1457 76.24 66C74.74 65.5 68.74 65.9 67.74 65.5C66.9292 65.1757 66.0171 64.8694 65.74 64.5C65.3695 64.006 65.1777 63.6143 65.24 63C65.3111 62.2995 65.6103 61.8148 66.24 61.5Z" fill="#07691D"/>
<path d="M69.74 59.5001C69.8818 59.3583 70.9353 59.6095 70.74 60.0001C70.24 61.0001 70.1458 61.6926 69.74 63.5001C69.1396 66.1741 68.9485 71.442 68.74 71.5001C68.1739 71.6578 66.74 71.746 66.74 71.5001C66.7399 69.4385 66.9837 67.1559 67.74 64.5001C68.316 62.4774 69.24 60.0001 69.74 59.5001Z" fill="#07691D"/>
<path d="M73.74 59.5C74.1591 59.6222 74.74 59.5634 74.74 60C74.74 60.5 75.1547 62.7339 75.24 64.5C75.3909 67.6266 75.24 72.5 74.74 72.5C74.24 72.5 72.74 71.8201 72.74 71.5C72.74 71 73.5454 66.8675 73.74 64.5C73.9319 62.1647 73.3208 59.3777 73.74 59.5Z" fill="#07691D"/>
<path d="M80.7401 43C80.7401 43.2656 81.6786 43.4385 81.7401 43.5C81.8016 43.5614 79.7688 46 79.7401 46C79.7114 46 80.7401 42.8609 80.7401 43Z" fill="#134E78"/>
<path d="M68.2216 43H68.7216V44.4155L68.4716 43.5308L68.2216 43Z" fill="#134E78"/>
<path d="M41.24 61L49.74 60.5C49.74 60.5 54.24 63.5 58.24 68.5C60.24 71 63.0693 75.6161 62.74 77.5C62.1453 80.903 59.6706 82.671 56.74 84.5C55.9389 85 50.7503 86.6516 46.74 87C41.6487 87.4423 38.404 87.589 33.74 85.5C31.1699 84.3489 29.1792 83.9206 27.74 81.5C25.368 77.5106 29.24 72.5 31.74 69C34.8791 64.6053 41.24 61 41.24 61Z" fill="#13649D"/>
<path d="M42.2401 59.5C42.2401 59.5 43.7012 60.8372 44.7401 61C46.1041 61.2138 45.8593 60.5 47.2401 60.5C48.2401 60.5 48.2401 60.5 48.7401 60C49.0488 59.6913 49.3034 59 49.7401 59C50.2401 59 50.3248 59.6188 50.2401 60C49.8908 61.5718 47.8438 61.8556 46.2401 62C44.2856 62.176 41.2869 61.2412 41.2401 61C41.1932 60.7588 41.191 60.5858 41.2401 60.5C41.4567 60.1209 42.2401 59.5 42.2401 59.5Z" fill="#212121"/>
<path d="M42.24 60.5001C42.24 60.5001 40.8888 57.6498 39.74 56.0001C38.3964 54.0705 35.74 51.5001 35.74 51.5001C35.74 51.5001 41.24 50.793 41.24 51.5001C41.24 52.5001 39.6725 53.6148 40.24 54.5001C40.3136 54.6149 41.24 54.5001 42.24 54.0001C43.24 53.5001 45.74 53.5001 45.74 54.5001C45.74 55.0858 45.5092 55.4616 45.74 56.0001C45.9575 56.5077 46.2572 56.2318 46.74 56.5001C47.5934 56.9742 49.1553 56.7712 50.24 56.5001C52.24 56.0001 54.24 55.0001 54.24 55.0001L48.74 60.5001C48.74 60.5001 46.74 61.0001 45.74 61.0001C44.1298 61.0001 42.24 60.5001 42.24 60.5001Z" fill="#13649D"/>
<path d="M40.74 52C40.6439 51.4169 35.74 52.181 35.74 51.5C35.74 51 37.6195 50.3967 39.24 50C40.5811 49.6717 43.24 49 43.24 49.5C43.24 49.9366 43.3034 50.5 43.74 50.5C44.24 50.5 44.74 50.5 45.74 50.5C46.1596 50.5 46.2863 50.2267 46.24 50C46.2208 49.9062 45.6127 49.6273 45.74 49.5C46.24 49 50.24 49 51.74 49C52.3575 49 54.7569 49.2652 54.74 50.5C54.7303 51.204 54.24 51.5 53.74 51.5C53.24 51.5 52.74 51.8064 52.74 52C52.74 52.2586 53.74 52.5 53.74 52.5C54.2074 52.72 54.676 53.1661 54.74 53.5C55.0689 55.2152 53.74 55.5 52.24 56C50.5626 56.5591 48.74 57 47.74 57C47.036 57 46.24 57 45.74 56C45.24 55 45.74 55 45.74 54.5C45.74 53.5237 43.6845 53.6851 42.74 54C41.24 54.5 40.24 55 39.74 54.5C39.24 54 40.7622 52.1349 40.74 52Z" fill="#1979BE"/>
<mask id="mask5_6612_772" style="mask-type:alpha" maskUnits="userSpaceOnUse" x="35" y="49" width="20" height="8">
<path d="M40.74 52C40.6439 51.4169 35.74 52.181 35.74 51.5C35.74 51 37.6195 50.3967 39.24 50C40.5811 49.6717 43.24 49 43.24 49.5C43.24 49.9366 43.3034 50.5 43.74 50.5C44.24 50.5 44.74 50.5 45.74 50.5C46.1596 50.5 46.2863 50.2267 46.24 50C46.2208 49.9062 45.6127 49.6273 45.74 49.5C46.24 49 50.24 49 51.74 49C52.3575 49 54.7569 49.2652 54.74 50.5C54.7303 51.204 54.24 51.5 53.74 51.5C53.24 51.5 52.74 51.8064 52.74 52C52.74 52.2586 53.74 52.5 53.74 52.5C54.2074 52.72 54.676 53.1661 54.74 53.5C55.0689 55.2152 53.74 55.5 52.24 56C50.5626 56.5591 48.74 57 47.74 57C47.036 57 46.24 57 45.74 56C45.24 55 45.74 55 45.74 54.5C45.74 53.5237 43.6845 53.6851 42.74 54C41.24 54.5 40.24 55 39.74 54.5C39.24 54 40.7622 52.1349 40.74 52Z" fill="#1979BE"/>
</mask>
<g mask="url(#mask5_6612_772)">
<path d="M43.24 49.5001C43.24 50.0001 43.3621 50.5001 43.74 50.5001C43.8143 50.5001 43.74 54.0001 43.74 54.0001C43.74 54.0001 43.3301 51.2213 43.24 50.6759C43.1652 50.2228 43.24 49.0409 43.24 49.5001Z" fill="#13649D"/>
<path d="M45.74 50.5C46.24 50.5001 45.9639 50 46.24 50C46.5 50 45.24 54.5 45.24 53.5C45.24 52.5 45.6345 50.5 45.74 50.5Z" fill="#13649D"/>
</g>
<path d="M38.24 70.5C39.74 69.75 42.487 69.8767 44.24 70C46.6096 70.1666 48.24 70.5 49.74 71C49.9927 71.0842 49.0563 72 48.74 72C47.74 72 46.5055 71.5975 44.74 71.5C42.9853 71.4031 40.74 71 39.74 71.5C39.493 71.6235 39.3451 71.7446 39.24 72C38.9719 72.651 41.0456 72.8842 41.74 73C44.0182 73.3797 46.74 73 48.74 73.5C49.423 73.6707 49.8078 73.9442 50.24 74.5C50.5081 74.8446 50.6682 75.0693 50.74 75.5C50.8836 76.3613 50.8575 76.3825 50.24 77C50.0864 77.1536 49.24 77.8148 48.24 78C45.928 78.4281 43.0536 78.4191 40.74 78C39.1556 77.7129 37.74 77.5 36.74 77C36.2928 76.7764 36.8034 75.9366 37.24 75.5C37.74 75 39.6354 76.3663 41.24 76.5C47.24 77 47.74 76.5 48.24 76C48.4353 75.8047 48.6771 75.1457 48.24 75C46.74 74.5 40.74 74.9 39.74 74.5C38.9292 74.1757 38.0171 73.8694 37.74 73.5C37.3695 73.006 37.1777 72.6143 37.24 72C37.3111 71.2995 37.6103 70.8148 38.24 70.5Z" fill="#07691D"/>
<path d="M41.74 68.5001C41.8818 68.3583 42.9353 68.6095 42.74 69.0001C42.24 70.0001 42.1458 70.6926 41.74 72.5001C41.1396 75.1741 40.9485 80.442 40.74 80.5001C40.1739 80.6578 38.74 80.746 38.74 80.5001C38.7399 78.4385 38.9837 76.1559 39.74 73.5001C40.316 71.4774 41.24 69.0001 41.74 68.5001Z" fill="#07691D"/>
<path d="M45.74 68.5C46.1591 68.6222 46.74 68.5634 46.74 69C46.74 69.5 47.1547 71.7339 47.24 73.5C47.3909 76.6266 47.24 81.5 46.74 81.5C46.24 81.5 44.74 80.8201 44.74 80.5C44.74 80 45.5454 75.8675 45.74 73.5C45.9319 71.1647 45.3208 68.3777 45.74 68.5Z" fill="#07691D"/>
<path d="M52.7401 52C52.7401 52.2656 53.6786 52.4385 53.7401 52.5C53.8016 52.5614 51.7688 55 51.7401 55C51.7114 55 52.7401 51.8609 52.7401 52Z" fill="#13649D"/>
<path d="M40.2305 52H40.7305V53.4155L40.4805 52.5308L40.2305 52Z" fill="#13649D"/>
<path d="M164.638 17.5C164.638 20 163.138 22.5 160.138 22.5C157.653 22.5 155.138 20.5 155.138 17.5C155.138 14.5 157.638 13 160.138 13C162.623 13 164.638 15 164.638 17.5Z" fill="#002642"/>
<path d="M158.638 21.9999H161.638V22.9999C161.638 22.9999 163.915 23.2744 165.138 23.9999C166.325 24.7046 165.5 19.5496 165.5 17C165.5 16 164.862 11.5 167 11.5C167.704 11.5 168.5 12.5 168.5 15.5C168.5 16.204 168.5 20.5 168.5 21C168.5 23.6926 168.5 25 167.5 25.5C165.968 26.2659 164.138 27.2959 164.138 27.9999C164.138 28.4999 165.138 36.4999 165.138 41.4999C165.138 42.4999 164.593 42.2275 164.638 42.4999C165.138 45.4999 165.138 53.9999 165.138 59.4999C165.138 60.4762 164.559 61.0878 163.138 60.9999C162.236 60.9441 161.496 60.3955 161.376 59.4999C160.638 53.9999 161.638 43.9999 161.138 43.9999C159.966 43.9999 159.138 43.9999 158.638 43.9999C158.138 43.9999 158.638 55.7638 158.638 57.9999C158.638 58.9999 158.438 60.9999 156.138 60.9999C155.638 60.9999 154.707 60.3255 154.638 59.4999C154.138 53.4999 155.434 43.3881 155.138 42.4999C155 42.0857 154.518 42.309 154.638 41.4999C155.229 37.4999 156.162 28.9497 155.138 28.4999C154 27.9999 151.5 25.9999 151 24.9999C150 22.9999 150.5 15.3731 150.5 14.4999C150.5 11.4998 152.877 11.0083 153.5 13.4999C154 15.4998 153.5 18.9999 153.5 19.9999C153.5 22.5494 153.533 24.5854 154.638 23.9999C156.061 23.2459 158.638 22.9999 158.638 22.9999V21.9999Z" fill="#002642"/>
<path d="M206.638 15.5C206.638 18 205.138 20.5 202.138 20.5C199.653 20.5 197.138 18.5 197.138 15.5C197.138 12.5 199.638 11 202.138 11C204.623 11 206.638 13 206.638 15.5Z" fill="#002642"/>
<path d="M200.638 20.0002H203.638V21.0002C203.638 21.0002 205.915 21.2747 207.138 22.0002C208.325 22.7049 208.5 21.0001 209 19.0001C209.271 17.9155 209.829 16.0126 210.5 14.0001C211 12.5001 212 11.5001 212.5 13.5001C212.671 14.1831 212.171 19.3172 212 20.0002C211.5 22.0002 211 24.2501 209.5 25.0002C208.5 25.5002 206.138 25.2962 206.138 26.0002C206.138 26.5002 207.138 34.5002 207.138 39.5002C207.138 40.5002 206.593 40.2278 206.638 40.5002C207.138 43.5002 207.138 52.0002 207.138 57.5002C207.138 58.4765 206.559 59.0881 205.138 59.0002C204.236 58.9444 203.496 58.3958 203.376 57.5002C202.638 52.0002 203.638 42.0002 203.138 42.0002C201.966 42.0002 201.138 42.0002 200.638 42.0002C200.138 42.0002 200.638 53.7641 200.638 56.0002C200.638 57.0002 200.438 59.0002 198.138 59.0002C197.638 59.0002 196.707 58.3258 196.638 57.5002C196.138 51.5002 197.434 41.3884 197.138 40.5002C197 40.086 196.518 40.3093 196.638 39.5002C197.229 35.5002 197.928 25.7096 197.138 26.5002C196.422 27.2162 196.638 36.5002 196.138 37.5002C195.747 38.2812 195.011 38.4961 194.138 38.5002C192.561 38.5075 193.056 36.2217 193.138 33.6548C193.259 29.8662 193.991 24.2561 194.638 23.5002C195.451 22.55 195.533 22.5856 196.638 22.0002C198.061 21.2462 200.638 21.0002 200.638 21.0002V20.0002Z" fill="#002642"/>
<path d="M185.638 19.5C185.638 22 184.138 24.5 181.138 24.5C178.653 24.5 176.138 22.5 176.138 19.5C176.138 16.5 178.638 15 181.138 15C183.623 15 185.638 17 185.638 19.5Z" fill="#002642"/>
<path d="M179.638 24H182.638V25C182.638 25 184.915 25.2745 186.138 26C187.325 26.7047 188.02 27.2651 188.638 28.5C189.138 29.5 190.638 37 190.138 41.5C190.06 42.1997 189.342 42.5 188.638 42.5C187.934 42.5 187.237 42.197 187.138 41.5C186.638 38 186.138 32 186.138 31.5C186.138 30.796 185.138 29.296 185.138 30C185.138 30.5 186.138 38.5 186.138 43.5C186.138 44.5 185.593 44.2276 185.638 44.5C186.138 47.5 186.138 56 186.138 61.5C186.138 62.4763 185.559 63.0879 184.138 63C183.236 62.9442 182.496 62.3956 182.376 61.5C181.638 56 182.638 46 182.138 46C180.966 46 180.138 46 179.638 46C179.138 46 179.638 57.7639 179.638 60C179.638 61 179.438 63 177.138 63C176.638 63 175.707 62.3256 175.638 61.5C175.138 55.5 176.434 45.3882 176.138 44.5C176 44.0858 175.518 44.3091 175.638 43.5C176.229 39.5 176.928 29.7094 176.138 30.5C175.422 31.216 175.638 40.5 175.138 41.5C174.747 42.2811 174.011 42.4959 173.138 42.5C171.561 42.5073 172.056 40.2215 172.138 37.6546C172.259 33.866 172.991 28.2559 173.638 27.5C174.451 26.5498 174.533 26.5855 175.638 26C177.061 25.246 179.638 25 179.638 25V24Z" fill="#002642"/>
<path d="M195.638 22.5C195.638 25 194.138 27.5 191.138 27.5C188.653 27.5 186.138 25.5 186.138 22.5C186.138 19.5 188.638 18 191.138 18C193.623 18 195.638 20 195.638 22.5Z" fill="#2A70A3"/>
<path d="M189.638 27H192.638V28C192.638 28 194.915 28.2745 196.138 29C197.325 29.7047 198.02 30.2651 198.638 31.5C199.138 32.5 200.638 40 200.138 44.5C200.06 45.1997 199.342 45.5 198.638 45.5C197.934 45.5 197.237 45.197 197.138 44.5C196.638 41 196.138 35 196.138 34.5C196.138 33.796 195.138 32.296 195.138 33C195.138 33.5 196.138 41.5 196.138 46.5C196.138 47.5 195.593 47.2276 195.638 47.5C196.138 50.5 196.138 59 196.138 64.5C196.138 65.4763 195.559 66.0879 194.138 66C193.236 65.9442 192.496 65.3956 192.376 64.5C191.638 59 192.638 49 192.138 49C190.966 49 190.138 49 189.638 49C189.138 49 189.638 60.7639 189.638 63C189.638 64 189.438 66 187.138 66C186.638 66 185.707 65.3256 185.638 64.5C185.138 58.5 186.434 48.3882 186.138 47.5C186 47.0858 185.518 47.3091 185.638 46.5C186.229 42.5 186.928 32.7094 186.138 33.5C185.422 34.216 185.638 43.5 185.138 44.5C184.747 45.2811 184.011 45.4959 183.138 45.5C181.561 45.5073 182.056 43.2215 182.138 40.6546C182.259 36.866 182.991 31.2559 183.638 30.5C184.451 29.5498 184.533 29.5855 185.638 29C187.061 28.246 189.638 28 189.638 28V27Z" fill="#2A70A3"/>
<mask id="mask6_6612_772" style="mask-type:alpha" maskUnits="userSpaceOnUse" x="182" y="27" width="19" height="40">
<path d="M189.638 27H192.638V28C192.638 28 194.915 28.2745 196.138 29C197.325 29.7047 198.02 30.2651 198.638 31.5C199.138 32.5 200.638 40 200.138 44.5C200.06 45.1997 199.342 45.5 198.638 45.5C197.934 45.5 197.237 45.197 197.138 44.5C196.638 41 196.138 35 196.138 34.5C196.138 33.796 195.138 32.296 195.138 33C195.138 33.5 196.138 41.5 196.138 46.5C196.138 47.5 195.593 47.2276 195.638 47.5C196.138 50.5 196.138 59 196.138 64.5C196.138 65.4763 195.559 66.0879 194.138 66C193.236 65.9442 192.496 65.3956 192.376 64.5C191.638 59 192.638 49 192.138 49C190.966 49 190.138 49 189.638 49C189.138 49 189.638 60.7639 189.638 63C189.638 64 189.438 66 187.138 66C186.638 66 185.707 65.3256 185.638 64.5C185.138 58.5 186.434 48.3882 186.138 47.5C186 47.0858 185.518 47.3091 185.638 46.5C186.229 42.5 186.928 32.7094 186.138 33.5C185.422 34.216 185.638 43.5 185.138 44.5C184.747 45.2811 184.011 45.4959 183.138 45.5C181.561 45.5073 182.056 43.2215 182.138 40.6546C182.259 36.866 182.991 31.2559 183.638 30.5C184.451 29.5498 184.533 29.5855 185.638 29C187.061 28.246 189.638 28 189.638 28V27Z" fill="#2A70A3"/>
</mask>
<g mask="url(#mask6_6612_772)">
<path d="M182 33L183.5 29.5L187.5 28C187.5 28 189.919 29 191.5 29C192.5 29 194.5 28 194.5 28L197 41L186 41.5V34.5L182 33Z" fill="#FFC200"/>
</g>
<path d="M192.197 32H193L191.852 34H191L192.197 32Z" fill="#F00001"/>
<path d="M189.114 32C189.805 32 192 32 192 32L191.472 32.7879C191.472 32.7879 189.398 32.7879 188.992 32.7879C188.829 32.7879 188.652 32.8498 188.585 32.9091C188.423 33.0545 187.813 34 187.813 34H187C187 34 187.447 33.3333 187.935 32.6061C188.097 32.3647 188.208 32.2409 188.423 32.1212C188.604 32.0202 188.921 32 189.114 32Z" fill="#F00001"/>
<path d="M188.517 33.2105C188.619 33.0724 188.724 33 189 33C189.759 33 191 33 191 33L190.552 33.6842C190.552 33.6842 189.379 33.6842 189.034 33.6842C188.904 33.6842 188.888 33.7132 188.862 33.7368C188.78 33.8116 188.69 34 188.69 34L188 34C188 34 188.207 33.6316 188.517 33.2105Z" fill="#F00001"/>
<path d="M172.638 25.5C172.638 28 171.138 30.5 168.138 30.5C165.653 30.5 163.138 28.5 163.138 25.5C163.138 22.5 165.638 21 168.138 21C170.623 21 172.638 23 172.638 25.5Z" fill="#2A70A3"/>
<path d="M166.638 30H169.638V31C169.638 31 171.915 31.2745 173.138 32C174.325 32.7047 175.02 33.2651 175.638 34.5C176.138 35.5 177.638 43 177.138 47.5C177.06 48.1997 176.342 48.5 175.638 48.5C174.934 48.5 174.237 48.197 174.138 47.5C173.638 44 173.138 38 173.138 37.5C173.138 36.796 172.138 35.296 172.138 36C172.138 36.5 173.138 44.5 173.138 49.5C173.138 50.5 172.593 50.2276 172.638 50.5C173.138 53.5 173.138 62 173.138 67.5C173.138 68.4763 172.559 69.0879 171.138 69C170.236 68.9442 169.496 68.3956 169.376 67.5C168.638 62 169.638 52 169.138 52C167.966 52 167.138 52 166.638 52C166.138 52 166.638 63.7639 166.638 66C166.638 67 166.438 69 164.138 69C163.638 69 162.707 68.3256 162.638 67.5C162.138 61.5 163.434 51.3882 163.138 50.5C163 50.0858 162.518 50.3091 162.638 49.5C163.229 45.5 163.928 35.7094 163.138 36.5C162.422 37.216 162.638 46.5 162.138 47.5C161.747 48.2811 161.011 48.4959 160.138 48.5C158.561 48.5073 159.056 46.2215 159.138 43.6546C159.259 39.866 159.991 34.2559 160.638 33.5C161.451 32.5498 161.533 32.5855 162.638 32C164.061 31.246 166.638 31 166.638 31V30Z" fill="#2A70A3"/>
<path d="M207.638 40H210.638V41C210.638 41 212.915 41.2745 214.138 42C215.325 42.7047 216.02 43.2651 216.638 44.5C217.138 45.5 218.638 53 218.138 57.5C218.06 58.1997 217.342 58.5 216.638 58.5C215.934 58.5 215.237 58.197 215.138 57.5C214.638 54 214.138 48 214.138 47.5C214.138 46.796 213.138 45.296 213.138 46C213.138 46.5 214.138 54.5 214.138 59.5C214.138 60.5 213.593 60.2276 213.638 60.5C214.138 63.5 214.138 72 214.138 77.5C214.138 78.4763 213.559 79.0879 212.138 79C211.236 78.9442 210.496 78.3956 210.376 77.5C209.638 72 210.638 62 210.138 62C208.966 62 208.138 62 207.638 62C207.138 62 207.638 73.7639 207.638 76C207.638 77 207.438 79 205.138 79C204.638 79 203.707 78.3256 203.638 77.5C203.138 71.5 204.434 61.3882 204.138 60.5C204 60.0858 203.518 60.3091 203.638 59.5C204.229 55.5 204.928 45.7094 204.138 46.5C203.422 47.216 203.638 56.5 203.138 57.5C202.747 58.2811 202.011 58.4959 201.138 58.5C199.561 58.5073 200.056 56.2215 200.138 53.6546C200.259 49.866 200.991 44.2559 201.638 43.5C202.451 42.5498 202.533 42.5855 203.638 42C205.061 41.246 207.638 41 207.638 41V40Z" fill="#2A70A3"/>
<mask id="mask7_6612_772" style="mask-type:alpha" maskUnits="userSpaceOnUse" x="200" y="40" width="19" height="40">
<path d="M207.638 40H210.638V41C210.638 41 212.915 41.2745 214.138 42C215.325 42.7047 216.02 43.2651 216.638 44.5C217.138 45.5 218.638 53 218.138 57.5C218.06 58.1997 217.342 58.5 216.638 58.5C215.934 58.5 215.237 58.197 215.138 57.5C214.638 54 214.138 48 214.138 47.5C214.138 46.796 213.138 45.296 213.138 46C213.138 46.5 214.138 54.5 214.138 59.5C214.138 60.5 213.593 60.2276 213.638 60.5C214.138 63.5 214.138 72 214.138 77.5C214.138 78.4763 213.559 79.0879 212.138 79C211.236 78.9442 210.496 78.3956 210.376 77.5C209.638 72 210.638 62 210.138 62C208.966 62 208.138 62 207.638 62C207.138 62 207.638 73.7639 207.638 76C207.638 77 207.438 79 205.138 79C204.638 79 203.707 78.3256 203.638 77.5C203.138 71.5 204.434 61.3882 204.138 60.5C204 60.0858 203.518 60.3091 203.638 59.5C204.229 55.5 204.928 45.7094 204.138 46.5C203.422 47.216 203.638 56.5 203.138 57.5C202.747 58.2811 202.011 58.4959 201.138 58.5C199.561 58.5073 200.056 56.2215 200.138 53.6546C200.259 49.866 200.991 44.2559 201.638 43.5C202.451 42.5498 202.533 42.5855 203.638 42C205.061 41.246 207.638 41 207.638 41V40Z" fill="#2A70A3"/>
</mask>
<g mask="url(#mask7_6612_772)">
<line x1="205.46" y1="40.803" x2="208.46" y2="47.803" stroke="#212121"/>
<line x1="212.369" y1="41.2587" x2="208.428" y2="47.7757" stroke="#212121"/>
<rect x="207" y="47" width="3" height="4" rx="1" fill="#FFC200"/>
</g>
<path d="M184.638 38.5C184.638 41 183.138 43.5 180.138 43.5C177.653 43.5 175.138 41.5 175.138 38.5C175.138 35.5 177.638 34 180.138 34C182.623 34 184.638 36 184.638 38.5Z" fill="#134E78"/>
<path d="M178.638 43H181.638V44C181.638 44 183.915 44.2745 185.138 45C186.325 45.7047 187.02 46.2651 187.638 47.5C188.138 48.5 189.638 56 189.138 60.5C189.06 61.1997 188.342 61.5 187.638 61.5C186.934 61.5 186.237 61.197 186.138 60.5C185.638 57 185.138 51 185.138 50.5C185.138 49.796 184.138 48.296 184.138 49C184.138 49.5 185.138 57.5 185.138 62.5C185.138 63.5 184.593 63.2276 184.638 63.5C185.138 66.5 185.138 75 185.138 80.5C185.138 81.4763 184.559 82.0879 183.138 82C182.236 81.9442 181.496 81.3956 181.376 80.5C180.638 75 181.638 65 181.138 65C179.966 65 179.138 65 178.638 65C178.138 65 178.638 76.7639 178.638 79C178.638 80 178.438 82 176.138 82C175.638 82 174.707 81.3256 174.638 80.5C174.138 74.5 175.434 64.3882 175.138 63.5C175 63.0858 174.518 63.3091 174.638 62.5C175.229 58.5 175.928 48.7094 175.138 49.5C174.422 50.216 174.638 59.5 174.138 60.5C173.747 61.2811 173.011 61.4959 172.138 61.5C170.561 61.5073 171.056 59.2215 171.138 56.6546C171.259 52.866 171.991 47.2559 172.638 46.5C173.451 45.5498 173.533 45.5855 174.638 45C176.061 44.246 178.638 44 178.638 44V43Z" fill="#134E78"/>
<path d="M202.638 30.5C202.638 33 201.138 35.5 198.138 35.5C195.653 35.5 193.138 33.5 193.138 30.5C193.138 27.5 195.638 26 198.138 26C200.623 26 202.638 28 202.638 30.5Z" fill="#134E78"/>
<path d="M196.638 35H199.638V36C199.638 36 201.915 36.2745 203.138 37C204.325 37.7047 205.02 38.2651 205.638 39.5C206.138 40.5 207.638 48 207.138 52.5C207.06 53.1997 206.342 53.5 205.638 53.5C204.934 53.5 204.237 53.197 204.138 52.5C203.638 49 203.138 43 203.138 42.5C203.138 41.796 202.138 40.296 202.138 41C202.138 41.5 203.138 49.5 203.138 54.5C203.138 55.5 202.593 55.2276 202.638 55.5C203.138 58.5 203.138 67 203.138 72.5C203.138 73.4763 202.559 74.0879 201.138 74C200.236 73.9442 199.496 73.3956 199.376 72.5C198.638 67 199.638 57 199.138 57C197.966 57 197.138 57 196.638 57C196.138 57 196.638 68.7639 196.638 71C196.638 72 196.438 74 194.138 74C193.638 74 192.707 73.3256 192.638 72.5C192.138 66.5 193.434 56.3882 193.138 55.5C193 55.0858 192.518 55.3091 192.638 54.5C193.229 50.5 193.928 40.7094 193.138 41.5C192.422 42.216 192.638 51.5 192.138 52.5C191.747 53.2811 191.011 53.4959 190.138 53.5C188.561 53.5073 189.056 51.2215 189.138 48.6546C189.259 44.866 189.991 39.2559 190.638 38.5C191.451 37.5498 191.533 37.5855 192.638 37C194.061 36.246 196.638 36 196.638 36V35Z" fill="#134E78"/>
<path d="M163.638 39.5C163.638 42 162.138 44.5 159.138 44.5C156.653 44.5 154.138 42.5 154.138 39.5C154.138 36.5 156.638 35 159.138 35C161.623 35 163.638 37 163.638 39.5Z" fill="#134E78"/>
<path d="M157.638 44H160.638V45C160.638 45 162.915 45.2745 164.138 46C165.325 46.7047 166.02 47.2651 166.638 48.5C167.138 49.5 168.638 57 168.138 61.5C168.06 62.1997 167.342 62.5 166.638 62.5C165.934 62.5 165.237 62.197 165.138 61.5C164.638 58 164.138 52 164.138 51.5C164.138 50.796 163.138 49.296 163.138 50C163.138 50.5 164.138 58.5 164.138 63.5C164.138 64.5 163.593 64.2276 163.638 64.5C164.138 67.5 164.138 76 164.138 81.5C164.138 82.4763 163.559 83.0879 162.138 83C161.236 82.9442 160.496 82.3956 160.376 81.5C159.638 76 160.638 66 160.138 66C158.966 66 158.138 66 157.638 66C157.138 66 157.638 77.7639 157.638 80C157.638 81 157.438 83 155.138 83C154.638 83 153.707 82.3256 153.638 81.5C153.138 75.5 154.434 65.3882 154.138 64.5C154 64.0858 153.518 64.3091 153.638 63.5C154.229 59.5 154.928 49.7094 154.138 50.5C153.422 51.216 153.638 60.5 153.138 61.5C152.747 62.2811 152.011 62.4959 151.138 62.5C149.561 62.5073 150.056 60.2215 150.138 57.6546C150.259 53.866 150.991 48.2559 151.638 47.5C152.451 46.5498 152.533 46.5855 153.638 46C155.061 45.246 157.638 45 157.638 45V44Z" fill="#134E78"/>
<mask id="mask8_6612_772" style="mask-type:alpha" maskUnits="userSpaceOnUse" x="150" y="44" width="19" height="40">
<path d="M157.638 44H160.638V45C160.638 45 162.915 45.2745 164.138 46C165.325 46.7047 166.02 47.2651 166.638 48.5C167.138 49.5 168.638 57 168.138 61.5C168.06 62.1997 167.342 62.5 166.638 62.5C165.934 62.5 165.237 62.197 165.138 61.5C164.638 58 164.138 52 164.138 51.5C164.138 50.796 163.138 49.296 163.138 50C163.138 50.5 164.138 58.5 164.138 63.5C164.138 64.5 163.593 64.2276 163.638 64.5C164.138 67.5 164.138 76 164.138 81.5C164.138 82.4763 163.559 83.0879 162.138 83C161.236 82.9442 160.496 82.3956 160.376 81.5C159.638 76 160.638 66 160.138 66C158.966 66 158.138 66 157.638 66C157.138 66 157.638 77.7639 157.638 80C157.638 81 157.438 83 155.138 83C154.638 83 153.707 82.3256 153.638 81.5C153.138 75.5 154.434 65.3882 154.138 64.5C154 64.0858 153.518 64.3091 153.638 63.5C154.229 59.5 154.928 49.7094 154.138 50.5C153.422 51.216 153.638 60.5 153.138 61.5C152.747 62.2811 152.011 62.4959 151.138 62.5C149.561 62.5073 150.056 60.2215 150.138 57.6546C150.259 53.866 150.991 48.2559 151.638 47.5C152.451 46.5498 152.533 46.5855 153.638 46C155.061 45.246 157.638 45 157.638 45V44Z" fill="#134E78"/>
</mask>
<g mask="url(#mask8_6612_772)">
<line x1="155.46" y1="44.803" x2="158.46" y2="51.803" stroke="#212121"/>
<line x1="162.369" y1="45.2587" x2="158.428" y2="51.7757" stroke="#212121"/>
<rect x="157" y="51" width="3" height="4" rx="1" fill="#840032"/>
</g>
<path d="M174.5 42.5C174.5 45 173 47.5 170 47.5C167.515 47.5 165 45.5 165 42.5C165 39.5 167.5 38 170 38C172.485 38 174.5 40 174.5 42.5Z" fill="#4387B8"/>
<path d="M174.5 42.5C174.5 45 173 47.5 170 47.5C167.515 47.5 165 45.5 165 42.5C165 39.5 167.5 38 170 38C172.485 38 174.5 40 174.5 42.5Z" fill="#4387B8"/>
<path d="M168.638 47H171.638V48C171.638 48 173.915 48.2745 175.138 49C176.325 49.7047 177.02 50.2651 177.638 51.5C178.138 52.5 179.638 60 179.138 64.5C179.06 65.1997 178.342 65.5 177.638 65.5C176.934 65.5 176.237 65.197 176.138 64.5C175.638 61 175.138 55 175.138 54.5C175.138 53.796 174.138 52.296 174.138 53C174.138 53.5 175.138 61.5 175.138 66.5C175.138 67.5 174.593 67.2276 174.638 67.5C175.138 70.5 175.138 79 175.138 84.5C175.138 85.4763 174.559 86.0879 173.138 86C172.236 85.9442 171.496 85.3956 171.376 84.5C170.638 79 171.638 69 171.138 69C169.966 69 169.138 69 168.638 69C168.138 69 168.638 80.7639 168.638 83C168.638 84 168.438 86 166.138 86C165.638 86 164.707 85.3256 164.638 84.5C164.138 78.5 165.434 68.3882 165.138 67.5C165 67.0858 164.518 67.3091 164.638 66.5C165.229 62.5 165.928 52.7094 165.138 53.5C164.422 54.216 164.638 63.5 164.138 64.5C163.747 65.2811 163.011 65.4959 162.138 65.5C160.561 65.5073 161.056 63.2215 161.138 60.6546C161.259 56.866 161.991 51.2559 162.638 50.5C163.451 49.5498 163.533 49.5855 164.638 49C166.061 48.246 168.638 48 168.638 48V47Z" fill="#4387B8"/>
<path d="M168.638 47H171.638V48C171.638 48 173.915 48.2745 175.138 49C176.325 49.7047 177.02 50.2651 177.638 51.5C178.138 52.5 179.638 60 179.138 64.5C179.06 65.1997 178.342 65.5 177.638 65.5C176.934 65.5 176.237 65.197 176.138 64.5C175.638 61 175.138 55 175.138 54.5C175.138 53.796 174.138 52.296 174.138 53C174.138 53.5 175.138 61.5 175.138 66.5C175.138 67.5 174.593 67.2276 174.638 67.5C175.138 70.5 175.138 79 175.138 84.5C175.138 85.4763 174.559 86.0879 173.138 86C172.236 85.9442 171.496 85.3956 171.376 84.5C170.638 79 171.638 69 171.138 69C169.966 69 169.138 69 168.638 69C168.138 69 168.638 80.7639 168.638 83C168.638 84 168.438 86 166.138 86C165.638 86 164.707 85.3256 164.638 84.5C164.138 78.5 165.434 68.3882 165.138 67.5C165 67.0858 164.518 67.3091 164.638 66.5C165.229 62.5 165.928 52.7094 165.138 53.5C164.422 54.216 164.638 63.5 164.138 64.5C163.747 65.2811 163.011 65.4959 162.138 65.5C160.561 65.5073 161.056 63.2215 161.138 60.6546C161.259 56.866 161.991 51.2559 162.638 50.5C163.451 49.5498 163.533 49.5855 164.638 49C166.061 48.246 168.638 48 168.638 48V47Z" fill="#4387B8"/>
<path d="M196.638 44.5C196.638 47 195.138 49.5 192.138 49.5C189.653 49.5 187.138 47.5 187.138 44.5C187.138 41.5 189.638 40 192.138 40C194.623 40 196.638 42 196.638 44.5Z" fill="#4387B8"/>
<path d="M196.638 44.5C196.638 47 195.138 49.5 192.138 49.5C189.653 49.5 187.138 47.5 187.138 44.5C187.138 41.5 189.638 40 192.138 40C194.623 40 196.638 42 196.638 44.5Z" fill="#4387B8"/>
<path d="M190.638 49H193.638V50C193.638 50 195.915 50.2745 197.138 51C198.325 51.7047 199.02 52.2651 199.638 53.5C200.138 54.5 201.638 62 201.138 66.5C201.06 67.1997 200.342 67.5 199.638 67.5C198.934 67.5 198.237 67.197 198.138 66.5C197.638 63 197.138 57 197.138 56.5C197.138 55.796 196.138 54.296 196.138 55C196.138 55.5 197.138 63.5 197.138 68.5C197.138 69.5 196.593 69.2276 196.638 69.5C197.138 72.5 197.138 81 197.138 86.5C197.138 87.4763 196.559 88.0879 195.138 88C194.236 87.9442 193.496 87.3956 193.376 86.5C192.638 81 193.638 71 193.138 71C191.966 71 191.138 71 190.638 71C190.138 71 190.638 82.7639 190.638 85C190.638 86 190.438 88 188.138 88C187.638 88 186.707 87.3256 186.638 86.5C186.138 80.5 187.434 70.3882 187.138 69.5C187 69.0858 186.518 69.3091 186.638 68.5C187.229 64.5 187.928 54.7094 187.138 55.5C186.422 56.216 186.638 65.5 186.138 66.5C185.747 67.2811 185.011 67.4959 184.138 67.5C182.561 67.5073 183.056 65.2215 183.138 62.6546C183.259 58.866 183.991 53.2559 184.638 52.5C185.451 51.5498 185.533 51.5855 186.638 51C188.061 50.246 190.638 50 190.638 50V49Z" fill="#4387B8"/>
<path d="M190.638 49H193.638V50C193.638 50 195.915 50.2745 197.138 51C198.325 51.7047 199.02 52.2651 199.638 53.5C200.138 54.5 201.638 62 201.138 66.5C201.06 67.1997 200.342 67.5 199.638 67.5C198.934 67.5 198.237 67.197 198.138 66.5C197.638 63 197.138 57 197.138 56.5C197.138 55.796 196.138 54.296 196.138 55C196.138 55.5 197.138 63.5 197.138 68.5C197.138 69.5 196.593 69.2276 196.638 69.5C197.138 72.5 197.138 81 197.138 86.5C197.138 87.4763 196.559 88.0879 195.138 88C194.236 87.9442 193.496 87.3956 193.376 86.5C192.638 81 193.638 71 193.138 71C191.966 71 191.138 71 190.638 71C190.138 71 190.638 82.7639 190.638 85C190.638 86 190.438 88 188.138 88C187.638 88 186.707 87.3256 186.638 86.5C186.138 80.5 187.434 70.3882 187.138 69.5C187 69.0858 186.518 69.3091 186.638 68.5C187.229 64.5 187.928 54.7094 187.138 55.5C186.422 56.216 186.638 65.5 186.138 66.5C185.747 67.2811 185.011 67.4959 184.138 67.5C182.561 67.5073 183.056 65.2215 183.138 62.6546C183.259 58.866 183.991 53.2559 184.638 52.5C185.451 51.5498 185.533 51.5855 186.638 51C188.061 50.246 190.638 50 190.638 50V49Z" fill="#4387B8"/>
<path d="M213.5 35.5C213.5 38 212 40.5 209 40.5C206.515 40.5 204 38.5 204 35.5C204 32.5 206.5 31 209 31C211.485 31 213.5 33 213.5 35.5Z" fill="#2A70A3"/>
<path d="M150.734 125H166L144.185 148H128L150.734 125Z" fill="#F00001"/>
<path d="M100.358 125C112.244 125 150 125 150 125L140.911 134.455C140.911 134.455 105.252 134.455 98.2602 134.455C95.4634 134.455 92.408 135.198 91.2683 135.909C88.4715 137.655 77.9837 149 77.9837 149H64C64 149 71.6911 141 80.0813 132.273C82.8659 129.376 84.7837 127.891 88.4715 126.455C91.5823 125.243 97.0359 125 100.358 125Z" fill="#F00001"/>
<path d="M89.5172 137.947C91.5879 136.013 93.7241 135 99.3333 135C114.759 135 140 135 140 135L130.885 144.579C130.885 144.579 107.046 144.579 100.034 144.579C97.372 144.579 97.0538 144.985 96.5287 145.316C94.8685 146.363 93.023 149 93.023 149L79 149C79 149 83.2069 143.842 89.5172 137.947Z" fill="#F00001"/>
<path d="M181 51L179.571 56.2857L176.571 64L176 63.8571L178.571 57.1429L181 51Z" fill="#212121"/>
<path d="M180.831 51.3187C180.831 51.3187 181.676 50.7161 182.803 51.1681C184.663 51.9143 185.605 54.9602 187.592 54.9341C188.272 54.9252 189 54.6329 189 54.6329L186.887 60.6586C186.887 60.6586 186.119 61.1394 185.197 60.9599C183.366 60.6032 182.38 57.8566 180.831 57.1938C180.127 56.8925 179 57.0431 179 57.0431L180.831 51.3187Z" fill="#212121"/>
<path d="M147.862 2.86872C147.862 2.86872 148.892 0.879214 151.526 0.361249C155.874 -0.493999 160.752 3.61076 164.57 1.29796C165.877 0.506046 166.993 -0.822441 166.993 -0.822441L168.952 11.8363C168.952 11.8363 167.948 13.5314 165.985 14.2783C162.084 15.7623 157.421 12.2174 153.758 12.8592C152.093 13.1509 150.064 14.6935 150.064 14.6935L147.862 2.86872Z" fill="#F1EAE5"/>
<mask id="mask9_6612_772" style="mask-type:alpha" maskUnits="userSpaceOnUse" x="179" y="51" width="10" height="10">
<path d="M181.204 51.3067C181.204 51.3067 182.011 50.7268 183.086 51.1618C184.862 51.8799 185.76 54.8114 187.656 54.7863C188.305 54.7777 189 54.4963 189 54.4963L186.984 60.2956C186.984 60.2956 186.25 60.7583 185.371 60.5855C183.624 60.2423 182.683 57.5989 181.204 56.961C180.532 56.671 179.457 56.816 179.457 56.816L181.204 51.3067Z" fill="#212121"/>
</mask>
<g mask="url(#mask9_6612_772)">
<path d="M182.817 51.3067C182.894 51.2237 183.257 51.4226 183.489 51.5966C183.672 51.7337 183.893 51.8866 183.893 52.0316C183.893 52.4665 183.555 53.3364 183.489 53.3364C183.424 53.3364 183.045 53.0414 182.817 52.9015C182.572 52.7508 182.323 52.6579 182.28 52.6115C182.221 52.5479 182.683 51.4517 182.817 51.3067Z" fill="#F1EAE5"/>
<path d="M182.817 51.3067C182.894 51.2237 183.257 51.4226 183.489 51.5966C183.672 51.7337 183.893 51.8866 183.893 52.0316C183.893 52.4665 183.555 53.3364 183.489 53.3364C183.424 53.3364 183.045 53.0414 182.817 52.9015C182.572 52.7508 182.323 52.6579 182.28 52.6115C182.221 52.5479 182.683 51.4517 182.817 51.3067Z" fill="#F1EAE5"/>
<path d="M179.86 55.3662C179.937 55.2832 180.398 55.2212 180.667 55.2212C180.889 55.2212 181.523 55.2582 181.473 55.3662C181.339 55.6561 181.07 56.526 180.936 56.526C180.801 56.526 180.365 56.526 180.263 56.526C179.726 56.526 179.5 56.7174 179.457 56.671C179.398 56.6074 179.726 55.5112 179.86 55.3662Z" fill="#F1EAE5"/>
<path d="M179.86 55.3662C179.937 55.2832 180.398 55.2212 180.667 55.2212C180.889 55.2212 181.523 55.2582 181.473 55.3662C181.339 55.6561 181.07 56.526 180.936 56.526C180.801 56.526 180.365 56.526 180.263 56.526C179.726 56.526 179.5 56.7174 179.457 56.671C179.398 56.6074 179.726 55.5112 179.86 55.3662Z" fill="#F1EAE5"/>
<path d="M184.565 58.2658C184.61 58.2173 184.768 58.3402 184.968 58.5558C185.371 58.9907 185.774 58.8457 185.774 58.9907C185.774 59.4256 185.302 60.2955 185.237 60.2955C185.171 60.2955 184.793 60.1455 184.565 60.0056C184.319 59.8549 184.21 59.6365 184.167 59.5901C184.108 59.5265 184.43 58.4108 184.565 58.2658Z" fill="#F1EAE5"/>
<path d="M184.565 58.2658C184.61 58.2173 184.768 58.3402 184.968 58.5558C185.371 58.9907 185.774 58.8457 185.774 58.9907C185.774 59.4256 185.302 60.2955 185.237 60.2955C185.171 60.2955 184.793 60.1455 184.565 60.0056C184.319 59.8549 184.21 59.6365 184.167 59.5901C184.108 59.5265 184.43 58.4108 184.565 58.2658Z" fill="#F1EAE5"/>
<path d="M185.511 55.6756C185.588 55.5926 185.945 55.9171 186.177 56.0911C186.36 56.2281 186.758 56.2435 186.715 56.381C186.581 56.816 186.248 57.7053 186.183 57.7053C186.117 57.7053 185.868 57.5358 185.64 57.3959C185.394 57.2452 185.145 57.0073 185.102 56.961C185.043 56.8974 185.376 55.8206 185.511 55.6756Z" fill="#F1EAE5"/>
<path d="M185.511 55.6756C185.588 55.5926 185.945 55.9171 186.177 56.0911C186.36 56.2281 186.758 56.2435 186.715 56.381C186.581 56.816 186.248 57.7053 186.183 57.7053C186.117 57.7053 185.868 57.5358 185.64 57.3959C185.394 57.2452 185.145 57.0073 185.102 56.961C185.043 56.8974 185.376 55.8206 185.511 55.6756Z" fill="#F1EAE5"/>
<path d="M183.489 53.3364C183.566 53.2534 183.893 53.7714 184.027 53.9164C184.184 54.0863 184.596 54.4289 184.565 54.4963C184.43 54.7863 184.046 55.8011 184.027 55.8011C184.007 55.8011 183.624 55.3662 183.489 55.2212C183.289 55.0056 183.129 54.8327 183.086 54.7863C182.952 54.6413 183.355 53.4814 183.489 53.3364Z" fill="#F1EAE5"/>
<path d="M183.489 53.3364C183.566 53.2534 183.893 53.7714 184.027 53.9164C184.184 54.0863 184.596 54.4289 184.565 54.4963C184.43 54.7863 184.046 55.8011 184.027 55.8011C184.007 55.8011 183.624 55.3662 183.489 55.2212C183.289 55.0056 183.129 54.8327 183.086 54.7863C182.952 54.6413 183.355 53.4814 183.489 53.3364Z" fill="#F1EAE5"/>
<path d="M181.876 53.9164C181.953 53.8334 182.28 54.0614 182.414 54.2064C182.492 54.2903 183.092 54.6434 183.061 54.7108C182.926 55.0008 182.568 55.9461 182.548 55.9461C182.529 55.9461 182.414 55.9461 182.28 55.8011C182.011 55.5112 181.516 55.4126 181.473 55.3662C181.339 55.2212 181.742 54.0614 181.876 53.9164Z" fill="#F1EAE5"/>
<path d="M181.876 53.9164C181.953 53.8334 182.28 54.0614 182.414 54.2064C182.492 54.2903 183.092 54.6434 183.061 54.7108C182.926 55.0008 182.568 55.9461 182.548 55.9461C182.529 55.9461 182.414 55.9461 182.28 55.8011C182.011 55.5112 181.516 55.4126 181.473 55.3662C181.339 55.2212 181.742 54.0614 181.876 53.9164Z" fill="#F1EAE5"/>
<path d="M180.801 52.7565C180.878 52.6735 181.473 52.5204 181.767 52.5204C181.877 52.5204 182.311 52.5442 182.28 52.6115C182.145 52.9015 181.896 53.9164 181.876 53.9164C181.857 53.9164 181.663 53.9164 181.473 53.9164C180.801 53.9164 180.398 54.127 180.398 54.0614C180.398 53.9164 180.667 52.9015 180.801 52.7565Z" fill="#F1EAE5"/>
<path d="M180.801 52.7565C180.878 52.6735 181.473 52.5204 181.767 52.5204C181.877 52.5204 182.311 52.5442 182.28 52.6115C182.145 52.9015 181.896 53.9164 181.876 53.9164C181.857 53.9164 181.663 53.9164 181.473 53.9164C180.801 53.9164 180.398 54.127 180.398 54.0614C180.398 53.9164 180.667 52.9015 180.801 52.7565Z" fill="#F1EAE5"/>
<path d="M185 53.5C185.077 53.417 185.224 53.7162 185.5 54.0001C185.661 54.1659 186.021 54.4333 186 54.5001C185.866 54.935 185.571 55.5112 185.505 55.5112C185.44 55.5112 185.237 55.3662 184.975 55.0702C184.78 54.8496 184.608 54.5427 184.565 54.4963C184.506 54.4327 184.866 53.645 185 53.5Z" fill="#F1EAE5"/>
<path d="M185 53.5C185.077 53.417 185.224 53.7162 185.5 54.0001C185.661 54.1659 186.021 54.4333 186 54.5001C185.866 54.935 185.571 55.5112 185.505 55.5112C185.44 55.5112 185.237 55.3662 184.975 55.0702C184.78 54.8496 184.608 54.5427 184.565 54.4963C184.506 54.4327 184.866 53.645 185 53.5Z" fill="#F1EAE5"/>
<path d="M184.027 55.8011C184.161 55.9461 184.161 55.9461 184.43 56.2361C184.643 56.4653 185.114 56.9238 185.102 56.961C184.968 57.3959 184.63 58.2658 184.565 58.2658C184.499 58.2658 184.154 57.837 184.027 57.6859C183.837 57.4604 183.624 57.3063 183.624 57.106C183.624 56.9057 183.979 55.749 184.027 55.8011Z" fill="#F1EAE5"/>
<path d="M184.027 55.8011C184.161 55.9461 184.161 55.9461 184.43 56.2361C184.643 56.4653 185.114 56.9238 185.102 56.961C184.968 57.3959 184.63 58.2658 184.565 58.2658C184.499 58.2658 184.154 57.837 184.027 57.6859C183.837 57.4604 183.624 57.3063 183.624 57.106C183.624 56.9057 183.979 55.749 184.027 55.8011Z" fill="#F1EAE5"/>
<path d="M182.548 55.9461C182.683 56.0911 182.683 56.0911 182.952 56.3811C183.176 56.6228 183.635 57.0688 183.624 57.106C183.489 57.5409 183.127 58.5558 183.086 58.5558C183.045 58.5558 182.817 58.1495 182.548 57.8309C182.211 57.4313 182.011 57.5409 182.145 57.106C182.28 56.671 182.5 55.894 182.548 55.9461Z" fill="#F1EAE5"/>
<path d="M182.548 55.9461C182.683 56.0911 182.683 56.0911 182.952 56.3811C183.176 56.6228 183.635 57.0688 183.624 57.106C183.489 57.5409 183.127 58.5558 183.086 58.5558C183.045 58.5558 182.817 58.1495 182.548 57.8309C182.211 57.4313 182.011 57.5409 182.145 57.106C182.28 56.671 182.5 55.894 182.548 55.9461Z" fill="#F1EAE5"/>
<path d="M187.154 55.0095C187.231 54.9265 187.387 55.0095 187.925 55.0095C188.147 55.0095 188.639 54.7937 188.597 54.9312C188.462 55.3662 188.328 55.8011 188.194 56.0911C188.059 56.381 187.656 56.381 187.387 56.381C187.087 56.381 186.788 56.3413 186.745 56.2949C186.686 56.2313 187.019 55.1545 187.154 55.0095Z" fill="#F1EAE5"/>
<path d="M187.154 55.0095C187.231 54.9265 187.387 55.0095 187.925 55.0095C188.147 55.0095 188.639 54.7937 188.597 54.9312C188.462 55.3662 188.328 55.8011 188.194 56.0911C188.059 56.381 187.656 56.381 187.387 56.381C187.087 56.381 186.788 56.3413 186.745 56.2949C186.686 56.2313 187.019 55.1545 187.154 55.0095Z" fill="#F1EAE5"/>
<path d="M186.177 57.6859C186.254 57.6029 186.446 57.6859 186.984 57.6859C187.207 57.6859 187.734 57.4344 187.656 57.6859C187.522 58.1208 187.299 58.7466 187.253 58.8457C187.207 58.9449 187.067 58.9343 186.85 58.9907C186.446 59.0954 185.817 59.0371 185.774 58.9907C185.715 58.9271 186.043 57.8309 186.177 57.6859Z" fill="#F1EAE5"/>
<path d="M186.177 57.6859C186.254 57.6029 186.446 57.6859 186.984 57.6859C187.207 57.6859 187.734 57.4344 187.656 57.6859C187.522 58.1208 187.299 58.7466 187.253 58.8457C187.207 58.9449 187.067 58.9343 186.85 58.9907C186.446 59.0954 185.817 59.0371 185.774 58.9907C185.715 58.9271 186.043 57.8309 186.177 57.6859Z" fill="#F1EAE5"/>
</g>
<path d="M215 5L213.571 10.2857L210.571 18L210 17.8571L212.571 11.1429L215 5Z" fill="#212121"/>
<path d="M214.831 5.31872C214.831 5.31872 215.676 4.71615 216.803 5.16807C218.663 5.91428 219.605 8.96024 221.592 8.93415C222.272 8.92521 223 8.63286 223 8.63286L220.887 14.6586C220.887 14.6586 220.119 15.1394 219.197 14.9599C217.366 14.6032 216.38 11.8566 214.831 11.1938C214.127 10.8925 213 11.0431 213 11.0431L214.831 5.31872Z" fill="#212121"/>
<mask id="mask10_6612_772" style="mask-type:alpha" maskUnits="userSpaceOnUse" x="213" y="5" width="10" height="10">
<path d="M215.204 5.30674C215.204 5.30674 216.011 4.72682 217.086 5.16176C218.862 5.87992 219.76 8.81139 221.656 8.78628C222.305 8.77768 223 8.49632 223 8.49632L220.984 14.2956C220.984 14.2956 220.25 14.7583 219.371 14.5855C217.624 14.2423 216.683 11.5989 215.204 10.961C214.532 10.671 213.457 10.816 213.457 10.816L215.204 5.30674Z" fill="#212121"/>
</mask>
<g mask="url(#mask10_6612_772)">
<path d="M216.817 5.3068C216.894 5.2238 217.257 5.42277 217.489 5.59676C217.672 5.73384 217.893 5.88673 217.893 6.03171C217.893 6.46665 217.555 7.33654 217.489 7.33654C217.424 7.33654 217.045 7.0415 216.817 6.90159C216.572 6.75091 216.323 6.65802 216.28 6.61163C216.221 6.54802 216.683 5.45179 216.817 5.3068Z" fill="#F1EAE5"/>
<path d="M216.817 5.3068C216.894 5.2238 217.257 5.42277 217.489 5.59676C217.672 5.73384 217.893 5.88673 217.893 6.03171C217.893 6.46665 217.555 7.33654 217.489 7.33654C217.424 7.33654 217.045 7.0415 216.817 6.90159C216.572 6.75091 216.323 6.65802 216.28 6.61163C216.221 6.54802 216.683 5.45179 216.817 5.3068Z" fill="#F1EAE5"/>
<path d="M213.86 9.36618C213.937 9.28318 214.398 9.22119 214.667 9.22119C214.889 9.22119 215.523 9.25821 215.473 9.36617C215.339 9.65613 215.07 10.526 214.936 10.526C214.801 10.526 214.365 10.526 214.263 10.526C213.726 10.526 213.5 10.7174 213.457 10.671C213.398 10.6074 213.726 9.51117 213.86 9.36618Z" fill="#F1EAE5"/>
<path d="M213.86 9.36618C213.937 9.28318 214.398 9.22119 214.667 9.22119C214.889 9.22119 215.523 9.25821 215.473 9.36617C215.339 9.65613 215.07 10.526 214.936 10.526C214.801 10.526 214.365 10.526 214.263 10.526C213.726 10.526 213.5 10.7174 213.457 10.671C213.398 10.6074 213.726 9.51117 213.86 9.36618Z" fill="#F1EAE5"/>
<path d="M218.565 12.2659C218.61 12.2174 218.768 12.3403 218.968 12.5559C219.371 12.9908 219.774 12.8458 219.774 12.9908C219.774 13.4258 219.302 14.2956 219.237 14.2956C219.171 14.2956 218.793 14.1456 218.565 14.0057C218.319 13.855 218.21 13.6366 218.167 13.5902C218.108 13.5266 218.43 12.4109 218.565 12.2659Z" fill="#F1EAE5"/>
<path d="M218.565 12.2659C218.61 12.2174 218.768 12.3403 218.968 12.5559C219.371 12.9908 219.774 12.8458 219.774 12.9908C219.774 13.4258 219.302 14.2956 219.237 14.2956C219.171 14.2956 218.793 14.1456 218.565 14.0057C218.319 13.855 218.21 13.6366 218.167 13.5902C218.108 13.5266 218.43 12.4109 218.565 12.2659Z" fill="#F1EAE5"/>
<path d="M219.511 9.67569C219.588 9.59269 219.945 9.9172 220.177 10.0912C220.36 10.2283 220.758 10.2436 220.715 10.3812C220.581 10.8161 220.248 11.7054 220.183 11.7054C220.117 11.7054 219.868 11.5359 219.64 11.396C219.394 11.2453 219.145 11.0075 219.102 10.9611C219.043 10.8975 219.376 9.82069 219.511 9.67569Z" fill="#F1EAE5"/>
<path d="M219.511 9.67569C219.588 9.59269 219.945 9.9172 220.177 10.0912C220.36 10.2283 220.758 10.2436 220.715 10.3812C220.581 10.8161 220.248 11.7054 220.183 11.7054C220.117 11.7054 219.868 11.5359 219.64 11.396C219.394 11.2453 219.145 11.0075 219.102 10.9611C219.043 10.8975 219.376 9.82069 219.511 9.67569Z" fill="#F1EAE5"/>
<path d="M217.489 7.33651C217.566 7.25351 217.893 7.77153 218.027 7.91652C218.184 8.08637 218.596 8.42906 218.565 8.49644C218.43 8.7864 218.046 9.80126 218.027 9.80126C218.007 9.80126 217.624 9.36632 217.489 9.22134C217.289 9.00574 217.129 8.83279 217.086 8.7864C216.952 8.64142 217.355 7.4815 217.489 7.33651Z" fill="#F1EAE5"/>
<path d="M217.489 7.33651C217.566 7.25351 217.893 7.77153 218.027 7.91652C218.184 8.08637 218.596 8.42906 218.565 8.49644C218.43 8.7864 218.046 9.80126 218.027 9.80126C218.007 9.80126 217.624 9.36632 217.489 9.22134C217.289 9.00574 217.129 8.83279 217.086 8.7864C216.952 8.64142 217.355 7.4815 217.489 7.33651Z" fill="#F1EAE5"/>
<path d="M215.876 7.91651C215.953 7.83351 216.28 8.06149 216.414 8.20647C216.492 8.2904 217.092 8.64355 217.061 8.71092C216.926 9.00089 216.568 9.94624 216.548 9.94624C216.529 9.94624 216.414 9.94624 216.28 9.80126C216.011 9.5113 215.516 9.41271 215.473 9.36631C215.339 9.22133 215.742 8.0615 215.876 7.91651Z" fill="#F1EAE5"/>
<path d="M215.876 7.91651C215.953 7.83351 216.28 8.06149 216.414 8.20647C216.492 8.2904 217.092 8.64355 217.061 8.71092C216.926 9.00089 216.568 9.94624 216.548 9.94624C216.529 9.94624 216.414 9.94624 216.28 9.80126C216.011 9.5113 215.516 9.41271 215.473 9.36631C215.339 9.22133 215.742 8.0615 215.876 7.91651Z" fill="#F1EAE5"/>
<path d="M214.801 6.75665C214.878 6.67365 215.473 6.52051 215.767 6.52051C215.877 6.52051 216.311 6.54429 216.28 6.61167C216.145 6.90163 215.896 7.91651 215.876 7.91651C215.857 7.91651 215.663 7.9165 215.473 7.9165C214.801 7.9165 214.398 8.12709 214.398 8.06147C214.398 7.9165 214.667 6.90164 214.801 6.75665Z" fill="#F1EAE5"/>
<path d="M214.801 6.75665C214.878 6.67365 215.473 6.52051 215.767 6.52051C215.877 6.52051 216.311 6.54429 216.28 6.61167C216.145 6.90163 215.896 7.91651 215.876 7.91651C215.857 7.91651 215.663 7.9165 215.473 7.9165C214.801 7.9165 214.398 8.12709 214.398 8.06147C214.398 7.9165 214.667 6.90164 214.801 6.75665Z" fill="#F1EAE5"/>
<path d="M219 7.49992C219.077 7.41692 219.224 7.71609 219.5 7.99994C219.661 8.16578 220.021 8.43322 220 8.49994C219.866 8.93488 219.571 9.5111 219.505 9.5111C219.44 9.5111 219.237 9.36611 218.975 9.07004C218.78 8.84945 218.608 8.54262 218.565 8.49622C218.506 8.43262 218.866 7.64491 219 7.49992Z" fill="#F1EAE5"/>
<path d="M219 7.49992C219.077 7.41692 219.224 7.71609 219.5 7.99994C219.661 8.16578 220.021 8.43322 220 8.49994C219.866 8.93488 219.571 9.5111 219.505 9.5111C219.44 9.5111 219.237 9.36611 218.975 9.07004C218.78 8.84945 218.608 8.54262 218.565 8.49622C218.506 8.43262 218.866 7.64491 219 7.49992Z" fill="#F1EAE5"/>
<path d="M218.027 9.80102C218.161 9.94601 218.161 9.94601 218.43 10.236C218.643 10.4652 219.114 10.9237 219.102 10.9609C218.968 11.3958 218.63 12.2657 218.565 12.2657C218.499 12.2657 218.154 11.8369 218.027 11.6858C217.837 11.4603 217.624 11.3061 217.624 11.1059C217.624 10.9056 217.979 9.74892 218.027 9.80102Z" fill="#F1EAE5"/>
<path d="M218.027 9.80102C218.161 9.94601 218.161 9.94601 218.43 10.236C218.643 10.4652 219.114 10.9237 219.102 10.9609C218.968 11.3958 218.63 12.2657 218.565 12.2657C218.499 12.2657 218.154 11.8369 218.027 11.6858C217.837 11.4603 217.624 11.3061 217.624 11.1059C217.624 10.9056 217.979 9.74892 218.027 9.80102Z" fill="#F1EAE5"/>
<path d="M216.548 9.946C216.683 10.091 216.683 10.091 216.952 10.381C217.176 10.6226 217.635 11.0686 217.624 11.1059C217.489 11.5408 217.127 12.5557 217.086 12.5557C217.045 12.5557 216.817 12.1494 216.548 11.8308C216.211 11.4311 216.011 11.5408 216.145 11.1059C216.28 10.6709 216.5 9.8939 216.548 9.946Z" fill="#F1EAE5"/>
<path d="M216.548 9.946C216.683 10.091 216.683 10.091 216.952 10.381C217.176 10.6226 217.635 11.0686 217.624 11.1059C217.489 11.5408 217.127 12.5557 217.086 12.5557C217.045 12.5557 216.817 12.1494 216.548 11.8308C216.211 11.4311 216.011 11.5408 216.145 11.1059C216.28 10.6709 216.5 9.8939 216.548 9.946Z" fill="#F1EAE5"/>
<path d="M221.154 9.00963C221.231 8.92663 221.387 9.00963 221.925 9.00963C222.147 9.00963 222.639 8.79379 222.597 8.93134C222.462 9.36628 222.328 9.80122 222.194 10.0912C222.059 10.3811 221.656 10.3811 221.387 10.3811C221.087 10.3811 220.788 10.3414 220.745 10.295C220.686 10.2314 221.019 9.15462 221.154 9.00963Z" fill="#F1EAE5"/>
<path d="M221.154 9.00963C221.231 8.92663 221.387 9.00963 221.925 9.00963C222.147 9.00963 222.639 8.79379 222.597 8.93134C222.462 9.36628 222.328 9.80122 222.194 10.0912C222.059 10.3811 221.656 10.3811 221.387 10.3811C221.087 10.3811 220.788 10.3414 220.745 10.295C220.686 10.2314 221.019 9.15462 221.154 9.00963Z" fill="#F1EAE5"/>
<path d="M220.177 11.686C220.254 11.603 220.446 11.686 220.984 11.686C221.207 11.686 221.734 11.4345 221.656 11.686C221.522 12.121 221.299 12.7467 221.253 12.8459C221.207 12.945 221.067 12.9344 220.85 12.9908C220.446 13.0955 219.817 13.0372 219.774 12.9908C219.715 12.9272 220.043 11.831 220.177 11.686Z" fill="#F1EAE5"/>
<path d="M220.177 11.686C220.254 11.603 220.446 11.686 220.984 11.686C221.207 11.686 221.734 11.4345 221.656 11.686C221.522 12.121 221.299 12.7467 221.253 12.8459C221.207 12.945 221.067 12.9344 220.85 12.9908C220.446 13.0955 219.817 13.0372 219.774 12.9908C219.715 12.9272 220.043 11.831 220.177 11.686Z" fill="#F1EAE5"/>
</g>
<path d="M152.598 2.03247L153.402 6.96748" stroke="#212121" stroke-linecap="round"/>
<path d="M163.902 8.6958L167.851 11.7625" stroke="#212121" stroke-linecap="round"/>
<path d="M167.092 7.91626L164.797 12.3584" stroke="#212121" stroke-linecap="round"/>
<path d="M161.121 9.27319L162 12.9999" stroke="#212121" stroke-linecap="round"/>
<path d="M160.753 9L159 12.4043" stroke="#212121" stroke-linecap="round"/>
<path d="M152 8L154 10" stroke="#212121" stroke-linecap="round"/>
<path d="M155.95 8L154 10.0484" stroke="#212121" stroke-linecap="round"/>
<path d="M156 8L157.119 11.6619" stroke="#212121" stroke-linecap="round"/>
<path d="M152.123 8.80347L151.63 12.6006" stroke="#212121" stroke-linecap="round"/>
<path d="M162.552 3.2264C162.369 4.59493 160.847 7.53844 159.478 7.3555C158.109 7.17256 157.413 3.93245 157.596 2.56391C157.779 1.19538 160.074 2.89516 159.875 4.38198C160.074 2.89518 162.735 1.85786 162.552 3.2264Z" fill="#840032"/>
<path d="M159.158 10.5256L162.158 11.5256" stroke="#212121" stroke-linecap="round"/>
<path d="M196.5 43C196.5 43.7075 192.951 42.5622 191.085 42.5622C189.218 42.5622 187 46 187 43.5C187 41 188.831 40 191.93 40C195.028 40 196.5 42.2925 196.5 43Z" fill="#840032"/>
<path d="M188 43C188.289 42.7114 189.887 42.0589 191.544 42.0061C193.621 41.9398 195.621 42.2806 196 42.4977C196.379 42.7148 197.846 43.9169 197 44.4977C196.591 44.7783 194.157 43.9911 193 43.9977C191.268 44.0075 189 45 187.5 44.5C186.856 44.2854 187 44 187.5 43.5C187.689 43.3111 187.711 43.2886 188 43Z" fill="#5B0023"/>
<path d="M172.5 24C172.5 24.7075 168.951 23.5622 167.085 23.5622C165.218 23.5622 163 27 163 24.5C163 22 164.831 21 167.93 21C171.028 21 172.5 23.2925 172.5 24Z" fill="#FFC200"/>
<path d="M164 24C164.289 23.7114 165.887 23.0589 167.544 23.0061C169.621 22.9398 171.621 23.2806 172 23.4977C172.379 23.7148 173.846 24.9169 173 25.4977C172.591 25.7783 170.157 24.9911 169 24.9977C167.268 25.0075 165 26 163.5 25.5C162.856 25.2854 163 25 163.5 24.5C163.689 24.3111 163.711 24.2886 164 24Z" fill="#E0AB00"/>
</g>
<defs>
<clipPath id="clip0_6612_772">
<rect width="229" height="155" fill="white"/>
</clipPath>
</defs>
</svg>
