<svg width="488" height="204" viewBox="0 0 488 204" fill="none" xmlns="http://www.w3.org/2000/svg">
<g clip-path="url(#clip0_50_15722)">
<rect width="488" height="204" fill="white"/>
<path d="M284 118L259 103.566L259 132.434L284 118ZM198 118L198 120.5L261.5 120.5L261.5 118L261.5 115.5L198 115.5L198 118Z" fill="#212121"/>
<ellipse cx="114.127" cy="102.88" rx="66.7153" ry="69.8801" fill="#134E78"/>
<path d="M180.843 99.9462C182.382 126.351 172.375 111.682 161.085 121.284C150.308 131.419 130.55 121.284 126.188 104.747C166.473 80.2091 140.044 60.4719 161.855 61.8055C172.058 61.8055 180.843 86.2469 180.843 99.9462Z" fill="#91AC7F"/>
<path d="M134.286 169.958C110.215 178.544 80.6244 165.772 68.7097 157.024C56.4373 148.931 101.086 125.268 115.254 116.487C148.753 150.297 160.002 118.556 164.584 140.761C167.306 150.982 146.988 166.303 134.286 169.958Z" fill="#0D3E61"/>
<path d="M49.1233 100.36C45.9703 74.1102 56.8554 88.088 67.5349 77.7588C77.6697 66.9312 98.0081 75.7389 103.374 91.9534C64.6721 119.107 92.2564 137.055 70.4082 137.167C60.2254 137.842 49.9621 114.031 49.1233 100.36Z" fill="#91AC7F"/>
<path d="M139.054 76.4748C134.912 80.4756 128.497 73.0075 119.516 83.1428C114.897 83.9429 108.996 84.2097 106.686 78.0751C105.471 74.8462 119.516 64.7393 126.224 64.7393C132.603 64.7393 143.123 71.6739 139.054 76.4748Z" fill="#91AC7F"/>
<path d="M98.9549 40.1908C96.3864 45.4263 72.9693 60.8543 67.8816 73.5783C63.8078 75.978 58.3528 78.3344 54.1578 73.3968C51.9497 70.7978 65.7818 55.5791 70.7575 50.9036C79.3821 42.7993 101.192 34.2295 98.9549 40.1908Z" fill="#0D3E61"/>
<path d="M126.444 38.3345C126.444 38.3345 131.32 39.1346 133.116 40.2015C134.912 41.2684 137.478 42.8687 138.761 44.2023C140.044 45.5359 141.84 50.0701 141.84 50.0701C141.84 50.0701 145.176 45.2691 146.202 44.2023C147.229 43.1354 149.538 41.5351 151.334 40.7349C153.13 39.9348 159.289 40.2015 159.289 40.2015C159.289 40.2015 157.749 45.0024 156.21 46.8694C154.67 48.7365 152.874 50.0701 151.334 51.1369C149.795 52.2038 148.255 52.4705 146.459 53.0039C144.663 53.5374 143.123 53.0039 143.123 53.0039L141.84 64.7395H140.814L140.301 53.0039C140.301 53.0039 135.682 52.2038 133.116 50.6035C130.55 49.0032 129.524 47.9363 128.497 45.8026C127.471 43.6688 126.444 38.3345 126.444 38.3345Z" fill="#91AC7F"/>
<path d="M141.312 34.7018C143.108 32.3013 142.595 32.568 143.878 34.7018C145.161 36.8356 145.674 41.6365 143.878 44.3036C142.081 46.9708 142.338 46.9708 140.799 44.3036C139.259 41.6365 139.516 37.1023 141.312 34.7018Z" fill="#91AC7F"/>
<path d="M129.011 57.417C129.011 57.417 130.23 57.6389 130.679 57.9347C131.128 58.2306 131.769 58.6744 132.09 59.0442C132.411 59.414 132.86 60.6714 132.86 60.6714C132.86 60.6714 133.694 59.34 133.95 59.0442C134.207 58.7483 134.784 58.3046 135.233 58.0827C135.682 57.8608 137.222 57.9347 137.222 57.9347C137.222 57.9347 136.837 59.2661 136.452 59.7838C136.067 60.3016 135.618 60.6714 135.233 60.9673C134.848 61.2631 134.463 61.3371 134.014 61.485C133.565 61.6329 133.18 61.485 133.18 61.485L132.86 64.7394H132.603L132.475 61.485C132.475 61.485 131.32 61.2631 130.679 60.8193C130.037 60.3755 129.781 60.0797 129.524 59.488C129.267 58.8963 129.011 57.417 129.011 57.417Z" fill="#91AC7F"/>
<path d="M132.728 56.4094C133.177 55.7438 133.048 55.8177 133.369 56.4094C133.69 57.0011 133.818 58.3325 133.369 59.0721C132.92 59.8118 132.984 59.8118 132.599 59.0721C132.215 58.3325 132.279 57.0751 132.728 56.4094Z" fill="#91AC7F"/>
<path d="M40.525 99.5113C47.1965 93.3768 56.434 91.243 64.9017 95.5105C73.3694 99.778 81.5805 113.114 81.5805 113.114C81.5805 113.114 91.0747 98.1367 99.2858 95.5105C107.497 92.8844 110.319 93.3768 118.017 97.6443C125.715 101.912 130.591 105.379 131.36 120.582C132.13 135.785 111.089 152.588 111.089 152.588L81.5805 173.125C81.5805 173.125 59.9855 157.824 52.031 149.556C44.0765 141.287 30.2611 125.916 31.0309 117.648C31.8007 109.38 33.8534 105.646 40.525 99.5113Z" fill="#F67C48"/>
<path d="M153.653 71.6133C153.653 71.6133 156.243 72.1243 157.198 72.8057C158.152 73.487 159.515 74.5091 160.197 75.3608C160.878 76.2125 161.832 79.1083 161.832 79.1083C161.832 79.1083 163.604 76.0421 164.15 75.3608C164.695 74.6794 165.922 73.6574 166.876 73.1463C167.83 72.6353 171.102 72.8057 171.102 72.8057C171.102 72.8057 170.284 75.8718 169.466 77.0642C168.648 78.2566 167.694 79.1083 166.876 79.7896C166.058 80.471 165.24 80.6413 164.286 80.982C163.332 81.3227 162.514 80.982 162.514 80.982L161.832 88.477H161.287L161.014 80.982C161.014 80.982 158.561 80.471 157.198 79.449C155.834 78.4269 155.289 77.7455 154.744 76.3828C154.199 75.0201 153.653 71.6133 153.653 71.6133Z" fill="#61844A"/>
<path d="M161.551 69.2934C162.506 67.7603 162.233 67.9307 162.915 69.2934C163.596 70.6562 163.869 73.7223 162.915 75.4257C161.96 77.1291 162.097 77.1291 161.279 75.4257C160.461 73.7223 160.597 70.8265 161.551 69.2934Z" fill="#61844A"/>
<path d="M436 180.142L572.504 179.132" stroke="#212121" stroke-width="2"/>
<path d="M405 31.1421L541.504 30.132" stroke="#212121" stroke-width="2"/>
<path d="M398.668 171.618C398.736 174.563 401.178 176.895 404.123 176.828C407.068 176.76 409.4 174.318 409.332 171.373C409.264 168.428 406.822 166.096 403.877 166.164C400.932 166.231 398.6 168.674 398.668 171.618ZM404 171.496L404.007 172.496L488.013 171.874L488.006 170.874L487.998 169.874L403.993 170.496L404 171.496Z" fill="#212121"/>
<path d="M436.668 20.4118C436.736 23.3566 439.178 25.6888 442.123 25.621C445.068 25.5532 447.4 23.111 447.332 20.1663C447.264 17.2215 444.822 14.8893 441.877 14.9571C438.932 15.025 436.6 17.4671 436.668 20.4118ZM442 20.2891L442.007 21.289L498.014 20.8746L498.006 19.8747L497.999 18.8747L441.993 19.2891L442 20.2891Z" fill="#212121"/>
<rect x="310" y="47" width="150" height="96.4072" rx="3.22191" fill="#002642"/>
<rect x="316.42" y="52.5088" width="137.16" height="85.7335" rx="2.57752" fill="white"/>
<mask id="mask0_50_15722" style="mask-type:alpha" maskUnits="userSpaceOnUse" x="316" y="52" width="138" height="86">
<rect x="316.429" y="52.2271" width="137.16" height="85.7335" rx="2.57752" fill="white"/>
</mask>
<g mask="url(#mask0_50_15722)">
<rect x="316.429" y="52.2271" width="137.16" height="10.3293" fill="#002642"/>
<path d="M328.214 124.363C329.163 124.363 404.874 124.363 442.612 124.363" stroke="black" stroke-width="0.322191"/>
</g>
<ellipse cx="322.251" cy="57.9021" rx="1.45343" ry="1.49294" fill="#C05353"/>
<ellipse cx="328.791" cy="57.9021" rx="1.45343" ry="1.49294" fill="#FFE03B"/>
<ellipse cx="335.332" cy="57.9021" rx="1.45343" ry="1.49294" fill="#78BF83"/>
<rect x="339.475" y="56.6406" width="23.3463" height="7.91916" rx="1.28876" fill="white"/>
<rect x="376.537" y="142.719" width="18.0934" height="16.8713" fill="#002642"/>
<path d="M367.198 156.403C367.198 155.691 367.775 155.114 368.487 155.114H402.388C403.1 155.114 403.677 155.691 403.677 156.403V162H367.198V156.403Z" fill="#002642"/>
<rect x="408.571" y="82.5454" width="32.9767" height="6.54192" rx="1.28876" fill="#D9D9D9"/>
<rect x="328.214" y="94.0454" width="39.6429" height="6.27273" rx="1.28876" fill="#D9D9D9"/>
<rect x="396.786" y="106.591" width="46.0714" height="6.27273" rx="1.28876" fill="#D9D9D9"/>
<rect x="317.5" y="64.7729" width="135" height="8.36364" rx="1.28876" fill="#EEEEEE"/>
<rect x="328.214" y="125.409" width="114.643" height="5.22727" rx="1.28876" fill="#EEEEEE"/>
<path d="M333.562 68.7652C333.562 69.0596 333.513 69.3326 333.415 69.5844C333.319 69.8343 333.182 70.0509 333.004 70.2342C332.826 70.4175 332.612 70.561 332.363 70.6646C332.113 70.7665 331.835 70.8174 331.529 70.8174C331.226 70.8174 330.949 70.7665 330.699 70.6646C330.449 70.561 330.234 70.4175 330.055 70.2342C329.877 70.0509 329.739 69.8343 329.641 69.5844C329.543 69.3326 329.494 69.0596 329.494 68.7652C329.494 68.4708 329.543 68.1987 329.641 67.9488C329.739 67.697 329.877 67.4795 330.055 67.2962C330.234 67.1129 330.449 66.9703 330.699 66.8685C330.949 66.7648 331.226 66.713 331.529 66.713C331.733 66.713 331.925 66.7371 332.104 66.7852C332.284 66.8315 332.449 66.8981 332.599 66.9852C332.749 67.0703 332.883 67.1749 333.001 67.299C333.122 67.4211 333.223 67.5581 333.307 67.7099C333.39 67.8618 333.453 68.0265 333.496 68.2042C333.54 68.382 333.562 68.569 333.562 68.7652ZM332.799 68.7652C332.799 68.5449 332.769 68.3477 332.71 68.1737C332.65 67.9978 332.566 67.8488 332.457 67.7266C332.348 67.6044 332.214 67.5109 332.057 67.4461C331.902 67.3813 331.726 67.3489 331.529 67.3489C331.333 67.3489 331.156 67.3813 330.999 67.4461C330.844 67.5109 330.71 67.6044 330.599 67.7266C330.49 67.8488 330.406 67.9978 330.346 68.1737C330.287 68.3477 330.258 68.5449 330.258 68.7652C330.258 68.9855 330.287 69.1836 330.346 69.3595C330.406 69.5335 330.49 69.6816 330.599 69.8038C330.71 69.9241 330.844 70.0167 330.999 70.0815C331.156 70.1463 331.333 70.1787 331.529 70.1787C331.726 70.1787 331.902 70.1463 332.057 70.0815C332.214 70.0167 332.348 69.9241 332.457 69.8038C332.566 69.6816 332.65 69.5335 332.71 69.3595C332.769 69.1836 332.799 68.9855 332.799 68.7652ZM334.747 70.0343C334.825 70.1287 334.909 70.1953 335 70.2342C335.092 70.2731 335.192 70.2925 335.3 70.2925C335.403 70.2925 335.497 70.2731 335.58 70.2342C335.663 70.1953 335.734 70.1361 335.791 70.0565C335.85 69.9769 335.896 69.8769 335.927 69.7566C335.959 69.6344 335.974 69.4909 335.974 69.3261C335.974 69.1595 335.961 69.0188 335.933 68.904C335.907 68.7874 335.869 68.693 335.819 68.6208C335.769 68.5486 335.708 68.4958 335.636 68.4625C335.565 68.4292 335.485 68.4125 335.394 68.4125C335.251 68.4125 335.13 68.4431 335.03 68.5042C334.93 68.5634 334.836 68.6476 334.747 68.7569V70.0343ZM334.711 68.3125C334.828 68.1811 334.96 68.0747 335.108 67.9932C335.256 67.9117 335.43 67.871 335.63 67.871C335.786 67.871 335.927 67.9034 336.055 67.9682C336.185 68.033 336.296 68.1274 336.388 68.2515C336.483 68.3736 336.555 68.5255 336.605 68.7069C336.657 68.8865 336.683 69.0929 336.683 69.3261C336.683 69.539 336.654 69.7362 336.596 69.9176C336.539 70.0991 336.457 70.2564 336.349 70.3897C336.244 70.523 336.115 70.6276 335.963 70.7035C335.813 70.7776 335.645 70.8146 335.458 70.8146C335.299 70.8146 335.163 70.7905 335.05 70.7424C334.937 70.6924 334.836 70.6239 334.747 70.5369V71.7032H334.061V67.9238H334.48C334.569 67.9238 334.628 67.9654 334.655 68.0487L334.711 68.3125ZM339.053 69.0207C339.053 68.9318 339.04 68.8485 339.014 68.7708C338.99 68.6911 338.953 68.6217 338.903 68.5625C338.853 68.5032 338.789 68.457 338.712 68.4236C338.636 68.3885 338.547 68.3709 338.445 68.3709C338.247 68.3709 338.091 68.4273 337.976 68.5403C337.863 68.6532 337.791 68.8133 337.759 69.0207H339.053ZM337.745 69.4344C337.756 69.5807 337.782 69.7075 337.823 69.8149C337.864 69.9204 337.918 70.0084 337.984 70.0787C338.051 70.1472 338.13 70.199 338.22 70.2342C338.313 70.2675 338.415 70.2842 338.526 70.2842C338.637 70.2842 338.732 70.2712 338.812 70.2453C338.893 70.2194 338.964 70.1907 339.023 70.1592C339.084 70.1278 339.137 70.0991 339.181 70.0732C339.227 70.0472 339.272 70.0343 339.314 70.0343C339.372 70.0343 339.414 70.0556 339.442 70.0981L339.639 70.3481C339.563 70.4369 339.478 70.5119 339.384 70.573C339.289 70.6322 339.19 70.6804 339.087 70.7174C338.985 70.7526 338.88 70.7776 338.773 70.7924C338.667 70.8072 338.565 70.8146 338.465 70.8146C338.266 70.8146 338.082 70.7822 337.912 70.7174C337.742 70.6508 337.594 70.5536 337.468 70.4258C337.342 70.2962 337.243 70.137 337.171 69.9482C337.098 69.7575 337.062 69.5372 337.062 69.2873C337.062 69.0929 337.094 68.9105 337.157 68.7402C337.22 68.568 337.309 68.419 337.426 68.2931C337.544 68.1654 337.688 68.0645 337.856 67.9904C338.027 67.9164 338.218 67.8793 338.431 67.8793C338.611 67.8793 338.777 67.908 338.928 67.9654C339.08 68.0228 339.211 68.1071 339.32 68.2181C339.429 68.3274 339.514 68.4625 339.575 68.6236C339.638 68.7828 339.67 68.9651 339.67 69.1706C339.67 69.2743 339.659 69.3447 339.636 69.3817C339.614 69.4169 339.572 69.4344 339.509 69.4344H337.745ZM340.826 68.2737C340.883 68.2163 340.944 68.1635 341.007 68.1154C341.071 68.0654 341.139 68.0237 341.209 67.9904C341.281 67.9552 341.358 67.9284 341.44 67.9099C341.521 67.8895 341.61 67.8793 341.706 67.8793C341.862 67.8793 342 67.9062 342.12 67.9599C342.24 68.0117 342.34 68.0858 342.42 68.182C342.501 68.2764 342.563 68.3903 342.603 68.5236C342.646 68.655 342.667 68.8004 342.667 68.9596V70.7729H341.981V68.9596C341.981 68.7856 341.941 68.6513 341.862 68.5569C341.782 68.4607 341.661 68.4125 341.498 68.4125C341.38 68.4125 341.268 68.4394 341.165 68.4931C341.061 68.5467 340.963 68.6199 340.87 68.7124V70.7729H340.185V67.9238H340.604C340.693 67.9238 340.751 67.9654 340.779 68.0487L340.826 68.2737ZM345.549 69.2567L345.061 67.921C345.037 67.8618 345.012 67.7914 344.986 67.7099C344.96 67.6285 344.934 67.5405 344.908 67.4461C344.884 67.5405 344.859 67.6294 344.833 67.7127C344.807 67.7942 344.782 67.8655 344.758 67.9265L344.272 69.2567H345.549ZM346.868 70.7729H346.291C346.226 70.7729 346.173 70.7572 346.133 70.7257C346.092 70.6924 346.061 70.6517 346.041 70.6036L345.741 69.7843H344.078L343.778 70.6036C343.763 70.6461 343.734 70.685 343.692 70.7202C343.649 70.7554 343.596 70.7729 343.533 70.7729H342.95L344.53 66.7574H345.291L346.868 70.7729ZM348.034 70.7729H347.284V66.7574H348.034V70.7729Z" fill="#212121"/>
<g clip-path="url(#clip1_50_15722)">
<path d="M323.929 71.5686C325.408 71.5686 326.607 70.3984 326.607 68.9549C326.607 67.5115 325.408 66.3413 323.929 66.3413C322.449 66.3413 321.25 67.5115 321.25 68.9549C321.25 70.3984 322.449 71.5686 323.929 71.5686Z" stroke="#212121" stroke-width="0.555395" stroke-linecap="round" stroke-linejoin="round"/>
<path d="M321.25 68.9551H326.607" stroke="#212121" stroke-width="0.555395" stroke-linecap="round" stroke-linejoin="round"/>
<path d="M323.929 66.3413C324.599 67.057 324.98 67.9858 325 68.9549C324.98 69.9241 324.599 70.8529 323.929 71.5686C323.259 70.8529 322.878 69.9241 322.857 68.9549C322.878 67.9858 323.259 67.057 323.929 66.3413Z" stroke="#212121" stroke-width="0.555395" stroke-linecap="round" stroke-linejoin="round"/>
</g>
<ellipse cx="329.821" cy="122.796" rx="0.535714" ry="0.522727" fill="black"/>
<ellipse cx="336.25" cy="121.75" rx="0.535714" ry="0.522727" fill="black"/>
<ellipse cx="338.393" cy="122.796" rx="0.535714" ry="0.522727" fill="black"/>
<ellipse cx="331.964" cy="122.796" rx="0.535714" ry="0.522727" fill="black"/>
<ellipse cx="334.107" cy="122.796" rx="0.535714" ry="0.522727" fill="black"/>
<path d="M426 170.636H474.587V170.174H426V170.636Z" fill="#F07913"/>
<path d="M426 170.174H474.587L474.59 169.758L451.957 169.729L450.651 169.727L448.861 169.725L430.498 169.702H426V170.174Z" fill="#FFAC36"/>
<path d="M430.498 161.478V169.702L448.861 169.725V161.502L430.498 161.478Z" fill="#FFC40D"/>
<path d="M450.651 161.504V169.727L451.957 169.729V161.506L450.651 161.504Z" fill="#FFC40D"/>
<path d="M426.001 161.478L426 169.702H430.498V161.478H426.001Z" fill="#FFC40D"/>
<path d="M448.861 161.502V169.725L450.651 169.727V161.504L448.861 161.502Z" fill="#FFCF5C"/>
<path d="M474.59 169.758V161.535L451.957 161.506V169.729L474.59 169.758Z" fill="#FFCF5C"/>
<path d="M474.59 161H426.001V161.478H430.498L448.861 161.502L450.651 161.504L451.957 161.506L474.59 161.535V161Z" fill="#FFE29B"/>
<path d="M471.979 161.532V169.755L474.59 169.758V161.535L471.979 161.532Z" fill="#FFC40D"/>
<path d="M423 161.636H471.587V161.174H423V161.636Z" fill="#F07913"/>
<path d="M423 161.174H471.587L471.59 160.758L448.957 160.729L447.651 160.727L445.861 160.725L427.498 160.702H423V161.174Z" fill="#FFAC36"/>
<path d="M427.498 152.478V160.702L445.861 160.725V152.502L427.498 152.478Z" fill="#FFC40D"/>
<path d="M447.651 152.504V160.727L448.957 160.729V152.506L447.651 152.504Z" fill="#FFC40D"/>
<path d="M423.001 152.478L423 160.702H427.498V152.478H423.001Z" fill="#FFC40D"/>
<path d="M445.861 152.502V160.725L447.651 160.727V152.504L445.861 152.502Z" fill="#FFCF5C"/>
<path d="M471.59 160.758V152.535L448.957 152.506V160.729L471.59 160.758Z" fill="#FFCF5C"/>
<path d="M471.59 152H423.001V152.478H427.498L445.861 152.502L447.651 152.504L448.957 152.506L471.59 152.535V152Z" fill="#FFE29B"/>
<path d="M468.979 152.532V160.755L471.59 160.758V152.535L468.979 152.532Z" fill="#FFC40D"/>
<path d="M427 152.636H475.587V152.174H427V152.636Z" fill="#F07913"/>
<path d="M427 152.174H475.587L475.59 151.758L452.957 151.729L451.651 151.727L449.861 151.725L431.498 151.702H427V152.174Z" fill="#FFAC36"/>
<path d="M431.498 143.478V151.702L449.861 151.725V143.502L431.498 143.478Z" fill="#FFC40D"/>
<path d="M451.651 143.504V151.727L452.957 151.729V143.506L451.651 143.504Z" fill="#FFC40D"/>
<path d="M427.001 143.478L427 151.702H431.498V143.478H427.001Z" fill="#FFC40D"/>
<path d="M449.861 143.502V151.725L451.651 151.727V143.504L449.861 143.502Z" fill="#FFCF5C"/>
<path d="M475.59 151.758V143.535L452.957 143.506V151.729L475.59 151.758Z" fill="#FFCF5C"/>
<path d="M475.59 143H427.001V143.478H431.498L449.861 143.502L451.651 143.504L452.957 143.506L475.59 143.535V143Z" fill="#FFE29B"/>
<path d="M472.979 143.532V151.755L475.59 151.758V143.535L472.979 143.532Z" fill="#FFC40D"/>
<path d="M423 143.636H471.587V143.174H423V143.636Z" fill="#F07913"/>
<path d="M423 143.174H471.587L471.59 142.758L448.957 142.729L447.79 142.728L446 142.725L427.498 142.702H423V143.174Z" fill="#FFAC36"/>
<path d="M427.498 134.478V142.702L446 142.725V134.502L427.498 134.478Z" fill="#FFC40D"/>
<path d="M447.79 134.504V142.728L448.957 142.729V134.506L447.79 134.504Z" fill="#FFC40D"/>
<path d="M423.001 134.478L423 142.702H427.498V134.478H423.001Z" fill="#FFC40D"/>
<path d="M446 134.502V142.725L447.79 142.728V134.504L446 134.502Z" fill="#FFCF5C"/>
<path d="M471.59 142.758V134.535L448.957 134.506V142.729L471.59 142.758Z" fill="#FFCF5C"/>
<path d="M471.59 134H423.001V134.478H427.498L446 134.502L447.79 134.504L448.957 134.506L471.59 134.535V134Z" fill="#FFE29B"/>
<path d="M468.979 134.532V142.755L471.59 142.758V134.535L468.979 134.532Z" fill="#FFC40D"/>
</g>
<defs>
<clipPath id="clip0_50_15722">
<rect width="488" height="204" fill="white"/>
</clipPath>
<clipPath id="clip1_50_15722">
<rect width="6.42857" height="6.27273" fill="white" transform="translate(320.714 65.8184)"/>
</clipPath>
</defs>
</svg>
