<svg width="488" height="219" viewBox="0 0 488 219" fill="none" xmlns="http://www.w3.org/2000/svg">
<rect width="488" height="219" fill="white"/>
<path d="M464.032 101.334C464.681 103.446 463.608 105.649 462.816 105.892C462.024 106.135 459.901 104.913 459.252 102.802C458.604 100.69 456.976 98.7933 460.468 98.244C463.814 97.2167 463.384 99.2222 464.032 101.334Z" fill="#FFC7BB"/>
<path d="M382.556 96.3035C380.64 96.355 379.058 95.3518 379.044 94.8338C379.031 94.3159 380.556 93.2291 382.472 93.1776C384.388 93.1261 386.358 92.4474 385.984 94.6473C386.042 96.8355 384.472 96.252 382.556 96.3035Z" fill="#FFC7BB"/>
<path d="M416 114H445.5C445.5 114 455 134.5 459 148C463 161.5 467.5 188.5 467.5 188.5L460.5 190L437.5 149.5L431 194H422C422 194 420 172 418.5 153.5C417 135 416 114 416 114Z" fill="#545D5C"/>
<path d="M421.362 31H430.79L438 34.4186V42.2326V52H428.017V43.6977C428.017 43.6977 426.353 44.186 424.69 43.6977C423.026 43.2093 423.581 43.6977 421.917 42.2326C420.253 40.7674 421.362 31 421.362 31Z" fill="#FFD1C2"/>
<path d="M424 48.5C424 48.5 427.5 47.5 432.5 47.5C437.5 47.5 439 45.5 439 45.5C439 45.5 447.5 51 452 59.5C456.5 68 464 100 464 100L458 101.5L449.5 75.5L452 118.5H410C410 118.5 412.5 95 410.5 93C408.5 91 385 97 385 97V92.5C385 92.5 403 86 407.5 79C412 72 424 48.5 424 48.5Z" fill="#3B868C"/>
<path d="M427 48.0001L429 47.6758L431 47.5001L434 47.5001C434 47.5001 426.742 55.7334 425.242 60.7334C423.742 65.7334 422.242 69.7334 422.242 80.2334C422.242 90.7334 421.553 111.232 421.553 111.232L416.514 111.274C416.514 111.274 416.514 85.7334 416.514 78.7334C416.514 71.7334 418.242 66.2334 419.742 60.7334C421.242 55.2334 427 48.0001 427 48.0001Z" fill="white"/>
<path d="M416 109H421.5L437.5 149.5L436 159.5L417 132L416 109Z" fill="#414847"/>
<path d="M440.584 29.3801C440.584 31.2137 442.51 41.0001 438.073 41.0001C435.562 27.1668 426.03 33.7134 419 31.5001C419.502 24.3068 421 21.0802 431.545 22.1869C439.077 22.7402 440.584 27.5466 440.584 29.3801Z" fill="#37131D"/>
<path d="M460.5 189.5L466 186C466 186 468.5 187.5 469 190C469.5 192.5 462 200.5 462 200.5H456C456 200.5 460 196.5 460.5 194.5C461 192.5 460.5 189.5 460.5 189.5Z" fill="#2D2B2C"/>
<path d="M424.651 193H431.151V199C431.151 199 419.651 200 414.151 199C408.651 198 424.651 193 424.651 193Z" fill="#2D2B2C"/>
<g filter="url(#filter0_f_50_15488)">
<line x1="413.007" y1="199.5" x2="482.007" y2="200.515" stroke="black"/>
</g>
<path d="M197.412 100.847C197.412 144.824 165.099 179.559 121.9 179.559C78.6997 179.559 172.743 134.451 172.743 90.4745C172.743 46.4976 75.9921 21.2202 119.192 21.2202C162.392 21.2202 197.412 56.8705 197.412 100.847Z" fill="#5E5E5E"/>
<ellipse cx="114.703" cy="99.6271" rx="78.2203" ry="79.6271" fill="#F25124"/>
<rect x="162.237" y="179.254" width="57.7627" height="20.7458" fill="#279662"/>
<rect x="162.237" y="179.254" width="57.7627" height="3.66102" fill="#266447"/>
<rect x="173.669" y="179.254" width="23.4661" height="20.7458" fill="#FFC40D"/>
<rect x="173.669" y="193.898" width="23.4661" height="3.05085" fill="#FFCB28"/>
<rect width="20.724" height="3.61017" transform="matrix(0.00592559 0.999982 -0.999982 0.00604915 179.084 179.254)" fill="white"/>
<rect width="20.724" height="3.61017" transform="matrix(0.00592559 0.999982 -0.999982 0.00604915 195.331 179.254)" fill="white"/>
<rect x="150.204" y="158.508" width="57.7627" height="20.7458" fill="#279662"/>
<rect x="150.204" y="158.508" width="57.7627" height="3.66102" fill="#266447"/>
<rect x="161.636" y="158.508" width="23.4661" height="20.7458" fill="#FFC40D"/>
<rect x="161.636" y="173.152" width="23.4661" height="3.05085" fill="#FFCB28"/>
<rect width="20.724" height="3.61017" transform="matrix(0.00592559 0.999982 -0.999982 0.00604915 167.051 158.508)" fill="white"/>
<rect width="20.724" height="3.61017" transform="matrix(0.00592559 0.999982 -0.999982 0.00604915 183.297 158.508)" fill="white"/>
<ellipse cx="115.305" cy="98.7119" rx="55.3559" ry="57.3559" fill="white"/>
<ellipse cx="115.004" cy="100.542" rx="35.1992" ry="36.6102" fill="#F25124"/>
<ellipse cx="115.004" cy="100.848" rx="21.3602" ry="21.661" fill="white"/>
<ellipse cx="114.402" cy="100.237" rx="8.72458" ry="8.84746" fill="#F25124"/>
<path d="M7.02672 41.1246L16.0254 36.1695L16.6539 26.7856L29.8911 35.9381L28.661 42.8814L115.716 100.809L114.481 102.679L26.8559 45.322L20.8657 50.5822L7.02672 41.1246Z" fill="#212121"/>
<g filter="url(#filter1_f_50_15488)">
<path d="M43.5294 66.8419L45.1567 63.9321L47.843 65.4457L50.8273 67.2628L53.5236 68.8312L115.143 101.851L114.079 103.825L51.9885 71.4523L46.7404 68.6995L43.5294 66.8419Z" fill="#767676"/>
</g>
<path d="M121.416 112.746L162.933 115.186L165.339 197.559L162.632 200H119.009V115.636L121.416 112.746Z" fill="#266447"/>
<rect x="121.416" y="112.746" width="43.9237" height="84.8136" fill="#2FA76F"/>
<path d="M131.644 123.118C134.352 119.457 133.449 117.627 133.449 117.627H154.208C154.208 117.627 153.305 119.457 156.013 123.118C158.721 126.779 160.526 125.254 160.526 125.254V184.746C160.526 184.746 157.216 183.22 154.208 186.576C151.199 189.932 152.704 192.678 152.704 192.678H133.449C133.449 192.678 134.954 190.237 131.644 186.576C128.335 182.915 126.229 184.746 126.229 184.746V125.254C126.229 125.254 128.937 126.779 131.644 123.118Z" fill="#A3E0C5"/>
<ellipse cx="143.678" cy="134.712" rx="3.61017" ry="3.66102" fill="#2FA76F"/>
<ellipse cx="143.678" cy="180.474" rx="3.61017" ry="3.66102" fill="#2FA76F"/>
<ellipse cx="143.678" cy="157.288" rx="13.2373" ry="14.6441" fill="#2FA76F"/>
<path d="M121.416 144.475H165.339V168.271H121.416V144.475Z" fill="#FFC40D"/>
<path d="M136.263 144.475H139.356V168.271H136.263V144.475Z" fill="#FFCB28"/>
<path d="M125.746 144.475H134.407V168.271H125.746V144.475Z" fill="#FFCB28"/>
<path d="M121.416 146.305H165.339V149.966H121.416V146.305Z" fill="white"/>
<path d="M121.416 162.78H165.339V166.441H121.416V162.78Z" fill="white"/>
<path d="M118.915 146.305L121.416 144.475V168.271L118.915 168.881V146.305Z" fill="#FFCB28"/>
<path d="M165.246 112.746L179.085 200H165.246V112.746Z" fill="#767474" fill-opacity="0.3"/>
<path d="M246.054 70.923C245.638 70.2383 245.356 69.5233 245.209 68.778C245.062 68.0327 245.049 67.3003 245.17 66.581C245.291 65.8617 245.543 65.1727 245.924 64.514C246.314 63.8467 246.834 63.2487 247.484 62.72L248.485 63.331C248.658 63.4437 248.736 63.5823 248.719 63.747C248.702 63.9117 248.645 64.0417 248.55 64.137C248.368 64.3537 248.195 64.6397 248.03 64.995C247.865 65.3503 247.748 65.749 247.679 66.191C247.618 66.633 247.627 67.1053 247.705 67.608C247.783 68.1107 247.978 68.6133 248.29 69.116C248.446 69.3673 248.489 69.5883 248.42 69.779C248.351 69.961 248.208 70.091 247.991 70.169L246.054 70.923ZM250.37 70.923C249.954 70.2383 249.672 69.5233 249.525 68.778C249.378 68.0327 249.365 67.3003 249.486 66.581C249.607 65.8617 249.859 65.1727 250.24 64.514C250.63 63.8467 251.15 63.2487 251.8 62.72L252.801 63.331C252.974 63.4437 253.052 63.5823 253.035 63.747C253.018 63.9117 252.961 64.0417 252.866 64.137C252.684 64.3537 252.511 64.6397 252.346 64.995C252.181 65.3503 252.064 65.749 251.995 66.191C251.934 66.633 251.943 67.1053 252.021 67.608C252.099 68.1107 252.294 68.6133 252.606 69.116C252.762 69.3673 252.805 69.5883 252.736 69.779C252.667 69.961 252.524 70.091 252.307 70.169L250.37 70.923ZM256.577 83V72.08L255.42 71.898C255.168 71.846 254.965 71.7593 254.809 71.638C254.661 71.508 254.588 71.326 254.588 71.092V69.779H256.577V68.791C256.577 68.0283 256.689 67.3437 256.915 66.737C257.149 66.1303 257.478 65.6147 257.903 65.19C258.336 64.7653 258.86 64.4403 259.476 64.215C260.091 63.9897 260.784 63.877 261.556 63.877C262.171 63.877 262.743 63.9593 263.272 64.124L263.207 65.736C263.198 65.8573 263.163 65.957 263.103 66.035C263.042 66.1043 262.96 66.1607 262.856 66.204C262.76 66.2387 262.648 66.2647 262.518 66.282C262.388 66.2907 262.249 66.295 262.102 66.295C261.72 66.295 261.378 66.3383 261.075 66.425C260.78 66.503 260.529 66.646 260.321 66.854C260.113 67.0533 259.952 67.322 259.84 67.66C259.736 67.9893 259.684 68.401 259.684 68.895V69.779H263.155V72.067H259.788V83H256.577ZM271.954 77.306C271.027 77.3493 270.247 77.4317 269.614 77.553C268.982 77.6657 268.475 77.813 268.093 77.995C267.712 78.177 267.439 78.3893 267.274 78.632C267.11 78.8747 267.027 79.139 267.027 79.425C267.027 79.9883 267.192 80.3913 267.521 80.634C267.859 80.8767 268.297 80.998 268.834 80.998C269.493 80.998 270.061 80.881 270.537 80.647C271.023 80.4043 271.495 80.0403 271.954 79.555V77.306ZM264.596 71.521C266.13 70.117 267.976 69.415 270.134 69.415C270.914 69.415 271.612 69.545 272.227 69.805C272.843 70.0563 273.363 70.4117 273.787 70.871C274.212 71.3217 274.533 71.8633 274.749 72.496C274.975 73.1287 275.087 73.822 275.087 74.576V83H273.631C273.328 83 273.094 82.9567 272.929 82.87C272.765 82.7747 272.635 82.5883 272.539 82.311L272.253 81.349C271.915 81.6523 271.586 81.921 271.265 82.155C270.945 82.3803 270.611 82.571 270.264 82.727C269.918 82.883 269.545 83 269.146 83.078C268.756 83.1647 268.323 83.208 267.846 83.208C267.283 83.208 266.763 83.1343 266.286 82.987C265.81 82.831 265.398 82.6013 265.051 82.298C264.705 81.9947 264.436 81.6177 264.245 81.167C264.055 80.7163 263.959 80.192 263.959 79.594C263.959 79.256 264.016 78.9223 264.128 78.593C264.241 78.255 264.423 77.9343 264.674 77.631C264.934 77.3277 265.268 77.0417 265.675 76.773C266.083 76.5043 266.581 76.2703 267.17 76.071C267.768 75.8717 268.462 75.7113 269.25 75.59C270.039 75.46 270.94 75.382 271.954 75.356V74.576C271.954 73.6833 271.764 73.0247 271.382 72.6C271.001 72.1667 270.451 71.95 269.731 71.95C269.211 71.95 268.778 72.0107 268.431 72.132C268.093 72.2533 267.794 72.392 267.534 72.548C267.274 72.6953 267.036 72.8297 266.819 72.951C266.611 73.0723 266.377 73.133 266.117 73.133C265.892 73.133 265.701 73.0767 265.545 72.964C265.389 72.8427 265.264 72.704 265.168 72.548L264.596 71.521ZM281.439 69.662V83H278.215V69.662H281.439ZM281.881 65.775C281.881 66.0523 281.825 66.3123 281.712 66.555C281.6 66.7977 281.448 67.01 281.257 67.192C281.075 67.374 280.859 67.5213 280.607 67.634C280.356 67.738 280.087 67.79 279.801 67.79C279.524 67.79 279.26 67.738 279.008 67.634C278.766 67.5213 278.553 67.374 278.371 67.192C278.189 67.01 278.042 66.7977 277.929 66.555C277.825 66.3123 277.773 66.0523 277.773 65.775C277.773 65.489 277.825 65.2203 277.929 64.969C278.042 64.7177 278.189 64.501 278.371 64.319C278.553 64.137 278.766 63.994 279.008 63.89C279.26 63.7773 279.524 63.721 279.801 63.721C280.087 63.721 280.356 63.7773 280.607 63.89C280.859 63.994 281.075 64.137 281.257 64.319C281.448 64.501 281.6 64.7177 281.712 64.969C281.825 65.2203 281.881 65.489 281.881 65.775ZM287.963 63.682V83H284.752V63.682H287.963ZM294.49 69.662V83H291.266V69.662H294.49ZM294.932 65.775C294.932 66.0523 294.876 66.3123 294.763 66.555C294.651 66.7977 294.499 67.01 294.308 67.192C294.126 67.374 293.91 67.5213 293.658 67.634C293.407 67.738 293.138 67.79 292.852 67.79C292.575 67.79 292.311 67.738 292.059 67.634C291.817 67.5213 291.604 67.374 291.422 67.192C291.24 67.01 291.093 66.7977 290.98 66.555C290.876 66.3123 290.824 66.0523 290.824 65.775C290.824 65.489 290.876 65.2203 290.98 64.969C291.093 64.7177 291.24 64.501 291.422 64.319C291.604 64.137 291.817 63.994 292.059 63.89C292.311 63.7773 292.575 63.721 292.852 63.721C293.138 63.721 293.407 63.7773 293.658 63.89C293.91 63.994 294.126 64.137 294.308 64.319C294.499 64.501 294.651 64.7177 294.763 64.969C294.876 65.2203 294.932 65.489 294.932 65.775ZM300.767 71.3C301.035 71.0313 301.317 70.7843 301.612 70.559C301.915 70.325 302.231 70.13 302.561 69.974C302.899 69.8093 303.258 69.6837 303.64 69.597C304.021 69.5017 304.437 69.454 304.888 69.454C305.616 69.454 306.261 69.5797 306.825 69.831C307.388 70.0737 307.856 70.4203 308.229 70.871C308.61 71.313 308.896 71.846 309.087 72.47C309.286 73.0853 309.386 73.7657 309.386 74.511V83H306.175V74.511C306.175 73.6963 305.988 73.068 305.616 72.626C305.243 72.1753 304.675 71.95 303.913 71.95C303.358 71.95 302.838 72.0757 302.353 72.327C301.867 72.5783 301.408 72.9207 300.975 73.354V83H297.764V69.662H299.727C300.143 69.662 300.416 69.857 300.546 70.247L300.767 71.3ZM317.315 76.006C317.713 76.006 318.06 75.954 318.355 75.85C318.649 75.7373 318.892 75.5857 319.083 75.395C319.282 75.2043 319.429 74.9747 319.525 74.706C319.629 74.4373 319.681 74.1427 319.681 73.822C319.681 73.1633 319.481 72.6433 319.083 72.262C318.693 71.872 318.103 71.677 317.315 71.677C316.526 71.677 315.932 71.872 315.534 72.262C315.144 72.6433 314.949 73.1633 314.949 73.822C314.949 74.134 314.996 74.4243 315.092 74.693C315.196 74.9617 315.343 75.1957 315.534 75.395C315.733 75.5857 315.98 75.7373 316.275 75.85C316.578 75.954 316.925 76.006 317.315 76.006ZM320.942 83.598C320.942 83.338 320.864 83.1257 320.708 82.961C320.552 82.7963 320.339 82.6707 320.071 82.584C319.802 82.4887 319.486 82.4193 319.122 82.376C318.766 82.3327 318.385 82.3023 317.978 82.285C317.579 82.259 317.163 82.2373 316.73 82.22C316.305 82.2027 315.889 82.168 315.482 82.116C315.126 82.3153 314.836 82.5493 314.611 82.818C314.394 83.0867 314.286 83.3987 314.286 83.754C314.286 83.988 314.342 84.2047 314.455 84.404C314.576 84.612 314.762 84.7897 315.014 84.937C315.274 85.0843 315.607 85.197 316.015 85.275C316.422 85.3617 316.92 85.405 317.51 85.405C318.108 85.405 318.623 85.3573 319.057 85.262C319.49 85.1753 319.845 85.0497 320.123 84.885C320.409 84.729 320.617 84.5383 320.747 84.313C320.877 84.0963 320.942 83.858 320.942 83.598ZM324.14 70.117V71.313C324.14 71.6943 323.91 71.9283 323.451 72.015L322.255 72.236C322.437 72.6953 322.528 73.198 322.528 73.744C322.528 74.4027 322.393 75.0007 322.125 75.538C321.865 76.0667 321.501 76.5173 321.033 76.89C320.565 77.2627 320.01 77.553 319.369 77.761C318.736 77.9603 318.051 78.06 317.315 78.06C317.055 78.06 316.803 78.047 316.561 78.021C316.318 77.995 316.08 77.9603 315.846 77.917C315.43 78.1683 315.222 78.45 315.222 78.762C315.222 79.0307 315.343 79.23 315.586 79.36C315.837 79.4813 316.166 79.568 316.574 79.62C316.981 79.672 317.445 79.7067 317.965 79.724C318.485 79.7327 319.018 79.7587 319.564 79.802C320.11 79.8453 320.643 79.9233 321.163 80.036C321.683 80.14 322.146 80.309 322.554 80.543C322.961 80.777 323.286 81.0977 323.529 81.505C323.78 81.9037 323.906 82.4193 323.906 83.052C323.906 83.6413 323.758 84.2133 323.464 84.768C323.178 85.3227 322.757 85.8167 322.203 86.25C321.657 86.6833 320.981 87.03 320.175 87.29C319.377 87.5587 318.467 87.693 317.445 87.693C316.439 87.693 315.564 87.5933 314.819 87.394C314.073 87.2033 313.454 86.9433 312.96 86.614C312.466 86.2933 312.097 85.9207 311.855 85.496C311.612 85.0713 311.491 84.6293 311.491 84.17C311.491 83.546 311.677 83.026 312.05 82.61C312.431 82.1853 312.951 81.8473 313.61 81.596C313.254 81.414 312.973 81.1713 312.765 80.868C312.557 80.5647 312.453 80.166 312.453 79.672C312.453 79.4727 312.487 79.269 312.557 79.061C312.635 78.8443 312.743 78.632 312.882 78.424C313.029 78.216 313.211 78.021 313.428 77.839C313.644 77.6483 313.9 77.4793 314.195 77.332C313.519 76.968 312.986 76.4827 312.596 75.876C312.214 75.2693 312.024 74.5587 312.024 73.744C312.024 73.0853 312.154 72.4917 312.414 71.963C312.682 71.4257 313.051 70.9707 313.519 70.598C313.995 70.2167 314.554 69.9263 315.196 69.727C315.846 69.5277 316.552 69.428 317.315 69.428C317.887 69.428 318.424 69.4887 318.927 69.61C319.429 69.7227 319.889 69.8917 320.305 70.117H324.14ZM336.944 83.208C335.783 83.208 334.89 82.883 334.266 82.233C333.651 81.5743 333.343 80.6687 333.343 79.516V72.067H331.978C331.805 72.067 331.657 72.0107 331.536 71.898C331.415 71.7853 331.354 71.6163 331.354 71.391V70.117L333.499 69.766L334.175 66.126C334.218 65.9527 334.301 65.8183 334.422 65.723C334.543 65.6277 334.699 65.58 334.89 65.58H336.554V69.779H340.116V72.067H336.554V79.295C336.554 79.711 336.654 80.036 336.853 80.27C337.061 80.504 337.343 80.621 337.698 80.621C337.897 80.621 338.062 80.5993 338.192 80.556C338.331 80.504 338.448 80.452 338.543 80.4C338.647 80.348 338.738 80.3003 338.816 80.257C338.894 80.205 338.972 80.179 339.05 80.179C339.145 80.179 339.223 80.205 339.284 80.257C339.345 80.3003 339.41 80.3697 339.479 80.465L340.441 82.025C339.973 82.415 339.436 82.7097 338.829 82.909C338.222 83.1083 337.594 83.208 336.944 83.208ZM347.972 69.454C348.96 69.454 349.857 69.6143 350.663 69.935C351.478 70.2557 352.171 70.7107 352.743 71.3C353.324 71.8893 353.77 72.6087 354.082 73.458C354.394 74.3073 354.55 75.2563 354.55 76.305C354.55 77.3623 354.394 78.3157 354.082 79.165C353.77 80.0143 353.324 80.738 352.743 81.336C352.171 81.934 351.478 82.3933 350.663 82.714C349.857 83.0347 348.96 83.195 347.972 83.195C346.976 83.195 346.07 83.0347 345.255 82.714C344.441 82.3933 343.743 81.934 343.162 81.336C342.59 80.738 342.144 80.0143 341.823 79.165C341.511 78.3157 341.355 77.3623 341.355 76.305C341.355 75.2563 341.511 74.3073 341.823 73.458C342.144 72.6087 342.59 71.8893 343.162 71.3C343.743 70.7107 344.441 70.2557 345.255 69.935C346.07 69.6143 346.976 69.454 347.972 69.454ZM347.972 80.725C349.082 80.725 349.901 80.3523 350.429 79.607C350.967 78.8617 351.235 77.7697 351.235 76.331C351.235 74.8923 350.967 73.796 350.429 73.042C349.901 72.288 349.082 71.911 347.972 71.911C346.846 71.911 346.009 72.2923 345.463 73.055C344.926 73.809 344.657 74.901 344.657 76.331C344.657 77.761 344.926 78.853 345.463 79.607C346.009 80.3523 346.846 80.725 347.972 80.725Z" fill="#212121"/>
<path d="M255.79 87.855V99H253.938V87.855H255.79ZM259.556 91.305V99H257.696V91.305H259.556ZM259.811 89.0625C259.811 89.2225 259.778 89.3725 259.713 89.5125C259.648 89.6525 259.561 89.775 259.451 89.88C259.346 89.985 259.221 90.07 259.076 90.135C258.931 90.195 258.776 90.225 258.611 90.225C258.451 90.225 258.298 90.195 258.153 90.135C258.013 90.07 257.891 89.985 257.786 89.88C257.681 89.775 257.596 89.6525 257.531 89.5125C257.471 89.3725 257.441 89.2225 257.441 89.0625C257.441 88.8975 257.471 88.7425 257.531 88.5975C257.596 88.4525 257.681 88.3275 257.786 88.2225C257.891 88.1175 258.013 88.035 258.153 87.975C258.298 87.91 258.451 87.8775 258.611 87.8775C258.776 87.8775 258.931 87.91 259.076 87.975C259.221 88.035 259.346 88.1175 259.451 88.2225C259.561 88.3275 259.648 88.4525 259.713 88.5975C259.778 88.7425 259.811 88.8975 259.811 89.0625ZM268.817 92.6925V96.8625C268.817 97.1025 268.877 97.29 268.997 97.425C269.117 97.56 269.277 97.6275 269.477 97.6275C269.592 97.6275 269.687 97.615 269.762 97.59C269.842 97.56 269.909 97.53 269.964 97.5C270.024 97.47 270.077 97.4425 270.122 97.4175C270.167 97.3875 270.212 97.3725 270.257 97.3725C270.312 97.3725 270.357 97.3875 270.392 97.4175C270.427 97.4425 270.464 97.4825 270.504 97.5375L271.059 98.4375C270.789 98.6625 270.479 98.8325 270.129 98.9475C269.784 99.0625 269.424 99.12 269.049 99.12C268.379 99.12 267.864 98.9325 267.504 98.5575C267.144 98.1775 266.964 97.655 266.964 96.99V92.6925H263.837V99H261.984V92.7L261.317 92.595C261.172 92.565 261.054 92.515 260.964 92.445C260.879 92.37 260.837 92.265 260.837 92.13V91.3725H261.984V90.8025C261.984 90.3625 262.049 89.9675 262.179 89.6175C262.314 89.2675 262.504 88.97 262.749 88.725C262.999 88.48 263.302 88.2925 263.657 88.1625C264.012 88.0325 264.412 87.9675 264.857 87.9675C265.212 87.9675 265.542 88.015 265.847 88.11L265.809 89.04C265.804 89.11 265.784 89.1675 265.749 89.2125C265.714 89.2525 265.667 89.285 265.607 89.31C265.552 89.33 265.487 89.345 265.412 89.355C265.337 89.36 265.257 89.3625 265.172 89.3625C264.952 89.3625 264.754 89.3875 264.579 89.4375C264.409 89.4825 264.264 89.565 264.144 89.685C264.024 89.8 263.932 89.955 263.867 90.15C263.807 90.34 263.777 90.5775 263.777 90.8625V91.3725H267.047L267.444 89.265C267.469 89.165 267.517 89.0875 267.587 89.0325C267.657 88.9775 267.747 88.95 267.857 88.95H268.817V91.3725H270.872V92.6925H268.817ZM278.262 99.12C277.592 99.12 277.077 98.9325 276.717 98.5575C276.362 98.1775 276.185 97.655 276.185 96.99V92.6925H275.397C275.297 92.6925 275.212 92.66 275.142 92.595C275.072 92.53 275.037 92.4325 275.037 92.3025V91.5675L276.275 91.365L276.665 89.265C276.69 89.165 276.737 89.0875 276.807 89.0325C276.877 88.9775 276.967 88.95 277.077 88.95H278.037V91.3725H280.092V92.6925H278.037V96.8625C278.037 97.1025 278.095 97.29 278.21 97.425C278.33 97.56 278.492 97.6275 278.697 97.6275C278.812 97.6275 278.907 97.615 278.982 97.59C279.062 97.56 279.13 97.53 279.185 97.5C279.245 97.47 279.297 97.4425 279.342 97.4175C279.387 97.3875 279.432 97.3725 279.477 97.3725C279.532 97.3725 279.577 97.3875 279.612 97.4175C279.647 97.4425 279.685 97.4825 279.725 97.5375L280.28 98.4375C280.01 98.6625 279.7 98.8325 279.35 98.9475C279 99.0625 278.637 99.12 278.262 99.12ZM283.131 92.13C283.431 91.85 283.761 91.6225 284.121 91.4475C284.481 91.2725 284.903 91.185 285.388 91.185C285.808 91.185 286.181 91.2575 286.506 91.4025C286.831 91.5425 287.101 91.7425 287.316 92.0025C287.536 92.2575 287.701 92.565 287.811 92.925C287.926 93.28 287.983 93.6725 287.983 94.1025V99H286.131V94.1025C286.131 93.6325 286.023 93.27 285.808 93.015C285.593 92.755 285.266 92.625 284.826 92.625C284.506 92.625 284.206 92.6975 283.926 92.8425C283.646 92.9875 283.381 93.185 283.131 93.435V99H281.278V87.855H283.131V92.13ZM294.703 94.2675C294.703 94.0275 294.668 93.8025 294.598 93.5925C294.533 93.3775 294.433 93.19 294.298 93.03C294.163 92.87 293.99 92.745 293.78 92.655C293.575 92.56 293.335 92.5125 293.06 92.5125C292.525 92.5125 292.103 92.665 291.793 92.97C291.488 93.275 291.293 93.7075 291.208 94.2675H294.703ZM291.17 95.385C291.2 95.78 291.27 96.1225 291.38 96.4125C291.49 96.6975 291.635 96.935 291.815 97.125C291.995 97.31 292.208 97.45 292.453 97.545C292.703 97.635 292.978 97.68 293.278 97.68C293.578 97.68 293.835 97.645 294.05 97.575C294.27 97.505 294.46 97.4275 294.62 97.3425C294.785 97.2575 294.928 97.18 295.048 97.11C295.173 97.04 295.293 97.005 295.408 97.005C295.563 97.005 295.678 97.0625 295.753 97.1775L296.285 97.8525C296.08 98.0925 295.85 98.295 295.595 98.46C295.34 98.62 295.073 98.75 294.793 98.85C294.518 98.945 294.235 99.0125 293.945 99.0525C293.66 99.0925 293.383 99.1125 293.113 99.1125C292.578 99.1125 292.08 99.025 291.62 98.85C291.16 98.67 290.76 98.4075 290.42 98.0625C290.08 97.7125 289.813 97.2825 289.618 96.7725C289.423 96.2575 289.325 95.6625 289.325 94.9875C289.325 94.4625 289.41 93.97 289.58 93.51C289.75 93.045 289.993 92.6425 290.308 92.3025C290.628 91.9575 291.015 91.685 291.47 91.485C291.93 91.285 292.448 91.185 293.023 91.185C293.508 91.185 293.955 91.2625 294.365 91.4175C294.775 91.5725 295.128 91.8 295.423 92.1C295.718 92.395 295.948 92.76 296.113 93.195C296.283 93.625 296.368 94.1175 296.368 94.6725C296.368 94.9525 296.338 95.1425 296.278 95.2425C296.218 95.3375 296.103 95.385 295.933 95.385H291.17ZM306.918 92.9325C306.863 93.0025 306.808 93.0575 306.753 93.0975C306.703 93.1375 306.628 93.1575 306.528 93.1575C306.433 93.1575 306.34 93.13 306.25 93.075C306.16 93.015 306.053 92.95 305.928 92.88C305.803 92.805 305.653 92.74 305.478 92.685C305.308 92.625 305.095 92.595 304.84 92.595C304.515 92.595 304.23 92.655 303.985 92.775C303.74 92.89 303.535 93.0575 303.37 93.2775C303.21 93.4975 303.09 93.765 303.01 94.08C302.93 94.39 302.89 94.7425 302.89 95.1375C302.89 95.5475 302.933 95.9125 303.018 96.2325C303.108 96.5525 303.235 96.8225 303.4 97.0425C303.565 97.2575 303.765 97.4225 304 97.5375C304.235 97.6475 304.5 97.7025 304.795 97.7025C305.09 97.7025 305.328 97.6675 305.508 97.5975C305.693 97.5225 305.848 97.4425 305.973 97.3575C306.098 97.2675 306.205 97.1875 306.295 97.1175C306.39 97.0425 306.495 97.005 306.61 97.005C306.76 97.005 306.873 97.0625 306.948 97.1775L307.48 97.8525C307.275 98.0925 307.053 98.295 306.813 98.46C306.573 98.62 306.323 98.75 306.063 98.85C305.808 98.945 305.543 99.0125 305.268 99.0525C304.998 99.0925 304.728 99.1125 304.458 99.1125C303.983 99.1125 303.535 99.025 303.115 98.85C302.695 98.67 302.328 98.41 302.013 98.07C301.698 97.73 301.448 97.315 301.263 96.825C301.083 96.33 300.993 95.7675 300.993 95.1375C300.993 94.5725 301.073 94.05 301.233 93.57C301.398 93.085 301.638 92.6675 301.953 92.3175C302.268 91.9625 302.658 91.685 303.123 91.485C303.588 91.285 304.123 91.185 304.728 91.185C305.303 91.185 305.805 91.2775 306.235 91.4625C306.67 91.6475 307.06 91.9125 307.405 92.2575L306.918 92.9325ZM312.707 95.715C312.172 95.74 311.722 95.7875 311.357 95.8575C310.992 95.9225 310.699 96.0075 310.479 96.1125C310.259 96.2175 310.102 96.34 310.007 96.48C309.912 96.62 309.864 96.7725 309.864 96.9375C309.864 97.2625 309.959 97.495 310.149 97.635C310.344 97.775 310.597 97.845 310.907 97.845C311.287 97.845 311.614 97.7775 311.889 97.6425C312.169 97.5025 312.442 97.2925 312.707 97.0125V95.715ZM308.462 92.3775C309.347 91.5675 310.412 91.1625 311.657 91.1625C312.107 91.1625 312.509 91.2375 312.864 91.3875C313.219 91.5325 313.519 91.7375 313.764 92.0025C314.009 92.2625 314.194 92.575 314.319 92.94C314.449 93.305 314.514 93.705 314.514 94.14V99H313.674C313.499 99 313.364 98.975 313.269 98.925C313.174 98.87 313.099 98.7625 313.044 98.6025L312.879 98.0475C312.684 98.2225 312.494 98.3775 312.309 98.5125C312.124 98.6425 311.932 98.7525 311.732 98.8425C311.532 98.9325 311.317 99 311.087 99.045C310.862 99.095 310.612 99.12 310.337 99.12C310.012 99.12 309.712 99.0775 309.437 98.9925C309.162 98.9025 308.924 98.77 308.724 98.595C308.524 98.42 308.369 98.2025 308.259 97.9425C308.149 97.6825 308.094 97.38 308.094 97.035C308.094 96.84 308.127 96.6475 308.192 96.4575C308.257 96.2625 308.362 96.0775 308.507 95.9025C308.657 95.7275 308.849 95.5625 309.084 95.4075C309.319 95.2525 309.607 95.1175 309.947 95.0025C310.292 94.8875 310.692 94.795 311.147 94.725C311.602 94.65 312.122 94.605 312.707 94.59V94.14C312.707 93.625 312.597 93.245 312.377 93C312.157 92.75 311.839 92.625 311.424 92.625C311.124 92.625 310.874 92.66 310.674 92.73C310.479 92.8 310.307 92.88 310.157 92.97C310.007 93.055 309.869 93.1325 309.744 93.2025C309.624 93.2725 309.489 93.3075 309.339 93.3075C309.209 93.3075 309.099 93.275 309.009 93.21C308.919 93.14 308.847 93.06 308.792 92.97L308.462 92.3775ZM318.111 97.005C318.321 97.26 318.549 97.44 318.794 97.545C319.044 97.65 319.314 97.7025 319.604 97.7025C319.884 97.7025 320.136 97.65 320.361 97.545C320.586 97.44 320.776 97.28 320.931 97.065C321.091 96.85 321.214 96.58 321.299 96.255C321.384 95.925 321.426 95.5375 321.426 95.0925C321.426 94.6425 321.389 94.2625 321.314 93.9525C321.244 93.6375 321.141 93.3825 321.006 93.1875C320.871 92.9925 320.706 92.85 320.511 92.76C320.321 92.67 320.104 92.625 319.859 92.625C319.474 92.625 319.146 92.7075 318.876 92.8725C318.606 93.0325 318.351 93.26 318.111 93.555V97.005ZM318.014 92.355C318.329 92 318.686 91.7125 319.086 91.4925C319.486 91.2725 319.956 91.1625 320.496 91.1625C320.916 91.1625 321.299 91.25 321.644 91.425C321.994 91.6 322.294 91.855 322.544 92.19C322.799 92.52 322.994 92.93 323.129 93.42C323.269 93.905 323.339 94.4625 323.339 95.0925C323.339 95.6675 323.261 96.2 323.106 96.69C322.951 97.18 322.729 97.605 322.439 97.965C322.154 98.325 321.806 98.6075 321.396 98.8125C320.991 99.0125 320.536 99.1125 320.031 99.1125C319.601 99.1125 319.234 99.0475 318.929 98.9175C318.624 98.7825 318.351 98.5975 318.111 98.3625V101.513H316.259V91.305H317.391C317.631 91.305 317.789 91.4175 317.864 91.6425L318.014 92.355Z" fill="#212121"/>
<path d="M252.455 151V144.7L251.788 144.595C251.643 144.565 251.525 144.515 251.435 144.445C251.35 144.37 251.308 144.265 251.308 144.13V143.372H252.455V142.802C252.455 142.362 252.52 141.967 252.65 141.617C252.785 141.267 252.975 140.97 253.22 140.725C253.47 140.48 253.773 140.292 254.128 140.162C254.483 140.032 254.883 139.967 255.328 139.967C255.683 139.967 256.013 140.015 256.318 140.11L256.28 141.04C256.275 141.11 256.255 141.167 256.22 141.212C256.185 141.252 256.138 141.285 256.078 141.31C256.023 141.33 255.958 141.345 255.883 141.355C255.808 141.36 255.728 141.362 255.643 141.362C255.423 141.362 255.225 141.387 255.05 141.437C254.88 141.482 254.735 141.565 254.615 141.685C254.495 141.8 254.403 141.955 254.338 142.15C254.278 142.34 254.248 142.577 254.248 142.862V143.372H256.25V144.692H254.308V151H252.455ZM263.921 143.305V151H262.788C262.543 151 262.388 150.887 262.323 150.662L262.196 150.047C261.881 150.367 261.533 150.627 261.153 150.827C260.773 151.022 260.326 151.12 259.811 151.12C259.391 151.12 259.018 151.05 258.693 150.91C258.373 150.765 258.103 150.562 257.883 150.302C257.663 150.042 257.496 149.735 257.381 149.38C257.271 149.02 257.216 148.625 257.216 148.195V143.305H259.068V148.195C259.068 148.665 259.176 149.03 259.391 149.29C259.611 149.545 259.938 149.672 260.373 149.672C260.693 149.672 260.993 149.602 261.273 149.462C261.553 149.317 261.818 149.12 262.068 148.87V143.305H263.921ZM267.49 144.25C267.645 144.095 267.808 143.952 267.978 143.822C268.153 143.687 268.335 143.575 268.525 143.485C268.72 143.39 268.928 143.317 269.148 143.267C269.368 143.212 269.608 143.185 269.868 143.185C270.288 143.185 270.66 143.257 270.985 143.402C271.31 143.542 271.58 143.742 271.795 144.002C272.015 144.257 272.18 144.565 272.29 144.925C272.405 145.28 272.463 145.672 272.463 146.102V151H270.61V146.102C270.61 145.632 270.503 145.27 270.288 145.015C270.073 144.755 269.745 144.625 269.305 144.625C268.985 144.625 268.685 144.697 268.405 144.842C268.125 144.987 267.86 145.185 267.61 145.435V151H265.758V143.305H266.89C267.13 143.305 267.288 143.417 267.363 143.642L267.49 144.25ZM279.055 145.27C278.845 145.015 278.615 144.835 278.365 144.73C278.12 144.625 277.855 144.572 277.57 144.572C277.29 144.572 277.037 144.625 276.812 144.73C276.587 144.835 276.395 144.995 276.235 145.21C276.075 145.42 275.952 145.69 275.867 146.02C275.782 146.345 275.74 146.73 275.74 147.175C275.74 147.625 275.775 148.007 275.845 148.322C275.92 148.632 276.025 148.887 276.16 149.087C276.295 149.282 276.46 149.425 276.655 149.515C276.85 149.6 277.067 149.642 277.307 149.642C277.692 149.642 278.02 149.562 278.29 149.402C278.56 149.242 278.815 149.015 279.055 148.72V145.27ZM280.907 139.855V151H279.775C279.53 151 279.375 150.887 279.31 150.662L279.152 149.92C278.842 150.275 278.485 150.562 278.08 150.782C277.68 151.003 277.212 151.113 276.677 151.113C276.257 151.113 275.872 151.025 275.522 150.85C275.172 150.675 274.87 150.422 274.615 150.092C274.365 149.757 274.17 149.345 274.03 148.855C273.895 148.365 273.827 147.805 273.827 147.175C273.827 146.605 273.905 146.075 274.06 145.585C274.215 145.095 274.437 144.67 274.727 144.31C275.017 143.95 275.365 143.67 275.77 143.47C276.175 143.265 276.63 143.162 277.135 143.162C277.565 143.162 277.932 143.23 278.237 143.365C278.542 143.5 278.815 143.682 279.055 143.912V139.855H280.907ZM284.655 143.305V151H282.795V143.305H284.655ZM284.91 141.062C284.91 141.222 284.878 141.372 284.813 141.512C284.748 141.652 284.66 141.775 284.55 141.88C284.445 141.985 284.32 142.07 284.175 142.135C284.03 142.195 283.875 142.225 283.71 142.225C283.55 142.225 283.398 142.195 283.253 142.135C283.113 142.07 282.99 141.985 282.885 141.88C282.78 141.775 282.695 141.652 282.63 141.512C282.57 141.372 282.54 141.222 282.54 141.062C282.54 140.897 282.57 140.742 282.63 140.597C282.695 140.452 282.78 140.327 282.885 140.222C282.99 140.117 283.113 140.035 283.253 139.975C283.398 139.91 283.55 139.877 283.71 139.877C283.875 139.877 284.03 139.91 284.175 139.975C284.32 140.035 284.445 140.117 284.55 140.222C284.66 140.327 284.748 140.452 284.813 140.597C284.878 140.742 284.91 140.897 284.91 141.062ZM288.276 144.25C288.431 144.095 288.594 143.952 288.764 143.822C288.939 143.687 289.121 143.575 289.311 143.485C289.506 143.39 289.714 143.317 289.934 143.267C290.154 143.212 290.394 143.185 290.654 143.185C291.074 143.185 291.446 143.257 291.771 143.402C292.096 143.542 292.366 143.742 292.581 144.002C292.801 144.257 292.966 144.565 293.076 144.925C293.191 145.28 293.249 145.672 293.249 146.102V151H291.396V146.102C291.396 145.632 291.289 145.27 291.074 145.015C290.859 144.755 290.531 144.625 290.091 144.625C289.771 144.625 289.471 144.697 289.191 144.842C288.911 144.987 288.646 145.185 288.396 145.435V151H286.544V143.305H287.676C287.916 143.305 288.074 143.417 288.149 143.642L288.276 144.25ZM297.823 146.965C298.053 146.965 298.253 146.935 298.423 146.875C298.593 146.81 298.733 146.722 298.843 146.612C298.958 146.502 299.043 146.37 299.098 146.215C299.158 146.06 299.188 145.89 299.188 145.705C299.188 145.325 299.073 145.025 298.843 144.805C298.618 144.58 298.278 144.467 297.823 144.467C297.368 144.467 297.026 144.58 296.796 144.805C296.571 145.025 296.458 145.325 296.458 145.705C296.458 145.885 296.486 146.052 296.541 146.207C296.601 146.362 296.686 146.497 296.796 146.612C296.911 146.722 297.053 146.81 297.223 146.875C297.398 146.935 297.598 146.965 297.823 146.965ZM299.916 151.345C299.916 151.195 299.871 151.073 299.781 150.977C299.691 150.882 299.568 150.81 299.413 150.76C299.258 150.705 299.076 150.665 298.866 150.64C298.661 150.615 298.441 150.597 298.206 150.587C297.976 150.572 297.736 150.56 297.486 150.55C297.241 150.54 297.001 150.52 296.766 150.49C296.561 150.605 296.393 150.74 296.263 150.895C296.138 151.05 296.076 151.23 296.076 151.435C296.076 151.57 296.108 151.695 296.173 151.81C296.243 151.93 296.351 152.033 296.496 152.118C296.646 152.203 296.838 152.268 297.073 152.313C297.308 152.363 297.596 152.388 297.936 152.388C298.281 152.388 298.578 152.36 298.828 152.305C299.078 152.255 299.283 152.183 299.443 152.088C299.608 151.998 299.728 151.888 299.803 151.758C299.878 151.633 299.916 151.495 299.916 151.345ZM301.761 143.567V144.257C301.761 144.477 301.628 144.612 301.363 144.662L300.673 144.79C300.778 145.055 300.831 145.345 300.831 145.66C300.831 146.04 300.753 146.385 300.598 146.695C300.448 147 300.238 147.26 299.968 147.475C299.698 147.69 299.378 147.857 299.008 147.977C298.643 148.092 298.248 148.15 297.823 148.15C297.673 148.15 297.528 148.142 297.388 148.127C297.248 148.112 297.111 148.092 296.976 148.067C296.736 148.212 296.616 148.375 296.616 148.555C296.616 148.71 296.686 148.825 296.826 148.9C296.971 148.97 297.161 149.02 297.396 149.05C297.631 149.08 297.898 149.1 298.198 149.11C298.498 149.115 298.806 149.13 299.121 149.155C299.436 149.18 299.743 149.225 300.043 149.29C300.343 149.35 300.611 149.447 300.846 149.582C301.081 149.717 301.268 149.902 301.408 150.137C301.553 150.367 301.626 150.665 301.626 151.03C301.626 151.37 301.541 151.7 301.371 152.02C301.206 152.34 300.963 152.625 300.643 152.875C300.328 153.125 299.938 153.325 299.473 153.475C299.013 153.63 298.488 153.708 297.898 153.708C297.318 153.708 296.813 153.65 296.383 153.535C295.953 153.425 295.596 153.275 295.311 153.085C295.026 152.9 294.813 152.685 294.673 152.44C294.533 152.195 294.463 151.94 294.463 151.675C294.463 151.315 294.571 151.015 294.786 150.775C295.006 150.53 295.306 150.335 295.686 150.19C295.481 150.085 295.318 149.945 295.198 149.77C295.078 149.595 295.018 149.365 295.018 149.08C295.018 148.965 295.038 148.847 295.078 148.727C295.123 148.602 295.186 148.48 295.266 148.36C295.351 148.24 295.456 148.127 295.581 148.022C295.706 147.912 295.853 147.815 296.023 147.73C295.633 147.52 295.326 147.24 295.101 146.89C294.881 146.54 294.771 146.13 294.771 145.66C294.771 145.28 294.846 144.937 294.996 144.632C295.151 144.322 295.363 144.06 295.633 143.845C295.908 143.625 296.231 143.457 296.601 143.342C296.976 143.227 297.383 143.17 297.823 143.17C298.153 143.17 298.463 143.205 298.753 143.275C299.043 143.34 299.308 143.437 299.548 143.567H301.761ZM308.33 144.64C308.57 144.18 308.855 143.82 309.185 143.56C309.515 143.295 309.905 143.162 310.355 143.162C310.71 143.162 310.995 143.24 311.21 143.395L311.09 144.782C311.065 144.872 311.028 144.937 310.978 144.977C310.933 145.012 310.87 145.03 310.79 145.03C310.715 145.03 310.603 145.017 310.453 144.992C310.308 144.967 310.165 144.955 310.025 144.955C309.82 144.955 309.638 144.985 309.478 145.045C309.318 145.105 309.173 145.192 309.043 145.307C308.918 145.417 308.805 145.552 308.705 145.712C308.61 145.872 308.52 146.055 308.435 146.26V151H306.583V143.305H307.67C307.86 143.305 307.993 143.34 308.068 143.41C308.143 143.475 308.193 143.595 308.218 143.77L308.33 144.64ZM315.364 143.185C315.934 143.185 316.451 143.277 316.916 143.463C317.386 143.647 317.786 143.91 318.116 144.25C318.451 144.59 318.709 145.005 318.889 145.495C319.069 145.985 319.159 146.532 319.159 147.137C319.159 147.747 319.069 148.297 318.889 148.787C318.709 149.277 318.451 149.695 318.116 150.04C317.786 150.385 317.386 150.65 316.916 150.835C316.451 151.02 315.934 151.113 315.364 151.113C314.789 151.113 314.266 151.02 313.796 150.835C313.326 150.65 312.924 150.385 312.589 150.04C312.259 149.695 312.001 149.277 311.816 148.787C311.636 148.297 311.546 147.747 311.546 147.137C311.546 146.532 311.636 145.985 311.816 145.495C312.001 145.005 312.259 144.59 312.589 144.25C312.924 143.91 313.326 143.647 313.796 143.463C314.266 143.277 314.789 143.185 315.364 143.185ZM315.364 149.687C316.004 149.687 316.476 149.472 316.781 149.042C317.091 148.612 317.246 147.982 317.246 147.152C317.246 146.322 317.091 145.69 316.781 145.255C316.476 144.82 316.004 144.602 315.364 144.602C314.714 144.602 314.231 144.822 313.916 145.262C313.606 145.697 313.451 146.327 313.451 147.152C313.451 147.977 313.606 148.607 313.916 149.042C314.231 149.472 314.714 149.687 315.364 149.687ZM327.202 143.305V151H326.07C325.825 151 325.67 150.887 325.605 150.662L325.477 150.047C325.162 150.367 324.815 150.627 324.435 150.827C324.055 151.022 323.607 151.12 323.092 151.12C322.672 151.12 322.3 151.05 321.975 150.91C321.655 150.765 321.385 150.562 321.165 150.302C320.945 150.042 320.777 149.735 320.662 149.38C320.552 149.02 320.497 148.625 320.497 148.195V143.305H322.35V148.195C322.35 148.665 322.457 149.03 322.672 149.29C322.892 149.545 323.22 149.672 323.655 149.672C323.975 149.672 324.275 149.602 324.555 149.462C324.835 149.317 325.1 149.12 325.35 148.87V143.305H327.202ZM330.772 144.25C330.927 144.095 331.089 143.952 331.259 143.822C331.434 143.687 331.617 143.575 331.807 143.485C332.002 143.39 332.209 143.317 332.429 143.267C332.649 143.212 332.889 143.185 333.149 143.185C333.569 143.185 333.942 143.257 334.267 143.402C334.592 143.542 334.862 143.742 335.077 144.002C335.297 144.257 335.462 144.565 335.572 144.925C335.687 145.28 335.744 145.672 335.744 146.102V151H333.892V146.102C333.892 145.632 333.784 145.27 333.569 145.015C333.354 144.755 333.027 144.625 332.587 144.625C332.267 144.625 331.967 144.697 331.687 144.842C331.407 144.987 331.142 145.185 330.892 145.435V151H329.039V143.305H330.172C330.412 143.305 330.569 143.417 330.644 143.642L330.772 144.25ZM342.336 145.27C342.126 145.015 341.896 144.835 341.646 144.73C341.401 144.625 341.136 144.572 340.851 144.572C340.571 144.572 340.318 144.625 340.093 144.73C339.868 144.835 339.676 144.995 339.516 145.21C339.356 145.42 339.233 145.69 339.148 146.02C339.063 146.345 339.021 146.73 339.021 147.175C339.021 147.625 339.056 148.007 339.126 148.322C339.201 148.632 339.306 148.887 339.441 149.087C339.576 149.282 339.741 149.425 339.936 149.515C340.131 149.6 340.348 149.642 340.588 149.642C340.973 149.642 341.301 149.562 341.571 149.402C341.841 149.242 342.096 149.015 342.336 148.72V145.27ZM344.188 139.855V151H343.056C342.811 151 342.656 150.887 342.591 150.662L342.433 149.92C342.123 150.275 341.766 150.562 341.361 150.782C340.961 151.003 340.493 151.113 339.958 151.113C339.538 151.113 339.153 151.025 338.803 150.85C338.453 150.675 338.151 150.422 337.896 150.092C337.646 149.757 337.451 149.345 337.311 148.855C337.176 148.365 337.108 147.805 337.108 147.175C337.108 146.605 337.186 146.075 337.341 145.585C337.496 145.095 337.718 144.67 338.008 144.31C338.298 143.95 338.646 143.67 339.051 143.47C339.456 143.265 339.911 143.162 340.416 143.162C340.846 143.162 341.213 143.23 341.518 143.365C341.823 143.5 342.096 143.682 342.336 143.912V139.855H344.188ZM345.747 149.98C345.747 149.825 345.774 149.677 345.829 149.537C345.889 149.397 345.969 149.277 346.069 149.177C346.169 149.077 346.289 148.997 346.429 148.937C346.569 148.877 346.719 148.847 346.879 148.847C347.039 148.847 347.187 148.877 347.322 148.937C347.462 148.997 347.582 149.077 347.682 149.177C347.787 149.277 347.869 149.397 347.929 149.537C347.989 149.677 348.019 149.825 348.019 149.98C348.019 150.14 347.989 150.29 347.929 150.43C347.869 150.565 347.787 150.682 347.682 150.782C347.582 150.882 347.462 150.96 347.322 151.015C347.187 151.075 347.039 151.105 346.879 151.105C346.719 151.105 346.569 151.075 346.429 151.015C346.289 150.96 346.169 150.882 346.069 150.782C345.969 150.682 345.889 150.565 345.829 150.43C345.774 150.29 345.747 150.14 345.747 149.98ZM349.181 139.427C349.421 139.822 349.583 140.235 349.668 140.665C349.753 141.09 349.761 141.512 349.691 141.932C349.621 142.347 349.473 142.747 349.248 143.132C349.028 143.512 348.731 143.855 348.356 144.16L347.771 143.807C347.721 143.777 347.686 143.742 347.666 143.702C347.646 143.657 347.636 143.615 347.636 143.575C347.641 143.53 347.651 143.487 347.666 143.447C347.686 143.407 347.711 143.372 347.741 143.342C347.846 143.217 347.946 143.052 348.041 142.847C348.136 142.642 348.201 142.412 348.236 142.157C348.276 141.902 348.271 141.63 348.221 141.34C348.176 141.05 348.063 140.76 347.883 140.47C347.798 140.325 347.773 140.2 347.808 140.095C347.848 139.985 347.931 139.907 348.056 139.862L349.181 139.427ZM351.671 139.427C351.911 139.822 352.073 140.235 352.158 140.665C352.243 141.09 352.251 141.512 352.181 141.932C352.111 142.347 351.963 142.747 351.738 143.132C351.518 143.512 351.221 143.855 350.846 144.16L350.261 143.807C350.211 143.777 350.176 143.742 350.156 143.702C350.136 143.657 350.126 143.615 350.126 143.575C350.131 143.53 350.141 143.487 350.156 143.447C350.176 143.407 350.201 143.372 350.231 143.342C350.336 143.217 350.436 143.052 350.531 142.847C350.626 142.642 350.691 142.412 350.726 142.157C350.766 141.902 350.761 141.63 350.711 141.34C350.666 141.05 350.553 140.76 350.373 140.47C350.288 140.325 350.263 140.2 350.298 140.095C350.338 139.985 350.421 139.907 350.546 139.862L351.671 139.427Z" fill="#212121"/>
<path d="M256.728 106.481C256.696 106.521 256.664 106.553 256.632 106.577C256.603 106.6 256.56 106.611 256.502 106.611C256.447 106.611 256.393 106.595 256.341 106.563C256.289 106.529 256.226 106.491 256.154 106.45C256.081 106.407 255.994 106.369 255.893 106.337C255.794 106.302 255.671 106.285 255.523 106.285C255.335 106.285 255.169 106.32 255.027 106.389C254.885 106.456 254.766 106.553 254.67 106.681C254.578 106.809 254.508 106.964 254.462 107.146C254.415 107.326 254.392 107.531 254.392 107.76C254.392 107.998 254.417 108.209 254.466 108.395C254.518 108.58 254.592 108.737 254.688 108.865C254.784 108.989 254.9 109.085 255.036 109.152C255.172 109.216 255.326 109.247 255.497 109.247C255.668 109.247 255.806 109.227 255.91 109.187C256.017 109.143 256.107 109.097 256.18 109.047C256.252 108.995 256.315 108.949 256.367 108.908C256.422 108.865 256.483 108.843 256.55 108.843C256.637 108.843 256.702 108.876 256.745 108.943L257.054 109.334C256.935 109.474 256.806 109.591 256.667 109.687C256.528 109.78 256.383 109.855 256.232 109.913C256.084 109.968 255.93 110.007 255.771 110.03C255.614 110.054 255.458 110.065 255.301 110.065C255.026 110.065 254.766 110.014 254.523 109.913C254.279 109.809 254.066 109.658 253.883 109.461C253.7 109.263 253.555 109.023 253.448 108.738C253.344 108.451 253.291 108.125 253.291 107.76C253.291 107.432 253.338 107.129 253.431 106.851C253.526 106.569 253.666 106.327 253.848 106.124C254.031 105.918 254.257 105.757 254.527 105.641C254.797 105.525 255.107 105.467 255.458 105.467C255.791 105.467 256.083 105.521 256.332 105.628C256.584 105.736 256.811 105.889 257.011 106.089L256.728 106.481ZM259.626 105.467C259.957 105.467 260.257 105.521 260.527 105.628C260.799 105.736 261.031 105.888 261.223 106.085C261.417 106.282 261.566 106.523 261.671 106.807C261.775 107.091 261.827 107.409 261.827 107.76C261.827 108.114 261.775 108.433 261.671 108.717C261.566 109.001 261.417 109.243 261.223 109.443C261.031 109.643 260.799 109.797 260.527 109.904C260.257 110.012 259.957 110.065 259.626 110.065C259.293 110.065 258.99 110.012 258.717 109.904C258.444 109.797 258.211 109.643 258.017 109.443C257.825 109.243 257.676 109.001 257.569 108.717C257.464 108.433 257.412 108.114 257.412 107.76C257.412 107.409 257.464 107.091 257.569 106.807C257.676 106.523 257.825 106.282 258.017 106.085C258.211 105.888 258.444 105.736 258.717 105.628C258.99 105.521 259.293 105.467 259.626 105.467ZM259.626 109.239C259.997 109.239 260.271 109.114 260.448 108.865C260.628 108.615 260.718 108.25 260.718 107.768C260.718 107.287 260.628 106.92 260.448 106.668C260.271 106.416 259.997 106.289 259.626 106.289C259.249 106.289 258.969 106.417 258.787 106.672C258.607 106.925 258.517 107.29 258.517 107.768C258.517 108.247 258.607 108.612 258.787 108.865C258.969 109.114 259.249 109.239 259.626 109.239ZM266.492 105.537V110H265.836C265.693 110 265.604 109.935 265.566 109.804L265.492 109.448C265.309 109.633 265.108 109.784 264.887 109.9C264.667 110.013 264.407 110.07 264.109 110.07C263.865 110.07 263.649 110.029 263.46 109.948C263.275 109.864 263.118 109.746 262.991 109.595C262.863 109.445 262.766 109.266 262.699 109.06C262.635 108.852 262.604 108.622 262.604 108.373V105.537H263.678V108.373C263.678 108.646 263.74 108.857 263.865 109.008C263.993 109.156 264.183 109.23 264.435 109.23C264.62 109.23 264.794 109.189 264.957 109.108C265.119 109.024 265.273 108.91 265.418 108.765V105.537H266.492ZM268.645 103.536V110H267.571V103.536H268.645ZM272.517 106.677C272.395 106.529 272.262 106.424 272.117 106.363C271.975 106.302 271.821 106.272 271.656 106.272C271.493 106.272 271.347 106.302 271.217 106.363C271.086 106.424 270.974 106.517 270.882 106.642C270.789 106.764 270.718 106.92 270.668 107.112C270.619 107.3 270.594 107.523 270.594 107.781C270.594 108.042 270.615 108.264 270.655 108.447C270.699 108.627 270.76 108.775 270.838 108.891C270.916 109.004 271.012 109.086 271.125 109.139C271.238 109.188 271.364 109.213 271.504 109.213C271.727 109.213 271.917 109.166 272.073 109.073C272.23 108.981 272.378 108.849 272.517 108.678V106.677ZM273.592 103.536V110H272.935C272.793 110 272.703 109.935 272.665 109.804L272.574 109.374C272.394 109.579 272.187 109.746 271.952 109.874C271.72 110.001 271.449 110.065 271.138 110.065C270.895 110.065 270.671 110.014 270.468 109.913C270.265 109.811 270.09 109.665 269.942 109.474C269.797 109.279 269.684 109.04 269.603 108.756C269.524 108.472 269.485 108.147 269.485 107.781C269.485 107.451 269.53 107.143 269.62 106.859C269.71 106.575 269.839 106.329 270.007 106.12C270.175 105.911 270.377 105.749 270.612 105.633C270.847 105.514 271.111 105.454 271.404 105.454C271.653 105.454 271.866 105.493 272.043 105.572C272.22 105.65 272.378 105.756 272.517 105.889V103.536H273.592ZM279.569 106.677C279.447 106.529 279.314 106.424 279.169 106.363C279.027 106.302 278.873 106.272 278.708 106.272C278.545 106.272 278.399 106.302 278.268 106.363C278.138 106.424 278.026 106.517 277.933 106.642C277.841 106.764 277.769 106.92 277.72 107.112C277.671 107.3 277.646 107.523 277.646 107.781C277.646 108.042 277.667 108.264 277.707 108.447C277.751 108.627 277.812 108.775 277.89 108.891C277.968 109.004 278.064 109.086 278.177 109.139C278.29 109.188 278.416 109.213 278.555 109.213C278.779 109.213 278.969 109.166 279.125 109.073C279.282 108.981 279.43 108.849 279.569 108.678V106.677ZM280.643 103.536V110H279.987C279.844 110 279.755 109.935 279.717 109.804L279.625 109.374C279.446 109.579 279.238 109.746 279.003 109.874C278.771 110.001 278.5 110.065 278.19 110.065C277.946 110.065 277.723 110.014 277.52 109.913C277.317 109.811 277.142 109.665 276.994 109.474C276.849 109.279 276.736 109.04 276.654 108.756C276.576 108.472 276.537 108.147 276.537 107.781C276.537 107.451 276.582 107.143 276.672 106.859C276.762 106.575 276.891 106.329 277.059 106.12C277.227 105.911 277.429 105.749 277.664 105.633C277.899 105.514 278.162 105.454 278.455 105.454C278.705 105.454 278.918 105.493 279.095 105.572C279.272 105.65 279.43 105.756 279.569 105.889V103.536H280.643ZM284.579 107.255C284.579 107.116 284.559 106.985 284.518 106.864C284.48 106.739 284.422 106.63 284.344 106.537C284.266 106.445 284.166 106.372 284.044 106.32C283.925 106.265 283.786 106.237 283.626 106.237C283.316 106.237 283.071 106.326 282.891 106.503C282.714 106.679 282.601 106.93 282.552 107.255H284.579ZM282.53 107.903C282.548 108.132 282.588 108.331 282.652 108.499C282.716 108.665 282.8 108.802 282.904 108.913C283.009 109.02 283.132 109.101 283.274 109.156C283.419 109.208 283.579 109.234 283.753 109.234C283.927 109.234 284.076 109.214 284.201 109.173C284.328 109.133 284.438 109.088 284.531 109.039C284.627 108.989 284.71 108.944 284.779 108.904C284.852 108.863 284.921 108.843 284.988 108.843C285.078 108.843 285.145 108.876 285.188 108.943L285.497 109.334C285.378 109.474 285.245 109.591 285.097 109.687C284.949 109.78 284.794 109.855 284.631 109.913C284.472 109.968 284.308 110.007 284.14 110.03C283.974 110.054 283.813 110.065 283.657 110.065C283.347 110.065 283.058 110.014 282.791 109.913C282.524 109.809 282.292 109.656 282.095 109.456C281.898 109.253 281.743 109.004 281.63 108.708C281.517 108.409 281.46 108.064 281.46 107.673C281.46 107.368 281.509 107.083 281.608 106.816C281.707 106.546 281.847 106.313 282.03 106.115C282.216 105.915 282.44 105.757 282.704 105.641C282.971 105.525 283.271 105.467 283.605 105.467C283.886 105.467 284.146 105.512 284.383 105.602C284.621 105.692 284.826 105.824 284.997 105.998C285.168 106.169 285.301 106.381 285.397 106.633C285.495 106.882 285.545 107.168 285.545 107.49C285.545 107.652 285.527 107.763 285.493 107.821C285.458 107.876 285.391 107.903 285.292 107.903H282.53ZM287.365 106.311C287.504 106.044 287.669 105.836 287.861 105.685C288.052 105.531 288.278 105.454 288.539 105.454C288.745 105.454 288.91 105.499 289.035 105.589L288.965 106.394C288.951 106.446 288.929 106.484 288.9 106.507C288.874 106.527 288.838 106.537 288.791 106.537C288.748 106.537 288.683 106.53 288.596 106.516C288.512 106.501 288.429 106.494 288.348 106.494C288.229 106.494 288.123 106.511 288.03 106.546C287.937 106.581 287.853 106.632 287.778 106.698C287.705 106.762 287.64 106.84 287.582 106.933C287.527 107.026 287.475 107.132 287.426 107.251V110H286.351V105.537H286.982C287.092 105.537 287.169 105.557 287.212 105.598C287.256 105.635 287.285 105.705 287.299 105.807L287.365 106.311ZM291.895 108.095C291.585 108.109 291.324 108.137 291.112 108.177C290.9 108.215 290.73 108.264 290.603 108.325C290.475 108.386 290.384 108.457 290.329 108.538C290.274 108.62 290.246 108.708 290.246 108.804C290.246 108.992 290.301 109.127 290.411 109.208C290.525 109.289 290.671 109.33 290.851 109.33C291.071 109.33 291.261 109.291 291.421 109.213C291.583 109.131 291.741 109.01 291.895 108.847V108.095ZM289.433 106.159C289.946 105.689 290.564 105.454 291.286 105.454C291.547 105.454 291.78 105.498 291.986 105.585C292.192 105.669 292.366 105.788 292.508 105.941C292.65 106.092 292.758 106.273 292.83 106.485C292.905 106.697 292.943 106.929 292.943 107.181V110H292.456C292.354 110 292.276 109.985 292.221 109.956C292.166 109.925 292.122 109.862 292.091 109.769L291.995 109.448C291.882 109.549 291.772 109.639 291.664 109.717C291.557 109.793 291.445 109.856 291.329 109.909C291.213 109.961 291.089 110 290.955 110.026C290.825 110.055 290.68 110.07 290.52 110.07C290.332 110.07 290.158 110.045 289.998 109.996C289.839 109.943 289.701 109.867 289.585 109.765C289.469 109.664 289.379 109.537 289.315 109.387C289.251 109.236 289.22 109.06 289.22 108.86C289.22 108.747 289.238 108.636 289.276 108.525C289.314 108.412 289.375 108.305 289.459 108.203C289.546 108.102 289.657 108.006 289.794 107.916C289.93 107.826 290.097 107.748 290.294 107.681C290.494 107.615 290.726 107.561 290.99 107.52C291.254 107.477 291.556 107.451 291.895 107.442V107.181C291.895 106.882 291.831 106.662 291.703 106.52C291.576 106.375 291.392 106.302 291.151 106.302C290.977 106.302 290.832 106.323 290.716 106.363C290.603 106.404 290.503 106.45 290.416 106.503C290.329 106.552 290.249 106.597 290.177 106.637C290.107 106.678 290.029 106.698 289.942 106.698C289.866 106.698 289.802 106.679 289.75 106.642C289.698 106.601 289.656 106.555 289.624 106.503L289.433 106.159ZM295.069 105.537V110H293.99V105.537H295.069ZM295.217 104.236C295.217 104.329 295.198 104.416 295.16 104.497C295.122 104.578 295.072 104.649 295.008 104.71C294.947 104.771 294.874 104.821 294.79 104.858C294.706 104.893 294.616 104.91 294.521 104.91C294.428 104.91 294.339 104.893 294.255 104.858C294.174 104.821 294.103 104.771 294.042 104.71C293.981 104.649 293.932 104.578 293.894 104.497C293.859 104.416 293.842 104.329 293.842 104.236C293.842 104.141 293.859 104.051 293.894 103.967C293.932 103.882 293.981 103.81 294.042 103.749C294.103 103.688 294.174 103.64 294.255 103.606C294.339 103.568 294.428 103.549 294.521 103.549C294.616 103.549 294.706 103.568 294.79 103.606C294.874 103.64 294.947 103.688 295.008 103.749C295.072 103.81 295.122 103.882 295.16 103.967C295.198 104.051 295.217 104.141 295.217 104.236ZM297.252 103.536V110H296.177V103.536H297.252ZM302.795 108.095C302.485 108.109 302.224 108.137 302.012 108.177C301.801 108.215 301.631 108.264 301.503 108.325C301.376 108.386 301.284 108.457 301.229 108.538C301.174 108.62 301.147 108.708 301.147 108.804C301.147 108.992 301.202 109.127 301.312 109.208C301.425 109.289 301.572 109.33 301.751 109.33C301.972 109.33 302.162 109.291 302.321 109.213C302.484 109.131 302.642 109.01 302.795 108.847V108.095ZM300.333 106.159C300.847 105.689 301.464 105.454 302.186 105.454C302.447 105.454 302.681 105.498 302.887 105.585C303.093 105.669 303.267 105.788 303.409 105.941C303.551 106.092 303.658 106.273 303.731 106.485C303.806 106.697 303.844 106.929 303.844 107.181V110H303.356C303.255 110 303.177 109.985 303.122 109.956C303.066 109.925 303.023 109.862 302.991 109.769L302.895 109.448C302.782 109.549 302.672 109.639 302.565 109.717C302.457 109.793 302.346 109.856 302.23 109.909C302.114 109.961 301.989 110 301.856 110.026C301.725 110.055 301.58 110.07 301.421 110.07C301.232 110.07 301.058 110.045 300.899 109.996C300.739 109.943 300.601 109.867 300.485 109.765C300.369 109.664 300.28 109.537 300.216 109.387C300.152 109.236 300.12 109.06 300.12 108.86C300.12 108.747 300.139 108.636 300.177 108.525C300.214 108.412 300.275 108.305 300.359 108.203C300.446 108.102 300.558 108.006 300.694 107.916C300.831 107.826 300.997 107.748 301.195 107.681C301.395 107.615 301.627 107.561 301.891 107.52C302.154 107.477 302.456 107.451 302.795 107.442V107.181C302.795 106.882 302.732 106.662 302.604 106.52C302.476 106.375 302.292 106.302 302.051 106.302C301.877 106.302 301.732 106.323 301.616 106.363C301.503 106.404 301.403 106.45 301.316 106.503C301.229 106.552 301.15 106.597 301.077 106.637C301.007 106.678 300.929 106.698 300.842 106.698C300.767 106.698 300.703 106.679 300.651 106.642C300.599 106.601 300.557 106.555 300.525 106.503L300.333 106.159ZM310.168 106.481C310.136 106.521 310.105 106.553 310.073 106.577C310.044 106.6 310 106.611 309.942 106.611C309.887 106.611 309.833 106.595 309.781 106.563C309.729 106.529 309.667 106.491 309.594 106.45C309.522 106.407 309.435 106.369 309.333 106.337C309.235 106.302 309.111 106.285 308.963 106.285C308.775 106.285 308.61 106.32 308.468 106.389C308.325 106.456 308.207 106.553 308.111 106.681C308.018 106.809 307.948 106.964 307.902 107.146C307.856 107.326 307.832 107.531 307.832 107.76C307.832 107.998 307.857 108.209 307.906 108.395C307.959 108.58 308.033 108.737 308.128 108.865C308.224 108.989 308.34 109.085 308.476 109.152C308.613 109.216 308.766 109.247 308.937 109.247C309.108 109.247 309.246 109.227 309.351 109.187C309.458 109.143 309.548 109.097 309.62 109.047C309.693 108.995 309.755 108.949 309.807 108.908C309.862 108.865 309.923 108.843 309.99 108.843C310.077 108.843 310.142 108.876 310.186 108.943L310.495 109.334C310.376 109.474 310.247 109.591 310.107 109.687C309.968 109.78 309.823 109.855 309.672 109.913C309.525 109.968 309.371 110.007 309.211 110.03C309.055 110.054 308.898 110.065 308.742 110.065C308.466 110.065 308.207 110.014 307.963 109.913C307.719 109.809 307.506 109.658 307.323 109.461C307.141 109.263 306.996 109.023 306.888 108.738C306.784 108.451 306.732 108.125 306.732 107.76C306.732 107.432 306.778 107.129 306.871 106.851C306.967 106.569 307.106 106.327 307.289 106.124C307.471 105.918 307.698 105.757 307.967 105.641C308.237 105.525 308.547 105.467 308.898 105.467C309.232 105.467 309.523 105.521 309.773 105.628C310.025 105.736 310.251 105.889 310.451 106.089L310.168 106.481ZM312.182 106.311C312.321 106.044 312.486 105.836 312.678 105.685C312.869 105.531 313.095 105.454 313.356 105.454C313.562 105.454 313.727 105.499 313.852 105.589L313.783 106.394C313.768 106.446 313.746 106.484 313.717 106.507C313.691 106.527 313.655 106.537 313.609 106.537C313.565 106.537 313.5 106.53 313.413 106.516C313.329 106.501 313.246 106.494 313.165 106.494C313.046 106.494 312.94 106.511 312.847 106.546C312.755 106.581 312.67 106.632 312.595 106.698C312.523 106.762 312.457 106.84 312.399 106.933C312.344 107.026 312.292 107.132 312.243 107.251V110H311.168V105.537H311.799C311.909 105.537 311.986 105.557 312.03 105.598C312.073 105.635 312.102 105.705 312.117 105.807L312.182 106.311ZM315.527 105.537V110H314.449V105.537H315.527ZM315.675 104.236C315.675 104.329 315.656 104.416 315.619 104.497C315.581 104.578 315.53 104.649 315.466 104.71C315.406 104.771 315.333 104.821 315.249 104.858C315.165 104.893 315.075 104.91 314.979 104.91C314.886 104.91 314.798 104.893 314.714 104.858C314.633 104.821 314.562 104.771 314.501 104.71C314.44 104.649 314.391 104.578 314.353 104.497C314.318 104.416 314.301 104.329 314.301 104.236C314.301 104.141 314.318 104.051 314.353 103.967C314.391 103.882 314.44 103.81 314.501 103.749C314.562 103.688 314.633 103.64 314.714 103.606C314.798 103.568 314.886 103.549 314.979 103.549C315.075 103.549 315.165 103.568 315.249 103.606C315.333 103.64 315.406 103.688 315.466 103.749C315.53 103.81 315.581 103.882 315.619 103.967C315.656 104.051 315.675 104.141 315.675 104.236ZM321.125 110H320.05V106.342H317.98V108.76C317.98 108.899 318.013 109.008 318.08 109.086C318.15 109.165 318.244 109.204 318.363 109.204C318.429 109.204 318.484 109.197 318.528 109.182C318.574 109.165 318.614 109.147 318.645 109.13C318.68 109.113 318.711 109.097 318.737 109.082C318.763 109.065 318.789 109.056 318.815 109.056C318.847 109.056 318.873 109.065 318.893 109.082C318.914 109.097 318.935 109.12 318.959 109.152L319.281 109.674C319.124 109.804 318.944 109.903 318.741 109.97C318.538 110.036 318.328 110.07 318.11 110.07C317.722 110.07 317.423 109.961 317.214 109.743C317.008 109.523 316.905 109.22 316.905 108.834V106.342H316.449C316.391 106.342 316.341 106.323 316.301 106.285C316.26 106.247 316.24 106.191 316.24 106.115V105.689L316.958 105.567L317.184 104.354C317.198 104.296 317.226 104.251 317.266 104.219C317.307 104.187 317.359 104.171 317.423 104.171H317.98V105.576H321.125V110ZM321.312 104.219C321.312 104.312 321.293 104.4 321.255 104.484C321.218 104.565 321.167 104.636 321.103 104.697C321.042 104.758 320.968 104.808 320.881 104.845C320.797 104.88 320.707 104.897 320.612 104.897C320.519 104.897 320.432 104.88 320.351 104.845C320.269 104.808 320.198 104.758 320.137 104.697C320.077 104.636 320.027 104.565 319.99 104.484C319.955 104.4 319.937 104.312 319.937 104.219C319.937 104.123 319.955 104.035 319.99 103.953C320.027 103.869 320.077 103.797 320.137 103.736C320.198 103.672 320.269 103.623 320.351 103.588C320.432 103.55 320.519 103.532 320.612 103.532C320.707 103.532 320.797 103.55 320.881 103.588C320.968 103.623 321.042 103.672 321.103 103.736C321.167 103.797 321.218 103.869 321.255 103.953C321.293 104.035 321.312 104.123 321.312 104.219ZM325.419 106.481C325.387 106.521 325.355 106.553 325.323 106.577C325.294 106.6 325.251 106.611 325.193 106.611C325.138 106.611 325.084 106.595 325.032 106.563C324.98 106.529 324.917 106.491 324.845 106.45C324.772 106.407 324.685 106.369 324.584 106.337C324.485 106.302 324.362 106.285 324.214 106.285C324.025 106.285 323.86 106.32 323.718 106.389C323.576 106.456 323.457 106.553 323.361 106.681C323.269 106.809 323.199 106.964 323.153 107.146C323.106 107.326 323.083 107.531 323.083 107.76C323.083 107.998 323.108 108.209 323.157 108.395C323.209 108.58 323.283 108.737 323.379 108.865C323.474 108.989 323.59 109.085 323.727 109.152C323.863 109.216 324.017 109.247 324.188 109.247C324.359 109.247 324.497 109.227 324.601 109.187C324.708 109.143 324.798 109.097 324.871 109.047C324.943 108.995 325.006 108.949 325.058 108.908C325.113 108.865 325.174 108.843 325.241 108.843C325.328 108.843 325.393 108.876 325.436 108.943L325.745 109.334C325.626 109.474 325.497 109.591 325.358 109.687C325.219 109.78 325.074 109.855 324.923 109.913C324.775 109.968 324.621 110.007 324.462 110.03C324.305 110.054 324.149 110.065 323.992 110.065C323.717 110.065 323.457 110.014 323.213 109.913C322.97 109.809 322.757 109.658 322.574 109.461C322.391 109.263 322.246 109.023 322.139 108.738C322.035 108.451 321.982 108.125 321.982 107.76C321.982 107.432 322.029 107.129 322.122 106.851C322.217 106.569 322.356 106.327 322.539 106.124C322.722 105.918 322.948 105.757 323.218 105.641C323.487 105.525 323.798 105.467 324.149 105.467C324.482 105.467 324.774 105.521 325.023 105.628C325.275 105.736 325.502 105.889 325.702 106.089L325.419 106.481ZM328.776 108.095C328.466 108.109 328.205 108.137 327.993 108.177C327.782 108.215 327.612 108.264 327.484 108.325C327.357 108.386 327.265 108.457 327.21 108.538C327.155 108.62 327.128 108.708 327.128 108.804C327.128 108.992 327.183 109.127 327.293 109.208C327.406 109.289 327.553 109.33 327.732 109.33C327.953 109.33 328.143 109.291 328.302 109.213C328.465 109.131 328.623 109.01 328.776 108.847V108.095ZM326.314 106.159C326.828 105.689 327.445 105.454 328.167 105.454C328.428 105.454 328.662 105.498 328.868 105.585C329.074 105.669 329.248 105.788 329.39 105.941C329.532 106.092 329.639 106.273 329.712 106.485C329.787 106.697 329.825 106.929 329.825 107.181V110H329.338C329.236 110 329.158 109.985 329.103 109.956C329.048 109.925 329.004 109.862 328.972 109.769L328.876 109.448C328.763 109.549 328.653 109.639 328.546 109.717C328.439 109.793 328.327 109.856 328.211 109.909C328.095 109.961 327.97 110 327.837 110.026C327.706 110.055 327.561 110.07 327.402 110.07C327.213 110.07 327.039 110.045 326.88 109.996C326.72 109.943 326.583 109.867 326.467 109.765C326.351 109.664 326.261 109.537 326.197 109.387C326.133 109.236 326.101 109.06 326.101 108.86C326.101 108.747 326.12 108.636 326.158 108.525C326.195 108.412 326.256 108.305 326.34 108.203C326.427 108.102 326.539 108.006 326.675 107.916C326.812 107.826 326.978 107.748 327.176 107.681C327.376 107.615 327.608 107.561 327.872 107.52C328.135 107.477 328.437 107.451 328.776 107.442V107.181C328.776 106.882 328.713 106.662 328.585 106.52C328.457 106.375 328.273 106.302 328.033 106.302C327.859 106.302 327.714 106.323 327.598 106.363C327.484 106.404 327.384 106.45 327.297 106.503C327.21 106.552 327.131 106.597 327.058 106.637C326.989 106.678 326.91 106.698 326.823 106.698C326.748 106.698 326.684 106.679 326.632 106.642C326.58 106.601 326.538 106.555 326.506 106.503L326.314 106.159ZM331.924 103.536V110H330.85V103.536H331.924Z" fill="#212121"/>
<path d="M257.941 130.877C258.718 130.774 259.305 130.514 259.701 130.096C260.104 129.671 260.306 129.117 260.306 128.435C260.306 128.156 260.255 127.914 260.152 127.709C260.057 127.496 259.917 127.309 259.734 127.148C259.558 126.987 259.349 126.847 259.107 126.73C258.865 126.613 258.601 126.503 258.315 126.4L257.941 130.877ZM257.237 119.25C256.826 119.301 256.478 119.389 256.192 119.514C255.906 119.631 255.671 119.778 255.488 119.954C255.305 120.13 255.169 120.328 255.081 120.548C255 120.768 254.96 120.999 254.96 121.241C254.96 121.52 255.008 121.765 255.103 121.978C255.206 122.183 255.341 122.37 255.51 122.539C255.686 122.7 255.891 122.847 256.126 122.979C256.361 123.104 256.617 123.221 256.896 123.331L257.237 119.25ZM258.524 123.859C259.052 124.02 259.576 124.2 260.097 124.398C260.618 124.589 261.083 124.838 261.494 125.146C261.912 125.454 262.249 125.839 262.506 126.301C262.763 126.756 262.891 127.328 262.891 128.017C262.891 128.699 262.777 129.341 262.55 129.942C262.323 130.536 261.989 131.064 261.549 131.526C261.109 131.981 260.57 132.355 259.932 132.648C259.294 132.934 258.564 133.103 257.743 133.154L257.611 134.771C257.604 134.94 257.53 135.094 257.391 135.233C257.259 135.38 257.09 135.453 256.885 135.453H255.884L256.082 133.099C255.224 132.982 254.417 132.747 253.662 132.395C252.907 132.043 252.265 131.607 251.737 131.086L252.573 129.843C252.646 129.733 252.742 129.645 252.859 129.579C252.984 129.506 253.116 129.469 253.255 129.469C253.416 129.469 253.589 129.528 253.772 129.645C253.955 129.755 254.164 129.887 254.399 130.041C254.634 130.188 254.901 130.338 255.202 130.492C255.503 130.646 255.858 130.76 256.269 130.833L256.676 125.916C256.155 125.769 255.638 125.597 255.125 125.399C254.619 125.201 254.161 124.941 253.75 124.618C253.347 124.288 253.02 123.874 252.771 123.375C252.522 122.876 252.397 122.253 252.397 121.505C252.397 120.948 252.507 120.405 252.727 119.877C252.947 119.342 253.27 118.865 253.695 118.447C254.128 118.029 254.656 117.684 255.279 117.413C255.902 117.142 256.617 116.988 257.424 116.951L257.545 115.565C257.56 115.389 257.633 115.231 257.765 115.092C257.897 114.953 258.069 114.883 258.282 114.883H259.283L259.107 117.039C259.884 117.164 260.555 117.387 261.12 117.71C261.685 118.025 262.172 118.381 262.583 118.777L261.923 119.778C261.828 119.925 261.729 120.035 261.626 120.108C261.523 120.181 261.399 120.218 261.252 120.218C261.142 120.218 261.01 120.185 260.856 120.119C260.702 120.046 260.53 119.961 260.339 119.866C260.148 119.763 259.932 119.661 259.69 119.558C259.455 119.455 259.195 119.371 258.909 119.305L258.524 123.859ZM269.504 122.869L268.954 123.551C269.262 123.397 269.592 123.28 269.944 123.199C270.303 123.111 270.688 123.067 271.099 123.067C271.7 123.067 272.283 123.166 272.848 123.364C273.42 123.562 273.922 123.863 274.355 124.266C274.787 124.662 275.136 125.157 275.4 125.751C275.664 126.345 275.796 127.038 275.796 127.83C275.796 128.571 275.66 129.267 275.389 129.92C275.117 130.565 274.736 131.13 274.245 131.614C273.753 132.098 273.159 132.479 272.463 132.758C271.773 133.037 271.011 133.176 270.175 133.176C269.324 133.176 268.561 133.04 267.887 132.769C267.212 132.498 266.636 132.12 266.16 131.636C265.683 131.145 265.316 130.558 265.06 129.876C264.81 129.187 264.686 128.424 264.686 127.588C264.686 126.84 264.836 126.074 265.137 125.289C265.445 124.497 265.918 123.676 266.556 122.825L270.351 117.732C270.483 117.556 270.673 117.406 270.923 117.281C271.179 117.156 271.473 117.094 271.803 117.094H274.223L269.504 122.869ZM270.12 130.954C270.552 130.954 270.948 130.881 271.308 130.734C271.674 130.587 271.986 130.382 272.243 130.118C272.507 129.854 272.712 129.546 272.859 129.194C273.005 128.835 273.079 128.446 273.079 128.028C273.079 127.573 273.009 127.166 272.87 126.807C272.73 126.44 272.532 126.132 272.276 125.883C272.019 125.626 271.711 125.432 271.352 125.3C270.992 125.168 270.596 125.102 270.164 125.102C269.731 125.102 269.339 125.175 268.987 125.322C268.635 125.469 268.334 125.674 268.085 125.938C267.835 126.195 267.641 126.503 267.502 126.862C267.362 127.214 267.293 127.595 267.293 128.006C267.293 128.446 267.351 128.849 267.469 129.216C267.593 129.575 267.773 129.883 268.008 130.14C268.25 130.397 268.547 130.598 268.899 130.745C269.251 130.884 269.658 130.954 270.12 130.954ZM277.469 131.504C277.469 131.277 277.51 131.06 277.59 130.855C277.678 130.65 277.796 130.474 277.942 130.327C278.089 130.18 278.265 130.063 278.47 129.975C278.676 129.887 278.896 129.843 279.13 129.843C279.365 129.843 279.581 129.887 279.779 129.975C279.985 130.063 280.161 130.18 280.307 130.327C280.461 130.474 280.582 130.65 280.67 130.855C280.758 131.06 280.802 131.277 280.802 131.504C280.802 131.739 280.758 131.959 280.67 132.164C280.582 132.362 280.461 132.534 280.307 132.681C280.161 132.828 279.985 132.941 279.779 133.022C279.581 133.11 279.365 133.154 279.13 133.154C278.896 133.154 278.676 133.11 278.47 133.022C278.265 132.941 278.089 132.828 277.942 132.681C277.796 132.534 277.678 132.362 277.59 132.164C277.51 131.959 277.469 131.739 277.469 131.504ZM286.21 122.869C286.562 122.796 286.899 122.744 287.222 122.715C287.545 122.678 287.856 122.66 288.157 122.66C288.993 122.66 289.73 122.785 290.368 123.034C291.006 123.283 291.541 123.628 291.974 124.068C292.407 124.508 292.733 125.025 292.953 125.619C293.173 126.206 293.283 126.84 293.283 127.522C293.283 128.365 293.133 129.135 292.832 129.832C292.539 130.529 292.128 131.126 291.6 131.625C291.072 132.116 290.445 132.498 289.719 132.769C289 133.04 288.216 133.176 287.365 133.176C286.866 133.176 286.393 133.125 285.946 133.022C285.499 132.919 285.077 132.784 284.681 132.615C284.292 132.439 283.929 132.241 283.592 132.021C283.262 131.794 282.965 131.555 282.701 131.306L283.537 130.151C283.713 129.902 283.944 129.777 284.23 129.777C284.413 129.777 284.6 129.836 284.791 129.953C284.982 130.07 285.198 130.199 285.44 130.338C285.689 130.477 285.979 130.606 286.309 130.723C286.646 130.84 287.05 130.899 287.519 130.899C288.018 130.899 288.458 130.818 288.839 130.657C289.22 130.496 289.536 130.272 289.785 129.986C290.042 129.693 290.232 129.348 290.357 128.952C290.489 128.549 290.555 128.112 290.555 127.643C290.555 126.778 290.302 126.103 289.796 125.619C289.297 125.128 288.557 124.882 287.574 124.882C286.819 124.882 286.045 125.021 285.253 125.3L283.559 124.816L284.879 117.094H292.733V118.249C292.733 118.638 292.612 118.953 292.37 119.195C292.128 119.437 291.717 119.558 291.138 119.558H286.771L286.21 122.869ZM303.914 130.074C304.222 130.448 304.556 130.712 304.915 130.866C305.282 131.02 305.667 131.097 306.07 131.097C306.488 131.097 306.862 131.024 307.192 130.877C307.53 130.723 307.816 130.488 308.05 130.173C308.285 129.85 308.465 129.443 308.589 128.952C308.714 128.453 308.776 127.859 308.776 127.17C308.776 125.931 308.571 125.036 308.16 124.486C307.75 123.929 307.159 123.65 306.389 123.65C305.869 123.65 305.414 123.771 305.025 124.013C304.637 124.248 304.266 124.581 303.914 125.014V130.074ZM303.914 123.1C304.369 122.623 304.871 122.246 305.421 121.967C305.979 121.681 306.613 121.538 307.324 121.538C307.977 121.538 308.564 121.666 309.084 121.923C309.612 122.18 310.06 122.55 310.426 123.034C310.8 123.511 311.086 124.09 311.284 124.772C311.482 125.454 311.581 126.22 311.581 127.071C311.581 127.988 311.468 128.82 311.24 129.568C311.013 130.316 310.687 130.958 310.261 131.493C309.843 132.021 309.337 132.432 308.743 132.725C308.149 133.018 307.489 133.165 306.763 133.165C306.411 133.165 306.092 133.128 305.806 133.055C305.52 132.989 305.256 132.894 305.014 132.769C304.772 132.644 304.549 132.494 304.343 132.318C304.145 132.135 303.955 131.933 303.771 131.713L303.65 132.472C303.606 132.663 303.529 132.798 303.419 132.879C303.317 132.96 303.174 133 302.99 133H301.197V116.654H303.914V123.1ZM316.496 121.714V133H313.768V121.714H316.496ZM316.87 118.425C316.87 118.66 316.822 118.88 316.727 119.085C316.632 119.29 316.503 119.47 316.342 119.624C316.188 119.778 316.005 119.903 315.792 119.998C315.579 120.086 315.352 120.13 315.11 120.13C314.875 120.13 314.652 120.086 314.439 119.998C314.234 119.903 314.054 119.778 313.9 119.624C313.746 119.47 313.621 119.29 313.526 119.085C313.438 118.88 313.394 118.66 313.394 118.425C313.394 118.183 313.438 117.956 313.526 117.743C313.621 117.53 313.746 117.347 313.9 117.193C314.054 117.039 314.234 116.918 314.439 116.83C314.652 116.735 314.875 116.687 315.11 116.687C315.352 116.687 315.579 116.735 315.792 116.83C316.005 116.918 316.188 117.039 316.342 117.193C316.503 117.347 316.632 117.53 316.727 117.743C316.822 117.956 316.87 118.183 316.87 118.425ZM322.016 116.654V133H319.299V116.654H322.016ZM327.473 116.654V133H324.756V116.654H327.473ZM332.996 121.714V133H330.268V121.714H332.996ZM333.37 118.425C333.37 118.66 333.322 118.88 333.227 119.085C333.132 119.29 333.003 119.47 332.842 119.624C332.688 119.778 332.505 119.903 332.292 119.998C332.079 120.086 331.852 120.13 331.61 120.13C331.375 120.13 331.152 120.086 330.939 119.998C330.734 119.903 330.554 119.778 330.4 119.624C330.246 119.47 330.121 119.29 330.026 119.085C329.938 118.88 329.894 118.66 329.894 118.425C329.894 118.183 329.938 117.956 330.026 117.743C330.121 117.53 330.246 117.347 330.4 117.193C330.554 117.039 330.734 116.918 330.939 116.83C331.152 116.735 331.375 116.687 331.61 116.687C331.852 116.687 332.079 116.735 332.292 116.83C332.505 116.918 332.688 117.039 332.842 117.193C333.003 117.347 333.132 117.53 333.227 117.743C333.322 117.956 333.37 118.183 333.37 118.425ZM340.76 121.538C341.596 121.538 342.355 121.674 343.037 121.945C343.726 122.216 344.313 122.601 344.797 123.1C345.288 123.599 345.666 124.207 345.93 124.926C346.194 125.645 346.326 126.448 346.326 127.335C346.326 128.23 346.194 129.036 345.93 129.755C345.666 130.474 345.288 131.086 344.797 131.592C344.313 132.098 343.726 132.487 343.037 132.758C342.355 133.029 341.596 133.165 340.76 133.165C339.916 133.165 339.15 133.029 338.461 132.758C337.771 132.487 337.181 132.098 336.69 131.592C336.206 131.086 335.828 130.474 335.557 129.755C335.293 129.036 335.161 128.23 335.161 127.335C335.161 126.448 335.293 125.645 335.557 124.926C335.828 124.207 336.206 123.599 336.69 123.1C337.181 122.601 337.771 122.216 338.461 121.945C339.15 121.674 339.916 121.538 340.76 121.538ZM340.76 131.075C341.698 131.075 342.391 130.76 342.839 130.129C343.293 129.498 343.521 128.574 343.521 127.357C343.521 126.14 343.293 125.212 342.839 124.574C342.391 123.936 341.698 123.617 340.76 123.617C339.806 123.617 339.099 123.94 338.637 124.585C338.182 125.223 337.955 126.147 337.955 127.357C337.955 128.567 338.182 129.491 338.637 130.129C339.099 130.76 339.806 131.075 340.76 131.075ZM350.94 123.1C351.167 122.873 351.405 122.664 351.655 122.473C351.911 122.275 352.179 122.11 352.458 121.978C352.744 121.839 353.048 121.732 353.371 121.659C353.693 121.578 354.045 121.538 354.427 121.538C355.043 121.538 355.589 121.644 356.066 121.857C356.542 122.062 356.938 122.356 357.254 122.737C357.576 123.111 357.818 123.562 357.98 124.09C358.148 124.611 358.233 125.186 358.233 125.817V133H355.516V125.817C355.516 125.128 355.358 124.596 355.043 124.222C354.727 123.841 354.247 123.65 353.602 123.65C353.132 123.65 352.692 123.756 352.282 123.969C351.871 124.182 351.482 124.471 351.116 124.838V133H348.399V121.714H350.06C350.412 121.714 350.643 121.879 350.753 122.209L350.94 123.1Z" fill="#212121"/>
<defs>
<filter id="filter0_f_50_15488" x="409" y="195" width="77.0146" height="10.0146" filterUnits="userSpaceOnUse" color-interpolation-filters="sRGB">
<feFlood flood-opacity="0" result="BackgroundImageFix"/>
<feBlend mode="normal" in="SourceGraphic" in2="BackgroundImageFix" result="shape"/>
<feGaussianBlur stdDeviation="2" result="effect1_foregroundBlur_50_15488"/>
</filter>
<filter id="filter1_f_50_15488" x="33.6293" y="54.0321" width="91.4143" height="59.6931" filterUnits="userSpaceOnUse" color-interpolation-filters="sRGB">
<feFlood flood-opacity="0" result="BackgroundImageFix"/>
<feBlend mode="normal" in="SourceGraphic" in2="BackgroundImageFix" result="shape"/>
<feGaussianBlur stdDeviation="4.95" result="effect1_foregroundBlur_50_15488"/>
</filter>
</defs>
</svg>
