<svg width="238" height="43" viewBox="0 0 238 43" fill="none" xmlns="http://www.w3.org/2000/svg">
<rect x="27.9005" y="19.2184" width="39.1849" height="18.0729" rx="9.03644" transform="rotate(2.00042 27.9005 19.2184)" stroke="#E0E0E0" stroke-width="7"/>
<rect x="75.4812" y="17.1872" width="39.1849" height="18.0729" rx="9.03644" transform="rotate(-8.37927 75.4812 17.1872)" stroke="#E0E0E0" stroke-width="7"/>
<rect x="48.9713" y="26.5137" width="46.1849" height="7.3443" rx="3.67215" transform="rotate(-8.37927 48.9713 26.5137)" fill="#E0E0E0" stroke="white"/>
<rect x="122.156" y="10.312" width="39.1849" height="18.0729" rx="9.03644" transform="rotate(-8.37927 122.156 10.312)" stroke="#E0E0E0" stroke-width="7"/>
<rect x="95.646" y="19.6387" width="46.1849" height="7.3443" rx="3.67215" transform="rotate(-8.37927 95.646 19.6387)" fill="#E0E0E0" stroke="white"/>
<rect x="172.216" y="7.07721" width="39.1849" height="18.0729" rx="9.03644" transform="rotate(4.82596 172.216 7.07721)" stroke="#E0E0E0" stroke-width="7"/>
<rect x="144.276" y="10.1016" width="46.1849" height="7.3443" rx="3.67215" transform="rotate(4.82596 144.276 10.1016)" fill="#E0E0E0" stroke="white"/>
<rect x="190.979" y="14.3047" width="46.1849" height="7.3443" rx="3.67215" transform="rotate(4.82596 190.979 14.3047)" fill="white" stroke="white"/>
<rect x="1.12268" y="23.7148" width="46.1849" height="7.3443" rx="3.67215" transform="rotate(2 1.12268 23.7148)" fill="#E0E0E0" stroke="white"/>
</svg>
