<svg width="290" height="198" viewBox="0 0 290 198" fill="none" xmlns="http://www.w3.org/2000/svg">
<rect width="290.766" height="204.328" transform="translate(-0.766235 0.62915)" fill="white"/>
<path d="M43.4916 67.2719C26.2502 82.2791 35.2723 97.097 -0.766235 92.1261V197.582H273V140.178C256.351 139.625 246.682 155.745 223.871 146.779C201.061 137.812 226.007 115.704 203.793 99.5043C181.579 83.305 168.433 102.696 146.026 102.696C123.619 102.696 125.55 80.5894 107.982 67.2719C90.4126 53.9543 60.7329 52.2646 43.4916 67.2719Z" fill="#FFE89E"/>
<mask id="mask0_4564_2888" style="mask-type:alpha" maskUnits="userSpaceOnUse" x="-1" y="56" width="273" height="142">
<path d="M229.001 67.2719C246.242 82.2791 234.962 97.3898 271 92.4189V197.855L-0.507446 197.562V140.178C16.1419 139.625 25.8109 155.745 48.6214 146.779C71.4318 137.812 46.4858 115.704 68.6997 99.5043C90.9136 83.305 104.06 102.696 126.467 102.696C148.874 102.696 146.942 80.5894 164.511 67.2719C182.08 53.9543 211.76 52.2646 229.001 67.2719Z" fill="#FFE287"/>
</mask>
<g mask="url(#mask0_4564_2888)">
<path d="M229.001 118.384C246.242 133.391 234.906 148.508 270.944 143.538V259.11L-0.507416 258.81V186.618C16.142 186.065 17.0918 198.382 37.9107 190.198C58.7296 182.014 42.1009 164.897 68.3973 149.603C94.6937 134.31 104.06 153.808 126.467 153.808C148.874 153.808 146.942 131.701 164.511 118.384C182.08 105.066 211.76 103.376 229.001 118.384Z" fill="#FFD553"/>
</g>
<rect x="183.053" y="129.727" width="54.5622" height="67.9795" fill="#212121"/>
<rect x="235.438" y="167.48" width="54.5622" height="30.2269" fill="#212121"/>
<rect x="128.491" y="159.248" width="54.5622" height="38.4589" fill="#212121"/>
<path d="M90.9388 135.525C96.4259 136.514 99.0009 135.743 102.813 132.345C107.06 128.715 109.667 128.051 114.687 129.165L117.065 138.046C111.997 137.209 109.394 137.892 105.191 141.226C101.114 144.562 98.5359 145.333 93.3174 144.407L90.9388 135.525Z" fill="#4D7F3B"/>
<path d="M113.343 130.375L114.915 136.243C113.102 136.035 111.494 136.19 109.95 136.694C108.201 137.264 106.566 138.271 104.834 139.644L104.834 139.644L104.828 139.649C101.646 142.252 98.6875 143.787 94.8142 143.204L93.3031 137.562C95.2878 137.82 97.0576 137.654 98.6955 137.116C100.539 136.51 102.186 135.444 103.769 134.033C106.607 131.504 109.645 129.681 113.343 130.375Z" stroke="#749966"/>
<path d="M110.242 112.568C115.729 113.557 118.304 112.786 122.116 109.388C126.363 105.758 128.969 105.094 133.989 106.208L136.368 115.089C131.3 114.252 128.697 114.935 124.494 118.269C120.417 121.605 117.839 122.376 112.62 121.449L110.242 112.568Z" fill="#4D7F3B"/>
<path d="M123.072 111.075C125.91 108.546 128.948 106.724 132.646 107.417L134.217 113.286C132.405 113.077 130.796 113.233 129.253 113.736C127.504 114.306 125.868 115.313 124.136 116.687L124.136 116.687L124.131 116.692C120.949 119.295 117.99 120.829 114.117 120.246L112.606 114.604C114.59 114.863 116.36 114.696 117.998 114.158C119.841 113.553 121.489 112.486 123.072 111.075ZM123.072 111.075L122.739 110.702M123.072 111.075L122.739 110.702M122.739 110.702C119.77 113.349 116.648 114.684 112.466 114.08L133.049 106.99C128.971 106.085 125.682 108.08 122.739 110.702Z" stroke="#749966"/>
<path d="M66.5475 114.903C72.0346 115.892 74.6096 115.121 78.4214 111.723C82.6691 108.093 85.2752 107.429 90.2954 108.543L92.6739 117.424C87.6055 116.587 85.003 117.27 80.8 120.604C76.7231 123.94 74.1446 124.711 68.9261 123.784L66.5475 114.903Z" fill="#4D7F3B"/>
<path d="M88.9515 109.752L90.5232 115.621C88.7111 115.412 87.1022 115.568 85.5587 116.071C83.81 116.641 82.1742 117.648 80.4424 119.022L80.4423 119.022L80.4365 119.027C77.255 121.63 74.2961 123.164 70.4228 122.581L68.9118 116.939C70.8964 117.198 72.6662 117.031 74.3042 116.493C76.1472 115.888 77.795 114.821 79.3779 113.41C82.2156 110.881 85.2537 109.059 88.9515 109.752Z" stroke="#749966"/>
<path d="M257.888 178.607C258.017 177.726 258.267 176.955 258.638 176.295C259.008 175.626 259.469 175.071 260.02 174.631C260.581 174.182 261.218 173.847 261.933 173.627C262.657 173.398 263.433 173.284 264.26 173.284C265.121 173.284 265.897 173.407 266.586 173.652C267.284 173.889 267.879 174.224 268.37 174.656C268.861 175.079 269.236 175.579 269.494 176.155C269.762 176.731 269.895 177.353 269.895 178.022C269.895 178.607 269.826 179.123 269.688 179.572C269.559 180.013 269.369 180.398 269.12 180.728C268.87 181.058 268.56 181.338 268.189 181.567C267.818 181.795 267.401 181.986 266.935 182.138C268.055 182.485 268.891 183.015 269.443 183.726C269.994 184.438 270.27 185.331 270.27 186.407C270.27 187.321 270.098 188.13 269.753 188.833C269.408 189.536 268.943 190.129 268.357 190.611C267.771 191.086 267.09 191.446 266.315 191.691C265.548 191.937 264.734 192.06 263.872 192.06C262.933 192.06 262.114 191.954 261.416 191.742C260.718 191.53 260.111 191.217 259.594 190.802C259.077 190.387 258.638 189.879 258.276 189.278C257.914 188.676 257.604 187.982 257.345 187.194L258.754 186.623C259.124 186.47 259.469 186.432 259.788 186.508C260.115 186.576 260.352 186.745 260.499 187.016C260.654 187.313 260.822 187.605 261.003 187.893C261.192 188.181 261.416 188.439 261.675 188.668C261.933 188.888 262.235 189.07 262.58 189.214C262.933 189.35 263.351 189.417 263.833 189.417C264.376 189.417 264.85 189.333 265.255 189.163C265.66 188.985 265.996 188.757 266.263 188.477C266.539 188.198 266.741 187.889 266.871 187.55C267.009 187.203 267.077 186.855 267.077 186.508C267.077 186.068 267.03 185.67 266.935 185.314C266.84 184.95 266.642 184.641 266.341 184.387C266.039 184.133 265.604 183.934 265.035 183.79C264.475 183.646 263.721 183.574 262.773 183.574V181.338C263.558 181.329 264.208 181.257 264.725 181.122C265.242 180.986 265.651 180.8 265.953 180.563C266.263 180.317 266.479 180.025 266.599 179.686C266.72 179.348 266.78 178.975 266.78 178.569C266.78 177.705 266.535 177.048 266.043 176.6C265.552 176.151 264.897 175.926 264.079 175.926C263.7 175.926 263.351 175.981 263.032 176.091C262.713 176.193 262.425 176.341 262.166 176.536C261.916 176.722 261.705 176.943 261.533 177.197C261.36 177.451 261.231 177.73 261.145 178.035C260.998 178.425 260.805 178.683 260.563 178.81C260.331 178.937 259.999 178.967 259.568 178.899L257.888 178.607Z" fill="white"/>
<path d="M164.894 184.92C165.239 184.92 165.51 185.018 165.709 185.212C165.915 185.399 166.019 185.649 166.019 185.962V187.842H153.197V186.8C153.197 186.589 153.24 186.368 153.327 186.14C153.421 185.903 153.568 185.691 153.766 185.505L159.44 179.915C159.914 179.441 160.336 178.988 160.707 178.556C161.086 178.124 161.4 177.696 161.65 177.273C161.9 176.849 162.09 176.422 162.219 175.99C162.357 175.549 162.426 175.088 162.426 174.605C162.426 174.165 162.361 173.779 162.232 173.449C162.102 173.11 161.917 172.827 161.676 172.598C161.443 172.369 161.159 172.2 160.823 172.09C160.495 171.971 160.125 171.912 159.711 171.912C159.332 171.912 158.979 171.967 158.652 172.077C158.333 172.179 158.048 172.327 157.799 172.522C157.549 172.708 157.338 172.928 157.165 173.182C156.993 173.436 156.864 173.716 156.777 174.021C156.631 174.41 156.441 174.668 156.209 174.796C155.976 174.923 155.64 174.952 155.201 174.884L153.52 174.592C153.65 173.712 153.9 172.941 154.27 172.28C154.641 171.611 155.102 171.056 155.653 170.616C156.213 170.167 156.851 169.833 157.566 169.613C158.29 169.384 159.065 169.27 159.892 169.27C160.754 169.27 161.542 169.397 162.258 169.651C162.973 169.896 163.585 170.248 164.093 170.705C164.601 171.162 164.998 171.713 165.282 172.356C165.566 173 165.709 173.716 165.709 174.503C165.709 175.181 165.605 175.808 165.398 176.383C165.2 176.959 164.929 177.51 164.584 178.035C164.248 178.56 163.852 179.068 163.395 179.559C162.938 180.051 162.46 180.55 161.96 181.058L157.747 185.289C158.152 185.17 158.552 185.081 158.949 185.022C159.354 184.954 159.737 184.92 160.099 184.92H164.894Z" fill="white"/>
<path d="M217.265 155.496V157.846H206.925V155.496H210.712V144.787C210.712 144.364 210.725 143.928 210.751 143.479L208.062 145.689C207.907 145.808 207.752 145.884 207.597 145.918C207.45 145.943 207.308 145.943 207.17 145.918C207.041 145.893 206.925 145.85 206.821 145.791C206.718 145.723 206.641 145.651 206.589 145.575L205.581 144.216L211.281 139.452H213.904V155.496H217.265Z" fill="white"/>
<path d="M222.936 30.7185C222.936 38.0852 217.149 44.0571 210.011 44.0571C202.872 44.0571 197.086 38.0852 197.086 30.7185C197.086 23.3518 202.872 17.3799 210.011 17.3799C217.149 17.3799 222.936 23.3518 222.936 30.7185Z" fill="#256A9B"/>
<path d="M191.916 87.2489C191.916 89.2434 194.202 93.6006 198.378 93.6006V129.805H223.582V93.6006C227.829 93.6006 228.773 90.8045 228.752 87.2489V58.6661C228.752 51.801 225.461 47.8682 217.766 47.8682H201.61C196.086 47.8682 191.916 52.1108 191.916 56.7606V87.2489Z" fill="#256A9B"/>
<path d="M172.21 60.2393C172.21 67.606 166.423 73.5779 159.285 73.5779C152.147 73.5779 146.36 67.606 146.36 60.2393C146.36 52.8725 152.147 46.9006 159.285 46.9006C166.423 46.9006 172.21 52.8725 172.21 60.2393Z" fill="#134E78"/>
<path d="M141.19 116.77C141.19 118.764 143.476 123.121 147.652 123.121V159.326H172.856V123.121C177.103 123.121 178.047 120.325 178.026 116.77V88.1869C178.026 81.3217 174.735 77.3889 167.04 77.3889H150.884C145.36 77.3889 141.19 81.6316 141.19 86.2813V116.77Z" fill="#134E78"/>
<path d="M273.661 68.471C273.661 75.8377 267.875 81.8096 260.737 81.8096C253.598 81.8096 247.812 75.8377 247.812 68.471C247.812 61.1042 253.598 55.1323 260.737 55.1323C267.875 55.1323 273.661 61.1042 273.661 68.471Z" fill="#134E78"/>
<path d="M242.642 125.001C242.642 126.996 244.928 131.353 249.104 131.353V167.558H274.308V131.353C278.555 131.353 279.499 128.557 279.478 125.001V96.4186C279.478 89.5534 276.187 85.6206 268.492 85.6206H252.335C246.811 85.6206 242.642 89.8633 242.642 94.513V125.001Z" fill="#134E78"/>
<path d="M237.902 35.6795C243.389 36.6681 245.964 35.8971 249.776 32.4993C254.023 28.8688 256.629 28.2055 261.65 29.3192L264.028 38.2003C258.96 37.3629 256.357 38.0463 252.154 41.3804C248.077 44.7165 245.499 45.4873 240.28 44.5606L237.902 35.6795Z" fill="#4D7F3B"/>
<path d="M260.306 30.529L261.877 36.3974C260.065 36.1889 258.456 36.3445 256.913 36.8477C255.164 37.4178 253.528 38.4246 251.797 39.7984L251.797 39.7984L251.791 39.8032C248.609 42.4065 245.65 43.9408 241.777 43.3578L240.266 37.7159C242.251 37.9744 244.02 37.808 245.658 37.2699C247.501 36.6644 249.149 35.5976 250.732 34.1866C253.57 31.6578 256.608 29.8352 260.306 30.529Z" stroke="#749966"/>
<path d="M257.204 12.7219C262.692 13.7106 265.267 12.9396 269.078 9.5418C273.326 5.91125 275.932 5.24793 280.952 6.36166L283.331 15.2428C278.262 14.4054 275.66 15.0887 271.457 18.4229C267.38 21.7589 264.802 22.5298 259.583 21.6031L257.204 12.7219Z" fill="#4D7F3B"/>
<path d="M279.609 7.57123L281.18 13.4396C279.368 13.2311 277.759 13.3868 276.216 13.8899C274.467 14.46 272.831 15.4668 271.099 16.8407L271.099 16.8406L271.094 16.8454C267.912 19.4487 264.953 20.983 261.08 20.4001L259.569 14.7581C261.553 15.0166 263.323 14.8503 264.961 14.3122C266.804 13.7067 268.452 12.6398 270.035 11.2289C272.873 8.7 275.911 6.87742 279.609 7.57123Z" stroke="#749966"/>
</svg>
