<svg width="213" height="293" viewBox="0 0 213 293" fill="none" xmlns="http://www.w3.org/2000/svg">
<circle cx="25.3351" cy="282.844" r="9.78492" fill="#A0A0A0"/>
<circle cx="187.636" cy="282.844" r="9.78492" fill="#A0A0A0"/>
<path d="M16.0738 247.197C18.1468 242.472 22.8184 239.42 27.9785 239.42L184.256 239.42C189.334 239.42 193.948 242.377 196.068 246.991L204.483 265.3C208.442 273.912 202.15 283.729 192.671 283.729H19.9458C10.5651 283.729 4.27234 274.097 8.0411 265.506L16.0738 247.197Z" fill="#E3E3E3"/>
<path d="M1.75149 280.497C2.30134 278.732 3.93616 277.531 5.78459 277.534L207.252 277.824C208.989 277.826 210.533 278.93 211.097 280.572C212.007 283.216 210.042 285.969 207.246 285.969H5.7785C2.9344 285.969 0.905472 283.212 1.75149 280.497Z" fill="#D1D1D1"/>
<path fill-rule="evenodd" clip-rule="evenodd" d="M47.6567 240.33V241.028C47.6567 244.687 50.3738 247.653 53.7255 247.653H54.3644C50.6598 247.653 47.6567 244.374 47.6567 240.33ZM155.619 247.653H154.98C158.684 247.653 161.687 244.374 161.687 240.33V241.028C161.687 244.687 158.97 247.653 155.619 247.653ZM103.275 17.8745H76.3952L76.4039 17.8745H133.579L103.275 17.8745Z" fill="#134E78"/>
<path d="M160.714 120.153C160.714 80.2109 161.687 17.8745 161.687 17.8745C161.687 13.8306 158.684 10.5523 154.98 10.5523H135.239C135.402 10.86 135.495 11.2173 135.495 11.5983V15.7824C135.495 16.9379 134.637 17.8745 133.579 17.8745L103.275 17.8745V120.153C103.275 120.153 134.254 120.153 156.912 120.153C158.209 120.153 159.479 120.153 160.714 120.153Z" fill="white"/>
<path d="M54.3644 10.5523C50.6598 10.5523 49.8193 13.8306 49.8193 17.8745C57.6128 55.0991 63.3781 89.5684 75.7029 120.153H76.1617V17.8745H76.3952C75.3408 17.8693 74.4874 16.9347 74.4874 15.7824V11.5983C74.4874 11.2173 74.5808 10.86 74.7438 10.5523H54.3644Z" fill="white"/>
<path d="M161.687 220.866C161.687 220.866 162.393 204.634 161.687 194.28C160.953 183.502 156.96 174.179 155.467 163.495C155.467 155.998 154.256 144.442 154.256 144.442L103.275 146.083L103.275 170.39C117.974 190.096 136.794 207.094 161.687 220.866Z" fill="white"/>
<path d="M54.3644 247.653L76.1617 247.653V166.272V152.448L76.1617 146.083H52.596C52.596 146.083 59.6097 158.049 52.596 175.832C44.6834 199.728 47.6567 240.33 47.6567 240.33C47.6567 244.374 50.6598 247.653 54.3644 247.653Z" fill="#F3F3F3"/>
<path d="M161.687 240.33V220.866C136.794 207.094 117.974 190.096 103.275 170.39V247.653L154.98 247.653C158.684 247.653 161.687 244.374 161.687 240.33Z" fill="#F3F3F3"/>
<path d="M49.8193 17.8745C49.8193 17.8745 48.5012 80.2109 47.6567 120.153C49.05 120.153 50.5426 120.153 52.0868 120.153C62.6817 120.153 75.7029 120.153 75.7029 120.153C63.3781 89.5684 57.6128 55.0991 49.8193 17.8745Z" fill="#F3F3F3"/>
<path fill-rule="evenodd" clip-rule="evenodd" d="M50.212 0.498535H159.771C165.24 0.498535 172.263 8.41809 172.263 14.3877C172.263 14.3877 174.909 83.5792 169.673 127.326C168.942 133.434 165.002 142.934 165.002 142.934C165.002 142.934 160.358 159.044 165.002 166.922C169.673 174.848 169.928 179.56 170.643 184.257C174.455 209.289 172.263 243.817 172.263 243.817C172.263 249.787 165.24 257.307 159.771 257.307H50.212C44.7434 257.307 37.5519 249.787 37.5519 243.817C37.5519 243.817 35.2143 208.713 37.5519 186.46C38.3846 178.532 39.7634 175.832 43.1954 166.272C45.8306 158.931 43.1954 146.083 43.1954 146.083C43.1954 139.452 37.6536 139.864 37.5519 125.066C37.4501 110.269 37.6536 14.3877 37.6536 14.3877C37.6536 8.41809 44.7434 0.498535 50.212 0.498535ZM161.687 17.8745C161.687 17.8745 160.714 80.2109 160.714 120.153C160.714 127.29 158.084 135.209 156.181 140.006C155.101 142.726 154.256 144.442 154.256 144.442C154.256 144.442 155.467 155.998 155.467 163.495C156.96 174.179 160.953 183.502 161.687 194.28C162.393 204.634 161.687 220.866 161.687 220.866V240.33V241.028C161.687 244.687 158.97 247.653 155.619 247.653H154.98L103.275 247.653H76.1617L54.3644 247.653H53.7255C50.3738 247.653 47.6567 244.687 47.6567 241.028V240.33C47.6567 240.33 44.6834 199.728 52.596 175.832C59.6097 158.049 52.596 146.083 52.596 146.083C52.596 146.083 52.5328 145.892 52.4207 145.538C51.5418 142.758 47.6567 129.918 47.6567 120.153C48.5012 80.2109 49.8193 17.8745 49.8193 17.8745C49.8193 13.8306 50.6598 10.5523 54.3644 10.5523H74.7438C75.0752 9.92696 75.6946 9.50625 76.4039 9.50625H133.579C134.288 9.50625 134.908 9.92696 135.239 10.5523H154.98C158.684 10.5523 161.687 13.8306 161.687 17.8745Z" fill="#212121"/>
<path fill-rule="evenodd" clip-rule="evenodd" d="M135.495 15.7824V11.5983C135.495 11.2173 135.402 10.86 135.239 10.5523H74.7438C74.5808 10.86 74.4874 11.2173 74.4874 11.5983V15.7824C74.4874 16.9347 75.3408 17.8693 76.3952 17.8745H103.275L133.579 17.8745C134.637 17.8745 135.495 16.9379 135.495 15.7824ZM113.408 11.8592H96.5747V12.8744H113.408V11.8592Z" fill="#212121"/>
<path d="M133.579 9.50625H76.4039C75.6946 9.50625 75.0752 9.92696 74.7438 10.5523H135.239C134.908 9.92696 134.288 9.50625 133.579 9.50625Z" fill="#212121"/>
<path d="M76.1617 247.653H103.275V170.39L103.275 146.083L154.256 144.442C154.256 144.442 155.101 142.726 156.181 140.006C158.084 135.209 160.714 127.29 160.714 120.153H156.912H103.275V17.8745L76.4039 17.8745L76.3952 17.8745H76.1617V120.153H75.7029H52.0868H47.6567C47.6567 129.918 51.5418 142.758 52.4207 145.538C52.5328 145.892 52.596 146.083 52.596 146.083H76.1617L76.1617 152.448V166.272V247.653Z" fill="#134E78"/>
<rect x="48.0232" y="155.989" width="0.783854" height="8.60472" fill="#947000"/>
<rect x="42.722" y="155.989" width="0.783854" height="8.60472" fill="#947000"/>
<rect x="53.3243" y="155.989" width="0.783854" height="8.60472" fill="#947000"/>
<rect x="58.6239" y="155.989" width="0.783854" height="8.60472" fill="#947000"/>
<rect x="63.9249" y="150.259" width="0.783854" height="14.3355" fill="#947000"/>
<rect x="69.2262" y="155.989" width="0.783854" height="8.60472" fill="#947000"/>
<rect x="74.5272" y="155.989" width="0.783854" height="8.60472" fill="#947000"/>
<rect x="79.8282" y="155.989" width="0.783854" height="8.60472" fill="#947000"/>
<rect x="85.1294" y="151.096" width="0.783854" height="13.4985" fill="#947000"/>
<rect x="90.4291" y="155.989" width="0.783854" height="8.60472" fill="#947000"/>
<rect x="95.7301" y="155.989" width="0.783854" height="8.60472" fill="#947000"/>
<rect x="101.031" y="155.989" width="0.783854" height="8.60472" fill="#947000"/>
<rect x="106.332" y="155.989" width="0.783854" height="8.60472" fill="#947000"/>
<rect x="111.633" y="155.989" width="0.783854" height="8.60472" fill="#947000"/>
<rect x="116.934" y="155.989" width="0.783854" height="8.60472" fill="#947000"/>
<rect x="122.234" y="155.989" width="0.783854" height="8.60472" fill="#947000"/>
<rect x="127.535" y="151.096" width="0.783854" height="13.4985" fill="#947000"/>
<rect x="132.836" y="155.989" width="0.783854" height="8.60472" fill="#947000"/>
<rect x="138.137" y="155.989" width="0.783854" height="8.60472" fill="#947000"/>
<rect x="143.438" y="155.989" width="0.783854" height="8.60472" fill="#947000"/>
<rect x="148.74" y="150.259" width="0.783854" height="14.3355" fill="#947000"/>
<rect x="154.039" y="155.989" width="0.783854" height="8.60472" fill="#947000"/>
<rect x="42.722" y="150.259" width="0.783854" height="14.3355" fill="#947000"/>
<rect x="58.6239" y="155.989" width="0.783854" height="8.60472" fill="#947000"/>
<rect x="74.5272" y="155.989" width="0.783854" height="8.60472" fill="#947000"/>
<rect x="90.4291" y="155.989" width="0.783854" height="8.60472" fill="#947000"/>
<rect x="106.332" y="151.662" width="0.783854" height="12.9324" fill="#947000"/>
<rect x="63.2051" y="150.259" width="0.783854" height="14.3355" fill="#947000"/>
<rect x="84.4093" y="151.096" width="0.783854" height="13.4985" fill="#947000"/>
<rect x="126.815" y="151.096" width="0.783854" height="13.4985" fill="#947000"/>
<rect x="148.019" y="150.259" width="0.783854" height="14.3355" fill="#947000"/>
<rect x="42.0022" y="150.259" width="0.783854" height="14.3355" fill="#947000"/>
<rect x="105.612" y="151.662" width="0.783854" height="12.9324" fill="#947000"/>
<rect x="122.234" y="155.989" width="0.783854" height="8.60472" fill="#947000"/>
<rect x="138.137" y="155.989" width="0.783854" height="8.60472" fill="#947000"/>
<rect x="154.039" y="155.989" width="0.783854" height="8.60472" fill="#947000"/>
<rect x="159.34" y="155.989" width="0.783854" height="8.60472" fill="#947000"/>
<rect x="164.641" y="155.989" width="0.783854" height="8.60472" fill="#947000"/>
<rect x="47.2443" y="155.989" width="0.784808" height="8.60472" fill="#947000"/>
<rect x="41.9375" y="155.989" width="0.784808" height="8.60472" fill="#947000"/>
<rect x="52.5524" y="155.989" width="0.784808" height="8.60472" fill="#947000"/>
<rect x="57.859" y="155.989" width="0.784808" height="8.60472" fill="#947000"/>
<rect x="63.1672" y="155.989" width="0.784808" height="8.60472" fill="#947000"/>
<rect x="68.4739" y="155.989" width="0.784808" height="8.60472" fill="#947000"/>
<rect x="73.7806" y="155.989" width="0.784808" height="8.60472" fill="#947000"/>
<rect x="79.0889" y="155.989" width="0.784808" height="8.60472" fill="#947000"/>
<rect x="84.3956" y="155.989" width="0.784808" height="8.60472" fill="#947000"/>
<rect x="89.7037" y="155.989" width="0.784808" height="8.60472" fill="#947000"/>
<rect x="95.0105" y="155.989" width="0.784808" height="8.60472" fill="#947000"/>
<rect x="100.317" y="155.989" width="0.784808" height="8.60472" fill="#947000"/>
<rect x="105.625" y="155.989" width="0.784808" height="8.60472" fill="#947000"/>
<rect x="110.932" y="155.989" width="0.784808" height="8.60472" fill="#947000"/>
<rect x="116.24" y="155.989" width="0.784808" height="8.60472" fill="#947000"/>
<rect x="121.547" y="155.989" width="0.784808" height="8.60472" fill="#947000"/>
<rect x="126.854" y="155.989" width="0.784808" height="8.60472" fill="#947000"/>
<rect x="132.162" y="155.989" width="0.784808" height="8.60472" fill="#947000"/>
<rect x="137.468" y="155.989" width="0.784808" height="8.60472" fill="#947000"/>
<rect x="142.777" y="155.989" width="0.784808" height="8.60472" fill="#947000"/>
<rect x="148.083" y="155.989" width="0.784808" height="8.60472" fill="#947000"/>
<rect x="153.391" y="155.989" width="0.784808" height="8.60472" fill="#947000"/>
<rect x="41.9375" y="155.989" width="0.784808" height="8.60472" fill="#947000"/>
<rect x="57.859" y="155.989" width="0.784808" height="8.60472" fill="#947000"/>
<rect x="73.7806" y="155.989" width="0.784808" height="8.60472" fill="#947000"/>
<rect x="89.7037" y="155.989" width="0.784808" height="8.60472" fill="#947000"/>
<rect x="105.625" y="155.989" width="0.784808" height="8.60472" fill="#947000"/>
<rect x="121.547" y="155.989" width="0.784808" height="8.60472" fill="#947000"/>
<rect x="137.468" y="155.989" width="0.784808" height="8.60472" fill="#947000"/>
<rect x="153.391" y="155.989" width="0.784808" height="8.60472" fill="#947000"/>
<rect x="158.698" y="155.989" width="0.784808" height="8.60472" fill="#947000"/>
<rect x="164.005" y="155.989" width="0.784808" height="8.60472" fill="#947000"/>
<path d="M41.9379 145.62C75.0208 151.087 126.488 151.087 165.426 145.62V164.594H41.9379V145.62Z" fill="#FFC200"/>
<rect x="47.245" y="155.989" width="0.784808" height="8.60472" fill="#947000"/>
<rect x="41.9382" y="155.989" width="0.784808" height="8.60472" fill="#947000"/>
<rect x="52.5531" y="155.989" width="0.784808" height="8.60472" fill="#947000"/>
<rect x="57.8597" y="155.989" width="0.784808" height="8.60472" fill="#947000"/>
<rect x="63.168" y="155.989" width="0.784808" height="8.60472" fill="#947000"/>
<rect x="68.4746" y="155.989" width="0.784808" height="8.60472" fill="#947000"/>
<rect x="73.7814" y="155.989" width="0.784808" height="8.60472" fill="#947000"/>
<rect x="79.0895" y="155.989" width="0.784808" height="8.60472" fill="#947000"/>
<rect x="84.3962" y="155.989" width="0.784808" height="8.60472" fill="#947000"/>
<rect x="89.7043" y="155.989" width="0.784808" height="8.60472" fill="#947000"/>
<rect x="95.0111" y="155.989" width="0.784808" height="8.60472" fill="#947000"/>
<rect x="100.318" y="155.989" width="0.784808" height="8.60472" fill="#947000"/>
<rect x="105.626" y="155.989" width="0.784808" height="8.60472" fill="#947000"/>
<rect x="110.933" y="155.989" width="0.784808" height="8.60472" fill="#947000"/>
<rect x="116.241" y="155.989" width="0.784808" height="8.60472" fill="#947000"/>
<rect x="121.548" y="155.989" width="0.784808" height="8.60472" fill="#947000"/>
<rect x="126.856" y="155.989" width="0.784808" height="8.60472" fill="#947000"/>
<rect x="132.162" y="155.989" width="0.784808" height="8.60472" fill="#947000"/>
<rect x="137.469" y="155.989" width="0.784808" height="8.60472" fill="#947000"/>
<rect x="142.777" y="155.989" width="0.784808" height="8.60472" fill="#947000"/>
<rect x="148.084" y="155.989" width="0.784808" height="8.60472" fill="#947000"/>
<rect x="153.392" y="155.989" width="0.784808" height="8.60472" fill="#947000"/>
<rect x="41.9382" y="155.989" width="0.784808" height="8.60472" fill="#947000"/>
<rect x="57.8597" y="155.989" width="0.784808" height="8.60472" fill="#947000"/>
<rect x="73.7814" y="155.989" width="0.784808" height="8.60472" fill="#947000"/>
<rect x="89.7043" y="155.989" width="0.784808" height="8.60472" fill="#947000"/>
<rect x="105.626" y="155.989" width="0.784808" height="8.60472" fill="#947000"/>
<rect x="121.548" y="155.989" width="0.784808" height="8.60472" fill="#947000"/>
<rect x="137.469" y="155.989" width="0.784808" height="8.60472" fill="#947000"/>
<rect x="153.392" y="155.989" width="0.784808" height="8.60472" fill="#947000"/>
<rect x="158.699" y="155.989" width="0.784808" height="8.60472" fill="#947000"/>
<rect x="164.006" y="155.989" width="0.784808" height="8.60472" fill="#947000"/>
<rect x="48.0234" y="155.989" width="0.783854" height="8.60472" fill="#947000"/>
<rect x="42.7224" y="155.989" width="0.783854" height="8.60472" fill="#947000"/>
<rect x="53.3246" y="155.989" width="0.783854" height="8.60472" fill="#947000"/>
<rect x="58.6243" y="155.989" width="0.783854" height="8.60472" fill="#947000"/>
<rect x="63.9253" y="150.259" width="0.783854" height="14.3355" fill="#947000"/>
<rect x="69.2263" y="155.989" width="0.783854" height="8.60472" fill="#947000"/>
<rect x="74.5275" y="155.989" width="0.783854" height="8.60472" fill="#947000"/>
<rect x="79.8285" y="155.989" width="0.783854" height="8.60472" fill="#947000"/>
<rect x="85.1296" y="151.096" width="0.783854" height="13.4985" fill="#947000"/>
<rect x="90.4293" y="155.989" width="0.783854" height="8.60472" fill="#947000"/>
<rect x="95.7303" y="155.989" width="0.783854" height="8.60472" fill="#947000"/>
<rect x="101.031" y="155.989" width="0.783854" height="8.60472" fill="#947000"/>
<rect x="106.333" y="155.989" width="0.783854" height="8.60472" fill="#947000"/>
<rect x="111.634" y="155.989" width="0.783854" height="8.60472" fill="#947000"/>
<rect x="116.935" y="155.989" width="0.783854" height="8.60472" fill="#947000"/>
<rect x="122.234" y="155.989" width="0.783854" height="8.60472" fill="#947000"/>
<rect x="127.535" y="151.096" width="0.783854" height="13.4985" fill="#947000"/>
<rect x="132.836" y="155.989" width="0.783854" height="8.60472" fill="#947000"/>
<rect x="138.138" y="155.989" width="0.783854" height="8.60472" fill="#947000"/>
<rect x="143.439" y="155.989" width="0.783854" height="8.60472" fill="#947000"/>
<rect x="148.74" y="150.259" width="0.783854" height="14.3355" fill="#947000"/>
<rect x="154.039" y="155.989" width="0.783854" height="8.60472" fill="#947000"/>
<rect x="42.7224" y="150.259" width="0.783854" height="14.3355" fill="#947000"/>
<rect x="58.6243" y="155.989" width="0.783854" height="8.60472" fill="#947000"/>
<rect x="74.5275" y="155.989" width="0.783854" height="8.60472" fill="#947000"/>
<rect x="90.4293" y="155.989" width="0.783854" height="8.60472" fill="#947000"/>
<rect x="106.333" y="151.662" width="0.783854" height="12.9324" fill="#947000"/>
<rect x="63.2053" y="150.259" width="0.783854" height="14.3355" fill="#947000"/>
<rect x="84.4095" y="151.096" width="0.783854" height="13.4985" fill="#947000"/>
<rect x="126.815" y="151.096" width="0.783854" height="13.4985" fill="#947000"/>
<rect x="148.02" y="150.259" width="0.783854" height="14.3355" fill="#947000"/>
<rect x="42.0024" y="150.259" width="0.783854" height="14.3355" fill="#947000"/>
<rect x="105.613" y="151.662" width="0.783854" height="12.9324" fill="#947000"/>
<rect x="122.234" y="155.989" width="0.783854" height="8.60472" fill="#947000"/>
<rect x="138.138" y="155.989" width="0.783854" height="8.60472" fill="#947000"/>
<rect x="154.039" y="155.989" width="0.783854" height="8.60472" fill="#947000"/>
<rect x="159.341" y="155.989" width="0.783854" height="8.60472" fill="#947000"/>
<rect x="164.642" y="155.989" width="0.783854" height="8.60472" fill="#947000"/>
<rect x="80.5427" y="263.823" width="47.8695" height="10.6326" rx="5" fill="#D2F8CC"/>
<path d="M116.677 266.299L117.154 265.838L117.631 266.299V268.47L117.154 268.908L116.677 268.47V266.299Z" fill="#555555"/>
<path d="M113.257 266.299L113.734 265.838L114.211 266.299V268.47L113.734 268.908L113.257 268.47V266.299Z" fill="#555555"/>
<path d="M114.384 266.174L113.924 265.697L114.384 265.22H116.556L116.994 265.697L116.556 266.174H114.384Z" fill="#555555"/>
<path d="M114.384 269.546L113.924 269.069L114.384 268.592H116.556L116.994 269.069L116.556 269.546H114.384Z" fill="#555555"/>
<path d="M116.693 269.671L117.17 269.21L117.647 269.671V271.842L117.17 272.28L116.693 271.842V269.671Z" fill="#555555"/>
<path d="M113.271 269.671L113.748 269.21L114.225 269.671V271.842L113.748 272.28L113.271 271.842V269.671Z" fill="#555555"/>
<path d="M114.399 272.918L113.938 272.441L114.399 271.964H116.57L117.008 272.441L116.57 272.918H114.399Z" fill="#555555"/>
<path d="M111.104 266.299L111.581 265.838L112.058 266.299V268.47L111.581 268.908L111.104 268.47V266.299Z" fill="#555555"/>
<path d="M107.683 266.299L108.16 265.838L108.637 266.299V268.47L108.16 268.908L107.683 268.47V266.299Z" fill="#555555"/>
<path d="M108.811 266.174L108.351 265.697L108.811 265.22H110.983L111.421 265.697L110.983 266.174H108.811Z" fill="#555555"/>
<path d="M108.811 269.546L108.351 269.069L108.811 268.592H110.983L111.421 269.069L110.983 269.546H108.811Z" fill="#555555"/>
<path d="M111.12 269.67L111.597 269.21L112.074 269.67V271.842L111.597 272.28L111.12 271.842V269.67Z" fill="#555555"/>
<path d="M107.699 269.67L108.176 269.21L108.653 269.67V271.842L108.176 272.28L107.699 271.842V269.67Z" fill="#555555"/>
<path d="M108.826 272.918L108.365 272.441L108.826 271.964H110.997L111.435 272.441L110.997 272.918H108.826Z" fill="#555555"/>
<path d="M105.532 266.299L106.009 265.838L106.486 266.299V268.47L106.009 268.908L105.532 268.47V266.299Z" fill="#555555"/>
<path d="M102.111 266.299L102.588 265.838L103.065 266.299V268.47L102.588 268.908L102.111 268.47V266.299Z" fill="#555555"/>
<path d="M103.239 266.174L102.779 265.697L103.239 265.22H105.411L105.849 265.697L105.411 266.174H103.239Z" fill="#555555"/>
<path d="M103.239 269.546L102.779 269.069L103.239 268.592H105.411L105.849 269.069L105.411 269.546H103.239Z" fill="#555555"/>
<path d="M105.548 269.671L106.025 269.21L106.502 269.671V271.842L106.025 272.28L105.548 271.842V269.671Z" fill="#555555"/>
<path d="M102.126 269.671L102.603 269.21L103.08 269.671V271.842L102.603 272.28L102.126 271.842V269.671Z" fill="#555555"/>
<path d="M103.253 272.918L102.793 272.441L103.253 271.964H105.425L105.863 272.441L105.425 272.918H103.253Z" fill="#555555"/>
<path d="M99.9584 266.44L100.435 265.98L100.912 266.44V268.612L100.435 269.049L99.9584 268.612V266.44Z" fill="#555555"/>
<path d="M96.5377 266.44L97.0147 265.98L97.4917 266.44V268.612L97.0147 269.049L96.5377 268.612V266.44Z" fill="#555555"/>
<path d="M97.6656 266.315L97.2054 265.838L97.6656 265.361H99.8373L100.275 265.838L99.8373 266.315H97.6656Z" fill="#555555"/>
<path d="M97.6656 269.687L97.2054 269.21L97.6656 268.733H99.8373L100.275 269.21L99.8373 269.687H97.6656Z" fill="#555555"/>
<path d="M99.9738 269.812L100.451 269.352L100.928 269.812V271.984L100.451 272.421L99.9738 271.984V269.812Z" fill="#555555"/>
<path d="M96.5518 269.812L97.0288 269.352L97.5057 269.812V271.984L97.0288 272.421L96.5518 271.984V269.812Z" fill="#555555"/>
<path d="M97.6796 273.059L97.2195 272.582L97.6796 272.105H99.8514L100.289 272.582L99.8514 273.059H97.6796Z" fill="#555555"/>
<path d="M94.729 266.44L95.206 265.98L95.683 266.44V268.612L95.206 269.049L94.729 268.612V266.44Z" fill="#555555"/>
<path d="M91.3083 266.44L91.7853 265.98L92.2623 266.44V268.612L91.7853 269.049L91.3083 268.612V266.44Z" fill="#555555"/>
<path d="M92.4362 266.315L91.9761 265.838L92.4362 265.361H94.6079L95.0457 265.838L94.6079 266.315H92.4362Z" fill="#555555"/>
<path d="M92.4362 269.687L91.9761 269.21L92.4362 268.733H94.6079L95.0457 269.21L94.6079 269.687H92.4362Z" fill="#555555"/>
<path d="M94.7445 269.812L95.2215 269.352L95.6985 269.812V271.984L95.2215 272.421L94.7445 271.984V269.812Z" fill="#555555"/>
<path d="M91.3225 269.812L91.7995 269.352L92.2765 269.812V271.984L91.7995 272.421L91.3225 271.984V269.812Z" fill="#555555"/>
<path d="M92.4504 273.059L91.9902 272.582L92.4504 272.105H94.6221L95.0598 272.582L94.6221 273.059H92.4504Z" fill="#555555"/>
<circle cx="118.738" cy="13.0566" r="1.47508" fill="white"/>
</svg>
