<svg width="156" height="221" viewBox="0 0 156 221" fill="none" xmlns="http://www.w3.org/2000/svg">
<rect x="25" y="29" width="57" height="157" fill="#160E37"/>
<rect x="99" y="138" width="57" height="48" fill="#160E37"/>
<path d="M115.312 117.88C115.312 118.687 115.518 119.303 115.932 119.73C116.352 120.15 116.945 120.36 117.712 120.36C118.112 120.36 118.468 120.297 118.782 120.17C119.095 120.043 119.358 119.87 119.572 119.65C119.785 119.43 119.945 119.17 120.052 118.87C120.165 118.57 120.222 118.247 120.222 117.9C120.222 117.507 120.162 117.157 120.042 116.85C119.922 116.537 119.752 116.273 119.532 116.06C119.312 115.847 119.048 115.683 118.742 115.57C118.442 115.457 118.112 115.4 117.752 115.4C117.378 115.4 117.042 115.463 116.742 115.59C116.442 115.71 116.185 115.88 115.972 116.1C115.758 116.32 115.595 116.583 115.482 116.89C115.368 117.19 115.312 117.52 115.312 117.88ZM118.592 122.39C118.705 122.25 118.812 122.113 118.912 121.98C119.012 121.847 119.108 121.713 119.202 121.58C118.868 121.793 118.502 121.957 118.102 122.07C117.702 122.177 117.282 122.23 116.842 122.23C116.342 122.23 115.852 122.143 115.372 121.97C114.892 121.797 114.465 121.537 114.092 121.19C113.718 120.837 113.415 120.403 113.182 119.89C112.955 119.37 112.842 118.763 112.842 118.07C112.842 117.423 112.962 116.817 113.202 116.25C113.442 115.683 113.778 115.187 114.212 114.76C114.645 114.333 115.165 113.997 115.772 113.75C116.378 113.503 117.048 113.38 117.782 113.38C118.522 113.38 119.185 113.497 119.772 113.73C120.365 113.963 120.868 114.29 121.282 114.71C121.702 115.13 122.022 115.633 122.242 116.22C122.468 116.807 122.582 117.45 122.582 118.15C122.582 118.597 122.542 119.02 122.462 119.42C122.388 119.82 122.282 120.207 122.142 120.58C122.002 120.947 121.832 121.307 121.632 121.66C121.432 122.013 121.208 122.363 120.962 122.71L117.652 127.43C117.538 127.59 117.368 127.727 117.142 127.84C116.915 127.947 116.658 128 116.372 128H114.102L118.592 122.39ZM134.063 117.04C134.063 117.587 133.97 118.08 133.783 118.52C133.603 118.96 133.36 119.337 133.053 119.65C132.747 119.957 132.39 120.193 131.983 120.36C131.577 120.527 131.153 120.61 130.713 120.61C130.233 120.61 129.79 120.527 129.383 120.36C128.977 120.193 128.623 119.957 128.323 119.65C128.03 119.337 127.8 118.96 127.633 118.52C127.467 118.08 127.383 117.587 127.383 117.04C127.383 116.48 127.467 115.973 127.633 115.52C127.8 115.067 128.03 114.683 128.323 114.37C128.623 114.057 128.977 113.817 129.383 113.65C129.79 113.477 130.233 113.39 130.713 113.39C131.193 113.39 131.637 113.477 132.043 113.65C132.457 113.817 132.813 114.057 133.113 114.37C133.413 114.683 133.647 115.067 133.813 115.52C133.98 115.973 134.063 116.48 134.063 117.04ZM132.163 117.04C132.163 116.653 132.123 116.33 132.043 116.07C131.97 115.81 131.867 115.6 131.733 115.44C131.607 115.28 131.453 115.167 131.273 115.1C131.1 115.027 130.913 114.99 130.713 114.99C130.513 114.99 130.327 115.027 130.153 115.1C129.98 115.167 129.83 115.28 129.703 115.44C129.583 115.6 129.487 115.81 129.413 116.07C129.34 116.33 129.303 116.653 129.303 117.04C129.303 117.413 129.34 117.727 129.413 117.98C129.487 118.227 129.583 118.427 129.703 118.58C129.83 118.733 129.98 118.843 130.153 118.91C130.327 118.977 130.513 119.01 130.713 119.01C130.913 119.01 131.1 118.977 131.273 118.91C131.453 118.843 131.607 118.733 131.733 118.58C131.867 118.427 131.97 118.227 132.043 117.98C132.123 117.727 132.163 117.413 132.163 117.04ZM138.873 113.93C138.96 113.83 139.06 113.74 139.173 113.66C139.293 113.58 139.46 113.54 139.673 113.54H141.473L130.733 127.63C130.647 127.737 130.543 127.827 130.423 127.9C130.303 127.967 130.157 128 129.983 128H128.143L138.873 113.93ZM142.233 124.6C142.233 125.147 142.14 125.64 141.953 126.08C141.773 126.52 141.53 126.897 141.223 127.21C140.917 127.517 140.56 127.757 140.153 127.93C139.747 128.097 139.323 128.18 138.883 128.18C138.403 128.18 137.96 128.097 137.553 127.93C137.147 127.757 136.793 127.517 136.493 127.21C136.2 126.897 135.97 126.52 135.803 126.08C135.637 125.64 135.553 125.147 135.553 124.6C135.553 124.04 135.637 123.533 135.803 123.08C135.97 122.627 136.2 122.243 136.493 121.93C136.793 121.617 137.147 121.377 137.553 121.21C137.96 121.037 138.403 120.95 138.883 120.95C139.363 120.95 139.807 121.037 140.213 121.21C140.627 121.377 140.98 121.617 141.273 121.93C141.573 122.243 141.807 122.627 141.973 123.08C142.147 123.533 142.233 124.04 142.233 124.6ZM140.323 124.6C140.323 124.213 140.287 123.89 140.213 123.63C140.14 123.37 140.037 123.16 139.903 123C139.777 122.84 139.623 122.727 139.443 122.66C139.27 122.587 139.083 122.55 138.883 122.55C138.683 122.55 138.497 122.587 138.323 122.66C138.15 122.727 138 122.84 137.873 123C137.747 123.16 137.647 123.37 137.573 123.63C137.507 123.89 137.473 124.213 137.473 124.6C137.473 124.973 137.507 125.287 137.573 125.54C137.647 125.793 137.747 125.997 137.873 126.15C138 126.303 138.15 126.413 138.323 126.48C138.497 126.547 138.683 126.58 138.883 126.58C139.083 126.58 139.27 126.547 139.443 126.48C139.623 126.413 139.777 126.303 139.903 126.15C140.037 125.997 140.14 125.793 140.213 125.54C140.287 125.287 140.323 124.973 140.323 124.6Z" fill="#0F0101"/>
<path d="M20.5465 205.052L20.5405 206H15.2425V197.402H20.5405V198.35H16.4065V201.206H19.7545V202.118H16.4065V205.052H20.5465ZM28.4565 199.922V206H27.8205C27.6685 206 27.5725 205.926 27.5325 205.778L27.4485 205.124C27.1845 205.416 26.8885 205.652 26.5605 205.832C26.2325 206.008 25.8565 206.096 25.4325 206.096C25.1005 206.096 24.8065 206.042 24.5505 205.934C24.2985 205.822 24.0865 205.666 23.9145 205.466C23.7425 205.266 23.6125 205.024 23.5245 204.74C23.4405 204.456 23.3985 204.142 23.3985 203.798V199.922H24.4665V203.798C24.4665 204.258 24.5705 204.614 24.7785 204.866C24.9905 205.118 25.3125 205.244 25.7445 205.244C26.0605 205.244 26.3545 205.17 26.6265 205.022C26.9025 204.87 27.1565 204.662 27.3885 204.398V199.922H28.4565ZM32.9639 201.14C33.1559 200.724 33.3919 200.4 33.6719 200.168C33.9519 199.932 34.2939 199.814 34.6979 199.814C34.8259 199.814 34.9479 199.828 35.0639 199.856C35.1839 199.884 35.2899 199.928 35.3819 199.988L35.3039 200.786C35.2799 200.886 35.2199 200.936 35.1239 200.936C35.0679 200.936 34.9859 200.924 34.8779 200.9C34.7699 200.876 34.6479 200.864 34.5119 200.864C34.3199 200.864 34.1479 200.892 33.9959 200.948C33.8479 201.004 33.7139 201.088 33.5939 201.2C33.4779 201.308 33.3719 201.444 33.2759 201.608C33.1839 201.768 33.0999 201.952 33.0239 202.16V206H31.9499V199.922H32.5619C32.6779 199.922 32.7579 199.944 32.8019 199.988C32.8459 200.032 32.8759 200.108 32.8919 200.216L32.9639 201.14ZM40.4369 199.826C40.8809 199.826 41.2809 199.9 41.6369 200.048C41.9929 200.196 42.2969 200.406 42.5489 200.678C42.8009 200.95 42.9929 201.28 43.1249 201.668C43.2609 202.052 43.3289 202.482 43.3289 202.958C43.3289 203.438 43.2609 203.87 43.1249 204.254C42.9929 204.638 42.8009 204.966 42.5489 205.238C42.2969 205.51 41.9929 205.72 41.6369 205.868C41.2809 206.012 40.8809 206.084 40.4369 206.084C39.9889 206.084 39.5849 206.012 39.2249 205.868C38.8689 205.72 38.5649 205.51 38.3129 205.238C38.0609 204.966 37.8669 204.638 37.7309 204.254C37.5989 203.87 37.5329 203.438 37.5329 202.958C37.5329 202.482 37.5989 202.052 37.7309 201.668C37.8669 201.28 38.0609 200.95 38.3129 200.678C38.5649 200.406 38.8689 200.196 39.2249 200.048C39.5849 199.9 39.9889 199.826 40.4369 199.826ZM40.4369 205.25C41.0369 205.25 41.4849 205.05 41.7809 204.65C42.0769 204.246 42.2249 203.684 42.2249 202.964C42.2249 202.24 42.0769 201.676 41.7809 201.272C41.4849 200.868 41.0369 200.666 40.4369 200.666C40.1329 200.666 39.8669 200.718 39.6389 200.822C39.4149 200.926 39.2269 201.076 39.0749 201.272C38.9269 201.468 38.8149 201.71 38.7389 201.998C38.6669 202.282 38.6309 202.604 38.6309 202.964C38.6309 203.684 38.7789 204.246 39.0749 204.65C39.3749 205.05 39.8289 205.25 40.4369 205.25ZM47.5575 204.536C47.7535 204.8 47.9675 204.986 48.1995 205.094C48.4315 205.202 48.6915 205.256 48.9795 205.256C49.5475 205.256 49.9835 205.054 50.2875 204.65C50.5915 204.246 50.7435 203.67 50.7435 202.922C50.7435 202.526 50.7075 202.186 50.6355 201.902C50.5675 201.618 50.4675 201.386 50.3355 201.206C50.2035 201.022 50.0415 200.888 49.8495 200.804C49.6575 200.72 49.4395 200.678 49.1955 200.678C48.8475 200.678 48.5415 200.758 48.2775 200.918C48.0175 201.078 47.7775 201.304 47.5575 201.596V204.536ZM47.5035 200.864C47.7595 200.548 48.0555 200.294 48.3915 200.102C48.7275 199.91 49.1115 199.814 49.5435 199.814C49.8955 199.814 50.2135 199.882 50.4975 200.018C50.7815 200.15 51.0235 200.348 51.2235 200.612C51.4235 200.872 51.5775 201.196 51.6855 201.584C51.7935 201.972 51.8475 202.418 51.8475 202.922C51.8475 203.37 51.7875 203.788 51.6675 204.176C51.5475 204.56 51.3735 204.894 51.1455 205.178C50.9215 205.458 50.6455 205.68 50.3175 205.844C49.9935 206.004 49.6275 206.084 49.2195 206.084C48.8475 206.084 48.5275 206.022 48.2595 205.898C47.9955 205.77 47.7615 205.594 47.5575 205.37V208.058H46.4835V199.922H47.1255C47.2775 199.922 47.3715 199.996 47.4075 200.144L47.5035 200.864ZM59.0781 202.298C59.0781 202.05 59.0421 201.824 58.9701 201.62C58.9021 201.412 58.8001 201.234 58.6641 201.086C58.5321 200.934 58.3701 200.818 58.1781 200.738C57.9861 200.654 57.7681 200.612 57.5241 200.612C57.0121 200.612 56.6061 200.762 56.3061 201.062C56.0101 201.358 55.8261 201.77 55.7541 202.298H59.0781ZM59.9421 205.148C59.8101 205.308 59.6521 205.448 59.4681 205.568C59.2841 205.684 59.0861 205.78 58.8741 205.856C58.6661 205.932 58.4501 205.988 58.2261 206.024C58.0021 206.064 57.7801 206.084 57.5601 206.084C57.1401 206.084 56.7521 206.014 56.3961 205.874C56.0441 205.73 55.7381 205.522 55.4781 205.25C55.2221 204.974 55.0221 204.634 54.8781 204.23C54.7341 203.826 54.6621 203.362 54.6621 202.838C54.6621 202.414 54.7261 202.018 54.8541 201.65C54.9861 201.282 55.1741 200.964 55.4181 200.696C55.6621 200.424 55.9601 200.212 56.3121 200.06C56.6641 199.904 57.0601 199.826 57.5001 199.826C57.8641 199.826 58.2001 199.888 58.5081 200.012C58.8201 200.132 59.0881 200.308 59.3121 200.54C59.5401 200.768 59.7181 201.052 59.8461 201.392C59.9741 201.728 60.0381 202.112 60.0381 202.544C60.0381 202.712 60.0201 202.824 59.9841 202.88C59.9481 202.936 59.8801 202.964 59.7801 202.964H55.7181C55.7301 203.348 55.7821 203.682 55.8741 203.966C55.9701 204.25 56.1021 204.488 56.2701 204.68C56.4381 204.868 56.6381 205.01 56.8701 205.106C57.1021 205.198 57.3621 205.244 57.6501 205.244C57.9181 205.244 58.1481 205.214 58.3401 205.154C58.5361 205.09 58.7041 205.022 58.8441 204.95C58.9841 204.878 59.1001 204.812 59.1921 204.752C59.2881 204.688 59.3701 204.656 59.4381 204.656C59.5261 204.656 59.5941 204.69 59.6421 204.758L59.9421 205.148ZM63.7379 206.126C63.6859 206.266 63.6039 206.37 63.4919 206.438C63.3839 206.506 63.2719 206.54 63.1559 206.54H62.7059L66.3119 197.558C66.3599 197.43 66.4319 197.332 66.5279 197.264C66.6279 197.196 66.7419 197.162 66.8699 197.162H67.3259L63.7379 206.126ZM82.464 197.402V206H81.882C81.79 206 81.712 205.984 81.648 205.952C81.588 205.92 81.528 205.866 81.468 205.79L76.494 199.31C76.502 199.41 76.508 199.508 76.512 199.604C76.516 199.7 76.518 199.79 76.518 199.874V206H75.498V197.402H76.098C76.15 197.402 76.194 197.406 76.23 197.414C76.266 197.418 76.298 197.428 76.326 197.444C76.354 197.456 76.382 197.476 76.41 197.504C76.438 197.528 76.468 197.56 76.5 197.6L81.474 204.074C81.466 203.97 81.458 203.87 81.45 203.774C81.446 203.674 81.444 203.58 81.444 203.492V197.402H82.464ZM86.0301 205.34C86.0301 205.236 86.0481 205.138 86.0841 205.046C86.1241 204.954 86.1761 204.874 86.2401 204.806C86.3081 204.738 86.3881 204.684 86.4801 204.644C86.5721 204.604 86.6701 204.584 86.7741 204.584C86.8781 204.584 86.9761 204.604 87.0681 204.644C87.1601 204.684 87.2401 204.738 87.3081 204.806C87.3761 204.874 87.4301 204.954 87.4701 205.046C87.5101 205.138 87.5301 205.236 87.5301 205.34C87.5301 205.448 87.5101 205.548 87.4701 205.64C87.4301 205.728 87.3761 205.806 87.3081 205.874C87.2401 205.942 87.1601 205.994 87.0681 206.03C86.9761 206.07 86.8781 206.09 86.7741 206.09C86.6701 206.09 86.5721 206.07 86.4801 206.03C86.3881 205.994 86.3081 205.942 86.2401 205.874C86.1761 205.806 86.1241 205.728 86.0841 205.64C86.0481 205.548 86.0301 205.448 86.0301 205.34ZM41.6101 216.808L40.2601 213.31C40.2201 213.206 40.1781 213.086 40.1341 212.95C40.0901 212.81 40.0481 212.662 40.0081 212.506C39.9241 212.83 39.8381 213.1 39.7501 213.316L38.4001 216.808H41.6101ZM44.0341 220H43.1341C43.0301 220 42.9461 219.974 42.8821 219.922C42.8181 219.87 42.7701 219.804 42.7381 219.724L41.9341 217.648H38.0761L37.2721 219.724C37.2481 219.796 37.2021 219.86 37.1341 219.916C37.0661 219.972 36.9821 220 36.8821 220H35.9821L39.4201 211.402H40.5961L44.0341 220ZM46.6898 220V213.922H47.3318C47.4838 213.922 47.5778 213.996 47.6138 214.144L47.6918 214.768C47.9158 214.492 48.1678 214.266 48.4478 214.09C48.7278 213.914 49.0518 213.826 49.4198 213.826C49.8278 213.826 50.1578 213.94 50.4098 214.168C50.6658 214.396 50.8498 214.704 50.9618 215.092C51.0498 214.872 51.1618 214.682 51.2978 214.522C51.4378 214.362 51.5938 214.23 51.7658 214.126C51.9378 214.022 52.1198 213.946 52.3118 213.898C52.5078 213.85 52.7058 213.826 52.9058 213.826C53.2258 213.826 53.5098 213.878 53.7578 213.982C54.0098 214.082 54.2218 214.23 54.3938 214.426C54.5698 214.622 54.7038 214.864 54.7958 215.152C54.8878 215.436 54.9338 215.762 54.9338 216.13V220H53.8598V216.13C53.8598 215.654 53.7558 215.294 53.5478 215.05C53.3398 214.802 53.0398 214.678 52.6478 214.678C52.4718 214.678 52.3038 214.71 52.1438 214.774C51.9878 214.834 51.8498 214.924 51.7298 215.044C51.6098 215.164 51.5138 215.316 51.4418 215.5C51.3738 215.68 51.3398 215.89 51.3398 216.13V220H50.2658V216.13C50.2658 215.642 50.1678 215.278 49.9718 215.038C49.7758 214.798 49.4898 214.678 49.1138 214.678C48.8498 214.678 48.6058 214.75 48.3818 214.894C48.1578 215.034 47.9518 215.226 47.7638 215.47V220H46.6898ZM62.4249 216.298C62.4249 216.05 62.3889 215.824 62.3169 215.62C62.2489 215.412 62.1469 215.234 62.0109 215.086C61.8789 214.934 61.7169 214.818 61.5249 214.738C61.3329 214.654 61.1149 214.612 60.8709 214.612C60.3589 214.612 59.9529 214.762 59.6529 215.062C59.3569 215.358 59.1729 215.77 59.1009 216.298H62.4249ZM63.2889 219.148C63.1569 219.308 62.9989 219.448 62.8149 219.568C62.6309 219.684 62.4329 219.78 62.2209 219.856C62.0129 219.932 61.7969 219.988 61.5729 220.024C61.3489 220.064 61.1269 220.084 60.9069 220.084C60.4869 220.084 60.0989 220.014 59.7429 219.874C59.3909 219.73 59.0849 219.522 58.8249 219.25C58.5689 218.974 58.3689 218.634 58.2249 218.23C58.0809 217.826 58.0089 217.362 58.0089 216.838C58.0089 216.414 58.0729 216.018 58.2009 215.65C58.3329 215.282 58.5209 214.964 58.7649 214.696C59.0089 214.424 59.3069 214.212 59.6589 214.06C60.0109 213.904 60.4069 213.826 60.8469 213.826C61.2109 213.826 61.5469 213.888 61.8549 214.012C62.1669 214.132 62.4349 214.308 62.6589 214.54C62.8869 214.768 63.0649 215.052 63.1929 215.392C63.3209 215.728 63.3849 216.112 63.3849 216.544C63.3849 216.712 63.3669 216.824 63.3309 216.88C63.2949 216.936 63.2269 216.964 63.1269 216.964H59.0649C59.0769 217.348 59.1289 217.682 59.2209 217.966C59.3169 218.25 59.4489 218.488 59.6169 218.68C59.7849 218.868 59.9849 219.01 60.2169 219.106C60.4489 219.198 60.7089 219.244 60.9969 219.244C61.2649 219.244 61.4949 219.214 61.6869 219.154C61.8829 219.09 62.0509 219.022 62.1909 218.95C62.3309 218.878 62.4469 218.812 62.5389 218.752C62.6349 218.688 62.7169 218.656 62.7849 218.656C62.8729 218.656 62.9409 218.69 62.9889 218.758L63.2889 219.148ZM67.5108 215.14C67.7028 214.724 67.9388 214.4 68.2188 214.168C68.4988 213.932 68.8408 213.814 69.2448 213.814C69.3728 213.814 69.4948 213.828 69.6108 213.856C69.7308 213.884 69.8368 213.928 69.9288 213.988L69.8508 214.786C69.8268 214.886 69.7668 214.936 69.6708 214.936C69.6148 214.936 69.5328 214.924 69.4248 214.9C69.3168 214.876 69.1948 214.864 69.0588 214.864C68.8668 214.864 68.6948 214.892 68.5428 214.948C68.3948 215.004 68.2608 215.088 68.1408 215.2C68.0248 215.308 67.9188 215.444 67.8228 215.608C67.7308 215.768 67.6468 215.952 67.5708 216.16V220H66.4968V213.922H67.1088C67.2248 213.922 67.3048 213.944 67.3488 213.988C67.3928 214.032 67.4228 214.108 67.4388 214.216L67.5108 215.14ZM73.7959 213.922V220H72.7279V213.922H73.7959ZM74.0239 212.014C74.0239 212.118 74.0019 212.216 73.9579 212.308C73.9179 212.396 73.8619 212.476 73.7899 212.548C73.7219 212.616 73.6399 212.67 73.5439 212.71C73.4519 212.75 73.3539 212.77 73.2499 212.77C73.1459 212.77 73.0479 212.75 72.9559 212.71C72.8679 212.67 72.7899 212.616 72.7219 212.548C72.6539 212.476 72.5999 212.396 72.5599 212.308C72.5199 212.216 72.4999 212.118 72.4999 212.014C72.4999 211.91 72.5199 211.812 72.5599 211.72C72.5999 211.624 72.6539 211.542 72.7219 211.474C72.7899 211.402 72.8679 211.346 72.9559 211.306C73.0479 211.266 73.1459 211.246 73.2499 211.246C73.3539 211.246 73.4519 211.266 73.5439 211.306C73.6399 211.346 73.7219 211.402 73.7899 211.474C73.8619 211.542 73.9179 211.624 73.9579 211.72C74.0019 211.812 74.0239 211.91 74.0239 212.014ZM81.5807 215.002C81.5487 215.046 81.5167 215.08 81.4847 215.104C81.4527 215.128 81.4087 215.14 81.3527 215.14C81.2927 215.14 81.2267 215.116 81.1547 215.068C81.0827 215.016 80.9927 214.96 80.8847 214.9C80.7807 214.84 80.6507 214.786 80.4947 214.738C80.3427 214.686 80.1547 214.66 79.9307 214.66C79.6307 214.66 79.3667 214.714 79.1387 214.822C78.9107 214.926 78.7187 215.078 78.5627 215.278C78.4107 215.478 78.2947 215.72 78.2147 216.004C78.1387 216.288 78.1007 216.606 78.1007 216.958C78.1007 217.326 78.1427 217.654 78.2267 217.942C78.3107 218.226 78.4287 218.466 78.5807 218.662C78.7367 218.854 78.9227 219.002 79.1387 219.106C79.3587 219.206 79.6047 219.256 79.8767 219.256C80.1367 219.256 80.3507 219.226 80.5187 219.166C80.6867 219.102 80.8247 219.032 80.9327 218.956C81.0447 218.88 81.1367 218.812 81.2087 218.752C81.2847 218.688 81.3587 218.656 81.4307 218.656C81.5187 218.656 81.5867 218.69 81.6347 218.758L81.9347 219.148C81.8027 219.312 81.6527 219.452 81.4847 219.568C81.3167 219.684 81.1347 219.782 80.9387 219.862C80.7467 219.938 80.5447 219.994 80.3327 220.03C80.1207 220.066 79.9047 220.084 79.6847 220.084C79.3047 220.084 78.9507 220.014 78.6227 219.874C78.2987 219.734 78.0167 219.532 77.7767 219.268C77.5367 219 77.3487 218.672 77.2127 218.284C77.0767 217.896 77.0087 217.454 77.0087 216.958C77.0087 216.506 77.0707 216.088 77.1947 215.704C77.3227 215.32 77.5067 214.99 77.7467 214.714C77.9907 214.434 78.2887 214.216 78.6407 214.06C78.9967 213.904 79.4047 213.826 79.8647 213.826C80.2927 213.826 80.6687 213.896 80.9927 214.036C81.3207 214.172 81.6107 214.366 81.8627 214.618L81.5807 215.002ZM88.1752 217.264C87.6832 217.28 87.2632 217.32 86.9152 217.384C86.5712 217.444 86.2892 217.524 86.0692 217.624C85.8532 217.724 85.6952 217.842 85.5952 217.978C85.4992 218.114 85.4512 218.266 85.4512 218.434C85.4512 218.594 85.4772 218.732 85.5292 218.848C85.5812 218.964 85.6512 219.06 85.7392 219.136C85.8312 219.208 85.9372 219.262 86.0572 219.298C86.1812 219.33 86.3132 219.346 86.4532 219.346C86.6412 219.346 86.8132 219.328 86.9692 219.292C87.1252 219.252 87.2712 219.196 87.4072 219.124C87.5472 219.052 87.6792 218.966 87.8032 218.866C87.9312 218.766 88.0552 218.652 88.1752 218.524V217.264ZM84.7252 214.78C85.0612 214.456 85.4232 214.214 85.8112 214.054C86.1992 213.894 86.6292 213.814 87.1012 213.814C87.4412 213.814 87.7432 213.87 88.0072 213.982C88.2712 214.094 88.4932 214.25 88.6732 214.45C88.8532 214.65 88.9892 214.892 89.0812 215.176C89.1732 215.46 89.2192 215.772 89.2192 216.112V220H88.7452C88.6412 220 88.5612 219.984 88.5052 219.952C88.4492 219.916 88.4052 219.848 88.3732 219.748L88.2532 219.172C88.0932 219.32 87.9372 219.452 87.7852 219.568C87.6332 219.68 87.4732 219.776 87.3052 219.856C87.1372 219.932 86.9572 219.99 86.7652 220.03C86.5772 220.074 86.3672 220.096 86.1352 220.096C85.8992 220.096 85.6772 220.064 85.4692 220C85.2612 219.932 85.0792 219.832 84.9232 219.7C84.7712 219.568 84.6492 219.402 84.5572 219.202C84.4692 218.998 84.4252 218.758 84.4252 218.482C84.4252 218.242 84.4912 218.012 84.6232 217.792C84.7552 217.568 84.9692 217.37 85.2652 217.198C85.5612 217.026 85.9472 216.886 86.4232 216.778C86.8992 216.666 87.4832 216.602 88.1752 216.586V216.112C88.1752 215.64 88.0732 215.284 87.8692 215.044C87.6652 214.8 87.3672 214.678 86.9752 214.678C86.7112 214.678 86.4892 214.712 86.3092 214.78C86.1332 214.844 85.9792 214.918 85.8472 215.002C85.7192 215.082 85.6072 215.156 85.5112 215.224C85.4192 215.288 85.3272 215.32 85.2352 215.32C85.1632 215.32 85.1012 215.302 85.0492 215.266C84.9972 215.226 84.9532 215.178 84.9172 215.122L84.7252 214.78Z" fill="#220606"/>
<path d="M126.104 206.808L124.754 203.31C124.714 203.206 124.672 203.086 124.628 202.95C124.584 202.81 124.542 202.662 124.502 202.506C124.418 202.83 124.332 203.1 124.244 203.316L122.894 206.808H126.104ZM128.528 210H127.628C127.524 210 127.44 209.974 127.376 209.922C127.312 209.87 127.264 209.804 127.232 209.724L126.428 207.648H122.57L121.766 209.724C121.742 209.796 121.696 209.86 121.628 209.916C121.56 209.972 121.476 210 121.376 210H120.476L123.914 201.402H125.09L128.528 210ZM134.747 204.924C134.699 205.012 134.625 205.056 134.525 205.056C134.465 205.056 134.397 205.034 134.321 204.99C134.245 204.946 134.151 204.898 134.039 204.846C133.931 204.79 133.801 204.74 133.649 204.696C133.497 204.648 133.317 204.624 133.109 204.624C132.929 204.624 132.767 204.648 132.623 204.696C132.479 204.74 132.355 204.802 132.251 204.882C132.151 204.962 132.073 205.056 132.017 205.164C131.965 205.268 131.939 205.382 131.939 205.506C131.939 205.662 131.983 205.792 132.071 205.896C132.163 206 132.283 206.09 132.431 206.166C132.579 206.242 132.747 206.31 132.935 206.37C133.123 206.426 133.315 206.488 133.511 206.556C133.711 206.62 133.905 206.692 134.093 206.772C134.281 206.852 134.449 206.952 134.597 207.072C134.745 207.192 134.863 207.34 134.951 207.516C135.043 207.688 135.089 207.896 135.089 208.14C135.089 208.42 135.039 208.68 134.939 208.92C134.839 209.156 134.691 209.362 134.495 209.538C134.299 209.71 134.059 209.846 133.775 209.946C133.491 210.046 133.163 210.096 132.791 210.096C132.367 210.096 131.983 210.028 131.639 209.892C131.295 209.752 131.003 209.574 130.763 209.358L131.015 208.95C131.047 208.898 131.085 208.858 131.129 208.83C131.173 208.802 131.229 208.788 131.297 208.788C131.369 208.788 131.445 208.816 131.525 208.872C131.605 208.928 131.701 208.99 131.813 209.058C131.929 209.126 132.069 209.188 132.233 209.244C132.397 209.3 132.601 209.328 132.845 209.328C133.053 209.328 133.235 209.302 133.391 209.25C133.547 209.194 133.677 209.12 133.781 209.028C133.885 208.936 133.961 208.83 134.009 208.71C134.061 208.59 134.087 208.462 134.087 208.326C134.087 208.158 134.041 208.02 133.949 207.912C133.861 207.8 133.743 207.706 133.595 207.63C133.447 207.55 133.277 207.482 133.085 207.426C132.897 207.366 132.703 207.304 132.503 207.24C132.307 207.176 132.113 207.104 131.921 207.024C131.733 206.94 131.565 206.836 131.417 206.712C131.269 206.588 131.149 206.436 131.057 206.256C130.969 206.072 130.925 205.85 130.925 205.59C130.925 205.358 130.973 205.136 131.069 204.924C131.165 204.708 131.305 204.52 131.489 204.36C131.673 204.196 131.899 204.066 132.167 203.97C132.435 203.874 132.741 203.826 133.085 203.826C133.485 203.826 133.843 203.89 134.159 204.018C134.479 204.142 134.755 204.314 134.987 204.534L134.747 204.924ZM139.326 203.922V210H138.258V203.922H139.326ZM139.554 202.014C139.554 202.118 139.532 202.216 139.488 202.308C139.448 202.396 139.392 202.476 139.32 202.548C139.252 202.616 139.17 202.67 139.074 202.71C138.982 202.75 138.884 202.77 138.78 202.77C138.676 202.77 138.578 202.75 138.486 202.71C138.398 202.67 138.32 202.616 138.252 202.548C138.184 202.476 138.13 202.396 138.09 202.308C138.05 202.216 138.03 202.118 138.03 202.014C138.03 201.91 138.05 201.812 138.09 201.72C138.13 201.624 138.184 201.542 138.252 201.474C138.32 201.402 138.398 201.346 138.486 201.306C138.578 201.266 138.676 201.246 138.78 201.246C138.884 201.246 138.982 201.266 139.074 201.306C139.17 201.346 139.252 201.402 139.32 201.474C139.392 201.542 139.448 201.624 139.488 201.72C139.532 201.812 139.554 201.91 139.554 202.014ZM146.175 207.264C145.683 207.28 145.263 207.32 144.915 207.384C144.571 207.444 144.289 207.524 144.069 207.624C143.853 207.724 143.695 207.842 143.595 207.978C143.499 208.114 143.451 208.266 143.451 208.434C143.451 208.594 143.477 208.732 143.529 208.848C143.581 208.964 143.651 209.06 143.739 209.136C143.831 209.208 143.937 209.262 144.057 209.298C144.181 209.33 144.313 209.346 144.453 209.346C144.641 209.346 144.813 209.328 144.969 209.292C145.125 209.252 145.271 209.196 145.407 209.124C145.547 209.052 145.679 208.966 145.803 208.866C145.931 208.766 146.055 208.652 146.175 208.524V207.264ZM142.725 204.78C143.061 204.456 143.423 204.214 143.811 204.054C144.199 203.894 144.629 203.814 145.101 203.814C145.441 203.814 145.743 203.87 146.007 203.982C146.271 204.094 146.493 204.25 146.673 204.45C146.853 204.65 146.989 204.892 147.081 205.176C147.173 205.46 147.219 205.772 147.219 206.112V210H146.745C146.641 210 146.561 209.984 146.505 209.952C146.449 209.916 146.405 209.848 146.373 209.748L146.253 209.172C146.093 209.32 145.937 209.452 145.785 209.568C145.633 209.68 145.473 209.776 145.305 209.856C145.137 209.932 144.957 209.99 144.765 210.03C144.577 210.074 144.367 210.096 144.135 210.096C143.899 210.096 143.677 210.064 143.469 210C143.261 209.932 143.079 209.832 142.923 209.7C142.771 209.568 142.649 209.402 142.557 209.202C142.469 208.998 142.425 208.758 142.425 208.482C142.425 208.242 142.491 208.012 142.623 207.792C142.755 207.568 142.969 207.37 143.265 207.198C143.561 207.026 143.947 206.886 144.423 206.778C144.899 206.666 145.483 206.602 146.175 206.586V206.112C146.175 205.64 146.073 205.284 145.869 205.044C145.665 204.8 145.367 204.678 144.975 204.678C144.711 204.678 144.489 204.712 144.309 204.78C144.133 204.844 143.979 204.918 143.847 205.002C143.719 205.082 143.607 205.156 143.511 205.224C143.419 205.288 143.327 205.32 143.235 205.32C143.163 205.32 143.101 205.302 143.049 205.266C142.997 205.226 142.953 205.178 142.917 205.122L142.725 204.78Z" fill="#1B0A0A"/>
<path d="M33.6302 10.79L33.1302 11.41C33.4102 11.27 33.7102 11.1633 34.0302 11.09C34.3568 11.01 34.7068 10.97 35.0802 10.97C35.6268 10.97 36.1568 11.06 36.6702 11.24C37.1902 11.42 37.6468 11.6933 38.0402 12.06C38.4335 12.42 38.7502 12.87 38.9902 13.41C39.2302 13.95 39.3502 14.58 39.3502 15.3C39.3502 15.9733 39.2268 16.6067 38.9802 17.2C38.7335 17.7867 38.3868 18.3 37.9402 18.74C37.4935 19.18 36.9535 19.5267 36.3202 19.78C35.6935 20.0333 35.0002 20.16 34.2402 20.16C33.4668 20.16 32.7735 20.0367 32.1602 19.79C31.5468 19.5433 31.0235 19.2 30.5902 18.76C30.1568 18.3133 29.8235 17.78 29.5902 17.16C29.3635 16.5333 29.2502 15.84 29.2502 15.08C29.2502 14.4 29.3868 13.7033 29.6602 12.99C29.9402 12.27 30.3702 11.5233 30.9502 10.75L34.4002 6.12C34.5202 5.96 34.6935 5.82333 34.9202 5.71C35.1535 5.59667 35.4202 5.54 35.7202 5.54H37.9202L33.6302 10.79ZM34.1902 18.14C34.5835 18.14 34.9435 18.0733 35.2702 17.94C35.6035 17.8067 35.8868 17.62 36.1202 17.38C36.3602 17.14 36.5468 16.86 36.6802 16.54C36.8135 16.2133 36.8802 15.86 36.8802 15.48C36.8802 15.0667 36.8168 14.6967 36.6902 14.37C36.5635 14.0367 36.3835 13.7567 36.1502 13.53C35.9168 13.2967 35.6368 13.12 35.3102 13C34.9835 12.88 34.6235 12.82 34.2302 12.82C33.8368 12.82 33.4802 12.8867 33.1602 13.02C32.8402 13.1533 32.5668 13.34 32.3402 13.58C32.1135 13.8133 31.9368 14.0933 31.8102 14.42C31.6835 14.74 31.6202 15.0867 31.6202 15.46C31.6202 15.86 31.6735 16.2267 31.7802 16.56C31.8935 16.8867 32.0568 17.1667 32.2702 17.4C32.4902 17.6333 32.7602 17.8167 33.0802 17.95C33.4002 18.0767 33.7702 18.14 34.1902 18.14ZM53.3617 18.15V20H45.3617V18.15H48.2917V9.72C48.2917 9.38667 48.3017 9.04333 48.3217 8.69L46.2417 10.43C46.1217 10.5233 46.0017 10.5833 45.8817 10.61C45.7684 10.63 45.6584 10.63 45.5517 10.61C45.4517 10.59 45.3617 10.5567 45.2817 10.51C45.2017 10.4567 45.1417 10.4 45.1017 10.34L44.3217 9.27L48.7317 5.52H50.7617V18.15H53.3617ZM65.0633 9.04C65.0633 9.58667 64.9699 10.08 64.7833 10.52C64.6033 10.96 64.3599 11.3367 64.0533 11.65C63.7466 11.9567 63.3899 12.1933 62.9833 12.36C62.5766 12.5267 62.1533 12.61 61.7133 12.61C61.2333 12.61 60.7899 12.5267 60.3833 12.36C59.9766 12.1933 59.6233 11.9567 59.3233 11.65C59.0299 11.3367 58.7999 10.96 58.6333 10.52C58.4666 10.08 58.3833 9.58667 58.3833 9.04C58.3833 8.48 58.4666 7.97333 58.6333 7.52C58.7999 7.06667 59.0299 6.68333 59.3233 6.37C59.6233 6.05667 59.9766 5.81667 60.3833 5.65C60.7899 5.47667 61.2333 5.39 61.7133 5.39C62.1933 5.39 62.6366 5.47667 63.0433 5.65C63.4566 5.81667 63.8133 6.05667 64.1133 6.37C64.4133 6.68333 64.6466 7.06667 64.8133 7.52C64.9799 7.97333 65.0633 8.48 65.0633 9.04ZM63.1633 9.04C63.1633 8.65333 63.1233 8.33 63.0433 8.07C62.9699 7.81 62.8666 7.6 62.7333 7.44C62.6066 7.28 62.4533 7.16667 62.2733 7.1C62.0999 7.02667 61.9133 6.99 61.7133 6.99C61.5133 6.99 61.3266 7.02667 61.1533 7.1C60.9799 7.16667 60.8299 7.28 60.7033 7.44C60.5833 7.6 60.4866 7.81 60.4133 8.07C60.3399 8.33 60.3033 8.65333 60.3033 9.04C60.3033 9.41333 60.3399 9.72667 60.4133 9.98C60.4866 10.2267 60.5833 10.4267 60.7033 10.58C60.8299 10.7333 60.9799 10.8433 61.1533 10.91C61.3266 10.9767 61.5133 11.01 61.7133 11.01C61.9133 11.01 62.0999 10.9767 62.2733 10.91C62.4533 10.8433 62.6066 10.7333 62.7333 10.58C62.8666 10.4267 62.9699 10.2267 63.0433 9.98C63.1233 9.72667 63.1633 9.41333 63.1633 9.04ZM69.8733 5.93C69.9599 5.83 70.0599 5.74 70.1733 5.66C70.2933 5.58 70.4599 5.54 70.6733 5.54H72.4733L61.7333 19.63C61.6466 19.7367 61.5433 19.8267 61.4233 19.9C61.3033 19.9667 61.1566 20 60.9833 20H59.1433L69.8733 5.93ZM73.2333 16.6C73.2333 17.1467 73.1399 17.64 72.9533 18.08C72.7733 18.52 72.5299 18.8967 72.2233 19.21C71.9166 19.5167 71.5599 19.7567 71.1533 19.93C70.7466 20.0967 70.3233 20.18 69.8833 20.18C69.4033 20.18 68.9599 20.0967 68.5533 19.93C68.1466 19.7567 67.7933 19.5167 67.4933 19.21C67.1999 18.8967 66.9699 18.52 66.8033 18.08C66.6366 17.64 66.5533 17.1467 66.5533 16.6C66.5533 16.04 66.6366 15.5333 66.8033 15.08C66.9699 14.6267 67.1999 14.2433 67.4933 13.93C67.7933 13.6167 68.1466 13.3767 68.5533 13.21C68.9599 13.0367 69.4033 12.95 69.8833 12.95C70.3633 12.95 70.8066 13.0367 71.2133 13.21C71.6266 13.3767 71.9799 13.6167 72.2733 13.93C72.5733 14.2433 72.8066 14.6267 72.9733 15.08C73.1466 15.5333 73.2333 16.04 73.2333 16.6ZM71.3233 16.6C71.3233 16.2133 71.2866 15.89 71.2133 15.63C71.1399 15.37 71.0366 15.16 70.9033 15C70.7766 14.84 70.6233 14.7267 70.4433 14.66C70.2699 14.5867 70.0833 14.55 69.8833 14.55C69.6833 14.55 69.4966 14.5867 69.3233 14.66C69.1499 14.7267 68.9999 14.84 68.8733 15C68.7466 15.16 68.6466 15.37 68.5733 15.63C68.5066 15.89 68.4733 16.2133 68.4733 16.6C68.4733 16.9733 68.5066 17.2867 68.5733 17.54C68.6466 17.7933 68.7466 17.9967 68.8733 18.15C68.9999 18.3033 69.1499 18.4133 69.3233 18.48C69.4966 18.5467 69.6833 18.58 69.8833 18.58C70.0833 18.58 70.2699 18.5467 70.4433 18.48C70.6233 18.4133 70.7766 18.3033 70.9033 18.15C71.0366 17.9967 71.1399 17.7933 71.2133 17.54C71.2866 17.2867 71.3233 16.9733 71.3233 16.6Z" fill="black"/>
</svg>
