<svg width="229" height="218" viewBox="0 0 229 218" fill="none" xmlns="http://www.w3.org/2000/svg">
<g clip-path="url(#clip0_255_2481)">
<rect width="229" height="218" fill="white"/>
<path d="M204.707 174.707C205.098 174.317 205.098 173.683 204.707 173.293L198.343 166.929C197.953 166.538 197.319 166.538 196.929 166.929C196.538 167.319 196.538 167.953 196.929 168.343L202.586 174L196.929 179.657C196.538 180.047 196.538 180.681 196.929 181.071C197.319 181.462 197.953 181.462 198.343 181.071L204.707 174.707ZM23 174V175H204V174V173H23V174Z" fill="black"/>
<path d="M23.7071 22.2929C23.3166 21.9024 22.6834 21.9024 22.2929 22.2929L15.9289 28.6569C15.5384 29.0474 15.5384 29.6805 15.9289 30.0711C16.3195 30.4616 16.9526 30.4616 17.3431 30.0711L23 24.4142L28.6569 30.0711C29.0474 30.4616 29.6805 30.4616 30.0711 30.0711C30.4616 29.6805 30.4616 29.0474 30.0711 28.6569L23.7071 22.2929ZM23 197H24L24 23H23H22L22 197H23Z" fill="black"/>
<path d="M22.2929 224.707C22.6834 225.098 23.3166 225.098 23.7071 224.707L30.0711 218.343C30.4616 217.953 30.4616 217.319 30.0711 216.929C29.6805 216.538 29.0474 216.538 28.6569 216.929L23 222.586L17.3431 216.929C16.9526 216.538 16.3195 216.538 15.9289 216.929C15.5384 217.319 15.5384 217.953 15.9289 218.343L22.2929 224.707ZM23 197H22V224H23H24V197H23Z" fill="black"/>
<path d="M24.5 176.5L30.347 181.634C39.7917 189.927 51.9311 194.5 64.5 194.5V194.5V194.5C87.8211 194.5 108.257 178.891 114.393 156.392L123.5 123L127.448 95.8225C132.334 62.1821 164.791 39.7953 197.973 47.1787V47.1787" stroke="#191353"/>
<path d="M77.912 13.38H75.128V21H73.97V13.38H71.18V12.402H77.912V13.38ZM83.1369 14.922L79.7469 22.794C79.7109 22.874 79.6649 22.938 79.6089 22.986C79.5569 23.034 79.4749 23.058 79.3629 23.058H78.5709L79.6809 20.646L77.1729 14.922H78.0969C78.1889 14.922 78.2609 14.946 78.3129 14.994C78.3689 15.038 78.4069 15.088 78.4269 15.144L80.0529 18.972C80.1169 19.14 80.1709 19.316 80.2149 19.5C80.2709 19.312 80.3309 19.134 80.3949 18.966L81.9729 15.144C81.9969 15.08 82.0369 15.028 82.0929 14.988C82.1529 14.944 82.2189 14.922 82.2909 14.922H83.1369ZM85.1544 19.536C85.3504 19.8 85.5644 19.986 85.7964 20.094C86.0284 20.202 86.2884 20.256 86.5764 20.256C87.1444 20.256 87.5804 20.054 87.8844 19.65C88.1884 19.246 88.3404 18.67 88.3404 17.922C88.3404 17.526 88.3044 17.186 88.2324 16.902C88.1644 16.618 88.0644 16.386 87.9324 16.206C87.8004 16.022 87.6384 15.888 87.4464 15.804C87.2544 15.72 87.0364 15.678 86.7924 15.678C86.4444 15.678 86.1384 15.758 85.8744 15.918C85.6144 16.078 85.3744 16.304 85.1544 16.596V19.536ZM85.1004 15.864C85.3564 15.548 85.6524 15.294 85.9884 15.102C86.3244 14.91 86.7084 14.814 87.1404 14.814C87.4924 14.814 87.8104 14.882 88.0944 15.018C88.3784 15.15 88.6204 15.348 88.8204 15.612C89.0204 15.872 89.1744 16.196 89.2824 16.584C89.3904 16.972 89.4444 17.418 89.4444 17.922C89.4444 18.37 89.3844 18.788 89.2644 19.176C89.1444 19.56 88.9704 19.894 88.7424 20.178C88.5184 20.458 88.2424 20.68 87.9144 20.844C87.5904 21.004 87.2244 21.084 86.8164 21.084C86.4444 21.084 86.1244 21.022 85.8564 20.898C85.5924 20.77 85.3584 20.594 85.1544 20.37V23.058H84.0804V14.922H84.7224C84.8744 14.922 84.9684 14.996 85.0044 15.144L85.1004 15.864ZM91.9349 14.922V21H90.8669V14.922H91.9349ZM92.1629 13.014C92.1629 13.118 92.1409 13.216 92.0969 13.308C92.0569 13.396 92.0009 13.476 91.9289 13.548C91.8609 13.616 91.7789 13.67 91.6829 13.71C91.5909 13.75 91.4929 13.77 91.3889 13.77C91.2849 13.77 91.1869 13.75 91.0949 13.71C91.0069 13.67 90.9289 13.616 90.8609 13.548C90.7929 13.476 90.7389 13.396 90.6989 13.308C90.6589 13.216 90.6389 13.118 90.6389 13.014C90.6389 12.91 90.6589 12.812 90.6989 12.72C90.7389 12.624 90.7929 12.542 90.8609 12.474C90.9289 12.402 91.0069 12.346 91.0949 12.306C91.1869 12.266 91.2849 12.246 91.3889 12.246C91.4929 12.246 91.5909 12.266 91.6829 12.306C91.7789 12.346 91.8609 12.402 91.9289 12.474C92.0009 12.542 92.0569 12.624 92.0969 12.72C92.1409 12.812 92.1629 12.91 92.1629 13.014ZM97.9198 16.002C97.8878 16.046 97.8558 16.08 97.8238 16.104C97.7918 16.128 97.7478 16.14 97.6918 16.14C97.6318 16.14 97.5658 16.116 97.4938 16.068C97.4218 16.016 97.3318 15.96 97.2238 15.9C97.1198 15.84 96.9898 15.786 96.8338 15.738C96.6818 15.686 96.4938 15.66 96.2698 15.66C95.9698 15.66 95.7058 15.714 95.4778 15.822C95.2498 15.926 95.0578 16.078 94.9018 16.278C94.7498 16.478 94.6338 16.72 94.5538 17.004C94.4778 17.288 94.4398 17.606 94.4398 17.958C94.4398 18.326 94.4818 18.654 94.5658 18.942C94.6498 19.226 94.7678 19.466 94.9198 19.662C95.0758 19.854 95.2618 20.002 95.4778 20.106C95.6978 20.206 95.9438 20.256 96.2158 20.256C96.4758 20.256 96.6898 20.226 96.8578 20.166C97.0258 20.102 97.1638 20.032 97.2718 19.956C97.3838 19.88 97.4758 19.812 97.5478 19.752C97.6238 19.688 97.6978 19.656 97.7698 19.656C97.8578 19.656 97.9258 19.69 97.9738 19.758L98.2738 20.148C98.1418 20.312 97.9918 20.452 97.8238 20.568C97.6558 20.684 97.4738 20.782 97.2778 20.862C97.0858 20.938 96.8838 20.994 96.6718 21.03C96.4598 21.066 96.2438 21.084 96.0238 21.084C95.6438 21.084 95.2898 21.014 94.9618 20.874C94.6378 20.734 94.3558 20.532 94.1158 20.268C93.8758 20 93.6878 19.672 93.5518 19.284C93.4158 18.896 93.3478 18.454 93.3478 17.958C93.3478 17.506 93.4098 17.088 93.5338 16.704C93.6618 16.32 93.8458 15.99 94.0858 15.714C94.3298 15.434 94.6278 15.216 94.9798 15.06C95.3358 14.904 95.7438 14.826 96.2038 14.826C96.6318 14.826 97.0078 14.896 97.3318 15.036C97.6598 15.172 97.9498 15.366 98.2018 15.618L97.9198 16.002ZM102.714 18.264C102.222 18.28 101.802 18.32 101.454 18.384C101.11 18.444 100.828 18.524 100.608 18.624C100.392 18.724 100.234 18.842 100.134 18.978C100.038 19.114 99.9902 19.266 99.9902 19.434C99.9902 19.594 100.016 19.732 100.068 19.848C100.12 19.964 100.19 20.06 100.278 20.136C100.37 20.208 100.476 20.262 100.596 20.298C100.72 20.33 100.852 20.346 100.992 20.346C101.18 20.346 101.352 20.328 101.508 20.292C101.664 20.252 101.81 20.196 101.946 20.124C102.086 20.052 102.218 19.966 102.342 19.866C102.47 19.766 102.594 19.652 102.714 19.524V18.264ZM99.2642 15.78C99.6002 15.456 99.9622 15.214 100.35 15.054C100.738 14.894 101.168 14.814 101.64 14.814C101.98 14.814 102.282 14.87 102.546 14.982C102.81 15.094 103.032 15.25 103.212 15.45C103.392 15.65 103.528 15.892 103.62 16.176C103.712 16.46 103.758 16.772 103.758 17.112V21H103.284C103.18 21 103.1 20.984 103.044 20.952C102.988 20.916 102.944 20.848 102.912 20.748L102.792 20.172C102.632 20.32 102.476 20.452 102.324 20.568C102.172 20.68 102.012 20.776 101.844 20.856C101.676 20.932 101.496 20.99 101.304 21.03C101.116 21.074 100.906 21.096 100.674 21.096C100.438 21.096 100.216 21.064 100.008 21C99.8002 20.932 99.6182 20.832 99.4622 20.7C99.3102 20.568 99.1882 20.402 99.0962 20.202C99.0082 19.998 98.9642 19.758 98.9642 19.482C98.9642 19.242 99.0302 19.012 99.1622 18.792C99.2942 18.568 99.5082 18.37 99.8042 18.198C100.1 18.026 100.486 17.886 100.962 17.778C101.438 17.666 102.022 17.602 102.714 17.586V17.112C102.714 16.64 102.612 16.284 102.408 16.044C102.204 15.8 101.906 15.678 101.514 15.678C101.25 15.678 101.028 15.712 100.848 15.78C100.672 15.844 100.518 15.918 100.386 16.002C100.258 16.082 100.146 16.156 100.05 16.224C99.9582 16.288 99.8662 16.32 99.7742 16.32C99.7022 16.32 99.6402 16.302 99.5882 16.266C99.5362 16.226 99.4922 16.178 99.4562 16.122L99.2642 15.78ZM106.489 12.162V21H105.421V12.162H106.489ZM114.156 18.03C114.156 18.51 114.096 18.94 113.976 19.32C113.86 19.7 113.686 20.022 113.454 20.286C113.226 20.546 112.944 20.746 112.608 20.886C112.272 21.026 111.886 21.096 111.45 21.096C111.054 21.096 110.65 21.04 110.238 20.928C110.246 20.812 110.256 20.698 110.268 20.586C110.28 20.47 110.29 20.356 110.298 20.244C110.306 20.176 110.33 20.122 110.37 20.082C110.414 20.038 110.48 20.016 110.568 20.016C110.64 20.016 110.734 20.034 110.85 20.07C110.97 20.106 111.13 20.124 111.33 20.124C111.594 20.124 111.83 20.084 112.038 20.004C112.246 19.924 112.42 19.8 112.56 19.632C112.7 19.464 112.806 19.25 112.878 18.99C112.954 18.726 112.992 18.414 112.992 18.054V12.402H114.156V18.03ZM115.918 16.95H118.882V17.856H115.918V16.95ZM126.755 19.224C126.819 19.224 126.875 19.25 126.923 19.302L127.385 19.8C127.033 20.208 126.605 20.526 126.101 20.754C125.601 20.982 124.995 21.096 124.283 21.096C123.667 21.096 123.107 20.99 122.603 20.778C122.099 20.562 121.669 20.262 121.313 19.878C120.957 19.49 120.681 19.026 120.485 18.486C120.289 17.946 120.191 17.352 120.191 16.704C120.191 16.056 120.293 15.462 120.497 14.922C120.701 14.382 120.987 13.918 121.355 13.53C121.727 13.142 122.171 12.842 122.687 12.63C123.203 12.414 123.773 12.306 124.397 12.306C125.009 12.306 125.549 12.404 126.017 12.6C126.485 12.796 126.897 13.062 127.253 13.398L126.869 13.932C126.845 13.972 126.813 14.006 126.773 14.034C126.737 14.058 126.687 14.07 126.623 14.07C126.551 14.07 126.463 14.032 126.359 13.956C126.255 13.876 126.119 13.788 125.951 13.692C125.783 13.596 125.573 13.51 125.321 13.434C125.069 13.354 124.759 13.314 124.391 13.314C123.947 13.314 123.541 13.392 123.173 13.548C122.805 13.7 122.487 13.922 122.219 14.214C121.955 14.506 121.749 14.862 121.601 15.282C121.453 15.702 121.379 16.176 121.379 16.704C121.379 17.24 121.455 17.718 121.607 18.138C121.763 18.558 121.973 18.914 122.237 19.206C122.505 19.494 122.819 19.714 123.179 19.866C123.543 20.018 123.935 20.094 124.355 20.094C124.611 20.094 124.841 20.08 125.045 20.052C125.253 20.02 125.443 19.972 125.615 19.908C125.791 19.844 125.953 19.764 126.101 19.668C126.253 19.568 126.403 19.45 126.551 19.314C126.619 19.254 126.687 19.224 126.755 19.224ZM133.387 14.922V21H132.751C132.599 21 132.503 20.926 132.463 20.778L132.379 20.124C132.115 20.416 131.819 20.652 131.491 20.832C131.163 21.008 130.787 21.096 130.363 21.096C130.031 21.096 129.737 21.042 129.481 20.934C129.229 20.822 129.017 20.666 128.845 20.466C128.673 20.266 128.543 20.024 128.455 19.74C128.371 19.456 128.329 19.142 128.329 18.798V14.922H129.397V18.798C129.397 19.258 129.501 19.614 129.709 19.866C129.921 20.118 130.243 20.244 130.675 20.244C130.991 20.244 131.285 20.17 131.557 20.022C131.833 19.87 132.087 19.662 132.319 19.398V14.922H133.387ZM136.094 16.14C136.286 15.724 136.522 15.4 136.802 15.168C137.082 14.932 137.424 14.814 137.828 14.814C137.956 14.814 138.078 14.828 138.194 14.856C138.314 14.884 138.42 14.928 138.512 14.988L138.434 15.786C138.41 15.886 138.35 15.936 138.254 15.936C138.198 15.936 138.116 15.924 138.008 15.9C137.9 15.876 137.778 15.864 137.642 15.864C137.45 15.864 137.278 15.892 137.126 15.948C136.978 16.004 136.844 16.088 136.724 16.2C136.608 16.308 136.502 16.444 136.406 16.608C136.314 16.768 136.23 16.952 136.154 17.16V21H135.08V14.922H135.692C135.808 14.922 135.888 14.944 135.932 14.988C135.976 15.032 136.006 15.108 136.022 15.216L136.094 16.14ZM144.659 14.922L142.181 21H141.221L138.743 14.922H139.613C139.701 14.922 139.773 14.944 139.829 14.988C139.885 15.032 139.923 15.084 139.943 15.144L141.485 19.056C141.533 19.204 141.575 19.348 141.611 19.488C141.647 19.628 141.681 19.768 141.713 19.908C141.745 19.768 141.779 19.628 141.815 19.488C141.851 19.348 141.895 19.204 141.947 19.056L143.507 15.144C143.531 15.08 143.571 15.028 143.627 14.988C143.683 14.944 143.749 14.922 143.825 14.922H144.659ZM149.543 17.298C149.543 17.05 149.507 16.824 149.435 16.62C149.367 16.412 149.265 16.234 149.129 16.086C148.997 15.934 148.835 15.818 148.643 15.738C148.451 15.654 148.233 15.612 147.989 15.612C147.477 15.612 147.071 15.762 146.771 16.062C146.475 16.358 146.291 16.77 146.219 17.298H149.543ZM150.407 20.148C150.275 20.308 150.117 20.448 149.933 20.568C149.749 20.684 149.551 20.78 149.339 20.856C149.131 20.932 148.915 20.988 148.691 21.024C148.467 21.064 148.245 21.084 148.025 21.084C147.605 21.084 147.217 21.014 146.861 20.874C146.509 20.73 146.203 20.522 145.943 20.25C145.687 19.974 145.487 19.634 145.343 19.23C145.199 18.826 145.127 18.362 145.127 17.838C145.127 17.414 145.191 17.018 145.319 16.65C145.451 16.282 145.639 15.964 145.883 15.696C146.127 15.424 146.425 15.212 146.777 15.06C147.129 14.904 147.525 14.826 147.965 14.826C148.329 14.826 148.665 14.888 148.973 15.012C149.285 15.132 149.553 15.308 149.777 15.54C150.005 15.768 150.183 16.052 150.311 16.392C150.439 16.728 150.503 17.112 150.503 17.544C150.503 17.712 150.485 17.824 150.449 17.88C150.413 17.936 150.345 17.964 150.245 17.964H146.183C146.195 18.348 146.247 18.682 146.339 18.966C146.435 19.25 146.567 19.488 146.735 19.68C146.903 19.868 147.103 20.01 147.335 20.106C147.567 20.198 147.827 20.244 148.115 20.244C148.383 20.244 148.613 20.214 148.805 20.154C149.001 20.09 149.169 20.022 149.309 19.95C149.449 19.878 149.565 19.812 149.657 19.752C149.753 19.688 149.835 19.656 149.903 19.656C149.991 19.656 150.059 19.69 150.107 19.758L150.407 20.148Z" fill="black"/>
<path d="M110.605 206.145V209H109.635V206.145L107.01 201.835H107.86C107.947 201.835 108.015 201.857 108.065 201.9C108.115 201.94 108.158 201.993 108.195 202.06L109.835 204.845C109.895 204.962 109.95 205.072 110 205.175C110.05 205.275 110.093 205.377 110.13 205.48C110.167 205.377 110.208 205.275 110.255 205.175C110.302 205.072 110.353 204.962 110.41 204.845L112.045 202.06C112.075 202.003 112.117 201.952 112.17 201.905C112.223 201.858 112.292 201.835 112.375 201.835H113.23L110.605 206.145ZM116.241 205.915C116.241 205.708 116.211 205.52 116.151 205.35C116.095 205.177 116.01 205.028 115.896 204.905C115.786 204.778 115.651 204.682 115.491 204.615C115.331 204.545 115.15 204.51 114.946 204.51C114.52 204.51 114.181 204.635 113.931 204.885C113.685 205.132 113.531 205.475 113.471 205.915H116.241ZM116.961 208.29C116.851 208.423 116.72 208.54 116.566 208.64C116.413 208.737 116.248 208.817 116.071 208.88C115.898 208.943 115.718 208.99 115.531 209.02C115.345 209.053 115.16 209.07 114.976 209.07C114.626 209.07 114.303 209.012 114.006 208.895C113.713 208.775 113.458 208.602 113.241 208.375C113.028 208.145 112.861 207.862 112.741 207.525C112.621 207.188 112.561 206.802 112.561 206.365C112.561 206.012 112.615 205.682 112.721 205.375C112.831 205.068 112.988 204.803 113.191 204.58C113.395 204.353 113.643 204.177 113.936 204.05C114.23 203.92 114.56 203.855 114.926 203.855C115.23 203.855 115.51 203.907 115.766 204.01C116.026 204.11 116.25 204.257 116.436 204.45C116.626 204.64 116.775 204.877 116.881 205.16C116.988 205.44 117.041 205.76 117.041 206.12C117.041 206.26 117.026 206.353 116.996 206.4C116.966 206.447 116.91 206.47 116.826 206.47H113.441C113.451 206.79 113.495 207.068 113.571 207.305C113.651 207.542 113.761 207.74 113.901 207.9C114.041 208.057 114.208 208.175 114.401 208.255C114.595 208.332 114.811 208.37 115.051 208.37C115.275 208.37 115.466 208.345 115.626 208.295C115.79 208.242 115.93 208.185 116.046 208.125C116.163 208.065 116.26 208.01 116.336 207.96C116.416 207.907 116.485 207.88 116.541 207.88C116.615 207.88 116.671 207.908 116.711 207.965L116.961 208.29ZM120.88 206.72C120.47 206.733 120.12 206.767 119.83 206.82C119.543 206.87 119.308 206.937 119.125 207.02C118.945 207.103 118.813 207.202 118.73 207.315C118.65 207.428 118.61 207.555 118.61 207.695C118.61 207.828 118.631 207.943 118.675 208.04C118.718 208.137 118.776 208.217 118.85 208.28C118.926 208.34 119.015 208.385 119.115 208.415C119.218 208.442 119.328 208.455 119.445 208.455C119.601 208.455 119.745 208.44 119.875 208.41C120.005 208.377 120.126 208.33 120.24 208.27C120.356 208.21 120.466 208.138 120.57 208.055C120.676 207.972 120.78 207.877 120.88 207.77V206.72ZM118.005 204.65C118.285 204.38 118.586 204.178 118.91 204.045C119.233 203.912 119.591 203.845 119.985 203.845C120.268 203.845 120.52 203.892 120.74 203.985C120.96 204.078 121.145 204.208 121.295 204.375C121.445 204.542 121.558 204.743 121.635 204.98C121.711 205.217 121.75 205.477 121.75 205.76V209H121.355C121.268 209 121.201 208.987 121.155 208.96C121.108 208.93 121.071 208.873 121.045 208.79L120.945 208.31C120.811 208.433 120.681 208.543 120.555 208.64C120.428 208.733 120.295 208.813 120.155 208.88C120.015 208.943 119.865 208.992 119.705 209.025C119.548 209.062 119.373 209.08 119.18 209.08C118.983 209.08 118.798 209.053 118.625 209C118.451 208.943 118.3 208.86 118.17 208.75C118.043 208.64 117.941 208.502 117.865 208.335C117.791 208.165 117.755 207.965 117.755 207.735C117.755 207.535 117.81 207.343 117.92 207.16C118.03 206.973 118.208 206.808 118.455 206.665C118.701 206.522 119.023 206.405 119.42 206.315C119.816 206.222 120.303 206.168 120.88 206.155V205.76C120.88 205.367 120.795 205.07 120.625 204.87C120.455 204.667 120.206 204.565 119.88 204.565C119.66 204.565 119.475 204.593 119.325 204.65C119.178 204.703 119.05 204.765 118.94 204.835C118.833 204.902 118.74 204.963 118.66 205.02C118.583 205.073 118.506 205.1 118.43 205.1C118.37 205.1 118.318 205.085 118.275 205.055C118.231 205.022 118.195 204.982 118.165 204.935L118.005 204.65ZM123.95 204.95C124.11 204.603 124.307 204.333 124.54 204.14C124.774 203.943 125.059 203.845 125.395 203.845C125.502 203.845 125.604 203.857 125.7 203.88C125.8 203.903 125.889 203.94 125.965 203.99L125.9 204.655C125.88 204.738 125.83 204.78 125.75 204.78C125.704 204.78 125.635 204.77 125.545 204.75C125.455 204.73 125.354 204.72 125.24 204.72C125.08 204.72 124.937 204.743 124.81 204.79C124.687 204.837 124.575 204.907 124.475 205C124.379 205.09 124.29 205.203 124.21 205.34C124.134 205.473 124.064 205.627 124 205.8V209H123.105V203.935H123.615C123.712 203.935 123.779 203.953 123.815 203.99C123.852 204.027 123.877 204.09 123.89 204.18L123.95 204.95ZM129.669 204.77C129.629 204.843 129.567 204.88 129.484 204.88C129.434 204.88 129.377 204.862 129.314 204.825C129.25 204.788 129.172 204.748 129.079 204.705C128.989 204.658 128.88 204.617 128.754 204.58C128.627 204.54 128.477 204.52 128.304 204.52C128.154 204.52 128.019 204.54 127.899 204.58C127.779 204.617 127.675 204.668 127.589 204.735C127.505 204.802 127.44 204.88 127.394 204.97C127.35 205.057 127.329 205.152 127.329 205.255C127.329 205.385 127.365 205.493 127.439 205.58C127.515 205.667 127.615 205.742 127.739 205.805C127.862 205.868 128.002 205.925 128.159 205.975C128.315 206.022 128.475 206.073 128.639 206.13C128.805 206.183 128.967 206.243 129.124 206.31C129.28 206.377 129.42 206.46 129.544 206.56C129.667 206.66 129.765 206.783 129.839 206.93C129.915 207.073 129.954 207.247 129.954 207.45C129.954 207.683 129.912 207.9 129.829 208.1C129.745 208.297 129.622 208.468 129.459 208.615C129.295 208.758 129.095 208.872 128.859 208.955C128.622 209.038 128.349 209.08 128.039 209.08C127.685 209.08 127.365 209.023 127.079 208.91C126.792 208.793 126.549 208.645 126.349 208.465L126.559 208.125C126.585 208.082 126.617 208.048 126.654 208.025C126.69 208.002 126.737 207.99 126.794 207.99C126.854 207.99 126.917 208.013 126.984 208.06C127.05 208.107 127.13 208.158 127.224 208.215C127.32 208.272 127.437 208.323 127.574 208.37C127.71 208.417 127.88 208.44 128.084 208.44C128.257 208.44 128.409 208.418 128.539 208.375C128.669 208.328 128.777 208.267 128.864 208.19C128.95 208.113 129.014 208.025 129.054 207.925C129.097 207.825 129.119 207.718 129.119 207.605C129.119 207.465 129.08 207.35 129.004 207.26C128.93 207.167 128.832 207.088 128.709 207.025C128.585 206.958 128.444 206.902 128.284 206.855C128.127 206.805 127.965 206.753 127.799 206.7C127.635 206.647 127.474 206.587 127.314 206.52C127.157 206.45 127.017 206.363 126.894 206.26C126.77 206.157 126.67 206.03 126.594 205.88C126.52 205.727 126.484 205.542 126.484 205.325C126.484 205.132 126.524 204.947 126.604 204.77C126.684 204.59 126.8 204.433 126.954 204.3C127.107 204.163 127.295 204.055 127.519 203.975C127.742 203.895 127.997 203.855 128.284 203.855C128.617 203.855 128.915 203.908 129.179 204.015C129.445 204.118 129.675 204.262 129.869 204.445L129.669 204.77Z" fill="black"/>
<path d="M8.44651 122.164C8.4451 121.884 8.41052 121.637 8.34278 121.424C8.27169 121.208 8.17412 121.028 8.05006 120.886C7.92266 120.74 7.7721 120.63 7.5984 120.558C7.4247 120.485 7.23285 120.45 7.02285 120.451C6.59619 120.453 6.27524 120.595 6.05999 120.876C5.84473 121.157 5.73852 121.577 5.74135 122.137L5.74669 123.197L8.45166 123.184L8.44651 122.164ZM12.1248 118.835L12.1291 119.695C12.13 119.872 12.0623 120.002 11.9261 120.086L9.37549 121.959C9.29578 122.016 9.23942 122.078 9.20643 122.145C9.17008 122.208 9.15225 122.308 9.15294 122.445L9.15665 123.18L12.1466 123.165L12.1515 124.13L4.98657 124.166L4.97636 122.141C4.97407 121.688 5.01876 121.296 5.11043 120.965C5.19876 120.635 5.32905 120.363 5.50131 120.148C5.67355 119.931 5.88274 119.77 6.12888 119.665C6.37169 119.561 6.64476 119.508 6.94809 119.506C7.20142 119.505 7.43828 119.544 7.65868 119.623C7.87908 119.701 8.078 119.817 8.25544 119.97C8.42953 120.119 8.57879 120.303 8.70324 120.522C8.82766 120.738 8.92224 120.985 8.98697 121.261C9.05634 121.137 9.15747 121.03 9.29035 120.939L12.1248 118.835ZM9.02047 115.018C8.81381 115.019 8.62563 115.05 8.45593 115.111C8.28289 115.169 8.13499 115.254 8.01223 115.368C7.88612 115.479 7.79013 115.615 7.72427 115.775C7.65508 115.935 7.621 116.117 7.62202 116.32C7.62418 116.747 7.75088 117.085 8.00214 117.334C8.25005 117.579 8.59415 117.731 9.03445 117.788L9.02047 115.018ZM11.3918 114.286C11.5257 114.396 11.643 114.527 11.7438 114.68C11.8412 114.832 11.9221 114.997 11.9863 115.173C12.0505 115.346 12.0981 115.526 12.129 115.713C12.1633 115.899 12.1809 116.084 12.1818 116.267C12.1836 116.617 12.1269 116.941 12.0117 117.238C11.8932 117.532 11.7211 117.788 11.4956 118.006C11.2667 118.22 10.9842 118.388 10.6481 118.51C10.3121 118.632 9.92569 118.694 9.48903 118.696C9.1357 118.698 8.80544 118.646 8.49824 118.541C8.19102 118.433 7.92523 118.277 7.70088 118.075C7.47319 117.873 7.29527 117.625 7.16713 117.333C7.03565 117.04 6.96898 116.71 6.96713 116.344C6.9656 116.04 7.01586 115.76 7.11789 115.503C7.21658 115.242 7.36212 115.018 7.55451 114.831C7.74355 114.64 7.97946 114.49 8.26225 114.382C8.54171 114.274 8.86144 114.219 9.22143 114.217C9.36143 114.217 9.45484 114.231 9.50166 114.261C9.54848 114.291 9.57209 114.347 9.57251 114.431L9.58959 117.816C9.90954 117.804 10.1876 117.759 10.4239 117.681C10.6602 117.6 10.858 117.489 11.0173 117.348C11.1732 117.208 11.2907 117.04 11.3697 116.847C11.4454 116.653 11.4827 116.436 11.4814 116.196C11.4803 115.973 11.4544 115.781 11.4035 115.621C11.3494 115.458 11.292 115.319 11.2314 115.202C11.1708 115.086 11.1154 114.989 11.065 114.913C11.0112 114.833 10.9842 114.765 10.9839 114.708C10.9836 114.635 11.0116 114.578 11.0681 114.538L11.3918 114.286ZM12.1682 111.593C12.1703 111.993 12.0601 112.302 11.8379 112.52C11.6157 112.734 11.2945 112.843 10.8745 112.845L7.77457 112.86L7.77765 113.47C7.77792 113.524 7.76314 113.569 7.73333 113.606C7.70018 113.643 7.65028 113.661 7.58361 113.661L7.22861 113.663L7.11943 112.834L5.55341 112.637C5.50336 112.627 5.46325 112.605 5.43309 112.572C5.39957 112.536 5.38267 112.489 5.38238 112.433L5.38011 111.983L7.12509 111.974L7.1177 110.509L7.76269 110.506L7.77008 111.97L10.81 111.955C11.0234 111.954 11.1814 111.902 11.2843 111.798C11.3871 111.694 11.4381 111.56 11.4372 111.397C11.4368 111.304 11.4247 111.224 11.401 111.157C11.374 111.087 11.3454 111.027 11.3151 110.978C11.2849 110.928 11.258 110.886 11.2345 110.853C11.2076 110.816 11.1941 110.785 11.194 110.758C11.1938 110.712 11.2219 110.67 11.2784 110.633L11.7021 110.371C11.8462 110.523 11.9604 110.708 12.0449 110.924C12.1259 111.14 12.1671 111.363 12.1682 111.593ZM6.99205 105.425L12.057 105.4L12.0597 105.93C12.0603 106.056 11.999 106.137 11.8759 106.171L11.3312 106.243C11.5757 106.462 11.7736 106.708 11.925 106.98C12.073 107.253 12.1479 107.566 12.1497 107.919C12.1511 108.196 12.1073 108.441 12.0184 108.655C11.9261 108.865 11.797 109.043 11.6311 109.187C11.4651 109.331 11.264 109.441 11.0277 109.515C10.7914 109.586 10.5299 109.623 10.2433 109.624L7.01332 109.64L7.00883 108.75L10.2388 108.734C10.6221 108.732 10.9183 108.644 11.1275 108.47C11.3366 108.292 11.4402 108.023 11.4384 107.663C11.4371 107.4 11.3742 107.155 11.2497 106.929C11.1219 106.7 10.9475 106.489 10.7265 106.297L6.99654 106.315L6.99205 105.425ZM7.99566 103.164C7.64819 103.006 7.3772 102.811 7.18269 102.578C6.98485 102.346 6.88508 102.061 6.88338 101.725C6.88284 101.618 6.894 101.516 6.91684 101.419C6.93967 101.319 6.97589 101.231 7.0255 101.154L7.69082 101.216C7.77425 101.235 7.81617 101.285 7.81658 101.365C7.81681 101.412 7.80716 101.48 7.78761 101.57C7.76807 101.66 7.75858 101.762 7.75915 101.875C7.75996 102.035 7.78401 102.178 7.83132 102.305C7.87861 102.428 7.94917 102.539 8.04301 102.639C8.13349 102.735 8.24727 102.823 8.38434 102.902C8.51806 102.978 8.67174 103.047 8.84539 103.11L12.0454 103.094L12.0499 103.989L6.98493 104.014L6.98236 103.504C6.98187 103.408 6.99987 103.341 7.03635 103.304C7.07283 103.267 7.13604 103.242 7.22597 103.228L7.99566 103.164ZM7.69731 99.528C7.57342 99.4186 7.46117 99.3025 7.36055 99.1797C7.25993 99.0568 7.17427 98.9273 7.10358 98.7909C7.02954 98.6513 6.9738 98.5049 6.93636 98.3518C6.89557 98.1953 6.87473 98.0271 6.87382 97.8471C6.87242 97.5704 6.91786 97.3269 7.01013 97.1164C7.09906 96.9026 7.22816 96.7253 7.39745 96.5844C7.5634 96.4403 7.76451 96.3309 8.00081 96.2564C8.2371 96.1819 8.49858 96.1439 8.78524 96.1424L12.0102 96.1262L12.0147 97.0211L8.78976 97.0374C8.40643 97.0393 8.11021 97.1292 7.90111 97.3069C7.68865 97.4813 7.58332 97.7468 7.58512 98.1035C7.58645 98.3668 7.65103 98.6132 7.77885 98.8425C7.90666 99.0686 8.07938 99.2777 8.29702 99.4699L12.027 99.4511L12.0315 100.346L6.96656 100.372L6.96386 99.8367C6.96322 99.71 7.02449 99.6314 7.14767 99.6007L7.69731 99.528Z" fill="black"/>
</g>
<defs>
<clipPath id="clip0_255_2481">
<rect width="229" height="218" fill="white"/>
</clipPath>
</defs>
</svg>
