<svg width="229" height="148" viewBox="0 0 229 148" fill="none" xmlns="http://www.w3.org/2000/svg">
<path d="M21.5856 91.8533L10.627 115.409L0.777779 115.408L8.75852 97.9504C9.54951 96.2198 10.0534 94.3729 10.2501 92.4826L10.2853 92.1042L11.3421 79.2355L21.5856 91.8533Z" fill="#512F15" stroke="#61301B"/>
<path d="M10.1051 65.2109L26.9433 70.091L34.1217 83.3002C37.1309 88.8376 38.4916 95.1208 38.0428 101.407L37.0462 115.367H26.9433V96.3892L16.8379 86.1895C11.3724 80.673 8.87058 72.8777 10.1051 65.2109Z" fill="#512F15"/>
<path d="M28.0641 33.4907L32.8349 31.5929L37.3251 30.2373L43.4991 38.0996L41.5346 44.8775L38.4476 38.0996L42.3765 55.1799L31.3578 57.0777L27.2221 45.6909L32.8349 61.1444L30.8704 69.8201L10.6646 64.3978L17.3666 48.2111C17.7623 47.2555 18.2353 46.3338 18.781 45.4553L22.1707 39.9975L28.0641 33.4907Z" fill="#1E105A"/>
<path d="M45.1835 13.9693L49.112 13.1553L53.602 13.1553L56.9708 14.782L59.4969 17.498L58.0933 23.734L56.9708 31.5964L54.445 31.5964L51.3554 35.1251L45.7427 33.7696L42.9363 36.4807L37.8848 29.4317L41.2539 21.5602L42.0964 16.9515L45.1835 13.9693Z" fill="#FFC400"/>
<path d="M60.0578 19.0314C59.6411 22.4483 55.9447 19.5535 51.3577 19.0314C45.8617 17.6761 39.01 16.6813 41.9328 13.6094C42.3496 10.1925 46.7707 9.16606 51.3577 9.68816C55.9447 10.2103 60.4745 15.6146 60.0578 19.0314Z" fill="#001B30"/>
<rect width="34.1149" height="1.62991" rx="0.814953" transform="matrix(0.973727 0.22772 -0.243065 0.97001 35.1963 14.5117)" fill="#19163E"/>
<path d="M32.2734 57.6192L39.57 56.2637L42.3764 62.2282L53.6019 72.8017L56.6889 73.3439L59.2146 74.1573L60.3371 77.4107L58.934 79.8507L55.2857 80.664L52.1987 79.0374L51.0761 76.3262L43.7796 72.8017L35.0798 66.2949L32.2734 57.6192Z" fill="#FFC300"/>
<path d="M59.9639 79.5532C59.3451 79.079 59.0891 78.287 59.32 77.5615C59.6904 76.3981 61.1106 75.9101 62.1679 76.5828L69.5284 81.2664C70.8592 82.1132 71.9225 83.3008 72.5986 84.6956L80.9813 101.988C81.5389 103.138 81.1601 104.503 80.0854 105.217C78.7156 106.127 76.819 105.61 76.1227 104.138L68.199 87.3809C67.4597 85.8175 66.3468 84.4446 64.953 83.3764L59.9639 79.5532Z" fill="#3E3A3A"/>
<path d="M85.3062 99.0239C84.6693 99.9953 83.4114 100.347 82.3711 99.8452C81.02 99.193 80.6602 97.4376 81.6428 96.2919L85.2316 92.1073C86.8332 90.2398 89.3394 89.4147 91.7248 89.9696L99.7587 91.8381C101.895 92.335 103.912 93.2409 105.697 94.5059L108.426 96.44C110.393 97.8331 112.018 99.6509 113.182 101.76L115.505 105.969C115.763 106.436 115.854 106.979 115.763 107.507C115.402 109.595 112.691 110.217 111.48 108.49L104.489 98.5196C103.521 97.1399 102.106 96.137 100.48 95.6787L93.7687 93.787C91.245 93.0756 88.539 94.0926 87.0951 96.2951L85.3062 99.0239Z" fill="#3E3A3A"/>
<path d="M74.3688 100.997L81.1041 101.539L83.2511 102.231C84.0608 102.491 84.8294 102.866 85.534 103.342C86.68 104.117 87.6235 105.156 88.2854 106.37L88.7138 107.157C89.6165 108.814 90.8735 110.251 92.3954 111.366L98.2229 115.637H81.1041L71.8431 107.233C71.8431 107.233 70.6495 106.232 70.4399 105.335C70.3195 104.819 70.3667 104.504 70.4399 103.979C70.5004 103.546 70.5295 103.288 70.7205 102.895C71.0532 102.209 71.4645 101.921 72.1237 101.539C72.904 101.087 74.3688 100.997 74.3688 100.997Z" fill="#3E3A3A"/>
<path d="M2.38016 129.002C3.60265 122.359 9.39421 117.536 16.149 117.536H81.5752C89.7236 117.536 97.3608 121.507 102.041 128.178L111.694 141.937H0L2.38016 129.002Z" fill="#2C6927"/>
<path d="M152.105 16.4097H169.786L172.311 15.3252H189.43L192.237 16.6808H209.075L208.794 19.9342L208.706 20.2193C208.248 21.6919 206.96 22.7519 205.427 22.9164C203.794 22.9164 202.194 22.3309 200.936 21.2897L189.991 21.832C189.674 24.5885 187.294 26.6396 184.521 26.5456L178.692 26.348C175.495 26.2397 172.664 24.2564 171.469 21.2897H160.805L158.842 22.2379C157.926 22.6804 156.9 22.8422 155.892 22.7032C154.398 22.4969 153.096 21.5773 152.403 20.2372L152.105 19.663V16.4097Z" fill="#362F2F"/>
<path d="M177.925 28.0674H184.66V29.5187C184.66 31.1129 183.368 32.4052 181.774 32.4052C179.648 32.4052 177.925 30.6821 177.925 28.5565V28.0674Z" fill="#362F2F"/>
<rect width="1.66602" height="6.03137" rx="0.833011" transform="matrix(0.836315 0.548249 -0.574785 0.818305 172.972 27.5264)" fill="#362F2F"/>
<rect width="1.67121" height="6.01205" rx="0.835604" transform="matrix(0.887687 0.460447 -0.485792 0.874074 173.777 38.2822)" fill="#362F2F"/>
<rect width="1.6711" height="6.01246" rx="0.835549" transform="matrix(0.88663 -0.462479 0.487871 0.872916 187.465 39.1426)" fill="#362F2F"/>
<rect width="1.6838" height="5.9646" rx="0.841902" transform="matrix(0.999851 -0.0172353 0.0184668 0.999829 180.731 38.3994)" fill="#362F2F"/>
<rect width="1.6664" height="6.02994" rx="0.833202" transform="matrix(0.840236 -0.542221 0.56873 0.822524 188.026 28.4287)" fill="#362F2F"/>
<rect width="1.52704" height="9.93074" rx="0.763519" transform="matrix(0.010593 -0.999944 0.999951 0.0098864 191.41 11.9385)" fill="#362F2F"/>
<rect width="1.52704" height="9.93074" rx="0.763519" transform="matrix(0.010593 -0.999944 0.999951 0.0098864 209.356 12.2432)" fill="#362F2F"/>
<rect width="1.58065" height="5.90408" rx="0.790323" transform="matrix(-0.999862 0.0166337 -0.0178222 -0.999841 205.989 14.9932)" fill="#362F2F"/>
<rect width="1.52704" height="9.93074" rx="0.763519" transform="matrix(0.010593 -0.999944 0.999951 0.0098864 143.688 11.3965)" fill="#362F2F"/>
<rect width="1.52704" height="9.93074" rx="0.763519" transform="matrix(0.010593 -0.999944 0.999951 0.0098864 161.63 11.7012)" fill="#362F2F"/>
<rect width="1.58065" height="5.90408" rx="0.790323" transform="matrix(-0.999862 0.0166337 -0.0178222 -0.999841 158.266 14.4502)" fill="#362F2F"/>
<line x1="209.856" y1="80.6641" x2="209.856" y2="113.198" stroke="#499B65"/>
<line x1="173.373" y1="80.665" x2="173.373" y2="113.199" stroke="#499B65"/>
<path d="M160.36 75.7756C158.18 74.0748 156.577 71.0251 155.575 68.0502C155.077 66.5728 154.735 65.1354 154.545 63.9287C154.404 63.0307 154.352 62.2868 154.371 61.7568C154.413 61.7664 154.459 61.7744 154.506 61.7856C154.839 61.8645 155.274 61.9815 155.789 62.1306C156.82 62.4286 158.158 62.8507 159.623 63.3473C162.537 64.335 165.931 65.6079 168.401 66.7621C172.864 70.2665 173.391 74.1408 171.585 76.2889C169.735 78.4882 164.806 79.2434 160.36 75.7756Z" fill="#499B65" stroke="#43B463"/>
<path d="M158.695 94.2389C156.981 92.902 155.795 90.3764 155.105 87.8545C154.764 86.6063 154.551 85.3848 154.454 84.3549C154.382 83.5975 154.376 82.9675 154.418 82.514C154.439 82.5178 154.461 82.52 154.483 82.5241C154.757 82.5758 155.115 82.6557 155.54 82.7594C156.391 82.9667 157.495 83.267 158.704 83.6253C161.102 84.3364 163.884 85.269 165.898 86.1426C169.401 88.9045 169.664 92.1707 168.026 94.1175C166.341 96.122 162.189 96.9642 158.695 94.2389Z" fill="#499B65" stroke="#43B463"/>
<path d="M176.313 74.9462C178.04 72.7425 181.019 70.9406 183.885 69.7054C185.31 69.0912 186.689 68.6245 187.842 68.3225C188.624 68.1175 189.278 67.9962 189.763 67.9474C189.76 67.9571 189.758 67.9673 189.755 67.9772C189.665 68.2929 189.534 68.706 189.369 69.1968C189.038 70.178 188.575 71.4562 188.036 72.8588C186.963 75.6496 185.596 78.9152 184.384 81.3154C182.628 83.5457 180.804 84.9089 179.188 85.5245C177.566 86.1423 176.197 85.9987 175.249 85.3011C174.296 84.6 173.665 83.1707 173.734 81.2911C173.803 79.4266 174.565 77.1766 176.313 74.9462Z" fill="#499B65" stroke="#43B463"/>
<path d="M135.268 141.936C135.268 126.065 148.134 113.198 164.006 113.198H200.262C216.134 113.198 229 126.065 229 141.936H135.268Z" fill="#2C6927"/>
<ellipse cx="209.355" cy="74.9714" rx="3.92892" ry="11.658" fill="#499B65"/>
<path d="M205.358 56.3393C204.957 55.5776 205.327 54.6385 206.14 54.3574L208.57 53.5168C209.369 53.2406 210.239 53.2529 211.03 53.5517L213.578 54.5135C214.174 54.7384 214.519 55.362 214.393 55.9856C214.233 56.7754 213.399 57.2284 212.648 56.9327L210.931 56.2561C210.233 55.9813 209.456 55.9926 208.767 56.2877L207.157 56.978C206.483 57.2668 205.7 56.9887 205.358 56.3393Z" fill="#3F6A2B"/>
<path d="M203.834 52.4898C203.248 51.6078 203.694 50.4122 204.714 50.1314L208.527 49.0816C209.322 48.8625 210.164 48.8707 210.956 49.1052L214.947 50.287C215.689 50.5067 216.124 51.275 215.93 52.0232C215.725 52.8133 214.902 53.2716 214.121 53.0303L211.151 52.112C210.262 51.8373 209.309 51.8507 208.429 52.1504L205.633 53.1028C204.964 53.3305 204.226 53.0787 203.834 52.4898Z" fill="#3F6A2B"/>
<ellipse cx="210.024" cy="58.6678" rx="1.94653" ry="1.63554" fill="#3F6A2B"/>
<path d="M122 -0.000462127L122 148" stroke="black"/>
</svg>
