<svg width="231" height="225" viewBox="0 0 231 225" fill="none" xmlns="http://www.w3.org/2000/svg">
<path d="M62.1146 23.5424C63.996 21.388 65.8804 19.0615 65.8439 16.3527C65.8569 15.6067 65.7027 14.8375 65.1285 14.1248C64.5543 13.4122 63.4744 12.8593 62.3845 12.8803C61.7983 12.8563 61.3763 13.0277 60.8706 13.1875C59.1845 13.7584 57.4148 14.3176 56.3069 15.3715C54.6027 16.9753 54.6463 19.2824 54.7764 21.4289C55.0257 26.3532 58.8615 27.4619 62.1982 23.5541L62.1146 23.5424Z" fill="#296D38"/>
<path d="M61.8658 23.3924C63.4924 21.4326 65.2882 19.3814 65.4985 16.9371C65.6021 15.801 65.5435 14.3547 63.966 13.5025C62.3885 12.6504 60.6138 13.4965 59.3487 13.9534C57.9154 14.4443 56.7299 15.1423 55.9584 16.128C55.2715 17.0679 55.0843 18.1924 54.9817 19.2711C54.879 20.3498 54.9416 21.5665 55.1724 22.7491C55.3266 23.5184 55.646 24.4257 56.472 25.1158C58.5381 26.7837 61.0117 24.309 61.7822 23.3807C61.9534 23.1745 62.5346 23.4854 62.3634 23.6917C61.4227 24.7689 59.3751 26.8426 56.878 25.8626C55.8797 25.4361 55.3891 24.7351 55.0657 24.0573C54.4169 22.8166 54.439 21.5541 54.3764 20.3374C54.3994 19.0175 54.4225 17.6977 55.0298 16.5166C55.637 15.3355 56.7409 14.5111 58.2608 13.8596C58.9367 13.5509 59.7788 13.3229 60.5382 13.0258C61.2131 12.7745 61.9715 12.5349 62.8912 12.6628C64.5633 12.8953 65.6331 14.022 66.0331 15.1131C66.5097 16.6175 66.0637 18.1662 65.4534 19.5194C64.7565 21.0332 63.56 22.3624 62.4471 23.7033C62.2758 23.9096 61.6946 23.5987 61.8658 23.3924Z" fill="#296D38"/>
<path d="M44.6522 16.1679C42.6797 13.9377 39.278 11.969 35.8432 11.8939C35.3405 11.8815 34.7533 11.9149 34.4149 12.098C33.9918 12.3268 33.8992 12.8316 33.8922 13.2333C33.809 17.9963 37.7209 24.3504 44.3743 27.2891C52.6908 30.9768 46.6247 18.3981 44.5686 16.1563L44.6522 16.1679Z" fill="#296D38"/>
<path d="M44.3976 16.2471C42.8352 14.5342 40.5162 12.9461 37.7613 12.3329C37.0924 12.2398 36.341 12.0778 35.6701 12.0995C34.5793 12.1779 34.3204 12.6021 34.3084 13.2908C34.2944 14.0942 34.364 14.9092 34.5172 15.7358C35.2155 18.9393 37.3372 22.2257 40.7279 24.8257C41.968 25.8035 46.771 29.1176 48.0621 27.1688C49.0088 25.7473 48.0437 23.4271 47.4009 21.842C46.6785 20.0158 45.8765 17.9484 44.3976 16.2471C44.1508 15.9827 44.7401 15.8345 44.9869 16.099C46.5473 17.9267 47.4319 20.0631 48.1523 22.0041C48.5513 23.1525 48.9503 24.301 49.0139 25.4603C48.9999 26.2637 48.9838 27.1819 48.3866 27.7891C46.4306 29.4154 41.8764 26.251 40.3049 25.0545C36.5837 22.1784 34.3039 18.3523 33.7797 14.7704C33.6265 13.9438 33.3968 12.7038 34.0786 12.0508C34.7615 11.3404 36.5172 11.5846 37.6867 11.8047C40.7771 12.4071 43.3448 14.1448 45.0715 16.0532C45.3183 16.3176 44.729 16.4658 44.4822 16.2013L44.3976 16.2471Z" fill="#296D38"/>
<path d="M45.8218 35.7694C44.4436 33.1041 41.221 30.47 37.3762 29.8778C36.8745 29.808 36.2893 29.7266 35.8673 29.898C35.1924 30.1493 35.1804 30.8379 35.254 31.4234C35.3982 32.7665 35.5423 34.1097 36.1901 35.4078C37.242 37.5675 41.5173 42.3038 44.9401 43.0675C49.1144 43.9932 46.8796 37.5847 45.8228 35.712L45.8218 35.7694Z" fill="#296D38"/>
<path d="M45.4786 35.7798C44.181 33.2984 41.1267 30.6301 37.2818 30.0379C35.9441 29.8518 35.4345 30.2411 35.4195 31.1019C35.4054 31.9053 35.5596 32.6746 35.7128 33.5013C35.9446 34.6265 36.4292 35.6718 37.2482 36.7636C38.7221 38.7519 40.6955 40.9246 43.3539 42.2723C44.1849 42.6755 45.433 43.1942 46.1945 42.7824C46.8713 42.4163 46.8864 41.5555 46.8964 40.9817C46.9254 39.3175 46.2876 37.4455 45.395 35.7682C45.2328 35.458 45.819 35.482 45.9822 35.7348C46.8729 37.5269 47.5923 39.5253 47.4776 41.2926C47.4656 41.9813 47.2833 42.8188 46.4383 43.219C45.5932 43.6192 44.4257 43.2842 43.5111 42.8694C41.9306 42.1894 40.6916 41.1542 39.5361 40.1306C38.3817 39.0497 37.3118 37.923 36.4938 36.7737C35.5942 35.4981 35.1136 34.2233 34.8848 32.9259C34.7356 31.8697 34.0182 29.7566 36.0327 29.5765C38.0473 29.3965 40.4578 30.5371 42.0323 31.5614C43.8556 32.7354 45.1702 34.2413 45.9812 35.7922C46.1434 36.1024 45.5572 36.0784 45.394 35.8256L45.4786 35.7798Z" fill="#296D38"/>
<path d="M76.7493 25.4117C78.4304 25.1278 80.5255 25.1316 82.0174 26.0869C83.6755 27.1228 83.8973 28.8219 83.289 30.0604C82.6807 31.2989 81.2404 32.1915 80.0489 33.2338C79.2824 33.9326 78.5996 34.6429 77.6679 35.2037C74.7086 36.6904 66.6605 36.8367 67.3169 32.8437C67.794 29.5161 72.3768 26.2417 76.8329 25.4234L76.7493 25.4117Z" fill="#296D38"/>
<path d="M76.5886 25.1548C78.3543 24.8252 80.6167 24.8522 82.3574 25.9571C83.683 26.8318 84.078 28.2098 83.8917 29.2769C83.6139 30.7914 82.087 31.8446 80.8109 32.9327C79.704 33.9292 78.7622 35.0638 77.0761 35.6347C75.0526 36.3312 72.1134 36.6702 69.6122 35.9197C66.4443 34.9614 66.6515 32.6892 67.5176 31.0839C68.991 28.2975 72.4679 25.9624 76.6722 25.1665C77.0086 25.0982 77.337 25.489 77.0006 25.5573C73.6374 26.1825 70.9269 27.8189 69.2158 29.8244C68.1884 31.0621 66.2971 33.7904 68.9544 35.1954C70.8643 36.2089 73.6333 36.0187 75.4836 35.6433C76.7447 35.416 77.758 34.9817 78.5245 34.2829C79.1197 33.7905 79.6314 33.2864 80.2266 32.7939C80.8229 32.244 81.5017 31.7632 82.098 31.2134C83.2059 30.1594 83.9834 28.8294 83.1714 27.3359C82.1146 25.4632 79.1854 25.2284 77.0842 25.5689C76.7478 25.6372 76.4204 25.189 76.7558 25.1781L76.5886 25.1548Z" fill="#296D38"/>
<path d="M46.8128 26.4758C50.3012 28.2841 53.5267 30.746 55.744 33.3554C56.6466 34.4589 57.38 35.6538 57.777 36.9171C57.8556 37.2156 57.2684 37.249 57.1898 36.9505C56.0804 33.2871 51.8646 29.9396 47.6338 27.4529C47.3024 27.2342 46.8874 27.0039 46.555 26.8427C46.2226 26.6814 46.564 26.3262 46.8954 26.5449L46.8128 26.4758Z" fill="#296D38"/>
<path d="M124.114 23.5415C125.996 21.3871 127.88 19.0605 127.843 16.3518C127.856 15.6058 127.702 14.8365 127.128 14.1239C126.554 13.4112 125.474 12.8584 124.384 12.8794C123.798 12.8554 123.376 13.0268 122.87 13.1865C121.184 13.7574 119.414 14.3166 118.306 15.3706C116.602 16.9743 116.646 19.2814 116.776 21.4279C117.025 26.3522 120.861 27.4609 124.198 23.5531L124.114 23.5415Z" fill="#296D38"/>
<path d="M123.865 23.3914C125.492 21.4317 127.288 19.3804 127.498 16.9361C127.602 15.8 127.543 14.3537 125.966 13.5016C124.388 12.6494 122.613 13.4955 121.348 13.9524C119.915 14.4433 118.729 15.1413 117.958 16.127C117.271 17.0669 117.084 18.1914 116.981 19.2701C116.879 20.3488 116.941 21.5655 117.172 22.7481C117.326 23.5174 117.645 24.4247 118.472 25.1148C120.538 26.7828 123.011 24.3081 123.782 23.3798C123.953 23.1735 124.534 23.4844 124.363 23.6907C123.422 24.7679 121.375 26.8417 118.878 25.8616C117.879 25.4351 117.389 24.7341 117.065 24.0564C116.416 22.8156 116.438 21.5532 116.376 20.3364C116.399 19.0166 116.422 17.6967 117.029 16.5156C117.637 15.3345 118.74 14.5101 120.26 13.8586C120.936 13.5499 121.778 13.3219 122.538 13.0248C123.213 12.7735 123.971 12.5339 124.891 12.6618C126.563 12.8943 127.633 14.0211 128.033 15.1121C128.509 16.6165 128.063 18.1652 127.453 19.5184C126.756 21.0322 125.559 22.3615 124.447 23.7023C124.275 23.9086 123.694 23.5977 123.865 23.3914Z" fill="#296D38"/>
<path d="M106.652 16.1669C104.679 13.9367 101.278 11.968 97.8427 11.893C97.34 11.8806 96.7528 11.914 96.4144 12.097C95.9913 12.3258 95.8987 12.8306 95.8917 13.2323C95.8085 17.9953 99.7205 24.3494 106.374 27.2881C114.69 30.9758 108.624 18.3971 106.568 16.1553L106.652 16.1669Z" fill="#296D38"/>
<path d="M106.397 16.2461C104.835 14.5332 102.516 12.9451 99.7608 12.3319C99.092 12.2389 98.3405 12.0768 97.6697 12.0986C96.5788 12.177 96.3199 12.6012 96.3079 13.2898C96.2939 14.0932 96.3635 14.9082 96.5167 15.7349C97.215 18.9383 99.3367 22.2247 102.727 24.8247C103.967 25.8025 108.771 29.1167 110.062 27.1678C111.008 25.7463 110.043 23.4261 109.4 21.8411C108.678 20.0148 107.876 17.9475 106.397 16.2461C106.15 15.9817 106.74 15.8336 106.986 16.098C108.547 17.9257 109.431 20.0621 110.152 22.0031C110.551 23.1516 110.95 24.3 111.013 25.4594C110.999 26.2628 110.983 27.1809 110.386 27.7882C108.43 29.4145 103.876 26.25 102.304 25.0535C98.5832 22.1775 96.3034 18.3514 95.7792 14.7694C95.6261 13.9428 95.3963 12.7028 96.0781 12.0498C96.761 11.3394 98.5167 11.5836 99.6862 11.8038C102.777 12.4061 105.344 14.1439 107.071 16.0522C107.318 16.3166 106.729 16.4648 106.482 16.2004L106.397 16.2461Z" fill="#296D38"/>
<path d="M107.822 35.7694C106.444 33.1041 103.221 30.47 99.3762 29.8778C98.8745 29.808 98.2893 29.7266 97.8673 29.898C97.1924 30.1493 97.1804 30.8379 97.254 31.4234C97.3982 32.7665 97.5423 34.1097 98.1901 35.4078C99.242 37.5675 103.517 42.3038 106.94 43.0675C111.114 43.9932 108.88 37.5847 107.823 35.712L107.822 35.7694Z" fill="#296D38"/>
<path d="M107.479 35.7798C106.181 33.2984 103.127 30.6301 99.2818 30.0379C97.9441 29.8518 97.4345 30.2411 97.4195 31.1019C97.4054 31.9053 97.5596 32.6746 97.7128 33.5013C97.9446 34.6265 98.4292 35.6718 99.2482 36.7636C100.722 38.7519 102.696 40.9246 105.354 42.2723C106.185 42.6755 107.433 43.1942 108.194 42.7824C108.871 42.4163 108.886 41.5555 108.896 40.9817C108.925 39.3175 108.288 37.4455 107.395 35.7682C107.233 35.458 107.819 35.482 107.982 35.7348C108.873 37.5269 109.592 39.5253 109.478 41.2926C109.466 41.9813 109.283 42.8188 108.438 43.219C107.593 43.6192 106.426 43.2842 105.511 42.8694C103.931 42.1894 102.692 41.1542 101.536 40.1306C100.382 39.0497 99.3118 37.923 98.4938 36.7737C97.5942 35.4981 97.1136 34.2233 96.8848 32.9259C96.7356 31.8697 96.0182 29.7566 98.0327 29.5765C100.047 29.3965 102.458 30.5371 104.032 31.5614C105.856 32.7354 107.17 34.2413 107.981 35.7922C108.143 36.1024 107.557 36.0784 107.394 35.8256L107.479 35.7798Z" fill="#296D38"/>
<path d="M138.749 25.4108C140.43 25.1268 142.525 25.1306 144.017 26.0859C145.675 27.1218 145.897 28.8209 145.289 30.0594C144.68 31.2979 143.24 32.1905 142.048 33.2328C141.282 33.9316 140.599 34.642 139.667 35.2027C136.708 36.6895 128.66 36.8357 129.316 32.8427C129.794 29.5151 134.376 26.2408 138.832 25.4224L138.749 25.4108Z" fill="#296D38"/>
<path d="M138.588 25.1539C140.354 24.8242 142.616 24.8512 144.357 25.9562C145.683 26.8308 146.078 28.2088 145.891 29.2759C145.613 30.7904 144.086 31.8436 142.81 32.9317C141.703 33.9283 140.762 35.0628 139.076 35.6337C137.052 36.3302 134.113 36.6692 131.612 35.9187C128.444 34.9604 128.651 32.6882 129.517 31.0829C130.99 28.2965 134.467 25.9614 138.672 25.1655C139.008 25.0972 139.337 25.4881 139 25.5563C135.637 26.1815 132.926 27.818 131.215 29.8234C130.188 31.0612 128.297 33.7894 130.954 35.1944C132.864 36.2079 135.633 36.0177 137.483 35.6423C138.744 35.415 139.758 34.9807 140.524 34.2819C141.119 33.7895 141.631 33.2854 142.226 32.7929C142.822 32.2431 143.501 31.7622 144.098 31.2124C145.205 30.1584 145.983 28.8284 145.171 27.3349C144.114 25.4622 141.185 25.2274 139.084 25.568C138.747 25.6362 138.42 25.188 138.755 25.1771L138.588 25.1539Z" fill="#296D38"/>
<path d="M108.812 26.4749C112.301 28.2831 115.526 30.7451 117.743 33.3544C118.646 34.4579 119.38 35.6529 119.777 36.9161C119.855 37.2147 119.268 37.248 119.189 36.9495C118.08 33.2862 113.864 29.9387 109.633 27.4519C109.302 27.2333 108.887 27.003 108.554 26.8417C108.222 26.6804 108.564 26.3252 108.895 26.5439L108.812 26.4749Z" fill="#296D38"/>
<path d="M185.115 26.9409C186.996 24.7865 188.88 22.4599 188.844 19.7512C188.857 19.0052 188.703 18.2359 188.129 17.5233C187.554 16.8106 186.474 16.2578 185.385 16.2788C184.798 16.2548 184.376 16.4262 183.871 16.586C182.185 17.1568 180.415 17.716 179.307 18.77C177.603 20.3738 177.646 22.6808 177.776 24.8273C178.026 29.7516 181.861 30.8603 185.198 26.9525L185.115 26.9409Z" fill="#296D38"/>
<path d="M184.866 26.7908C186.492 24.8311 188.288 22.7798 188.498 20.3355C188.602 19.1994 188.544 17.7531 186.966 16.901C185.389 16.0488 183.614 16.895 182.349 17.3518C180.915 17.8428 179.73 18.5408 178.958 19.5264C178.272 20.4664 178.084 21.5908 177.982 22.6695C177.879 23.7482 177.942 24.9649 178.172 26.1475C178.327 26.9168 178.646 27.8241 179.472 28.5142C181.538 30.1822 184.012 27.7075 184.782 26.7792C184.953 26.5729 185.535 26.8838 185.363 27.0901C184.423 28.1673 182.375 30.2411 179.878 29.261C178.88 28.8345 178.389 28.1335 178.066 27.4558C177.417 26.215 177.439 24.9526 177.376 23.7358C177.399 22.416 177.422 21.0961 178.03 19.915C178.637 18.7339 179.741 17.9095 181.261 17.258C181.937 16.9493 182.779 16.7213 183.538 16.4243C184.213 16.173 184.972 15.9333 185.891 16.0612C187.563 16.2938 188.633 17.4205 189.033 18.5115C189.51 20.016 189.064 21.5646 188.453 22.9179C187.756 24.4316 186.56 25.7609 185.447 27.1017C185.276 27.308 184.695 26.9971 184.866 26.7908Z" fill="#296D38"/>
<path d="M167.652 19.5663C165.68 17.3362 162.278 15.3674 158.843 15.2924C158.341 15.28 157.753 15.3134 157.415 15.4964C156.992 15.7252 156.899 16.23 156.892 16.6317C156.809 21.3947 160.721 27.7488 167.374 30.6875C175.691 34.3752 169.625 21.7965 167.569 19.5547L167.652 19.5663Z" fill="#296D38"/>
<path d="M167.398 19.6455C165.835 17.9326 163.516 16.3445 160.761 15.7313C160.092 15.6383 159.341 15.4762 158.67 15.498C157.579 15.5764 157.32 16.0006 157.308 16.6892C157.294 17.4926 157.364 18.3076 157.517 19.1343C158.216 22.3378 160.337 25.6241 163.728 28.2241C164.968 29.2019 169.771 32.5161 171.062 30.5672C172.009 29.1457 171.044 26.8255 170.401 25.2405C169.678 23.4143 168.876 21.3469 167.398 19.6455C167.151 19.3811 167.74 19.233 167.987 19.4974C169.547 21.3251 170.432 23.4615 171.152 25.4025C171.551 26.551 171.95 27.6994 172.014 28.8588C172 29.6622 171.984 30.5803 171.387 31.1876C169.431 32.8139 164.876 29.6494 163.305 28.4529C159.584 25.5769 157.304 21.7508 156.78 18.1688C156.627 17.3422 156.397 16.1022 157.079 15.4492C157.761 14.7388 159.517 14.983 160.687 15.2032C163.777 15.8056 166.345 17.5433 168.071 19.4516C168.318 19.7161 167.729 19.8642 167.482 19.5998L167.398 19.6455Z" fill="#296D38"/>
<path d="M199.749 28.8102C201.43 28.5262 203.526 28.53 205.017 29.4853C206.676 30.5213 206.897 32.2203 206.289 33.4588C205.681 34.6973 204.24 35.5899 203.049 36.6322C202.282 37.331 201.6 38.0414 200.668 38.6021C197.709 40.0889 189.661 40.2351 190.317 36.2421C190.794 32.9145 195.377 29.6402 199.833 28.8218L199.749 28.8102Z" fill="#296D38"/>
<path d="M199.589 28.5533C201.354 28.2236 203.617 28.2506 205.357 29.3556C206.683 30.2302 207.078 31.6082 206.892 32.6753C206.614 34.1898 205.087 35.243 203.811 36.3311C202.704 37.3277 201.762 38.4623 200.076 39.0331C198.053 39.7296 195.113 40.0686 192.612 39.3181C189.444 38.3598 189.651 36.0876 190.518 34.4823C191.991 31.696 195.468 29.3608 199.672 28.5649C200.009 28.4966 200.337 28.8875 200.001 28.9557C196.637 29.581 193.927 31.2174 192.216 33.2229C191.188 34.4606 189.297 37.1888 191.954 38.5939C193.864 39.6073 196.633 39.4172 198.484 39.0417C199.745 38.8144 200.758 38.3801 201.524 37.6814C202.12 37.1889 202.631 36.6848 203.227 36.1923C203.823 35.6425 204.502 35.1616 205.098 34.6118C206.206 33.5579 206.983 32.2279 206.171 30.7343C205.115 28.8616 202.185 28.6268 200.084 28.9674C199.748 29.0356 199.42 28.5874 199.756 28.5765L199.589 28.5533Z" fill="#296D38"/>
<path d="M169.813 29.8743C173.301 31.6825 176.527 34.1445 178.744 36.7538C179.647 37.8573 180.38 39.0523 180.777 40.3155C180.856 40.6141 180.268 40.6474 180.19 40.3489C179.08 36.6856 174.865 33.3381 170.634 30.8513C170.302 30.6327 169.887 30.4024 169.555 30.2411C169.223 30.0798 169.564 29.7246 169.895 29.9433L169.813 29.8743Z" fill="#296D38"/>
<ellipse cx="179.829" cy="194.491" rx="51.1709" ry="14.5" fill="#FFC200"/>
<path d="M128.658 195.955L131.083 198.848C134.934 201.4 139.202 203.257 143.693 204.335L150.97 206.08L158.245 207.045L164.551 207.527L179.102 208.491L196.078 207.527L206.401 206.102C211.147 205.446 215.814 204.308 220.329 202.705C224.387 201.775 227.953 199.367 230.332 195.95L231 194.991V211.866C224.59 215.69 217.52 218.278 210.156 219.498L206.748 220.063L191.227 221.027H179.102C171.675 221.027 164.26 220.455 156.922 219.315L152.425 218.616L147.64 217.468C141.465 215.987 135.437 213.95 129.628 211.384L128.658 195.955Z" fill="#D6AC24"/>
<ellipse cx="88.209" cy="194.491" rx="51.1709" ry="14.5" fill="#FFC200"/>
<path d="M37.0381 195.955L39.4632 198.848C43.3137 201.4 47.5817 203.257 52.0734 204.335L59.3496 206.08L66.625 207.045L72.9305 207.527L87.4814 208.491L104.458 207.527L114.781 206.102C119.527 205.446 124.194 204.308 128.709 202.705C132.767 201.775 136.333 199.367 138.712 195.95L139.38 194.991V211.866C132.97 215.69 125.9 218.278 118.536 219.498L115.128 220.063L99.6072 221.027H87.4814C80.0553 221.027 72.6403 220.455 65.3021 219.315L60.8047 218.616L56.02 217.468C49.8451 215.987 43.8167 213.95 38.0082 211.384L37.0381 195.955Z" fill="#D6AC24"/>
<ellipse cx="51.1709" cy="193.491" rx="51.1709" ry="14.5" fill="#FFC200"/>
<path d="M0 194.955L2.42516 197.848C6.2756 200.4 10.5436 202.257 15.0353 203.335L22.3115 205.08L29.587 206.045L35.8924 206.527L50.4433 207.491L67.4195 206.527L77.7426 205.102C82.4889 204.446 87.1559 203.308 91.6711 201.705C95.7287 200.775 99.2945 198.367 101.674 194.95L102.342 193.991V210.866C95.9314 214.69 88.8616 217.278 81.498 218.498L78.0902 219.063L62.5691 220.027H50.4433C43.0172 220.027 35.6022 219.455 28.264 218.315L23.7666 217.616L18.9819 216.468C12.807 214.987 6.77858 212.95 0.970064 210.384L0 194.955Z" fill="#D6AC24"/>
<ellipse cx="111.5" cy="197.491" rx="52.5" ry="14.5" fill="#FFC200"/>
<path d="M59 198.955L61.4882 201.848C65.4396 204.401 69.8014 206.253 74.3819 207.324L81.891 209.08L89.3554 210.045L95.8246 210.527L110.754 211.491L128.171 210.527L138.779 209.099C143.638 208.446 148.419 207.309 153.052 205.705C157.218 204.774 160.894 202.339 163.375 198.866L164 197.991V214.866C157.421 218.691 150.195 221.274 142.682 222.487L139.118 223.063L123.194 224.027H110.754C103.134 224.027 95.5252 223.454 87.9915 222.314L83.3839 221.616L78.4489 220.462C72.1304 218.984 65.9551 216.95 59.9953 214.384L59 198.955Z" fill="#D6AC24"/>
<path d="M40.3597 50.1428C39.1126 49.5667 37.6954 49.1395 36.3627 48.6666C35.7795 48.4704 35.1126 48.2626 34.5234 48.4108C33.8505 48.5473 33.5887 49.1436 33.5787 49.7175C33.3544 52.9652 36.2245 56.5858 40.5489 58.5103C51.8601 63.4774 46.4288 52.9428 40.3597 50.1428Z" fill="#296D38"/>
<path d="M40.192 50.3481C39.1112 49.8526 37.9447 49.4603 36.7782 49.068C36.2786 48.8834 35.6954 48.6873 35.1937 48.6175C34.4413 48.5129 34.0978 48.9828 34.0062 49.4303C33.6497 50.6462 34.1263 52.1506 34.9414 53.472C36.4052 56.0341 39.3859 58.1169 42.9709 59.1907C44.5544 59.6986 46.5609 59.9777 46.8358 58.6353C47.1107 57.2929 46.214 55.8451 45.3134 54.6269C44.0844 53.0178 42.4373 51.3507 40.192 50.3481C39.8596 50.1868 40.201 49.8316 40.5324 50.0503C42.7767 51.1102 44.5084 52.7317 45.7374 54.3407C46.8033 55.697 47.8611 57.5123 47.417 58.9462C46.973 60.3801 44.7126 60.2383 42.8793 59.6382C38.9609 58.4605 35.7333 56.1133 34.1899 53.31C33.7849 52.5058 33.4635 51.7133 33.3939 50.8983C33.2397 50.129 33.1711 49.2566 33.6848 48.6377C34.1994 47.9615 35.2873 48.0553 36.2866 48.4243C37.7875 48.8632 39.2037 49.3478 40.5334 49.9929C40.8658 50.1542 40.5254 50.452 40.193 50.2907L40.192 50.3481Z" fill="#296D38"/>
<path d="M46.024 71.9268C45.8678 71.2723 45.627 70.6636 45.219 70.0316C43.991 68.3652 41.242 67.4076 38.7399 66.7145C37.4052 66.3563 35.8187 66.0206 34.7218 66.4433C34.1306 66.7062 33.7045 67.1071 33.4447 67.5887C32.4054 69.5151 32.8649 71.9951 34.6732 74.0298C36.4825 76.0072 41.7932 79.0468 44.9952 78.054C47.4388 77.3009 46.413 73.6492 45.9404 71.9152L46.024 71.9268Z" fill="#296D38"/>
<path d="M45.6896 71.9346C45.3772 70.6256 44.6428 69.488 43.0663 68.5785C41.7386 67.8186 40.1541 67.3681 38.6532 66.9293C36.8179 66.4439 34.9796 66.1307 34.0369 67.3227C33.35 68.2626 33.0772 69.4902 33.3089 70.6154C33.6889 72.8542 35.4992 74.7742 38.1555 76.2366C40.0644 77.3074 43.8086 78.8636 45.5098 77.432C46.3598 76.7449 46.2953 75.6429 46.2277 74.7131C46.1601 73.7833 45.9254 72.8303 45.6906 71.8772C45.6956 71.5903 46.1992 71.5453 46.2778 71.8438C46.6647 73.6809 47.5453 76.0468 46.1776 77.5824C44.6397 79.2668 40.7213 78.0891 38.4779 76.9718C35.4872 75.4628 33.2609 73.3699 32.7167 70.9357C32.4043 69.6267 32.5946 68.3301 33.368 67.2297C34.1415 66.1292 35.4872 65.8562 37.3255 66.1694C39.2465 66.5516 41.3306 67.1866 43.0753 68.062C44.9852 69.0754 45.8848 70.3511 46.2768 71.9012C46.2718 72.1881 45.7682 72.2332 45.6896 71.9346Z" fill="#296D38"/>
<path d="M47.9723 90.0323C46.3322 87.9634 43.3475 86.1102 40.2501 85.9095C39.6649 85.8281 38.993 85.9072 38.4873 86.067C37.6443 86.3524 37.2133 87.0403 37.1166 87.7747C36.8378 89.3466 37.814 91.0356 39.1286 92.5415C40.3607 93.9784 42.0127 95.3586 44.0949 96.1084C51.8381 99.0261 50.516 93.1473 48.0569 89.9865L47.9723 90.0323Z" fill="#296D38"/>
<path d="M47.7184 90.1122C46.8158 89.0087 45.6604 87.9852 44.1645 87.2594C42.6686 86.5336 40.6681 85.9103 39.0716 86.1484C37.2222 86.4665 37.1922 88.188 37.5066 89.3823C37.9036 90.6455 38.7206 91.8521 39.7904 92.9788C40.7776 94.0365 42.0177 95.0143 43.5146 95.6827C44.5954 96.1782 46.0127 96.6054 47.2688 96.665C49.1111 96.7487 49.6338 95.6133 49.5692 94.5114C49.5943 93.0767 48.7843 91.4684 47.7184 90.1122C47.5552 89.8594 48.0609 89.6996 48.3077 89.964C49.4561 91.3893 50.1805 93.1008 50.3217 94.616C50.2997 95.8785 49.6904 97.1744 47.6798 97.1249C46.3391 97.111 44.9218 96.6838 43.7574 96.1767C42.0097 95.4734 40.6044 94.3576 39.5356 93.1735C38.3006 91.9087 37.3193 90.5067 37.009 89.0829C36.7782 87.9003 36.8868 86.4773 38.2395 85.8026C39.7594 85.1511 42.18 85.7178 43.8441 86.4095C45.757 87.2508 47.3285 88.4472 48.3943 89.8035C48.6411 90.0679 48.0518 90.2161 47.805 89.9517L47.7184 90.1122Z" fill="#296D38"/>
<path d="M45.463 108.273C44.9028 106.757 44.0917 105.206 42.7741 103.873C41.4564 102.539 39.5495 101.353 37.3798 100.821C36.3785 100.567 35.2897 100.531 34.5292 100.885C34.0226 101.102 33.7637 101.527 33.5059 101.893C31.6891 105.15 34.1231 109.745 38.8586 112.129C39.8558 112.613 40.9377 113.051 42.0206 113.432C44.6859 114.378 45.7607 115.218 46.5442 113.543C47.1525 112.305 46.0242 109.732 45.462 108.331L45.463 108.273Z" fill="#296D38"/>
<path d="M45.1336 108.276C44.1724 105.726 42.3792 102.831 38.7156 101.459C37.9662 101.182 37.1321 100.951 36.3787 100.903C35.1236 100.786 34.3621 101.198 33.9301 101.943C33.4114 102.849 33.2261 103.859 33.2927 104.846C33.5075 106.947 34.8937 109.153 37.2106 110.856C38.5343 111.845 40.1984 112.537 41.8645 113.114C42.5313 113.322 43.1136 113.575 43.6958 113.829C44.1118 114.002 44.694 114.255 45.1967 114.268C46.621 114.293 46.4848 112.491 46.3296 111.779C46.0978 110.654 45.6152 109.494 45.2162 108.345C45.1376 108.047 45.7249 108.013 45.8035 108.312C46.2851 109.529 46.7667 110.747 46.9964 111.987C47.1486 112.871 47.1266 114.133 46.1133 114.568C45.2682 114.968 44.0212 114.392 43.1055 114.034C41.2742 113.319 39.3573 112.708 37.6993 111.672C34.9633 109.968 33.1621 107.532 32.7841 105.178C32.5543 103.938 32.8272 102.71 33.4325 101.644C34.0377 100.578 35.5526 100.213 37.3899 100.584C42.233 101.603 44.7677 105.234 45.9717 108.278C46.0503 108.576 45.463 108.61 45.3844 108.311L45.1336 108.276Z" fill="#296D38"/>
<path d="M75.3085 118.046C76.7609 116.465 78.2988 114.78 80.9902 114.234C82.5041 113.927 84.1782 114.045 85.8523 114.163C86.773 114.233 87.6937 114.304 88.5257 114.649C89.4404 115.064 90.0125 115.892 90.0831 116.649C90.1537 117.407 89.8073 118.049 89.2947 118.611C87.4949 120.891 83.6169 122.193 79.5153 121.91C74.6602 121.58 72.8289 120.865 75.3095 117.989L75.3085 118.046Z" fill="#296D38"/>
<path d="M74.9734 117.889C76.6835 115.941 78.6446 114.028 82.2516 113.839C83.0907 113.783 84.0113 113.854 84.9329 113.867C85.9372 113.949 87.0271 113.928 88.0263 114.297C89.6098 114.805 90.3433 116 90.2406 117.079C90.0333 119.351 87.0691 121.125 84.2921 121.774C82.8608 122.15 81.2663 122.273 79.5922 122.156C78.3361 122.096 76.9138 121.956 75.6627 121.609C74.8287 121.378 73.9976 120.975 73.8414 120.32C73.6056 119.425 74.3761 118.497 74.9744 117.832C75.1456 117.626 75.7268 117.937 75.5556 118.143C74.8717 118.911 73.503 120.504 75.6707 121.15C76.671 121.462 77.8425 121.567 78.8477 121.592C80.271 121.675 81.6953 121.7 83.04 121.485C85.7304 120.996 88.0984 119.772 89.2183 118.03C89.8226 117.021 89.9342 115.426 88.0193 114.699C87.1873 114.353 86.2656 114.34 85.4276 114.339C84.5069 114.268 83.5853 114.255 82.6636 114.242C79.0576 114.373 77.1802 116.298 75.472 118.131C75.3008 118.337 74.7196 118.027 74.8908 117.82L74.9734 117.889Z" fill="#296D38"/>
<path d="M75.7034 99.7598C76.4769 98.6593 77.0842 97.4782 78.2727 96.6081C79.4612 95.7379 81.3145 95.1903 83.1508 95.6183C84.3193 95.8958 85.3982 96.5061 86.1396 97.2419C86.469 97.5754 86.7984 97.9088 86.9596 98.2764C87.691 99.5862 86.7463 100.893 85.6404 101.832C84.7068 102.508 83.6904 103.114 82.3438 103.444C79.3139 104.174 75.5557 103.421 72.3001 102.68C73.6548 101.891 74.8433 101.021 75.7024 99.8171L75.7034 99.7598Z" fill="#296D38"/>
<path d="M75.4545 99.6033C76.4868 98.0787 77.4386 96.3702 79.6313 95.5822C81.6549 94.8857 84.0784 95.2803 85.9813 96.6955C86.8084 97.3282 87.4652 98.1099 87.6184 98.9365C87.7716 99.7632 87.3385 100.566 86.7402 101.23C85.5427 102.617 83.5142 103.601 81.0786 103.895C78.224 104.188 75.1346 103.528 72.2134 102.834C71.9626 102.799 71.9666 102.57 72.0522 102.467C73.4069 101.677 74.5965 100.75 75.3699 99.6491C75.5412 99.4428 76.0387 99.7421 75.9511 99.96C75.093 101.106 73.9035 102.034 72.5478 102.881L72.3867 102.513C74.64 103.057 76.9779 103.554 79.2403 103.581C81.5026 103.608 83.4396 103.072 84.9665 102.019C86.4935 100.966 87.7786 99.3615 86.1315 97.6943C84.6507 96.1077 82.1495 95.3572 80.0424 96.0421C77.9352 96.7269 76.8979 98.5385 75.8666 100.006C75.6953 100.212 75.1977 99.9128 75.2853 99.6949L75.4545 99.6033Z" fill="#296D38"/>
<path d="M72.9384 80.8452C74.2901 80.2279 75.6418 79.6105 77.3229 79.3266C79.0041 79.0427 80.8464 79.1264 82.5105 79.818C84.1746 80.5096 85.4086 81.8317 85.2194 83.071C84.9405 84.6429 82.4989 85.2812 80.3958 85.7366C79.6393 85.8615 78.7983 86.0321 77.9612 85.9732C76.956 85.9485 69.4315 84.902 69.0195 84.4995C67.6192 83.0968 71.9241 81.337 72.9384 80.8452Z" fill="#296D38"/>
<path d="M72.6894 80.6382C75.4784 79.3003 80.0302 77.8049 83.6768 80.1529C84.9199 80.9585 85.8204 82.1768 85.466 83.278C85.1941 84.4482 83.7589 85.0539 82.3266 85.4875C80.8942 85.9211 79.2957 86.274 77.7052 86.1679C76.701 86.0857 75.615 85.8772 74.5282 85.726C73.1905 85.54 71.7692 85.3423 70.4336 85.0415C69.7647 84.9485 68.9287 84.8322 68.6022 84.3266C68.03 83.4992 68.8821 82.6973 69.5609 82.2165C70.4936 81.5983 71.5925 81.0609 72.6904 80.5808C73.0278 80.4552 73.4409 80.8002 73.1034 80.9259C72.4266 81.2919 71.6671 81.589 70.9903 81.9551C70.2288 82.3669 69.2981 82.8702 69.0343 83.5813C68.8551 84.2467 69.4403 84.3281 70.1918 84.4901C71.194 84.687 72.2799 84.8956 73.2831 85.0351C75.206 85.3026 77.2932 85.7654 79.1415 85.5047C81.8299 85.1308 86.4583 84.0488 84.3266 81.3363C83.1792 79.8536 80.7596 79.2295 78.6635 79.2831C76.4827 79.3825 74.71 80.1139 73.0198 80.9143C72.6824 81.0399 72.2694 80.6948 72.6068 80.5692L72.6894 80.6382Z" fill="#296D38"/>
<path d="M75.2667 62.4054C76.1208 61.4887 76.9749 60.572 78.3246 60.0694C79.6743 59.5669 81.6848 59.6164 83.0105 60.4911C84.3362 61.3657 84.563 62.7779 84.3757 63.9023C84.0888 65.9333 82.9629 68.0202 80.2695 68.6811C77.2406 69.3528 72.9022 68.2317 69.7222 67.962C71.8464 66.3016 73.475 64.2271 75.2677 62.348L75.2667 62.4054Z" fill="#296D38"/>
<path d="M75.0176 62.3194C76.2977 61.0018 77.748 59.5353 80.4284 59.6204C82.7734 59.7165 84.4264 61.0393 84.7338 62.6352C85.0412 64.2312 84.5105 65.8256 83.5668 67.0749C82.5375 68.4274 80.7638 69.2162 78.3332 69.2233C75.4826 69.2871 72.5624 68.5358 69.7179 68.2552C69.467 68.2204 69.3029 68.0249 69.4731 67.876C71.5983 66.1582 73.2248 64.1985 75.0186 62.262C75.1898 62.0557 75.7711 62.3667 75.5998 62.573C73.8071 64.452 72.2631 66.4808 70.0543 68.187L69.8095 67.8078C73.8255 68.1937 79.0777 69.7871 82.0469 67.7264C83.4036 66.8221 84.0149 65.4115 84.2062 64.0575C84.3974 62.7035 84.098 60.6485 81.5929 60.1275C78.6707 59.491 76.881 61.198 75.5998 62.573C75.4286 62.7792 74.8474 62.4683 75.0186 62.262L75.0176 62.3194Z" fill="#296D38"/>
<path d="M73.7244 45.2281C74.2371 44.6667 74.7497 44.1052 75.4266 43.7391C77.2023 42.8356 79.8797 43.0929 82.3043 43.4301C83.3911 43.5812 84.5616 43.744 85.4752 44.2163C86.3063 44.6195 86.9651 45.2863 87.3731 45.9183C87.7831 46.4355 88.0249 46.9869 88.0995 47.515C88.1671 48.4448 87.5668 49.2242 86.6362 49.7275C85.7055 50.2309 84.6096 50.5962 83.5147 50.9041C82.5044 51.1663 81.4932 51.4858 80.3177 51.61C76.5394 52.0049 72.1264 50.3557 68.5929 51.1298C70.7111 49.8137 72.0183 46.9467 73.5582 45.1475L73.7244 45.2281Z" fill="#296D38"/>
<path d="M73.4736 45.0851C74.0729 44.3631 74.7558 43.6527 75.8516 43.2874C76.8639 42.9104 78.122 42.8553 79.3781 42.9149C81.8903 43.0342 85.2395 43.2124 86.9691 44.9486C88.6988 46.6848 89.0858 48.5219 87.304 49.7697C86.3703 50.4452 85.0227 50.8331 83.7596 51.1751C82.4965 51.5172 81.0652 51.8934 79.5563 51.9136C76.0348 51.9991 72.202 50.7182 68.8377 51.4008C68.5013 51.4691 68.2555 51.1473 68.4257 50.9984C70.7997 49.4302 71.6799 47.0215 73.3901 45.0734C73.5613 44.8671 74.1425 45.1781 73.9712 45.3844C72.2611 47.3325 71.38 49.7986 68.9214 51.4125L68.5094 51.01C71.369 50.4298 74.5399 51.216 77.5527 51.4624C79.4777 51.6151 81.1578 51.3885 82.7583 50.9208C84.2742 50.4989 85.9574 50.1002 86.9786 49.2068C88.1702 48.1644 87.8568 46.9128 86.7899 45.614C85.6415 44.1887 83.9714 43.8414 81.9638 43.6197C80.4589 43.4104 78.8694 43.2469 77.3575 43.4393C75.6774 43.6658 74.7417 44.4561 73.8867 45.4301C73.7154 45.6364 73.1342 45.3255 73.3054 45.1192L73.4736 45.0851Z" fill="#296D38"/>
<path d="M58.4196 91.5243C58.1836 90.6446 57.2777 89.7281 56.6206 88.9591C55.3862 87.6582 54.0672 86.4019 52.6636 85.1903C49.941 82.7225 46.9657 80.3324 43.9903 77.9424C43.3293 77.3987 42.6673 76.9114 42.0054 76.4241C42.5021 76.7755 43.2526 76.9928 43.7493 77.3442C45.569 78.7266 47.304 80.1536 49.1217 81.6486C52.1787 84.163 55.2347 86.7336 57.8688 89.4715C58.0341 89.6074 58.1983 89.7996 58.3626 89.9919C58.335 86.7696 58.3075 83.5473 58.1963 80.3134C58.1618 77.4854 58.1284 74.601 58.0103 71.7614C53.8822 68.1946 49.755 64.5716 45.6268 61.0048C45.0495 60.4728 44.4711 59.9971 43.8102 59.4535C44.2223 59.8496 45.1419 59.9775 45.5541 60.3736C49.6822 63.9404 53.8094 67.5634 57.9375 71.1301C57.9769 68.877 57.849 66.6007 57.8057 64.2796C57.6945 61.0457 57.667 57.8234 57.5568 54.5332C57.4732 54.5215 57.3079 54.3856 57.2253 54.3177C53.4266 51.0791 49.5444 47.8289 45.7458 44.5903C45.1674 44.1146 44.6727 43.6505 44.0943 43.1748C44.5064 43.5709 45.4261 43.6989 45.8382 44.095C49.6369 47.3335 53.5191 50.5838 57.3178 53.8223C57.3178 53.8223 57.483 53.9582 57.482 54.0146C57.4928 53.395 57.5027 52.8317 57.4299 52.2005C57.3836 50.0484 57.3374 47.8963 57.0394 45.7657C56.2249 39.6107 56.0783 33.6051 56.0999 27.5665L56.1294 25.8766C56.1255 26.1019 57.8772 26.5714 57.8733 26.7967C57.7946 31.303 57.716 35.8092 57.9728 40.3055C61.0976 38.9333 64.2225 37.561 67.3483 36.1324L68.8679 35.4968C68.9515 35.5084 69.6971 36.0074 69.6981 35.951C66.1513 37.4905 62.6871 39.0979 59.1403 40.6373C58.8019 40.8161 58.3799 40.9833 58.0426 41.1057C58.1075 42.1876 58.255 43.3374 58.4036 44.4309C58.6997 46.6742 58.9141 48.7932 59.043 51.0132C59.1768 52.9516 59.2259 54.9347 59.2761 56.8614C63.2449 55.1548 67.2127 53.5046 71.0978 51.7863C71.7726 51.5414 72.3647 51.2285 72.9558 50.9719C73.0395 50.9835 73.785 51.4825 73.786 51.4262C69.3953 53.2999 65.0045 55.1737 60.6138 57.0475C60.1073 57.2594 59.6007 57.4712 59.1778 57.6947C59.1532 59.1029 59.2968 60.4781 59.2732 61.8299C59.3775 65.4581 59.3992 69.0184 59.5034 72.6466C59.4867 73.6042 59.469 74.6181 59.5359 75.5873C63.3444 73.4631 67.0692 71.3273 70.794 69.1915C71.3861 68.8786 71.9793 68.5094 72.5714 68.1965C72.5714 68.1965 73.4006 68.7071 73.4016 68.6507C69.1702 70.9984 65.0214 73.414 60.8736 75.7733C60.4506 75.9968 60.0267 76.2766 59.5192 76.5448C59.5162 76.7138 59.5133 76.8828 59.5103 77.0518C59.592 81.9755 59.6737 86.8993 59.7563 91.7667C59.9265 91.621 60.1812 91.4305 60.3514 91.2848C61.2868 90.5115 62.3058 89.7498 63.4074 89.056C65.3579 87.7463 67.4746 86.5161 69.5893 85.3986C70.0122 85.1751 70.5197 84.9069 70.9427 84.6834C70.9427 84.6834 71.7718 85.194 71.7728 85.1377C68.1355 87.0598 64.4963 89.0945 61.5209 91.5039C60.9258 91.9858 60.2452 92.5687 59.8164 93.1302C59.8065 93.6935 59.7967 94.2568 59.7878 94.7637C59.8784 99.1805 59.8853 103.586 59.9758 108.002C59.9758 108.002 59.9748 108.059 60.0574 108.127C60.0574 108.127 60.0574 108.127 59.9748 108.059C59.963 108.735 59.9512 109.411 59.9384 110.143C63.8305 108.03 67.7216 105.974 71.6136 103.862C72.2057 103.549 72.7988 103.18 73.4746 102.878C74.1503 102.577 74.3037 103.389 74.3047 103.333C69.9897 105.669 65.5911 107.993 61.2771 110.273C60.8532 110.552 60.3466 110.764 59.8391 111.033C59.8243 111.877 59.8096 112.722 59.7948 113.567C59.8765 118.491 59.8756 123.347 59.9582 128.214C60.3821 127.934 60.8061 127.655 61.229 127.431C62.5844 126.603 64.0224 125.843 65.4604 125.083C68.1672 123.653 70.9567 122.291 73.8288 120.996C74.2517 120.773 74.7582 120.561 75.1802 120.394C75.3484 120.36 75.6032 120.17 75.7704 120.193C76.0212 120.228 76.4323 120.681 76.6005 120.648C76.4333 120.624 76.2631 120.77 76.1786 120.815C75.7566 120.982 75.4183 121.161 75.0809 121.283C73.814 121.841 72.6308 122.41 71.4475 122.98C68.4053 124.42 65.4457 125.928 62.6513 127.572C61.7198 128.12 60.7884 128.668 60.0232 129.296C60.0104 130.028 59.9976 130.761 59.9848 131.493C60.0626 136.642 60.0557 141.836 60.1334 146.985C60.1512 150.77 60.1689 154.556 60.1866 158.341C60.166 159.524 60.1453 160.707 60.2093 161.845C60.1984 162.465 60.3548 163.108 60.1768 163.704C60.1758 163.761 60.1739 163.873 60.1729 163.93C60.1768 163.704 58.4251 163.235 58.429 163.009C58.4506 161.77 58.4723 160.531 58.4103 159.28C58.4683 155.957 58.3591 152.61 58.3344 149.219C58.2518 144.352 58.2527 139.496 58.1711 134.572C58.2212 131.699 58.1042 128.803 58.0707 125.919C57.3241 125.476 56.5776 125.034 55.9166 124.49C54.5937 123.459 53.3543 122.44 52.116 121.364C49.5567 119.145 47.0819 116.881 44.6918 114.572C44.1144 114.04 43.6197 113.576 43.126 113.056C43.2912 113.192 43.7908 113.374 44.0397 113.522C44.2885 113.669 44.7056 113.784 44.8698 113.976C48.4964 117.473 52.2065 120.982 56.2559 124.255C56.8343 124.731 57.4963 125.218 58.0746 125.694C58.1258 122.765 58.0087 119.869 57.9762 116.928C57.9506 113.593 57.925 110.258 57.8994 106.923C55.3588 103.634 52.3146 100.387 48.8464 97.4204C47.6081 96.3447 46.2025 95.2458 44.6258 94.349C45.0408 94.5761 45.7884 94.9623 46.2861 95.2574C49.107 96.892 51.4175 98.9637 53.4762 101.057C55.0421 102.573 56.4388 104.179 57.8355 105.785C57.8787 103.307 57.7548 100.805 57.7144 98.3149C57.7548 96.0055 57.6279 93.6728 57.5846 91.3518L58.4196 91.5243Z" fill="#296D38"/>
<path d="M102.359 50.1428C101.112 49.5667 99.6944 49.1395 98.3617 48.6666C97.7785 48.4704 97.1116 48.2626 96.5224 48.4108C95.8495 48.5473 95.5877 49.1436 95.5777 49.7175C95.3534 52.9652 98.2235 56.5858 102.548 58.5103C113.859 63.4774 108.428 52.9428 102.359 50.1428Z" fill="#296D38"/>
<path d="M102.191 50.3481C101.11 49.8526 99.9437 49.4603 98.7772 49.068C98.2776 48.8834 97.6944 48.6873 97.1927 48.6175C96.4403 48.5129 96.0968 48.9828 96.0052 49.4303C95.6488 50.6462 96.1254 52.1506 96.9404 53.472C98.4042 56.0341 101.385 58.1169 104.97 59.1907C106.553 59.6986 108.56 59.9777 108.835 58.6353C109.11 57.2929 108.213 55.8451 107.312 54.6269C106.083 53.0178 104.436 51.3507 102.191 50.3481C101.859 50.1868 102.2 49.8316 102.531 50.0503C104.776 51.1102 106.507 52.7317 107.736 54.3407C108.802 55.697 109.86 57.5123 109.416 58.9462C108.972 60.3801 106.712 60.2383 104.878 59.6382C100.96 58.4605 97.7323 56.1133 96.1889 53.31C95.7839 52.5058 95.4625 51.7133 95.3929 50.8983C95.2387 50.129 95.1702 49.2566 95.6838 48.6377C96.1985 47.9615 97.2864 48.0553 98.2856 48.4243C99.7865 48.8632 101.203 49.3478 102.532 49.9929C102.865 50.1542 102.524 50.452 102.192 50.2907L102.191 50.3481Z" fill="#296D38"/>
<path d="M108.023 71.9268C107.867 71.2723 107.626 70.6636 107.218 70.0316C105.99 68.3652 103.241 67.4076 100.739 66.7145C99.4042 66.3563 97.8177 66.0206 96.7209 66.4433C96.1296 66.7062 95.7036 67.1071 95.4437 67.5887C94.4044 69.5151 94.864 71.9951 96.6722 74.0298C98.4815 76.0072 103.792 79.0468 106.994 78.054C109.438 77.3009 108.412 73.6492 107.939 71.9152L108.023 71.9268Z" fill="#296D38"/>
<path d="M107.689 71.9346C107.376 70.6256 106.642 69.488 105.065 68.5785C103.738 67.8186 102.153 67.3681 100.652 66.9293C98.8169 66.4439 96.9786 66.1307 96.0359 67.3227C95.3491 68.2626 95.0762 69.4902 95.308 70.6154C95.6879 72.8542 97.4982 74.7742 100.155 76.2366C102.063 77.3074 105.808 78.8636 107.509 77.432C108.359 76.7449 108.294 75.6429 108.227 74.7131C108.159 73.7833 107.924 72.8303 107.69 71.8772C107.695 71.5903 108.198 71.5453 108.277 71.8438C108.664 73.6809 109.544 76.0468 108.177 77.5824C106.639 79.2668 102.72 78.0891 100.477 76.9718C97.4862 75.4628 95.2599 73.3699 94.7158 70.9357C94.4034 69.6267 94.5936 68.3301 95.3671 67.2297C96.1405 66.1292 97.4862 65.8562 99.3246 66.1694C101.245 66.5516 103.33 67.1866 105.074 68.062C106.984 69.0754 107.884 70.3511 108.276 71.9012C108.271 72.1881 107.767 72.2332 107.689 71.9346Z" fill="#296D38"/>
<path d="M109.971 90.0313C108.331 87.9624 105.347 86.1092 102.249 85.9085C101.664 85.8271 100.992 85.9063 100.486 86.066C99.6433 86.3515 99.2123 87.0393 99.1156 87.7737C98.8368 89.3456 99.813 91.0346 101.128 92.5405C102.36 93.9774 104.012 95.3576 106.094 96.1074C113.837 99.0251 112.515 93.1463 110.056 89.9856L109.971 90.0313Z" fill="#296D38"/>
<path d="M109.717 90.1112C108.815 89.0077 107.659 87.9842 106.164 87.2584C104.668 86.5327 102.667 85.9093 101.071 86.1474C99.2212 86.4655 99.1912 88.1871 99.5056 89.3813C99.9026 90.6445 100.72 91.8511 101.789 92.9778C102.777 94.0355 104.017 95.0133 105.514 95.6817C106.594 96.1772 108.012 96.6044 109.268 96.664C111.11 96.7477 111.633 95.6124 111.568 94.5104C111.593 93.0758 110.783 91.4675 109.717 90.1112C109.554 89.8584 110.06 89.6986 110.307 89.963C111.455 91.3883 112.18 93.0998 112.321 94.6151C112.299 95.8775 111.689 97.1734 109.679 97.1239C108.338 97.11 106.921 96.6828 105.756 96.1757C104.009 95.4724 102.603 94.3566 101.535 93.1725C100.3 91.9077 99.3184 90.5057 99.008 89.082C98.7772 87.8994 98.8858 86.4764 100.239 85.8016C101.758 85.1501 104.179 85.7169 105.843 86.4085C107.756 87.2498 109.327 88.4463 110.393 89.8025C110.64 90.0669 110.051 90.2151 109.804 89.9507L109.717 90.1112Z" fill="#296D38"/>
<path d="M107.462 108.273C106.902 106.757 106.091 105.206 104.773 103.873C103.455 102.539 101.549 101.353 99.3788 100.821C98.3775 100.567 97.2887 100.531 96.5282 100.885C96.0216 101.102 95.7628 101.527 95.5049 101.893C93.6881 105.15 96.1221 109.745 100.858 112.129C101.855 112.613 102.937 113.051 104.02 113.432C106.685 114.378 107.76 115.218 108.543 113.543C109.152 112.305 108.023 109.732 107.461 108.331L107.462 108.273Z" fill="#296D38"/>
<path d="M107.133 108.276C106.171 105.726 104.378 102.831 100.715 101.459C99.9652 101.182 99.1311 100.951 98.3777 100.903C97.1226 100.786 96.3611 101.198 95.9291 101.943C95.4104 102.849 95.2252 103.859 95.2917 104.846C95.5065 106.947 96.8927 109.153 99.2096 110.856C100.533 111.845 102.197 112.537 103.864 113.114C104.53 113.322 105.113 113.575 105.695 113.829C106.111 114.002 106.693 114.255 107.196 114.268C108.62 114.293 108.484 112.491 108.329 111.779C108.097 110.654 107.614 109.494 107.215 108.345C107.137 108.047 107.724 108.013 107.802 108.312C108.284 109.529 108.766 110.747 108.995 111.987C109.148 112.871 109.126 114.133 108.112 114.568C107.267 114.968 106.02 114.392 105.105 114.034C103.273 113.319 101.356 112.708 99.6983 111.672C96.9623 109.968 95.1611 107.532 94.7831 105.178C94.5533 103.938 94.8262 102.71 95.4315 101.644C96.0367 100.578 97.5516 100.213 99.3889 100.584C104.232 101.603 106.767 105.234 107.971 108.278C108.049 108.576 107.462 108.61 107.383 108.311L107.133 108.276Z" fill="#296D38"/>
<path d="M137.308 118.046C138.76 116.465 140.298 114.78 142.989 114.234C144.503 113.927 146.177 114.045 147.851 114.163C148.772 114.233 149.693 114.304 150.525 114.649C151.439 115.064 152.012 115.892 152.082 116.649C152.153 117.407 151.806 118.049 151.294 118.611C149.494 120.891 145.616 122.193 141.514 121.91C136.659 121.58 134.828 120.865 137.309 117.989L137.308 118.046Z" fill="#296D38"/>
<path d="M136.972 117.889C138.683 115.941 140.644 114.028 144.251 113.839C145.09 113.783 146.01 113.854 146.932 113.867C147.936 113.949 149.026 113.928 150.025 114.297C151.609 114.805 152.342 116 152.24 117.079C152.032 119.351 149.068 121.125 146.291 121.774C144.86 122.15 143.265 122.273 141.591 122.156C140.335 122.096 138.913 121.956 137.662 121.609C136.828 121.378 135.997 120.975 135.84 120.32C135.605 119.425 136.375 118.497 136.973 117.832C137.145 117.626 137.726 117.937 137.555 118.143C136.871 118.911 135.502 120.504 137.67 121.15C138.67 121.462 139.841 121.567 140.847 121.592C142.27 121.675 143.694 121.7 145.039 121.485C147.729 120.996 150.097 119.772 151.217 118.03C151.822 117.021 151.933 115.426 150.018 114.699C149.186 114.353 148.265 114.34 147.427 114.339C146.506 114.268 145.584 114.255 144.663 114.242C141.057 114.373 139.179 116.298 137.471 118.131C137.3 118.337 136.719 118.027 136.89 117.82L136.972 117.889Z" fill="#296D38"/>
<path d="M137.703 99.7598C138.477 98.6593 139.084 97.4782 140.273 96.6081C141.461 95.7379 143.315 95.1903 145.151 95.6183C146.319 95.8958 147.398 96.5061 148.14 97.2419C148.469 97.5754 148.798 97.9088 148.96 98.2764C149.691 99.5862 148.746 100.893 147.64 101.832C146.707 102.508 145.69 103.114 144.344 103.444C141.314 104.174 137.556 103.421 134.3 102.68C135.655 101.891 136.843 101.021 137.702 99.8171L137.703 99.7598Z" fill="#296D38"/>
<path d="M137.455 99.6033C138.487 98.0787 139.439 96.3702 141.631 95.5822C143.655 94.8857 146.078 95.2803 147.981 96.6955C148.808 97.3282 149.465 98.1099 149.618 98.9365C149.772 99.7632 149.339 100.566 148.74 101.23C147.543 102.617 145.514 103.601 143.079 103.895C140.224 104.188 137.135 103.528 134.213 102.834C133.963 102.799 133.967 102.57 134.052 102.467C135.407 101.677 136.596 100.75 137.37 99.6491C137.541 99.4428 138.039 99.7421 137.951 99.96C137.093 101.106 135.904 102.034 134.548 102.881L134.387 102.513C136.64 103.057 138.978 103.554 141.24 103.581C143.503 103.608 145.44 103.072 146.967 102.019C148.493 100.966 149.779 99.3615 148.132 97.6943C146.651 96.1077 144.15 95.3572 142.042 96.0421C139.935 96.7269 138.898 98.5385 137.867 100.006C137.695 100.212 137.198 99.9128 137.285 99.6949L137.455 99.6033Z" fill="#296D38"/>
<path d="M134.937 80.8452C136.289 80.2279 137.641 79.6105 139.322 79.3266C141.003 79.0427 142.845 79.1264 144.51 79.818C146.174 80.5096 147.408 81.8317 147.218 83.071C146.94 84.6429 144.498 85.2812 142.395 85.7366C141.638 85.8615 140.797 86.0321 139.96 85.9732C138.955 85.9485 131.43 84.902 131.018 84.4995C129.618 83.0968 133.923 81.337 134.937 80.8452Z" fill="#296D38"/>
<path d="M134.688 80.6382C137.477 79.3003 142.029 77.8049 145.676 80.1529C146.919 80.9585 147.819 82.1768 147.465 83.278C147.193 84.4482 145.758 85.0539 144.326 85.4875C142.893 85.9211 141.295 86.274 139.704 86.1679C138.7 86.0857 137.614 85.8772 136.527 85.726C135.19 85.54 133.768 85.3423 132.433 85.0415C131.764 84.9485 130.928 84.8322 130.601 84.3266C130.029 83.4992 130.881 82.6973 131.56 82.2165C132.493 81.5983 133.592 81.0609 134.689 80.5808C135.027 80.4552 135.44 80.8002 135.102 80.9259C134.426 81.2919 133.666 81.589 132.989 81.9551C132.228 82.3669 131.297 82.8702 131.033 83.5813C130.854 84.2467 131.439 84.3281 132.191 84.4901C133.193 84.687 134.279 84.8956 135.282 85.0351C137.205 85.3026 139.292 85.7654 141.141 85.5047C143.829 85.1308 148.457 84.0488 146.326 81.3363C145.178 79.8536 142.759 79.2295 140.663 79.2831C138.482 79.3825 136.709 80.1139 135.019 80.9143C134.681 81.0399 134.268 80.6948 134.606 80.5692L134.688 80.6382Z" fill="#296D38"/>
<path d="M137.267 62.4054C138.121 61.4887 138.975 60.572 140.325 60.0694C141.674 59.5669 143.685 59.6164 145.011 60.4911C146.336 61.3657 146.563 62.7779 146.376 63.9023C146.089 65.9333 144.963 68.0202 142.269 68.6811C139.241 69.3528 134.902 68.2317 131.722 67.962C133.846 66.3016 135.475 64.2271 137.268 62.348L137.267 62.4054Z" fill="#296D38"/>
<path d="M137.018 62.3194C138.298 61.0018 139.748 59.5353 142.428 59.6204C144.773 59.7165 146.426 61.0393 146.734 62.6352C147.041 64.2312 146.511 65.8256 145.567 67.0749C144.538 68.4274 142.764 69.2162 140.333 69.2233C137.483 69.2871 134.562 68.5358 131.718 68.2552C131.467 68.2204 131.303 68.0249 131.473 67.876C133.598 66.1582 135.225 64.1985 137.019 62.262C137.19 62.0557 137.771 62.3667 137.6 62.573C135.807 64.452 134.263 66.4808 132.054 68.187L131.809 67.8078C135.826 68.1937 141.078 69.7871 144.047 67.7264C145.404 66.8221 146.015 65.4115 146.206 64.0575C146.397 62.7035 146.098 60.6485 143.593 60.1275C140.671 59.491 138.881 61.198 137.6 62.573C137.429 62.7792 136.847 62.4683 137.019 62.262L137.018 62.3194Z" fill="#296D38"/>
<path d="M135.724 45.2281C136.237 44.6667 136.75 44.1052 137.427 43.7391C139.202 42.8356 141.88 43.0929 144.304 43.4301C145.391 43.5812 146.562 43.744 147.475 44.2163C148.306 44.6195 148.965 45.2863 149.373 45.9183C149.783 46.4355 150.025 46.9869 150.1 47.515C150.167 48.4448 149.567 49.2242 148.636 49.7275C147.705 50.2309 146.61 50.5962 145.515 50.9041C144.504 51.1663 143.493 51.4858 142.318 51.61C138.539 52.0049 134.126 50.3557 130.593 51.1298C132.711 49.8137 134.018 46.9467 135.558 45.1475L135.724 45.2281Z" fill="#296D38"/>
<path d="M135.474 45.0851C136.073 44.3631 136.756 43.6527 137.852 43.2874C138.864 42.9104 140.122 42.8553 141.378 42.9149C143.89 43.0342 147.239 43.2124 148.969 44.9486C150.699 46.6848 151.086 48.5219 149.304 49.7697C148.37 50.4452 147.023 50.8331 145.76 51.1751C144.496 51.5172 143.065 51.8934 141.556 51.9136C138.035 51.9991 134.202 50.7182 130.838 51.4008C130.501 51.4691 130.256 51.1473 130.426 50.9984C132.8 49.4302 133.68 47.0215 135.39 45.0734C135.561 44.8671 136.142 45.1781 135.971 45.3844C134.261 47.3325 133.38 49.7986 130.921 51.4125L130.509 51.01C133.369 50.4298 136.54 51.216 139.553 51.4624C141.478 51.6151 143.158 51.3885 144.758 50.9208C146.274 50.4989 147.957 50.1002 148.979 49.2068C150.17 48.1644 149.857 46.9128 148.79 45.614C147.642 44.1887 145.971 43.8414 143.964 43.6197C142.459 43.4104 140.869 43.2469 139.358 43.4393C137.677 43.6658 136.742 44.4561 135.887 45.4301C135.715 45.6364 135.134 45.3255 135.305 45.1192L135.474 45.0851Z" fill="#296D38"/>
<path d="M120.419 91.5243C120.183 90.6446 119.277 89.7281 118.62 88.9591C117.385 87.6582 116.066 86.4019 114.663 85.1903C111.94 82.7225 108.965 80.3324 105.989 77.9424C105.328 77.3987 104.666 76.9114 104.004 76.4241C104.501 76.7755 105.252 76.9928 105.748 77.3442C107.568 78.7266 109.303 80.1536 111.121 81.6486C114.178 84.163 117.234 86.7336 119.868 89.4715C120.033 89.6074 120.197 89.7996 120.362 89.9919C120.334 86.7696 120.306 83.5473 120.195 80.3134C120.161 77.4854 120.127 74.601 120.009 71.7614C115.881 68.1946 111.754 64.5716 107.626 61.0048C107.048 60.4728 106.47 59.9971 105.809 59.4535C106.221 59.8496 107.141 59.9775 107.553 60.3736C111.681 63.9404 115.808 67.5634 119.937 71.1301C119.976 68.877 119.848 66.6007 119.805 64.2796C119.694 61.0457 119.666 57.8234 119.556 54.5332C119.472 54.5215 119.307 54.3856 119.224 54.3177C115.426 51.0791 111.543 47.8289 107.745 44.5903C107.166 44.1146 106.672 43.6505 106.093 43.1748C106.505 43.5709 107.425 43.6989 107.837 44.095C111.636 47.3335 115.518 50.5838 119.317 53.8223C119.317 53.8223 119.482 53.9582 119.481 54.0146C119.492 53.395 119.502 52.8317 119.429 52.2005C119.383 50.0484 119.336 47.8963 119.038 45.7657C118.224 39.6107 118.077 33.6051 118.099 27.5665L118.128 25.8766C118.125 26.1019 119.876 26.5714 119.872 26.7967C119.794 31.303 119.715 35.8092 119.972 40.3055C123.097 38.9333 126.221 37.561 129.347 36.1324L130.867 35.4968C130.951 35.5084 131.696 36.0074 131.697 35.951C128.15 37.4905 124.686 39.0979 121.139 40.6373C120.801 40.8161 120.379 40.9833 120.042 41.1057C120.107 42.1876 120.254 43.3374 120.403 44.4309C120.699 46.6742 120.913 48.7932 121.042 51.0132C121.176 52.9516 121.225 54.9347 121.275 56.8614C125.244 55.1548 129.212 53.5046 133.097 51.7863C133.772 51.5414 134.364 51.2285 134.955 50.9719C135.038 50.9835 135.784 51.4825 135.785 51.4262C131.394 53.2999 127.004 55.1737 122.613 57.0475C122.106 57.2594 121.6 57.4712 121.177 57.6947C121.152 59.1029 121.296 60.4781 121.272 61.8299C121.377 65.4581 121.398 69.0184 121.502 72.6466C121.486 73.6042 121.468 74.6181 121.535 75.5873C125.343 73.4631 129.068 71.3273 132.793 69.1915C133.385 68.8786 133.978 68.5094 134.57 68.1965C134.57 68.1965 135.4 68.7071 135.401 68.6507C131.169 70.9984 127.02 73.414 122.873 75.7733C122.45 75.9968 122.026 76.2766 121.518 76.5448C121.515 76.7138 121.512 76.8828 121.509 77.0518C121.591 81.9755 121.673 86.8993 121.755 91.7667C121.926 91.621 122.18 91.4305 122.35 91.2848C123.286 90.5115 124.305 89.7498 125.406 89.056C127.357 87.7463 129.474 86.5161 131.588 85.3986C132.011 85.1751 132.519 84.9069 132.942 84.6834C132.942 84.6834 133.771 85.194 133.772 85.1377C130.135 87.0598 126.495 89.0945 123.52 91.5039C122.925 91.9858 122.244 92.5687 121.815 93.1302C121.806 93.6935 121.796 94.2568 121.787 94.7637C121.877 99.1805 121.884 103.586 121.975 108.002C121.975 108.002 121.974 108.059 122.056 108.127C122.056 108.127 122.056 108.127 121.974 108.059C121.962 108.735 121.95 109.411 121.937 110.143C125.83 108.03 129.721 105.974 133.613 103.862C134.205 103.549 134.798 103.18 135.474 102.878C136.149 102.577 136.303 103.389 136.304 103.333C131.989 105.669 127.59 107.993 123.276 110.273C122.852 110.552 122.346 110.764 121.838 111.033C121.823 111.877 121.809 112.722 121.794 113.567C121.876 118.491 121.875 123.347 121.957 128.214C122.381 127.934 122.805 127.655 123.228 127.431C124.583 126.603 126.021 125.843 127.459 125.083C130.166 123.653 132.956 122.291 135.828 120.996C136.251 120.773 136.757 120.561 137.179 120.394C137.347 120.36 137.602 120.17 137.769 120.193C138.02 120.228 138.431 120.681 138.6 120.648C138.432 120.624 138.262 120.77 138.178 120.815C137.756 120.982 137.417 121.161 137.08 121.283C135.813 121.841 134.63 122.41 133.447 122.98C130.404 124.42 127.445 125.928 124.65 127.572C123.719 128.12 122.787 128.668 122.022 129.296C122.009 130.028 121.997 130.761 121.984 131.493C122.062 136.642 122.055 141.836 122.132 146.985C122.15 150.77 122.168 154.556 122.186 158.341C122.165 159.524 122.144 160.707 122.208 161.845C122.197 162.465 122.354 163.108 122.176 163.704C122.175 163.761 122.173 163.873 122.172 163.93C122.176 163.704 120.424 163.235 120.428 163.009C120.45 161.77 120.471 160.531 120.409 159.28C120.467 155.957 120.358 152.61 120.333 149.219C120.251 144.352 120.252 139.496 120.17 134.572C120.22 131.699 120.103 128.803 120.07 125.919C119.323 125.476 118.577 125.034 117.916 124.49C116.593 123.459 115.353 122.44 114.115 121.364C111.556 119.145 109.081 116.881 106.691 114.572C106.113 114.04 105.619 113.576 105.125 113.056C105.29 113.192 105.79 113.374 106.039 113.522C106.288 113.669 106.705 113.784 106.869 113.976C110.495 117.473 114.206 120.982 118.255 124.255C118.833 124.731 119.495 125.218 120.074 125.694C120.125 122.765 120.008 119.869 119.975 116.928C119.95 113.593 119.924 110.258 119.898 106.923C117.358 103.634 114.314 100.387 110.845 97.4204C109.607 96.3447 108.201 95.2458 106.625 94.349C107.04 94.5761 107.787 94.9623 108.285 95.2574C111.106 96.892 113.417 98.9637 115.475 101.057C117.041 102.573 118.438 104.179 119.834 105.785C119.878 103.307 119.754 100.805 119.713 98.3149C119.754 96.0055 119.627 93.6728 119.584 91.3518L120.419 91.5243Z" fill="#296D38"/>
<ellipse cx="122.5" cy="152.491" rx="52.5" ry="14.5" fill="#FFC200"/>
<path d="M70 153.955L72.4882 156.848C76.4396 159.401 80.8014 161.253 85.3819 162.324L92.891 164.08L100.355 165.045L106.825 165.527L121.754 166.491L139.171 165.527L149.779 164.099C154.638 163.446 159.419 162.309 164.052 160.705C168.218 159.774 171.894 157.339 174.375 153.866L175 152.991V169.866C168.421 173.691 161.195 176.274 153.682 177.487L150.118 178.063L134.194 179.027H121.754C114.134 179.027 106.525 178.454 98.9915 177.314L94.3839 176.616L89.4489 175.462C83.1304 173.984 76.9551 171.95 70.9953 169.384L70 153.955Z" fill="#D6AC24"/>
<path d="M168.823 39.1659C167.445 36.5006 164.222 33.8665 160.377 33.2742C159.876 33.2045 159.29 33.1231 158.868 33.2945C158.193 33.5458 158.181 34.2344 158.255 34.8199C158.399 36.163 158.543 37.5062 159.191 38.8043C160.243 40.9639 164.518 45.7003 167.941 46.464C172.115 47.3897 169.881 40.9812 168.824 39.1085L168.823 39.1659Z" fill="#296D38"/>
<path d="M168.48 39.1763C167.182 36.6949 164.128 34.0266 160.283 33.4344C158.945 33.2483 158.435 33.6376 158.42 34.4984C158.406 35.3018 158.561 36.0711 158.714 36.8977C158.946 38.0229 159.43 39.0683 160.249 40.1601C161.723 42.1483 163.697 44.3211 166.355 45.6688C167.186 46.072 168.434 46.5907 169.195 46.1789C169.872 45.8128 169.887 44.952 169.897 44.3782C169.926 42.714 169.289 40.842 168.396 39.1647C168.234 38.8545 168.82 38.8785 168.983 39.1313C169.874 40.9234 170.593 42.9218 170.479 44.6891C170.467 45.3777 170.284 46.2153 169.439 46.6155C168.594 47.0156 167.427 46.6807 166.512 46.2659C164.932 45.5859 163.693 44.5507 162.537 43.5271C161.383 42.4462 160.313 41.3194 159.495 40.1702C158.595 38.8946 158.115 37.6198 157.886 36.3224C157.737 35.2662 157.019 33.153 159.034 32.973C161.048 32.793 163.459 33.9336 165.033 34.9579C166.857 36.1319 168.171 37.6378 168.982 39.1887C169.144 39.4989 168.558 39.4749 168.395 39.2221L168.48 39.1763Z" fill="#296D38"/>
<path d="M163.36 53.5413C162.113 52.9652 160.695 52.538 159.363 52.065C158.779 51.8688 158.113 51.6611 157.523 51.8092C156.851 51.9457 156.589 52.5421 156.579 53.1159C156.354 56.3637 159.224 59.9842 163.549 61.9087C174.86 66.8758 169.429 56.3412 163.36 53.5413Z" fill="#296D38"/>
<path d="M163.192 53.7465C162.111 53.2511 160.945 52.8587 159.778 52.4664C159.279 52.2819 158.695 52.0857 158.194 52.0159C157.441 51.9113 157.098 52.3813 157.006 52.8287C156.65 54.0447 157.126 55.5491 157.941 56.8705C159.405 59.4326 162.386 61.5153 165.971 62.5892C167.554 63.097 169.561 63.3761 169.836 62.0337C170.111 60.6913 169.214 59.2436 168.313 58.0253C167.084 56.4163 165.437 54.7491 163.192 53.7465C162.86 53.5853 163.201 53.2301 163.532 53.4487C165.777 54.5087 167.508 56.1301 168.737 57.7392C169.803 59.0954 170.861 60.9108 170.417 62.3447C169.973 63.7785 167.713 63.6368 165.879 63.0366C161.961 61.8589 158.733 59.5117 157.19 56.7084C156.785 55.9043 156.463 55.1117 156.394 54.2967C156.24 53.5275 156.171 52.655 156.685 52.0362C157.199 51.3599 158.287 51.4537 159.287 51.8228C160.787 52.2616 162.204 52.7462 163.533 53.3913C163.866 53.5526 163.525 53.8504 163.193 53.6891L163.192 53.7465Z" fill="#296D38"/>
<path d="M169.024 75.3253C168.868 74.6708 168.627 74.062 168.219 73.4301C166.991 71.7636 164.242 70.806 161.74 70.1129C160.405 69.7547 158.819 69.419 157.722 69.8417C157.131 70.1046 156.705 70.5056 156.445 70.9872C155.405 72.9135 155.865 75.3935 157.673 77.4283C159.482 79.4056 164.793 82.4452 167.995 81.4524C170.439 80.6993 169.413 77.0476 168.94 75.3136L169.024 75.3253Z" fill="#296D38"/>
<path d="M168.69 75.333C168.377 74.0241 167.643 72.8865 166.066 71.9769C164.739 71.217 163.154 70.7666 161.653 70.3277C159.818 69.8424 157.98 69.5292 157.037 70.7211C156.35 71.6611 156.077 72.8886 156.309 74.0138C156.689 76.2526 158.499 78.1726 161.156 79.6351C163.064 80.7059 166.809 82.2621 168.51 80.8304C169.36 80.1433 169.295 79.0413 169.228 78.1115C169.16 77.1817 168.925 76.2287 168.691 75.2756C168.696 74.9887 169.199 74.9437 169.278 75.2422C169.665 77.0793 170.545 79.4453 169.178 80.9808C167.64 82.6652 163.721 81.4875 161.478 80.3702C158.487 78.8613 156.261 76.7684 155.717 74.3342C155.404 73.0252 155.595 71.7286 156.368 70.6281C157.142 69.5277 158.487 69.2546 160.326 69.5678C162.246 69.95 164.331 70.585 166.075 71.4604C167.985 72.4739 168.885 73.7495 169.277 75.2997C169.272 75.5866 168.768 75.6316 168.69 75.333Z" fill="#296D38"/>
<path d="M170.972 93.4297C169.332 91.3608 166.348 89.5076 163.25 89.307C162.665 89.2256 161.993 89.3047 161.487 89.4645C160.644 89.7499 160.213 90.4378 160.117 91.1722C159.838 92.7441 160.814 94.433 162.129 95.9389C163.361 97.3758 165.013 98.7561 167.095 99.5059C174.838 102.424 173.516 96.5447 171.057 93.384L170.972 93.4297Z" fill="#296D38"/>
<path d="M170.718 93.5096C169.816 92.4062 168.66 91.3826 167.164 90.6569C165.669 89.9311 163.668 89.3077 162.072 89.5459C160.222 89.8639 160.192 91.5855 160.507 92.7797C160.904 94.043 161.721 95.2496 162.79 96.3763C163.778 97.434 165.018 98.4118 166.515 99.0802C167.595 99.5756 169.013 100.003 170.269 100.062C172.111 100.146 172.634 99.0108 172.569 97.9088C172.594 96.4742 171.784 94.8659 170.718 93.5096C170.555 93.2568 171.061 93.0971 171.308 93.3615C172.456 94.7868 173.181 96.4982 173.322 98.0135C173.3 99.276 172.69 100.572 170.68 100.522C169.339 100.508 167.922 100.081 166.757 99.5741C165.01 98.8709 163.604 97.755 162.536 96.5709C161.301 95.3062 160.319 93.9042 160.009 92.4804C159.778 91.2978 159.887 89.8748 161.24 89.2C162.759 88.5486 165.18 89.1153 166.844 89.8069C168.757 90.6482 170.328 91.8447 171.394 93.201C171.641 93.4654 171.052 93.6135 170.805 93.3491L170.718 93.5096Z" fill="#296D38"/>
<path d="M168.463 111.672C167.903 110.156 167.092 108.605 165.774 107.271C164.456 105.937 162.55 104.752 160.38 104.22C159.379 103.966 158.29 103.929 157.529 104.284C157.023 104.501 156.764 104.925 156.506 105.292C154.689 108.548 157.123 113.144 161.859 115.528C162.856 116.012 163.938 116.45 165.021 116.83C167.686 117.776 168.761 118.616 169.544 116.942C170.153 115.703 169.024 113.13 168.462 111.729L168.463 111.672Z" fill="#296D38"/>
<path d="M168.134 111.675C167.172 109.125 165.379 106.229 161.716 104.857C160.966 104.58 160.132 104.349 159.379 104.302C158.124 104.185 157.362 104.597 156.93 105.342C156.411 106.248 156.226 107.257 156.293 108.245C156.507 110.345 157.894 112.551 160.211 114.254C161.534 115.244 163.198 115.935 164.864 116.512C165.531 116.72 166.114 116.974 166.696 117.227C167.112 117.4 167.694 117.654 168.197 117.666C169.621 117.691 169.485 115.889 169.33 115.177C169.098 114.052 168.615 112.892 168.216 111.744C168.138 111.445 168.725 111.412 168.803 111.71C169.285 112.928 169.767 114.145 169.996 115.385C170.149 116.269 170.127 117.532 169.113 117.966C168.268 118.366 167.021 117.79 166.106 117.433C164.274 116.718 162.357 116.106 160.699 115.07C157.963 113.367 156.162 110.93 155.784 108.577C155.554 107.337 155.827 106.109 156.432 105.043C157.038 103.976 158.553 103.612 160.39 103.982C165.233 105.001 167.768 108.632 168.972 111.676C169.05 111.975 168.463 112.008 168.384 111.71L168.134 111.675Z" fill="#296D38"/>
<path d="M198.309 121.444C199.761 119.863 201.299 118.179 203.99 117.633C205.504 117.326 207.178 117.443 208.852 117.561C209.773 117.632 210.694 117.702 211.526 118.048C212.44 118.463 213.013 119.29 213.083 120.048C213.154 120.805 212.807 121.448 212.295 122.009C210.495 124.29 206.617 125.591 202.515 125.308C197.66 124.978 195.829 124.263 198.31 121.387L198.309 121.444Z" fill="#296D38"/>
<path d="M197.973 121.288C199.684 119.34 201.645 117.426 205.252 117.238C206.091 117.182 207.011 117.252 207.933 117.266C208.937 117.348 210.027 117.327 211.026 117.696C212.61 118.204 213.343 119.399 213.241 120.477C213.033 122.749 210.069 124.523 207.292 125.172C205.861 125.549 204.266 125.672 202.592 125.554C201.336 125.495 199.914 125.354 198.663 125.008C197.829 124.777 196.998 124.373 196.841 123.719C196.606 122.823 197.376 121.895 197.974 121.23C198.146 121.024 198.727 121.335 198.556 121.541C197.872 122.309 196.503 123.902 198.671 124.549C199.671 124.86 200.842 124.966 201.848 124.99C203.271 125.073 204.695 125.099 206.04 124.883C208.73 124.394 211.098 123.171 212.218 121.428C212.823 120.419 212.934 118.824 211.019 118.097C210.187 117.752 209.266 117.738 208.428 117.737C207.507 117.666 206.585 117.653 205.664 117.64C202.058 117.771 200.18 119.696 198.472 121.53C198.301 121.736 197.72 121.425 197.891 121.219L197.973 121.288Z" fill="#296D38"/>
<path d="M198.704 103.158C199.478 102.058 200.085 100.877 201.274 100.007C202.462 99.1363 204.315 98.5887 206.152 99.0167C207.32 99.2943 208.399 99.9045 209.141 100.64C209.47 100.974 209.799 101.307 209.961 101.675C210.692 102.985 209.747 104.291 208.641 105.231C207.708 105.906 206.691 106.512 205.345 106.843C202.315 107.572 198.557 106.819 195.301 106.079C196.656 105.289 197.844 104.419 198.703 103.216L198.704 103.158Z" fill="#296D38"/>
<path d="M198.456 103.002C199.488 101.477 200.44 99.7687 202.632 98.9807C204.656 98.2842 207.079 98.6788 208.982 100.094C209.809 100.727 210.466 101.508 210.619 102.335C210.773 103.162 210.339 103.964 209.741 104.629C208.544 106.016 206.515 106.999 204.08 107.293C201.225 107.586 198.136 106.927 195.214 106.233C194.964 106.198 194.968 105.968 195.053 105.865C196.408 105.076 197.597 104.148 198.371 103.048C198.542 102.841 199.04 103.141 198.952 103.358C198.094 104.505 196.905 105.432 195.549 106.279L195.388 105.912C197.641 106.455 199.979 106.953 202.241 106.98C204.504 107.007 206.441 106.471 207.967 105.418C209.494 104.364 210.78 102.76 209.132 101.093C207.652 99.5062 205.15 98.7556 203.043 99.4405C200.936 100.125 199.899 101.937 198.868 103.404C198.696 103.611 198.199 103.311 198.286 103.093L198.456 103.002Z" fill="#296D38"/>
<path d="M195.938 84.2437C197.29 83.6263 198.642 83.009 200.323 82.725C202.004 82.4411 203.846 82.5248 205.51 83.2164C207.175 83.9081 208.409 85.2302 208.219 86.4694C207.941 88.0413 205.499 88.6797 203.396 89.135C202.639 89.2599 201.798 89.4306 200.961 89.3717C199.956 89.3469 192.431 88.3004 192.019 87.898C190.619 86.4952 194.924 84.7354 195.938 84.2437Z" fill="#296D38"/>
<path d="M195.689 84.0366C198.478 82.6988 203.03 81.2034 206.677 83.5513C207.92 84.357 208.82 85.5752 208.466 86.6764C208.194 87.8466 206.759 88.4523 205.327 88.8859C203.894 89.3195 202.296 89.6725 200.705 89.5663C199.701 89.4842 198.615 89.2756 197.528 89.1245C196.19 88.9384 194.769 88.7407 193.434 88.4399C192.765 88.3469 191.929 88.2306 191.602 87.7251C191.03 86.8976 191.882 86.0957 192.561 85.6149C193.494 84.9968 194.593 84.4593 195.69 83.9792C196.028 83.8536 196.441 84.1987 196.103 84.3243C195.427 84.6904 194.667 84.9874 193.99 85.3535C193.229 85.7653 192.298 86.2686 192.034 86.9798C191.855 87.6451 192.44 87.7265 193.192 87.8886C194.194 88.0855 195.28 88.294 196.283 88.4336C198.206 88.701 200.293 89.1639 202.141 88.9032C204.83 88.5293 209.458 87.4472 207.327 84.7347C206.179 83.252 203.76 82.6279 201.663 82.6815C199.483 82.7809 197.71 83.5123 196.02 84.3127C195.682 84.4383 195.269 84.0933 195.607 83.9676L195.689 84.0366Z" fill="#296D38"/>
<path d="M198.268 65.8038C199.122 64.8872 199.976 63.9705 201.326 63.4679C202.675 62.9653 204.686 63.0148 206.011 63.8895C207.337 64.7642 207.564 66.1763 207.377 67.3008C207.09 69.3318 205.964 71.4186 203.27 72.0795C200.242 72.7512 195.903 71.6301 192.723 71.3605C194.847 69.7 196.476 67.6255 198.269 65.7464L198.268 65.8038Z" fill="#296D38"/>
<path d="M198.019 65.7178C199.299 64.4002 200.749 62.9337 203.429 63.0189C205.774 63.1149 207.427 64.4378 207.735 66.0337C208.042 67.6296 207.511 69.224 206.568 70.4734C205.538 71.8259 203.765 72.6146 201.334 72.6218C198.484 72.6855 195.563 71.9342 192.719 71.6537C192.468 71.6188 192.304 71.4234 192.474 71.2745C194.599 69.5567 196.226 67.5969 198.02 65.6605C198.191 65.4542 198.772 65.7651 198.601 65.9714C196.808 67.8505 195.264 69.8792 193.055 71.5854L192.81 71.2062C196.826 71.5922 202.079 73.1855 205.048 71.1249C206.405 70.2206 207.016 68.81 207.207 67.456C207.398 66.102 207.099 64.047 204.594 63.526C201.672 62.8895 199.882 64.5964 198.601 65.9714C198.43 66.1777 197.848 65.8667 198.02 65.6605L198.019 65.7178Z" fill="#296D38"/>
<path d="M196.725 48.6266C197.238 48.0651 197.751 47.5036 198.428 47.1376C200.203 46.234 202.881 46.4913 205.305 46.8285C206.392 46.9797 207.563 47.1425 208.476 47.6147C209.307 48.0179 209.966 48.6848 210.374 49.3168C210.784 49.834 211.026 50.3853 211.101 50.9134C211.168 51.8432 210.568 52.6226 209.637 53.126C208.706 53.6293 207.611 53.9946 206.516 54.3025C205.505 54.5647 204.494 54.8843 203.319 55.0084C199.54 55.4034 195.127 53.7542 191.594 54.5283C193.712 53.2122 195.019 50.3451 196.559 48.5459L196.725 48.6266Z" fill="#296D38"/>
<path d="M196.475 48.4835C197.074 47.7615 197.757 47.0511 198.853 46.6858C199.865 46.3089 201.123 46.2537 202.379 46.3134C204.891 46.4326 208.24 46.6108 209.97 48.347C211.7 50.0832 212.087 51.9203 210.305 53.1682C209.371 53.8437 208.024 54.2315 206.761 54.5736C205.497 54.9156 204.066 55.2918 202.557 55.312C199.036 55.3975 195.203 54.1167 191.839 54.7993C191.502 54.8675 191.256 54.5457 191.427 54.3968C193.801 52.8287 194.681 50.42 196.391 48.4719C196.562 48.2656 197.143 48.5765 196.972 48.7828C195.262 50.7309 194.381 53.197 191.922 54.8109L191.51 54.4085C194.37 53.8282 197.541 54.6144 200.554 54.8608C202.479 55.0135 204.159 54.7869 205.759 54.3192C207.275 53.8973 208.958 53.4986 209.98 52.6052C211.171 51.5629 210.858 50.3113 209.791 49.0124C208.642 47.5871 206.972 47.2398 204.965 47.0181C203.46 46.8088 201.87 46.6453 200.359 46.8377C198.678 47.0642 197.743 47.8545 196.888 48.8286C196.716 49.0349 196.135 48.7239 196.306 48.5176L196.475 48.4835Z" fill="#296D38"/>
<path d="M181.42 94.9228C181.184 94.043 180.278 93.1265 179.621 92.3576C178.386 91.0566 177.067 89.8003 175.664 88.5888C172.941 86.1209 169.966 83.7309 166.99 81.3408C166.329 80.7972 165.667 80.3099 165.005 79.8225C165.502 80.1739 166.253 80.3913 166.749 80.7427C168.569 82.125 170.304 83.5521 172.122 85.0471C175.179 87.5614 178.235 90.1321 180.869 92.8699C181.034 93.0058 181.198 93.1981 181.363 93.3903C181.335 90.168 181.307 86.9457 181.196 83.7118C181.162 80.8838 181.128 77.9994 181.01 75.1598C176.882 71.5931 172.755 67.97 168.627 64.4033C168.049 63.8713 167.471 63.3956 166.81 62.8519C167.222 63.248 168.142 63.3759 168.554 63.7721C172.682 67.3388 176.809 70.9618 180.938 74.5286C180.977 72.2755 180.849 69.9991 180.806 67.6781C180.695 64.4441 180.667 61.2219 180.557 57.9316C180.473 57.92 180.308 57.7841 180.225 57.7161C176.427 54.4775 172.544 51.2273 168.746 47.9887C168.167 47.513 167.673 47.049 167.094 46.5733C167.506 46.9694 168.426 47.0973 168.838 47.4934C172.637 50.732 176.519 53.9822 180.318 57.2208C180.318 57.2208 180.483 57.3567 180.482 57.413C180.493 56.7934 180.503 56.2301 180.43 55.5989C180.384 53.4468 180.337 51.2948 180.039 49.1641C179.225 43.0092 179.078 37.0036 179.1 30.9649L179.129 29.2751C179.125 29.5004 180.877 29.9699 180.873 30.1952C180.795 34.7014 180.716 39.2076 180.973 43.704C184.098 42.3317 187.222 40.9595 190.348 39.5309L191.868 38.8952C191.952 38.9069 192.697 39.4058 192.698 39.3495C189.151 40.8889 185.687 42.4963 182.14 44.0358C181.802 44.2146 181.38 44.3817 181.043 44.5042C181.108 45.586 181.255 46.7359 181.404 47.8293C181.7 50.0726 181.914 52.1916 182.043 54.4116C182.177 56.35 182.226 58.3331 182.276 60.2599C186.245 58.5533 190.213 56.903 194.098 55.1848C194.773 54.9398 195.365 54.6269 195.956 54.3703C196.039 54.382 196.785 54.8809 196.786 54.8246C192.395 56.6984 188.005 58.5721 183.614 60.4459C183.107 60.6578 182.601 60.8697 182.178 61.0932C182.153 62.5014 182.297 63.8765 182.273 65.2284C182.377 68.8566 182.399 72.4168 182.503 76.045C182.487 77.0026 182.469 78.0165 182.536 78.9857C186.344 76.8615 190.069 74.7258 193.794 72.59C194.386 72.2771 194.979 71.9079 195.571 71.595C195.571 71.595 196.401 72.1055 196.402 72.0492C192.17 74.3968 188.021 76.8125 183.874 79.1717C183.451 79.3952 183.027 79.6751 182.519 79.9433C182.516 80.1123 182.513 80.2812 182.51 80.4502C182.592 85.374 182.674 90.2977 182.756 95.1651C182.926 95.0194 183.181 94.829 183.351 94.6832C184.287 93.9099 185.306 93.1482 186.407 92.4545C188.358 91.1447 190.475 89.9146 192.589 88.7971C193.012 88.5736 193.52 88.3054 193.943 88.0819C193.943 88.0819 194.772 88.5924 194.773 88.5361C191.136 90.4582 187.496 92.493 184.521 94.9024C183.926 95.3843 183.245 95.9672 182.816 96.5286C182.807 97.0919 182.797 97.6552 182.788 98.1622C182.878 102.579 182.885 106.984 182.976 111.401C182.976 111.401 182.975 111.457 183.057 111.525C183.057 111.525 183.057 111.525 182.975 111.457C182.963 112.133 182.951 112.809 182.938 113.541C186.83 111.429 190.722 109.373 194.614 107.26C195.206 106.947 195.799 106.578 196.475 106.277C197.15 105.975 197.304 106.787 197.305 106.731C192.99 109.067 188.591 111.391 184.277 113.671C183.853 113.951 183.347 114.163 182.839 114.431C182.824 115.276 182.81 116.121 182.795 116.966C182.877 121.889 182.876 126.745 182.958 131.613C183.382 131.333 183.806 131.053 184.229 130.83C185.584 130.002 187.022 129.242 188.46 128.482C191.167 127.051 193.957 125.689 196.829 124.395C197.252 124.171 197.758 123.959 198.18 123.792C198.348 123.759 198.603 123.568 198.77 123.592C199.021 123.627 199.432 124.079 199.601 124.046C199.433 124.023 199.263 124.168 199.179 124.213C198.757 124.38 198.418 124.559 198.081 124.682C196.814 125.239 195.631 125.809 194.448 126.378C191.405 127.819 188.446 129.327 185.651 130.971C184.72 131.519 183.788 132.067 183.023 132.695C183.01 133.427 182.998 134.159 182.985 134.891C183.063 140.04 183.056 145.234 183.133 150.383C183.151 154.169 183.169 157.954 183.187 161.74C183.166 162.923 183.145 164.106 183.209 165.244C183.198 165.863 183.355 166.506 183.177 167.103C183.176 167.159 183.174 167.272 183.173 167.328C183.177 167.103 181.425 166.633 181.429 166.408C181.451 165.169 181.472 163.929 181.41 162.679C181.468 159.355 181.359 156.009 181.334 152.617C181.252 147.75 181.253 142.894 181.171 137.97C181.221 135.098 181.104 132.202 181.071 129.317C180.324 128.875 179.578 128.432 178.917 127.889C177.594 126.858 176.354 125.838 175.116 124.763C172.557 122.543 170.082 120.279 167.692 117.971C167.114 117.439 166.62 116.975 166.126 116.454C166.291 116.59 166.791 116.773 167.04 116.92C167.289 117.068 167.706 117.182 167.87 117.374C171.496 120.871 175.206 124.38 179.256 127.653C179.834 128.129 180.496 128.616 181.075 129.092C181.126 126.163 181.009 123.267 180.976 120.326C180.951 116.992 180.925 113.657 180.899 110.322C178.359 107.032 175.315 103.786 171.846 100.819C170.608 99.7431 169.202 98.6442 167.626 97.7474C168.041 97.9745 168.788 98.3608 169.286 98.6559C172.107 100.29 174.418 102.362 176.476 104.455C178.042 105.972 179.439 107.578 180.835 109.183C180.879 106.705 180.755 104.203 180.714 101.713C180.755 99.4039 180.628 97.0712 180.585 94.7502L181.42 94.9228Z" fill="#296D38"/>
<ellipse cx="164.5" cy="173.491" rx="52.5" ry="14.5" fill="#FFC200"/>
<path d="M112 174.955L114.488 177.848C118.44 180.401 122.801 182.253 127.382 183.324L134.891 185.08L142.355 186.045L148.825 186.527L163.754 187.491L181.171 186.527L191.779 185.099C196.638 184.446 201.419 183.309 206.052 181.705C210.218 180.774 213.894 178.339 216.375 174.866L217 173.991V190.866C210.421 194.691 203.195 197.274 195.682 198.487L192.118 199.063L176.194 200.027H163.754C156.134 200.027 148.525 199.454 140.992 198.314L136.384 197.616L131.449 196.462C125.13 194.984 118.955 192.95 112.995 190.384L112 174.955Z" fill="#D6AC24"/>
<ellipse cx="65.5" cy="171.491" rx="51.5" ry="14.5" fill="#FFC200"/>
<path d="M14 172.955L16.4408 175.848C20.3162 178.4 24.6074 180.256 29.121 181.332L36.455 183.08L43.7773 184.045L50.1232 184.527L64.7678 185.491L81.8531 184.527L92.2469 183.101C97.021 182.446 101.716 181.309 106.261 179.705C110.345 178.775 113.938 176.36 116.342 172.929L117 171.991V188.866C110.548 192.69 103.439 195.277 96.039 196.495L92.5924 197.063L76.9716 198.027H64.7678C57.2938 198.027 49.8307 197.454 42.4442 196.314L37.9194 195.616L33.0975 194.467C26.8871 192.986 20.8223 190.95 14.9763 188.384L14 172.955Z" fill="#D6AC24"/>
</svg>
