<svg width="489" height="220" viewBox="0 0 489 220" fill="none" xmlns="http://www.w3.org/2000/svg">
<g clip-path="url(#clip0_8617_14224)">
<rect width="488" height="219" transform="translate(0.611084 0.499969)" fill="white"/>
<path d="M364.204 166.36C352.217 165.789 340.014 169.798 328.039 170.166C324.616 165.032 315.564 162.627 313.288 167.576C309.469 175.877 308.861 181.819 311.331 191.104C316.82 211.733 323.826 231.885 329.414 252.437C332.584 264.096 328.018 278.609 326.453 290.082C323.927 308.609 319.016 328.496 321.007 347.291C322.506 361.443 328.078 375.878 336.34 387.474C339.701 392.192 346.227 392.779 351.462 394.136C367.497 398.294 383.517 402.907 399.629 406.72C436.002 415.328 473.573 415.835 510.768 415.233C535.507 414.833 563.822 415.928 588.174 409.84C593.404 408.532 597.947 406.134 600.018 400.957C603.924 391.193 600.575 379.534 594.836 371.507C584.77 357.426 568.307 341.246 566.179 323.075C565.395 316.377 571.954 306.768 568.506 300.445C566.668 297.077 561.709 294.979 558.83 292.726C554.865 289.623 550.913 285.96 548.678 281.358C542.155 267.929 530.558 263.406 518.699 255.292C516.26 253.623 515.917 247.798 514.892 245.246C510.57 234.487 503.268 225.745 497.867 215.637C494.962 210.2 494.219 200.621 486.764 200.621C480.552 200.621 474.486 199.67 468.258 199.67C465.805 199.67 454.622 201.603 452.925 198.718C451.618 196.496 450.571 193.921 448.484 192.267C444.124 188.812 434.902 189.865 429.714 190.628C424.46 191.401 417.753 192.815 412.477 192.003C411.293 191.821 410.4 187.76 409.834 186.769C406.811 181.48 400.317 175.509 393.707 175.877C387.993 176.194 383.553 177.018 377.581 175.824C371.777 174.663 370.371 166.653 364.204 166.36Z" fill="#948578"/>
<rect x="0.611084" y="0.499969" width="329.221" height="219.481" rx="3" fill="#FFF7FA"/>
<mask id="mask0_8617_14224" style="mask-type:alpha" maskUnits="userSpaceOnUse" x="0" y="0" width="330" height="220">
<rect x="0.611084" y="0.499969" width="329.221" height="219.481" rx="3" fill="#D9D9D9"/>
</mask>
<g mask="url(#mask0_8617_14224)">
<path d="M234.285 141.436V211.5" stroke="#B1B1B1" stroke-width="1.5" stroke-linecap="square"/>
<path d="M280.309 147.089H219.774" stroke="#B1B1B1" stroke-width="1.5" stroke-linecap="square"/>
<path d="M307.938 157.827L219.774 157.827" stroke="#B1B1B1" stroke-width="1.5" stroke-linecap="square"/>
<path d="M307.938 170.416L219.774 170.416" stroke="#B1B1B1" stroke-width="1.5" stroke-linecap="square"/>
<path d="M307.938 174.062L219.774 174.062" stroke="#B1B1B1" stroke-width="1.5" stroke-linecap="square"/>
<path d="M244.121 141.436V211.5" stroke="#B1B1B1" stroke-width="1.5" stroke-linecap="square"/>
<path d="M256.192 141.436V211.5" stroke="#B1B1B1" stroke-width="1.5" stroke-linecap="square"/>
<path d="M270.499 143.205V211.5" stroke="#B1B1B1" stroke-width="1.5" stroke-linecap="square"/>
<path d="M278.323 145.028V211.5" stroke="#B1B1B1" stroke-width="1.5" stroke-linecap="square"/>
<path d="M285.923 152.178L285.923 211.5" stroke="#B1B1B1" stroke-width="1.5" stroke-linecap="square"/>
<path d="M297.88 156.067V211.5" stroke="#B1B1B1" stroke-width="1.5" stroke-linecap="square"/>
<path d="M305.079 156.067V211.5" stroke="#B1B1B1" stroke-width="1.5" stroke-linecap="square"/>
<rect x="195.218" y="140.486" width="32.9341" height="72.0943" rx="3" fill="#134E78"/>
<rect x="195.218" y="153.023" width="72.5219" height="59.5577" rx="3" fill="#134E78"/>
<rect x="195.218" y="162.263" width="84.2257" height="50.3178" rx="3" fill="#134E78"/>
<rect x="195.218" y="178.433" width="112.727" height="34.1481" rx="3" fill="#134E78"/>
<path d="M-27.9404 -13.2084H346.283V26.3852H-27.9404V-13.2084Z" fill="#AF0042"/>
<circle cx="318.913" cy="15.5788" r="4.22274" fill="#CC004D"/>
<circle cx="306.245" cy="15.5788" r="4.22274" fill="#CC004D"/>
<circle cx="293.577" cy="15.5788" r="4.22274" fill="#CC004D"/>
<circle cx="35.0339" cy="16.6202" r="1.13159" fill="#792E4A"/>
<circle cx="30.5076" cy="16.6202" r="1.13159" fill="#792E4A"/>
<circle cx="25.9812" cy="16.6203" r="1.13159" fill="#792E4A"/>
<path fill-rule="evenodd" clip-rule="evenodd" d="M28.6126 35.2921L32.0015 38.681C32.2094 38.8889 32.2094 39.2261 32.0015 39.4341L28.6126 42.8229C28.4046 43.0309 28.0675 43.0309 27.8595 42.8229C27.6515 42.615 27.6515 42.2778 27.8595 42.0699L30.3393 39.59H23.6372C23.3432 39.59 23.1047 39.3516 23.1047 39.0575C23.1047 38.7634 23.3432 38.525 23.6372 38.525H30.3393L27.8595 36.0452C27.6515 35.8372 27.6515 35.5 27.8595 35.2921C28.0675 35.0841 28.4046 35.0841 28.6126 35.2921Z" fill="#D04A70"/>
<path fill-rule="evenodd" clip-rule="evenodd" d="M8.92476 35.2921L5.53587 38.681C5.32791 38.8889 5.32791 39.2261 5.53587 39.4341L8.92476 42.8229C9.13272 43.0309 9.46989 43.0309 9.67784 42.8229C9.8858 42.615 9.8858 42.2778 9.67784 42.0699L7.19801 39.59H13.9001C14.1942 39.59 14.4326 39.3516 14.4326 39.0575C14.4326 38.7634 14.1942 38.525 13.9001 38.525H7.19801L9.67784 36.0452C9.8858 35.8372 9.8858 35.5 9.67784 35.2921C9.46989 35.0841 9.13272 35.0841 8.92476 35.2921Z" fill="#D04A70"/>
<path fill-rule="evenodd" clip-rule="evenodd" d="M45.1595 35.7229C43.3603 35.7229 41.9017 37.1815 41.9017 38.9807C41.9017 40.78 43.3603 42.2386 45.1595 42.2386C46.7735 42.2386 48.1143 41.0644 48.3724 39.5236L49.4301 39.7008C49.0868 41.7497 47.306 43.3109 45.1595 43.3109C42.768 43.3109 40.8293 41.3722 40.8293 38.9807C40.8293 36.5892 42.768 34.6505 45.1595 34.6505C47.2564 34.6505 49.004 36.1404 49.4039 38.1189L48.3528 38.3313C48.052 36.8432 46.736 35.7229 45.1595 35.7229Z" fill="#D04A70"/>
<path fill-rule="evenodd" clip-rule="evenodd" d="M49.8822 35.2459V38.09C49.8822 38.3861 49.6422 38.6262 49.346 38.6262H46.6763C46.3802 38.6262 46.1401 38.3861 46.1401 38.09C46.1401 37.7939 46.3802 37.5538 46.6763 37.5538H48.8099V35.2459C48.8099 34.9497 49.0499 34.7097 49.346 34.7097C49.6422 34.7097 49.8822 34.9497 49.8822 35.2459Z" fill="#D04A70"/>
<path d="M125.474 9.20727C125.474 6.08247 128.007 3.54932 131.132 3.54932H180.664C183.789 3.54932 186.322 6.08247 186.322 9.20727V21.0267C186.322 26.6846 194.209 26.6846 191.084 26.6846H120.365C117.24 26.6846 125.474 26.6846 125.474 21.0267V9.20727Z" fill="#FFF7FA"/>
<path d="M260.084 9.45901V18.5117" stroke="#6D0029" stroke-width="1.5" stroke-linecap="round"/>
<path d="M264.61 13.9854L255.557 13.9854" stroke="#6D0029" stroke-width="1.5" stroke-linecap="round"/>
<path d="M233.475 10.7848L239.876 17.186" stroke="#6D0029" stroke-width="1.5" stroke-linecap="round"/>
<path d="M239.876 10.7848L233.475 17.186" stroke="#6D0029" stroke-width="1.5" stroke-linecap="round"/>
<path d="M172.278 10.7848L178.679 17.186" stroke="#6D0029" stroke-width="1.5" stroke-linecap="round"/>
<path d="M178.678 10.7848L172.277 17.186" stroke="#6D0029" stroke-width="1.5" stroke-linecap="round"/>
<path d="M111.08 10.7847L117.481 17.1859" stroke="#6D0029" stroke-width="1.5" stroke-linecap="round"/>
<path d="M117.481 10.7847L111.079 17.1859" stroke="#6D0029" stroke-width="1.5" stroke-linecap="round"/>
<path d="M49.8823 10.7847L56.2836 17.1859" stroke="#6D0029" stroke-width="1.5" stroke-linecap="round"/>
<path d="M56.2834 10.7847L49.8822 17.1859" stroke="#6D0029" stroke-width="1.5" stroke-linecap="round"/>
<path d="M62.4766 7.16113V20.8096" stroke="#9A003A" stroke-width="1.5" stroke-linecap="round"/>
<path d="M248.643 7.16113V20.8096" stroke="#9A003A" stroke-width="1.5" stroke-linecap="round"/>
<path d="M312.273 32.1565V45.805" stroke="#ECC8D6" stroke-width="1.5" stroke-linecap="round"/>
<rect x="56.2903" y="32.8915" width="244.8" height="12.1783" rx="6.08917" fill="#ECC8D6"/>
<path d="M14.9946 17.0503C14.5214 17.3857 14.1176 17.8664 14.0075 18.4359C13.8097 19.4581 12.8137 19.4212 11.7215 18.856C10.4639 18.2053 9.30326 15.866 9.56337 14.5373C9.61225 14.2875 9.4901 13.8748 9.73567 13.8081C10.1131 13.7056 11.7305 14.9707 13.8559 14.7134C14.6916 14.7134 16.0132 16.328 14.9946 17.0503Z" fill="#792E4A"/>
<path d="M16.0754 14.506C15.7661 14.0729 15.2862 13.743 14.7552 13.708C13.2983 13.612 13.0022 12.4274 13.7781 11.3994C14.6667 10.4463 16.3911 9.64796 17.4837 10.4268C17.5685 10.4873 17.6567 10.5449 17.7523 10.5863C18.9231 11.0939 19.2812 11.4136 19.3253 13.6386C19.3469 14.7384 17.1002 15.9409 16.0754 14.506Z" fill="#792E4A"/>
<path fill-rule="evenodd" clip-rule="evenodd" d="M14.6138 18.5379C16.9767 18.5379 18.8923 16.6223 18.8923 14.2594C18.8923 11.8964 16.9767 9.98083 14.6138 9.98083C12.2508 9.98083 10.3352 11.8964 10.3352 14.2594C10.3352 16.6223 12.2508 18.5379 14.6138 18.5379ZM14.6138 19.9173C17.7386 19.9173 20.2717 17.3842 20.2717 14.2594C20.2717 11.1346 17.7386 8.60141 14.6138 8.60141C11.489 8.60141 8.95581 11.1346 8.95581 14.2594C8.95581 17.3842 11.489 19.9173 14.6138 19.9173Z" fill="#792E4A"/>
<circle cx="95.8335" cy="15.7974" r="1.13159" fill="#792E4A"/>
<circle cx="91.3071" cy="15.7974" r="1.13159" fill="#792E4A"/>
<circle cx="86.7808" cy="15.7974" r="1.13159" fill="#792E4A"/>
<path d="M75.7941 16.2274C75.321 16.5629 74.9172 17.0435 74.807 17.613C74.6093 18.6353 73.6133 18.5984 72.521 18.0332C71.2634 17.3824 70.1028 15.0431 70.3629 13.7144C70.4118 13.4647 70.2897 13.0519 70.5352 12.9852C70.9127 12.8828 72.5301 14.1478 74.6554 13.8905C75.4911 13.8905 76.8127 15.5052 75.7941 16.2274Z" fill="#792E4A"/>
<path d="M76.8749 13.6831C76.5657 13.25 76.0857 12.9201 75.5548 12.8851C74.0978 12.7891 73.8018 11.6045 74.5776 10.5765C75.4663 9.62347 77.1906 8.82509 78.2832 9.60389C78.3681 9.66437 78.4563 9.722 78.5519 9.76345C79.7227 10.271 80.0808 10.5907 80.1248 12.8158C80.1465 13.9155 77.8998 15.118 76.8749 13.6831Z" fill="#792E4A"/>
<path fill-rule="evenodd" clip-rule="evenodd" d="M75.4133 17.7151C77.7763 17.7151 79.6919 15.7995 79.6919 13.4365C79.6919 11.0736 77.7763 9.15801 75.4133 9.15801C73.0504 9.15801 71.1348 11.0736 71.1348 13.4365C71.1348 15.7995 73.0504 17.7151 75.4133 17.7151ZM75.4133 19.0945C78.5381 19.0945 81.0713 16.5613 81.0713 13.4365C81.0713 10.3117 78.5381 7.77859 75.4133 7.77859C72.2885 7.77859 69.7554 10.3117 69.7554 13.4365C69.7554 16.5613 72.2885 19.0945 75.4133 19.0945Z" fill="#792E4A"/>
<circle cx="218.228" cy="16.5412" r="1.13159" fill="#792E4A"/>
<circle cx="213.702" cy="16.5412" r="1.13159" fill="#792E4A"/>
<circle cx="209.175" cy="16.5412" r="1.13159" fill="#792E4A"/>
<circle cx="320.386" cy="35.6891" r="0.822924" transform="rotate(-90 320.386 35.6891)" fill="#D04A70"/>
<circle cx="320.386" cy="38.9807" r="0.822924" transform="rotate(-90 320.386 38.9807)" fill="#D04A70"/>
<circle cx="320.386" cy="42.2725" r="0.822924" transform="rotate(-90 320.386 42.2725)" fill="#D04A70"/>
<path d="M198.188 16.9713C197.715 17.3068 197.311 17.7874 197.201 18.3569C197.004 19.3792 196.008 19.3422 194.915 18.7771C193.658 18.1263 192.497 15.787 192.757 14.4583C192.806 14.2086 192.684 13.7958 192.93 13.7291C193.307 13.6267 194.924 14.8917 197.05 14.6344C197.885 14.6344 199.207 16.2491 198.188 16.9713Z" fill="#792E4A"/>
<path d="M199.269 14.427C198.96 13.994 198.48 13.6641 197.949 13.6291C196.492 13.5331 196.196 12.3484 196.972 11.3205C197.861 10.3674 199.585 9.56905 200.678 10.3478C200.762 10.4083 200.851 10.466 200.946 10.5074C202.117 11.015 202.475 11.3346 202.519 13.5597C202.541 14.6595 200.294 15.862 199.269 14.427Z" fill="#792E4A"/>
<path fill-rule="evenodd" clip-rule="evenodd" d="M197.808 18.459C200.171 18.459 202.086 16.5435 202.086 14.1805C202.086 11.8175 200.171 9.90197 197.808 9.90197C195.445 9.90197 193.529 11.8175 193.529 14.1805C193.529 16.5435 195.445 18.459 197.808 18.459ZM197.808 19.8385C200.932 19.8385 203.466 17.3053 203.466 14.1805C203.466 11.0557 200.932 8.52255 197.808 8.52255C194.683 8.52255 192.15 11.0557 192.15 14.1805C192.15 17.3053 194.683 19.8385 197.808 19.8385Z" fill="#792E4A"/>
<rect x="14.7827" y="58.2654" width="163.458" height="15.0859" rx="3" fill="#134E78"/>
<rect x="195.218" y="58.2077" width="112.727" height="72.0943" rx="3" fill="#A4C9E4"/>
<rect x="13.8184" y="83.9121" width="163.458" height="110.495" rx="3" fill="#CFE7F8"/>
</g>
<rect x="291.965" y="67.5529" width="25.8761" height="73.1641" stroke="#D6D6D6"/>
<path fill-rule="evenodd" clip-rule="evenodd" d="M366.568 55.3447V157.625H377.951V55.3447H366.568ZM365.271 52.7505C364.555 52.7505 363.974 53.3312 363.974 54.0476V158.922C363.974 159.639 364.555 160.219 365.271 160.219H379.248C379.964 160.219 380.545 159.639 380.545 158.922V54.0476C380.545 53.3312 379.964 52.7505 379.248 52.7505H365.271Z" fill="#A0A9B0"/>
<path fill-rule="evenodd" clip-rule="evenodd" d="M365.651 53.6682C366.215 53.227 367.03 53.3268 367.472 53.8912L379.314 69.0377C379.755 69.602 379.655 70.4172 379.091 70.8585C378.526 71.2997 377.711 71.1999 377.27 70.6355L365.428 55.4891C364.987 54.9247 365.086 54.1095 365.651 53.6682Z" fill="#A0A9B0"/>
<path fill-rule="evenodd" clip-rule="evenodd" d="M379.09 53.6682C378.526 53.227 377.711 53.3268 377.27 53.8912L365.428 69.0377C364.986 69.602 365.086 70.4172 365.651 70.8585C366.215 71.2997 367.03 71.1999 367.471 70.6355L379.313 55.4891C379.755 54.9247 379.655 54.1095 379.09 53.6682Z" fill="#A0A9B0"/>
<path fill-rule="evenodd" clip-rule="evenodd" d="M365.651 68.8147C366.215 68.3734 367.03 68.4732 367.472 69.0376L379.314 84.1841C379.755 84.7485 379.655 85.5637 379.091 86.0049C378.526 86.4461 377.711 86.3463 377.27 85.7819L365.428 70.6355C364.987 70.0711 365.086 69.2559 365.651 68.8147Z" fill="#A0A9B0"/>
<path fill-rule="evenodd" clip-rule="evenodd" d="M379.09 68.8147C378.526 68.3734 377.711 68.4732 377.27 69.0376L365.428 84.1841C364.986 84.7485 365.086 85.5637 365.651 86.0049C366.215 86.4461 367.03 86.3463 367.471 85.7819L379.313 70.6355C379.755 70.0711 379.655 69.2559 379.09 68.8147Z" fill="#A0A9B0"/>
<path fill-rule="evenodd" clip-rule="evenodd" d="M365.651 83.9612C366.215 83.5199 367.03 83.6198 367.472 84.1841L379.314 99.3306C379.755 99.895 379.655 100.71 379.091 101.151C378.526 101.593 377.711 101.493 377.27 100.928L365.428 85.782C364.987 85.2176 365.086 84.4024 365.651 83.9612Z" fill="#A0A9B0"/>
<path fill-rule="evenodd" clip-rule="evenodd" d="M379.09 83.9612C378.526 83.5199 377.711 83.6197 377.27 84.1841L365.428 99.3306C364.986 99.8949 365.086 100.71 365.651 101.151C366.215 101.593 367.03 101.493 367.471 100.928L379.313 85.782C379.755 85.2176 379.655 84.4024 379.09 83.9612Z" fill="#A0A9B0"/>
<path fill-rule="evenodd" clip-rule="evenodd" d="M365.651 99.1076C366.215 98.6663 367.03 98.7662 367.472 99.3305L379.314 114.477C379.755 115.041 379.655 115.857 379.091 116.298C378.526 116.739 377.711 116.639 377.27 116.075L365.428 100.928C364.987 100.364 365.086 99.5488 365.651 99.1076Z" fill="#A0A9B0"/>
<path fill-rule="evenodd" clip-rule="evenodd" d="M379.09 99.1075C378.526 98.6663 377.711 98.7661 377.27 99.3305L365.428 114.477C364.986 115.041 365.086 115.857 365.651 116.298C366.215 116.739 367.03 116.639 367.471 116.075L379.313 100.928C379.755 100.364 379.655 99.5488 379.09 99.1075Z" fill="#A0A9B0"/>
<path fill-rule="evenodd" clip-rule="evenodd" d="M365.651 114.254C366.215 113.813 367.03 113.913 367.472 114.477L379.314 129.623C379.755 130.188 379.655 131.003 379.091 131.444C378.526 131.885 377.711 131.786 377.27 131.221L365.428 116.075C364.987 115.51 365.086 114.695 365.651 114.254Z" fill="#A0A9B0"/>
<path fill-rule="evenodd" clip-rule="evenodd" d="M379.09 114.254C378.526 113.813 377.711 113.913 377.27 114.477L365.428 129.623C364.986 130.188 365.086 131.003 365.651 131.444C366.215 131.885 367.03 131.786 367.471 131.221L379.313 116.075C379.755 115.51 379.655 114.695 379.09 114.254Z" fill="#A0A9B0"/>
<path fill-rule="evenodd" clip-rule="evenodd" d="M365.651 129.401C366.215 128.959 367.03 129.059 367.472 129.623L379.314 144.77C379.755 145.334 379.655 146.15 379.091 146.591C378.526 147.032 377.711 146.932 377.27 146.368L365.428 131.221C364.987 130.657 365.086 129.842 365.651 129.401Z" fill="#A0A9B0"/>
<path fill-rule="evenodd" clip-rule="evenodd" d="M379.09 129.401C378.526 128.959 377.711 129.059 377.27 129.623L365.428 144.77C364.986 145.334 365.086 146.15 365.651 146.591C366.215 147.032 367.03 146.932 367.471 146.368L379.313 131.221C379.755 130.657 379.655 129.842 379.09 129.401Z" fill="#A0A9B0"/>
<path fill-rule="evenodd" clip-rule="evenodd" d="M365.77 142.565C366.334 142.124 367.149 142.224 367.591 142.788L379.432 157.935C379.874 158.499 379.774 159.314 379.209 159.755C378.645 160.197 377.83 160.097 377.389 159.533L365.547 144.386C365.106 143.822 365.205 143.006 365.77 142.565Z" fill="#A0A9B0"/>
<path fill-rule="evenodd" clip-rule="evenodd" d="M379.21 142.565C378.645 142.124 377.83 142.224 377.389 142.788L365.547 157.935C365.106 158.499 365.205 159.314 365.77 159.755C366.334 160.197 367.149 160.097 367.591 159.532L379.432 144.386C379.874 143.822 379.774 143.006 379.21 142.565Z" fill="#A0A9B0"/>
<path fill-rule="evenodd" clip-rule="evenodd" d="M366.568 161.212V263.493H377.951V161.212H366.568ZM365.271 158.618C364.555 158.618 363.974 159.199 363.974 159.915V264.79C363.974 265.506 364.555 266.087 365.271 266.087H379.248C379.964 266.087 380.545 265.506 380.545 264.79V159.915C380.545 159.199 379.964 158.618 379.248 158.618H365.271Z" fill="#A0A9B0"/>
<path fill-rule="evenodd" clip-rule="evenodd" d="M365.65 159.536C366.215 159.095 367.03 159.194 367.471 159.759L379.313 174.905C379.754 175.47 379.654 176.285 379.09 176.726C378.526 177.167 377.711 177.068 377.269 176.503L365.427 161.357C364.986 160.792 365.086 159.977 365.65 159.536Z" fill="#A0A9B0"/>
<path fill-rule="evenodd" clip-rule="evenodd" d="M379.09 159.536C378.526 159.095 377.711 159.194 377.269 159.759L365.427 174.905C364.986 175.47 365.086 176.285 365.65 176.726C366.215 177.167 367.03 177.068 367.471 176.503L379.313 161.357C379.754 160.792 379.654 159.977 379.09 159.536Z" fill="#A0A9B0"/>
<path fill-rule="evenodd" clip-rule="evenodd" d="M365.65 174.682C366.215 174.241 367.03 174.341 367.471 174.905L379.313 190.052C379.754 190.616 379.654 191.431 379.09 191.873C378.526 192.314 377.711 192.214 377.269 191.65L365.427 176.503C364.986 175.939 365.086 175.124 365.65 174.682Z" fill="#A0A9B0"/>
<path fill-rule="evenodd" clip-rule="evenodd" d="M379.09 174.682C378.526 174.241 377.711 174.341 377.269 174.905L365.427 190.052C364.986 190.616 365.086 191.431 365.65 191.873C366.215 192.314 367.03 192.214 367.471 191.65L379.313 176.503C379.754 175.939 379.654 175.124 379.09 174.682Z" fill="#A0A9B0"/>
<path fill-rule="evenodd" clip-rule="evenodd" d="M365.65 189.829C366.215 189.388 367.03 189.487 367.471 190.052L379.313 205.198C379.754 205.763 379.654 206.578 379.09 207.019C378.526 207.46 377.711 207.36 377.269 206.796L365.427 191.65C364.986 191.085 365.086 190.27 365.65 189.829Z" fill="#A0A9B0"/>
<path fill-rule="evenodd" clip-rule="evenodd" d="M379.09 189.829C378.526 189.388 377.711 189.487 377.269 190.052L365.427 205.198C364.986 205.763 365.086 206.578 365.65 207.019C366.215 207.46 367.03 207.36 367.471 206.796L379.313 191.65C379.754 191.085 379.654 190.27 379.09 189.829Z" fill="#A0A9B0"/>
<path fill-rule="evenodd" clip-rule="evenodd" d="M365.65 204.975C366.215 204.534 367.03 204.634 367.471 205.198L379.313 220.345C379.754 220.909 379.654 221.724 379.09 222.165C378.526 222.607 377.711 222.507 377.269 221.943L365.427 206.796C364.986 206.232 365.086 205.416 365.65 204.975Z" fill="#A0A9B0"/>
<path fill-rule="evenodd" clip-rule="evenodd" d="M379.09 204.975C378.526 204.534 377.711 204.634 377.269 205.198L365.427 220.345C364.986 220.909 365.086 221.724 365.65 222.165C366.215 222.607 367.03 222.507 367.471 221.943L379.313 206.796C379.754 206.232 379.654 205.416 379.09 204.975Z" fill="#A0A9B0"/>
<path fill-rule="evenodd" clip-rule="evenodd" d="M283.489 66.7273H398.556V55.3447L294.763 55.3447L283.489 66.7273ZM279.457 67.1116C278.646 67.9305 279.226 69.3215 280.378 69.3215L399.853 69.3215C400.57 69.3215 401.15 68.7408 401.15 68.0244V54.0476C401.15 53.3312 400.57 52.7504 399.853 52.7504L294.222 52.7504C293.876 52.7504 293.545 52.8888 293.301 53.1348L279.457 67.1116Z" fill="#A0A9B0"/>
<path fill-rule="evenodd" clip-rule="evenodd" d="M294.599 67.645C294.158 67.0807 294.258 66.2655 294.822 65.8242L309.969 53.9824C310.533 53.5411 311.348 53.6409 311.789 54.2053C312.231 54.7697 312.131 55.5849 311.567 56.0261L296.42 67.868C295.856 68.3092 295.041 68.2094 294.599 67.645Z" fill="#A0A9B0"/>
<path fill-rule="evenodd" clip-rule="evenodd" d="M294.599 54.2053C294.158 54.7696 294.258 55.5848 294.822 56.0261L309.969 67.8679C310.533 68.3092 311.348 68.2093 311.789 67.645C312.231 67.0806 312.131 66.2654 311.567 65.8242L296.42 53.9823C295.856 53.5411 295.041 53.6409 294.599 54.2053Z" fill="#A0A9B0"/>
<path fill-rule="evenodd" clip-rule="evenodd" d="M288.165 59.501C287.659 60.0076 287.659 60.8289 288.165 61.3354L294.704 67.8741C295.211 68.3807 296.032 68.3807 296.538 67.8741C297.045 67.3676 297.045 66.5463 296.538 66.0397L290 59.501C289.493 58.9945 288.672 58.9945 288.165 59.501Z" fill="#A0A9B0"/>
<path fill-rule="evenodd" clip-rule="evenodd" d="M309.746 67.645C309.305 67.0807 309.405 66.2655 309.969 65.8242L325.115 53.9824C325.68 53.5411 326.495 53.6409 326.936 54.2053C327.377 54.7697 327.278 55.5849 326.713 56.0261L311.567 67.868C311.002 68.3092 310.187 68.2094 309.746 67.645Z" fill="#A0A9B0"/>
<path fill-rule="evenodd" clip-rule="evenodd" d="M309.746 54.2053C309.305 54.7696 309.405 55.5848 309.969 56.0261L325.115 67.8679C325.68 68.3092 326.495 68.2093 326.936 67.645C327.377 67.0806 327.278 66.2654 326.713 65.8242L311.567 53.9823C311.002 53.5411 310.187 53.6409 309.746 54.2053Z" fill="#A0A9B0"/>
<path fill-rule="evenodd" clip-rule="evenodd" d="M324.892 67.645C324.451 67.0807 324.551 66.2655 325.115 65.8242L340.262 53.9824C340.826 53.5411 341.641 53.6409 342.082 54.2053C342.524 54.7697 342.424 55.5849 341.86 56.0261L326.713 67.868C326.149 68.3092 325.333 68.2094 324.892 67.645Z" fill="#A0A9B0"/>
<path fill-rule="evenodd" clip-rule="evenodd" d="M324.892 54.2053C324.451 54.7696 324.551 55.5848 325.115 56.0261L340.262 67.8679C340.826 68.3092 341.641 68.2093 342.082 67.645C342.524 67.0806 342.424 66.2654 341.86 65.8242L326.713 53.9823C326.149 53.5411 325.333 53.6409 324.892 54.2053Z" fill="#A0A9B0"/>
<path fill-rule="evenodd" clip-rule="evenodd" d="M340.039 67.645C339.598 67.0807 339.698 66.2655 340.262 65.8242L355.408 53.9824C355.973 53.5411 356.788 53.6409 357.229 54.2053C357.67 54.7697 357.571 55.5849 357.006 56.0261L341.86 67.868C341.295 68.3092 340.48 68.2094 340.039 67.645Z" fill="#A0A9B0"/>
<path fill-rule="evenodd" clip-rule="evenodd" d="M340.039 54.2053C339.598 54.7696 339.698 55.5848 340.262 56.0261L355.408 67.8679C355.973 68.3092 356.788 68.2093 357.229 67.645C357.67 67.0806 357.571 66.2654 357.006 65.8242L341.86 53.9823C341.295 53.5411 340.48 53.6409 340.039 54.2053Z" fill="#A0A9B0"/>
<path fill-rule="evenodd" clip-rule="evenodd" d="M355.185 67.645C354.744 67.0807 354.844 66.2655 355.408 65.8242L370.555 53.9824C371.119 53.5411 371.934 53.6409 372.375 54.2053C372.817 54.7697 372.717 55.5849 372.152 56.0261L357.006 67.868C356.442 68.3092 355.626 68.2094 355.185 67.645Z" fill="#A0A9B0"/>
<path fill-rule="evenodd" clip-rule="evenodd" d="M355.185 54.2053C354.744 54.7696 354.844 55.5848 355.408 56.0261L370.555 67.8679C371.119 68.3092 371.934 68.2093 372.375 67.645C372.817 67.0806 372.717 66.2654 372.152 65.8242L357.006 53.9823C356.442 53.5411 355.626 53.6409 355.185 54.2053Z" fill="#A0A9B0"/>
<path fill-rule="evenodd" clip-rule="evenodd" d="M370.332 67.645C369.89 67.0807 369.99 66.2655 370.555 65.8242L385.701 53.9824C386.265 53.5411 387.081 53.6409 387.522 54.2053C387.963 54.7697 387.863 55.5849 387.299 56.0261L372.153 67.868C371.588 68.3092 370.773 68.2094 370.332 67.645Z" fill="#A0A9B0"/>
<path fill-rule="evenodd" clip-rule="evenodd" d="M370.332 54.2053C369.89 54.7696 369.99 55.5848 370.555 56.0261L385.701 67.8679C386.265 68.3092 387.081 68.2093 387.522 67.645C387.963 67.0806 387.863 66.2654 387.299 65.8242L372.153 53.9823C371.588 53.5411 370.773 53.6409 370.332 54.2053Z" fill="#A0A9B0"/>
<path fill-rule="evenodd" clip-rule="evenodd" d="M383.496 67.5261C383.055 66.9618 383.155 66.1466 383.719 65.7053L398.866 53.8635C399.43 53.4222 400.245 53.522 400.687 54.0864C401.128 54.6508 401.028 55.466 400.464 55.9072L385.317 67.7491C384.753 68.1903 383.938 68.0905 383.496 67.5261Z" fill="#A0A9B0"/>
<path fill-rule="evenodd" clip-rule="evenodd" d="M383.496 54.0864C383.055 54.6507 383.155 55.4659 383.719 55.9072L398.866 67.749C399.43 68.1903 400.245 68.0904 400.687 67.5261C401.128 66.9617 401.028 66.1465 400.464 65.7053L385.317 53.8634C384.753 53.4222 383.938 53.522 383.496 54.0864Z" fill="#A0A9B0"/>
<path d="M365.199 46.6335C365.385 46.3565 365.696 46.1903 366.03 46.1903H385.434C385.986 46.1903 386.434 46.638 386.434 47.1903V74.422C386.434 74.9743 385.986 75.422 385.434 75.422H357.862C357.419 75.422 357.029 75.1307 356.904 74.7061L353.812 64.2731C353.728 63.9878 353.775 63.6796 353.94 63.4323L365.199 46.6335Z" fill="#485A6B"/>
<rect x="399.549" y="51.4576" width="5.52773" height="19.6763" rx="1" fill="#485A6B"/>
<rect x="290.084" y="122.027" width="29.6389" height="19.1898" rx="2" fill="#134E78"/>
<rect x="357.51" y="207.547" width="29.4991" height="10.8058" rx="1" fill="#485A6B"/>
<rect x="354.752" y="216.94" width="35.0161" height="2.56003" rx="1" fill="#485A6B"/>
<ellipse cx="19.2794" cy="13.631" rx="19.2794" ry="13.631" transform="matrix(-1 0 0 1 461.752 56.1549)" fill="#CDCDCD"/>
<path d="M411.609 107.057C411.609 121.966 425.123 144.859 441.793 144.859C458.463 144.859 471.977 121.966 471.977 107.057C471.977 92.1477 458.463 84.2491 441.793 84.2491C425.123 84.2491 411.609 92.1477 411.609 107.057Z" fill="#CDCDCD"/>
<path d="M449.284 75.6288C447.208 75.6288 445.38 74.2434 445.38 72.3725C445.38 70.5015 447.208 69.1162 449.284 69.1162C451.36 69.1162 453.188 70.5015 453.188 72.3725C453.188 74.2434 451.36 75.6288 449.284 75.6288Z" fill="#2E969F" stroke="#CDCDCD" stroke-width="0.8"/>
<path d="M435.058 75.6288C432.982 75.6288 431.154 74.2434 431.154 72.3725C431.154 70.5015 432.982 69.1162 435.058 69.1162C437.134 69.1162 438.962 70.5015 438.962 72.3725C438.962 74.2434 437.134 75.6288 435.058 75.6288Z" fill="#2E969F" stroke="#CDCDCD" stroke-width="0.8"/>
<path d="M441.586 36.6919C443.009 40.1101 443.275 42.1174 441.586 46.0638" stroke="#535353" stroke-width="0.8" stroke-linecap="round" stroke-linejoin="round"/>
<circle cx="3.08776" cy="3.08776" r="3.08776" transform="matrix(-1 0 0 1 443.473 30.5164)" fill="#75F4FF"/>
<path d="M465.436 62.7687C465.436 63.9456 455.155 66.9644 442.473 66.9644C429.791 66.9644 419.51 63.9456 419.51 62.7687C419.51 61.5918 429.791 60.6378 442.473 60.6378C455.155 60.6378 465.436 61.5918 465.436 62.7687Z" fill="#FCB040"/>
<path d="M442.463 42.0706C431.614 42.0706 422.819 51.3374 422.819 62.7686C438.899 64.16 447.564 64.184 462.106 62.7686C462.106 51.3374 453.311 42.0706 442.463 42.0706Z" fill="#FFC200"/>
<mask id="mask1_8617_14224" style="mask-type:alpha" maskUnits="userSpaceOnUse" x="422" y="39" width="41" height="22">
<path d="M442.463 39.6456C431.614 39.6456 422.819 48.9124 422.819 60.3436H462.106C462.106 48.9124 453.311 39.6456 442.463 39.6456Z" fill="#FFC200"/>
</mask>
<g mask="url(#mask1_8617_14224)">
<rect x="436.443" y="33.9812" width="12.0398" height="36.4438" fill="#FCB040"/>
</g>
<path d="M408.46 94.8515C408.366 94.2457 408.835 93.6991 409.448 93.6991H477.695C478.302 93.6991 478.769 94.2357 478.685 94.837L475.037 121.035C474.969 121.529 474.546 121.897 474.047 121.897H413.49C412.996 121.897 412.576 121.537 412.501 121.049L408.46 94.8515Z" fill="#134E78"/>
<path d="M472.785 93.4941C472.785 92.9418 473.232 92.4941 473.784 92.4941L479.509 92.4941C480.113 92.494 480.578 93.0238 480.501 93.6219L476.833 122.072C476.769 122.57 476.344 122.944 475.841 122.944L473.784 122.944C473.232 122.944 472.784 122.496 472.784 121.944L472.785 93.4941Z" fill="#134E78"/>
<path d="M414.158 93.4941C414.158 92.9418 413.71 92.4941 413.158 92.4941L407.433 92.4941C406.83 92.494 406.364 93.0238 406.441 93.6219L410.11 122.072C410.174 122.57 410.599 122.944 411.102 122.944L413.158 122.944C413.711 122.944 414.158 122.496 414.158 121.944L414.158 93.4941Z" fill="#134E78"/>
<path d="M487.335 102.154C489.438 106.505 488.202 110.346 483.828 114.084C479.455 117.821 466.709 115.043 464.808 112.819C462.908 110.595 469.538 106.218 473.911 102.48C478.284 98.7422 485.406 98.1625 487.335 102.154Z" fill="#D9D9D9"/>
<path d="M399.611 102.246C397.508 106.597 398.745 110.438 403.118 114.176C407.491 117.913 420.237 115.135 422.138 112.911C424.039 110.687 417.409 106.31 413.035 102.572C408.662 98.8342 401.54 98.2546 399.611 102.246Z" fill="#D9D9D9"/>
</g>
<defs>
<clipPath id="clip0_8617_14224">
<rect width="488" height="219" fill="white" transform="translate(0.611084 0.499969)"/>
</clipPath>
</defs>
</svg>
