<svg width="595" height="220" viewBox="0 0 595 220" fill="none" xmlns="http://www.w3.org/2000/svg">
<g clip-path="url(#clip0_8617_14438)">
<rect width="595" height="219" transform="translate(0 0.5)" fill="white"/>
<path d="M0 80.546C0 80.546 72.7237 172.55 297.5 80.546C522.276 -11.4583 595 80.546 595 80.546V219.5H0V80.546Z" fill="#7B2F4C"/>
<rect x="132.022" y="76.782" width="9.59924" height="125.201" rx="4.79962" fill="#134E78"/>
<path d="M184.822 214.947V48.5H398.273V214.947H184.822Z" fill="white" stroke="#134E78" stroke-width="96"/>
<path fill-rule="evenodd" clip-rule="evenodd" d="M431.074 30.2642C431.074 21.9799 424.358 15.2642 416.074 15.2642L380.664 15.2642L247.481 257.024H431.074V30.2642Z" fill="#D1E3F0"/>
<path d="M167.942 15.2642C159.658 15.2642 152.942 21.9799 152.942 30.2641V257.024H247.481L380.664 15.2642L167.942 15.2642Z" fill="#BFD5E4"/>
<rect x="236.313" y="0.5" width="111.39" height="32.808" rx="16.404" fill="#134E78"/>
<circle cx="396.136" cy="70.2962" r="22.0201" fill="white"/>
<mask id="mask0_8617_14438" style="mask-type:alpha" maskUnits="userSpaceOnUse" x="374" y="48" width="45" height="45">
<circle cx="396.136" cy="70.2962" r="22.0201" fill="white"/>
</mask>
<g mask="url(#mask0_8617_14438)">
<path d="M404.599 64.4858C404.599 73.9673 400.581 77.1951 392.011 77.1951C386.81 77.1951 386.719 72.931 386.719 67.3097C386.719 61.6883 390.935 57.1313 396.136 57.1313C401.336 57.1313 404.599 58.8645 404.599 64.4858Z" fill="#AF0042"/>
<path d="M382.957 85.7063C384.595 82.1727 388.135 79.9115 392.03 79.9115H401.061C405.233 79.9115 408.967 82.502 410.428 86.4102L411.687 89.7785C412.664 92.3929 410.731 95.1791 407.94 95.1791H384.829C381.907 95.1791 379.971 92.148 381.2 89.497L382.957 85.7063Z" fill="#AF0042"/>
<path d="M400.591 71.5946L392.216 76.7423L390.277 83.2406L400.591 83.2406C401.17 78.2938 398.824 76.3668 400.591 71.5946Z" fill="#AF0042"/>
<path d="M404.362 60.3412C404.362 62.979 401.259 65.1174 397.432 65.1174C393.606 65.1174 383.439 61.9949 383.439 59.3571C388.994 59.3571 393.606 55.5651 397.432 55.5651C401.259 55.5651 404.362 57.7035 404.362 60.3412Z" fill="#AF0042"/>
<path d="M404.697 64.4294C404.171 66.3407 404.328 70.9125 400.668 69.9058C397.008 68.8991 385.022 59.039 385.548 57.1276C390.86 58.5889 395.363 58.139 399.022 59.1457C402.682 60.1524 405.222 62.518 404.697 64.4294Z" fill="#AF0042"/>
</g>
<circle cx="396.136" cy="211.131" r="22.0201" fill="white"/>
<mask id="mask1_8617_14438" style="mask-type:alpha" maskUnits="userSpaceOnUse" x="374" y="189" width="45" height="45">
<circle cx="396.136" cy="211.131" r="22.0201" fill="white"/>
</mask>
<g mask="url(#mask1_8617_14438)">
<path d="M404.599 205.321C404.599 214.802 400.581 218.03 392.011 218.03C386.81 218.03 386.719 213.766 386.719 208.144C386.719 202.523 390.935 197.966 396.136 197.966C401.336 197.966 404.599 199.699 404.599 205.321Z" fill="#AF0042"/>
<path d="M400.591 212.429L392.216 217.577L390.277 224.075L400.591 224.075C401.17 219.129 398.824 217.202 400.591 212.429Z" fill="#AF0042"/>
<path d="M404.362 201.176C404.362 203.814 401.259 205.952 397.432 205.952C393.606 205.952 383.439 202.83 383.439 200.192C388.994 200.192 393.606 196.4 397.432 196.4C401.259 196.4 404.362 198.538 404.362 201.176Z" fill="#AF0042"/>
<path d="M404.697 205.264C404.171 207.176 404.328 211.747 400.668 210.741C397.008 209.734 385.022 199.874 385.548 197.962C390.86 199.424 395.363 198.974 399.022 199.98C402.682 200.987 405.222 203.353 404.697 205.264Z" fill="#AF0042"/>
</g>
<rect x="247.757" y="48.2761" width="116.206" height="44.2888" rx="13" fill="#74BCFF"/>
<path d="M262.095 59.8516L288.137 59.8163" stroke="white" stroke-width="8" stroke-linecap="round" stroke-linejoin="round"/>
<path d="M301.22 59.8007L327.836 59.7642" stroke="white" stroke-width="8" stroke-linecap="round" stroke-linejoin="round"/>
<path d="M275.116 82.3552L321.461 82.3552" stroke="white" stroke-width="4" stroke-linecap="round" stroke-linejoin="round"/>
<path d="M298.289 74.4355L344.634 74.4355" stroke="white" stroke-width="4" stroke-linecap="round" stroke-linejoin="round"/>
<rect x="230.149" y="187.748" width="133.815" height="48.7658" rx="13" fill="#74BCFF"/>
<path d="M245.497 201.983L312.208 201.983" stroke="white" stroke-width="8" stroke-linecap="round" stroke-linejoin="round"/>
<path d="M298.18 201.983H322.236" stroke="white" stroke-width="8" stroke-linecap="round" stroke-linejoin="round"/>
<path d="M243.279 217.945H304.861" stroke="white" stroke-width="4" stroke-linecap="round" stroke-linejoin="round"/>
<path d="M315.874 217.945L343.545 217.945" stroke="white" stroke-width="4" stroke-linecap="round" stroke-linejoin="round"/>
<path d="M262.027 74.4355L289.698 74.4355" stroke="white" stroke-width="4" stroke-linecap="round" stroke-linejoin="round"/>
<path d="M329.198 82.3552H333.806" stroke="white" stroke-width="4" stroke-linecap="round" stroke-linejoin="round"/>
<path d="M262.136 82.3552H266.744" stroke="white" stroke-width="4" stroke-linecap="round" stroke-linejoin="round"/>
<rect x="72.4355" y="98.8739" width="172.701" height="77.7885" rx="13" fill="#4F87AF"/>
<circle cx="22.0201" cy="22.0201" r="22.0201" transform="matrix(-1 0 0 1 127.366 116.124)" fill="white"/>
<mask id="mask2_8617_14438" style="mask-type:alpha" maskUnits="userSpaceOnUse" x="83" y="116" width="45" height="45">
<circle cx="22.0201" cy="22.0201" r="22.0201" transform="matrix(-1 0 0 1 127.366 116.124)" fill="white"/>
</mask>
<g mask="url(#mask2_8617_14438)">
<path d="M105.016 123.942C104.324 125.603 104.195 126.578 105.016 128.495" stroke="#535353" stroke-width="0.8" stroke-linecap="round" stroke-linejoin="round"/>
<circle cx="105.599" cy="122.442" r="1.5" fill="#75F4FF"/>
<ellipse cx="105.015" cy="134.099" rx="9.36569" ry="6.62177" fill="#CDCDCD"/>
<ellipse cx="105.346" cy="154.642" rx="14.6631" ry="13.1142" fill="#CDCDCD"/>
<circle cx="101.89" cy="134.099" r="1.70229" fill="#2E969F"/>
<circle cx="108.801" cy="134.099" r="1.70229" fill="#2E969F"/>
</g>
<circle cx="22.0201" cy="22.0201" r="21.0201" transform="matrix(-1 0 0 1 127.366 116.124)" stroke="white" stroke-width="2"/>
<circle cx="23.7331" cy="23.7331" r="24.7331" transform="matrix(-1 0 0 1 129.079 114.411)" stroke="#134E78" stroke-width="2"/>
<path d="M145.549 114.035L172.427 114.035" stroke="#134E78" stroke-width="8" stroke-linecap="round" stroke-linejoin="round"/>
<path d="M185.771 114.035L223.744 114.035" stroke="#134E78" stroke-width="8" stroke-linecap="round" stroke-linejoin="round"/>
<path d="M143.175 136.788H204.757" stroke="#134E78" stroke-width="4" stroke-linecap="round" stroke-linejoin="round"/>
<path d="M170.533 145.15H232.116" stroke="#134E78" stroke-width="4" stroke-linecap="round" stroke-linejoin="round"/>
<path d="M156.431 155.164L202.777 155.164" stroke="#134E78" stroke-width="4" stroke-linecap="round" stroke-linejoin="round"/>
<path d="M214.345 136.788H232.116" stroke="#134E78" stroke-width="4" stroke-linecap="round" stroke-linejoin="round"/>
<path d="M143.175 145.5H160.945" stroke="#134E78" stroke-width="4" stroke-linecap="round" stroke-linejoin="round"/>
<path d="M143.175 155.164H147.783" stroke="#134E78" stroke-width="4" stroke-linecap="round" stroke-linejoin="round"/>
<path d="M223.633 141.94C223.633 138.818 117.298 131.554 162.085 114.757C165.098 114.613 168.239 113.64 171.229 113.862C175.189 114.155 176.333 122.751 176.398 125.789C176.429 127.277 175.345 132.561 177.491 132.647C181.049 132.789 183.744 131.26 186.436 129.069C192.756 123.925 196.673 119.769 196.673 110.931C196.673 106.835 206.5 107.069 208.104 107.998C211.699 110.079 215.165 114.771 217.198 118.384C221.39 125.837 211.82 126.285 206.116 127.976C199.486 129.94 199.431 137.138 200.947 143.381C201.388 145.194 202.819 153.099 205.022 153.221C206.833 153.322 210.489 153.916 211.831 152.575C215.614 148.792 216.002 146.176 217.198 141.393C218.301 136.982 219.309 126.39 213.818 124.242C206.544 121.395 198.653 123.924 191.207 121.111C160.785 125.789 182.599 122.012 184.1 118.384C185.044 116.104 187.117 109.239 189.815 109.389C190.955 109.453 196.688 114.614 197.419 115.75C199.631 119.191 199.148 126.178 196.922 129.516C195.128 132.208 187.089 132.376 184.1 132.597C175.353 133.245 164.129 130.584 159.402 140.3C157.881 143.426 157.991 148.765 158.706 152.128C160.574 160.905 173.175 158.582 179.081 155.905C183.937 153.703 186.327 150.305 186.933 144.773C187.99 135.127 179.836 130.534 171.577 129.119C168.538 128.598 164.585 128.446 161.737 127.18C159.241 126.071 161.909 119.184 163.775 118.384C167.779 116.668 172.04 115.453 175.901 119.08C178.951 121.946 181.55 127.347 180.075 131.554C178.409 136.307 172.525 137.888 168.645 140.201C160.439 145.093 169.119 149.279 174.559 151.829C179.749 154.262 184.466 156.094 186.635 149.842C187.797 146.492 186.362 138.465 190.312 136.772C196.141 134.274 199.413 142.433 198.363 146.959C189.815 159.085 187.678 146.802 181.069 146.959C175.986 147.08 171.759 158.468 174.609 162.663C177.712 167.231 186.207 169.971 191.207 167.335C193.695 166.023 194.843 162.501 195.53 159.98C195.721 159.283 195.86 154.117 196.673 154.265C201.816 155.2 201.685 162.077 200.103 165.595C198.402 169.375 198.751 169.115 203.532 168.478C209.972 167.619 217.431 155.336 220.03 150.537C222.887 145.263 230.791 152.158 225.696 156.799C219.26 162.661 203.854 159.952 199.158 153.221C193.818 145.567 186.872 138.675 176.795 138.064C172.453 137.801 165.741 137.874 163.03 141.94C161.825 143.747 158.447 140.499 157.563 139.704C155.005 137.402 153.096 135.664 150.109 134.337C148.204 133.49 164.334 127.618 162.085 131.554C159.682 135.76 138.328 163.227 152.743 156.898C156.039 155.451 157.183 152.36 158.06 149.146C158.371 148.006 158.662 143.279 159.799 142.685C164.484 140.241 173.272 147.633 168.496 152.128C167.022 153.515 158.297 155.775 159.501 159.085C160.657 162.262 163.609 163.565 166.111 165.297C172.009 169.381 176.642 159.743 181.765 157.694" stroke="#EE6772" stroke-width="3" stroke-linecap="round"/>
<rect x="441.473" y="78.9276" width="9.59924" height="79.2363" rx="4.79962" fill="#134E78"/>
<path d="M72.0427 77.0183C76.4497 73.2122 76.0621 66.263 70.8779 62.0878C71.3911 53.4551 64.0866 47.1801 57.662 47.6653C54.9654 41.0528 39.6986 42.6519 36.3302 47.8084C27.7557 45.7309 15.4249 57.194 20.5367 65.2208C15.424 68.8378 14.3364 75.5627 19.9773 80.0033C19.9395 88.8916 25.7818 93.1097 29.4598 91.6098C32.0311 97.9149 44.055 99.5992 46.6629 95.0818C48.8133 98.1184 60.7529 95.0878 60.318 89.5132C64.293 90.8339 72.9916 83.0625 71.6794 78.53C71.5259 77.9997 71.625 77.3791 72.0427 77.0183Z" fill="#EAF6FF"/>
<circle cx="65.1611" cy="94.5427" r="4" fill="#EAF6FF"/>
<circle cx="71.1611" cy="98.7962" r="2" fill="#EAF6FF"/>
<circle cx="35.3191" cy="70.6848" r="2.5" fill="#0B304B"/>
<circle cx="45.3191" cy="70.6848" r="2.5" fill="#0B304B"/>
<circle cx="55.3191" cy="70.6848" r="2.5" fill="#0B304B"/>
<circle cx="114.749" cy="29.8914" r="26.8728" fill="#EAF6FF"/>
<path d="M110.419 15.2733C112.343 11.9399 117.154 11.9399 119.079 15.2733L129.934 34.0754C131.859 37.4088 129.453 41.5754 125.604 41.5754H103.893C100.044 41.5754 97.6386 37.4088 99.5631 34.0754L110.419 15.2733Z" fill="#FFC200"/>
<path d="M114.792 17.6843C115.72 17.6843 116.472 18.4364 116.472 19.3642V25.9683C116.472 26.8469 116.429 27.711 116.342 28.5607C116.293 29.035 116.236 29.5262 116.172 30.0344C116.084 30.7269 115.49 31.24 114.792 31.24C114.094 31.24 113.501 30.7269 113.413 30.0344C113.348 29.5262 113.292 29.035 113.243 28.5607C113.156 27.711 113.112 26.8469 113.112 25.9683V19.3642C113.112 18.4364 113.864 17.6843 114.792 17.6843ZM112.547 36.6564C112.547 36.3571 112.6 36.0723 112.707 35.802C112.823 35.5316 112.977 35.2999 113.17 35.1068C113.373 34.9137 113.609 34.7592 113.88 34.6434C114.15 34.5275 114.44 34.4696 114.749 34.4696C115.048 34.4696 115.333 34.5275 115.603 34.6434C115.874 34.7592 116.105 34.9137 116.298 35.1068C116.501 35.2999 116.66 35.5316 116.776 35.802C116.892 36.0723 116.95 36.3571 116.95 36.6564C116.95 36.9654 116.892 37.255 116.776 37.5254C116.66 37.7861 116.501 38.013 116.298 38.2061C116.105 38.3992 115.874 38.5488 115.603 38.655C115.333 38.7709 115.048 38.8288 114.749 38.8288C114.44 38.8288 114.15 38.7709 113.88 38.655C113.609 38.5488 113.373 38.3992 113.17 38.2061C112.977 38.013 112.823 37.7861 112.707 37.5254C112.6 37.255 112.547 36.9654 112.547 36.6564Z" fill="white"/>
<path d="M71.3878 62.8256C74.4452 64.4458 94.5116 46.4294 90.6141 41.6578L98.1028 50.8261C95.9165 48.8829 74.887 67.0126 75.0631 71.211L71.3878 62.8256Z" fill="#EAF6FF"/>
<path d="M362.386 159.396C362.124 158.981 362.2 158.434 362.584 158.129C362.938 157.849 363.31 157.577 363.699 157.314C364.352 156.884 365.053 156.51 365.801 156.191C366.55 155.873 367.362 155.626 368.238 155.451C369.114 155.259 370.061 155.164 371.081 155.164C372.466 155.164 373.724 155.355 374.855 155.737C376.002 156.12 376.981 156.669 377.794 157.386C378.606 158.086 379.235 158.938 379.681 159.942C380.127 160.945 380.35 162.068 380.35 163.31C380.35 164.521 380.175 165.572 379.824 166.464C379.474 167.339 379.036 168.104 378.51 168.757C377.985 169.41 377.403 169.975 376.766 170.453C376.145 170.931 375.556 171.385 374.999 171.815C374.441 172.229 373.955 172.643 373.541 173.057C373.143 173.455 372.904 173.909 372.825 174.419L372.408 177.062C372.332 177.548 371.913 177.906 371.42 177.906H369.139C368.627 177.906 368.198 177.52 368.144 177.01L367.832 174.013C367.736 173.264 367.84 172.611 368.142 172.054C368.461 171.48 368.875 170.963 369.385 170.501C369.91 170.023 370.491 169.569 371.128 169.139C371.766 168.693 372.363 168.215 372.92 167.706C373.478 167.18 373.939 166.599 374.306 165.962C374.688 165.309 374.879 164.536 374.879 163.645C374.879 163.071 374.768 162.562 374.545 162.116C374.338 161.654 374.043 161.264 373.661 160.945C373.279 160.611 372.817 160.356 372.275 160.181C371.75 160.005 371.176 159.918 370.555 159.918C369.647 159.918 368.875 160.021 368.238 160.228C367.617 160.42 367.083 160.643 366.637 160.897C366.207 161.136 365.841 161.359 365.538 161.566C365.236 161.757 364.965 161.853 364.726 161.853C364.153 161.853 363.739 161.614 363.484 161.136L362.386 159.396ZM366.446 186.841C366.446 186.347 366.534 185.877 366.709 185.432C366.9 184.986 367.155 184.603 367.473 184.285C367.792 183.966 368.174 183.712 368.62 183.52C369.066 183.329 369.544 183.234 370.053 183.234C370.563 183.234 371.033 183.329 371.463 183.52C371.909 183.712 372.291 183.966 372.61 184.285C372.944 184.603 373.207 184.986 373.398 185.432C373.589 185.877 373.685 186.347 373.685 186.841C373.685 187.351 373.589 187.828 373.398 188.274C373.207 188.704 372.944 189.079 372.61 189.397C372.291 189.716 371.909 189.963 371.463 190.138C371.033 190.329 370.563 190.424 370.053 190.424C369.544 190.424 369.066 190.329 368.62 190.138C368.174 189.963 367.792 189.716 367.473 189.397C367.155 189.079 366.9 188.704 366.709 188.274C366.534 187.828 366.446 187.351 366.446 186.841Z" fill="#EE6772"/>
<path d="M390.862 171.886C390.288 171.887 389.738 171.926 389.212 172.004C388.697 172.079 388.217 172.23 387.774 172.456L387.773 172.457C387.335 172.686 386.988 173.062 386.73 173.577L385.792 175.345C385.528 175.842 385.683 176.459 386.151 176.773L387.178 177.463C387.628 177.765 388.23 177.695 388.598 177.298L389.797 176.005L389.798 176.005C390.042 175.741 390.357 175.57 390.748 175.493C391.168 175.411 391.633 175.357 392.144 175.333L392.144 175.333L392.146 175.333C392.666 175.298 393.216 175.263 393.796 175.225C394.394 175.194 394.994 175.085 395.595 174.898C396.199 174.71 396.793 174.416 397.378 174.016L397.379 174.016C397.976 173.603 398.527 173.019 399.032 172.266C399.553 171.491 399.886 170.695 400.029 169.877C400.171 169.061 400.136 168.262 399.922 167.48C399.714 166.689 399.332 165.934 398.777 165.215C398.232 164.503 397.528 163.858 396.667 163.28C396.035 162.855 395.406 162.519 394.781 162.271C394.163 162.015 393.555 161.829 392.956 161.714C392.357 161.6 391.765 161.54 391.179 161.534L391.179 161.534L390.863 171.986M390.862 171.886C390.862 171.886 390.862 171.886 390.863 171.886L390.863 171.986M390.862 171.886C390.861 171.886 390.861 171.886 390.861 171.886L390.863 171.986M390.862 171.886C391.434 171.875 391.994 171.828 392.543 171.745M390.863 171.986C391.439 171.975 392.005 171.927 392.558 171.844M392.543 171.745C392.543 171.745 392.542 171.745 392.542 171.745L392.558 171.844M392.543 171.745C392.543 171.745 392.543 171.745 392.544 171.745L392.558 171.844M392.543 171.745L392.558 171.844M385.207 180.923C385.013 180.615 384.754 180.352 384.429 180.135C384.105 179.917 383.759 179.773 383.391 179.703C383.026 179.634 382.673 179.633 382.332 179.7C381.99 179.767 381.664 179.902 381.352 180.104L381.352 180.104L381.349 180.106C381.046 180.315 380.789 180.577 380.579 180.891C380.361 181.215 380.212 181.556 380.133 181.916L380.133 181.916L380.132 181.921C380.07 182.276 380.072 182.624 380.139 182.964C380.206 183.306 380.345 183.628 380.554 183.931C380.757 184.244 381.021 184.51 381.345 184.727C381.669 184.945 382.01 185.086 382.367 185.149C382.726 185.227 383.076 185.234 383.417 185.167C383.767 185.107 384.096 184.98 384.402 184.788L384.403 184.787C384.717 184.584 384.983 184.32 385.201 183.995C385.412 183.68 385.553 183.339 385.622 182.972C385.691 182.606 385.687 182.249 385.61 181.901C385.543 181.561 385.408 181.234 385.207 180.923ZM385.207 180.923C385.207 180.923 385.207 180.923 385.207 180.923L385.123 180.977L385.207 180.924C385.207 180.923 385.207 180.923 385.207 180.923ZM389.366 163.892L389.366 163.896L389.466 163.899L389.366 163.888C389.366 163.89 389.366 163.891 389.366 163.892Z" fill="#EE6772" stroke="#EE6772" stroke-width="0.2"/>
<path d="M474.179 107.055C465.407 119.406 448.284 122.307 435.933 113.535C433.674 111.931 431.73 110.047 430.117 107.964C424.281 105.198 419.298 102.222 412.917 97.3143C412.23 96.7862 412.506 95.695 413.357 95.534C417.67 94.7179 420.975 93.7842 424.41 92.3534C424.153 86.4708 425.779 80.4613 429.452 75.2888C438.224 62.9378 455.348 60.0364 467.699 68.8084C480.05 77.5804 482.951 94.7039 474.179 107.055Z" fill="#EAF6FF"/>
<circle cx="447.894" cy="84.8234" r="9.75458" fill="#EAF6FF" stroke="#505050" stroke-width="3.5"/>
<path d="M452.318 94.5085C452.083 94.0414 452.247 93.4723 452.695 93.2027L454.038 92.3945C454.486 92.1249 455.066 92.2459 455.369 92.6721L463.691 104.385C464.029 104.86 463.891 105.521 463.392 105.821L460.178 107.755C459.679 108.055 459.031 107.867 458.769 107.347L452.318 94.5085Z" fill="#505050"/>
</g>
<defs>
<clipPath id="clip0_8617_14438">
<rect width="595" height="219" fill="white" transform="translate(0 0.5)"/>
</clipPath>
</defs>
</svg>
