<svg width="229" height="264" viewBox="0 0 229 264" fill="none" xmlns="http://www.w3.org/2000/svg">
<g clip-path="url(#clip0_8617_14685)">
<path d="M141.827 260.681L115.635 248.963L141.827 222.817M141.827 260.681L169.399 244.827M141.827 260.681V222.817M169.399 244.827L201.105 231.731M169.399 244.827L174.913 228.511M169.399 244.827L141.827 222.817M201.105 231.731L206.619 208.296M201.105 231.731L174.913 228.511M206.619 208.296L219.716 189.685M206.619 208.296L178.2 206.725M206.619 208.296L199.74 189.685M206.619 208.296L174.913 228.511M219.716 189.685V170.386M219.716 189.685H199.74M219.716 170.386L225.919 136.611M219.716 170.386L199.74 158.694M219.716 170.386L199.74 189.685M225.919 136.611L217.059 114.554M225.919 136.611L197.511 131.213M225.919 136.611L199.74 158.694M217.059 114.554L214.197 84.0059M217.059 114.554L189.341 102.247M217.059 114.554L197.511 131.213M214.197 84.0059L201.105 60.7906M214.197 84.0059L174.913 70.4659M214.197 84.0059L189.341 102.247M201.105 60.7906L190.766 35.9767M201.105 60.7906L174.913 70.4659M190.766 35.9767L174.913 30.4624M190.766 35.9767L174.913 70.4659M174.913 30.4624L159.749 10.4734M174.913 30.4624H139.419M174.913 30.4624L150.683 57.9363M174.913 30.4624V70.4659M159.749 10.4734L131.488 3.58063M159.749 10.4734L139.419 30.4624M131.488 3.58063L115.635 10.4734L139.419 30.4624M131.488 3.58063L139.419 30.4624M115.635 38.926L139.419 30.4624M118.134 57.9363L139.419 30.4624M118.134 57.9363H150.683M118.134 57.9363L141.827 85.0434M115.635 77.6255L141.827 85.0434M113.155 119.946L141.827 114.554M116.776 145.746L141.827 114.554M116.776 145.746L144.53 136.611M116.776 145.746L141.827 166.122M113.155 167.698L141.827 166.122M119.945 227.218L141.827 222.817M139.419 30.4624L150.683 57.9363M150.683 57.9363L141.827 85.0434M150.683 57.9363L174.913 70.4659M141.827 85.0434L119.945 99.3515L141.827 114.554M141.827 85.0434V114.554M141.827 85.0434L165.923 95.6452M141.827 85.0434L174.913 70.4659M141.827 114.554L165.923 95.6452M141.827 114.554L144.53 136.611M141.827 114.554L168.05 126.014M165.923 95.6452L174.913 70.4659M165.923 95.6452L168.05 126.014M165.923 95.6452L189.341 102.247M174.913 70.4659L189.341 102.247M144.53 136.611L168.05 126.014M144.53 136.611L164.689 149.022M144.53 136.611L141.827 166.122M168.05 126.014L189.341 102.247M168.05 126.014L165.923 149.782M168.05 126.014L197.511 131.213M189.341 102.247L197.511 131.213M197.511 131.213L165.923 149.782M197.511 131.213L199.74 158.694M165.923 149.782L199.74 158.694M165.923 149.782L170.773 183.205M165.923 149.782L164.689 149.022M199.74 158.694V189.685M199.74 158.694L170.773 183.205M199.74 189.685L170.773 183.205M199.74 189.685L178.2 206.725M170.773 183.205L178.2 206.725M170.773 183.205L141.827 166.122M170.773 183.205L150.683 199.297M178.2 206.725L150.683 199.297M178.2 206.725L141.827 222.817M178.2 206.725L174.913 228.511M141.827 166.122L164.689 149.022M141.827 166.122L150.683 199.297M141.827 166.122L119.945 185.577L150.683 199.297M150.683 199.297L115.635 205.04L141.827 222.817M150.683 199.297L141.827 222.817M141.827 222.817L174.913 228.511" stroke="#134E78" stroke-width="3"/>
<circle cx="192.894" cy="38.5226" r="5.48597" fill="#74BCFF"/>
<circle cx="150.843" cy="57.6638" r="3.08065" fill="#74BCFF"/>
<circle cx="174.214" cy="71.8222" r="8.22896" fill="#74BCFF"/>
<circle cx="213.572" cy="83.807" r="4.11448" fill="#74BCFF"/>
<circle cx="189.052" cy="103.055" r="3.08065" fill="#74BCFF"/>
<circle cx="167.27" cy="125.273" r="5.48597" fill="#74BCFF"/>
<circle cx="144.682" cy="136.668" r="3.08065" fill="#74BCFF"/>
<circle cx="141.601" cy="85.1785" r="5.48597" fill="#74BCFF"/>
<circle cx="141.601" cy="114.547" r="3.08065" fill="#74BCFF"/>
<circle cx="164.865" cy="96.894" r="4.93738" fill="#74BCFF"/>
<circle cx="174.213" cy="29.956" r="3.08065" fill="#74BCFF"/>
<circle cx="137.824" cy="29.956" r="6.85747" fill="#74BCFF"/>
<circle cx="118.985" cy="57.6638" r="3.08065" fill="#74BCFF"/>
<circle cx="118.985" cy="99.9746" r="3.08065" fill="#74BCFF"/>
<circle cx="116.236" cy="145.653" r="3.08065" fill="#74BCFF"/>
<circle cx="118.985" cy="186.161" r="3.08065" fill="#74BCFF"/>
<circle cx="113.155" cy="205.409" r="3.08065" fill="#74BCFF"/>
<circle cx="140.588" cy="223.723" r="8.22896" fill="#74BCFF"/>
<circle cx="141.601" cy="260.681" r="3.08065" fill="#74BCFF"/>
<circle cx="168.642" cy="246.715" r="6.85747" fill="#74BCFF"/>
<circle cx="201.277" cy="231.952" r="3.08065" fill="#74BCFF"/>
<circle cx="206.214" cy="208.49" r="4.93738" fill="#74BCFF"/>
<circle cx="219.058" cy="190.681" r="5.48597" fill="#74BCFF"/>
<circle cx="219.058" cy="169.419" r="3.08065" fill="#74BCFF"/>
<circle cx="225.919" cy="136.668" r="3.08065" fill="#74BCFF"/>
<circle cx="218.306" cy="114.547" r="3.08065" fill="#74BCFF"/>
<circle cx="198.197" cy="132.131" r="6.85747" fill="#74BCFF"/>
<circle cx="198.197" cy="158.917" r="3.08065" fill="#74BCFF"/>
<circle cx="166.457" cy="148.734" r="3.08065" fill="#74BCFF"/>
<circle cx="170.351" cy="183.08" r="5.48597" fill="#74BCFF"/>
<circle cx="141.601" cy="166.036" r="5.48597" fill="#74BCFF"/>
<circle cx="150.843" cy="199.248" r="3.08065" fill="#74BCFF"/>
<circle cx="199.731" cy="189.242" r="3.08065" fill="#74BCFF"/>
<circle cx="177.294" cy="205.409" r="3.08065" fill="#74BCFF"/>
<circle cx="174.213" cy="228.871" r="3.08065" fill="#74BCFF"/>
<circle cx="174.213" cy="228.871" r="3.08065" fill="#74BCFF"/>
<circle cx="200.574" cy="60.7445" r="3.08065" fill="#74BCFF"/>
<circle cx="159.928" cy="11.5987" r="4.93738" fill="#74BCFF"/>
<circle cx="132.359" cy="3.58065" r="3.08065" fill="#74BCFF"/>
<path d="M110.133 87.2689C111.36 97.9556 109.592 106.377 107.636 114.078C105.044 123.245 106.755 128.978 108.625 139.321C109.454 143.906 109.179 149.015 108.625 154.11C107.986 159.991 106.976 165.854 106.863 170.868C106.886 171.255 106.882 171.637 106.854 172.014C106.876 175.266 107.342 178.112 108.625 180.307C113.652 188.902 107.636 198.054 107.636 205.399C107.636 209.69 108.087 212.905 108.625 215.78C109.652 221.264 110.997 225.514 110.133 233.65C109.554 239.106 107.006 246.295 107.472 253.176C107.539 254.171 107.196 255.169 106.429 255.806C92.6189 267.272 73.458 266.977 57.8831 247.709C33.9721 246.265 26.937 236.419 18.0106 213.722C7.69415 200.931 3.29573 192.709 4.89932 170.868C-1.95699 152.67 -1.68871 143.811 6.15656 130.416C1.95604 114.275 2.33511 105.929 13.1612 93.6581C12.1037 81.9255 14.8131 75.3433 23.5958 64.2447C24.0445 63.6776 24.2732 62.9654 24.278 62.2424C24.3354 53.5371 29.2914 47.4611 43.8739 35.9086C55.0461 15.829 61.3824 10.0263 72.1783 9.63279C72.6955 9.61393 73.2139 9.47088 73.6627 9.21313C90.6168 -0.523252 97.9051 0.294719 106.961 9.99993C107.401 10.4717 107.669 11.0833 107.729 11.7257C108.075 15.4589 108.287 18.2128 108.418 20.7307C108.625 24.738 108.625 28.1476 108.625 33.956V34.0279C108.625 38.2919 109.059 41.7431 109.488 45.0713L109.517 45.2963C110.084 49.694 110.627 53.9035 110.133 59.5236C109.636 65.1661 109.259 68.8272 109.196 72.7315C109.133 76.6103 109.382 80.729 110.133 87.2689Z" fill="#134E78"/>
<path d="M106.863 171.021C106.855 171.408 106.851 171.79 106.854 172.167C106.882 171.79 106.886 171.408 106.863 171.021Z" fill="#74BCFF"/>
<path d="M107.636 10.8885C108.037 15.1342 108.276 18.1482 108.418 20.8837M108.625 34.181C94.5616 28.1742 87.4722 26.4 78.8928 31.3781M108.625 34.181C108.625 28.3287 108.626 24.9075 108.418 20.8837M108.625 34.181C108.625 38.4449 109.058 41.8961 109.488 45.2243C110.065 49.704 110.636 53.9608 110.133 59.6766C109.636 65.3191 109.259 68.9802 109.196 72.8845M107.636 114.231C109.592 106.53 111.36 98.1086 110.133 87.422C109.381 80.882 109.133 76.7633 109.196 72.8845M107.636 114.231C105.043 123.398 106.755 129.131 108.625 139.474C109.454 144.059 109.179 149.168 108.625 154.263M107.636 114.231C108.625 104.419 96.1339 105.54 96.575 101.636C97.3914 94.4089 95.5813 93.4674 91.5491 90.9851M107.636 254.915C106.601 247.567 109.509 239.68 110.133 233.803C110.996 225.667 109.652 221.417 108.625 215.933M57.883 247.862H69.1182M18.0104 213.875C15.7293 207.067 22.2969 191.307 26.0621 187.211M4.89917 171.021C8.5679 181.812 10.5056 183.76 13.9609 187.211M6.15642 130.569C13.1611 111.127 23.1666 104.824 20.2148 127.962M13.1611 93.8111C16.374 96.5172 18.3558 97.4411 20.2148 95.7017M43.8737 36.0616C50.8822 32.0169 58.6724 31.9386 60.7881 34.181M60.7881 34.181C58.9569 26.3104 61.692 23.867 69.1182 20.8837M60.7881 34.181C63.0447 36.5726 68.8917 47.0817 73.8449 49.1003M94.129 52.05C94.0725 51.1581 92.1863 46.2834 88.9921 45.2243C84.5891 43.7644 81.5872 47.6721 76.298 49.304C75.5219 49.5434 74.6966 49.4474 73.8449 49.1003M108.418 20.8837C98.1111 14.2991 92.9214 13.2548 84.8662 16.7916M109.196 72.8845C106.227 67.5495 103.09 67.0869 95.2341 68.4435C87.3788 69.8001 87.767 58.5922 88.0395 58.5074M47.0484 63.5182C35.9801 63.5182 30.9825 68.4435 27.5986 78.4708C24.2412 88.4197 22.3057 93.7453 20.2148 95.7017M47.0484 63.5182C56.1391 63.5182 67.9842 38.3644 51.2766 45.2243C41.3403 49.304 39.8604 52.05 37.9577 55.8589M47.0484 63.5182C40.3659 68.4435 37.9577 93.8111 44.5988 104.824M108.625 154.263C108.625 139.475 96.575 136.717 88.9921 136.717C84.9122 136.717 80.8376 131.58 77.9438 126.834M108.625 154.263C107.986 160.144 106.976 166.007 106.863 171.021M73.8449 118.973C73.8449 118.973 75.4592 122.76 77.9438 126.834M106.863 171.021C106.78 174.751 107.193 178.011 108.625 180.46C113.652 189.055 107.636 198.207 107.636 205.552C107.636 209.843 108.087 213.058 108.625 215.933M106.863 171.021C107.482 181.677 88.3022 188.782 79.7024 184.101M77.6901 180.46C78.3808 182.074 78.1797 183.272 79.7024 184.101M108.625 215.933C99.5446 244.212 53.8219 235.885 31.6725 212.565M73.8449 49.1003C67.0762 62.0961 67.7718 67.1099 75.274 72.8845C89.7231 84.0062 75.274 92.5844 73.8449 101.636M12.1352 139.474C12.9273 152.469 11.3149 178.515 26.0621 187.211M43.8737 189.596C52.3703 188.228 64.982 189.596 62.1195 176.914M43.8737 189.596C36.1904 190.833 30.414 189.777 26.0621 187.211M43.8737 189.596C55.2045 188.718 58.2315 190.564 55.8385 199.33C53.8219 210.578 82.9221 222.898 88.1305 205.552M33.8099 89.4333C32.6475 95.2583 34.5675 101.704 37.6663 107.046M65.0342 80.1427C63.8666 79.9039 62.7715 79.9285 61.7566 80.1807M37.6663 107.046C45.1999 120.032 59.7011 126.492 53.8219 101.636C52.463 91.4112 55.665 81.6946 61.7566 80.1807M37.6663 107.046C31.2516 108.75 27.5847 122.507 27.5847 135.037C27.5847 142.164 26.1738 147.879 28.9196 153.793M37.6663 163.639C33.0163 160.139 30.38 156.938 28.9196 153.793M43.8737 139.474C50.6756 135.249 59.547 153.696 60.3803 155.471C60.4271 155.57 60.459 155.654 60.4974 155.757C60.9417 156.948 64.1752 164.705 71.4411 159.848C75.5456 157.105 81.324 157.911 84.8928 159.848M88.1305 163.639C88.1305 162.3 86.8408 160.906 84.8928 159.848M79.7024 184.101C77.8136 183.953 76.8299 184.218 75.2373 185.436M84.8928 159.848L88.1305 159.401M69.7648 127.244C73.2091 124.471 74.9635 124.76 77.9438 126.834M61.7566 75.5607C62.4201 76.8278 62.7349 77.5847 61.7566 80.1807M20.2148 95.7017C22.1074 96.5213 22.9964 98.2557 24.2966 103.493M26.0621 163.639C28.1231 160.531 28.6192 158.274 28.9196 153.793" stroke="#74BCFF" stroke-width="3" stroke-linecap="round"/>
</g>
<defs>
<clipPath id="clip0_8617_14685">
<rect width="229" height="263" fill="white" transform="translate(0 0.5)"/>
</clipPath>
</defs>
</svg>
