<svg width="131" height="119" viewBox="0 0 131 119" fill="none" xmlns="http://www.w3.org/2000/svg">
<circle cx="85.2695" cy="73.0761" r="43.7305" stroke="#C6C6C6" stroke-width="4"/>
<circle cx="85.2695" cy="73.0757" r="40.6714" fill="#BDBDBD" stroke="#D9D9D9" stroke-width="3"/>
<circle cx="85.2695" cy="73.0769" r="26.8464" fill="#D8D8D8" stroke="#C6C6C6"/>
<circle cx="85.2695" cy="73.0761" r="12.3389" fill="#979797"/>
<path d="M96.548 89.8971V89.1471H95.798H94.5606L92.012 86.9178V51.625V50.875H91.262H79.5486H79.2216L78.9991 51.1146C77.5411 52.6845 76.6016 53.4 74.4204 54.431L73.991 54.634L73.991 55.1091L73.9908 61.4448L73.9908 62.6439L75.069 62.1192L79.1246 60.1456V86.8772L76.0152 89.1471H74.7407H73.9907V89.8971V94.5273V95.2773H74.7407H79.5442H91.2664H95.798H96.548V94.5273V89.8971Z" fill="#D9D9D9" stroke="#9E9E9E" stroke-width="1.5"/>
<circle cx="46.0981" cy="45.7304" r="43.7305" stroke="#C6C6C6" stroke-width="4"/>
<circle cx="46.0981" cy="45.7299" r="40.6714" fill="#BDBDBD" stroke="#D9D9D9" stroke-width="3"/>
<circle cx="46.0981" cy="45.7312" r="26.8464" fill="#D8D8D8" stroke="#C6C6C6"/>
<circle cx="46.0981" cy="45.7304" r="12.3389" fill="#979797"/>
<path d="M57.3766 62.5514V61.8014H56.6266H55.3892L52.8406 59.5721V24.2793V23.5293H52.0906H40.3772H40.0502L39.8277 23.7689C38.3697 25.3388 37.4302 26.0543 35.2491 27.0853L34.8196 27.2883L34.8196 27.7634L34.8194 34.0991L34.8194 35.2982L35.8976 34.7735L39.9532 32.7999V59.5315L36.8439 61.8014H35.5693H34.8193V62.5514V67.1816V67.9316H35.5693H40.3728H52.095H56.6266H57.3766V67.1816V62.5514Z" fill="#D9D9D9" stroke="#9E9E9E" stroke-width="1.5"/>
</svg>
