<svg width="235" height="214" viewBox="0 0 235 214" fill="none" xmlns="http://www.w3.org/2000/svg">
<g filter="url(#filter0_d_4058_43)">
<path d="M7.17412 49.1708C12.5342 56.9359 148.498 46.5573 148.498 46.5573C148.498 46.5573 148.54 48.741 148.915 68.3945C149.289 88.048 7.59064 71.008 7.59064 71.008C7.59064 71.008 1.81407 41.4058 7.17412 49.1708Z" fill="#212121"/>
<path d="M147.007 47.1705C147.424 47.1396 147.759 47.1145 148.008 47.0957L148.008 47.1016L148.009 47.1123L148.009 47.1232L148.009 47.1342L148.009 47.1453L148.009 47.1565L148.01 47.1679L148.01 47.1794L148.01 47.1911L148.01 47.2029L148.011 47.2148L148.011 47.2269L148.011 47.2391L148.011 47.2514L148.011 47.2639L148.012 47.2765L148.012 47.2893L148.012 47.3022L148.012 47.3152L148.013 47.3284L148.013 47.3417L148.013 47.3552L148.013 47.3688L148.014 47.3826L148.014 47.3965L148.014 47.4106L148.015 47.4248L148.015 47.4391L148.015 47.4536L148.015 47.4683L148.016 47.4831L148.016 47.4981L148.016 47.5132L148.017 47.5284L148.017 47.5438L148.017 47.5594L148.017 47.5751L148.018 47.591L148.018 47.607L148.018 47.6232L148.019 47.6396L148.019 47.6561L148.019 47.6728L148.02 47.6896L148.02 47.7066L148.02 47.7237L148.021 47.741L148.021 47.7585L148.021 47.7761L148.022 47.7939L148.022 47.8119L148.022 47.83L148.023 47.8483L148.023 47.8667L148.023 47.8854L148.024 47.9041L148.024 47.9231L148.024 47.9422L148.025 47.9615L148.025 47.981L148.026 48.0006L148.026 48.0204L148.026 48.0404L148.027 48.0606L148.027 48.0809L148.027 48.1014L148.028 48.1221L148.028 48.1429L148.029 48.1639L148.029 48.1852L148.029 48.2065L148.03 48.2281L148.03 48.2498L148.031 48.2718L148.031 48.2939L148.032 48.3161L148.032 48.3386L148.032 48.3613L148.033 48.3841L148.033 48.4071L148.034 48.4303L148.034 48.4537L148.035 48.4773L148.035 48.501L148.036 48.525L148.036 48.5491L148.036 48.5734L148.037 48.5979L148.037 48.6226L148.038 48.6475L148.038 48.6726L148.039 48.6979L148.039 48.7233L148.04 48.749L148.04 48.7748L148.041 48.8009L148.041 48.8271L148.042 48.8536L148.042 48.8802L148.043 48.9071L148.043 48.9341L148.044 48.9613L148.044 48.9888L148.045 49.0164L148.045 49.0442L148.046 49.0723L148.046 49.1005L148.047 49.1289L148.048 49.1576L148.048 49.1864L148.049 49.2155L148.049 49.2447L148.05 49.2742L148.05 49.3039L148.051 49.3338L148.052 49.3639L148.052 49.3942L148.053 49.4247L148.053 49.4554L148.054 49.4863L148.054 49.5175L148.055 49.5488L148.056 49.5804L148.056 49.6122L148.057 49.6442L148.057 49.6764L148.058 49.7088L148.059 49.7414L148.059 49.7743L148.06 49.8074L148.061 49.8407L148.061 49.8742L148.062 49.908L148.063 49.9419L148.063 49.9761L148.064 50.0105L148.065 50.0451L148.065 50.08L148.066 50.1151L148.067 50.1503L148.067 50.1859L148.068 50.2216L148.069 50.2576L148.069 50.2938L148.07 50.3302L148.071 50.3669L148.071 50.4038L148.072 50.4409L148.073 50.4783L148.073 50.5159L148.074 50.5537L148.075 50.5917L148.076 50.63L148.076 50.6685L148.077 50.7073L148.078 50.7463L148.079 50.7855L148.079 50.825L148.08 50.8647L148.081 50.9046L148.082 50.9448L148.082 50.9852L148.083 51.0259L148.084 51.0668L148.085 51.1079L148.086 51.1493L148.086 51.191L148.087 51.2328L148.088 51.2749L148.089 51.3173L148.09 51.3599L148.09 51.4028L148.091 51.4459L148.092 51.4892L148.093 51.5328L148.094 51.5767L148.095 51.6208L148.095 51.6651L148.096 51.7097L148.097 51.7546L148.098 51.7997L148.099 51.8451L148.1 51.8907L148.101 51.9366L148.101 51.9827L148.102 52.0291L148.103 52.0757L148.104 52.1226L148.105 52.1698L148.106 52.2172L148.107 52.2649L148.108 52.3128L148.109 52.361L148.11 52.4095L148.111 52.4582L148.111 52.5072L148.112 52.5564L148.113 52.6059L148.114 52.6557L148.115 52.7058L148.116 52.7561L148.117 52.8067L148.118 52.8575L148.119 52.9086L148.12 52.96L148.121 53.0117L148.122 53.0636L148.123 53.1158L148.124 53.1682L148.125 53.221L148.126 53.274L148.127 53.3273L148.128 53.3809L148.129 53.4347L148.13 53.4888L148.131 53.5432L148.132 53.5979L148.133 53.6528L148.134 53.708L148.135 53.7636L148.136 53.8193L148.138 53.8754L148.139 53.9318L148.14 53.9884L148.141 54.0453L148.142 54.1025L148.143 54.16L148.144 54.2178L148.145 54.2758L148.146 54.3342L148.147 54.3928L148.149 54.4517L148.15 54.5109L148.151 54.5704L148.152 54.6302L148.153 54.6902L148.154 54.7506L148.155 54.8113L148.157 54.8722L148.158 54.9335L148.159 54.995L148.16 55.0568L148.161 55.1189L148.162 55.1814L148.164 55.2441L148.165 55.3071L148.166 55.3704L148.167 55.434L148.169 55.4979L148.17 55.5622L148.171 55.6267L148.172 55.6915L148.173 55.7566L148.175 55.822L148.176 55.8877L148.177 55.9538L148.178 56.0201L148.18 56.0867L148.181 56.1537L148.182 56.2209L148.184 56.2885L148.185 56.3564L148.186 56.4245L148.187 56.493L148.189 56.5618L148.19 56.6309L148.191 56.7003L148.193 56.7701L148.194 56.8401L148.195 56.9105L148.197 56.9811L148.198 57.0521L148.2 57.1234L148.201 57.195L148.202 57.267L148.204 57.3392L148.205 57.4118L148.206 57.4847L148.208 57.5579L148.209 57.6314L148.211 57.7053L148.212 57.7795L148.213 57.854L148.215 57.9288L148.216 58.0039L148.218 58.0794L148.219 58.1552L148.221 58.2313L148.222 58.3078L148.224 58.3846L148.225 58.4617L148.227 58.5391L148.228 58.6169L148.229 58.6949L148.231 58.7734L148.232 58.8521L148.234 58.9312L148.236 59.0106L148.237 59.0904L148.239 59.1705L148.24 59.2509L148.242 59.3317L148.243 59.4127L148.245 59.4942L148.246 59.5759L148.248 59.6581L148.249 59.7405L148.251 59.8233L148.253 59.9064L148.254 59.9899L148.256 60.0737L148.257 60.1578L148.259 60.2423L148.261 60.3272L148.262 60.4124L148.264 60.4979L148.266 60.5838L148.267 60.67L148.269 60.7566L148.27 60.8435L148.272 60.9307L148.274 61.0183L148.275 61.1063L148.277 61.1946L148.279 61.2833L148.281 61.3723L148.282 61.4617L148.284 61.5514L148.286 61.6415L148.287 61.7319L148.289 61.8227L148.291 61.9138L148.293 62.0053L148.294 62.0972L148.296 62.1894L148.298 62.282L148.3 62.3749L148.301 62.4682L148.303 62.5619L148.305 62.6559L148.307 62.7503L148.309 62.845L148.31 62.9401L148.312 63.0356L148.314 63.1314L148.316 63.2276L148.318 63.3242L148.32 63.4211L148.321 63.5184L148.323 63.6161L148.325 63.7142L148.327 63.8126L148.329 63.9114L148.331 64.0105L148.333 64.11L148.335 64.2099L148.337 64.3102L148.339 64.4108L148.34 64.5119L148.342 64.6132L148.344 64.715L148.346 64.8172L148.348 64.9197L148.35 65.0226L148.352 65.1259L148.354 65.2295L148.356 65.3336L148.358 65.438L148.36 65.5428L148.362 65.648L148.364 65.7535L148.366 65.8595L148.368 65.9658L148.37 66.0725L148.372 66.1796L148.374 66.2871L148.376 66.395L148.378 66.5033L148.381 66.6119L148.383 66.721L148.385 66.8304L148.387 66.9402L148.389 67.0504L148.391 67.161L148.393 67.272L148.395 67.3834L148.397 67.4952L148.399 67.6074L148.402 67.72L148.404 67.8329L148.406 67.9463L148.408 68.06L148.41 68.1742L148.412 68.2888L148.415 68.4037C148.435 69.4612 147.985 70.4177 147.047 71.298C146.098 72.1883 144.665 72.9842 142.777 73.6803C139.001 75.0719 133.55 76.014 126.947 76.5961C113.751 77.7592 96.1022 77.4734 78.4184 76.572C60.7399 75.6709 43.0475 74.1558 29.7733 72.8658C23.1366 72.2208 17.6051 71.6322 13.7331 71.2049C11.7971 70.9912 10.276 70.8178 9.23905 70.6979C8.72058 70.638 8.32316 70.5914 8.05544 70.5598L8.01262 70.5547C7.97203 70.3416 7.91479 70.0387 7.8445 69.6602C7.69733 68.8676 7.49301 67.7438 7.26453 66.4193C6.80736 63.7691 6.25439 60.3209 5.86878 57.118C5.48069 53.8946 5.27071 50.9825 5.47401 49.3698C5.52458 48.9687 5.59665 48.6865 5.67699 48.5106C5.71049 48.4372 5.73749 48.3984 5.7542 48.3789C5.7876 48.3903 5.85888 48.4234 5.97585 48.5207C6.17713 48.6882 6.43845 48.985 6.76268 49.4547C6.99888 49.7969 7.37922 50.0685 7.82696 50.2933C8.28192 50.5217 8.8504 50.7234 9.51373 50.9036C10.8408 51.2641 12.6059 51.5542 14.7319 51.785C18.9874 52.247 24.7578 52.4788 31.5131 52.5383C45.0277 52.6574 62.5369 52.0875 79.8698 51.2754C97.2047 50.4632 114.371 49.4083 127.203 48.5565C133.62 48.1306 138.953 47.7554 142.682 47.4867C144.546 47.3524 146.01 47.2447 147.007 47.1705ZM5.77286 48.3612C5.77289 48.3613 5.77182 48.3622 5.76954 48.3634C5.77169 48.3617 5.77283 48.3611 5.77286 48.3612Z" stroke="#6C9CBE"/>
</g>
<g filter="url(#filter1_d_4058_43)">
<path d="M47.4156 45.5418C52.2138 37.7459 181.815 42.8315 181.815 42.8315C181.815 42.8315 181.771 40.6937 181.38 21.4538C180.988 2.21395 46.9806 24.1642 46.9806 24.1642C46.9806 24.1642 42.6174 53.3377 47.4156 45.5418Z" fill="#212121"/>
<path d="M180.377 42.2766C180.759 42.2908 181.07 42.3025 181.304 42.3115L181.304 42.3072L181.304 42.2966L181.304 42.2858L181.303 42.2749L181.303 42.2639L181.303 42.2528L181.303 42.2415L181.303 42.2301L181.302 42.2186L181.302 42.2069L181.302 42.1951L181.302 42.1831L181.301 42.1711L181.301 42.1588L181.301 42.1465L181.301 42.134L181.3 42.1214L181.3 42.1086L181.3 42.0957L181.3 42.0826L181.299 42.0694L181.299 42.0561L181.299 42.0426L181.298 42.029L181.298 42.0152L181.298 42.0013L181.298 41.9873L181.297 41.9731L181.297 41.9587L181.297 41.9442L181.296 41.9296L181.296 41.9148L181.296 41.8999L181.295 41.8848L181.295 41.8695L181.295 41.8541L181.295 41.8386L181.294 41.8229L181.294 41.807L181.294 41.791L181.293 41.7749L181.293 41.7586L181.293 41.7421L181.292 41.7255L181.292 41.7087L181.292 41.6917L181.291 41.6746L181.291 41.6574L181.291 41.64L181.29 41.6224L181.29 41.6046L181.289 41.5867L181.289 41.5687L181.289 41.5504L181.288 41.5321L181.288 41.5135L181.288 41.4948L181.287 41.4759L181.287 41.4568L181.286 41.4376L181.286 41.4182L181.286 41.3987L181.285 41.3789L181.285 41.359L181.284 41.339L181.284 41.3187L181.284 41.2983L181.283 41.2777L181.283 41.257L181.282 41.236L181.282 41.2149L181.281 41.1936L181.281 41.1722L181.281 41.1505L181.28 41.1287L181.28 41.1067L181.279 41.0846L181.279 41.0622L181.278 41.0397L181.278 41.017L181.277 40.9941L181.277 40.971L181.276 40.9477L181.276 40.9243L181.275 40.9007L181.275 40.8769L181.274 40.8529L181.274 40.8287L181.273 40.8043L181.273 40.7798L181.272 40.755L181.272 40.7301L181.271 40.705L181.271 40.6797L181.27 40.6542L181.27 40.6285L181.269 40.6026L181.269 40.5765L181.268 40.5502L181.268 40.5238L181.267 40.4971L181.267 40.4703L181.266 40.4432L181.266 40.416L181.265 40.3885L181.264 40.3609L181.264 40.333L181.263 40.305L181.263 40.2767L181.262 40.2483L181.262 40.2197L181.261 40.1908L181.26 40.1618L181.26 40.1325L181.259 40.1031L181.259 40.0734L181.258 40.0435L181.257 40.0135L181.257 39.9832L181.256 39.9527L181.256 39.922L181.255 39.8911L181.254 39.86L181.254 39.8286L181.253 39.7971L181.252 39.7654L181.252 39.7334L181.251 39.7012L181.25 39.6689L181.25 39.6363L181.249 39.6034L181.248 39.5704L181.248 39.5372L181.247 39.5037L181.246 39.47L181.246 39.4361L181.245 39.402L181.244 39.3677L181.244 39.3331L181.243 39.2983L181.242 39.2633L181.241 39.2281L181.241 39.1927L181.24 39.157L181.239 39.1211L181.239 39.085L181.238 39.0487L181.237 39.0121L181.236 38.9753L181.236 38.9383L181.235 38.901L181.234 38.8635L181.233 38.8258L181.232 38.7879L181.232 38.7497L181.231 38.7113L181.23 38.6727L181.229 38.6338L181.229 38.5947L181.228 38.5554L181.227 38.5158L181.226 38.476L181.225 38.436L181.224 38.3957L181.224 38.3552L181.223 38.3144L181.222 38.2734L181.221 38.2322L181.22 38.1907L181.219 38.149L181.219 38.107L181.218 38.0648L181.217 38.0224L181.216 37.9797L181.215 37.9368L181.214 37.8936L181.213 37.8502L181.212 37.8065L181.212 37.7626L181.211 37.7185L181.21 37.6741L181.209 37.6294L181.208 37.5845L181.207 37.5393L181.206 37.4939L181.205 37.4483L181.204 37.4024L181.203 37.3562L181.202 37.3098L181.201 37.2631L181.2 37.2162L181.2 37.169L181.199 37.1215L181.198 37.0738L181.197 37.0259L181.196 36.9777L181.195 36.9292L181.194 36.8805L181.193 36.8315L181.192 36.7822L181.191 36.7327L181.19 36.6829L181.189 36.6329L181.188 36.5826L181.187 36.532L181.186 36.4812L181.184 36.4301L181.183 36.3787L181.182 36.3271L181.181 36.2752L181.18 36.223L181.179 36.1706L181.178 36.1179L181.177 36.0649L181.176 36.0117L181.175 35.9581L181.174 35.9044L181.173 35.8503L181.172 35.796L181.17 35.7413L181.169 35.6865L181.168 35.6313L181.167 35.5758L181.166 35.5201L181.165 35.4641L181.164 35.4079L181.163 35.3513L181.161 35.2945L181.16 35.2374L181.159 35.18L181.158 35.1223L181.157 35.0643L181.156 35.0061L181.154 34.9476L181.153 34.8888L181.152 34.8297L181.151 34.7703L181.149 34.7106L181.148 34.6507L181.147 34.5904L181.146 34.5299L181.145 34.4691L181.143 34.408L181.142 34.3466L181.141 34.2849L181.14 34.2229L181.138 34.1606L181.137 34.0981L181.136 34.0352L181.134 33.9721L181.133 33.9086L181.132 33.8449L181.131 33.7808L181.129 33.7165L181.128 33.6518L181.127 33.5869L181.125 33.5217L181.124 33.4561L181.123 33.3903L181.121 33.3242L181.12 33.2577L181.119 33.191L181.117 33.1239L181.116 33.0566L181.114 32.9889L181.113 32.921L181.112 32.8527L181.11 32.7841L181.109 32.7153L181.107 32.6461L181.106 32.5766L181.105 32.5068L181.103 32.4367L181.102 32.3663L181.1 32.2955L181.099 32.2245L181.097 32.1531L181.096 32.0814L181.095 32.0095L181.093 31.9372L181.092 31.8646L181.09 31.7916L181.089 31.7184L181.087 31.6448L181.086 31.5709L181.084 31.4967L181.083 31.4222L181.081 31.3474L181.08 31.2722L181.078 31.1967L181.076 31.1209L181.075 31.0448L181.073 30.9684L181.072 30.8916L181.07 30.8145L181.069 30.7371L181.067 30.6593L181.065 30.5812L181.064 30.5028L181.062 30.4241L181.061 30.345L181.059 30.2657L181.057 30.1859L181.056 30.1059L181.054 30.0255L181.053 29.9448L181.051 29.8638L181.049 29.7824L181.048 29.7007L181.046 29.6186L181.044 29.5362L181.043 29.4535L181.041 29.3705L181.039 29.2871L181.037 29.2034L181.036 29.1193L181.034 29.0349L181.032 28.9501L181.031 28.865L181.029 28.7796L181.027 28.6938L181.025 28.6077L181.024 28.5213L181.022 28.4345L181.02 28.3473L181.018 28.2598L181.016 28.172L181.015 28.0838L181.013 27.9953L181.011 27.9064L181.009 27.8172L181.007 27.7276L181.006 27.6377L181.004 27.5474L181.002 27.4568L181 27.3658L180.998 27.2745L180.996 27.1828L180.994 27.0908L180.993 26.9984L180.991 26.9056L180.989 26.8125L180.987 26.719L180.985 26.6252L180.983 26.531L180.981 26.4365L180.979 26.3416L180.977 26.2464L180.975 26.1507L180.973 26.0548L180.971 25.9584L180.969 25.8617L180.967 25.7647L180.965 25.6672L180.963 25.5694L180.961 25.4713L180.959 25.3728L180.957 25.2739L180.955 25.1746L180.953 25.075L180.951 24.975L180.949 24.8746L180.947 24.7739L180.945 24.6728L180.943 24.5713L180.941 24.4694L180.939 24.3672L180.937 24.2646L180.935 24.1617L180.933 24.0583L180.931 23.9546L180.928 23.8505L180.926 23.746L180.924 23.6412L180.922 23.536L180.92 23.4303L180.918 23.3244L180.916 23.218L180.913 23.1112L180.911 23.0041L180.909 22.8966L180.907 22.7887L180.905 22.6804L180.902 22.5718L180.9 22.4627L180.898 22.3533L180.896 22.2435L180.894 22.1333L180.891 22.0227L180.889 21.9117L180.887 21.8003L180.884 21.6886L180.882 21.5764L180.88 21.4639C180.838 19.4134 179.018 17.7558 175.334 16.5204C171.698 15.3013 166.486 14.5831 160.189 14.2598C147.608 13.614 130.849 14.5511 114.079 16.0919C97.3145 17.6323 80.5597 19.7737 67.9947 21.5303C61.7126 22.4085 56.4786 23.1904 52.8154 23.7528C50.9839 24.034 49.545 24.2602 48.5642 24.4162C48.0739 24.4941 47.698 24.5545 47.4448 24.5954L47.4222 24.5991C47.3918 24.8085 47.3493 25.1041 47.2976 25.4721C47.1879 26.253 47.0365 27.36 46.8698 28.6642C46.5362 31.2738 46.1419 34.6677 45.8973 37.8153C45.6511 40.983 45.5623 43.84 45.817 45.4105C45.8803 45.8013 45.9596 46.0747 46.0425 46.2435C46.0687 46.2969 46.0904 46.3305 46.106 46.3511C46.1393 46.3339 46.1963 46.2973 46.2802 46.2196C46.4633 46.05 46.6996 45.7512 46.9898 45.2797C47.2028 44.9336 47.5568 44.6514 47.9765 44.4133C48.4025 44.1715 48.9373 43.9522 49.5622 43.7508C50.8122 43.3478 52.4807 42.9979 54.4931 42.6927C58.5215 42.0818 63.9978 41.64 70.4155 41.33C83.255 40.7098 99.9164 40.6147 116.419 40.7632C132.923 40.9117 149.277 41.3039 161.504 41.6589C167.618 41.8364 172.7 42.0046 176.254 42.1285C178.031 42.1904 179.426 42.2412 180.377 42.2766ZM46.1337 46.3807C46.1338 46.3806 46.1327 46.3797 46.1306 46.3785C46.1326 46.3802 46.1337 46.3808 46.1337 46.3807Z" stroke="#6C9CBE"/>
</g>
<g filter="url(#filter2_d_4058_43)">
<rect width="115.563" height="56.8876" rx="16" transform="matrix(0.954099 -0.298967 0.237477 0.971521 108.612 34.7799)" fill="#212121"/>
<rect x="4.7663" y="2.69022" width="107.563" height="48.8876" rx="12" transform="matrix(0.954099 -0.298967 0.237477 0.971521 108.192 36.2815)" stroke="#3C9FCA" stroke-width="8"/>
</g>
<g filter="url(#filter3_d_4058_43)">
<rect width="115.563" height="56.8876" rx="10" transform="matrix(0.954099 -0.298967 0.237477 0.971521 108.612 34.7799)" fill="#212121"/>
<rect x="1.78736" y="1.00883" width="112.563" height="53.8876" rx="8.5" transform="matrix(0.954099 -0.298967 0.237477 0.971521 108.454 35.343)" stroke="#6C9CBE" stroke-width="3"/>
</g>
<g filter="url(#filter4_d_4058_43)">
<rect width="84.7023" height="22.1831" transform="matrix(0.954249 -0.299014 0.237447 0.9714 131.368 56.7145)" fill="#444444"/>
</g>
<g filter="url(#filter5_d_4058_43)">
<rect width="84.7023" height="19.3832" transform="matrix(0.954249 -0.299014 0.237447 0.9714 132.033 59.4352)" fill="#153F07"/>
</g>
<g filter="url(#filter6_d_4058_43)">
<rect width="84.7023" height="21.7095" transform="matrix(0.954249 -0.299014 0.237447 0.9714 126.732 37.7491)" fill="#9CC1DC"/>
</g>
<line y1="-0.25" x2="1.5127" y2="-0.25" transform="matrix(0.999683 0.0251899 -0.0259735 0.999663 206.524 19.713)" stroke="#FFCC2C" stroke-width="0.5"/>
<line y1="-0.25" x2="1.50763" y2="-0.25" transform="matrix(0.886714 0.462319 -0.47352 0.880783 206.131 21.1246)" stroke="#FFCC2C" stroke-width="0.5"/>
<ellipse cx="5.52916" cy="5.42417" rx="5.52916" ry="5.42417" transform="matrix(0.999829 -0.0184927 0.0190681 0.999818 132.629 38.9645)" fill="#257D3D"/>
<ellipse cx="5.52916" cy="5.42417" rx="5.52916" ry="5.42417" transform="matrix(0.999829 -0.0184927 0.0190681 0.999818 146.426 44.3922)" fill="#257D3D"/>
<ellipse cx="5.52916" cy="5.42417" rx="5.52916" ry="5.42417" transform="matrix(0.999829 -0.0184927 0.0190681 0.999818 143.894 48.9347)" fill="#257D3D"/>
<ellipse cx="5.52916" cy="5.42417" rx="5.52916" ry="5.42417" transform="matrix(0.999829 -0.0184927 0.0190681 0.999818 139.016 42.462)" fill="#257D3D"/>
<ellipse cx="5.52916" cy="5.42417" rx="5.52916" ry="5.42417" transform="matrix(0.999829 -0.0184927 0.0190681 0.999818 133.264 44.6361)" fill="#257D3D"/>
<ellipse cx="5.52916" cy="5.42417" rx="5.52916" ry="5.42417" transform="matrix(0.999829 -0.0184927 0.0190681 0.999818 138.352 35.2408)" fill="#257D3D"/>
<ellipse cx="6.58234" cy="5.94075" rx="6.58234" ry="5.94075" transform="matrix(0.999829 -0.0184927 0.0190681 0.999818 144.182 37.2003)" fill="#257D3D"/>
<ellipse cx="6.58234" cy="5.94075" rx="6.58234" ry="5.94075" transform="matrix(0.999829 -0.0184927 0.0190681 0.999818 138.578 47.1202)" fill="#257D3D"/>
<rect width="4.60124" height="13.4397" transform="matrix(0.976631 -0.214408 0.222306 0.975095 146.466 54.1681)" fill="#8A6B3B"/>
<rect width="2.02469" height="7.86814" transform="matrix(0.880246 0.475035 -0.489058 0.871964 152.262 52.3151)" fill="#8A6B3B"/>
<rect width="2.80624" height="7.914" transform="matrix(-0.665059 0.746407 0.759359 0.651111 143.032 48.6036)" fill="#8A6B3B"/>
<rect width="3.0896" height="6.15375" transform="matrix(0.991072 -0.132838 0.137813 0.990527 147.066 47.6388)" fill="#8A6B3B"/>
<ellipse cx="3.84515" cy="4.34187" rx="3.84515" ry="4.34187" transform="matrix(0.999829 -0.0184927 0.0190681 0.999818 164.038 29.3904)" fill="#257D3D"/>
<ellipse cx="4.07079" cy="4.34187" rx="4.07079" ry="4.34187" transform="matrix(0.999829 -0.0184927 0.0190681 0.999818 174.074 33.7762)" fill="#257D3D"/>
<ellipse cx="3.82056" cy="3.85999" rx="3.82056" ry="3.85999" transform="matrix(0.999829 -0.0184927 0.0190681 0.999818 168.919 32.6198)" fill="#257D3D"/>
<ellipse cx="3.82056" cy="3.85999" rx="3.82056" ry="3.85999" transform="matrix(0.999829 -0.0184927 0.0190681 0.999818 164.945 34.1633)" fill="#257D3D"/>
<ellipse cx="3.82056" cy="3.85999" rx="3.82056" ry="3.85999" transform="matrix(0.999829 -0.0184927 0.0190681 0.999818 168.439 26.5668)" fill="#257D3D"/>
<ellipse cx="5.65387" cy="4.79891" rx="5.65387" ry="4.79891" transform="matrix(0.999829 -0.0184927 0.0190681 0.999818 172.144 27.412)" fill="#257D3D"/>
<ellipse cx="4.54768" cy="4.22761" rx="4.54768" ry="4.22761" transform="matrix(0.999829 -0.0184927 0.0190681 0.999818 168.635 36.8475)" fill="#257D3D"/>
<rect width="3.63173" height="10.8588" transform="matrix(-0.957407 0.28246 0.278879 0.962172 177.229 40.1536)" fill="#8A6B3B"/>
<rect width="1.60648" height="6.32327" transform="matrix(-0.531573 0.850969 0.840084 0.536266 172.518 41.0646)" fill="#8A6B3B"/>
<rect width="2.24358" height="6.31172" transform="matrix(0.9351 0.343009 -0.338843 0.945055 177.433 34.886)" fill="#8A6B3B"/>
<rect width="2.43699" height="4.97538" transform="matrix(-0.930516 0.363067 0.358059 0.934927 174.281 35.7502)" fill="#8A6B3B"/>
<rect width="0.458625" height="1.90687" transform="matrix(0.96435 -0.264629 0.272264 0.962223 167.709 46.7527)" fill="#8A6B3B"/>
<rect width="0.458625" height="1.90687" transform="matrix(0.96435 -0.264629 0.272264 0.962223 160.634 48.6942)" fill="#8A6B3B"/>
<g filter="url(#filter7_i_4058_43)">
<rect width="10.0885" height="3.54129" rx="1.77064" transform="matrix(0.96435 -0.264629 0.272264 0.962223 158.638 45.8525)" fill="#E9B05B"/>
</g>
<ellipse cx="0.458625" cy="0.544819" rx="0.458625" ry="0.544819" transform="matrix(0.96435 -0.264629 0.272264 0.962223 160.04 46.597)" fill="#8A6B3B"/>
<ellipse cx="0.458625" cy="0.544819" rx="0.458625" ry="0.544819" transform="matrix(0.96435 -0.264629 0.272264 0.962223 166.674 44.7767)" fill="#8A6B3B"/>
<rect width="0.687937" height="1.90687" rx="0.343969" transform="matrix(0.96435 -0.264629 0.272264 0.962223 160.417 51.2955)" fill="#8A6B3B"/>
<rect width="0.687937" height="1.90687" rx="0.343969" transform="matrix(0.96435 -0.264629 0.272264 0.962223 169.261 48.8689)" fill="#8A6B3B"/>
<g filter="url(#filter8_d_4058_43)">
<rect width="11.2349" height="1.63444" rx="0.81722" transform="matrix(0.96435 -0.264629 0.272264 0.962223 159.383 50.167)" fill="#E9B05B"/>
</g>
<rect width="1.05535" height="19.5553" transform="matrix(0.993202 -0.115919 0.121076 0.992702 206.84 28.5798)" fill="#D9D9D9"/>
<rect width="1.05557" height="21.9566" transform="matrix(1 0.00486459 -0.00540713 0.999971 185.624 30.9392)" fill="#D9D9D9"/>
<rect width="1.05418" height="24.3581" transform="matrix(0.967139 -0.253727 0.264852 0.964432 186.086 31.4095)" fill="#D9D9D9"/>
<rect width="1.05418" height="24.3581" transform="matrix(0.967132 -0.253757 0.264821 0.96444 207.224 28.646)" fill="#D9D9D9"/>
<path d="M192.885 46.4453C192.486 45.9316 192.739 45.1851 193.366 45.0235L196.548 44.2037C196.933 44.1045 197.341 44.2636 197.558 44.5978C197.902 45.125 197.628 45.8268 197.019 45.9785L193.831 46.7741C193.48 46.8616 193.108 46.7324 192.885 46.4453Z" fill="#827F7F"/>
<path d="M201.659 44.9726C201.293 44.4358 201.592 43.7057 202.227 43.5823L205.457 42.9552C205.847 42.8795 206.243 43.0627 206.439 43.4092C206.749 43.9562 206.432 44.6403 205.815 44.7551L202.581 45.3575C202.225 45.4237 201.863 45.2723 201.659 44.9726Z" fill="#827F7F"/>
<line y1="-0.25" x2="14.179" y2="-0.25" transform="matrix(0.227157 0.973979 -0.975936 0.217542 189.831 31.5701)" stroke="#212121" stroke-width="0.5"/>
<line y1="-0.25" x2="14.179" y2="-0.25" transform="matrix(0.227157 0.973979 -0.975936 0.217542 193.364 30.7357)" stroke="#212121" stroke-width="0.5"/>
<line y1="-0.25" x2="14.179" y2="-0.25" transform="matrix(0.227157 0.973979 -0.975936 0.217542 198.674 30.0594)" stroke="#212121" stroke-width="0.5"/>
<line y1="-0.25" x2="14.179" y2="-0.25" transform="matrix(0.227157 0.973979 -0.975936 0.217542 202.211 29.4161)" stroke="#212121" stroke-width="0.5"/>
<rect width="1.21495" height="22.4636" transform="matrix(0.154876 0.988012 -0.988875 0.14825 208.101 27.5739)" fill="#D9D9D9"/>
<line y1="-0.25" x2="1.27172" y2="-0.25" transform="matrix(0.192546 0.981389 -0.982768 0.184332 189.807 30.3098)" stroke="#212121" stroke-width="0.5"/>
<line y1="-0.25" x2="1.2486" y2="-0.25" transform="matrix(0.192546 0.981389 -0.982768 0.184332 198.713 28.9902)" stroke="#212121" stroke-width="0.5"/>
<line y1="-0.25" x2="1.24282" y2="-0.25" transform="matrix(0.192546 0.981389 -0.982768 0.184332 202.251 28.4326)" stroke="#212121" stroke-width="0.5"/>
<line y1="-0.25" x2="1.25438" y2="-0.25" transform="matrix(0.192546 0.981389 -0.982768 0.184332 193.345 29.7535)" stroke="#212121" stroke-width="0.5"/>
<ellipse cx="2.30747" cy="2.06555" rx="2.30747" ry="2.06555" transform="matrix(0.999829 -0.0184927 0.0190681 0.999818 201.443 17.2863)" fill="#FFDA64" fill-opacity="0.85"/>
<ellipse cx="1.88793" cy="1.65244" rx="1.88793" ry="1.65244" transform="matrix(0.999829 -0.0184927 0.0190681 0.999818 201.87 17.691)" fill="#FFDA64"/>
<ellipse cx="1.46839" cy="1.23933" rx="1.46839" ry="1.23933" transform="matrix(0.999829 -0.0184927 0.0190681 0.999818 202.298 18.0969)" fill="#FFD44E"/>
<ellipse cx="1.04885" cy="0.826219" rx="1.04885" ry="0.826219" transform="matrix(0.999829 -0.0184927 0.0190681 0.999818 202.725 18.5018)" fill="#FFCC2C"/>
<line y1="-0.25" x2="1.50237" y2="-0.25" transform="matrix(0.749246 -0.662292 0.67363 0.739068 205.683 17.4137)" stroke="#FFCC2C" stroke-width="0.5"/>
<line y1="-0.25" x2="1.51098" y2="-0.25" transform="matrix(0.963333 -0.268309 0.276032 0.961148 206.291 18.4777)" stroke="#FFCC2C" stroke-width="0.5"/>
<line y1="-0.25" x2="1.49706" y2="-0.25" transform="matrix(0.576125 0.817362 -0.825549 0.564331 201.004 16.2618)" stroke="#FFCC2C" stroke-width="0.5"/>
<line y1="-0.25" x2="1.50719" y2="-0.25" transform="matrix(0.876101 0.482127 -0.493521 0.869734 199.96 17.7648)" stroke="#FFCC2C" stroke-width="0.5"/>
<line y1="-0.25" x2="1.51287" y2="-0.25" transform="matrix(0.996303 0.0859061 -0.0885593 0.996071 199.601 19.7198)" stroke="#FFCC2C" stroke-width="0.5"/>
<line y1="-0.25" x2="1.50684" y2="-0.25" transform="matrix(0.867391 -0.497627 0.509146 0.86068 200.12 21.649)" stroke="#FFCC2C" stroke-width="0.5"/>
<line y1="-0.25" x2="1.49706" y2="-0.25" transform="matrix(0.575882 -0.817533 0.825715 0.564088 201.55 22.8619)" stroke="#FFCC2C" stroke-width="0.5"/>
<line y1="-0.25" x2="1.48948" y2="-0.25" transform="matrix(0.00569781 -0.999984 0.999985 0.00552582 203.654 23.236)" stroke="#FFCC2C" stroke-width="0.5"/>
<line y1="-0.25" x2="1.49214" y2="-0.25" transform="matrix(-0.342005 -0.939698 0.942983 -0.332841 205.811 22.9552)" stroke="#FFCC2C" stroke-width="0.5"/>
<line y1="-0.25" x2="1.49084" y2="-0.25" transform="matrix(0.245035 0.969514 -0.97125 0.238063 202.666 15.4039)" stroke="#FFCC2C" stroke-width="0.5"/>
<line y1="-0.25" x2="1.49006" y2="-0.25" transform="matrix(-0.112255 0.99368 -0.994052 -0.108907 204.539 15.3698)" stroke="#FFCC2C" stroke-width="0.5"/>
<defs>
<filter id="filter0_d_4058_43" x="0.895264" y="46.5573" width="152.02" height="39.3053" filterUnits="userSpaceOnUse" color-interpolation-filters="sRGB">
<feFlood flood-opacity="0" result="BackgroundImageFix"/>
<feColorMatrix in="SourceAlpha" type="matrix" values="0 0 0 0 0 0 0 0 0 0 0 0 0 0 0 0 0 0 127 0" result="hardAlpha"/>
<feOffset dy="4"/>
<feGaussianBlur stdDeviation="2"/>
<feComposite in2="hardAlpha" operator="out"/>
<feColorMatrix type="matrix" values="0 0 0 0 0 0 0 0 0 0 0 0 0 0 0 0 0 0 0.25 0"/>
<feBlend mode="normal" in2="BackgroundImageFix" result="effect1_dropShadow_4058_43"/>
<feBlend mode="normal" in="SourceGraphic" in2="effect1_dropShadow_4058_43" result="shape"/>
</filter>
<filter id="filter1_d_4058_43" x="41.1642" y="13.553" width="144.651" height="41.313" filterUnits="userSpaceOnUse" color-interpolation-filters="sRGB">
<feFlood flood-opacity="0" result="BackgroundImageFix"/>
<feColorMatrix in="SourceAlpha" type="matrix" values="0 0 0 0 0 0 0 0 0 0 0 0 0 0 0 0 0 0 127 0" result="hardAlpha"/>
<feOffset dy="4"/>
<feGaussianBlur stdDeviation="2"/>
<feComposite in2="hardAlpha" operator="out"/>
<feColorMatrix type="matrix" values="0 0 0 0 0 0 0 0 0 0 0 0 0 0 0 0 0 0 0.25 0"/>
<feBlend mode="normal" in2="BackgroundImageFix" result="effect1_dropShadow_4058_43"/>
<feBlend mode="normal" in="SourceGraphic" in2="effect1_dropShadow_4058_43" result="shape"/>
</filter>
<filter id="filter2_d_4058_43" x="107.942" y="4.29004" width="125.108" height="89.6976" filterUnits="userSpaceOnUse" color-interpolation-filters="sRGB">
<feFlood flood-opacity="0" result="BackgroundImageFix"/>
<feColorMatrix in="SourceAlpha" type="matrix" values="0 0 0 0 0 0 0 0 0 0 0 0 0 0 0 0 0 0 127 0" result="hardAlpha"/>
<feOffset dy="4"/>
<feGaussianBlur stdDeviation="2"/>
<feComposite in2="hardAlpha" operator="out"/>
<feColorMatrix type="matrix" values="0 0 0 0 0 0 0 0 0 0 0 0 0 0 0 0 0 0 0.25 0"/>
<feBlend mode="normal" in2="BackgroundImageFix" result="effect1_dropShadow_4058_43"/>
<feBlend mode="normal" in="SourceGraphic" in2="effect1_dropShadow_4058_43" result="shape"/>
</filter>
<filter id="filter3_d_4058_43" x="106.693" y="2.7677" width="127.606" height="92.7424" filterUnits="userSpaceOnUse" color-interpolation-filters="sRGB">
<feFlood flood-opacity="0" result="BackgroundImageFix"/>
<feColorMatrix in="SourceAlpha" type="matrix" values="0 0 0 0 0 0 0 0 0 0 0 0 0 0 0 0 0 0 127 0" result="hardAlpha"/>
<feOffset dy="4"/>
<feGaussianBlur stdDeviation="2"/>
<feComposite in2="hardAlpha" operator="out"/>
<feColorMatrix type="matrix" values="0 0 0 0 0 0 0 0 0 0 0 0 0 0 0 0 0 0 0.25 0"/>
<feBlend mode="normal" in2="BackgroundImageFix" result="effect1_dropShadow_4058_43"/>
<feBlend mode="normal" in="SourceGraphic" in2="effect1_dropShadow_4058_43" result="shape"/>
</filter>
<filter id="filter4_d_4058_43" x="127.368" y="31.3873" width="94.0944" height="54.8759" filterUnits="userSpaceOnUse" color-interpolation-filters="sRGB">
<feFlood flood-opacity="0" result="BackgroundImageFix"/>
<feColorMatrix in="SourceAlpha" type="matrix" values="0 0 0 0 0 0 0 0 0 0 0 0 0 0 0 0 0 0 127 0" result="hardAlpha"/>
<feOffset dy="4"/>
<feGaussianBlur stdDeviation="2"/>
<feComposite in2="hardAlpha" operator="out"/>
<feColorMatrix type="matrix" values="0 0 0 0 0 0 0 0 0 0 0 0 0 0 0 0 0 0 0.25 0"/>
<feBlend mode="normal" in2="BackgroundImageFix" result="effect1_dropShadow_4058_43"/>
<feBlend mode="normal" in="SourceGraphic" in2="effect1_dropShadow_4058_43" result="shape"/>
</filter>
<filter id="filter5_d_4058_43" x="128.033" y="34.108" width="93.4294" height="52.156" filterUnits="userSpaceOnUse" color-interpolation-filters="sRGB">
<feFlood flood-opacity="0" result="BackgroundImageFix"/>
<feColorMatrix in="SourceAlpha" type="matrix" values="0 0 0 0 0 0 0 0 0 0 0 0 0 0 0 0 0 0 127 0" result="hardAlpha"/>
<feOffset dy="4"/>
<feGaussianBlur stdDeviation="2"/>
<feComposite in2="hardAlpha" operator="out"/>
<feColorMatrix type="matrix" values="0 0 0 0 0 0 0 0 0 0 0 0 0 0 0 0 0 0 0.25 0"/>
<feBlend mode="normal" in2="BackgroundImageFix" result="effect1_dropShadow_4058_43"/>
<feBlend mode="normal" in="SourceGraphic" in2="effect1_dropShadow_4058_43" result="shape"/>
</filter>
<filter id="filter6_d_4058_43" x="122.732" y="12.422" width="93.9819" height="54.4158" filterUnits="userSpaceOnUse" color-interpolation-filters="sRGB">
<feFlood flood-opacity="0" result="BackgroundImageFix"/>
<feColorMatrix in="SourceAlpha" type="matrix" values="0 0 0 0 0 0 0 0 0 0 0 0 0 0 0 0 0 0 127 0" result="hardAlpha"/>
<feOffset dy="4"/>
<feGaussianBlur stdDeviation="2"/>
<feComposite in2="hardAlpha" operator="out"/>
<feColorMatrix type="matrix" values="0 0 0 0 0 0 0 0 0 0 0 0 0 0 0 0 0 0 0.25 0"/>
<feBlend mode="normal" in2="BackgroundImageFix" result="effect1_dropShadow_4058_43"/>
<feBlend mode="normal" in="SourceGraphic" in2="effect1_dropShadow_4058_43" result="shape"/>
</filter>
<filter id="filter7_i_4058_43" x="159.053" y="43.5876" width="9.86316" height="9.26758" filterUnits="userSpaceOnUse" color-interpolation-filters="sRGB">
<feFlood flood-opacity="0" result="BackgroundImageFix"/>
<feBlend mode="normal" in="SourceGraphic" in2="BackgroundImageFix" result="shape"/>
<feColorMatrix in="SourceAlpha" type="matrix" values="0 0 0 0 0 0 0 0 0 0 0 0 0 0 0 0 0 0 127 0" result="hardAlpha"/>
<feOffset dy="4"/>
<feGaussianBlur stdDeviation="2"/>
<feComposite in2="hardAlpha" operator="arithmetic" k2="-1" k3="1"/>
<feColorMatrix type="matrix" values="0 0 0 0 0 0 0 0 0 0 0 0 0 0 0 0 0 0 0.25 0"/>
<feBlend mode="normal" in2="shape" result="effect1_innerShadow_4058_43"/>
</filter>
<filter id="filter8_d_4058_43" x="155.574" y="47.3807" width="18.8964" height="12.1721" filterUnits="userSpaceOnUse" color-interpolation-filters="sRGB">
<feFlood flood-opacity="0" result="BackgroundImageFix"/>
<feColorMatrix in="SourceAlpha" type="matrix" values="0 0 0 0 0 0 0 0 0 0 0 0 0 0 0 0 0 0 127 0" result="hardAlpha"/>
<feOffset dy="4"/>
<feGaussianBlur stdDeviation="2"/>
<feComposite in2="hardAlpha" operator="out"/>
<feColorMatrix type="matrix" values="0 0 0 0 0 0 0 0 0 0 0 0 0 0 0 0 0 0 0.25 0"/>
<feBlend mode="normal" in2="BackgroundImageFix" result="effect1_dropShadow_4058_43"/>
<feBlend mode="normal" in="SourceGraphic" in2="effect1_dropShadow_4058_43" result="shape"/>
</filter>
</defs>
</svg>
