<svg width="233" height="97" viewBox="0 0 233 97" fill="none" xmlns="http://www.w3.org/2000/svg">
<g filter="url(#filter0_di_4059_216)">
<rect x="121" y="54" width="108" height="35" rx="17.5" fill="#FEC407"/>
</g>
<g filter="url(#filter1_di_4059_216)">
<rect x="121" y="7" width="108" height="34" rx="17" fill="#FEC407"/>
</g>
<g filter="url(#filter2_di_4059_216)">
<rect x="6" y="7" width="107" height="34" rx="17" fill="#FEC407"/>
</g>
<g filter="url(#filter3_i_4059_216)">
<rect width="26" height="20" rx="10" fill="#134E78"/>
</g>
<path d="M14.21 12.89V14H9.41V12.89H11.168V7.832C11.168 7.632 11.174 7.426 11.186 7.214L9.938 8.258C9.866 8.314 9.794 8.35 9.722 8.366C9.654 8.378 9.588 8.378 9.524 8.366C9.464 8.354 9.41 8.334 9.362 8.306C9.314 8.274 9.278 8.24 9.254 8.204L8.786 7.562L11.432 5.312H12.65V12.89H14.21ZM15.4769 13.184C15.4769 13.06 15.4989 12.942 15.5429 12.83C15.5909 12.718 15.6549 12.622 15.7349 12.542C15.8149 12.462 15.9109 12.398 16.0229 12.35C16.1349 12.302 16.2549 12.278 16.3829 12.278C16.5109 12.278 16.6289 12.302 16.7369 12.35C16.8489 12.398 16.9449 12.462 17.0249 12.542C17.1089 12.622 17.1749 12.718 17.2229 12.83C17.2709 12.942 17.2949 13.06 17.2949 13.184C17.2949 13.312 17.2709 13.432 17.2229 13.544C17.1749 13.652 17.1089 13.746 17.0249 13.826C16.9449 13.906 16.8489 13.968 16.7369 14.012C16.6289 14.06 16.5109 14.084 16.3829 14.084C16.2549 14.084 16.1349 14.06 16.0229 14.012C15.9109 13.968 15.8149 13.906 15.7349 13.826C15.6549 13.746 15.5909 13.652 15.5429 13.544C15.4989 13.432 15.4769 13.312 15.4769 13.184Z" fill="white"/>
<g filter="url(#filter4_i_4059_216)">
<rect x="116" y="48" width="28" height="20" rx="10" fill="#134E78"/>
</g>
<path d="M129.272 58.73V55.892C129.272 55.624 129.29 55.328 129.326 55.004L126.632 58.73H129.272ZM131.654 58.73V59.588C131.654 59.668 131.628 59.738 131.576 59.798C131.524 59.854 131.45 59.882 131.354 59.882H130.562V62H129.272V59.882H125.612C125.512 59.882 125.424 59.852 125.348 59.792C125.272 59.728 125.224 59.65 125.204 59.558L125.048 58.808L129.158 53.318H130.562V58.73H131.654ZM132.477 61.184C132.477 61.06 132.499 60.942 132.543 60.83C132.591 60.718 132.655 60.622 132.735 60.542C132.815 60.462 132.911 60.398 133.023 60.35C133.135 60.302 133.255 60.278 133.383 60.278C133.511 60.278 133.629 60.302 133.737 60.35C133.849 60.398 133.945 60.462 134.025 60.542C134.109 60.622 134.175 60.718 134.223 60.83C134.271 60.942 134.295 61.06 134.295 61.184C134.295 61.312 134.271 61.432 134.223 61.544C134.175 61.652 134.109 61.746 134.025 61.826C133.945 61.906 133.849 61.968 133.737 62.012C133.629 62.06 133.511 62.084 133.383 62.084C133.255 62.084 133.135 62.06 133.023 62.012C132.911 61.968 132.815 61.906 132.735 61.826C132.655 61.746 132.591 61.652 132.543 61.544C132.499 61.432 132.477 61.312 132.477 61.184Z" fill="white"/>
<g filter="url(#filter5_di_4059_216)">
<rect x="7" y="54" width="107" height="35" rx="17.5" fill="#FEC407"/>
</g>
<g filter="url(#filter6_i_4059_216)">
<rect x="2" y="48" width="27" height="20" rx="10" fill="#134E78"/>
</g>
<path d="M10.648 53.742C10.708 53.326 10.824 52.962 10.996 52.65C11.168 52.334 11.382 52.072 11.638 51.864C11.898 51.652 12.194 51.494 12.526 51.39C12.862 51.282 13.222 51.228 13.606 51.228C14.006 51.228 14.366 51.286 14.686 51.402C15.01 51.514 15.286 51.672 15.514 51.876C15.742 52.076 15.916 52.312 16.036 52.584C16.16 52.856 16.222 53.15 16.222 53.466C16.222 53.742 16.19 53.986 16.126 54.198C16.066 54.406 15.978 54.588 15.862 54.744C15.746 54.9 15.602 55.032 15.43 55.14C15.258 55.248 15.064 55.338 14.848 55.41C15.368 55.574 15.756 55.824 16.012 56.16C16.268 56.496 16.396 56.918 16.396 57.426C16.396 57.858 16.316 58.24 16.156 58.572C15.996 58.904 15.78 59.184 15.508 59.412C15.236 59.636 14.92 59.806 14.56 59.922C14.204 60.038 13.826 60.096 13.426 60.096C12.99 60.096 12.61 60.046 12.286 59.946C11.962 59.846 11.68 59.698 11.44 59.502C11.2 59.306 10.996 59.066 10.828 58.782C10.66 58.498 10.516 58.17 10.396 57.798L11.05 57.528C11.222 57.456 11.382 57.438 11.53 57.474C11.682 57.506 11.792 57.586 11.86 57.714C11.932 57.854 12.01 57.992 12.094 58.128C12.182 58.264 12.286 58.386 12.406 58.494C12.526 58.598 12.666 58.684 12.826 58.752C12.99 58.816 13.184 58.848 13.408 58.848C13.66 58.848 13.88 58.808 14.068 58.728C14.256 58.644 14.412 58.536 14.536 58.404C14.664 58.272 14.758 58.126 14.818 57.966C14.882 57.802 14.914 57.638 14.914 57.474C14.914 57.266 14.892 57.078 14.848 56.91C14.804 56.738 14.712 56.592 14.572 56.472C14.432 56.352 14.23 56.258 13.966 56.19C13.706 56.122 13.356 56.088 12.916 56.088V55.032C13.28 55.028 13.582 54.994 13.822 54.93C14.062 54.866 14.252 54.778 14.392 54.666C14.536 54.55 14.636 54.412 14.692 54.252C14.748 54.092 14.776 53.916 14.776 53.724C14.776 53.316 14.662 53.006 14.434 52.794C14.206 52.582 13.902 52.476 13.522 52.476C13.346 52.476 13.184 52.502 13.036 52.554C12.888 52.602 12.754 52.672 12.634 52.764C12.518 52.852 12.42 52.956 12.34 53.076C12.26 53.196 12.2 53.328 12.16 53.472C12.092 53.656 12.002 53.778 11.89 53.838C11.782 53.898 11.628 53.912 11.428 53.88L10.648 53.742ZM17.4769 59.184C17.4769 59.06 17.4989 58.942 17.5429 58.83C17.5909 58.718 17.6549 58.622 17.7349 58.542C17.8149 58.462 17.9109 58.398 18.0229 58.35C18.1349 58.302 18.2549 58.278 18.3829 58.278C18.5109 58.278 18.6289 58.302 18.7369 58.35C18.8489 58.398 18.9449 58.462 19.0249 58.542C19.1089 58.622 19.1749 58.718 19.2229 58.83C19.2709 58.942 19.2949 59.06 19.2949 59.184C19.2949 59.312 19.2709 59.432 19.2229 59.544C19.1749 59.652 19.1089 59.746 19.0249 59.826C18.9449 59.906 18.8489 59.968 18.7369 60.012C18.6289 60.06 18.5109 60.084 18.3829 60.084C18.2549 60.084 18.1349 60.06 18.0229 60.012C17.9109 59.968 17.8149 59.906 17.7349 59.826C17.6549 59.746 17.5909 59.652 17.5429 59.544C17.4989 59.432 17.4769 59.312 17.4769 59.184Z" fill="white"/>
<g filter="url(#filter7_i_4059_216)">
<rect x="116" width="28" height="20" rx="10" fill="#134E78"/>
</g>
<path d="M131.886 12.62C132.046 12.62 132.172 12.666 132.264 12.758C132.36 12.846 132.408 12.964 132.408 13.112V14H126.456V13.508C126.456 13.408 126.476 13.304 126.516 13.196C126.56 13.084 126.628 12.984 126.72 12.896L129.354 10.256C129.574 10.032 129.77 9.818 129.942 9.614C130.118 9.41 130.264 9.208 130.38 9.008C130.496 8.808 130.584 8.606 130.644 8.402C130.708 8.194 130.74 7.976 130.74 7.748C130.74 7.54 130.71 7.358 130.65 7.202C130.59 7.042 130.504 6.908 130.392 6.8C130.284 6.692 130.152 6.612 129.996 6.56C129.844 6.504 129.672 6.476 129.48 6.476C129.304 6.476 129.14 6.502 128.988 6.554C128.84 6.602 128.708 6.672 128.592 6.764C128.476 6.852 128.378 6.956 128.298 7.076C128.218 7.196 128.158 7.328 128.118 7.472C128.05 7.656 127.962 7.778 127.854 7.838C127.746 7.898 127.59 7.912 127.386 7.88L126.606 7.742C126.666 7.326 126.782 6.962 126.954 6.65C127.126 6.334 127.34 6.072 127.596 5.864C127.856 5.652 128.152 5.494 128.484 5.39C128.82 5.282 129.18 5.228 129.564 5.228C129.964 5.228 130.33 5.288 130.662 5.408C130.994 5.524 131.278 5.69 131.514 5.906C131.75 6.122 131.934 6.382 132.066 6.686C132.198 6.99 132.264 7.328 132.264 7.7C132.264 8.02 132.216 8.316 132.12 8.588C132.028 8.86 131.902 9.12 131.742 9.368C131.586 9.616 131.402 9.856 131.19 10.088C130.978 10.32 130.756 10.556 130.524 10.796L128.568 12.794C128.756 12.738 128.942 12.696 129.126 12.668C129.314 12.636 129.492 12.62 129.66 12.62H131.886ZM133.477 13.184C133.477 13.06 133.499 12.942 133.543 12.83C133.591 12.718 133.655 12.622 133.735 12.542C133.815 12.462 133.911 12.398 134.023 12.35C134.135 12.302 134.255 12.278 134.383 12.278C134.511 12.278 134.629 12.302 134.737 12.35C134.849 12.398 134.945 12.462 135.025 12.542C135.109 12.622 135.175 12.718 135.223 12.83C135.271 12.942 135.295 13.06 135.295 13.184C135.295 13.312 135.271 13.432 135.223 13.544C135.175 13.652 135.109 13.746 135.025 13.826C134.945 13.906 134.849 13.968 134.737 14.012C134.629 14.06 134.511 14.084 134.383 14.084C134.255 14.084 134.135 14.06 134.023 14.012C133.911 13.968 133.815 13.906 133.735 13.826C133.655 13.746 133.591 13.652 133.543 13.544C133.499 13.432 133.477 13.312 133.477 13.184Z" fill="white"/>
<path d="M29.4405 28.2345C29.5102 28.2345 29.5707 28.262 29.622 28.317L30.1335 28.8725C29.8108 29.2612 29.4148 29.5618 28.9455 29.7745C28.4762 29.9835 27.9152 30.088 27.2625 30.088C26.6832 30.088 26.1588 29.989 25.6895 29.791C25.2238 29.5893 24.826 29.3107 24.496 28.955C24.166 28.5957 23.9112 28.1685 23.7315 27.6735C23.5555 27.1785 23.4675 26.634 23.4675 26.04C23.4675 25.446 23.561 24.9015 23.748 24.4065C23.9387 23.9078 24.2045 23.4807 24.5455 23.125C24.8902 22.7657 25.3008 22.487 25.7775 22.289C26.2578 22.091 26.7858 21.992 27.3615 21.992C27.9335 21.992 28.4377 22.0855 28.874 22.2725C29.314 22.4558 29.6953 22.7015 30.018 23.0095L29.5945 23.609C29.5652 23.6493 29.5303 23.6842 29.49 23.7135C29.4497 23.7428 29.3947 23.7575 29.325 23.7575C29.2517 23.7575 29.1673 23.7245 29.072 23.6585C28.9803 23.5888 28.8612 23.5137 28.7145 23.433C28.5715 23.3487 28.39 23.2735 28.17 23.2075C27.9537 23.1378 27.6823 23.103 27.356 23.103C26.9783 23.103 26.6318 23.169 26.3165 23.301C26.0012 23.433 25.7298 23.6255 25.5025 23.8785C25.2752 24.1315 25.0973 24.4395 24.969 24.8025C24.8443 25.1655 24.782 25.578 24.782 26.04C24.782 26.5057 24.848 26.9218 24.98 27.2885C25.112 27.6515 25.2935 27.9595 25.5245 28.2125C25.7555 28.4618 26.0268 28.6525 26.3385 28.7845C26.6502 28.9165 26.9857 28.9825 27.345 28.9825C27.565 28.9825 27.7612 28.9715 27.9335 28.9495C28.1095 28.9238 28.2708 28.8853 28.4175 28.834C28.5642 28.779 28.7017 28.7112 28.83 28.6305C28.962 28.5498 29.0922 28.4508 29.2205 28.3335C29.2938 28.2675 29.3672 28.2345 29.4405 28.2345ZM38.5256 26.04C38.5256 26.6267 38.4302 27.1675 38.2396 27.6625C38.0489 28.1575 37.7794 28.5847 37.4311 28.944C37.0864 29.2997 36.6702 29.5783 36.1826 29.78C35.6986 29.9817 35.1596 30.0825 34.5656 30.0825C33.9752 30.0825 33.4362 29.9817 32.9486 29.78C32.4646 29.5783 32.0484 29.2997 31.7001 28.944C31.3517 28.5847 31.0822 28.1575 30.8916 27.6625C30.7009 27.1675 30.6056 26.6267 30.6056 26.04C30.6056 25.4533 30.7009 24.9125 30.8916 24.4175C31.0822 23.9225 31.3517 23.4953 31.7001 23.136C32.0484 22.7767 32.4646 22.4962 32.9486 22.2945C33.4362 22.0928 33.9752 21.992 34.5656 21.992C35.1596 21.992 35.6986 22.0928 36.1826 22.2945C36.6702 22.4962 37.0864 22.7767 37.4311 23.136C37.7794 23.4953 38.0489 23.9225 38.2396 24.4175C38.4302 24.9125 38.5256 25.4533 38.5256 26.04ZM37.2111 26.04C37.2111 25.5853 37.1487 25.1765 37.0241 24.8135C36.9031 24.4505 36.7271 24.1425 36.4961 23.8895C36.2687 23.6365 35.9919 23.4422 35.6656 23.3065C35.3392 23.1708 34.9726 23.103 34.5656 23.103C34.1622 23.103 33.7974 23.1708 33.4711 23.3065C33.1447 23.4422 32.8661 23.6365 32.6351 23.8895C32.4041 24.1425 32.2262 24.4505 32.1016 24.8135C31.9769 25.1765 31.9146 25.5853 31.9146 26.04C31.9146 26.4983 31.9769 26.909 32.1016 27.272C32.2262 27.635 32.4041 27.943 32.6351 28.196C32.8661 28.4453 33.1447 28.6378 33.4711 28.7735C33.7974 28.9055 34.1622 28.9715 34.5656 28.9715C34.9726 28.9715 35.3392 28.9055 35.6656 28.7735C35.9919 28.6378 36.2687 28.4453 36.4961 28.196C36.7271 27.943 36.9031 27.635 37.0241 27.272C37.1487 26.909 37.2111 26.4983 37.2111 26.04ZM48.3616 22.08V30H47.2286V24.5715C47.2286 24.4835 47.2305 24.3882 47.2341 24.2855C47.2415 24.1792 47.2506 24.0728 47.2616 23.9665L44.7151 28.669C44.6161 28.8633 44.464 28.9605 44.2586 28.9605H44.0771C43.8681 28.9605 43.716 28.8633 43.6206 28.669L41.0356 23.9555C41.0466 24.0618 41.054 24.1682 41.0576 24.2745C41.065 24.3808 41.0686 24.4798 41.0686 24.5715V30H39.9356V22.08H40.8981C41.0118 22.08 41.0998 22.091 41.1621 22.113C41.2245 22.1313 41.2813 22.1918 41.3326 22.2945L43.8736 26.898C43.9286 27.0043 43.98 27.1143 44.0276 27.228C44.079 27.338 44.1248 27.4517 44.1651 27.569C44.2091 27.4517 44.255 27.3362 44.3026 27.2225C44.354 27.1052 44.4071 26.9933 44.4621 26.887L46.9646 22.2945C47.016 22.1918 47.0728 22.1313 47.1351 22.113C47.1975 22.091 47.2855 22.08 47.3991 22.08H48.3616ZM52.7014 26.117C52.9874 26.117 53.2385 26.0803 53.4549 26.007C53.6749 25.9337 53.8564 25.831 53.9994 25.699C54.146 25.5633 54.256 25.4002 54.3294 25.2095C54.4027 25.0188 54.4394 24.8062 54.4394 24.5715C54.4394 24.3405 54.4027 24.1333 54.3294 23.95C54.2597 23.7667 54.1534 23.6108 54.0104 23.4825C53.8674 23.3542 53.6859 23.257 53.4659 23.191C53.2495 23.1213 52.9947 23.0865 52.7014 23.0865H51.5244V26.117H52.7014ZM52.7014 22.08C53.2184 22.08 53.6657 22.1405 54.0434 22.2615C54.4247 22.3825 54.7382 22.553 54.9839 22.773C55.2332 22.9893 55.4184 23.2515 55.5394 23.5595C55.6604 23.8638 55.7209 24.2012 55.7209 24.5715C55.7209 24.9492 55.6567 25.2957 55.5284 25.611C55.4 25.9227 55.2094 26.1922 54.9564 26.4195C54.7034 26.6432 54.388 26.8192 54.0104 26.9475C53.6364 27.0722 53.2 27.1345 52.7014 27.1345H51.5244V30H50.2374V22.08H52.7014ZM61.8957 28.9605L61.8902 30H56.9512V22.08H61.8902V23.1195H58.2437V25.5065H61.1587V26.513H58.2437V28.9605H61.8957ZM68.7396 23.1525H66.2701V30H64.9886V23.1525H62.5136V22.08H68.7396V23.1525ZM71.1344 30H69.8419V22.08H71.1344V30ZM78.4613 23.1525H75.9918V30H74.7103V23.1525H72.2353V22.08H78.4613V23.1525ZM80.856 30H79.5635V22.08H80.856V30ZM90.174 26.04C90.174 26.6267 90.0787 27.1675 89.888 27.6625C89.6973 28.1575 89.4278 28.5847 89.0795 28.944C88.7348 29.2997 88.3187 29.5783 87.831 29.78C87.347 29.9817 86.808 30.0825 86.214 30.0825C85.6237 30.0825 85.0847 29.9817 84.597 29.78C84.113 29.5783 83.6968 29.2997 83.3485 28.944C83.0002 28.5847 82.7307 28.1575 82.54 27.6625C82.3493 27.1675 82.254 26.6267 82.254 26.04C82.254 25.4533 82.3493 24.9125 82.54 24.4175C82.7307 23.9225 83.0002 23.4953 83.3485 23.136C83.6968 22.7767 84.113 22.4962 84.597 22.2945C85.0847 22.0928 85.6237 21.992 86.214 21.992C86.808 21.992 87.347 22.0928 87.831 22.2945C88.3187 22.4962 88.7348 22.7767 89.0795 23.136C89.4278 23.4953 89.6973 23.9225 89.888 24.4175C90.0787 24.9125 90.174 25.4533 90.174 26.04ZM88.8595 26.04C88.8595 25.5853 88.7972 25.1765 88.6725 24.8135C88.5515 24.4505 88.3755 24.1425 88.1445 23.8895C87.9172 23.6365 87.6403 23.4422 87.314 23.3065C86.9877 23.1708 86.621 23.103 86.214 23.103C85.8107 23.103 85.4458 23.1708 85.1195 23.3065C84.7932 23.4422 84.5145 23.6365 84.2835 23.8895C84.0525 24.1425 83.8747 24.4505 83.75 24.8135C83.6253 25.1765 83.563 25.5853 83.563 26.04C83.563 26.4983 83.6253 26.909 83.75 27.272C83.8747 27.635 84.0525 27.943 84.2835 28.196C84.5145 28.4453 84.7932 28.6378 85.1195 28.7735C85.4458 28.9055 85.8107 28.9715 86.214 28.9715C86.621 28.9715 86.9877 28.9055 87.314 28.7735C87.6403 28.6378 87.9172 28.4453 88.1445 28.196C88.3755 27.943 88.5515 27.635 88.6725 27.272C88.7972 26.909 88.8595 26.4983 88.8595 26.04ZM98.1401 22.08V30H97.4856C97.3866 30 97.3022 29.9835 97.2326 29.9505C97.1629 29.9138 97.0969 29.8552 97.0346 29.7745L92.6841 24.1865C92.6951 24.2928 92.7024 24.3992 92.7061 24.5055C92.7134 24.6082 92.7171 24.7035 92.7171 24.7915V30H91.5841V22.08H92.2551C92.3101 22.08 92.3559 22.0837 92.3926 22.091C92.4329 22.0947 92.4696 22.1038 92.5026 22.1185C92.5356 22.1332 92.5667 22.1552 92.5961 22.1845C92.6254 22.2138 92.6566 22.2505 92.6896 22.2945L97.0456 27.888C97.0346 27.7743 97.0254 27.6625 97.0181 27.5525C97.0144 27.4425 97.0126 27.3398 97.0126 27.2445V22.08H98.1401Z" fill="black"/>
<path d="M159.011 65.875C159.305 65.875 159.561 65.8402 159.781 65.7705C160.001 65.6972 160.185 65.5963 160.331 65.468C160.478 65.3397 160.588 65.1875 160.661 65.0115C160.735 64.8318 160.771 64.6338 160.771 64.4175C160.771 63.9848 160.628 63.6548 160.342 63.4275C160.056 63.2002 159.624 63.0865 159.044 63.0865H157.999V65.875H159.011ZM162.74 70H161.591C161.364 70 161.199 69.912 161.096 69.736L159.248 67.0685C159.186 66.9768 159.118 66.9108 159.044 66.8705C158.971 66.8302 158.861 66.81 158.714 66.81H157.999V70H156.712V62.08H159.044C159.565 62.08 160.012 62.1332 160.386 62.2395C160.764 62.3458 161.074 62.498 161.316 62.696C161.558 62.8903 161.736 63.125 161.849 63.4C161.967 63.675 162.025 63.9812 162.025 64.3185C162.025 64.5935 161.983 64.8502 161.899 65.0885C161.818 65.3268 161.699 65.5432 161.541 65.7375C161.387 65.9318 161.197 66.1005 160.969 66.2435C160.742 66.3865 160.484 66.4983 160.194 66.579C160.352 66.6743 160.487 66.8082 160.601 66.9805L162.74 70ZM163.293 69.318C163.293 69.2117 163.312 69.1127 163.348 69.021C163.389 68.9257 163.442 68.8432 163.508 68.7735C163.578 68.7038 163.658 68.6488 163.75 68.6085C163.845 68.5682 163.946 68.548 164.052 68.548C164.159 68.548 164.258 68.5682 164.349 68.6085C164.445 68.6488 164.527 68.7038 164.597 68.7735C164.667 68.8432 164.722 68.9257 164.762 69.021C164.802 69.1127 164.822 69.2117 164.822 69.318C164.822 69.428 164.802 69.5288 164.762 69.6205C164.722 69.7122 164.667 69.7928 164.597 69.8625C164.527 69.9322 164.445 69.9853 164.349 70.022C164.258 70.0623 164.159 70.0825 164.052 70.0825C163.946 70.0825 163.845 70.0623 163.75 70.022C163.658 69.9853 163.578 69.9322 163.508 69.8625C163.442 69.7928 163.389 69.7122 163.348 69.6205C163.312 69.5288 163.293 69.428 163.293 69.318ZM173.5 66.04C173.5 66.6267 173.404 67.1675 173.214 67.6625C173.023 68.1575 172.754 68.5847 172.405 68.944C172.061 69.2997 171.644 69.5783 171.157 69.78C170.673 69.9817 170.134 70.0825 169.54 70.0825C168.949 70.0825 168.41 69.9817 167.923 69.78C167.439 69.5783 167.023 69.2997 166.674 68.944C166.326 68.5847 166.056 68.1575 165.866 67.6625C165.675 67.1675 165.58 66.6267 165.58 66.04C165.58 65.4533 165.675 64.9125 165.866 64.4175C166.056 63.9225 166.326 63.4953 166.674 63.136C167.023 62.7767 167.439 62.4962 167.923 62.2945C168.41 62.0928 168.949 61.992 169.54 61.992C170.134 61.992 170.673 62.0928 171.157 62.2945C171.644 62.4962 172.061 62.7767 172.405 63.136C172.754 63.4953 173.023 63.9225 173.214 64.4175C173.404 64.9125 173.5 65.4533 173.5 66.04ZM172.185 66.04C172.185 65.5853 172.123 65.1765 171.998 64.8135C171.877 64.4505 171.701 64.1425 171.47 63.8895C171.243 63.6365 170.966 63.4422 170.64 63.3065C170.313 63.1708 169.947 63.103 169.54 63.103C169.136 63.103 168.772 63.1708 168.445 63.3065C168.119 63.4422 167.84 63.6365 167.609 63.8895C167.378 64.1425 167.2 64.4505 167.076 64.8135C166.951 65.1765 166.889 65.5853 166.889 66.04C166.889 66.4983 166.951 66.909 167.076 67.272C167.2 67.635 167.378 67.943 167.609 68.196C167.84 68.4453 168.119 68.6378 168.445 68.7735C168.772 68.9055 169.136 68.9715 169.54 68.9715C169.947 68.9715 170.313 68.9055 170.64 68.7735C170.966 68.6378 171.243 68.4453 171.47 68.196C171.701 67.943 171.877 67.635 171.998 67.272C172.123 66.909 172.185 66.4983 172.185 66.04ZM174.272 69.318C174.272 69.2117 174.29 69.1127 174.327 69.021C174.367 68.9257 174.42 68.8432 174.486 68.7735C174.556 68.7038 174.637 68.6488 174.728 68.6085C174.824 68.5682 174.925 68.548 175.031 68.548C175.137 68.548 175.236 68.5682 175.328 68.6085C175.423 68.6488 175.506 68.7038 175.575 68.7735C175.645 68.8432 175.7 68.9257 175.74 69.021C175.781 69.1127 175.801 69.2117 175.801 69.318C175.801 69.428 175.781 69.5288 175.74 69.6205C175.7 69.7122 175.645 69.7928 175.575 69.8625C175.506 69.9322 175.423 69.9853 175.328 70.022C175.236 70.0623 175.137 70.0825 175.031 70.0825C174.925 70.0825 174.824 70.0623 174.728 70.022C174.637 69.9853 174.556 69.9322 174.486 69.8625C174.42 69.7928 174.367 69.7122 174.327 69.6205C174.29 69.5288 174.272 69.428 174.272 69.318ZM181.464 67.03L180.375 64.137C180.287 63.9133 180.197 63.6292 180.106 63.2845C180.065 63.4568 180.021 63.6163 179.974 63.763C179.926 63.906 179.882 64.0325 179.842 64.1425L178.753 67.03H181.464ZM183.901 70H182.905C182.791 70 182.7 69.9725 182.63 69.9175C182.56 69.8588 182.507 69.7873 182.471 69.703L181.811 67.954H178.401L177.741 69.703C177.711 69.7763 177.66 69.8442 177.587 69.9065C177.513 69.9688 177.422 70 177.312 70H176.316L179.457 62.08H180.76L183.901 70ZM184.423 69.318C184.423 69.2117 184.442 69.1127 184.478 69.021C184.519 68.9257 184.572 68.8432 184.638 68.7735C184.707 68.7038 184.788 68.6488 184.88 68.6085C184.975 68.5682 185.076 68.548 185.182 68.548C185.289 68.548 185.388 68.5682 185.479 68.6085C185.575 68.6488 185.657 68.7038 185.727 68.7735C185.796 68.8432 185.851 68.9257 185.892 69.021C185.932 69.1127 185.952 69.2117 185.952 69.318C185.952 69.428 185.932 69.5288 185.892 69.6205C185.851 69.7122 185.796 69.7928 185.727 69.8625C185.657 69.9322 185.575 69.9853 185.479 70.022C185.388 70.0623 185.289 70.0825 185.182 70.0825C185.076 70.0825 184.975 70.0623 184.88 70.022C184.788 69.9853 184.707 69.9322 184.638 69.8625C184.572 69.7928 184.519 69.7122 184.478 69.6205C184.442 69.5288 184.423 69.428 184.423 69.318ZM191.566 63.433C191.526 63.499 191.483 63.5485 191.439 63.5815C191.395 63.6108 191.34 63.6255 191.274 63.6255C191.205 63.6255 191.126 63.5962 191.038 63.5375C190.954 63.4788 190.847 63.4147 190.719 63.345C190.594 63.2717 190.446 63.2057 190.273 63.147C190.101 63.0847 189.896 63.0535 189.657 63.0535C189.437 63.0535 189.243 63.081 189.074 63.136C188.909 63.191 188.77 63.268 188.656 63.367C188.543 63.466 188.457 63.5833 188.398 63.719C188.343 63.851 188.315 63.9958 188.315 64.1535C188.315 64.3552 188.369 64.5238 188.475 64.6595C188.581 64.7915 188.721 64.9052 188.893 65.0005C189.069 65.0958 189.269 65.1802 189.492 65.2535C189.716 65.3232 189.943 65.3983 190.174 65.479C190.409 65.5597 190.638 65.6513 190.862 65.754C191.086 65.8567 191.284 65.9868 191.456 66.1445C191.632 66.3022 191.773 66.4947 191.879 66.722C191.986 66.9493 192.039 67.2262 192.039 67.5525C192.039 67.9045 191.978 68.2345 191.857 68.5425C191.736 68.8505 191.56 69.12 191.329 69.351C191.102 69.5783 190.82 69.758 190.482 69.89C190.149 70.022 189.767 70.088 189.338 70.088C189.085 70.088 188.838 70.0623 188.596 70.011C188.358 69.9633 188.128 69.8955 187.908 69.8075C187.692 69.7158 187.489 69.6058 187.298 69.4775C187.107 69.3492 186.937 69.2062 186.786 69.0485L187.16 68.4325C187.193 68.3812 187.236 68.3408 187.287 68.3115C187.338 68.2822 187.395 68.2675 187.457 68.2675C187.542 68.2675 187.635 68.3078 187.738 68.3885C187.841 68.4655 187.963 68.5517 188.106 68.647C188.253 68.7387 188.429 68.8248 188.634 68.9055C188.84 68.9825 189.085 69.021 189.371 69.021C189.837 69.021 190.196 68.9073 190.449 68.68C190.706 68.4527 190.834 68.1392 190.834 67.7395C190.834 67.5158 190.781 67.3343 190.675 67.195C190.569 67.052 190.427 66.9328 190.251 66.8375C190.079 66.7422 189.881 66.6615 189.657 66.5955C189.434 66.5295 189.206 66.4598 188.975 66.3865C188.744 66.3095 188.517 66.2215 188.293 66.1225C188.07 66.0198 187.87 65.8878 187.694 65.7265C187.522 65.5615 187.382 65.3598 187.276 65.1215C187.17 64.8795 187.116 64.5788 187.116 64.2195C187.116 63.9335 187.171 63.6567 187.281 63.389C187.395 63.1213 187.558 62.8848 187.771 62.6795C187.987 62.4705 188.253 62.3037 188.568 62.179C188.884 62.0543 189.243 61.992 189.646 61.992C190.101 61.992 190.517 62.0635 190.895 62.2065C191.276 62.3495 191.604 62.553 191.879 62.817L191.566 63.433ZM142.125 81.2345C142.194 81.2345 142.255 81.262 142.306 81.317L142.818 81.8725C142.495 82.2612 142.099 82.5618 141.63 82.7745C141.16 82.9835 140.599 83.088 139.947 83.088C139.367 83.088 138.843 82.989 138.374 82.791C137.908 82.5893 137.51 82.3107 137.18 81.955C136.85 81.5957 136.595 81.1685 136.416 80.6735C136.24 80.1785 136.152 79.634 136.152 79.04C136.152 78.446 136.245 77.9015 136.432 77.4065C136.623 76.9078 136.889 76.4807 137.23 76.125C137.574 75.7657 137.985 75.487 138.462 75.289C138.942 75.091 139.47 74.992 140.046 74.992C140.618 74.992 141.122 75.0855 141.558 75.2725C141.998 75.4558 142.379 75.7015 142.702 76.0095L142.279 76.609C142.249 76.6493 142.214 76.6842 142.174 76.7135C142.134 76.7428 142.079 76.7575 142.009 76.7575C141.936 76.7575 141.851 76.7245 141.756 76.6585C141.664 76.5888 141.545 76.5137 141.399 76.433C141.256 76.3487 141.074 76.2735 140.854 76.2075C140.638 76.1378 140.366 76.103 140.04 76.103C139.662 76.103 139.316 76.169 139.001 76.301C138.685 76.433 138.414 76.6255 138.187 76.8785C137.959 77.1315 137.781 77.4395 137.653 77.8025C137.528 78.1655 137.466 78.578 137.466 79.04C137.466 79.5057 137.532 79.9218 137.664 80.2885C137.796 80.6515 137.978 80.9595 138.209 81.2125C138.44 81.4618 138.711 81.6525 139.023 81.7845C139.334 81.9165 139.67 81.9825 140.029 81.9825C140.249 81.9825 140.445 81.9715 140.618 81.9495C140.794 81.9238 140.955 81.8853 141.102 81.834C141.248 81.779 141.386 81.7112 141.514 81.6305C141.646 81.5498 141.776 81.4508 141.905 81.3335C141.978 81.2675 142.051 81.2345 142.125 81.2345ZM151.21 79.04C151.21 79.6267 151.114 80.1675 150.924 80.6625C150.733 81.1575 150.463 81.5847 150.115 81.944C149.77 82.2997 149.354 82.5783 148.867 82.78C148.383 82.9817 147.844 83.0825 147.25 83.0825C146.659 83.0825 146.12 82.9817 145.633 82.78C145.149 82.5783 144.732 82.2997 144.384 81.944C144.036 81.5847 143.766 81.1575 143.576 80.6625C143.385 80.1675 143.29 79.6267 143.29 79.04C143.29 78.4533 143.385 77.9125 143.576 77.4175C143.766 76.9225 144.036 76.4953 144.384 76.136C144.732 75.7767 145.149 75.4962 145.633 75.2945C146.12 75.0928 146.659 74.992 147.25 74.992C147.844 74.992 148.383 75.0928 148.867 75.2945C149.354 75.4962 149.77 75.7767 150.115 76.136C150.463 76.4953 150.733 76.9225 150.924 77.4175C151.114 77.9125 151.21 78.4533 151.21 79.04ZM149.895 79.04C149.895 78.5853 149.833 78.1765 149.708 77.8135C149.587 77.4505 149.411 77.1425 149.18 76.8895C148.953 76.6365 148.676 76.4422 148.35 76.3065C148.023 76.1708 147.657 76.103 147.25 76.103C146.846 76.103 146.481 76.1708 146.155 76.3065C145.829 76.4422 145.55 76.6365 145.319 76.8895C145.088 77.1425 144.91 77.4505 144.786 77.8135C144.661 78.1765 144.599 78.5853 144.599 79.04C144.599 79.4983 144.661 79.909 144.786 80.272C144.91 80.635 145.088 80.943 145.319 81.196C145.55 81.4453 145.829 81.6378 146.155 81.7735C146.481 81.9055 146.846 81.9715 147.25 81.9715C147.657 81.9715 148.023 81.9055 148.35 81.7735C148.676 81.6378 148.953 81.4453 149.18 81.196C149.411 80.943 149.587 80.635 149.708 80.272C149.833 79.909 149.895 79.4983 149.895 79.04ZM159.176 75.08V83H158.521C158.422 83 158.338 82.9835 158.268 82.9505C158.199 82.9138 158.133 82.8552 158.07 82.7745L153.72 77.1865C153.731 77.2928 153.738 77.3992 153.742 77.5055C153.749 77.6082 153.753 77.7035 153.753 77.7915V83H152.62V75.08H153.291C153.346 75.08 153.392 75.0837 153.428 75.091C153.469 75.0947 153.505 75.1038 153.538 75.1185C153.571 75.1332 153.602 75.1552 153.632 75.1845C153.661 75.2138 153.692 75.2505 153.725 75.2945L158.081 80.888C158.07 80.7743 158.061 80.6625 158.054 80.5525C158.05 80.4425 158.048 80.3398 158.048 80.2445V75.08H159.176ZM166.514 76.1525H164.044V83H162.763V76.1525H160.288V75.08H166.514V76.1525ZM169.915 78.875C170.208 78.875 170.465 78.8402 170.685 78.7705C170.905 78.6972 171.088 78.5963 171.235 78.468C171.381 78.3397 171.491 78.1875 171.565 78.0115C171.638 77.8318 171.675 77.6338 171.675 77.4175C171.675 76.9848 171.532 76.6548 171.246 76.4275C170.96 76.2002 170.527 76.0865 169.948 76.0865H168.903V78.875H169.915ZM173.644 83H172.494C172.267 83 172.102 82.912 171.999 82.736L170.151 80.0685C170.089 79.9768 170.021 79.9108 169.948 79.8705C169.874 79.8302 169.764 79.81 169.618 79.81H168.903V83H167.616V75.08H169.948C170.468 75.08 170.916 75.1332 171.29 75.2395C171.667 75.3458 171.977 75.498 172.219 75.696C172.461 75.8903 172.639 76.125 172.753 76.4C172.87 76.675 172.929 76.9812 172.929 77.3185C172.929 77.5935 172.887 77.8502 172.802 78.0885C172.722 78.3268 172.602 78.5432 172.445 78.7375C172.291 78.9318 172.1 79.1005 171.873 79.2435C171.645 79.3865 171.387 79.4983 171.097 79.579C171.255 79.6743 171.391 79.8082 171.504 79.9805L173.644 83ZM178.789 80.03L177.7 77.137C177.612 76.9133 177.522 76.6292 177.431 76.2845C177.39 76.4568 177.346 76.6163 177.299 76.763C177.251 76.906 177.207 77.0325 177.167 77.1425L176.078 80.03H178.789ZM181.226 83H180.23C180.117 83 180.025 82.9725 179.955 82.9175C179.886 82.8588 179.832 82.7873 179.796 82.703L179.136 80.954H175.726L175.066 82.703C175.036 82.7763 174.985 82.8442 174.912 82.9065C174.838 82.9688 174.747 83 174.637 83H173.641L176.782 75.08H178.085L181.226 83ZM187.435 81.2345C187.505 81.2345 187.565 81.262 187.617 81.317L188.128 81.8725C187.805 82.2612 187.409 82.5618 186.94 82.7745C186.471 82.9835 185.91 83.088 185.257 83.088C184.678 83.088 184.153 82.989 183.684 82.791C183.218 82.5893 182.821 82.3107 182.491 81.955C182.161 81.5957 181.906 81.1685 181.726 80.6735C181.55 80.1785 181.462 79.634 181.462 79.04C181.462 78.446 181.556 77.9015 181.743 77.4065C181.933 76.9078 182.199 76.4807 182.54 76.125C182.885 75.7657 183.295 75.487 183.772 75.289C184.252 75.091 184.78 74.992 185.356 74.992C185.928 74.992 186.432 75.0855 186.869 75.2725C187.309 75.4558 187.69 75.7015 188.013 76.0095L187.589 76.609C187.56 76.6493 187.525 76.6842 187.485 76.7135C187.444 76.7428 187.389 76.7575 187.32 76.7575C187.246 76.7575 187.162 76.7245 187.067 76.6585C186.975 76.5888 186.856 76.5137 186.709 76.433C186.566 76.3487 186.385 76.2735 186.165 76.2075C185.948 76.1378 185.677 76.103 185.351 76.103C184.973 76.103 184.626 76.169 184.311 76.301C183.996 76.433 183.724 76.6255 183.497 76.8785C183.27 77.1315 183.092 77.4395 182.964 77.8025C182.839 78.1655 182.777 78.578 182.777 79.04C182.777 79.5057 182.843 79.9218 182.975 80.2885C183.107 80.6515 183.288 80.9595 183.519 81.2125C183.75 81.4618 184.021 81.6525 184.333 81.7845C184.645 81.9165 184.98 81.9825 185.34 81.9825C185.56 81.9825 185.756 81.9715 185.928 81.9495C186.104 81.9238 186.265 81.8853 186.412 81.834C186.559 81.779 186.696 81.7112 186.825 81.6305C186.957 81.5498 187.087 81.4508 187.215 81.3335C187.288 81.2675 187.362 81.2345 187.435 81.2345ZM194.69 76.1525H192.221V83H190.939V76.1525H188.464V75.08H194.69V76.1525ZM197.085 83H195.793V75.08H197.085V83ZM206.403 79.04C206.403 79.6267 206.308 80.1675 206.117 80.6625C205.926 81.1575 205.657 81.5847 205.308 81.944C204.964 82.2997 204.548 82.5783 204.06 82.78C203.576 82.9817 203.037 83.0825 202.443 83.0825C201.853 83.0825 201.314 82.9817 200.826 82.78C200.342 82.5783 199.926 82.2997 199.577 81.944C199.229 81.5847 198.96 81.1575 198.769 80.6625C198.578 80.1675 198.483 79.6267 198.483 79.04C198.483 78.4533 198.578 77.9125 198.769 77.4175C198.96 76.9225 199.229 76.4953 199.577 76.136C199.926 75.7767 200.342 75.4962 200.826 75.2945C201.314 75.0928 201.853 74.992 202.443 74.992C203.037 74.992 203.576 75.0928 204.06 75.2945C204.548 75.4962 204.964 75.7767 205.308 76.136C205.657 76.4953 205.926 76.9225 206.117 77.4175C206.308 77.9125 206.403 78.4533 206.403 79.04ZM205.088 79.04C205.088 78.5853 205.026 78.1765 204.901 77.8135C204.78 77.4505 204.604 77.1425 204.373 76.8895C204.146 76.6365 203.869 76.4422 203.543 76.3065C203.217 76.1708 202.85 76.103 202.443 76.103C202.04 76.103 201.675 76.1708 201.348 76.3065C201.022 76.4422 200.743 76.6365 200.512 76.8895C200.281 77.1425 200.104 77.4505 199.979 77.8135C199.854 78.1765 199.792 78.5853 199.792 79.04C199.792 79.4983 199.854 79.909 199.979 80.272C200.104 80.635 200.281 80.943 200.512 81.196C200.743 81.4453 201.022 81.6378 201.348 81.7735C201.675 81.9055 202.04 81.9715 202.443 81.9715C202.85 81.9715 203.217 81.9055 203.543 81.7735C203.869 81.6378 204.146 81.4453 204.373 81.196C204.604 80.943 204.78 80.635 204.901 80.272C205.026 79.909 205.088 79.4983 205.088 79.04ZM214.369 75.08V83H213.715C213.616 83 213.531 82.9835 213.462 82.9505C213.392 82.9138 213.326 82.8552 213.264 82.7745L208.913 77.1865C208.924 77.2928 208.931 77.3992 208.935 77.5055C208.942 77.6082 208.946 77.7035 208.946 77.7915V83H207.813V75.08H208.484C208.539 75.08 208.585 75.0837 208.622 75.091C208.662 75.0947 208.699 75.1038 208.732 75.1185C208.765 75.1332 208.796 75.1552 208.825 75.1845C208.854 75.2138 208.886 75.2505 208.919 75.2945L213.275 80.888C213.264 80.7743 213.254 80.6625 213.247 80.5525C213.243 80.4425 213.242 80.3398 213.242 80.2445V75.08H214.369Z" fill="black"/>
<path d="M37.7183 68.9605C38.0226 68.9605 38.294 68.9092 38.5323 68.8065C38.7743 68.7038 38.9778 68.5608 39.1428 68.3775C39.3115 68.1942 39.4398 67.9742 39.5278 67.7175C39.6158 67.4572 39.6598 67.1693 39.6598 66.854V62.08H40.9413V66.854C40.9413 67.3197 40.8661 67.7505 40.7158 68.1465C40.5691 68.5425 40.3565 68.8853 40.0778 69.175C39.7991 69.461 39.46 69.6865 39.0603 69.8515C38.6643 70.0128 38.217 70.0935 37.7183 70.0935C37.2196 70.0935 36.7705 70.0128 36.3708 69.8515C35.9748 69.6865 35.6375 69.461 35.3588 69.175C35.0801 68.8853 34.8656 68.5425 34.7153 68.1465C34.5686 67.7505 34.4953 67.3197 34.4953 66.854V62.08H35.7823V66.8485C35.7823 67.1638 35.8263 67.4517 35.9143 67.712C36.0023 67.9687 36.1288 68.1905 36.2938 68.3775C36.4588 68.5608 36.6605 68.7038 36.8988 68.8065C37.1408 68.9092 37.414 68.9605 37.7183 68.9605ZM49.2821 62.08V70H48.6276C48.5286 70 48.4443 69.9835 48.3746 69.9505C48.305 69.9138 48.239 69.8552 48.1766 69.7745L43.8261 64.1865C43.8371 64.2928 43.8445 64.3992 43.8481 64.5055C43.8555 64.6082 43.8591 64.7035 43.8591 64.7915V70H42.7261V62.08H43.3971C43.4521 62.08 43.498 62.0837 43.5346 62.091C43.575 62.0947 43.6116 62.1038 43.6446 62.1185C43.6776 62.1332 43.7088 62.1552 43.7381 62.1845C43.7675 62.2138 43.7986 62.2505 43.8316 62.2945L48.1876 67.888C48.1766 67.7743 48.1675 67.6625 48.1601 67.5525C48.1565 67.4425 48.1546 67.3398 48.1546 67.2445V62.08H49.2821ZM57.654 66.1005V69.2355C56.8657 69.8038 55.949 70.088 54.904 70.088C54.2623 70.088 53.6812 69.989 53.1605 69.791C52.6435 69.5893 52.2017 69.3107 51.835 68.955C51.4683 68.5957 51.186 68.1685 50.988 67.6735C50.79 67.1785 50.691 66.634 50.691 66.04C50.691 65.4423 50.7863 64.896 50.977 64.401C51.1677 63.9023 51.4408 63.4752 51.7965 63.1195C52.1522 62.7602 52.5812 62.4833 53.0835 62.289C53.5858 62.091 54.1505 61.992 54.7775 61.992C55.0965 61.992 55.3917 62.0177 55.663 62.069C55.938 62.1167 56.1928 62.1845 56.4275 62.2725C56.6622 62.3605 56.8785 62.4668 57.0765 62.5915C57.2745 62.7162 57.456 62.8555 57.621 63.0095L57.2525 63.598C57.1938 63.6897 57.1187 63.7465 57.027 63.7685C56.9353 63.7905 56.8363 63.7685 56.73 63.7025C56.6237 63.6402 56.51 63.5742 56.389 63.5045C56.2717 63.4348 56.136 63.3707 55.982 63.312C55.828 63.2497 55.6502 63.2002 55.4485 63.1635C55.2468 63.1232 55.0085 63.103 54.7335 63.103C54.3155 63.103 53.9378 63.1727 53.6005 63.312C53.2668 63.4477 52.9808 63.6438 52.7425 63.9005C52.5042 64.1535 52.3208 64.4615 52.1925 64.8245C52.0642 65.1875 52 65.5927 52 66.04C52 66.513 52.0678 66.9365 52.2035 67.3105C52.3392 67.6808 52.5317 67.9962 52.781 68.2565C53.0303 68.5132 53.331 68.7093 53.683 68.845C54.0387 68.9807 54.4347 69.0485 54.871 69.0485C55.1973 69.0485 55.487 69.0137 55.74 68.944C55.9967 68.8743 56.2478 68.7772 56.4935 68.6525V67.0795H55.388C55.3037 67.0795 55.2377 67.0575 55.19 67.0135C55.1423 66.9658 55.1185 66.9053 55.1185 66.832V66.1005H57.654ZM62.2964 68.9605C62.6008 68.9605 62.8721 68.9092 63.1104 68.8065C63.3524 68.7038 63.5559 68.5608 63.7209 68.3775C63.8896 68.1942 64.0179 67.9742 64.1059 67.7175C64.1939 67.4572 64.2379 67.1693 64.2379 66.854V62.08H65.5194V66.854C65.5194 67.3197 65.4443 67.7505 65.2939 68.1465C65.1473 68.5425 64.9346 68.8853 64.6559 69.175C64.3773 69.461 64.0381 69.6865 63.6384 69.8515C63.2424 70.0128 62.7951 70.0935 62.2964 70.0935C61.7978 70.0935 61.3486 70.0128 60.9489 69.8515C60.5529 69.6865 60.2156 69.461 59.9369 69.175C59.6583 68.8853 59.4438 68.5425 59.2934 68.1465C59.1468 67.7505 59.0734 67.3197 59.0734 66.854V62.08H60.3604V66.8485C60.3604 67.1638 60.4044 67.4517 60.4924 67.712C60.5804 67.9687 60.7069 68.1905 60.8719 68.3775C61.0369 68.5608 61.2386 68.7038 61.4769 68.8065C61.7189 68.9092 61.9921 68.9605 62.2964 68.9605ZM68.5968 70H67.3043V62.08H68.5968V70ZM77.4252 66.04C77.4252 66.6267 77.3299 67.1638 77.1392 67.6515C76.9485 68.1355 76.679 68.5517 76.3307 68.9C75.986 69.2483 75.5699 69.5197 75.0822 69.714C74.5982 69.9047 74.0592 70 73.4652 70H70.4732V62.08H73.4652C74.0592 62.08 74.5982 62.1772 75.0822 62.3715C75.5699 62.5622 75.986 62.8317 76.3307 63.18C76.679 63.5283 76.9485 63.9463 77.1392 64.434C77.3299 64.918 77.4252 65.4533 77.4252 66.04ZM76.1107 66.04C76.1107 65.5853 76.0484 65.1765 75.9237 64.8135C75.8027 64.4505 75.6267 64.1443 75.3957 63.895C75.1684 63.6457 74.8915 63.455 74.5652 63.323C74.2389 63.1873 73.8722 63.1195 73.4652 63.1195H71.7657V68.9605H73.4652C73.8722 68.9605 74.2389 68.8945 74.5652 68.7625C74.8915 68.6305 75.1684 68.4398 75.3957 68.1905C75.6267 67.9375 75.8027 67.6313 75.9237 67.272C76.0484 66.909 76.1107 66.4983 76.1107 66.04ZM83.7859 68.9605L83.7804 70H78.8414V62.08H83.7804V63.1195H80.1339V65.5065H83.0489V66.513H80.1339V68.9605H83.7859ZM92.1313 66.04C92.1313 66.6267 92.0359 67.1638 91.8453 67.6515C91.6546 68.1355 91.3851 68.5517 91.0368 68.9C90.6921 69.2483 90.2759 69.5197 89.7883 69.714C89.3043 69.9047 88.7653 70 88.1713 70H85.1793V62.08H88.1713C88.7653 62.08 89.3043 62.1772 89.7883 62.3715C90.2759 62.5622 90.6921 62.8317 91.0368 63.18C91.3851 63.5283 91.6546 63.9463 91.8453 64.434C92.0359 64.918 92.1313 65.4533 92.1313 66.04ZM90.8168 66.04C90.8168 65.5853 90.7544 65.1765 90.6298 64.8135C90.5088 64.4505 90.3328 64.1443 90.1018 63.895C89.8744 63.6457 89.5976 63.455 89.2713 63.323C88.9449 63.1873 88.5783 63.1195 88.1713 63.1195H86.4718V68.9605H88.1713C88.5783 68.9605 88.9449 68.8945 89.2713 68.7625C89.5976 68.6305 89.8744 68.4398 90.1018 68.1905C90.3328 67.9375 90.5088 67.6313 90.6298 67.272C90.7544 66.909 90.8168 66.4983 90.8168 66.04ZM37.8956 83H36.6031V75.08H37.8956V83ZM46.328 75.08V83H45.6735C45.5745 83 45.4902 82.9835 45.4205 82.9505C45.3509 82.9138 45.2849 82.8552 45.2225 82.7745L40.872 77.1865C40.883 77.2928 40.8904 77.3992 40.894 77.5055C40.9014 77.6082 40.905 77.7035 40.905 77.7915V83H39.772V75.08H40.443C40.498 75.08 40.5439 75.0837 40.5805 75.091C40.6209 75.0947 40.6575 75.1038 40.6905 75.1185C40.7235 75.1332 40.7547 75.1552 40.784 75.1845C40.8134 75.2138 40.8445 75.2505 40.8775 75.2945L45.2335 80.888C45.2225 80.7743 45.2134 80.6625 45.206 80.5525C45.2024 80.4425 45.2005 80.3398 45.2005 80.2445V75.08H46.328ZM54.8429 75.08L51.6309 83H50.4704L47.2584 75.08H48.2869C48.4006 75.08 48.4922 75.1093 48.5619 75.168C48.6316 75.223 48.6847 75.2927 48.7214 75.377L50.7619 80.5415C50.8719 80.8312 50.9727 81.1648 51.0644 81.5425C51.1047 81.3555 51.1469 81.1777 51.1909 81.009C51.2386 80.8403 51.2899 80.6845 51.3449 80.5415L53.3799 75.377C53.4092 75.3037 53.4606 75.2358 53.5339 75.1735C53.6072 75.1112 53.6989 75.08 53.8089 75.08H54.8429ZM60.7117 81.9605L60.7062 83H55.7672V75.08H60.7062V76.1195H57.0597V78.5065H59.9747V79.513H57.0597V81.9605H60.7117ZM66.2466 76.433C66.2062 76.499 66.1641 76.5485 66.1201 76.5815C66.0761 76.6108 66.0211 76.6255 65.9551 76.6255C65.8854 76.6255 65.8066 76.5962 65.7186 76.5375C65.6342 76.4788 65.5279 76.4147 65.3996 76.345C65.2749 76.2717 65.1264 76.2057 64.9541 76.147C64.7817 76.0847 64.5764 76.0535 64.3381 76.0535C64.1181 76.0535 63.9237 76.081 63.7551 76.136C63.5901 76.191 63.4507 76.268 63.3371 76.367C63.2234 76.466 63.1372 76.5833 63.0786 76.719C63.0236 76.851 62.9961 76.9958 62.9961 77.1535C62.9961 77.3552 63.0492 77.5238 63.1556 77.6595C63.2619 77.7915 63.4012 77.9052 63.5736 78.0005C63.7496 78.0958 63.9494 78.1802 64.1731 78.2535C64.3967 78.3232 64.6241 78.3983 64.8551 78.479C65.0897 78.5597 65.3189 78.6513 65.5426 78.754C65.7662 78.8567 65.9642 78.9868 66.1366 79.1445C66.3126 79.3022 66.4537 79.4947 66.5601 79.722C66.6664 79.9493 66.7196 80.2262 66.7196 80.5525C66.7196 80.9045 66.6591 81.2345 66.5381 81.5425C66.4171 81.8505 66.2411 82.12 66.0101 82.351C65.7827 82.5783 65.5004 82.758 65.1631 82.89C64.8294 83.022 64.4481 83.088 64.0191 83.088C63.7661 83.088 63.5186 83.0623 63.2766 83.011C63.0382 82.9633 62.8091 82.8955 62.5891 82.8075C62.3727 82.7158 62.1692 82.6058 61.9786 82.4775C61.7879 82.3492 61.6174 82.2062 61.4671 82.0485L61.8411 81.4325C61.8741 81.3812 61.9162 81.3408 61.9676 81.3115C62.0189 81.2822 62.0757 81.2675 62.1381 81.2675C62.2224 81.2675 62.3159 81.3078 62.4186 81.3885C62.5212 81.4655 62.6441 81.5517 62.7871 81.647C62.9337 81.7387 63.1097 81.8248 63.3151 81.9055C63.5204 81.9825 63.7661 82.021 64.0521 82.021C64.5177 82.021 64.8771 81.9073 65.1301 81.68C65.3867 81.4527 65.5151 81.1392 65.5151 80.7395C65.5151 80.5158 65.4619 80.3343 65.3556 80.195C65.2492 80.052 65.1081 79.9328 64.9321 79.8375C64.7597 79.7422 64.5617 79.6615 64.3381 79.5955C64.1144 79.5295 63.8871 79.4598 63.6561 79.3865C63.4251 79.3095 63.1977 79.2215 62.9741 79.1225C62.7504 79.0198 62.5506 78.8878 62.3746 78.7265C62.2022 78.5615 62.0629 78.3598 61.9566 78.1215C61.8502 77.8795 61.7971 77.5788 61.7971 77.2195C61.7971 76.9335 61.8521 76.6567 61.9621 76.389C62.0757 76.1213 62.2389 75.8848 62.4516 75.6795C62.6679 75.4705 62.9337 75.3037 63.2491 75.179C63.5644 75.0543 63.9237 74.992 64.3271 74.992C64.7817 74.992 65.1979 75.0635 65.5756 75.2065C65.9569 75.3495 66.2851 75.553 66.5601 75.817L66.2466 76.433ZM73.5604 76.1525H71.0909V83H69.8094V76.1525H67.3344V75.08H73.5604V76.1525ZM75.9552 83H74.6627V75.08H75.9552V83ZM84.3876 75.08V83H83.7331C83.6341 83 83.5498 82.9835 83.4801 82.9505C83.4104 82.9138 83.3444 82.8552 83.2821 82.7745L78.9316 77.1865C78.9426 77.2928 78.9499 77.3992 78.9536 77.5055C78.9609 77.6082 78.9646 77.7035 78.9646 77.7915V83H77.8316V75.08H78.5026C78.5576 75.08 78.6034 75.0837 78.6401 75.091C78.6804 75.0947 78.7171 75.1038 78.7501 75.1185C78.7831 75.1332 78.8143 75.1552 78.8436 75.1845C78.8729 75.2138 78.9041 75.2505 78.9371 75.2945L83.2931 80.888C83.2821 80.7743 83.2729 80.6625 83.2656 80.5525C83.2619 80.4425 83.2601 80.3398 83.2601 80.2445V75.08H84.3876ZM92.7595 79.1005V82.2355C91.9711 82.8038 91.0545 83.088 90.0095 83.088C89.3678 83.088 88.7866 82.989 88.266 82.791C87.749 82.5893 87.3071 82.3107 86.9405 81.955C86.5738 81.5957 86.2915 81.1685 86.0935 80.6735C85.8955 80.1785 85.7965 79.634 85.7965 79.04C85.7965 78.4423 85.8918 77.896 86.0825 77.401C86.2731 76.9023 86.5463 76.4752 86.902 76.1195C87.2576 75.7602 87.6866 75.4833 88.189 75.289C88.6913 75.091 89.256 74.992 89.883 74.992C90.202 74.992 90.4971 75.0177 90.7685 75.069C91.0435 75.1167 91.2983 75.1845 91.533 75.2725C91.7676 75.3605 91.984 75.4668 92.182 75.5915C92.38 75.7162 92.5615 75.8555 92.7265 76.0095L92.358 76.598C92.2993 76.6897 92.2241 76.7465 92.1325 76.7685C92.0408 76.7905 91.9418 76.7685 91.8355 76.7025C91.7291 76.6402 91.6155 76.5742 91.4945 76.5045C91.3771 76.4348 91.2415 76.3707 91.0875 76.312C90.9335 76.2497 90.7556 76.2002 90.554 76.1635C90.3523 76.1232 90.114 76.103 89.839 76.103C89.421 76.103 89.0433 76.1727 88.706 76.312C88.3723 76.4477 88.0863 76.6438 87.848 76.9005C87.6096 77.1535 87.4263 77.4615 87.298 77.8245C87.1696 78.1875 87.1055 78.5927 87.1055 79.04C87.1055 79.513 87.1733 79.9365 87.309 80.3105C87.4446 80.6808 87.6371 80.9962 87.8865 81.2565C88.1358 81.5132 88.4365 81.7093 88.7885 81.845C89.1441 81.9807 89.5401 82.0485 89.9765 82.0485C90.3028 82.0485 90.5925 82.0137 90.8455 81.944C91.1021 81.8743 91.3533 81.7772 91.599 81.6525V80.0795H90.4935C90.4091 80.0795 90.3431 80.0575 90.2955 80.0135C90.2478 79.9658 90.224 79.9053 90.224 79.832V79.1005H92.7595Z" fill="black"/>
<path d="M147.845 18.875C148.138 18.875 148.395 18.8402 148.615 18.7705C148.835 18.6972 149.018 18.5963 149.165 18.468C149.312 18.3397 149.422 18.1875 149.495 18.0115C149.568 17.8318 149.605 17.6338 149.605 17.4175C149.605 16.9848 149.462 16.6548 149.176 16.4275C148.89 16.2002 148.457 16.0865 147.878 16.0865H146.833V18.875H147.845ZM151.574 23H150.424C150.197 23 150.032 22.912 149.929 22.736L148.081 20.0685C148.019 19.9768 147.951 19.9108 147.878 19.8705C147.805 19.8302 147.695 19.81 147.548 19.81H146.833V23H145.546V15.08H147.878C148.399 15.08 148.846 15.1332 149.22 15.2395C149.598 15.3458 149.907 15.498 150.149 15.696C150.391 15.8903 150.569 16.125 150.683 16.4C150.8 16.675 150.859 16.9812 150.859 17.3185C150.859 17.5935 150.817 17.8502 150.732 18.0885C150.652 18.3268 150.533 18.5432 150.375 18.7375C150.221 18.9318 150.03 19.1005 149.803 19.2435C149.576 19.3865 149.317 19.4983 149.027 19.579C149.185 19.6743 149.321 19.8082 149.434 19.9805L151.574 23ZM157.473 21.9605L157.467 23H152.528V15.08H157.467V16.1195H153.821V18.5065H156.736V19.513H153.821V21.9605H157.473ZM165.179 19.1005V22.2355C164.391 22.8038 163.474 23.088 162.429 23.088C161.787 23.088 161.206 22.989 160.685 22.791C160.168 22.5893 159.727 22.3107 159.36 21.955C158.993 21.5957 158.711 21.1685 158.513 20.6735C158.315 20.1785 158.216 19.634 158.216 19.04C158.216 18.4423 158.311 17.896 158.502 17.401C158.693 16.9023 158.966 16.4752 159.321 16.1195C159.677 15.7602 160.106 15.4833 160.608 15.289C161.111 15.091 161.675 14.992 162.302 14.992C162.621 14.992 162.917 15.0177 163.188 15.069C163.463 15.1167 163.718 15.1845 163.952 15.2725C164.187 15.3605 164.403 15.4668 164.601 15.5915C164.799 15.7162 164.981 15.8555 165.146 16.0095L164.777 16.598C164.719 16.6897 164.644 16.7465 164.552 16.7685C164.46 16.7905 164.361 16.7685 164.255 16.7025C164.149 16.6402 164.035 16.5742 163.914 16.5045C163.797 16.4348 163.661 16.3707 163.507 16.312C163.353 16.2497 163.175 16.2002 162.973 16.1635C162.772 16.1232 162.533 16.103 162.258 16.103C161.84 16.103 161.463 16.1727 161.125 16.312C160.792 16.4477 160.506 16.6438 160.267 16.9005C160.029 17.1535 159.846 17.4615 159.717 17.8245C159.589 18.1875 159.525 18.5927 159.525 19.04C159.525 19.513 159.593 19.9365 159.728 20.3105C159.864 20.6808 160.057 20.9962 160.306 21.2565C160.555 21.5132 160.856 21.7093 161.208 21.845C161.564 21.9807 161.96 22.0485 162.396 22.0485C162.722 22.0485 163.012 22.0137 163.265 21.944C163.522 21.8743 163.773 21.7772 164.018 21.6525V20.0795H162.913C162.829 20.0795 162.763 20.0575 162.715 20.0135C162.667 19.9658 162.643 19.9053 162.643 19.832V19.1005H165.179ZM169.821 21.9605C170.126 21.9605 170.397 21.9092 170.635 21.8065C170.877 21.7038 171.081 21.5608 171.246 21.3775C171.415 21.1942 171.543 20.9742 171.631 20.7175C171.719 20.4572 171.763 20.1693 171.763 19.854V15.08H173.044V19.854C173.044 20.3197 172.969 20.7505 172.819 21.1465C172.672 21.5425 172.46 21.8853 172.181 22.175C171.902 22.461 171.563 22.6865 171.163 22.8515C170.767 23.0128 170.32 23.0935 169.821 23.0935C169.323 23.0935 168.874 23.0128 168.474 22.8515C168.078 22.6865 167.741 22.461 167.462 22.175C167.183 21.8853 166.969 21.5425 166.818 21.1465C166.672 20.7505 166.598 20.3197 166.598 19.854V15.08H167.885V19.8485C167.885 20.1638 167.929 20.4517 168.017 20.712C168.105 20.9687 168.232 21.1905 168.397 21.3775C168.562 21.5608 168.764 21.7038 169.002 21.8065C169.244 21.9092 169.517 21.9605 169.821 21.9605ZM179.405 21.922V23H174.829V15.08H176.116V21.922H179.405ZM184.703 20.03L183.614 17.137C183.526 16.9133 183.436 16.6292 183.344 16.2845C183.304 16.4568 183.26 16.6163 183.212 16.763C183.165 16.906 183.121 17.0325 183.08 17.1425L181.991 20.03H184.703ZM187.139 23H186.144C186.03 23 185.938 22.9725 185.869 22.9175C185.799 22.8588 185.746 22.7873 185.709 22.703L185.049 20.954H181.639L180.979 22.703C180.95 22.7763 180.899 22.8442 180.825 22.9065C180.752 22.9688 180.66 23 180.55 23H179.555L182.695 15.08H183.999L187.139 23ZM192.741 16.1525H190.271V23H188.99V16.1525H186.515V15.08H192.741V16.1525ZM200.973 19.04C200.973 19.6267 200.877 20.1675 200.687 20.6625C200.496 21.1575 200.227 21.5847 199.878 21.944C199.534 22.2997 199.117 22.5783 198.63 22.78C198.146 22.9817 197.607 23.0825 197.013 23.0825C196.422 23.0825 195.883 22.9817 195.396 22.78C194.912 22.5783 194.496 22.2997 194.147 21.944C193.799 21.5847 193.529 21.1575 193.339 20.6625C193.148 20.1675 193.053 19.6267 193.053 19.04C193.053 18.4533 193.148 17.9125 193.339 17.4175C193.529 16.9225 193.799 16.4953 194.147 16.136C194.496 15.7767 194.912 15.4962 195.396 15.2945C195.883 15.0928 196.422 14.992 197.013 14.992C197.607 14.992 198.146 15.0928 198.63 15.2945C199.117 15.4962 199.534 15.7767 199.878 16.136C200.227 16.4953 200.496 16.9225 200.687 17.4175C200.877 17.9125 200.973 18.4533 200.973 19.04ZM199.658 19.04C199.658 18.5853 199.596 18.1765 199.471 17.8135C199.35 17.4505 199.174 17.1425 198.943 16.8895C198.716 16.6365 198.439 16.4422 198.113 16.3065C197.786 16.1708 197.42 16.103 197.013 16.103C196.609 16.103 196.245 16.1708 195.918 16.3065C195.592 16.4422 195.313 16.6365 195.082 16.8895C194.851 17.1425 194.673 17.4505 194.549 17.8135C194.424 18.1765 194.362 18.5853 194.362 19.04C194.362 19.4983 194.424 19.909 194.549 20.272C194.673 20.635 194.851 20.943 195.082 21.196C195.313 21.4453 195.592 21.6378 195.918 21.7735C196.245 21.9055 196.609 21.9715 197.013 21.9715C197.42 21.9715 197.786 21.9055 198.113 21.7735C198.439 21.6378 198.716 21.4453 198.943 21.196C199.174 20.943 199.35 20.635 199.471 20.272C199.596 19.909 199.658 19.4983 199.658 19.04ZM204.682 18.875C204.975 18.875 205.232 18.8402 205.452 18.7705C205.672 18.6972 205.855 18.5963 206.002 18.468C206.149 18.3397 206.259 18.1875 206.332 18.0115C206.405 17.8318 206.442 17.6338 206.442 17.4175C206.442 16.9848 206.299 16.6548 206.013 16.4275C205.727 16.2002 205.294 16.0865 204.715 16.0865H203.67V18.875H204.682ZM208.411 23H207.261C207.034 23 206.869 22.912 206.766 22.736L204.918 20.0685C204.856 19.9768 204.788 19.9108 204.715 19.8705C204.642 19.8302 204.532 19.81 204.385 19.81H203.67V23H202.383V15.08H204.715C205.236 15.08 205.683 15.1332 206.057 15.2395C206.435 15.3458 206.744 15.498 206.986 15.696C207.228 15.8903 207.406 16.125 207.52 16.4C207.637 16.675 207.696 16.9812 207.696 17.3185C207.696 17.5935 207.654 17.8502 207.569 18.0885C207.489 18.3268 207.37 18.5432 207.212 18.7375C207.058 18.9318 206.867 19.1005 206.64 19.2435C206.413 19.3865 206.154 19.4983 205.864 19.579C206.022 19.6743 206.158 19.8082 206.271 19.9805L208.411 23ZM212.233 19.898V23H210.952V19.898L208.059 15.08H209.186C209.3 15.08 209.39 15.1075 209.456 15.1625C209.522 15.2175 209.577 15.2872 209.621 15.3715L211.243 18.2095C211.317 18.3525 211.383 18.4882 211.441 18.6165C211.504 18.7448 211.559 18.8713 211.606 18.996C211.647 18.8677 211.696 18.7412 211.755 18.6165C211.813 18.4882 211.879 18.3525 211.953 18.2095L213.564 15.3715C213.601 15.2982 213.654 15.2322 213.724 15.1735C213.793 15.1112 213.883 15.08 213.993 15.08H215.126L212.233 19.898ZM150.761 34.2345C150.831 34.2345 150.891 34.262 150.943 34.317L151.454 34.8725C151.132 35.2612 150.736 35.5618 150.266 35.7745C149.797 35.9835 149.236 36.088 148.583 36.088C148.004 36.088 147.48 35.989 147.01 35.791C146.545 35.5893 146.147 35.3107 145.817 34.955C145.487 34.5957 145.232 34.1685 145.052 33.6735C144.876 33.1785 144.788 32.634 144.788 32.04C144.788 31.446 144.882 30.9015 145.069 30.4065C145.259 29.9078 145.525 29.4807 145.866 29.125C146.211 28.7657 146.622 28.487 147.098 28.289C147.579 28.091 148.107 27.992 148.682 27.992C149.254 27.992 149.758 28.0855 150.195 28.2725C150.635 28.4558 151.016 28.7015 151.339 29.0095L150.915 29.609C150.886 29.6493 150.851 29.6842 150.811 29.7135C150.77 29.7428 150.715 29.7575 150.646 29.7575C150.572 29.7575 150.488 29.7245 150.393 29.6585C150.301 29.5888 150.182 29.5137 150.035 29.433C149.892 29.3487 149.711 29.2735 149.491 29.2075C149.274 29.1378 149.003 29.103 148.677 29.103C148.299 29.103 147.953 29.169 147.637 29.301C147.322 29.433 147.051 29.6255 146.823 29.8785C146.596 30.1315 146.418 30.4395 146.29 30.8025C146.165 31.1655 146.103 31.578 146.103 32.04C146.103 32.5057 146.169 32.9218 146.301 33.2885C146.433 33.6515 146.614 33.9595 146.845 34.2125C147.076 34.4618 147.348 34.6525 147.659 34.7845C147.971 34.9165 148.306 34.9825 148.666 34.9825C148.886 34.9825 149.082 34.9715 149.254 34.9495C149.43 34.9238 149.592 34.8853 149.738 34.834C149.885 34.779 150.022 34.7112 150.151 34.6305C150.283 34.5498 150.413 34.4508 150.541 34.3335C150.615 34.2675 150.688 34.2345 150.761 34.2345ZM154.865 31.875C155.158 31.875 155.415 31.8402 155.635 31.7705C155.855 31.6972 156.038 31.5963 156.185 31.468C156.332 31.3397 156.442 31.1875 156.515 31.0115C156.588 30.8318 156.625 30.6338 156.625 30.4175C156.625 29.9848 156.482 29.6548 156.196 29.4275C155.91 29.2002 155.477 29.0865 154.898 29.0865H153.853V31.875H154.865ZM158.594 36H157.444C157.217 36 157.052 35.912 156.949 35.736L155.101 33.0685C155.039 32.9768 154.971 32.9108 154.898 32.8705C154.825 32.8302 154.715 32.81 154.568 32.81H153.853V36H152.566V28.08H154.898C155.419 28.08 155.866 28.1332 156.24 28.2395C156.618 28.3458 156.927 28.498 157.169 28.696C157.411 28.8903 157.589 29.125 157.703 29.4C157.82 29.675 157.879 29.9812 157.879 30.3185C157.879 30.5935 157.837 30.8502 157.752 31.0885C157.672 31.3268 157.553 31.5432 157.395 31.7375C157.241 31.9318 157.05 32.1005 156.823 32.2435C156.596 32.3865 156.337 32.4983 156.047 32.579C156.205 32.6743 156.341 32.8082 156.454 32.9805L158.594 36ZM163.739 33.03L162.65 30.137C162.562 29.9133 162.473 29.6292 162.381 29.2845C162.341 29.4568 162.297 29.6163 162.249 29.763C162.201 29.906 162.157 30.0325 162.117 30.1425L161.028 33.03H163.739ZM166.176 36H165.18C165.067 36 164.975 35.9725 164.905 35.9175C164.836 35.8588 164.783 35.7873 164.746 35.703L164.086 33.954H160.676L160.016 35.703C159.987 35.7763 159.935 35.8442 159.862 35.9065C159.789 35.9688 159.697 36 159.587 36H158.591L161.732 28.08H163.035L166.176 36ZM172.385 34.2345C172.455 34.2345 172.515 34.262 172.567 34.317L173.078 34.8725C172.756 35.2612 172.36 35.5618 171.89 35.7745C171.421 35.9835 170.86 36.088 170.207 36.088C169.628 36.088 169.104 35.989 168.634 35.791C168.169 35.5893 167.771 35.3107 167.441 34.955C167.111 34.5957 166.856 34.1685 166.676 33.6735C166.5 33.1785 166.412 32.634 166.412 32.04C166.412 31.446 166.506 30.9015 166.693 30.4065C166.883 29.9078 167.149 29.4807 167.49 29.125C167.835 28.7657 168.246 28.487 168.722 28.289C169.203 28.091 169.731 27.992 170.306 27.992C170.878 27.992 171.382 28.0855 171.819 28.2725C172.259 28.4558 172.64 28.7015 172.963 29.0095L172.539 29.609C172.51 29.6493 172.475 29.6842 172.435 29.7135C172.394 29.7428 172.339 29.7575 172.27 29.7575C172.196 29.7575 172.112 29.7245 172.017 29.6585C171.925 29.5888 171.806 29.5137 171.659 29.433C171.516 29.3487 171.335 29.2735 171.115 29.2075C170.898 29.1378 170.627 29.103 170.301 29.103C169.923 29.103 169.577 29.169 169.261 29.301C168.946 29.433 168.675 29.6255 168.447 29.8785C168.22 30.1315 168.042 30.4395 167.914 30.8025C167.789 31.1655 167.727 31.578 167.727 32.04C167.727 32.5057 167.793 32.9218 167.925 33.2885C168.057 33.6515 168.238 33.9595 168.469 34.2125C168.7 34.4618 168.972 34.6525 169.283 34.7845C169.595 34.9165 169.93 34.9825 170.29 34.9825C170.51 34.9825 170.706 34.9715 170.878 34.9495C171.054 34.9238 171.216 34.8853 171.362 34.834C171.509 34.779 171.646 34.7112 171.775 34.6305C171.907 34.5498 172.037 34.4508 172.165 34.3335C172.239 34.2675 172.312 34.2345 172.385 34.2345ZM175.477 31.468H175.846C175.985 31.468 176.099 31.4497 176.187 31.413C176.275 31.3727 176.353 31.3103 176.423 31.226L178.821 28.366C178.905 28.2597 178.992 28.1863 179.08 28.146C179.171 28.102 179.285 28.08 179.421 28.08H180.521L177.688 31.424C177.611 31.5193 177.536 31.6 177.463 31.666C177.393 31.7283 177.316 31.7797 177.232 31.82C177.342 31.8603 177.441 31.9172 177.529 31.9905C177.617 32.0602 177.703 32.1537 177.787 32.271L180.724 36H179.602C179.521 36 179.452 35.9945 179.393 35.9835C179.338 35.9725 179.289 35.956 179.245 35.934C179.204 35.912 179.168 35.8845 179.135 35.8515C179.105 35.8185 179.078 35.7818 179.052 35.7415L176.577 32.7165C176.54 32.6688 176.504 32.6285 176.467 32.5955C176.43 32.5625 176.386 32.535 176.335 32.513C176.287 32.491 176.232 32.4763 176.17 32.469C176.108 32.458 176.034 32.4525 175.95 32.4525H175.477V36H174.19V28.08H175.477V31.468ZM188.565 32.04C188.565 32.6267 188.47 33.1638 188.279 33.6515C188.088 34.1355 187.819 34.5517 187.47 34.9C187.126 35.2483 186.71 35.5197 186.222 35.714C185.738 35.9047 185.199 36 184.605 36H181.613V28.08H184.605C185.199 28.08 185.738 28.1772 186.222 28.3715C186.71 28.5622 187.126 28.8317 187.47 29.18C187.819 29.5283 188.088 29.9463 188.279 30.434C188.47 30.918 188.565 31.4533 188.565 32.04ZM187.25 32.04C187.25 31.5853 187.188 31.1765 187.063 30.8135C186.942 30.4505 186.766 30.1443 186.535 29.895C186.308 29.6457 186.031 29.455 185.705 29.323C185.379 29.1873 185.012 29.1195 184.605 29.1195H182.905V34.9605H184.605C185.012 34.9605 185.379 34.8945 185.705 34.7625C186.031 34.6305 186.308 34.4398 186.535 34.1905C186.766 33.9375 186.942 33.6313 187.063 33.272C187.188 32.909 187.25 32.4983 187.25 32.04ZM197.423 32.04C197.423 32.6267 197.327 33.1675 197.137 33.6625C196.946 34.1575 196.676 34.5847 196.328 34.944C195.983 35.2997 195.567 35.5783 195.08 35.78C194.596 35.9817 194.057 36.0825 193.463 36.0825C192.872 36.0825 192.333 35.9817 191.846 35.78C191.362 35.5783 190.945 35.2997 190.597 34.944C190.249 34.5847 189.979 34.1575 189.789 33.6625C189.598 33.1675 189.503 32.6267 189.503 32.04C189.503 31.4533 189.598 30.9125 189.789 30.4175C189.979 29.9225 190.249 29.4953 190.597 29.136C190.945 28.7767 191.362 28.4962 191.846 28.2945C192.333 28.0928 192.872 27.992 193.463 27.992C194.057 27.992 194.596 28.0928 195.08 28.2945C195.567 28.4962 195.983 28.7767 196.328 29.136C196.676 29.4953 196.946 29.9225 197.137 30.4175C197.327 30.9125 197.423 31.4533 197.423 32.04ZM196.108 32.04C196.108 31.5853 196.046 31.1765 195.921 30.8135C195.8 30.4505 195.624 30.1425 195.393 29.8895C195.166 29.6365 194.889 29.4422 194.563 29.3065C194.236 29.1708 193.87 29.103 193.463 29.103C193.059 29.103 192.694 29.1708 192.368 29.3065C192.042 29.4422 191.763 29.6365 191.532 29.8895C191.301 30.1425 191.123 30.4505 190.999 30.8135C190.874 31.1765 190.812 31.5853 190.812 32.04C190.812 32.4983 190.874 32.909 190.999 33.272C191.123 33.635 191.301 33.943 191.532 34.196C191.763 34.4453 192.042 34.6378 192.368 34.7735C192.694 34.9055 193.059 34.9715 193.463 34.9715C193.87 34.9715 194.236 34.9055 194.563 34.7735C194.889 34.6378 195.166 34.4453 195.393 34.196C195.624 33.943 195.8 33.635 195.921 33.272C196.046 32.909 196.108 32.4983 196.108 32.04ZM209.104 28.08L206.64 36H205.48L203.621 30.313C203.599 30.2507 203.577 30.1828 203.555 30.1095C203.537 30.0362 203.518 29.9573 203.5 29.873C203.482 29.9573 203.461 30.0362 203.439 30.1095C203.421 30.1828 203.401 30.2507 203.379 30.313L201.503 36H200.343L197.879 28.08H198.957C199.067 28.08 199.159 28.1075 199.232 28.1625C199.309 28.2138 199.36 28.2853 199.386 28.377L200.871 33.4535C200.9 33.5635 200.928 33.6827 200.953 33.811C200.979 33.9393 201.005 34.0732 201.03 34.2125C201.056 34.0732 201.084 33.9393 201.113 33.811C201.146 33.679 201.181 33.5598 201.217 33.4535L202.917 28.377C202.943 28.3037 202.994 28.2358 203.071 28.1735C203.148 28.1112 203.24 28.08 203.346 28.08H203.72C203.834 28.08 203.925 28.1093 203.995 28.168C204.065 28.223 204.118 28.2927 204.154 28.377L205.848 33.4535C205.885 33.5598 205.918 33.6753 205.947 33.8C205.98 33.921 206.01 34.0493 206.035 34.185C206.061 34.0493 206.085 33.921 206.107 33.8C206.133 33.6753 206.16 33.5598 206.189 33.4535L207.669 28.377C207.691 28.2963 207.74 28.2267 207.817 28.168C207.898 28.1093 207.992 28.08 208.098 28.08H209.104ZM216.732 28.08V36H216.078C215.979 36 215.895 35.9835 215.825 35.9505C215.755 35.9138 215.689 35.8552 215.627 35.7745L211.276 30.1865C211.287 30.2928 211.295 30.3992 211.298 30.5055C211.306 30.6082 211.309 30.7035 211.309 30.7915V36H210.176V28.08H210.847C210.902 28.08 210.948 28.0837 210.985 28.091C211.025 28.0947 211.062 28.1038 211.095 28.1185C211.128 28.1332 211.159 28.1552 211.188 28.1845C211.218 28.2138 211.249 28.2505 211.282 28.2945L215.638 33.888C215.627 33.7743 215.618 33.6625 215.61 33.5525C215.607 33.4425 215.605 33.3398 215.605 33.2445V28.08H216.732Z" fill="black"/>
<defs>
<filter id="filter0_di_4059_216" x="117" y="54" width="116" height="43" filterUnits="userSpaceOnUse" color-interpolation-filters="sRGB">
<feFlood flood-opacity="0" result="BackgroundImageFix"/>
<feColorMatrix in="SourceAlpha" type="matrix" values="0 0 0 0 0 0 0 0 0 0 0 0 0 0 0 0 0 0 127 0" result="hardAlpha"/>
<feOffset dy="4"/>
<feGaussianBlur stdDeviation="2"/>
<feComposite in2="hardAlpha" operator="out"/>
<feColorMatrix type="matrix" values="0 0 0 0 0 0 0 0 0 0 0 0 0 0 0 0 0 0 0.25 0"/>
<feBlend mode="normal" in2="BackgroundImageFix" result="effect1_dropShadow_4059_216"/>
<feBlend mode="normal" in="SourceGraphic" in2="effect1_dropShadow_4059_216" result="shape"/>
<feColorMatrix in="SourceAlpha" type="matrix" values="0 0 0 0 0 0 0 0 0 0 0 0 0 0 0 0 0 0 127 0" result="hardAlpha"/>
<feOffset dy="4"/>
<feGaussianBlur stdDeviation="2"/>
<feComposite in2="hardAlpha" operator="arithmetic" k2="-1" k3="1"/>
<feColorMatrix type="matrix" values="0 0 0 0 0 0 0 0 0 0 0 0 0 0 0 0 0 0 0.25 0"/>
<feBlend mode="normal" in2="shape" result="effect2_innerShadow_4059_216"/>
</filter>
<filter id="filter1_di_4059_216" x="117" y="7" width="116" height="42" filterUnits="userSpaceOnUse" color-interpolation-filters="sRGB">
<feFlood flood-opacity="0" result="BackgroundImageFix"/>
<feColorMatrix in="SourceAlpha" type="matrix" values="0 0 0 0 0 0 0 0 0 0 0 0 0 0 0 0 0 0 127 0" result="hardAlpha"/>
<feOffset dy="4"/>
<feGaussianBlur stdDeviation="2"/>
<feComposite in2="hardAlpha" operator="out"/>
<feColorMatrix type="matrix" values="0 0 0 0 0 0 0 0 0 0 0 0 0 0 0 0 0 0 0.25 0"/>
<feBlend mode="normal" in2="BackgroundImageFix" result="effect1_dropShadow_4059_216"/>
<feBlend mode="normal" in="SourceGraphic" in2="effect1_dropShadow_4059_216" result="shape"/>
<feColorMatrix in="SourceAlpha" type="matrix" values="0 0 0 0 0 0 0 0 0 0 0 0 0 0 0 0 0 0 127 0" result="hardAlpha"/>
<feOffset dy="4"/>
<feGaussianBlur stdDeviation="2"/>
<feComposite in2="hardAlpha" operator="arithmetic" k2="-1" k3="1"/>
<feColorMatrix type="matrix" values="0 0 0 0 0 0 0 0 0 0 0 0 0 0 0 0 0 0 0.25 0"/>
<feBlend mode="normal" in2="shape" result="effect2_innerShadow_4059_216"/>
</filter>
<filter id="filter2_di_4059_216" x="2" y="7" width="115" height="42" filterUnits="userSpaceOnUse" color-interpolation-filters="sRGB">
<feFlood flood-opacity="0" result="BackgroundImageFix"/>
<feColorMatrix in="SourceAlpha" type="matrix" values="0 0 0 0 0 0 0 0 0 0 0 0 0 0 0 0 0 0 127 0" result="hardAlpha"/>
<feOffset dy="4"/>
<feGaussianBlur stdDeviation="2"/>
<feComposite in2="hardAlpha" operator="out"/>
<feColorMatrix type="matrix" values="0 0 0 0 0 0 0 0 0 0 0 0 0 0 0 0 0 0 0.25 0"/>
<feBlend mode="normal" in2="BackgroundImageFix" result="effect1_dropShadow_4059_216"/>
<feBlend mode="normal" in="SourceGraphic" in2="effect1_dropShadow_4059_216" result="shape"/>
<feColorMatrix in="SourceAlpha" type="matrix" values="0 0 0 0 0 0 0 0 0 0 0 0 0 0 0 0 0 0 127 0" result="hardAlpha"/>
<feOffset dy="4"/>
<feGaussianBlur stdDeviation="2"/>
<feComposite in2="hardAlpha" operator="arithmetic" k2="-1" k3="1"/>
<feColorMatrix type="matrix" values="0 0 0 0 0 0 0 0 0 0 0 0 0 0 0 0 0 0 0.25 0"/>
<feBlend mode="normal" in2="shape" result="effect2_innerShadow_4059_216"/>
</filter>
<filter id="filter3_i_4059_216" x="0" y="0" width="26" height="24" filterUnits="userSpaceOnUse" color-interpolation-filters="sRGB">
<feFlood flood-opacity="0" result="BackgroundImageFix"/>
<feBlend mode="normal" in="SourceGraphic" in2="BackgroundImageFix" result="shape"/>
<feColorMatrix in="SourceAlpha" type="matrix" values="0 0 0 0 0 0 0 0 0 0 0 0 0 0 0 0 0 0 127 0" result="hardAlpha"/>
<feOffset dy="4"/>
<feGaussianBlur stdDeviation="2"/>
<feComposite in2="hardAlpha" operator="arithmetic" k2="-1" k3="1"/>
<feColorMatrix type="matrix" values="0 0 0 0 0 0 0 0 0 0 0 0 0 0 0 0 0 0 0.25 0"/>
<feBlend mode="normal" in2="shape" result="effect1_innerShadow_4059_216"/>
</filter>
<filter id="filter4_i_4059_216" x="116" y="48" width="28" height="24" filterUnits="userSpaceOnUse" color-interpolation-filters="sRGB">
<feFlood flood-opacity="0" result="BackgroundImageFix"/>
<feBlend mode="normal" in="SourceGraphic" in2="BackgroundImageFix" result="shape"/>
<feColorMatrix in="SourceAlpha" type="matrix" values="0 0 0 0 0 0 0 0 0 0 0 0 0 0 0 0 0 0 127 0" result="hardAlpha"/>
<feOffset dy="4"/>
<feGaussianBlur stdDeviation="2"/>
<feComposite in2="hardAlpha" operator="arithmetic" k2="-1" k3="1"/>
<feColorMatrix type="matrix" values="0 0 0 0 0 0 0 0 0 0 0 0 0 0 0 0 0 0 0.25 0"/>
<feBlend mode="normal" in2="shape" result="effect1_innerShadow_4059_216"/>
</filter>
<filter id="filter5_di_4059_216" x="3" y="54" width="115" height="43" filterUnits="userSpaceOnUse" color-interpolation-filters="sRGB">
<feFlood flood-opacity="0" result="BackgroundImageFix"/>
<feColorMatrix in="SourceAlpha" type="matrix" values="0 0 0 0 0 0 0 0 0 0 0 0 0 0 0 0 0 0 127 0" result="hardAlpha"/>
<feOffset dy="4"/>
<feGaussianBlur stdDeviation="2"/>
<feComposite in2="hardAlpha" operator="out"/>
<feColorMatrix type="matrix" values="0 0 0 0 0 0 0 0 0 0 0 0 0 0 0 0 0 0 0.25 0"/>
<feBlend mode="normal" in2="BackgroundImageFix" result="effect1_dropShadow_4059_216"/>
<feBlend mode="normal" in="SourceGraphic" in2="effect1_dropShadow_4059_216" result="shape"/>
<feColorMatrix in="SourceAlpha" type="matrix" values="0 0 0 0 0 0 0 0 0 0 0 0 0 0 0 0 0 0 127 0" result="hardAlpha"/>
<feOffset dy="4"/>
<feGaussianBlur stdDeviation="2"/>
<feComposite in2="hardAlpha" operator="arithmetic" k2="-1" k3="1"/>
<feColorMatrix type="matrix" values="0 0 0 0 0 0 0 0 0 0 0 0 0 0 0 0 0 0 0.25 0"/>
<feBlend mode="normal" in2="shape" result="effect2_innerShadow_4059_216"/>
</filter>
<filter id="filter6_i_4059_216" x="2" y="48" width="27" height="24" filterUnits="userSpaceOnUse" color-interpolation-filters="sRGB">
<feFlood flood-opacity="0" result="BackgroundImageFix"/>
<feBlend mode="normal" in="SourceGraphic" in2="BackgroundImageFix" result="shape"/>
<feColorMatrix in="SourceAlpha" type="matrix" values="0 0 0 0 0 0 0 0 0 0 0 0 0 0 0 0 0 0 127 0" result="hardAlpha"/>
<feOffset dy="4"/>
<feGaussianBlur stdDeviation="2"/>
<feComposite in2="hardAlpha" operator="arithmetic" k2="-1" k3="1"/>
<feColorMatrix type="matrix" values="0 0 0 0 0 0 0 0 0 0 0 0 0 0 0 0 0 0 0.25 0"/>
<feBlend mode="normal" in2="shape" result="effect1_innerShadow_4059_216"/>
</filter>
<filter id="filter7_i_4059_216" x="116" y="0" width="28" height="24" filterUnits="userSpaceOnUse" color-interpolation-filters="sRGB">
<feFlood flood-opacity="0" result="BackgroundImageFix"/>
<feBlend mode="normal" in="SourceGraphic" in2="BackgroundImageFix" result="shape"/>
<feColorMatrix in="SourceAlpha" type="matrix" values="0 0 0 0 0 0 0 0 0 0 0 0 0 0 0 0 0 0 127 0" result="hardAlpha"/>
<feOffset dy="4"/>
<feGaussianBlur stdDeviation="2"/>
<feComposite in2="hardAlpha" operator="arithmetic" k2="-1" k3="1"/>
<feColorMatrix type="matrix" values="0 0 0 0 0 0 0 0 0 0 0 0 0 0 0 0 0 0 0.25 0"/>
<feBlend mode="normal" in2="shape" result="effect1_innerShadow_4059_216"/>
</filter>
</defs>
</svg>
