<svg width="231" height="164" viewBox="0 0 231 164" fill="none" xmlns="http://www.w3.org/2000/svg">
<path fill-rule="evenodd" clip-rule="evenodd" d="M111.12 54.0841C119.634 54.0841 126.537 47.4384 126.537 39.2405C126.537 31.0427 119.634 24.397 111.12 24.397C102.605 24.397 95.703 31.0427 95.703 39.2405C95.703 47.4384 102.605 54.0841 111.12 54.0841ZM111.12 48.7828C116.593 48.7828 121.031 44.5106 121.031 39.2405C121.031 33.9705 116.593 29.6982 111.12 29.6982C105.646 29.6982 101.209 33.9705 101.209 39.2405C101.209 44.5106 105.646 48.7828 111.12 48.7828Z" fill="#212121"/>
<line x1="110.772" y1="25.4683" x2="110.772" y2="6.48499e-05" stroke="#212121" stroke-width="4"/>
<line x1="110.772" y1="158" x2="110.772" y2="51.9745" stroke="#212121" stroke-width="4"/>
<line x1="153.462" y1="160.989" x2="71.9029" y2="160.989" stroke="#212121" stroke-width="6"/>
<line y1="-2" x2="78.936" y2="-2" transform="matrix(0.941841 -0.336058 0.359209 0.933257 27.4288 72.1865)" stroke="#212121" stroke-width="4"/>
<line y1="-2" x2="87.0195" y2="-2" transform="matrix(0.941841 -0.336058 0.359209 0.933257 123.233 38.2588)" stroke="#212121" stroke-width="4"/>
<path fill-rule="evenodd" clip-rule="evenodd" d="M52.2617 114.216L26.6309 67.8673L1 114.216H52.2617ZM45.7236 110.096L26.9276 76.1071L8.13168 110.096H45.7236Z" fill="#212121"/>
<path d="M2.42627 113.872C2.42627 113.872 26.3321 172.58 50.9209 113.872" stroke="#212121" stroke-width="4"/>
<path fill-rule="evenodd" clip-rule="evenodd" d="M230 52.7208L204.369 6.37256L178.738 52.7208H230ZM223.462 48.601L204.666 14.6123L185.87 48.601H223.462Z" fill="#212121"/>
<path d="M180.165 52.3774C180.165 52.3774 204.07 111.085 228.659 52.3774" stroke="#212121" stroke-width="4"/>
</svg>
