<svg width="230" height="177" viewBox="0 0 230 177" fill="none" xmlns="http://www.w3.org/2000/svg">
<g clip-path="url(#clip0_228_751)">
<path fill-rule="evenodd" clip-rule="evenodd" d="M13.921 131.361C14.1175 133.593 10.163 132.924 9.06766 131.361C8.01447 131.458 7.73248 133.513 7.8803 136.661C14.5693 141.593 23.0405 142.354 22.6314 138.006C22.1927 135.714 19.0373 134.285 13.921 131.361Z" fill="#C5C5C5"/>
<path fill-rule="evenodd" clip-rule="evenodd" d="M22.6315 138.006C18.1463 141.424 13.1048 138.135 7.84424 135.325C7.84424 135.325 7.85848 136.19 7.88044 136.661C14.5694 141.593 23.0406 142.354 22.6315 138.006Z" fill="#B5B5B5"/>
<path fill-rule="evenodd" clip-rule="evenodd" d="M32.6373 125.828C32.8338 128.059 28.8793 127.391 27.784 125.828C26.7308 125.925 26.4488 127.98 26.5966 131.128C33.2856 136.06 41.7568 136.821 41.3477 132.473C40.909 130.181 37.7536 128.752 32.6373 125.828Z" fill="#C5C5C5"/>
<path fill-rule="evenodd" clip-rule="evenodd" d="M41.3479 132.473C36.8626 135.891 31.8211 132.602 26.5605 129.792C26.5605 129.792 26.5748 130.657 26.5968 131.128C33.2857 136.06 41.7569 136.821 41.3479 132.473Z" fill="#B5B5B5"/>
<path fill-rule="evenodd" clip-rule="evenodd" d="M16.4591 67.6175C16.4591 67.6175 15.6442 65.7402 15.9309 66.1527C17.6024 68.5621 19.5299 70.6247 22.4572 71.3301C26.9785 71.3421 31.0767 71.1587 32.6479 69.8116C33.8536 82.1632 34.4901 113.797 34.4562 126.87C31.5418 128.971 27.4092 128.451 26.3179 128.168C23.8917 106.532 23.5931 85.3318 21.9367 79.0862C20.1042 94.9153 17.9824 119.228 16.6536 130.001C15.4922 130.137 9.22269 131.384 8.12225 130.659L10.2185 66.6191C10.4208 66.6151 10.8179 66.5952 10.8179 66.5952C10.4918 68.6498 11.0925 70.1524 11.8834 71.5414C12.0074 71.5274 12.1959 71.4537 12.4271 71.3301C12.6584 71.2086 12.7131 70.7442 13.9451 69.8116C15.2602 68.8172 16.6727 68.0081 16.4591 67.6175Z" fill="#003354"/>
<path fill-rule="evenodd" clip-rule="evenodd" d="M16.4592 67.6175C16.4592 67.6175 15.6443 65.7402 15.931 66.1527C17.6026 68.5621 19.5301 70.6247 22.4574 71.3301C22.4636 72.2269 22.5875 77.3804 21.9368 79.0862C20.1043 94.9153 17.7881 122.119 16.4592 132.893C15.678 134.162 8.94526 133.616 7.84482 132.893L10.2186 66.6191C10.4209 66.6151 10.8181 66.5952 10.8181 66.5952C10.492 68.6498 12.7132 70.7442 13.9452 69.8116C15.2603 68.8172 16.6728 68.0081 16.4592 67.6175Z" fill="#1D445D"/>
<path fill-rule="evenodd" clip-rule="evenodd" d="M26.2676 45.0707L33.6777 26.4058C36.1437 31.4417 36.0591 39.0064 37.4365 47.3564C38.1627 51.7586 39.3975 56.5055 41.5249 61.089C40.0559 62.6813 38.2112 63.6339 35.5321 63.9049L31.0226 54.9631L26.2676 45.0707Z" fill="#482061"/>
<path fill-rule="evenodd" clip-rule="evenodd" d="M35.8601 63.8649C35.6941 63.8888 37.3808 64.7696 37.889 65.7382C38.3519 66.621 38.1803 68.2033 38.2185 69.5226C38.2201 69.5843 38.2632 69.7338 38.2972 69.7457C41.3057 70.8139 42.2111 69.5405 42.7979 68.9108C42.9321 68.7653 42.9451 68.568 42.9557 68.558C43.2222 68.291 43.1965 66.1148 42.6332 64.1818C42.1661 62.5775 41.2834 61.326 41.1891 61.4097C39.8387 62.6214 37.992 63.548 35.8601 63.8649Z" fill="#DDBDA1"/>
<path fill-rule="evenodd" clip-rule="evenodd" d="M37.7409 63.4087C36.4879 63.8371 38.8671 63.4784 39.5051 64.4669C40.287 65.6785 39.656 67.7869 40.2355 67.9543C41.6762 68.3689 41.7872 65.5231 41.5574 63.5701C41.3964 62.201 41.0286 61.5514 41.0027 61.5733C40.1001 62.3405 38.9937 62.9822 37.7409 63.4087Z" fill="#EACAAF"/>
<path fill-rule="evenodd" clip-rule="evenodd" d="M1.41884 44.4748C-0.321178 43.7543 0.0459538 41.4019 0.126939 38.5685C0.251116 34.2086 3.14112 27.4901 13.7178 28.6024L10.5794 61.5896C8.29868 62.5494 6.43915 62.7273 1.74664 63.2569C-0.050457 62.0468 0.213323 58.2473 0.126939 54.2592C0.0444107 50.462 -0.47775 46.4931 1.41884 44.4748Z" fill="#003354"/>
<path fill-rule="evenodd" clip-rule="evenodd" d="M10.127 68.9687C9.80073 71.0233 18.4684 71.3222 22.4572 71.3302C26.9785 71.3421 31.0767 71.1588 32.6479 69.8116C35.2076 64.423 32.815 60.7124 33.7069 60.527C33.0592 54.7119 34.0759 52.189 33.7069 48.0439C33.1528 41.8183 38.1767 25.5926 30.3819 23.1733C30.1143 23.0518 26.1747 22.8206 26.2675 22.9462C27.2263 24.2475 23.7213 23.4942 23.5894 23.5958C23.2657 23.8409 23.8752 22.5835 19.448 23.0737C17.1861 23.3248 12.7182 25.9693 11.1731 28.0757L9.80692 29.8513C13.986 26.6788 16.5569 32.0773 15.0437 38.5919C13.6498 44.5923 11.1959 44.4947 10.7274 47.1212C10.7274 47.1212 10.9721 54.6601 10.5298 56.6609C10.6214 56.6589 10.127 68.9687 10.127 68.9687Z" fill="#572A74"/>
<path fill-rule="evenodd" clip-rule="evenodd" d="M10.4125 61.4237C28.5069 48.9864 25.1989 26.5651 13.2577 26.0808C13.2577 26.0808 11.6443 27.4339 11.173 28.0756C22.6186 28.9903 23.8985 49.1 10.5297 57.6613L10.4125 61.4237Z" fill="#77898C"/>
<path fill-rule="evenodd" clip-rule="evenodd" d="M19.1602 15.738L26.603 20.9314V26.1187C24.2863 26.5472 21.8828 25.1721 19.4449 23.5619L19.1602 15.738Z" fill="#CEAB8D"/>
<path fill-rule="evenodd" clip-rule="evenodd" d="M25.3147 26.496C20.7852 26.5438 19.0458 23.6602 19.4206 23.0683C20.9591 24.7822 26.9138 27.7096 26.4897 22.9109C26.4879 22.9986 28.3199 26.4641 25.3147 26.496Z" fill="#F0EDE9"/>
<path fill-rule="evenodd" clip-rule="evenodd" d="M30.5522 10.3126C30.7391 9.26437 29.9322 8.80004 30.1435 8.65456C30.4068 8.47122 31.1767 8.88174 32.3311 9.74264C32.3046 14.4617 32.071 13.7144 32.0372 14.2763C31.8867 16.7853 31.4312 19.1907 31.5571 21.7016C31.5607 21.7734 31.4804 22.0344 31.4325 22.0922C29.4042 24.4657 22.6313 23.1524 20.7338 18.7941C20.4833 18.2182 20.3178 17.5904 20.2594 16.9109C19.8742 16.6458 18.3126 15.8567 17.9518 15.0117C17.5724 14.1249 18.4344 13.1783 19.7561 12.7399C21.4246 12.1859 21.3784 14.1926 22.1909 15.4621C22.27 15.5856 22.8979 15.5478 22.8979 15.5478L23.2297 9.39191C24.0715 6.79924 26.5247 7.13005 30.5522 10.3126Z" fill="#DDBDA1"/>
<path fill-rule="evenodd" clip-rule="evenodd" d="M30.5524 10.3131C30.7393 9.26484 29.9324 8.8005 30.1437 8.65503C30.407 8.47169 31.1769 8.8822 32.3313 9.74311C32.3284 10.2493 33.1524 11.0165 33.1524 11.0165C33.9672 8.64108 32.9044 7.48723 31.8736 6.31345C31.86 5.73353 34.1033 5.74747 34.0679 5.40869C34.0299 5.044 32.2274 4.78295 31.4702 4.21698C31.4522 3.5733 32.9859 3.38 32.8512 3.17872C32.7277 2.99538 30.9674 2.86584 30.5524 2.7084C31.1421 2.0986 31.9068 1.81363 31.8736 1.59043C31.843 1.38318 29.5972 1.15799 28.2159 1.60438C28.3401 1.2118 28.9123 0.578075 29.0459 0.249258C29.1243 0.0559529 27.7498 0.609945 25.8761 1.16993C26.6503 -0.549884 25.6732 0.0758773 23.4237 0.693656C23.4237 0.693656 22.8465 -0.504033 22.702 0.249258C22.6212 0.669746 15.7196 1.92722 14.8727 6.31345C13.998 10.8432 19.0531 19.1533 19.0531 19.1533C20.2354 19.3167 19.6607 17.0608 20.2373 16.6363C19.4468 16.5447 17.1782 13.5953 19.7563 12.7403C21.4079 12.1923 21.3988 14.2409 22.2113 15.5104C22.2536 15.5761 22.9127 15.5482 22.9127 15.5482L23.2299 9.39237C24.0717 6.7997 26.5249 7.13051 30.5524 10.3131Z" fill="#3A1B00"/>
<path fill-rule="evenodd" clip-rule="evenodd" d="M6.5083 51.8883C6.54661 34.7501 8.70311 27.9541 12.7985 28.5365C14.0048 28.7081 16.2558 30.2894 16.3243 31.9146C16.5354 36.8714 15.4905 36.9503 13.506 45.1664L6.65173 54.4237L6.5083 51.8883Z" fill="#5F317D"/>
<path fill-rule="evenodd" clip-rule="evenodd" d="M22.1984 33.601C20.9685 33.169 20.2342 34.1158 19.6955 34.6852C19.6083 34.7771 18.8757 34.978 18.6915 35.6003C18.5431 36.1013 18.7786 36.9278 18.7517 37.0172C18.5154 37.7834 18.103 38.7799 17.1372 40.1952C18.7126 41.0273 19.7746 42.0424 20.4861 43.1812C22.4617 40.3741 24.355 39.5249 24.8692 37.7322C25.249 36.4088 24.6565 34.4648 22.1984 33.601Z" fill="#DDBDA1"/>
<path fill-rule="evenodd" clip-rule="evenodd" d="M6.73277 56.539C5.65451 48.0308 8.82489 48.4896 17.6107 38.8679C19.1861 39.7008 20.7934 41.1308 21.5049 42.2696C16.9644 50.4678 11.829 60.5506 6.73277 56.539Z" fill="#633582"/>
<path fill-rule="evenodd" clip-rule="evenodd" d="M60.6392 131.361C60.8357 133.593 56.8813 132.924 55.7859 131.361C54.7327 131.458 54.4507 133.513 54.5986 136.661C61.2875 141.593 69.7587 142.354 69.3497 138.006C68.9109 135.714 65.7555 134.285 60.6392 131.361Z" fill="#212121"/>
<path fill-rule="evenodd" clip-rule="evenodd" d="M69.3498 138.006C64.8646 141.424 59.8231 138.135 54.5625 135.325C54.5625 135.325 54.5767 136.19 54.5987 136.661C61.2877 141.593 69.7589 142.354 69.3498 138.006Z" fill="#212121"/>
<path fill-rule="evenodd" clip-rule="evenodd" d="M79.3555 125.828C79.552 128.059 75.5976 127.391 74.5022 125.828C73.449 125.925 73.167 127.98 73.3149 131.128C80.0038 136.06 88.475 136.821 88.066 132.473C87.6273 130.181 84.4718 128.752 79.3555 125.828Z" fill="#212121"/>
<path fill-rule="evenodd" clip-rule="evenodd" d="M88.0661 132.473C83.5809 135.891 78.5394 132.602 73.2788 129.792C73.2788 129.792 73.293 130.657 73.315 131.128C80.004 136.06 88.4752 136.821 88.0661 132.473Z" fill="#212121"/>
<path fill-rule="evenodd" clip-rule="evenodd" d="M63.1773 67.6175C63.1773 67.6175 62.3624 65.7402 62.6492 66.1527C64.3207 68.5621 66.2482 70.6247 69.1755 71.3301C73.6968 71.3421 77.795 71.1587 79.3662 69.8116C80.5719 82.1632 81.2083 113.797 81.1745 126.87C78.2601 128.971 75.7031 128.817 73.2943 129.074C70.8682 107.438 70.3114 85.3318 68.655 79.0862C66.8225 94.9153 64.7007 119.228 63.3718 130.001C62.2105 130.137 55.9409 131.384 54.8405 130.659L56.9368 66.6191C57.139 66.6151 57.5362 66.5952 57.5362 66.5952C57.2101 68.6498 57.8107 70.1524 58.6017 71.5414C58.7257 71.5274 58.9142 71.4537 59.1454 71.3301C59.3766 71.2086 59.4313 70.7442 60.6634 69.8116C61.9785 68.8172 63.391 68.0081 63.1773 67.6175Z" fill="#212121"/>
<path fill-rule="evenodd" clip-rule="evenodd" d="M63.1775 67.6175C63.1775 67.6175 62.3626 65.7402 62.6493 66.1527C64.3208 68.5621 66.2483 70.6247 69.1756 71.3301C69.1818 72.2269 69.3058 77.3804 68.6551 79.0862C66.8226 94.9153 64.5063 122.119 63.1775 132.893C62.3963 134.162 55.733 134.67 54.6326 133.947L56.9369 66.6191C57.1391 66.6151 57.5363 66.5952 57.5363 66.5952C57.2102 68.6498 59.4315 70.7442 60.6635 69.8116C61.9786 68.8172 63.3911 68.0081 63.1775 67.6175Z" fill="#212121"/>
<path fill-rule="evenodd" clip-rule="evenodd" d="M72.9857 45.0707L80.3958 26.4058C82.8619 31.4417 82.7772 39.0064 84.1546 47.3564C84.8808 51.7586 86.3672 56.2484 88.4946 60.832C87.0256 62.4222 84.7548 63.6558 82.0757 63.9268L77.7407 54.9631L72.9857 45.0707Z" fill="#212121"/>
<path fill-rule="evenodd" clip-rule="evenodd" d="M82.5778 63.8649C82.4119 63.8888 84.0986 64.7696 84.6068 65.7382C85.0696 66.621 84.8981 68.2033 84.9363 69.5226C84.9378 69.5843 84.981 69.7338 85.0149 69.7457C88.0235 70.8139 88.9288 69.5405 89.5157 68.9108C89.6499 68.7653 89.6629 68.568 89.6734 68.558C89.94 68.291 89.9143 66.1148 89.351 64.1818C88.8839 62.5775 88.0011 61.326 87.9069 61.4097C86.5564 62.6214 84.7098 63.548 82.5778 63.8649Z" fill="#212121"/>
<path fill-rule="evenodd" clip-rule="evenodd" d="M84.4587 63.4087C83.2057 63.8371 85.5849 63.4784 86.2228 64.4669C87.0048 65.6785 86.3738 67.7869 86.9533 67.9543C88.394 68.3689 88.505 65.5231 88.2751 63.5701C88.1142 62.201 87.7464 61.5514 87.7204 61.5733C86.8179 62.3405 85.7115 62.9822 84.4587 63.4087Z" fill="#212121"/>
<path fill-rule="evenodd" clip-rule="evenodd" d="M48.1371 44.4748C46.3971 43.7543 46.7642 41.4019 46.8452 38.5685C46.9694 34.2086 49.8594 27.4901 60.436 28.6024L57.2976 61.5896C55.0169 62.5494 53.1574 62.7273 48.4649 63.2569C46.6678 62.0468 46.9316 58.2473 46.8452 54.2592C46.7627 50.462 46.2405 46.4931 48.1371 44.4748Z" fill="#212121"/>
<path fill-rule="evenodd" clip-rule="evenodd" d="M56.8454 68.9684C56.5191 71.023 65.1868 73.7114 69.1756 73.7213C73.6969 73.7313 77.7951 71.1585 79.3663 69.8114C81.926 64.4228 79.5334 60.7121 80.4254 60.5268C79.7776 54.7117 80.4254 48.0437 80.4254 48.0437C79.249 38.1771 84.8951 25.5924 77.1003 23.1731C76.8327 23.0515 72.8931 22.8204 72.9859 22.9459C73.9447 24.2472 70.4397 23.494 70.3078 23.5956C69.9841 23.8407 70.5936 22.5832 66.1664 23.0735C63.9045 23.3246 59.4367 25.969 57.8915 28.0755L56.5253 29.8511C60.7044 26.6785 63.2753 32.0771 61.7621 38.5917C60.3682 44.5921 57.9143 44.4944 57.4459 47.121C57.4459 47.121 57.6905 54.6599 57.2482 56.6607C57.3398 56.6587 56.8454 68.9684 56.8454 68.9684Z" fill="#212121"/>
<path fill-rule="evenodd" clip-rule="evenodd" d="M57.1307 61.4237C75.2252 48.9864 71.9172 26.5651 59.976 26.0808C59.976 26.0808 58.3625 27.4339 57.8913 28.0756C69.3369 28.9903 70.6168 49.1 57.2479 57.6613L57.1307 61.4237Z" fill="#212121"/>
<path fill-rule="evenodd" clip-rule="evenodd" d="M65.878 15.738L73.3208 20.9314V26.1187C71.004 26.5472 68.6005 25.1721 66.1626 23.5619L65.878 15.738Z" fill="#212121"/>
<path fill-rule="evenodd" clip-rule="evenodd" d="M72.0329 26.496C67.5034 26.5438 65.764 23.6602 66.1388 23.0683C67.6774 24.7822 73.6321 27.7096 73.208 22.9109C73.2062 22.9986 75.0381 26.4641 72.0329 26.496Z" fill="#212121"/>
<path fill-rule="evenodd" clip-rule="evenodd" d="M77.2705 10.3126C77.4574 9.26437 76.6504 8.80004 76.8618 8.65456C77.1251 8.47122 77.895 8.88174 79.0493 9.74264C79.0228 14.4617 78.7893 13.7144 78.7555 14.2763C78.6049 16.7853 78.1495 19.1907 78.2754 21.7016C78.279 21.7734 78.1987 22.0344 78.1508 22.0922C76.1225 24.4657 69.3495 23.1524 67.4521 18.7941C67.2016 18.2182 67.0361 17.5904 66.9776 16.9109C66.5924 16.6458 65.0308 15.8567 64.6701 15.0117C64.2906 14.1249 65.1527 13.1783 66.4744 12.7399C68.1429 12.1859 68.0966 14.1926 68.9092 15.4621C68.9882 15.5856 69.6162 15.5478 69.6162 15.5478L69.948 9.39191C70.7897 6.79924 73.243 7.13005 77.2705 10.3126Z" fill="#212121"/>
<path fill-rule="evenodd" clip-rule="evenodd" d="M77.2707 10.3131C77.4576 9.26484 76.6506 8.8005 76.862 8.65503C77.1253 8.47169 77.8952 8.8822 79.0495 9.74311C79.0467 10.2493 79.8706 11.0165 79.8706 11.0165C80.6855 8.64108 79.6227 7.48723 78.5918 6.31345C78.5782 5.73353 80.8215 5.74747 80.7862 5.40869C80.7482 5.044 78.9456 4.78295 78.1885 4.21698C78.1705 3.5733 79.7042 3.38 79.5695 3.17872C79.4459 2.99538 77.6856 2.86584 77.2707 2.7084C77.8603 2.0986 78.6251 1.81363 78.5918 1.59043C78.5613 1.38318 76.3154 1.15799 74.9342 1.60438C75.0584 1.2118 75.6306 0.578075 75.7642 0.249258C75.8425 0.0559529 74.4681 0.609945 72.5943 1.16993C73.3685 -0.549884 72.3914 0.0758773 70.1419 0.693656C70.1419 0.693656 69.5648 -0.504033 69.4203 0.249258C69.3395 0.669746 62.4379 1.92722 61.5909 6.31345C60.7163 10.8432 65.7713 19.1533 65.7713 19.1533C66.9536 19.3167 66.379 17.0608 66.9555 16.6363C66.1651 16.5447 63.8965 13.5953 66.4746 12.7403C68.1262 12.1923 68.117 14.2409 68.9296 15.5104C68.9719 15.5761 69.631 15.5482 69.631 15.5482L69.9482 9.39237C70.7899 6.7997 73.2432 7.13051 77.2707 10.3131Z" fill="#212121"/>
<path fill-rule="evenodd" clip-rule="evenodd" d="M53.2266 51.8881C53.2649 34.7498 55.4214 27.9539 59.5168 28.5363C60.723 28.7079 62.9741 30.2891 63.0425 31.9143C63.2536 36.8711 62.2088 36.95 60.2242 45.1662L53.2266 51.8881Z" fill="#212121"/>
<path fill-rule="evenodd" clip-rule="evenodd" d="M53.4508 56.5389C52.3725 48.0307 55.0694 49.8162 63.8552 40.1953C65.4306 41.0274 66.4926 42.0425 67.2041 43.1813C62.6645 51.3795 58.547 60.5505 53.4508 56.5389Z" fill="#212121"/>
<path fill-rule="evenodd" clip-rule="evenodd" d="M68.9162 33.601C67.6863 33.169 66.952 34.1158 66.4133 34.6852C66.3261 34.7771 65.5934 34.978 65.4092 35.6003C65.2609 36.1013 65.4964 36.9278 65.4695 37.0172C65.2331 37.7834 64.8208 38.7799 63.855 40.1952C65.4304 41.0273 66.4923 42.0424 67.2039 43.1812C69.1794 40.3741 71.0727 39.5249 71.587 37.7322C71.9668 36.4088 71.3743 34.4648 68.9162 33.601Z" fill="#212121"/>
<path fill-rule="evenodd" clip-rule="evenodd" d="M107.357 131.361C107.554 133.593 103.599 132.924 102.504 131.361C101.451 131.458 101.169 133.513 101.316 136.661C108.005 141.593 116.476 142.354 116.067 138.006C115.629 135.714 112.473 134.285 107.357 131.361Z" fill="#212121"/>
<path fill-rule="evenodd" clip-rule="evenodd" d="M116.068 138.006C111.582 141.424 106.541 138.135 101.28 135.325C101.28 135.325 101.295 136.19 101.316 136.661C108.005 141.593 116.477 142.354 116.068 138.006Z" fill="#212121"/>
<path fill-rule="evenodd" clip-rule="evenodd" d="M126.073 125.828C126.27 128.059 122.315 127.391 121.22 125.828C120.167 125.925 119.885 127.98 120.033 131.128C126.722 136.06 135.193 136.821 134.784 132.473C134.345 130.181 131.19 128.752 126.073 125.828Z" fill="#212121"/>
<path fill-rule="evenodd" clip-rule="evenodd" d="M134.784 132.473C130.299 135.891 125.257 132.602 119.997 129.792C119.997 129.792 120.011 130.657 120.033 131.128C126.722 136.06 135.193 136.821 134.784 132.473Z" fill="#212121"/>
<path fill-rule="evenodd" clip-rule="evenodd" d="M109.895 67.6175C109.895 67.6175 109.08 65.7402 109.367 66.1527C111.038 68.5621 112.966 70.6247 115.893 71.3301C120.415 71.3421 124.513 71.1587 126.084 69.8116C127.29 82.1632 127.926 113.797 127.892 126.87C124.978 128.971 122.421 128.817 120.012 129.074C117.586 107.438 117.029 85.3318 115.373 79.0862C113.54 94.9153 111.418 119.228 110.09 130.001C108.928 130.137 102.659 131.384 101.558 130.659L103.655 66.6191C103.857 66.6151 104.254 66.5952 104.254 66.5952C103.928 68.6498 104.529 70.1524 105.319 71.5414C105.443 71.5274 105.632 71.4537 105.863 71.3301C106.094 71.2086 106.149 70.7442 107.381 69.8116C108.696 68.8172 110.109 68.0081 109.895 67.6175Z" fill="#212121"/>
<path fill-rule="evenodd" clip-rule="evenodd" d="M109.895 67.6175C109.895 67.6175 109.08 65.7402 109.367 66.1527C111.039 68.5621 112.966 70.6247 115.893 71.3301C115.9 72.2269 116.024 77.3804 115.373 79.0862C113.54 94.9153 111.224 122.119 109.895 132.893C109.114 134.162 102.451 134.67 101.35 133.947L103.655 66.6191C103.857 66.6151 104.254 66.5952 104.254 66.5952C103.928 68.6498 106.149 70.7442 107.381 69.8116C108.696 68.8172 110.109 68.0081 109.895 67.6175Z" fill="#212121"/>
<path fill-rule="evenodd" clip-rule="evenodd" d="M119.704 45.0707L127.114 26.4058C129.58 31.4417 129.495 39.0064 130.872 47.3564C131.599 51.7586 133.085 56.2484 135.212 60.832C133.743 62.4222 131.473 63.6558 128.794 63.9268L124.458 54.9631L119.704 45.0707Z" fill="#212121"/>
<path fill-rule="evenodd" clip-rule="evenodd" d="M129.296 63.8649C129.13 63.8888 130.817 64.7696 131.325 65.7382C131.788 66.621 131.616 68.2033 131.655 69.5226C131.656 69.5843 131.699 69.7338 131.733 69.7457C134.742 70.8139 135.647 69.5405 136.234 68.9108C136.368 68.7653 136.381 68.568 136.392 68.558C136.658 68.291 136.633 66.1148 136.069 64.1818C135.602 62.5775 134.719 61.326 134.625 61.4097C133.275 62.6214 131.428 63.548 129.296 63.8649Z" fill="#212121"/>
<path fill-rule="evenodd" clip-rule="evenodd" d="M131.177 63.4087C129.924 63.8371 132.303 63.4784 132.941 64.4669C133.723 65.6785 133.092 67.7869 133.672 67.9543C135.112 68.3689 135.223 65.5231 134.993 63.5701C134.832 62.201 134.465 61.5514 134.439 61.5733C133.536 62.3405 132.43 62.9822 131.177 63.4087Z" fill="#212121"/>
<path fill-rule="evenodd" clip-rule="evenodd" d="M94.8549 44.4748C93.1149 43.7543 93.482 41.4019 93.563 38.5685C93.6872 34.2086 96.5772 27.4901 107.154 28.6024L104.015 61.5896C101.735 62.5494 99.8752 62.7273 95.1827 63.2569C93.3856 62.0468 93.6494 58.2473 93.563 54.2592C93.4804 50.462 92.9583 46.4931 94.8549 44.4748Z" fill="#212121"/>
<path fill-rule="evenodd" clip-rule="evenodd" d="M103.563 68.9684C103.237 71.023 111.905 73.7114 115.893 73.7213C120.415 73.7313 124.513 71.1585 126.084 69.8114C128.644 64.4228 126.251 60.7121 127.143 60.5268C126.495 54.7117 127.143 48.0437 127.143 48.0437C125.967 38.1771 131.613 25.5924 123.818 23.1731C123.55 23.0515 119.611 22.8204 119.704 22.9459C120.662 24.2472 117.158 23.494 117.026 23.5956C116.702 23.8407 117.311 22.5832 112.884 23.0735C110.622 23.3246 106.154 25.969 104.609 28.0755L103.243 29.8511C107.422 26.6785 109.993 32.0771 108.48 38.5917C107.086 44.5921 104.632 44.4944 104.164 47.121C104.164 47.121 104.408 54.6599 103.966 56.6607C104.058 56.6587 103.563 68.9684 103.563 68.9684Z" fill="#212121"/>
<path fill-rule="evenodd" clip-rule="evenodd" d="M103.849 61.4237C121.943 48.9864 118.635 26.5651 106.694 26.0808C106.694 26.0808 105.08 27.4339 104.609 28.0756C116.055 28.9903 117.335 49.1 103.966 57.6613L103.849 61.4237Z" fill="#212121"/>
<path fill-rule="evenodd" clip-rule="evenodd" d="M112.596 15.738L120.039 20.9314V26.1187C117.722 26.5472 115.319 25.1721 112.881 23.5619L112.596 15.738Z" fill="#212121"/>
<path fill-rule="evenodd" clip-rule="evenodd" d="M118.751 26.496C114.221 26.5438 112.482 23.6602 112.857 23.0683C114.395 24.7822 120.35 27.7096 119.926 22.9109C119.924 22.9986 121.756 26.4641 118.751 26.496Z" fill="#212121"/>
<path fill-rule="evenodd" clip-rule="evenodd" d="M123.988 10.3126C124.175 9.26437 123.368 8.80004 123.58 8.65456C123.843 8.47122 124.613 8.88174 125.767 9.74264C125.741 14.4617 125.507 13.7144 125.473 14.2763C125.323 16.7853 124.867 19.1907 124.993 21.7016C124.997 21.7734 124.916 22.0344 124.869 22.0922C122.84 24.4657 116.067 23.1524 114.17 18.7941C113.919 18.2182 113.754 17.5904 113.695 16.9109C113.31 16.6458 111.749 15.8567 111.388 15.0117C111.008 14.1249 111.87 13.1783 113.192 12.7399C114.861 12.1859 114.814 14.1926 115.627 15.4621C115.706 15.5856 116.334 15.5478 116.334 15.5478L116.666 9.39191C117.507 6.79924 119.961 7.13005 123.988 10.3126Z" fill="#212121"/>
<path fill-rule="evenodd" clip-rule="evenodd" d="M123.988 10.3131C124.175 9.26484 123.368 8.8005 123.58 8.65503C123.843 8.47169 124.613 8.8822 125.767 9.74311C125.764 10.2493 126.588 11.0165 126.588 11.0165C127.403 8.64108 126.34 7.48723 125.31 6.31345C125.296 5.73353 127.539 5.74747 127.504 5.40869C127.466 5.044 125.663 4.78295 124.906 4.21698C124.888 3.5733 126.422 3.38 126.287 3.17872C126.164 2.99538 124.403 2.86584 123.988 2.7084C124.578 2.0986 125.343 1.81363 125.31 1.59043C125.279 1.38318 123.033 1.15799 121.652 1.60438C121.776 1.2118 122.348 0.578075 122.482 0.249258C122.56 0.0559529 121.186 0.609945 119.312 1.16993C120.086 -0.549884 119.109 0.0758773 116.86 0.693656C116.86 0.693656 116.283 -0.504033 116.138 0.249258C116.057 0.669746 109.156 1.92722 108.309 6.31345C107.434 10.8432 112.489 19.1533 112.489 19.1533C113.671 19.3167 113.097 17.0608 113.673 16.6363C112.883 16.5447 110.614 13.5953 113.192 12.7403C114.844 12.1923 114.835 14.2409 115.647 15.5104C115.69 15.5761 116.349 15.5482 116.349 15.5482L116.666 9.39237C117.508 6.7997 119.961 7.13051 123.988 10.3131Z" fill="#212121"/>
<path fill-rule="evenodd" clip-rule="evenodd" d="M99.9443 51.8881C99.9826 34.7498 102.139 27.9539 106.235 28.5363C107.441 28.7079 109.692 30.2891 109.76 31.9143C109.971 36.8711 108.927 36.95 106.942 45.1662L99.9443 51.8881Z" fill="#212121"/>
<path fill-rule="evenodd" clip-rule="evenodd" d="M100.169 56.5389C99.0903 48.0307 101.787 49.8162 110.573 40.1953C112.148 41.0274 113.21 42.0425 113.922 43.1813C109.382 51.3795 105.265 60.5505 100.169 56.5389Z" fill="#212121"/>
<path fill-rule="evenodd" clip-rule="evenodd" d="M115.634 33.601C114.405 33.169 113.67 34.1158 113.132 34.6852C113.044 34.7771 112.312 34.978 112.127 35.6003C111.979 36.1013 112.215 36.9278 112.188 37.0172C111.951 37.7834 111.539 38.7799 110.573 40.1952C112.149 41.0273 113.211 42.0424 113.922 43.1812C115.898 40.3741 117.791 39.5249 118.305 37.7322C118.685 36.4088 118.093 34.4648 115.634 33.601Z" fill="#212121"/>
<path fill-rule="evenodd" clip-rule="evenodd" d="M154.075 131.361C154.271 133.593 150.317 132.924 149.221 131.361C148.168 131.458 147.886 133.513 148.034 136.661C154.723 141.593 163.194 142.354 162.785 138.006C162.346 135.714 159.191 134.285 154.075 131.361Z" fill="#212121"/>
<path fill-rule="evenodd" clip-rule="evenodd" d="M162.785 138.006C158.3 141.424 153.259 138.135 147.998 135.325C147.998 135.325 148.012 136.19 148.034 136.661C154.723 141.593 163.194 142.354 162.785 138.006Z" fill="#212121"/>
<path fill-rule="evenodd" clip-rule="evenodd" d="M172.792 125.828C172.988 128.059 169.034 127.391 167.938 125.828C166.885 125.925 166.603 127.98 166.751 131.128C173.44 136.06 181.911 136.821 181.502 132.473C181.063 130.181 177.908 128.752 172.792 125.828Z" fill="#212121"/>
<path fill-rule="evenodd" clip-rule="evenodd" d="M181.502 132.473C177.017 135.891 171.975 132.602 166.715 129.792C166.715 129.792 166.729 130.657 166.751 131.128C173.44 136.06 181.911 136.821 181.502 132.473Z" fill="#212121"/>
<path fill-rule="evenodd" clip-rule="evenodd" d="M156.613 67.6175C156.613 67.6175 155.798 65.7402 156.085 66.1527C157.757 68.5621 159.684 70.6247 162.612 71.3301C167.133 71.3421 171.231 71.1587 172.802 69.8116C174.008 82.1632 174.644 113.797 174.611 126.87C171.696 128.971 169.139 128.817 166.73 129.074C164.304 107.438 163.747 85.3318 162.091 79.0862C160.259 94.9153 158.137 119.228 156.808 130.001C155.647 130.137 149.377 131.384 148.277 130.659L150.373 66.6191C150.575 66.6151 150.972 66.5952 150.972 66.5952C150.646 68.6498 151.247 70.1524 152.038 71.5414C152.162 71.5274 152.35 71.4537 152.581 71.3301C152.813 71.2086 152.867 70.7442 154.099 69.8116C155.414 68.8172 156.827 68.0081 156.613 67.6175Z" fill="#212121"/>
<path fill-rule="evenodd" clip-rule="evenodd" d="M156.613 67.6175C156.613 67.6175 155.799 65.7402 156.085 66.1527C157.757 68.5621 159.684 70.6247 162.612 71.3301C162.618 72.2269 162.742 77.3804 162.091 79.0862C160.259 94.9153 157.942 122.119 156.613 132.893C155.832 134.162 149.169 134.67 148.069 133.947L150.373 66.6191C150.575 66.6151 150.972 66.5952 150.972 66.5952C150.646 68.6498 152.868 70.7442 154.1 69.8116C155.415 68.8172 156.827 68.0081 156.613 67.6175Z" fill="#212121"/>
<path fill-rule="evenodd" clip-rule="evenodd" d="M166.422 45.0707L173.832 26.4058C176.298 31.4417 176.213 39.0064 177.591 47.3564C178.317 51.7586 179.803 56.2484 181.931 60.832C180.462 62.4222 178.191 63.6558 175.512 63.9268L171.177 54.9631L166.422 45.0707Z" fill="#212121"/>
<path fill-rule="evenodd" clip-rule="evenodd" d="M176.014 63.8649C175.848 63.8888 177.535 64.7696 178.043 65.7382C178.506 66.621 178.334 68.2033 178.372 69.5226C178.374 69.5843 178.417 69.7338 178.451 69.7457C181.46 70.8139 182.365 69.5405 182.952 68.9108C183.086 68.7653 183.099 68.568 183.109 68.558C183.376 68.291 183.35 66.1148 182.787 64.1818C182.32 62.5775 181.437 61.326 181.343 61.4097C179.992 62.6214 178.146 63.548 176.014 63.8649Z" fill="#212121"/>
<path fill-rule="evenodd" clip-rule="evenodd" d="M177.895 63.4087C176.642 63.8371 179.021 63.4784 179.659 64.4669C180.441 65.6785 179.81 67.7869 180.389 67.9543C181.83 68.3689 181.941 65.5231 181.711 63.5701C181.55 62.201 181.182 61.5514 181.156 61.5733C180.254 62.3405 179.147 62.9822 177.895 63.4087Z" fill="#212121"/>
<path fill-rule="evenodd" clip-rule="evenodd" d="M141.573 44.4748C139.833 43.7543 140.2 41.4019 140.281 38.5685C140.405 34.2086 143.295 27.4901 153.872 28.6024L150.734 61.5896C148.453 62.5494 146.593 62.7273 141.901 63.2569C140.104 62.0468 140.368 58.2473 140.281 54.2592C140.199 50.462 139.677 46.4931 141.573 44.4748Z" fill="#212121"/>
<path fill-rule="evenodd" clip-rule="evenodd" d="M150.281 68.9684C149.955 71.023 158.623 73.7114 162.612 73.7213C167.133 73.7313 171.231 71.1585 172.802 69.8114C175.362 64.4228 172.969 60.7121 173.861 60.5268C173.214 54.7117 173.861 48.0437 173.861 48.0437C172.685 38.1771 178.331 25.5924 170.536 23.1731C170.269 23.0515 166.329 22.8204 166.422 22.9459C167.381 24.2472 163.876 23.494 163.744 23.5956C163.42 23.8407 164.03 22.5832 159.602 23.0735C157.341 23.3246 152.873 25.969 151.328 28.0755L149.961 29.8511C154.14 26.6785 156.711 32.0771 155.198 38.5917C153.804 44.5921 151.35 44.4944 150.882 47.121C150.882 47.121 151.126 54.6599 150.684 56.6607C150.776 56.6587 150.281 68.9684 150.281 68.9684Z" fill="#212121"/>
<path fill-rule="evenodd" clip-rule="evenodd" d="M150.567 61.4237C168.661 48.9864 165.353 26.5651 153.412 26.0808C153.412 26.0808 151.799 27.4339 151.327 28.0756C162.773 28.9903 164.053 49.1 150.684 57.6613L150.567 61.4237Z" fill="#212121"/>
<path fill-rule="evenodd" clip-rule="evenodd" d="M159.314 15.738L166.757 20.9314V26.1187C164.44 26.5472 162.037 25.1721 159.599 23.5619L159.314 15.738Z" fill="#212121"/>
<path fill-rule="evenodd" clip-rule="evenodd" d="M165.469 26.496C160.939 26.5438 159.2 23.6602 159.575 23.0683C161.113 24.7822 167.068 27.7096 166.644 22.9109C166.642 22.9986 168.474 26.4641 165.469 26.496Z" fill="#212121"/>
<path fill-rule="evenodd" clip-rule="evenodd" d="M170.707 10.3126C170.893 9.26437 170.086 8.80004 170.298 8.65456C170.561 8.47122 171.331 8.88174 172.485 9.74264C172.459 14.4617 172.225 13.7144 172.192 14.2763C172.041 16.7853 171.586 19.1907 171.711 21.7016C171.715 21.7734 171.635 22.0344 171.587 22.0922C169.559 24.4657 162.786 23.1524 160.888 18.7941C160.638 18.2182 160.472 17.5904 160.414 16.9109C160.028 16.6458 158.467 15.8567 158.106 15.0117C157.727 14.1249 158.589 13.1783 159.91 12.7399C161.579 12.1859 161.533 14.1926 162.345 15.4621C162.424 15.5856 163.052 15.5478 163.052 15.5478L163.384 9.39191C164.226 6.79924 166.679 7.13005 170.707 10.3126Z" fill="#212121"/>
<path fill-rule="evenodd" clip-rule="evenodd" d="M170.707 10.3131C170.894 9.26484 170.087 8.8005 170.298 8.65503C170.561 8.47169 171.331 8.8822 172.486 9.74311C172.483 10.2493 173.307 11.0165 173.307 11.0165C174.122 8.64108 173.059 7.48723 172.028 6.31345C172.014 5.73353 174.258 5.74747 174.222 5.40869C174.184 5.044 172.382 4.78295 171.624 4.21698C171.607 3.5733 173.14 3.38 173.005 3.17872C172.882 2.99538 171.122 2.86584 170.707 2.7084C171.296 2.0986 172.061 1.81363 172.028 1.59043C171.997 1.38318 169.751 1.15799 168.37 1.60438C168.494 1.2118 169.067 0.578075 169.2 0.249258C169.279 0.0559529 167.904 0.609945 166.03 1.16993C166.805 -0.549884 165.827 0.0758773 163.578 0.693656C163.578 0.693656 163.001 -0.504033 162.856 0.249258C162.776 0.669746 155.874 1.92722 155.027 6.31345C154.152 10.8432 159.207 19.1533 159.207 19.1533C160.39 19.3167 159.815 17.0608 160.392 16.6363C159.601 16.5447 157.333 13.5953 159.911 12.7403C161.562 12.1923 161.553 14.2409 162.366 15.5104C162.408 15.5761 163.067 15.5482 163.067 15.5482L163.384 9.39237C164.226 6.7997 166.679 7.13051 170.707 10.3131Z" fill="#212121"/>
<path fill-rule="evenodd" clip-rule="evenodd" d="M146.663 51.8881C146.701 34.7498 148.857 27.9539 152.953 28.5363C154.159 28.7079 156.41 30.2891 156.479 31.9143C156.69 36.8711 155.645 36.95 153.66 45.1662L146.663 51.8881Z" fill="#212121"/>
<path fill-rule="evenodd" clip-rule="evenodd" d="M146.887 56.5389C145.809 48.0307 148.505 49.8162 157.291 40.1953C158.867 41.0274 159.929 42.0425 160.64 43.1813C156.101 51.3795 151.983 60.5505 146.887 56.5389Z" fill="#212121"/>
<path fill-rule="evenodd" clip-rule="evenodd" d="M162.352 33.601C161.122 33.169 160.388 34.1158 159.849 34.6852C159.762 34.7771 159.029 34.978 158.845 35.6003C158.697 36.1013 158.932 36.9278 158.906 37.0172C158.669 37.7834 158.257 38.7799 157.291 40.1952C158.866 41.0273 159.928 42.0424 160.64 43.1812C162.615 40.3741 164.509 39.5249 165.023 37.7322C165.403 36.4088 164.81 34.4648 162.352 33.601Z" fill="#212121"/>
<path fill-rule="evenodd" clip-rule="evenodd" d="M200.794 131.361C200.99 133.593 197.036 132.924 195.94 131.361C194.887 131.458 194.605 133.513 194.753 136.661C201.442 141.593 209.913 142.354 209.504 138.006C209.065 135.714 205.91 134.285 200.794 131.361Z" fill="#212121"/>
<path fill-rule="evenodd" clip-rule="evenodd" d="M209.504 138.006C205.019 141.424 199.977 138.135 194.717 135.325C194.717 135.325 194.731 136.19 194.753 136.661C201.442 141.593 209.913 142.354 209.504 138.006Z" fill="#212121"/>
<path fill-rule="evenodd" clip-rule="evenodd" d="M219.51 125.828C219.706 128.059 215.752 127.391 214.657 125.828C213.603 125.925 213.321 127.98 213.469 131.128C220.158 136.06 228.629 136.821 228.22 132.473C227.782 130.181 224.626 128.752 219.51 125.828Z" fill="#212121"/>
<path fill-rule="evenodd" clip-rule="evenodd" d="M228.22 132.473C223.735 135.891 218.694 132.602 213.433 129.792C213.433 129.792 213.447 130.657 213.469 131.128C220.158 136.06 228.629 136.821 228.22 132.473Z" fill="#212121"/>
<path fill-rule="evenodd" clip-rule="evenodd" d="M203.332 67.6175C203.332 67.6175 202.517 65.7402 202.803 66.1527C204.475 68.5621 206.402 70.6247 209.33 71.3301C213.851 71.3421 217.949 71.1587 219.52 69.8116C220.726 82.1632 221.363 113.797 221.329 126.87C218.414 128.971 215.857 128.817 213.449 129.074C211.022 107.438 210.466 85.3318 208.809 79.0862C206.977 94.9153 204.855 119.228 203.526 130.001C202.365 130.137 196.095 131.384 194.995 130.659L197.091 66.6191C197.293 66.6151 197.69 66.5952 197.69 66.5952C197.364 68.6498 197.965 70.1524 198.756 71.5414C198.88 71.5274 199.068 71.4537 199.3 71.3301C199.531 71.2086 199.586 70.7442 200.818 69.8116C202.133 68.8172 203.545 68.0081 203.332 67.6175Z" fill="#212121"/>
<path fill-rule="evenodd" clip-rule="evenodd" d="M203.332 67.6175C203.332 67.6175 202.517 65.7402 202.804 66.1527C204.475 68.5621 206.403 70.6247 209.33 71.3301C209.336 72.2269 209.46 77.3804 208.809 79.0862C206.977 94.9153 204.661 122.119 203.332 132.893C202.551 134.162 195.887 134.67 194.787 133.947L197.091 66.6191C197.293 66.6151 197.691 66.5952 197.691 66.5952C197.365 68.6498 199.586 70.7442 200.818 69.8116C202.133 68.8172 203.545 68.0081 203.332 67.6175Z" fill="#212121"/>
<path fill-rule="evenodd" clip-rule="evenodd" d="M213.14 45.0707L220.55 26.4058C223.016 31.4417 222.932 39.0064 224.309 47.3564C225.035 51.7586 226.522 56.2484 228.649 60.832C227.18 62.4222 224.909 63.6558 222.23 63.9268L217.895 54.9631L213.14 45.0707Z" fill="#212121"/>
<path fill-rule="evenodd" clip-rule="evenodd" d="M222.733 63.8649C222.567 63.8888 224.253 64.7696 224.762 65.7382C225.224 66.621 225.053 68.2033 225.091 69.5226C225.093 69.5843 225.136 69.7338 225.17 69.7457C228.178 70.8139 229.084 69.5405 229.67 68.9108C229.805 68.7653 229.818 68.568 229.828 68.558C230.095 68.291 230.069 66.1148 229.506 64.1818C229.039 62.5775 228.156 61.326 228.062 61.4097C226.711 62.6214 224.865 63.548 222.733 63.8649Z" fill="#212121"/>
<path fill-rule="evenodd" clip-rule="evenodd" d="M224.613 63.4087C223.36 63.8371 225.74 63.4784 226.378 64.4669C227.16 65.6785 226.529 67.7869 227.108 67.9543C228.549 68.3689 228.66 65.5231 228.43 63.5701C228.269 62.201 227.901 61.5514 227.875 61.5733C226.973 62.3405 225.866 62.9822 224.613 63.4087Z" fill="#212121"/>
<path fill-rule="evenodd" clip-rule="evenodd" d="M188.291 44.4748C186.551 43.7543 186.919 41.4019 186.999 38.5685C187.124 34.2086 190.014 27.4901 200.59 28.6024L197.452 61.5896C195.171 62.5494 193.312 62.7273 188.619 63.2569C186.822 62.0468 187.086 58.2473 186.999 54.2592C186.917 50.462 186.395 46.4931 188.291 44.4748Z" fill="#212121"/>
<path fill-rule="evenodd" clip-rule="evenodd" d="M197 68.9684C196.673 71.023 205.341 73.7114 209.33 73.7213C213.851 73.7313 217.949 71.1585 219.521 69.8114C222.08 64.4228 219.688 60.7121 220.58 60.5268C219.932 54.7117 220.58 48.0437 220.58 48.0437C219.403 38.1771 225.049 25.5924 217.255 23.1731C216.987 23.0515 213.047 22.8204 213.14 22.9459C214.099 24.2472 210.594 23.494 210.462 23.5956C210.138 23.8407 210.748 22.5832 206.321 23.0735C204.059 23.3246 199.591 25.969 198.046 28.0755L196.68 29.8511C200.859 26.6785 203.43 32.0771 201.916 38.5917C200.522 44.5921 198.069 44.4944 197.6 47.121C197.6 47.121 197.845 54.6599 197.402 56.6607C197.494 56.6587 197 68.9684 197 68.9684Z" fill="#212121"/>
<path fill-rule="evenodd" clip-rule="evenodd" d="M197.285 61.4237C215.379 48.9864 212.071 26.5651 200.13 26.0808C200.13 26.0808 198.517 27.4339 198.046 28.0756C209.491 28.9903 210.771 49.1 197.402 57.6613L197.285 61.4237Z" fill="#212121"/>
<path fill-rule="evenodd" clip-rule="evenodd" d="M206.033 15.738L213.476 20.9314V26.1187C211.159 26.5472 208.755 25.1721 206.317 23.5619L206.033 15.738Z" fill="#212121"/>
<path fill-rule="evenodd" clip-rule="evenodd" d="M212.187 26.496C207.658 26.5438 205.918 23.6602 206.293 23.0683C207.832 24.7822 213.786 27.7096 213.362 22.9109C213.361 22.9986 215.192 26.4641 212.187 26.496Z" fill="#212121"/>
<path fill-rule="evenodd" clip-rule="evenodd" d="M217.425 10.3126C217.612 9.26437 216.805 8.80004 217.016 8.65456C217.279 8.47122 218.049 8.88174 219.204 9.74264C219.177 14.4617 218.944 13.7144 218.91 14.2763C218.759 16.7853 218.304 19.1907 218.43 21.7016C218.433 21.7734 218.353 22.0344 218.305 22.0922C216.277 24.4657 209.504 23.1524 207.606 18.7941C207.356 18.2182 207.19 17.5904 207.132 16.9109C206.747 16.6458 205.185 15.8567 204.824 15.0117C204.445 14.1249 205.307 13.1783 206.629 12.7399C208.297 12.1859 208.251 14.1926 209.063 15.4621C209.143 15.5856 209.77 15.5478 209.77 15.5478L210.102 9.39191C210.944 6.79924 213.397 7.13005 217.425 10.3126Z" fill="#212121"/>
<path fill-rule="evenodd" clip-rule="evenodd" d="M217.425 10.3131C217.612 9.26484 216.805 8.8005 217.016 8.65503C217.28 8.47169 218.049 8.8822 219.204 9.74311C219.201 10.2493 220.025 11.0165 220.025 11.0165C220.84 8.64108 219.777 7.48723 218.746 6.31345C218.733 5.73353 220.976 5.74747 220.941 5.40869C220.902 5.044 219.1 4.78295 218.343 4.21698C218.325 3.5733 219.858 3.38 219.724 3.17872C219.6 2.99538 217.84 2.86584 217.425 2.7084C218.015 2.0986 218.779 1.81363 218.746 1.59043C218.716 1.38318 216.47 1.15799 215.089 1.60438C215.213 1.2118 215.785 0.578075 215.918 0.249258C215.997 0.0559529 214.622 0.609945 212.749 1.16993C213.523 -0.549884 212.546 0.0758773 210.296 0.693656C210.296 0.693656 209.719 -0.504033 209.575 0.249258C209.494 0.669746 202.592 1.92722 201.745 6.31345C200.871 10.8432 205.926 19.1533 205.926 19.1533C207.108 19.3167 206.533 17.0608 207.11 16.6363C206.319 16.5447 204.051 13.5953 206.629 12.7403C208.28 12.1923 208.271 14.2409 209.084 15.5104C209.126 15.5761 209.785 15.5482 209.785 15.5482L210.102 9.39237C210.944 6.7997 213.397 7.13051 217.425 10.3131Z" fill="#212121"/>
<path fill-rule="evenodd" clip-rule="evenodd" d="M193.381 51.8881C193.419 34.7498 195.576 27.9539 199.671 28.5363C200.877 28.7079 203.128 30.2891 203.197 31.9143C203.408 36.8711 202.363 36.95 200.379 45.1662L193.381 51.8881Z" fill="#212121"/>
<path fill-rule="evenodd" clip-rule="evenodd" d="M193.605 56.5389C192.527 48.0307 195.224 49.8162 204.01 40.1953C205.585 41.0274 206.647 42.0425 207.358 43.1813C202.819 51.3795 198.701 60.5505 193.605 56.5389Z" fill="#212121"/>
<path fill-rule="evenodd" clip-rule="evenodd" d="M209.071 33.601C207.841 33.169 207.107 34.1158 206.568 34.6852C206.481 34.7771 205.748 34.978 205.564 35.6003C205.416 36.1013 205.651 36.9278 205.624 37.0172C205.388 37.7834 204.976 38.7799 204.01 40.1952C205.585 41.0273 206.647 42.0424 207.359 43.1812C209.334 40.3741 211.228 39.5249 211.742 37.7322C212.122 36.4088 211.529 34.4648 209.071 33.601Z" fill="#212121"/>
<path d="M11.4344 173.382C11.7765 173.382 12.0791 173.329 12.3553 173.211C12.6184 173.106 12.8552 172.949 13.0394 172.739C13.2236 172.529 13.3683 172.279 13.4604 171.99C13.5656 171.701 13.6182 171.373 13.6182 171.006V165.321H15.3811V171.006C15.3811 171.57 15.289 172.095 15.1048 172.568C14.9206 173.054 14.6707 173.461 14.3286 173.815C13.9866 174.157 13.5656 174.432 13.0789 174.629C12.5921 174.826 12.0396 174.918 11.4344 174.918C10.8293 174.918 10.2768 174.826 9.79002 174.629C9.30327 174.432 8.89545 174.157 8.55341 173.815C8.21137 173.461 7.94826 173.054 7.76408 172.568C7.57991 172.095 7.50098 171.57 7.50098 171.006V165.321H9.2638V170.992C9.2638 171.36 9.31642 171.688 9.40851 171.977C9.51376 172.279 9.65847 172.529 9.84264 172.739C10.0268 172.949 10.2505 173.106 10.5136 173.211C10.7898 173.329 11.0924 173.382 11.4344 173.382Z" fill="#212121"/>
<path d="M22.2878 167.041C22.2352 167.146 22.1826 167.211 22.1168 167.251C22.051 167.29 21.9721 167.303 21.8931 167.303C21.8011 167.303 21.6958 167.277 21.5906 167.211C21.4853 167.146 21.3538 167.067 21.2091 166.975C21.0512 166.896 20.8802 166.817 20.6829 166.752C20.4855 166.686 20.2487 166.647 19.9725 166.647C19.7225 166.647 19.512 166.686 19.3278 166.739C19.1437 166.804 18.999 166.883 18.8674 166.988C18.749 167.093 18.6569 167.224 18.5911 167.369C18.5254 167.513 18.4991 167.671 18.4991 167.841C18.4991 168.065 18.5648 168.262 18.6832 168.406C18.8148 168.55 18.9726 168.682 19.1831 168.787C19.3936 168.892 19.6304 168.984 19.8935 169.062C20.1566 169.154 20.4197 169.246 20.696 169.338C20.9723 169.43 21.2354 169.535 21.4985 169.666C21.7616 169.785 21.9984 169.942 22.2089 170.139C22.4062 170.323 22.5772 170.559 22.6956 170.835C22.8272 171.111 22.893 171.439 22.893 171.833C22.893 172.266 22.814 172.673 22.6693 173.041C22.5246 173.421 22.301 173.75 22.0247 174.025C21.7353 174.301 21.3932 174.524 20.9854 174.682C20.5776 174.839 20.1172 174.918 19.591 174.918C19.2884 174.918 18.9858 174.892 18.6964 174.826C18.3938 174.774 18.1175 174.682 17.8413 174.577C17.5782 174.472 17.3282 174.34 17.0914 174.183C16.8546 174.025 16.6441 173.855 16.46 173.671L16.973 172.817C17.0256 172.765 17.0783 172.712 17.144 172.673C17.2098 172.634 17.2888 172.607 17.3808 172.607C17.4861 172.607 17.6045 172.647 17.736 172.739C17.8544 172.831 18.0123 172.936 18.1833 173.041C18.3543 173.146 18.5517 173.251 18.7885 173.343C19.0253 173.435 19.3147 173.474 19.6436 173.474C20.1435 173.474 20.5381 173.356 20.8144 173.119C21.0907 172.883 21.2222 172.542 21.2222 172.082C21.2222 171.833 21.1564 171.636 21.038 171.478C20.9065 171.321 20.7486 171.189 20.5381 171.084C20.3277 170.979 20.104 170.887 19.8409 170.809C19.5778 170.73 19.3015 170.651 19.0384 170.559C18.7622 170.48 18.4859 170.375 18.2359 170.244C17.9597 170.126 17.736 169.968 17.5255 169.771C17.3151 169.575 17.1572 169.325 17.0256 169.036C16.9072 168.734 16.8415 168.367 16.8415 167.933C16.8415 167.592 16.9072 167.251 17.052 166.922C17.1835 166.594 17.394 166.305 17.6571 166.056C17.9202 165.806 18.2491 165.596 18.6306 165.439C19.0121 165.294 19.4594 165.216 19.9593 165.216C20.5118 165.216 21.038 165.307 21.5116 165.478C21.9852 165.649 22.3799 165.898 22.7219 166.213L22.2878 167.041Z" fill="#212121"/>
<path d="M30.2401 165.321V166.725H26.0303V169.351H29.3455V170.717H26.0303V173.395H30.2401V174.813H24.2412V165.321H30.2401Z" fill="#212121"/>
<path d="M40.3109 165.321V166.725H36.1011V169.535H39.6531V170.94H36.1011V174.813H34.312V165.321H40.3109Z" fill="#212121"/>
<path d="M43.6979 165.321H41.9219V174.813H43.6979V165.321Z" fill="#212121"/>
<path d="M46.7631 165.321C46.8421 165.321 46.9078 165.321 46.9605 165.334C47.0131 165.334 47.0526 165.347 47.092 165.373C47.1315 165.386 47.171 165.412 47.2236 165.452C47.263 165.491 47.3025 165.544 47.3551 165.596L52.341 171.951C52.3279 171.793 52.3147 171.649 52.3016 171.504C52.3016 171.36 52.3016 171.216 52.3016 171.084V165.321H53.8539V174.813H52.9462C52.8015 174.813 52.6831 174.787 52.591 174.747C52.4989 174.708 52.4068 174.629 52.3279 174.511L47.3551 168.183C47.3683 168.327 47.3683 168.472 47.3814 168.603C47.3814 168.747 47.3946 168.865 47.3946 168.984V174.813H45.8291V165.321H46.7631Z" fill="#212121"/>
<path d="M64.1417 174.813H62.7736C62.6157 174.813 62.4841 174.774 62.3921 174.695C62.2868 174.616 62.221 174.524 62.1816 174.406L61.4712 172.476H57.5246L56.8142 174.406C56.7747 174.511 56.7089 174.603 56.6037 174.682C56.4984 174.774 56.38 174.813 56.2353 174.813H54.854L58.5901 165.321H60.4056L64.1417 174.813ZM57.985 171.229H61.0107L59.8531 168.065C59.8004 167.933 59.7478 167.763 59.682 167.579C59.6163 167.382 59.5505 167.172 59.4979 166.949C59.4321 167.172 59.3663 167.382 59.3137 167.579C59.2479 167.776 59.1953 167.933 59.1427 168.078L57.985 171.229Z" fill="#212121"/>
<path d="M66.0488 165.321C66.1277 165.321 66.1935 165.321 66.2461 165.334C66.2987 165.334 66.3382 165.347 66.3777 165.373C66.4171 165.386 66.4566 165.412 66.5092 165.452C66.5487 165.491 66.5882 165.544 66.6408 165.596L71.6267 171.951C71.6135 171.793 71.6004 171.649 71.5872 171.504C71.5872 171.36 71.5872 171.216 71.5872 171.084V165.321H73.1396V174.813H72.2318C72.0871 174.813 71.9687 174.787 71.8766 174.747C71.7845 174.708 71.6925 174.629 71.6135 174.511L66.6408 168.183C66.6539 168.327 66.6539 168.472 66.6671 168.603C66.6671 168.747 66.6802 168.865 66.6802 168.984V174.813H65.1147V165.321H66.0488Z" fill="#212121"/>
<path d="M81.5991 172.568C81.6912 172.568 81.7832 172.607 81.849 172.686L82.5463 173.435C82.1648 173.92 81.6912 174.288 81.1255 174.537C80.5598 174.787 79.8889 174.918 79.0995 174.918C78.3891 174.918 77.7577 174.8 77.192 174.551C76.6263 174.314 76.1396 173.986 75.7449 173.553C75.3502 173.119 75.0345 172.607 74.824 172.017C74.6135 171.426 74.5083 170.769 74.5083 170.06C74.5083 169.351 74.6267 168.695 74.8635 168.104C75.1003 167.513 75.4292 167.001 75.8633 166.568C76.2974 166.148 76.8105 165.806 77.4025 165.57C78.0076 165.334 78.6654 165.216 79.389 165.216C80.0994 165.216 80.7177 165.334 81.2439 165.557C81.7701 165.78 82.2174 166.082 82.5989 166.45L82.0069 167.264C81.9674 167.316 81.928 167.369 81.8753 167.408C81.8227 167.448 81.7438 167.461 81.6517 167.461C81.5465 167.461 81.4412 167.421 81.336 167.343C81.2307 167.264 81.0992 167.185 80.9413 167.093C80.7703 167.001 80.5729 166.909 80.323 166.83C80.073 166.752 79.7573 166.712 79.3758 166.712C78.9285 166.712 78.5207 166.791 78.1392 166.949C77.7708 167.106 77.442 167.329 77.1789 167.618C76.9026 167.907 76.6921 168.262 76.5474 168.669C76.3895 169.089 76.3237 169.548 76.3237 170.06C76.3237 170.599 76.3895 171.071 76.5474 171.491C76.6921 171.912 76.9026 172.253 77.1657 172.542C77.4156 172.831 77.7182 173.041 78.0734 173.198C78.4286 173.343 78.797 173.421 79.2048 173.421C79.4416 173.421 79.6652 173.408 79.8626 173.382C80.0599 173.356 80.2309 173.316 80.4019 173.251C80.5598 173.198 80.7177 173.133 80.8624 173.041C81.0071 172.949 81.1649 172.831 81.3097 172.699C81.3491 172.66 81.3886 172.634 81.4412 172.607C81.4938 172.581 81.5465 172.568 81.5991 172.568Z" fill="#212121"/>
<path d="M85.881 165.321H84.105V174.813H85.881V165.321Z" fill="#212121"/>
<path d="M96.3785 174.813H95.0104C94.8525 174.813 94.721 174.774 94.6289 174.695C94.5236 174.616 94.4579 174.524 94.4184 174.406L93.708 172.476H89.7614L89.051 174.406C89.0115 174.511 88.9457 174.603 88.8405 174.682C88.7352 174.774 88.6168 174.813 88.4721 174.813H87.0908L90.827 165.321H92.6424L96.3785 174.813ZM90.2218 171.229H93.2476L92.0899 168.065C92.0373 167.933 91.9846 167.763 91.9189 167.579C91.8531 167.382 91.7873 167.172 91.7347 166.949C91.6689 167.172 91.6031 167.382 91.5505 167.579C91.4847 167.776 91.4321 167.933 91.3795 168.078L90.2218 171.229Z" fill="#212121"/>
<path d="M99.128 173.356H102.93V174.813H97.3521V165.321H99.128V173.356Z" fill="#212121"/>
<path d="M115.059 174.813H113.691C113.533 174.813 113.402 174.774 113.31 174.695C113.204 174.616 113.139 174.524 113.099 174.406L112.389 172.476H108.442L107.732 174.406C107.692 174.511 107.626 174.603 107.521 174.682C107.416 174.774 107.298 174.813 107.153 174.813H105.771L109.508 165.321H111.323L115.059 174.813ZM108.902 171.229H111.928L110.771 168.065C110.718 167.933 110.665 167.763 110.6 167.579C110.534 167.382 110.468 167.172 110.415 166.949C110.35 167.172 110.284 167.382 110.231 167.579C110.165 167.776 110.113 167.933 110.06 168.078L108.902 171.229Z" fill="#212121"/>
<path d="M118.033 165.321H116.257V174.813H118.033V165.321Z" fill="#212121"/>
<path d="M128.61 170.06C128.61 170.756 128.491 171.399 128.268 171.977C128.031 172.568 127.702 173.067 127.281 173.487C126.86 173.907 126.36 174.235 125.768 174.459C125.176 174.695 124.519 174.813 123.795 174.813H120.164V165.321H123.795C124.519 165.321 125.176 165.439 125.768 165.675C126.36 165.911 126.86 166.226 127.281 166.647C127.702 167.067 128.031 167.566 128.268 168.143C128.491 168.734 128.61 169.364 128.61 170.06ZM126.808 170.06C126.808 169.548 126.729 169.076 126.597 168.669C126.452 168.248 126.255 167.907 125.992 167.618C125.729 167.329 125.413 167.106 125.045 166.949C124.676 166.804 124.255 166.725 123.795 166.725H121.953V173.408H123.795C124.255 173.408 124.676 173.329 125.045 173.172C125.413 173.027 125.729 172.804 125.992 172.515C126.255 172.227 126.452 171.885 126.597 171.465C126.729 171.058 126.808 170.585 126.808 170.06Z" fill="#212121"/>
<path d="M138.535 165.321V166.725H134.325V169.535H137.877V170.94H134.325V174.813H132.536V165.321H138.535Z" fill="#212121"/>
<path d="M149.053 170.06C149.053 170.756 148.935 171.413 148.698 172.003C148.461 172.594 148.145 173.106 147.724 173.54C147.303 173.973 146.79 174.314 146.198 174.551C145.606 174.8 144.949 174.918 144.238 174.918C143.515 174.918 142.857 174.8 142.265 174.551C141.673 174.314 141.16 173.973 140.739 173.54C140.318 173.106 139.989 172.594 139.752 172.003C139.515 171.413 139.41 170.756 139.41 170.06C139.41 169.364 139.515 168.721 139.752 168.13C139.989 167.539 140.318 167.027 140.739 166.594C141.16 166.161 141.673 165.82 142.265 165.583C142.857 165.334 143.515 165.216 144.238 165.216C144.949 165.216 145.606 165.334 146.198 165.583C146.79 165.833 147.303 166.161 147.724 166.594C148.145 167.027 148.461 167.539 148.698 168.13C148.935 168.721 149.053 169.364 149.053 170.06ZM147.238 170.06C147.238 169.548 147.159 169.076 147.027 168.669C146.882 168.248 146.685 167.894 146.435 167.605C146.172 167.316 145.856 167.106 145.488 166.949C145.12 166.791 144.699 166.712 144.238 166.712C143.765 166.712 143.344 166.791 142.975 166.949C142.607 167.106 142.291 167.316 142.028 167.605C141.765 167.894 141.568 168.248 141.423 168.669C141.278 169.076 141.212 169.548 141.212 170.06C141.212 170.585 141.278 171.058 141.423 171.465C141.568 171.885 141.765 172.227 142.028 172.515C142.291 172.804 142.607 173.028 142.975 173.172C143.344 173.329 143.765 173.408 144.238 173.408C144.699 173.408 145.12 173.329 145.488 173.172C145.856 173.028 146.172 172.804 146.435 172.515C146.685 172.227 146.882 171.885 147.027 171.465C147.159 171.058 147.238 170.585 147.238 170.06Z" fill="#212121"/>
<path d="M152.269 171.097V174.813H150.506V165.321H153.401C154.045 165.321 154.611 165.386 155.071 165.517C155.532 165.649 155.913 165.846 156.203 166.082C156.505 166.318 156.716 166.607 156.86 166.949C156.992 167.277 157.071 167.644 157.071 168.051C157.071 168.367 157.018 168.669 156.926 168.957C156.834 169.246 156.689 169.496 156.518 169.732C156.334 169.968 156.124 170.165 155.861 170.336C155.597 170.52 155.295 170.651 154.966 170.756C155.19 170.887 155.387 171.071 155.545 171.308L157.926 174.813H156.334C156.176 174.813 156.045 174.787 155.94 174.721C155.834 174.656 155.742 174.577 155.676 174.459L153.677 171.413C153.598 171.308 153.519 171.229 153.427 171.176C153.335 171.124 153.203 171.097 153.032 171.097H152.269ZM152.269 169.837H153.374C153.703 169.837 153.993 169.798 154.242 169.706C154.492 169.627 154.703 169.509 154.861 169.364C155.019 169.22 155.137 169.049 155.216 168.839C155.295 168.642 155.334 168.419 155.334 168.183C155.334 167.697 155.177 167.329 154.861 167.067C154.545 166.817 154.058 166.686 153.401 166.686H152.269V169.837Z" fill="#212121"/>
<path d="M165.964 173.513C166.359 173.513 166.714 173.474 167.003 173.408C167.306 173.33 167.582 173.238 167.858 173.106V171.373H166.661C166.543 171.373 166.464 171.347 166.398 171.281C166.319 171.216 166.293 171.137 166.293 171.045V170.047H169.463V173.894C169.213 174.065 168.964 174.222 168.7 174.354C168.437 174.485 168.161 174.59 167.872 174.669C167.569 174.747 167.253 174.813 166.924 174.853C166.582 174.892 166.214 174.918 165.833 174.918C165.135 174.918 164.491 174.8 163.912 174.551C163.333 174.314 162.82 173.986 162.399 173.553C161.978 173.119 161.636 172.607 161.399 172.017C161.162 171.426 161.044 170.769 161.044 170.06C161.044 169.351 161.162 168.695 161.399 168.104C161.623 167.513 161.952 167.001 162.386 166.568C162.807 166.135 163.333 165.806 163.938 165.57C164.543 165.334 165.227 165.216 165.99 165.216C166.767 165.216 167.437 165.334 168.003 165.557C168.569 165.793 169.056 166.082 169.45 166.45L168.937 167.251C168.832 167.421 168.7 167.5 168.543 167.5C168.437 167.5 168.319 167.461 168.214 167.395C168.069 167.316 167.924 167.224 167.78 167.146C167.635 167.067 167.477 166.988 167.293 166.922C167.122 166.87 166.924 166.817 166.701 166.778C166.477 166.739 166.227 166.712 165.938 166.712C165.464 166.712 165.043 166.791 164.662 166.949C164.28 167.106 163.951 167.343 163.688 167.631C163.425 167.92 163.215 168.275 163.07 168.682C162.925 169.102 162.859 169.561 162.859 170.06C162.859 170.612 162.925 171.098 163.083 171.531C163.241 171.951 163.451 172.319 163.728 172.607C164.004 172.896 164.333 173.119 164.714 173.277C165.096 173.435 165.517 173.513 165.964 173.513Z" fill="#212121"/>
<path d="M179.475 174.813H178.107C177.949 174.813 177.818 174.774 177.726 174.695C177.62 174.616 177.555 174.524 177.515 174.406L176.805 172.476H172.858L172.148 174.406C172.108 174.511 172.042 174.603 171.937 174.682C171.832 174.774 171.714 174.813 171.569 174.813H170.188L173.924 165.321H175.739L179.475 174.813ZM173.318 171.229H176.344L175.187 168.065C175.134 167.933 175.081 167.763 175.016 167.579C174.95 167.382 174.884 167.172 174.831 166.949C174.766 167.172 174.7 167.382 174.647 167.579C174.581 167.776 174.529 167.933 174.476 168.078L173.318 171.229Z" fill="#212121"/>
<path d="M185.224 170.874C185.303 171.019 185.368 171.163 185.434 171.308C185.5 171.465 185.553 171.61 185.618 171.767C185.684 171.61 185.75 171.452 185.816 171.294C185.881 171.15 185.947 171.006 186.026 170.861L188.841 165.596C188.868 165.531 188.907 165.478 188.947 165.439C188.986 165.412 189.026 165.373 189.065 165.36C189.118 165.347 189.17 165.334 189.223 165.321C189.276 165.321 189.341 165.321 189.433 165.321H190.762V174.813H189.21V168.682C189.21 168.564 189.21 168.445 189.21 168.301C189.223 168.17 189.223 168.038 189.249 167.894L186.368 173.277C186.302 173.395 186.21 173.5 186.118 173.566C186.013 173.631 185.881 173.658 185.75 173.658H185.5C185.355 173.658 185.237 173.631 185.132 173.566C185.026 173.5 184.947 173.395 184.882 173.277L181.961 167.868C181.974 168.012 181.987 168.156 182.001 168.301C182.001 168.432 182.014 168.564 182.014 168.682V174.813H180.448V165.321H181.79C181.869 165.321 181.935 165.321 181.987 165.321C182.04 165.334 182.093 165.347 182.145 165.36C182.185 165.373 182.237 165.412 182.277 165.439C182.316 165.478 182.343 165.531 182.382 165.596L185.224 170.874Z" fill="#212121"/>
<path d="M192.683 174.813V165.321H195.972C196.59 165.321 197.116 165.373 197.564 165.491C197.998 165.609 198.366 165.78 198.643 166.003C198.932 166.226 199.142 166.489 199.274 166.791C199.406 167.106 199.471 167.461 199.471 167.841C199.471 168.065 199.432 168.288 199.366 168.485C199.3 168.695 199.195 168.879 199.063 169.062C198.919 169.233 198.748 169.391 198.537 169.535C198.327 169.679 198.064 169.811 197.774 169.903C199.077 170.205 199.734 170.901 199.734 172.017C199.734 172.424 199.655 172.791 199.511 173.133C199.353 173.487 199.129 173.776 198.84 174.025C198.537 174.275 198.182 174.459 197.748 174.603C197.314 174.747 196.827 174.813 196.275 174.813H192.683ZM194.459 170.651V173.434H196.248C196.577 173.434 196.853 173.395 197.077 173.316C197.301 173.238 197.472 173.133 197.603 173.001C197.735 172.87 197.84 172.712 197.893 172.542C197.958 172.371 197.985 172.174 197.985 171.977C197.985 171.78 197.958 171.596 197.893 171.426C197.827 171.268 197.722 171.124 197.577 171.006C197.432 170.887 197.261 170.809 197.038 170.743C196.814 170.677 196.551 170.651 196.248 170.651H194.459ZM194.459 169.43H195.867C196.472 169.43 196.919 169.325 197.235 169.102C197.551 168.879 197.708 168.537 197.708 168.051C197.708 167.566 197.564 167.211 197.288 167.001C196.998 166.791 196.564 166.686 195.972 166.686H194.459V169.43Z" fill="#212121"/>
<path d="M203.029 173.356H206.831V174.813H201.253V165.321H203.029V173.356Z" fill="#212121"/>
<path d="M210.054 165.321H208.278V174.813H210.054V165.321Z" fill="#212121"/>
<path d="M213.12 165.321C213.199 165.321 213.264 165.321 213.317 165.334C213.37 165.334 213.409 165.347 213.448 165.373C213.488 165.386 213.527 165.412 213.58 165.452C213.619 165.491 213.659 165.544 213.712 165.596L218.697 171.951C218.684 171.793 218.671 171.649 218.658 171.504C218.658 171.36 218.658 171.216 218.658 171.084V165.321H220.21V174.813H219.303C219.158 174.813 219.04 174.787 218.947 174.747C218.855 174.708 218.763 174.629 218.684 174.511L213.712 168.183C213.725 168.327 213.725 168.472 213.738 168.603C213.738 168.747 213.751 168.865 213.751 168.984V174.813H212.186V165.321H213.12Z" fill="#212121"/>
<path d="M226.499 173.513C226.893 173.513 227.249 173.474 227.538 173.408C227.841 173.33 228.117 173.238 228.393 173.106V171.373H227.196C227.078 171.373 226.999 171.347 226.933 171.281C226.854 171.216 226.828 171.137 226.828 171.045V170.047H229.998V173.894C229.748 174.065 229.498 174.222 229.235 174.354C228.972 174.485 228.696 174.59 228.406 174.669C228.104 174.747 227.788 174.813 227.459 174.853C227.117 174.892 226.749 174.918 226.367 174.918C225.67 174.918 225.025 174.8 224.446 174.551C223.868 174.314 223.355 173.986 222.934 173.553C222.513 173.119 222.171 172.607 221.934 172.017C221.697 171.426 221.579 170.769 221.579 170.06C221.579 169.351 221.697 168.695 221.934 168.104C222.157 167.513 222.486 167.001 222.92 166.568C223.341 166.135 223.868 165.806 224.473 165.57C225.078 165.334 225.762 165.216 226.525 165.216C227.301 165.216 227.972 165.334 228.538 165.557C229.104 165.793 229.59 166.082 229.985 166.45L229.472 167.251C229.367 167.421 229.235 167.5 229.077 167.5C228.972 167.5 228.854 167.461 228.748 167.395C228.604 167.316 228.459 167.224 228.314 167.146C228.169 167.067 228.012 166.988 227.827 166.922C227.656 166.87 227.459 166.817 227.235 166.778C227.012 166.739 226.762 166.712 226.472 166.712C225.999 166.712 225.578 166.791 225.196 166.949C224.815 167.106 224.486 167.343 224.223 167.631C223.96 167.92 223.749 168.275 223.605 168.682C223.46 169.102 223.394 169.561 223.394 170.06C223.394 170.612 223.46 171.098 223.618 171.531C223.776 171.951 223.986 172.319 224.262 172.607C224.539 172.896 224.867 173.119 225.249 173.277C225.63 173.435 226.051 173.513 226.499 173.513Z" fill="#212121"/>
<path d="M129.037 175.601H33.3516V176.651H129.037V175.601Z" fill="#212121"/>
<path d="M8.99908 160.903H13.1834V148.862C13.1834 148.404 13.212 147.889 13.2407 147.374L10.2601 149.863C10.1168 149.977 10.0022 150.063 9.85886 150.091C9.74422 150.12 9.60093 150.149 9.48629 150.149C9.28567 150.149 9.11372 150.12 8.97042 150.034C8.79846 149.948 8.68383 149.863 8.62651 149.748L7.50879 148.204L13.8139 142.855H16.7371V160.903H20.4628V163.563H8.99908V160.903Z" fill="#6A2A87"/>
<path d="M33.7313 142.884H29.8623V163.563H33.7313V142.884Z" fill="#6A2A87"/>
<path d="M40.4103 142.884C40.5823 142.884 40.7256 142.884 40.8402 142.912C40.9548 142.912 41.0408 142.941 41.1268 142.998C41.2128 143.027 41.2987 143.084 41.4134 143.17C41.4994 143.255 41.5853 143.37 41.7 143.484L52.5619 157.328C52.5332 156.985 52.5046 156.67 52.4759 156.355C52.4759 156.041 52.4759 155.726 52.4759 155.44V142.884H55.8577V163.563H53.8802C53.565 163.563 53.307 163.506 53.1064 163.42C52.9058 163.334 52.7052 163.163 52.5332 162.905L41.7 149.119C41.7286 149.434 41.7286 149.748 41.7573 150.034C41.7573 150.349 41.786 150.606 41.786 150.864V163.563H38.3755V142.884H40.4103Z" fill="#6A2A87"/>
<path d="M77.6672 144.371C77.6672 144.886 77.4952 145.286 77.18 145.601C76.8647 145.944 76.3202 146.087 75.575 146.087H69.8718L69.1267 150.406C70.0724 150.206 70.9322 150.12 71.706 150.12C72.7951 150.12 73.7408 150.292 74.572 150.606C75.4031 150.921 76.0909 151.379 76.6641 151.951C77.2086 152.523 77.6385 153.18 77.9251 153.953C78.2117 154.725 78.355 155.554 78.355 156.441C78.355 157.528 78.1544 158.529 77.7818 159.444C77.3806 160.36 76.8647 161.132 76.1769 161.761C75.4891 162.419 74.6579 162.905 73.7122 163.249C72.7664 163.62 71.7633 163.792 70.6456 163.792C69.9865 163.792 69.3846 163.735 68.8114 163.592C68.2096 163.449 67.665 163.277 67.1492 163.048C66.6333 162.82 66.1748 162.562 65.7449 162.276C65.315 161.99 64.9137 161.675 64.5698 161.361L65.6589 159.845C65.8882 159.53 66.2034 159.359 66.576 159.359C66.8053 159.359 67.0632 159.444 67.2925 159.587C67.5504 159.759 67.837 159.931 68.1523 160.102C68.4675 160.274 68.8687 160.446 69.2986 160.589C69.7285 160.76 70.2444 160.846 70.8462 160.817C71.5054 160.846 72.0786 160.732 72.5658 160.503C73.053 160.303 73.4829 160.016 73.7982 159.645C74.1421 159.273 74.3713 158.815 74.5433 158.3C74.7153 157.785 74.8012 157.213 74.8012 156.584C74.8012 155.469 74.486 154.582 73.8268 153.953C73.1676 153.323 72.1932 153.009 70.9322 153.009C69.9291 153.009 68.9261 153.18 67.923 153.552L65.7162 152.923L67.4358 142.884H77.6672V144.371Z" fill="#6A2A87"/>
<path d="M98.846 146.631C98.7314 146.859 98.6167 147.002 98.4735 147.088C98.3302 147.174 98.1582 147.203 97.9862 147.203C97.7856 147.203 97.5563 147.145 97.3271 147.002C97.0978 146.859 96.8112 146.688 96.496 146.488C96.152 146.316 95.7795 146.144 95.3496 146.001C94.9197 145.858 94.4038 145.772 93.802 145.772C93.2574 145.772 92.7989 145.858 92.3977 145.973C91.9964 146.116 91.6812 146.287 91.3946 146.516C91.1366 146.745 90.936 147.031 90.7927 147.346C90.6494 147.66 90.5921 148.003 90.5921 148.375C90.5921 148.862 90.7354 149.291 90.9933 149.605C91.2799 149.92 91.6238 150.206 92.0824 150.435C92.541 150.664 93.0568 150.864 93.63 151.035C94.2032 151.236 94.7764 151.436 95.3782 151.636C95.9801 151.836 96.5533 152.065 97.1265 152.351C97.6996 152.608 98.2155 152.952 98.6741 153.381C99.104 153.781 99.4765 154.296 99.7345 154.897C100.021 155.497 100.164 156.212 100.164 157.07C100.164 158.014 99.9924 158.901 99.6771 159.702C99.3619 160.531 98.8747 161.246 98.2728 161.847C97.6423 162.448 96.8972 162.934 96.0087 163.277C95.1203 163.62 94.1172 163.792 92.9708 163.792C92.3117 163.792 91.6525 163.735 91.022 163.592C90.3628 163.477 89.761 163.277 89.1591 163.048C88.586 162.82 88.0414 162.534 87.5256 162.19C87.0097 161.847 86.5511 161.475 86.1499 161.075L87.2676 159.216C87.3823 159.101 87.4969 158.987 87.6402 158.901C87.7835 158.815 87.9554 158.758 88.1561 158.758C88.3853 158.758 88.6433 158.844 88.9299 159.044C89.1878 159.244 89.5317 159.473 89.9043 159.702C90.2769 159.931 90.7067 160.16 91.2226 160.36C91.7385 160.56 92.369 160.646 93.0855 160.646C94.1745 160.646 95.0343 160.388 95.6362 159.874C96.238 159.359 96.5246 158.615 96.5246 157.614C96.5246 157.07 96.3813 156.641 96.1234 156.298C95.8368 155.955 95.4929 155.669 95.0343 155.44C94.5758 155.211 94.0886 155.011 93.5154 154.839C92.9422 154.668 92.3403 154.496 91.7671 154.296C91.1653 154.124 90.5635 153.896 90.0189 153.61C89.4171 153.352 88.9299 153.009 88.4713 152.58C88.0128 152.151 87.6689 151.607 87.3823 150.978C87.1243 150.32 86.981 149.519 86.981 148.576C86.981 147.832 87.1243 147.088 87.4396 146.373C87.7262 145.658 88.1847 145.029 88.7579 144.485C89.3311 143.942 90.0476 143.484 90.8787 143.141C91.7098 142.826 92.6842 142.655 93.7733 142.655C94.977 142.655 96.1234 142.855 97.1551 143.227C98.1869 143.599 99.0466 144.142 99.7918 144.829L98.846 146.631Z" fill="#6A2A87"/>
<path d="M117.718 142.884V146.03H111.47V163.563H107.63V146.03H101.354V142.884H117.718Z" fill="#6A2A87"/>
<path d="M128.495 160.446C129.24 160.446 129.899 160.331 130.501 160.074C131.074 159.845 131.59 159.502 131.991 159.044C132.393 158.586 132.708 158.043 132.908 157.414C133.138 156.784 133.252 156.069 133.252 155.268V142.884H137.093V155.268C137.093 156.498 136.892 157.642 136.491 158.672C136.09 159.73 135.545 160.617 134.8 161.389C134.055 162.133 133.138 162.734 132.077 163.163C131.017 163.592 129.813 163.792 128.495 163.792C127.177 163.792 125.973 163.592 124.913 163.163C123.852 162.734 122.964 162.133 122.219 161.389C121.473 160.617 120.9 159.73 120.499 158.672C120.098 157.642 119.926 156.498 119.926 155.268V142.884H123.766V155.24C123.766 156.041 123.881 156.756 124.081 157.385C124.311 158.043 124.626 158.586 125.027 159.044C125.428 159.502 125.916 159.845 126.489 160.074C127.091 160.331 127.75 160.446 128.495 160.446Z" fill="#6A2A87"/>
<path d="M159.417 153.209C159.417 154.725 159.159 156.127 158.672 157.385C158.156 158.672 157.44 159.759 156.523 160.674C155.606 161.59 154.517 162.305 153.227 162.791C151.937 163.306 150.504 163.563 148.928 163.563H141.018V142.884H148.928C150.504 142.884 151.937 143.141 153.227 143.656C154.517 144.171 155.606 144.857 156.523 145.772C157.44 146.688 158.156 147.775 158.672 149.033C159.159 150.32 159.417 151.693 159.417 153.209ZM155.491 153.209C155.491 152.094 155.319 151.064 155.033 150.177C154.717 149.262 154.287 148.518 153.714 147.889C153.141 147.26 152.453 146.773 151.651 146.43C150.848 146.116 149.931 145.944 148.928 145.944H144.916V160.503H148.928C149.931 160.503 150.848 160.331 151.651 159.988C152.453 159.673 153.141 159.187 153.714 158.558C154.287 157.928 154.717 157.185 155.033 156.27C155.319 155.383 155.491 154.353 155.491 153.209Z" fill="#6A2A87"/>
<path d="M175.511 142.884V145.944H166.34V151.665H173.562V154.639H166.34V160.474H175.511V163.563H162.442V142.884H175.511Z" fill="#6A2A87"/>
<path d="M180.883 142.884C181.055 142.884 181.199 142.884 181.313 142.912C181.428 142.912 181.514 142.941 181.6 142.998C181.686 143.027 181.772 143.084 181.887 143.17C181.973 143.255 182.058 143.37 182.173 143.484L193.035 157.328C193.006 156.985 192.978 156.67 192.949 156.355C192.949 156.041 192.949 155.726 192.949 155.44V142.884H196.331V163.563H194.353C194.038 163.563 193.78 163.506 193.58 163.42C193.379 163.334 193.178 163.163 193.006 162.905L182.173 149.119C182.202 149.434 182.202 149.748 182.23 150.034C182.23 150.349 182.259 150.606 182.259 150.864V163.563H178.849V142.884H180.883Z" fill="#6A2A87"/>
<path d="M215.132 142.884V146.03H208.884V163.563H205.044V146.03H198.768V142.884H215.132Z" fill="#6A2A87"/>
<path d="M228.687 146.631C228.573 146.859 228.458 147.002 228.315 147.088C228.171 147.174 228 147.203 227.828 147.203C227.627 147.203 227.398 147.145 227.168 147.002C226.939 146.859 226.653 146.688 226.337 146.488C225.993 146.316 225.621 146.144 225.191 146.001C224.761 145.858 224.245 145.772 223.643 145.772C223.099 145.772 222.64 145.858 222.239 145.973C221.838 146.116 221.522 146.287 221.236 146.516C220.978 146.745 220.777 147.031 220.634 147.346C220.491 147.66 220.433 148.003 220.433 148.375C220.433 148.862 220.577 149.291 220.835 149.605C221.121 149.92 221.465 150.206 221.924 150.435C222.382 150.664 222.898 150.864 223.471 151.035C224.045 151.236 224.618 151.436 225.22 151.636C225.821 151.836 226.395 152.065 226.968 152.351C227.541 152.608 228.057 152.952 228.515 153.381C228.945 153.781 229.318 154.296 229.576 154.897C229.862 155.497 230.006 156.212 230.006 157.07C230.006 158.014 229.834 158.901 229.518 159.702C229.203 160.531 228.716 161.246 228.114 161.847C227.484 162.448 226.738 162.934 225.85 163.277C224.962 163.62 223.959 163.792 222.812 163.792C222.153 163.792 221.494 163.735 220.863 163.592C220.204 163.477 219.602 163.277 219 163.048C218.427 162.82 217.883 162.534 217.367 162.19C216.851 161.847 216.392 161.475 215.991 161.075L217.109 159.216C217.224 159.101 217.338 158.987 217.482 158.901C217.625 158.815 217.797 158.758 217.997 158.758C218.227 158.758 218.485 158.844 218.771 159.044C219.029 159.244 219.373 159.473 219.746 159.702C220.118 159.931 220.548 160.16 221.064 160.36C221.58 160.56 222.21 160.646 222.927 160.646C224.016 160.646 224.876 160.388 225.477 159.874C226.079 159.359 226.366 158.615 226.366 157.614C226.366 157.07 226.223 156.641 225.965 156.298C225.678 155.955 225.334 155.669 224.876 155.44C224.417 155.211 223.93 155.011 223.357 154.839C222.783 154.668 222.182 154.496 221.608 154.296C221.007 154.124 220.405 153.896 219.86 153.61C219.258 153.352 218.771 153.009 218.313 152.58C217.854 152.151 217.51 151.607 217.224 150.978C216.966 150.32 216.822 149.519 216.822 148.576C216.822 147.832 216.966 147.088 217.281 146.373C217.567 145.658 218.026 145.029 218.599 144.485C219.172 143.942 219.889 143.484 220.72 143.141C221.551 142.826 222.526 142.655 223.615 142.655C224.818 142.655 225.965 142.855 226.996 143.227C228.028 143.599 228.888 144.142 229.633 144.829L228.687 146.631Z" fill="#6A2A87"/>
<path d="M33.7323 142.884H29.8633V163.563H33.7323V142.884Z" fill="#212121"/>
<path d="M40.4098 142.884C40.5818 142.884 40.7251 142.884 40.8397 142.912C40.9543 142.912 41.0403 142.941 41.1263 142.998C41.2123 143.027 41.2983 143.084 41.4129 143.17C41.4989 143.255 41.5849 143.37 41.6995 143.484L52.5614 157.328C52.5327 156.985 52.5041 156.67 52.4754 156.355C52.4754 156.041 52.4754 155.726 52.4754 155.44V142.884H55.8572V163.563H53.8797C53.5645 163.563 53.3066 163.506 53.1059 163.42C52.9053 163.334 52.7047 163.163 52.5327 162.905L41.6995 149.119C41.7282 149.434 41.7282 149.748 41.7568 150.034C41.7568 150.349 41.7855 150.606 41.7855 150.864V163.563H38.375V142.884H40.4098Z" fill="#212121"/>
<path d="M77.6672 144.371C77.6672 144.886 77.4952 145.286 77.18 145.601C76.8647 145.944 76.3202 146.087 75.575 146.087H69.8718L69.1267 150.406C70.0724 150.206 70.9322 150.12 71.706 150.12C72.7951 150.12 73.7408 150.292 74.572 150.606C75.4031 150.921 76.0909 151.379 76.6641 151.951C77.2086 152.523 77.6385 153.18 77.9251 153.953C78.2117 154.725 78.355 155.554 78.355 156.441C78.355 157.528 78.1544 158.529 77.7818 159.444C77.3806 160.36 76.8647 161.132 76.1769 161.761C75.4891 162.419 74.6579 162.905 73.7122 163.249C72.7664 163.62 71.7633 163.792 70.6456 163.792C69.9865 163.792 69.3846 163.735 68.8114 163.592C68.2096 163.449 67.665 163.277 67.1492 163.048C66.6333 162.82 66.1748 162.562 65.7449 162.276C65.315 161.99 64.9137 161.675 64.5698 161.361L65.6589 159.845C65.8882 159.53 66.2034 159.359 66.576 159.359C66.8053 159.359 67.0632 159.444 67.2925 159.587C67.5504 159.759 67.837 159.931 68.1523 160.102C68.4675 160.274 68.8687 160.446 69.2986 160.589C69.7285 160.76 70.2444 160.846 70.8462 160.817C71.5054 160.846 72.0786 160.732 72.5658 160.503C73.053 160.303 73.4829 160.016 73.7982 159.645C74.1421 159.273 74.3713 158.815 74.5433 158.3C74.7153 157.785 74.8012 157.213 74.8012 156.584C74.8012 155.469 74.486 154.582 73.8268 153.953C73.1676 153.323 72.1932 153.009 70.9322 153.009C69.9291 153.009 68.9261 153.18 67.923 153.552L65.7162 152.923L67.4358 142.884H77.6672V144.371Z" fill="#212121"/>
<path d="M98.8465 146.631C98.7319 146.859 98.6172 147.002 98.4739 147.088C98.3306 147.174 98.1587 147.203 97.9867 147.203C97.7861 147.203 97.5568 147.145 97.3276 147.002C97.0983 146.859 96.8117 146.688 96.4964 146.488C96.1525 146.316 95.78 146.144 95.3501 146.001C94.9202 145.858 94.4043 145.772 93.8025 145.772C93.2579 145.772 92.7994 145.858 92.3981 145.973C91.9969 146.116 91.6817 146.287 91.3951 146.516C91.1371 146.745 90.9365 147.031 90.7932 147.346C90.6499 147.66 90.5926 148.003 90.5926 148.375C90.5926 148.862 90.7359 149.291 90.9938 149.605C91.2804 149.92 91.6243 150.206 92.0829 150.435C92.5414 150.664 93.0573 150.864 93.6305 151.035C94.2037 151.236 94.7769 151.436 95.3787 151.636C95.9806 151.836 96.5538 152.065 97.1269 152.351C97.7001 152.608 98.216 152.952 98.6746 153.381C99.1044 153.781 99.477 154.296 99.735 154.897C100.022 155.497 100.165 156.212 100.165 157.07C100.165 158.014 99.9929 158.901 99.6776 159.702C99.3624 160.531 98.8752 161.246 98.2733 161.847C97.6428 162.448 96.8977 162.934 96.0092 163.277C95.1208 163.62 94.1177 163.792 92.9713 163.792C92.3122 163.792 91.653 163.735 91.0225 163.592C90.3633 163.477 89.7615 163.277 89.1596 163.048C88.5864 162.82 88.0419 162.534 87.526 162.19C87.0102 161.847 86.5516 161.475 86.1504 161.075L87.2681 159.216C87.3827 159.101 87.4974 158.987 87.6407 158.901C87.784 158.815 87.9559 158.758 88.1565 158.758C88.3858 158.758 88.6438 158.844 88.9304 159.044C89.1883 159.244 89.5322 159.473 89.9048 159.702C90.2773 159.931 90.7072 160.16 91.2231 160.36C91.739 160.56 92.3695 160.646 93.086 160.646C94.175 160.646 95.0348 160.388 95.6367 159.874C96.2385 159.359 96.5251 158.615 96.5251 157.614C96.5251 157.07 96.3818 156.641 96.1239 156.298C95.8373 155.955 95.4934 155.669 95.0348 155.44C94.5763 155.211 94.089 155.011 93.5159 154.839C92.9427 154.668 92.3408 154.496 91.7676 154.296C91.1658 154.124 90.5639 153.896 90.0194 153.61C89.4176 153.352 88.9304 153.009 88.4718 152.58C88.0133 152.151 87.6693 151.607 87.3827 150.978C87.1248 150.32 86.9815 149.519 86.9815 148.576C86.9815 147.832 87.1248 147.088 87.4401 146.373C87.7267 145.658 88.1852 145.029 88.7584 144.485C89.3316 143.942 90.0481 143.484 90.8792 143.141C91.7103 142.826 92.6847 142.655 93.7738 142.655C94.9775 142.655 96.1239 142.855 97.1556 143.227C98.1873 143.599 99.0471 144.142 99.7923 144.829L98.8465 146.631Z" fill="#212121"/>
<path d="M117.719 142.884V146.03H111.471V163.563H107.631V146.03H101.354V142.884H117.719Z" fill="#212121"/>
<path d="M128.494 160.446C129.24 160.446 129.899 160.331 130.501 160.074C131.074 159.845 131.59 159.502 131.991 159.044C132.392 158.586 132.707 158.043 132.908 157.414C133.137 156.784 133.252 156.069 133.252 155.268V142.884H137.092V155.268C137.092 156.498 136.892 157.642 136.49 158.672C136.089 159.73 135.545 160.617 134.8 161.389C134.054 162.133 133.137 162.734 132.077 163.163C131.016 163.592 129.813 163.792 128.494 163.792C127.176 163.792 125.972 163.592 124.912 163.163C123.852 162.734 122.963 162.133 122.218 161.389C121.473 160.617 120.9 159.73 120.498 158.672C120.097 157.642 119.925 156.498 119.925 155.268V142.884H123.766V155.24C123.766 156.041 123.88 156.756 124.081 157.385C124.31 158.043 124.625 158.586 125.027 159.044C125.428 159.502 125.915 159.845 126.488 160.074C127.09 160.331 127.749 160.446 128.494 160.446Z" fill="#212121"/>
<path d="M159.418 153.209C159.418 154.725 159.16 156.127 158.673 157.385C158.157 158.672 157.44 159.759 156.523 160.674C155.606 161.59 154.517 162.305 153.227 162.791C151.938 163.306 150.505 163.563 148.929 163.563H141.019V142.884H148.929C150.505 142.884 151.938 143.141 153.227 143.656C154.517 144.171 155.606 144.857 156.523 145.772C157.44 146.688 158.157 147.775 158.673 149.033C159.16 150.32 159.418 151.693 159.418 153.209ZM155.492 153.209C155.492 152.094 155.32 151.064 155.033 150.177C154.718 149.262 154.288 148.518 153.715 147.889C153.141 147.26 152.454 146.773 151.651 146.43C150.849 146.116 149.932 145.944 148.929 145.944H144.916V160.503H148.929C149.932 160.503 150.849 160.331 151.651 159.988C152.454 159.673 153.141 159.187 153.715 158.558C154.288 157.928 154.718 157.185 155.033 156.27C155.32 155.383 155.492 154.353 155.492 153.209Z" fill="#212121"/>
<path d="M175.51 142.884V145.944H166.339V151.665H173.561V154.639H166.339V160.474H175.51V163.563H162.441V142.884H175.51Z" fill="#212121"/>
<path d="M180.884 142.884C181.056 142.884 181.2 142.884 181.314 142.912C181.429 142.912 181.515 142.941 181.601 142.998C181.687 143.027 181.773 143.084 181.888 143.17C181.973 143.255 182.059 143.37 182.174 143.484L193.036 157.328C193.007 156.985 192.979 156.67 192.95 156.355C192.95 156.041 192.95 155.726 192.95 155.44V142.884H196.332V163.563H194.354C194.039 163.563 193.781 163.506 193.581 163.42C193.38 163.334 193.179 163.163 193.007 162.905L182.174 149.119C182.203 149.434 182.203 149.748 182.231 150.034C182.231 150.349 182.26 150.606 182.26 150.864V163.563H178.85V142.884H180.884Z" fill="#212121"/>
<path d="M215.132 142.884V146.03H208.884V163.563H205.044V146.03H198.767V142.884H215.132Z" fill="#212121"/>
<path d="M228.687 146.631C228.572 146.859 228.458 147.002 228.314 147.088C228.171 147.174 227.999 147.203 227.827 147.203C227.626 147.203 227.397 147.145 227.168 147.002C226.939 146.859 226.652 146.688 226.337 146.488C225.993 146.316 225.62 146.144 225.19 146.001C224.761 145.858 224.245 145.772 223.643 145.772C223.098 145.772 222.64 145.858 222.238 145.973C221.837 146.116 221.522 146.287 221.235 146.516C220.977 146.745 220.777 147.031 220.634 147.346C220.49 147.66 220.433 148.003 220.433 148.375C220.433 148.862 220.576 149.291 220.834 149.605C221.121 149.92 221.465 150.206 221.923 150.435C222.382 150.664 222.898 150.864 223.471 151.035C224.044 151.236 224.617 151.436 225.219 151.636C225.821 151.836 226.394 152.065 226.967 152.351C227.54 152.608 228.056 152.952 228.515 153.381C228.945 153.781 229.317 154.296 229.575 154.897C229.862 155.497 230.005 156.212 230.005 157.07C230.005 158.014 229.833 158.901 229.518 159.702C229.203 160.531 228.716 161.246 228.114 161.847C227.483 162.448 226.738 162.934 225.85 163.277C224.961 163.62 223.958 163.792 222.812 163.792C222.152 163.792 221.493 163.735 220.863 163.592C220.204 163.477 219.602 163.277 219 163.048C218.427 162.82 217.882 162.534 217.366 162.19C216.851 161.847 216.392 161.475 215.991 161.075L217.108 159.216C217.223 159.101 217.338 158.987 217.481 158.901C217.624 158.815 217.796 158.758 217.997 158.758C218.226 158.758 218.484 158.844 218.771 159.044C219.029 159.244 219.373 159.473 219.745 159.702C220.118 159.931 220.548 160.16 221.063 160.36C221.579 160.56 222.21 160.646 222.926 160.646C224.015 160.646 224.875 160.388 225.477 159.874C226.079 159.359 226.365 158.615 226.365 157.614C226.365 157.07 226.222 156.641 225.964 156.298C225.678 155.955 225.334 155.669 224.875 155.44C224.417 155.211 223.929 155.011 223.356 154.839C222.783 154.668 222.181 154.496 221.608 154.296C221.006 154.124 220.404 153.896 219.86 153.61C219.258 153.352 218.771 153.009 218.312 152.58C217.854 152.151 217.51 151.607 217.223 150.978C216.965 150.32 216.822 149.519 216.822 148.576C216.822 147.832 216.965 147.088 217.28 146.373C217.567 145.658 218.026 145.029 218.599 144.485C219.172 143.942 219.888 143.484 220.72 143.141C221.551 142.826 222.525 142.655 223.614 142.655C224.818 142.655 225.964 142.855 226.996 143.227C228.028 143.599 228.887 144.142 229.633 144.829L228.687 146.631Z" fill="#212121"/>
</g>
<defs>
<clipPath id="clip0_228_751">
<rect width="230" height="177" fill="white"/>
</clipPath>
</defs>
</svg>
