<svg width="226" height="194" viewBox="0 0 226 194" fill="none" xmlns="http://www.w3.org/2000/svg">
<path d="M52.2656 37.6079L51.5094 176.734" stroke="black" stroke-width="2"/>
<path d="M217.481 176.29L218.481 176.285L218.47 174.285L217.47 174.29L217.481 176.29ZM217.47 174.29L50.3694 175.041L50.3804 177.041L217.481 176.29L217.47 174.29Z" fill="black"/>
<path d="M72.5124 187.726C72.6591 187.726 72.7746 187.768 72.8589 187.852C72.9469 187.933 72.9909 188.041 72.9909 188.177V188.991H67.5349V188.54C67.5349 188.448 67.5533 188.353 67.5899 188.254C67.6303 188.151 67.6926 188.059 67.7769 187.979L70.1914 185.559C70.3931 185.353 70.5728 185.157 70.7304 184.97C70.8918 184.783 71.0256 184.598 71.1319 184.415C71.2383 184.231 71.3189 184.046 71.3739 183.859C71.4326 183.669 71.4619 183.469 71.4619 183.26C71.4619 183.069 71.4344 182.902 71.3794 182.759C71.3244 182.613 71.2456 182.49 71.1429 182.391C71.0439 182.292 70.9229 182.218 70.7799 182.171C70.6406 182.119 70.4829 182.094 70.3069 182.094C70.1456 182.094 69.9953 182.118 69.8559 182.165C69.7203 182.209 69.5993 182.273 69.4929 182.358C69.3866 182.438 69.2968 182.534 69.2234 182.644C69.1501 182.754 69.0951 182.875 69.0584 183.007C68.9961 183.175 68.9154 183.287 68.8164 183.342C68.7174 183.397 68.5744 183.41 68.3874 183.381L67.6724 183.254C67.7274 182.873 67.8338 182.539 67.9914 182.253C68.1491 181.964 68.3453 181.723 68.5799 181.533C68.8183 181.338 69.0896 181.194 69.3939 181.098C69.7019 180.999 70.0319 180.95 70.3839 180.95C70.7506 180.95 71.0861 181.005 71.3904 181.115C71.6948 181.221 71.9551 181.373 72.1714 181.571C72.3878 181.769 72.5564 182.008 72.6774 182.286C72.7984 182.565 72.8589 182.875 72.8589 183.216C72.8589 183.509 72.8149 183.78 72.7269 184.03C72.6426 184.279 72.5271 184.517 72.3804 184.745C72.2374 184.972 72.0688 185.192 71.8744 185.405C71.6801 185.617 71.4766 185.834 71.2639 186.054L69.4709 187.885C69.6433 187.834 69.8138 187.795 69.9824 187.77C70.1548 187.74 70.3179 187.726 70.4719 187.726H72.5124ZM79.6028 185.014C79.6028 185.707 79.5276 186.31 79.3773 186.824C79.2306 187.333 79.0253 187.755 78.7613 188.089C78.501 188.422 78.1911 188.672 77.8318 188.837C77.4761 188.998 77.0911 189.079 76.6768 189.079C76.2625 189.079 75.8775 188.998 75.5218 188.837C75.1698 188.672 74.8636 188.422 74.6033 188.089C74.343 187.755 74.1395 187.333 73.9928 186.824C73.8461 186.31 73.7728 185.707 73.7728 185.014C73.7728 184.318 73.8461 183.714 73.9928 183.205C74.1395 182.695 74.343 182.273 74.6033 181.94C74.8636 181.606 75.1698 181.359 75.5218 181.197C75.8775 181.032 76.2625 180.95 76.6768 180.95C77.0911 180.95 77.4761 181.032 77.8318 181.197C78.1911 181.359 78.501 181.606 78.7613 181.94C79.0253 182.273 79.2306 182.695 79.3773 183.205C79.5276 183.714 79.6028 184.318 79.6028 185.014ZM78.2003 185.014C78.2003 184.439 78.1581 183.962 78.0738 183.584C77.9895 183.207 77.8758 182.906 77.7328 182.682C77.5935 182.459 77.4321 182.303 77.2488 182.215C77.0655 182.123 76.8748 182.077 76.6768 182.077C76.4825 182.077 76.2936 182.123 76.1103 182.215C75.9306 182.303 75.7711 182.459 75.6318 182.682C75.4925 182.906 75.3806 183.207 75.2963 183.584C75.2156 183.962 75.1753 184.439 75.1753 185.014C75.1753 185.59 75.2156 186.067 75.2963 186.444C75.3806 186.822 75.4925 187.123 75.6318 187.346C75.7711 187.57 75.9306 187.728 76.1103 187.819C76.2936 187.907 76.4825 187.951 76.6768 187.951C76.8748 187.951 77.0655 187.907 77.2488 187.819C77.4321 187.728 77.5935 187.57 77.7328 187.346C77.8758 187.123 77.9895 186.822 78.0738 186.444C78.1581 186.067 78.2003 185.59 78.2003 185.014ZM85.5712 187.973V188.991H81.1712V187.973H82.7827V183.337C82.7827 183.153 82.7882 182.965 82.7992 182.77L81.6552 183.727C81.5892 183.779 81.5232 183.812 81.4572 183.826C81.3948 183.837 81.3343 183.837 81.2757 183.826C81.2207 183.815 81.1712 183.797 81.1272 183.771C81.0832 183.742 81.0502 183.711 81.0282 183.678L80.5992 183.089L83.0247 181.027H84.1412V187.973H85.5712ZM91.655 187.726C91.8017 187.726 91.9172 187.768 92.0015 187.852C92.0895 187.933 92.1335 188.041 92.1335 188.177V188.991H86.6775V188.54C86.6775 188.448 86.6959 188.353 86.7325 188.254C86.7729 188.151 86.8352 188.059 86.9195 187.979L89.334 185.559C89.5357 185.353 89.7154 185.157 89.873 184.97C90.0344 184.783 90.1682 184.598 90.2745 184.415C90.3809 184.231 90.4615 184.046 90.5165 183.859C90.5752 183.669 90.6045 183.469 90.6045 183.26C90.6045 183.069 90.577 182.902 90.522 182.759C90.467 182.613 90.3882 182.49 90.2855 182.391C90.1865 182.292 90.0655 182.218 89.9225 182.171C89.7832 182.119 89.6255 182.094 89.4495 182.094C89.2882 182.094 89.1379 182.118 88.9985 182.165C88.8629 182.209 88.7419 182.273 88.6355 182.358C88.5292 182.438 88.4394 182.534 88.366 182.644C88.2927 182.754 88.2377 182.875 88.201 183.007C88.1387 183.175 88.058 183.287 87.959 183.342C87.86 183.397 87.717 183.41 87.53 183.381L86.815 183.254C86.87 182.873 86.9764 182.539 87.134 182.253C87.2917 181.964 87.4879 181.723 87.7225 181.533C87.9609 181.338 88.2322 181.194 88.5365 181.098C88.8445 180.999 89.1745 180.95 89.5265 180.95C89.8932 180.95 90.2287 181.005 90.533 181.115C90.8374 181.221 91.0977 181.373 91.314 181.571C91.5304 181.769 91.699 182.008 91.82 182.286C91.941 182.565 92.0015 182.875 92.0015 183.216C92.0015 183.509 91.9575 183.78 91.8695 184.03C91.7852 184.279 91.6697 184.517 91.523 184.745C91.38 184.972 91.2114 185.192 91.017 185.405C90.8227 185.617 90.6192 185.834 90.4065 186.054L88.6135 187.885C88.7859 187.834 88.9564 187.795 89.125 187.77C89.2974 187.74 89.4605 187.726 89.6145 187.726H91.655Z" fill="#212121"/>
<path d="M183.751 187.726C183.898 187.726 184.013 187.768 184.098 187.852C184.186 187.933 184.23 188.041 184.23 188.177V188.991H178.774V188.54C178.774 188.448 178.792 188.353 178.829 188.254C178.869 188.151 178.931 188.059 179.016 187.979L181.43 185.559C181.632 185.353 181.811 185.157 181.969 184.97C182.13 184.783 182.264 184.598 182.371 184.415C182.477 184.231 182.558 184.046 182.613 183.859C182.671 183.669 182.701 183.469 182.701 183.26C182.701 183.069 182.673 182.902 182.618 182.759C182.563 182.613 182.484 182.49 182.382 182.391C182.283 182.292 182.162 182.218 182.019 182.171C181.879 182.119 181.722 182.094 181.546 182.094C181.384 182.094 181.234 182.118 181.095 182.165C180.959 182.209 180.838 182.273 180.732 182.358C180.625 182.438 180.535 182.534 180.462 182.644C180.389 182.754 180.334 182.875 180.297 183.007C180.235 183.175 180.154 183.287 180.055 183.342C179.956 183.397 179.813 183.41 179.626 183.381L178.911 183.254C178.966 182.873 179.072 182.539 179.23 182.253C179.388 181.964 179.584 181.723 179.819 181.533C180.057 181.338 180.328 181.194 180.633 181.098C180.941 180.999 181.271 180.95 181.623 180.95C181.989 180.95 182.325 181.005 182.629 181.115C182.933 181.221 183.194 181.373 183.41 181.571C183.626 181.769 183.795 182.008 183.916 182.286C184.037 182.565 184.098 182.875 184.098 183.216C184.098 183.509 184.054 183.78 183.966 184.03C183.881 184.279 183.766 184.517 183.619 184.745C183.476 184.972 183.307 185.192 183.113 185.405C182.919 185.617 182.715 185.834 182.503 186.054L180.71 187.885C180.882 187.834 181.052 187.795 181.221 187.77C181.393 187.74 181.557 187.726 181.711 187.726H183.751ZM190.842 185.014C190.842 185.707 190.766 186.31 190.616 186.824C190.469 187.333 190.264 187.755 190 188.089C189.74 188.422 189.43 188.672 189.071 188.837C188.715 188.998 188.33 189.079 187.916 189.079C187.501 189.079 187.116 188.998 186.761 188.837C186.409 188.672 186.102 188.422 185.842 188.089C185.582 187.755 185.378 187.333 185.232 186.824C185.085 186.31 185.012 185.707 185.012 185.014C185.012 184.318 185.085 183.714 185.232 183.205C185.378 182.695 185.582 182.273 185.842 181.94C186.102 181.606 186.409 181.359 186.761 181.197C187.116 181.032 187.501 180.95 187.916 180.95C188.33 180.95 188.715 181.032 189.071 181.197C189.43 181.359 189.74 181.606 190 181.94C190.264 182.273 190.469 182.695 190.616 183.205C190.766 183.714 190.842 184.318 190.842 185.014ZM189.439 185.014C189.439 184.439 189.397 183.962 189.313 183.584C189.228 183.207 189.115 182.906 188.972 182.682C188.832 182.459 188.671 182.303 188.488 182.215C188.304 182.123 188.114 182.077 187.916 182.077C187.721 182.077 187.532 182.123 187.349 182.215C187.169 182.303 187.01 182.459 186.871 182.682C186.731 182.906 186.619 183.207 186.535 183.584C186.454 183.962 186.414 184.439 186.414 185.014C186.414 185.59 186.454 186.067 186.535 186.444C186.619 186.822 186.731 187.123 186.871 187.346C187.01 187.57 187.169 187.728 187.349 187.819C187.532 187.907 187.721 187.951 187.916 187.951C188.114 187.951 188.304 187.907 188.488 187.819C188.671 187.728 188.832 187.57 188.972 187.346C189.115 187.123 189.228 186.822 189.313 186.444C189.397 186.067 189.439 185.59 189.439 185.014ZM196.513 187.726C196.66 187.726 196.775 187.768 196.859 187.852C196.947 187.933 196.991 188.041 196.991 188.177V188.991H191.535V188.54C191.535 188.448 191.554 188.353 191.59 188.254C191.631 188.151 191.693 188.059 191.777 187.979L194.192 185.559C194.394 185.353 194.573 185.157 194.731 184.97C194.892 184.783 195.026 184.598 195.132 184.415C195.239 184.231 195.319 184.046 195.374 183.859C195.433 183.669 195.462 183.469 195.462 183.26C195.462 183.069 195.435 182.902 195.38 182.759C195.325 182.613 195.246 182.49 195.143 182.391C195.044 182.292 194.923 182.218 194.78 182.171C194.641 182.119 194.483 182.094 194.307 182.094C194.146 182.094 193.996 182.118 193.856 182.165C193.721 182.209 193.6 182.273 193.493 182.358C193.387 182.438 193.297 182.534 193.224 182.644C193.151 182.754 193.096 182.875 193.059 183.007C192.997 183.175 192.916 183.287 192.817 183.342C192.718 183.397 192.575 183.41 192.388 183.381L191.673 183.254C191.728 182.873 191.834 182.539 191.992 182.253C192.15 181.964 192.346 181.723 192.58 181.533C192.819 181.338 193.09 181.194 193.394 181.098C193.702 180.999 194.032 180.95 194.384 180.95C194.751 180.95 195.087 181.005 195.391 181.115C195.695 181.221 195.956 181.373 196.172 181.571C196.388 181.769 196.557 182.008 196.678 182.286C196.799 182.565 196.859 182.875 196.859 183.216C196.859 183.509 196.815 183.78 196.727 184.03C196.643 184.279 196.528 184.517 196.381 184.745C196.238 184.972 196.069 185.192 195.875 185.405C195.681 185.617 195.477 185.834 195.264 186.054L193.471 187.885C193.644 187.834 193.814 187.795 193.983 187.77C194.155 187.74 194.318 187.726 194.472 187.726H196.513ZM203.191 187.973V188.991H198.791V187.973H200.402V183.337C200.402 183.153 200.408 182.965 200.419 182.77L199.275 183.727C199.209 183.779 199.143 183.812 199.077 183.826C199.014 183.837 198.954 183.837 198.895 183.826C198.84 183.815 198.791 183.797 198.747 183.771C198.703 183.742 198.67 183.711 198.648 183.678L198.219 183.089L200.644 181.027H201.761V187.973H203.191Z" fill="#212121"/>
<path d="M13.4632 149.606C13.8518 149.555 14.1452 149.424 14.3432 149.215C14.5448 149.003 14.6457 148.726 14.6457 148.385C14.6457 148.246 14.62 148.125 14.5687 148.022C14.521 147.916 14.4513 147.822 14.3597 147.741C14.2717 147.661 14.1672 147.591 14.0462 147.532C13.9252 147.474 13.7932 147.419 13.6502 147.367L13.4632 149.606ZM13.1112 143.792C12.9058 143.818 12.7317 143.862 12.5887 143.924C12.4457 143.983 12.3283 144.056 12.2367 144.144C12.145 144.232 12.0772 144.331 12.0332 144.441C11.9928 144.551 11.9727 144.667 11.9727 144.788C11.9727 144.927 11.9965 145.05 12.0442 145.156C12.0955 145.259 12.1633 145.353 12.2477 145.437C12.3357 145.518 12.4383 145.591 12.5557 145.657C12.673 145.719 12.8013 145.778 12.9407 145.833L13.1112 143.792ZM13.7547 146.097C14.0187 146.178 14.2808 146.267 14.5412 146.366C14.8015 146.462 15.0343 146.586 15.2397 146.74C15.4487 146.894 15.6173 147.087 15.7457 147.318C15.874 147.545 15.9382 147.831 15.9382 148.176C15.9382 148.517 15.8813 148.838 15.7677 149.138C15.654 149.435 15.4872 149.699 15.2672 149.93C15.0472 150.158 14.7777 150.345 14.4587 150.491C14.1397 150.634 13.7748 150.719 13.3642 150.744L13.2982 151.553C13.2945 151.637 13.2578 151.714 13.1882 151.784C13.1222 151.857 13.0378 151.894 12.9352 151.894H12.4347L12.5337 150.717C12.1047 150.658 11.7013 150.541 11.3237 150.365C10.946 150.189 10.6252 149.971 10.3612 149.71L10.7792 149.089C10.8158 149.034 10.8635 148.99 10.9222 148.957C10.9845 148.92 11.0505 148.902 11.1202 148.902C11.2008 148.902 11.287 148.931 11.3787 148.99C11.4703 149.045 11.5748 149.111 11.6922 149.188C11.8095 149.261 11.9433 149.336 12.0937 149.413C12.244 149.49 12.4218 149.547 12.6272 149.584L12.8307 147.125C12.5703 147.052 12.3118 146.966 12.0552 146.867C11.8022 146.768 11.573 146.638 11.3677 146.476C11.166 146.311 11.0028 146.104 10.8782 145.855C10.7535 145.606 10.6912 145.294 10.6912 144.92C10.6912 144.641 10.7462 144.37 10.8562 144.106C10.9662 143.838 11.1275 143.6 11.3402 143.391C11.5565 143.182 11.8205 143.01 12.1322 142.874C12.4438 142.738 12.8013 142.661 13.2047 142.643L13.2652 141.95C13.2725 141.862 13.3092 141.783 13.3752 141.713C13.4412 141.644 13.5273 141.609 13.6337 141.609H14.1342L14.0462 142.687C14.4348 142.749 14.7703 142.861 15.0527 143.022C15.335 143.18 15.5788 143.358 15.7842 143.556L15.4542 144.056C15.4065 144.13 15.357 144.185 15.3057 144.221C15.2543 144.258 15.192 144.276 15.1187 144.276C15.0637 144.276 14.9977 144.26 14.9207 144.227C14.8437 144.19 14.7575 144.148 14.6622 144.1C14.5668 144.049 14.4587 143.998 14.3377 143.946C14.2203 143.895 14.0902 143.853 13.9472 143.82L13.7547 146.097ZM16.9675 144.931C17.0225 144.55 17.1289 144.216 17.2865 143.93C17.4442 143.64 17.6404 143.4 17.875 143.209C18.1134 143.015 18.3847 142.87 18.689 142.775C18.997 142.676 19.327 142.626 19.679 142.626C20.0457 142.626 20.3757 142.68 20.669 142.786C20.966 142.889 21.219 143.033 21.428 143.22C21.637 143.404 21.7965 143.62 21.9065 143.869C22.0202 144.119 22.077 144.388 22.077 144.678C22.077 144.931 22.0477 145.155 21.989 145.349C21.934 145.54 21.8534 145.706 21.747 145.849C21.6407 145.992 21.5087 146.113 21.351 146.212C21.1934 146.311 21.0155 146.394 20.8175 146.46C21.2942 146.61 21.6499 146.839 21.8845 147.147C22.1192 147.455 22.2365 147.842 22.2365 148.308C22.2365 148.704 22.1632 149.054 22.0165 149.358C21.8699 149.663 21.6719 149.919 21.4225 150.128C21.1732 150.334 20.8835 150.49 20.5535 150.596C20.2272 150.702 19.8807 150.755 19.514 150.755C19.1144 150.755 18.766 150.71 18.469 150.618C18.172 150.526 17.9135 150.391 17.6935 150.211C17.4735 150.031 17.2865 149.811 17.1325 149.551C16.9785 149.291 16.8465 148.99 16.7365 148.649L17.336 148.401C17.4937 148.335 17.6404 148.319 17.776 148.352C17.9154 148.381 18.0162 148.455 18.0785 148.572C18.1445 148.7 18.216 148.827 18.293 148.951C18.3737 149.076 18.469 149.188 18.579 149.287C18.689 149.382 18.8174 149.461 18.964 149.523C19.1144 149.582 19.2922 149.611 19.4975 149.611C19.7285 149.611 19.9302 149.575 20.1025 149.501C20.2749 149.424 20.4179 149.325 20.5315 149.204C20.6489 149.083 20.735 148.95 20.79 148.803C20.8487 148.653 20.878 148.502 20.878 148.352C20.878 148.161 20.8579 147.989 20.8175 147.835C20.7772 147.677 20.6929 147.543 20.5645 147.433C20.4362 147.323 20.251 147.237 20.009 147.175C19.7707 147.113 19.4499 147.081 19.0465 147.081V146.113C19.3802 146.11 19.657 146.079 19.877 146.02C20.097 145.961 20.2712 145.881 20.3995 145.778C20.5315 145.672 20.6232 145.545 20.6745 145.398C20.7259 145.252 20.7515 145.09 20.7515 144.914C20.7515 144.54 20.647 144.256 20.438 144.062C20.229 143.868 19.9504 143.77 19.602 143.77C19.4407 143.77 19.2922 143.794 19.1565 143.842C19.0209 143.886 18.898 143.95 18.788 144.034C18.6817 144.115 18.5919 144.21 18.5185 144.32C18.4452 144.43 18.3902 144.551 18.3535 144.683C18.2912 144.852 18.2087 144.964 18.106 145.019C18.007 145.074 17.8659 145.087 17.6825 145.057L16.9675 144.931ZM28.8594 146.691C28.8594 147.384 28.7842 147.987 28.6339 148.5C28.4872 149.01 28.2819 149.432 28.0179 149.765C27.7576 150.099 27.4477 150.348 27.0884 150.513C26.7327 150.675 26.3477 150.755 25.9334 150.755C25.5191 150.755 25.1341 150.675 24.7784 150.513C24.4264 150.348 24.1202 150.099 23.8599 149.765C23.5996 149.432 23.3961 149.01 23.2494 148.5C23.1027 147.987 23.0294 147.384 23.0294 146.691C23.0294 145.994 23.1027 145.391 23.2494 144.881C23.3961 144.372 23.5996 143.95 23.8599 143.616C24.1202 143.283 24.4264 143.035 24.7784 142.874C25.1341 142.709 25.5191 142.626 25.9334 142.626C26.3477 142.626 26.7327 142.709 27.0884 142.874C27.4477 143.035 27.7576 143.283 28.0179 143.616C28.2819 143.95 28.4872 144.372 28.6339 144.881C28.7842 145.391 28.8594 145.994 28.8594 146.691ZM27.4569 146.691C27.4569 146.115 27.4147 145.639 27.3304 145.261C27.2461 144.883 27.1324 144.583 26.9894 144.359C26.8501 144.135 26.6887 143.979 26.5054 143.891C26.3221 143.8 26.1314 143.754 25.9334 143.754C25.7391 143.754 25.5502 143.8 25.3669 143.891C25.1872 143.979 25.0277 144.135 24.8884 144.359C24.7491 144.583 24.6372 144.883 24.5529 145.261C24.4722 145.639 24.4319 146.115 24.4319 146.691C24.4319 147.267 24.4722 147.743 24.5529 148.121C24.6372 148.499 24.7491 148.799 24.8884 149.023C25.0277 149.247 25.1872 149.404 25.3669 149.496C25.5502 149.584 25.7391 149.628 25.9334 149.628C26.1314 149.628 26.3221 149.584 26.5054 149.496C26.6887 149.404 26.8501 149.247 26.9894 149.023C27.1324 148.799 27.2461 148.499 27.3304 148.121C27.4147 147.743 27.4569 147.267 27.4569 146.691ZM35.2403 146.691C35.2403 147.384 35.1651 147.987 35.0148 148.5C34.8681 149.01 34.6628 149.432 34.3988 149.765C34.1384 150.099 33.8286 150.348 33.4693 150.513C33.1136 150.675 32.7286 150.755 32.3143 150.755C31.8999 150.755 31.5149 150.675 31.1593 150.513C30.8073 150.348 30.5011 150.099 30.2408 149.765C29.9804 149.432 29.7769 149.01 29.6303 148.5C29.4836 147.987 29.4103 147.384 29.4103 146.691C29.4103 145.994 29.4836 145.391 29.6303 144.881C29.7769 144.372 29.9804 143.95 30.2408 143.616C30.5011 143.283 30.8073 143.035 31.1593 142.874C31.5149 142.709 31.8999 142.626 32.3143 142.626C32.7286 142.626 33.1136 142.709 33.4693 142.874C33.8286 143.035 34.1384 143.283 34.3988 143.616C34.6628 143.95 34.8681 144.372 35.0148 144.881C35.1651 145.391 35.2403 145.994 35.2403 146.691ZM33.8378 146.691C33.8378 146.115 33.7956 145.639 33.7113 145.261C33.6269 144.883 33.5133 144.583 33.3703 144.359C33.2309 144.135 33.0696 143.979 32.8863 143.891C32.7029 143.8 32.5123 143.754 32.3143 143.754C32.1199 143.754 31.9311 143.8 31.7478 143.891C31.5681 143.979 31.4086 144.135 31.2693 144.359C31.1299 144.583 31.0181 144.883 30.9338 145.261C30.8531 145.639 30.8128 146.115 30.8128 146.691C30.8128 147.267 30.8531 147.743 30.9338 148.121C31.0181 148.499 31.1299 148.799 31.2693 149.023C31.4086 149.247 31.5681 149.404 31.7478 149.496C31.9311 149.584 32.1199 149.628 32.3143 149.628C32.5123 149.628 32.7029 149.584 32.8863 149.496C33.0696 149.404 33.2309 149.247 33.3703 149.023C33.5133 148.799 33.6269 148.499 33.7113 148.121C33.7956 147.743 33.8378 147.267 33.8378 146.691ZM45.0256 142.714V150.667H43.7221V145.53C43.7221 145.325 43.7331 145.103 43.7551 144.865L41.3516 149.38C41.2379 149.597 41.0638 149.705 40.8291 149.705H40.6201C40.3854 149.705 40.2113 149.597 40.0976 149.38L37.6666 144.848C37.6776 144.969 37.6868 145.089 37.6941 145.206C37.7014 145.323 37.7051 145.431 37.7051 145.53V150.667H36.4016V142.714H37.5181C37.5841 142.714 37.6409 142.716 37.6886 142.72C37.7363 142.724 37.7784 142.733 37.8151 142.747C37.8554 142.762 37.8903 142.786 37.9196 142.819C37.9526 142.852 37.9838 142.896 38.0131 142.951L40.3946 147.367C40.4569 147.485 40.5138 147.606 40.5651 147.73C40.6201 147.855 40.6733 147.983 40.7246 148.115C40.7759 147.98 40.8291 147.85 40.8841 147.725C40.9391 147.597 40.9978 147.474 41.0601 147.356L43.4086 142.951C43.4379 142.896 43.4691 142.852 43.5021 142.819C43.5351 142.786 43.5699 142.762 43.6066 142.747C43.6469 142.733 43.6909 142.724 43.7386 142.72C43.7863 142.716 43.8431 142.714 43.9091 142.714H45.0256Z" fill="#212121"/>
<path d="M23.0022 57.7774C23.3909 57.726 23.6842 57.5959 23.8822 57.3869C24.0839 57.1742 24.1847 56.8974 24.1847 56.5564C24.1847 56.417 24.1591 56.296 24.1077 56.1934C24.0601 56.087 23.9904 55.9935 23.8987 55.9129C23.8107 55.8322 23.7062 55.7625 23.5852 55.7039C23.4643 55.6452 23.3322 55.5902 23.1892 55.5389L23.0022 57.7774ZM22.6502 51.9639C22.4449 51.9895 22.2707 52.0335 22.1277 52.0959C21.9847 52.1545 21.8674 52.2279 21.7757 52.3159C21.6841 52.4039 21.6162 52.5029 21.5722 52.6129C21.5319 52.7229 21.5117 52.8384 21.5117 52.9594C21.5117 53.0987 21.5356 53.2215 21.5832 53.3279C21.6346 53.4305 21.7024 53.524 21.7867 53.6084C21.8747 53.689 21.9774 53.7624 22.0947 53.8284C22.2121 53.8907 22.3404 53.9494 22.4797 54.0044L22.6502 51.9639ZM23.2937 54.2684C23.5577 54.349 23.8199 54.4389 24.0802 54.5379C24.3406 54.6332 24.5734 54.7579 24.7788 54.9119C24.9877 55.0659 25.1564 55.2584 25.2847 55.4894C25.4131 55.7167 25.4773 56.0027 25.4773 56.3474C25.4773 56.6884 25.4204 57.0092 25.3068 57.3099C25.1931 57.6069 25.0263 57.8709 24.8063 58.1019C24.5862 58.3292 24.3167 58.5162 23.9977 58.6629C23.6787 58.8059 23.3139 58.8902 22.9032 58.9159L22.8372 59.7244C22.8336 59.8087 22.7969 59.8857 22.7272 59.9554C22.6612 60.0287 22.5769 60.0654 22.4742 60.0654H21.9737L22.0727 58.8884C21.6437 58.8297 21.2404 58.7124 20.8627 58.5364C20.4851 58.3604 20.1642 58.1422 19.9002 57.8819L20.3182 57.2604C20.3549 57.2054 20.4026 57.1614 20.4612 57.1284C20.5236 57.0917 20.5896 57.0734 20.6592 57.0734C20.7399 57.0734 20.8261 57.1027 20.9177 57.1614C21.0094 57.2164 21.1139 57.2824 21.2312 57.3594C21.3486 57.4327 21.4824 57.5079 21.6327 57.5849C21.7831 57.6619 21.9609 57.7187 22.1662 57.7554L22.3697 55.2969C22.1094 55.2235 21.8509 55.1374 21.5942 55.0384C21.3412 54.9394 21.1121 54.8092 20.9067 54.6479C20.7051 54.4829 20.5419 54.2757 20.4172 54.0264C20.2926 53.777 20.2302 53.4654 20.2302 53.0914C20.2302 52.8127 20.2852 52.5414 20.3952 52.2774C20.5052 52.0097 20.6666 51.7714 20.8792 51.5624C21.0956 51.3534 21.3596 51.181 21.6712 51.0454C21.9829 50.9097 22.3404 50.8327 22.7438 50.8144L22.8042 50.1214C22.8116 50.0334 22.8482 49.9545 22.9142 49.8849C22.9802 49.8152 23.0664 49.7804 23.1728 49.7804H23.6732L23.5852 50.8584C23.9739 50.9207 24.3094 51.0325 24.5917 51.1939C24.8741 51.3515 25.1179 51.5294 25.3233 51.7274L24.9932 52.2279C24.9456 52.3012 24.8961 52.3562 24.8447 52.3929C24.7934 52.4295 24.7311 52.4479 24.6577 52.4479C24.6028 52.4479 24.5367 52.4314 24.4597 52.3984C24.3827 52.3617 24.2966 52.3195 24.2012 52.2719C24.1059 52.2205 23.9977 52.1692 23.8767 52.1179C23.7594 52.0665 23.6292 52.0244 23.4862 51.9914L23.2937 54.2684ZM31.6051 57.8214V58.8389H27.2051V57.8214H28.8166V53.1849C28.8166 53.0015 28.8221 52.8127 28.8331 52.6184L27.6891 53.5754C27.6231 53.6267 27.5571 53.6597 27.4911 53.6744C27.4288 53.6854 27.3683 53.6854 27.3096 53.6744C27.2546 53.6634 27.2051 53.645 27.1611 53.6194C27.1171 53.59 27.0841 53.5589 27.0621 53.5259L26.6331 52.9374L29.0586 50.8749H30.1751V57.8214H31.6051ZM38.3985 54.8624C38.3985 55.5554 38.3233 56.1585 38.173 56.6719C38.0263 57.1815 37.821 57.6032 37.557 57.9369C37.2966 58.2705 36.9868 58.5199 36.6275 58.6849C36.2718 58.8462 35.8868 58.9269 35.4725 58.9269C35.0581 58.9269 34.6731 58.8462 34.3175 58.6849C33.9655 58.5199 33.6593 58.2705 33.399 57.9369C33.1386 57.6032 32.9351 57.1815 32.7885 56.6719C32.6418 56.1585 32.5685 55.5554 32.5685 54.8624C32.5685 54.1657 32.6418 53.5625 32.7885 53.0529C32.9351 52.5432 33.1386 52.1215 33.399 51.7879C33.6593 51.4542 33.9655 51.2067 34.3175 51.0454C34.6731 50.8804 35.0581 50.7979 35.4725 50.7979C35.8868 50.7979 36.2718 50.8804 36.6275 51.0454C36.9868 51.2067 37.2966 51.4542 37.557 51.7879C37.821 52.1215 38.0263 52.5432 38.173 53.0529C38.3233 53.5625 38.3985 54.1657 38.3985 54.8624ZM36.996 54.8624C36.996 54.2867 36.9538 53.81 36.8695 53.4324C36.7851 53.0547 36.6715 52.754 36.5285 52.5304C36.3891 52.3067 36.2278 52.1509 36.0445 52.0629C35.8611 51.9712 35.6705 51.9254 35.4725 51.9254C35.2781 51.9254 35.0893 51.9712 34.906 52.0629C34.7263 52.1509 34.5668 52.3067 34.4275 52.5304C34.2881 52.754 34.1763 53.0547 34.092 53.4324C34.0113 53.81 33.971 54.2867 33.971 54.8624C33.971 55.438 34.0113 55.9147 34.092 56.2924C34.1763 56.67 34.2881 56.9707 34.4275 57.1944C34.5668 57.418 34.7263 57.5757 34.906 57.6674C35.0893 57.7554 35.2781 57.7994 35.4725 57.7994C35.6705 57.7994 35.8611 57.7554 36.0445 57.6674C36.2278 57.5757 36.3891 57.418 36.5285 57.1944C36.6715 56.9707 36.7851 56.67 36.8695 56.2924C36.9538 55.9147 36.996 55.438 36.996 54.8624ZM42.5353 57.6839C42.8103 57.6839 43.0413 57.6509 43.2283 57.5849C43.4153 57.5189 43.5638 57.4309 43.6738 57.3209C43.7875 57.2109 43.8682 57.0825 43.9158 56.9359C43.9672 56.7892 43.9928 56.6334 43.9928 56.4684C43.9928 56.296 43.9653 56.142 43.9103 56.0064C43.8553 55.867 43.7692 55.7497 43.6518 55.6544C43.5345 55.5554 43.3823 55.4802 43.1953 55.4289C43.012 55.3775 42.7902 55.3519 42.5298 55.3519H41.0393V57.6839H42.5353ZM41.0393 52.0299V54.3289H42.2163C42.7223 54.3289 43.1037 54.2372 43.3603 54.0539C43.6207 53.8705 43.7508 53.579 43.7508 53.1794C43.7508 52.765 43.6335 52.4699 43.3988 52.2939C43.1642 52.1179 42.7975 52.0299 42.2988 52.0299H41.0393ZM42.2988 50.8859C42.8195 50.8859 43.265 50.9354 43.6353 51.0344C44.0057 51.1334 44.3082 51.2745 44.5428 51.4579C44.7812 51.6412 44.9553 51.863 45.0653 52.1234C45.1753 52.3837 45.2303 52.677 45.2303 53.0034C45.2303 53.1904 45.2028 53.37 45.1478 53.5424C45.0928 53.711 45.0067 53.8705 44.8893 54.0209C44.7757 54.1675 44.629 54.3014 44.4493 54.4224C44.2733 54.5434 44.0625 54.646 43.8168 54.7304C44.9095 54.976 45.4558 55.5664 45.4558 56.5014C45.4558 56.8387 45.3917 57.1504 45.2633 57.4364C45.135 57.7224 44.948 57.9699 44.7023 58.1789C44.4567 58.3842 44.1542 58.5455 43.7948 58.6629C43.4355 58.7802 43.0248 58.8389 42.5628 58.8389H39.5598V50.8859H42.2988Z" fill="#212121"/>
<path d="M90.0666 7.70984L89.184 5.30579C89.1405 5.19918 89.0954 5.07256 89.0485 4.92594C89.0017 4.77933 88.9549 4.62104 88.908 4.45109C88.8649 4.62114 88.8201 4.78119 88.7736 4.93124C88.727 5.07796 88.6822 5.20634 88.639 5.31639L87.7666 7.71233L90.0666 7.70984ZM92.4445 10.4373L91.4045 10.4384C91.2879 10.4385 91.1928 10.4103 91.1194 10.3537C91.046 10.2938 90.991 10.2205 90.9542 10.1339L90.4126 8.65947L87.4176 8.66271L86.8792 10.1383C86.8526 10.215 86.801 10.285 86.7244 10.3485C86.6478 10.4119 86.5529 10.4436 86.4395 10.4438L85.3895 10.4449L88.2267 3.21183L89.5967 3.21035L92.4445 10.4373ZM94.1382 5.93543C94.2415 5.83198 94.3497 5.73686 94.4629 5.65008C94.5795 5.55995 94.7011 5.48482 94.8277 5.42468C94.9576 5.36121 95.0959 5.31272 95.2425 5.27923C95.3892 5.2424 95.5491 5.2239 95.7225 5.22371C96.0025 5.22341 96.2509 5.27147 96.4676 5.3679C96.6844 5.461 96.8645 5.59414 97.0081 5.76732C97.1549 5.93716 97.2651 6.14204 97.3387 6.38196C97.4156 6.61854 97.4543 6.88017 97.4546 7.16683L97.4581 10.4318L96.2231 10.4332L96.2196 7.16817C96.2192 6.85484 96.1473 6.61325 96.0038 6.44341C95.8603 6.27023 95.6418 6.1838 95.3485 6.18412C95.1352 6.18435 94.9352 6.2329 94.7487 6.32977C94.5621 6.42663 94.3856 6.55849 94.2191 6.72534L94.2231 10.4353L92.9881 10.4367L92.9826 5.30668L93.7376 5.30586C93.8976 5.30569 94.0026 5.38057 94.0528 5.53052L94.1382 5.93543ZM99.7828 5.92931C99.886 5.82587 99.9942 5.73075 100.107 5.64396C100.224 5.55383 100.346 5.4787 100.472 5.41856C100.602 5.35509 100.74 5.30661 100.887 5.27311C101.034 5.23629 101.194 5.21778 101.367 5.21759C101.647 5.21729 101.895 5.26535 102.112 5.36179C102.329 5.45488 102.509 5.58802 102.653 5.7612C102.799 5.93104 102.91 6.13592 102.983 6.37584C103.06 6.61243 103.099 6.87405 103.099 7.16072L103.103 10.4257L101.868 10.4271L101.864 7.16206C101.864 6.84872 101.792 6.60713 101.648 6.43729C101.505 6.26411 101.286 6.17768 100.993 6.178C100.78 6.17823 100.58 6.22678 100.393 6.32365C100.207 6.42052 100.03 6.55238 99.8636 6.71922L99.8676 10.4292L98.6326 10.4306L98.6271 5.30056L99.3821 5.29974C99.5421 5.29957 99.6472 5.37446 99.6973 5.5244L99.7828 5.92931ZM108.692 5.28966L108.697 10.4197L107.942 10.4205C107.779 10.4206 107.675 10.3458 107.632 10.1958L107.546 9.7859C107.337 9.99946 107.105 10.173 106.852 10.3067C106.599 10.4369 106.301 10.5023 105.957 10.5026C105.677 10.5029 105.429 10.4565 105.212 10.3634C104.999 10.267 104.819 10.1322 104.672 9.95902C104.525 9.78584 104.413 9.58096 104.336 9.34438C104.262 9.10446 104.225 8.84117 104.225 8.5545L104.222 5.2945L105.457 5.29316L105.46 8.55316C105.46 8.86649 105.532 9.10975 105.676 9.28293C105.823 9.45277 106.041 9.53753 106.331 9.53722C106.545 9.53699 106.744 9.4901 106.931 9.39657C107.118 9.2997 107.294 9.16784 107.461 9.00099L107.457 5.291L108.692 5.28966ZM112.629 8.22539C112.273 8.24245 111.973 8.27444 111.729 8.32137C111.486 8.36496 111.291 8.42184 111.145 8.492C110.998 8.56216 110.893 8.64394 110.83 8.73734C110.767 8.83074 110.735 8.93245 110.735 9.04245C110.735 9.25911 110.799 9.41404 110.926 9.50724C111.056 9.60043 111.224 9.64692 111.431 9.64669C111.684 9.64642 111.902 9.60118 112.086 9.51098C112.272 9.41745 112.454 9.27725 112.63 9.09039L112.629 8.22539ZM109.797 6.00346C110.386 5.46282 111.096 5.19205 111.926 5.19115C112.226 5.19083 112.494 5.24054 112.731 5.34028C112.968 5.43669 113.168 5.57314 113.332 5.74963C113.495 5.92279 113.619 6.13099 113.702 6.37423C113.789 6.61747 113.833 6.88409 113.833 7.17409L113.837 10.4141L113.277 10.4147C113.16 10.4148 113.07 10.3982 113.007 10.365C112.943 10.3284 112.893 10.2568 112.856 10.1501L112.746 9.78027C112.616 9.89707 112.49 10.0005 112.366 10.0907C112.243 10.1775 112.115 10.251 111.982 10.3111C111.848 10.3712 111.705 10.4164 111.552 10.4466C111.402 10.4801 111.235 10.4969 111.052 10.4971C110.835 10.4973 110.635 10.4692 110.452 10.4128C110.268 10.353 110.11 10.2648 109.976 10.1483C109.843 10.0317 109.739 9.88686 109.666 9.7136C109.592 9.54035 109.556 9.33872 109.555 9.10872C109.555 8.97872 109.577 8.85037 109.62 8.72365C109.663 8.59361 109.733 8.4702 109.829 8.35343C109.929 8.23665 110.058 8.12651 110.214 8.02301C110.371 7.91951 110.562 7.8293 110.789 7.75239C111.019 7.67547 111.285 7.61351 111.589 7.56652C111.892 7.51619 112.239 7.48582 112.629 7.47539L112.628 7.17539C112.628 6.83206 112.554 6.57881 112.407 6.41563C112.261 6.24912 112.049 6.16602 111.772 6.16632C111.572 6.16654 111.405 6.19005 111.272 6.23686C111.142 6.28367 111.027 6.33713 110.927 6.39724C110.827 6.45401 110.736 6.50578 110.653 6.55253C110.573 6.59929 110.483 6.62272 110.383 6.62283C110.296 6.62292 110.223 6.60133 110.163 6.55806C110.102 6.51146 110.054 6.45818 110.017 6.39822L109.797 6.00346ZM116.242 2.98147L116.25 10.4115L115.015 10.4128L115.007 2.98281L116.242 2.98147ZM121.457 10.4058L120.107 10.4073L120.099 3.17729L121.449 3.17583L121.457 10.4058ZM123.953 5.90312C124.056 5.79968 124.164 5.70456 124.277 5.61777C124.394 5.52764 124.516 5.45251 124.642 5.39237C124.772 5.3289 124.91 5.28042 125.057 5.24692C125.204 5.2101 125.364 5.19159 125.537 5.1914C125.817 5.1911 126.065 5.23916 126.282 5.3356C126.499 5.4287 126.679 5.56183 126.822 5.73501C126.969 5.90485 127.08 6.10973 127.153 6.34965C127.23 6.58624 127.269 6.84786 127.269 7.13453L127.273 10.3995L126.038 10.4009L126.034 7.13587C126.034 6.82253 125.962 6.58094 125.818 6.4111C125.675 6.23792 125.456 6.15149 125.163 6.15181C124.95 6.15204 124.75 6.20059 124.563 6.29746C124.377 6.39433 124.2 6.52619 124.034 6.69303L124.038 10.403L122.803 10.4044L122.797 5.27437L123.552 5.27356C123.712 5.27338 123.817 5.34827 123.867 5.49821L123.953 5.90312ZM132.949 5.26337L130.92 10.3956L129.8 10.3968L127.759 5.269L128.779 5.26789C128.873 5.26779 128.949 5.28937 129.009 5.33264C129.073 5.37591 129.115 5.43086 129.135 5.49751L130.128 8.23643C130.181 8.39637 130.228 8.55299 130.268 8.70628C130.308 8.85957 130.343 9.01287 130.374 9.16617C130.407 9.0128 130.443 8.85942 130.483 8.70605C130.523 8.55267 130.571 8.39595 130.628 8.23589L131.635 5.4948C131.658 5.42811 131.699 5.37306 131.759 5.32966C131.819 5.28626 131.891 5.26452 131.974 5.26443L132.949 5.26337ZM136.758 7.23425C136.758 7.07425 136.735 6.92427 136.688 6.78432C136.644 6.64104 136.578 6.51611 136.488 6.40954C136.397 6.30297 136.282 6.21976 136.142 6.15991C136.006 6.09673 135.845 6.06523 135.662 6.06543C135.305 6.06582 135.024 6.16779 134.817 6.37135C134.614 6.5749 134.485 6.86338 134.428 7.23677L136.758 7.23425ZM134.404 7.9818C134.425 8.24511 134.471 8.47339 134.545 8.66665C134.619 8.85657 134.715 9.01479 134.835 9.14133C134.956 9.26453 135.097 9.35771 135.261 9.42087C135.428 9.48069 135.611 9.51049 135.811 9.51027C136.011 9.51006 136.183 9.48654 136.326 9.43972C136.472 9.39289 136.599 9.34109 136.706 9.2843C136.816 9.22752 136.911 9.17575 136.99 9.129C137.074 9.08224 137.154 9.05882 137.23 9.05874C137.334 9.05862 137.41 9.09687 137.461 9.17349L137.816 9.6231C137.68 9.78325 137.526 9.91842 137.356 10.0286C137.187 10.1355 137.008 10.2223 136.822 10.2892C136.638 10.3527 136.45 10.3979 136.257 10.4248C136.067 10.4517 135.882 10.4652 135.702 10.4654C135.345 10.4658 135.014 10.4078 134.707 10.2915C134.4 10.1718 134.133 9.99709 133.906 9.76734C133.679 9.53425 133.501 9.24778 133.37 8.90792C133.24 8.56473 133.174 8.16813 133.174 7.71813C133.174 7.36813 133.23 7.03974 133.343 6.73295C133.456 6.42282 133.617 6.15432 133.827 5.92742C134.04 5.69719 134.298 5.51524 134.601 5.38158C134.908 5.24792 135.253 5.18088 135.636 5.18046C135.96 5.18011 136.258 5.23145 136.531 5.33449C136.805 5.43753 137.04 5.58894 137.237 5.78873C137.434 5.98518 137.587 6.22835 137.698 6.51823C137.811 6.80477 137.868 7.13304 137.869 7.50304C137.869 7.68971 137.849 7.8164 137.809 7.88311C137.769 7.94648 137.693 7.97823 137.579 7.97836L134.404 7.9818ZM141.924 6.25365C141.891 6.30702 141.856 6.34539 141.819 6.36876C141.783 6.3888 141.736 6.39885 141.679 6.39891C141.619 6.39898 141.554 6.38238 141.484 6.34912C141.418 6.31586 141.339 6.27928 141.249 6.23938C141.159 6.19614 141.056 6.15792 140.939 6.12472C140.826 6.09151 140.691 6.07498 140.534 6.07515C140.291 6.07542 140.099 6.12729 139.959 6.23078C139.823 6.33426 139.754 6.46933 139.755 6.636C139.755 6.746 139.79 6.83929 139.86 6.91589C139.933 6.98914 140.028 7.05404 140.145 7.11058C140.265 7.16711 140.4 7.21863 140.55 7.26514C140.7 7.30831 140.852 7.35648 141.005 7.40964C141.162 7.46281 141.316 7.52431 141.466 7.59415C141.616 7.66065 141.749 7.74717 141.866 7.85371C141.986 7.95692 142.081 8.08181 142.151 8.2284C142.225 8.37499 142.262 8.55162 142.262 8.75828C142.262 9.00495 142.217 9.23333 142.128 9.44343C142.041 9.65019 141.911 9.83033 141.738 9.98385C141.565 10.134 141.35 10.2526 141.094 10.3396C140.84 10.4232 140.547 10.4651 140.214 10.4655C140.037 10.4657 139.864 10.4492 139.694 10.4161C139.527 10.3862 139.365 10.3431 139.209 10.2866C139.055 10.2301 138.912 10.1636 138.778 10.0871C138.648 10.0105 138.533 9.92732 138.433 9.83743L138.718 9.36712C138.754 9.31042 138.797 9.26704 138.847 9.23698C138.897 9.20693 138.961 9.19186 139.037 9.19178C139.114 9.1917 139.186 9.21328 139.252 9.25655C139.322 9.2998 139.403 9.34638 139.493 9.39628C139.583 9.44619 139.688 9.49274 139.808 9.53594C139.931 9.57914 140.086 9.60064 140.273 9.60044C140.419 9.60028 140.544 9.58348 140.648 9.55003C140.754 9.51325 140.841 9.46649 140.908 9.40975C140.978 9.35301 141.027 9.28796 141.057 9.21459C141.091 9.13789 141.107 9.05954 141.107 8.97954C141.107 8.85954 141.07 8.76124 140.997 8.68465C140.927 8.60806 140.832 8.5415 140.712 8.48496C140.595 8.42842 140.46 8.37857 140.306 8.3354C140.156 8.2889 140.001 8.23907 139.841 8.18591C139.685 8.13274 139.529 8.07124 139.376 8.00141C139.226 7.92824 139.091 7.83672 138.971 7.72685C138.854 7.61698 138.759 7.48208 138.685 7.32216C138.615 7.16223 138.58 6.96894 138.58 6.74227C138.579 6.53227 138.621 6.33223 138.704 6.14214C138.787 5.95205 138.909 5.78692 139.068 5.64674C139.232 5.50323 139.433 5.38968 139.673 5.30609C139.916 5.21916 140.196 5.17552 140.513 5.17518C140.866 5.17479 141.188 5.23278 141.478 5.34913C141.768 5.46548 142.01 5.61855 142.204 5.80835L141.924 6.25365ZM144.903 10.4604C144.457 10.4609 144.113 10.3363 143.873 10.0865C143.636 9.83346 143.517 9.48526 143.517 9.04192L143.514 6.17693L142.989 6.17749C142.922 6.17757 142.865 6.15596 142.819 6.11268C142.772 6.0694 142.748 6.00442 142.748 5.91775L142.748 5.42776L143.573 5.29186L143.831 3.89158C143.848 3.8249 143.879 3.77319 143.926 3.73648C143.973 3.69976 144.033 3.68136 144.106 3.68128L144.746 3.68059L144.748 5.29559L146.118 5.2941L146.119 6.1741L144.749 6.17559L144.752 8.95559C144.752 9.11559 144.79 9.24054 144.867 9.33046C144.947 9.42037 145.056 9.46526 145.192 9.46511C145.269 9.46503 145.332 9.45662 145.382 9.4399C145.435 9.41985 145.48 9.3998 145.517 9.37976C145.557 9.35971 145.592 9.34134 145.622 9.32464C145.652 9.30461 145.682 9.29458 145.712 9.29455C145.749 9.29451 145.779 9.30447 145.802 9.32445C145.825 9.34109 145.85 9.36773 145.877 9.40437L146.248 10.004C146.068 10.1542 145.861 10.2677 145.628 10.3446C145.395 10.4216 145.153 10.4602 144.903 10.4604ZM146.914 10.3782L146.908 5.24825L147.663 5.24743C147.823 5.24726 147.928 5.32214 147.979 5.47209L148.059 5.852C148.149 5.7519 148.242 5.66014 148.339 5.5767C148.439 5.49326 148.543 5.42148 148.653 5.36136C148.767 5.30123 148.887 5.25444 149.013 5.22097C149.143 5.18416 149.285 5.16567 149.438 5.16551C149.762 5.16516 150.027 5.2532 150.234 5.42964C150.444 5.60275 150.601 5.83425 150.704 6.12413C150.784 5.95405 150.884 5.80894 151.004 5.68881C151.124 5.56535 151.255 5.4652 151.398 5.38838C151.542 5.31156 151.693 5.25473 151.853 5.21789C152.017 5.18105 152.18 5.16253 152.343 5.16236C152.627 5.16205 152.878 5.20511 153.098 5.29154C153.318 5.37797 153.504 5.50443 153.654 5.67094C153.804 5.83744 153.918 6.04065 153.994 6.28057C154.075 6.52048 154.115 6.79544 154.115 7.10544L154.119 10.3704L152.884 10.3718L152.88 7.10678C152.88 6.78011 152.808 6.53519 152.665 6.37201C152.521 6.2055 152.311 6.12239 152.034 6.12269C151.908 6.12283 151.789 6.14463 151.679 6.18808C151.573 6.23153 151.478 6.29496 151.395 6.37839C151.315 6.45847 151.251 6.56021 151.205 6.68359C151.158 6.80698 151.135 6.94867 151.135 7.10867L151.139 10.3737L149.899 10.375L149.895 7.11001C149.895 6.76668 149.825 6.51675 149.685 6.36024C149.548 6.20372 149.346 6.12561 149.079 6.1259C148.899 6.12609 148.731 6.17127 148.574 6.26144C148.421 6.34828 148.278 6.46843 148.145 6.62191L148.149 10.3769L146.914 10.3782ZM158.594 7.21059C158.594 7.05059 158.571 6.90061 158.524 6.76066C158.48 6.61738 158.414 6.49245 158.323 6.38588C158.233 6.27931 158.118 6.1961 157.978 6.13625C157.841 6.07307 157.681 6.04157 157.498 6.04177C157.141 6.04216 156.86 6.14413 156.653 6.34769C156.45 6.55124 156.321 6.83972 156.264 7.21311L158.594 7.21059ZM156.24 7.95814C156.26 8.22145 156.307 8.44973 156.381 8.64298C156.454 8.83291 156.551 8.99113 156.671 9.11767C156.792 9.24087 156.933 9.33405 157.097 9.39721C157.263 9.45703 157.447 9.48683 157.647 9.48661C157.847 9.4864 158.018 9.46288 158.162 9.41606C158.308 9.36923 158.435 9.31743 158.542 9.26064C158.652 9.20386 158.746 9.15209 158.826 9.10534C158.91 9.05858 158.99 9.03516 159.066 9.03508C159.17 9.03496 159.246 9.07321 159.296 9.14983L159.652 9.59944C159.515 9.75959 159.362 9.89476 159.192 10.0049C159.022 10.1118 158.844 10.1987 158.658 10.2655C158.474 10.3291 158.286 10.3743 158.093 10.4011C157.903 10.428 157.718 10.4415 157.538 10.4417C157.181 10.4421 156.849 10.3841 156.543 10.2678C156.236 10.1481 155.969 9.97343 155.742 9.74368C155.515 9.51059 155.337 9.22412 155.206 8.88426C155.076 8.54107 155.01 8.14447 155.01 7.69447C155.009 7.34447 155.066 7.01608 155.179 6.70929C155.292 6.39916 155.453 6.13066 155.663 5.90376C155.876 5.67353 156.134 5.49158 156.437 5.35792C156.744 5.22426 157.089 5.15722 157.472 5.1568C157.795 5.15645 158.094 5.20779 158.367 5.31083C158.641 5.41387 158.876 5.56528 159.073 5.76507C159.27 5.96152 159.423 6.20469 159.534 6.49457C159.647 6.78111 159.704 7.10938 159.705 7.47938C159.705 7.66605 159.685 7.79274 159.645 7.85945C159.605 7.92282 159.528 7.95457 159.415 7.9547L156.24 7.95814ZM161.785 5.86213C161.888 5.75868 161.996 5.66357 162.109 5.57678C162.226 5.48665 162.348 5.41152 162.474 5.35138C162.604 5.28791 162.742 5.23942 162.889 5.20593C163.036 5.16911 163.196 5.1506 163.369 5.15041C163.649 5.15011 163.897 5.19817 164.114 5.2946C164.331 5.3877 164.511 5.52084 164.655 5.69402C164.801 5.86386 164.912 6.06874 164.985 6.30866C165.062 6.54524 165.101 6.80687 165.101 7.09354L165.105 10.3585L163.87 10.3599L163.866 7.09487C163.866 6.78154 163.794 6.53995 163.65 6.37011C163.507 6.19693 163.288 6.1105 162.995 6.11082C162.782 6.11105 162.582 6.1596 162.395 6.25647C162.209 6.35334 162.032 6.48519 161.866 6.65204L161.87 10.362L160.635 10.3634L160.629 5.23338L161.384 5.23256C161.544 5.23239 161.649 5.30727 161.699 5.45722L161.785 5.86213ZM167.921 10.4355C167.474 10.436 167.131 10.3113 166.89 10.0616C166.653 9.80852 166.535 9.46032 166.534 9.01698L166.531 6.15199L166.006 6.15255C165.94 6.15263 165.883 6.13102 165.836 6.08774C165.789 6.04446 165.766 5.97948 165.766 5.89281L165.765 5.40281L166.59 5.26692L166.849 3.86664C166.865 3.79995 166.897 3.74825 166.944 3.71154C166.99 3.67482 167.05 3.65642 167.123 3.65634L167.763 3.65565L167.765 5.27065L169.135 5.26916L169.136 6.14916L167.766 6.15065L167.769 8.93065C167.769 9.09065 167.808 9.2156 167.885 9.30552C167.965 9.39543 168.073 9.44032 168.21 9.44017C168.286 9.44009 168.35 9.43168 168.4 9.41496C168.453 9.3949 168.498 9.37486 168.535 9.35482C168.575 9.33477 168.61 9.3164 168.64 9.2997C168.67 9.27967 168.7 9.26964 168.73 9.2696C168.766 9.26957 168.796 9.27953 168.82 9.29951C168.843 9.31615 168.868 9.34279 168.895 9.37943L169.265 9.97902C169.085 10.1292 168.879 10.2428 168.646 10.3197C168.412 10.3966 168.171 10.4352 167.921 10.4355ZM173.638 5.21928L173.643 10.3493L172.403 10.3506L172.398 5.22063L173.638 5.21928ZM173.806 3.7241C173.806 3.83077 173.784 3.93079 173.741 4.02417C173.698 4.11755 173.64 4.19928 173.566 4.26936C173.497 4.33944 173.413 4.39619 173.317 4.43963C173.22 4.47974 173.117 4.49985 173.007 4.49997C172.9 4.50008 172.798 4.48019 172.702 4.4403C172.608 4.39707 172.527 4.34049 172.456 4.27056C172.386 4.20064 172.33 4.11903 172.286 4.02575C172.246 3.93246 172.226 3.83248 172.226 3.72581C172.226 3.61581 172.246 3.51246 172.286 3.41575C172.329 3.31903 172.385 3.23564 172.455 3.16556C172.525 3.09549 172.607 3.0404 172.7 3.0003C172.797 2.95686 172.898 2.93508 173.005 2.93497C173.115 2.93485 173.218 2.9564 173.315 2.99963C173.412 3.03953 173.495 3.09444 173.565 3.16436C173.639 3.23428 173.697 3.31755 173.741 3.41417C173.784 3.51079 173.806 3.6141 173.806 3.7241ZM176.052 5.84667C176.155 5.74322 176.264 5.64811 176.377 5.56132C176.494 5.47119 176.615 5.39606 176.742 5.33592C176.872 5.27245 177.01 5.22396 177.157 5.19047C177.303 5.15365 177.463 5.13514 177.636 5.13495C177.916 5.13465 178.165 5.18271 178.382 5.27914C178.598 5.37224 178.779 5.50538 178.922 5.67856C179.069 5.8484 179.179 6.05328 179.253 6.2932C179.33 6.52978 179.368 6.79141 179.369 7.07808L179.372 10.3431L178.137 10.3444L178.134 7.07941C178.133 6.76608 178.061 6.52449 177.918 6.35465C177.774 6.18147 177.556 6.09504 177.263 6.09536C177.049 6.09559 176.849 6.14414 176.663 6.24101C176.476 6.33788 176.3 6.46973 176.133 6.63658L176.137 10.3466L174.902 10.3479L174.897 5.21792L175.652 5.2171C175.812 5.21693 175.917 5.29181 175.967 5.44176L176.052 5.84667ZM83.9098 16.5315C83.8699 16.6016 83.8266 16.6533 83.78 16.6867C83.7367 16.7167 83.6817 16.7318 83.615 16.7318C83.545 16.7319 83.4684 16.707 83.385 16.6571C83.3049 16.6038 83.2082 16.5456 83.0948 16.4824C82.9814 16.4192 82.848 16.3627 82.6946 16.3128C82.5445 16.2597 82.3662 16.2332 82.1595 16.2334C81.9728 16.2336 81.8095 16.2571 81.6696 16.3039C81.5296 16.3474 81.4114 16.4092 81.3148 16.4893C81.2215 16.5694 81.1516 16.6662 81.1051 16.7796C81.0586 16.8896 81.0354 17.0113 81.0355 17.1446C81.0357 17.3146 81.0825 17.4562 81.176 17.5695C81.2727 17.6827 81.3995 17.7792 81.5563 17.8591C81.713 17.9389 81.8914 18.0104 82.0915 18.0735C82.2916 18.1366 82.4966 18.2047 82.7067 18.2778C82.9168 18.3476 83.1219 18.4307 83.322 18.5272C83.5221 18.6203 83.7006 18.7401 83.8574 18.8866C84.0142 19.0297 84.1394 19.2063 84.233 19.4162C84.3299 19.6261 84.3785 19.881 84.3788 20.181C84.3791 20.5077 84.3228 20.8144 84.2098 21.1012C84.1001 21.3846 83.937 21.6332 83.7206 21.8467C83.5075 22.057 83.246 22.2239 82.9361 22.3476C82.6263 22.4679 82.2713 22.5283 81.8713 22.5287C81.6413 22.529 81.4146 22.5059 81.1913 22.4595C80.9679 22.4164 80.7528 22.3533 80.546 22.2702C80.3426 22.1871 80.1508 22.0873 79.9707 21.9708C79.7906 21.8543 79.6305 21.7245 79.4903 21.5813L79.8846 20.9359C79.9179 20.8892 79.9612 20.8508 80.0145 20.8207C80.0678 20.7873 80.1244 20.7706 80.1844 20.7706C80.2678 20.7705 80.3578 20.8054 80.4545 20.8753C80.5513 20.9418 80.6664 21.0167 80.7998 21.0999C80.9332 21.1831 81.0883 21.2596 81.265 21.3294C81.4451 21.3959 81.6601 21.429 81.9101 21.4287C82.2935 21.4283 82.59 21.3379 82.7998 21.1577C83.0096 20.9742 83.1144 20.7124 83.114 20.3724C83.1138 20.1824 83.0653 20.0274 82.9685 19.9075C82.875 19.7876 82.7499 19.6878 82.5932 19.6079C82.4364 19.5248 82.258 19.455 82.0579 19.3985C81.8579 19.3421 81.6545 19.2806 81.4477 19.2142C81.241 19.1477 81.0376 19.068 80.8375 18.9748C80.6374 18.8817 80.4589 18.7603 80.3021 18.6104C80.1453 18.4606 80.0184 18.2741 79.9215 18.0508C79.8279 17.8243 79.7809 17.546 79.7806 17.216C79.7803 16.9527 79.8317 16.6959 79.9347 16.4458C80.0411 16.1957 80.1942 15.9739 80.394 15.7803C80.5938 15.5868 80.8403 15.4315 81.1335 15.3145C81.4267 15.1975 81.7633 15.1388 82.1433 15.1384C82.57 15.138 82.9634 15.2042 83.3235 15.3372C83.6837 15.4701 83.9906 15.6564 84.2441 15.8962L83.9098 16.5315ZM86.4954 21.1137C86.6356 21.2836 86.7874 21.4034 86.9508 21.4732C87.1176 21.543 87.2976 21.5778 87.4909 21.5776C87.6776 21.5774 87.8459 21.5423 87.9958 21.4721C88.1457 21.4019 88.2723 21.2951 88.3755 21.1517C88.482 21.0082 88.5634 20.8281 88.6199 20.6114C88.6763 20.3914 88.7044 20.133 88.704 19.8363C88.7037 19.5363 88.6784 19.283 88.6282 19.0764C88.5813 18.8665 88.5128 18.6965 88.4227 18.5666C88.3325 18.4367 88.2224 18.3418 88.0924 18.282C87.9656 18.2221 87.8206 18.1923 87.6573 18.1925C87.4006 18.1927 87.1823 18.248 87.0024 18.3582C86.8226 18.465 86.6527 18.6169 86.4929 18.8137L86.4954 21.1137ZM86.4271 18.0138C86.6368 17.7769 86.8749 17.585 87.1414 17.438C87.4079 17.2911 87.7212 17.2174 88.0812 17.217C88.3612 17.2167 88.6163 17.2748 88.8464 17.3912C89.0799 17.5076 89.28 17.6774 89.4469 17.9005C89.6172 18.1203 89.7475 18.3935 89.8378 18.7201C89.9315 19.0433 89.9786 19.4149 89.979 19.8349C89.9795 20.2183 89.9282 20.5733 89.8252 20.9001C89.7222 21.2269 89.5742 21.5104 89.3811 21.7506C89.1914 21.9908 88.9599 22.1794 88.6867 22.3163C88.4169 22.45 88.1136 22.517 87.7769 22.5173C87.4903 22.5176 87.2452 22.4746 87.0418 22.3881C86.8384 22.2983 86.6566 22.1752 86.4964 22.0187L86.4987 24.1187L85.2637 24.1201L85.2563 17.3151L86.0113 17.3142C86.1713 17.3141 86.2764 17.389 86.3266 17.5389L86.4271 18.0138ZM93.6531 20.246C93.2964 20.263 92.9965 20.295 92.7532 20.3419C92.5099 20.3855 92.315 20.4424 92.1684 20.5126C92.0218 20.5827 91.9169 20.6645 91.8536 20.7579C91.7904 20.8513 91.7588 20.953 91.759 21.063C91.7592 21.2797 91.8227 21.4346 91.9495 21.5278C92.0796 21.621 92.248 21.6675 92.4546 21.6673C92.708 21.667 92.9262 21.6217 93.1095 21.5316C93.296 21.438 93.4776 21.2978 93.654 21.111L93.6531 20.246ZM90.8207 18.024C91.4101 17.4834 92.1198 17.2126 92.9498 17.2117C93.2498 17.2114 93.5182 17.2611 93.755 17.3608C93.9917 17.4573 94.1919 17.5937 94.3554 17.7702C94.5189 17.9434 94.6425 18.1516 94.7261 18.3948C94.813 18.638 94.8566 18.9047 94.8569 19.1947L94.8605 22.4347L94.3005 22.4353C94.1838 22.4354 94.0938 22.4188 94.0304 22.3856C93.967 22.349 93.9169 22.2773 93.8802 22.1707L93.7698 21.8008C93.6399 21.9176 93.5133 22.0211 93.3901 22.1112C93.2669 22.198 93.1386 22.2715 93.0053 22.3317C92.8721 22.3918 92.7288 22.437 92.5755 22.4671C92.4255 22.5006 92.2589 22.5175 92.0755 22.5177C91.8589 22.5179 91.6588 22.4898 91.4755 22.4333C91.2921 22.3735 91.1336 22.2854 91.0002 22.1688C90.8667 22.0523 90.7632 21.9074 90.6897 21.7342C90.6162 21.5609 90.5793 21.3593 90.579 21.1293C90.5789 20.9993 90.6004 20.8709 90.6436 20.7442C90.6868 20.6142 90.7567 20.4908 90.8532 20.374C90.9531 20.2572 91.0813 20.1471 91.2379 20.0436C91.3944 19.9401 91.586 19.8499 91.8126 19.773C92.0425 19.696 92.3091 19.6341 92.6124 19.5871C92.9156 19.5368 93.2623 19.5064 93.6523 19.496L93.6519 19.196C93.6516 18.8526 93.578 18.5994 93.4311 18.4362C93.2843 18.2697 93.0725 18.1866 92.7958 18.1869C92.5958 18.1871 92.4292 18.2106 92.2959 18.2574C92.166 18.3042 92.051 18.3577 91.9511 18.4178C91.8512 18.4746 91.7596 18.5263 91.6763 18.5731C91.5963 18.6199 91.5063 18.6433 91.4063 18.6434C91.3197 18.6435 91.2463 18.6219 91.1863 18.5786C91.1262 18.532 91.0778 18.4788 91.0411 18.4188L90.8207 18.024ZM99.6942 18.3844C99.6576 18.4311 99.6209 18.4678 99.5843 18.4945C99.551 18.5212 99.501 18.5346 99.4344 18.5347C99.371 18.5348 99.3093 18.5165 99.2493 18.4799C99.1893 18.44 99.1175 18.3967 99.0342 18.3501C98.9508 18.3002 98.8507 18.257 98.734 18.2205C98.6206 18.1806 98.4789 18.1607 98.3089 18.1609C98.0923 18.1611 97.9023 18.2014 97.7391 18.2815C97.5758 18.3584 97.4393 18.4702 97.3294 18.617C97.2229 18.7638 97.1431 18.9422 97.09 19.1522C97.0369 19.359 97.0105 19.594 97.0108 19.8573C97.0111 20.1307 97.0397 20.374 97.0966 20.5872C97.1568 20.8005 97.242 20.9804 97.3522 21.127C97.4623 21.2702 97.5958 21.38 97.7525 21.4565C97.9093 21.5297 98.086 21.5662 98.2826 21.5659C98.4793 21.5657 98.6376 21.5422 98.7576 21.4954C98.8808 21.4453 98.9841 21.3919 99.0674 21.3351C99.1507 21.275 99.2223 21.2216 99.2822 21.1749C99.3455 21.1248 99.4155 21.0997 99.4921 21.0996C99.5921 21.0995 99.6672 21.1378 99.7173 21.2144L100.073 21.664C99.9363 21.8242 99.7881 21.9593 99.6282 22.0695C99.4683 22.1763 99.3017 22.2632 99.1285 22.33C98.9585 22.3935 98.7819 22.4387 98.5986 22.4656C98.4186 22.4925 98.2387 22.506 98.0587 22.5062C97.742 22.5065 97.4436 22.4485 97.1635 22.3322C96.8833 22.2125 96.6382 22.0394 96.4279 21.813C96.2177 21.5865 96.0507 21.31 95.927 20.9835C95.8066 20.6536 95.7462 20.2787 95.7458 19.8587C95.7454 19.482 95.7983 19.1336 95.9047 18.8135C96.0143 18.4901 96.174 18.2116 96.3838 17.978C96.5935 17.7411 96.8533 17.5558 97.1631 17.4222C97.473 17.2885 97.8296 17.2214 98.2329 17.221C98.6163 17.2206 98.9513 17.2819 99.2381 17.4049C99.5283 17.5279 99.7885 17.7043 100.019 17.9341L99.6942 18.3844ZM104.061 19.2697C104.061 19.1097 104.038 18.9597 103.991 18.8198C103.948 18.6765 103.881 18.5515 103.791 18.445C103.7 18.3384 103.585 18.2552 103.445 18.1953C103.309 18.1322 103.149 18.1007 102.965 18.1009C102.609 18.1013 102.327 18.2032 102.121 18.4068C101.917 18.6103 101.788 18.8988 101.731 19.2722L104.061 19.2697ZM101.707 20.0172C101.728 20.2805 101.774 20.5088 101.848 20.7021C101.922 20.892 102.018 21.0502 102.139 21.1768C102.259 21.3 102.4 21.3932 102.564 21.4563C102.731 21.5161 102.914 21.5459 103.114 21.5457C103.314 21.5455 103.486 21.522 103.629 21.4752C103.775 21.4283 103.902 21.3765 104.009 21.3197C104.119 21.263 104.214 21.2112 104.294 21.1644C104.377 21.1177 104.457 21.0943 104.533 21.0942C104.637 21.0941 104.714 21.1323 104.764 21.2089L105.119 21.6585C104.983 21.8187 104.829 21.9539 104.66 22.064C104.49 22.1709 104.311 22.2577 104.125 22.3246C103.942 22.3881 103.753 22.4334 103.56 22.4602C103.37 22.4871 103.185 22.5006 103.005 22.5008C102.648 22.5012 102.317 22.4432 102.01 22.3269C101.703 22.2072 101.436 22.0325 101.209 21.8028C100.982 21.5697 100.804 21.2832 100.673 20.9434C100.543 20.6002 100.477 20.2036 100.477 19.7536C100.477 19.4036 100.533 19.0752 100.646 18.7684C100.759 18.4583 100.92 18.1898 101.13 17.9629C101.343 17.7326 101.601 17.5507 101.904 17.417C102.211 17.2834 102.556 17.2163 102.939 17.2159C103.263 17.2155 103.561 17.2669 103.834 17.3699C104.108 17.473 104.343 17.6244 104.54 17.8242C104.737 18.0206 104.89 18.2638 105.001 18.5537C105.114 18.8402 105.171 19.1685 105.172 19.5385C105.172 19.7251 105.152 19.8518 105.112 19.9185C105.072 19.9819 104.996 20.0137 104.882 20.0138L101.707 20.0172ZM106.058 18.8875L108.648 18.8847L108.649 19.9147L106.059 19.9175L106.058 18.8875ZM111.37 16.2568L111.373 18.2618L113.903 18.259L113.904 19.294L111.374 19.2968L111.376 21.3418L114.586 21.3383L114.587 22.4133L110.027 22.4182L110.019 15.1882L114.579 15.1833L114.58 16.2533L111.37 16.2568ZM119.04 18.3635C119.003 18.4102 118.967 18.4469 118.93 18.4736C118.897 18.5003 118.847 18.5137 118.78 18.5137C118.717 18.5138 118.655 18.4955 118.595 18.4589C118.535 18.419 118.463 18.3757 118.38 18.3292C118.296 18.2793 118.196 18.236 118.08 18.1995C117.966 18.1596 117.825 18.1398 117.655 18.14C117.438 18.1402 117.248 18.1804 117.085 18.2606C116.922 18.3374 116.785 18.4492 116.675 18.596C116.569 18.7428 116.489 18.9212 116.436 19.1313C116.383 19.338 116.356 19.573 116.356 19.8364C116.357 20.1097 116.385 20.353 116.442 20.5663C116.503 20.7795 116.588 20.9594 116.698 21.106C116.808 21.2492 116.941 21.3591 117.098 21.4356C117.255 21.5087 117.432 21.5452 117.628 21.545C117.825 21.5448 117.983 21.5213 118.103 21.4745C118.227 21.4243 118.33 21.3709 118.413 21.3141C118.496 21.254 118.568 21.2006 118.628 21.1539C118.691 21.1038 118.761 21.0788 118.838 21.0787C118.938 21.0786 119.013 21.1168 119.063 21.1934L119.418 21.643C119.282 21.8032 119.134 21.9384 118.974 22.0485C118.814 22.1554 118.647 22.2422 118.474 22.3091C118.304 22.3726 118.128 22.4178 117.944 22.4446C117.764 22.4715 117.584 22.485 117.404 22.4852C117.088 22.4856 116.789 22.4276 116.509 22.3112C116.229 22.1915 115.984 22.0184 115.774 21.792C115.563 21.5656 115.396 21.2891 115.273 20.9625C115.152 20.6327 115.092 20.2577 115.091 19.8377C115.091 19.4611 115.144 19.1127 115.25 18.7926C115.36 18.4691 115.52 18.1906 115.729 17.957C115.939 17.7201 116.199 17.5349 116.509 17.4012C116.819 17.2675 117.175 17.2005 117.579 17.2C117.962 17.1996 118.297 17.2609 118.584 17.3839C118.874 17.507 119.134 17.6833 119.364 17.9131L119.04 18.3635ZM122.37 17.1948C122.75 17.1944 123.095 17.2557 123.405 17.3787C123.719 17.5017 123.985 17.6764 124.206 17.9029C124.429 18.1293 124.601 18.4058 124.722 18.7323C124.842 19.0588 124.902 19.4238 124.903 19.8271C124.903 20.2338 124.844 20.6005 124.724 20.9273C124.604 21.2541 124.433 21.5326 124.21 21.7629C123.99 21.9931 123.724 22.17 123.41 22.2937C123.101 22.4174 122.756 22.4794 122.376 22.4798C121.992 22.4803 121.644 22.419 121.33 22.296C121.017 22.173 120.748 21.9966 120.525 21.7668C120.305 21.5371 120.133 21.2589 120.009 20.9324C119.889 20.6059 119.828 20.2393 119.828 19.8326C119.827 19.4293 119.887 19.0642 120.007 18.7374C120.13 18.4106 120.301 18.1338 120.521 17.9068C120.744 17.6799 121.012 17.5046 121.325 17.381C121.638 17.2573 121.987 17.1953 122.37 17.1948ZM122.375 21.5298C122.801 21.5294 123.116 21.3857 123.319 21.0988C123.526 20.8119 123.628 20.3918 123.628 19.8385C123.627 19.2851 123.523 18.8636 123.316 18.5738C123.113 18.284 122.798 18.1394 122.371 18.1398C121.938 18.1403 121.616 18.2873 121.406 18.5809C121.2 18.8711 121.097 19.2912 121.098 19.8412C121.098 20.3912 121.202 20.8111 121.409 21.1009C121.619 21.3873 121.941 21.5303 122.375 21.5298ZM126.998 17.8998C127.101 17.7964 127.209 17.7013 127.323 17.6145C127.439 17.5244 127.561 17.4492 127.687 17.3891C127.817 17.3256 127.956 17.2771 128.102 17.2436C128.249 17.2068 128.409 17.1883 128.582 17.1881C128.862 17.1878 129.111 17.2359 129.327 17.3323C129.544 17.4254 129.724 17.5585 129.868 17.7317C130.015 17.9016 130.125 18.1064 130.198 18.3464C130.275 18.5829 130.314 18.8446 130.314 19.1312L130.318 22.3962L129.083 22.3976L129.079 19.1326C129.079 18.8192 129.007 18.5777 128.863 18.4078C128.72 18.2346 128.502 18.1482 128.208 18.1485C127.995 18.1487 127.795 18.1973 127.608 18.2942C127.422 18.391 127.245 18.5229 127.079 18.6897L127.083 22.3997L125.848 22.4011L125.842 17.2711L126.597 17.2703C126.757 17.2701 126.862 17.345 126.912 17.4949L126.998 17.8998ZM133.757 17.1825C134.137 17.1821 134.482 17.2434 134.792 17.3664C135.105 17.4894 135.372 17.6641 135.592 17.8905C135.816 18.1169 135.988 18.3934 136.108 18.72C136.229 19.0465 136.289 19.4114 136.29 19.8148C136.29 20.2214 136.23 20.5882 136.111 20.915C135.991 21.2418 135.82 21.5203 135.597 21.7505C135.377 21.9808 135.11 22.1577 134.797 22.2814C134.487 22.405 134.142 22.4671 133.762 22.4675C133.379 22.4679 133.031 22.4066 132.717 22.2836C132.404 22.1606 132.135 21.9843 131.912 21.7545C131.691 21.5247 131.519 21.2466 131.396 20.9201C131.275 20.5935 131.215 20.2269 131.215 19.8203C131.214 19.4169 131.274 19.0519 131.393 18.7251C131.516 18.3983 131.688 18.1214 131.907 17.8945C132.131 17.6676 132.399 17.4923 132.712 17.3686C133.025 17.245 133.373 17.1829 133.757 17.1825ZM133.761 21.5175C134.188 21.517 134.503 21.3734 134.706 21.0865C134.912 20.7996 135.015 20.3795 135.015 19.8261C135.014 19.2728 134.91 18.8513 134.703 18.5615C134.5 18.2717 134.184 18.127 133.758 18.1275C133.324 18.128 133.003 18.275 132.793 18.5685C132.587 18.8588 132.484 19.2789 132.485 19.8289C132.485 20.3789 132.589 20.7988 132.796 21.0885C133.006 21.375 133.328 21.518 133.761 21.5175ZM137.234 22.3887L137.229 17.2587L137.984 17.2579C138.144 17.2578 138.249 17.3326 138.299 17.4826L138.38 17.8625C138.469 17.7624 138.563 17.6706 138.659 17.5872C138.759 17.5038 138.864 17.432 138.974 17.3719C139.087 17.3117 139.207 17.2649 139.334 17.2315C139.464 17.1947 139.606 17.1762 139.759 17.176C140.082 17.1757 140.347 17.2637 140.554 17.4401C140.764 17.6132 140.921 17.8447 141.025 18.1346C141.105 17.9645 141.205 17.8194 141.324 17.6993C141.444 17.5758 141.576 17.4757 141.719 17.3989C141.862 17.3221 142.014 17.2652 142.174 17.2284C142.337 17.1915 142.501 17.173 142.664 17.1729C142.947 17.1725 143.199 17.2156 143.419 17.302C143.639 17.3885 143.824 17.5149 143.974 17.6814C144.125 17.8479 144.238 18.0511 144.315 18.2911C144.395 18.531 144.436 18.8059 144.436 19.1159L144.439 22.3809L143.204 22.3823L143.201 19.1173C143.201 18.7906 143.129 18.5457 142.985 18.3825C142.842 18.216 142.632 18.1329 142.355 18.1332C142.228 18.1333 142.11 18.1551 142 18.1986C141.893 18.242 141.798 18.3055 141.715 18.3889C141.635 18.469 141.572 18.5707 141.525 18.6941C141.479 18.8175 141.456 18.9592 141.456 19.1192L141.459 22.3842L140.219 22.3855L140.216 19.1205C140.216 18.7772 140.145 18.5272 140.005 18.3707C139.868 18.2142 139.667 18.1361 139.4 18.1364C139.22 18.1366 139.052 18.1818 138.895 18.2719C138.742 18.3588 138.599 18.4789 138.465 18.6324L138.469 22.3874L137.234 22.3887ZM150.131 17.2448L147.343 23.7878C147.307 23.8745 147.258 23.9395 147.198 23.9829C147.142 24.0297 147.053 24.0531 146.933 24.0532L146.013 24.0542L146.971 21.9932L144.891 17.2504L145.976 17.2493C146.073 17.2492 146.148 17.2724 146.201 17.319C146.258 17.3656 146.3 17.4189 146.326 17.4789L147.419 20.1377C147.456 20.2277 147.486 20.3176 147.51 20.4076C147.536 20.4976 147.561 20.5892 147.585 20.6825C147.615 20.5892 147.645 20.4975 147.675 20.4074C147.704 20.3141 147.738 20.2224 147.774 20.1323L148.801 17.4762C148.828 17.4095 148.871 17.3545 148.931 17.3111C148.994 17.2677 149.064 17.2459 149.141 17.2458L150.131 17.2448ZM155.469 18.774C155.716 18.7737 155.931 18.7435 156.114 18.6833C156.297 18.6197 156.449 18.5313 156.569 18.4178C156.692 18.301 156.783 18.1609 156.843 17.9975C156.903 17.8308 156.933 17.6457 156.933 17.4424C156.932 17.2491 156.902 17.0741 156.842 16.9175C156.782 16.7609 156.692 16.6277 156.571 16.5178C156.451 16.4079 156.3 16.3247 156.116 16.2683C155.933 16.2085 155.716 16.1787 155.466 16.179L154.461 16.1801L154.464 18.7751L155.469 18.774ZM155.465 15.139C155.948 15.1385 156.367 15.1947 156.72 15.3076C157.074 15.4206 157.365 15.5786 157.596 15.7817C157.826 15.9848 157.996 16.2279 158.106 16.5111C158.22 16.7943 158.277 17.1043 158.278 17.4409C158.278 17.7909 158.22 18.1127 158.104 18.4061C157.987 18.6963 157.812 18.9464 157.579 19.1567C157.346 19.3669 157.053 19.5306 156.7 19.6476C156.35 19.7647 155.94 19.8235 155.47 19.824L154.465 19.8251L154.468 22.3701L153.123 22.3715L153.115 15.1415L155.465 15.139ZM160.202 18.1239C160.361 17.817 160.551 17.5768 160.771 17.4032C160.991 17.2263 161.25 17.1377 161.55 17.1374C161.787 17.1371 161.977 17.1886 162.121 17.2918L162.042 18.2169C162.025 18.2769 162 18.3202 161.967 18.3469C161.937 18.3703 161.895 18.382 161.842 18.3821C161.792 18.3821 161.717 18.3739 161.617 18.3573C161.52 18.3408 161.425 18.3325 161.332 18.3326C161.195 18.3328 161.073 18.3529 160.967 18.393C160.86 18.4331 160.764 18.4916 160.677 18.5683C160.594 18.6418 160.519 18.7318 160.452 18.8386C160.389 18.9453 160.329 19.067 160.273 19.2038L160.276 22.3638L159.041 22.3651L159.036 17.2351L159.761 17.2343C159.887 17.2342 159.976 17.2574 160.026 17.304C160.076 17.3473 160.109 17.4273 160.126 17.5439L160.202 18.1239ZM164.889 17.1488C165.269 17.1484 165.615 17.2097 165.925 17.3326C166.238 17.4556 166.505 17.6304 166.725 17.8568C166.949 18.0832 167.121 18.3597 167.241 18.6862C167.361 19.0128 167.422 19.3777 167.422 19.781C167.423 20.1877 167.363 20.5544 167.243 20.8812C167.124 21.208 166.952 21.4865 166.729 21.7168C166.51 21.947 166.243 22.124 165.93 22.2476C165.62 22.3713 165.275 22.4334 164.895 22.4338C164.512 22.4342 164.163 22.3729 163.85 22.2499C163.537 22.1269 163.268 21.9505 163.044 21.7208C162.824 21.491 162.652 21.2129 162.529 20.8863C162.408 20.5598 162.348 20.1932 162.347 19.7865C162.347 19.3832 162.406 19.0181 162.526 18.6913C162.649 18.3645 162.82 18.0877 163.04 17.8608C163.263 17.6339 163.531 17.4586 163.845 17.3349C164.158 17.2112 164.506 17.1492 164.889 17.1488ZM164.894 21.4838C165.321 21.4833 165.636 21.3396 165.839 21.0527C166.045 20.7659 166.148 20.3457 166.147 19.7924C166.147 19.2391 166.043 18.8175 165.836 18.5277C165.632 18.238 165.317 18.0933 164.89 18.0938C164.457 18.0942 164.136 18.2413 163.926 18.5348C163.72 18.825 163.617 19.2452 163.617 19.7952C163.618 20.3451 163.722 20.765 163.929 21.0548C164.139 21.3413 164.461 21.4842 164.894 21.4838ZM169.642 17.2236L169.647 22.5286C169.648 22.752 169.618 22.962 169.558 23.1587C169.502 23.3554 169.409 23.5272 169.279 23.674C169.152 23.8242 168.984 23.941 168.774 24.0246C168.568 24.1115 168.314 24.1551 168.014 24.1554C167.898 24.1555 167.789 24.1473 167.689 24.1307C167.589 24.1175 167.486 24.0943 167.379 24.0611L167.423 23.396C167.433 23.3294 167.46 23.286 167.503 23.2659C167.547 23.2492 167.63 23.2408 167.753 23.2407C167.877 23.2405 167.98 23.2271 168.063 23.2003C168.15 23.1769 168.218 23.1368 168.268 23.0801C168.318 23.0267 168.353 22.955 168.373 22.865C168.396 22.775 168.408 22.6633 168.407 22.53L168.402 17.225L169.642 17.2236ZM169.81 15.7284C169.81 15.8351 169.789 15.9351 169.745 16.0285C169.702 16.1219 169.644 16.2036 169.571 16.2737C169.501 16.3438 169.416 16.4005 169.316 16.444C169.219 16.4841 169.116 16.5042 169.006 16.5043C168.899 16.5044 168.799 16.4845 168.706 16.4446C168.613 16.4014 168.531 16.3448 168.461 16.2749C168.391 16.205 168.334 16.1234 168.29 16.0301C168.25 15.9368 168.23 15.8368 168.23 15.7301C168.23 15.6201 168.25 15.5168 168.29 15.4201C168.333 15.3234 168.39 15.24 168.459 15.1699C168.529 15.0998 168.611 15.0447 168.704 15.0046C168.798 14.9612 168.898 14.9394 169.004 14.9393C169.114 14.9392 169.218 14.9607 169.314 15.004C169.414 15.0439 169.499 15.0988 169.569 15.1687C169.643 15.2386 169.701 15.3219 169.745 15.4185C169.788 15.5151 169.81 15.6184 169.81 15.7284ZM174.208 19.1937C174.208 19.0337 174.184 18.8837 174.137 18.7438C174.094 18.6005 174.027 18.4755 173.937 18.369C173.847 18.2624 173.732 18.1792 173.592 18.1193C173.455 18.0562 173.295 18.0247 173.112 18.0249C172.755 18.0252 172.473 18.1272 172.267 18.3308C172.064 18.5343 171.934 18.8228 171.878 19.1962L174.208 19.1937ZM171.854 19.9412C171.874 20.2045 171.921 20.4328 171.994 20.6261C172.068 20.816 172.165 20.9742 172.285 21.1008C172.405 21.224 172.547 21.3171 172.71 21.3803C172.877 21.4401 173.06 21.4699 173.26 21.4697C173.46 21.4695 173.632 21.446 173.775 21.3991C173.922 21.3523 174.049 21.3005 174.155 21.2437C174.265 21.1869 174.36 21.1352 174.44 21.0884C174.523 21.0417 174.603 21.0182 174.68 21.0182C174.783 21.0181 174.86 21.0563 174.91 21.1329L175.266 21.5825C175.129 21.7427 174.976 21.8778 174.806 21.988C174.636 22.0949 174.458 22.1817 174.271 22.2486C174.088 22.3121 173.9 22.3573 173.706 22.3842C173.516 22.4111 173.331 22.4246 173.151 22.4248C172.795 22.4252 172.463 22.3672 172.156 22.2509C171.849 22.1312 171.583 21.9565 171.356 21.7268C171.129 21.4937 170.95 21.2072 170.82 20.8673C170.689 20.5242 170.624 20.1276 170.623 19.6776C170.623 19.3276 170.679 18.9992 170.792 18.6924C170.905 18.3823 171.067 18.1137 171.277 17.8868C171.49 17.6566 171.748 17.4747 172.051 17.341C172.357 17.2073 172.702 17.1403 173.086 17.1399C173.409 17.1395 173.707 17.1909 173.981 17.2939C174.254 17.397 174.489 17.5484 174.686 17.7482C174.883 17.9446 175.037 18.1878 175.147 18.4777C175.261 18.7642 175.318 19.0925 175.318 19.4625C175.318 19.6491 175.299 19.7758 175.259 19.8425C175.219 19.9059 175.142 19.9377 175.029 19.9378L171.854 19.9412ZM179.919 18.2975C179.882 18.3442 179.846 18.3809 179.809 18.4076C179.776 18.4343 179.726 18.4477 179.659 18.4478C179.596 18.4478 179.534 18.4296 179.474 18.393C179.414 18.353 179.342 18.3098 179.259 18.2632C179.175 18.2133 179.075 18.1701 178.959 18.1335C178.845 18.0936 178.704 18.0738 178.534 18.074C178.317 18.0742 178.127 18.1144 177.964 18.1946C177.8 18.2714 177.664 18.3833 177.554 18.53C177.447 18.6768 177.368 18.8553 177.315 19.0653C177.261 19.272 177.235 19.5071 177.235 19.7704C177.236 20.0437 177.264 20.287 177.321 20.5003C177.381 20.7136 177.467 20.8935 177.577 21.04C177.687 21.1832 177.82 21.2931 177.977 21.3696C178.134 21.4428 178.311 21.4792 178.507 21.479C178.704 21.4788 178.862 21.4553 178.982 21.4085C179.105 21.3584 179.209 21.3049 179.292 21.2482C179.375 21.1881 179.447 21.1347 179.507 21.0879C179.57 21.0379 179.64 21.0128 179.717 21.0127C179.817 21.0126 179.892 21.0509 179.942 21.1275L180.297 21.5771C180.161 21.7372 180.013 21.8724 179.853 21.9826C179.693 22.0894 179.526 22.1762 179.353 22.2431C179.183 22.3066 179.006 22.3518 178.823 22.3787C178.643 22.4055 178.463 22.4191 178.283 22.4193C177.967 22.4196 177.668 22.3616 177.388 22.2452C177.108 22.1255 176.863 21.9525 176.652 21.726C176.442 21.4996 176.275 21.2231 176.152 20.8966C176.031 20.5667 175.971 20.1918 175.97 19.7718C175.97 19.3951 176.023 19.0467 176.129 18.7266C176.239 18.4031 176.399 18.1246 176.608 17.8911C176.818 17.6542 177.078 17.4689 177.388 17.3352C177.698 17.2016 178.054 17.1345 178.457 17.1341C178.841 17.1337 179.176 17.195 179.463 17.318C179.753 17.441 180.013 17.6174 180.243 17.8471L179.919 18.2975ZM182.782 22.4194C182.336 22.4199 181.992 22.2952 181.752 22.0455C181.515 21.7924 181.396 21.4442 181.396 21.0009L181.393 18.1359L180.868 18.1365C180.801 18.1365 180.744 18.1149 180.698 18.0716C180.651 18.0284 180.628 17.9634 180.628 17.8767L180.627 17.3867L181.452 17.2508L181.71 15.8505C181.727 15.7839 181.759 15.7322 181.805 15.6954C181.852 15.6587 181.912 15.6403 181.985 15.6402L182.625 15.6396L182.627 17.2546L183.997 17.2531L183.998 18.1331L182.628 18.1346L182.631 20.9145C182.631 21.0745 182.669 21.1995 182.746 21.2894C182.826 21.3793 182.935 21.4242 183.071 21.4241C183.148 21.424 183.211 21.4156 183.261 21.3989C183.315 21.3788 183.36 21.3588 183.396 21.3387C183.436 21.3187 183.471 21.3003 183.501 21.2836C183.531 21.2636 183.561 21.2535 183.591 21.2535C183.628 21.2535 183.658 21.2634 183.681 21.2834C183.705 21.3001 183.73 21.3267 183.756 21.3633L184.127 21.9629C183.947 22.1131 183.741 22.2267 183.507 22.3036C183.274 22.3805 183.032 22.4191 182.782 22.4194ZM187.919 18.2038C187.885 18.2572 187.85 18.2956 187.814 18.3189C187.777 18.339 187.73 18.349 187.674 18.3491C187.614 18.3491 187.549 18.3326 187.479 18.2993C187.412 18.266 187.334 18.2295 187.244 18.1895C187.154 18.1463 187.05 18.1081 186.933 18.0749C186.82 18.0417 186.685 18.0252 186.528 18.0253C186.285 18.0256 186.093 18.0775 185.954 18.1809C185.817 18.2844 185.749 18.4195 185.749 18.5862C185.749 18.6962 185.784 18.7895 185.854 18.8661C185.928 18.9393 186.023 19.0042 186.14 19.0607C186.26 19.1173 186.395 19.1688 186.545 19.2153C186.695 19.2585 186.846 19.3066 187 19.3598C187.157 19.413 187.31 19.4745 187.46 19.5443C187.61 19.6108 187.744 19.6973 187.86 19.8039C187.98 19.9071 188.076 20.032 188.146 20.1786C188.219 20.3252 188.256 20.5018 188.256 20.7085C188.257 20.9551 188.212 21.1835 188.122 21.3936C188.036 21.6004 187.906 21.7805 187.733 21.934C187.559 22.0842 187.345 22.2028 187.088 22.2897C186.835 22.3733 186.541 22.4153 186.208 22.4157C186.031 22.4159 185.858 22.3994 185.688 22.3662C185.521 22.3364 185.36 22.2933 185.203 22.2368C185.05 22.1803 184.906 22.1138 184.773 22.0372C184.643 21.9607 184.528 21.8775 184.427 21.7876L184.712 21.3173C184.749 21.2606 184.792 21.2172 184.842 21.1872C184.892 21.1571 184.955 21.142 185.032 21.1419C185.108 21.1419 185.18 21.1635 185.247 21.2067C185.317 21.25 185.397 21.2966 185.487 21.3465C185.577 21.3964 185.682 21.4429 185.802 21.4861C185.926 21.5293 186.081 21.5508 186.267 21.5506C186.414 21.5504 186.539 21.5336 186.642 21.5002C186.749 21.4634 186.835 21.4167 186.902 21.3599C186.972 21.3032 187.022 21.2381 187.052 21.1648C187.085 21.0881 187.102 21.0097 187.102 20.9297C187.101 20.8097 187.065 20.7114 186.991 20.6348C186.921 20.5582 186.826 20.4917 186.706 20.4351C186.589 20.3786 186.454 20.3287 186.301 20.2856C186.151 20.2391 185.996 20.1892 185.836 20.1361C185.679 20.0829 185.524 20.0214 185.37 19.9516C185.22 19.8784 185.085 19.7869 184.965 19.677C184.848 19.5671 184.753 19.4322 184.68 19.2723C184.61 19.1124 184.574 18.9191 184.574 18.6924C184.574 18.4824 184.615 18.2824 184.698 18.0923C184.782 17.9022 184.903 17.7371 185.063 17.5969C185.226 17.4534 185.428 17.3398 185.668 17.2563C185.911 17.1693 186.191 17.1257 186.507 17.1253C186.861 17.125 187.182 17.1829 187.473 17.2993C187.763 17.4157 188.005 17.5687 188.198 17.7585L187.919 18.2038Z" fill="black"/>
<path d="M211.242 38.7558C212.809 37.6642 214.955 37.9813 216.14 39.4796C217.32 40.9729 217.139 43.1261 215.726 44.4013L208.654 50.7824L203.442 44.1894L211.242 38.7558Z" fill="#DADADA"/>
<path d="M210.546 39.2924C212.118 38.2047 214.265 38.5256 215.451 40.0254C216.632 41.5199 216.455 43.674 215.045 44.9552L208.483 50.9175L203.271 44.3245L210.546 39.2924Z" fill="#8A8F92"/>
<ellipse cx="206.117" cy="47.4321" rx="4.20221" ry="3.30731" transform="rotate(51.6716 206.117 47.4321)" fill="#6F787E"/>
<path d="M202.622 46.4803C203.884 45.4824 205.716 45.6967 206.714 46.9591C207.712 48.2215 207.498 50.0538 206.236 51.0518L162.566 85.5755L158.952 81.004L202.622 46.4803Z" fill="#D9D9D9"/>
<path d="M194.229 53.1146C195.492 52.1166 197.324 52.331 198.322 53.5934C199.32 54.8557 199.106 56.6881 197.843 57.6861L192.362 62.0192L188.748 57.4478L194.229 53.1146Z" fill="#385074"/>
<path d="M189.4 56.933C190.663 55.935 192.495 56.1493 193.493 57.4117C194.491 58.6741 194.277 60.5065 193.014 61.5045L162.566 85.5759L158.952 81.0045L189.4 56.933Z" fill="#D9D9D9"/>
<path d="M170.963 71.5082C172.226 70.5102 174.058 70.7245 175.056 71.9869C176.054 73.2493 175.84 75.0817 174.577 76.0797L162.566 85.5755L158.952 81.004L170.963 71.5082Z" fill="#385074"/>
<rect x="199.673" y="50.0396" width="0.463909" height="50.2859" rx="0.231955" transform="rotate(51.6716 199.673 50.0396)" fill="white" fill-opacity="0.7"/>
<rect x="213.477" y="38.5317" width="0.463909" height="8.49221" rx="0.231955" transform="rotate(53.5724 213.477 38.5317)" fill="white" fill-opacity="0.7"/>
<path d="M149.64 84.7865C152.143 84.463 159.08 80.6365 161.523 78.9277C159.388 82.8445 161.128 84.921 165.128 83.513C164.365 84.8703 162.914 88.9007 162.286 90.4256C161.501 92.3318 158.461 90.8497 157.97 93.4459C157.578 95.5228 157.008 95.8932 156.772 95.8188C156.961 95.6224 157.25 95.1223 156.888 94.6929C156.436 94.1561 155.027 94.3192 154.84 95.9206C154.69 97.2018 154.078 97.0074 153.791 96.7501C153.289 96.5163 152.519 96.1352 152.457 96.5714C152.155 98.7294 150.135 98.4077 148.153 99.0484C146.363 99.6272 147.648 103.238 146.692 103.993C145.737 104.749 144.302 101.88 143.847 104.338C143.483 106.305 140.907 108.001 139.664 108.604C139.791 108.384 139.944 107.639 139.548 106.417C139.053 104.89 138.779 106.725 138.484 109.537C138.188 112.349 134.029 110.121 134.336 111.497C134.583 112.597 133.471 113.36 132.884 113.604C132.5 113.168 131.586 112.856 131.003 115.092C130.42 117.327 128.982 117.668 128.336 117.559C128.656 117.306 129.127 116.742 128.453 116.508C127.61 116.215 124.818 116.803 124.194 119.875C123.694 122.332 121.873 123.839 121.025 124.285C121.247 123.514 121.533 122.075 120.896 122.482C120.099 122.992 118.853 127.575 116.693 127.709C114.534 127.843 112.333 126.973 112.381 128.853C112.43 130.734 109.658 131.856 108.479 131.939C107.3 132.021 105.728 133.634 106.072 133.842C106.416 134.049 104.44 137.77 103.335 137.324C102.229 136.879 102.044 139.29 101.602 139.64C101.159 139.99 99.0523 138.312 97.8876 141.162C96.9558 143.441 94.6836 144.011 93.6641 144.01C94.0084 143.738 94.5859 142.886 94.1405 141.655C93.5837 140.116 91.9283 143.033 91.5224 143.725C91.1165 144.416 92.1362 146.249 90.1955 146.752C88.2549 147.256 87.8928 149.604 88.0911 152.434C88.2497 154.697 85.8081 156.473 84.5675 157.078C84.7386 156.839 85.1078 156.199 85.2154 155.546C85.3499 154.73 85.0664 153.586 82.2118 153.554C79.3572 153.522 80.0398 158.017 80.4308 160.038C80.8219 162.059 76.4986 159.485 75.7406 159.211C75.1342 158.991 74.9226 160.149 74.8926 160.755C74.0904 160.16 72.2304 159.059 71.2082 159.414C69.9305 159.857 71.7055 161.924 70.6656 163.524C69.6257 165.125 67.3403 163.746 66.5996 164.332C65.8588 164.917 65.6054 166.746 62.8524 167.294C60.0993 167.842 61.0461 167.589 60.9867 170.397C60.9274 173.206 58.3197 172.577 58.0865 173.894C57.9 174.948 56.4267 175.914 55.7133 176.266C56.3092 175.228 56.5657 173.17 52.8249 173.239C49.3171 173.303 48.1674 171.19 47.9867 169.926C47.8875 169.813 47.9073 169.73 47.9631 169.686C47.9669 169.762 47.9747 169.842 47.9867 169.926C48.1169 170.075 48.4526 170.276 49.1821 170.513C50.7878 171.034 52.3874 169.471 53.0152 168.378C53.5176 167.504 51.7412 167.396 50.7903 167.451C51.5861 166.822 53.352 165.784 54.0489 166.666C54.9201 167.768 57.4571 165.314 57.9057 163.617C58.3543 161.919 63.8913 162.317 65.8581 160.463C67.825 158.61 67.5712 155.08 67.0438 154.602C66.6219 154.219 65.4599 155.556 64.9317 156.272C65.433 155.144 66.6752 152.626 67.6336 151.573C68.8316 150.257 71.035 150.402 72.7135 151.015C74.392 151.628 70.297 146.961 72.4934 146.475C74.6898 145.99 77.161 143.507 78.661 142.855C80.1609 142.203 79.2897 136.818 80.2984 135.34C81.307 133.863 84.852 136.705 86.1527 136.932C87.4533 137.16 87.3327 135.466 86.1281 135.696C85.1645 135.881 84.3368 134.015 84.0435 133.06C84.8429 134.688 88.034 133.787 88.8972 132.256C89.7605 130.725 91.6891 130.049 93.0319 130.239C94.3747 130.428 95.3693 129.113 95.9249 127.952C96.4805 126.79 96.5128 126.476 99.1691 126.109C101.825 125.741 102.127 125.146 102.322 124.15C102.517 123.154 103.235 121.162 105.032 121.05C106.83 120.938 106.498 119.593 106.194 119.208C105.95 118.9 105.099 119.608 104.704 120.001C104.735 118.872 105.211 116.805 106.859 117.566C108.919 118.516 109.714 116.502 109.37 115.58C109.095 114.843 108.419 114.215 108.115 113.993C108.547 114.037 109.669 114.303 110.698 115.021C111.985 115.918 112.937 115.417 113.032 115.149C113.109 114.934 110.971 112.923 109.892 111.944C110.128 111.985 110.868 112.211 111.943 112.796C113.286 113.527 114.908 110.935 116.642 110.322C118.376 109.71 119.229 110.842 120.838 111.03C122.446 111.218 123.052 109.353 122.3 108.725C121.548 108.097 121.022 108.585 120.162 108.79C119.475 108.955 118.524 108.565 118.135 108.35C118.567 108.456 119.538 108.474 119.967 107.694C120.503 106.718 124.578 106.044 125.811 105.949C127.043 105.855 127.587 104.194 128.41 103.014C129.233 101.835 131.165 102.366 131.176 101.708C131.187 101.05 132.964 98.267 133.051 98.1989C133.137 98.1307 136.224 96.4742 135.584 96.1961C135.072 95.9735 134.463 96.8209 134.222 97.2724C134.203 97.0052 134.233 96.2635 134.515 95.434C134.867 94.3971 137.951 93.5042 139.438 92.8524C143.539 91.0544 142.947 88.212 141.861 88.9322C140.993 89.5083 140.465 90.6999 140.222 91.3517C140.121 90.788 139.982 90.3368 140.639 88.935C141.46 87.1828 146.513 85.1908 149.64 84.7865Z" fill="#FFC200" fill-opacity="0.8"/>
<path d="M54.7461 155.541C55.0649 154.745 56.9422 155.466 57.841 155.926C57.6244 156.097 57.2518 156.696 57.4936 157.72C57.796 159.001 58.436 159.48 57.8248 160.934C57.3359 162.098 56.0964 161.977 55.5377 161.771C55.6957 161.588 56.0806 160.955 56.3562 159.89C56.7007 158.559 54.3475 156.536 54.7461 155.541Z" fill="#FFC200" fill-opacity="0.8"/>
<path d="M52.6228 27.958L56.1229 38.8863H49.1228L52.6228 27.958Z" fill="#212121"/>
<path d="M225.48 175.666L214.552 179.166L214.552 172.165L225.48 175.666Z" fill="#212121"/>
</svg>
