<svg width="232" height="219" viewBox="0 0 232 219" fill="none" xmlns="http://www.w3.org/2000/svg">
<path d="M113.336 146.607C113.387 146.773 113.521 146.901 113.69 146.945C114.226 147.082 114.833 147.437 115.487 148.011C116.136 148.581 116.807 149.345 117.47 150.26L117.763 150.665L118.163 150.375C120.056 153.116 121.787 156.915 122.782 160.617L122.301 160.738L122.424 161.223C122.892 163.082 123.16 164.889 123.16 166.494C123.16 167.768 123.116 168.999 123.029 170.186L122.993 170.685L123.489 170.721C123.271 173.335 122.847 175.746 122.239 177.968L121.762 177.831L121.624 178.311C120.907 180.791 119.954 183.026 118.798 185.04L118.549 185.474L118.979 185.72C117.686 187.885 116.156 189.796 114.427 191.483L114.087 191.123L113.723 191.466C111.958 193.131 109.988 194.571 107.853 195.816L107.421 196.067L107.671 196.497C105.572 197.682 103.325 198.684 100.966 199.531L100.803 199.061L100.33 199.225C98.0557 200.017 95.6767 200.667 93.2256 201.199L92.7369 201.305L92.8427 201.792C90.4718 202.29 88.0396 202.681 85.5751 202.985L85.5163 202.49L85.0198 202.549C82.5816 202.838 80.1121 203.045 77.6393 203.19L77.1402 203.219L77.1694 203.717C74.7047 203.854 72.2404 203.931 69.8045 203.969L69.7978 203.469L69.2978 203.476C68.0525 203.493 66.8149 203.5 65.5886 203.5C64.3595 203.5 63.122 203.487 61.8797 203.459L61.3799 203.448L61.3687 203.947C58.9222 203.884 56.458 203.762 54.0026 203.562L54.0451 203.065L53.5469 203.023C51.0744 202.811 48.6142 202.52 46.1935 202.132L45.6998 202.053L45.6209 202.545C43.1675 202.138 40.7549 201.629 38.4113 201L38.5441 200.52L38.0621 200.387C35.6493 199.72 33.316 198.923 31.0932 197.977L30.6332 197.781L30.4383 198.238C28.1527 197.237 25.9835 196.074 23.9652 194.727L24.2465 194.318L23.8344 194.035C21.8105 192.644 19.9487 191.062 18.2843 189.265L17.9445 188.898L17.5806 189.235C15.9726 187.443 14.5524 185.442 13.3535 183.213L13.794 182.985L13.5642 182.541C12.4916 180.469 11.6087 178.197 10.9429 175.707L10.8138 175.223L10.3339 175.352C9.76417 173.103 9.36744 170.684 9.16221 168.083L9.65855 168.049L9.62419 167.55C9.54202 166.357 9.5 165.125 9.5 163.853C9.5 162.523 9.54568 161.166 9.63514 159.786L9.66747 159.287L9.17033 159.255C9.36189 156.597 9.71229 153.859 10.2075 151.069L10.698 151.159L10.7881 150.667C11.2682 148.046 11.8759 145.38 12.5996 142.692L12.7296 142.209L12.2479 142.079C12.9646 139.464 13.7896 136.832 14.712 134.203L15.1822 134.37L15.3497 133.899C16.2571 131.346 17.2566 128.797 18.3381 126.273L18.5351 125.814L18.0764 125.617C19.1683 123.095 20.3414 120.6 21.5859 118.15L22.03 118.378L22.2581 117.933C23.5117 115.489 24.8363 113.092 26.2221 110.763L26.4778 110.333L26.049 110.078C27.4828 107.69 28.9806 105.375 30.5319 103.154L30.9396 103.442L31.2278 103.033C32.834 100.755 34.496 98.5807 36.2017 96.5334L36.5217 96.1492L36.1386 95.83C37.9645 93.6623 39.8401 91.6393 41.7511 89.7898L42.095 90.1503L42.4568 89.8051C44.5093 87.8468 46.5989 86.0941 48.7075 84.5819L49.1139 84.2906L48.824 83.8863C51.1988 82.2198 53.6002 80.8545 56.0037 79.8404L56.1891 80.3004L56.6528 80.1135C57.9337 79.5972 59.2121 79.1843 60.4843 78.8817C60.6157 78.8505 60.7288 78.7674 60.798 78.6515C60.8672 78.5355 60.8866 78.3965 60.8517 78.2661L59.317 72.5291L59.1878 72.0461L58.7048 72.1753L55.5102 60.2331L55.9933 60.1039L55.8641 59.6209L54.5709 54.7867L56.5658 55.4631L57.0394 55.6237L57.1999 55.1501L62.7328 57.0261L62.5723 57.4996L63.0458 57.6601L65.9258 58.6366C66.0748 58.6871 66.2389 58.6646 66.3687 58.5757C66.4985 58.4869 66.579 58.3421 66.5859 58.185L66.6432 56.8767L66.6651 56.3771L66.1656 56.3553L66.2508 54.4106L66.7503 54.4325L66.7722 53.933L66.8003 53.2902L70.2462 54.4585L70.7197 54.6191L70.8802 54.1456L79.1059 56.9345L78.9453 57.408L79.4189 57.5685L83.4956 58.9507L87.5724 60.333L88.0459 60.4935L88.2064 60.02L96.4321 62.8089L96.2715 63.2824L96.7451 63.443L100.186 64.6096L99.7338 65.2468L99.4444 65.6545L99.8521 65.9439L98.5392 67.7937L98.1314 67.5043L97.842 67.912L97.0012 69.0965C96.91 69.225 96.8847 69.389 96.933 69.5391C96.9813 69.6891 97.0975 69.8076 97.2465 69.8588L101.134 71.1943L101.607 71.3568L101.77 70.8839L109.572 73.5639L109.409 74.0368L109.882 74.1992L112.626 75.142L111.336 75.7708L110.886 75.9898L111.105 76.4393L106.655 78.6078L106.436 78.1583L105.987 78.3773L103.609 79.5357L103.609 79.5357L103.602 79.5392L99.9459 81.3914L99.4999 81.6173L99.7258 82.0634L92.3905 85.779L92.1646 85.333L91.7186 85.5589L88.062 87.4111C87.9091 87.4886 87.8066 87.6389 87.7902 87.8094C87.7738 87.98 87.8459 88.147 87.9813 88.2521C89.0016 89.0443 90.0165 89.8713 91.0215 90.7286L91.4018 91.0531L91.7254 90.6738C93.692 92.3705 95.6172 94.18 97.4667 96.0676L97.1087 96.4148L97.4568 96.7737C99.2878 98.6619 101.041 100.625 102.682 102.629L102.999 103.016L103.385 102.7C105.075 104.787 106.642 106.915 108.05 109.046L107.633 109.318L107.905 109.737C109.394 112.026 110.692 114.311 111.753 116.546L111.967 116.998L112.417 116.784C113.604 119.354 114.477 121.858 114.966 124.223L114.479 124.313L114.57 124.805C114.817 126.136 114.934 127.414 114.911 128.624H114.911V128.634C114.911 130.183 114.871 131.578 114.804 132.836L114.777 133.336L115.274 133.362C115.034 137.306 114.522 139.897 114.131 141.795L113.641 141.695L113.541 142.185C113.173 143.977 112.925 145.264 113.336 146.607Z" fill="#F7F9FA" stroke="#BABABA" stroke-linecap="square" stroke-linejoin="round" stroke-dasharray="8 9"/>
<path d="M68.1929 161.593L68.2455 160.976L68.5843 156.998L68.6267 156.5L69.1249 156.543L69.8023 148.59L69.3041 148.548L69.3466 148.049L69.6853 144.072L69.7402 143.429L70.3496 143.643C70.6 143.731 70.8462 143.821 71.0883 143.912L71.5562 144.088L71.3788 144.559C71.613 144.652 71.8428 144.745 72.0684 144.84L72.2719 144.379L72.7294 144.58C72.9737 144.688 73.213 144.798 73.4473 144.909C73.6642 145.012 73.8749 145.12 74.0794 145.232L74.5177 145.473L74.2716 145.921C74.4247 146.015 74.5734 146.111 74.7178 146.21L75.0305 145.803L75.4271 146.107C75.618 146.254 75.8012 146.406 75.9768 146.564C76.1483 146.712 76.3111 146.866 76.4648 147.026L76.8113 147.386L76.4368 147.746C76.5256 147.855 76.6103 147.965 76.6907 148.079L77.1391 147.813L77.3938 148.243C77.508 148.436 77.612 148.635 77.7058 148.839C77.8139 149.052 77.908 149.274 77.9885 149.504L78.1537 149.976L77.6595 150.149C77.6989 150.307 77.7321 150.469 77.7592 150.636L78.2756 150.591L78.3186 151.09C78.3385 151.32 78.3484 151.556 78.3484 151.798C78.3484 152.38 78.3103 152.94 78.2333 153.479L78.1626 153.974L77.6553 153.902C77.4804 154.8 77.1868 155.624 76.7743 156.373L77.2097 156.65L76.9412 157.072C76.6358 157.552 76.2815 158 75.8789 158.417L68.1929 161.593ZM68.1929 161.593L68.808 161.514C69.4353 161.433 70.0335 161.325 70.602 161.192L71.0888 161.078L70.9728 160.583C72.0085 160.303 72.9281 159.929 73.7313 159.46M68.1929 161.593L73.7313 159.46M73.7313 159.46L74.0146 159.889L74.4318 159.613C74.9665 159.26 75.4493 158.861 75.8787 158.417L73.7313 159.46ZM66.5317 117.162L66.584 116.548L65.9727 116.623C65.632 116.665 65.3015 116.713 64.9813 116.767L64.4884 116.851L64.5736 117.351C64.1644 117.432 63.775 117.525 63.4054 117.629L63.248 117.144L62.7724 117.299C62.4391 117.407 62.1212 117.525 61.8189 117.654C61.5721 117.754 61.334 117.859 61.1047 117.97L60.6546 118.187L60.8777 118.649C60.6707 118.762 60.473 118.881 60.2845 119.005L59.9734 118.593L59.5743 118.894C59.356 119.059 59.1503 119.232 58.9575 119.413C58.7868 119.574 58.6256 119.74 58.4741 119.911L58.1424 120.285L58.5305 120.629C58.4373 120.751 58.3492 120.876 58.2663 121.004L57.8083 120.756L57.5706 121.196C57.459 121.402 57.359 121.614 57.2705 121.831L57.2677 121.838L57.2651 121.845C57.1865 122.055 57.1172 122.268 57.0571 122.483L56.9229 122.965L57.4211 123.104C57.3934 123.239 57.3694 123.375 57.3492 123.511L56.8343 123.47L56.7942 123.968C56.7765 124.189 56.7676 124.412 56.7676 124.636C56.7676 124.879 56.7769 125.116 56.7955 125.348L56.8356 125.847L57.3506 125.805C57.3762 125.977 57.4078 126.145 57.4453 126.309L56.9488 126.467L57.1002 126.943C57.1751 127.179 57.2628 127.407 57.3634 127.627L57.3678 127.637L57.3727 127.646C57.473 127.843 57.5809 128.035 57.6966 128.224L57.9582 128.65L58.3978 128.38C58.4744 128.489 58.5539 128.596 58.6364 128.701L58.2505 129.042L58.5815 129.417C58.7257 129.58 58.8769 129.739 59.0349 129.894L59.0426 129.902L59.0507 129.909C59.2255 130.066 59.4073 130.22 59.5958 130.369L59.9875 130.68L60.3049 130.28C60.4477 130.384 60.5943 130.486 60.7448 130.586L60.4786 131.02L60.9048 131.281C61.1026 131.403 61.306 131.521 61.5149 131.636L61.5148 131.636L61.5254 131.642C61.7526 131.76 61.9849 131.877 62.2222 131.992L62.6724 132.209L62.892 131.755C63.1072 131.854 63.3266 131.952 63.5501 132.049L63.3576 132.514L63.8196 132.705C64.0556 132.803 64.2958 132.899 64.5402 132.994L65.1623 133.235L65.2189 132.57L65.5278 128.944L65.5703 128.446L65.0721 128.404L65.6822 121.243L66.1804 121.285L66.2228 120.787L66.5317 117.162ZM70.49 134.478L70.4551 134.883L70.8446 135C71.3218 135.143 71.7982 135.29 72.2739 135.44L72.7505 135.591L72.9011 135.116C73.6559 135.359 74.4088 135.612 75.1596 135.875L74.9925 136.345L75.4636 136.513C75.9329 136.679 76.4014 136.85 76.8691 137.024L76.8691 137.024L76.8748 137.027C77.3212 137.187 77.7565 137.358 78.1807 137.541L78.64 137.738L78.8354 137.284C79.5216 137.598 80.1795 137.941 80.8089 138.314L80.5466 138.732L80.9703 138.998C81.3677 139.247 81.7528 139.509 82.1256 139.783L82.129 139.785C82.4934 140.049 82.8409 140.327 83.1717 140.621L83.5456 140.953L83.8714 140.586C84.3822 141.074 84.8522 141.601 85.2815 142.166L84.8802 142.448L85.168 142.857C85.4223 143.218 85.6605 143.595 85.8828 143.987L85.8845 143.99C86.1274 144.412 86.3397 144.864 86.5208 145.347L86.6965 145.815L87.1537 145.643C87.4023 146.412 87.5791 147.245 87.6843 148.142L87.1938 148.184L87.2365 148.682C87.2788 149.174 87.3 149.687 87.3 150.22C87.3 150.797 87.2775 151.365 87.2327 151.926L87.1928 152.424L87.6853 152.464C87.5827 153.449 87.4113 154.41 87.171 155.348L86.6963 155.213L86.5597 155.694C86.4045 156.24 86.225 156.778 86.021 157.307C85.8211 157.819 85.5994 158.318 85.3558 158.803L85.1314 159.25L85.5719 159.471C85.131 160.29 84.6271 161.072 84.0603 161.814L83.6768 161.505L83.3626 161.894C83.0223 162.315 82.6603 162.723 82.2764 163.118C81.874 163.526 81.4492 163.917 81.0019 164.289L80.6179 164.61L80.9338 164.989C80.1635 165.597 79.3325 166.157 78.441 166.669L78.2046 166.235L77.7655 166.474C77.2648 166.746 76.7448 167.004 76.2054 167.248C75.6073 167.511 74.987 167.747 74.3444 167.956L73.8691 168.111L74.0223 168.581C72.9126 168.915 71.7423 169.173 70.5112 169.354L70.4476 168.863L69.9518 168.927C69.3023 169.011 68.6354 169.074 67.9509 169.116L67.5191 169.142L67.4832 169.573L67.3636 171.01L67.3222 171.508L67.8204 171.55L67.6344 173.785L67.1361 173.744L67.0946 174.242L66.975 175.679L66.9742 175.688L66.9738 175.698C66.9683 175.822 66.9506 175.942 66.921 176.06L66.8227 176.449L66.543 176.81C66.4658 176.909 66.3772 177.008 66.2763 177.107L66.2669 177.117L66.258 177.126C66.1594 177.234 66.0562 177.327 65.9487 177.406L65.5783 177.679L65.1056 177.76C64.972 177.783 64.8298 177.795 64.6784 177.795H63.7717H63.2717V178.295H62.2315V177.795H61.7315H61.3695L61.5023 176.247L61.545 175.748L61.0469 175.706L61.365 171.997L61.8631 172.039L61.9059 171.541L62.0852 169.45L62.1259 168.975L61.6535 168.912C60.9016 168.811 60.1603 168.687 59.4296 168.539L58.9395 168.441L58.8414 168.927C57.4761 168.631 56.147 168.253 54.854 167.795L55.0271 167.33L54.5586 167.156C53.8541 166.893 53.1608 166.606 52.4785 166.295C51.8383 166.002 51.2203 165.694 50.6243 165.371L50.1848 165.132L49.9485 165.568C48.8328 164.937 47.7939 164.251 46.8316 163.509L47.1419 163.124L46.7524 162.81C46.3229 162.464 45.9099 162.107 45.5135 161.738L46.0295 160.986L46.3123 160.573L45.8999 160.29L47.0382 158.631L47.4506 158.913L47.7333 158.501L48.4906 157.397L48.4918 157.395C48.5481 157.312 48.6082 157.234 48.672 157.159L48.8881 156.907L49.1657 156.713C49.2463 156.657 49.3313 156.604 49.4208 156.555L49.4208 156.555L49.4291 156.55C49.5235 156.496 49.6183 156.448 49.7135 156.407L50.0426 156.265L50.3906 156.221C50.4931 156.208 50.5975 156.202 50.7038 156.202C50.8354 156.202 50.9714 156.214 51.1123 156.24L51.5924 156.326L51.5869 156.337L52.0324 156.564C52.1612 156.63 52.2932 156.705 52.4283 156.79L52.4344 156.794L52.4405 156.797C52.623 156.905 52.8123 157.018 53.0086 157.137L53.4363 157.396L53.6943 156.97C53.8337 157.056 53.9762 157.144 54.1218 157.235L53.8548 157.656L54.2771 157.924C54.4593 158.04 54.646 158.159 54.8373 158.282L54.8372 158.282L54.8466 158.288C55.08 158.431 55.3214 158.575 55.5709 158.719L56.0035 158.97L56.2558 158.534C56.5022 158.673 56.7562 158.812 57.0178 158.952L56.7852 159.398L57.2284 159.629C57.4713 159.756 57.7201 159.883 57.9748 160.011C58.2837 160.166 58.606 160.311 58.9417 160.444L59.4062 160.629L59.5947 160.156C59.9861 160.294 60.3962 160.42 60.825 160.532L60.7112 161.026L61.1985 161.138C61.5297 161.214 61.8704 161.283 62.2207 161.344L62.7592 161.439L62.8052 160.894L63.1738 156.526L63.2159 156.028L62.7177 155.985L63.4631 147.154L63.9613 147.196L64.0033 146.697L64.372 142.329L64.4069 141.916L64.0069 141.805C63.5361 141.675 63.0661 141.54 62.5968 141.399L62.1179 141.255L61.9747 141.732C61.2356 141.505 60.4984 141.263 59.7632 141.009L59.9295 140.539L59.4582 140.372C58.9982 140.21 58.539 140.041 58.0805 139.868C57.6415 139.699 57.2124 139.519 56.793 139.326L56.3386 139.117L56.1323 139.566C55.4613 139.239 54.8149 138.88 54.1931 138.49L54.4659 138.078L54.0491 137.802C53.6621 137.545 53.2852 137.276 52.9185 136.994C52.5617 136.707 52.2213 136.403 51.8971 136.082L51.542 135.73L51.1965 136.078C50.6973 135.546 50.238 134.971 49.8186 134.353L50.2345 134.09L49.9678 133.668C49.7259 133.284 49.4986 132.883 49.286 132.466C49.0463 131.996 48.8371 131.494 48.6588 130.957L48.501 130.483L48.0359 130.638C47.7865 129.778 47.6105 128.845 47.508 127.841L48.0003 127.804L47.9622 127.305C47.9213 126.769 47.9007 126.212 47.9007 125.633C47.9007 125.151 47.9237 124.672 47.9695 124.197L48.0176 123.699L47.528 123.652C47.6281 122.879 47.7872 122.115 48.0053 121.358L48.4737 121.509L48.6271 121.033C48.773 120.58 48.9411 120.13 49.1313 119.682L49.1323 119.68C49.327 119.215 49.5433 118.762 49.7811 118.322L50.0186 117.882L49.5857 117.648C50.0021 116.933 50.4756 116.249 51.0063 115.598L51.3786 115.92L51.7059 115.542C52.0309 115.167 52.3766 114.802 52.7431 114.449C53.1413 114.072 53.5614 113.711 54.0035 113.365L54.3976 113.058L54.094 112.669C54.8403 112.118 55.6432 111.609 56.5028 111.143L56.7286 111.583L57.1734 111.355C57.6612 111.105 58.1673 110.867 58.692 110.643C59.2782 110.393 59.8867 110.17 60.5178 109.973L60.9952 109.825L60.8484 109.353C61.928 109.045 63.0675 108.812 64.2669 108.655L64.3223 109.147L64.8192 109.091C65.4539 109.019 66.1061 108.969 66.7757 108.939L67.2127 108.919L67.2514 108.484L67.361 107.252L67.4054 106.754L66.9073 106.71L67.0653 104.936L67.5633 104.98L67.6077 104.482L67.7173 103.251L67.7174 103.249C67.7286 103.117 67.7505 102.989 67.7829 102.865L67.8917 102.449L68.1635 102.078C68.2401 101.973 68.3274 101.87 68.4258 101.768C68.5257 101.664 68.6316 101.575 68.7434 101.498L69.1217 101.239L69.1218 101.24L69.616 101.164C69.7536 101.142 69.9003 101.131 70.0565 101.131H70.9632H71.4632V100.631H72.5034V101.131H73.0034H73.3667L73.2524 102.505L73.2109 103.003L73.7092 103.045L73.4334 106.358L72.9352 106.316L72.8937 106.815L72.7343 108.73L72.6957 109.193L73.1549 109.265C73.7954 109.366 74.4161 109.484 75.017 109.619L75.5048 109.729L75.6136 109.246C76.741 109.522 77.8005 109.859 78.7921 110.259L78.5961 110.713L79.0551 110.911C79.6424 111.165 80.2032 111.442 80.7376 111.741L80.7419 111.743C81.2203 112.005 81.6837 112.275 82.1322 112.551L82.5578 112.814L82.8181 112.392C83.5892 112.885 84.3163 113.401 84.9992 113.94L84.685 114.322L85.0712 114.64C85.3775 114.892 85.674 115.148 85.9609 115.409L85.6015 115.944L85.3225 116.359L85.7375 116.638L84.9502 117.809L84.5353 117.53L84.2563 117.945L83.6585 118.834L83.6567 118.837C83.5855 118.944 83.5143 119.045 83.4432 119.14L83.1775 119.493L82.9069 119.738C82.8179 119.818 82.73 119.888 82.6432 119.949C82.5681 120.002 82.4891 120.048 82.4058 120.088L82.1308 120.219L81.7909 120.258C81.6958 120.268 81.5957 120.274 81.4903 120.274C81.4003 120.274 81.3012 120.267 81.1924 120.251L80.8722 120.204L80.48 120.064C80.3801 120.029 80.2762 119.988 80.1684 119.943C80.0201 119.874 79.8673 119.802 79.7099 119.727L79.2581 119.513L79.0445 119.964C78.9942 119.94 78.9435 119.915 78.8923 119.891L79.1105 119.442L78.6608 119.223C78.5112 119.151 78.3583 119.076 78.2022 118.999C78.014 118.9 77.8197 118.801 77.6193 118.702L77.1711 118.48L76.9475 118.933C76.8113 118.868 76.6723 118.804 76.5306 118.74L76.7319 118.278L76.2737 118.078C76.0775 117.993 75.8768 117.907 75.6715 117.822C75.4404 117.722 75.2034 117.628 74.9606 117.538L74.4918 117.364L74.3152 117.84C74.1059 117.77 73.8921 117.703 73.6738 117.638L73.8036 117.149L73.3203 117.021C73.0785 116.957 72.8319 116.896 72.5807 116.839L72.0214 116.713L71.9721 117.284L71.6234 121.33L71.5805 121.828L72.0786 121.871L71.3798 129.977L70.8817 129.934L70.8387 130.432L70.49 134.478ZM67.1221 176.626L67.2307 176.654C67.2239 176.667 67.217 176.681 67.21 176.694L67.1221 176.626ZM65.6202 177.803L65.8124 178.063C65.7672 178.084 65.7213 178.103 65.6747 178.121L65.6202 177.803ZM51.6115 156.289L51.6864 155.875C51.7247 155.888 51.7632 155.901 51.8018 155.916L51.6115 156.289ZM67.6334 102.31L67.4707 102.267C67.4796 102.248 67.4887 102.229 67.4981 102.211L67.6334 102.31ZM69.1072 101.145L68.9026 100.846C68.9517 100.825 69.0016 100.806 69.0524 100.789L69.1072 101.145Z" fill="#F7F9FA" stroke="#BABABA" stroke-linecap="square" stroke-dasharray="8 9"/>
<path d="M125.677 156.09C125.728 156.256 125.862 156.384 126.031 156.428C126.462 156.538 126.957 156.826 127.498 157.3C128.035 157.771 128.59 158.404 129.142 159.165L129.435 159.57L129.834 159.281C131.383 161.545 132.798 164.651 133.624 167.687L133.144 167.808L133.266 168.293C133.656 169.841 133.879 171.344 133.879 172.675C133.879 174.016 133.82 175.297 133.706 176.523L133.66 177.021L134.154 177.067C133.858 179.847 133.276 182.344 132.447 184.585L131.986 184.404L131.803 184.87C130.826 187.364 129.53 189.525 127.974 191.396L127.654 191.781L128.034 192.097C126.337 194.054 124.351 195.694 122.146 197.068L121.891 196.642L121.462 196.9C119.329 198.18 116.99 199.218 114.503 200.059L114.029 200.22L114.188 200.691C111.793 201.471 109.274 202.073 106.684 202.536L106.6 202.045L106.107 202.129C103.604 202.558 101.034 202.859 98.4443 203.067L97.946 203.107L97.986 203.605C95.4088 203.8 92.8177 203.907 90.2587 203.959L90.25 203.459L89.7501 203.468C88.4486 203.491 87.1558 203.5 85.8777 203.5C84.5963 203.5 83.3043 203.483 82.0071 203.446L81.5073 203.432L81.4931 203.931C78.922 203.847 76.3325 203.681 73.7683 203.405L73.8245 202.91L73.3277 202.854C70.7426 202.561 68.1896 202.153 65.7134 201.601L65.2254 201.492L65.117 201.978C62.5541 201.385 60.0737 200.634 57.726 199.693L57.9163 199.234L57.4545 199.043C55.044 198.043 52.7869 196.838 50.7373 195.391L50.3288 195.102L50.0428 195.507C47.9625 193.986 46.0973 192.207 44.5068 190.132L44.9056 189.839L44.6092 189.436C43.1651 187.474 41.9645 185.248 41.0576 182.722L40.8887 182.251L40.4221 182.418C39.6477 180.139 39.105 177.629 38.8277 174.864L39.3227 174.82L39.279 174.322C39.1708 173.09 39.1151 171.806 39.1151 170.469C39.1151 169.143 39.1696 167.785 39.2758 166.399L39.3141 165.901L38.8176 165.863C39.0433 163.211 39.4538 160.47 40.0296 157.677L40.5172 157.781L40.6212 157.292C41.1758 154.684 41.8741 152.032 42.7004 149.37L42.8487 148.893L42.3723 148.745C43.1926 146.148 44.1327 143.545 45.1779 140.964L45.6394 141.154L45.8292 140.691C46.8643 138.168 47.9998 135.669 49.2217 133.222L49.4451 132.774L48.9987 132.552C50.2499 130.073 51.5889 127.651 53.0012 125.313L53.4269 125.573L53.6875 125.146C55.137 122.773 56.6617 120.491 58.2461 118.331L58.5419 117.928L58.1399 117.633C59.8317 115.355 61.5901 113.215 63.3968 111.253L63.7608 111.593L64.1022 111.227C66.0462 109.147 68.0418 107.277 70.0656 105.663L70.4565 105.351L70.1465 104.963C72.457 103.161 74.8062 101.689 77.1612 100.615L77.3586 101.069L77.8172 100.87C79.0937 100.316 80.3677 99.883 81.6337 99.5819C81.765 99.5507 81.8782 99.4676 81.9473 99.3517C82.0165 99.2357 82.0359 99.0967 82.001 98.9663L80.7193 94.1748L80.59 93.6918L80.107 93.821L77.4816 84.0061L77.9646 83.8769L77.8354 83.3939L76.7951 79.5052L78.3154 80.0207L78.7889 80.1812L78.9495 79.7077L83.4145 81.2216L83.2539 81.6951L83.7275 81.8556L86.1328 82.6712C86.2818 82.7217 86.4459 82.6991 86.5757 82.6103C86.7056 82.5215 86.786 82.3767 86.7929 82.2195L86.8408 81.1268L86.8627 80.6273L86.3631 80.6054L86.4271 79.1459L86.9266 79.1678L86.9485 78.6683L86.9672 78.2411L89.7412 79.1817L90.2147 79.3422L90.3753 78.8687L97.0892 81.145L96.9286 81.6186L97.4022 81.7791L100.807 82.9335L104.212 84.088L104.685 84.2485L104.846 83.775L111.56 86.0514L111.399 86.5249L111.873 86.6854L114.642 87.6243L114.328 88.0662L114.039 88.474L114.447 88.7634L113.446 90.1739L113.038 89.8845L112.748 90.2922L112.046 91.2815C111.955 91.41 111.93 91.574 111.978 91.7241C112.026 91.8741 112.142 91.9926 112.291 92.0438L115.539 93.1592L116.011 93.3216L116.174 92.8488L122.534 95.0336L122.372 95.5065L122.844 95.6689L124.948 96.3915L124.049 96.8295L123.6 97.0485L123.819 97.498L120.25 99.2369L120.031 98.7874L119.582 99.0064L117.596 99.9739L117.596 99.9739L117.589 99.9773L114.535 101.524L114.089 101.75L114.315 102.196L108.336 105.225L108.11 104.779L107.664 105.005L104.61 106.552C104.457 106.629 104.355 106.78 104.338 106.95C104.322 107.121 104.394 107.288 104.529 107.393C105.8 108.38 107.061 109.431 108.299 110.535L108.673 110.868L109.004 110.496C111.492 112.742 113.88 115.192 116.066 117.741L115.686 118.063L116.009 118.444C118.192 121.023 120.16 123.695 121.808 126.35L122.072 126.775L122.495 126.513C124.406 129.656 125.866 132.774 126.701 135.69L126.223 135.816L126.351 136.299C126.795 137.98 127.017 139.572 126.989 141.045L126.989 141.045V141.054C126.989 142.347 126.956 143.51 126.9 144.56L126.873 145.059L127.37 145.086C127.17 148.278 126.758 150.401 126.437 151.966L125.947 151.866L125.846 152.355C125.54 153.848 125.327 154.945 125.677 156.09Z" fill="#EFF2F4" stroke="#BABABA" stroke-linecap="square" stroke-linejoin="round" stroke-dasharray="8 9"/>
<path d="M87.9619 168.677L88.0146 168.059L88.2975 164.737L88.3399 164.239L88.8381 164.281L89.3899 157.804L88.8917 157.761L88.9341 157.263L89.2171 153.941L89.2719 153.298L89.8813 153.512C90.091 153.586 90.2972 153.661 90.4999 153.737L90.9679 153.913L90.7902 154.386C90.9333 154.442 91.0744 154.5 91.2135 154.558L91.4173 154.096L91.8748 154.297C92.0796 154.388 92.2801 154.48 92.4765 154.573C92.6591 154.66 92.8365 154.75 93.0088 154.845L93.4471 155.086L93.1998 155.536C93.2793 155.586 93.3574 155.636 93.434 155.688L93.7483 155.278L94.1449 155.583C94.3058 155.706 94.4603 155.834 94.6083 155.967C94.7532 156.093 94.8908 156.223 95.0208 156.358L95.3673 156.719L94.9899 157.081C95.0281 157.129 95.0653 157.178 95.1015 157.227L95.5534 156.96L95.8081 157.39C95.9047 157.553 95.9927 157.721 96.0721 157.894C96.1637 158.075 96.2435 158.263 96.3118 158.458L96.4769 158.93L95.9785 159.104C95.9971 159.184 96.0137 159.266 96.0285 159.349L96.5487 159.304L96.5918 159.802C96.6086 159.997 96.6169 160.197 96.6169 160.401C96.6169 160.89 96.5849 161.362 96.52 161.817L96.4493 162.312L95.9395 162.239C95.7977 162.929 95.5709 163.566 95.2593 164.15L95.6972 164.428L95.4288 164.85C95.1707 165.256 94.8712 165.634 94.5311 165.986M87.9619 168.677L94.1717 165.639M87.9619 168.677L88.577 168.597M87.9619 168.677L88.577 168.597M94.5311 165.986L94.1717 165.639M94.5311 165.986C94.5312 165.986 94.5312 165.986 94.5313 165.986L94.1717 165.639M94.5311 165.986C94.1681 166.362 93.7602 166.699 93.3089 166.997L92.8917 167.273L92.6068 166.841C92.7535 166.758 92.8957 166.671 93.0333 166.58C93.4556 166.301 93.8351 165.987 94.1717 165.639M88.577 168.597C89.1035 168.529 89.6058 168.439 90.0836 168.327L90.5704 168.213M88.577 168.597L90.5704 168.213M90.5704 168.213L90.454 167.716L90.5704 168.213ZM86.7474 131.48L86.7997 130.866L86.1884 130.941C85.9026 130.976 85.6253 131.017 85.3566 131.062L84.8637 131.146L84.949 131.647C84.6657 131.705 84.3939 131.77 84.1337 131.841L83.9757 131.354L83.5001 131.509C83.2198 131.6 82.9523 131.699 82.6976 131.808C82.4901 131.892 82.2898 131.98 82.0968 132.073L81.6467 132.291L81.871 132.755C81.749 132.824 81.631 132.894 81.517 132.967L81.2039 132.553L80.8048 132.854C80.6202 132.993 80.4461 133.14 80.2829 133.293C80.1386 133.429 80.0022 133.569 79.874 133.714L79.5423 134.088L79.9332 134.435C79.89 134.493 79.8482 134.553 79.8078 134.613L79.3462 134.363L79.1085 134.803C79.0139 134.978 78.9291 135.158 78.854 135.342L78.8513 135.348L78.8487 135.355C78.7822 135.533 78.7236 135.713 78.6728 135.895L78.5386 136.377L79.0401 136.517C79.0288 136.576 79.0183 136.635 79.0087 136.694L78.4905 136.653L78.4504 137.151C78.4354 137.338 78.428 137.526 78.428 137.716C78.428 137.92 78.4358 138.121 78.4515 138.317L78.4916 138.815L79.01 138.774C79.0243 138.861 79.0405 138.947 79.0585 139.032L78.5582 139.191L78.7096 139.667C78.7731 139.867 78.8475 140.061 78.933 140.248L78.9374 140.257L78.9423 140.267C79.027 140.433 79.1183 140.596 79.216 140.755L79.4777 141.181L79.9199 140.909C79.9529 140.955 79.9865 141 80.0207 141.045L79.6325 141.388L79.9636 141.763C80.0853 141.901 80.2129 142.035 80.3463 142.166L80.354 142.173L80.3621 142.181C80.5094 142.313 80.6625 142.442 80.8212 142.568L81.2129 142.879L81.5315 142.477C81.6076 142.532 81.685 142.586 81.7636 142.639L81.4965 143.074L81.9226 143.336C82.089 143.438 82.2599 143.537 82.4355 143.634L82.4354 143.634L82.446 143.64C82.6365 143.739 82.8312 143.837 83.0302 143.933L83.4803 144.151L83.7003 143.695C83.8316 143.755 83.9646 143.815 84.0994 143.874L83.9066 144.34L84.3687 144.531C84.5664 144.613 84.7676 144.693 84.9723 144.772L85.5943 145.013L85.651 144.349L85.909 141.321L85.9514 140.823L85.4532 140.78L85.9488 134.964L86.447 135.006L86.4894 134.508L86.7474 131.48ZM89.8891 145.928L89.8542 146.333L90.2437 146.45C90.6419 146.569 91.0394 146.692 91.4362 146.818L91.9129 146.969L92.0634 146.493C92.6415 146.681 93.2182 146.874 93.7935 147.075L93.6265 147.545L94.0976 147.712C94.4891 147.851 94.88 147.994 95.2702 148.139L95.2702 148.139L95.2759 148.141C95.6472 148.275 96.0092 148.417 96.3619 148.569L96.8213 148.767L97.0161 148.313C97.5366 148.554 98.0374 148.815 98.5185 149.097L98.2569 149.514L98.6805 149.78C99.0108 149.987 99.3307 150.204 99.6404 150.432L99.6438 150.435C99.9459 150.653 100.234 150.884 100.508 151.127L100.882 151.459L101.207 151.094C101.591 151.467 101.947 151.865 102.275 152.291L101.875 152.572L102.163 152.981C102.374 153.28 102.571 153.593 102.756 153.918L102.757 153.921C102.958 154.269 103.133 154.643 103.283 155.042L103.459 155.51L103.914 155.339C104.101 155.936 104.237 156.578 104.322 157.266L103.833 157.308L103.876 157.806C103.911 158.214 103.928 158.64 103.928 159.083C103.928 159.563 103.91 160.035 103.873 160.501L103.833 161L104.324 161.039C104.24 161.805 104.107 162.554 103.923 163.286L103.45 163.151L103.313 163.632C103.184 164.086 103.035 164.533 102.866 164.972C102.7 165.398 102.516 165.812 102.313 166.214L102.089 166.661L102.528 166.882C102.183 167.516 101.791 168.122 101.355 168.701L100.972 168.392L100.658 168.781C100.376 169.131 100.075 169.47 99.7562 169.798C99.4221 170.137 99.0694 170.461 98.698 170.77L98.314 171.091L98.6291 171.468C98.0247 171.941 97.3761 172.378 96.6833 172.78L96.4474 172.347L96.0083 172.586C95.5919 172.812 95.1595 173.027 94.7108 173.229C94.2141 173.448 93.6988 173.644 93.1649 173.818L92.6895 173.973L92.8424 174.442C91.9637 174.702 91.0397 174.905 90.0704 175.052L90.007 174.561L89.5111 174.625C88.9706 174.695 88.4155 174.748 87.8455 174.782L87.4137 174.809L87.3779 175.24L87.278 176.44L87.2365 176.938L87.7348 176.98L87.5931 178.682L87.0948 178.641L87.0533 179.139L86.9534 180.339L86.9526 180.349L86.9522 180.358C86.9479 180.456 86.9339 180.551 86.9106 180.644L86.8327 180.953L86.6097 181.24C86.5476 181.32 86.4761 181.4 86.3943 181.48L86.3849 181.49L86.376 181.499C86.297 181.585 86.2147 181.659 86.1294 181.722L85.8358 181.939L85.4603 182.003C85.3536 182.021 85.2395 182.031 85.1174 182.031H84.3601H83.8601V182.531H83.1562V182.031H82.6562H82.4436L82.5469 180.827L82.5896 180.329L82.0914 180.286L82.343 177.353L82.8412 177.396L82.8839 176.897L83.0337 175.151L83.0744 174.676L82.602 174.613C81.9757 174.529 81.3584 174.425 80.75 174.303L80.2598 174.204L80.1619 174.69C79.0771 174.451 78.0198 174.151 76.9899 173.789L77.1627 173.325L76.6941 173.15C76.1076 172.932 75.5304 172.693 74.9623 172.433C74.4294 172.19 73.9149 171.933 73.4188 171.664L72.9793 171.426L72.7433 171.861C71.8638 171.36 71.0418 170.817 70.2773 170.232L70.5869 169.847L70.1973 169.534C69.8589 169.262 69.5329 168.98 69.2192 168.691L69.6099 168.121L69.8927 167.709L69.4803 167.426L70.3378 166.175L70.7502 166.458L71.0329 166.046L71.6654 165.124L71.6666 165.122C71.7119 165.055 71.7602 164.992 71.8115 164.932L71.9852 164.729L72.2084 164.574C72.2733 164.529 72.3419 164.486 72.4141 164.446L72.4142 164.446L72.4225 164.441C72.4986 164.397 72.575 164.359 72.6515 164.326L72.9156 164.212L73.1945 164.177C73.2767 164.167 73.3605 164.161 73.4459 164.161C73.5506 164.161 73.6593 164.171 73.7725 164.192L74.1269 164.256L74.5181 164.455C74.6233 164.509 74.7314 164.57 74.8424 164.64L74.8484 164.644L74.8546 164.647C75.0067 164.737 75.1645 164.831 75.3282 164.93L75.7558 165.189L76.0136 164.764C76.085 164.808 76.1574 164.853 76.2307 164.898L75.9639 165.319L76.3862 165.587C76.5382 165.683 76.694 165.783 76.8536 165.886L76.8535 165.886L76.8629 165.891C77.0584 166.011 77.2606 166.132 77.4696 166.253L77.9022 166.503L78.1548 166.067C78.315 166.157 78.479 166.247 78.6467 166.337L78.4139 166.783L78.8571 167.014C79.0603 167.12 79.2685 167.227 79.4816 167.334C79.7418 167.465 80.0132 167.586 80.2957 167.699L80.7602 167.884L80.9494 167.408C81.2282 167.505 81.5182 167.594 81.8194 167.674L81.7053 168.17L82.1925 168.282C82.4706 168.346 82.7566 168.404 83.0505 168.455L83.589 168.549L83.635 168.005L83.9429 164.356L83.985 163.858L83.4867 163.816L84.0954 156.604L84.5937 156.646L84.6357 156.148L84.9436 152.5L84.9785 152.086L84.5786 151.976C84.1859 151.867 83.7939 151.754 83.4025 151.637L82.9236 151.493L82.7805 151.97C82.2157 151.795 81.6523 151.61 81.0901 151.417L81.2563 150.948L80.785 150.781C80.4015 150.645 80.0185 150.505 79.6362 150.36C79.2712 150.22 78.9145 150.07 78.566 149.91L78.1116 149.701L77.9058 150.149C77.3968 149.898 76.9049 149.625 76.43 149.33L76.7022 148.919L76.2854 148.643C75.964 148.43 75.6511 148.206 75.3466 147.972C75.0511 147.734 74.7691 147.482 74.5006 147.216L74.1454 146.864L73.8012 147.212C73.4242 146.804 73.0749 146.366 72.7531 145.899L73.1676 145.637L72.9009 145.214C72.7002 144.896 72.5116 144.564 72.3351 144.218C72.137 143.829 71.9638 143.413 71.8161 142.969L71.6584 142.495L71.195 142.649C71.0053 141.976 70.8688 141.251 70.7854 140.474L71.2764 140.437L71.2383 139.938C71.2043 139.493 71.1872 139.03 71.1872 138.548C71.1872 138.148 71.2062 137.751 71.2443 137.356L71.2923 136.859L70.8043 136.811C70.8847 136.221 71.0064 135.636 71.1695 135.056L71.6365 135.207L71.7899 134.731C71.911 134.355 72.0505 133.982 72.2084 133.61L72.2094 133.608C72.371 133.222 72.5504 132.847 72.7477 132.481L72.9853 132.041L72.5537 131.808C72.8776 131.26 73.2419 130.734 73.6467 130.231L74.0178 130.552L74.3451 130.174C74.6149 129.863 74.9018 129.56 75.206 129.267C75.5366 128.954 75.8854 128.654 76.2525 128.367L76.6466 128.059L76.3438 127.672C76.9271 127.245 77.5514 126.85 78.2168 126.486L78.4421 126.925L78.8869 126.696C79.2925 126.488 79.7135 126.291 80.15 126.105C80.6369 125.897 81.1425 125.711 81.667 125.548L82.1444 125.399L81.9979 124.929C82.8514 124.689 83.7494 124.506 84.692 124.379L84.7474 124.87L85.2442 124.814C85.7724 124.754 86.3153 124.712 86.8727 124.687L87.3097 124.668L87.3485 124.232L87.44 123.204L87.4844 122.706L86.9863 122.661L87.1036 121.344L87.6017 121.388L87.646 120.89L87.7375 119.862L87.7377 119.86C87.7467 119.754 87.7642 119.652 87.79 119.554L87.8769 119.221L88.0946 118.924C88.1563 118.839 88.2267 118.756 88.3065 118.673C88.3862 118.591 88.4704 118.519 88.559 118.459L88.8591 118.253L89.2538 118.193C89.3643 118.176 89.4826 118.167 89.6092 118.167H90.3665H90.8665V117.667H91.5704V118.167H92.0704H92.2843L92.1963 119.225L92.1548 119.723L92.6531 119.765L92.4364 122.367L91.9381 122.326L91.8967 122.824L91.7635 124.424L91.725 124.887L92.1841 124.959C92.7174 125.043 93.234 125.141 93.7341 125.254L94.2219 125.364L94.3304 124.881C95.2134 125.101 96.0461 125.366 96.8286 125.677L96.6331 126.13L97.0921 126.328C97.5801 126.539 98.0459 126.769 98.4897 127.017L98.4897 127.017L98.494 127.02C98.8923 127.238 99.2782 127.462 99.6515 127.692L100.077 127.955L100.337 127.533C100.931 127.916 101.494 128.316 102.024 128.731L101.711 129.113L102.097 129.43C102.333 129.624 102.562 129.822 102.784 130.022L102.524 130.41L102.245 130.825L102.66 131.104L102.094 131.945L101.679 131.666L101.4 132.081L100.901 132.823L100.899 132.826C100.841 132.915 100.782 132.998 100.724 133.075L100.507 133.364L100.286 133.563C100.215 133.628 100.144 133.685 100.074 133.733C100.015 133.775 99.9533 133.811 99.8878 133.842L99.6706 133.946L99.4004 133.977C99.3242 133.985 99.2437 133.99 99.1586 133.99C99.0879 133.99 99.0091 133.984 98.9218 133.971L98.6624 133.933L98.3425 133.819C98.2611 133.79 98.1762 133.757 98.0879 133.72C97.9647 133.663 97.8377 133.603 97.707 133.541L97.2811 133.339L97.2812 133.339L96.8315 133.121C96.707 133.06 96.5798 132.998 96.4499 132.934C96.2923 132.851 96.1297 132.768 95.9622 132.685L95.5139 132.464L95.2899 132.917C95.2245 132.886 95.1582 132.856 95.0913 132.825L95.293 132.363L94.8347 132.163C94.6706 132.091 94.5026 132.02 94.3309 131.948C94.1367 131.865 93.9376 131.785 93.7337 131.71L93.2649 131.536L93.0878 132.013C92.9635 131.972 92.8374 131.933 92.7094 131.894L92.8395 131.403L92.3562 131.275C92.1532 131.222 91.9464 131.171 91.7355 131.123L91.1763 130.997L91.127 131.568L90.8357 134.947L90.7928 135.445L91.291 135.488L90.7215 142.094L90.2233 142.051L90.1804 142.549L89.8891 145.928Z" fill="#EFF2F4" stroke="#BABABA" stroke-linecap="square" stroke-dasharray="8 9"/>
<path d="M142.502 164.676C142.553 164.842 142.687 164.97 142.855 165.013C143.19 165.099 143.585 165.326 144.023 165.711C144.458 166.092 144.91 166.607 145.36 167.228L145.654 167.633L146.052 167.344C147.289 169.176 148.418 171.655 149.09 174.088L148.611 174.209L148.733 174.694C149.052 175.961 149.234 177.187 149.234 178.272C149.234 179.751 149.146 181.143 148.979 182.452L148.915 182.948L149.407 183.01C148.95 186.149 148.028 188.823 146.733 191.101L146.31 190.846L146.052 191.274C144.58 193.714 142.653 195.672 140.39 197.245L139.98 197.53L140.262 197.937C137.951 199.47 135.322 200.623 132.498 201.488L132.359 201.011L131.879 201.152C129.264 201.917 126.482 202.442 123.627 202.798L123.131 202.86L123.193 203.354C120.37 203.686 117.491 203.858 114.648 203.938L114.635 203.439L114.136 203.452C112.71 203.487 111.293 203.5 109.898 203.5C108.498 203.5 107.083 203.476 105.664 203.42L105.164 203.4L105.145 203.899C102.287 203.772 99.4136 203.515 96.613 203.069L96.6953 202.578L96.2022 202.496C93.3667 202.02 90.6199 201.347 88.0537 200.415L87.5837 200.245L87.4143 200.711C84.6712 199.673 82.1344 198.332 79.9182 196.613L80.2297 196.228L79.8412 195.913C77.7195 194.194 75.9189 192.107 74.5456 189.577L74.3071 189.137L73.8727 189.373C72.6686 187.028 71.8142 184.322 71.3881 181.204L71.8806 181.144L71.8208 180.648C71.662 179.329 71.5793 177.934 71.5793 176.46C71.5793 175.106 71.6486 173.711 71.7829 172.283L71.8298 171.785L71.3344 171.738C71.6157 169.031 72.1238 166.218 72.8287 163.361L73.3117 163.484L73.4348 162.999C74.1089 160.345 74.9523 157.655 75.941 154.977L76.1142 154.508L75.6465 154.335C76.6383 151.695 77.7689 149.072 79.0153 146.512L79.4625 146.732L79.6838 146.284C80.9351 143.749 82.2997 141.28 83.7547 138.923L84.0174 138.498L83.5933 138.236C85.1365 135.77 86.7781 133.43 88.4921 131.27L88.8799 131.583L89.1937 131.194C91.0309 128.914 92.9461 126.849 94.906 125.062L95.2755 124.726L94.9406 124.358C97.2158 122.331 99.5527 120.674 101.902 119.488L102.116 119.934L102.567 119.718C103.861 119.098 105.152 118.629 106.433 118.324C106.564 118.293 106.677 118.21 106.747 118.094C106.816 117.978 106.835 117.839 106.8 117.709L105.747 113.773L105.618 113.29L105.135 113.419L103.025 105.531L103.508 105.401L103.379 104.918L102.568 101.886L103.658 102.256L104.132 102.416L104.292 101.943L107.79 103.129L107.63 103.602L108.103 103.763L110.079 104.433C110.228 104.483 110.392 104.461 110.522 104.372C110.652 104.283 110.732 104.138 110.739 103.981L110.778 103.083L110.8 102.584L110.301 102.562L110.345 101.542L110.845 101.564L110.867 101.064L110.877 100.832L113.043 101.566L113.516 101.727L113.677 101.253L119.022 103.066L118.861 103.539L119.335 103.7L122.131 104.648L124.928 105.596L125.401 105.757L125.562 105.283L130.907 107.096L130.747 107.569L131.22 107.73L133.381 108.462L133.193 108.727L132.903 109.135L133.311 109.425L132.592 110.437L132.184 110.148L131.895 110.556L131.318 111.368C131.227 111.497 131.202 111.661 131.25 111.811C131.298 111.961 131.415 112.079 131.564 112.131L134.231 113.047L134.703 113.209L134.866 112.736L139.921 114.473L139.758 114.946L140.231 115.108L141.755 115.631L141.211 115.896L140.761 116.115L140.98 116.565L138.21 117.915L137.991 117.465L137.541 117.684L135.911 118.479L135.911 118.479L135.904 118.482L133.395 119.753L132.949 119.979L133.175 120.425L128.424 122.832L128.198 122.386L127.752 122.612L125.243 123.883C125.09 123.96 124.988 124.11 124.971 124.281C124.955 124.451 125.027 124.618 125.163 124.723C126.205 125.533 127.239 126.395 128.254 127.3L128.627 127.633L128.959 127.261C130.956 129.07 132.874 131.038 134.635 133.084L134.254 133.406L134.578 133.787C136.368 135.903 137.982 138.094 139.333 140.271L139.597 140.695L140.019 140.433C141.548 142.958 142.72 145.462 143.403 147.808L142.926 147.934L143.054 148.418C143.417 149.792 143.598 151.092 143.575 152.291H143.575V152.3C143.575 153.361 143.548 154.314 143.502 155.175L143.475 155.674L143.972 155.701C143.809 158.215 143.487 159.913 143.229 161.175L142.739 161.075L142.638 161.564C142.387 162.786 142.206 163.71 142.502 164.676Z" fill="#E9EDEF" stroke="#BABABA" stroke-linecap="square" stroke-linejoin="round" stroke-dasharray="8 9"/>
<path d="M111.511 175.091L111.564 174.473L111.796 171.745L111.839 171.246L112.337 171.289L112.775 166.146L112.277 166.104L112.319 165.606L112.552 162.878L112.607 162.234L113.216 162.448C113.389 162.509 113.559 162.571 113.726 162.634L114.194 162.81L114.016 163.283C114.077 163.308 114.138 163.332 114.198 163.357L114.402 162.894L114.86 163.096C115.029 163.17 115.194 163.246 115.356 163.323C115.508 163.395 115.655 163.47 115.798 163.549L116.236 163.789L115.988 164.243C116.002 164.252 116.016 164.261 116.03 164.27L116.346 163.858L116.743 164.162C116.876 164.265 117.005 164.371 117.128 164.482C117.249 164.586 117.363 164.695 117.472 164.808L117.818 165.169L117.527 165.449L117.876 165.242L118.131 165.672C118.212 165.808 118.285 165.949 118.352 166.093C118.428 166.244 118.495 166.402 118.552 166.565L118.717 167.037L118.213 167.213C118.215 167.222 118.217 167.23 118.219 167.238L118.744 167.193L118.787 167.691C118.801 167.854 118.808 168.02 118.808 168.191C118.808 168.596 118.781 168.988 118.727 169.366L118.657 169.861L118.143 169.788C118.033 170.29 117.867 170.757 117.645 171.19L118.086 171.471L117.818 171.893C117.603 172.231 117.353 172.547 117.07 172.84L111.511 175.091ZM111.511 175.091L112.127 175.011C112.562 174.955 112.977 174.88 113.373 174.788L113.86 174.674L113.743 174.175C114.335 174.004 114.869 173.787 115.347 173.524M111.511 175.091L115.347 173.524M115.347 173.524L115.634 173.958L116.051 173.683C116.427 173.434 116.767 173.154 117.07 172.84L115.347 173.524ZM110.701 144.444L110.754 143.83L110.142 143.905C109.906 143.934 109.677 143.968 109.455 144.006L108.962 144.09L109.048 144.592C108.877 144.629 108.712 144.668 108.552 144.71L108.393 144.221L107.918 144.375C107.685 144.451 107.463 144.533 107.252 144.624C107.08 144.693 106.914 144.766 106.754 144.844L106.304 145.061L106.529 145.528C106.483 145.555 106.437 145.583 106.392 145.611L106.077 145.193L105.678 145.494C105.524 145.61 105.378 145.732 105.242 145.861C105.121 145.974 105.007 146.091 104.9 146.212L104.568 146.587L104.96 146.934L104.497 146.684L104.26 147.124C104.18 147.27 104.109 147.421 104.046 147.575L104.044 147.581L104.041 147.588C103.986 147.737 103.937 147.887 103.894 148.039L103.76 148.521L104.108 148.618L103.749 148.589L103.709 149.087C103.696 149.243 103.69 149.4 103.69 149.558C103.69 149.729 103.696 149.896 103.71 150.059L103.75 150.558L104.273 150.516C104.275 150.527 104.277 150.539 104.279 150.551L103.774 150.712L103.925 151.188C103.979 151.356 104.041 151.518 104.113 151.675L104.117 151.685L104.122 151.694C104.193 151.833 104.269 151.969 104.35 152.101L104.612 152.527L104.859 152.376L104.643 152.567L104.974 152.941C105.075 153.056 105.181 153.168 105.292 153.277L105.3 153.285L105.308 153.292C105.431 153.402 105.558 153.509 105.689 153.614L106.081 153.925L106.401 153.521C106.416 153.531 106.43 153.541 106.445 153.551L106.177 153.989L106.603 154.25C106.741 154.335 106.882 154.417 107.028 154.497L107.028 154.498L107.038 154.503C107.195 154.585 107.356 154.666 107.52 154.745L107.97 154.963L108.191 154.507C108.246 154.531 108.3 154.556 108.356 154.58L108.162 155.048L108.624 155.239C108.788 155.306 108.953 155.372 109.122 155.438L109.744 155.678L109.801 155.014L110.013 152.527L110.055 152.029L109.557 151.986L109.949 147.387L110.447 147.429L110.489 146.931L110.701 144.444ZM113.104 156.296L113.069 156.701L113.458 156.818C113.785 156.916 114.111 157.016 114.436 157.119L114.913 157.27L115.064 156.795C115.482 156.931 115.899 157.072 116.315 157.216L116.148 157.685L116.619 157.853C116.941 157.967 117.261 158.084 117.581 158.203L117.581 158.203L117.587 158.205C117.89 158.314 118.186 158.431 118.474 158.555L118.933 158.752L119.127 158.3C119.498 158.474 119.857 158.662 120.203 158.861L119.942 159.277L120.366 159.543C120.635 159.712 120.896 159.889 121.149 160.075L121.152 160.077C121.398 160.255 121.632 160.443 121.855 160.641L122.229 160.973L122.552 160.609C122.822 160.876 123.075 161.159 123.311 161.459L122.913 161.739L123.201 162.148C123.372 162.391 123.533 162.645 123.683 162.91L123.684 162.913C123.847 163.195 123.989 163.497 124.11 163.82L124.286 164.288L124.738 164.119C124.87 164.558 124.97 165.028 125.036 165.527L124.549 165.569L124.592 166.067C124.62 166.399 124.634 166.746 124.634 167.108C124.634 167.5 124.619 167.886 124.589 168.266L124.549 168.764L125.039 168.803C124.973 169.372 124.874 169.928 124.741 170.473L124.269 170.339L124.133 170.82C124.028 171.19 123.906 171.554 123.768 171.913C123.632 172.26 123.482 172.597 123.318 172.925L123.093 173.372L123.531 173.592C123.272 174.058 122.983 174.506 122.664 174.936L122.283 174.628L121.968 175.017C121.738 175.302 121.493 175.579 121.233 175.846C120.961 176.122 120.673 176.386 120.371 176.639L119.987 176.959L120.301 177.336C119.847 177.685 119.364 178.011 118.85 178.313L118.615 177.881L118.176 178.12C117.836 178.305 117.483 178.48 117.117 178.645C116.712 178.823 116.291 178.983 115.856 179.125L115.38 179.28L115.533 179.748C114.863 179.942 114.163 180.096 113.43 180.21L113.367 179.721L112.871 179.785C112.429 179.842 111.975 179.885 111.509 179.914L111.077 179.94L111.041 180.371L110.959 181.357L110.918 181.855L111.416 181.896L111.314 183.117L110.816 183.075L110.775 183.574L110.693 184.559L110.692 184.569L110.691 184.578C110.688 184.653 110.677 184.725 110.66 184.795L110.6 185.03L110.429 185.252C110.38 185.314 110.324 185.377 110.26 185.44L110.25 185.449L110.241 185.459C110.18 185.526 110.117 185.583 110.052 185.631L109.828 185.796L109.54 185.845C109.458 185.859 109.369 185.867 109.274 185.867H108.652H108.152V186.367H107.752V185.867H107.252H107.175L107.251 184.975L107.294 184.477L106.796 184.434L106.987 182.203L107.485 182.246L107.528 181.747L107.651 180.313L107.692 179.838L107.219 179.775C106.707 179.706 106.202 179.621 105.704 179.521L105.214 179.422L105.116 179.907C104.285 179.721 103.474 179.49 102.682 179.216L102.855 178.753L102.386 178.578C101.907 178.4 101.435 178.204 100.97 177.992C100.534 177.793 100.113 177.583 99.7076 177.363L99.2681 177.125L99.0327 177.559C98.3666 177.175 97.741 176.762 97.1559 176.319L97.4646 175.936L97.0751 175.622C96.8191 175.416 96.5718 175.204 96.3332 174.986L96.6103 174.582L96.8931 174.169L96.4807 173.887L97.084 173.007L97.4963 173.29L97.7791 172.877L98.2986 172.12L98.2997 172.118C98.3351 172.066 98.3728 172.017 98.4127 171.97L98.548 171.813L98.7219 171.691C98.7727 171.656 98.8263 171.623 98.883 171.591L98.8831 171.591L98.8914 171.587C98.951 171.552 99.0107 171.522 99.0703 171.496L99.2755 171.408L99.4919 171.381C99.5557 171.373 99.6208 171.369 99.6873 171.369C99.7677 171.369 99.8517 171.376 99.9396 171.392L100.218 171.442L100.527 171.6C100.611 171.643 100.698 171.692 100.787 171.748L100.793 171.752L100.799 171.755C100.924 171.829 101.053 171.906 101.187 171.987L101.615 172.246L101.872 171.821C101.881 171.826 101.89 171.832 101.899 171.837L101.632 172.258L102.054 172.526C102.179 172.605 102.307 172.686 102.438 172.77L102.438 172.771L102.447 172.776C102.608 172.875 102.775 172.974 102.947 173.074L103.38 173.325L103.633 172.888C103.714 172.933 103.797 172.978 103.88 173.024L103.647 173.47L104.09 173.702C104.258 173.789 104.429 173.877 104.605 173.965C104.821 174.073 105.046 174.174 105.28 174.268L105.745 174.452L105.935 173.975C106.111 174.034 106.292 174.089 106.478 174.141L106.364 174.638L106.851 174.751C107.081 174.804 107.318 174.851 107.561 174.894L108.099 174.988L108.145 174.443L108.398 171.447L108.44 170.949L107.942 170.907L108.427 165.161L108.925 165.203L108.967 164.705L109.22 161.708L109.255 161.295L108.855 161.184C108.533 161.096 108.212 161.003 107.891 160.907L107.412 160.763L107.269 161.239C106.862 161.112 106.456 160.979 106.05 160.841L106.216 160.372L105.745 160.205C105.431 160.094 105.117 159.979 104.804 159.86C104.506 159.746 104.215 159.623 103.93 159.492L103.476 159.284L103.27 159.73C102.908 159.549 102.556 159.353 102.214 159.144L102.486 158.735L102.069 158.459C101.807 158.285 101.552 158.103 101.304 157.912C101.064 157.719 100.835 157.514 100.616 157.298L100.261 156.946L99.9187 157.292C99.6517 156.997 99.4019 156.684 99.1693 156.353L99.5819 156.093L99.3152 155.67C99.1519 155.411 98.9983 155.14 98.8546 154.858C98.6939 154.543 98.5534 154.206 98.4335 153.845L98.2757 153.37L97.8147 153.524C97.6783 153.021 97.5774 152.485 97.512 151.913L98.0012 151.875L97.9632 151.377C97.9354 151.014 97.9214 150.635 97.9214 150.242C97.9214 149.916 97.9369 149.593 97.9679 149.272L98.0159 148.774L97.5301 148.727C97.5918 148.301 97.6796 147.879 97.7937 147.46L98.2587 147.61L98.4122 147.134C98.5108 146.828 98.6244 146.524 98.7531 146.221L98.7541 146.219C98.8857 145.905 99.0318 145.599 99.1925 145.301L99.43 144.861L99.0003 144.629C99.2395 144.232 99.5049 143.849 99.7964 143.48L100.166 143.8L100.493 143.422C100.713 143.169 100.947 142.922 101.195 142.683C101.464 142.428 101.748 142.184 102.047 141.95L102.442 141.643L102.14 141.256C102.575 140.943 103.038 140.65 103.528 140.378L103.752 140.816L104.197 140.587C104.528 140.417 104.872 140.256 105.229 140.104C105.626 139.934 106.038 139.783 106.466 139.65L106.944 139.501L106.798 139.032C107.446 138.854 108.125 138.716 108.836 138.616L108.891 139.106L109.388 139.05C109.819 139.002 110.263 138.967 110.719 138.947L111.156 138.927L111.195 138.492L111.27 137.647L111.315 137.149L110.816 137.105L110.897 136.2L111.395 136.245L111.439 135.747L111.515 134.902L111.515 134.9C111.522 134.818 111.535 134.74 111.555 134.664L111.622 134.407L111.791 134.176C111.839 134.111 111.894 134.045 111.957 133.98L111.598 133.633L111.957 133.98C112.019 133.916 112.083 133.862 112.151 133.816L112.38 133.658L112.684 133.612C112.77 133.598 112.863 133.591 112.963 133.591H113.585H114.085V133.091H114.484V133.591H114.984H115.063L114.999 134.364L114.957 134.862L115.455 134.903L115.292 136.863L114.794 136.822L114.753 137.32L114.643 138.634L114.605 139.097L115.064 139.169C115.5 139.238 115.922 139.318 116.331 139.41L116.819 139.52L116.927 139.039C117.589 139.207 118.217 139.406 118.809 139.638L118.614 140.089L119.073 140.287C119.472 140.459 119.851 140.647 120.213 140.849L120.213 140.849L120.217 140.852C120.543 141.03 120.859 141.214 121.164 141.402L121.59 141.664L121.849 141.244C122.283 141.527 122.697 141.82 123.089 142.124L122.777 142.505L123.163 142.822C123.335 142.964 123.503 143.108 123.667 143.254L123.496 143.508L123.217 143.923L123.632 144.202L123.267 144.744L122.852 144.465L122.573 144.88L122.163 145.49L122.161 145.493C122.114 145.564 122.067 145.631 122.02 145.693L121.847 145.924L121.673 146.081C121.616 146.133 121.561 146.177 121.507 146.214C121.463 146.245 121.416 146.273 121.367 146.296L121.202 146.375L120.995 146.398C120.936 146.405 120.873 146.409 120.806 146.409C120.753 146.409 120.693 146.404 120.625 146.394L120.42 146.365L120.166 146.274C120.101 146.251 120.033 146.225 119.963 146.195C119.862 146.148 119.759 146.099 119.652 146.049L119.313 145.888L118.934 145.704C118.832 145.654 118.728 145.604 118.622 145.551C118.492 145.483 118.358 145.415 118.22 145.347L117.772 145.125L117.548 145.579C117.547 145.579 117.547 145.579 117.547 145.579L117.749 145.115L117.29 144.915C117.155 144.857 117.017 144.798 116.876 144.739C116.715 144.67 116.55 144.604 116.382 144.542L115.913 144.368L115.735 144.847C115.688 144.832 115.642 144.817 115.595 144.803L115.725 144.31L115.242 144.182C115.074 144.138 114.903 144.096 114.729 144.056L114.17 143.93L114.12 144.501L113.881 147.276L113.838 147.775L114.336 147.818L113.884 153.065L113.386 153.023L113.343 153.521L113.104 156.296Z" fill="#E9EDEF" stroke="#BABABA" stroke-linecap="square" stroke-dasharray="8 9"/>
<path d="M166.112 183.239C166.112 202.214 148.548 204 133.968 204C119.388 204 102.645 200.752 102.645 181.777C102.645 162.802 119.388 134.115 133.968 134.115C144.288 134.115 161.743 151.943 161.546 162.282C161.546 169.079 160.5 169.5 161.546 171.5C164 173 166.112 179.085 166.112 183.239Z" fill="#D5C48E"/>
<path d="M127.469 120.978L137.316 124.316L147.163 127.655L143.354 138.936L138.789 137.388L131.175 134.806L129.125 126.337L127.469 120.978Z" fill="#C7B88B"/>
<path d="M143.608 126.824L160.728 132.629L155.135 135.354L146.324 139.538L140.035 137.406L143.608 126.824Z" fill="#C7B88B"/>
<path d="M134.379 120.197L153.56 126.7L144.11 140.013L133.948 136.568L134.102 126.049L134.379 120.197Z" fill="#D5C48E"/>
<path d="M135.715 180.989C137.371 180.774 138.621 180.23 139.465 179.357C140.325 178.468 140.754 177.311 140.754 175.885C140.754 175.303 140.645 174.797 140.426 174.368C140.223 173.924 139.926 173.533 139.536 173.196C139.16 172.858 138.715 172.567 138.199 172.322C137.684 172.077 137.121 171.847 136.512 171.632L135.715 180.989ZM134.215 156.69C133.339 156.797 132.597 156.981 131.988 157.241C131.378 157.487 130.878 157.793 130.487 158.161C130.097 158.529 129.808 158.942 129.62 159.402C129.448 159.862 129.362 160.345 129.362 160.851C129.362 161.433 129.464 161.946 129.667 162.391C129.886 162.82 130.175 163.211 130.534 163.563C130.909 163.9 131.347 164.207 131.847 164.483C132.347 164.743 132.894 164.989 133.488 165.218L134.215 156.69ZM136.957 166.322C138.082 166.659 139.2 167.035 140.309 167.448C141.419 167.847 142.411 168.368 143.286 169.012C144.177 169.655 144.896 170.46 145.443 171.425C145.989 172.376 146.263 173.571 146.263 175.012C146.263 176.437 146.021 177.778 145.536 179.035C145.052 180.276 144.341 181.38 143.403 182.345C142.466 183.295 141.317 184.077 139.957 184.69C138.598 185.288 137.043 185.64 135.293 185.747L135.011 189.127C134.996 189.479 134.84 189.801 134.543 190.092C134.261 190.399 133.902 190.552 133.464 190.552H131.331L131.753 185.633C129.925 185.387 128.206 184.897 126.596 184.161C124.987 183.426 123.619 182.514 122.494 181.426L124.276 178.828C124.432 178.598 124.635 178.414 124.885 178.276C125.151 178.123 125.432 178.046 125.729 178.046C126.073 178.046 126.44 178.169 126.831 178.414C127.221 178.644 127.667 178.92 128.167 179.242C128.667 179.548 129.237 179.862 129.878 180.184C130.519 180.506 131.277 180.744 132.152 180.897L133.019 170.621C131.91 170.314 130.808 169.954 129.714 169.54C128.636 169.127 127.659 168.582 126.784 167.908C125.924 167.218 125.229 166.353 124.698 165.31C124.166 164.268 123.901 162.966 123.901 161.402C123.901 160.238 124.135 159.103 124.604 158C125.073 156.881 125.76 155.885 126.667 155.011C127.589 154.138 128.714 153.417 130.042 152.85C131.37 152.283 132.894 151.962 134.613 151.885L134.871 148.988C134.902 148.62 135.058 148.291 135.34 148C135.621 147.709 135.988 147.563 136.441 147.563H138.574L138.199 152.069C139.856 152.329 141.286 152.797 142.489 153.471C143.692 154.13 144.731 154.873 145.607 155.701L144.2 157.793C143.997 158.1 143.786 158.329 143.567 158.483C143.348 158.636 143.083 158.713 142.77 158.713C142.536 158.713 142.255 158.644 141.926 158.506C141.598 158.352 141.231 158.176 140.825 157.977C140.418 157.762 139.957 157.548 139.442 157.333C138.942 157.119 138.387 156.942 137.777 156.805L136.957 166.322Z" fill="#57544A"/>
<path d="M130.899 134.183C130.899 134.612 131.539 134.935 131.857 135.168C132.306 135.497 132.572 135.589 133.192 135.606C134.1 135.63 135.677 135.802 136.31 136.505C136.98 137.249 137.631 137.344 138.652 137.49C139.8 137.655 140.858 138.266 142 138.426C143.074 138.578 143.926 138.413 144.96 138.828C145.827 139.175 146.796 140.049 147.714 139.436" stroke="#BDAD7A" stroke-width="3" stroke-linecap="round"/>
<path d="M186.733 128.053L179.762 105.854L164.363 123.064L186.733 128.053ZM80.6664 32.4905L172.196 117.309L174.863 114.328L83.3336 29.5095L80.6664 32.4905Z" fill="#212121"/>
<path d="M26.155 24.035C26.5083 23.9883 26.775 23.87 26.955 23.68C27.1383 23.4867 27.23 23.235 27.23 22.925C27.23 22.7983 27.2067 22.6883 27.16 22.595C27.1167 22.4983 27.0533 22.4133 26.97 22.34C26.89 22.2667 26.795 22.2033 26.685 22.15C26.575 22.0967 26.455 22.0467 26.325 22L26.155 24.035ZM25.835 18.75C25.6483 18.7733 25.49 18.8133 25.36 18.87C25.23 18.9233 25.1233 18.99 25.04 19.07C24.9567 19.15 24.895 19.24 24.855 19.34C24.8183 19.44 24.8 19.545 24.8 19.655C24.8 19.7817 24.8217 19.8933 24.865 19.99C24.9117 20.0833 24.9733 20.1683 25.05 20.245C25.13 20.3183 25.2233 20.385 25.33 20.445C25.4367 20.5017 25.5533 20.555 25.68 20.605L25.835 18.75ZM26.42 20.845C26.66 20.9183 26.8983 21 27.135 21.09C27.3717 21.1767 27.5833 21.29 27.77 21.43C27.96 21.57 28.1133 21.745 28.23 21.955C28.3467 22.1617 28.405 22.4217 28.405 22.735C28.405 23.045 28.3533 23.3367 28.25 23.61C28.1467 23.88 27.995 24.12 27.795 24.33C27.595 24.5367 27.35 24.7067 27.06 24.84C26.77 24.97 26.4383 25.0467 26.065 25.07L26.005 25.805C26.0017 25.8817 25.9683 25.9517 25.905 26.015C25.845 26.0817 25.7683 26.115 25.675 26.115H25.22L25.31 25.045C24.92 24.9917 24.5533 24.885 24.21 24.725C23.8667 24.565 23.575 24.3667 23.335 24.13L23.715 23.565C23.7483 23.515 23.7917 23.475 23.845 23.445C23.9017 23.4117 23.9617 23.395 24.025 23.395C24.0983 23.395 24.1767 23.4217 24.26 23.475C24.3433 23.525 24.4383 23.585 24.545 23.655C24.6517 23.7217 24.7733 23.79 24.91 23.86C25.0467 23.93 25.2083 23.9817 25.395 24.015L25.58 21.78C25.3433 21.7133 25.1083 21.635 24.875 21.545C24.645 21.455 24.4367 21.3367 24.25 21.19C24.0667 21.04 23.9183 20.8517 23.805 20.625C23.6917 20.3983 23.635 20.115 23.635 19.775C23.635 19.5217 23.685 19.275 23.785 19.035C23.885 18.7917 24.0317 18.575 24.225 18.385C24.4217 18.195 24.6617 18.0383 24.945 17.915C25.2283 17.7917 25.5533 17.7217 25.92 17.705L25.975 17.075C25.9817 16.995 26.015 16.9233 26.075 16.86C26.135 16.7967 26.2133 16.765 26.31 16.765H26.765L26.685 17.745C27.0383 17.8017 27.3433 17.9033 27.6 18.05C27.8567 18.1933 28.0783 18.355 28.265 18.535L27.965 18.99C27.9217 19.0567 27.8767 19.1067 27.83 19.14C27.7833 19.1733 27.7267 19.19 27.66 19.19C27.61 19.19 27.55 19.175 27.48 19.145C27.41 19.1117 27.3317 19.0733 27.245 19.03C27.1583 18.9833 27.06 18.9367 26.95 18.89C26.8433 18.8433 26.725 18.805 26.595 18.775L26.42 20.845ZM33.9758 24.075V25H29.9758V24.075H31.4408V19.86C31.4408 19.6933 31.4458 19.5217 31.4558 19.345L30.4158 20.215C30.3558 20.2617 30.2958 20.2917 30.2358 20.305C30.1791 20.315 30.1241 20.315 30.0708 20.305C30.0208 20.295 29.9758 20.2783 29.9358 20.255C29.8958 20.2283 29.8658 20.2 29.8458 20.17L29.4558 19.635L31.6608 17.76H32.6758V24.075H33.9758ZM40.1516 21.385C40.1516 22.015 40.0832 22.5633 39.9466 23.03C39.8132 23.4933 39.6266 23.8767 39.3866 24.18C39.1499 24.4833 38.8682 24.71 38.5416 24.86C38.2182 25.0067 37.8682 25.08 37.4916 25.08C37.1149 25.08 36.7649 25.0067 36.4416 24.86C36.1216 24.71 35.8432 24.4833 35.6066 24.18C35.3699 23.8767 35.1849 23.4933 35.0516 23.03C34.9182 22.5633 34.8516 22.015 34.8516 21.385C34.8516 20.7517 34.9182 20.2033 35.0516 19.74C35.1849 19.2767 35.3699 18.8933 35.6066 18.59C35.8432 18.2867 36.1216 18.0617 36.4416 17.915C36.7649 17.765 37.1149 17.69 37.4916 17.69C37.8682 17.69 38.2182 17.765 38.5416 17.915C38.8682 18.0617 39.1499 18.2867 39.3866 18.59C39.6266 18.8933 39.8132 19.2767 39.9466 19.74C40.0832 20.2033 40.1516 20.7517 40.1516 21.385ZM38.8766 21.385C38.8766 20.8617 38.8382 20.4283 38.7616 20.085C38.6849 19.7417 38.5816 19.4683 38.4516 19.265C38.3249 19.0617 38.1782 18.92 38.0116 18.84C37.8449 18.7567 37.6716 18.715 37.4916 18.715C37.3149 18.715 37.1432 18.7567 36.9766 18.84C36.8132 18.92 36.6682 19.0617 36.5416 19.265C36.4149 19.4683 36.3132 19.7417 36.2366 20.085C36.1632 20.4283 36.1266 20.8617 36.1266 21.385C36.1266 21.9083 36.1632 22.3417 36.2366 22.685C36.3132 23.0283 36.4149 23.3017 36.5416 23.505C36.6682 23.7083 36.8132 23.8517 36.9766 23.935C37.1432 24.015 37.3149 24.055 37.4916 24.055C37.6716 24.055 37.8449 24.015 38.0116 23.935C38.1782 23.8517 38.3249 23.7083 38.4516 23.505C38.5816 23.3017 38.6849 23.0283 38.7616 22.685C38.8382 22.3417 38.8766 21.9083 38.8766 21.385ZM40.9923 26.225C40.9323 26.175 40.9023 26.1133 40.9023 26.04C40.9023 26.0133 40.9107 25.9833 40.9273 25.95C40.9473 25.9167 40.9707 25.8867 40.9973 25.86C41.034 25.82 41.079 25.77 41.1323 25.71C41.1857 25.6533 41.239 25.5867 41.2923 25.51C41.3457 25.4367 41.394 25.355 41.4373 25.265C41.484 25.1783 41.519 25.085 41.5423 24.985C41.4357 24.985 41.339 24.9667 41.2523 24.93C41.1657 24.89 41.0907 24.8367 41.0273 24.77C40.9673 24.7033 40.919 24.625 40.8823 24.535C40.849 24.445 40.8323 24.3467 40.8323 24.24C40.8323 24.1467 40.849 24.06 40.8823 23.98C40.919 23.8967 40.969 23.825 41.0323 23.765C41.0957 23.7017 41.1723 23.6533 41.2623 23.62C41.3523 23.5833 41.4507 23.565 41.5573 23.565C41.684 23.565 41.794 23.5883 41.8873 23.635C41.984 23.6783 42.0623 23.74 42.1223 23.82C42.1857 23.8967 42.2323 23.9867 42.2623 24.09C42.2957 24.19 42.3123 24.2967 42.3123 24.41C42.3123 24.57 42.2873 24.7383 42.2373 24.915C42.1907 25.0917 42.1207 25.2683 42.0273 25.445C41.934 25.6217 41.8173 25.7933 41.6773 25.96C41.5407 26.1267 41.384 26.28 41.2073 26.42L40.9923 26.225ZM48.2961 21.385C48.2961 22.015 48.2278 22.5633 48.0911 23.03C47.9578 23.4933 47.7711 23.8767 47.5311 24.18C47.2944 24.4833 47.0128 24.71 46.6861 24.86C46.3628 25.0067 46.0128 25.08 45.6361 25.08C45.2594 25.08 44.9094 25.0067 44.5861 24.86C44.2661 24.71 43.9878 24.4833 43.7511 24.18C43.5144 23.8767 43.3294 23.4933 43.1961 23.03C43.0628 22.5633 42.9961 22.015 42.9961 21.385C42.9961 20.7517 43.0628 20.2033 43.1961 19.74C43.3294 19.2767 43.5144 18.8933 43.7511 18.59C43.9878 18.2867 44.2661 18.0617 44.5861 17.915C44.9094 17.765 45.2594 17.69 45.6361 17.69C46.0128 17.69 46.3628 17.765 46.6861 17.915C47.0128 18.0617 47.2944 18.2867 47.5311 18.59C47.7711 18.8933 47.9578 19.2767 48.0911 19.74C48.2278 20.2033 48.2961 20.7517 48.2961 21.385ZM47.0211 21.385C47.0211 20.8617 46.9828 20.4283 46.9061 20.085C46.8294 19.7417 46.7261 19.4683 46.5961 19.265C46.4694 19.0617 46.3228 18.92 46.1561 18.84C45.9894 18.7567 45.8161 18.715 45.6361 18.715C45.4594 18.715 45.2878 18.7567 45.1211 18.84C44.9578 18.92 44.8128 19.0617 44.6861 19.265C44.5594 19.4683 44.4578 19.7417 44.3811 20.085C44.3078 20.4283 44.2711 20.8617 44.2711 21.385C44.2711 21.9083 44.3078 22.3417 44.3811 22.685C44.4578 23.0283 44.5594 23.3017 44.6861 23.505C44.8128 23.7083 44.9578 23.8517 45.1211 23.935C45.2878 24.015 45.4594 24.055 45.6361 24.055C45.8161 24.055 45.9894 24.015 46.1561 23.935C46.3228 23.8517 46.4694 23.7083 46.5961 23.505C46.7261 23.3017 46.8294 23.0283 46.9061 22.685C46.9828 22.3417 47.0211 21.9083 47.0211 21.385ZM54.0969 21.385C54.0969 22.015 54.0285 22.5633 53.8919 23.03C53.7585 23.4933 53.5719 23.8767 53.3319 24.18C53.0952 24.4833 52.8135 24.71 52.4869 24.86C52.1635 25.0067 51.8135 25.08 51.4369 25.08C51.0602 25.08 50.7102 25.0067 50.3869 24.86C50.0669 24.71 49.7885 24.4833 49.5519 24.18C49.3152 23.8767 49.1302 23.4933 48.9969 23.03C48.8635 22.5633 48.7969 22.015 48.7969 21.385C48.7969 20.7517 48.8635 20.2033 48.9969 19.74C49.1302 19.2767 49.3152 18.8933 49.5519 18.59C49.7885 18.2867 50.0669 18.0617 50.3869 17.915C50.7102 17.765 51.0602 17.69 51.4369 17.69C51.8135 17.69 52.1635 17.765 52.4869 17.915C52.8135 18.0617 53.0952 18.2867 53.3319 18.59C53.5719 18.8933 53.7585 19.2767 53.8919 19.74C54.0285 20.2033 54.0969 20.7517 54.0969 21.385ZM52.8219 21.385C52.8219 20.8617 52.7835 20.4283 52.7069 20.085C52.6302 19.7417 52.5269 19.4683 52.3969 19.265C52.2702 19.0617 52.1235 18.92 51.9569 18.84C51.7902 18.7567 51.6169 18.715 51.4369 18.715C51.2602 18.715 51.0885 18.7567 50.9219 18.84C50.7585 18.92 50.6135 19.0617 50.4869 19.265C50.3602 19.4683 50.2585 19.7417 50.1819 20.085C50.1085 20.4283 50.0719 20.8617 50.0719 21.385C50.0719 21.9083 50.1085 22.3417 50.1819 22.685C50.2585 23.0283 50.3602 23.3017 50.4869 23.505C50.6135 23.7083 50.7585 23.8517 50.9219 23.935C51.0885 24.015 51.2602 24.055 51.4369 24.055C51.6169 24.055 51.7902 24.015 51.9569 23.935C52.1235 23.8517 52.2702 23.7083 52.3969 23.505C52.5269 23.3017 52.6302 23.0283 52.7069 22.685C52.7835 22.3417 52.8219 21.9083 52.8219 21.385ZM59.8977 21.385C59.8977 22.015 59.8293 22.5633 59.6927 23.03C59.5593 23.4933 59.3727 23.8767 59.1327 24.18C58.896 24.4833 58.6143 24.71 58.2877 24.86C57.9643 25.0067 57.6143 25.08 57.2377 25.08C56.861 25.08 56.511 25.0067 56.1877 24.86C55.8677 24.71 55.5893 24.4833 55.3527 24.18C55.116 23.8767 54.931 23.4933 54.7977 23.03C54.6643 22.5633 54.5977 22.015 54.5977 21.385C54.5977 20.7517 54.6643 20.2033 54.7977 19.74C54.931 19.2767 55.116 18.8933 55.3527 18.59C55.5893 18.2867 55.8677 18.0617 56.1877 17.915C56.511 17.765 56.861 17.69 57.2377 17.69C57.6143 17.69 57.9643 17.765 58.2877 17.915C58.6143 18.0617 58.896 18.2867 59.1327 18.59C59.3727 18.8933 59.5593 19.2767 59.6927 19.74C59.8293 20.2033 59.8977 20.7517 59.8977 21.385ZM58.6227 21.385C58.6227 20.8617 58.5843 20.4283 58.5077 20.085C58.431 19.7417 58.3277 19.4683 58.1977 19.265C58.071 19.0617 57.9243 18.92 57.7577 18.84C57.591 18.7567 57.4177 18.715 57.2377 18.715C57.061 18.715 56.8893 18.7567 56.7227 18.84C56.5593 18.92 56.4143 19.0617 56.2877 19.265C56.161 19.4683 56.0593 19.7417 55.9827 20.085C55.9093 20.4283 55.8727 20.8617 55.8727 21.385C55.8727 21.9083 55.9093 22.3417 55.9827 22.685C56.0593 23.0283 56.161 23.3017 56.2877 23.505C56.4143 23.7083 56.5593 23.8517 56.7227 23.935C56.8893 24.015 57.061 24.055 57.2377 24.055C57.4177 24.055 57.591 24.015 57.7577 23.935C57.9243 23.8517 58.071 23.7083 58.1977 23.505C58.3277 23.3017 58.431 23.0283 58.5077 22.685C58.5843 22.3417 58.6227 21.9083 58.6227 21.385ZM61.6184 25.015C61.5618 25.1683 61.4701 25.2833 61.3434 25.36C61.2201 25.4367 61.0934 25.475 60.9634 25.475H60.4384L63.3584 18.005C63.4118 17.865 63.4934 17.7583 63.6034 17.685C63.7134 17.6083 63.8418 17.57 63.9884 17.57H64.5184L61.6184 25.015ZM66.6666 17.57V25H65.4316V17.57H66.6666ZM69.1321 23.67C69.2721 23.84 69.4238 23.96 69.5871 24.03C69.7538 24.1 69.9288 24.135 70.1121 24.135C70.3021 24.135 70.4721 24.1017 70.6221 24.035C70.7754 23.965 70.9054 23.8583 71.0121 23.715C71.1188 23.5683 71.2004 23.3833 71.2571 23.16C71.3138 22.9333 71.3421 22.6633 71.3421 22.35C71.3421 21.7867 71.2488 21.38 71.0621 21.13C70.8754 20.8767 70.6071 20.75 70.2571 20.75C70.0204 20.75 69.8138 20.805 69.6371 20.915C69.4604 21.0217 69.2921 21.1733 69.1321 21.37V23.67ZM69.1321 20.5C69.3388 20.2833 69.5671 20.1117 69.8171 19.985C70.0704 19.855 70.3588 19.79 70.6821 19.79C70.9788 19.79 71.2454 19.8483 71.4821 19.965C71.7221 20.0817 71.9254 20.25 72.0921 20.47C72.2621 20.6867 72.3921 20.95 72.4821 21.26C72.5721 21.57 72.6171 21.9183 72.6171 22.305C72.6171 22.7217 72.5654 23.1 72.4621 23.44C72.3588 23.78 72.2104 24.0717 72.0171 24.315C71.8271 24.555 71.5971 24.7417 71.3271 24.875C71.0571 25.0083 70.7571 25.075 70.4271 25.075C70.2671 25.075 70.1221 25.0583 69.9921 25.025C69.8621 24.995 69.7421 24.9517 69.6321 24.895C69.5221 24.8383 69.4204 24.77 69.3271 24.69C69.2371 24.6067 69.1504 24.515 69.0671 24.415L69.0121 24.76C68.9921 24.8467 68.9571 24.9083 68.9071 24.945C68.8604 24.9817 68.7954 25 68.7121 25H67.8971V17.57H69.1321V20.5ZM73.3909 24.32C73.3909 24.2167 73.4093 24.1183 73.4459 24.025C73.4859 23.9317 73.5393 23.8517 73.6059 23.785C73.6726 23.7183 73.7526 23.665 73.8459 23.625C73.9393 23.585 74.0393 23.565 74.1459 23.565C74.2526 23.565 74.3509 23.585 74.4409 23.625C74.5343 23.665 74.6143 23.7183 74.6809 23.785C74.7509 23.8517 74.8059 23.9317 74.8459 24.025C74.8859 24.1183 74.9059 24.2167 74.9059 24.32C74.9059 24.4267 74.8859 24.5267 74.8459 24.62C74.8059 24.71 74.7509 24.7883 74.6809 24.855C74.6143 24.9217 74.5343 24.9733 74.4409 25.01C74.3509 25.05 74.2526 25.07 74.1459 25.07C74.0393 25.07 73.9393 25.05 73.8459 25.01C73.7526 24.9733 73.6726 24.9217 73.6059 24.855C73.5393 24.7883 73.4859 24.71 73.4459 24.62C73.4093 24.5267 73.3909 24.4267 73.3909 24.32ZM25.88 31.79C26.26 31.79 26.605 31.8517 26.915 31.975C27.2283 32.0983 27.495 32.2733 27.715 32.5C27.9383 32.7267 28.11 33.0033 28.23 33.33C28.35 33.6567 28.41 34.0217 28.41 34.425C28.41 34.8317 28.35 35.1983 28.23 35.525C28.11 35.8517 27.9383 36.13 27.715 36.36C27.495 36.59 27.2283 36.7667 26.915 36.89C26.605 37.0133 26.26 37.075 25.88 37.075C25.4967 37.075 25.1483 37.0133 24.835 36.89C24.5217 36.7667 24.2533 36.59 24.03 36.36C23.81 36.13 23.6383 35.8517 23.515 35.525C23.395 35.1983 23.335 34.8317 23.335 34.425C23.335 34.0217 23.395 33.6567 23.515 33.33C23.6383 33.0033 23.81 32.7267 24.03 32.5C24.2533 32.2733 24.5217 32.0983 24.835 31.975C25.1483 31.8517 25.4967 31.79 25.88 31.79ZM25.88 36.125C26.3067 36.125 26.6217 35.9817 26.825 35.695C27.0317 35.4083 27.135 34.9883 27.135 34.435C27.135 33.8817 27.0317 33.46 26.825 33.17C26.6217 32.88 26.3067 32.735 25.88 32.735C25.4467 32.735 25.125 32.8817 24.915 33.175C24.7083 33.465 24.605 33.885 24.605 34.435C24.605 34.985 24.7083 35.405 24.915 35.695C25.125 35.9817 25.4467 36.125 25.88 36.125ZM29.5852 37V32.8L29.1402 32.73C29.0436 32.71 28.9652 32.6767 28.9052 32.63C28.8486 32.58 28.8202 32.51 28.8202 32.42V31.915H29.5852V31.535C29.5852 31.2417 29.6286 30.9783 29.7152 30.745C29.8052 30.5117 29.9319 30.3133 30.0952 30.15C30.2619 29.9867 30.4636 29.8617 30.7002 29.775C30.9369 29.6883 31.2036 29.645 31.5002 29.645C31.7369 29.645 31.9569 29.6767 32.1602 29.74L32.1352 30.36C32.1319 30.4067 32.1186 30.445 32.0952 30.475C32.0719 30.5017 32.0402 30.5233 32.0002 30.54C31.9636 30.5533 31.9202 30.5633 31.8702 30.57C31.8202 30.5733 31.7669 30.575 31.7102 30.575C31.5636 30.575 31.4319 30.5917 31.3152 30.625C31.2019 30.655 31.1052 30.71 31.0252 30.79C30.9452 30.8667 30.8836 30.97 30.8402 31.1C30.8002 31.2267 30.7802 31.385 30.7802 31.575V31.915H32.1152V32.795H30.8202V37H29.5852ZM37.6003 33.405C37.847 33.405 38.062 33.375 38.2453 33.315C38.4286 33.2517 38.5803 33.1633 38.7003 33.05C38.8236 32.9333 38.9153 32.7933 38.9753 32.63C39.0353 32.4633 39.0653 32.2783 39.0653 32.075C39.0653 31.8817 39.0353 31.7067 38.9753 31.55C38.9153 31.3933 38.8253 31.26 38.7053 31.15C38.5853 31.04 38.4336 30.9567 38.2503 30.9C38.067 30.84 37.8503 30.81 37.6003 30.81H36.5953V33.405H37.6003ZM37.6003 29.77C38.0836 29.77 38.502 29.8267 38.8553 29.94C39.2086 30.0533 39.5003 30.2117 39.7303 30.415C39.9603 30.6183 40.1303 30.8617 40.2403 31.145C40.3536 31.4283 40.4103 31.7383 40.4103 32.075C40.4103 32.425 40.352 32.7467 40.2353 33.04C40.1186 33.33 39.9436 33.58 39.7103 33.79C39.477 34 39.1836 34.1633 38.8303 34.28C38.4803 34.3967 38.0703 34.455 37.6003 34.455H36.5953V37H35.2503V29.77H37.6003ZM43.8005 34.81C43.4438 34.8267 43.1438 34.8583 42.9005 34.905C42.6571 34.9483 42.4621 35.005 42.3155 35.075C42.1688 35.145 42.0638 35.2267 42.0005 35.32C41.9371 35.4133 41.9055 35.515 41.9055 35.625C41.9055 35.8417 41.9688 35.9967 42.0955 36.09C42.2255 36.1833 42.3938 36.23 42.6005 36.23C42.8538 36.23 43.0721 36.185 43.2555 36.095C43.4421 36.0017 43.6238 35.8617 43.8005 35.675V34.81ZM40.9705 32.585C41.5605 32.045 42.2705 31.775 43.1005 31.775C43.4005 31.775 43.6688 31.825 43.9055 31.925C44.1421 32.0217 44.3421 32.1583 44.5055 32.335C44.6688 32.5083 44.7921 32.7167 44.8755 32.96C44.9621 33.2033 45.0055 33.47 45.0055 33.76V37H44.4455C44.3288 37 44.2388 36.9833 44.1755 36.95C44.1121 36.9133 44.0621 36.8417 44.0255 36.735L43.9155 36.365C43.7855 36.4817 43.6588 36.585 43.5355 36.675C43.4121 36.7617 43.2838 36.835 43.1505 36.895C43.0171 36.955 42.8738 37 42.7205 37.03C42.5705 37.0633 42.4038 37.08 42.2205 37.08C42.0038 37.08 41.8038 37.0517 41.6205 36.995C41.4371 36.935 41.2788 36.8467 41.1455 36.73C41.0121 36.6133 40.9088 36.4683 40.8355 36.295C40.7621 36.1217 40.7255 35.92 40.7255 35.69C40.7255 35.56 40.7471 35.4317 40.7905 35.305C40.8338 35.175 40.9038 35.0517 41.0005 34.935C41.1005 34.8183 41.2288 34.7083 41.3855 34.605C41.5421 34.5017 41.7338 34.4117 41.9605 34.335C42.1905 34.2583 42.4571 34.1967 42.7605 34.15C43.0638 34.1 43.4105 34.07 43.8005 34.06V33.76C43.8005 33.4167 43.7271 33.1633 43.5805 33C43.4338 32.8333 43.2221 32.75 42.9455 32.75C42.7455 32.75 42.5788 32.7733 42.4455 32.82C42.3155 32.8667 42.2005 32.92 42.1005 32.98C42.0005 33.0367 41.9088 33.0883 41.8255 33.135C41.7455 33.1817 41.6555 33.205 41.5555 33.205C41.4688 33.205 41.3955 33.1833 41.3355 33.14C41.2755 33.0933 41.2271 33.04 41.1905 32.98L40.9705 32.585ZM50.6821 31.87L47.8871 38.41C47.8504 38.4967 47.8021 38.5617 47.7421 38.605C47.6854 38.6517 47.5971 38.675 47.4771 38.675H46.5571L47.5171 36.615L45.4421 31.87H46.5271C46.6238 31.87 46.6988 31.8933 46.7521 31.94C46.8088 31.9867 46.8504 32.04 46.8771 32.1L47.9671 34.76C48.0038 34.85 48.0338 34.94 48.0571 35.03C48.0838 35.12 48.1088 35.2117 48.1321 35.305C48.1621 35.2117 48.1921 35.12 48.2221 35.03C48.2521 34.9367 48.2854 34.845 48.3221 34.755L49.3521 32.1C49.3788 32.0333 49.4221 31.9783 49.4821 31.935C49.5454 31.8917 49.6154 31.87 49.6921 31.87H50.6821ZM52.5455 29.57V37H51.3105V29.57H52.5455ZM56.046 31.79C56.426 31.79 56.771 31.8517 57.081 31.975C57.3943 32.0983 57.661 32.2733 57.881 32.5C58.1043 32.7267 58.276 33.0033 58.396 33.33C58.516 33.6567 58.576 34.0217 58.576 34.425C58.576 34.8317 58.516 35.1983 58.396 35.525C58.276 35.8517 58.1043 36.13 57.881 36.36C57.661 36.59 57.3943 36.7667 57.081 36.89C56.771 37.0133 56.426 37.075 56.046 37.075C55.6627 37.075 55.3143 37.0133 55.001 36.89C54.6877 36.7667 54.4193 36.59 54.196 36.36C53.976 36.13 53.8043 35.8517 53.681 35.525C53.561 35.1983 53.501 34.8317 53.501 34.425C53.501 34.0217 53.561 33.6567 53.681 33.33C53.8043 33.0033 53.976 32.7267 54.196 32.5C54.4193 32.2733 54.6877 32.0983 55.001 31.975C55.3143 31.8517 55.6627 31.79 56.046 31.79ZM56.046 36.125C56.4727 36.125 56.7877 35.9817 56.991 35.695C57.1977 35.4083 57.301 34.9883 57.301 34.435C57.301 33.8817 57.1977 33.46 56.991 33.17C56.7877 32.88 56.4727 32.735 56.046 32.735C55.6127 32.735 55.291 32.8817 55.081 33.175C54.8743 33.465 54.771 33.885 54.771 34.435C54.771 34.985 54.8743 35.405 55.081 35.695C55.291 35.9817 55.6127 36.125 56.046 36.125ZM62.2282 34.81C61.8715 34.8267 61.5715 34.8583 61.3282 34.905C61.0849 34.9483 60.8899 35.005 60.7432 35.075C60.5965 35.145 60.4915 35.2267 60.4282 35.32C60.3649 35.4133 60.3332 35.515 60.3332 35.625C60.3332 35.8417 60.3965 35.9967 60.5232 36.09C60.6532 36.1833 60.8215 36.23 61.0282 36.23C61.2815 36.23 61.4999 36.185 61.6832 36.095C61.8699 36.0017 62.0515 35.8617 62.2282 35.675V34.81ZM59.3982 32.585C59.9882 32.045 60.6982 31.775 61.5282 31.775C61.8282 31.775 62.0965 31.825 62.3332 31.925C62.5699 32.0217 62.7699 32.1583 62.9332 32.335C63.0965 32.5083 63.2199 32.7167 63.3032 32.96C63.3899 33.2033 63.4332 33.47 63.4332 33.76V37H62.8732C62.7565 37 62.6665 36.9833 62.6032 36.95C62.5399 36.9133 62.4899 36.8417 62.4532 36.735L62.3432 36.365C62.2132 36.4817 62.0865 36.585 61.9632 36.675C61.8399 36.7617 61.7115 36.835 61.5782 36.895C61.4449 36.955 61.3015 37 61.1482 37.03C60.9982 37.0633 60.8315 37.08 60.6482 37.08C60.4315 37.08 60.2315 37.0517 60.0482 36.995C59.8649 36.935 59.7065 36.8467 59.5732 36.73C59.4399 36.6133 59.3365 36.4683 59.2632 36.295C59.1899 36.1217 59.1532 35.92 59.1532 35.69C59.1532 35.56 59.1749 35.4317 59.2182 35.305C59.2615 35.175 59.3315 35.0517 59.4282 34.935C59.5282 34.8183 59.6565 34.7083 59.8132 34.605C59.9699 34.5017 60.1615 34.4117 60.3882 34.335C60.6182 34.2583 60.8849 34.1967 61.1882 34.15C61.4915 34.1 61.8382 34.07 62.2282 34.06V33.76C62.2282 33.4167 62.1549 33.1633 62.0082 33C61.8615 32.8333 61.6499 32.75 61.3732 32.75C61.1732 32.75 61.0065 32.7733 60.8732 32.82C60.7432 32.8667 60.6282 32.92 60.5282 32.98C60.4282 33.0367 60.3365 33.0883 60.2532 33.135C60.1732 33.1817 60.0832 33.205 59.9832 33.205C59.8965 33.205 59.8232 33.1833 59.7632 33.14C59.7032 33.0933 59.6549 33.04 59.6182 32.98L59.3982 32.585ZM67.8163 33.18C67.6763 33.01 67.523 32.89 67.3563 32.82C67.193 32.75 67.0163 32.715 66.8263 32.715C66.6397 32.715 66.4713 32.75 66.3213 32.82C66.1713 32.89 66.043 32.9967 65.9363 33.14C65.8297 33.28 65.748 33.46 65.6913 33.68C65.6347 33.8967 65.6063 34.1533 65.6063 34.45C65.6063 34.75 65.6297 35.005 65.6763 35.215C65.7263 35.4217 65.7963 35.5917 65.8863 35.725C65.9763 35.855 66.0863 35.95 66.2163 36.01C66.3463 36.0667 66.4913 36.095 66.6513 36.095C66.908 36.095 67.1263 36.0417 67.3063 35.935C67.4863 35.8283 67.6563 35.6767 67.8163 35.48V33.18ZM69.0513 29.57V37H68.2963C68.133 37 68.0297 36.925 67.9863 36.775L67.8813 36.28C67.6747 36.5167 67.4363 36.7083 67.1663 36.855C66.8997 37.0017 66.588 37.075 66.2313 37.075C65.9513 37.075 65.6947 37.0167 65.4613 36.9C65.228 36.7833 65.0263 36.615 64.8563 36.395C64.6897 36.1717 64.5597 35.8967 64.4663 35.57C64.3763 35.2433 64.3313 34.87 64.3313 34.45C64.3313 34.07 64.383 33.7167 64.4863 33.39C64.5897 33.0633 64.738 32.78 64.9313 32.54C65.1247 32.3 65.3563 32.1133 65.6263 31.98C65.8963 31.8433 66.1997 31.775 66.5363 31.775C66.823 31.775 67.068 31.82 67.2713 31.91C67.4747 32 67.6563 32.1217 67.8163 32.275V29.57H69.0513Z" fill="#0E0D0D"/>
<path d="M187.155 141.035C187.508 140.988 187.775 140.87 187.955 140.68C188.138 140.487 188.23 140.235 188.23 139.925C188.23 139.798 188.207 139.688 188.16 139.595C188.117 139.498 188.053 139.413 187.97 139.34C187.89 139.267 187.795 139.203 187.685 139.15C187.575 139.097 187.455 139.047 187.325 139L187.155 141.035ZM186.835 135.75C186.648 135.773 186.49 135.813 186.36 135.87C186.23 135.923 186.123 135.99 186.04 136.07C185.957 136.15 185.895 136.24 185.855 136.34C185.818 136.44 185.8 136.545 185.8 136.655C185.8 136.782 185.822 136.893 185.865 136.99C185.912 137.083 185.973 137.168 186.05 137.245C186.13 137.318 186.223 137.385 186.33 137.445C186.437 137.502 186.553 137.555 186.68 137.605L186.835 135.75ZM187.42 137.845C187.66 137.918 187.898 138 188.135 138.09C188.372 138.177 188.583 138.29 188.77 138.43C188.96 138.57 189.113 138.745 189.23 138.955C189.347 139.162 189.405 139.422 189.405 139.735C189.405 140.045 189.353 140.337 189.25 140.61C189.147 140.88 188.995 141.12 188.795 141.33C188.595 141.537 188.35 141.707 188.06 141.84C187.77 141.97 187.438 142.047 187.065 142.07L187.005 142.805C187.002 142.882 186.968 142.952 186.905 143.015C186.845 143.082 186.768 143.115 186.675 143.115H186.22L186.31 142.045C185.92 141.992 185.553 141.885 185.21 141.725C184.867 141.565 184.575 141.367 184.335 141.13L184.715 140.565C184.748 140.515 184.792 140.475 184.845 140.445C184.902 140.412 184.962 140.395 185.025 140.395C185.098 140.395 185.177 140.422 185.26 140.475C185.343 140.525 185.438 140.585 185.545 140.655C185.652 140.722 185.773 140.79 185.91 140.86C186.047 140.93 186.208 140.982 186.395 141.015L186.58 138.78C186.343 138.713 186.108 138.635 185.875 138.545C185.645 138.455 185.437 138.337 185.25 138.19C185.067 138.04 184.918 137.852 184.805 137.625C184.692 137.398 184.635 137.115 184.635 136.775C184.635 136.522 184.685 136.275 184.785 136.035C184.885 135.792 185.032 135.575 185.225 135.385C185.422 135.195 185.662 135.038 185.945 134.915C186.228 134.792 186.553 134.722 186.92 134.705L186.975 134.075C186.982 133.995 187.015 133.923 187.075 133.86C187.135 133.797 187.213 133.765 187.31 133.765H187.765L187.685 134.745C188.038 134.802 188.343 134.903 188.6 135.05C188.857 135.193 189.078 135.355 189.265 135.535L188.965 135.99C188.922 136.057 188.877 136.107 188.83 136.14C188.783 136.173 188.727 136.19 188.66 136.19C188.61 136.19 188.55 136.175 188.48 136.145C188.41 136.112 188.332 136.073 188.245 136.03C188.158 135.983 188.06 135.937 187.95 135.89C187.843 135.843 187.725 135.805 187.595 135.775L187.42 137.845ZM194.706 140.85C194.839 140.85 194.944 140.888 195.021 140.965C195.101 141.038 195.141 141.137 195.141 141.26V142H190.181V141.59C190.181 141.507 190.197 141.42 190.231 141.33C190.267 141.237 190.324 141.153 190.401 141.08L192.596 138.88C192.779 138.693 192.942 138.515 193.086 138.345C193.232 138.175 193.354 138.007 193.451 137.84C193.547 137.673 193.621 137.505 193.671 137.335C193.724 137.162 193.751 136.98 193.751 136.79C193.751 136.617 193.726 136.465 193.676 136.335C193.626 136.202 193.554 136.09 193.461 136C193.371 135.91 193.261 135.843 193.131 135.8C193.004 135.753 192.861 135.73 192.701 135.73C192.554 135.73 192.417 135.752 192.291 135.795C192.167 135.835 192.057 135.893 191.961 135.97C191.864 136.043 191.782 136.13 191.716 136.23C191.649 136.33 191.599 136.44 191.566 136.56C191.509 136.713 191.436 136.815 191.346 136.865C191.256 136.915 191.126 136.927 190.956 136.9L190.306 136.785C190.356 136.438 190.452 136.135 190.596 135.875C190.739 135.612 190.917 135.393 191.131 135.22C191.347 135.043 191.594 134.912 191.871 134.825C192.151 134.735 192.451 134.69 192.771 134.69C193.104 134.69 193.409 134.74 193.686 134.84C193.962 134.937 194.199 135.075 194.396 135.255C194.592 135.435 194.746 135.652 194.856 135.905C194.966 136.158 195.021 136.44 195.021 136.75C195.021 137.017 194.981 137.263 194.901 137.49C194.824 137.717 194.719 137.933 194.586 138.14C194.456 138.347 194.302 138.547 194.126 138.74C193.949 138.933 193.764 139.13 193.571 139.33L191.941 140.995C192.097 140.948 192.252 140.913 192.406 140.89C192.562 140.863 192.711 140.85 192.851 140.85H194.706ZM196.192 143.225C196.132 143.175 196.102 143.113 196.102 143.04C196.102 143.013 196.11 142.983 196.127 142.95C196.147 142.917 196.17 142.887 196.197 142.86C196.233 142.82 196.278 142.77 196.332 142.71C196.385 142.653 196.438 142.587 196.492 142.51C196.545 142.437 196.593 142.355 196.637 142.265C196.683 142.178 196.718 142.085 196.742 141.985C196.635 141.985 196.538 141.967 196.452 141.93C196.365 141.89 196.29 141.837 196.227 141.77C196.167 141.703 196.118 141.625 196.082 141.535C196.048 141.445 196.032 141.347 196.032 141.24C196.032 141.147 196.048 141.06 196.082 140.98C196.118 140.897 196.168 140.825 196.232 140.765C196.295 140.702 196.372 140.653 196.462 140.62C196.552 140.583 196.65 140.565 196.757 140.565C196.883 140.565 196.993 140.588 197.087 140.635C197.183 140.678 197.262 140.74 197.322 140.82C197.385 140.897 197.432 140.987 197.462 141.09C197.495 141.19 197.512 141.297 197.512 141.41C197.512 141.57 197.487 141.738 197.437 141.915C197.39 142.092 197.32 142.268 197.227 142.445C197.133 142.622 197.017 142.793 196.877 142.96C196.74 143.127 196.583 143.28 196.407 143.42L196.192 143.225ZM199.975 137.395C200.135 137.362 200.289 137.338 200.435 137.325C200.582 137.308 200.724 137.3 200.86 137.3C201.24 137.3 201.575 137.357 201.865 137.47C202.155 137.583 202.399 137.74 202.595 137.94C202.792 138.14 202.94 138.375 203.04 138.645C203.14 138.912 203.19 139.2 203.19 139.51C203.19 139.893 203.122 140.243 202.985 140.56C202.852 140.877 202.665 141.148 202.425 141.375C202.185 141.598 201.9 141.772 201.57 141.895C201.244 142.018 200.887 142.08 200.5 142.08C200.274 142.08 200.059 142.057 199.855 142.01C199.652 141.963 199.46 141.902 199.28 141.825C199.104 141.745 198.939 141.655 198.785 141.555C198.635 141.452 198.5 141.343 198.38 141.23L198.76 140.705C198.84 140.592 198.945 140.535 199.075 140.535C199.159 140.535 199.244 140.562 199.33 140.615C199.417 140.668 199.515 140.727 199.625 140.79C199.739 140.853 199.87 140.912 200.02 140.965C200.174 141.018 200.357 141.045 200.57 141.045C200.797 141.045 200.997 141.008 201.17 140.935C201.344 140.862 201.487 140.76 201.6 140.63C201.717 140.497 201.804 140.34 201.86 140.16C201.92 139.977 201.95 139.778 201.95 139.565C201.95 139.172 201.835 138.865 201.605 138.645C201.379 138.422 201.042 138.31 200.595 138.31C200.252 138.31 199.9 138.373 199.54 138.5L198.77 138.28L199.37 134.77H202.94V135.295C202.94 135.472 202.885 135.615 202.775 135.725C202.665 135.835 202.479 135.89 202.215 135.89H200.23L199.975 137.395ZM209.296 138.385C209.296 139.015 209.228 139.563 209.091 140.03C208.958 140.493 208.771 140.877 208.531 141.18C208.294 141.483 208.013 141.71 207.686 141.86C207.363 142.007 207.013 142.08 206.636 142.08C206.259 142.08 205.909 142.007 205.586 141.86C205.266 141.71 204.988 141.483 204.751 141.18C204.514 140.877 204.329 140.493 204.196 140.03C204.063 139.563 203.996 139.015 203.996 138.385C203.996 137.752 204.063 137.203 204.196 136.74C204.329 136.277 204.514 135.893 204.751 135.59C204.988 135.287 205.266 135.062 205.586 134.915C205.909 134.765 206.259 134.69 206.636 134.69C207.013 134.69 207.363 134.765 207.686 134.915C208.013 135.062 208.294 135.287 208.531 135.59C208.771 135.893 208.958 136.277 209.091 136.74C209.228 137.203 209.296 137.752 209.296 138.385ZM208.021 138.385C208.021 137.862 207.983 137.428 207.906 137.085C207.829 136.742 207.726 136.468 207.596 136.265C207.469 136.062 207.323 135.92 207.156 135.84C206.989 135.757 206.816 135.715 206.636 135.715C206.459 135.715 206.288 135.757 206.121 135.84C205.958 135.92 205.813 136.062 205.686 136.265C205.559 136.468 205.458 136.742 205.381 137.085C205.308 137.428 205.271 137.862 205.271 138.385C205.271 138.908 205.308 139.342 205.381 139.685C205.458 140.028 205.559 140.302 205.686 140.505C205.813 140.708 205.958 140.852 206.121 140.935C206.288 141.015 206.459 141.055 206.636 141.055C206.816 141.055 206.989 141.015 207.156 140.935C207.323 140.852 207.469 140.708 207.596 140.505C207.726 140.302 207.829 140.028 207.906 139.685C207.983 139.342 208.021 138.908 208.021 138.385ZM215.097 138.385C215.097 139.015 215.029 139.563 214.892 140.03C214.759 140.493 214.572 140.877 214.332 141.18C214.095 141.483 213.814 141.71 213.487 141.86C213.164 142.007 212.814 142.08 212.437 142.08C212.06 142.08 211.71 142.007 211.387 141.86C211.067 141.71 210.789 141.483 210.552 141.18C210.315 140.877 210.13 140.493 209.997 140.03C209.864 139.563 209.797 139.015 209.797 138.385C209.797 137.752 209.864 137.203 209.997 136.74C210.13 136.277 210.315 135.893 210.552 135.59C210.789 135.287 211.067 135.062 211.387 134.915C211.71 134.765 212.06 134.69 212.437 134.69C212.814 134.69 213.164 134.765 213.487 134.915C213.814 135.062 214.095 135.287 214.332 135.59C214.572 135.893 214.759 136.277 214.892 136.74C215.029 137.203 215.097 137.752 215.097 138.385ZM213.822 138.385C213.822 137.862 213.784 137.428 213.707 137.085C213.63 136.742 213.527 136.468 213.397 136.265C213.27 136.062 213.124 135.92 212.957 135.84C212.79 135.757 212.617 135.715 212.437 135.715C212.26 135.715 212.089 135.757 211.922 135.84C211.759 135.92 211.614 136.062 211.487 136.265C211.36 136.468 211.259 136.742 211.182 137.085C211.109 137.428 211.072 137.862 211.072 138.385C211.072 138.908 211.109 139.342 211.182 139.685C211.259 140.028 211.36 140.302 211.487 140.505C211.614 140.708 211.759 140.852 211.922 140.935C212.089 141.015 212.26 141.055 212.437 141.055C212.617 141.055 212.79 141.015 212.957 140.935C213.124 140.852 213.27 140.708 213.397 140.505C213.527 140.302 213.63 140.028 213.707 139.685C213.784 139.342 213.822 138.908 213.822 138.385ZM216.818 142.015C216.761 142.168 216.669 142.283 216.543 142.36C216.419 142.437 216.293 142.475 216.163 142.475H215.638L218.558 135.005C218.611 134.865 218.693 134.758 218.803 134.685C218.913 134.608 219.041 134.57 219.188 134.57H219.718L216.818 142.015ZM221.866 134.57V142H220.631V134.57H221.866ZM224.331 140.67C224.471 140.84 224.623 140.96 224.786 141.03C224.953 141.1 225.128 141.135 225.311 141.135C225.501 141.135 225.671 141.102 225.821 141.035C225.975 140.965 226.105 140.858 226.211 140.715C226.318 140.568 226.4 140.383 226.456 140.16C226.513 139.933 226.541 139.663 226.541 139.35C226.541 138.787 226.448 138.38 226.261 138.13C226.075 137.877 225.806 137.75 225.456 137.75C225.22 137.75 225.013 137.805 224.836 137.915C224.66 138.022 224.491 138.173 224.331 138.37V140.67ZM224.331 137.5C224.538 137.283 224.766 137.112 225.016 136.985C225.27 136.855 225.558 136.79 225.881 136.79C226.178 136.79 226.445 136.848 226.681 136.965C226.921 137.082 227.125 137.25 227.291 137.47C227.461 137.687 227.591 137.95 227.681 138.26C227.771 138.57 227.816 138.918 227.816 139.305C227.816 139.722 227.765 140.1 227.661 140.44C227.558 140.78 227.41 141.072 227.216 141.315C227.026 141.555 226.796 141.742 226.526 141.875C226.256 142.008 225.956 142.075 225.626 142.075C225.466 142.075 225.321 142.058 225.191 142.025C225.061 141.995 224.941 141.952 224.831 141.895C224.721 141.838 224.62 141.77 224.526 141.69C224.436 141.607 224.35 141.515 224.266 141.415L224.211 141.76C224.191 141.847 224.156 141.908 224.106 141.945C224.06 141.982 223.995 142 223.911 142H223.096V134.57H224.331V137.5ZM228.59 141.32C228.59 141.217 228.608 141.118 228.645 141.025C228.685 140.932 228.738 140.852 228.805 140.785C228.872 140.718 228.952 140.665 229.045 140.625C229.138 140.585 229.238 140.565 229.345 140.565C229.452 140.565 229.55 140.585 229.64 140.625C229.733 140.665 229.813 140.718 229.88 140.785C229.95 140.852 230.005 140.932 230.045 141.025C230.085 141.118 230.105 141.217 230.105 141.32C230.105 141.427 230.085 141.527 230.045 141.62C230.005 141.71 229.95 141.788 229.88 141.855C229.813 141.922 229.733 141.973 229.64 142.01C229.55 142.05 229.452 142.07 229.345 142.07C229.238 142.07 229.138 142.05 229.045 142.01C228.952 141.973 228.872 141.922 228.805 141.855C228.738 141.788 228.685 141.71 228.645 141.62C228.608 141.527 228.59 141.427 228.59 141.32ZM186.88 148.79C187.26 148.79 187.605 148.852 187.915 148.975C188.228 149.098 188.495 149.273 188.715 149.5C188.938 149.727 189.11 150.003 189.23 150.33C189.35 150.657 189.41 151.022 189.41 151.425C189.41 151.832 189.35 152.198 189.23 152.525C189.11 152.852 188.938 153.13 188.715 153.36C188.495 153.59 188.228 153.767 187.915 153.89C187.605 154.013 187.26 154.075 186.88 154.075C186.497 154.075 186.148 154.013 185.835 153.89C185.522 153.767 185.253 153.59 185.03 153.36C184.81 153.13 184.638 152.852 184.515 152.525C184.395 152.198 184.335 151.832 184.335 151.425C184.335 151.022 184.395 150.657 184.515 150.33C184.638 150.003 184.81 149.727 185.03 149.5C185.253 149.273 185.522 149.098 185.835 148.975C186.148 148.852 186.497 148.79 186.88 148.79ZM186.88 153.125C187.307 153.125 187.622 152.982 187.825 152.695C188.032 152.408 188.135 151.988 188.135 151.435C188.135 150.882 188.032 150.46 187.825 150.17C187.622 149.88 187.307 149.735 186.88 149.735C186.447 149.735 186.125 149.882 185.915 150.175C185.708 150.465 185.605 150.885 185.605 151.435C185.605 151.985 185.708 152.405 185.915 152.695C186.125 152.982 186.447 153.125 186.88 153.125ZM190.585 154V149.8L190.14 149.73C190.044 149.71 189.965 149.677 189.905 149.63C189.849 149.58 189.82 149.51 189.82 149.42V148.915H190.585V148.535C190.585 148.242 190.629 147.978 190.715 147.745C190.805 147.512 190.932 147.313 191.095 147.15C191.262 146.987 191.464 146.862 191.7 146.775C191.937 146.688 192.204 146.645 192.5 146.645C192.737 146.645 192.957 146.677 193.16 146.74L193.135 147.36C193.132 147.407 193.119 147.445 193.095 147.475C193.072 147.502 193.04 147.523 193 147.54C192.964 147.553 192.92 147.563 192.87 147.57C192.82 147.573 192.767 147.575 192.71 147.575C192.564 147.575 192.432 147.592 192.315 147.625C192.202 147.655 192.105 147.71 192.025 147.79C191.945 147.867 191.884 147.97 191.84 148.1C191.8 148.227 191.78 148.385 191.78 148.575V148.915H193.115V149.795H191.82V154H190.585ZM198.6 150.405C198.847 150.405 199.062 150.375 199.245 150.315C199.429 150.252 199.58 150.163 199.7 150.05C199.824 149.933 199.915 149.793 199.975 149.63C200.035 149.463 200.065 149.278 200.065 149.075C200.065 148.882 200.035 148.707 199.975 148.55C199.915 148.393 199.825 148.26 199.705 148.15C199.585 148.04 199.434 147.957 199.25 147.9C199.067 147.84 198.85 147.81 198.6 147.81H197.595V150.405H198.6ZM198.6 146.77C199.084 146.77 199.502 146.827 199.855 146.94C200.209 147.053 200.5 147.212 200.73 147.415C200.96 147.618 201.13 147.862 201.24 148.145C201.354 148.428 201.41 148.738 201.41 149.075C201.41 149.425 201.352 149.747 201.235 150.04C201.119 150.33 200.944 150.58 200.71 150.79C200.477 151 200.184 151.163 199.83 151.28C199.48 151.397 199.07 151.455 198.6 151.455H197.595V154H196.25V146.77H198.6ZM204.8 151.81C204.444 151.827 204.144 151.858 203.9 151.905C203.657 151.948 203.462 152.005 203.315 152.075C203.169 152.145 203.064 152.227 203 152.32C202.937 152.413 202.905 152.515 202.905 152.625C202.905 152.842 202.969 152.997 203.095 153.09C203.225 153.183 203.394 153.23 203.6 153.23C203.854 153.23 204.072 153.185 204.255 153.095C204.442 153.002 204.624 152.862 204.8 152.675V151.81ZM201.97 149.585C202.56 149.045 203.27 148.775 204.1 148.775C204.4 148.775 204.669 148.825 204.905 148.925C205.142 149.022 205.342 149.158 205.505 149.335C205.669 149.508 205.792 149.717 205.875 149.96C205.962 150.203 206.005 150.47 206.005 150.76V154H205.445C205.329 154 205.239 153.983 205.175 153.95C205.112 153.913 205.062 153.842 205.025 153.735L204.915 153.365C204.785 153.482 204.659 153.585 204.535 153.675C204.412 153.762 204.284 153.835 204.15 153.895C204.017 153.955 203.874 154 203.72 154.03C203.57 154.063 203.404 154.08 203.22 154.08C203.004 154.08 202.804 154.052 202.62 153.995C202.437 153.935 202.279 153.847 202.145 153.73C202.012 153.613 201.909 153.468 201.835 153.295C201.762 153.122 201.725 152.92 201.725 152.69C201.725 152.56 201.747 152.432 201.79 152.305C201.834 152.175 201.904 152.052 202 151.935C202.1 151.818 202.229 151.708 202.385 151.605C202.542 151.502 202.734 151.412 202.96 151.335C203.19 151.258 203.457 151.197 203.76 151.15C204.064 151.1 204.41 151.07 204.8 151.06V150.76C204.8 150.417 204.727 150.163 204.58 150C204.434 149.833 204.222 149.75 203.945 149.75C203.745 149.75 203.579 149.773 203.445 149.82C203.315 149.867 203.2 149.92 203.1 149.98C203 150.037 202.909 150.088 202.825 150.135C202.745 150.182 202.655 150.205 202.555 150.205C202.469 150.205 202.395 150.183 202.335 150.14C202.275 150.093 202.227 150.04 202.19 149.98L201.97 149.585ZM211.682 148.87L208.887 155.41C208.85 155.497 208.802 155.562 208.742 155.605C208.685 155.652 208.597 155.675 208.477 155.675H207.557L208.517 153.615L206.442 148.87H207.527C207.624 148.87 207.699 148.893 207.752 148.94C207.809 148.987 207.85 149.04 207.877 149.1L208.967 151.76C209.004 151.85 209.034 151.94 209.057 152.03C209.084 152.12 209.109 152.212 209.132 152.305C209.162 152.212 209.192 152.12 209.222 152.03C209.252 151.937 209.285 151.845 209.322 151.755L210.352 149.1C210.379 149.033 210.422 148.978 210.482 148.935C210.545 148.892 210.615 148.87 210.692 148.87H211.682ZM213.546 146.57V154H212.311V146.57H213.546ZM217.046 148.79C217.426 148.79 217.771 148.852 218.081 148.975C218.394 149.098 218.661 149.273 218.881 149.5C219.104 149.727 219.276 150.003 219.396 150.33C219.516 150.657 219.576 151.022 219.576 151.425C219.576 151.832 219.516 152.198 219.396 152.525C219.276 152.852 219.104 153.13 218.881 153.36C218.661 153.59 218.394 153.767 218.081 153.89C217.771 154.013 217.426 154.075 217.046 154.075C216.663 154.075 216.314 154.013 216.001 153.89C215.688 153.767 215.419 153.59 215.196 153.36C214.976 153.13 214.804 152.852 214.681 152.525C214.561 152.198 214.501 151.832 214.501 151.425C214.501 151.022 214.561 150.657 214.681 150.33C214.804 150.003 214.976 149.727 215.196 149.5C215.419 149.273 215.688 149.098 216.001 148.975C216.314 148.852 216.663 148.79 217.046 148.79ZM217.046 153.125C217.473 153.125 217.788 152.982 217.991 152.695C218.198 152.408 218.301 151.988 218.301 151.435C218.301 150.882 218.198 150.46 217.991 150.17C217.788 149.88 217.473 149.735 217.046 149.735C216.613 149.735 216.291 149.882 216.081 150.175C215.874 150.465 215.771 150.885 215.771 151.435C215.771 151.985 215.874 152.405 216.081 152.695C216.291 152.982 216.613 153.125 217.046 153.125ZM223.228 151.81C222.872 151.827 222.572 151.858 222.328 151.905C222.085 151.948 221.89 152.005 221.743 152.075C221.597 152.145 221.492 152.227 221.428 152.32C221.365 152.413 221.333 152.515 221.333 152.625C221.333 152.842 221.397 152.997 221.523 153.09C221.653 153.183 221.822 153.23 222.028 153.23C222.282 153.23 222.5 153.185 222.683 153.095C222.87 153.002 223.052 152.862 223.228 152.675V151.81ZM220.398 149.585C220.988 149.045 221.698 148.775 222.528 148.775C222.828 148.775 223.097 148.825 223.333 148.925C223.57 149.022 223.77 149.158 223.933 149.335C224.097 149.508 224.22 149.717 224.303 149.96C224.39 150.203 224.433 150.47 224.433 150.76V154H223.873C223.757 154 223.667 153.983 223.603 153.95C223.54 153.913 223.49 153.842 223.453 153.735L223.343 153.365C223.213 153.482 223.087 153.585 222.963 153.675C222.84 153.762 222.712 153.835 222.578 153.895C222.445 153.955 222.302 154 222.148 154.03C221.998 154.063 221.832 154.08 221.648 154.08C221.432 154.08 221.232 154.052 221.048 153.995C220.865 153.935 220.707 153.847 220.573 153.73C220.44 153.613 220.337 153.468 220.263 153.295C220.19 153.122 220.153 152.92 220.153 152.69C220.153 152.56 220.175 152.432 220.218 152.305C220.262 152.175 220.332 152.052 220.428 151.935C220.528 151.818 220.657 151.708 220.813 151.605C220.97 151.502 221.162 151.412 221.388 151.335C221.618 151.258 221.885 151.197 222.188 151.15C222.492 151.1 222.838 151.07 223.228 151.06V150.76C223.228 150.417 223.155 150.163 223.008 150C222.862 149.833 222.65 149.75 222.373 149.75C222.173 149.75 222.007 149.773 221.873 149.82C221.743 149.867 221.628 149.92 221.528 149.98C221.428 150.037 221.337 150.088 221.253 150.135C221.173 150.182 221.083 150.205 220.983 150.205C220.897 150.205 220.823 150.183 220.763 150.14C220.703 150.093 220.655 150.04 220.618 149.98L220.398 149.585ZM228.816 150.18C228.676 150.01 228.523 149.89 228.356 149.82C228.193 149.75 228.016 149.715 227.826 149.715C227.64 149.715 227.471 149.75 227.321 149.82C227.171 149.89 227.043 149.997 226.936 150.14C226.83 150.28 226.748 150.46 226.691 150.68C226.635 150.897 226.606 151.153 226.606 151.45C226.606 151.75 226.63 152.005 226.676 152.215C226.726 152.422 226.796 152.592 226.886 152.725C226.976 152.855 227.086 152.95 227.216 153.01C227.346 153.067 227.491 153.095 227.651 153.095C227.908 153.095 228.126 153.042 228.306 152.935C228.486 152.828 228.656 152.677 228.816 152.48V150.18ZM230.051 146.57V154H229.296C229.133 154 229.03 153.925 228.986 153.775L228.881 153.28C228.675 153.517 228.436 153.708 228.166 153.855C227.9 154.002 227.588 154.075 227.231 154.075C226.951 154.075 226.695 154.017 226.461 153.9C226.228 153.783 226.026 153.615 225.856 153.395C225.69 153.172 225.56 152.897 225.466 152.57C225.376 152.243 225.331 151.87 225.331 151.45C225.331 151.07 225.383 150.717 225.486 150.39C225.59 150.063 225.738 149.78 225.931 149.54C226.125 149.3 226.356 149.113 226.626 148.98C226.896 148.843 227.2 148.775 227.536 148.775C227.823 148.775 228.068 148.82 228.271 148.91C228.475 149 228.656 149.122 228.816 149.275V146.57H230.051Z" fill="#0E0D0D"/>
</svg>
