<svg width="229" height="219" viewBox="0 0 229 219" fill="none" xmlns="http://www.w3.org/2000/svg">
<rect width="229" height="219" fill="white"/>
<circle cx="138.844" cy="93.1976" r="67.1702" fill="#FFCE33"/>
<circle cx="138.844" cy="93.1976" r="60.3924" fill="white"/>
<circle cx="138.844" cy="93.1975" r="18.4924" fill="#FFCE33"/>
<path d="M74.6706 82.8804L99.7591 38.8722L130.995 77.14L123.53 90.2338L74.6706 82.8804Z" fill="#FFCE33"/>
<path d="M174.392 37.5264L203.25 79.1603L155.473 90.6483L146.887 78.2608L174.392 37.5264Z" fill="#FFCE33"/>
<path d="M113.652 153.59L164.302 154.385L147.339 102.564L132.269 102.327L113.652 153.59Z" fill="#FFCE33"/>
<circle cx="138.844" cy="93.1975" r="17.4924" fill="#FFCE33" stroke="white" stroke-width="2"/>
<circle cx="139.113" cy="93.5954" r="59.7902" stroke="white" stroke-width="2"/>
<ellipse cx="44.0534" cy="80.2069" rx="7.21778" ry="6.08433" fill="#D7D7D7"/>
<ellipse cx="38.1434" cy="76.0399" rx="7.21778" ry="6.08433" fill="#D7D7D7"/>
<ellipse cx="33.2267" cy="73.3358" rx="7.21778" ry="6.08433" fill="#D7D7D7"/>
<ellipse cx="27.4526" cy="67.2518" rx="7.21778" ry="6.08433" fill="#D7D7D7"/>
<ellipse cx="26.009" cy="57.787" rx="7.21778" ry="6.08433" fill="#D7D7D7"/>
<ellipse cx="23.1219" cy="51.703" rx="7.21778" ry="6.08433" fill="#D7D7D7"/>
<ellipse cx="14.4605" cy="47.6463" rx="7.21778" ry="6.08433" fill="#D7D7D7"/>
<ellipse cx="8.68629" cy="41.5624" rx="7.21778" ry="6.08433" fill="#D7D7D7"/>
<ellipse cx="80.8641" cy="50.3509" rx="7.21778" ry="6.08433" fill="#D7D7D7"/>
<ellipse cx="90.9691" cy="55.0829" rx="7.21778" ry="6.08433" fill="#D7D7D7"/>
<ellipse cx="116.953" cy="53.055" rx="7.21778" ry="6.08433" fill="#D7D7D7"/>
<ellipse cx="104.683" cy="54.4071" rx="7.21778" ry="6.08433" fill="#D7D7D7"/>
<ellipse cx="99.6304" cy="61.8431" rx="7.21778" ry="6.08433" fill="#D7D7D7"/>
<ellipse cx="95.2997" cy="61.8431" rx="7.21778" ry="6.08433" fill="#D7D7D7"/>
<ellipse cx="98.1868" cy="68.6039" rx="7.21778" ry="6.08433" fill="#D7D7D7"/>
<ellipse cx="97.1042" cy="74.3501" rx="5.41334" ry="5.07028" fill="#D7D7D7"/>
<ellipse cx="76.1726" cy="59.477" rx="5.41334" ry="5.07028" fill="#D7D7D7"/>
<ellipse cx="68.233" cy="68.2656" rx="5.41334" ry="5.07028" fill="#D7D7D7"/>
<ellipse cx="69.6769" cy="83.4765" rx="5.41334" ry="5.07028" fill="#D7D7D7"/>
<ellipse cx="68.9548" cy="79.0825" rx="5.41334" ry="5.07028" fill="#D7D7D7"/>
<ellipse cx="67.5112" cy="72.998" rx="5.41334" ry="5.07028" fill="#D7D7D7"/>
<ellipse cx="73.2855" cy="67.5898" rx="5.41334" ry="5.07028" fill="#D7D7D7"/>
<ellipse cx="73.2855" cy="72.998" rx="5.41334" ry="5.07028" fill="#D7D7D7"/>
<ellipse cx="73.2855" cy="78.4062" rx="5.41334" ry="5.07028" fill="#D7D7D7"/>
<ellipse cx="73.2855" cy="78.4062" rx="5.41334" ry="5.07028" fill="#D7D7D7"/>
<ellipse cx="67.5116" cy="81.4482" rx="5.41334" ry="5.07028" fill="#D7D7D7"/>
<ellipse cx="95.6606" cy="77.7304" rx="5.41334" ry="5.07028" fill="#D7D7D7"/>
<ellipse cx="92.5487" cy="82.5732" rx="4.33067" ry="3.7182" fill="#D7D7D7"/>
<ellipse cx="95.5174" cy="85.1664" rx="4.33067" ry="3.7182" fill="#D7D7D7"/>
<ellipse cx="94.764" cy="81.7866" rx="4.33067" ry="3.7182" fill="#D7D7D7"/>
<ellipse cx="98.1868" cy="77.7304" rx="4.33067" ry="3.7182" fill="#D7D7D7"/>
<ellipse cx="122.727" cy="48.9984" rx="7.21778" ry="6.08433" fill="#D7D7D7"/>
<ellipse cx="122.727" cy="48.9984" rx="7.21778" ry="6.08433" fill="#D7D7D7"/>
<ellipse cx="18.7912" cy="36.1542" rx="7.21778" ry="6.08433" fill="#D7D7D7"/>
<ellipse cx="27.4526" cy="38.8583" rx="7.21778" ry="6.08433" fill="#D7D7D7"/>
<ellipse cx="34.6703" cy="30.0697" rx="7.21778" ry="6.08433" fill="#D7D7D7"/>
<ellipse cx="41.8881" cy="32.7738" rx="7.21778" ry="6.08433" fill="#D7D7D7"/>
<ellipse cx="50.5495" cy="26.6893" rx="7.21778" ry="6.08433" fill="#D7D7D7"/>
<ellipse cx="56.3237" cy="20.6048" rx="7.21778" ry="6.08433" fill="#D7D7D7"/>
<ellipse cx="66.4286" cy="21.9574" rx="7.21778" ry="6.08433" fill="#D7D7D7"/>
<ellipse cx="68.5939" cy="13.1688" rx="7.21778" ry="6.08433" fill="#D7D7D7"/>
<ellipse cx="75.09" cy="7.08433" rx="7.21778" ry="6.08433" fill="#D7D7D7"/>
<ellipse cx="83.0295" cy="8.43638" rx="7.21778" ry="6.08433" fill="#D7D7D7"/>
<ellipse cx="92.4126" cy="9.78843" rx="7.21778" ry="6.08433" fill="#D7D7D7"/>
<ellipse cx="101.074" cy="15.8729" rx="7.21778" ry="6.08433" fill="#D7D7D7"/>
<ellipse cx="108.292" cy="11.1405" rx="7.21778" ry="6.08433" fill="#D7D7D7"/>
<ellipse cx="115.51" cy="25.3373" rx="7.21778" ry="6.08433" fill="#D7D7D7"/>
<ellipse cx="117.675" cy="21.9574" rx="7.21778" ry="6.08433" fill="#D7D7D7"/>
<ellipse cx="125.254" cy="26.6893" rx="7.5787" ry="6.08433" fill="#D7D7D7"/>
<ellipse cx="128.502" cy="34.8021" rx="7.21778" ry="6.08433" fill="#D7D7D7"/>
<ellipse cx="132.832" cy="43.5902" rx="7.21778" ry="6.08433" fill="#D7D7D7"/>
<ellipse cx="137.984" cy="38.182" rx="7.21778" ry="6.08433" fill="#D7D7D7"/>
<ellipse cx="69.3157" cy="54.4071" rx="7.21778" ry="6.08433" fill="#D7D7D7"/>
<ellipse cx="69.3157" cy="62.5194" rx="7.21778" ry="6.08433" fill="#D7D7D7"/>
<ellipse cx="34.6703" cy="53.055" rx="7.21778" ry="6.08433" fill="#D7D7D7"/>
<ellipse cx="34.6703" cy="53.055" rx="7.21778" ry="6.08433" fill="#D7D7D7"/>
<ellipse cx="36.8356" cy="62.5194" rx="7.21778" ry="6.08433" fill="#D7D7D7"/>
<ellipse cx="44.7752" cy="53.7308" rx="7.21778" ry="6.08433" fill="#D7D7D7"/>
<ellipse cx="54.1583" cy="51.703" rx="7.21778" ry="6.08433" fill="#D7D7D7"/>
<ellipse cx="44.0534" cy="69.9559" rx="7.21778" ry="6.08433" fill="#D7D7D7"/>
<ellipse cx="46.9405" cy="78.7445" rx="7.21778" ry="6.08433" fill="#D7D7D7"/>
<ellipse cx="53.4366" cy="67.2518" rx="7.21778" ry="6.08433" fill="#D7D7D7"/>
<ellipse cx="49.2287" cy="72.3221" rx="7.21778" ry="6.08433" fill="#D7D7D7"/>
<ellipse cx="45.3611" cy="80.0965" rx="7.21778" ry="6.08433" fill="#D7D7D7"/>
<ellipse cx="49.1059" cy="60.4913" rx="8.66134" ry="6.76037" fill="#D7D7D7"/>
<ellipse cx="98.1868" cy="24.3235" rx="11.5485" ry="8.45046" fill="#D7D7D7"/>
<ellipse cx="109.735" cy="16.887" rx="11.5485" ry="8.45046" fill="#D7D7D7"/>
<ellipse cx="109.735" cy="16.887" rx="11.5485" ry="8.45046" fill="#D7D7D7"/>
<ellipse cx="15.8791" cy="6.08435" rx="15.8791" ry="6.08435" transform="matrix(0.999985 -0.00554513 0.00632087 0.99998 69.2775 9.87646)" fill="#D7D7D7"/>
<ellipse cx="36.8357" cy="43.2525" rx="20.9316" ry="7.77442" fill="#D7D7D7"/>
<ellipse cx="64.2633" cy="35.8159" rx="20.9316" ry="7.77442" fill="#D7D7D7"/>
<ellipse cx="72.9245" cy="27.0274" rx="20.9316" ry="7.77442" fill="#D7D7D7"/>
<ellipse cx="106.126" cy="40.2102" rx="26.7058" ry="13.5207" fill="#D7D7D7"/>
<ellipse cx="68.233" cy="45.6183" rx="14.7965" ry="6.76037" fill="#D7D7D7"/>
<rect x="4.83044" y="204.874" width="221.004" height="13.1262" rx="1" fill="#212121"/>
<path d="M13.6401 211.437C13.6401 212.208 12.9954 212.861 12.1652 212.861C11.3351 212.861 10.6904 212.208 10.6904 211.437C10.6904 210.666 11.3351 210.012 12.1652 210.012C12.9954 210.012 13.6401 210.666 13.6401 211.437Z" stroke="#7A797A" stroke-width="1.4"/>
<path d="M71.4425 211.437C71.4425 212.208 70.7978 212.861 69.9677 212.861C69.1376 212.861 68.4928 212.208 68.4928 211.437C68.4928 210.666 69.1376 210.012 69.9677 210.012C70.7978 210.012 71.4425 210.666 71.4425 211.437Z" stroke="#7A797A" stroke-width="1.4"/>
<path d="M42.5413 211.437C42.5413 212.208 41.8966 212.861 41.0665 212.861C40.2363 212.861 39.5916 212.208 39.5916 211.437C39.5916 210.666 40.2363 210.012 41.0665 210.012C41.8966 210.012 42.5413 210.666 42.5413 211.437Z" stroke="#7A797A" stroke-width="1.4"/>
<path d="M100.344 211.437C100.344 212.208 99.6991 212.861 98.869 212.861C98.0388 212.861 97.3941 212.208 97.3941 211.437C97.3941 210.666 98.0388 210.012 98.869 210.012C99.6991 210.012 100.344 210.666 100.344 211.437Z" stroke="#7A797A" stroke-width="1.4"/>
<path d="M129.245 211.437C129.245 212.208 128.6 212.861 127.77 212.861C126.94 212.861 126.295 212.208 126.295 211.437C126.295 210.666 126.94 210.012 127.77 210.012C128.6 210.012 129.245 210.666 129.245 211.437Z" stroke="#7A797A" stroke-width="1.4"/>
<path d="M158.147 211.437C158.147 212.208 157.502 212.861 156.672 212.861C155.842 212.861 155.197 212.208 155.197 211.437C155.197 210.666 155.842 210.012 156.672 210.012C157.502 210.012 158.147 210.666 158.147 211.437Z" stroke="#7A797A" stroke-width="1.4"/>
<path d="M215.949 211.437C215.949 212.208 215.304 212.861 214.474 212.861C213.644 212.861 213 212.208 213 211.437C213 210.666 213.644 210.012 214.474 210.012C215.304 210.012 215.949 210.666 215.949 211.437Z" stroke="#7A797A" stroke-width="1.4"/>
<path d="M187.048 211.437C187.048 212.208 186.403 212.861 185.573 212.861C184.743 212.861 184.098 212.208 184.098 211.437C184.098 210.666 184.743 210.012 185.573 210.012C186.403 210.012 187.048 210.666 187.048 211.437Z" stroke="#7A797A" stroke-width="1.4"/>
<path d="M37.4867 84.5676C37.5194 84.0403 37.9565 83.6294 38.4848 83.6294H50.394C50.9319 83.6294 51.3734 84.0548 51.3933 84.5923L54.5905 170.676C54.6115 171.242 54.158 171.713 53.5912 171.713H33.1562C32.5796 171.713 32.1225 171.227 32.1581 170.651L37.4867 84.5676Z" fill="#002642"/>
<path d="M61.8408 84.9133C61.8734 84.386 62.3106 83.9751 62.8389 83.9751H74.7481C75.2859 83.9751 75.7274 84.4005 75.7474 84.938L78.9445 171.022C78.9656 171.588 78.5121 172.059 77.9452 172.059H57.5103C56.9337 172.059 56.4766 171.572 56.5122 170.997L61.8408 84.9133Z" fill="#002642"/>
<path d="M86.5584 84.9133C86.591 84.386 87.0282 83.9751 87.5565 83.9751H99.4657C100.004 83.9751 100.445 84.4005 100.465 84.938L103.662 171.022C103.683 171.588 103.23 172.059 102.663 172.059H82.2279C81.6513 172.059 81.1942 171.572 81.2298 170.997L86.5584 84.9133Z" fill="#002642"/>
<path d="M115.57 144.981C115.803 144.105 116.596 143.495 117.503 143.495H142.95C143.82 143.495 144.591 144.058 144.855 144.887L155.078 176.907L165.752 202.094C166.311 203.412 165.343 204.874 163.911 204.874H100.921C99.5677 204.874 98.6051 203.558 99.0151 202.268L107.076 176.907L115.57 144.981Z" fill="#7C7359"/>
<path d="M113.928 144.692C114.071 143.72 114.905 143 115.887 143H144.91C145.839 143 146.643 143.646 146.843 144.553C147.116 145.789 146.175 146.96 144.91 146.96H115.887C114.679 146.96 113.753 145.887 113.928 144.692Z" fill="#8A8168"/>
<path d="M140.908 164.829C141.138 163.949 141.933 163.335 142.843 163.335H158.759C159.632 163.335 160.405 163.902 160.667 164.736L167.325 185.947L174.058 202.105C174.607 203.422 173.639 204.874 172.212 204.874H132.189C130.84 204.874 129.877 203.565 130.28 202.277L135.384 185.947L140.908 164.829Z" fill="#8A8168"/>
<path d="M139.943 164.148C140.038 163.489 140.603 163 141.269 163H160.537C161.168 163 161.713 163.44 161.846 164.056C162.028 164.891 161.391 165.68 160.537 165.68H141.269C140.453 165.68 139.826 164.956 139.943 164.148Z" fill="#A09679"/>
<rect x="24.459" y="171.713" width="79.2416" height="4.14511" fill="#838383"/>
<rect x="28.094" y="175.858" width="75.6066" height="29.0158" fill="#616064"/>
<rect x="32.4559" y="180.694" width="7.64355" height="7.59937" fill="#4E4E4E"/>
<rect x="47.0482" y="180.694" width="7.64355" height="7.59937" fill="#4E4E4E"/>
<rect x="61.6404" y="180.694" width="7.64355" height="7.59937" fill="#4E4E4E"/>
<rect x="76.2326" y="180.694" width="7.64355" height="7.59937" fill="#4E4E4E"/>
<rect x="90.8249" y="180.694" width="7.64355" height="7.59937" fill="#4E4E4E"/>
<rect x="32.4559" y="193.129" width="7.64355" height="7.59937" fill="#4E4E4E"/>
<rect x="47.0482" y="193.129" width="7.64355" height="7.59937" fill="#4E4E4E"/>
<rect x="61.6404" y="193.129" width="7.64355" height="7.59937" fill="#4E4E4E"/>
<rect x="76.2326" y="193.129" width="7.64355" height="7.59937" fill="#4E4E4E"/>
<rect x="90.8249" y="193.129" width="7.64355" height="7.59937" fill="#4E4E4E"/>
<rect x="162.587" y="88.8105" width="63.2479" height="116.063" fill="#988E85"/>
<rect x="169.856" y="92.1445" width="7.99686" height="18.2475" fill="#857B71"/>
<rect x="190.212" y="92.1445" width="7.99686" height="18.2475" fill="#857B71"/>
<rect x="210.568" y="92.1445" width="7.99686" height="18.2475" fill="#857B71"/>
<rect x="169.856" y="115.123" width="7.99686" height="18.2475" fill="#857B71"/>
<rect x="190.212" y="115.123" width="7.99686" height="18.2475" fill="#857B71"/>
<rect x="210.568" y="115.123" width="7.99686" height="18.2475" fill="#857B71"/>
<rect x="169.856" y="138.101" width="7.99686" height="18.2475" fill="#857B71"/>
<rect x="190.212" y="138.101" width="7.99686" height="18.2475" fill="#857B71"/>
<rect x="210.568" y="138.101" width="7.99686" height="18.2475" fill="#857B71"/>
<rect x="169.856" y="161.08" width="7.99686" height="18.2475" fill="#857B71"/>
<rect x="190.212" y="161.08" width="7.99686" height="18.2475" fill="#857B71"/>
<rect x="210.568" y="161.08" width="7.99686" height="18.2475" fill="#857B71"/>
<rect x="169.856" y="184.058" width="7.99686" height="18.2475" fill="#857B71"/>
<rect x="190.212" y="184.058" width="7.99686" height="18.2475" fill="#857B71"/>
<rect x="210.568" y="184.058" width="7.99686" height="18.2475" fill="#857B71"/>
</svg>
