<svg width="229" height="101" viewBox="0 0 229 101" fill="none" xmlns="http://www.w3.org/2000/svg">
<g clip-path="url(#clip0_93_805)">
<rect width="229" height="101" fill="white"/>
<rect x="153" width="76" height="104" fill="#FAF9F6"/>
<rect x="1" y="-42" width="77" height="150" fill="#FAF9F6"/>
<rect x="78" y="-42" width="76" height="150" fill="#ECECEC"/>
<path d="M0 51.9999C0 51.9999 6.26958 50.9783 10 50.9998C13.5363 51.0203 19 50.9999 19 51.9998C19 54.4998 19 62.9999 19 62.9999L1 63.9999L0 51.9999Z" fill="#212121"/>
<path d="M48 59.9999C48.5 57.9999 49 52.5002 49.5 52C50.4999 50.9999 58.2039 50.5 58.5 51.9999C58.7961 53.4999 57.6666 52.824 57.5 54C56.8149 58.8371 56.5 64 56.5 66.5C56.5 70.2151 47 66 47 66C47 66 47.2291 63.0836 48 59.9999Z" fill="#212121"/>
<path d="M63.9999 62.5002C64.8141 60.3289 64.8938 54.5599 65.4999 54.0001C66.712 52.8808 75.2861 51.0002 75.9402 54.0597C76.2992 55.7383 74.9299 54.9819 74.728 56.2979C73.8975 61.7114 73.5 69.5001 74 73.0001C74.588 77.116 62.9999 71.0001 62.9999 71.0001C62.9999 71.0001 62.5 66.5001 63.9999 62.5002Z" fill="#212121"/>
<path d="M37.5 63H47.5V64H41L37.5 63Z" fill="#606060"/>
<path d="M46 66C46 66 51.5 66 53 66C54.118 66 57.6197 66 57.5 66.5C57.3071 67.3057 56 67 55 67.5C53.1561 68.4218 50.5 67.5 50.5 67.5H46V66Z" fill="#606060"/>
<path d="M62 71C62 71 68.6939 71 70.5195 71C71.8802 71 76.1421 71 75.9964 71.5236C75.7616 72.3674 74.1707 72.0473 72.9537 72.5709C70.7095 73.5364 66.5 73 66.5 73L62 72.5709V71Z" fill="#606060"/>
<path d="M-3 63.5L32.2403 62L78 75V108H-3V63.5Z" fill="#6B4A0D"/>
<path d="M179 48.5L229 69L230 104.5H154V52L179 48.5Z" fill="#95876D"/>
<path d="M179 -3L231.5 -4.5L229 69L179 48.5V-3Z" fill="#ECECEC"/>
<path d="M182 2.34717L231.5 6.50024V66.0002L182 46.5002V2.34717Z" fill="#A5BBCB"/>
<path d="M198 3.6958L231.5 6.5V66L198 52.8177V3.6958Z" fill="#A8C1D3"/>
<path d="M-2.83643 10.6274L70.5 13.0001L70.5 42.0001L-3.15938 42.6258L-2.83643 10.6274Z" fill="#212121"/>
<path d="M-0.856934 12.6475L68.8569 14.5L68.5 40L-1.13952 40.646L-0.856934 12.6475Z" fill="#D8E7F2"/>
<path d="M218 5.37842L238 7.00012L235 67.5001L218 60.6717V5.37842Z" fill="#B5CDDF"/>
<ellipse cx="171.875" cy="52.5" rx="15.5" ry="13.5" fill="#EF4848"/>
<path d="M184 53.5632C184.19 60.6158 179.489 65.7173 171.377 65.9364C163.266 66.1556 156.535 60.6159 156.345 53.5632C156.154 46.5106 162.888 42.2189 171 41.9998C178.5 41.7972 183.809 46.5106 184 53.5632Z" fill="#DB2121"/>
<path d="M169.218 77L175.595 78.7285C175.595 78.7285 176.506 80.6102 175.595 81.3213C175.15 81.6691 170.015 83.0498 169.219 80.457C168.727 78.8559 169.218 77 169.218 77Z" fill="#212121"/>
<path d="M203 46L206.2 46.8C206.2 46.8 208.463 52.651 209.4 56.4C210.337 60.149 211 66 211 66H207.8C207.8 66 207.137 61.1052 206.2 57.2C205.263 53.2948 203 46 203 46Z" fill="#D9D9D9"/>
<path d="M205 47L205.5 49C205.5 49 187.682 54.8992 184.778 60.5C181.873 66.1008 180.111 72.4118 179.333 74H177C177 74 179.379 62.9627 184 57.3235C189.136 51.0562 205 47 205 47Z" fill="#828684"/>
<path d="M220.425 72.2739L225.616 71C225.616 71 226.48 74.1847 225.615 74.1847C223.885 74.1847 221.289 75.4586 220.425 74.8217C219.469 74.1179 220.425 72.2739 220.425 72.2739Z" fill="#212121"/>
<path d="M185 81H192.703C192.703 81 193.371 83.2299 192.703 84.3033C191.702 85.9134 186.772 86.7392 185.771 85.1291C185.103 84.0558 185 81 185 81Z" fill="#212121"/>
<path d="M170.165 75.9565C177.998 72.6041 199.259 68.5791 200.715 68.1306C202.172 67.6821 203.065 65.0002 210.915 65C217.565 64.9998 225.782 68.1306 225.798 68.913C225.818 69.8297 226.242 71.0413 225.798 71.2608C224.215 72.0435 191.315 83 188.965 83C186.615 83 174.865 79.8696 169.382 78.3044C168.599 77.5218 169.099 76.4129 170.165 75.9565Z" fill="#626463"/>
<path d="M172 77.0714L200.328 70L220 71.5714L188.525 81L172 77.0714Z" fill="#212121"/>
<path d="M217 46.7879L219.267 46C219.267 46 220.778 49.1515 223.045 59.3939C223.612 61.9555 224.876 71.5 223.045 71.5C221.214 71.5 221.534 69.6364 220.778 63.3333C220.022 57.0303 217 46.7879 217 46.7879Z" fill="#D9D9D9"/>
<path d="M214.402 40.0294C214.402 40.0294 217.518 37 220 37C222 37 221.144 46.8452 220.5 47C217.347 47.7573 203 46.5 203 46.5L214.402 40.0294Z" fill="#212121"/>
<path d="M203.75 36.5219C206.29 35.7273 218.99 35.7274 220.683 37.3168C221.618 38.1947 220.312 46.8539 218.99 46.8539C217.297 46.8539 202.253 47.5283 201.153 45.9789C200.419 44.9459 202.495 36.9145 203.75 36.5219Z" fill="#474646"/>
<path d="M219.5 48.5L220.5 50.5C220.5 50.5 203.682 56.0063 200.778 61.6829C197.873 67.3596 196.111 78.5854 195.333 80.1951L193 81C193 81 195.379 64.179 200 58.4634C205.136 52.1112 219.5 48.5 219.5 48.5Z" fill="#828684"/>
<path d="M78 18H154V59H116H78V18Z" fill="#AEA6A6"/>
<rect x="78" y="21" width="76" height="35" fill="#212121"/>
<path d="M112.814 28.4295C111.303 26.953 110.548 25.4765 107.527 26.2148C103.257 27.2582 103.003 34.3398 106.016 38.7651C108.53 42.4564 114.553 44.4763 119.611 41.7181C121.433 40.7249 122.632 38.7651 122.632 38.7651L122.633 42.4564H125.654C125.654 42.4564 126.81 35.923 124.898 34.3356C122.231 32.12 117.346 39.5033 115.08 34.3356C113.562 30.8756 117.103 29.7768 117.345 27.6913C117.512 26.259 117.345 24 117.345 24H114.324C114.324 24 114.289 29.8711 112.814 28.4295Z" fill="#E61F1F"/>
<path d="M82.8291 43.4646C82.8291 41.2205 88.0715 35.5303 90.2919 35.235C92.5121 34.9398 91.6408 50.7854 91.1207 50.9418C88.6326 51.6899 82.0006 52.4379 82 51.6899C81.9995 50.9418 82.8291 46.4568 82.8291 43.4646Z" fill="#DA1C1C"/>
<path d="M82.8291 43.4646C82.8291 41.2205 88.0715 35.5303 90.2919 35.235C92.5121 34.9398 91.6408 50.7854 91.1207 50.9418C88.6326 51.6899 82.0006 52.4379 82 51.6899C81.9995 50.9418 82.8291 46.4568 82.8291 43.4646Z" fill="#DA1C1C"/>
<path d="M104.171 43.4646C104.171 41.2205 98.9285 35.5303 96.7081 35.235C94.4879 34.9398 95.3592 50.7854 95.8793 50.9418C98.3674 51.6899 104.999 52.4379 105 51.6899C105.001 50.9418 104.171 46.4568 104.171 43.4646Z" fill="#DA1C1C"/>
<path d="M92.7794 30H94.4377V38.2285L96.096 39.7246V41.2207L93.6085 38.9766L91.1211 41.2207V39.7246L92.7794 38.2285V30Z" fill="#DA1C1C"/>
<path d="M140.385 32H141.932V50H140.385V32Z" fill="#DE4A41"/>
<path d="M138.838 32H140.385V50H138.838V32Z" fill="#66B3D1"/>
<rect x="141.932" y="40.6089" width="4.64063" height="1.56522" fill="#DE4A41"/>
<path d="M140.385 39.0435H145.799V40.6087H140.385V39.0435Z" fill="#66B3D1"/>
<path d="M134.198 40.6089H139.612V42.1741H134.198V40.6089Z" fill="#66B3D1"/>
<rect x="134.198" y="39.0435" width="4.64063" height="1.56522" fill="#DE4A41"/>
<path d="M134.196 32.7827C136.332 32.7827 138.063 33.5653 138.063 35.9131C138.063 38.261 136.139 38.2178 134.971 39.0436C134.338 39.4907 134.971 39.0436 134.971 40.6088C134.971 41.3564 134.246 41.5862 134.971 42.174C135.888 42.9179 137.291 43.9929 137.29 45.3044C137.639 46.4973 135.543 48.4349 134.196 48.4349C128.783 48.4349 128.188 43.736 128.01 39.8262C127.821 35.6736 130.33 32.7827 134.196 32.7827Z" fill="#B2221E"/>
<path d="M146.565 32.7827C144.429 32.7827 142.705 33.5653 142.705 35.9131C142.705 38.261 143.848 38.2178 145.017 39.0436C145.65 39.4907 145.017 39.0436 145.017 40.6088C145.017 41.3564 145.742 41.5862 145.017 42.174C144.1 42.9179 143.478 43.993 143.479 45.3045C143.479 46.8697 145.236 48.6039 146.572 48.4349C152.76 47.6523 151.809 43.736 151.986 39.8262C152.175 35.6736 150.431 32.7827 146.565 32.7827Z" fill="#B2221E"/>
<rect x="78" y="77" width="76" height="27" fill="#CBCBCB"/>
<path d="M83.8149 78.5278L84.8149 79.1428V93.2868H83.8149V78.5278Z" fill="#ECCE90"/>
<path d="M112.671 79.2562L113.815 78.5278L113.671 93.2868H112.671V79.2562Z" fill="#ECCE90"/>
<path d="M86.8149 79.7578H87.8149V84.0625H86.8149V79.7578Z" fill="#ECCE90"/>
<path d="M109.815 79.7578H110.815V84.0625H109.815V79.7578Z" fill="#ECCE90"/>
<path d="M83.3152 75.4532C83.5721 74.9757 113.536 75.7435 113.815 76.0681C115.111 77.5786 113.622 79.4548 112.815 80.3728C112.274 80.9878 84.9836 81.1949 84.315 80.3728C83.1746 78.9708 82.3224 77.2983 83.3152 75.4532Z" fill="#792E04"/>
<path d="M86.3152 69.3036C86.5721 68.8262 111.534 68.9786 111.812 69.3032C113.109 70.8137 116.258 76.9346 115.815 77.2976C114.315 78.5279 83.8149 77.913 82.3121 77.2976C80.7822 76.6713 85.3223 71.1488 86.3152 69.3036Z" fill="#ECCE90"/>
<path d="M92.8149 87.1372H94.3149V92.6718H92.8149V87.1372Z" fill="#8A6E4E"/>
<path d="M90.3252 74.8379C90.325 74.6132 107.327 74.4803 107.327 74.8377C107.327 75.4527 107.278 78.5283 107.315 80.3726C107.327 80.9876 105.825 80.9878 98.3247 80.9876C91.3247 80.9874 90.3149 80.9876 90.3154 80.3726C90.3164 79.1427 90.3261 76.0681 90.3252 74.8379Z" fill="#E4C385"/>
<path d="M92.481 82.8135H104.975C104.975 82.8135 107.647 87.7331 105.979 87.7331C104.979 87.7331 92.481 87.7331 91.4805 87.7331C89.7341 87.7331 92.481 82.8135 92.481 82.8135Z" fill="#E4C385"/>
<path d="M103.315 87.1372H104.815V92.6718H103.315V87.1372Z" fill="#8A6E4E"/>
<path d="M92.3149 77.2985C94.8151 77.2983 101.815 77.2973 105.315 77.2983C105.815 77.2985 105.315 95.7472 105.315 95.7472H104.315C104.315 95.7472 104.644 78.1594 104.211 78.1595C103.315 78.1595 93.8149 78.1597 93.315 78.1595C92.7321 78.1591 93.315 95.7474 93.315 95.7474H92.315C92.315 95.7474 91.815 77.2985 92.3149 77.2985Z" fill="#977A59"/>
<path d="M125.815 78.5278L126.815 79.1428V93.2868H125.815V78.5278Z" fill="#ECCE90"/>
<path d="M154.671 79.2562L155.815 78.5278L155.671 93.2868H154.671V79.2562Z" fill="#ECCE90"/>
<path d="M128.815 79.7578H129.815V84.0625H128.815V79.7578Z" fill="#ECCE90"/>
<path d="M151.815 79.7578H152.815V84.0625H151.815V79.7578Z" fill="#ECCE90"/>
<path d="M125.315 75.4532C125.572 74.9757 155.536 75.7435 155.815 76.0681C157.111 77.5786 155.622 79.4548 154.815 80.3728C154.274 80.9878 126.984 81.1949 126.315 80.3728C125.175 78.9708 124.322 77.2983 125.315 75.4532Z" fill="#792E04"/>
<path d="M128.315 69.3036C128.572 68.8262 153.534 68.9786 153.812 69.3032C155.109 70.8137 158.258 76.9346 157.815 77.2976C156.315 78.5279 125.815 77.913 124.312 77.2976C122.782 76.6713 127.322 71.1488 128.315 69.3036Z" fill="#ECCE90"/>
<path d="M134.815 87.1372H136.315V92.6718H134.815V87.1372Z" fill="#8A6E4E"/>
<path d="M132.325 74.8379C132.325 74.6132 149.327 74.4803 149.327 74.8377C149.327 75.4527 149.278 78.5283 149.315 80.3726C149.327 80.9876 147.825 80.9878 140.325 80.9876C133.325 80.9874 132.315 80.9876 132.315 80.3726C132.316 79.1427 132.326 76.0681 132.325 74.8379Z" fill="#E4C385"/>
<path d="M134.481 82.8135H146.975C146.975 82.8135 149.647 87.7331 147.979 87.7331C146.979 87.7331 134.481 87.7331 133.481 87.7331C131.734 87.7331 134.481 82.8135 134.481 82.8135Z" fill="#E4C385"/>
<path d="M145.315 87.1372H146.815V92.6718H145.315V87.1372Z" fill="#8A6E4E"/>
<path d="M134.315 77.2985C136.815 77.2983 143.815 77.2973 147.315 77.2983C147.815 77.2985 147.315 95.7472 147.315 95.7472H146.315C146.315 95.7472 146.644 78.1594 146.211 78.1595C145.315 78.1595 135.815 78.1597 135.315 78.1595C134.732 78.1591 135.315 95.7474 135.315 95.7474H134.315C134.315 95.7474 133.815 77.2985 134.315 77.2985Z" fill="#977A59"/>
<rect x="154" y="66" width="6" height="30" fill="#95876D"/>
</g>
<defs>
<clipPath id="clip0_93_805">
<rect width="229" height="101" fill="white"/>
</clipPath>
</defs>
</svg>
