<svg width="229" height="215" viewBox="0 0 229 215" fill="none" xmlns="http://www.w3.org/2000/svg">
<g clip-path="url(#clip0_93_586)">
<rect width="229" height="215" fill="white"/>
<path d="M93.6198 182.343C94.4026 181.76 93.9042 182.031 94.8246 182.343C98.4395 183.569 102.745 181.888 103.862 184.794C104.333 186.02 103.964 188.564 103.5 190.923C102.897 193.987 99.1902 194.929 98 196C96.2703 197.556 94.3585 199.14 93.6196 199.503C91.8121 200.116 86.6016 201.558 84.3386 200.728C80.9994 199.503 84.9999 193 88.7994 190.923C89.8905 190.326 90.6427 188.949 91.4999 188C92.0739 187.365 91.839 186.041 92.4148 185.407C92.7897 184.995 92.419 183.237 93.6198 182.343Z" fill="#002642"/>
<path d="M136.461 184.343C135.678 183.76 136.177 184.031 135.256 184.343C131.642 185.569 127.336 183.888 126.219 186.794C125.748 188.02 126.117 190.564 126.581 192.923C127.184 195.987 130.891 196.929 132.081 198C133.811 199.556 135.723 201.14 136.461 201.503C138.269 202.116 143.479 203.558 145.742 202.728C149.082 201.503 145.081 195 141.282 192.923C140.191 192.326 139.438 190.949 138.581 190C138.007 189.365 138.242 188.041 137.666 187.407C137.291 186.995 137.662 185.237 136.461 184.343Z" fill="#002642"/>
<path d="M97.8444 93.0197L134.933 94.202C134.933 94.202 137.251 116.072 136.092 124.938C135.667 128.187 135.512 135.577 135.512 140.897C135.512 142.67 136.092 146.807 136.671 153.309C137.022 162.959 137.086 175.124 137.251 181.089C137.323 183.689 138.41 185.818 137.83 185.818C136.671 185.818 137.037 185.725 135.512 185.818C133.914 185.916 132.035 185.354 130.876 185.818C128.843 186.632 129.5 186.5 126 187C124.572 186.233 125.711 185.515 125.081 182.863C124.502 168.086 121.604 140.306 121.025 137.941C119.866 132.622 118.127 123.164 118.127 121.982C118.127 118.436 116.633 114.704 115.809 116.072C113.67 119.622 113.954 125.933 112.912 128.484C110.014 135.577 110.594 139.714 108.855 148.581C107.2 157.02 106.159 175.861 105 186.5C104.775 187.039 103.639 187 101.901 187C100.162 187 99.0033 186.261 97.2647 185.818C94.9467 185.227 92.5042 186.293 91.5 184.5C91.0424 183.875 91.8785 181.89 92.0491 180.498C93.2081 171.041 93.0443 169.538 93.2082 158.629C93.2359 156.782 93.9149 150.369 94.3673 148.581C94.7467 147.081 94.5816 145.355 94.9468 143.852C95.6093 141.126 95.6161 137.793 95.5264 134.986C95.4367 132.179 96.1059 130.848 96.1059 129.075C96.1059 128.043 95.4671 117.102 95.5264 116.072C96.1059 106 96.755 98.5002 97.8444 96.5002C100.742 91.1805 97.8444 93.0197 97.8444 93.0197Z" fill="#212121"/>
<path d="M115.81 34.7095L121.5 33.5V34L122 38.6982C122 38.6982 122 45.5361 115.81 44.9663C109.619 44.3964 109.5 38.5 109.5 38.5L110 34V32L115.81 34.7095Z" fill="#E7BC9D"/>
<path d="M110.469 18.3617C112.519 16.4314 113.698 15.8489 116.572 16.0319C119.806 16.2379 120.234 15.4495 122.065 17.1967C123.575 18.6381 123.908 20.7442 123.895 22.4388C123.882 24.1334 124.137 29.2085 123.895 30.5931C123.74 31.483 122.771 32.2596 122.065 32.9229C121.622 33.3451 121.403 33.6494 121 34C118.622 36.0672 116.277 37 115.5 37C114.591 37 112.91 35.8351 109.248 32.9229C107.937 31.8801 107.425 29.2336 107.5 27C107.538 25.8703 107.991 24.9194 108.028 24.1861C108.132 22.0747 108.699 20.0278 110.469 18.3617Z" fill="#F5C6A4"/>
<path d="M108.021 16.1051C108.4 15.5861 108.25 15.2224 108.623 14.9322C108.94 14.6851 109.437 14.6913 109.825 14.3458C110.172 14.0375 110.427 13.2902 111.028 12.5864C112.231 12 113.064 12.7204 113.433 12.5864C114.035 12 114.636 12 115.837 12C117.546 12 117.936 12.3891 119.445 13.1729C120.539 13.7411 120.276 14.0608 120.648 14.3458C121.09 14.6853 121.677 14.1749 122.454 14.9322C122.746 15.2175 122.54 15.6031 123.055 16.1051C123.656 16.6916 123.358 16.6658 123.5 17C124.256 17.6681 123.656 17.8645 124.256 19.0374C124.482 19.4805 124.857 20.2103 124.859 20.8388C124.86 21.0678 124.987 21.549 125 22C125 23 124.957 24.1042 125 25C125.083 26.7433 125.131 27.3603 124.859 28.4205C124.725 28.944 125.336 30.5343 125 31C125 32.1729 123.455 33.095 123 33.5C121.799 34.0864 121.5 33.5 121.5 33.5C121.5 33.5 121.782 32.8423 122.452 31.3528C122.904 30.3453 122.452 27.7148 122.452 26.6612C122.452 24.9018 121.853 23.2148 121.853 20.7967C121.853 19.6238 121.63 19.1895 121.251 18.4509C121.099 18.1536 120.041 18.0547 119.447 17.8645C119.207 17.7875 118.518 17.3355 118.244 17.278C117.912 17.2084 118.244 18.4509 118.244 18.4509C117.828 18.4037 117.416 17.278 117.042 17.278C115.839 17.278 114.636 16.6916 113.434 17.278C113.032 17.4738 112.596 18.3695 112.231 18.4509C111.904 18.5239 111.342 18.8456 111.028 19.0374C111.028 19.0374 110.084 18.7849 109.826 19.0374C109.567 19.2898 109.521 19.6927 109.222 20.2103C108.923 20.728 109.062 20.892 108.621 21.3832C108.075 21.9898 108.161 22.9341 108.019 23.7289C107.691 25.5674 108.074 25.3101 108.021 26.6612C108.001 27.164 108.067 29.4864 108.107 30.1799C108.172 31.3232 110 33.5 110 33.5C110 33.5 107.823 34.3768 107.42 33.6985C107.098 33.1562 105.528 32.5256 105.616 30.1799C105.341 29.476 105.5 28.5 105.5 28C105.5 27.7274 105.588 26.7593 105.5 25C105.531 23.9092 105.5 23.132 105.5 22C105.592 21.4375 105.854 21.4387 106 21C106.5 19.5 106.586 18.4509 106.586 17.278C106.759 16.9549 107.766 16.455 108.021 16.1051Z" fill="#433812"/>
<path d="M107.497 20.0097C108.084 18.8411 122.759 18.8411 123.345 20.0097C123.755 20.8261 123.932 24.7647 123.345 25.8527C122.758 26.9408 108.084 27.0213 107.497 25.8527C106.91 24.6841 106.911 21.1783 107.497 20.0097Z" fill="#ECE7E7"/>
<path d="M105.5 22H107.5V25H105.5V22Z" fill="#D9D9D9"/>
<path d="M123.5 22H125V25H123.5V22Z" fill="#D9D9D9"/>
<path d="M141.61 57C141.61 57 144.957 61.4122 146.293 64.1087C147.396 66.3361 147.268 67.9594 148.634 70.0326C149.805 71.8098 149.514 70.4624 151.561 72.9945C156.829 79.5108 163.268 87.2119 168.537 90.1739C168.537 90.1739 171.603 90.3771 173.22 91.3587C176.146 93.1358 181.415 93.1358 180.829 94.3206C180.461 95.0667 179.073 94.913 177.902 94.913C176.988 94.913 176.11 94.1727 175.561 94.913C175.149 95.4682 175.735 96.1349 176.146 96.6902C177.902 99.0597 182 101.429 182 103.799C182 106.497 177.12 100.344 176.146 100.837C174.976 101.429 181.415 104.391 180.829 106.761C180.669 107.411 180.24 107.5 179.659 107.353C178.973 107.18 179.073 107.946 178.488 107.946C177.902 108.538 172.049 102.614 172.634 103.799C173.031 104.603 175.561 106.761 174.976 107.946C174.784 108.333 172.882 106.555 172.049 105.576C170.293 104.391 169.707 102.614 169.707 102.614L166.195 96.0978C166.195 96.0978 164.748 94.7324 161.512 92.5434C156.644 89.2506 149.22 85.4347 144.537 78.9184C144.019 78.198 142.21 77.348 141.61 76.5489C137.452 71.0126 134 63.5163 134 63.5163L141.61 57Z" fill="#F6CAA9"/>
<path d="M87.3902 56C87.3902 56 84.0431 60.4122 82.7073 63.1087C81.6039 65.3361 81.7316 66.9594 80.3659 69.0326C79.1951 70.8098 79.4862 69.4624 77.439 71.9945C72.1707 78.5108 65.7317 86.2119 60.4634 89.1739C60.4634 89.1739 57.4666 89.5055 55.7805 90.3587C53.439 91.5434 48.1707 90.951 48.7561 92.1358C49.1247 92.8819 49.9268 93.3206 51.0976 93.3206C52.012 93.3206 52.8904 93.1727 53.439 93.913C53.8505 94.4682 53.2651 95.1349 52.8537 95.6902C51.0976 98.0597 47 100.429 47 102.799C47 105.497 51.8797 99.3441 52.8537 99.8369C54.0244 100.429 47.5854 103.391 48.1707 105.761C48.3314 106.411 48.7597 106.5 49.3415 106.353C50.0274 106.18 49.9268 106.946 50.5122 106.946C51.0976 107.538 56.9512 101.614 56.3659 102.799C55.9687 103.603 53.439 105.761 54.0244 106.946C54.216 107.333 56.118 105.555 56.9512 104.576C58.7073 103.391 59.2927 101.614 59.2927 101.614L62.8049 95.0978C62.8049 95.0978 64.2517 93.7324 67.4878 91.5434C72.3559 88.2506 79.7805 84.4347 84.4634 77.9184C84.9811 77.198 86.7901 76.348 87.3902 75.5489C91.5482 70.0126 95 62.5163 95 62.5163L87.3902 56Z" fill="#F6CAA9"/>
<path d="M109.5 38.5001C109.5 38.5001 111.011 44.4682 115.635 44.4682C120.259 44.4682 122 38.5001 122 38.5001C122 38.5001 124.883 37.4521 130.663 40.9601C131.894 41.4783 132.397 41.5448 134.131 42.1295C135.354 42.5418 136.757 43.3837 137.599 44.4682C140.489 50.3149 143.48 57.0518 143.957 58.5004C144.688 60.719 135.865 65.5164 133.553 65.5164C132.397 65.5164 132.397 60.8391 132.397 60.8391C132.397 60.8391 130.906 70.8384 132.397 78.3793C132.975 81.3027 132.667 85.7595 133.553 88.9034C134.14 90.9866 137.085 95.3348 135.287 96.5042C131.594 98.9058 123.807 97.639 116.213 97.6735C107.168 97.7147 98.396 98.678 97.1391 97.0889C95.2844 94.7438 99.2253 89.4167 98.295 86.5647C97.6866 84.6995 98.6142 82.0708 98.295 80.1333C97.7171 76.6253 97.6467 74.7195 97.7171 70.7785C97.7956 66.3872 96.561 62.0084 96.561 62.0084C96.561 62.0084 96.3644 63.4883 95.983 64.3471C95.9152 64.4998 86.6377 61.7353 85.001 56.7463C84.9077 56.462 91.2379 42.7413 96.5609 41.5448C98.5994 41.0866 99.3944 41.0199 101.5 40.5002C108.5 38.0002 109.5 38.5001 109.5 38.5001Z" fill="#134E78"/>
<path d="M114.227 19.2869C117.833 18.131 119.854 17.3132 121.972 16.027C123.485 15.1078 124.024 14.558 123.438 14.1975C123.015 13.9375 120.159 14.0503 120.37 13.9273C120.576 13.8066 124.613 13.5561 125.216 13.9273C125.362 14.0171 125.618 14.3934 125.208 14.9579C124.958 15.303 120.966 18.5619 113.62 20.5856C106.275 22.6093 102.761 21.619 102.757 21.064C102.761 19.8661 104.152 19.5843 106.5 19C106.5 19 104.557 19.6996 104.522 20.4506C104.498 20.9644 107.921 21.3088 114.227 19.2869Z" fill="#FFC200"/>
<path d="M114.227 19.2869C117.833 18.131 119.854 17.3132 121.972 16.027C123.485 15.1078 124.024 14.558 123.438 14.1975C123.015 13.9375 120.159 14.0503 120.37 13.9273C120.576 13.8066 124.613 13.5561 125.216 13.9273C125.362 14.0171 125.618 14.3934 125.208 14.9579C124.958 15.303 120.966 18.5619 113.62 20.5856C106.275 22.6093 102.761 21.619 102.757 21.064C102.761 19.8661 104.152 19.5843 106.5 19C106.5 19 104.557 19.6996 104.522 20.4506C104.498 20.9644 107.921 21.3088 114.227 19.2869Z" fill="#FFC200"/>
<path d="M115.553 19.7889C111.472 18.8565 109.165 18.1638 106.703 17.008C104.944 16.182 104.505 15.5894 105.109 15.1917C105.545 14.905 108.744 15.1098 108.5 14.9998C108.26 14.8918 103.936 14.0231 102.917 15.1078C102.794 15.2389 102.526 15.5997 103.036 16.1395C103.348 16.4695 108.081 19.4838 116.359 21.0516C124.638 22.6194 128 21.6189 128.001 20.4504C128.001 19.1809 126.235 17.6529 123.892 17.5288C123.732 17.5122 127.413 18.95 126.826 20.4503C126.467 21.3695 122.691 21.4198 115.553 19.7889Z" fill="#FFC200"/>
<path d="M115.553 19.7889C111.472 18.8565 109.165 18.1638 106.703 17.008C104.944 16.182 104.505 15.5894 105.109 15.1917C105.545 14.905 108.744 15.1098 108.5 14.9998C108.26 14.8918 103.936 14.0231 102.917 15.1078C102.794 15.2389 102.526 15.5997 103.036 16.1395C103.348 16.4695 108.081 19.4838 116.359 21.0516C124.638 22.6194 128 21.6189 128.001 20.4504C128.001 19.1809 126.235 17.6529 123.892 17.5288C123.732 17.5122 127.413 18.95 126.826 20.4503C126.467 21.3695 122.691 21.4198 115.553 19.7889Z" fill="#FFC200"/>
<path d="M138.316 5.3752C139.421 3.16214 142.579 3.16214 143.684 5.3752L152.689 23.4098C153.685 25.4044 152.235 27.75 150.005 27.75H131.995C129.765 27.75 128.315 25.4044 129.311 23.4098L138.316 5.3752Z" fill="#FFC200"/>
<path d="M142.163 8.636C142.163 8.636 141.918 11.9863 141.427 18.687C141.427 18.8557 141.327 18.94 141.128 18.94H140.898C140.714 18.94 140.614 18.8557 140.599 18.687C140.507 17.3223 140.361 15.375 140.162 12.845C139.963 10.2997 139.863 8.88133 139.863 8.59C139.863 8.28333 139.978 8.05333 140.208 7.9C140.438 7.73133 140.706 7.647 141.013 7.647C141.335 7.647 141.603 7.73133 141.818 7.9C142.048 8.06867 142.163 8.314 142.163 8.636ZM141.013 21.424C141.396 21.424 141.726 21.562 142.002 21.838C142.293 22.114 142.439 22.4513 142.439 22.85C142.439 23.2333 142.293 23.563 142.002 23.839C141.726 24.115 141.396 24.253 141.013 24.253C140.63 24.253 140.3 24.115 140.024 23.839C139.748 23.563 139.61 23.2333 139.61 22.85C139.61 22.4667 139.748 22.137 140.024 21.861C140.3 21.5697 140.63 21.424 141.013 21.424Z" fill="black"/>
<path d="M49.1571 182.307C53.1505 201.821 88.7582 210.438 87.135 210.771C85.5118 211.103 45.6529 210.073 40.3399 184.111C35.0268 158.149 66.3299 146.516 73.6777 145.012C71.4159 148.923 44.0446 157.325 49.1571 182.307Z" fill="#FFC200"/>
<path d="M49.1571 182.307C53.1505 201.821 88.7582 210.438 87.135 210.771C85.5118 211.103 45.6529 210.073 40.3399 184.111C35.0268 158.149 66.3299 146.516 73.6777 145.012C71.4159 148.923 44.0446 157.325 49.1571 182.307Z" fill="#FFC200"/>
<path d="M176.36 171.842C176.871 191.753 144.124 208.18 145.78 208.137C147.437 208.095 186.036 198.102 185.357 171.611C184.678 145.12 151.558 140.846 144.06 141.038C147.146 144.338 175.707 146.35 176.36 171.842Z" fill="#FFC200"/>
<path d="M176.36 171.842C176.871 191.753 144.124 208.18 145.78 208.137C147.437 208.095 186.036 198.102 185.357 171.611C184.678 145.12 151.558 140.846 144.06 141.038C147.146 144.338 175.707 146.35 176.36 171.842Z" fill="#FFC200"/>
</g>
<defs>
<clipPath id="clip0_93_586">
<rect width="229" height="215" fill="white"/>
</clipPath>
</defs>
</svg>
