<svg width="229" height="100" viewBox="0 0 229 100" fill="none" xmlns="http://www.w3.org/2000/svg">
<rect width="229" height="100" fill="white"/>
<path d="M225 50C225 51.0029 225.09 52.0199 225 53C223.45 69.8312 208.744 83 191 83C179.455 83 169.146 77.5381 163 69C160.523 65.5588 158.989 62.2453 158 58C157.452 55.6464 157 52.5038 157 50C157 49.0092 157.051 47.9932 157.139 47.0246C158.672 30.1764 173.243 17 191 17C202.887 17 213.422 23.0318 219.5 32C221.954 35.6206 223.17 39.5714 224 44C224.362 45.9309 225 47.9692 225 50Z" fill="#53C1D2"/>
<path d="M202 44.6538L219.5 32C221.396 34.6923 223 37.5 224 42C224.62 44.788 225.271 48.9615 225 53L202 50.5769V44.6538Z" fill="#94E2EE"/>
<path d="M181 56.058L163 69C161.205 66.5217 159.243 63.3696 158 58C157.586 56.2101 157 54 157 50H178.127L181 56.058Z" fill="#94E2EE"/>
<ellipse cx="190.5" cy="50" rx="13.5" ry="12" fill="#ECFAFF"/>
<ellipse cx="190.5" cy="50" rx="5.5" ry="5" fill="white"/>
<path d="M59 69.2225C68.971 65.0721 76.7953 59.5546 87.2867 54.8183C99.9774 49.0893 113.276 44 114.5 44.9999C115.724 45.9998 116.089 51.5395 115.5 52.4998C114.717 53.7779 99.3537 61.5403 98.1 61.5403C96.6895 61.2152 95.2791 60.3181 92.3799 60.8419C90.0768 61.87 88.6188 62.3259 84.6226 64.0719C83.9174 65.9924 85.4062 66.3416 85.0144 67.5638C78.9809 71.3176 64.7014 77.8649 60 78.9998L59 69.2225Z" fill="#212121"/>
<path d="M50.0476 58C50.0476 58 62.249 70.2794 61 71C59.2027 72.037 60.6163 78.483 60 79C59.8899 79.0924 60.1496 78.9933 60 79C57.0721 79.1317 47 63.7035 47 63.7035L50.0476 58Z" fill="#838383"/>
<path d="M38 42.3884C38 42.3884 86.9962 23.94 90.0487 25.048C91.301 25.5025 116.062 43.8835 115 46C114.425 47.1461 102.572 53.0527 96.545 55.2203C94.8231 55.8396 92.9446 54.1798 90.44 54.5266C89.8596 54.607 83.3879 56.6431 82.6914 57.7346C81.6934 59.2986 83.7089 60.5091 83.4741 61.3761C83.2863 62.0697 63.1133 71 61 71C59.1998 71 38 42.3884 38 42.3884Z" fill="#909090"/>
<path d="M50.1718 46.926C51.4406 40.872 85.6914 29.6546 89.7346 31.1328C96.5351 33.6191 105.703 39.8191 104.957 42.4513C104.211 45.0835 62.064 64.3862 59.3688 61.754C56.6735 59.1218 48.7379 53.768 50.1718 46.926Z" fill="#595959"/>
<path d="M26 66.1421L78.9231 42L79 49.8158L26 75V66.1421Z" fill="#212121"/>
<path d="M5.65882 47.1847L5 37L26 66.1847V75L5.65882 47.1847Z" fill="#434343"/>
<path d="M5 37L52.5 21L79 42.1094L26 66.5L5 37Z" fill="#6A6A6A"/>
<path d="M14 43.2815C14 40.7783 57.1623 27.4135 59.7504 29.1562C62.3385 30.8989 66 32.5778 66 35.9506C66 39.3235 23.3945 55.8417 20.1695 53.8309C16.9445 51.82 14 47.4037 14 43.2815Z" fill="#BFBFBF"/>
<path d="M26.4155 44.6426C24.6599 42.9335 29.0357 40 29.0357 40L29.4972 40.4285L33.753 44.4283L34.4134 45.0711L35 45.5711C35 45.5711 28.8367 46.9996 26.4155 44.6426Z" fill="#212121"/>
<path d="M26.5 44.5C25.0119 43.2871 29.001 40.5 29.001 40.5L30.1129 41.2719L33.5011 44.5L34.5011 45.5C34.5011 45.5 29.0119 46.5475 26.5 44.5Z" fill="white"/>
<path d="M28.671 44.2126C26.7775 42.1352 29.5292 41.0117 29.5292 41.0117L33.5455 44.8348C33.5455 44.8348 31.2825 47.0775 28.671 44.2126Z" fill="#212121"/>
<line y1="-1" x2="11.7276" y2="-1" transform="matrix(0.941049 -0.338271 0.287643 0.957738 33 40.9673)" stroke="black" stroke-width="2"/>
<line y1="-1" x2="11.7276" y2="-1" transform="matrix(0.941049 -0.338271 0.287643 0.957738 36 44.9673)" stroke="black" stroke-width="2"/>
<path d="M52.5845 35.5836C54.3401 37.5776 49.9643 41 49.9643 41L49.5028 40.5L45.247 35.8336L44.5866 35.0837L44 34.5004C44 34.5004 50.1633 32.8338 52.5845 35.5836Z" fill="#212121"/>
<path d="M52.0001 35.5C54.0166 37.8008 50 40 50 40L49.5001 39.5L45.5001 35.5L44.8429 34.6801C44.8429 34.6801 50.1619 33.4025 52.0001 35.5Z" fill="white"/>
<path d="M51.0404 35.7583C52.8076 37.9442 49.4996 38.9997 49.4996 38.9997L45.7158 34.9463C45.7158 34.9463 49.6188 33.9998 51.0404 35.7583Z" fill="#212121"/>
<path d="M122 47H144V54H122V47Z" fill="#134E78"/>
<path d="M133 43H142.765L151 50.5L142.765 58H133L142.765 50.5L133 43Z" fill="#134E78"/>
</svg>
