<svg width="229" height="176" viewBox="0 0 229 176" fill="none" xmlns="http://www.w3.org/2000/svg">
<g clip-path="url(#clip0_93_495)">
<rect width="229" height="176" fill="white"/>
<path d="M88.7239 99.0375L100.725 98.3413C100.725 98.3413 107.078 102.519 112.725 109.481C115.549 112.962 119.543 119.389 119.079 122.013C118.239 126.751 114.745 129.213 110.608 131.759C109.476 132.456 102.151 134.755 96.489 135.241C89.3009 135.856 84.7199 136.061 78.135 133.152C74.5064 131.549 71.6959 130.953 69.6639 127.582C66.315 122.027 71.7817 115.05 75.3113 110.177C79.7432 104.058 88.7239 99.0375 88.7239 99.0375Z" fill="#002642"/>
<path d="M90.1374 96.9486C90.1374 96.9486 92.2004 98.8106 93.6671 99.0373C95.5929 99.335 95.2473 98.3411 97.1967 98.3411C98.6085 98.3411 98.6085 98.3411 99.3144 97.6449C99.7503 97.215 100.11 96.2524 100.726 96.2524C101.432 96.2524 101.552 97.114 101.432 97.6449C100.939 99.8335 98.049 100.229 95.7848 100.43C93.0254 100.675 88.7917 99.3731 88.7256 99.0373C88.6595 98.7014 88.6563 98.4606 88.7256 98.3411C89.0314 97.8132 90.1374 96.9486 90.1374 96.9486Z" fill="#212121"/>
<path d="M90.136 98.341C90.136 98.341 88.2283 94.3723 86.6064 92.0751C84.7094 89.3883 80.959 85.8092 80.959 85.8092C80.959 85.8092 88.7242 84.8246 88.7242 85.8092C88.7242 87.2016 86.5111 88.7538 87.3123 89.9864C87.4162 90.1463 88.7242 89.9864 90.136 89.2902C91.5479 88.594 95.0775 88.594 95.0775 89.9865C95.0775 90.8021 94.7517 91.3254 95.0775 92.0751C95.3846 92.7819 95.8077 92.3978 96.4893 92.7713C97.6943 93.4315 99.8994 93.1489 101.431 92.7713C104.254 92.0751 107.078 90.6827 107.078 90.6827L99.313 98.341C99.313 98.341 96.4893 99.0372 95.0775 99.0372C92.8042 99.0372 90.136 98.341 90.136 98.341Z" fill="#002642"/>
<path d="M88.0182 86.5054C87.8826 85.6934 80.959 86.7574 80.959 85.8092C80.959 85.113 83.6126 84.2729 85.9005 83.7206C87.7939 83.2634 91.5479 82.3281 91.5479 83.0243C91.5479 83.6323 91.6373 84.4168 92.2538 84.4168C92.9597 84.4168 93.6656 84.4168 95.0775 84.4168C95.6699 84.4168 95.8487 84.0362 95.7834 83.7205C95.7564 83.5899 94.8977 83.2016 95.0775 83.0243C95.7834 82.3281 101.431 82.3281 103.549 82.3281C104.42 82.3281 107.808 82.6974 107.784 84.4168C107.77 85.397 107.078 85.8092 106.372 85.8092C105.666 85.8092 104.96 86.2359 104.96 86.5054C104.96 86.8654 106.372 87.2016 106.372 87.2016C107.032 87.5079 107.694 88.1291 107.784 88.594C108.249 90.9823 106.372 91.3789 104.254 92.0751C101.886 92.8537 99.313 93.4675 97.9012 93.4675C96.9072 93.4675 95.7834 93.4675 95.0775 92.0751C94.3715 90.6827 95.0775 90.6827 95.0775 89.9865C95.0775 88.627 92.1755 88.8518 90.8419 89.2902C88.7242 89.9865 87.3123 90.6827 86.6064 89.9865C85.9005 89.2902 88.0496 86.6933 88.0182 86.5054Z" fill="#134E78"/>
<path d="M84.4872 112.266C86.605 111.221 90.4833 111.398 92.9583 111.569C96.3038 111.801 98.6057 112.266 100.723 112.962C101.08 113.079 99.7582 114.354 99.3116 114.354C97.8997 114.354 96.1568 113.794 93.6642 113.658C91.1868 113.523 88.0168 112.962 86.605 113.658C86.2562 113.83 86.0475 113.999 85.899 114.354C85.5206 115.261 88.4482 115.586 89.4287 115.747C92.6451 116.275 96.4879 115.747 99.3116 116.443C100.276 116.681 100.819 117.062 101.429 117.835C101.808 118.315 102.034 118.628 102.135 119.228C102.338 120.427 102.301 120.457 101.429 121.316C101.212 121.53 100.018 122.451 98.6057 122.709C95.3415 123.305 91.2833 123.293 88.0168 122.709C85.7799 122.309 83.7813 122.013 82.3694 121.316C81.738 121.005 82.4589 119.836 83.0753 119.228C83.7813 118.532 86.4573 120.434 88.7227 120.62C97.1938 121.316 97.8997 120.62 98.6057 119.924C98.8814 119.652 99.2228 118.734 98.6057 118.532C96.4879 117.835 88.0168 118.392 86.605 117.835C85.4603 117.384 84.1724 116.957 83.7813 116.443C83.2582 115.755 82.9873 115.21 83.0753 114.354C83.1757 113.379 83.5981 112.704 84.4872 112.266Z" fill="#07691D"/>
<path d="M89.4299 109.48C89.63 109.283 91.1174 109.633 90.8417 110.177C90.1358 111.569 90.0029 112.533 89.4299 115.05C88.5822 118.774 88.3125 126.109 88.018 126.19C87.2188 126.409 85.1943 126.532 85.1943 126.19C85.1942 123.319 85.5384 120.141 86.6062 116.443C87.4194 113.626 88.724 110.177 89.4299 109.48Z" fill="#07691D"/>
<path d="M95.0779 109.481C95.6696 109.651 96.4897 109.569 96.4897 110.177C96.4897 110.873 97.0753 113.983 97.1956 116.443C97.4087 120.796 97.1956 127.582 96.4897 127.582C95.7838 127.582 93.666 126.635 93.666 126.19C93.666 125.493 94.8031 119.739 95.0779 116.443C95.3489 113.191 94.4861 109.31 95.0779 109.481Z" fill="#07691D"/>
<path d="M91.5479 83.0248C91.5479 83.721 91.7203 84.4172 92.2538 84.4172C92.3586 84.4172 92.2538 89.2907 92.2538 89.2907C92.2538 89.2907 91.6751 85.4214 91.5479 84.662C91.4423 84.0312 91.5479 82.3855 91.5479 83.0248Z" fill="#002642"/>
<path d="M104.959 86.5058C104.959 86.8756 106.284 87.1164 106.37 87.202C106.457 87.2876 103.587 90.6831 103.547 90.6831C103.506 90.6831 104.959 86.3122 104.959 86.5058Z" fill="#002642"/>
<path d="M87.3135 92.6816H88.0194V95.6657L87.6664 93.8007L87.3135 92.6816Z" fill="#002642"/>
<path d="M95.078 84.4169C95.7839 84.4171 95.7839 83.7207 95.7839 83.7207C95.7839 83.7207 94.3721 89.9866 94.3721 88.5942C94.3721 87.2018 94.9291 84.4169 95.078 84.4169Z" fill="#002642"/>
<path d="M77.6792 80.6754C78.2377 76.0279 79.1433 77.5425 77.0983 68.0022C76.0377 63.0538 85.8126 54.7779 85.8126 54.7779C85.8126 54.7779 87.5555 58.084 86.3936 66.3491C85.7985 70.5818 89.0304 72.438 90.6187 76.4405C91.5672 78.831 92.0473 80.9085 94.7734 81.8247C99.5085 83.416 99.1984 75.9371 100.313 71.6546C102.501 63.2487 95.5021 58.5745 97.4103 50.1179C99.3772 41.4011 106.927 40.3947 108.622 31.6354C109.608 26.5451 108.622 18.4111 108.622 18.4111C108.622 18.4111 117.449 23.7507 120.068 29.4314C123.93 37.8095 111.79 42.5322 114.162 51.3144C115.97 58.0058 118.72 68.5656 125.934 65.6722C132.33 63.1068 124.448 55.2756 128.201 50.1179C132.385 44.3685 140.475 41.5536 140.475 41.5536C140.475 41.5536 140.366 45.584 138.658 48.1658C134.069 55.1041 145.47 59.4766 145.322 67.4669C145.243 71.7297 141.399 74.2815 143.245 78.2352C146.108 84.3673 160.846 75.2509 155.528 70.2062C151.461 66.3491 152.623 56.4309 152.623 56.4309C152.623 56.4309 156.108 63.0431 160.175 64.6961C164.242 66.3491 165.827 73.0248 165.985 81.8247C166.114 89.014 165.828 97.125 163.326 103.361C160.601 110.156 157.787 121.309 157.787 121.309H140.475L80.9243 123.103C80.9243 123.103 70.4932 113.128 69.1526 105.156C67.4682 95.1395 76.4694 90.7431 77.6792 80.6754Z" fill="#FF9A26"/>
<path d="M78.989 106.437C79.2313 103.543 83.6179 99.0677 84.4722 95.5253C85.2158 92.4417 88.6953 87.2872 88.6953 87.2872C88.6953 87.2872 92.762 91.6953 91.6001 96.8032C90.9925 99.4742 94.3983 100.241 95.6668 102.715C96.4245 104.193 98.6472 102.316 100.314 100.872C103.276 98.3074 102.386 99.451 103.276 96.8032C105.023 91.606 100.785 89.4557 102.309 84.2272C103.88 78.8377 106.456 75.9573 107.811 70.5415C108.598 67.3943 109.186 60.2876 109.186 60.2876C109.186 60.2876 113.972 65.1662 116.063 68.6784C119.148 73.8585 112.443 78.7973 114.337 84.2272C115.781 88.3644 117.978 94.8933 123.739 93.1044C128.848 91.5182 122.51 86.0871 125.692 83.0627C129.363 79.573 132.569 70.5415 132.569 70.5415C132.569 70.5415 135.996 79.0691 134.632 80.6654C130.967 84.9552 139.343 89.2738 139.225 94.214C139.162 96.8496 136.092 98.4273 137.566 100.872C139.853 104.663 145.896 93.619 151.641 93.1044C155.068 92.7973 157.81 84.2272 157.81 84.2272C157.81 84.2272 160.574 91.7544 156.44 96.8032C152.016 102.206 155.383 108.499 153.605 116.667C152.639 121.105 149.18 127.503 149.18 127.503L129.294 130.561L81.7303 131.671C81.7303 131.671 79.3745 122.96 78.3037 118.031C76.9584 111.838 78.304 114.621 78.989 106.437Z" fill="#FFC200"/>
<path d="M152.864 41.1526C153.498 38.3137 157.93 35.2734 159.89 32.136C161.7 29.2388 161.072 26.125 161.072 26.125C161.072 26.125 166.527 30.9033 166.544 35.7427C166.558 39.6374 165.86 42.9559 158.336 48.3658C155.734 51.1929 154.916 52.5736 154.916 52.5736C154.916 52.5736 151.675 46.4704 152.864 41.1526Z" fill="#FF9A26"/>
<path d="M68.6812 63.1936C68.0464 60.3547 63.6146 57.3144 61.6548 54.1771C59.845 51.2798 60.4727 48.166 60.4727 48.166C60.4727 48.166 55.0178 52.9443 55.0007 57.7837C54.9869 61.6784 55.6848 64.9969 63.2092 70.4068C65.8109 73.2339 66.6291 74.6146 66.6291 74.6146C66.6291 74.6146 69.8702 68.5114 68.6812 63.1936Z" fill="#FF9A26"/>
<path d="M131.081 103.215L143.082 102.519C143.082 102.519 149.435 106.696 155.083 113.658C157.906 117.139 161.901 123.567 161.436 126.19C160.596 130.928 157.103 133.39 152.965 135.937C151.834 136.633 144.508 138.933 138.846 139.418C131.658 140.034 127.077 140.238 120.492 137.329C116.864 135.726 114.053 135.13 112.021 131.759C108.672 126.205 114.139 119.228 117.669 114.354C122.101 108.235 131.081 103.215 131.081 103.215Z" fill="#002642"/>
<path d="M132.493 101.126C132.493 101.126 134.556 102.988 136.023 103.215C137.948 103.512 137.603 102.518 139.552 102.518C140.964 102.518 140.964 102.518 141.67 101.822C142.106 101.392 142.465 100.43 143.082 100.43C143.788 100.43 143.907 101.291 143.788 101.822C143.295 104.011 140.404 104.406 138.14 104.607C135.381 104.852 131.147 103.55 131.081 103.215C131.015 102.879 131.012 102.638 131.081 102.518C131.387 101.99 132.493 101.126 132.493 101.126Z" fill="#212121"/>
<path d="M132.492 102.519C132.492 102.519 130.585 98.55 128.963 96.2528C127.066 93.5661 123.315 89.9869 123.315 89.9869C123.315 89.9869 131.081 89.0023 131.081 89.9869C131.081 91.3793 128.868 92.9315 129.669 94.1642C129.773 94.3241 131.081 94.1642 132.492 93.468C133.904 92.7718 137.434 92.7718 137.434 94.1642C137.434 94.9798 137.108 95.5031 137.434 96.2528C137.741 96.9597 138.164 96.5756 138.846 96.949C140.051 97.6092 142.256 97.3266 143.787 96.949C146.611 96.2528 149.435 94.8604 149.435 94.8604L141.669 102.519C141.669 102.519 138.846 103.215 137.434 103.215C135.161 103.215 132.492 102.519 132.492 102.519Z" fill="#002642"/>
<path d="M130.375 90.6831C130.239 89.8712 123.315 90.9351 123.315 89.9869C123.315 89.2907 125.969 88.4506 128.257 87.8983C130.15 87.4412 133.904 86.5059 133.904 87.2021C133.904 87.81 133.994 88.5945 134.61 88.5945C135.316 88.5945 136.022 88.5945 137.434 88.5945C138.026 88.5945 138.205 88.2139 138.14 87.8983C138.113 87.7676 137.254 87.3793 137.434 87.2021C138.14 86.5059 143.787 86.5059 145.905 86.5059C146.777 86.5059 150.164 86.8751 150.141 88.5945C150.127 89.5747 149.435 89.9869 148.729 89.9869C148.023 89.9869 147.317 90.4136 147.317 90.6831C147.317 91.0432 148.729 91.3793 148.729 91.3793C149.389 91.6857 150.05 92.3069 150.141 92.7718C150.605 95.1601 148.729 95.5566 146.611 96.2528C144.243 97.0314 141.669 97.6452 140.258 97.6452C139.264 97.6452 138.14 97.6453 137.434 96.2528C136.728 94.8604 137.434 94.8604 137.434 94.1642C137.434 92.8048 134.532 93.0296 133.198 93.468C131.081 94.1642 129.669 94.8604 128.963 94.1642C128.257 93.468 130.406 90.871 130.375 90.6831Z" fill="#134E78"/>
<path d="M126.843 116.443C128.96 115.399 132.839 115.575 135.314 115.747C138.659 115.979 140.961 116.443 143.079 117.139C143.436 117.256 142.114 118.532 141.667 118.532C140.255 118.532 138.512 117.971 136.02 117.835C133.542 117.7 130.372 117.139 128.96 117.835C128.612 118.007 128.403 118.176 128.254 118.532C127.876 119.438 130.804 119.763 131.784 119.924C135.001 120.453 138.843 119.924 141.667 120.62C142.631 120.858 143.175 121.239 143.785 122.013C144.163 122.493 144.389 122.805 144.491 123.405C144.693 124.604 144.657 124.634 143.785 125.494C143.568 125.708 142.373 126.628 140.961 126.886C137.697 127.482 133.639 127.47 130.372 126.886C128.135 126.486 126.137 126.19 124.725 125.494C124.093 125.182 124.814 124.013 125.431 123.405C126.137 122.709 128.813 124.611 131.078 124.797C139.549 125.494 140.255 124.797 140.961 124.101C141.237 123.829 141.578 122.912 140.961 122.709C138.843 122.013 130.372 122.57 128.96 122.013C127.816 121.561 126.528 121.135 126.137 120.62C125.614 119.932 125.343 119.387 125.431 118.532C125.531 117.556 125.954 116.881 126.843 116.443Z" fill="#07691D"/>
<path d="M131.786 113.658C131.986 113.461 133.474 113.811 133.198 114.354C132.492 115.747 132.359 116.711 131.786 119.228C130.939 122.951 130.669 130.286 130.374 130.367C129.575 130.587 127.551 130.71 127.551 130.367C127.551 127.497 127.895 124.318 128.963 120.62C129.776 117.804 131.08 114.354 131.786 113.658Z" fill="#07691D"/>
<path d="M137.434 113.658C138.026 113.828 138.846 113.746 138.846 114.354C138.846 115.05 139.432 118.161 139.552 120.62C139.765 124.973 139.552 131.759 138.846 131.759C138.14 131.759 136.022 130.813 136.022 130.367C136.022 129.671 137.16 123.916 137.434 120.62C137.705 117.368 136.843 113.488 137.434 113.658Z" fill="#07691D"/>
<path d="M133.904 87.2021C133.904 87.8983 134.077 88.5945 134.61 88.5945C134.715 88.5945 134.61 93.468 134.61 93.468C134.61 93.468 134.031 89.5987 133.904 88.8393C133.799 88.2084 133.904 86.5627 133.904 87.2021Z" fill="#002642"/>
<path d="M147.317 90.6835C147.317 91.0534 148.642 91.2941 148.729 91.3797C148.816 91.4653 145.946 94.8608 145.905 94.8608C145.865 94.8608 147.317 90.4899 147.317 90.6835Z" fill="#002642"/>
<path d="M137.434 88.5946C138.14 88.5948 138.14 87.8984 138.14 87.8984C138.14 87.8984 136.729 94.1643 136.729 92.7719C136.729 91.3795 137.286 88.5946 137.434 88.5946Z" fill="#002642"/>
<path d="M77.4309 125.829L89.4316 125.139C89.4316 125.139 95.7849 129.278 101.432 136.176C104.256 139.625 108.251 145.994 107.786 148.593C106.946 153.288 103.452 155.727 99.3146 158.251C98.1835 158.941 90.8581 161.22 85.1961 161.7C78.0079 162.31 73.4269 162.513 66.842 159.631C63.2135 158.042 60.4029 157.452 58.371 154.112C55.022 148.608 60.4887 141.695 64.0183 136.866C68.4503 130.803 77.4309 125.829 77.4309 125.829Z" fill="#134E78"/>
<path d="M78.8425 123.759C78.8425 123.759 80.9055 125.604 82.3721 125.829C84.298 126.124 83.9524 125.139 85.9017 125.139C87.3136 125.139 87.3136 125.139 88.0195 124.449C88.4554 124.023 88.8149 123.069 89.4314 123.069C90.1373 123.069 90.2569 123.923 90.1373 124.449C89.6441 126.618 86.7541 127.009 84.4899 127.208C81.7305 127.451 77.4968 126.161 77.4307 125.829C77.3645 125.496 77.3614 125.257 77.4306 125.139C77.7365 124.616 78.8425 123.759 78.8425 123.759Z" fill="#212121"/>
<path d="M78.843 125.139C78.843 125.139 76.9353 121.206 75.3134 118.93C73.4164 116.268 69.666 112.722 69.666 112.722C69.666 112.722 77.4312 111.746 77.4312 112.722C77.4312 114.101 75.2182 115.639 76.0193 116.861C76.1233 117.019 77.4312 116.861 78.843 116.171C80.2549 115.481 83.7845 115.481 83.7845 116.861C83.7845 117.669 83.4587 118.187 83.7845 118.93C84.0917 119.631 84.5147 119.25 85.1964 119.62C86.4013 120.274 88.6065 119.994 90.1378 119.62C92.9615 118.93 95.7852 117.551 95.7852 117.551L88.0201 125.139C88.0201 125.139 85.1964 125.829 83.7845 125.829C81.5112 125.829 78.843 125.139 78.843 125.139Z" fill="#134E78"/>
<path d="M76.7253 113.412C76.5896 112.607 69.666 113.661 69.666 112.722C69.666 112.032 72.3196 111.199 74.6075 110.652C76.5009 110.199 80.2549 109.272 80.2549 109.962C80.2549 110.565 80.3444 111.342 80.9608 111.342C81.6667 111.342 82.3727 111.342 83.7845 111.342C84.3769 111.342 84.5557 110.965 84.4904 110.652C84.4634 110.523 83.6048 110.138 83.7845 109.962C84.4904 109.272 90.1378 109.272 92.2556 109.272C93.1274 109.272 96.515 109.638 96.4911 111.342C96.4775 112.313 95.7852 112.722 95.0793 112.722C94.3734 112.722 93.6674 113.144 93.6674 113.411C93.6674 113.768 95.0793 114.101 95.0793 114.101C95.7393 114.405 96.4007 115.02 96.4911 115.481C96.9556 117.847 95.0793 118.24 92.9615 118.93C90.5932 119.702 88.0201 120.31 86.6082 120.31C85.6142 120.31 84.4904 120.31 83.7845 118.93C83.0786 117.551 83.7845 117.551 83.7845 116.861C83.7845 115.514 80.8825 115.736 79.549 116.171C77.4312 116.861 76.0193 117.551 75.3134 116.861C74.6075 116.171 76.7567 113.598 76.7253 113.412Z" fill="#1A679D"/>
<path d="M73.1932 138.935C75.311 137.901 79.1893 138.075 81.6643 138.246C85.0099 138.475 87.3117 138.935 89.4295 139.625C89.7862 139.741 88.4642 141.005 88.0176 141.005C86.6058 141.005 84.8629 140.45 82.3703 140.315C79.8929 140.181 76.7229 139.625 75.311 140.315C74.9623 140.485 74.7535 140.653 74.6051 141.005C74.2266 141.903 77.1543 142.225 78.1347 142.385C81.3511 142.908 85.194 142.385 88.0176 143.074C88.982 143.31 89.5252 143.687 90.1354 144.454C90.5139 144.93 90.74 145.24 90.8413 145.834C91.044 147.022 91.0072 147.051 90.1354 147.903C89.9185 148.115 88.7236 149.027 87.3117 149.283C84.0476 149.874 79.9893 149.861 76.7229 149.283C74.486 148.887 72.4873 148.593 71.0755 147.903C70.4441 147.595 71.1649 146.436 71.7814 145.834C72.4873 145.144 75.1633 147.029 77.4288 147.213C85.8999 147.903 86.6058 147.213 87.3117 146.524C87.5874 146.254 87.9289 145.345 87.3117 145.144C85.194 144.454 76.7229 145.006 75.311 144.454C74.1663 144.007 72.8785 143.584 72.4873 143.074C71.9642 142.393 71.6934 141.852 71.7814 141.005C71.8817 140.039 72.3042 139.37 73.1932 138.935Z" fill="#07691D"/>
<path d="M78.1369 136.176C78.3371 135.98 79.8244 136.327 79.5488 136.866C78.8428 138.245 78.7099 139.201 78.1369 141.694C77.2893 145.384 77.0195 152.652 76.7251 152.732C75.9258 152.95 73.9014 153.071 73.9014 152.732C73.9013 149.888 74.2454 146.738 75.3132 143.074C76.1264 140.284 77.431 136.866 78.1369 136.176Z" fill="#07691D"/>
<path d="M83.7849 136.176C84.3767 136.344 85.1967 136.263 85.1967 136.866C85.1967 137.555 85.7823 140.637 85.9027 143.074C86.1158 147.388 85.9027 154.112 85.1967 154.112C84.4908 154.112 82.373 153.174 82.373 152.732C82.373 152.042 83.5102 146.341 83.7849 143.074C84.0559 139.852 83.1931 136.007 83.7849 136.176Z" fill="#07691D"/>
<path d="M80.254 109.962C80.254 110.652 80.4263 111.342 80.9599 111.342C81.0647 111.342 80.9599 116.171 80.9599 116.171C80.9599 116.171 80.3811 112.337 80.254 111.585C80.1484 110.96 80.254 109.329 80.254 109.962Z" fill="#134E78"/>
<path d="M93.6656 113.411C93.6656 113.778 94.9907 114.016 95.0775 114.101C95.1642 114.186 92.2943 117.551 92.2538 117.551C92.2132 117.551 93.6656 113.22 93.6656 113.411Z" fill="#134E78"/>
<path d="M83.785 111.342C84.4909 111.342 84.491 110.652 84.491 110.652C84.491 110.652 83.0791 116.86 83.0791 115.481C83.0791 114.101 83.6361 111.342 83.785 111.342Z" fill="#134E78"/>
<path d="M112.728 117.139L124.729 116.443C124.729 116.443 131.082 120.62 136.729 127.582C139.553 131.063 143.547 137.491 143.083 140.114C142.243 144.852 138.749 147.314 134.611 149.861C133.48 150.557 126.155 152.857 120.493 153.342C113.305 153.958 108.724 154.162 102.139 151.253C98.5103 149.651 95.6998 149.054 93.6678 145.684C90.3189 140.129 95.7856 133.152 99.3152 128.278C103.747 122.159 112.728 117.139 112.728 117.139Z" fill="#093F66"/>
<path d="M114.138 115.05C114.138 115.05 116.201 116.912 117.668 117.139C119.594 117.437 119.248 116.443 121.198 116.443C122.609 116.443 122.609 116.443 123.315 115.746C123.751 115.317 124.111 114.354 124.727 114.354C125.433 114.354 125.553 115.216 125.433 115.746C124.94 117.935 122.05 118.33 119.786 118.531C117.026 118.776 112.793 117.475 112.727 117.139C112.66 116.803 112.657 116.562 112.727 116.443C113.032 115.915 114.138 115.05 114.138 115.05Z" fill="#212121"/>
<path d="M114.139 116.443C114.139 116.443 112.231 112.474 110.609 110.177C108.712 107.49 104.962 103.911 104.962 103.911C104.962 103.911 112.727 102.927 112.727 103.911C112.727 105.304 110.514 106.856 111.315 108.089C111.419 108.248 112.727 108.089 114.139 107.392C115.551 106.696 119.08 106.696 119.08 108.089C119.08 108.904 118.755 109.427 119.08 110.177C119.388 110.884 119.811 110.5 120.492 110.873C121.697 111.534 123.902 111.251 125.434 110.873C128.257 110.177 131.081 108.785 131.081 108.785L123.316 116.443C123.316 116.443 120.492 117.139 119.08 117.139C116.807 117.139 114.139 116.443 114.139 116.443Z" fill="#093F66"/>
<path d="M112.021 104.607C111.885 103.795 104.962 104.859 104.962 103.911C104.962 103.215 107.616 102.374 109.903 101.822C111.797 101.365 115.551 100.43 115.551 101.126C115.551 101.734 115.64 102.518 116.257 102.518C116.963 102.518 117.669 102.518 119.08 102.518C119.673 102.518 119.852 102.138 119.786 101.822C119.759 101.691 118.901 101.303 119.08 101.126C119.786 100.43 125.434 100.43 127.551 100.43C128.423 100.43 131.811 100.799 131.787 102.518C131.773 103.499 131.081 103.911 130.375 103.911C129.669 103.911 128.963 104.337 128.963 104.607C128.963 104.967 130.375 105.303 130.375 105.303C131.035 105.609 131.697 106.231 131.787 106.696C132.251 109.084 130.375 109.48 128.257 110.177C125.889 110.955 123.316 111.569 121.904 111.569C120.91 111.569 119.786 111.569 119.08 110.177C118.374 108.784 119.08 108.784 119.08 108.088C119.08 106.729 116.178 106.953 114.845 107.392C112.727 108.088 111.315 108.784 110.609 108.088C109.903 107.392 112.053 104.795 112.021 104.607Z" fill="#105F97"/>
<path d="M108.491 130.367C110.609 129.323 114.487 129.499 116.962 129.671C120.308 129.903 122.61 130.367 124.727 131.063C125.084 131.181 123.762 132.456 123.316 132.456C121.904 132.456 120.161 131.895 117.668 131.76C115.191 131.625 112.021 131.063 110.609 131.76C110.26 131.932 110.051 132.1 109.903 132.456C109.524 133.362 112.452 133.687 113.433 133.848C116.649 134.377 120.492 133.848 123.315 134.545C124.28 134.782 124.823 135.163 125.433 135.937C125.812 136.417 126.038 136.73 126.139 137.329C126.342 138.529 126.305 138.558 125.433 139.418C125.216 139.632 124.021 140.553 122.61 140.81C119.345 141.407 115.287 141.394 112.021 140.81C109.784 140.411 107.785 140.114 106.373 139.418C105.742 139.107 106.463 137.937 107.079 137.329C107.785 136.633 110.461 138.536 112.727 138.722C121.198 139.418 121.904 138.722 122.61 138.026C122.885 137.754 123.227 136.836 122.61 136.633C120.492 135.937 112.021 136.494 110.609 135.937C109.464 135.485 108.176 135.059 107.785 134.545C107.262 133.857 106.991 133.311 107.079 132.456C107.18 131.481 107.602 130.806 108.491 130.367Z" fill="#07691D"/>
<path d="M113.433 127.582C113.633 127.385 115.12 127.734 114.845 128.278C114.139 129.671 114.006 130.635 113.433 133.152C112.585 136.875 112.315 144.21 112.021 144.291C111.222 144.511 109.197 144.634 109.197 144.291C109.197 141.421 109.541 138.242 110.609 134.544C111.422 131.728 112.727 128.278 113.433 127.582Z" fill="#07691D"/>
<path d="M119.08 127.582C119.672 127.752 120.492 127.67 120.492 128.278C120.492 128.974 121.077 132.085 121.198 134.544C121.411 138.898 121.198 145.684 120.492 145.684C119.786 145.684 117.668 144.737 117.668 144.291C117.668 143.595 118.805 137.841 119.08 134.544C119.351 131.292 118.488 127.412 119.08 127.582Z" fill="#07691D"/>
<path d="M115.552 101.126C115.552 101.823 115.724 102.519 116.258 102.519C116.363 102.519 116.258 107.392 116.258 107.392C116.258 107.392 115.679 103.523 115.552 102.764C115.446 102.133 115.552 100.487 115.552 101.126Z" fill="#093F66"/>
<path d="M128.962 104.607C128.962 104.977 130.288 105.218 130.374 105.304C130.461 105.389 127.591 108.785 127.551 108.785C127.51 108.785 128.962 104.414 128.962 104.607Z" fill="#093F66"/>
<path d="M119.08 102.518C119.786 102.519 119.786 101.822 119.786 101.822C119.786 101.822 118.374 108.088 118.374 106.696C118.374 105.303 118.931 102.518 119.08 102.518Z" fill="#093F66"/>
<path d="M146.611 126.886L158.611 126.189C158.611 126.189 164.965 130.367 170.612 137.329C173.436 140.81 177.43 147.237 176.965 149.861C176.126 154.599 172.632 157.061 168.494 159.608C167.363 160.304 160.038 162.604 154.376 163.089C147.188 163.705 142.607 163.909 136.022 161C132.393 159.397 129.583 158.801 127.551 155.43C124.202 149.875 129.668 142.899 133.198 138.025C137.63 131.906 146.611 126.886 146.611 126.886Z" fill="#134E78"/>
<path d="M148.022 124.797C148.022 124.797 150.085 126.659 151.552 126.886C153.478 127.184 153.132 126.19 155.081 126.19C156.493 126.19 156.493 126.19 157.199 125.493C157.635 125.064 157.995 124.101 158.611 124.101C159.317 124.101 159.437 124.963 159.317 125.493C158.824 127.682 155.934 128.077 153.67 128.278C150.91 128.523 146.676 127.222 146.61 126.886C146.544 126.55 146.541 126.309 146.61 126.19C146.916 125.662 148.022 124.797 148.022 124.797Z" fill="#212121"/>
<path d="M148.023 126.19C148.023 126.19 146.115 122.221 144.493 119.924C142.596 117.237 138.846 113.658 138.846 113.658C138.846 113.658 146.611 112.673 146.611 113.658C146.611 115.05 144.398 116.602 145.199 117.835C145.303 117.995 146.611 117.835 148.023 117.139C149.435 116.443 152.964 116.443 152.964 117.835C152.964 118.651 152.638 119.174 152.964 119.924C153.271 120.631 153.694 120.246 154.376 120.62C155.581 121.28 157.786 120.998 159.318 120.62C162.141 119.924 164.965 118.531 164.965 118.531L157.2 126.19C157.2 126.19 154.376 126.886 152.964 126.886C150.691 126.886 148.023 126.19 148.023 126.19Z" fill="#134E78"/>
<path d="M145.905 114.354C145.769 113.542 138.846 114.606 138.846 113.658C138.846 112.962 141.499 112.122 143.787 111.569C145.681 111.112 149.435 110.177 149.435 110.873C149.435 111.481 149.524 112.265 150.14 112.265C150.846 112.265 151.552 112.265 152.964 112.265C153.557 112.265 153.735 111.885 153.67 111.569C153.643 111.439 152.784 111.05 152.964 110.873C153.67 110.177 159.318 110.177 161.435 110.177C162.307 110.177 165.695 110.546 165.671 112.265C165.657 113.246 164.965 113.658 164.259 113.658C163.553 113.658 162.847 114.085 162.847 114.354C162.847 114.714 164.259 115.05 164.259 115.05C164.919 115.357 165.58 115.978 165.671 116.443C166.135 118.831 164.259 119.228 162.141 119.924C159.773 120.702 157.2 121.316 155.788 121.316C154.794 121.316 153.67 121.316 152.964 119.924C152.258 118.531 152.964 118.531 152.964 117.835C152.964 116.476 150.062 116.7 148.729 117.139C146.611 117.835 145.199 118.531 144.493 117.835C143.787 117.139 145.936 114.542 145.905 114.354Z" fill="#1A679D"/>
<path d="M142.375 140.114C144.493 139.07 148.371 139.246 150.846 139.418C154.192 139.65 156.493 140.114 158.611 140.81C158.968 140.927 157.646 142.202 157.199 142.202C155.787 142.202 154.044 141.642 151.552 141.506C149.075 141.371 145.905 140.81 144.493 141.506C144.144 141.678 143.935 141.847 143.787 142.202C143.408 143.109 146.336 143.434 147.316 143.595C150.533 144.124 154.376 143.595 157.199 144.291C158.164 144.529 158.707 144.91 159.317 145.684C159.696 146.163 159.922 146.476 160.023 147.076C160.226 148.275 160.189 148.305 159.317 149.165C159.1 149.379 157.905 150.299 156.493 150.557C153.229 151.153 149.171 151.141 145.904 150.557C143.668 150.157 141.669 149.861 140.257 149.165C139.626 148.853 140.347 147.684 140.963 147.076C141.669 146.38 144.345 148.282 146.61 148.468C155.082 149.165 155.787 148.468 156.493 147.772C156.769 147.5 157.111 146.583 156.493 146.38C154.376 145.684 145.904 146.241 144.493 145.684C143.348 145.232 142.06 144.805 141.669 144.291C141.146 143.603 140.875 143.058 140.963 142.202C141.063 141.227 141.486 140.552 142.375 140.114Z" fill="#07691D"/>
<path d="M147.316 137.329C147.516 137.132 149.003 137.482 148.727 138.025C148.022 139.418 147.889 140.382 147.316 142.899C146.468 146.622 146.198 153.957 145.904 154.038C145.105 154.258 143.08 154.381 143.08 154.038C143.08 151.168 143.424 147.989 144.492 144.291C145.305 141.475 146.61 138.025 147.316 137.329Z" fill="#07691D"/>
<path d="M152.965 137.329C153.556 137.499 154.376 137.417 154.376 138.025C154.376 138.722 154.962 141.832 155.082 144.291C155.295 148.645 155.082 155.431 154.376 155.431C153.671 155.431 151.553 154.484 151.553 154.038C151.553 153.342 152.69 147.588 152.965 144.291C153.236 141.04 152.373 137.159 152.965 137.329Z" fill="#07691D"/>
<path d="M149.435 110.873C149.435 111.569 149.607 112.265 150.141 112.265C150.245 112.265 150.141 117.139 150.141 117.139C150.141 117.139 149.562 113.27 149.435 112.51C149.329 111.879 149.435 110.234 149.435 110.873Z" fill="#134E78"/>
<path d="M162.847 114.354C162.847 114.724 164.172 114.965 164.259 115.051C164.346 115.136 161.476 118.532 161.435 118.532C161.395 118.532 162.847 114.161 162.847 114.354Z" fill="#134E78"/>
<path d="M145.198 122.522H145.904V125.507L145.551 123.641L145.198 122.522Z" fill="#134E78"/>
<path d="M152.966 112.265C153.672 112.265 153.672 111.569 153.672 111.569C153.672 111.569 152.26 117.835 152.26 116.442C152.26 115.05 152.817 112.265 152.966 112.265Z" fill="#134E78"/>
<path d="M107.079 139.417L119.08 138.721C119.08 138.721 125.433 142.898 131.081 149.861C133.904 153.342 137.899 159.769 137.434 162.392C136.594 167.131 133.101 169.593 128.963 172.139C127.832 172.836 120.506 175.135 114.845 175.62C107.656 176.236 103.075 176.441 96.4905 173.532C92.8619 171.929 90.0514 171.333 88.0194 167.962C84.6704 162.407 90.1372 155.43 93.6668 150.557C98.0987 144.437 107.079 139.417 107.079 139.417Z" fill="#13649D"/>
<path d="M108.491 137.329C108.491 137.329 110.554 139.191 112.021 139.418C113.946 139.715 113.601 138.721 115.55 138.721C116.962 138.721 116.962 138.721 117.668 138.025C118.104 137.595 118.463 136.633 119.08 136.633C119.786 136.633 119.905 137.494 119.786 138.025C119.293 140.214 116.403 140.609 114.138 140.81C111.379 141.055 107.145 139.753 107.079 139.418C107.013 139.082 107.01 138.841 107.079 138.721C107.385 138.194 108.491 137.329 108.491 137.329Z" fill="#212121"/>
<path d="M108.491 138.721C108.491 138.721 106.584 134.753 104.962 132.455C103.065 129.769 99.3145 126.19 99.3145 126.19C99.3145 126.19 107.08 125.205 107.08 126.19C107.08 127.582 104.867 129.134 105.668 130.367C105.772 130.527 107.08 130.367 108.491 129.671C109.903 128.974 113.433 128.974 113.433 130.367C113.433 131.182 113.107 131.706 113.433 132.455C113.74 133.162 114.163 132.778 114.845 133.152C116.05 133.812 118.255 133.529 119.786 133.152C122.61 132.455 125.434 131.063 125.434 131.063L117.668 138.721C117.668 138.721 114.845 139.418 113.433 139.418C111.16 139.418 108.491 138.721 108.491 138.721Z" fill="#13649D"/>
<path d="M106.374 126.886C106.238 126.074 99.3145 127.138 99.3145 126.19C99.3145 125.493 101.968 124.653 104.256 124.101C106.149 123.644 109.903 122.708 109.903 123.405C109.903 124.013 109.993 124.797 110.609 124.797C111.315 124.797 112.021 124.797 113.433 124.797C114.025 124.797 114.204 124.417 114.139 124.101C114.112 123.97 113.253 123.582 113.433 123.405C114.139 122.708 119.786 122.708 121.904 122.708C122.776 122.708 126.163 123.078 126.14 124.797C126.126 125.777 125.434 126.19 124.728 126.19C124.022 126.19 123.316 126.616 123.316 126.886C123.316 127.246 124.728 127.582 124.728 127.582C125.388 127.888 126.049 128.51 126.14 128.974C126.604 131.363 124.728 131.759 122.61 132.455C120.242 133.234 117.668 133.848 116.257 133.848C115.263 133.848 114.139 133.848 113.433 132.455C112.727 131.063 113.433 131.063 113.433 130.367C113.433 129.007 110.531 129.232 109.197 129.671C107.08 130.367 105.668 131.063 104.962 130.367C104.256 129.671 106.405 127.074 106.374 126.886Z" fill="#1979BE"/>
<path d="M102.842 152.646C104.959 151.601 108.838 151.778 111.313 151.949C114.658 152.181 116.96 152.646 119.078 153.342C119.435 153.459 118.113 154.734 117.666 154.734C116.254 154.734 114.511 154.174 112.019 154.038C109.541 153.903 106.371 153.342 104.959 154.038C104.611 154.21 104.402 154.379 104.254 154.734C103.875 155.641 106.803 155.965 107.783 156.127C111 156.655 114.842 156.127 117.666 156.823C118.63 157.061 119.174 157.441 119.784 158.215C120.162 158.695 120.388 159.008 120.49 159.608C120.692 160.807 120.656 160.837 119.784 161.696C119.567 161.91 118.372 162.831 116.96 163.089C113.696 163.685 109.638 163.672 106.371 163.089C104.134 162.689 102.136 162.393 100.724 161.696C100.092 161.385 100.813 160.216 101.43 159.608C102.136 158.911 104.812 160.814 107.077 161C115.548 161.696 116.254 161 116.96 160.304C117.236 160.032 117.577 159.114 116.96 158.911C114.842 158.215 106.371 158.772 104.959 158.215C103.815 157.764 102.527 157.337 102.136 156.823C101.613 156.135 101.342 155.59 101.43 154.734C101.53 153.759 101.953 153.084 102.842 152.646Z" fill="#07691D"/>
<path d="M107.785 149.861C107.986 149.663 109.473 150.013 109.197 150.557C108.491 151.949 108.358 152.914 107.785 155.431C106.938 159.154 106.668 166.489 106.374 166.57C105.574 166.79 103.55 166.912 103.55 166.57C103.55 163.699 103.894 160.521 104.962 156.823C105.775 154.007 107.079 150.557 107.785 149.861Z" fill="#07691D"/>
<path d="M113.432 149.861C114.024 150.031 114.844 149.949 114.844 150.557C114.844 151.253 115.43 154.364 115.55 156.823C115.763 161.177 115.55 167.962 114.844 167.962C114.138 167.962 112.021 167.016 112.021 166.57C112.021 165.874 113.158 160.12 113.432 156.823C113.703 153.571 112.841 149.691 113.432 149.861Z" fill="#07691D"/>
<path d="M109.902 123.405C109.902 124.101 110.075 124.798 110.608 124.798C110.713 124.798 110.608 129.671 110.608 129.671C110.608 129.671 110.03 125.802 109.902 125.042C109.797 124.412 109.902 122.766 109.902 123.405Z" fill="#13649D"/>
<path d="M123.316 126.886C123.316 127.256 124.641 127.497 124.728 127.582C124.815 127.668 121.945 131.063 121.904 131.063C121.864 131.063 123.316 126.693 123.316 126.886Z" fill="#13649D"/>
<path d="M113.432 124.797C114.138 124.797 114.138 124.101 114.138 124.101C114.138 124.101 112.727 130.367 112.727 128.975C112.727 127.582 113.284 124.797 113.432 124.797Z" fill="#13649D"/>
<path d="M89.1338 13.4351C89.3234 11.9409 89.1338 9.59473 89.1338 9.59473C89.1338 9.59473 93.2984 13.0606 94.2371 15.7393C96.0808 21.0007 87.914 23.399 87.4327 28.7966C87.2187 31.1966 87.9997 34.9413 87.9997 34.9413C87.9997 34.9413 82.2271 29.6713 81.7624 25.7243C81.1544 20.5606 88.479 18.5963 89.1338 13.4351Z" fill="#FF9A26"/>
</g>
<defs>
<clipPath id="clip0_93_495">
<rect width="229" height="176" fill="white"/>
</clipPath>
</defs>
</svg>
