<svg width="541" height="205" viewBox="0 0 541 205" fill="none" xmlns="http://www.w3.org/2000/svg">
<g clip-path="url(#clip0_93_1141)">
<rect width="541" height="205" fill="white"/>
<path d="M18.3385 181.577C34.0007 214.046 76.9124 180.599 119.338 193.077C132.838 197.047 179.338 185.077 179.338 185.077C179.338 185.077 199.772 184.126 222.372 188.547C249.262 193.808 252.752 194.207 278.838 188.547C288.064 186.546 317.972 196.735 342.839 200.077C363.942 202.913 388.42 191.574 411.838 191.577C446.074 191.58 469.986 209.922 483.839 195.577C492.839 189.077 480.193 174.519 481.339 164.577C482.975 150.366 487.561 127.356 485.839 122.077C479.249 101.881 478.839 91.5766 478.839 91.5766C478.839 91.5766 492.551 66.7984 485.839 49.0766C483.237 42.209 460.007 30.5092 435.339 29.5766C414.777 28.7993 394.809 45.3242 380.22 44.8967C369.945 44.5039 359.039 40.1168 339.839 40.0766C317.609 40.0301 286.813 44.395 273.839 44.8967C273.839 44.8967 245.706 37.2606 222.372 36.5769C198.579 35.8796 159.339 44.8967 159.339 44.8967C159.339 44.8967 121.338 24.5766 86.8382 24.5766C37.8382 24.5766 30.3382 49.0766 30.3382 49.0766C30.3382 49.0766 4.87208 62.8793 4.33882 81.0767C3.12686 122.434 12.8386 131.577 12.8386 131.577C12.8386 131.577 10.6345 165.605 18.3385 181.577Z" fill="#FAF9F6"/>
<rect x="64" y="84" width="48.3906" height="87" rx="8" fill="#514848"/>
<rect x="67.6289" y="92.0132" width="41.132" height="73.2632" fill="#A3ABE0"/>
<rect x="75.6797" y="86.71" width="24.0472" height="2.70982" rx="1.35491" fill="#212121"/>
<path d="M86.6709 129.728L118.619 124.647C118.619 124.647 127.119 134.354 122.055 138.197C116.99 142.039 113.466 137.519 113.466 137.519C113.466 137.519 111.156 140.229 108.313 140.229C104.535 140.229 102.13 137.519 102.13 137.519C102.13 137.519 96.9769 143.616 90.4497 138.197C87.764 135.966 86.6709 129.728 86.6709 129.728Z" fill="#285301"/>
<path d="M86.6709 129.728L111.405 123.631C111.405 123.631 111.405 127.357 111.405 132.099C111.405 136.841 111.405 138.196 111.405 138.196C111.405 138.196 111.156 140.229 108.313 140.229C104.535 140.229 102.13 137.519 102.13 137.519C102.13 137.519 96.9769 143.616 90.4497 138.196C87.764 135.966 86.6709 129.728 86.6709 129.728Z" fill="#970EA1"/>
<path d="M100.757 132.099C100.757 132.099 104.783 133.541 106.94 132.777C109.497 131.872 109.002 127.019 109.002 127.019H111.063L110.376 138.197L114.498 131.422L116.216 132.099C116.216 132.099 113.467 140.043 113.467 145.31C113.467 153.101 120.682 160.214 118.277 160.214C115.25 160.214 114.662 162.045 111.75 161.23C109.889 160.709 109.517 159.948 107.627 159.536C105.18 159.003 105.628 160.992 103.161 160.553C97.5216 159.547 105.426 156.488 105.566 147.342C105.699 138.686 100.757 132.099 100.757 132.099Z" fill="#5E4109"/>
<path d="M100.757 132.099C100.757 132.099 104.783 133.541 106.94 132.777C109.497 131.872 109.002 127.019 109.002 127.019H111.063L110.376 138.197V141.584L109.002 145.31C109.002 145.31 110.376 143.769 110.376 149.036C110.376 156.827 112.78 154.117 110.376 154.117C107.349 154.117 113.975 161.367 111.063 160.553C109.201 160.032 109.517 159.948 107.627 159.536C105.18 159.003 105.628 160.992 103.161 160.553C97.5216 159.547 105.426 156.488 105.566 147.342C105.699 138.686 100.757 132.099 100.757 132.099Z" fill="#B3801A"/>
<path d="M95.6046 102.292C95.6046 102.292 95.93 97.5281 98.6963 95.8557C106.597 91.0786 111.064 97.2106 111.064 97.2106C111.064 97.2106 115.093 95.0391 117.934 96.5331C123.087 99.2429 120.682 103.985 120.682 103.985C120.682 103.985 124.65 108.414 120.682 110.76C116.54 113.209 105.567 119.905 105.567 119.905C105.567 119.905 84.4866 118.889 85.9855 110.76C87.3595 103.308 95.6046 102.292 95.6046 102.292Z" fill="#3C6F0F"/>
<path d="M95.6046 102.292C95.6046 102.292 95.93 97.5281 98.6963 95.8557C106.597 91.0786 111.064 97.2106 111.064 97.2106C111.064 97.2106 110.138 99.2507 111.064 102.292C112.094 105.679 111.064 110.76 111.064 110.76C111.064 110.76 113.657 114.172 109.689 116.518C105.547 118.967 105.567 119.905 105.567 119.905C105.567 119.905 84.4866 118.889 85.9855 110.76C87.3595 103.308 95.6046 102.292 95.6046 102.292Z" fill="#AA30B3"/>
<path d="M109.002 114.486C109.002 114.486 109.068 110.678 111.75 107.372C114.786 103.631 121.712 106.356 121.712 106.356C121.712 106.356 127.619 103.128 129.614 104.324C133.049 105.34 132.795 108.744 134.08 110.082C136.977 113.098 135.797 117.196 135.797 117.196C135.797 117.196 139.701 121.767 138.889 123.97C136.14 131.422 131.331 131.422 131.331 131.422C131.331 131.422 127.552 135.572 121.712 134.471C117.174 133.615 116.217 129.051 116.217 129.051C116.217 129.051 107.284 130.067 105.567 123.97C102.987 114.808 109.002 114.486 109.002 114.486Z" fill="#4F8C19"/>
<path d="M81.1765 114.824C82.3906 111.834 88.0469 111.776 88.0469 111.776C88.0469 111.776 89.626 107.711 92.857 107.711C98.6969 107.711 101.789 112.792 101.789 112.792C101.789 112.792 107.288 109.497 108.659 112.792C109.869 115.701 109.689 121.599 109.689 121.599C109.689 121.599 113.125 127.741 101.789 132.438C95.2614 135.143 90.1086 133.454 90.1086 133.454C90.1086 133.454 84.488 135.994 81.8641 132.438C79.4595 129.18 82.5508 124.309 82.5508 124.309C82.5508 124.309 79.7903 118.239 81.1765 114.824Z" fill="#C138CA"/>
<path d="M108.762 92.0132L112.391 93.1579V161.842L108.762 165.276V92.0132Z" fill="#514848"/>
<path d="M202.992 127.28L203.536 106.091C203.536 106.091 202.353 105.016 200.741 105.306C199.129 105.597 198.118 110.401 197.365 114.245C197.222 114.974 197.365 114.617 196.989 116.107C194.953 129.909 196.635 152.999 196.989 153.352C197.946 154.301 200.16 139.983 200.16 139.983L202.992 127.28Z" fill="#F0EEF7"/>
<path d="M208.243 154.469C218.042 161.369 228.118 163.17 240.131 163.036C251.573 162.908 263.391 158.939 268.643 155.959C278.022 150.638 281.398 142.179 281.398 142.179C281.398 142.179 283.7 148.829 282.899 153.352C281.884 159.082 275.771 163.829 272.395 166.015C263.766 171.602 253.607 174.439 240.131 174.954C230.377 175.326 215.746 173.547 206.367 166.015C202.24 162.701 198.285 158.939 196.988 153.352C195.959 148.922 198.489 142.179 198.489 142.179C198.489 142.179 202.229 150.234 208.243 154.469Z" fill="#E4E7F3"/>
<path d="M276.894 126.163L275.394 106.051C275.394 106.051 276.783 104.644 278.395 104.934C280.007 105.225 281.268 110.427 282.147 114.245C285.148 127.281 283.162 152.825 282.897 153.352C282.678 153.787 280.069 144.358 279.145 141.061C278.95 140.366 278.77 139.944 278.77 139.944L276.894 126.163Z" fill="#F0EEF7"/>
<path d="M217.621 143.296L224.374 140.316C224.374 140.316 222.123 161.918 221.372 172.347C221.288 173.516 219.529 173.694 218.371 173.464C217.213 173.234 215.891 172.765 215.745 171.602C214.619 162.663 217.621 143.296 217.621 143.296Z" fill="#E1E4EF"/>
<path d="M261.89 142.923L255.137 139.944C255.137 139.944 257.388 161.546 258.139 171.974C258.223 173.144 259.981 173.321 261.14 173.091C262.298 172.862 263.619 172.393 263.766 171.229C264.892 162.291 261.89 142.923 261.89 142.923Z" fill="#E1E4EF"/>
<path d="M202.241 125.418C202.241 122.439 277.647 120.389 277.647 123.184C277.647 126.908 278.175 129.79 278.398 133.24C278.694 137.823 279.148 142.923 276.147 144.413C270.277 147.327 264.188 144.724 258.139 142.923C248.428 140.032 252.137 128.026 240.132 128.026C229.252 128.026 230.378 137.337 225.876 140.316C221.925 142.931 210.119 148.51 204.117 144.413C198.865 140.828 202.241 133.322 202.241 125.418Z" fill="#3F3A51"/>
<path d="M201.866 108.286C208.618 93.3882 224.894 92.8728 240.507 93.0158C255.703 93.155 270.894 93.7607 276.897 106.051C280.948 114.347 281.826 122.497 275.021 128.771C269.769 133.612 261.515 132.123 251.386 131.75C246.708 131.578 247.635 127.653 240.131 127.653C231.878 127.653 232.253 131.75 230.002 131.75C217.225 131.75 206.796 132.951 203.366 127.653C199.99 122.439 198.437 115.851 201.866 108.286Z" fill="#E0DFE4"/>
<path d="M258.512 113.877C258.512 118.719 257.337 119.087 255.886 119.087C254.01 119.087 252.51 118.715 252.51 113.128C252.51 107.169 253.635 107.541 255.511 107.541C257.387 107.541 258.512 107.545 258.512 113.877Z" fill="#212121"/>
<path d="M243.134 113.132C243.134 117.974 241.583 118.719 240.132 118.719C238.257 118.719 236.756 118.719 236.756 113.132C236.756 107.173 238.257 107.173 240.132 107.173C242.008 107.173 243.134 107.173 243.134 113.132Z" fill="#212121"/>
<path d="M202.616 107.913C205.993 100.837 198.145 113.852 205.993 119.832C211.62 124.301 233.275 122 240.507 122.066C247.971 122.135 268.269 124.674 273.521 119.832C280.331 114.908 275.752 102.83 276.897 106.051C279.309 112.834 276.147 118.448 274.646 119.832C268.644 125.365 254.037 122.799 240.507 122.811C226.832 122.824 211.62 124.674 205.618 120.577C202.768 118.631 200.022 113.351 202.616 107.913Z" fill="#212121"/>
<ellipse cx="225.124" cy="128.77" rx="0.750136" ry="0.744891" fill="#212121"/>
<ellipse cx="227.375" cy="128.77" rx="0.750136" ry="0.744891" fill="#212121"/>
<ellipse cx="229.624" cy="128.77" rx="0.750136" ry="0.744891" fill="#212121"/>
<path d="M260.766 128.771C260.766 129.398 260.391 129.888 257.765 129.888C255.139 129.888 254.389 129.515 254.389 128.771C254.389 128.026 255.357 127.281 257.765 127.281C260.173 127.281 260.766 128.144 260.766 128.771Z" fill="#212121"/>
<path d="M260.389 128.771C260.389 129.409 260.389 129.888 257.763 129.888C255.137 129.888 254.762 129.516 254.762 128.771C254.762 128.026 255.887 127.653 257.763 127.653C259.639 127.653 260.389 128.132 260.389 128.771Z" fill="#EBEBEF"/>
<path d="M277.645 123.556C277.645 123.929 276.727 124.674 276.52 124.674C276.312 124.674 276.144 123.929 276.52 123.184C276.895 122.066 277.438 122.066 277.645 122.066C278.02 122.066 277.645 123.184 277.645 123.556Z" fill="#212121"/>
<path d="M227.376 113.5C227.376 118.342 225.825 119.087 224.374 119.087C222.499 119.087 221.373 119.087 221.373 113.5C221.373 107.541 222.924 107.541 224.374 107.541C225.825 107.541 227.376 107.169 227.376 113.5Z" fill="#212121"/>
<path d="M362.145 152.613L399.522 161.467L442.455 140.44L444.5 140.5V144.5L400 166.5L360 157V153L362.145 152.613Z" fill="#212121"/>
<path d="M360 153C360 153 391.804 139.183 407.097 135.46C411.138 134.476 444.5 140.5 444.5 140.5L399.521 162.02L360 153Z" fill="#134E78"/>
<ellipse cx="384.5" cy="154.5" rx="2.5" ry="1.5" fill="#212121"/>
<path d="M365.175 122.733H410.634L384.369 153.72L365.175 122.733Z" fill="#D2EAFB"/>
<rect x="348" y="84" width="89.9073" height="40.9467" rx="1" fill="#D2EAFB"/>
<line x1="382" y1="118.5" x2="396" y2="118.5" stroke="#E1F2FF"/>
<line x1="393" y1="90.5" x2="415" y2="90.5" stroke="#E1F2FF"/>
<ellipse cx="419.725" cy="99.4933" rx="5.05097" ry="5.53334" fill="#002642"/>
<ellipse cx="419.725" cy="99.4931" rx="4.04078" ry="4.42667" fill="#D2EAFB"/>
<ellipse cx="419.726" cy="99.4933" rx="3.03059" ry="3.32" fill="#002642"/>
<line x1="348" y1="115.5" x2="367" y2="115.5" stroke="#E1F2FF"/>
<line x1="402" y1="112.5" x2="425" y2="112.5" stroke="#E1F2FF"/>
<rect width="21.746" height="3.31519" rx="1.65759" transform="matrix(0.989557 0.14414 -0.120488 0.992715 409.013 137.206)" fill="#212121"/>
<line x1="367" y1="102.5" x2="396" y2="102.5" stroke="#E1F2FF"/>
<path d="M65.5012 48.724L64.4452 45.838C64.3932 45.71 64.3392 45.558 64.2832 45.382C64.2272 45.206 64.1712 45.016 64.1152 44.812C64.0632 45.016 64.0092 45.208 63.9532 45.388C63.8972 45.564 63.8432 45.718 63.7912 45.85L62.7412 48.724H65.5012ZM68.3512 52H67.1032C66.9632 52 66.8492 51.966 66.7612 51.898C66.6732 51.826 66.6072 51.738 66.5632 51.634L65.9152 49.864H62.3212L61.6732 51.634C61.6412 51.726 61.5792 51.81 61.4872 51.886C61.3952 51.962 61.2812 52 61.1452 52H59.8852L63.2992 43.324H64.9432L68.3512 52ZM74.1786 45.844V52H73.2726C73.0766 52 72.9526 51.91 72.9006 51.73L72.7986 51.238C72.5466 51.494 72.2686 51.702 71.9646 51.862C71.6606 52.018 71.3026 52.096 70.8906 52.096C70.5546 52.096 70.2566 52.04 69.9966 51.928C69.7406 51.812 69.5246 51.65 69.3486 51.442C69.1726 51.234 69.0386 50.988 68.9466 50.704C68.8586 50.416 68.8146 50.1 68.8146 49.756V45.844H70.2966V49.756C70.2966 50.132 70.3826 50.424 70.5546 50.632C70.7306 50.836 70.9926 50.938 71.3406 50.938C71.5966 50.938 71.8366 50.882 72.0606 50.77C72.2846 50.654 72.4966 50.496 72.6966 50.296V45.844H74.1786ZM77.898 48.772C78.082 48.772 78.242 48.748 78.378 48.7C78.514 48.648 78.626 48.578 78.714 48.49C78.806 48.402 78.874 48.296 78.918 48.172C78.966 48.048 78.99 47.912 78.99 47.764C78.99 47.46 78.898 47.22 78.714 47.044C78.534 46.864 78.262 46.774 77.898 46.774C77.534 46.774 77.26 46.864 77.076 47.044C76.896 47.22 76.806 47.46 76.806 47.764C76.806 47.908 76.828 48.042 76.872 48.166C76.92 48.29 76.988 48.398 77.076 48.49C77.168 48.578 77.282 48.648 77.418 48.7C77.558 48.748 77.718 48.772 77.898 48.772ZM79.572 52.276C79.572 52.156 79.536 52.058 79.464 51.982C79.392 51.906 79.294 51.848 79.17 51.808C79.046 51.764 78.9 51.732 78.732 51.712C78.568 51.692 78.392 51.678 78.204 51.67C78.02 51.658 77.828 51.648 77.628 51.64C77.432 51.632 77.24 51.616 77.052 51.592C76.888 51.684 76.754 51.792 76.65 51.916C76.55 52.04 76.5 52.184 76.5 52.348C76.5 52.456 76.526 52.556 76.578 52.648C76.634 52.744 76.72 52.826 76.836 52.894C76.956 52.962 77.11 53.014 77.298 53.05C77.486 53.09 77.716 53.11 77.988 53.11C78.264 53.11 78.502 53.088 78.702 53.044C78.902 53.004 79.066 52.946 79.194 52.87C79.326 52.798 79.422 52.71 79.482 52.606C79.542 52.506 79.572 52.396 79.572 52.276ZM81.048 46.054V46.606C81.048 46.782 80.942 46.89 80.73 46.93L80.178 47.032C80.262 47.244 80.304 47.476 80.304 47.728C80.304 48.032 80.242 48.308 80.118 48.556C79.998 48.8 79.83 49.008 79.614 49.18C79.398 49.352 79.142 49.486 78.846 49.582C78.554 49.674 78.238 49.72 77.898 49.72C77.778 49.72 77.662 49.714 77.55 49.702C77.438 49.69 77.328 49.674 77.22 49.654C77.028 49.77 76.932 49.9 76.932 50.044C76.932 50.168 76.988 50.26 77.1 50.32C77.216 50.376 77.368 50.416 77.556 50.44C77.744 50.464 77.958 50.48 78.198 50.488C78.438 50.492 78.684 50.504 78.936 50.524C79.188 50.544 79.434 50.58 79.674 50.632C79.914 50.68 80.128 50.758 80.316 50.866C80.504 50.974 80.654 51.122 80.766 51.31C80.882 51.494 80.94 51.732 80.94 52.024C80.94 52.296 80.872 52.56 80.736 52.816C80.604 53.072 80.41 53.3 80.154 53.5C79.902 53.7 79.59 53.86 79.218 53.98C78.85 54.104 78.43 54.166 77.958 54.166C77.494 54.166 77.09 54.12 76.746 54.028C76.402 53.94 76.116 53.82 75.888 53.668C75.66 53.52 75.49 53.348 75.378 53.152C75.266 52.956 75.21 52.752 75.21 52.54C75.21 52.252 75.296 52.012 75.468 51.82C75.644 51.624 75.884 51.468 76.188 51.352C76.024 51.268 75.894 51.156 75.798 51.016C75.702 50.876 75.654 50.692 75.654 50.464C75.654 50.372 75.67 50.278 75.702 50.182C75.738 50.082 75.788 49.984 75.852 49.888C75.92 49.792 76.004 49.702 76.104 49.618C76.204 49.53 76.322 49.452 76.458 49.384C76.146 49.216 75.9 48.992 75.72 48.712C75.544 48.432 75.456 48.104 75.456 47.728C75.456 47.424 75.516 47.15 75.636 46.906C75.76 46.658 75.93 46.448 76.146 46.276C76.366 46.1 76.624 45.966 76.92 45.874C77.22 45.782 77.546 45.736 77.898 45.736C78.162 45.736 78.41 45.764 78.642 45.82C78.874 45.872 79.086 45.95 79.278 46.054H81.048ZM81.9879 52V45.844H82.8939C83.0859 45.844 83.2119 45.934 83.2719 46.114L83.3679 46.57C83.4759 46.45 83.5879 46.34 83.7039 46.24C83.8239 46.14 83.9499 46.054 84.0819 45.982C84.2179 45.91 84.3619 45.854 84.5139 45.814C84.6699 45.77 84.8399 45.748 85.0239 45.748C85.4119 45.748 85.7299 45.854 85.9779 46.066C86.2299 46.274 86.4179 46.552 86.5419 46.9C86.6379 46.696 86.7579 46.522 86.9019 46.378C87.0459 46.23 87.2039 46.11 87.3759 46.018C87.5479 45.926 87.7299 45.858 87.9219 45.814C88.1179 45.77 88.3139 45.748 88.5099 45.748C88.8499 45.748 89.1519 45.8 89.4159 45.904C89.6799 46.008 89.9019 46.16 90.0819 46.36C90.2619 46.56 90.3979 46.804 90.4899 47.092C90.5859 47.38 90.6339 47.71 90.6339 48.082V52H89.1519V48.082C89.1519 47.69 89.0659 47.396 88.8939 47.2C88.7219 47 88.4699 46.9 88.1379 46.9C87.9859 46.9 87.8439 46.926 87.7119 46.978C87.5839 47.03 87.4699 47.106 87.3699 47.206C87.2739 47.302 87.1979 47.424 87.1419 47.572C87.0859 47.72 87.0579 47.89 87.0579 48.082V52H85.5699V48.082C85.5699 47.67 85.4859 47.37 85.3179 47.182C85.1539 46.994 84.9119 46.9 84.5919 46.9C84.3759 46.9 84.1739 46.954 83.9859 47.062C83.8019 47.166 83.6299 47.31 83.4699 47.494V52H81.9879ZM96.0085 48.214C96.0085 48.022 95.9805 47.842 95.9245 47.674C95.8725 47.502 95.7925 47.352 95.6845 47.224C95.5765 47.096 95.4385 46.996 95.2705 46.924C95.1065 46.848 94.9145 46.81 94.6945 46.81C94.2665 46.81 93.9285 46.932 93.6805 47.176C93.4365 47.42 93.2805 47.766 93.2125 48.214H96.0085ZM93.1825 49.108C93.2065 49.424 93.2625 49.698 93.3505 49.93C93.4385 50.158 93.5545 50.348 93.6985 50.5C93.8425 50.648 94.0125 50.76 94.2085 50.836C94.4085 50.908 94.6285 50.944 94.8685 50.944C95.1085 50.944 95.3145 50.916 95.4865 50.86C95.6625 50.804 95.8145 50.742 95.9425 50.674C96.0745 50.606 96.1885 50.544 96.2845 50.488C96.3845 50.432 96.4805 50.404 96.5725 50.404C96.6965 50.404 96.7885 50.45 96.8485 50.542L97.2745 51.082C97.1105 51.274 96.9265 51.436 96.7225 51.568C96.5185 51.696 96.3045 51.8 96.0805 51.88C95.8605 51.956 95.6345 52.01 95.4025 52.042C95.1745 52.074 94.9525 52.09 94.7365 52.09C94.3085 52.09 93.9105 52.02 93.5425 51.88C93.1745 51.736 92.8545 51.526 92.5825 51.25C92.3105 50.97 92.0965 50.626 91.9405 50.218C91.7845 49.806 91.7065 49.33 91.7065 48.79C91.7065 48.37 91.7745 47.976 91.9105 47.608C92.0465 47.236 92.2405 46.914 92.4925 46.642C92.7485 46.366 93.0585 46.148 93.4225 45.988C93.7905 45.828 94.2045 45.748 94.6645 45.748C95.0525 45.748 95.4105 45.81 95.7385 45.934C96.0665 46.058 96.3485 46.24 96.5845 46.48C96.8205 46.716 97.0045 47.008 97.1365 47.356C97.2725 47.7 97.3405 48.094 97.3405 48.538C97.3405 48.762 97.3165 48.914 97.2685 48.994C97.2205 49.07 97.1285 49.108 96.9925 49.108H93.1825ZM99.8387 46.6C99.9627 46.476 100.093 46.362 100.229 46.258C100.369 46.15 100.515 46.06 100.667 45.988C100.823 45.912 100.989 45.854 101.165 45.814C101.341 45.77 101.533 45.748 101.741 45.748C102.077 45.748 102.375 45.806 102.635 45.922C102.895 46.034 103.111 46.194 103.283 46.402C103.459 46.606 103.591 46.852 103.679 47.14C103.771 47.424 103.817 47.738 103.817 48.082V52H102.335V48.082C102.335 47.706 102.249 47.416 102.077 47.212C101.905 47.004 101.643 46.9 101.291 46.9C101.035 46.9 100.795 46.958 100.571 47.074C100.347 47.19 100.135 47.348 99.9347 47.548V52H98.4527V45.844H99.3587C99.5507 45.844 99.6767 45.934 99.7367 46.114L99.8387 46.6ZM107.196 52.096C106.66 52.096 106.248 51.946 105.96 51.646C105.676 51.342 105.534 50.924 105.534 50.392V46.954H104.904C104.824 46.954 104.756 46.928 104.7 46.876C104.644 46.824 104.616 46.746 104.616 46.642V46.054L105.606 45.892L105.918 44.212C105.938 44.132 105.976 44.07 106.032 44.026C106.088 43.982 106.16 43.96 106.248 43.96H107.016V45.898H108.66V46.954H107.016V50.29C107.016 50.482 107.062 50.632 107.154 50.74C107.25 50.848 107.38 50.902 107.544 50.902C107.636 50.902 107.712 50.892 107.772 50.872C107.836 50.848 107.89 50.824 107.934 50.8C107.982 50.776 108.024 50.754 108.06 50.734C108.096 50.71 108.132 50.698 108.168 50.698C108.212 50.698 108.248 50.71 108.276 50.734C108.304 50.754 108.334 50.786 108.366 50.83L108.81 51.55C108.594 51.73 108.346 51.866 108.066 51.958C107.786 52.05 107.496 52.096 107.196 52.096ZM113.528 48.214C113.528 48.022 113.5 47.842 113.444 47.674C113.392 47.502 113.312 47.352 113.204 47.224C113.096 47.096 112.958 46.996 112.79 46.924C112.626 46.848 112.434 46.81 112.214 46.81C111.786 46.81 111.448 46.932 111.2 47.176C110.956 47.42 110.8 47.766 110.732 48.214H113.528ZM110.702 49.108C110.726 49.424 110.782 49.698 110.87 49.93C110.958 50.158 111.074 50.348 111.218 50.5C111.362 50.648 111.532 50.76 111.728 50.836C111.928 50.908 112.148 50.944 112.388 50.944C112.628 50.944 112.834 50.916 113.006 50.86C113.182 50.804 113.334 50.742 113.462 50.674C113.594 50.606 113.708 50.544 113.804 50.488C113.904 50.432 114 50.404 114.092 50.404C114.216 50.404 114.308 50.45 114.368 50.542L114.794 51.082C114.63 51.274 114.446 51.436 114.242 51.568C114.038 51.696 113.824 51.8 113.6 51.88C113.38 51.956 113.154 52.01 112.922 52.042C112.694 52.074 112.472 52.09 112.256 52.09C111.828 52.09 111.43 52.02 111.062 51.88C110.694 51.736 110.374 51.526 110.102 51.25C109.83 50.97 109.616 50.626 109.46 50.218C109.304 49.806 109.226 49.33 109.226 48.79C109.226 48.37 109.294 47.976 109.43 47.608C109.566 47.236 109.76 46.914 110.012 46.642C110.268 46.366 110.578 46.148 110.942 45.988C111.31 45.828 111.724 45.748 112.184 45.748C112.572 45.748 112.93 45.81 113.258 45.934C113.586 46.058 113.868 46.24 114.104 46.48C114.34 46.716 114.524 47.008 114.656 47.356C114.792 47.7 114.86 48.094 114.86 48.538C114.86 48.762 114.836 48.914 114.788 48.994C114.74 49.07 114.648 49.108 114.512 49.108H110.702ZM119.836 47.416C119.668 47.212 119.484 47.068 119.284 46.984C119.088 46.9 118.876 46.858 118.648 46.858C118.424 46.858 118.222 46.9 118.042 46.984C117.862 47.068 117.708 47.196 117.58 47.368C117.452 47.536 117.354 47.752 117.286 48.016C117.218 48.276 117.184 48.584 117.184 48.94C117.184 49.3 117.212 49.606 117.268 49.858C117.328 50.106 117.412 50.31 117.52 50.47C117.628 50.626 117.76 50.74 117.916 50.812C118.072 50.88 118.246 50.914 118.438 50.914C118.746 50.914 119.008 50.85 119.224 50.722C119.44 50.594 119.644 50.412 119.836 50.176V47.416ZM121.318 43.084V52H120.412C120.216 52 120.092 51.91 120.04 51.73L119.914 51.136C119.666 51.42 119.38 51.65 119.056 51.826C118.736 52.002 118.362 52.09 117.934 52.09C117.598 52.09 117.29 52.02 117.01 51.88C116.73 51.74 116.488 51.538 116.284 51.274C116.084 51.006 115.928 50.676 115.816 50.284C115.708 49.892 115.654 49.444 115.654 48.94C115.654 48.484 115.716 48.06 115.84 47.668C115.964 47.276 116.142 46.936 116.374 46.648C116.606 46.36 116.884 46.136 117.208 45.976C117.532 45.812 117.896 45.73 118.3 45.73C118.644 45.73 118.938 45.784 119.182 45.892C119.426 46 119.644 46.146 119.836 46.33V43.084H121.318ZM63.6505 67.452C63.9545 67.452 64.2185 67.414 64.4425 67.338C64.6705 67.262 64.8565 67.158 65.0005 67.026C65.1485 66.89 65.2585 66.73 65.3305 66.546C65.4025 66.362 65.4385 66.16 65.4385 65.94C65.4385 65.5 65.2925 65.162 65.0005 64.926C64.7125 64.69 64.2705 64.572 63.6745 64.572H62.6425V67.452H63.6505ZM67.8025 72H66.3445C66.0685 72 65.8685 71.892 65.7445 71.676L63.9205 68.898C63.8525 68.794 63.7765 68.72 63.6925 68.676C63.6125 68.632 63.4925 68.61 63.3325 68.61H62.6425V72H61.0285V63.324H63.6745C64.2625 63.324 64.7665 63.386 65.1865 63.51C65.6105 63.63 65.9565 63.8 66.2245 64.02C66.4965 64.24 66.6965 64.504 66.8245 64.812C66.9525 65.116 67.0165 65.452 67.0165 65.82C67.0165 66.112 66.9725 66.388 66.8845 66.648C66.8005 66.908 66.6765 67.144 66.5125 67.356C66.3525 67.568 66.1525 67.754 65.9125 67.914C65.6765 68.074 65.4065 68.2 65.1025 68.292C65.2065 68.352 65.3025 68.424 65.3905 68.508C65.4785 68.588 65.5585 68.684 65.6305 68.796L67.8025 72ZM72.073 68.214C72.073 68.022 72.045 67.842 71.989 67.674C71.937 67.502 71.857 67.352 71.749 67.224C71.641 67.096 71.503 66.996 71.335 66.924C71.171 66.848 70.979 66.81 70.759 66.81C70.331 66.81 69.993 66.932 69.745 67.176C69.501 67.42 69.345 67.766 69.277 68.214H72.073ZM69.247 69.108C69.271 69.424 69.327 69.698 69.415 69.93C69.503 70.158 69.619 70.348 69.763 70.5C69.907 70.648 70.077 70.76 70.273 70.836C70.473 70.908 70.693 70.944 70.933 70.944C71.173 70.944 71.379 70.916 71.551 70.86C71.727 70.804 71.879 70.742 72.007 70.674C72.139 70.606 72.253 70.544 72.349 70.488C72.449 70.432 72.545 70.404 72.637 70.404C72.761 70.404 72.853 70.45 72.913 70.542L73.339 71.082C73.175 71.274 72.991 71.436 72.787 71.568C72.583 71.696 72.369 71.8 72.145 71.88C71.925 71.956 71.699 72.01 71.467 72.042C71.239 72.074 71.017 72.09 70.801 72.09C70.373 72.09 69.975 72.02 69.607 71.88C69.239 71.736 68.919 71.526 68.647 71.25C68.375 70.97 68.161 70.626 68.005 70.218C67.849 69.806 67.771 69.33 67.771 68.79C67.771 68.37 67.839 67.976 67.975 67.608C68.111 67.236 68.305 66.914 68.557 66.642C68.813 66.366 69.123 66.148 69.487 65.988C69.855 65.828 70.269 65.748 70.729 65.748C71.117 65.748 71.475 65.81 71.803 65.934C72.131 66.058 72.413 66.24 72.649 66.48C72.885 66.716 73.069 67.008 73.201 67.356C73.337 67.7 73.405 68.094 73.405 68.538C73.405 68.762 73.381 68.914 73.333 68.994C73.285 69.07 73.193 69.108 73.057 69.108H69.247ZM77.7692 69.372C77.3412 69.392 76.9812 69.43 76.6892 69.486C76.3972 69.538 76.1632 69.606 75.9872 69.69C75.8112 69.774 75.6852 69.872 75.6092 69.984C75.5332 70.096 75.4952 70.218 75.4952 70.35C75.4952 70.61 75.5712 70.796 75.7232 70.908C75.8792 71.02 76.0812 71.076 76.3292 71.076C76.6332 71.076 76.8952 71.022 77.1152 70.914C77.3392 70.802 77.5572 70.634 77.7692 70.41V69.372ZM74.3732 66.702C75.0812 66.054 75.9332 65.73 76.9292 65.73C77.2892 65.73 77.6112 65.79 77.8952 65.91C78.1792 66.026 78.4192 66.19 78.6152 66.402C78.8112 66.61 78.9592 66.86 79.0592 67.152C79.1632 67.444 79.2152 67.764 79.2152 68.112V72H78.5432C78.4032 72 78.2952 71.98 78.2192 71.94C78.1432 71.896 78.0832 71.81 78.0392 71.682L77.9072 71.238C77.7512 71.378 77.5992 71.502 77.4512 71.61C77.3032 71.714 77.1492 71.802 76.9892 71.874C76.8292 71.946 76.6572 72 76.4732 72.036C76.2932 72.076 76.0932 72.096 75.8732 72.096C75.6132 72.096 75.3732 72.062 75.1532 71.994C74.9332 71.922 74.7432 71.816 74.5832 71.676C74.4232 71.536 74.2992 71.362 74.2112 71.154C74.1232 70.946 74.0792 70.704 74.0792 70.428C74.0792 70.272 74.1052 70.118 74.1572 69.966C74.2092 69.81 74.2932 69.662 74.4092 69.522C74.5292 69.382 74.6832 69.25 74.8712 69.126C75.0592 69.002 75.2892 68.894 75.5612 68.802C75.8372 68.71 76.1572 68.636 76.5212 68.58C76.8852 68.52 77.3012 68.484 77.7692 68.472V68.112C77.7692 67.7 77.6812 67.396 77.5052 67.2C77.3292 67 77.0752 66.9 76.7432 66.9C76.5032 66.9 76.3032 66.928 76.1432 66.984C75.9872 67.04 75.8492 67.104 75.7292 67.176C75.6092 67.244 75.4992 67.306 75.3992 67.362C75.3032 67.418 75.1952 67.446 75.0752 67.446C74.9712 67.446 74.8832 67.42 74.8112 67.368C74.7392 67.312 74.6812 67.248 74.6372 67.176L74.3732 66.702ZM82.1109 63.084V72H80.6289V63.084H82.1109ZM85.1235 65.844V72H83.6355V65.844H85.1235ZM85.3275 64.05C85.3275 64.178 85.3015 64.298 85.2495 64.41C85.1975 64.522 85.1275 64.62 85.0395 64.704C84.9555 64.788 84.8555 64.856 84.7395 64.908C84.6235 64.956 84.4995 64.98 84.3675 64.98C84.2395 64.98 84.1175 64.956 84.0015 64.908C83.8895 64.856 83.7915 64.788 83.7075 64.704C83.6235 64.62 83.5555 64.522 83.5035 64.41C83.4555 64.298 83.4315 64.178 83.4315 64.05C83.4315 63.918 83.4555 63.794 83.5035 63.678C83.5555 63.562 83.6235 63.462 83.7075 63.378C83.7915 63.294 83.8895 63.228 84.0015 63.18C84.1175 63.128 84.2395 63.102 84.3675 63.102C84.4995 63.102 84.6235 63.128 84.7395 63.18C84.8555 63.228 84.9555 63.294 85.0395 63.378C85.1275 63.462 85.1975 63.562 85.2495 63.678C85.3015 63.794 85.3275 63.918 85.3275 64.05ZM88.6863 72.096C88.1503 72.096 87.7383 71.946 87.4503 71.646C87.1663 71.342 87.0243 70.924 87.0243 70.392V66.954H86.3943C86.3143 66.954 86.2463 66.928 86.1903 66.876C86.1343 66.824 86.1063 66.746 86.1063 66.642V66.054L87.0963 65.892L87.4083 64.212C87.4283 64.132 87.4663 64.07 87.5223 64.026C87.5783 63.982 87.6503 63.96 87.7383 63.96H88.5063V65.898H90.1503V66.954H88.5063V70.29C88.5063 70.482 88.5523 70.632 88.6443 70.74C88.7403 70.848 88.8703 70.902 89.0343 70.902C89.1263 70.902 89.2023 70.892 89.2623 70.872C89.3263 70.848 89.3803 70.824 89.4243 70.8C89.4723 70.776 89.5143 70.754 89.5503 70.734C89.5863 70.71 89.6223 70.698 89.6583 70.698C89.7023 70.698 89.7383 70.71 89.7663 70.734C89.7943 70.754 89.8243 70.786 89.8563 70.83L90.3003 71.55C90.0843 71.73 89.8363 71.866 89.5563 71.958C89.2763 72.05 88.9863 72.096 88.6863 72.096ZM96.6912 65.844L93.3372 73.692C93.2932 73.796 93.2352 73.874 93.1632 73.926C93.0952 73.982 92.9892 74.01 92.8452 74.01H91.7412L92.8932 71.538L90.4032 65.844H91.7052C91.8212 65.844 91.9112 65.872 91.9752 65.928C92.0432 65.984 92.0932 66.048 92.1252 66.12L93.4332 69.312C93.4772 69.42 93.5132 69.528 93.5412 69.636C93.5732 69.744 93.6032 69.854 93.6312 69.966C93.6672 69.854 93.7032 69.744 93.7392 69.636C93.7752 69.524 93.8152 69.414 93.8592 69.306L95.0952 66.12C95.1272 66.04 95.1792 65.974 95.2512 65.922C95.3272 65.87 95.4112 65.844 95.5032 65.844H96.6912ZM101.031 68.238C101.031 69.062 101.131 69.872 101.331 70.668C101.531 71.464 101.817 72.212 102.189 72.912C102.229 72.992 102.251 73.062 102.255 73.122C102.263 73.186 102.259 73.24 102.243 73.284C102.227 73.332 102.201 73.372 102.165 73.404C102.133 73.44 102.097 73.47 102.057 73.494L101.397 73.896C101.101 73.44 100.849 72.982 100.641 72.522C100.433 72.062 100.263 71.598 100.131 71.13C99.9986 70.662 99.9006 70.188 99.8366 69.708C99.7766 69.228 99.7466 68.738 99.7466 68.238C99.7466 67.738 99.7766 67.248 99.8366 66.768C99.9006 66.284 99.9986 65.808 100.131 65.34C100.263 64.872 100.433 64.41 100.641 63.954C100.849 63.494 101.101 63.036 101.397 62.58L102.057 62.976C102.097 63 102.133 63.03 102.165 63.066C102.201 63.098 102.227 63.138 102.243 63.186C102.259 63.23 102.263 63.284 102.255 63.348C102.251 63.408 102.229 63.48 102.189 63.564C101.817 64.26 101.531 65.008 101.331 65.808C101.131 66.604 101.031 67.414 101.031 68.238ZM108.152 68.724L107.096 65.838C107.044 65.71 106.99 65.558 106.934 65.382C106.878 65.206 106.822 65.016 106.766 64.812C106.714 65.016 106.66 65.208 106.604 65.388C106.548 65.564 106.494 65.718 106.442 65.85L105.392 68.724H108.152ZM111.002 72H109.754C109.614 72 109.5 71.966 109.412 71.898C109.324 71.826 109.258 71.738 109.214 71.634L108.566 69.864H104.972L104.324 71.634C104.292 71.726 104.23 71.81 104.138 71.886C104.046 71.962 103.932 72 103.796 72H102.536L105.95 63.324H107.594L111.002 72ZM114.522 67.452C114.826 67.452 115.09 67.414 115.314 67.338C115.542 67.262 115.728 67.158 115.872 67.026C116.02 66.89 116.13 66.73 116.202 66.546C116.274 66.362 116.31 66.16 116.31 65.94C116.31 65.5 116.164 65.162 115.872 64.926C115.584 64.69 115.142 64.572 114.546 64.572H113.514V67.452H114.522ZM118.674 72H117.216C116.94 72 116.74 71.892 116.616 71.676L114.792 68.898C114.724 68.794 114.648 68.72 114.564 68.676C114.484 68.632 114.364 68.61 114.204 68.61H113.514V72H111.9V63.324H114.546C115.134 63.324 115.638 63.386 116.058 63.51C116.482 63.63 116.828 63.8 117.096 64.02C117.368 64.24 117.568 64.504 117.696 64.812C117.824 65.116 117.888 65.452 117.888 65.82C117.888 66.112 117.844 66.388 117.756 66.648C117.672 66.908 117.548 67.144 117.384 67.356C117.224 67.568 117.024 67.754 116.784 67.914C116.548 68.074 116.278 68.2 115.974 68.292C116.078 68.352 116.174 68.424 116.262 68.508C116.35 68.588 116.43 68.684 116.502 68.796L118.674 72ZM120.211 68.238C120.211 67.414 120.111 66.604 119.911 65.808C119.715 65.008 119.431 64.26 119.059 63.564C119.015 63.48 118.989 63.408 118.981 63.348C118.977 63.284 118.983 63.23 118.999 63.186C119.015 63.138 119.039 63.098 119.071 63.066C119.107 63.03 119.147 63 119.191 62.976L119.851 62.58C120.147 63.036 120.399 63.494 120.607 63.954C120.815 64.41 120.985 64.872 121.117 65.34C121.249 65.808 121.345 66.284 121.405 66.768C121.465 67.248 121.495 67.738 121.495 68.238C121.495 68.738 121.465 69.228 121.405 69.708C121.345 70.188 121.249 70.662 121.117 71.13C120.985 71.598 120.815 72.062 120.607 72.522C120.399 72.982 120.147 73.44 119.851 73.896L119.191 73.494C119.147 73.47 119.107 73.44 119.071 73.404C119.039 73.372 119.015 73.332 118.999 73.284C118.983 73.24 118.977 73.186 118.981 73.122C118.989 73.062 119.015 72.992 119.059 72.912C119.431 72.212 119.715 71.464 119.911 70.668C120.111 69.872 120.211 69.062 120.211 68.238Z" fill="black"/>
<path d="M193.363 68.324L189.859 77H188.401L184.897 68.324H186.193C186.333 68.324 186.447 68.358 186.535 68.426C186.623 68.494 186.689 68.582 186.733 68.69L188.779 73.982C188.847 74.154 188.911 74.344 188.971 74.552C189.035 74.756 189.095 74.97 189.151 75.194C189.199 74.97 189.251 74.756 189.307 74.552C189.363 74.344 189.425 74.154 189.493 73.982L191.527 68.69C191.559 68.598 191.621 68.514 191.713 68.438C191.809 68.362 191.925 68.324 192.061 68.324H193.363ZM195.563 70.844V77H194.075V70.844H195.563ZM195.767 69.05C195.767 69.178 195.741 69.298 195.689 69.41C195.637 69.522 195.567 69.62 195.479 69.704C195.395 69.788 195.295 69.856 195.179 69.908C195.063 69.956 194.939 69.98 194.807 69.98C194.679 69.98 194.557 69.956 194.441 69.908C194.329 69.856 194.231 69.788 194.147 69.704C194.063 69.62 193.995 69.522 193.943 69.41C193.895 69.298 193.871 69.178 193.871 69.05C193.871 68.918 193.895 68.794 193.943 68.678C193.995 68.562 194.063 68.462 194.147 68.378C194.231 68.294 194.329 68.228 194.441 68.18C194.557 68.128 194.679 68.102 194.807 68.102C194.939 68.102 195.063 68.128 195.179 68.18C195.295 68.228 195.395 68.294 195.479 68.378C195.567 68.462 195.637 68.562 195.689 68.678C195.741 68.794 195.767 68.918 195.767 69.05ZM198.472 71.912C198.664 71.544 198.892 71.256 199.156 71.048C199.42 70.836 199.732 70.73 200.092 70.73C200.376 70.73 200.604 70.792 200.776 70.916L200.68 72.026C200.66 72.098 200.63 72.15 200.59 72.182C200.554 72.21 200.504 72.224 200.44 72.224C200.38 72.224 200.29 72.214 200.17 72.194C200.054 72.174 199.94 72.164 199.828 72.164C199.664 72.164 199.518 72.188 199.39 72.236C199.262 72.284 199.146 72.354 199.042 72.446C198.942 72.534 198.852 72.642 198.772 72.77C198.696 72.898 198.624 73.044 198.556 73.208V77H197.074V70.844H197.944C198.096 70.844 198.202 70.872 198.262 70.928C198.322 70.98 198.362 71.076 198.382 71.216L198.472 71.912ZM203.602 77.096C203.066 77.096 202.654 76.946 202.366 76.646C202.082 76.342 201.94 75.924 201.94 75.392V71.954H201.31C201.23 71.954 201.162 71.928 201.106 71.876C201.05 71.824 201.022 71.746 201.022 71.642V71.054L202.012 70.892L202.324 69.212C202.344 69.132 202.382 69.07 202.438 69.026C202.494 68.982 202.566 68.96 202.654 68.96H203.422V70.898H205.066V71.954H203.422V75.29C203.422 75.482 203.468 75.632 203.56 75.74C203.656 75.848 203.786 75.902 203.95 75.902C204.042 75.902 204.118 75.892 204.178 75.872C204.242 75.848 204.296 75.824 204.34 75.8C204.388 75.776 204.43 75.754 204.466 75.734C204.502 75.71 204.538 75.698 204.574 75.698C204.618 75.698 204.654 75.71 204.682 75.734C204.71 75.754 204.74 75.786 204.772 75.83L205.216 76.55C205 76.73 204.752 76.866 204.472 76.958C204.192 77.05 203.902 77.096 203.602 77.096ZM211.319 70.844V77H210.413C210.217 77 210.093 76.91 210.041 76.73L209.939 76.238C209.687 76.494 209.409 76.702 209.105 76.862C208.801 77.018 208.443 77.096 208.031 77.096C207.695 77.096 207.397 77.04 207.137 76.928C206.881 76.812 206.665 76.65 206.489 76.442C206.313 76.234 206.179 75.988 206.087 75.704C205.999 75.416 205.955 75.1 205.955 74.756V70.844H207.437V74.756C207.437 75.132 207.523 75.424 207.695 75.632C207.871 75.836 208.133 75.938 208.481 75.938C208.737 75.938 208.977 75.882 209.201 75.77C209.425 75.654 209.637 75.496 209.837 75.296V70.844H211.319ZM216.041 74.372C215.613 74.392 215.253 74.43 214.961 74.486C214.669 74.538 214.435 74.606 214.259 74.69C214.083 74.774 213.957 74.872 213.881 74.984C213.805 75.096 213.767 75.218 213.767 75.35C213.767 75.61 213.843 75.796 213.995 75.908C214.151 76.02 214.353 76.076 214.601 76.076C214.905 76.076 215.167 76.022 215.387 75.914C215.611 75.802 215.829 75.634 216.041 75.41V74.372ZM212.645 71.702C213.353 71.054 214.205 70.73 215.201 70.73C215.561 70.73 215.883 70.79 216.167 70.91C216.451 71.026 216.691 71.19 216.887 71.402C217.083 71.61 217.231 71.86 217.331 72.152C217.435 72.444 217.487 72.764 217.487 73.112V77H216.815C216.675 77 216.567 76.98 216.491 76.94C216.415 76.896 216.355 76.81 216.311 76.682L216.179 76.238C216.023 76.378 215.871 76.502 215.723 76.61C215.575 76.714 215.421 76.802 215.261 76.874C215.101 76.946 214.929 77 214.745 77.036C214.565 77.076 214.365 77.096 214.145 77.096C213.885 77.096 213.645 77.062 213.425 76.994C213.205 76.922 213.015 76.816 212.855 76.676C212.695 76.536 212.571 76.362 212.483 76.154C212.395 75.946 212.351 75.704 212.351 75.428C212.351 75.272 212.377 75.118 212.429 74.966C212.481 74.81 212.565 74.662 212.681 74.522C212.801 74.382 212.955 74.25 213.143 74.126C213.331 74.002 213.561 73.894 213.833 73.802C214.109 73.71 214.429 73.636 214.793 73.58C215.157 73.52 215.573 73.484 216.041 73.472V73.112C216.041 72.7 215.953 72.396 215.777 72.2C215.601 72 215.347 71.9 215.015 71.9C214.775 71.9 214.575 71.928 214.415 71.984C214.259 72.04 214.121 72.104 214.001 72.176C213.881 72.244 213.771 72.306 213.671 72.362C213.575 72.418 213.467 72.446 213.347 72.446C213.243 72.446 213.155 72.42 213.083 72.368C213.011 72.312 212.953 72.248 212.909 72.176L212.645 71.702ZM220.382 68.084V77H218.9V68.084H220.382ZM227.633 72.452C227.937 72.452 228.201 72.414 228.425 72.338C228.653 72.262 228.839 72.158 228.983 72.026C229.131 71.89 229.241 71.73 229.313 71.546C229.385 71.362 229.421 71.16 229.421 70.94C229.421 70.5 229.275 70.162 228.983 69.926C228.695 69.69 228.253 69.572 227.657 69.572H226.625V72.452H227.633ZM231.785 77H230.327C230.051 77 229.851 76.892 229.727 76.676L227.903 73.898C227.835 73.794 227.759 73.72 227.675 73.676C227.595 73.632 227.475 73.61 227.315 73.61H226.625V77H225.011V68.324H227.657C228.245 68.324 228.749 68.386 229.169 68.51C229.593 68.63 229.939 68.8 230.207 69.02C230.479 69.24 230.679 69.504 230.807 69.812C230.935 70.116 230.999 70.452 230.999 70.82C230.999 71.112 230.955 71.388 230.867 71.648C230.783 71.908 230.659 72.144 230.495 72.356C230.335 72.568 230.135 72.754 229.895 72.914C229.659 73.074 229.389 73.2 229.085 73.292C229.189 73.352 229.285 73.424 229.373 73.508C229.461 73.588 229.541 73.684 229.613 73.796L231.785 77ZM236.055 73.214C236.055 73.022 236.027 72.842 235.971 72.674C235.919 72.502 235.839 72.352 235.731 72.224C235.623 72.096 235.485 71.996 235.317 71.924C235.153 71.848 234.961 71.81 234.741 71.81C234.313 71.81 233.975 71.932 233.727 72.176C233.483 72.42 233.327 72.766 233.259 73.214H236.055ZM233.229 74.108C233.253 74.424 233.309 74.698 233.397 74.93C233.485 75.158 233.601 75.348 233.745 75.5C233.889 75.648 234.059 75.76 234.255 75.836C234.455 75.908 234.675 75.944 234.915 75.944C235.155 75.944 235.361 75.916 235.533 75.86C235.709 75.804 235.861 75.742 235.989 75.674C236.121 75.606 236.235 75.544 236.331 75.488C236.431 75.432 236.527 75.404 236.619 75.404C236.743 75.404 236.835 75.45 236.895 75.542L237.321 76.082C237.157 76.274 236.973 76.436 236.769 76.568C236.565 76.696 236.351 76.8 236.127 76.88C235.907 76.956 235.681 77.01 235.449 77.042C235.221 77.074 234.999 77.09 234.783 77.09C234.355 77.09 233.957 77.02 233.589 76.88C233.221 76.736 232.901 76.526 232.629 76.25C232.357 75.97 232.143 75.626 231.987 75.218C231.831 74.806 231.753 74.33 231.753 73.79C231.753 73.37 231.821 72.976 231.957 72.608C232.093 72.236 232.287 71.914 232.539 71.642C232.795 71.366 233.105 71.148 233.469 70.988C233.837 70.828 234.251 70.748 234.711 70.748C235.099 70.748 235.457 70.81 235.785 70.934C236.113 71.058 236.395 71.24 236.631 71.48C236.867 71.716 237.051 72.008 237.183 72.356C237.319 72.7 237.387 73.094 237.387 73.538C237.387 73.762 237.363 73.914 237.315 73.994C237.267 74.07 237.175 74.108 237.039 74.108H233.229ZM241.752 74.372C241.324 74.392 240.964 74.43 240.672 74.486C240.38 74.538 240.146 74.606 239.97 74.69C239.794 74.774 239.668 74.872 239.592 74.984C239.516 75.096 239.478 75.218 239.478 75.35C239.478 75.61 239.554 75.796 239.706 75.908C239.862 76.02 240.064 76.076 240.312 76.076C240.616 76.076 240.878 76.022 241.098 75.914C241.322 75.802 241.54 75.634 241.752 75.41V74.372ZM238.356 71.702C239.064 71.054 239.916 70.73 240.912 70.73C241.272 70.73 241.594 70.79 241.878 70.91C242.162 71.026 242.402 71.19 242.598 71.402C242.794 71.61 242.942 71.86 243.042 72.152C243.146 72.444 243.198 72.764 243.198 73.112V77H242.526C242.386 77 242.278 76.98 242.202 76.94C242.126 76.896 242.066 76.81 242.022 76.682L241.89 76.238C241.734 76.378 241.582 76.502 241.434 76.61C241.286 76.714 241.132 76.802 240.972 76.874C240.812 76.946 240.64 77 240.456 77.036C240.276 77.076 240.076 77.096 239.856 77.096C239.596 77.096 239.356 77.062 239.136 76.994C238.916 76.922 238.726 76.816 238.566 76.676C238.406 76.536 238.282 76.362 238.194 76.154C238.106 75.946 238.062 75.704 238.062 75.428C238.062 75.272 238.088 75.118 238.14 74.966C238.192 74.81 238.276 74.662 238.392 74.522C238.512 74.382 238.666 74.25 238.854 74.126C239.042 74.002 239.272 73.894 239.544 73.802C239.82 73.71 240.14 73.636 240.504 73.58C240.868 73.52 241.284 73.484 241.752 73.472V73.112C241.752 72.7 241.664 72.396 241.488 72.2C241.312 72 241.058 71.9 240.726 71.9C240.486 71.9 240.286 71.928 240.126 71.984C239.97 72.04 239.832 72.104 239.712 72.176C239.592 72.244 239.482 72.306 239.382 72.362C239.286 72.418 239.178 72.446 239.058 72.446C238.954 72.446 238.866 72.42 238.794 72.368C238.722 72.312 238.664 72.248 238.62 72.176L238.356 71.702ZM246.093 68.084V77H244.611V68.084H246.093ZM249.106 70.844V77H247.618V70.844H249.106ZM249.31 69.05C249.31 69.178 249.284 69.298 249.232 69.41C249.18 69.522 249.11 69.62 249.022 69.704C248.938 69.788 248.838 69.856 248.722 69.908C248.606 69.956 248.482 69.98 248.35 69.98C248.222 69.98 248.1 69.956 247.984 69.908C247.872 69.856 247.774 69.788 247.69 69.704C247.606 69.62 247.538 69.522 247.486 69.41C247.438 69.298 247.414 69.178 247.414 69.05C247.414 68.918 247.438 68.794 247.486 68.678C247.538 68.562 247.606 68.462 247.69 68.378C247.774 68.294 247.872 68.228 247.984 68.18C248.1 68.128 248.222 68.102 248.35 68.102C248.482 68.102 248.606 68.128 248.722 68.18C248.838 68.228 248.938 68.294 249.022 68.378C249.11 68.462 249.18 68.562 249.232 68.678C249.284 68.794 249.31 68.918 249.31 69.05ZM252.669 77.096C252.133 77.096 251.721 76.946 251.433 76.646C251.149 76.342 251.007 75.924 251.007 75.392V71.954H250.377C250.297 71.954 250.229 71.928 250.173 71.876C250.117 71.824 250.089 71.746 250.089 71.642V71.054L251.079 70.892L251.391 69.212C251.411 69.132 251.449 69.07 251.505 69.026C251.561 68.982 251.633 68.96 251.721 68.96H252.489V70.898H254.133V71.954H252.489V75.29C252.489 75.482 252.535 75.632 252.627 75.74C252.723 75.848 252.853 75.902 253.017 75.902C253.109 75.902 253.185 75.892 253.245 75.872C253.309 75.848 253.363 75.824 253.407 75.8C253.455 75.776 253.497 75.754 253.533 75.734C253.569 75.71 253.605 75.698 253.641 75.698C253.685 75.698 253.721 75.71 253.749 75.734C253.777 75.754 253.807 75.786 253.839 75.83L254.283 76.55C254.067 76.73 253.819 76.866 253.539 76.958C253.259 77.05 252.969 77.096 252.669 77.096ZM260.674 70.844L257.32 78.692C257.276 78.796 257.218 78.874 257.146 78.926C257.078 78.982 256.972 79.01 256.828 79.01H255.724L256.876 76.538L254.386 70.844H255.688C255.804 70.844 255.894 70.872 255.958 70.928C256.026 70.984 256.076 71.048 256.108 71.12L257.416 74.312C257.46 74.42 257.496 74.528 257.524 74.636C257.556 74.744 257.586 74.854 257.614 74.966C257.65 74.854 257.686 74.744 257.722 74.636C257.758 74.524 257.798 74.414 257.842 74.306L259.078 71.12C259.11 71.04 259.162 70.974 259.234 70.922C259.31 70.87 259.394 70.844 259.486 70.844H260.674ZM265.013 73.238C265.013 74.062 265.113 74.872 265.313 75.668C265.513 76.464 265.799 77.212 266.171 77.912C266.211 77.992 266.233 78.062 266.237 78.122C266.245 78.186 266.241 78.24 266.225 78.284C266.209 78.332 266.183 78.372 266.147 78.404C266.115 78.44 266.079 78.47 266.039 78.494L265.379 78.896C265.083 78.44 264.831 77.982 264.623 77.522C264.415 77.062 264.245 76.598 264.113 76.13C263.981 75.662 263.883 75.188 263.819 74.708C263.759 74.228 263.729 73.738 263.729 73.238C263.729 72.738 263.759 72.248 263.819 71.768C263.883 71.284 263.981 70.808 264.113 70.34C264.245 69.872 264.415 69.41 264.623 68.954C264.831 68.494 265.083 68.036 265.379 67.58L266.039 67.976C266.079 68 266.115 68.03 266.147 68.066C266.183 68.098 266.209 68.138 266.225 68.186C266.241 68.23 266.245 68.284 266.237 68.348C266.233 68.408 266.211 68.48 266.171 68.564C265.799 69.26 265.513 70.008 265.313 70.808C265.113 71.604 265.013 72.414 265.013 73.238ZM275.101 68.324L271.597 77H270.139L266.635 68.324H267.931C268.071 68.324 268.185 68.358 268.273 68.426C268.361 68.494 268.427 68.582 268.471 68.69L270.517 73.982C270.585 74.154 270.649 74.344 270.709 74.552C270.773 74.756 270.833 74.97 270.889 75.194C270.937 74.97 270.989 74.756 271.045 74.552C271.101 74.344 271.163 74.154 271.231 73.982L273.265 68.69C273.297 68.598 273.359 68.514 273.451 68.438C273.547 68.362 273.663 68.324 273.799 68.324H275.101ZM278.621 72.452C278.925 72.452 279.189 72.414 279.413 72.338C279.641 72.262 279.827 72.158 279.971 72.026C280.119 71.89 280.229 71.73 280.301 71.546C280.373 71.362 280.409 71.16 280.409 70.94C280.409 70.5 280.263 70.162 279.971 69.926C279.683 69.69 279.241 69.572 278.645 69.572H277.613V72.452H278.621ZM282.773 77H281.315C281.039 77 280.839 76.892 280.715 76.676L278.891 73.898C278.823 73.794 278.747 73.72 278.663 73.676C278.583 73.632 278.463 73.61 278.303 73.61H277.613V77H275.999V68.324H278.645C279.233 68.324 279.737 68.386 280.157 68.51C280.581 68.63 280.927 68.8 281.195 69.02C281.467 69.24 281.667 69.504 281.795 69.812C281.923 70.116 281.987 70.452 281.987 70.82C281.987 71.112 281.943 71.388 281.855 71.648C281.771 71.908 281.647 72.144 281.483 72.356C281.323 72.568 281.123 72.754 280.883 72.914C280.647 73.074 280.377 73.2 280.073 73.292C280.177 73.352 280.273 73.424 280.361 73.508C280.449 73.588 280.529 73.684 280.601 73.796L282.773 77ZM284.31 73.238C284.31 72.414 284.21 71.604 284.01 70.808C283.814 70.008 283.53 69.26 283.158 68.564C283.114 68.48 283.088 68.408 283.08 68.348C283.076 68.284 283.082 68.23 283.098 68.186C283.114 68.138 283.138 68.098 283.17 68.066C283.206 68.03 283.246 68 283.29 67.976L283.95 67.58C284.246 68.036 284.498 68.494 284.706 68.954C284.914 69.41 285.084 69.872 285.216 70.34C285.348 70.808 285.444 71.284 285.504 71.768C285.564 72.248 285.594 72.738 285.594 73.238C285.594 73.738 285.564 74.228 285.504 74.708C285.444 75.188 285.348 75.662 285.216 76.13C285.084 76.598 284.914 77.062 284.706 77.522C284.498 77.982 284.246 78.44 283.95 78.896L283.29 78.494C283.246 78.47 283.206 78.44 283.17 78.404C283.138 78.372 283.114 78.332 283.098 78.284C283.082 78.24 283.076 78.186 283.08 78.122C283.088 78.062 283.114 77.992 283.158 77.912C283.53 77.212 283.814 76.464 284.01 75.668C284.21 74.872 284.31 74.062 284.31 73.238Z" fill="black"/>
<path d="M349.714 63.324V72H348.292V66.396C348.292 66.172 348.304 65.93 348.328 65.67L345.706 70.596C345.582 70.832 345.392 70.95 345.136 70.95H344.908C344.652 70.95 344.462 70.832 344.338 70.596L341.686 65.652C341.698 65.784 341.708 65.914 341.716 66.042C341.724 66.17 341.728 66.288 341.728 66.396V72H340.306V63.324H341.524C341.596 63.324 341.658 63.326 341.71 63.33C341.762 63.334 341.808 63.344 341.848 63.36C341.892 63.376 341.93 63.402 341.962 63.438C341.998 63.474 342.032 63.522 342.064 63.582L344.662 68.4C344.73 68.528 344.792 68.66 344.848 68.796C344.908 68.932 344.966 69.072 345.022 69.216C345.078 69.068 345.136 68.926 345.196 68.79C345.256 68.65 345.32 68.516 345.388 68.388L347.95 63.582C347.982 63.522 348.016 63.474 348.052 63.438C348.088 63.402 348.126 63.376 348.166 63.36C348.21 63.344 348.258 63.334 348.31 63.33C348.362 63.326 348.424 63.324 348.496 63.324H349.714ZM352.87 65.844V72H351.382V65.844H352.87ZM353.074 64.05C353.074 64.178 353.048 64.298 352.996 64.41C352.944 64.522 352.874 64.62 352.786 64.704C352.702 64.788 352.602 64.856 352.486 64.908C352.37 64.956 352.246 64.98 352.114 64.98C351.986 64.98 351.864 64.956 351.748 64.908C351.636 64.856 351.538 64.788 351.454 64.704C351.37 64.62 351.302 64.522 351.25 64.41C351.202 64.298 351.178 64.178 351.178 64.05C351.178 63.918 351.202 63.794 351.25 63.678C351.302 63.562 351.37 63.462 351.454 63.378C351.538 63.294 351.636 63.228 351.748 63.18C351.864 63.128 351.986 63.102 352.114 63.102C352.246 63.102 352.37 63.128 352.486 63.18C352.602 63.228 352.702 63.294 352.786 63.378C352.874 63.462 352.944 63.562 352.996 63.678C353.048 63.794 353.074 63.918 353.074 64.05ZM359.876 72H358.448C358.34 72 358.252 71.972 358.184 71.916C358.12 71.86 358.066 71.796 358.022 71.724L356.72 69.582C356.7 69.65 356.676 69.714 356.648 69.774C356.624 69.834 356.596 69.89 356.564 69.942L355.412 71.724C355.368 71.792 355.314 71.856 355.25 71.916C355.186 71.972 355.106 72 355.01 72H353.684L355.796 68.826L353.768 65.844H355.196C355.304 65.844 355.384 65.86 355.436 65.892C355.488 65.92 355.534 65.968 355.574 66.036L356.864 68.088C356.908 67.952 356.97 67.818 357.05 67.686L358.088 66.066C358.176 65.918 358.29 65.844 358.43 65.844H359.792L357.77 68.76L359.876 72ZM364.335 68.214C364.335 68.022 364.307 67.842 364.251 67.674C364.199 67.502 364.119 67.352 364.011 67.224C363.903 67.096 363.765 66.996 363.597 66.924C363.433 66.848 363.241 66.81 363.021 66.81C362.593 66.81 362.255 66.932 362.007 67.176C361.763 67.42 361.607 67.766 361.539 68.214H364.335ZM361.509 69.108C361.533 69.424 361.589 69.698 361.677 69.93C361.765 70.158 361.881 70.348 362.025 70.5C362.169 70.648 362.339 70.76 362.535 70.836C362.735 70.908 362.955 70.944 363.195 70.944C363.435 70.944 363.641 70.916 363.813 70.86C363.989 70.804 364.141 70.742 364.269 70.674C364.401 70.606 364.515 70.544 364.611 70.488C364.711 70.432 364.807 70.404 364.899 70.404C365.023 70.404 365.115 70.45 365.175 70.542L365.601 71.082C365.437 71.274 365.253 71.436 365.049 71.568C364.845 71.696 364.631 71.8 364.407 71.88C364.187 71.956 363.961 72.01 363.729 72.042C363.501 72.074 363.279 72.09 363.063 72.09C362.635 72.09 362.237 72.02 361.869 71.88C361.501 71.736 361.181 71.526 360.909 71.25C360.637 70.97 360.423 70.626 360.267 70.218C360.111 69.806 360.033 69.33 360.033 68.79C360.033 68.37 360.101 67.976 360.237 67.608C360.373 67.236 360.567 66.914 360.819 66.642C361.075 66.366 361.385 66.148 361.749 65.988C362.117 65.828 362.531 65.748 362.991 65.748C363.379 65.748 363.737 65.81 364.065 65.934C364.393 66.058 364.675 66.24 364.911 66.48C365.147 66.716 365.331 67.008 365.463 67.356C365.599 67.7 365.667 68.094 365.667 68.538C365.667 68.762 365.643 68.914 365.595 68.994C365.547 69.07 365.455 69.108 365.319 69.108H361.509ZM370.643 67.416C370.475 67.212 370.291 67.068 370.091 66.984C369.895 66.9 369.683 66.858 369.455 66.858C369.231 66.858 369.029 66.9 368.849 66.984C368.669 67.068 368.515 67.196 368.387 67.368C368.259 67.536 368.161 67.752 368.093 68.016C368.025 68.276 367.991 68.584 367.991 68.94C367.991 69.3 368.019 69.606 368.075 69.858C368.135 70.106 368.219 70.31 368.327 70.47C368.435 70.626 368.567 70.74 368.723 70.812C368.879 70.88 369.053 70.914 369.245 70.914C369.553 70.914 369.815 70.85 370.031 70.722C370.247 70.594 370.451 70.412 370.643 70.176V67.416ZM372.125 63.084V72H371.219C371.023 72 370.899 71.91 370.847 71.73L370.721 71.136C370.473 71.42 370.187 71.65 369.863 71.826C369.543 72.002 369.169 72.09 368.741 72.09C368.405 72.09 368.097 72.02 367.817 71.88C367.537 71.74 367.295 71.538 367.091 71.274C366.891 71.006 366.735 70.676 366.623 70.284C366.515 69.892 366.461 69.444 366.461 68.94C366.461 68.484 366.523 68.06 366.647 67.668C366.771 67.276 366.949 66.936 367.181 66.648C367.413 66.36 367.691 66.136 368.015 65.976C368.339 65.812 368.703 65.73 369.107 65.73C369.451 65.73 369.745 65.784 369.989 65.892C370.233 66 370.451 66.146 370.643 66.33V63.084H372.125ZM379.361 67.452C379.665 67.452 379.929 67.414 380.153 67.338C380.381 67.262 380.567 67.158 380.711 67.026C380.859 66.89 380.969 66.73 381.041 66.546C381.113 66.362 381.149 66.16 381.149 65.94C381.149 65.5 381.003 65.162 380.711 64.926C380.423 64.69 379.981 64.572 379.385 64.572H378.353V67.452H379.361ZM383.513 72H382.055C381.779 72 381.579 71.892 381.455 71.676L379.631 68.898C379.563 68.794 379.487 68.72 379.403 68.676C379.323 68.632 379.203 68.61 379.043 68.61H378.353V72H376.739V63.324H379.385C379.973 63.324 380.477 63.386 380.897 63.51C381.321 63.63 381.667 63.8 381.935 64.02C382.207 64.24 382.407 64.504 382.535 64.812C382.663 65.116 382.727 65.452 382.727 65.82C382.727 66.112 382.683 66.388 382.595 66.648C382.511 66.908 382.387 67.144 382.223 67.356C382.063 67.568 381.863 67.754 381.623 67.914C381.387 68.074 381.117 68.2 380.813 68.292C380.917 68.352 381.013 68.424 381.101 68.508C381.189 68.588 381.269 68.684 381.341 68.796L383.513 72ZM387.784 68.214C387.784 68.022 387.756 67.842 387.7 67.674C387.648 67.502 387.568 67.352 387.46 67.224C387.352 67.096 387.214 66.996 387.046 66.924C386.882 66.848 386.69 66.81 386.47 66.81C386.042 66.81 385.704 66.932 385.456 67.176C385.212 67.42 385.056 67.766 384.988 68.214H387.784ZM384.958 69.108C384.982 69.424 385.038 69.698 385.126 69.93C385.214 70.158 385.33 70.348 385.474 70.5C385.618 70.648 385.788 70.76 385.984 70.836C386.184 70.908 386.404 70.944 386.644 70.944C386.884 70.944 387.09 70.916 387.262 70.86C387.438 70.804 387.59 70.742 387.718 70.674C387.85 70.606 387.964 70.544 388.06 70.488C388.16 70.432 388.256 70.404 388.348 70.404C388.472 70.404 388.564 70.45 388.624 70.542L389.05 71.082C388.886 71.274 388.702 71.436 388.498 71.568C388.294 71.696 388.08 71.8 387.856 71.88C387.636 71.956 387.41 72.01 387.178 72.042C386.95 72.074 386.728 72.09 386.512 72.09C386.084 72.09 385.686 72.02 385.318 71.88C384.95 71.736 384.63 71.526 384.358 71.25C384.086 70.97 383.872 70.626 383.716 70.218C383.56 69.806 383.482 69.33 383.482 68.79C383.482 68.37 383.55 67.976 383.686 67.608C383.822 67.236 384.016 66.914 384.268 66.642C384.524 66.366 384.834 66.148 385.198 65.988C385.566 65.828 385.98 65.748 386.44 65.748C386.828 65.748 387.186 65.81 387.514 65.934C387.842 66.058 388.124 66.24 388.36 66.48C388.596 66.716 388.78 67.008 388.912 67.356C389.048 67.7 389.116 68.094 389.116 68.538C389.116 68.762 389.092 68.914 389.044 68.994C388.996 69.07 388.904 69.108 388.768 69.108H384.958ZM393.48 69.372C393.052 69.392 392.692 69.43 392.4 69.486C392.108 69.538 391.874 69.606 391.698 69.69C391.522 69.774 391.396 69.872 391.32 69.984C391.244 70.096 391.206 70.218 391.206 70.35C391.206 70.61 391.282 70.796 391.434 70.908C391.59 71.02 391.792 71.076 392.04 71.076C392.344 71.076 392.606 71.022 392.826 70.914C393.05 70.802 393.268 70.634 393.48 70.41V69.372ZM390.084 66.702C390.792 66.054 391.644 65.73 392.64 65.73C393 65.73 393.322 65.79 393.606 65.91C393.89 66.026 394.13 66.19 394.326 66.402C394.522 66.61 394.67 66.86 394.77 67.152C394.874 67.444 394.926 67.764 394.926 68.112V72H394.254C394.114 72 394.006 71.98 393.93 71.94C393.854 71.896 393.794 71.81 393.75 71.682L393.618 71.238C393.462 71.378 393.31 71.502 393.162 71.61C393.014 71.714 392.86 71.802 392.7 71.874C392.54 71.946 392.368 72 392.184 72.036C392.004 72.076 391.804 72.096 391.584 72.096C391.324 72.096 391.084 72.062 390.864 71.994C390.644 71.922 390.454 71.816 390.294 71.676C390.134 71.536 390.01 71.362 389.922 71.154C389.834 70.946 389.79 70.704 389.79 70.428C389.79 70.272 389.816 70.118 389.868 69.966C389.92 69.81 390.004 69.662 390.12 69.522C390.24 69.382 390.394 69.25 390.582 69.126C390.77 69.002 391 68.894 391.272 68.802C391.548 68.71 391.868 68.636 392.232 68.58C392.596 68.52 393.012 68.484 393.48 68.472V68.112C393.48 67.7 393.392 67.396 393.216 67.2C393.04 67 392.786 66.9 392.454 66.9C392.214 66.9 392.014 66.928 391.854 66.984C391.698 67.04 391.56 67.104 391.44 67.176C391.32 67.244 391.21 67.306 391.11 67.362C391.014 67.418 390.906 67.446 390.786 67.446C390.682 67.446 390.594 67.42 390.522 67.368C390.45 67.312 390.392 67.248 390.348 67.176L390.084 66.702ZM397.822 63.084V72H396.34V63.084H397.822ZM400.834 65.844V72H399.346V65.844H400.834ZM401.038 64.05C401.038 64.178 401.012 64.298 400.96 64.41C400.908 64.522 400.838 64.62 400.75 64.704C400.666 64.788 400.566 64.856 400.45 64.908C400.334 64.956 400.21 64.98 400.078 64.98C399.95 64.98 399.828 64.956 399.712 64.908C399.6 64.856 399.502 64.788 399.418 64.704C399.334 64.62 399.266 64.522 399.214 64.41C399.166 64.298 399.142 64.178 399.142 64.05C399.142 63.918 399.166 63.794 399.214 63.678C399.266 63.562 399.334 63.462 399.418 63.378C399.502 63.294 399.6 63.228 399.712 63.18C399.828 63.128 399.95 63.102 400.078 63.102C400.21 63.102 400.334 63.128 400.45 63.18C400.566 63.228 400.666 63.294 400.75 63.378C400.838 63.462 400.908 63.562 400.96 63.678C401.012 63.794 401.038 63.918 401.038 64.05ZM404.397 72.096C403.861 72.096 403.449 71.946 403.161 71.646C402.877 71.342 402.735 70.924 402.735 70.392V66.954H402.105C402.025 66.954 401.957 66.928 401.901 66.876C401.845 66.824 401.817 66.746 401.817 66.642V66.054L402.807 65.892L403.119 64.212C403.139 64.132 403.177 64.07 403.233 64.026C403.289 63.982 403.361 63.96 403.449 63.96H404.217V65.898H405.861V66.954H404.217V70.29C404.217 70.482 404.263 70.632 404.355 70.74C404.451 70.848 404.581 70.902 404.745 70.902C404.837 70.902 404.913 70.892 404.973 70.872C405.037 70.848 405.091 70.824 405.135 70.8C405.183 70.776 405.225 70.754 405.261 70.734C405.297 70.71 405.333 70.698 405.369 70.698C405.413 70.698 405.449 70.71 405.477 70.734C405.505 70.754 405.535 70.786 405.567 70.83L406.011 71.55C405.795 71.73 405.547 71.866 405.267 71.958C404.987 72.05 404.697 72.096 404.397 72.096ZM412.402 65.844L409.048 73.692C409.004 73.796 408.946 73.874 408.874 73.926C408.806 73.982 408.7 74.01 408.556 74.01H407.452L408.604 71.538L406.114 65.844H407.416C407.532 65.844 407.622 65.872 407.686 65.928C407.754 65.984 407.804 66.048 407.836 66.12L409.144 69.312C409.188 69.42 409.224 69.528 409.252 69.636C409.284 69.744 409.314 69.854 409.342 69.966C409.378 69.854 409.414 69.744 409.45 69.636C409.486 69.524 409.526 69.414 409.57 69.306L410.806 66.12C410.838 66.04 410.89 65.974 410.962 65.922C411.038 65.87 411.122 65.844 411.214 65.844H412.402ZM416.742 68.238C416.742 69.062 416.842 69.872 417.042 70.668C417.242 71.464 417.528 72.212 417.9 72.912C417.94 72.992 417.962 73.062 417.966 73.122C417.974 73.186 417.97 73.24 417.954 73.284C417.938 73.332 417.912 73.372 417.876 73.404C417.844 73.44 417.808 73.47 417.768 73.494L417.108 73.896C416.812 73.44 416.56 72.982 416.352 72.522C416.144 72.062 415.974 71.598 415.842 71.13C415.71 70.662 415.612 70.188 415.548 69.708C415.488 69.228 415.458 68.738 415.458 68.238C415.458 67.738 415.488 67.248 415.548 66.768C415.612 66.284 415.71 65.808 415.842 65.34C415.974 64.872 416.144 64.41 416.352 63.954C416.56 63.494 416.812 63.036 417.108 62.58L417.768 62.976C417.808 63 417.844 63.03 417.876 63.066C417.912 63.098 417.938 63.138 417.954 63.186C417.97 63.23 417.974 63.284 417.966 63.348C417.962 63.408 417.94 63.48 417.9 63.564C417.528 64.26 417.242 65.008 417.042 65.808C416.842 66.604 416.742 67.414 416.742 68.238ZM428.687 63.324V72H427.265V66.396C427.265 66.172 427.277 65.93 427.301 65.67L424.679 70.596C424.555 70.832 424.365 70.95 424.109 70.95H423.881C423.625 70.95 423.435 70.832 423.311 70.596L420.659 65.652C420.671 65.784 420.681 65.914 420.689 66.042C420.697 66.17 420.701 66.288 420.701 66.396V72H419.279V63.324H420.497C420.569 63.324 420.631 63.326 420.683 63.33C420.735 63.334 420.781 63.344 420.821 63.36C420.865 63.376 420.903 63.402 420.935 63.438C420.971 63.474 421.005 63.522 421.037 63.582L423.635 68.4C423.703 68.528 423.765 68.66 423.821 68.796C423.881 68.932 423.939 69.072 423.995 69.216C424.051 69.068 424.109 68.926 424.169 68.79C424.229 68.65 424.293 68.516 424.361 68.388L426.923 63.582C426.955 63.522 426.989 63.474 427.025 63.438C427.061 63.402 427.099 63.376 427.139 63.36C427.183 63.344 427.231 63.334 427.283 63.33C427.335 63.326 427.397 63.324 427.469 63.324H428.687ZM433.244 67.452C433.548 67.452 433.812 67.414 434.036 67.338C434.264 67.262 434.45 67.158 434.594 67.026C434.742 66.89 434.852 66.73 434.924 66.546C434.996 66.362 435.032 66.16 435.032 65.94C435.032 65.5 434.886 65.162 434.594 64.926C434.306 64.69 433.864 64.572 433.268 64.572H432.236V67.452H433.244ZM437.396 72H435.938C435.662 72 435.462 71.892 435.338 71.676L433.514 68.898C433.446 68.794 433.37 68.72 433.286 68.676C433.206 68.632 433.086 68.61 432.926 68.61H432.236V72H430.622V63.324H433.268C433.856 63.324 434.36 63.386 434.78 63.51C435.204 63.63 435.55 63.8 435.818 64.02C436.09 64.24 436.29 64.504 436.418 64.812C436.546 65.116 436.61 65.452 436.61 65.82C436.61 66.112 436.566 66.388 436.478 66.648C436.394 66.908 436.27 67.144 436.106 67.356C435.946 67.568 435.746 67.754 435.506 67.914C435.27 68.074 435 68.2 434.696 68.292C434.8 68.352 434.896 68.424 434.984 68.508C435.072 68.588 435.152 68.684 435.224 68.796L437.396 72ZM438.933 68.238C438.933 67.414 438.833 66.604 438.633 65.808C438.437 65.008 438.153 64.26 437.781 63.564C437.737 63.48 437.711 63.408 437.703 63.348C437.699 63.284 437.705 63.23 437.721 63.186C437.737 63.138 437.761 63.098 437.793 63.066C437.829 63.03 437.869 63 437.913 62.976L438.573 62.58C438.869 63.036 439.121 63.494 439.329 63.954C439.537 64.41 439.707 64.872 439.839 65.34C439.971 65.808 440.067 66.284 440.127 66.768C440.187 67.248 440.217 67.738 440.217 68.238C440.217 68.738 440.187 69.228 440.127 69.708C440.067 70.188 439.971 70.662 439.839 71.13C439.707 71.598 439.537 72.062 439.329 72.522C439.121 72.982 438.869 73.44 438.573 73.896L437.913 73.494C437.869 73.47 437.829 73.44 437.793 73.404C437.761 73.372 437.737 73.332 437.721 73.284C437.705 73.24 437.699 73.186 437.703 73.122C437.711 73.062 437.737 72.992 437.781 72.912C438.153 72.212 438.437 71.464 438.633 70.668C438.833 69.872 438.933 69.062 438.933 68.238Z" fill="black"/>
<path d="M170.716 12.68V16.69H175.776V18.76H170.716V22.85H177.136V25H168.016V10.54H177.136V12.68H170.716ZM188.29 25H185.91C185.73 25 185.583 24.9533 185.47 24.86C185.363 24.7667 185.273 24.66 185.2 24.54L183.03 20.97C182.997 21.0833 182.957 21.19 182.91 21.29C182.87 21.39 182.823 21.4833 182.77 21.57L180.85 24.54C180.777 24.6533 180.687 24.76 180.58 24.86C180.473 24.9533 180.34 25 180.18 25H177.97L181.49 19.71L178.11 14.74H180.49C180.67 14.74 180.803 14.7667 180.89 14.82C180.977 14.8667 181.053 14.9467 181.12 15.06L183.27 18.48C183.343 18.2533 183.447 18.03 183.58 17.81L185.31 15.11C185.457 14.8633 185.647 14.74 185.88 14.74H188.15L184.78 19.6L188.29 25ZM192.999 25.16C192.106 25.16 191.419 24.91 190.939 24.41C190.466 23.9033 190.229 23.2067 190.229 22.32V16.59H189.179C189.046 16.59 188.933 16.5467 188.839 16.46C188.746 16.3733 188.699 16.2433 188.699 16.07V15.09L190.349 14.82L190.869 12.02C190.903 11.8867 190.966 11.7833 191.059 11.71C191.153 11.6367 191.273 11.6 191.419 11.6H192.699V14.83H195.439V16.59H192.699V22.15C192.699 22.47 192.776 22.72 192.929 22.9C193.089 23.08 193.306 23.17 193.579 23.17C193.733 23.17 193.859 23.1533 193.959 23.12C194.066 23.08 194.156 23.04 194.229 23C194.309 22.96 194.379 22.9233 194.439 22.89C194.499 22.85 194.559 22.83 194.619 22.83C194.693 22.83 194.753 22.85 194.799 22.89C194.846 22.9233 194.896 22.9767 194.949 23.05L195.689 24.25C195.329 24.55 194.916 24.7767 194.449 24.93C193.983 25.0833 193.499 25.16 192.999 25.16ZM203.553 18.69C203.553 18.37 203.506 18.07 203.413 17.79C203.326 17.5033 203.193 17.2533 203.013 17.04C202.833 16.8267 202.603 16.66 202.323 16.54C202.049 16.4133 201.729 16.35 201.363 16.35C200.649 16.35 200.086 16.5533 199.673 16.96C199.266 17.3667 199.006 17.9433 198.893 18.69H203.553ZM198.843 20.18C198.883 20.7067 198.976 21.1633 199.123 21.55C199.269 21.93 199.463 22.2467 199.703 22.5C199.943 22.7467 200.226 22.9333 200.553 23.06C200.886 23.18 201.253 23.24 201.653 23.24C202.053 23.24 202.396 23.1933 202.683 23.1C202.976 23.0067 203.229 22.9033 203.443 22.79C203.663 22.6767 203.853 22.5733 204.013 22.48C204.179 22.3867 204.339 22.34 204.493 22.34C204.699 22.34 204.853 22.4167 204.953 22.57L205.663 23.47C205.389 23.79 205.083 24.06 204.743 24.28C204.403 24.4933 204.046 24.6667 203.673 24.8C203.306 24.9267 202.929 25.0167 202.543 25.07C202.163 25.1233 201.793 25.15 201.433 25.15C200.719 25.15 200.056 25.0333 199.443 24.8C198.829 24.56 198.296 24.21 197.843 23.75C197.389 23.2833 197.033 22.71 196.773 22.03C196.513 21.3433 196.383 20.55 196.383 19.65C196.383 18.95 196.496 18.2933 196.723 17.68C196.949 17.06 197.273 16.5233 197.693 16.07C198.119 15.61 198.636 15.2467 199.243 14.98C199.856 14.7133 200.546 14.58 201.313 14.58C201.959 14.58 202.556 14.6833 203.103 14.89C203.649 15.0967 204.119 15.4 204.513 15.8C204.906 16.1933 205.213 16.68 205.433 17.26C205.659 17.8333 205.773 18.49 205.773 19.23C205.773 19.6033 205.733 19.8567 205.653 19.99C205.573 20.1167 205.419 20.18 205.193 20.18H198.843ZM209.936 16C210.143 15.7933 210.36 15.6033 210.586 15.43C210.82 15.25 211.063 15.1 211.316 14.98C211.576 14.8533 211.853 14.7567 212.146 14.69C212.44 14.6167 212.76 14.58 213.106 14.58C213.666 14.58 214.163 14.6767 214.596 14.87C215.03 15.0567 215.39 15.3233 215.676 15.67C215.97 16.01 216.19 16.42 216.336 16.9C216.49 17.3733 216.566 17.8967 216.566 18.47V25H214.096V18.47C214.096 17.8433 213.953 17.36 213.666 17.02C213.38 16.6733 212.943 16.5 212.356 16.5C211.93 16.5 211.53 16.5967 211.156 16.79C210.783 16.9833 210.43 17.2467 210.096 17.58V25H207.626V14.74H209.136C209.456 14.74 209.666 14.89 209.766 15.19L209.936 16ZM225.355 17.36C225.075 17.02 224.769 16.78 224.435 16.64C224.109 16.5 223.755 16.43 223.375 16.43C223.002 16.43 222.665 16.5 222.365 16.64C222.065 16.78 221.809 16.9933 221.595 17.28C221.382 17.56 221.219 17.92 221.105 18.36C220.992 18.7933 220.935 19.3067 220.935 19.9C220.935 20.5 220.982 21.01 221.075 21.43C221.175 21.8433 221.315 22.1833 221.495 22.45C221.675 22.71 221.895 22.9 222.155 23.02C222.415 23.1333 222.705 23.19 223.025 23.19C223.539 23.19 223.975 23.0833 224.335 22.87C224.695 22.6567 225.035 22.3533 225.355 21.96V17.36ZM227.825 10.14V25H226.315C225.989 25 225.782 24.85 225.695 24.55L225.485 23.56C225.072 24.0333 224.595 24.4167 224.055 24.71C223.522 25.0033 222.899 25.15 222.185 25.15C221.625 25.15 221.112 25.0333 220.645 24.8C220.179 24.5667 219.775 24.23 219.435 23.79C219.102 23.3433 218.842 22.7933 218.655 22.14C218.475 21.4867 218.385 20.74 218.385 19.9C218.385 19.14 218.489 18.4333 218.695 17.78C218.902 17.1267 219.199 16.56 219.585 16.08C219.972 15.6 220.435 15.2267 220.975 14.96C221.515 14.6867 222.122 14.55 222.795 14.55C223.369 14.55 223.859 14.64 224.265 14.82C224.672 15 225.035 15.2433 225.355 15.55V10.14H227.825ZM236.873 18.69C236.873 18.37 236.826 18.07 236.733 17.79C236.646 17.5033 236.513 17.2533 236.333 17.04C236.153 16.8267 235.923 16.66 235.643 16.54C235.37 16.4133 235.05 16.35 234.683 16.35C233.97 16.35 233.406 16.5533 232.993 16.96C232.586 17.3667 232.326 17.9433 232.213 18.69H236.873ZM232.163 20.18C232.203 20.7067 232.296 21.1633 232.443 21.55C232.59 21.93 232.783 22.2467 233.023 22.5C233.263 22.7467 233.546 22.9333 233.873 23.06C234.206 23.18 234.573 23.24 234.973 23.24C235.373 23.24 235.716 23.1933 236.003 23.1C236.296 23.0067 236.55 22.9033 236.763 22.79C236.983 22.6767 237.173 22.5733 237.333 22.48C237.5 22.3867 237.66 22.34 237.813 22.34C238.02 22.34 238.173 22.4167 238.273 22.57L238.983 23.47C238.71 23.79 238.403 24.06 238.063 24.28C237.723 24.4933 237.366 24.6667 236.993 24.8C236.626 24.9267 236.25 25.0167 235.863 25.07C235.483 25.1233 235.113 25.15 234.753 25.15C234.04 25.15 233.376 25.0333 232.763 24.8C232.15 24.56 231.616 24.21 231.163 23.75C230.71 23.2833 230.353 22.71 230.093 22.03C229.833 21.3433 229.703 20.55 229.703 19.65C229.703 18.95 229.816 18.2933 230.043 17.68C230.27 17.06 230.593 16.5233 231.013 16.07C231.44 15.61 231.956 15.2467 232.563 14.98C233.176 14.7133 233.866 14.58 234.633 14.58C235.28 14.58 235.876 14.6833 236.423 14.89C236.97 15.0967 237.44 15.4 237.833 15.8C238.226 16.1933 238.533 16.68 238.753 17.26C238.98 17.8333 239.093 18.49 239.093 19.23C239.093 19.6033 239.053 19.8567 238.973 19.99C238.893 20.1167 238.74 20.18 238.513 20.18H232.163ZM247.387 17.36C247.107 17.02 246.8 16.78 246.467 16.64C246.14 16.5 245.787 16.43 245.407 16.43C245.033 16.43 244.697 16.5 244.397 16.64C244.097 16.78 243.84 16.9933 243.627 17.28C243.413 17.56 243.25 17.92 243.137 18.36C243.023 18.7933 242.967 19.3067 242.967 19.9C242.967 20.5 243.013 21.01 243.107 21.43C243.207 21.8433 243.347 22.1833 243.527 22.45C243.707 22.71 243.927 22.9 244.187 23.02C244.447 23.1333 244.737 23.19 245.057 23.19C245.57 23.19 246.007 23.0833 246.367 22.87C246.727 22.6567 247.067 22.3533 247.387 21.96V17.36ZM249.857 10.14V25H248.347C248.02 25 247.813 24.85 247.727 24.55L247.517 23.56C247.103 24.0333 246.627 24.4167 246.087 24.71C245.553 25.0033 244.93 25.15 244.217 25.15C243.657 25.15 243.143 25.0333 242.677 24.8C242.21 24.5667 241.807 24.23 241.467 23.79C241.133 23.3433 240.873 22.7933 240.687 22.14C240.507 21.4867 240.417 20.74 240.417 19.9C240.417 19.14 240.52 18.4333 240.727 17.78C240.933 17.1267 241.23 16.56 241.617 16.08C242.003 15.6 242.467 15.2267 243.007 14.96C243.547 14.6867 244.153 14.55 244.827 14.55C245.4 14.55 245.89 14.64 246.297 14.82C246.703 15 247.067 15.2433 247.387 15.55V10.14H249.857ZM261.918 17.42C262.424 17.42 262.864 17.3567 263.238 17.23C263.618 17.1033 263.928 16.93 264.168 16.71C264.414 16.4833 264.598 16.2167 264.718 15.91C264.838 15.6033 264.898 15.2667 264.898 14.9C264.898 14.1667 264.654 13.6033 264.168 13.21C263.688 12.8167 262.951 12.62 261.958 12.62H260.238V17.42H261.918ZM268.838 25H266.408C265.948 25 265.614 24.82 265.408 24.46L262.368 19.83C262.254 19.6567 262.128 19.5333 261.988 19.46C261.854 19.3867 261.654 19.35 261.388 19.35H260.238V25H257.548V10.54H261.958C262.938 10.54 263.778 10.6433 264.478 10.85C265.184 11.05 265.761 11.3333 266.208 11.7C266.661 12.0667 266.994 12.5067 267.208 13.02C267.421 13.5267 267.528 14.0867 267.528 14.7C267.528 15.1867 267.454 15.6467 267.308 16.08C267.168 16.5133 266.961 16.9067 266.688 17.26C266.421 17.6133 266.088 17.9233 265.688 18.19C265.294 18.4567 264.844 18.6667 264.338 18.82C264.511 18.92 264.671 19.04 264.818 19.18C264.964 19.3133 265.098 19.4733 265.218 19.66L268.838 25ZM275.955 18.69C275.955 18.37 275.908 18.07 275.815 17.79C275.728 17.5033 275.595 17.2533 275.415 17.04C275.235 16.8267 275.005 16.66 274.725 16.54C274.452 16.4133 274.132 16.35 273.765 16.35C273.052 16.35 272.488 16.5533 272.075 16.96C271.668 17.3667 271.408 17.9433 271.295 18.69H275.955ZM271.245 20.18C271.285 20.7067 271.378 21.1633 271.525 21.55C271.672 21.93 271.865 22.2467 272.105 22.5C272.345 22.7467 272.628 22.9333 272.955 23.06C273.288 23.18 273.655 23.24 274.055 23.24C274.455 23.24 274.798 23.1933 275.085 23.1C275.378 23.0067 275.632 22.9033 275.845 22.79C276.065 22.6767 276.255 22.5733 276.415 22.48C276.582 22.3867 276.742 22.34 276.895 22.34C277.102 22.34 277.255 22.4167 277.355 22.57L278.065 23.47C277.792 23.79 277.485 24.06 277.145 24.28C276.805 24.4933 276.448 24.6667 276.075 24.8C275.708 24.9267 275.332 25.0167 274.945 25.07C274.565 25.1233 274.195 25.15 273.835 25.15C273.122 25.15 272.458 25.0333 271.845 24.8C271.232 24.56 270.698 24.21 270.245 23.75C269.792 23.2833 269.435 22.71 269.175 22.03C268.915 21.3433 268.785 20.55 268.785 19.65C268.785 18.95 268.898 18.2933 269.125 17.68C269.352 17.06 269.675 16.5233 270.095 16.07C270.522 15.61 271.038 15.2467 271.645 14.98C272.258 14.7133 272.948 14.58 273.715 14.58C274.362 14.58 274.958 14.6833 275.505 14.89C276.052 15.0967 276.522 15.4 276.915 15.8C277.308 16.1933 277.615 16.68 277.835 17.26C278.062 17.8333 278.175 18.49 278.175 19.23C278.175 19.6033 278.135 19.8567 278.055 19.99C277.975 20.1167 277.822 20.18 277.595 20.18H271.245ZM285.449 20.62C284.735 20.6533 284.135 20.7167 283.649 20.81C283.162 20.8967 282.772 21.01 282.479 21.15C282.185 21.29 281.975 21.4533 281.849 21.64C281.722 21.8267 281.659 22.03 281.659 22.25C281.659 22.6833 281.785 22.9933 282.039 23.18C282.299 23.3667 282.635 23.46 283.049 23.46C283.555 23.46 283.992 23.37 284.359 23.19C284.732 23.0033 285.095 22.7233 285.449 22.35V20.62ZM279.789 16.17C280.969 15.09 282.389 14.55 284.049 14.55C284.649 14.55 285.185 14.65 285.659 14.85C286.132 15.0433 286.532 15.3167 286.859 15.67C287.185 16.0167 287.432 16.4333 287.599 16.92C287.772 17.4067 287.859 17.94 287.859 18.52V25H286.739C286.505 25 286.325 24.9667 286.199 24.9C286.072 24.8267 285.972 24.6833 285.899 24.47L285.679 23.73C285.419 23.9633 285.165 24.17 284.919 24.35C284.672 24.5233 284.415 24.67 284.149 24.79C283.882 24.91 283.595 25 283.289 25.06C282.989 25.1267 282.655 25.16 282.289 25.16C281.855 25.16 281.455 25.1033 281.089 24.99C280.722 24.87 280.405 24.6933 280.139 24.46C279.872 24.2267 279.665 23.9367 279.519 23.59C279.372 23.2433 279.299 22.84 279.299 22.38C279.299 22.12 279.342 21.8633 279.429 21.61C279.515 21.35 279.655 21.1033 279.849 20.87C280.049 20.6367 280.305 20.4167 280.619 20.21C280.932 20.0033 281.315 19.8233 281.769 19.67C282.229 19.5167 282.762 19.3933 283.369 19.3C283.975 19.2 284.669 19.14 285.449 19.12V18.52C285.449 17.8333 285.302 17.3267 285.009 17C284.715 16.6667 284.292 16.5 283.739 16.5C283.339 16.5 283.005 16.5467 282.739 16.64C282.479 16.7333 282.249 16.84 282.049 16.96C281.849 17.0733 281.665 17.1767 281.499 17.27C281.339 17.3633 281.159 17.41 280.959 17.41C280.785 17.41 280.639 17.3667 280.519 17.28C280.399 17.1867 280.302 17.08 280.229 16.96L279.789 16.17ZM292.685 10.14V25H290.215V10.14H292.685ZM297.706 14.74V25H295.226V14.74H297.706ZM298.046 11.75C298.046 11.9633 298.002 12.1633 297.916 12.35C297.829 12.5367 297.712 12.7 297.566 12.84C297.426 12.98 297.259 13.0933 297.066 13.18C296.872 13.26 296.666 13.3 296.446 13.3C296.232 13.3 296.029 13.26 295.836 13.18C295.649 13.0933 295.486 12.98 295.346 12.84C295.206 12.7 295.092 12.5367 295.006 12.35C294.926 12.1633 294.886 11.9633 294.886 11.75C294.886 11.53 294.926 11.3233 295.006 11.13C295.092 10.9367 295.206 10.77 295.346 10.63C295.486 10.49 295.649 10.38 295.836 10.3C296.029 10.2133 296.232 10.17 296.446 10.17C296.666 10.17 296.872 10.2133 297.066 10.3C297.259 10.38 297.426 10.49 297.566 10.63C297.712 10.77 297.829 10.9367 297.916 11.13C298.002 11.3233 298.046 11.53 298.046 11.75ZM303.644 25.16C302.751 25.16 302.064 24.91 301.584 24.41C301.111 23.9033 300.874 23.2067 300.874 22.32V16.59H299.824C299.691 16.59 299.577 16.5467 299.484 16.46C299.391 16.3733 299.344 16.2433 299.344 16.07V15.09L300.994 14.82L301.514 12.02C301.547 11.8867 301.611 11.7833 301.704 11.71C301.797 11.6367 301.917 11.6 302.064 11.6H303.344V14.83H306.084V16.59H303.344V22.15C303.344 22.47 303.421 22.72 303.574 22.9C303.734 23.08 303.951 23.17 304.224 23.17C304.377 23.17 304.504 23.1533 304.604 23.12C304.711 23.08 304.801 23.04 304.874 23C304.954 22.96 305.024 22.9233 305.084 22.89C305.144 22.85 305.204 22.83 305.264 22.83C305.337 22.83 305.397 22.85 305.444 22.89C305.491 22.9233 305.541 22.9767 305.594 23.05L306.334 24.25C305.974 24.55 305.561 24.7767 305.094 24.93C304.627 25.0833 304.144 25.16 303.644 25.16ZM316.985 14.74L311.395 27.82C311.322 27.9933 311.225 28.1233 311.105 28.21C310.992 28.3033 310.815 28.35 310.575 28.35H308.735L310.655 24.23L306.505 14.74H308.675C308.869 14.74 309.019 14.7867 309.125 14.88C309.239 14.9733 309.322 15.08 309.375 15.2L311.555 20.52C311.629 20.7 311.689 20.88 311.735 21.06C311.789 21.24 311.839 21.4233 311.885 21.61C311.945 21.4233 312.005 21.24 312.065 21.06C312.125 20.8733 312.192 20.69 312.265 20.51L314.325 15.2C314.379 15.0667 314.465 14.9567 314.585 14.87C314.712 14.7833 314.852 14.74 315.005 14.74H316.985ZM324.218 18.73C324.218 20.1033 324.384 21.4533 324.718 22.78C325.051 24.1067 325.528 25.3533 326.148 26.52C326.214 26.6533 326.251 26.77 326.258 26.87C326.271 26.9767 326.264 27.0667 326.238 27.14C326.211 27.22 326.168 27.2867 326.108 27.34C326.054 27.4 325.994 27.45 325.928 27.49L324.828 28.16C324.334 27.4 323.914 26.6367 323.568 25.87C323.221 25.1033 322.938 24.33 322.718 23.55C322.498 22.77 322.334 21.98 322.228 21.18C322.128 20.38 322.078 19.5633 322.078 18.73C322.078 17.8967 322.128 17.08 322.228 16.28C322.334 15.4733 322.498 14.68 322.718 13.9C322.938 13.12 323.221 12.35 323.568 11.59C323.914 10.8233 324.334 10.06 324.828 9.3L325.928 9.96C325.994 10 326.054 10.05 326.108 10.11C326.168 10.1633 326.211 10.23 326.238 10.31C326.264 10.3833 326.271 10.4733 326.258 10.58C326.251 10.68 326.214 10.8 326.148 10.94C325.528 12.1 325.051 13.3467 324.718 14.68C324.384 16.0067 324.218 17.3567 324.218 18.73ZM340.196 25H337.516C337.329 25 337.179 24.9533 337.066 24.86C336.959 24.7667 336.873 24.66 336.806 24.54L333.456 18.99C333.403 19.1567 333.339 19.3 333.266 19.42L330.056 24.54C329.976 24.6533 329.883 24.76 329.776 24.86C329.676 24.9533 329.543 25 329.376 25H326.866L331.666 17.56L327.056 10.54H329.736C329.923 10.54 330.056 10.5667 330.136 10.62C330.223 10.6667 330.303 10.7467 330.376 10.86L333.666 16.16C333.733 15.9933 333.813 15.8267 333.906 15.66L336.926 10.91C336.999 10.7833 337.079 10.69 337.166 10.63C337.253 10.57 337.363 10.54 337.496 10.54H340.066L335.416 17.45L340.196 25ZM346.234 17.42C346.741 17.42 347.181 17.3567 347.554 17.23C347.934 17.1033 348.244 16.93 348.484 16.71C348.731 16.4833 348.914 16.2167 349.034 15.91C349.154 15.6033 349.214 15.2667 349.214 14.9C349.214 14.1667 348.971 13.6033 348.484 13.21C348.004 12.8167 347.267 12.62 346.274 12.62H344.554V17.42H346.234ZM353.154 25H350.724C350.264 25 349.931 24.82 349.724 24.46L346.684 19.83C346.571 19.6567 346.444 19.5333 346.304 19.46C346.171 19.3867 345.971 19.35 345.704 19.35H344.554V25H341.864V10.54H346.274C347.254 10.54 348.094 10.6433 348.794 10.85C349.501 11.05 350.077 11.3333 350.524 11.7C350.977 12.0667 351.311 12.5067 351.524 13.02C351.737 13.5267 351.844 14.0867 351.844 14.7C351.844 15.1867 351.771 15.6467 351.624 16.08C351.484 16.5133 351.277 16.9067 351.004 17.26C350.737 17.6133 350.404 17.9233 350.004 18.19C349.611 18.4567 349.161 18.6667 348.654 18.82C348.827 18.92 348.987 19.04 349.134 19.18C349.281 19.3133 349.414 19.4733 349.534 19.66L353.154 25ZM355.715 18.73C355.715 17.3567 355.549 16.0067 355.215 14.68C354.889 13.3467 354.415 12.1 353.795 10.94C353.722 10.8 353.679 10.68 353.665 10.58C353.659 10.4733 353.669 10.3833 353.695 10.31C353.722 10.23 353.762 10.1633 353.815 10.11C353.875 10.05 353.942 10 354.015 9.96L355.115 9.3C355.609 10.06 356.029 10.8233 356.375 11.59C356.722 12.35 357.005 13.12 357.225 13.9C357.445 14.68 357.605 15.4733 357.705 16.28C357.805 17.08 357.855 17.8967 357.855 18.73C357.855 19.5633 357.805 20.38 357.705 21.18C357.605 21.98 357.445 22.77 357.225 23.55C357.005 24.33 356.722 25.1033 356.375 25.87C356.029 26.6367 355.609 27.4 355.115 28.16L354.015 27.49C353.942 27.45 353.875 27.4 353.815 27.34C353.762 27.2867 353.722 27.22 353.695 27.14C353.669 27.0667 353.659 26.9767 353.665 26.87C353.679 26.77 353.722 26.6533 353.795 26.52C354.415 25.3533 354.889 24.1067 355.215 22.78C355.549 21.4533 355.715 20.1033 355.715 18.73Z" fill="black"/>
<line x1="348" y1="92.5" x2="377" y2="92.5" stroke="#E1F2FF"/>
</g>
<defs>
<clipPath id="clip0_93_1141">
<rect width="541" height="205" fill="white"/>
</clipPath>
</defs>
</svg>
