<svg width="229" height="165" viewBox="0 0 229 165" fill="none" xmlns="http://www.w3.org/2000/svg">
<rect width="229" height="164.25" fill="white"/>
<path d="M143.785 111.023V86.5278H26.0056V111.023" stroke="#14867F" stroke-width="1.67776"/>
<path d="M27.3477 90.5547H145.63" stroke="#14867F" stroke-width="1.67776"/>
<ellipse cx="40.7697" cy="93.2391" rx="19.6298" ry="14.4288" fill="#51CAA6"/>
<rect x="21.1399" y="92.9033" width="39.2597" height="23.1531" fill="#14867F"/>
<path d="M21.1399 97.6013H60.3996" stroke="#51CAA6" stroke-width="1.67776"/>
<ellipse cx="84.7272" cy="93.2391" rx="19.6298" ry="14.4288" fill="#51CAA6"/>
<rect x="65.0974" y="92.9033" width="39.2597" height="23.1531" fill="#14867F"/>
<path d="M65.0974 97.6013H104.357" stroke="#51CAA6" stroke-width="1.67776"/>
<ellipse cx="128.685" cy="93.2391" rx="19.6298" ry="14.4288" fill="#51CAA6"/>
<rect x="109.055" y="92.9033" width="39.2597" height="23.1531" fill="#14867F"/>
<path d="M109.055 97.6013H148.314" stroke="#51CAA6" stroke-width="1.67776"/>
<rect x="31.0386" y="110.688" width="162.407" height="37.2464" fill="#134E78"/>
<path d="M0 110.688H31.0386V147.934H14.261C14.261 130.318 7.21438 124.278 0 110.688Z" fill="#134E78"/>
<path d="M193.446 110.688H226.666C226.666 110.688 221.968 124.445 211.398 136.19C200.828 147.934 193.446 147.934 193.446 147.934V110.688Z" fill="#134E78"/>
<mask id="mask0_6627_1337" style="mask-type:alpha" maskUnits="userSpaceOnUse" x="0" y="110" width="227" height="38">
<rect x="31.0386" y="110.688" width="162.407" height="37.2464" fill="#134E78"/>
<path d="M0 110.688H31.0386V147.934H14.261C14.261 130.318 7.21438 124.278 0 110.688Z" fill="#134E78"/>
<path d="M193.446 110.688H226.666C226.666 110.688 221.968 124.445 211.398 136.19C200.828 147.934 193.446 147.934 193.446 147.934V110.688Z" fill="#134E78"/>
</mask>
<g mask="url(#mask0_6627_1337)">
<path d="M0.167725 116.057H228.008" stroke="#0A2D46" stroke-width="2.68442"/>
</g>
<rect x="186.76" y="90.3904" width="23.2131" height="20.3994" fill="#EFB601"/>
<path d="M88.2301 134.647V135.788H83.8768V128.356H85.2594V134.647H88.2301ZM114.118 128.356V135.788H113.409C113.299 135.788 113.206 135.77 113.131 135.736C113.059 135.699 112.989 135.637 112.92 135.551L109.04 130.597C109.06 130.823 109.071 131.032 109.071 131.224V135.788H107.853V128.356H108.577C108.636 128.356 108.685 128.359 108.726 128.366C108.771 128.369 108.809 128.38 108.839 128.397C108.874 128.41 108.906 128.433 108.937 128.464C108.968 128.491 109.002 128.529 109.04 128.577L112.936 133.552C112.925 133.432 112.917 133.314 112.91 133.197C112.903 133.081 112.9 132.973 112.9 132.873V128.356H114.118ZM140.846 132.061V135.068C140.469 135.346 140.066 135.549 139.638 135.68C139.213 135.806 138.758 135.87 138.271 135.87C137.665 135.87 137.115 135.776 136.621 135.587C136.131 135.399 135.711 135.137 135.362 134.801C135.016 134.465 134.749 134.064 134.56 133.598C134.372 133.132 134.277 132.623 134.277 132.072C134.277 131.513 134.368 131.001 134.55 130.535C134.732 130.069 134.988 129.668 135.321 129.332C135.657 128.996 136.063 128.736 136.539 128.551C137.015 128.366 137.55 128.273 138.143 128.273C138.444 128.273 138.725 128.297 138.985 128.345C139.249 128.393 139.493 128.46 139.715 128.546C139.941 128.628 140.147 128.729 140.332 128.849C140.517 128.969 140.687 129.101 140.841 129.245L140.445 129.872C140.383 129.971 140.303 130.033 140.204 130.057C140.104 130.077 139.996 130.052 139.88 129.98C139.767 129.915 139.654 129.85 139.541 129.784C139.427 129.719 139.301 129.663 139.16 129.615C139.023 129.567 138.867 129.527 138.692 129.497C138.521 129.466 138.322 129.45 138.096 129.45C137.73 129.45 137.397 129.512 137.099 129.635C136.805 129.759 136.553 129.935 136.344 130.165C136.135 130.394 135.974 130.67 135.861 130.992C135.747 131.314 135.691 131.674 135.691 132.072C135.691 132.496 135.751 132.877 135.871 133.213C135.994 133.545 136.165 133.828 136.385 134.061C136.607 134.29 136.875 134.467 137.187 134.59C137.498 134.71 137.846 134.77 138.23 134.77C138.504 134.77 138.749 134.741 138.965 134.683C139.181 134.624 139.391 134.546 139.597 134.446V133.1H138.662C138.573 133.1 138.502 133.076 138.451 133.028C138.403 132.976 138.379 132.915 138.379 132.843V132.061H140.846Z" fill="white"/>
<rect x="153.698" y="83.0044" width="30.8708" height="27.8509" fill="#EFB601"/>
<path d="M186.919 39.8831C186.919 46.0905 181.764 51.1226 175.406 51.1226C169.047 51.1226 163.892 46.0905 163.892 39.8831C163.892 33.6757 169.047 28.6436 175.406 28.6436C181.764 28.6436 186.919 33.6757 186.919 39.8831Z" fill="#CAE1F1"/>
<path d="M180.066 51.1226C180.066 57.33 174.911 62.3621 168.552 62.3621C162.193 62.3621 157.039 57.33 157.039 51.1226C157.039 44.9152 162.193 39.8831 168.552 39.8831C174.911 39.8831 180.066 44.9152 180.066 51.1226Z" fill="#CAE1F1"/>
<path d="M200.9 39.8831C200.9 46.0905 195.745 51.1226 189.386 51.1226C183.028 51.1226 177.873 46.0905 177.873 39.8831C177.873 33.6757 183.028 28.6436 189.386 28.6436C195.745 28.6436 200.9 33.6757 200.9 39.8831Z" fill="#CAE1F1"/>
<path d="M193.224 51.1226C193.224 57.33 188.069 62.3621 181.711 62.3621C175.352 62.3621 170.197 57.33 170.197 51.1226C170.197 44.9152 175.352 39.8831 181.711 39.8831C188.069 39.8831 193.224 44.9152 193.224 51.1226Z" fill="#CAE1F1"/>
<path d="M203.093 28.6436C203.093 34.851 197.938 39.8831 191.58 39.8831C185.221 39.8831 180.066 34.851 180.066 28.6436C180.066 22.4362 185.221 17.4041 191.58 17.4041C197.938 17.4041 203.093 22.4362 203.093 28.6436Z" fill="#CAE1F1"/>
<path d="M217.622 36.0452C217.622 42.2526 211.792 47.2847 204.601 47.2847C197.409 47.2847 191.58 42.2526 191.58 36.0452C191.58 29.8378 197.409 24.8057 204.601 24.8057C211.792 24.8057 217.622 29.8378 217.622 36.0452Z" fill="#CAE1F1"/>
<path d="M223.379 42.8986C223.379 49.106 217.549 54.1381 210.358 54.1381C203.166 54.1381 197.336 49.106 197.336 42.8986C197.336 36.6912 203.166 31.659 210.358 31.659C217.549 31.659 223.379 36.6912 223.379 42.8986Z" fill="#CAE1F1"/>
<path d="M205.012 45.3658C205.012 51.5732 200.655 56.6053 195.28 56.6053C189.906 56.6053 185.549 51.5732 185.549 45.3658C185.549 39.1584 189.906 34.1263 195.28 34.1263C200.655 34.1263 205.012 39.1584 205.012 45.3658Z" fill="#CAE1F1"/>
<path d="M178.695 62.3621C178.695 67.2069 174.338 71.1344 168.963 71.1344C163.589 71.1344 159.232 67.2069 159.232 62.3621C159.232 57.5173 163.589 53.5898 168.963 53.5898C174.338 53.5898 178.695 57.5173 178.695 62.3621Z" fill="#CAE1F1"/>
<path d="M170.91 72.6422C170.91 76.0487 168.296 78.8102 165.071 78.8102C161.846 78.8102 159.232 76.0487 159.232 72.6422C159.232 69.2357 161.846 66.4741 165.071 66.4741C168.296 66.4741 170.91 69.2357 170.91 72.6422Z" fill="#CAE1F1"/>
<path d="M13.222 28.0016L12.8555 28.4561C13.0607 28.3534 13.2806 28.2753 13.5152 28.2215C13.7547 28.1629 14.0112 28.1335 14.2849 28.1335C14.6856 28.1335 15.0742 28.1995 15.4505 28.3315C15.8316 28.4634 16.1664 28.6638 16.4547 28.9326C16.7431 29.1964 16.9752 29.5263 17.1511 29.9222C17.3271 30.318 17.415 30.7798 17.415 31.3076C17.415 31.8012 17.3246 32.2655 17.1438 32.7004C16.963 33.1305 16.7089 33.5068 16.3814 33.8293C16.054 34.1518 15.6582 34.406 15.1939 34.5917C14.7345 34.7774 14.2263 34.8702 13.6692 34.8702C13.1023 34.8702 12.594 34.7798 12.1444 34.599C11.6948 34.4182 11.3112 34.1665 10.9935 33.844C10.6759 33.5165 10.4315 33.1256 10.2605 32.6711C10.0943 32.2117 10.0113 31.7035 10.0113 31.1463C10.0113 30.6479 10.1114 30.1372 10.3118 29.6143C10.5171 29.0865 10.8323 28.5392 11.2574 27.9723L13.7864 24.5783C13.8744 24.461 14.0015 24.3608 14.1676 24.2777C14.3387 24.1946 14.5342 24.1531 14.7541 24.1531H16.3668L13.222 28.0016ZM13.6325 33.3895C13.9208 33.3895 14.1847 33.3406 14.4242 33.2429C14.6685 33.1451 14.8762 33.0083 15.0473 32.8324C15.2232 32.6564 15.3601 32.4512 15.4578 32.2166C15.5555 31.9771 15.6044 31.7181 15.6044 31.4396C15.6044 31.1366 15.558 30.8653 15.4651 30.6259C15.3723 30.3815 15.2403 30.1763 15.0693 30.0101C14.8982 29.8391 14.693 29.7096 14.4535 29.6216C14.2141 29.5336 13.9502 29.4897 13.6618 29.4897C13.3735 29.4897 13.112 29.5385 12.8775 29.6363C12.6429 29.734 12.4425 29.8709 12.2764 30.0468C12.1102 30.2178 11.9807 30.4231 11.8879 30.6625C11.795 30.8971 11.7486 31.1512 11.7486 31.4249C11.7486 31.7181 11.7877 31.9869 11.8659 32.2313C11.9489 32.4707 12.0687 32.676 12.2251 32.847C12.3863 33.0181 12.5843 33.1524 12.8188 33.2502C13.0534 33.343 13.3246 33.3895 13.6325 33.3895ZM26.0368 29.453C26.0368 30.3767 25.9366 31.1806 25.7362 31.8647C25.5407 32.544 25.2671 33.106 24.9152 33.5507C24.5682 33.9954 24.1553 34.3278 23.6764 34.5477C23.2023 34.7627 22.6892 34.8702 22.137 34.8702C21.5847 34.8702 21.0716 34.7627 20.5976 34.5477C20.1284 34.3278 19.7204 33.9954 19.3734 33.5507C19.0264 33.106 18.7552 32.544 18.5597 31.8647C18.3642 31.1806 18.2665 30.3767 18.2665 29.453C18.2665 28.5245 18.3642 27.7206 18.5597 27.0413C18.7552 26.362 19.0264 25.8 19.3734 25.3553C19.7204 24.9106 20.1284 24.5807 20.5976 24.3657C21.0716 24.1458 21.5847 24.0358 22.137 24.0358C22.6892 24.0358 23.2023 24.1458 23.6764 24.3657C24.1553 24.5807 24.5682 24.9106 24.9152 25.3553C25.2671 25.8 25.5407 26.362 25.7362 27.0413C25.9366 27.7206 26.0368 28.5245 26.0368 29.453ZM24.1675 29.453C24.1675 28.6858 24.1113 28.0505 23.9989 27.5471C23.8865 27.0437 23.735 26.643 23.5444 26.3449C23.3587 26.0468 23.1437 25.8391 22.8993 25.7218C22.655 25.5996 22.4009 25.5386 22.137 25.5386C21.878 25.5386 21.6263 25.5996 21.3819 25.7218C21.1425 25.8391 20.9299 26.0468 20.7442 26.3449C20.5585 26.643 20.4094 27.0437 20.297 27.5471C20.1895 28.0505 20.1358 28.6858 20.1358 29.453C20.1358 30.2203 20.1895 30.8556 20.297 31.3589C20.4094 31.8623 20.5585 32.263 20.7442 32.5611C20.9299 32.8592 21.1425 33.0694 21.3819 33.1915C21.6263 33.3088 21.878 33.3675 22.137 33.3675C22.4009 33.3675 22.655 33.3088 22.8993 33.1915C23.1437 33.0694 23.3587 32.8592 23.5444 32.5611C23.735 32.263 23.8865 31.8623 23.9989 31.3589C24.1113 30.8556 24.1675 30.2203 24.1675 29.453ZM31.8656 26.7188C31.8656 27.1195 31.7972 27.4811 31.6604 27.8037C31.5284 28.1262 31.3501 28.4023 31.1253 28.632C30.9005 28.8568 30.639 29.0303 30.3409 29.1525C30.0428 29.2746 29.7325 29.3357 29.4099 29.3357C29.0581 29.3357 28.7331 29.2746 28.435 29.1525C28.1369 29.0303 27.8779 28.8568 27.6579 28.632C27.4429 28.4023 27.2743 28.1262 27.1521 27.8037C27.03 27.4811 26.9689 27.1195 26.9689 26.7188C26.9689 26.3083 27.03 25.9368 27.1521 25.6045C27.2743 25.2722 27.4429 24.9912 27.6579 24.7615C27.8779 24.5318 28.1369 24.3559 28.435 24.2337C28.7331 24.1067 29.0581 24.0431 29.4099 24.0431C29.7618 24.0431 30.0868 24.1067 30.3849 24.2337C30.6879 24.3559 30.9493 24.5318 31.1692 24.7615C31.3891 24.9912 31.5602 25.2722 31.6824 25.6045C31.8045 25.9368 31.8656 26.3083 31.8656 26.7188ZM30.4728 26.7188C30.4728 26.4353 30.4435 26.1983 30.3849 26.0077C30.3311 25.8171 30.2554 25.6632 30.1576 25.5459C30.0648 25.4286 29.9524 25.3455 29.8204 25.2966C29.6934 25.2429 29.5565 25.216 29.4099 25.216C29.2633 25.216 29.1265 25.2429 28.9994 25.2966C28.8724 25.3455 28.7624 25.4286 28.6696 25.5459C28.5816 25.6632 28.5107 25.8171 28.457 26.0077C28.4032 26.1983 28.3763 26.4353 28.3763 26.7188C28.3763 26.9924 28.4032 27.2221 28.457 27.4078C28.5107 27.5886 28.5816 27.7352 28.6696 27.8476C28.7624 27.96 28.8724 28.0407 28.9994 28.0896C29.1265 28.1384 29.2633 28.1629 29.4099 28.1629C29.5565 28.1629 29.6934 28.1384 29.8204 28.0896C29.9524 28.0407 30.0648 27.96 30.1576 27.8476C30.2554 27.7352 30.3311 27.5886 30.3849 27.4078C30.4435 27.2221 30.4728 26.9924 30.4728 26.7188ZM35.3916 24.439C35.4551 24.3657 35.5284 24.2997 35.6115 24.2411C35.6995 24.1824 35.8216 24.1531 35.978 24.1531H37.2975L29.4246 34.4817C29.3611 34.5599 29.2853 34.6259 29.1973 34.6796C29.1094 34.7285 29.0019 34.7529 28.8748 34.7529H27.526L35.3916 24.439ZM37.8546 32.2606C37.8546 32.6613 37.7862 33.0229 37.6494 33.3455C37.5174 33.668 37.339 33.9441 37.1142 34.1738C36.8894 34.3986 36.628 34.5746 36.3299 34.7016C36.0318 34.8238 35.7214 34.8849 35.3989 34.8849C35.047 34.8849 34.7221 34.8238 34.424 34.7016C34.1258 34.5746 33.8668 34.3986 33.6469 34.1738C33.4319 33.9441 33.2633 33.668 33.1411 33.3455C33.019 33.0229 32.9579 32.6613 32.9579 32.2606C32.9579 31.8501 33.019 31.4787 33.1411 31.1463C33.2633 30.814 33.4319 30.533 33.6469 30.3033C33.8668 30.0737 34.1258 29.8977 34.424 29.7756C34.7221 29.6485 35.047 29.585 35.3989 29.585C35.7508 29.585 36.0757 29.6485 36.3739 29.7756C36.6768 29.8977 36.9359 30.0737 37.1509 30.3033C37.3708 30.533 37.5418 30.814 37.664 31.1463C37.7911 31.4787 37.8546 31.8501 37.8546 32.2606ZM36.4545 32.2606C36.4545 31.9771 36.4276 31.7401 36.3739 31.5495C36.3201 31.3589 36.2443 31.205 36.1466 31.0877C36.0538 30.9704 35.9414 30.8873 35.8094 30.8385C35.6823 30.7847 35.5455 30.7578 35.3989 30.7578C35.2523 30.7578 35.1155 30.7847 34.9884 30.8385C34.8613 30.8873 34.7514 30.9704 34.6585 31.0877C34.5657 31.205 34.4924 31.3589 34.4386 31.5495C34.3897 31.7401 34.3653 31.9771 34.3653 32.2606C34.3653 32.5342 34.3897 32.7639 34.4386 32.9496C34.4924 33.1353 34.5657 33.2844 34.6585 33.3968C34.7514 33.5092 34.8613 33.5898 34.9884 33.6387C35.1155 33.6876 35.2523 33.712 35.3989 33.712C35.5455 33.712 35.6823 33.6876 35.8094 33.6387C35.9414 33.5898 36.0538 33.5092 36.1466 33.3968C36.2443 33.2844 36.3201 33.1353 36.3739 32.9496C36.4276 32.7639 36.4545 32.5342 36.4545 32.2606Z" fill="#B68A00"/>
<path d="M44.7526 27.2319V34.7529H42.9346V27.2319H44.7526ZM45.0018 25.0401C45.0018 25.1965 44.97 25.3431 44.9065 25.4799C44.843 25.6167 44.7574 25.7365 44.6499 25.8391C44.5473 25.9417 44.4251 26.0248 44.2834 26.0883C44.1417 26.147 43.9902 26.1763 43.8289 26.1763C43.6725 26.1763 43.5235 26.147 43.3818 26.0883C43.2449 26.0248 43.1252 25.9417 43.0226 25.8391C42.9199 25.7365 42.8369 25.6167 42.7733 25.4799C42.7147 25.3431 42.6854 25.1965 42.6854 25.0401C42.6854 24.8788 42.7147 24.7273 42.7733 24.5856C42.8369 24.4439 42.9199 24.3217 43.0226 24.2191C43.1252 24.1164 43.2449 24.0358 43.3818 23.9772C43.5235 23.9136 43.6725 23.8819 43.8289 23.8819C43.9902 23.8819 44.1417 23.9136 44.2834 23.9772C44.4251 24.0358 44.5473 24.1164 44.6499 24.2191C44.7574 24.3217 44.843 24.4439 44.9065 24.5856C44.97 24.7273 45.0018 24.8788 45.0018 25.0401ZM48.2918 28.1555C48.4433 28.004 48.6021 27.8648 48.7683 27.7377C48.9393 27.6057 49.1177 27.4958 49.3034 27.4078C49.494 27.315 49.6968 27.2441 49.9118 27.1952C50.1268 27.1415 50.3614 27.1146 50.6155 27.1146C51.026 27.1146 51.3901 27.1855 51.7078 27.3272C52.0254 27.464 52.2893 27.6595 52.4995 27.9136C52.7145 28.1629 52.8758 28.4634 52.9833 28.8153C53.0957 29.1622 53.1519 29.5459 53.1519 29.9661V34.7529H51.3413V29.9661C51.3413 29.5068 51.2362 29.1525 51.026 28.9032C50.8159 28.6491 50.4958 28.522 50.0658 28.522C49.753 28.522 49.4598 28.5929 49.1861 28.7346C48.9124 28.8764 48.6534 29.0694 48.4091 29.3137V34.7529H46.5985V27.2319H47.7054C47.9399 27.2319 48.0939 27.3418 48.1672 27.5618L48.2918 28.1555ZM60.2617 28.8226C60.208 28.891 60.1542 28.9448 60.1005 28.9839C60.0516 29.023 59.9783 29.0425 59.8805 29.0425C59.7877 29.0425 59.6973 29.0156 59.6093 28.9619C59.5214 28.9032 59.4163 28.8397 59.2941 28.7713C59.1719 28.698 59.0253 28.6344 58.8543 28.5807C58.6881 28.522 58.4804 28.4927 58.2312 28.4927C57.9135 28.4927 57.635 28.5514 57.3955 28.6687C57.1561 28.7811 56.9557 28.9448 56.7944 29.1598C56.638 29.3748 56.5208 29.6363 56.4426 29.9442C56.3644 30.2471 56.3253 30.5917 56.3253 30.9777C56.3253 31.3785 56.3668 31.7352 56.4499 32.048C56.5379 32.3608 56.6625 32.6247 56.8237 32.8397C56.985 33.0498 57.1805 33.2111 57.4102 33.3235C57.6399 33.431 57.8989 33.4848 58.1872 33.4848C58.4755 33.4848 58.7077 33.4506 58.8836 33.3821C59.0644 33.3088 59.2159 33.2306 59.3381 33.1476C59.4603 33.0596 59.5653 32.9814 59.6533 32.913C59.7462 32.8397 59.8488 32.803 59.9612 32.803C60.1078 32.803 60.2177 32.8592 60.291 32.9716L60.8115 33.6314C60.6111 33.8659 60.3937 34.0639 60.1591 34.2251C59.9245 34.3815 59.6802 34.5086 59.4261 34.6063C59.1768 34.6992 58.9178 34.7651 58.649 34.8042C58.3851 34.8433 58.1212 34.8629 57.8573 34.8629C57.3931 34.8629 56.9557 34.7774 56.5452 34.6063C56.1347 34.4304 55.7755 34.1763 55.4676 33.844C55.1597 33.5116 54.9154 33.106 54.7346 32.6271C54.5586 32.1433 54.4707 31.5935 54.4707 30.9777C54.4707 30.4255 54.5489 29.9148 54.7052 29.4457C54.8665 28.9716 55.1011 28.5636 55.409 28.2215C55.7168 27.8745 56.098 27.6033 56.5525 27.4078C57.007 27.2123 57.5299 27.1146 58.1212 27.1146C58.6832 27.1146 59.1744 27.205 59.5947 27.3858C60.0198 27.5666 60.401 27.8257 60.7382 28.1629L60.2617 28.8226ZM63.6546 28.5367C63.8892 28.0871 64.1677 27.7352 64.4902 27.4811C64.8128 27.2221 65.194 27.0926 65.6338 27.0926C65.9808 27.0926 66.2593 27.1684 66.4695 27.3199L66.3522 28.676C66.3277 28.764 66.2911 28.8275 66.2422 28.8666C66.1982 28.9008 66.1372 28.9179 66.059 28.9179C65.9857 28.9179 65.8757 28.9057 65.7291 28.8812C65.5874 28.8568 65.4481 28.8446 65.3113 28.8446C65.1109 28.8446 64.9325 28.8739 64.7761 28.9326C64.6198 28.9912 64.478 29.0767 64.351 29.1891C64.2288 29.2966 64.1188 29.4286 64.0211 29.585C63.9282 29.7413 63.8403 29.9197 63.7572 30.1201V34.7529H61.9466V27.2319H63.0095C63.1952 27.2319 63.3247 27.2661 63.398 27.3345C63.4713 27.398 63.5202 27.5153 63.5446 27.6864L63.6546 28.5367ZM72.0465 30.1274C72.0465 29.8928 72.0122 29.6729 71.9438 29.4677C71.8803 29.2575 71.7826 29.0743 71.6506 28.9179C71.5187 28.7615 71.3501 28.6393 71.1448 28.5514C70.9444 28.4585 70.7099 28.4121 70.4411 28.4121C69.9182 28.4121 69.5052 28.5611 69.2022 28.8592C68.9041 29.1574 68.7135 29.5801 68.6305 30.1274H72.0465ZM68.5938 31.2197C68.6231 31.6057 68.6916 31.9405 68.7991 32.2239C68.9066 32.5025 69.0483 32.7346 69.2242 32.9203C69.4002 33.1011 69.6079 33.238 69.8473 33.3308C70.0917 33.4188 70.3605 33.4628 70.6537 33.4628C70.9469 33.4628 71.1986 33.4286 71.4087 33.3601C71.6237 33.2917 71.8094 33.216 71.9658 33.1329C72.1271 33.0498 72.2664 32.9741 72.3837 32.9057C72.5058 32.8372 72.6231 32.803 72.7355 32.803C72.887 32.803 72.9994 32.8592 73.0727 32.9716L73.5932 33.6314C73.3928 33.8659 73.168 34.0639 72.9188 34.2251C72.6695 34.3815 72.4081 34.5086 72.1344 34.6063C71.8656 34.6992 71.5895 34.7651 71.3061 34.8042C71.0275 34.8433 70.7563 34.8629 70.4924 34.8629C69.9695 34.8629 69.4832 34.7774 69.0336 34.6063C68.584 34.4304 68.1931 34.1738 67.8608 33.8366C67.5285 33.4945 67.267 33.0743 67.0764 32.5758C66.8858 32.0724 66.7905 31.4909 66.7905 30.8311C66.7905 30.318 66.8736 29.8366 67.0398 29.387C67.2059 28.9326 67.4429 28.5392 67.7508 28.2068C68.0636 27.8696 68.4423 27.6033 68.887 27.4078C69.3366 27.2123 69.8424 27.1146 70.4044 27.1146C70.8785 27.1146 71.3159 27.1903 71.7166 27.3418C72.1173 27.4933 72.4618 27.7157 72.7502 28.0089C73.0385 28.2972 73.2633 28.654 73.4246 29.0792C73.5907 29.4994 73.6738 29.9808 73.6738 30.5233C73.6738 30.7969 73.6445 30.9826 73.5858 31.0804C73.5272 31.1732 73.4148 31.2197 73.2486 31.2197H68.5938ZM79.0057 31.5422C78.4828 31.5666 78.043 31.6131 77.6862 31.6815C77.3295 31.745 77.0436 31.8281 76.8285 31.9307C76.6135 32.0333 76.4596 32.1531 76.3667 32.2899C76.2739 32.4267 76.2274 32.5758 76.2274 32.7371C76.2274 33.0547 76.3203 33.282 76.506 33.4188C76.6966 33.5556 76.9434 33.624 77.2464 33.624C77.6178 33.624 77.9379 33.5581 78.2067 33.4261C78.4803 33.2893 78.7467 33.084 79.0057 32.8104V31.5422ZM74.8567 28.2801C75.7216 27.4885 76.7626 27.0926 77.9794 27.0926C78.4193 27.0926 78.8127 27.1659 79.1596 27.3125C79.5066 27.4542 79.7998 27.6546 80.0393 27.9136C80.2787 28.1677 80.4596 28.4732 80.5817 28.8299C80.7088 29.1867 80.7723 29.5776 80.7723 30.0028V34.7529H79.9513C79.7803 34.7529 79.6483 34.7285 79.5555 34.6796C79.4626 34.6259 79.3893 34.5208 79.3356 34.3644L79.1743 33.822C78.9837 33.993 78.798 34.1445 78.6172 34.2765C78.4364 34.4035 78.2482 34.511 78.0527 34.599C77.8572 34.687 77.6471 34.7529 77.4223 34.7969C77.2024 34.8458 76.958 34.8702 76.6893 34.8702C76.3716 34.8702 76.0784 34.8287 75.8096 34.7456C75.5408 34.6576 75.3087 34.5281 75.1132 34.3571C74.9177 34.186 74.7662 33.9735 74.6587 33.7193C74.5512 33.4652 74.4975 33.1696 74.4975 32.8324C74.4975 32.6418 74.5292 32.4536 74.5928 32.2679C74.6563 32.0773 74.7589 31.8965 74.9006 31.7255C75.0472 31.5544 75.2354 31.3931 75.4651 31.2416C75.6948 31.0901 75.9758 30.9582 76.3081 30.8458C76.6453 30.7334 77.0362 30.643 77.481 30.5746C77.9257 30.5013 78.4339 30.4573 79.0057 30.4426V30.0028C79.0057 29.4994 78.8982 29.128 78.6831 28.8886C78.4681 28.6442 78.1578 28.522 77.7522 28.522C77.459 28.522 77.2146 28.5563 77.0191 28.6247C76.8285 28.6931 76.6599 28.7713 76.5133 28.8592C76.3667 28.9423 76.2323 29.0181 76.1102 29.0865C75.9929 29.1549 75.8609 29.1891 75.7143 29.1891C75.5873 29.1891 75.4797 29.1574 75.3918 29.0938C75.3038 29.0254 75.2329 28.9472 75.1792 28.8592L74.8567 28.2801ZM87.0664 28.698C87.0176 28.7762 86.9662 28.8324 86.9125 28.8666C86.8587 28.8959 86.7903 28.9106 86.7072 28.9106C86.6193 28.9106 86.524 28.8861 86.4213 28.8373C86.3236 28.7884 86.2088 28.7346 86.0768 28.676C85.9449 28.6125 85.7934 28.5563 85.6223 28.5074C85.4562 28.4585 85.2583 28.4341 85.0286 28.4341C84.6718 28.4341 84.3908 28.5098 84.1856 28.6613C83.9852 28.8128 83.885 29.0107 83.885 29.2551C83.885 29.4164 83.9363 29.5532 84.039 29.6656C84.1465 29.7731 84.2857 29.8684 84.4568 29.9515C84.6327 30.0346 84.8306 30.1103 85.0506 30.1787C85.2705 30.2423 85.4928 30.3131 85.7176 30.3913C85.9473 30.4695 86.1721 30.5599 86.392 30.6625C86.6119 30.7603 86.8074 30.8873 86.9785 31.0437C87.1544 31.1952 87.2937 31.3785 87.3963 31.5935C87.5038 31.8085 87.5576 32.0675 87.5576 32.3705C87.5576 32.7322 87.4916 33.0669 87.3596 33.3748C87.2326 33.6778 87.042 33.9417 86.7879 34.1665C86.5337 34.3864 86.2185 34.5599 85.8422 34.687C85.4708 34.8091 85.0408 34.8702 84.5521 34.8702C84.2931 34.8702 84.039 34.8458 83.7897 34.7969C83.5454 34.7529 83.3084 34.6894 83.0787 34.6063C82.8539 34.5232 82.6437 34.4255 82.4482 34.3131C82.2577 34.2007 82.0891 34.0785 81.9424 33.9466L82.3603 33.2575C82.414 33.1744 82.4776 33.1109 82.5509 33.0669C82.6242 33.0229 82.717 33.001 82.8294 33.001C82.9418 33.001 83.0469 33.0327 83.1446 33.0962C83.2473 33.1598 83.3646 33.2282 83.4965 33.3015C83.6284 33.3748 83.7824 33.4432 83.9583 33.5068C84.1391 33.5703 84.3664 33.602 84.64 33.602C84.8551 33.602 85.0383 33.5776 85.1898 33.5287C85.3462 33.475 85.4733 33.4066 85.571 33.3235C85.6736 33.2404 85.7469 33.1451 85.7909 33.0376C85.8398 32.9252 85.8642 32.8104 85.8642 32.6931C85.8642 32.5171 85.8105 32.373 85.703 32.2606C85.6003 32.1482 85.4611 32.0504 85.2851 31.9674C85.1141 31.8843 84.9162 31.811 84.6914 31.7474C84.4714 31.679 84.2442 31.6057 84.0096 31.5275C83.7799 31.4493 83.5527 31.3589 83.3279 31.2563C83.108 31.1488 82.9101 31.0144 82.7341 30.8531C82.5631 30.6919 82.4238 30.4939 82.3163 30.2594C82.2137 30.0248 82.1624 29.7413 82.1624 29.409C82.1624 29.1012 82.2234 28.8079 82.3456 28.5294C82.4678 28.2508 82.6462 28.0089 82.8807 27.8037C83.1202 27.5935 83.4159 27.4274 83.7677 27.3052C84.1245 27.1781 84.535 27.1146 84.9992 27.1146C85.5173 27.1146 85.9889 27.2001 86.414 27.3712C86.8392 27.5422 87.1935 27.767 87.4769 28.0456L87.0664 28.698ZM93.7658 30.1274C93.7658 29.8928 93.7316 29.6729 93.6631 29.4677C93.5996 29.2575 93.5019 29.0743 93.3699 28.9179C93.238 28.7615 93.0694 28.6393 92.8641 28.5514C92.6638 28.4585 92.4292 28.4121 92.1604 28.4121C91.6375 28.4121 91.2246 28.5611 90.9216 28.8592C90.6235 29.1574 90.4329 29.5801 90.3498 30.1274H93.7658ZM90.3131 31.2197C90.3425 31.6057 90.4109 31.9405 90.5184 32.2239C90.6259 32.5025 90.7676 32.7346 90.9436 32.9203C91.1195 33.1011 91.3272 33.238 91.5666 33.3308C91.811 33.4188 92.0798 33.4628 92.373 33.4628C92.6662 33.4628 92.9179 33.4286 93.128 33.3601C93.3431 33.2917 93.5288 33.216 93.6851 33.1329C93.8464 33.0498 93.9857 32.9741 94.103 32.9057C94.2251 32.8372 94.3424 32.803 94.4548 32.803C94.6063 32.803 94.7187 32.8592 94.792 32.9716L95.3125 33.6314C95.1121 33.8659 94.8873 34.0639 94.6381 34.2251C94.3889 34.3815 94.1274 34.5086 93.8537 34.6063C93.585 34.6992 93.3088 34.7651 93.0254 34.8042C92.7468 34.8433 92.4756 34.8629 92.2117 34.8629C91.6888 34.8629 91.2026 34.7774 90.753 34.6063C90.3034 34.4304 89.9124 34.1738 89.5801 33.8366C89.2478 33.4945 88.9863 33.0743 88.7957 32.5758C88.6051 32.0724 88.5098 31.4909 88.5098 30.8311C88.5098 30.318 88.5929 29.8366 88.7591 29.387C88.9252 28.9326 89.1623 28.5392 89.4701 28.2068C89.7829 27.8696 90.1616 27.6033 90.6063 27.4078C91.056 27.2123 91.5618 27.1146 92.1238 27.1146C92.5978 27.1146 93.0352 27.1903 93.4359 27.3418C93.8366 27.4933 94.1812 27.7157 94.4695 28.0089C94.7578 28.2972 94.9826 28.654 95.1439 29.0792C95.3101 29.4994 95.3931 29.9808 95.3931 30.5233C95.3931 30.7969 95.3638 30.9826 95.3052 31.0804C95.2465 31.1732 95.1341 31.2197 94.968 31.2197H90.3131ZM102.194 27.2319V34.7529H100.376V27.2319H102.194ZM102.443 25.0401C102.443 25.1965 102.411 25.3431 102.347 25.4799C102.284 25.6167 102.198 25.7365 102.091 25.8391C101.988 25.9417 101.866 26.0248 101.724 26.0883C101.583 26.147 101.431 26.1763 101.27 26.1763C101.113 26.1763 100.964 26.147 100.823 26.0883C100.686 26.0248 100.566 25.9417 100.464 25.8391C100.361 25.7365 100.278 25.6167 100.214 25.4799C100.156 25.3431 100.126 25.1965 100.126 25.0401C100.126 24.8788 100.156 24.7273 100.214 24.5856C100.278 24.4439 100.361 24.3217 100.464 24.2191C100.566 24.1164 100.686 24.0358 100.823 23.9772C100.964 23.9136 101.113 23.8819 101.27 23.8819C101.431 23.8819 101.583 23.9136 101.724 23.9772C101.866 24.0358 101.988 24.1164 102.091 24.2191C102.198 24.3217 102.284 24.4439 102.347 24.5856C102.411 24.7273 102.443 24.8788 102.443 25.0401ZM105.733 28.1555C105.884 28.004 106.043 27.8648 106.209 27.7377C106.38 27.6057 106.559 27.4958 106.744 27.4078C106.935 27.315 107.138 27.2441 107.353 27.1952C107.568 27.1415 107.802 27.1146 108.056 27.1146C108.467 27.1146 108.831 27.1855 109.149 27.3272C109.466 27.464 109.73 27.6595 109.94 27.9136C110.155 28.1629 110.317 28.4634 110.424 28.8153C110.537 29.1622 110.593 29.5459 110.593 29.9661V34.7529H108.782V29.9661C108.782 29.5068 108.677 29.1525 108.467 28.9032C108.257 28.6491 107.937 28.522 107.507 28.522C107.194 28.522 106.901 28.5929 106.627 28.7346C106.353 28.8764 106.094 29.0694 105.85 29.3137V34.7529H104.039V27.2319H105.146C105.381 27.2319 105.535 27.3418 105.608 27.5618L105.733 28.1555ZM118.145 25.7218V28.6613H121.854V30.1787H118.145V33.1769H122.851V34.7529H116.166V24.1531H122.851V25.7218H118.145ZM128.865 33.1622C129.246 33.1622 129.586 33.0987 129.884 32.9716C130.187 32.8446 130.441 32.6662 130.646 32.4365C130.851 32.2068 131.008 31.9283 131.115 31.6008C131.228 31.2734 131.284 30.9069 131.284 30.5013V24.1531H133.256V30.5013C133.256 31.1317 133.153 31.7157 132.948 32.2532C132.748 32.7859 132.457 33.2477 132.076 33.6387C131.699 34.0248 131.24 34.3278 130.697 34.5477C130.155 34.7627 129.544 34.8702 128.865 34.8702C128.181 34.8702 127.567 34.7627 127.025 34.5477C126.482 34.3278 126.021 34.0248 125.639 33.6387C125.263 33.2477 124.972 32.7859 124.767 32.2532C124.567 31.7157 124.467 31.1317 124.467 30.5013V24.1531H126.439V30.4939C126.439 30.8996 126.492 31.2661 126.6 31.5935C126.712 31.9209 126.871 32.2019 127.076 32.4365C127.286 32.6662 127.541 32.8446 127.839 32.9716C128.142 33.0987 128.484 33.1622 128.865 33.1622ZM136.425 23.442C136.66 23.8281 136.819 24.2313 136.902 24.6516C136.985 25.067 136.992 25.4799 136.924 25.8904C136.855 26.296 136.711 26.687 136.491 27.0633C136.276 27.4347 135.986 27.7695 135.619 28.0676L135.047 27.723C134.998 27.6937 134.964 27.6595 134.945 27.6204C134.925 27.5764 134.915 27.5349 134.915 27.4958C134.92 27.4518 134.93 27.4103 134.945 27.3712C134.964 27.3321 134.989 27.2979 135.018 27.2685C135.121 27.1464 135.218 26.9851 135.311 26.7847C135.404 26.5844 135.467 26.3596 135.502 26.1103C135.541 25.8611 135.536 25.5948 135.487 25.3113C135.443 25.0279 135.333 24.7444 135.157 24.461C135.074 24.3193 135.05 24.1971 135.084 24.0945C135.123 23.9869 135.204 23.9112 135.326 23.8672L136.425 23.442ZM142.675 28.698C142.626 28.7762 142.575 28.8324 142.521 28.8666C142.467 28.8959 142.399 28.9106 142.316 28.9106C142.228 28.9106 142.132 28.8861 142.03 28.8373C141.932 28.7884 141.817 28.7346 141.685 28.676C141.553 28.6125 141.402 28.5563 141.231 28.5074C141.065 28.4585 140.867 28.4341 140.637 28.4341C140.28 28.4341 139.999 28.5098 139.794 28.6613C139.594 28.8128 139.493 29.0107 139.493 29.2551C139.493 29.4164 139.545 29.5532 139.647 29.6656C139.755 29.7731 139.894 29.8684 140.065 29.9515C140.241 30.0346 140.439 30.1103 140.659 30.1787C140.879 30.2423 141.101 30.3131 141.326 30.3913C141.556 30.4695 141.78 30.5599 142 30.6625C142.22 30.7603 142.416 30.8873 142.587 31.0437C142.763 31.1952 142.902 31.3785 143.005 31.5935C143.112 31.8085 143.166 32.0675 143.166 32.3705C143.166 32.7322 143.1 33.0669 142.968 33.3748C142.841 33.6778 142.65 33.9417 142.396 34.1665C142.142 34.3864 141.827 34.5599 141.451 34.687C141.079 34.8091 140.649 34.8702 140.16 34.8702C139.901 34.8702 139.647 34.8458 139.398 34.7969C139.154 34.7529 138.917 34.6894 138.687 34.6063C138.462 34.5232 138.252 34.4255 138.057 34.3131C137.866 34.2007 137.697 34.0785 137.551 33.9466L137.969 33.2575C138.022 33.1744 138.086 33.1109 138.159 33.0669C138.233 33.0229 138.325 33.001 138.438 33.001C138.55 33.001 138.655 33.0327 138.753 33.0962C138.856 33.1598 138.973 33.2282 139.105 33.3015C139.237 33.3748 139.391 33.4432 139.567 33.5068C139.747 33.5703 139.975 33.602 140.248 33.602C140.463 33.602 140.647 33.5776 140.798 33.5287C140.955 33.475 141.082 33.4066 141.179 33.3235C141.282 33.2404 141.355 33.1451 141.399 33.0376C141.448 32.9252 141.473 32.8104 141.473 32.6931C141.473 32.5171 141.419 32.373 141.311 32.2606C141.209 32.1482 141.069 32.0504 140.893 31.9674C140.722 31.8843 140.525 31.811 140.3 31.7474C140.08 31.679 139.853 31.6057 139.618 31.5275C139.388 31.4493 139.161 31.3589 138.936 31.2563C138.716 31.1488 138.518 31.0144 138.342 30.8531C138.171 30.6919 138.032 30.4939 137.925 30.2594C137.822 30.0248 137.771 29.7413 137.771 29.409C137.771 29.1012 137.832 28.8079 137.954 28.5294C138.076 28.2508 138.255 28.0089 138.489 27.8037C138.729 27.5935 139.024 27.4274 139.376 27.3052C139.733 27.1781 140.143 27.1146 140.608 27.1146C141.126 27.1146 141.597 27.2001 142.022 27.3712C142.448 27.5422 142.802 27.767 143.085 28.0456L142.675 28.698ZM16.7846 51.1256V52.7529H10.5757V42.1531H12.5476V51.1256H16.7846ZM27.1283 42.1531V52.7529H26.1167C25.9603 52.7529 25.8284 52.7285 25.7209 52.6796C25.6183 52.6259 25.5181 52.5379 25.4203 52.4157L19.8858 45.3492C19.9152 45.6717 19.9298 45.9698 19.9298 46.2435V52.7529H18.1925V42.1531H19.2261C19.3092 42.1531 19.38 42.158 19.4387 42.1678C19.5022 42.1726 19.556 42.1873 19.6 42.2117C19.6488 42.2313 19.6952 42.2631 19.7392 42.307C19.7832 42.3461 19.8321 42.3999 19.8858 42.4683L25.4423 49.5642C25.4277 49.3931 25.4154 49.2245 25.4057 49.0584C25.3959 48.8922 25.391 48.7383 25.391 48.5966V42.1531H27.1283ZM38.2267 47.4384V51.7267C37.6892 52.1225 37.115 52.4133 36.5041 52.599C35.8981 52.7798 35.2481 52.8702 34.5542 52.8702C33.6892 52.8702 32.9048 52.7358 32.2011 52.467C31.5023 52.1983 30.9036 51.8244 30.4051 51.3455C29.9116 50.8666 29.5304 50.2948 29.2616 49.6302C28.9928 48.9655 28.8584 48.2398 28.8584 47.453C28.8584 46.6564 28.9879 45.9258 29.2469 45.2612C29.5059 44.5966 29.8725 44.0248 30.3465 43.5459C30.8254 43.067 31.4045 42.6956 32.0838 42.4317C32.7631 42.1678 33.5255 42.0358 34.3709 42.0358C34.801 42.0358 35.2017 42.07 35.5731 42.1384C35.9494 42.2069 36.2964 42.3022 36.614 42.4243C36.9366 42.5416 37.2298 42.6858 37.4937 42.8568C37.7576 43.0279 37.9995 43.216 38.2194 43.4213L37.655 44.3156C37.567 44.4573 37.4522 44.5453 37.3104 44.5795C37.1687 44.6088 37.0148 44.5721 36.8486 44.4695C36.6873 44.3767 36.5261 44.2838 36.3648 44.191C36.2035 44.0981 36.0227 44.0175 35.8224 43.9491C35.6269 43.8806 35.4045 43.8244 35.1553 43.7805C34.9109 43.7365 34.6275 43.7145 34.3049 43.7145C33.782 43.7145 33.308 43.8025 32.8828 43.9784C32.4626 44.1543 32.1034 44.406 31.8053 44.7334C31.5072 45.0608 31.2775 45.4542 31.1162 45.9136C30.9549 46.373 30.8743 46.8861 30.8743 47.453C30.8743 48.059 30.9598 48.6015 31.1309 49.0804C31.3068 49.5544 31.5511 49.9576 31.8639 50.2899C32.1816 50.6173 32.5627 50.869 33.0075 51.0449C33.4522 51.216 33.9482 51.3015 34.4955 51.3015C34.8865 51.3015 35.2359 51.26 35.5438 51.1769C35.8517 51.0938 36.1522 50.9814 36.4454 50.8397V48.9191H35.1113C34.9842 48.9191 34.8841 48.8849 34.8107 48.8165C34.7423 48.7432 34.7081 48.6552 34.7081 48.5526V47.4384H38.2267ZM45.2823 45.2319V52.7529H43.4643V45.2319H45.2823ZM45.5315 43.0401C45.5315 43.1965 45.4998 43.3431 45.4362 43.4799C45.3727 43.6167 45.2872 43.7365 45.1797 43.8391C45.077 43.9417 44.9549 44.0248 44.8131 44.0883C44.6714 44.147 44.5199 44.1763 44.3587 44.1763C44.2023 44.1763 44.0532 44.147 43.9115 44.0883C43.7747 44.0248 43.6549 43.9417 43.5523 43.8391C43.4497 43.7365 43.3666 43.6167 43.3031 43.4799C43.2444 43.3431 43.2151 43.1965 43.2151 43.0401C43.2151 42.8788 43.2444 42.7273 43.3031 42.5856C43.3666 42.4439 43.4497 42.3217 43.5523 42.2191C43.6549 42.1164 43.7747 42.0358 43.9115 41.9772C44.0532 41.9136 44.2023 41.8819 44.3587 41.8819C44.5199 41.8819 44.6714 41.9136 44.8131 41.9772C44.9549 42.0358 45.077 42.1164 45.1797 42.2191C45.2872 42.3217 45.3727 42.4439 45.4362 42.5856C45.4998 42.7273 45.5315 42.8788 45.5315 43.0401ZM47.1282 52.7529V45.2319H48.2351C48.4697 45.2319 48.6236 45.3418 48.6969 45.5618L48.8142 46.1189C48.9461 45.9723 49.083 45.8379 49.2247 45.7157C49.3713 45.5935 49.5253 45.4885 49.6865 45.4005C49.8527 45.3125 50.0286 45.2441 50.2143 45.1952C50.4049 45.1415 50.6126 45.1146 50.8374 45.1146C51.3114 45.1146 51.7 45.2441 52.0029 45.5031C52.3108 45.7572 52.5405 46.0969 52.692 46.522C52.8093 46.2728 52.9559 46.0602 53.1318 45.8843C53.3078 45.7035 53.5008 45.5569 53.7109 45.4445C53.9211 45.3321 54.1434 45.249 54.378 45.1952C54.6175 45.1415 54.8569 45.1146 55.0964 45.1146C55.5118 45.1146 55.8808 45.1781 56.2033 45.3052C56.5258 45.4323 56.7971 45.618 57.017 45.8623C57.2369 46.1067 57.403 46.4048 57.5154 46.7566C57.6327 47.1085 57.6914 47.5117 57.6914 47.9661V52.7529H55.8808V47.9661C55.8808 47.4872 55.7757 47.128 55.5655 46.8886C55.3554 46.6442 55.0475 46.522 54.6419 46.522C54.4562 46.522 54.2827 46.5538 54.1214 46.6173C53.9651 46.6809 53.8258 46.7737 53.7036 46.8959C53.5863 47.0132 53.4935 47.1622 53.4251 47.3431C53.3566 47.5239 53.3224 47.7316 53.3224 47.9661V52.7529H51.5045V47.9661C51.5045 47.4628 51.4018 47.0963 51.1966 46.8666C50.9962 46.6369 50.7006 46.522 50.3096 46.522C50.0457 46.522 49.7989 46.588 49.5692 46.72C49.3444 46.847 49.1343 47.023 48.9388 47.2478V52.7529H47.1282ZM61.223 50.803C61.4283 51.0523 61.6507 51.2282 61.8901 51.3308C62.1345 51.4334 62.3984 51.4848 62.6818 51.4848C62.9555 51.4848 63.2023 51.4334 63.4222 51.3308C63.6421 51.2282 63.8278 51.0718 63.9793 50.8617C64.1357 50.6515 64.2554 50.3876 64.3385 50.07C64.4216 49.7474 64.4631 49.3687 64.4631 48.9338C64.4631 48.4939 64.4265 48.1225 64.3531 47.8195C64.2847 47.5117 64.1845 47.2624 64.0526 47.0718C63.9207 46.8812 63.7594 46.742 63.5688 46.654C63.3831 46.566 63.1705 46.522 62.931 46.522C62.5547 46.522 62.2346 46.6027 61.9708 46.764C61.7069 46.9203 61.4576 47.1427 61.223 47.431V50.803ZM61.1277 46.2582C61.4356 45.9112 61.785 45.6302 62.176 45.4151C62.567 45.2001 63.0263 45.0926 63.5541 45.0926C63.9646 45.0926 64.3385 45.1781 64.6757 45.3492C65.0178 45.5202 65.311 45.7695 65.5553 46.0969C65.8046 46.4194 65.9952 46.8202 66.1271 47.2991C66.264 47.7731 66.3324 48.318 66.3324 48.9338C66.3324 49.4958 66.2566 50.0162 66.1051 50.4952C65.9536 50.9741 65.7362 51.3895 65.4527 51.7413C65.1742 52.0932 64.8345 52.3693 64.4338 52.5697C64.0379 52.7651 63.5932 52.8629 63.0996 52.8629C62.6794 52.8629 62.3202 52.7994 62.0221 52.6723C61.724 52.5403 61.4576 52.3595 61.223 52.1298V55.2086H59.4124V45.2319H60.5193C60.7539 45.2319 60.9078 45.3418 60.9811 45.5618L61.1277 46.2582ZM71.0731 45.1146C71.6302 45.1146 72.136 45.205 72.5905 45.3858C73.0499 45.5666 73.4408 45.8232 73.7634 46.1555C74.0908 46.4878 74.3425 46.8935 74.5184 47.3724C74.6944 47.8513 74.7823 48.3864 74.7823 48.9777C74.7823 49.574 74.6944 50.1115 74.5184 50.5904C74.3425 51.0694 74.0908 51.4774 73.7634 51.8146C73.4408 52.1518 73.0499 52.4108 72.5905 52.5917C72.136 52.7725 71.6302 52.8629 71.0731 52.8629C70.5111 52.8629 70.0004 52.7725 69.541 52.5917C69.0817 52.4108 68.6883 52.1518 68.3608 51.8146C68.0383 51.4774 67.7866 51.0694 67.6058 50.5904C67.4299 50.1115 67.3419 49.574 67.3419 48.9777C67.3419 48.3864 67.4299 47.8513 67.6058 47.3724C67.7866 46.8935 68.0383 46.4878 68.3608 46.1555C68.6883 45.8232 69.0817 45.5666 69.541 45.3858C70.0004 45.205 70.5111 45.1146 71.0731 45.1146ZM71.0731 51.4701C71.6986 51.4701 72.1605 51.26 72.4586 50.8397C72.7616 50.4194 72.9131 49.8036 72.9131 48.9924C72.9131 48.1812 72.7616 47.563 72.4586 47.1378C72.1605 46.7126 71.6986 46.5001 71.0731 46.5001C70.4378 46.5001 69.9662 46.7151 69.6583 47.1451C69.3553 47.5703 69.2038 48.1861 69.2038 48.9924C69.2038 49.7988 69.3553 50.4145 69.6583 50.8397C69.9662 51.26 70.4378 51.4701 71.0731 51.4701ZM77.8716 46.5367C78.1062 46.0871 78.3848 45.7352 78.7073 45.4811C79.0299 45.2221 79.411 45.0926 79.8509 45.0926C80.1978 45.0926 80.4764 45.1684 80.6865 45.3199L80.5692 46.676C80.5448 46.764 80.5082 46.8275 80.4593 46.8666C80.4153 46.9008 80.3542 46.9179 80.276 46.9179C80.2027 46.9179 80.0928 46.9057 79.9462 46.8812C79.8044 46.8568 79.6652 46.8446 79.5283 46.8446C79.328 46.8446 79.1496 46.8739 78.9932 46.9326C78.8368 46.9912 78.6951 47.0767 78.568 47.1891C78.4459 47.2966 78.3359 47.4286 78.2382 47.585C78.1453 47.7413 78.0573 47.9197 77.9743 48.1201V52.7529H76.1636V45.2319H77.2266C77.4123 45.2319 77.5418 45.2661 77.6151 45.3345C77.6884 45.398 77.7373 45.5153 77.7617 45.6864L77.8716 46.5367ZM84.1399 52.8702C83.485 52.8702 82.9817 52.687 82.6298 52.3204C82.2828 51.949 82.1093 51.4383 82.1093 50.7884V46.588H81.3396C81.2419 46.588 81.1588 46.5563 81.0904 46.4927C81.022 46.4292 80.9878 46.3339 80.9878 46.2068V45.4885L82.1973 45.2905L82.5785 43.238C82.6029 43.1403 82.6493 43.0645 82.7178 43.0108C82.7862 42.957 82.8741 42.9301 82.9817 42.9301H83.9199V45.2979H85.9285V46.588H83.9199V50.6638C83.9199 50.8983 83.9761 51.0816 84.0885 51.2135C84.2058 51.3455 84.3647 51.4115 84.565 51.4115C84.6774 51.4115 84.7703 51.3992 84.8436 51.3748C84.9218 51.3455 84.9878 51.3162 85.0415 51.2868C85.1002 51.2575 85.1515 51.2306 85.1954 51.2062C85.2394 51.1769 85.2834 51.1622 85.3274 51.1622C85.3812 51.1622 85.4251 51.1769 85.4593 51.2062C85.4936 51.2306 85.5302 51.2697 85.5693 51.3235L86.1118 52.2031C85.8479 52.4231 85.5449 52.5892 85.2028 52.7016C84.8607 52.814 84.5064 52.8702 84.1399 52.8702ZM92.4854 41.8599V52.7529H90.6747V41.8599H92.4854ZM99.1348 48.1274C99.1348 47.8928 99.1005 47.6729 99.0321 47.4677C98.9686 47.2575 98.8709 47.0743 98.7389 46.9179C98.607 46.7615 98.4384 46.6393 98.2331 46.5514C98.0327 46.4585 97.7982 46.4121 97.5294 46.4121C97.0065 46.4121 96.5935 46.5611 96.2905 46.8592C95.9924 47.1574 95.8018 47.5801 95.7188 48.1274H99.1348ZM95.6821 49.2197C95.7114 49.6057 95.7799 49.9405 95.8874 50.2239C95.9949 50.5025 96.1366 50.7346 96.3125 50.9203C96.4885 51.1011 96.6962 51.238 96.9356 51.3308C97.18 51.4188 97.4488 51.4628 97.742 51.4628C98.0352 51.4628 98.2869 51.4286 98.497 51.3601C98.712 51.2917 98.8977 51.216 99.0541 51.1329C99.2154 51.0498 99.3547 50.9741 99.472 50.9057C99.5941 50.8372 99.7114 50.803 99.8238 50.803C99.9753 50.803 100.088 50.8592 100.161 50.9716L100.681 51.6314C100.481 51.8659 100.256 52.0639 100.007 52.2251C99.7578 52.3815 99.4964 52.5086 99.2227 52.6063C98.9539 52.6992 98.6778 52.7651 98.3944 52.8042C98.1158 52.8433 97.8446 52.8629 97.5807 52.8629C97.0578 52.8629 96.5715 52.7774 96.1219 52.6063C95.6723 52.4304 95.2814 52.1738 94.9491 51.8366C94.6168 51.4945 94.3553 51.0743 94.1647 50.5758C93.9741 50.0724 93.8788 49.4909 93.8788 48.8311C93.8788 48.318 93.9619 47.8366 94.1281 47.387C94.2942 46.9326 94.5312 46.5392 94.8391 46.2068C95.1519 45.8696 95.5306 45.6033 95.9753 45.4078C96.4249 45.2123 96.9307 45.1146 97.4927 45.1146C97.9668 45.1146 98.4042 45.1903 98.8049 45.3418C99.2056 45.4933 99.5501 45.7157 99.8385 46.0089C100.127 46.2972 100.352 46.654 100.513 47.0792C100.679 47.4994 100.762 47.9808 100.762 48.5233C100.762 48.7969 100.733 48.9826 100.674 49.0804C100.616 49.1732 100.503 49.2197 100.337 49.2197H95.6821ZM108.715 45.2319L105.732 52.7529H104.09L101.106 45.2319H102.602C102.739 45.2319 102.851 45.2637 102.939 45.3272C103.032 45.3907 103.093 45.4713 103.122 45.5691L104.574 49.5862C104.652 49.8207 104.72 50.0504 104.779 50.2752C104.838 50.5 104.889 50.7248 104.933 50.9496C104.982 50.7248 105.036 50.5 105.094 50.2752C105.153 50.0504 105.224 49.8207 105.307 49.5862L106.788 45.5691C106.822 45.4713 106.883 45.3907 106.971 45.3272C107.059 45.2637 107.164 45.2319 107.286 45.2319H108.715ZM114.297 48.1274C114.297 47.8928 114.263 47.6729 114.194 47.4677C114.131 47.2575 114.033 47.0743 113.901 46.9179C113.769 46.7615 113.6 46.6393 113.395 46.5514C113.195 46.4585 112.96 46.4121 112.691 46.4121C112.168 46.4121 111.756 46.5611 111.453 46.8592C111.154 47.1574 110.964 47.5801 110.881 48.1274H114.297ZM110.844 49.2197C110.873 49.6057 110.942 49.9405 111.049 50.2239C111.157 50.5025 111.299 50.7346 111.475 50.9203C111.65 51.1011 111.858 51.238 112.098 51.3308C112.342 51.4188 112.611 51.4628 112.904 51.4628C113.197 51.4628 113.449 51.4286 113.659 51.3601C113.874 51.2917 114.06 51.216 114.216 51.1329C114.377 51.0498 114.517 50.9741 114.634 50.9057C114.756 50.8372 114.873 50.803 114.986 50.803C115.137 50.803 115.25 50.8592 115.323 50.9716L115.843 51.6314C115.643 51.8659 115.418 52.0639 115.169 52.2251C114.92 52.3815 114.658 52.5086 114.385 52.6063C114.116 52.6992 113.84 52.7651 113.556 52.8042C113.278 52.8433 113.007 52.8629 112.743 52.8629C112.22 52.8629 111.734 52.7774 111.284 52.6063C110.834 52.4304 110.443 52.1738 110.111 51.8366C109.779 51.4945 109.517 51.0743 109.327 50.5758C109.136 50.0724 109.041 49.4909 109.041 48.8311C109.041 48.318 109.124 47.8366 109.29 47.387C109.456 46.9326 109.693 46.5392 110.001 46.2068C110.314 45.8696 110.693 45.6033 111.137 45.4078C111.587 45.2123 112.093 45.1146 112.655 45.1146C113.129 45.1146 113.566 45.1903 113.967 45.3418C114.368 45.4933 114.712 45.7157 115 46.0089C115.289 46.2972 115.514 46.654 115.675 47.0792C115.841 47.4994 115.924 47.9808 115.924 48.5233C115.924 48.7969 115.895 48.9826 115.836 49.0804C115.778 49.1732 115.665 49.2197 115.499 49.2197H110.844ZM119.116 41.8599V52.7529H117.305V41.8599H119.116ZM125.508 46.698C125.459 46.7762 125.408 46.8324 125.354 46.8666C125.301 46.8959 125.232 46.9106 125.149 46.9106C125.061 46.9106 124.966 46.8861 124.863 46.8373C124.766 46.7884 124.651 46.7346 124.519 46.676C124.387 46.6125 124.235 46.5563 124.064 46.5074C123.898 46.4585 123.7 46.4341 123.47 46.4341C123.114 46.4341 122.833 46.5098 122.627 46.6613C122.427 46.8128 122.327 47.0107 122.327 47.2551C122.327 47.4164 122.378 47.5532 122.481 47.6656C122.588 47.7731 122.728 47.8684 122.899 47.9515C123.075 48.0346 123.273 48.1103 123.492 48.1787C123.712 48.2423 123.935 48.3131 124.16 48.3913C124.389 48.4695 124.614 48.5599 124.834 48.6625C125.054 48.7603 125.249 48.8873 125.42 49.0437C125.596 49.1952 125.736 49.3785 125.838 49.5935C125.946 49.8085 125.999 50.0675 125.999 50.3705C125.999 50.7322 125.934 51.0669 125.802 51.3748C125.674 51.6778 125.484 51.9417 125.23 52.1665C124.976 52.3864 124.66 52.5599 124.284 52.687C123.913 52.8091 123.483 52.8702 122.994 52.8702C122.735 52.8702 122.481 52.8458 122.232 52.7969C121.987 52.7529 121.75 52.6894 121.521 52.6063C121.296 52.5232 121.086 52.4255 120.89 52.3131C120.7 52.2007 120.531 52.0785 120.384 51.9466L120.802 51.2575C120.856 51.1744 120.919 51.1109 120.993 51.0669C121.066 51.0229 121.159 51.001 121.271 51.001C121.384 51.001 121.489 51.0327 121.587 51.0962C121.689 51.1598 121.806 51.2282 121.938 51.3015C122.07 51.3748 122.224 51.4432 122.4 51.5068C122.581 51.5703 122.808 51.602 123.082 51.602C123.297 51.602 123.48 51.5776 123.632 51.5287C123.788 51.475 123.915 51.4066 124.013 51.3235C124.116 51.2404 124.189 51.1451 124.233 51.0376C124.282 50.9252 124.306 50.8104 124.306 50.6931C124.306 50.5171 124.252 50.373 124.145 50.2606C124.042 50.1482 123.903 50.0504 123.727 49.9674C123.556 49.8843 123.358 49.811 123.133 49.7474C122.913 49.679 122.686 49.6057 122.452 49.5275C122.222 49.4493 121.995 49.3589 121.77 49.2563C121.55 49.1488 121.352 49.0144 121.176 48.8531C121.005 48.6919 120.866 48.4939 120.758 48.2594C120.656 48.0248 120.604 47.7413 120.604 47.409C120.604 47.1012 120.665 46.8079 120.788 46.5294C120.91 46.2508 121.088 46.0089 121.323 45.8037C121.562 45.5935 121.858 45.4274 122.21 45.3052C122.566 45.1781 122.977 45.1146 123.441 45.1146C123.959 45.1146 124.431 45.2001 124.856 45.3712C125.281 45.5422 125.635 45.767 125.919 46.0456L125.508 46.698ZM10.8176 70.7529V64.5954L10.1652 64.4927C10.0235 64.4634 9.90864 64.4145 9.82067 64.3461C9.7376 64.2728 9.69606 64.1702 9.69606 64.0382V63.2979H10.8176V62.7407C10.8176 62.3107 10.8811 61.9246 11.0082 61.5825C11.1402 61.2404 11.3259 60.9497 11.5653 60.7102C11.8097 60.4708 12.1053 60.2875 12.4523 60.1604C12.7993 60.0334 13.1902 59.9698 13.6252 59.9698C13.9722 59.9698 14.2947 60.0163 14.5928 60.1091L14.5561 61.0181C14.5513 61.0865 14.5317 61.1427 14.4975 61.1867C14.4633 61.2258 14.4169 61.2576 14.3582 61.282C14.3045 61.3015 14.2409 61.3162 14.1676 61.326C14.0943 61.3309 14.0161 61.3333 13.9331 61.3333C13.718 61.3333 13.525 61.3577 13.354 61.4066C13.1878 61.4506 13.0461 61.5312 12.9288 61.6485C12.8115 61.7609 12.7211 61.9124 12.6576 62.103C12.5989 62.2887 12.5696 62.5208 12.5696 62.7994V63.2979H14.5268V64.588H12.6282V70.7529H10.8176ZM17.2523 64.5367C17.4868 64.0871 17.7654 63.7352 18.0879 63.4811C18.4105 63.2221 18.7917 63.0926 19.2315 63.0926C19.5785 63.0926 19.857 63.1684 20.0672 63.3199L19.9499 64.676C19.9254 64.764 19.8888 64.8275 19.8399 64.8666C19.7959 64.9008 19.7348 64.9179 19.6566 64.9179C19.5833 64.9179 19.4734 64.9057 19.3268 64.8812C19.1851 64.8568 19.0458 64.8446 18.9089 64.8446C18.7086 64.8446 18.5302 64.8739 18.3738 64.9326C18.2174 64.9912 18.0757 65.0767 17.9487 65.1891C17.8265 65.2966 17.7165 65.4286 17.6188 65.585C17.5259 65.7413 17.438 65.9197 17.3549 66.1201V70.7529H15.5443V63.2319H16.6072C16.7929 63.2319 16.9224 63.2661 16.9957 63.3345C17.069 63.398 17.1179 63.5153 17.1423 63.6864L17.2523 64.5367ZM24.1267 63.1146C24.6838 63.1146 25.1896 63.205 25.6441 63.3858C26.1035 63.5666 26.4945 63.8232 26.817 64.1555C27.1444 64.4878 27.3961 64.8935 27.572 65.3724C27.748 65.8513 27.8359 66.3864 27.8359 66.9777C27.8359 67.574 27.748 68.1115 27.572 68.5904C27.3961 69.0694 27.1444 69.4774 26.817 69.8146C26.4945 70.1518 26.1035 70.4108 25.6441 70.5917C25.1896 70.7725 24.6838 70.8629 24.1267 70.8629C23.5647 70.8629 23.054 70.7725 22.5947 70.5917C22.1353 70.4108 21.7419 70.1518 21.4145 69.8146C21.0919 69.4774 20.8402 69.0694 20.6594 68.5904C20.4835 68.1115 20.3955 67.574 20.3955 66.9777C20.3955 66.3864 20.4835 65.8513 20.6594 65.3724C20.8402 64.8935 21.0919 64.4878 21.4145 64.1555C21.7419 63.8232 22.1353 63.5666 22.5947 63.3858C23.054 63.205 23.5647 63.1146 24.1267 63.1146ZM24.1267 69.4701C24.7523 69.4701 25.2141 69.26 25.5122 68.8397C25.8152 68.4194 25.9667 67.8036 25.9667 66.9924C25.9667 66.1812 25.8152 65.563 25.5122 65.1378C25.2141 64.7126 24.7523 64.5001 24.1267 64.5001C23.4914 64.5001 23.0198 64.7151 22.712 65.1451C22.409 65.5703 22.2575 66.1861 22.2575 66.9924C22.2575 67.7988 22.409 68.4145 22.712 68.8397C23.0198 69.26 23.4914 69.4701 24.1267 69.4701ZM29.2173 70.7529V63.2319H30.3242C30.5587 63.2319 30.7127 63.3418 30.786 63.5618L30.9033 64.1189C31.0352 63.9723 31.1721 63.8379 31.3138 63.7157C31.4604 63.5935 31.6143 63.4885 31.7756 63.4005C31.9418 63.3125 32.1177 63.2441 32.3034 63.1952C32.494 63.1415 32.7017 63.1146 32.9265 63.1146C33.4005 63.1146 33.789 63.2441 34.092 63.5031C34.3999 63.7572 34.6296 64.0969 34.7811 64.522C34.8984 64.2728 35.045 64.0602 35.2209 63.8843C35.3968 63.7035 35.5899 63.5569 35.8 63.4445C36.0102 63.3321 36.2325 63.249 36.4671 63.1952C36.7065 63.1415 36.946 63.1146 37.1855 63.1146C37.6009 63.1146 37.9698 63.1781 38.2924 63.3052C38.6149 63.4323 38.8861 63.618 39.106 63.8623C39.326 64.1067 39.4921 64.4048 39.6045 64.7566C39.7218 65.1085 39.7804 65.5117 39.7804 65.9661V70.7529H37.9698V65.9661C37.9698 65.4872 37.8648 65.128 37.6546 64.8886C37.4445 64.6442 37.1366 64.522 36.731 64.522C36.5453 64.522 36.3718 64.5538 36.2105 64.6173C36.0541 64.6809 35.9149 64.7737 35.7927 64.8959C35.6754 65.0132 35.5825 65.1622 35.5141 65.3431C35.4457 65.5239 35.4115 65.7316 35.4115 65.9661V70.7529H33.5935V65.9661C33.5935 65.4628 33.4909 65.0963 33.2857 64.8666C33.0853 64.6369 32.7896 64.522 32.3987 64.522C32.1348 64.522 31.888 64.588 31.6583 64.72C31.4335 64.847 31.2234 65.023 31.0279 65.2478V70.7529H29.2173ZM51.3634 69.0669C51.5588 69.0669 51.7128 69.1231 51.8252 69.2355C51.9425 69.343 52.0011 69.4872 52.0011 69.668V70.7529H44.7293V70.1518C44.7293 70.0297 44.7537 69.9026 44.8026 69.7706C44.8564 69.6338 44.9394 69.5116 45.0518 69.4041L48.2699 66.1787C48.5387 65.9051 48.7782 65.6436 48.9883 65.3944C49.2033 65.1451 49.3817 64.8983 49.5234 64.654C49.6651 64.4096 49.7727 64.1629 49.846 63.9136C49.9242 63.6595 49.9632 63.3932 49.9632 63.1146C49.9632 62.8605 49.9266 62.6381 49.8533 62.4475C49.78 62.2521 49.6749 62.0883 49.5381 61.9564C49.4061 61.8244 49.2449 61.7267 49.0543 61.6632C48.8686 61.5948 48.6584 61.5605 48.4239 61.5605C48.2088 61.5605 48.0085 61.5923 47.8228 61.6558C47.6419 61.7145 47.4807 61.8 47.3389 61.9124C47.1972 62.0199 47.0775 62.147 46.9798 62.2936C46.882 62.4402 46.8087 62.6015 46.7598 62.7774C46.6768 63.0022 46.5692 63.1513 46.4373 63.2246C46.3054 63.2979 46.1148 63.315 45.8655 63.2759L44.9126 63.1073C44.9859 62.599 45.1276 62.1543 45.3377 61.7731C45.5479 61.3871 45.8093 61.067 46.1221 60.8128C46.4397 60.5538 46.8014 60.3608 47.207 60.2337C47.6175 60.1018 48.0573 60.0358 48.5265 60.0358C49.0152 60.0358 49.4623 60.1091 49.868 60.2557C50.2736 60.3974 50.6205 60.6003 50.9089 60.8642C51.1972 61.128 51.422 61.4457 51.5833 61.8171C51.7445 62.1885 51.8252 62.6015 51.8252 63.056C51.8252 63.4469 51.7665 63.8086 51.6493 64.1409C51.5369 64.4732 51.3829 64.7908 51.1874 65.0938C50.9968 65.3968 50.772 65.69 50.513 65.9735C50.254 66.2569 49.9828 66.5453 49.6994 66.8385L47.3096 69.2795C47.5393 69.2111 47.7666 69.1598 47.9914 69.1256C48.221 69.0865 48.4385 69.0669 48.6438 69.0669H51.3634ZM60.8135 65.453C60.8135 66.3767 60.7133 67.1806 60.5129 67.8647C60.3174 68.544 60.0438 69.106 59.6919 69.5507C59.3449 69.9954 58.932 70.3278 58.4531 70.5477C57.979 70.7627 57.4659 70.8702 56.9137 70.8702C56.3614 70.8702 55.8483 70.7627 55.3743 70.5477C54.9051 70.3278 54.4971 69.9954 54.1501 69.5507C53.8031 69.106 53.5319 68.544 53.3364 67.8647C53.1409 67.1806 53.0432 66.3767 53.0432 65.453C53.0432 64.5245 53.1409 63.7206 53.3364 63.0413C53.5319 62.362 53.8031 61.8 54.1501 61.3553C54.4971 60.9106 54.9051 60.5807 55.3743 60.3657C55.8483 60.1458 56.3614 60.0358 56.9137 60.0358C57.4659 60.0358 57.979 60.1458 58.4531 60.3657C58.932 60.5807 59.3449 60.9106 59.6919 61.3553C60.0438 61.8 60.3174 62.362 60.5129 63.0413C60.7133 63.7206 60.8135 64.5245 60.8135 65.453ZM58.9442 65.453C58.9442 64.6858 58.888 64.0505 58.7756 63.5471C58.6632 63.0437 58.5117 62.643 58.3211 62.3449C58.1354 62.0468 57.9204 61.8391 57.676 61.7218C57.4317 61.5996 57.1776 61.5386 56.9137 61.5386C56.6546 61.5386 56.403 61.5996 56.1586 61.7218C55.9192 61.8391 55.7066 62.0468 55.5209 62.3449C55.3352 62.643 55.1861 63.0437 55.0737 63.5471C54.9662 64.0505 54.9124 64.6858 54.9124 65.453C54.9124 66.2203 54.9662 66.8556 55.0737 67.3589C55.1861 67.8623 55.3352 68.263 55.5209 68.5611C55.7066 68.8592 55.9192 69.0694 56.1586 69.1915C56.403 69.3088 56.6546 69.3675 56.9137 69.3675C57.1776 69.3675 57.4317 69.3088 57.676 69.1915C57.9204 69.0694 58.1354 68.8592 58.3211 68.5611C58.5117 68.263 58.6632 67.8623 58.7756 67.3589C58.888 66.8556 58.9442 66.2203 58.9442 65.453ZM68.3723 69.0669C68.5678 69.0669 68.7217 69.1231 68.8341 69.2355C68.9514 69.343 69.01 69.4872 69.01 69.668V70.7529H61.7382V70.1518C61.7382 70.0297 61.7627 69.9026 61.8115 69.7706C61.8653 69.6338 61.9484 69.5116 62.0608 69.4041L65.2788 66.1787C65.5476 65.9051 65.7871 65.6436 65.9972 65.3944C66.2123 65.1451 66.3906 64.8983 66.5324 64.654C66.6741 64.4096 66.7816 64.1629 66.8549 63.9136C66.9331 63.6595 66.9722 63.3932 66.9722 63.1146C66.9722 62.8605 66.9355 62.6381 66.8622 62.4475C66.7889 62.2521 66.6839 62.0883 66.547 61.9564C66.4151 61.8244 66.2538 61.7267 66.0632 61.6632C65.8775 61.5948 65.6674 61.5605 65.4328 61.5605C65.2178 61.5605 65.0174 61.5923 64.8317 61.6558C64.6509 61.7145 64.4896 61.8 64.3479 61.9124C64.2062 62.0199 64.0864 62.147 63.9887 62.2936C63.8909 62.4402 63.8176 62.6015 63.7688 62.7774C63.6857 63.0022 63.5782 63.1513 63.4462 63.2246C63.3143 63.2979 63.1237 63.315 62.8745 63.2759L61.9215 63.1073C61.9948 62.599 62.1365 62.1543 62.3467 61.7731C62.5568 61.3871 62.8183 61.067 63.131 60.8128C63.4487 60.5538 63.8103 60.3608 64.2159 60.2337C64.6264 60.1018 65.0663 60.0358 65.5354 60.0358C66.0241 60.0358 66.4713 60.1091 66.8769 60.2557C67.2825 60.3974 67.6295 60.6003 67.9178 60.8642C68.2061 61.128 68.4309 61.4457 68.5922 61.8171C68.7535 62.1885 68.8341 62.6015 68.8341 63.056C68.8341 63.4469 68.7755 63.8086 68.6582 64.1409C68.5458 64.4732 68.3918 64.7908 68.1964 65.0938C68.0058 65.3968 67.781 65.69 67.522 65.9735C67.263 66.2569 66.9917 66.5453 66.7083 66.8385L64.3186 69.2795C64.5482 69.2111 64.7755 69.1598 65.0003 69.1256C65.23 69.0865 65.4474 69.0669 65.6527 69.0669H68.3723ZM77.2726 69.3968V70.7529H71.4082V69.3968H73.5561V63.2172C73.5561 62.9729 73.5634 62.7212 73.5781 62.4622L72.0533 63.7377C71.9654 63.8061 71.8774 63.8501 71.7894 63.8696C71.7064 63.8843 71.6257 63.8843 71.5475 63.8696C71.4742 63.855 71.4082 63.8305 71.3496 63.7963C71.291 63.7572 71.247 63.7157 71.2177 63.6717L70.6459 62.8874L73.8786 60.1384H75.3667V69.3968H77.2726ZM85.1564 70.8702C84.5015 70.8702 83.9982 70.687 83.6463 70.3204C83.2993 69.949 83.1259 69.4383 83.1259 68.7884V64.588H82.3562C82.2584 64.588 82.1753 64.5563 82.1069 64.4927C82.0385 64.4292 82.0043 64.3339 82.0043 64.2068V63.4885L83.2138 63.2905L83.595 61.238C83.6194 61.1403 83.6659 61.0645 83.7343 61.0108C83.8027 60.957 83.8907 60.9301 83.9982 60.9301H84.9365V63.2979H86.945V64.588H84.9365V68.6638C84.9365 68.8983 84.9927 69.0816 85.1051 69.2135C85.2224 69.3455 85.3812 69.4115 85.5816 69.4115C85.694 69.4115 85.7868 69.3992 85.8601 69.3748C85.9383 69.3455 86.0043 69.3162 86.058 69.2868C86.1167 69.2575 86.168 69.2306 86.212 69.2062C86.256 69.1769 86.2999 69.1622 86.3439 69.1622C86.3977 69.1622 86.4417 69.1769 86.4759 69.2062C86.5101 69.2306 86.5467 69.2697 86.5858 69.3235L87.1283 70.2031C86.8644 70.4231 86.5614 70.5892 86.2193 70.7016C85.8772 70.814 85.5229 70.8702 85.1564 70.8702ZM91.375 63.1146C91.9321 63.1146 92.4379 63.205 92.8924 63.3858C93.3518 63.5666 93.7428 63.8232 94.0653 64.1555C94.3927 64.4878 94.6444 64.8935 94.8203 65.3724C94.9963 65.8513 95.0842 66.3864 95.0842 66.9777C95.0842 67.574 94.9963 68.1115 94.8203 68.5904C94.6444 69.0694 94.3927 69.4774 94.0653 69.8146C93.7428 70.1518 93.3518 70.4108 92.8924 70.5917C92.4379 70.7725 91.9321 70.8629 91.375 70.8629C90.813 70.8629 90.3023 70.7725 89.843 70.5917C89.3836 70.4108 88.9902 70.1518 88.6628 69.8146C88.3402 69.4774 88.0885 69.0694 87.9077 68.5904C87.7318 68.1115 87.6438 67.574 87.6438 66.9777C87.6438 66.3864 87.7318 65.8513 87.9077 65.3724C88.0885 64.8935 88.3402 64.4878 88.6628 64.1555C88.9902 63.8232 89.3836 63.5666 89.843 63.3858C90.3023 63.205 90.813 63.1146 91.375 63.1146ZM91.375 69.4701C92.0006 69.4701 92.4624 69.26 92.7605 68.8397C93.0635 68.4194 93.215 67.8036 93.215 66.9924C93.215 66.1812 93.0635 65.563 92.7605 65.1378C92.4624 64.7126 92.0006 64.5001 91.375 64.5001C90.7397 64.5001 90.2681 64.7151 89.9602 65.1451C89.6572 65.5703 89.5058 66.1861 89.5058 66.9924C89.5058 67.7988 89.6572 68.4145 89.9602 68.8397C90.2681 69.26 90.7397 69.4701 91.375 69.4701ZM106.327 69.0669C106.523 69.0669 106.677 69.1231 106.789 69.2355C106.907 69.343 106.965 69.4872 106.965 69.668V70.7529H99.6934V70.1518C99.6934 70.0297 99.7178 69.9026 99.7667 69.7706C99.8204 69.6338 99.9035 69.5116 100.016 69.4041L103.234 66.1787C103.503 65.9051 103.742 65.6436 103.952 65.3944C104.167 65.1451 104.346 64.8983 104.487 64.654C104.629 64.4096 104.737 64.1629 104.81 63.9136C104.888 63.6595 104.927 63.3932 104.927 63.1146C104.927 62.8605 104.891 62.6381 104.817 62.4475C104.744 62.2521 104.639 62.0883 104.502 61.9564C104.37 61.8244 104.209 61.7267 104.018 61.6632C103.833 61.5948 103.622 61.5605 103.388 61.5605C103.173 61.5605 102.973 61.5923 102.787 61.6558C102.606 61.7145 102.445 61.8 102.303 61.9124C102.161 62.0199 102.042 62.147 101.944 62.2936C101.846 62.4402 101.773 62.6015 101.724 62.7774C101.641 63.0022 101.533 63.1513 101.401 63.2246C101.269 63.2979 101.079 63.315 100.83 63.2759L99.8766 63.1073C99.9499 62.599 100.092 62.1543 100.302 61.7731C100.512 61.3871 100.773 61.067 101.086 60.8128C101.404 60.5538 101.765 60.3608 102.171 60.2337C102.582 60.1018 103.021 60.0358 103.491 60.0358C103.979 60.0358 104.426 60.1091 104.832 60.2557C105.238 60.3974 105.585 60.6003 105.873 60.8642C106.161 61.128 106.386 61.4457 106.547 61.8171C106.709 62.1885 106.789 62.6015 106.789 63.056C106.789 63.4469 106.731 63.8086 106.613 64.1409C106.501 64.4732 106.347 64.7908 106.151 65.0938C105.961 65.3968 105.736 65.69 105.477 65.9735C105.218 66.2569 104.947 66.5453 104.663 66.8385L102.274 69.2795C102.503 69.2111 102.731 69.1598 102.955 69.1256C103.185 69.0865 103.403 69.0669 103.608 69.0669H106.327ZM115.778 65.453C115.778 66.3767 115.677 67.1806 115.477 67.8647C115.281 68.544 115.008 69.106 114.656 69.5507C114.309 69.9954 113.896 70.3278 113.417 70.5477C112.943 70.7627 112.43 70.8702 111.878 70.8702C111.325 70.8702 110.812 70.7627 110.338 70.5477C109.869 70.3278 109.461 69.9954 109.114 69.5507C108.767 69.106 108.496 68.544 108.3 67.8647C108.105 67.1806 108.007 66.3767 108.007 65.453C108.007 64.5245 108.105 63.7206 108.3 63.0413C108.496 62.362 108.767 61.8 109.114 61.3553C109.461 60.9106 109.869 60.5807 110.338 60.3657C110.812 60.1458 111.325 60.0358 111.878 60.0358C112.43 60.0358 112.943 60.1458 113.417 60.3657C113.896 60.5807 114.309 60.9106 114.656 61.3553C115.008 61.8 115.281 62.362 115.477 63.0413C115.677 63.7206 115.778 64.5245 115.778 65.453ZM113.908 65.453C113.908 64.6858 113.852 64.0505 113.74 63.5471C113.627 63.0437 113.476 62.643 113.285 62.3449C113.099 62.0468 112.884 61.8391 112.64 61.7218C112.396 61.5996 112.142 61.5386 111.878 61.5386C111.619 61.5386 111.367 61.5996 111.123 61.7218C110.883 61.8391 110.671 62.0468 110.485 62.3449C110.299 62.643 110.15 63.0437 110.038 63.5471C109.93 64.0505 109.877 64.6858 109.877 65.453C109.877 66.2203 109.93 66.8556 110.038 67.3589C110.15 67.8623 110.299 68.263 110.485 68.5611C110.671 68.8592 110.883 69.0694 111.123 69.1915C111.367 69.3088 111.619 69.3675 111.878 69.3675C112.142 69.3675 112.396 69.3088 112.64 69.1915C112.884 69.0694 113.099 68.8592 113.285 68.5611C113.476 68.263 113.627 67.8623 113.74 67.3589C113.852 66.8556 113.908 66.2203 113.908 65.453ZM123.336 69.0669C123.532 69.0669 123.686 69.1231 123.798 69.2355C123.915 69.343 123.974 69.4872 123.974 69.668V70.7529H116.702V70.1518C116.702 70.0297 116.727 69.9026 116.776 69.7706C116.829 69.6338 116.912 69.5116 117.025 69.4041L120.243 66.1787C120.512 65.9051 120.751 65.6436 120.961 65.3944C121.176 65.1451 121.355 64.8983 121.496 64.654C121.638 64.4096 121.746 64.1629 121.819 63.9136C121.897 63.6595 121.936 63.3932 121.936 63.1146C121.936 62.8605 121.9 62.6381 121.826 62.4475C121.753 62.2521 121.648 62.0883 121.511 61.9564C121.379 61.8244 121.218 61.7267 121.027 61.6632C120.842 61.5948 120.631 61.5605 120.397 61.5605C120.182 61.5605 119.981 61.5923 119.796 61.6558C119.615 61.7145 119.454 61.8 119.312 61.9124C119.17 62.0199 119.05 62.147 118.953 62.2936C118.855 62.4402 118.782 62.6015 118.733 62.7774C118.65 63.0022 118.542 63.1513 118.41 63.2246C118.278 63.2979 118.088 63.315 117.839 63.2759L116.886 63.1073C116.959 62.599 117.101 62.1543 117.311 61.7731C117.521 61.3871 117.782 61.067 118.095 60.8128C118.413 60.5538 118.774 60.3608 119.18 60.2337C119.59 60.1018 120.03 60.0358 120.499 60.0358C120.988 60.0358 121.435 60.1091 121.841 60.2557C122.247 60.3974 122.594 60.6003 122.882 60.8642C123.17 61.128 123.395 61.4457 123.556 61.8171C123.718 62.1885 123.798 62.6015 123.798 63.056C123.798 63.4469 123.74 63.8086 123.622 64.1409C123.51 64.4732 123.356 64.7908 123.16 65.0938C122.97 65.3968 122.745 65.69 122.486 65.9735C122.227 66.2569 121.956 66.5453 121.672 66.8385L119.283 69.2795C119.512 69.2111 119.74 69.1598 119.964 69.1256C120.194 69.0865 120.412 69.0669 120.617 69.0669H123.336ZM131.841 69.0669C132.036 69.0669 132.19 69.1231 132.303 69.2355C132.42 69.343 132.479 69.4872 132.479 69.668V70.7529H125.207V70.1518C125.207 70.0297 125.231 69.9026 125.28 69.7706C125.334 69.6338 125.417 69.5116 125.529 69.4041L128.747 66.1787C129.016 65.9051 129.256 65.6436 129.466 65.3944C129.681 65.1451 129.859 64.8983 130.001 64.654C130.143 64.4096 130.25 64.1629 130.323 63.9136C130.402 63.6595 130.441 63.3932 130.441 63.1146C130.441 62.8605 130.404 62.6381 130.331 62.4475C130.257 62.2521 130.152 62.0883 130.016 61.9564C129.884 61.8244 129.722 61.7267 129.532 61.6632C129.346 61.5948 129.136 61.5605 128.901 61.5605C128.686 61.5605 128.486 61.5923 128.3 61.6558C128.119 61.7145 127.958 61.8 127.816 61.9124C127.675 62.0199 127.555 62.147 127.457 62.2936C127.359 62.4402 127.286 62.6015 127.237 62.7774C127.154 63.0022 127.047 63.1513 126.915 63.2246C126.783 63.2979 126.592 63.315 126.343 63.2759L125.39 63.1073C125.463 62.599 125.605 62.1543 125.815 61.7731C126.025 61.3871 126.287 61.067 126.6 60.8128C126.917 60.5538 127.279 60.3608 127.684 60.2337C128.095 60.1018 128.535 60.0358 129.004 60.0358C129.493 60.0358 129.94 60.1091 130.345 60.2557C130.751 60.3974 131.098 60.6003 131.386 60.8642C131.675 61.128 131.899 61.4457 132.061 61.8171C132.222 62.1885 132.303 62.6015 132.303 63.056C132.303 63.4469 132.244 63.8086 132.127 64.1409C132.014 64.4732 131.86 64.7908 131.665 65.0938C131.474 65.3968 131.249 65.69 130.99 65.9735C130.731 66.2569 130.46 66.5453 130.177 66.8385L127.787 69.2795C128.017 69.2111 128.244 69.1598 128.469 69.1256C128.699 69.0865 128.916 69.0669 129.121 69.0669H131.841Z" fill="#134E78"/>
</svg>
