<svg width="230" height="165" viewBox="0 0 230 165" fill="none" xmlns="http://www.w3.org/2000/svg">
<rect width="229.127" height="164.341" fill="white"/>
<path d="M36.6459 69.2461L136.126 124.142" stroke="#B68A00" stroke-width="1.21375"/>
<path d="M115.994 135.703L16.2532 80.7543L89.4203 40.0653L188.863 94.7719L115.994 135.703Z" stroke="#B68A00" stroke-width="1.21375"/>
<path d="M189.196 94.606L89.4659 39.6634L111.979 27.3287L211.732 81.6609L189.196 94.606Z" stroke="#B68A00" stroke-width="1.21375"/>
<path d="M69.4012 50.7451L169.336 105.793" stroke="#B68A00" stroke-width="1.21375"/>
<path d="M94.7263 123.687L167.668 82.5911" stroke="#B68A00" stroke-width="1.21375"/>
<path d="M63.0321 106.399L135.974 65.3032" stroke="#B68A00" stroke-width="1.21375"/>
<path d="M33.3096 90.3249L106.252 49.2288" stroke="#B68A00" stroke-width="1.21375"/>
<path d="M42.4088 62.9673L55.9486 70.6398V89.1442L42.4088 81.4717V62.9673Z" fill="#336D97"/>
<path d="M43.7627 66.1267L45.3968 67.0527V69.286L43.7627 68.36V66.1267Z" fill="#FFC200"/>
<path d="M46.4706 67.4807L48.1047 68.4067V70.64L46.4706 69.714V67.4807Z" fill="#FFC200"/>
<path d="M49.1785 68.8347L50.8126 69.7607V71.994L49.1785 71.068V68.8347Z" fill="#FFC200"/>
<path d="M51.8864 70.1887L53.5205 71.1147V73.348L51.8864 72.422V70.1887Z" fill="#FFC200"/>
<path d="M43.7627 69.7373L45.3968 70.6633V72.8966L43.7627 71.9706V69.7373Z" fill="#FFC200"/>
<path d="M46.4706 71.0913L48.1047 72.0173V74.2506L46.4706 73.3246V71.0913Z" fill="#FFC200"/>
<path d="M49.1785 72.4453L50.8126 73.3713V75.6046L49.1785 74.6786V72.4453Z" fill="#FFC200"/>
<path d="M51.8864 73.7993L53.5205 74.7253V76.9586L51.8864 76.0326V73.7993Z" fill="#FFC200"/>
<path d="M43.7627 73.7993L45.3968 74.7253V76.9586L43.7627 76.0326V73.7993Z" fill="#FFC200"/>
<path d="M46.4706 75.1533L48.1047 76.0793V78.3126L46.4706 77.3866V75.1533Z" fill="#FFC200"/>
<path d="M49.1785 76.5073L50.8126 77.4333V79.6666L49.1785 78.7406V76.5073Z" fill="#FFC200"/>
<path d="M51.8864 77.8613L53.5205 78.7873V81.0206L51.8864 80.0946V77.8613Z" fill="#FFC200"/>
<path d="M69.4883 62.9673L55.9485 70.6398V89.1442L69.4883 81.4717V62.9673Z" fill="#5392BF"/>
<path d="M67.9629 66.5779L66.3288 67.5039V69.7372L67.9629 68.8112V66.5779Z" fill="#FFD550"/>
<path d="M65.255 67.9319L63.6209 68.8579V71.0912L65.255 70.1652V67.9319Z" fill="#FFD550"/>
<path d="M62.5471 69.2859L60.913 70.2119V72.4452L62.5471 71.5192V69.2859Z" fill="#FFD550"/>
<path d="M59.8394 70.6399L58.2052 71.5659V73.7992L59.8394 72.8732V70.6399Z" fill="#FFD550"/>
<path d="M67.9629 70.1885L66.3288 71.1145V73.3478L67.9629 72.4218V70.1885Z" fill="#FFD550"/>
<path d="M65.255 71.5425L63.6209 72.4685V74.7018L65.255 73.7758V71.5425Z" fill="#FFD550"/>
<path d="M62.5471 72.8965L60.913 73.8225V76.0558L62.5471 75.1298V72.8965Z" fill="#FFD550"/>
<path d="M59.8394 74.2505L58.2052 75.1765V77.4098L59.8394 76.4838V74.2505Z" fill="#FFD550"/>
<path d="M67.9629 74.2505L66.3288 75.1765V77.4098L67.9629 76.4838V74.2505Z" fill="#FFD550"/>
<path d="M65.255 75.6045L63.6209 76.5305V78.7638L65.255 77.8378V75.6045Z" fill="#FFD550"/>
<path d="M62.5471 76.9585L60.913 77.8845V80.1178L62.5471 79.1918V76.9585Z" fill="#FFD550"/>
<path d="M59.8394 78.3125L58.2052 79.2385V81.4718L59.8394 80.5458V78.3125Z" fill="#FFD550"/>
<path d="M55.9485 70.6399L42.4087 62.9673H69.4883L55.9485 70.6399Z" fill="#A1D3F6"/>
<path d="M55.9485 55.2947L42.4087 62.9672H69.4883L55.9485 55.2947Z" fill="#A1D3F6"/>
<path d="M72.4344 79.3452L85.9742 87.0178V105.522L72.4344 97.8496V79.3452Z" fill="#336D97"/>
<path d="M73.7885 82.5044L75.4226 83.4304V85.6637L73.7885 84.7377V82.5044Z" fill="#FFC200"/>
<path d="M76.4963 83.8584L78.1305 84.7844V87.0177L76.4963 86.0917V83.8584Z" fill="#FFC200"/>
<path d="M79.2045 85.2124L80.8386 86.1384V88.3717L79.2045 87.4457V85.2124Z" fill="#FFC200"/>
<path d="M81.9124 86.5664L83.5465 87.4924V89.7257L81.9124 88.7997V86.5664Z" fill="#FFC200"/>
<path d="M73.7885 86.115L75.4226 87.041V89.2743L73.7885 88.3483V86.115Z" fill="#FFC200"/>
<path d="M76.4963 87.469L78.1305 88.395V90.6283L76.4963 89.7023V87.469Z" fill="#FFC200"/>
<path d="M79.2045 88.823L80.8386 89.749V91.9823L79.2045 91.0563V88.823Z" fill="#FFC200"/>
<path d="M81.9124 90.177L83.5465 91.103V93.3363L81.9124 92.4103V90.177Z" fill="#FFC200"/>
<path d="M73.7885 90.177L75.4226 91.103V93.3363L73.7885 92.4103V90.177Z" fill="#FFC200"/>
<path d="M76.4963 91.531L78.1305 92.457V94.6903L76.4963 93.7643V91.531Z" fill="#FFC200"/>
<path d="M79.2045 92.8848L80.8386 93.8108V96.0441L79.2045 95.1181V92.8848Z" fill="#FFC200"/>
<path d="M81.9124 94.2388L83.5465 95.1648V97.3981L81.9124 96.4721V94.2388Z" fill="#FFC200"/>
<path d="M99.514 79.3452L85.9742 87.0178V105.522L99.514 97.8496V79.3452Z" fill="#5392BF"/>
<path d="M97.9889 82.9556L96.3548 83.8816V86.1149L97.9889 85.1889V82.9556Z" fill="#FFD550"/>
<path d="M95.281 84.3098L93.6469 85.2358V87.4691L95.281 86.5431V84.3098Z" fill="#FFD550"/>
<path d="M92.5731 85.6636L90.939 86.5896V88.8229L92.5731 87.8969V85.6636Z" fill="#FFD550"/>
<path d="M89.865 87.0176L88.2309 87.9436V90.1769L89.865 89.2509V87.0176Z" fill="#FFD550"/>
<path d="M97.9889 86.5664L96.3548 87.4924V89.7257L97.9889 88.7997V86.5664Z" fill="#FFD550"/>
<path d="M95.281 87.9202L93.6469 88.8462V91.0795L95.281 90.1535V87.9202Z" fill="#FFD550"/>
<path d="M92.5731 89.2742L90.939 90.2002V92.4335L92.5731 91.5075V89.2742Z" fill="#FFD550"/>
<path d="M89.865 90.6282L88.2309 91.5542V93.7875L89.865 92.8615V90.6282Z" fill="#FFD550"/>
<path d="M97.9889 90.6282L96.3548 91.5542V93.7875L97.9889 92.8615V90.6282Z" fill="#FFD550"/>
<path d="M95.281 91.9822L93.6469 92.9082V95.1415L95.281 94.2155V91.9822Z" fill="#FFD550"/>
<path d="M92.5731 93.3362L90.939 94.2622V96.4955L92.5731 95.5695V93.3362Z" fill="#FFD550"/>
<path d="M89.865 94.6902L88.2309 95.6162V97.8495L89.865 96.9235V94.6902Z" fill="#FFD550"/>
<path d="M85.9742 87.0178L72.4344 79.3453H99.514L85.9742 87.0178Z" fill="#A1D3F6"/>
<path d="M85.9742 71.6726L72.4344 79.3452H99.514L85.9742 71.6726Z" fill="#A1D3F6"/>
<path d="M102.461 59.9343L116 67.6069V86.1113L102.461 78.4387V59.9343Z" fill="#336D97"/>
<path d="M103.815 63.0935L105.449 64.0195V66.2528L103.815 65.3268V63.0935Z" fill="#FFC200"/>
<path d="M106.522 64.4475L108.156 65.3735V67.6068L106.522 66.6808V64.4475Z" fill="#FFC200"/>
<path d="M109.23 65.8013L110.864 66.7273V68.9606L109.23 68.0346V65.8013Z" fill="#FFC200"/>
<path d="M111.938 67.1553L113.572 68.0813V70.3146L111.938 69.3886V67.1553Z" fill="#FFC200"/>
<path d="M103.814 66.7041L105.449 67.6301V69.8634L103.814 68.9374V66.7041Z" fill="#FFC200"/>
<path d="M106.522 68.0581L108.156 68.9841V71.2174L106.522 70.2914V68.0581Z" fill="#FFC200"/>
<path d="M109.23 69.4119L110.864 70.3379V72.5712L109.23 71.6452V69.4119Z" fill="#FFC200"/>
<path d="M111.938 70.7661L113.572 71.6921V73.9254L111.938 72.9994V70.7661Z" fill="#FFC200"/>
<path d="M103.814 70.7661L105.449 71.6921V73.9254L103.814 72.9994V70.7661Z" fill="#FFC200"/>
<path d="M106.522 72.1201L108.156 73.0461V75.2794L106.522 74.3534V72.1201Z" fill="#FFC200"/>
<path d="M109.23 73.4739L110.864 74.3999V76.6332L109.23 75.7072V73.4739Z" fill="#FFC200"/>
<path d="M111.938 74.8279L113.572 75.7539V77.9872L111.938 77.0612V74.8279Z" fill="#FFC200"/>
<path d="M129.54 59.9343L116 67.6069V86.1113L129.54 78.4387V59.9343Z" fill="#5392BF"/>
<path d="M128.015 63.5449L126.381 64.4709V66.7042L128.015 65.7782V63.5449Z" fill="#FFD550"/>
<path d="M125.307 64.8989L123.673 65.8249V68.0582L125.307 67.1322V64.8989Z" fill="#FFD550"/>
<path d="M122.599 66.2529L120.965 67.1789V69.4122L122.599 68.4862V66.2529Z" fill="#FFD550"/>
<path d="M119.891 67.6069L118.257 68.5329V70.7662L119.891 69.8402V67.6069Z" fill="#FFD550"/>
<path d="M128.015 67.1555L126.381 68.0815V70.3148L128.015 69.3888V67.1555Z" fill="#FFD550"/>
<path d="M125.307 68.5095L123.673 69.4355V71.6688L125.307 70.7428V68.5095Z" fill="#FFD550"/>
<path d="M122.599 69.8635L120.965 70.7895V73.0228L122.599 72.0968V69.8635Z" fill="#FFD550"/>
<path d="M119.891 71.2173L118.257 72.1433V74.3766L119.891 73.4506V71.2173Z" fill="#FFD550"/>
<path d="M128.015 71.2173L126.381 72.1433V74.3766L128.015 73.4506V71.2173Z" fill="#FFD550"/>
<path d="M125.307 72.5713L123.673 73.4973V75.7306L125.307 74.8046V72.5713Z" fill="#FFD550"/>
<path d="M122.599 73.9255L120.965 74.8515V77.0848L122.599 76.1588V73.9255Z" fill="#FFD550"/>
<path d="M119.891 75.2795L118.257 76.2055V78.4388L119.891 77.5128V75.2795Z" fill="#FFD550"/>
<path d="M116 67.6069L102.46 59.9344H129.54L116 67.6069Z" fill="#A1D3F6"/>
<path d="M116 52.2617L102.46 59.9343H129.54L116 52.2617Z" fill="#A1D3F6"/>
<path d="M72.4344 42.04L85.9742 49.7126V68.217L72.4344 60.5444V42.04Z" fill="#336D97"/>
<path d="M73.7885 45.1992L75.4226 46.1252V48.3585L73.7885 47.4325V45.1992Z" fill="#FFC200"/>
<path d="M76.4963 46.5532L78.1305 47.4792V49.7125L76.4963 48.7865V46.5532Z" fill="#FFC200"/>
<path d="M79.2045 47.9072L80.8386 48.8332V51.0665L79.2045 50.1405V47.9072Z" fill="#FFC200"/>
<path d="M81.9124 49.2612L83.5465 50.1872V52.4205L81.9124 51.4945V49.2612Z" fill="#FFC200"/>
<path d="M73.7885 48.8098L75.4226 49.7358V51.9691L73.7885 51.0431V48.8098Z" fill="#FFC200"/>
<path d="M76.4963 50.1638L78.1305 51.0898V53.3231L76.4963 52.3971V50.1638Z" fill="#FFC200"/>
<path d="M79.2045 51.5178L80.8386 52.4438V54.6771L79.2045 53.7511V51.5178Z" fill="#FFC200"/>
<path d="M81.9124 52.8718L83.5465 53.7978V56.0311L81.9124 55.1051V52.8718Z" fill="#FFC200"/>
<path d="M73.7885 52.8718L75.4226 53.7978V56.0311L73.7885 55.1051V52.8718Z" fill="#FFC200"/>
<path d="M76.4963 54.2258L78.1305 55.1518V57.3851L76.4963 56.4591V54.2258Z" fill="#FFC200"/>
<path d="M79.2045 55.5798L80.8386 56.5058V58.7391L79.2045 57.8131V55.5798Z" fill="#FFC200"/>
<path d="M81.9124 56.9338L83.5465 57.8598V60.0931L81.9124 59.1671V56.9338Z" fill="#FFC200"/>
<path d="M99.514 42.04L85.9742 49.7126V68.217L99.514 60.5444V42.04Z" fill="#5392BF"/>
<path d="M97.9889 45.6506L96.3548 46.5766V48.8099L97.9889 47.8839V45.6506Z" fill="#FFD550"/>
<path d="M95.281 47.0046L93.6469 47.9306V50.1639L95.281 49.2379V47.0046Z" fill="#FFD550"/>
<path d="M92.5731 48.3586L90.939 49.2846V51.5179L92.5731 50.5919V48.3586Z" fill="#FFD550"/>
<path d="M89.865 49.7124L88.2309 50.6384V52.8717L89.865 51.9457V49.7124Z" fill="#FFD550"/>
<path d="M97.9889 49.2612L96.3548 50.1872V52.4205L97.9889 51.4945V49.2612Z" fill="#FFD550"/>
<path d="M95.281 50.6152L93.6469 51.5412V53.7745L95.281 52.8485V50.6152Z" fill="#FFD550"/>
<path d="M92.5731 51.969L90.939 52.895V55.1283L92.5731 54.2023V51.969Z" fill="#FFD550"/>
<path d="M89.865 53.3232L88.2309 54.2492V56.4825L89.865 55.5565V53.3232Z" fill="#FFD550"/>
<path d="M97.9889 53.3232L96.3548 54.2492V56.4825L97.9889 55.5565V53.3232Z" fill="#FFD550"/>
<path d="M95.281 54.677L93.6469 55.603V57.8363L95.281 56.9103V54.677Z" fill="#FFD550"/>
<path d="M92.5731 56.0313L90.939 56.9572V59.1905L92.5731 58.2645V56.0313Z" fill="#FFD550"/>
<path d="M89.865 57.385L88.2309 58.311V60.5443L89.865 59.6183V57.385Z" fill="#FFD550"/>
<path d="M85.9742 49.7124L72.4344 42.0399H99.514L85.9742 49.7124Z" fill="#A1D3F6"/>
<path d="M85.9742 34.3674L72.4344 42.04H99.514L85.9742 34.3674Z" fill="#A1D3F6"/>
<path d="M102.764 97.5425L116.304 105.215V123.719L102.764 116.047V97.5425Z" fill="#336D97"/>
<path d="M104.118 100.702L105.752 101.628V103.861L104.118 102.935V100.702Z" fill="#FFC200"/>
<path d="M106.826 102.056L108.46 102.982V105.215L106.826 104.289V102.056Z" fill="#FFC200"/>
<path d="M109.534 103.41L111.168 104.336V106.569L109.534 105.643V103.41Z" fill="#FFC200"/>
<path d="M112.242 104.764L113.876 105.69V107.923L112.242 106.997V104.764Z" fill="#FFC200"/>
<path d="M104.118 104.313L105.752 105.238V107.472L104.118 106.546V104.313Z" fill="#FFC200"/>
<path d="M106.826 105.667L108.46 106.593V108.826L106.826 107.9V105.667Z" fill="#FFC200"/>
<path d="M109.534 107.02L111.168 107.946V110.18L109.534 109.254V107.02Z" fill="#FFC200"/>
<path d="M112.242 108.375L113.876 109.301V111.534L112.242 110.608V108.375Z" fill="#FFC200"/>
<path d="M104.118 108.375L105.752 109.301V111.534L104.118 110.608V108.375Z" fill="#FFC200"/>
<path d="M106.826 109.728L108.46 110.654V112.888L106.826 111.962V109.728Z" fill="#FFC200"/>
<path d="M109.534 111.082L111.168 112.008V114.242L109.534 113.316V111.082Z" fill="#FFC200"/>
<path d="M112.242 112.436L113.876 113.362V115.596L112.242 114.67V112.436Z" fill="#FFC200"/>
<path d="M129.843 97.5425L116.303 105.215V123.719L129.843 116.047V97.5425Z" fill="#5392BF"/>
<path d="M128.318 101.153L126.684 102.079V104.312L128.318 103.386V101.153Z" fill="#FFD550"/>
<path d="M125.61 102.507L123.976 103.433V105.666L125.61 104.74V102.507Z" fill="#FFD550"/>
<path d="M122.902 103.861L121.268 104.787V107.02L122.902 106.094V103.861Z" fill="#FFD550"/>
<path d="M120.194 105.215L118.56 106.141V108.374L120.194 107.448V105.215Z" fill="#FFD550"/>
<path d="M128.318 104.764L126.684 105.69V107.923L128.318 106.997V104.764Z" fill="#FFD550"/>
<path d="M125.61 106.118L123.976 107.044V109.277L125.61 108.351V106.118Z" fill="#FFD550"/>
<path d="M122.902 107.472L121.268 108.398V110.631L122.902 109.705V107.472Z" fill="#FFD550"/>
<path d="M120.194 108.826L118.56 109.752V111.985L120.194 111.059V108.826Z" fill="#FFD550"/>
<path d="M128.318 108.826L126.684 109.752V111.985L128.318 111.059V108.826Z" fill="#FFD550"/>
<path d="M125.61 110.18L123.976 111.106V113.339L125.61 112.413V110.18Z" fill="#FFD550"/>
<path d="M122.902 111.533L121.268 112.459V114.693L122.902 113.767V111.533Z" fill="#FFD550"/>
<path d="M120.194 112.888L118.56 113.814V116.047L120.194 115.121V112.888Z" fill="#FFD550"/>
<path d="M116.303 105.215L102.764 97.5425H129.843L116.303 105.215Z" fill="#A1D3F6"/>
<path d="M116.303 89.8699L102.764 97.5424H129.843L116.303 89.8699Z" fill="#A1D3F6"/>
<path d="M135.216 78.1318L148.756 85.8044V104.309L135.216 96.6362V78.1318Z" fill="#336D97"/>
<path d="M136.57 81.2913L138.204 82.2173V84.4505L136.57 83.5245V81.2913Z" fill="#FFC200"/>
<path d="M139.278 82.6453L140.912 83.5713V85.8045L139.278 84.8786V82.6453Z" fill="#FFC200"/>
<path d="M141.986 83.9993L143.62 84.9253V87.1586L141.986 86.2326V83.9993Z" fill="#FFC200"/>
<path d="M144.694 85.3533L146.328 86.2793V88.5126L144.694 87.5866V85.3533Z" fill="#FFC200"/>
<path d="M136.57 84.9019L138.204 85.8279V88.0611L136.57 87.1351V84.9019Z" fill="#FFC200"/>
<path d="M139.278 86.2559L140.912 87.1819V89.4151L139.278 88.4891V86.2559Z" fill="#FFC200"/>
<path d="M141.986 87.6099L143.62 88.5359V90.7691L141.986 89.8432V87.6099Z" fill="#FFC200"/>
<path d="M144.694 88.9639L146.328 89.8899V92.1232L144.694 91.1972V88.9639Z" fill="#FFC200"/>
<path d="M136.57 88.9639L138.204 89.8899V92.1232L136.57 91.1972V88.9639Z" fill="#FFC200"/>
<path d="M139.278 90.3176L140.912 91.2436V93.4769L139.278 92.5509V90.3176Z" fill="#FFC200"/>
<path d="M141.986 91.6719L143.62 92.5979V94.8312L141.986 93.9052V91.6719Z" fill="#FFC200"/>
<path d="M144.694 93.0259L146.328 93.9519V96.1852L144.694 95.2592V93.0259Z" fill="#FFC200"/>
<path d="M162.296 78.1318L148.756 85.8044V104.309L162.296 96.6362V78.1318Z" fill="#5392BF"/>
<path d="M160.771 81.7424L159.136 82.6684V84.9017L160.771 83.9757V81.7424Z" fill="#FFD550"/>
<path d="M158.063 83.0964L156.428 84.0224V86.2557L158.063 85.3297V83.0964Z" fill="#FFD550"/>
<path d="M155.354 84.4502L153.72 85.3762V87.6095L155.354 86.6835V84.4502Z" fill="#FFD550"/>
<path d="M152.646 85.8042L151.012 86.7302V88.9635L152.646 88.0375V85.8042Z" fill="#FFD550"/>
<path d="M160.77 85.353L159.136 86.279V88.5123L160.77 87.5863V85.353Z" fill="#FFD550"/>
<path d="M158.063 86.7068L156.428 87.6328V89.8661L158.063 88.9401V86.7068Z" fill="#FFD550"/>
<path d="M155.354 88.0608L153.72 88.9868V91.2201L155.354 90.2941V88.0608Z" fill="#FFD550"/>
<path d="M152.646 89.4148L151.012 90.3408V92.5741L152.646 91.6481V89.4148Z" fill="#FFD550"/>
<path d="M160.77 89.4148L159.136 90.3408V92.5741L160.77 91.6481V89.4148Z" fill="#FFD550"/>
<path d="M158.063 90.7688L156.428 91.6948V93.9281L158.063 93.0021V90.7688Z" fill="#FFD550"/>
<path d="M155.354 92.1228L153.72 93.0488V95.2821L155.354 94.3561V92.1228Z" fill="#FFD550"/>
<path d="M152.646 93.4768L151.012 94.4028V96.6361L152.646 95.7101V93.4768Z" fill="#FFD550"/>
<path d="M148.756 85.8044L135.216 78.1319H162.296L148.756 85.8044Z" fill="#A1D3F6"/>
<path d="M148.756 70.4592L135.216 78.1318H162.296L148.756 70.4592Z" fill="#A1D3F6"/>
<path d="M135.161 30.2693L163.432 46.7929V69.5158L135.161 52.9922V30.2693Z" fill="#354856"/>
<path d="M191.574 30.1619L163.303 46.6854V69.4083L191.574 52.8848V30.1619Z" fill="#748490"/>
<path d="M163.303 46.7927L135.161 30.2692L191.574 30.2692L163.303 46.7927Z" fill="#D9D9D9"/>
<path d="M163.303 13.7456L135.161 30.2692L191.574 30.2692L163.303 13.7456Z" fill="#D9D9D9"/>
<path d="M177.551 8.03125L180.883 9.97563V34.3195L177.551 32.3118V8.03125Z" fill="#495F6F"/>
<path d="M184.216 8.03125L180.883 9.97563V34.3195L184.216 32.3118L184.216 8.03125Z" fill="#748490"/>
<path d="M180.883 9.97498L177.551 8.03108L184.216 8.03109L180.883 9.97498Z" fill="#D9D9D9"/>
<path d="M180.874 6.08437L177.551 8.02803L184.198 8.02848L180.874 6.08437Z" fill="#D9D9D9"/>
<path d="M194.142 60.7204L210.964 53.5789L215.143 63.4217L198.321 70.5633L194.142 60.7204Z" fill="#840032"/>
<path d="M191.318 65.3359L194.142 60.7204L198.321 70.5633L193.223 69.8231L191.318 65.3359Z" fill="#840032"/>
<path d="M194.66 68.1338C194.66 68.1338 189.211 72.0766 191.637 73.7447C194.064 75.4128 193.295 69.347 193.902 67.8305C194.508 66.314 194.66 68.1338 194.66 68.1338Z" stroke="#840032" stroke-width="0.606586"/>
<path d="M190.022 69.9045L192.883 71.4489" stroke="#B68A00" stroke-width="0.909879"/>
<path d="M204.579 63.6264C204.929 63.4164 205.035 63.1367 204.896 62.7872C204.844 62.6556 204.761 62.5691 204.647 62.5275C204.535 62.4828 204.4 62.4615 204.243 62.4633L204.579 63.6264ZM202.946 60.4371C202.848 60.4945 202.769 60.5534 202.709 60.6141C202.651 60.6738 202.608 60.7342 202.58 60.7953C202.554 60.8556 202.541 60.917 202.542 60.9795C202.543 61.0398 202.555 61.0995 202.578 61.1585C202.631 61.2923 202.718 61.3841 202.837 61.4338C202.956 61.4813 203.095 61.5063 203.253 61.5089L202.946 60.4371ZM203.957 61.4657C204.079 61.4542 204.202 61.4461 204.326 61.4414C204.449 61.4344 204.571 61.4361 204.69 61.4463C204.811 61.4534 204.928 61.4716 205.039 61.5009C205.153 61.5293 205.259 61.5739 205.356 61.6349C205.456 61.695 205.547 61.7734 205.627 61.8702C205.708 61.9669 205.777 62.0879 205.834 62.2331C205.92 62.4487 205.964 62.6662 205.968 62.8856C205.97 63.1028 205.93 63.3131 205.848 63.5165C205.765 63.7176 205.64 63.9052 205.472 64.0793C205.304 64.2512 205.093 64.3997 204.837 64.5247L204.964 64.9629C204.985 65.0283 204.979 65.0962 204.947 65.1669C204.918 65.2389 204.863 65.2907 204.784 65.3222L204.396 65.4764L204.185 64.7482C203.907 64.8088 203.628 64.8331 203.347 64.8211C203.068 64.8059 202.817 64.7548 202.593 64.6676L202.732 64.0648C202.744 64.0154 202.767 63.9692 202.803 63.9262C202.84 63.88 202.884 63.8466 202.936 63.8258C202.991 63.8042 203.052 63.7969 203.121 63.8038C203.188 63.8085 203.263 63.8182 203.345 63.8329C203.428 63.8445 203.518 63.856 203.615 63.8676C203.713 63.876 203.818 63.8735 203.931 63.8601L203.547 62.527C203.366 62.5465 203.181 62.5581 202.994 62.5617C202.808 62.5645 202.63 62.5394 202.459 62.4864C202.289 62.4334 202.13 62.3425 201.985 62.2139C201.841 62.0844 201.721 61.8982 201.625 61.6554C201.554 61.4762 201.52 61.287 201.525 61.088C201.53 60.889 201.575 60.6939 201.659 60.5028C201.746 60.3107 201.874 60.1311 202.044 59.9637C202.213 59.7941 202.427 59.6502 202.685 59.532L202.572 59.1394C202.551 59.074 202.556 59.0065 202.586 58.9367C202.617 58.8638 202.673 58.8116 202.752 58.78L203.14 58.6259L203.341 59.3187C203.604 59.2667 203.843 59.257 204.058 59.2897C204.276 59.3215 204.469 59.3709 204.637 59.438L204.529 59.9185C204.513 59.9906 204.49 60.0483 204.46 60.0918C204.431 60.1321 204.389 60.163 204.335 60.1847C204.301 60.1982 204.257 60.2065 204.203 60.2095C204.15 60.2094 204.092 60.2088 204.029 60.2078C203.964 60.2044 203.896 60.2029 203.822 60.2032C203.75 60.2003 203.675 60.2026 203.596 60.2101L203.957 61.4657Z" fill="white"/>
<path d="M122.866 21.6379L139.688 14.4963L143.867 24.3392L127.045 31.4807L122.866 21.6379Z" fill="#840032"/>
<path d="M120.042 26.2534L122.866 21.6379L127.045 31.4807L121.947 30.7406L120.042 26.2534Z" fill="#840032"/>
<path d="M123.384 29.0513C123.384 29.0513 117.935 32.9941 120.361 34.6622C122.788 36.3303 122.019 30.2644 122.626 28.748C123.233 27.2315 123.384 29.0513 123.384 29.0513Z" stroke="#840032" stroke-width="0.606586"/>
<path d="M118.654 30.9041L121.589 32.4972" stroke="#B68A00" stroke-width="0.909879"/>
<path d="M133.303 24.5436C133.653 24.3336 133.758 24.0539 133.62 23.7045C133.567 23.5729 133.484 23.4863 133.371 23.4448C133.258 23.4001 133.124 23.3787 132.967 23.3806L133.303 24.5436ZM131.669 21.3543C131.571 21.4117 131.492 21.4707 131.432 21.5313C131.374 21.591 131.331 21.6514 131.303 21.7126C131.277 21.7728 131.265 21.8342 131.266 21.8968C131.266 21.9571 131.278 22.0167 131.302 22.0757C131.355 22.2096 131.441 22.3014 131.561 22.3511C131.679 22.3985 131.818 22.4235 131.977 22.4262L131.669 21.3543ZM132.681 22.3829C132.802 22.3714 132.925 22.3633 133.049 22.3586C133.173 22.3517 133.294 22.3533 133.414 22.3636C133.535 22.3707 133.651 22.3888 133.763 22.4181C133.876 22.4465 133.982 22.4912 134.08 22.5522C134.18 22.6122 134.27 22.6907 134.351 22.7874C134.431 22.8842 134.5 23.0052 134.558 23.1504C134.644 23.3659 134.688 23.5834 134.691 23.8029C134.693 24.02 134.653 24.2303 134.571 24.4337C134.488 24.6348 134.363 24.8224 134.196 24.9966C134.028 25.1685 133.816 25.3169 133.561 25.4419L133.688 25.8802C133.709 25.9455 133.703 26.0135 133.67 26.0841C133.641 26.1562 133.587 26.2079 133.508 26.2395L133.12 26.3936L132.909 25.6655C132.631 25.726 132.352 25.7503 132.071 25.7383C131.792 25.7231 131.54 25.672 131.317 25.5849L131.455 24.982C131.467 24.9326 131.491 24.8864 131.526 24.8434C131.563 24.7973 131.608 24.7638 131.66 24.7431C131.714 24.7215 131.776 24.7141 131.844 24.7211C131.912 24.7258 131.987 24.7355 132.069 24.7502C132.152 24.7617 132.242 24.7732 132.339 24.7848C132.436 24.7932 132.542 24.7907 132.655 24.7774L132.271 23.4442C132.09 23.4638 131.905 23.4753 131.717 23.479C131.532 23.4817 131.354 23.4566 131.183 23.4036C131.012 23.3506 130.854 23.2598 130.708 23.1311C130.565 23.0016 130.445 22.8154 130.348 22.5726C130.277 22.3934 130.244 22.2043 130.249 22.0052C130.254 21.8062 130.299 21.6111 130.383 21.42C130.47 21.228 130.598 21.0483 130.768 20.8809C130.937 20.7113 131.15 20.5674 131.408 20.4492L131.296 20.0566C131.275 19.9913 131.28 19.9237 131.31 19.854C131.341 19.781 131.397 19.7288 131.476 19.6973L131.864 19.5431L132.064 20.2359C132.327 20.1839 132.567 20.1743 132.782 20.207C132.999 20.2388 133.192 20.2882 133.361 20.3552L133.252 20.8358C133.236 20.9078 133.213 20.9656 133.183 21.009C133.155 21.0493 133.113 21.0803 133.059 21.1019C133.025 21.1154 132.981 21.1237 132.927 21.1268C132.874 21.1266 132.816 21.126 132.752 21.125C132.688 21.1217 132.619 21.1201 132.546 21.1204C132.474 21.1175 132.398 21.1199 132.32 21.1274L132.681 22.3829Z" fill="white"/>
</svg>
