<svg width="229" height="165" viewBox="0 0 229 165" fill="none" xmlns="http://www.w3.org/2000/svg">
<rect width="229" height="164.25" fill="white"/>
<ellipse cx="47.7378" cy="56.1025" rx="43.9687" ry="45.1924" fill="#FFF0BF"/>
<path d="M14.8633 85.4692H81.0203C69.192 106.923 67.8052 110.757 68.7841 128.867H27.5074C28.9662 112.426 26.6781 102.962 14.8633 85.4692Z" fill="#FFF0BF"/>
<path d="M27.1768 111.484H69.2311V125.677C69.2311 127.479 67.7702 128.94 65.9681 128.94H30.4397C28.6376 128.94 27.1768 127.479 27.1768 125.677V111.484Z" fill="#134E78"/>
<rect x="30.1523" y="128.94" width="35.7065" height="10.1168" rx="3.26299" fill="#0A2D46"/>
<ellipse cx="57.2801" cy="40.0746" rx="14.6019" ry="14.6834" fill="#FFC200"/>
<path d="M23.852 38.0905C19.7732 36.2143 13.0025 43.8007 17.897 45.7585C22.7915 47.7163 14.7156 47.4716 15.5313 49.3478C16.3471 51.224 56.7266 51.6319 57.787 49.3478C58.8475 47.0637 45.0614 46.9822 48.4875 43.8007C51.9136 40.6193 44.4903 38.0905 40.8195 38.0905C37.1486 38.0905 42.1247 35.1538 36.3329 33.4408C30.5411 31.7277 28.5017 38.0905 28.5017 38.0905C28.5017 38.0905 27.9307 39.9667 23.852 38.0905Z" fill="white"/>
<path d="M69.6535 50.8617C77.2853 48.9099 76.9534 60.1627 82.1929 55.7099C87.4324 51.2571 93.466 65.7096 80.5671 66.4442C67.6682 67.1789 32.0413 68.0071 34.2441 65.4141C36.447 62.821 45.6455 62.7302 45.6455 62.7302C45.6455 62.7302 40.504 62.7791 45.7525 57.9185C51.0011 53.0579 62.2809 59.51 65.4071 58.3556C68.5334 57.2012 62.0218 52.8134 69.6535 50.8617Z" fill="white"/>
<path d="M107.055 46.744C107.558 46.6775 107.938 46.5088 108.195 46.238C108.456 45.9624 108.587 45.6036 108.587 45.1617C108.587 44.9811 108.554 44.8243 108.487 44.6913C108.425 44.5535 108.335 44.4323 108.216 44.3278C108.102 44.2232 107.967 44.133 107.81 44.0569C107.653 43.9809 107.482 43.9096 107.297 43.8431L107.055 46.744ZM106.598 39.2102C106.332 39.2435 106.107 39.3005 105.921 39.3813C105.736 39.4573 105.584 39.5523 105.465 39.6664C105.346 39.7804 105.258 39.9087 105.201 40.0513C105.149 40.1938 105.123 40.3435 105.123 40.5003C105.123 40.6809 105.154 40.84 105.216 40.9778C105.282 41.1109 105.37 41.2321 105.479 41.3414C105.593 41.4459 105.727 41.5409 105.879 41.6265C106.031 41.7072 106.197 41.7833 106.377 41.8545L106.598 39.2102ZM107.432 42.1967C107.774 42.3012 108.114 42.4176 108.452 42.5459C108.789 42.6694 109.091 42.831 109.357 43.0306C109.628 43.2301 109.846 43.4796 110.013 43.779C110.179 44.0736 110.262 44.4442 110.262 44.8909C110.262 45.3328 110.188 45.7485 110.041 46.1382C109.894 46.5231 109.678 46.8652 109.392 47.1645C109.107 47.4591 108.758 47.7015 108.345 47.8915C107.931 48.0769 107.458 48.1862 106.926 48.2194L106.841 49.2672C106.836 49.3764 106.789 49.4762 106.698 49.5665C106.613 49.6616 106.503 49.7091 106.37 49.7091H105.722L105.85 48.1838C105.294 48.1077 104.771 47.9557 104.282 47.7276C103.793 47.4995 103.377 47.2168 103.035 46.8794L103.576 46.074C103.624 46.0028 103.686 45.9457 103.762 45.903C103.842 45.8555 103.928 45.8317 104.018 45.8317C104.123 45.8317 104.234 45.8697 104.353 45.9457C104.472 46.017 104.607 46.1025 104.76 46.2023C104.912 46.2974 105.085 46.3948 105.28 46.4946C105.475 46.5943 105.705 46.668 105.971 46.7155L106.235 43.5295C105.898 43.4345 105.563 43.3228 105.23 43.1945C104.902 43.0662 104.605 42.8975 104.339 42.6885C104.078 42.4746 103.866 42.2062 103.705 41.883C103.543 41.5599 103.462 41.156 103.462 40.6714C103.462 40.3102 103.534 39.9586 103.676 39.6165C103.819 39.2696 104.028 38.9608 104.303 38.6899C104.584 38.4191 104.926 38.1957 105.33 38.0199C105.734 37.8441 106.197 37.7443 106.72 37.7206L106.798 36.8225C106.808 36.7085 106.855 36.6063 106.941 36.516C107.026 36.4257 107.138 36.3806 107.276 36.3806H107.924L107.81 37.7776C108.314 37.8584 108.749 38.0033 109.114 38.2124C109.48 38.4167 109.796 38.6471 110.062 38.9037L109.635 39.5523C109.573 39.6474 109.509 39.7186 109.442 39.7662C109.376 39.8137 109.295 39.8374 109.2 39.8374C109.129 39.8374 109.043 39.8161 108.943 39.7733C108.844 39.7258 108.732 39.6711 108.608 39.6094C108.485 39.5428 108.345 39.4763 108.188 39.4098C108.036 39.3433 107.867 39.2886 107.682 39.2459L107.432 42.1967ZM118.203 46.801V48.1196H112.501V46.801H114.59V40.7925C114.59 40.5549 114.597 40.3102 114.611 40.0584L113.128 41.2986C113.043 41.3651 112.957 41.4079 112.872 41.4269C112.791 41.4411 112.713 41.4411 112.637 41.4269C112.565 41.4126 112.501 41.3889 112.444 41.3556C112.387 41.3176 112.344 41.2772 112.316 41.2344L111.76 40.4718L114.903 37.799H116.35V46.801H118.203ZM119.708 47.1503C119.708 47.003 119.734 46.8628 119.787 46.7298C119.844 46.5967 119.92 46.4827 120.015 46.3876C120.11 46.2926 120.224 46.2166 120.357 46.1596C120.49 46.1025 120.632 46.074 120.784 46.074C120.936 46.074 121.077 46.1025 121.205 46.1596C121.338 46.2166 121.452 46.2926 121.547 46.3876C121.647 46.4827 121.725 46.5967 121.782 46.7298C121.839 46.8628 121.868 47.003 121.868 47.1503C121.868 47.3023 121.839 47.4449 121.782 47.5779C121.725 47.7062 121.647 47.8179 121.547 47.9129C121.452 48.008 121.338 48.0816 121.205 48.1339C121.077 48.1909 120.936 48.2194 120.784 48.2194C120.632 48.2194 120.49 48.1909 120.357 48.1339C120.224 48.0816 120.11 48.008 120.015 47.9129C119.92 47.8179 119.844 47.7062 119.787 47.5779C119.734 47.4449 119.708 47.3023 119.708 47.1503ZM126.612 46.8581C126.902 46.8581 127.156 46.8177 127.375 46.7369C127.593 46.6514 127.776 46.5349 127.923 46.3876C128.075 46.2403 128.19 46.0645 128.266 45.8602C128.342 45.6559 128.38 45.4349 128.38 45.1973C128.38 44.6319 128.223 44.2042 127.909 43.9144C127.596 43.6245 127.163 43.4796 126.612 43.4796C126.061 43.4796 125.628 43.6245 125.315 43.9144C125.001 44.2042 124.844 44.6319 124.844 45.1973C124.844 45.4349 124.882 45.6559 124.958 45.8602C125.034 46.0645 125.146 46.2403 125.293 46.3876C125.445 46.5349 125.631 46.6514 125.849 46.7369C126.068 46.8177 126.322 46.8581 126.612 46.8581ZM126.612 39.0249C126.351 39.0249 126.125 39.0653 125.935 39.1461C125.745 39.2269 125.586 39.3361 125.457 39.4739C125.334 39.607 125.241 39.7614 125.179 39.9372C125.122 40.113 125.094 40.2984 125.094 40.4932C125.094 40.6975 125.118 40.8971 125.165 41.0919C125.217 41.282 125.303 41.453 125.422 41.6051C125.54 41.7524 125.697 41.8712 125.892 41.9614C126.087 42.0517 126.327 42.0969 126.612 42.0969C126.897 42.0969 127.137 42.0517 127.332 41.9614C127.527 41.8712 127.683 41.7524 127.802 41.6051C127.921 41.453 128.004 41.282 128.052 41.0919C128.104 40.8971 128.13 40.6975 128.13 40.4932C128.13 40.2984 128.099 40.113 128.037 39.9372C127.976 39.7614 127.883 39.607 127.76 39.4739C127.636 39.3361 127.479 39.2269 127.289 39.1461C127.099 39.0653 126.873 39.0249 126.612 39.0249ZM128.351 42.7455C128.978 42.9498 129.442 43.2634 129.741 43.6863C130.04 44.1045 130.19 44.6176 130.19 45.2259C130.19 45.682 130.102 46.0954 129.926 46.466C129.755 46.8367 129.513 47.1527 129.199 47.414C128.886 47.6753 128.508 47.8773 128.066 48.0198C127.629 48.1624 127.144 48.2337 126.612 48.2337C126.08 48.2337 125.593 48.1624 125.151 48.0198C124.714 47.8773 124.338 47.6753 124.025 47.414C123.711 47.1527 123.466 46.8367 123.291 46.466C123.119 46.0954 123.034 45.682 123.034 45.2259C123.034 44.6176 123.184 44.1045 123.483 43.6863C123.782 43.2634 124.246 42.9498 124.873 42.7455C124.374 42.5364 123.999 42.2394 123.747 41.8545C123.5 41.4696 123.376 41.0064 123.376 40.4647C123.376 40.075 123.454 39.7115 123.611 39.3742C123.773 39.0368 123.996 38.7446 124.281 38.4975C124.566 38.2456 124.906 38.0508 125.301 37.913C125.7 37.7705 126.137 37.6992 126.612 37.6992C127.087 37.6992 127.522 37.7705 127.916 37.913C128.315 38.0508 128.658 38.2456 128.943 38.4975C129.228 38.7446 129.449 39.0368 129.606 39.3742C129.767 39.7115 129.848 40.075 129.848 40.4647C129.848 41.0064 129.722 41.4696 129.47 41.8545C129.223 42.2394 128.85 42.5364 128.351 42.7455ZM137.521 48.2337C136.884 48.2337 136.394 48.0555 136.052 47.6991C135.715 47.338 135.546 46.8414 135.546 46.2095V42.1254H134.798C134.703 42.1254 134.622 42.0945 134.555 42.0327C134.489 41.9709 134.456 41.8783 134.456 41.7547V41.0562L135.632 40.8638L136.002 38.8681C136.026 38.7731 136.071 38.6994 136.138 38.6471C136.204 38.5949 136.29 38.5687 136.394 38.5687H137.307V40.8709H139.26V42.1254H137.307V46.0883C137.307 46.3164 137.361 46.4946 137.471 46.6228C137.585 46.7511 137.739 46.8153 137.934 46.8153C138.043 46.8153 138.134 46.8034 138.205 46.7797C138.281 46.7511 138.345 46.7226 138.397 46.6941C138.454 46.6656 138.504 46.6395 138.547 46.6157C138.59 46.5872 138.632 46.573 138.675 46.573C138.727 46.573 138.77 46.5872 138.803 46.6157C138.837 46.6395 138.872 46.6775 138.91 46.7298L139.438 47.5851C139.181 47.7989 138.887 47.9604 138.554 48.0697C138.221 48.179 137.877 48.2337 137.521 48.2337ZM142.048 42.0755C142.276 41.6383 142.546 41.2962 142.86 41.0491C143.174 40.7973 143.544 40.6714 143.972 40.6714C144.309 40.6714 144.58 40.745 144.784 40.8923L144.67 42.2109C144.647 42.2964 144.611 42.3582 144.564 42.3962C144.521 42.4295 144.461 42.4461 144.385 42.4461C144.314 42.4461 144.207 42.4342 144.065 42.4105C143.927 42.3867 143.791 42.3748 143.658 42.3748C143.464 42.3748 143.29 42.4034 143.138 42.4604C142.986 42.5174 142.848 42.6005 142.725 42.7098C142.606 42.8144 142.499 42.9427 142.404 43.0947C142.314 43.2468 142.228 43.4202 142.147 43.615V48.1196H140.387V40.8068H141.42C141.601 40.8068 141.727 40.84 141.798 40.9066C141.869 40.9683 141.917 41.0824 141.941 41.2487L142.048 42.0755ZM147.529 40.8068V48.1196H145.762V40.8068H147.529ZM147.772 38.6757C147.772 38.8277 147.741 38.9703 147.679 39.1033C147.617 39.2364 147.534 39.3528 147.429 39.4526C147.33 39.5523 147.211 39.6331 147.073 39.6949C146.935 39.7519 146.788 39.7804 146.631 39.7804C146.479 39.7804 146.334 39.7519 146.196 39.6949C146.063 39.6331 145.947 39.5523 145.847 39.4526C145.747 39.3528 145.667 39.2364 145.605 39.1033C145.548 38.9703 145.519 38.8277 145.519 38.6757C145.519 38.5188 145.548 38.3715 145.605 38.2337C145.667 38.0959 145.747 37.9772 145.847 37.8774C145.947 37.7776 146.063 37.6992 146.196 37.6422C146.334 37.5804 146.479 37.5495 146.631 37.5495C146.788 37.5495 146.935 37.5804 147.073 37.6422C147.211 37.6992 147.33 37.7776 147.429 37.8774C147.534 37.9772 147.617 38.0959 147.679 38.2337C147.741 38.3715 147.772 38.5188 147.772 38.6757ZM151.106 37.5281V48.1196H149.345V37.5281H151.106ZM154.642 37.5281V48.1196H152.881V37.5281H154.642ZM158.221 40.8068V48.1196H156.453V40.8068H158.221ZM158.463 38.6757C158.463 38.8277 158.432 38.9703 158.37 39.1033C158.308 39.2364 158.225 39.3528 158.121 39.4526C158.021 39.5523 157.902 39.6331 157.764 39.6949C157.627 39.7519 157.479 39.7804 157.322 39.7804C157.17 39.7804 157.026 39.7519 156.888 39.6949C156.755 39.6331 156.638 39.5523 156.538 39.4526C156.439 39.3528 156.358 39.2364 156.296 39.1033C156.239 38.9703 156.211 38.8277 156.211 38.6757C156.211 38.5188 156.239 38.3715 156.296 38.2337C156.358 38.0959 156.439 37.9772 156.538 37.8774C156.638 37.7776 156.755 37.6992 156.888 37.6422C157.026 37.5804 157.17 37.5495 157.322 37.5495C157.479 37.5495 157.627 37.5804 157.764 37.6422C157.902 37.6992 158.021 37.7776 158.121 37.8774C158.225 37.9772 158.308 38.0959 158.37 38.2337C158.432 38.3715 158.463 38.5188 158.463 38.6757ZM163.251 40.6927C163.793 40.6927 164.285 40.7807 164.727 40.9565C165.173 41.1323 165.553 41.3817 165.867 41.7049C166.185 42.028 166.43 42.4224 166.601 42.888C166.772 43.3537 166.858 43.874 166.858 44.449C166.858 45.0287 166.772 45.5513 166.601 46.017C166.43 46.4827 166.185 46.8794 165.867 47.2073C165.553 47.5352 165.173 47.787 164.727 47.9628C164.285 48.1386 163.793 48.2265 163.251 48.2265C162.705 48.2265 162.208 48.1386 161.762 47.9628C161.315 47.787 160.932 47.5352 160.614 47.2073C160.3 46.8794 160.056 46.4827 159.88 46.017C159.709 45.5513 159.623 45.0287 159.623 44.449C159.623 43.874 159.709 43.3537 159.88 42.888C160.056 42.4224 160.3 42.028 160.614 41.7049C160.932 41.3817 161.315 41.1323 161.762 40.9565C162.208 40.7807 162.705 40.6927 163.251 40.6927ZM163.251 46.8723C163.859 46.8723 164.309 46.668 164.598 46.2593C164.893 45.8507 165.04 45.252 165.04 44.4632C165.04 43.6744 164.893 43.0733 164.598 42.6599C164.309 42.2465 163.859 42.0398 163.251 42.0398C162.634 42.0398 162.175 42.2489 161.876 42.6671C161.581 43.0805 161.434 43.6792 161.434 44.4632C161.434 45.2472 161.581 45.8459 161.876 46.2593C162.175 46.668 162.634 46.8723 163.251 46.8723ZM169.847 41.7049C169.995 41.5576 170.149 41.4221 170.311 41.2986C170.477 41.1703 170.65 41.0634 170.831 40.9778C171.016 40.8876 171.213 40.8187 171.423 40.7711C171.632 40.7189 171.86 40.6927 172.107 40.6927C172.506 40.6927 172.86 40.7616 173.169 40.8994C173.478 41.0325 173.734 41.2226 173.939 41.4696C174.148 41.712 174.304 42.0042 174.409 42.3463C174.518 42.6837 174.573 43.0567 174.573 43.4654V48.1196H172.812V43.4654C172.812 43.0187 172.71 42.6742 172.506 42.4319C172.302 42.1848 171.99 42.0612 171.572 42.0612C171.268 42.0612 170.983 42.1301 170.717 42.2679C170.451 42.4057 170.199 42.5934 169.961 42.831V48.1196H168.201V40.8068H169.277C169.505 40.8068 169.655 40.9137 169.726 41.1275L169.847 41.7049Z" fill="#B68A00"/>
<path d="M181.538 40.8068V48.1196H179.771V40.8068H181.538ZM181.78 38.6757C181.78 38.8277 181.75 38.9703 181.688 39.1033C181.626 39.2364 181.543 39.3528 181.438 39.4526C181.339 39.5523 181.22 39.6331 181.082 39.6949C180.944 39.7519 180.797 39.7804 180.64 39.7804C180.488 39.7804 180.343 39.7519 180.205 39.6949C180.072 39.6331 179.956 39.5523 179.856 39.4526C179.756 39.3528 179.675 39.2364 179.614 39.1033C179.557 38.9703 179.528 38.8277 179.528 38.6757C179.528 38.5188 179.557 38.3715 179.614 38.2337C179.675 38.0959 179.756 37.9772 179.856 37.8774C179.956 37.7776 180.072 37.6992 180.205 37.6422C180.343 37.5804 180.488 37.5495 180.64 37.5495C180.797 37.5495 180.944 37.5804 181.082 37.6422C181.22 37.6992 181.339 37.7776 181.438 37.8774C181.543 37.9772 181.626 38.0959 181.688 38.2337C181.75 38.3715 181.78 38.5188 181.78 38.6757ZM184.979 41.7049C185.127 41.5576 185.281 41.4221 185.443 41.2986C185.609 41.1703 185.782 41.0634 185.963 40.9778C186.148 40.8876 186.346 40.8187 186.555 40.7711C186.764 40.7189 186.992 40.6927 187.239 40.6927C187.638 40.6927 187.992 40.7616 188.301 40.8994C188.61 41.0325 188.866 41.2226 189.071 41.4696C189.28 41.712 189.436 42.0042 189.541 42.3463C189.65 42.6837 189.705 43.0567 189.705 43.4654V48.1196H187.944V43.4654C187.944 43.0187 187.842 42.6742 187.638 42.4319C187.434 42.1848 187.122 42.0612 186.704 42.0612C186.4 42.0612 186.115 42.1301 185.849 42.2679C185.583 42.4057 185.331 42.5934 185.093 42.831V48.1196H183.333V40.8068H184.409C184.637 40.8068 184.787 40.9137 184.858 41.1275L184.979 41.7049ZM106.1 61.285C106.318 61.285 106.508 61.2565 106.67 61.1995C106.831 61.1377 106.964 61.0546 107.069 60.95C107.178 60.8455 107.259 60.7196 107.311 60.5723C107.368 60.425 107.397 60.2634 107.397 60.0876C107.397 59.7265 107.287 59.4414 107.069 59.2323C106.855 59.0185 106.532 58.9116 106.1 58.9116C105.667 58.9116 105.342 59.0185 105.123 59.2323C104.909 59.4414 104.802 59.7265 104.802 60.0876C104.802 60.2587 104.828 60.4178 104.881 60.5651C104.938 60.7124 105.019 60.8407 105.123 60.95C105.232 61.0546 105.368 61.1377 105.529 61.1995C105.696 61.2565 105.886 61.285 106.1 61.285ZM108.088 65.4475C108.088 65.3049 108.045 65.1885 107.96 65.0982C107.874 65.008 107.758 64.9391 107.611 64.8915C107.463 64.8393 107.29 64.8013 107.09 64.7775C106.895 64.7537 106.686 64.7371 106.463 64.7276C106.244 64.7134 106.016 64.7015 105.779 64.692C105.546 64.6825 105.318 64.6635 105.095 64.635C104.9 64.7442 104.741 64.8725 104.617 65.0198C104.498 65.1671 104.439 65.3382 104.439 65.533C104.439 65.6613 104.47 65.7801 104.531 65.8894C104.598 66.0034 104.7 66.1009 104.838 66.1816C104.98 66.2624 105.163 66.3242 105.387 66.3669C105.61 66.4145 105.883 66.4382 106.206 66.4382C106.534 66.4382 106.817 66.4121 107.055 66.3598C107.292 66.3123 107.487 66.2434 107.639 66.1531C107.796 66.0676 107.91 65.9631 107.981 65.8395C108.052 65.7207 108.088 65.59 108.088 65.4475ZM109.841 58.0562V58.712C109.841 58.9211 109.716 59.0494 109.464 59.0969L108.808 59.218C108.908 59.4699 108.958 59.7455 108.958 60.0448C108.958 60.406 108.884 60.7338 108.737 61.0284C108.594 61.3183 108.395 61.5654 108.138 61.7697C107.881 61.974 107.577 62.1332 107.226 62.2472C106.879 62.3565 106.503 62.4112 106.1 62.4112C105.957 62.4112 105.819 62.404 105.686 62.3898C105.553 62.3755 105.422 62.3565 105.294 62.3328C105.066 62.4706 104.952 62.625 104.952 62.7961C104.952 62.9434 105.019 63.0526 105.152 63.1239C105.289 63.1904 105.47 63.238 105.693 63.2665C105.917 63.295 106.171 63.314 106.456 63.3235C106.741 63.3282 107.033 63.3425 107.333 63.3663C107.632 63.39 107.924 63.4328 108.209 63.4946C108.494 63.5516 108.749 63.6442 108.972 63.7725C109.195 63.9008 109.373 64.0766 109.506 64.3C109.644 64.5185 109.713 64.8013 109.713 65.1481C109.713 65.4713 109.632 65.7849 109.471 66.089C109.314 66.3931 109.084 66.6639 108.779 66.9015C108.48 67.1391 108.109 67.3292 107.668 67.4717C107.23 67.619 106.731 67.6927 106.171 67.6927C105.62 67.6927 105.14 67.638 104.731 67.5287C104.322 67.4242 103.983 67.2816 103.712 67.1011C103.441 66.9253 103.239 66.7209 103.106 66.4881C102.973 66.2553 102.906 66.0129 102.906 65.7611C102.906 65.419 103.009 65.1339 103.213 64.9058C103.422 64.673 103.707 64.4877 104.068 64.3499C103.873 64.2501 103.719 64.117 103.605 63.9507C103.491 63.7844 103.434 63.5658 103.434 63.295C103.434 63.1857 103.453 63.074 103.491 62.96C103.534 62.8412 103.593 62.7248 103.669 62.6107C103.75 62.4967 103.85 62.3898 103.968 62.29C104.087 62.1855 104.227 62.0928 104.389 62.012C104.018 61.8125 103.726 61.5464 103.512 61.2137C103.303 60.8811 103.199 60.4915 103.199 60.0448C103.199 59.6837 103.27 59.3582 103.412 59.0684C103.56 58.7738 103.762 58.5243 104.018 58.32C104.28 58.1109 104.586 57.9517 104.938 57.8424C105.294 57.7331 105.681 57.6785 106.1 57.6785C106.413 57.6785 106.708 57.7118 106.983 57.7783C107.259 57.84 107.511 57.9327 107.739 58.0562H109.841ZM112.74 54.5281V65.1196H110.979V54.5281H112.74ZM117.73 57.6927C118.271 57.6927 118.763 57.7807 119.205 57.9565C119.652 58.1323 120.032 58.3817 120.346 58.7049C120.664 59.028 120.909 59.4224 121.08 59.888C121.251 60.3537 121.336 60.874 121.336 61.449C121.336 62.0287 121.251 62.5513 121.08 63.017C120.909 63.4827 120.664 63.8794 120.346 64.2073C120.032 64.5352 119.652 64.787 119.205 64.9628C118.763 65.1386 118.271 65.2265 117.73 65.2265C117.183 65.2265 116.687 65.1386 116.24 64.9628C115.793 64.787 115.411 64.5352 115.093 64.2073C114.779 63.8794 114.534 63.4827 114.358 63.017C114.187 62.5513 114.102 62.0287 114.102 61.449C114.102 60.874 114.187 60.3537 114.358 59.888C114.534 59.4224 114.779 59.028 115.093 58.7049C115.411 58.3817 115.793 58.1323 116.24 57.9565C116.687 57.7807 117.183 57.6927 117.73 57.6927ZM117.73 63.8723C118.338 63.8723 118.787 63.668 119.077 63.2593C119.371 62.8507 119.519 62.252 119.519 61.4632C119.519 60.6744 119.371 60.0733 119.077 59.6599C118.787 59.2465 118.338 59.0398 117.73 59.0398C117.112 59.0398 116.653 59.2489 116.354 59.6671C116.06 60.0805 115.912 60.6792 115.912 61.4632C115.912 62.2472 116.06 62.8459 116.354 63.2593C116.653 63.668 117.112 63.8723 117.73 63.8723ZM124.44 63.2237C124.639 63.466 124.856 63.6371 125.088 63.7369C125.326 63.8367 125.576 63.8866 125.837 63.8866C126.108 63.8866 126.35 63.839 126.564 63.744C126.782 63.6442 126.968 63.4922 127.12 63.2879C127.272 63.0788 127.388 62.8151 127.469 62.4967C127.55 62.1736 127.59 61.7887 127.59 61.342C127.59 60.539 127.457 59.9593 127.191 59.6029C126.925 59.2418 126.542 59.0612 126.044 59.0612C125.706 59.0612 125.412 59.1396 125.16 59.2964C124.908 59.4485 124.668 59.6647 124.44 59.945V63.2237ZM124.44 58.7049C124.734 58.396 125.06 58.1513 125.416 57.9707C125.777 57.7854 126.188 57.6927 126.649 57.6927C127.072 57.6927 127.452 57.7759 127.79 57.9422C128.132 58.1085 128.422 58.3485 128.659 58.6621C128.902 58.9709 129.087 59.3463 129.215 59.7882C129.344 60.2301 129.408 60.7267 129.408 61.2779C129.408 61.8719 129.334 62.4112 129.187 62.8958C129.039 63.3805 128.828 63.7963 128.552 64.1432C128.282 64.4853 127.954 64.7514 127.569 64.9414C127.184 65.1315 126.756 65.2265 126.286 65.2265C126.058 65.2265 125.851 65.2028 125.666 65.1553C125.48 65.1125 125.309 65.0507 125.153 64.97C124.996 64.8892 124.851 64.7918 124.718 64.6777C124.59 64.5589 124.466 64.4283 124.347 64.2857L124.269 64.7775C124.24 64.9011 124.19 64.989 124.119 65.0412C124.053 65.0935 123.96 65.1196 123.841 65.1196H122.679V54.5281H124.44V58.7049ZM134.631 61.9978C134.122 62.0215 133.694 62.0667 133.348 62.1332C133.001 62.195 132.723 62.2757 132.514 62.3755C132.305 62.4753 132.155 62.5917 132.065 62.7248C131.974 62.8578 131.929 63.0028 131.929 63.1596C131.929 63.4684 132.02 63.6894 132.2 63.8224C132.385 63.9555 132.625 64.022 132.92 64.022C133.281 64.022 133.592 63.9578 133.854 63.8295C134.12 63.6965 134.379 63.4969 134.631 63.2308V61.9978ZM130.596 58.826C131.437 58.0562 132.45 57.6714 133.633 57.6714C134.06 57.6714 134.443 57.7426 134.78 57.8852C135.118 58.023 135.403 58.2178 135.636 58.4696C135.868 58.7167 136.044 59.0137 136.163 59.3606C136.287 59.7075 136.348 60.0876 136.348 60.501V65.1196H135.55C135.384 65.1196 135.255 65.0959 135.165 65.0484C135.075 64.9961 135.004 64.8939 134.951 64.7419L134.794 64.2144C134.609 64.3807 134.429 64.528 134.253 64.6563C134.077 64.7799 133.894 64.8844 133.704 64.97C133.514 65.0555 133.31 65.1196 133.091 65.1624C132.877 65.2099 132.64 65.2337 132.378 65.2337C132.069 65.2337 131.784 65.1933 131.523 65.1125C131.262 65.027 131.036 64.9011 130.846 64.7347C130.656 64.5684 130.508 64.3617 130.404 64.1146C130.299 63.8676 130.247 63.5801 130.247 63.2522C130.247 63.0669 130.278 62.884 130.34 62.7034C130.402 62.5181 130.501 62.3423 130.639 62.176C130.782 62.0097 130.965 61.8528 131.188 61.7055C131.411 61.5582 131.685 61.4299 132.008 61.3207C132.335 61.2114 132.716 61.1235 133.148 61.0569C133.58 60.9857 134.075 60.9429 134.631 60.9286V60.501C134.631 60.0116 134.526 59.6504 134.317 59.4176C134.108 59.18 133.806 59.0612 133.412 59.0612C133.127 59.0612 132.889 59.0945 132.699 59.161C132.514 59.2275 132.35 59.3036 132.207 59.3891C132.065 59.4699 131.934 59.5435 131.815 59.61C131.701 59.6766 131.573 59.7098 131.43 59.7098C131.307 59.7098 131.202 59.6789 131.117 59.6172C131.031 59.5507 130.962 59.4746 130.91 59.3891L130.596 58.826ZM139.788 54.5281V65.1196H138.028V54.5281H139.788ZM146.833 57.8068V65.1196H145.066V57.8068H146.833ZM147.076 55.6757C147.076 55.8277 147.045 55.9703 146.983 56.1033C146.921 56.2364 146.838 56.3528 146.733 56.4526C146.634 56.5523 146.515 56.6331 146.377 56.6949C146.239 56.7519 146.092 56.7804 145.935 56.7804C145.783 56.7804 145.638 56.7519 145.5 56.6949C145.367 56.6331 145.251 56.5523 145.151 56.4526C145.051 56.3528 144.971 56.2364 144.909 56.1033C144.852 55.9703 144.823 55.8277 144.823 55.6757C144.823 55.5188 144.852 55.3715 144.909 55.2337C144.971 55.0959 145.051 54.9772 145.151 54.8774C145.251 54.7776 145.367 54.6992 145.5 54.6422C145.638 54.5804 145.783 54.5495 145.935 54.5495C146.092 54.5495 146.239 54.5804 146.377 54.6422C146.515 54.6992 146.634 54.7776 146.733 54.8774C146.838 54.9772 146.921 55.0959 146.983 55.2337C147.045 55.3715 147.076 55.5188 147.076 55.6757ZM150.274 58.7049C150.422 58.5576 150.576 58.4221 150.738 58.2986C150.904 58.1703 151.078 58.0634 151.258 57.9778C151.443 57.8876 151.641 57.8187 151.85 57.7711C152.059 57.7189 152.287 57.6927 152.534 57.6927C152.933 57.6927 153.287 57.7616 153.596 57.8994C153.905 58.0325 154.161 58.2226 154.366 58.4696C154.575 58.712 154.732 59.0042 154.836 59.3463C154.945 59.6837 155 60.0567 155 60.4654V65.1196H153.24V60.4654C153.24 60.0187 153.137 59.6742 152.933 59.4319C152.729 59.1848 152.417 59.0612 151.999 59.0612C151.695 59.0612 151.41 59.1301 151.144 59.2679C150.878 59.4057 150.626 59.5934 150.389 59.831V65.1196H148.628V57.8068H149.704C149.932 57.8068 150.082 57.9137 150.153 58.1275L150.274 58.7049ZM163.1 57.8068L160.199 65.1196H158.603L155.702 57.8068H157.156C157.289 57.8068 157.398 57.8377 157.484 57.8994C157.574 57.9612 157.633 58.0396 157.662 58.1347L159.073 62.0405C159.149 62.2686 159.216 62.4919 159.273 62.7105C159.33 62.9291 159.38 63.1477 159.422 63.3663C159.47 63.1477 159.522 62.9291 159.579 62.7105C159.636 62.4919 159.705 62.2686 159.786 62.0405L161.226 58.1347C161.259 58.0396 161.318 57.9612 161.404 57.8994C161.489 57.8377 161.592 57.8068 161.71 57.8068H163.1ZM168.527 60.6222C168.527 60.3941 168.494 60.1803 168.427 59.9807C168.366 59.7764 168.27 59.5982 168.142 59.4461C168.014 59.2941 167.85 59.1753 167.65 59.0897C167.456 58.9995 167.227 58.9543 166.966 58.9543C166.458 58.9543 166.056 59.0992 165.762 59.3891C165.472 59.6789 165.286 60.09 165.206 60.6222H168.527ZM165.17 61.6842C165.199 62.0595 165.265 62.385 165.37 62.6606C165.474 62.9315 165.612 63.1572 165.783 63.3377C165.954 63.5136 166.156 63.6466 166.389 63.7369C166.626 63.8224 166.888 63.8652 167.173 63.8652C167.458 63.8652 167.703 63.8319 167.907 63.7654C168.116 63.6989 168.297 63.6252 168.449 63.5444C168.605 63.4637 168.741 63.39 168.855 63.3235C168.974 63.257 169.088 63.2237 169.197 63.2237C169.344 63.2237 169.454 63.2784 169.525 63.3876L170.031 64.0291C169.836 64.2572 169.618 64.4496 169.375 64.6064C169.133 64.7585 168.879 64.882 168.613 64.9771C168.351 65.0674 168.083 65.1315 167.807 65.1695C167.536 65.2075 167.273 65.2265 167.016 65.2265C166.508 65.2265 166.035 65.1434 165.598 64.9771C165.161 64.806 164.78 64.5566 164.457 64.2287C164.134 63.8961 163.88 63.4874 163.695 63.0028C163.509 62.5133 163.417 61.9479 163.417 61.3064C163.417 60.8075 163.497 60.3394 163.659 59.9023C163.821 59.4604 164.051 59.0779 164.35 58.7547C164.654 58.4269 165.023 58.1679 165.455 57.9778C165.892 57.7878 166.384 57.6927 166.931 57.6927C167.391 57.6927 167.817 57.7664 168.206 57.9137C168.596 58.061 168.931 58.2772 169.211 58.5623C169.492 58.8427 169.71 59.1895 169.867 59.6029C170.029 60.0116 170.109 60.4796 170.109 61.007C170.109 61.2731 170.081 61.4537 170.024 61.5487C169.967 61.639 169.858 61.6842 169.696 61.6842H165.17ZM175.892 59.2323C175.845 59.3083 175.795 59.363 175.743 59.3962C175.69 59.4247 175.624 59.439 175.543 59.439C175.458 59.439 175.365 59.4152 175.265 59.3677C175.17 59.3202 175.058 59.2679 174.93 59.2109C174.802 59.1491 174.655 59.0945 174.488 59.047C174.327 58.9995 174.134 58.9757 173.911 58.9757C173.564 58.9757 173.291 59.0494 173.091 59.1967C172.896 59.344 172.799 59.5364 172.799 59.774C172.799 59.9308 172.849 60.0638 172.949 60.1731C173.053 60.2777 173.189 60.3703 173.355 60.4511C173.526 60.5319 173.718 60.6055 173.932 60.6721C174.146 60.7338 174.362 60.8027 174.581 60.8787C174.804 60.9548 175.023 61.0427 175.237 61.1425C175.45 61.2375 175.641 61.361 175.807 61.5131C175.978 61.6604 176.113 61.8386 176.213 62.0477C176.318 62.2567 176.37 62.5086 176.37 62.8032C176.37 63.1548 176.306 63.4803 176.177 63.7797C176.054 64.0743 175.869 64.3308 175.622 64.5494C175.374 64.7633 175.068 64.9319 174.702 65.0555C174.341 65.1743 173.923 65.2337 173.448 65.2337C173.196 65.2337 172.949 65.2099 172.706 65.1624C172.469 65.1196 172.238 65.0579 172.015 64.9771C171.796 64.8963 171.592 64.8013 171.402 64.692C171.217 64.5827 171.053 64.4639 170.91 64.3356L171.316 63.6656C171.369 63.5848 171.431 63.5231 171.502 63.4803C171.573 63.4375 171.663 63.4161 171.773 63.4161C171.882 63.4161 171.984 63.447 172.079 63.5088C172.179 63.5706 172.293 63.6371 172.421 63.7084C172.55 63.7797 172.699 63.8462 172.87 63.9079C173.046 63.9697 173.267 64.0006 173.533 64.0006C173.742 64.0006 173.92 63.9768 174.068 63.9293C174.22 63.8771 174.343 63.8105 174.438 63.7298C174.538 63.649 174.609 63.5563 174.652 63.4518C174.7 63.3425 174.723 63.2308 174.723 63.1168C174.723 62.9457 174.671 62.8056 174.567 62.6963C174.467 62.587 174.331 62.4919 174.16 62.4112C173.994 62.3304 173.802 62.2591 173.583 62.1973C173.369 62.1308 173.148 62.0595 172.92 61.9835C172.697 61.9075 172.476 61.8196 172.257 61.7198C172.043 61.6153 171.851 61.4846 171.68 61.3278C171.514 61.171 171.378 60.9785 171.274 60.7505C171.174 60.5224 171.124 60.2468 171.124 59.9237C171.124 59.6243 171.183 59.3392 171.302 59.0684C171.421 58.7975 171.594 58.5623 171.823 58.3627C172.055 58.1584 172.343 57.9969 172.685 57.8781C173.032 57.7545 173.431 57.6927 173.882 57.6927C174.386 57.6927 174.845 57.7759 175.258 57.9422C175.671 58.1085 176.016 58.3271 176.292 58.5979L175.892 59.2323ZM180.133 65.2337C179.496 65.2337 179.006 65.0555 178.664 64.6991C178.327 64.338 178.158 63.8414 178.158 63.2095V59.1254H177.41C177.315 59.1254 177.234 59.0945 177.168 59.0327C177.101 58.9709 177.068 58.8783 177.068 58.7547V58.0562L178.244 57.8638L178.614 55.8681C178.638 55.7731 178.683 55.6994 178.75 55.6471C178.816 55.5949 178.902 55.5687 179.006 55.5687H179.919V57.8709H181.872V59.1254H179.919V63.0883C179.919 63.3164 179.973 63.4946 180.083 63.6228C180.197 63.7511 180.351 63.8153 180.546 63.8153C180.655 63.8153 180.746 63.8034 180.817 63.7797C180.893 63.7511 180.957 63.7226 181.009 63.6941C181.066 63.6656 181.116 63.6395 181.159 63.6157C181.202 63.5872 181.244 63.573 181.287 63.573C181.34 63.573 181.382 63.5872 181.416 63.6157C181.449 63.6395 181.484 63.6775 181.522 63.7298L182.05 64.5851C181.793 64.7989 181.499 64.9604 181.166 65.0697C180.833 65.179 180.489 65.2337 180.133 65.2337ZM182.999 65.1196V57.8068H184.075C184.303 57.8068 184.453 57.9137 184.524 58.1275L184.638 58.6692C184.766 58.5267 184.9 58.396 185.037 58.2772C185.18 58.1584 185.33 58.0562 185.486 57.9707C185.648 57.8852 185.819 57.8187 186 57.7711C186.185 57.7189 186.387 57.6927 186.605 57.6927C187.066 57.6927 187.444 57.8187 187.739 58.0705C188.038 58.3176 188.261 58.6478 188.409 59.0612C188.523 58.8189 188.665 58.6122 188.836 58.4411C189.007 58.2653 189.195 58.1228 189.399 58.0135C189.604 57.9042 189.82 57.8234 190.048 57.7711C190.281 57.7189 190.514 57.6927 190.746 57.6927C191.15 57.6927 191.509 57.7545 191.823 57.8781C192.136 58.0016 192.4 58.1822 192.614 58.4198C192.828 58.6573 192.989 58.9472 193.099 59.2893C193.213 59.6314 193.27 60.0234 193.27 60.4654V65.1196H191.509V60.4654C191.509 59.9997 191.407 59.6504 191.203 59.4176C190.998 59.18 190.699 59.0612 190.305 59.0612C190.124 59.0612 189.955 59.0921 189.799 59.1539C189.646 59.2157 189.511 59.3059 189.392 59.4247C189.278 59.5388 189.188 59.6837 189.121 59.8595C189.055 60.0353 189.022 60.2373 189.022 60.4654V65.1196H187.254V60.4654C187.254 59.9759 187.154 59.6196 186.955 59.3962C186.76 59.1729 186.472 59.0612 186.092 59.0612C185.836 59.0612 185.596 59.1254 185.372 59.2537C185.154 59.3772 184.949 59.5483 184.759 59.7669V65.1196H182.999ZM199.654 60.6222C199.654 60.3941 199.621 60.1803 199.555 59.9807C199.493 59.7764 199.398 59.5982 199.269 59.4461C199.141 59.2941 198.977 59.1753 198.778 59.0897C198.583 58.9995 198.355 58.9543 198.093 58.9543C197.585 58.9543 197.183 59.0992 196.889 59.3891C196.599 59.6789 196.414 60.09 196.333 60.6222H199.654ZM196.297 61.6842C196.326 62.0595 196.392 62.385 196.497 62.6606C196.601 62.9315 196.739 63.1572 196.91 63.3377C197.081 63.5136 197.283 63.6466 197.516 63.7369C197.754 63.8224 198.015 63.8652 198.3 63.8652C198.585 63.8652 198.83 63.8319 199.034 63.7654C199.243 63.6989 199.424 63.6252 199.576 63.5444C199.733 63.4637 199.868 63.39 199.982 63.3235C200.101 63.257 200.215 63.2237 200.324 63.2237C200.472 63.2237 200.581 63.2784 200.652 63.3876L201.158 64.0291C200.963 64.2572 200.745 64.4496 200.502 64.6064C200.26 64.7585 200.006 64.882 199.74 64.9771C199.479 65.0674 199.21 65.1315 198.934 65.1695C198.664 65.2075 198.4 65.2265 198.143 65.2265C197.635 65.2265 197.162 65.1434 196.725 64.9771C196.288 64.806 195.908 64.5566 195.584 64.2287C195.261 63.8961 195.007 63.4874 194.822 63.0028C194.637 62.5133 194.544 61.9479 194.544 61.3064C194.544 60.8075 194.625 60.3394 194.786 59.9023C194.948 59.4604 195.178 59.0779 195.478 58.7547C195.782 58.4269 196.15 58.1679 196.582 57.9778C197.02 57.7878 197.511 57.6927 198.058 57.6927C198.519 57.6927 198.944 57.7664 199.334 57.9137C199.723 58.061 200.058 58.2772 200.339 58.5623C200.619 58.8427 200.837 59.1895 200.994 59.6029C201.156 60.0116 201.237 60.4796 201.237 61.007C201.237 61.2731 201.208 61.4537 201.151 61.5487C201.094 61.639 200.985 61.6842 200.823 61.6842H196.297ZM204.204 58.7049C204.352 58.5576 204.506 58.4221 204.668 58.2986C204.834 58.1703 205.007 58.0634 205.188 57.9778C205.373 57.8876 205.57 57.8187 205.779 57.7711C205.988 57.7189 206.217 57.6927 206.464 57.6927C206.863 57.6927 207.217 57.7616 207.526 57.8994C207.835 58.0325 208.091 58.2226 208.295 58.4696C208.505 58.712 208.661 59.0042 208.766 59.3463C208.875 59.6837 208.93 60.0567 208.93 60.4654V65.1196H207.169V60.4654C207.169 60.0187 207.067 59.6742 206.863 59.4319C206.658 59.1848 206.347 59.0612 205.929 59.0612C205.625 59.0612 205.34 59.1301 205.074 59.2679C204.808 59.4057 204.556 59.5934 204.318 59.831V65.1196H202.558V57.8068H203.634C203.862 57.8068 204.012 57.9137 204.083 58.1275L204.204 58.7049ZM212.944 65.2337C212.308 65.2337 211.818 65.0555 211.476 64.6991C211.139 64.338 210.97 63.8414 210.97 63.2095V59.1254H210.222C210.127 59.1254 210.046 59.0945 209.979 59.0327C209.913 58.9709 209.879 58.8783 209.879 58.7547V58.0562L211.055 57.8638L211.426 55.8681C211.45 55.7731 211.495 55.6994 211.562 55.6471C211.628 55.5949 211.714 55.5687 211.818 55.5687H212.73V57.8709H214.683V59.1254H212.73V63.0883C212.73 63.3164 212.785 63.4946 212.894 63.6228C213.008 63.7511 213.163 63.8153 213.358 63.8153C213.467 63.8153 213.557 63.8034 213.629 63.7797C213.705 63.7511 213.769 63.7226 213.821 63.6941C213.878 63.6656 213.928 63.6395 213.971 63.6157C214.013 63.5872 214.056 63.573 214.099 63.573C214.151 63.573 214.194 63.5872 214.227 63.6157C214.26 63.6395 214.296 63.6775 214.334 63.7298L214.862 64.5851C214.605 64.7989 214.31 64.9604 213.978 65.0697C213.645 65.179 213.301 65.2337 212.944 65.2337ZM103.947 82.1196V76.1325L103.313 76.0327C103.175 76.0042 103.063 75.9567 102.978 75.8902C102.897 75.8189 102.856 75.7191 102.856 75.5908V74.8709H103.947V74.5644C103.947 74.1748 104.009 73.8018 104.132 73.4454C104.256 73.0891 104.444 72.7754 104.695 72.5046C104.947 72.229 105.266 72.0104 105.65 71.8489C106.035 71.6826 106.489 71.5994 107.012 71.5994C107.416 71.5994 107.796 71.6137 108.152 71.6422C108.513 71.6659 108.872 71.6802 109.228 71.6849H110.39V82.1196H108.637V72.9109C108.385 72.9014 108.138 72.8895 107.896 72.8752C107.658 72.861 107.456 72.8538 107.29 72.8538C106.758 72.8538 106.351 73.0035 106.071 73.3029C105.791 73.5975 105.65 74.018 105.65 74.5644V74.8709H107.382V76.1254H105.707V82.1196H103.947ZM115.391 74.6927C115.933 74.6927 116.425 74.7807 116.866 74.9565C117.313 75.1323 117.693 75.3817 118.007 75.7049C118.325 76.028 118.57 76.4224 118.741 76.888C118.912 77.3537 118.998 77.874 118.998 78.449C118.998 79.0287 118.912 79.5513 118.741 80.017C118.57 80.4827 118.325 80.8794 118.007 81.2073C117.693 81.5352 117.313 81.787 116.866 81.9628C116.425 82.1386 115.933 82.2265 115.391 82.2265C114.845 82.2265 114.348 82.1386 113.901 81.9628C113.455 81.787 113.072 81.5352 112.754 81.2073C112.44 80.8794 112.196 80.4827 112.02 80.017C111.849 79.5513 111.763 79.0287 111.763 78.449C111.763 77.874 111.849 77.3537 112.02 76.888C112.196 76.4224 112.44 76.028 112.754 75.7049C113.072 75.3817 113.455 75.1323 113.901 74.9565C114.348 74.7807 114.845 74.6927 115.391 74.6927ZM115.391 80.8723C115.999 80.8723 116.448 80.668 116.738 80.2593C117.033 79.8507 117.18 79.252 117.18 78.4632C117.18 77.6744 117.033 77.0733 116.738 76.6599C116.448 76.2465 115.999 76.0398 115.391 76.0398C114.773 76.0398 114.315 76.2489 114.015 76.6671C113.721 77.0805 113.574 77.6792 113.574 78.4632C113.574 79.2472 113.721 79.8459 114.015 80.2593C114.315 80.668 114.773 80.8723 115.391 80.8723ZM130.657 74.8068L128.334 82.1196H126.922C126.761 82.1196 126.649 82.0151 126.587 81.806L125.276 77.5794C125.233 77.4368 125.193 77.2967 125.155 77.1589C125.121 77.0163 125.093 76.8738 125.069 76.7312C125.041 76.8738 125.007 77.0187 124.969 77.166C124.936 77.3085 124.898 77.4511 124.855 77.5936L123.523 81.806C123.466 82.0151 123.34 82.1196 123.145 82.1196H121.791L119.474 74.8068H120.878C121.007 74.8068 121.116 74.8377 121.206 74.8994C121.296 74.9612 121.356 75.0396 121.384 75.1347L122.432 79.0405C122.484 79.2544 122.529 79.4634 122.567 79.6678C122.61 79.8721 122.646 80.0764 122.674 80.2807C122.727 80.0764 122.781 79.8721 122.838 79.6678C122.9 79.4634 122.964 79.2544 123.031 79.0405L124.242 75.1204C124.271 75.0254 124.326 74.947 124.406 74.8852C124.492 74.8234 124.594 74.7925 124.713 74.7925H125.49C125.613 74.7925 125.718 74.8234 125.803 74.8852C125.894 74.947 125.953 75.0254 125.982 75.1204L127.158 79.0405C127.219 79.2544 127.276 79.4658 127.329 79.6749C127.386 79.8792 127.44 80.0835 127.493 80.2879C127.554 79.884 127.642 79.4682 127.756 79.0405L128.833 75.1347C128.866 75.0396 128.925 74.9612 129.011 74.8994C129.096 74.8377 129.198 74.8068 129.317 74.8068H130.657ZM136.244 77.6222C136.244 77.3941 136.211 77.1803 136.145 76.9807C136.083 76.7764 135.988 76.5982 135.859 76.4461C135.731 76.2941 135.567 76.1753 135.368 76.0897C135.173 75.9995 134.945 75.9543 134.683 75.9543C134.175 75.9543 133.774 76.0992 133.479 76.3891C133.189 76.6789 133.004 77.09 132.923 77.6222H136.244ZM132.887 78.6842C132.916 79.0595 132.982 79.385 133.087 79.6606C133.191 79.9315 133.329 80.1572 133.5 80.3377C133.671 80.5136 133.873 80.6466 134.106 80.7369C134.344 80.8224 134.605 80.8652 134.89 80.8652C135.175 80.8652 135.42 80.8319 135.624 80.7654C135.833 80.6989 136.014 80.6252 136.166 80.5444C136.323 80.4637 136.458 80.39 136.572 80.3235C136.691 80.257 136.805 80.2237 136.914 80.2237C137.062 80.2237 137.171 80.2784 137.242 80.3876L137.748 81.0291C137.553 81.2572 137.335 81.4496 137.093 81.6064C136.85 81.7585 136.596 81.882 136.33 81.9771C136.069 82.0674 135.8 82.1315 135.525 82.1695C135.254 82.2075 134.99 82.2265 134.733 82.2265C134.225 82.2265 133.752 82.1434 133.315 81.9771C132.878 81.806 132.498 81.5566 132.175 81.2287C131.851 80.8961 131.597 80.4874 131.412 80.0028C131.227 79.5133 131.134 78.9479 131.134 78.3064C131.134 77.8075 131.215 77.3394 131.376 76.9023C131.538 76.4604 131.768 76.0779 132.068 75.7547C132.372 75.4269 132.74 75.1679 133.172 74.9778C133.61 74.7878 134.101 74.6927 134.648 74.6927C135.109 74.6927 135.534 74.7664 135.924 74.9137C136.313 75.061 136.648 75.2772 136.929 75.5623C137.209 75.8427 137.428 76.1895 137.584 76.6029C137.746 77.0116 137.827 77.4796 137.827 78.007C137.827 78.2731 137.798 78.4537 137.741 78.5487C137.684 78.639 137.575 78.6842 137.413 78.6842H132.887ZM143.738 76.6742C143.538 76.4319 143.32 76.2608 143.082 76.161C142.849 76.0612 142.598 76.0113 142.327 76.0113C142.061 76.0113 141.821 76.0612 141.607 76.161C141.393 76.2608 141.21 76.4129 141.058 76.6172C140.906 76.8167 140.79 77.0733 140.709 77.387C140.628 77.6958 140.588 78.0617 140.588 78.4846C140.588 78.9122 140.621 79.2757 140.687 79.5751C140.759 79.8697 140.858 80.112 140.987 80.3021C141.115 80.4874 141.272 80.6228 141.457 80.7084C141.642 80.7892 141.849 80.8295 142.077 80.8295C142.443 80.8295 142.754 80.7535 143.011 80.6015C143.268 80.4494 143.51 80.2332 143.738 79.9529V76.6742ZM145.498 71.5281V82.1196H144.422C144.189 82.1196 144.042 82.0127 143.98 81.7989L143.831 81.0933C143.536 81.4306 143.196 81.7039 142.811 81.9129C142.431 82.122 141.987 82.2265 141.479 82.2265C141.079 82.2265 140.714 82.1434 140.381 81.9771C140.048 81.8108 139.761 81.5708 139.518 81.2572C139.281 80.9388 139.096 80.5468 138.963 80.0812C138.834 79.6155 138.77 79.0833 138.77 78.4846C138.77 77.9429 138.844 77.4392 138.991 76.9736C139.138 76.5079 139.35 76.104 139.625 75.7619C139.901 75.4198 140.231 75.1537 140.616 74.9636C141.001 74.7688 141.433 74.6714 141.913 74.6714C142.322 74.6714 142.671 74.7355 142.961 74.8638C143.251 74.9921 143.51 75.1655 143.738 75.3841V71.5281H145.498ZM152.527 74.8068V82.1196H150.759V74.8068H152.527ZM152.769 72.6757C152.769 72.8277 152.738 72.9703 152.677 73.1033C152.615 73.2364 152.532 73.3528 152.427 73.4526C152.327 73.5523 152.209 73.6331 152.071 73.6949C151.933 73.7519 151.786 73.7804 151.629 73.7804C151.477 73.7804 151.332 73.7519 151.194 73.6949C151.061 73.6331 150.945 73.5523 150.845 73.4526C150.745 73.3528 150.664 73.2364 150.602 73.1033C150.545 72.9703 150.517 72.8277 150.517 72.6757C150.517 72.5188 150.545 72.3715 150.602 72.2337C150.664 72.0959 150.745 71.9772 150.845 71.8774C150.945 71.7776 151.061 71.6992 151.194 71.6422C151.332 71.5804 151.477 71.5495 151.629 71.5495C151.786 71.5495 151.933 71.5804 152.071 71.6422C152.209 71.6992 152.327 71.7776 152.427 71.8774C152.532 71.9772 152.615 72.0959 152.677 72.2337C152.738 72.3715 152.769 72.5188 152.769 72.6757ZM155.968 75.7049C156.115 75.5576 156.27 75.4221 156.431 75.2986C156.598 75.1703 156.771 75.0634 156.952 74.9778C157.137 74.8876 157.334 74.8187 157.543 74.7711C157.752 74.7189 157.98 74.6927 158.228 74.6927C158.627 74.6927 158.981 74.7616 159.29 74.8994C159.598 75.0325 159.855 75.2226 160.059 75.4696C160.268 75.712 160.425 76.0042 160.53 76.3463C160.639 76.6837 160.694 77.0567 160.694 77.4654V82.1196H158.933V77.4654C158.933 77.0187 158.831 76.6742 158.627 76.4319C158.422 76.1848 158.111 76.0612 157.693 76.0612C157.389 76.0612 157.104 76.1301 156.838 76.2679C156.572 76.4057 156.32 76.5934 156.082 76.831V82.1196H154.322V74.8068H155.398C155.626 74.8068 155.776 74.9137 155.847 75.1275L155.968 75.7049ZM164.708 82.2337C164.071 82.2337 163.582 82.0555 163.24 81.6991C162.903 81.338 162.734 80.8414 162.734 80.2095V76.1254H161.985C161.89 76.1254 161.81 76.0945 161.743 76.0327C161.677 75.9709 161.643 75.8783 161.643 75.7547V75.0562L162.819 74.8638L163.19 72.8681C163.214 72.7731 163.259 72.6994 163.325 72.6471C163.392 72.5949 163.477 72.5687 163.582 72.5687H164.494V74.8709H166.447V76.1254H164.494V80.0883C164.494 80.3164 164.549 80.4946 164.658 80.6228C164.772 80.7511 164.927 80.8153 165.122 80.8153C165.231 80.8153 165.321 80.8034 165.392 80.7797C165.468 80.7511 165.533 80.7226 165.585 80.6941C165.642 80.6656 165.692 80.6395 165.735 80.6157C165.777 80.5872 165.82 80.573 165.863 80.573C165.915 80.573 165.958 80.5872 165.991 80.6157C166.024 80.6395 166.06 80.6775 166.098 80.7298L166.625 81.5851C166.369 81.7989 166.074 81.9604 165.742 82.0697C165.409 82.179 165.065 82.2337 164.708 82.2337ZM170.755 74.6927C171.296 74.6927 171.788 74.7807 172.23 74.9565C172.677 75.1323 173.057 75.3817 173.37 75.7049C173.689 76.028 173.934 76.4224 174.105 76.888C174.276 77.3537 174.361 77.874 174.361 78.449C174.361 79.0287 174.276 79.5513 174.105 80.017C173.934 80.4827 173.689 80.8794 173.37 81.2073C173.057 81.5352 172.677 81.787 172.23 81.9628C171.788 82.1386 171.296 82.2265 170.755 82.2265C170.208 82.2265 169.712 82.1386 169.265 81.9628C168.818 81.787 168.436 81.5352 168.117 81.2073C167.804 80.8794 167.559 80.4827 167.383 80.017C167.212 79.5513 167.127 79.0287 167.127 78.449C167.127 77.874 167.212 77.3537 167.383 76.888C167.559 76.4224 167.804 76.028 168.117 75.7049C168.436 75.3817 168.818 75.1323 169.265 74.9565C169.712 74.7807 170.208 74.6927 170.755 74.6927ZM170.755 80.8723C171.363 80.8723 171.812 80.668 172.102 80.2593C172.396 79.8507 172.544 79.252 172.544 78.4632C172.544 77.6744 172.396 77.0733 172.102 76.6599C171.812 76.2465 171.363 76.0398 170.755 76.0398C170.137 76.0398 169.678 76.2489 169.379 76.6671C169.084 77.0805 168.937 77.6792 168.937 78.4632C168.937 79.2472 169.084 79.8459 169.379 80.2593C169.678 80.668 170.137 80.8723 170.755 80.8723ZM181.608 82.2337C180.971 82.2337 180.482 82.0555 180.14 81.6991C179.803 81.338 179.634 80.8414 179.634 80.2095V76.1254H178.885C178.79 76.1254 178.71 76.0945 178.643 76.0327C178.577 75.9709 178.543 75.8783 178.543 75.7547V75.0562L179.719 74.8638L180.09 72.8681C180.114 72.7731 180.159 72.6994 180.225 72.6471C180.292 72.5949 180.378 72.5687 180.482 72.5687H181.394V74.8709H183.347V76.1254H181.394V80.0883C181.394 80.3164 181.449 80.4946 181.558 80.6228C181.672 80.7511 181.827 80.8153 182.022 80.8153C182.131 80.8153 182.221 80.8034 182.292 80.7797C182.368 80.7511 182.433 80.7226 182.485 80.6941C182.542 80.6656 182.592 80.6395 182.635 80.6157C182.677 80.5872 182.72 80.573 182.763 80.573C182.815 80.573 182.858 80.5872 182.891 80.6157C182.924 80.6395 182.96 80.6775 182.998 80.7298L183.526 81.5851C183.269 81.7989 182.974 81.9604 182.642 82.0697C182.309 82.179 181.965 82.2337 181.608 82.2337ZM186.235 75.5908C186.52 75.3247 186.834 75.1085 187.176 74.9422C187.518 74.7759 187.919 74.6927 188.38 74.6927C188.779 74.6927 189.133 74.7616 189.442 74.8994C189.751 75.0325 190.008 75.2226 190.212 75.4696C190.421 75.712 190.578 76.0042 190.683 76.3463C190.792 76.6837 190.846 77.0567 190.846 77.4654V82.1196H189.086V77.4654C189.086 77.0187 188.984 76.6742 188.779 76.4319C188.575 76.1848 188.264 76.0612 187.846 76.0612C187.542 76.0612 187.257 76.1301 186.99 76.2679C186.724 76.4057 186.473 76.5934 186.235 76.831V82.1196H184.474V71.5281H186.235V75.5908ZM197.232 77.6222C197.232 77.3941 197.199 77.1803 197.132 76.9807C197.071 76.7764 196.975 76.5982 196.847 76.4461C196.719 76.2941 196.555 76.1753 196.355 76.0897C196.161 75.9995 195.932 75.9543 195.671 75.9543C195.163 75.9543 194.761 76.0992 194.467 76.3891C194.177 76.6789 193.991 77.09 193.911 77.6222H197.232ZM193.875 78.6842C193.904 79.0595 193.97 79.385 194.075 79.6606C194.179 79.9315 194.317 80.1572 194.488 80.3377C194.659 80.5136 194.861 80.6466 195.094 80.7369C195.331 80.8224 195.593 80.8652 195.878 80.8652C196.163 80.8652 196.408 80.8319 196.612 80.7654C196.821 80.6989 197.002 80.6252 197.154 80.5444C197.31 80.4637 197.446 80.39 197.56 80.3235C197.679 80.257 197.793 80.2237 197.902 80.2237C198.049 80.2237 198.159 80.2784 198.23 80.3876L198.736 81.0291C198.541 81.2572 198.323 81.4496 198.08 81.6064C197.838 81.7585 197.584 81.882 197.318 81.9771C197.056 82.0674 196.788 82.1315 196.512 82.1695C196.241 82.2075 195.978 82.2265 195.721 82.2265C195.213 82.2265 194.74 82.1434 194.303 81.9771C193.866 81.806 193.485 81.5566 193.162 81.2287C192.839 80.8961 192.585 80.4874 192.4 80.0028C192.214 79.5133 192.122 78.9479 192.122 78.3064C192.122 77.8075 192.202 77.3394 192.364 76.9023C192.526 76.4604 192.756 76.0779 193.055 75.7547C193.359 75.4269 193.728 75.1679 194.16 74.9778C194.597 74.7878 195.089 74.6927 195.636 74.6927C196.096 74.6927 196.522 74.7664 196.911 74.9137C197.301 75.061 197.636 75.2772 197.916 75.5623C198.197 75.8427 198.415 76.1895 198.572 76.6029C198.734 77.0116 198.814 77.4796 198.814 78.007C198.814 78.2731 198.786 78.4537 198.729 78.5487C198.672 78.639 198.563 78.6842 198.401 78.6842H193.875ZM108.138 94.6222C108.138 94.3941 108.105 94.1803 108.038 93.9807C107.976 93.7764 107.881 93.5982 107.753 93.4461C107.625 93.2941 107.461 93.1753 107.261 93.0897C107.066 92.9995 106.838 92.9543 106.577 92.9543C106.069 92.9543 105.667 93.0992 105.373 93.3891C105.083 93.6789 104.897 94.09 104.817 94.6222H108.138ZM104.781 95.6842C104.809 96.0595 104.876 96.385 104.98 96.6606C105.085 96.9315 105.223 97.1572 105.394 97.3377C105.565 97.5136 105.767 97.6466 106 97.7369C106.237 97.8224 106.499 97.8652 106.784 97.8652C107.069 97.8652 107.314 97.8319 107.518 97.7654C107.727 97.6989 107.908 97.6252 108.06 97.5444C108.216 97.4637 108.352 97.39 108.466 97.3235C108.585 97.257 108.699 97.2237 108.808 97.2237C108.955 97.2237 109.065 97.2784 109.136 97.3876L109.642 98.0291C109.447 98.2572 109.228 98.4496 108.986 98.6064C108.744 98.7585 108.49 98.882 108.224 98.9771C107.962 99.0674 107.694 99.1315 107.418 99.1695C107.147 99.2075 106.884 99.2265 106.627 99.2265C106.119 99.2265 105.646 99.1434 105.209 98.9771C104.771 98.806 104.391 98.5566 104.068 98.2287C103.745 97.8961 103.491 97.4874 103.306 97.0028C103.12 96.5133 103.028 95.9479 103.028 95.3064C103.028 94.8075 103.108 94.3394 103.27 93.9023C103.431 93.4604 103.662 93.0779 103.961 92.7547C104.265 92.4269 104.634 92.1679 105.066 91.9778C105.503 91.7878 105.995 91.6927 106.541 91.6927C107.002 91.6927 107.428 91.7664 107.817 91.9137C108.207 92.061 108.542 92.2772 108.822 92.5623C109.103 92.8427 109.321 93.1895 109.478 93.6029C109.64 94.0116 109.72 94.4796 109.72 95.007C109.72 95.2731 109.692 95.4537 109.635 95.5487C109.578 95.639 109.468 95.6842 109.307 95.6842H104.781ZM112.688 92.7049C112.835 92.5576 112.99 92.4221 113.151 92.2986C113.318 92.1703 113.491 92.0634 113.672 91.9778C113.857 91.8876 114.054 91.8187 114.263 91.7711C114.472 91.7189 114.7 91.6927 114.947 91.6927C115.346 91.6927 115.7 91.7616 116.009 91.8994C116.318 92.0325 116.575 92.2226 116.779 92.4696C116.988 92.712 117.145 93.0042 117.25 93.3463C117.359 93.6837 117.413 94.0567 117.413 94.4654V99.1196H115.653V94.4654C115.653 94.0187 115.551 93.6742 115.346 93.4319C115.142 93.1848 114.831 93.0612 114.413 93.0612C114.109 93.0612 113.824 93.1301 113.557 93.2679C113.291 93.4057 113.04 93.5934 112.802 93.831V99.1196H111.041V91.8068H112.118C112.346 91.8068 112.495 91.9137 112.567 92.1275L112.688 92.7049ZM123.799 94.6222C123.799 94.3941 123.766 94.1803 123.699 93.9807C123.637 93.7764 123.542 93.5982 123.414 93.4461C123.286 93.2941 123.122 93.1753 122.922 93.0897C122.728 92.9995 122.499 92.9543 122.238 92.9543C121.73 92.9543 121.328 93.0992 121.034 93.3891C120.744 93.6789 120.558 94.09 120.478 94.6222H123.799ZM120.442 95.6842C120.47 96.0595 120.537 96.385 120.642 96.6606C120.746 96.9315 120.884 97.1572 121.055 97.3377C121.226 97.5136 121.428 97.6466 121.661 97.7369C121.898 97.8224 122.16 97.8652 122.445 97.8652C122.73 97.8652 122.975 97.8319 123.179 97.7654C123.388 97.6989 123.569 97.6252 123.721 97.5444C123.877 97.4637 124.013 97.39 124.127 97.3235C124.246 97.257 124.36 97.2237 124.469 97.2237C124.616 97.2237 124.726 97.2784 124.797 97.3876L125.303 98.0291C125.108 98.2572 124.89 98.4496 124.647 98.6064C124.405 98.7585 124.151 98.882 123.885 98.9771C123.623 99.0674 123.355 99.1315 123.079 99.1695C122.808 99.2075 122.545 99.2265 122.288 99.2265C121.78 99.2265 121.307 99.1434 120.87 98.9771C120.432 98.806 120.052 98.5566 119.729 98.2287C119.406 97.8961 119.152 97.4874 118.967 97.0028C118.781 96.5133 118.689 95.9479 118.689 95.3064C118.689 94.8075 118.769 94.3394 118.931 93.9023C119.093 93.4604 119.323 93.0779 119.622 92.7547C119.926 92.4269 120.295 92.1679 120.727 91.9778C121.164 91.7878 121.656 91.6927 122.202 91.6927C122.663 91.6927 123.089 91.7664 123.478 91.9137C123.868 92.061 124.203 92.2772 124.483 92.5623C124.764 92.8427 124.982 93.1895 125.139 93.6029C125.301 94.0116 125.381 94.4796 125.381 95.007C125.381 95.2731 125.353 95.4537 125.296 95.5487C125.239 95.639 125.13 95.6842 124.968 95.6842H120.442ZM128.363 93.0755C128.591 92.6383 128.862 92.2962 129.176 92.0491C129.489 91.7973 129.86 91.6714 130.288 91.6714C130.625 91.6714 130.896 91.745 131.1 91.8923L130.986 93.2109C130.962 93.2964 130.927 93.3582 130.879 93.3962C130.836 93.4295 130.777 93.4461 130.701 93.4461C130.63 93.4461 130.523 93.4342 130.38 93.4105C130.243 93.3867 130.107 93.3748 129.974 93.3748C129.779 93.3748 129.606 93.4034 129.454 93.4604C129.302 93.5174 129.164 93.6005 129.04 93.7098C128.922 93.8144 128.815 93.9427 128.72 94.0947C128.629 94.2468 128.544 94.4202 128.463 94.615V99.1196H126.703V91.8068H127.736C127.917 91.8068 128.042 91.84 128.114 91.9066C128.185 91.9683 128.233 92.0824 128.256 92.2487L128.363 93.0755ZM134.61 95.285C134.828 95.285 135.018 95.2565 135.18 95.1995C135.341 95.1377 135.474 95.0546 135.579 94.95C135.688 94.8455 135.769 94.7196 135.821 94.5723C135.878 94.425 135.907 94.2634 135.907 94.0876C135.907 93.7265 135.798 93.4414 135.579 93.2323C135.365 93.0185 135.042 92.9116 134.61 92.9116C134.177 92.9116 133.852 93.0185 133.633 93.2323C133.419 93.4414 133.312 93.7265 133.312 94.0876C133.312 94.2587 133.339 94.4178 133.391 94.5651C133.448 94.7124 133.529 94.8407 133.633 94.95C133.742 95.0546 133.878 95.1377 134.039 95.1995C134.206 95.2565 134.396 95.285 134.61 95.285ZM136.598 99.4475C136.598 99.3049 136.555 99.1885 136.47 99.0982C136.384 99.008 136.268 98.9391 136.121 98.8915C135.973 98.8393 135.8 98.8013 135.6 98.7775C135.406 98.7537 135.196 98.7371 134.973 98.7276C134.755 98.7134 134.526 98.7015 134.289 98.692C134.056 98.6825 133.828 98.6635 133.605 98.635C133.41 98.7442 133.251 98.8725 133.127 99.0198C133.008 99.1671 132.949 99.3382 132.949 99.533C132.949 99.6613 132.98 99.7801 133.042 99.8894C133.108 100.003 133.21 100.101 133.348 100.182C133.491 100.262 133.674 100.324 133.897 100.367C134.12 100.414 134.393 100.438 134.717 100.438C135.044 100.438 135.327 100.412 135.565 100.36C135.802 100.312 135.997 100.243 136.149 100.153C136.306 100.068 136.42 99.9631 136.491 99.8395C136.563 99.7207 136.598 99.59 136.598 99.4475ZM138.352 92.0562V92.712C138.352 92.9211 138.226 93.0494 137.974 93.0969L137.318 93.218C137.418 93.4699 137.468 93.7455 137.468 94.0448C137.468 94.406 137.394 94.7338 137.247 95.0284C137.104 95.3183 136.905 95.5654 136.648 95.7697C136.392 95.974 136.087 96.1332 135.736 96.2472C135.389 96.3565 135.014 96.4112 134.61 96.4112C134.467 96.4112 134.329 96.404 134.196 96.3898C134.063 96.3755 133.933 96.3565 133.804 96.3328C133.576 96.4706 133.462 96.625 133.462 96.7961C133.462 96.9434 133.529 97.0526 133.662 97.1239C133.799 97.1904 133.98 97.238 134.203 97.2665C134.427 97.295 134.681 97.314 134.966 97.3235C135.251 97.3282 135.543 97.3425 135.843 97.3663C136.142 97.39 136.434 97.4328 136.719 97.4946C137.004 97.5516 137.259 97.6442 137.482 97.7725C137.705 97.9008 137.884 98.0766 138.017 98.3C138.154 98.5185 138.223 98.8013 138.223 99.1481C138.223 99.4713 138.142 99.7849 137.981 100.089C137.824 100.393 137.594 100.664 137.29 100.902C136.99 101.139 136.62 101.329 136.178 101.472C135.741 101.619 135.242 101.693 134.681 101.693C134.13 101.693 133.65 101.638 133.241 101.529C132.832 101.424 132.493 101.282 132.222 101.101C131.951 100.925 131.749 100.721 131.616 100.488C131.483 100.255 131.416 100.013 131.416 99.7611C131.416 99.419 131.519 99.1339 131.723 98.9058C131.932 98.673 132.217 98.4877 132.578 98.3499C132.383 98.2501 132.229 98.117 132.115 97.9507C132.001 97.7844 131.944 97.5658 131.944 97.295C131.944 97.1857 131.963 97.074 132.001 96.96C132.044 96.8412 132.103 96.7248 132.179 96.6107C132.26 96.4967 132.36 96.3898 132.478 96.29C132.597 96.1855 132.737 96.0928 132.899 96.012C132.528 95.8125 132.236 95.5464 132.022 95.2137C131.813 94.8811 131.709 94.4915 131.709 94.0448C131.709 93.6837 131.78 93.3582 131.923 93.0684C132.07 92.7738 132.272 92.5243 132.528 92.32C132.79 92.1109 133.096 91.9517 133.448 91.8424C133.804 91.7331 134.191 91.6785 134.61 91.6785C134.923 91.6785 135.218 91.7118 135.493 91.7783C135.769 91.84 136.021 91.9327 136.249 92.0562H138.352ZM146.111 91.8068L142.127 101.13C142.074 101.253 142.005 101.346 141.92 101.408C141.839 101.474 141.713 101.507 141.542 101.507H140.231L141.599 98.5708L138.641 91.8068H140.188C140.326 91.8068 140.433 91.84 140.509 91.9066C140.589 91.9731 140.649 92.0491 140.687 92.1347L142.241 95.9265C142.293 96.0548 142.336 96.1831 142.369 96.3114C142.407 96.4397 142.443 96.5703 142.476 96.7034C142.519 96.5703 142.561 96.4397 142.604 96.3114C142.647 96.1783 142.694 96.0477 142.747 95.9194L144.215 92.1347C144.253 92.0396 144.315 91.9612 144.4 91.8994C144.491 91.8377 144.59 91.8068 144.7 91.8068H146.111ZM152.527 99.2337C151.891 99.2337 151.401 99.0555 151.059 98.6991C150.722 98.338 150.553 97.8414 150.553 97.2095V93.1254H149.805C149.71 93.1254 149.629 93.0945 149.562 93.0327C149.496 92.9709 149.462 92.8783 149.462 92.7547V92.0562L150.639 91.8638L151.009 89.8681C151.033 89.7731 151.078 89.6994 151.145 89.6471C151.211 89.5949 151.297 89.5687 151.401 89.5687H152.314V91.8709H154.266V93.1254H152.314V97.0883C152.314 97.3164 152.368 97.4946 152.477 97.6228C152.591 97.7511 152.746 97.8153 152.941 97.8153C153.05 97.8153 153.14 97.8034 153.212 97.7797C153.288 97.7511 153.352 97.7226 153.404 97.6941C153.461 97.6656 153.511 97.6395 153.554 97.6157C153.596 97.5872 153.639 97.573 153.682 97.573C153.734 97.573 153.777 97.5872 153.81 97.6157C153.844 97.6395 153.879 97.6775 153.917 97.7298L154.445 98.5851C154.188 98.7989 153.893 98.9604 153.561 99.0697C153.228 99.179 152.884 99.2337 152.527 99.2337ZM157.054 93.0755C157.282 92.6383 157.553 92.2962 157.867 92.0491C158.18 91.7973 158.551 91.6714 158.979 91.6714C159.316 91.6714 159.587 91.745 159.791 91.8923L159.677 93.2109C159.653 93.2964 159.618 93.3582 159.57 93.3962C159.528 93.4295 159.468 93.4461 159.392 93.4461C159.321 93.4461 159.214 93.4342 159.071 93.4105C158.934 93.3867 158.798 93.3748 158.665 93.3748C158.47 93.3748 158.297 93.4034 158.145 93.4604C157.993 93.5174 157.855 93.6005 157.731 93.7098C157.613 93.8144 157.506 93.9427 157.411 94.0947C157.32 94.2468 157.235 94.4202 157.154 94.615V99.1196H155.394V91.8068H156.427C156.608 91.8068 156.734 91.84 156.805 91.9066C156.876 91.9683 156.924 92.0824 156.947 92.2487L157.054 93.0755ZM164.477 95.9978C163.969 96.0215 163.541 96.0667 163.194 96.1332C162.847 96.195 162.569 96.2757 162.36 96.3755C162.151 96.4753 162.001 96.5917 161.911 96.7248C161.821 96.8578 161.776 97.0028 161.776 97.1596C161.776 97.4684 161.866 97.6894 162.047 97.8224C162.232 97.9555 162.472 98.022 162.766 98.022C163.128 98.022 163.439 97.9578 163.7 97.8295C163.966 97.6965 164.225 97.4969 164.477 97.2308V95.9978ZM160.443 92.826C161.284 92.0562 162.296 91.6714 163.479 91.6714C163.907 91.6714 164.289 91.7426 164.627 91.8852C164.964 92.023 165.249 92.2178 165.482 92.4696C165.715 92.7167 165.891 93.0137 166.009 93.3606C166.133 93.7075 166.195 94.0876 166.195 94.501V99.1196H165.397C165.23 99.1196 165.102 99.0959 165.012 99.0484C164.921 98.9961 164.85 98.8939 164.798 98.7419L164.641 98.2144C164.456 98.3807 164.275 98.528 164.099 98.6563C163.924 98.7799 163.741 98.8844 163.55 98.97C163.36 99.0555 163.156 99.1196 162.938 99.1624C162.724 99.2099 162.486 99.2337 162.225 99.2337C161.916 99.2337 161.631 99.1933 161.369 99.1125C161.108 99.027 160.882 98.9011 160.692 98.7347C160.502 98.5684 160.355 98.3617 160.25 98.1146C160.146 97.8676 160.094 97.5801 160.094 97.2522C160.094 97.0669 160.125 96.884 160.186 96.7034C160.248 96.5181 160.348 96.3423 160.486 96.176C160.628 96.0097 160.811 95.8528 161.034 95.7055C161.258 95.5582 161.531 95.4299 161.854 95.3207C162.182 95.2114 162.562 95.1235 162.995 95.0569C163.427 94.9857 163.921 94.9429 164.477 94.9286V94.501C164.477 94.0116 164.373 93.6504 164.163 93.4176C163.954 93.18 163.653 93.0612 163.258 93.0612C162.973 93.0612 162.736 93.0945 162.546 93.161C162.36 93.2275 162.196 93.3036 162.054 93.3891C161.911 93.4699 161.78 93.5435 161.662 93.61C161.548 93.6766 161.419 93.7098 161.277 93.7098C161.153 93.7098 161.049 93.6789 160.963 93.6172C160.878 93.5507 160.809 93.4746 160.757 93.3891L160.443 92.826ZM169.499 92.7049C169.647 92.5576 169.801 92.4221 169.963 92.2986C170.129 92.1703 170.302 92.0634 170.483 91.9778C170.668 91.8876 170.865 91.8187 171.074 91.7711C171.284 91.7189 171.512 91.6927 171.759 91.6927C172.158 91.6927 172.512 91.7616 172.821 91.8994C173.13 92.0325 173.386 92.2226 173.591 92.4696C173.8 92.712 173.956 93.0042 174.061 93.3463C174.17 93.6837 174.225 94.0567 174.225 94.4654V99.1196H172.464V94.4654C172.464 94.0187 172.362 93.6742 172.158 93.4319C171.954 93.1848 171.642 93.0612 171.224 93.0612C170.92 93.0612 170.635 93.1301 170.369 93.2679C170.103 93.4057 169.851 93.5934 169.613 93.831V99.1196H167.853V91.8068H168.929C169.157 91.8068 169.307 91.9137 169.378 92.1275L169.499 92.7049ZM180.361 93.2323C180.313 93.3083 180.264 93.363 180.211 93.3962C180.159 93.4247 180.093 93.439 180.012 93.439C179.926 93.439 179.834 93.4152 179.734 93.3677C179.639 93.3202 179.527 93.2679 179.399 93.2109C179.27 93.1491 179.123 93.0945 178.957 93.047C178.795 92.9995 178.603 92.9757 178.38 92.9757C178.033 92.9757 177.759 93.0494 177.56 93.1967C177.365 93.344 177.268 93.5364 177.268 93.774C177.268 93.9308 177.318 94.0638 177.417 94.1731C177.522 94.2777 177.657 94.3703 177.824 94.4511C177.995 94.5319 178.187 94.6055 178.401 94.6721C178.615 94.7338 178.831 94.8027 179.05 94.8787C179.273 94.9548 179.491 95.0427 179.705 95.1425C179.919 95.2375 180.109 95.361 180.275 95.5131C180.447 95.6604 180.582 95.8386 180.682 96.0477C180.786 96.2567 180.839 96.5086 180.839 96.8032C180.839 97.1548 180.774 97.4803 180.646 97.7797C180.523 98.0743 180.337 98.3308 180.09 98.5494C179.843 98.7633 179.537 98.9319 179.171 99.0555C178.81 99.1743 178.391 99.2337 177.916 99.2337C177.664 99.2337 177.417 99.2099 177.175 99.1624C176.937 99.1196 176.707 99.0579 176.484 98.9771C176.265 98.8963 176.061 98.8013 175.871 98.692C175.685 98.5827 175.521 98.4639 175.379 98.3356L175.785 97.6656C175.837 97.5848 175.899 97.5231 175.97 97.4803C176.042 97.4375 176.132 97.4161 176.241 97.4161C176.351 97.4161 176.453 97.447 176.548 97.5088C176.648 97.5706 176.762 97.6371 176.89 97.7084C177.018 97.7797 177.168 97.8462 177.339 97.9079C177.515 97.9697 177.736 98.0006 178.002 98.0006C178.211 98.0006 178.389 97.9768 178.536 97.9293C178.688 97.8771 178.812 97.8105 178.907 97.7298C179.007 97.649 179.078 97.5563 179.121 97.4518C179.168 97.3425 179.192 97.2308 179.192 97.1168C179.192 96.9457 179.14 96.8056 179.035 96.6963C178.935 96.587 178.8 96.4919 178.629 96.4112C178.463 96.3304 178.27 96.2591 178.052 96.1973C177.838 96.1308 177.617 96.0595 177.389 95.9835C177.165 95.9075 176.945 95.8196 176.726 95.7198C176.512 95.6153 176.32 95.4846 176.149 95.3278C175.982 95.171 175.847 94.9785 175.742 94.7505C175.643 94.5224 175.593 94.2468 175.593 93.9237C175.593 93.6243 175.652 93.3392 175.771 93.0684C175.89 92.7975 176.063 92.5623 176.291 92.3627C176.524 92.1584 176.811 91.9969 177.154 91.8781C177.5 91.7545 177.9 91.6927 178.351 91.6927C178.855 91.6927 179.313 91.7759 179.727 91.9422C180.14 92.1085 180.485 92.3271 180.76 92.5979L180.361 93.2323ZM183.988 91.8068V99.1196H182.221V91.8068H183.988ZM184.231 89.6757C184.231 89.8277 184.2 89.9703 184.138 90.1033C184.076 90.2364 183.993 90.3528 183.888 90.4526C183.789 90.5523 183.67 90.6331 183.532 90.6949C183.394 90.7519 183.247 90.7804 183.09 90.7804C182.938 90.7804 182.793 90.7519 182.655 90.6949C182.522 90.6331 182.406 90.5523 182.306 90.4526C182.206 90.3528 182.126 90.2364 182.064 90.1033C182.007 89.9703 181.978 89.8277 181.978 89.6757C181.978 89.5188 182.007 89.3715 182.064 89.2337C182.126 89.0959 182.206 88.9772 182.306 88.8774C182.406 88.7776 182.522 88.6992 182.655 88.6422C182.793 88.5804 182.938 88.5495 183.09 88.5495C183.247 88.5495 183.394 88.5804 183.532 88.6422C183.67 88.6992 183.789 88.7776 183.888 88.8774C183.993 88.9772 184.076 89.0959 184.138 89.2337C184.2 89.3715 184.231 89.5188 184.231 89.6757ZM193.16 99.1196H191.4V93.1254H188.007V97.0883C188.007 97.3164 188.061 97.4946 188.171 97.6228C188.285 97.7511 188.439 97.8153 188.634 97.8153C188.743 97.8153 188.834 97.8034 188.905 97.7797C188.981 97.7511 189.045 97.7226 189.097 97.6941C189.154 97.6656 189.204 97.6395 189.247 97.6157C189.29 97.5872 189.333 97.573 189.375 97.573C189.428 97.573 189.47 97.5872 189.504 97.6157C189.537 97.6395 189.573 97.6775 189.611 97.7298L190.138 98.5851C189.881 98.7989 189.587 98.9604 189.254 99.0697C188.922 99.179 188.577 99.2337 188.221 99.2337C187.584 99.2337 187.095 99.0555 186.752 98.6991C186.415 98.338 186.246 97.8414 186.246 97.2095V93.1254H185.498C185.403 93.1254 185.322 93.0945 185.256 93.0327C185.189 92.9709 185.156 92.8783 185.156 92.7547V92.0562L186.332 91.8567L186.702 89.8681C186.726 89.7731 186.771 89.6994 186.838 89.6471C186.904 89.5949 186.99 89.5687 187.095 89.5687H188.007V91.8709H193.16V99.1196ZM193.467 89.6471C193.467 89.7992 193.436 89.9441 193.374 90.0819C193.312 90.215 193.229 90.3314 193.124 90.4312C193.025 90.531 192.903 90.6117 192.761 90.6735C192.623 90.7305 192.476 90.759 192.319 90.759C192.167 90.759 192.024 90.7305 191.891 90.6735C191.758 90.6117 191.642 90.531 191.542 90.4312C191.442 90.3314 191.362 90.215 191.3 90.0819C191.243 89.9441 191.214 89.7992 191.214 89.6471C191.214 89.4903 191.243 89.3454 191.3 89.2124C191.362 89.0746 191.442 88.9558 191.542 88.856C191.642 88.7515 191.758 88.6707 191.891 88.6137C192.024 88.5519 192.167 88.521 192.319 88.521C192.476 88.521 192.623 88.5519 192.761 88.6137C192.903 88.6707 193.025 88.7515 193.124 88.856C193.229 88.9558 193.312 89.0746 193.374 89.2124C193.436 89.3454 193.467 89.4903 193.467 89.6471ZM198.193 91.6927C198.735 91.6927 199.226 91.7807 199.668 91.9565C200.115 92.1323 200.495 92.3817 200.809 92.7049C201.127 93.028 201.372 93.4224 201.543 93.888C201.714 94.3537 201.799 94.874 201.799 95.449C201.799 96.0287 201.714 96.5513 201.543 97.017C201.372 97.4827 201.127 97.8794 200.809 98.2073C200.495 98.5352 200.115 98.787 199.668 98.9628C199.226 99.1386 198.735 99.2265 198.193 99.2265C197.646 99.2265 197.15 99.1386 196.703 98.9628C196.257 98.787 195.874 98.5352 195.556 98.2073C195.242 97.8794 194.997 97.4827 194.822 97.017C194.65 96.5513 194.565 96.0287 194.565 95.449C194.565 94.874 194.65 94.3537 194.822 93.888C194.997 93.4224 195.242 93.028 195.556 92.7049C195.874 92.3817 196.257 92.1323 196.703 91.9565C197.15 91.7807 197.646 91.6927 198.193 91.6927ZM198.193 97.8723C198.801 97.8723 199.25 97.668 199.54 97.2593C199.835 96.8507 199.982 96.252 199.982 95.4632C199.982 94.6744 199.835 94.0733 199.54 93.6599C199.25 93.2465 198.801 93.0398 198.193 93.0398C197.575 93.0398 197.117 93.2489 196.817 93.6671C196.523 94.0805 196.375 94.6792 196.375 95.4632C196.375 96.2472 196.523 96.8459 196.817 97.2593C197.117 97.668 197.575 97.8723 198.193 97.8723ZM204.789 92.7049C204.936 92.5576 205.091 92.4221 205.252 92.2986C205.419 92.1703 205.592 92.0634 205.773 91.9778C205.958 91.8876 206.155 91.8187 206.364 91.7711C206.573 91.7189 206.801 91.6927 207.048 91.6927C207.447 91.6927 207.801 91.7616 208.11 91.8994C208.419 92.0325 208.676 92.2226 208.88 92.4696C209.089 92.712 209.246 93.0042 209.351 93.3463C209.46 93.6837 209.514 94.0567 209.514 94.4654V99.1196H207.754V94.4654C207.754 94.0187 207.652 93.6742 207.447 93.4319C207.243 93.1848 206.932 93.0612 206.514 93.0612C206.21 93.0612 205.925 93.1301 205.658 93.2679C205.392 93.4057 205.141 93.5934 204.903 93.831V99.1196H203.142V91.8068H204.219C204.447 91.8068 204.596 91.9137 204.668 92.1275L204.789 92.7049ZM105.251 108.807V116.12H103.484V108.807H105.251ZM105.494 106.676C105.494 106.828 105.463 106.97 105.401 107.103C105.339 107.236 105.256 107.353 105.152 107.453C105.052 107.552 104.933 107.633 104.795 107.695C104.657 107.752 104.51 107.78 104.353 107.78C104.201 107.78 104.056 107.752 103.918 107.695C103.785 107.633 103.669 107.552 103.569 107.453C103.469 107.353 103.389 107.236 103.327 107.103C103.27 106.97 103.241 106.828 103.241 106.676C103.241 106.519 103.27 106.372 103.327 106.234C103.389 106.096 103.469 105.977 103.569 105.877C103.669 105.778 103.785 105.699 103.918 105.642C104.056 105.58 104.201 105.55 104.353 105.55C104.51 105.55 104.657 105.58 104.795 105.642C104.933 105.699 105.052 105.778 105.152 105.877C105.256 105.977 105.339 106.096 105.401 106.234C105.463 106.372 105.494 106.519 105.494 106.676ZM108.693 109.705C108.84 109.558 108.994 109.422 109.156 109.299C109.322 109.17 109.496 109.063 109.676 108.978C109.862 108.888 110.059 108.819 110.268 108.771C110.477 108.719 110.705 108.693 110.952 108.693C111.351 108.693 111.705 108.762 112.014 108.899C112.323 109.032 112.579 109.223 112.784 109.47C112.993 109.712 113.15 110.004 113.254 110.346C113.363 110.684 113.418 111.057 113.418 111.465V116.12H111.658V111.465C111.658 111.019 111.555 110.674 111.351 110.432C111.147 110.185 110.836 110.061 110.417 110.061C110.113 110.061 109.828 110.13 109.562 110.268C109.296 110.406 109.044 110.593 108.807 110.831V116.12H107.046V108.807H108.122C108.35 108.807 108.5 108.914 108.571 109.128L108.693 109.705ZM124.681 114.48C124.871 114.48 125.021 114.535 125.13 114.644C125.244 114.749 125.301 114.889 125.301 115.065V116.12H118.231V115.535C118.231 115.416 118.255 115.293 118.302 115.165C118.354 115.031 118.435 114.913 118.545 114.808L121.673 111.672C121.935 111.406 122.168 111.152 122.372 110.909C122.581 110.667 122.754 110.427 122.892 110.19C123.03 109.952 123.135 109.712 123.206 109.47C123.282 109.223 123.32 108.964 123.32 108.693C123.32 108.446 123.284 108.229 123.213 108.044C123.142 107.854 123.04 107.695 122.907 107.567C122.778 107.438 122.621 107.343 122.436 107.281C122.256 107.215 122.051 107.182 121.823 107.182C121.614 107.182 121.419 107.213 121.239 107.274C121.063 107.331 120.906 107.415 120.768 107.524C120.63 107.628 120.514 107.752 120.419 107.894C120.324 108.037 120.253 108.194 120.205 108.365C120.124 108.583 120.02 108.728 119.892 108.8C119.763 108.871 119.578 108.888 119.336 108.85L118.409 108.686C118.48 108.191 118.618 107.759 118.822 107.388C119.027 107.013 119.281 106.702 119.585 106.455C119.894 106.203 120.246 106.015 120.64 105.892C121.039 105.763 121.467 105.699 121.923 105.699C122.398 105.699 122.833 105.77 123.227 105.913C123.622 106.051 123.959 106.248 124.239 106.505C124.52 106.761 124.738 107.07 124.895 107.431C125.052 107.792 125.13 108.194 125.13 108.636C125.13 109.016 125.073 109.367 124.959 109.691C124.85 110.014 124.7 110.323 124.51 110.617C124.325 110.912 124.106 111.197 123.855 111.472C123.603 111.748 123.339 112.028 123.063 112.314L120.74 114.687C120.963 114.62 121.184 114.571 121.403 114.537C121.626 114.499 121.837 114.48 122.037 114.48H124.681ZM133.87 110.966C133.87 111.864 133.772 112.646 133.578 113.311C133.388 113.972 133.121 114.518 132.779 114.951C132.442 115.383 132.04 115.706 131.575 115.92C131.114 116.129 130.615 116.234 130.078 116.234C129.541 116.234 129.042 116.129 128.581 115.92C128.125 115.706 127.728 115.383 127.391 114.951C127.054 114.518 126.79 113.972 126.6 113.311C126.41 112.646 126.315 111.864 126.315 110.966C126.315 110.064 126.41 109.282 126.6 108.621C126.79 107.961 127.054 107.415 127.391 106.982C127.728 106.55 128.125 106.229 128.581 106.02C129.042 105.806 129.541 105.699 130.078 105.699C130.615 105.699 131.114 105.806 131.575 106.02C132.04 106.229 132.442 106.55 132.779 106.982C133.121 107.415 133.388 107.961 133.578 108.621C133.772 109.282 133.87 110.064 133.87 110.966ZM132.052 110.966C132.052 110.22 131.998 109.603 131.888 109.113C131.779 108.624 131.632 108.234 131.446 107.944C131.266 107.655 131.057 107.453 130.819 107.339C130.582 107.22 130.335 107.16 130.078 107.16C129.826 107.16 129.581 107.22 129.344 107.339C129.111 107.453 128.904 107.655 128.724 107.944C128.543 108.234 128.398 108.624 128.289 109.113C128.184 109.603 128.132 110.22 128.132 110.966C128.132 111.712 128.184 112.33 128.289 112.82C128.398 113.309 128.543 113.699 128.724 113.988C128.904 114.278 129.111 114.483 129.344 114.601C129.581 114.716 129.826 114.773 130.078 114.773C130.335 114.773 130.582 114.716 130.819 114.601C131.057 114.483 131.266 114.278 131.446 113.988C131.632 113.699 131.779 113.309 131.888 112.82C131.998 112.33 132.052 111.712 132.052 110.966ZM141.219 114.48C141.409 114.48 141.559 114.535 141.668 114.644C141.782 114.749 141.839 114.889 141.839 115.065V116.12H134.769V115.535C134.769 115.416 134.793 115.293 134.84 115.165C134.893 115.031 134.973 114.913 135.083 114.808L138.212 111.672C138.473 111.406 138.706 111.152 138.91 110.909C139.119 110.667 139.293 110.427 139.43 110.19C139.568 109.952 139.673 109.712 139.744 109.47C139.82 109.223 139.858 108.964 139.858 108.693C139.858 108.446 139.822 108.229 139.751 108.044C139.68 107.854 139.578 107.695 139.445 107.567C139.316 107.438 139.16 107.343 138.974 107.281C138.794 107.215 138.589 107.182 138.361 107.182C138.152 107.182 137.957 107.213 137.777 107.274C137.601 107.331 137.444 107.415 137.306 107.524C137.169 107.628 137.052 107.752 136.957 107.894C136.862 108.037 136.791 108.194 136.743 108.365C136.663 108.583 136.558 108.728 136.43 108.8C136.301 108.871 136.116 108.888 135.874 108.85L134.947 108.686C135.018 108.191 135.156 107.759 135.361 107.388C135.565 107.013 135.819 106.702 136.123 106.455C136.432 106.203 136.784 106.015 137.178 105.892C137.577 105.763 138.005 105.699 138.461 105.699C138.936 105.699 139.371 105.77 139.765 105.913C140.16 106.051 140.497 106.248 140.777 106.505C141.058 106.761 141.276 107.07 141.433 107.431C141.59 107.792 141.668 108.194 141.668 108.636C141.668 109.016 141.611 109.367 141.497 109.691C141.388 110.014 141.238 110.323 141.048 110.617C140.863 110.912 140.644 111.197 140.393 111.472C140.141 111.748 139.877 112.028 139.601 112.314L137.278 114.687C137.501 114.62 137.722 114.571 137.941 114.537C138.164 114.499 138.376 114.48 138.575 114.48H141.219ZM143.266 108.686C143.337 108.191 143.475 107.759 143.68 107.388C143.884 107.013 144.138 106.702 144.442 106.455C144.751 106.203 145.103 106.015 145.497 105.892C145.896 105.763 146.324 105.699 146.78 105.699C147.255 105.699 147.683 105.768 148.063 105.906C148.448 106.039 148.776 106.227 149.047 106.469C149.317 106.707 149.524 106.987 149.667 107.31C149.814 107.633 149.888 107.982 149.888 108.358C149.888 108.686 149.85 108.975 149.774 109.227C149.702 109.474 149.598 109.691 149.46 109.876C149.322 110.061 149.151 110.218 148.947 110.346C148.742 110.475 148.512 110.582 148.255 110.667C148.873 110.862 149.334 111.159 149.638 111.558C149.942 111.957 150.094 112.458 150.094 113.062C150.094 113.575 149.999 114.029 149.809 114.423C149.619 114.818 149.363 115.15 149.039 115.421C148.716 115.687 148.341 115.889 147.913 116.027C147.49 116.165 147.041 116.234 146.566 116.234C146.048 116.234 145.597 116.174 145.212 116.055C144.827 115.937 144.492 115.761 144.207 115.528C143.922 115.295 143.68 115.01 143.48 114.673C143.28 114.335 143.109 113.946 142.967 113.504L143.744 113.183C143.948 113.098 144.138 113.076 144.314 113.119C144.494 113.157 144.625 113.252 144.706 113.404C144.791 113.57 144.884 113.734 144.984 113.896C145.088 114.057 145.212 114.202 145.354 114.331C145.497 114.454 145.663 114.556 145.853 114.637C146.048 114.713 146.279 114.751 146.545 114.751C146.844 114.751 147.105 114.704 147.329 114.609C147.552 114.509 147.737 114.381 147.885 114.224C148.037 114.067 148.148 113.893 148.22 113.703C148.296 113.509 148.334 113.314 148.334 113.119C148.334 112.872 148.308 112.649 148.255 112.449C148.203 112.245 148.094 112.071 147.928 111.929C147.761 111.786 147.521 111.674 147.208 111.594C146.899 111.513 146.483 111.472 145.96 111.472V110.218C146.393 110.213 146.751 110.173 147.037 110.097C147.322 110.021 147.547 109.916 147.714 109.783C147.885 109.645 148.004 109.482 148.07 109.291C148.137 109.101 148.17 108.892 148.17 108.664C148.17 108.18 148.034 107.811 147.764 107.559C147.493 107.308 147.132 107.182 146.68 107.182C146.471 107.182 146.279 107.213 146.103 107.274C145.927 107.331 145.768 107.415 145.625 107.524C145.488 107.628 145.371 107.752 145.276 107.894C145.181 108.037 145.11 108.194 145.062 108.365C144.981 108.583 144.875 108.728 144.742 108.8C144.613 108.871 144.43 108.888 144.193 108.85L143.266 108.686Z" fill="#134E78"/>
<path d="M23.0107 89.2729C32.1425 93.0363 43.2762 96.1459 54.114 111.466H48.1369C46.3659 104.769 35.4361 97.7381 23.0107 89.2729Z" fill="#14867F"/>
<path d="M73.4558 88.2988C63.0683 92.5797 64.3795 94.0394 52.0513 111.466H60.6131C62.6277 103.849 60.6131 101.142 73.4558 88.2988Z" fill="#14867F"/>
<path d="M38.175 80.1414C48.77 95.1188 48.7997 97.0207 50.4614 111.466H56.5492C52.9425 96.9802 51.9003 93.7006 38.175 80.1414Z" fill="#51CAA6"/>
</svg>
