<svg width="199" height="185" viewBox="0 0 199 185" fill="none" xmlns="http://www.w3.org/2000/svg">
<path d="M156.545 91.9546C156.545 123.947 130.957 149.882 99.3929 149.882C67.8289 149.882 42.2412 123.947 42.2412 91.9546C42.2412 59.9623 67.8289 33.481 99.3929 33.481C130.957 33.481 156.545 59.9623 156.545 91.9546Z" fill="#002642"/>
<ellipse cx="98.8483" cy="91.408" rx="43.5441" ry="43.1721" fill="#D9D9D9"/>
<ellipse cx="98.8482" cy="91.4081" rx="35.9239" ry="35.5214" fill="#FFC200"/>
<ellipse cx="98.3045" cy="89.7682" rx="28.848" ry="28.4171" fill="#D8A505"/>
<rect width="21.8371" height="14.1663" rx="3" transform="matrix(0.503609 -0.863932 0.86217 0.506618 138.038 127.214)" fill="#002642"/>
<rect x="87.9629" y="25.2837" width="21.7721" height="14.2085" rx="3" fill="#002642"/>
<rect x="87.9629" y="143.324" width="21.7721" height="14.2085" rx="3" fill="#002642"/>
<rect width="21.8371" height="14.1663" rx="3" transform="matrix(0.503609 -0.863932 0.86217 0.506618 35.7095 67.1016)" fill="#002642"/>
<rect width="16.3462" height="22.0541" rx="3" transform="matrix(0.858185 -0.51334 0.510318 0.859986 35.7095 115.646)" fill="#002642"/>
<rect width="16.3462" height="22.0541" rx="3" transform="matrix(0.858185 -0.51334 0.510318 0.859986 136.949 56.6265)" fill="#002642"/>
<path d="M98.5652 99.5139C99.8452 99.3273 100.805 98.8939 101.445 98.2139C102.085 97.5206 102.405 96.6006 102.405 95.4539C102.405 95.0006 102.325 94.6073 102.165 94.2739C102.005 93.9273 101.785 93.6206 101.505 93.3539C101.225 93.0873 100.892 92.8539 100.505 92.6539C100.118 92.4406 99.6985 92.2539 99.2452 92.0939L98.5652 99.5139ZM97.0252 79.1139C96.3452 79.2073 95.7652 79.3606 95.2852 79.5739C94.8052 79.7739 94.4118 80.0206 94.1052 80.3139C93.8118 80.6073 93.5918 80.9339 93.4452 81.2939C93.3118 81.6406 93.2452 82.0139 93.2452 82.4139C93.2452 82.8673 93.3185 83.2739 93.4652 83.6339C93.6252 83.9806 93.8452 84.2939 94.1252 84.5739C94.4052 84.8539 94.7385 85.1073 95.1252 85.3339C95.5118 85.5473 95.9385 85.7406 96.4052 85.9139L97.0252 79.1139ZM99.7052 86.9939C100.345 87.1806 100.985 87.3873 101.625 87.6139C102.265 87.8273 102.878 88.0739 103.465 88.3539C104.052 88.6339 104.598 88.9606 105.105 89.3339C105.612 89.7073 106.052 90.1473 106.425 90.6539C106.812 91.1473 107.112 91.7206 107.325 92.3739C107.538 93.0273 107.645 93.7739 107.645 94.6139C107.645 95.8539 107.432 97.0273 107.005 98.1339C106.592 99.2273 105.978 100.201 105.165 101.054C104.352 101.894 103.358 102.581 102.185 103.114C101.012 103.647 99.6652 103.967 98.1452 104.074L97.9052 106.794C97.8785 107.141 97.7318 107.454 97.4652 107.734C97.1985 108.014 96.8518 108.154 96.4252 108.154H94.4052L94.7852 103.934C94.0252 103.827 93.2718 103.667 92.5252 103.454C91.7918 103.227 91.0852 102.961 90.4052 102.654C89.7252 102.334 89.0852 101.981 88.4852 101.594C87.8852 101.194 87.3452 100.761 86.8652 100.294L88.5652 97.7939C88.7118 97.5806 88.9118 97.4073 89.1652 97.2739C89.4185 97.1273 89.6785 97.0539 89.9452 97.0539C90.2518 97.0539 90.5718 97.1473 90.9052 97.3339C91.2385 97.5206 91.6052 97.7473 92.0052 98.0139C92.4185 98.2673 92.8785 98.5273 93.3852 98.7939C93.9052 99.0606 94.5052 99.2673 95.1852 99.4139L95.9452 91.1139C95.3052 90.9406 94.6652 90.7473 94.0252 90.5339C93.3985 90.3073 92.7918 90.0473 92.2052 89.7539C91.6185 89.4606 91.0718 89.1206 90.5652 88.7339C90.0718 88.3339 89.6385 87.8606 89.2652 87.3139C88.8918 86.7673 88.5985 86.1406 88.3852 85.4339C88.1718 84.7139 88.0652 83.8873 88.0652 82.9539C88.0652 81.9139 88.2718 80.9073 88.6852 79.9339C89.0985 78.9473 89.6985 78.0673 90.4852 77.2939C91.2852 76.5206 92.2652 75.8873 93.4252 75.3939C94.5852 74.8873 95.9185 74.5939 97.4252 74.5139L97.6452 72.1339C97.6718 71.7873 97.8185 71.4806 98.0852 71.2139C98.3652 70.9339 98.7118 70.7939 99.1252 70.7939H101.165L100.805 74.7139C102.245 74.9673 103.478 75.3806 104.505 75.9539C105.532 76.5273 106.412 77.1739 107.145 77.8939L105.785 79.8939C105.598 80.2006 105.398 80.4273 105.185 80.5739C104.972 80.7073 104.718 80.7739 104.425 80.7739C104.225 80.7739 103.985 80.7206 103.705 80.6139C103.438 80.4939 103.138 80.3539 102.805 80.1939C102.472 80.0206 102.098 79.8473 101.685 79.6739C101.285 79.5006 100.858 79.3539 100.405 79.2339L99.7052 86.9939Z" fill="white"/>
<path d="M6.86182 85.3965C6.86182 85.3965 7.18368 78.3564 7.95042 73.9204C9.9042 62.6165 17.6581 43.2055 26 32.9343C36.5 20.0059 64.5636 -0.395279 98 0.00585938C116.05 0.222408 129.393 1.65814 145.114 10.5284C161.773 19.9272 170.439 28.3621 179.95 44.9568C184.322 52.5866 186.403 57.2233 188.659 65.7231C190.594 73.0155 191.38 84.85 191.38 84.85C191.38 84.85 195 84.5057 197 85.0057C198 85.2557 199 86.0057 199 87.5057C199 89.0057 193.224 99.2632 188.114 104.523C187.694 104.955 187.533 105.292 187.026 105.616C186.459 105.978 186.063 106.111 185.393 106.163C184.519 106.23 183.954 106.088 183.215 105.616C182.708 105.292 182.548 104.955 182.127 104.523C177.245 99.5204 170.657 90.5057 170.5 89.5057C170.343 88.5057 170 86.5057 171 85.5057C172 84.5057 177.228 84.85 177.228 84.85C177.228 84.85 176.453 78.1499 175.595 73.9204C172.874 60.5057 165.044 46.0057 156 37.0058C141.905 22.9794 123 13.0058 100.482 13.0058C78.39 13.0058 61.1373 19.9716 44.5 34.5059C27.8627 49.0401 24.5 68.0058 21.558 79.9317L21.0137 85.3965H6.86182Z" fill="#134E78"/>
<path d="M6.86182 85.3965C6.86182 85.3965 7.18368 78.3564 7.95042 73.9204C9.9042 62.6165 17.6581 43.2055 26 32.9343C36.5 20.0059 64.5636 -0.395279 98 0.00585938C116.05 0.222408 129.393 1.65814 145.114 10.5284C161.773 19.9272 170.439 28.3621 179.95 44.9568C184.322 52.5866 186.403 57.2233 188.659 65.7231C190.594 73.0155 191.38 84.85 191.38 84.85C191.38 84.85 195 84.5057 197 85.0057C198 85.2557 199 86.0057 199 87.5057C199 89.0057 193.224 99.2632 188.114 104.523C187.694 104.955 187.533 105.292 187.026 105.616C186.459 105.978 186.063 106.111 185.393 106.163C184.519 106.23 183.954 106.088 183.215 105.616C182.708 105.292 182.548 104.955 182.127 104.523C177.245 99.5204 170.657 90.5057 170.5 89.5057C170.343 88.5057 170 86.5057 171 85.5057C172 84.5057 177.228 84.85 177.228 84.85C177.228 84.85 176.453 78.1499 175.595 73.9204C172.874 60.5057 165.044 46.0057 156 37.0058C141.905 22.9794 123 13.0058 100.482 13.0058C78.39 13.0058 61.1373 19.9716 44.5 34.5059C27.8627 49.0401 24.5 68.0058 21.558 79.9317L21.0137 85.3965H6.86182Z" fill="#134E78"/>
<path d="M93.4057 75.5602L94.4943 71.1883L86.3298 61.8981L85.7855 47.1431L87.4184 60.8051L93.95 67.0897L95.8667 69.0024V75.0137L97.4996 73.3742L98.0439 71.7348L106.753 65.7235L113.284 72.8277L122.254 61.8981L139.671 61.3516L141.849 81.5715L156.545 71.7348L165.798 75.5602L156.545 73.3742L140.76 84.3039L138.038 63.5375H123.342L113.001 75.5602L107.297 68.4559L100.482 73.3742L113.001 86.4898L98.3044 89.7687L117.355 99.0589L115.722 106.163V100.698L94.4943 89.7687L109.735 85.3969L98.3044 75.5602L93.95 81.025L85.7855 71.7348L61.2919 87.5828L50.9502 81.025L60.2033 85.9433L86.3298 68.4559L93.4057 75.5602Z" fill="#212121"/>
<path d="M6.86182 85.3965C6.86182 85.3965 7.18368 78.3564 7.95042 73.9204C9.9042 62.6165 17.6581 43.2055 26 32.9343C36.5 20.0059 64.5636 -0.395279 98 0.00585938C116.05 0.222408 129.393 1.65814 145.114 10.5284C161.773 19.9272 170.439 28.3621 179.95 44.9568C184.322 52.5866 186.403 57.2233 188.659 65.7231C190.594 73.0155 191.38 84.85 191.38 84.85C191.38 84.85 195 84.5057 197 85.0057C198 85.2557 199 86.0057 199 87.5057C199 89.0057 193.224 99.2632 188.114 104.523C187.694 104.955 187.533 105.292 187.026 105.616C186.459 105.978 186.063 106.111 185.393 106.163C184.519 106.23 183.954 106.088 183.215 105.616C182.708 105.292 182.548 104.955 182.127 104.523C177.245 99.5204 170.657 90.5057 170.5 89.5057C170.343 88.5057 170 86.5057 171 85.5057C172 84.5057 177.228 84.85 177.228 84.85C177.228 84.85 176.453 78.1499 175.595 73.9204C172.874 60.5057 165.044 46.0057 156 37.0058C141.905 22.9794 123 13.0058 100.482 13.0058C78.39 13.0058 61.1373 19.9716 44.5 34.5059C27.8627 49.0401 24.5 68.0058 21.558 79.9317L21.0137 85.3965H6.86182Z" fill="#134E78"/>
<path d="M6.86182 85.3965C6.86182 85.3965 7.18368 78.3564 7.95042 73.9204C9.9042 62.6165 17.6581 43.2055 26 32.9343C36.5 20.0059 64.5636 -0.395279 98 0.00585938C116.05 0.222408 129.393 1.65814 145.114 10.5284C161.773 19.9272 170.439 28.3621 179.95 44.9568C184.322 52.5866 186.403 57.2233 188.659 65.7231C190.594 73.0155 191.38 84.85 191.38 84.85C191.38 84.85 195 84.5057 197 85.0057C198 85.2557 199 86.0057 199 87.5057C199 89.0057 193.224 99.2632 188.114 104.523C187.694 104.955 187.533 105.292 187.026 105.616C186.459 105.978 186.063 106.111 185.393 106.163C184.519 106.23 183.954 106.088 183.215 105.616C182.708 105.292 182.548 104.955 182.127 104.523C177.245 99.5204 170.657 90.5057 170.5 89.5057C170.343 88.5057 170 86.5057 171 85.5057C172 84.5057 177.228 84.85 177.228 84.85C177.228 84.85 176.453 78.1499 175.595 73.9204C172.874 60.5057 165.044 46.0057 156 37.0058C141.905 22.9794 123 13.0058 100.482 13.0058C78.39 13.0058 61.1373 19.9716 44.5 34.5059C27.8627 49.0401 24.5 68.0058 21.558 79.9317L21.0137 85.3965H6.86182Z" fill="#134E78"/>
<path d="M192.138 97.2879C192.138 97.2879 191.816 104.328 191.05 108.764C189.096 120.068 187.395 124.885 180.5 136.179C172.183 149.801 161 161.679 151.5 168.679C142 175.679 119.59 184.531 98.5183 184.179C80.4694 183.877 69.6074 181.026 53.8856 172.156C37.2272 162.757 28.5611 154.322 19.0503 137.728C14.6775 130.098 12.597 125.461 10.3415 116.961C8.40637 109.669 7.62 97.8344 7.62 97.8344C7.62 97.8344 4 98.1787 2 97.6787C1 97.4287 0 96.6787 0 95.1787C0 93.6787 5.77582 83.4212 10.8858 78.161C11.3056 77.7289 11.4666 77.3922 11.9744 77.0681C12.5412 76.7062 12.9369 76.5733 13.6073 76.5216C14.4813 76.4541 15.0456 76.5964 15.7845 77.0681C16.2923 77.3922 16.4524 77.7299 16.8731 78.161C21.7549 83.164 28.3427 92.1787 28.5 93.1787C28.6573 94.1787 29 96.1787 28 97.1787C27 98.1787 21.7718 97.8344 21.7718 97.8344C21.7718 97.8344 22.5467 104.535 23.4047 108.764C26.1262 122.179 33.9561 136.679 43 145.679C57.0949 159.705 76 169.679 98.5183 169.679C120.61 169.679 136.311 164.284 152.948 149.75C169.586 135.216 174.5 114.679 177.442 102.753L177.986 97.2879H192.138Z" fill="#840032"/>
<path d="M192.138 97.2879C192.138 97.2879 191.816 104.328 191.05 108.764C189.096 120.068 187.395 124.885 180.5 136.179C172.183 149.801 161 161.679 151.5 168.679C142 175.679 119.59 184.531 98.5183 184.179C80.4694 183.877 69.6074 181.026 53.8856 172.156C37.2272 162.757 28.5611 154.322 19.0503 137.728C14.6775 130.098 12.597 125.461 10.3415 116.961C8.40637 109.669 7.62 97.8344 7.62 97.8344C7.62 97.8344 4 98.1787 2 97.6787C1 97.4287 0 96.6787 0 95.1787C0 93.6787 5.77582 83.4212 10.8858 78.161C11.3056 77.7289 11.4666 77.3922 11.9744 77.0681C12.5412 76.7062 12.9369 76.5733 13.6073 76.5216C14.4813 76.4541 15.0456 76.5964 15.7845 77.0681C16.2923 77.3922 16.4524 77.7299 16.8731 78.161C21.7549 83.164 28.3427 92.1787 28.5 93.1787C28.6573 94.1787 29 96.1787 28 97.1787C27 98.1787 21.7718 97.8344 21.7718 97.8344C21.7718 97.8344 22.5467 104.535 23.4047 108.764C26.1262 122.179 33.9561 136.679 43 145.679C57.0949 159.705 76 169.679 98.5183 169.679C120.61 169.679 136.311 164.284 152.948 149.75C169.586 135.216 174.5 114.679 177.442 102.753L177.986 97.2879H192.138Z" fill="#840032"/>
<path d="M192.138 97.2881C192.138 97.2881 191.816 104.328 191.05 108.764C189.096 120.068 181.342 139.479 173 149.75C162.5 162.679 134.436 183.08 101 182.679C82.9499 182.462 69.6074 181.026 53.8856 172.156C37.2272 162.757 28.5611 154.322 19.0503 137.728C14.6775 130.098 12.597 125.461 10.3415 116.961C8.40637 109.669 7.62 97.8346 7.62 97.8346C7.62 97.8346 4 98.1789 2 97.6789C1 97.4289 0 96.6789 0 95.1789C0 93.6789 5.77582 83.4213 10.8858 78.1612C11.3056 77.7291 11.4666 77.3924 11.9744 77.0682C12.5412 76.7064 12.9369 76.5735 13.6073 76.5217C14.4813 76.4543 15.0456 76.5966 15.7845 77.0682C16.2923 77.3923 16.4524 77.73 16.8731 78.1612C21.7549 83.1642 28.3427 92.1789 28.5 93.1789C28.6573 94.1789 29 96.1789 28 97.1789C27 98.1789 21.7718 97.8346 21.7718 97.8346C21.7718 97.8346 22.5467 104.535 23.4047 108.764C26.1262 122.179 33.9561 136.679 43 145.679C57.0949 159.705 76 169.679 98.5183 169.679C120.61 169.679 137.863 162.713 154.5 148.179C171.137 133.645 174.5 114.679 177.442 102.753L177.986 97.2881H192.138Z" fill="#840032"/>
<path d="M192.138 97.2881C192.138 97.2881 191.816 104.328 191.05 108.764C189.096 120.068 181.342 139.479 173 149.75C162.5 162.679 134.436 183.08 101 182.679C82.9499 182.462 69.6074 181.026 53.8856 172.156C37.2272 162.757 28.5611 154.322 19.0503 137.728C14.6775 130.098 12.597 125.461 10.3415 116.961C8.40637 109.669 7.62 97.8346 7.62 97.8346C7.62 97.8346 4 98.1789 2 97.6789C1 97.4289 0 96.6789 0 95.1789C0 93.6789 5.77582 83.4213 10.8858 78.1612C11.3056 77.7291 11.4666 77.3924 11.9744 77.0682C12.5412 76.7064 12.9369 76.5735 13.6073 76.5217C14.4813 76.4543 15.0456 76.5966 15.7845 77.0682C16.2923 77.3923 16.4524 77.73 16.8731 78.1612C21.7549 83.1642 28.3427 92.1789 28.5 93.1789C28.6573 94.1789 29 96.1789 28 97.1789C27 98.1789 21.7718 97.8346 21.7718 97.8346C21.7718 97.8346 22.5467 104.535 23.4047 108.764C26.1262 122.179 33.9561 136.679 43 145.679C57.0949 159.705 76 169.679 98.5183 169.679C120.61 169.679 137.863 162.713 154.5 148.179C171.137 133.645 174.5 114.679 177.442 102.753L177.986 97.2881H192.138Z" fill="#840032"/>
<path d="M10.5 72.0062C10.5 72.0062 7.18377 78.3569 7.95051 73.9208C9.9043 62.617 14.6626 53.2994 21.558 42.0062C29.8753 28.3844 70 14.0059 79.5 7.00586C58.4278 6.6533 89 0.00577164 79.5 7.00586C97.5489 7.30784 129.393 1.65861 145.114 10.5289C161.773 19.9277 170.439 28.3625 179.95 44.9573C184.323 52.5871 186.403 57.2237 188.659 65.7236C190.594 73.016 191.38 84.8505 191.38 84.8505C191.38 84.8505 195 84.5062 197 85.0062C198 85.2562 199 86.0062 199 87.5062C199 89.0062 193.224 99.2637 188.114 104.524C187.695 104.956 187.533 105.293 187.026 105.617C186.459 105.979 186.063 106.112 185.393 106.163C184.519 106.231 183.955 106.088 183.216 105.617C182.708 105.293 182.548 104.955 182.127 104.524C177.245 99.5209 170.657 90.5062 170.5 89.5062C170.343 88.5062 170 86.5062 171 85.5062C172 84.5062 177.228 84.8505 177.228 84.8505C177.228 84.8505 176.453 78.1504 175.595 73.9209C172.874 60.5062 165.044 46.0061 156 37.0062C141.905 22.9798 123 13.0063 100.482 13.0063C78.39 13.0063 62.6889 18.4005 46.0516 32.9347C29.4143 47.4689 24.5001 68.0062 21.558 79.9322L18 73.9208L10.5 72.0062Z" fill="#134E78"/>
<path d="M10.5 72.0062C10.5 72.0062 7.18377 78.3569 7.95051 73.9208C9.9043 62.617 14.6626 53.2994 21.558 42.0062C29.8753 28.3844 70 14.0059 79.5 7.00586C58.4278 6.6533 89 0.00577164 79.5 7.00586C97.5489 7.30784 129.393 1.65861 145.114 10.5289C161.773 19.9277 170.439 28.3625 179.95 44.9573C184.323 52.5871 186.403 57.2237 188.659 65.7236C190.594 73.016 191.38 84.8505 191.38 84.8505C191.38 84.8505 195 84.5062 197 85.0062C198 85.2562 199 86.0062 199 87.5062C199 89.0062 193.224 99.2637 188.114 104.524C187.695 104.956 187.533 105.293 187.026 105.617C186.459 105.979 186.063 106.112 185.393 106.163C184.519 106.231 183.955 106.088 183.216 105.617C182.708 105.293 182.548 104.955 182.127 104.524C177.245 99.5209 170.657 90.5062 170.5 89.5062C170.343 88.5062 170 86.5062 171 85.5062C172 84.5062 177.228 84.8505 177.228 84.8505C177.228 84.8505 176.453 78.1504 175.595 73.9209C172.874 60.5062 165.044 46.0061 156 37.0062C141.905 22.9798 123 13.0063 100.482 13.0063C78.39 13.0063 62.6889 18.4005 46.0516 32.9347C29.4143 47.4689 24.5001 68.0062 21.558 79.9322L18 73.9208L10.5 72.0062Z" fill="#134E78"/>
</svg>
