<svg width="232" height="165" viewBox="0 0 232 165" fill="none" xmlns="http://www.w3.org/2000/svg">
<g clip-path="url(#clip0_4420_305)">
<rect width="232" height="164.25" fill="white"/>
<g clip-path="url(#clip1_4420_305)">
<rect x="48.3572" y="21.3678" width="183.735" height="100.089" rx="3.22191" fill="#C4C4C4"/>
<rect x="56.2213" y="27.0872" width="168.007" height="89.0078" rx="2.57752" fill="white"/>
<mask id="mask0_4420_305" style="mask-type:alpha" maskUnits="userSpaceOnUse" x="56" y="27" width="169" height="90">
<rect x="56.2213" y="27.0872" width="168.007" height="89.0078" rx="2.57752" fill="white"/>
</mask>
<g mask="url(#mask0_4420_305)">
<rect x="56.2213" y="27.0872" width="168.007" height="10.7238" fill="#002642"/>
<path d="M70.8771 63.7266C72.0387 63.7266 164.778 63.7266 211.002 63.7266" stroke="black" stroke-width="0.322191"/>
</g>
<circle cx="63.0131" cy="32.8063" r="1.42984" fill="#C05353"/>
<circle cx="69.4474" cy="32.8064" r="1.42984" fill="#FFE03B"/>
<circle cx="75.8819" cy="32.8064" r="1.42984" fill="#78BF83"/>
<rect x="84.4608" y="31.3765" width="28.5969" height="8.2216" rx="1.28876" fill="white"/>
<rect x="129.858" y="120.742" width="22.1626" height="17.5156" fill="#C4C4C4"/>
<path d="M118.42 134.899C118.42 134.187 118.997 133.61 119.708 133.61H161.814C162.525 133.61 163.102 134.187 163.102 134.899V140.76H118.42V134.899Z" fill="#C4C4C4"/>
<g clip-path="url(#clip2_4420_305)">
<path d="M76.284 72.2169C76.284 73.7808 74.2733 75.1213 74.2733 75.1213C74.2733 75.1213 72.2626 73.7808 72.2626 72.2169C72.2626 71.6836 72.4744 71.1722 72.8515 70.7951C73.2286 70.418 73.74 70.2062 74.2733 70.2062C74.8066 70.2062 75.318 70.418 75.6951 70.7951C76.0722 71.1722 76.284 71.6836 76.284 72.2169Z" stroke="black" stroke-width="0.402738" stroke-linecap="round" stroke-linejoin="round"/>
<path d="M74.2734 72.8867C74.6436 72.8867 74.9436 72.5867 74.9436 72.2165C74.9436 71.8463 74.6436 71.5463 74.2734 71.5463C73.9032 71.5463 73.6031 71.8463 73.6031 72.2165C73.6031 72.5867 73.9032 72.8867 74.2734 72.8867Z" stroke="black" stroke-width="0.402738" stroke-linecap="round" stroke-linejoin="round"/>
</g>
<g clip-path="url(#clip3_4420_305)">
<path d="M74.5744 60.2679C76.276 60.2679 77.6554 58.8885 77.6554 57.1869C77.6554 55.4854 76.276 54.106 74.5744 54.106C72.8728 54.106 71.4934 55.4854 71.4934 57.1869C71.4934 58.8885 72.8728 60.2679 74.5744 60.2679Z" stroke="#212121" stroke-width="0.555395" stroke-linecap="round" stroke-linejoin="round"/>
<path d="M71.4934 57.187H77.6554" stroke="#212121" stroke-width="0.555395" stroke-linecap="round" stroke-linejoin="round"/>
<path d="M74.5744 54.106C75.3451 54.9496 75.783 56.0445 75.8068 57.1869C75.783 58.3293 75.3451 59.4242 74.5744 60.2679C73.8038 59.4242 73.3658 58.3293 73.342 57.1869C73.3658 56.0445 73.8038 54.9496 74.5744 54.106Z" stroke="#212121" stroke-width="0.555395" stroke-linecap="round" stroke-linejoin="round"/>
</g>
<rect x="78.0265" y="80.3485" width="40.3931" height="6.79176" rx="1.28876" fill="#D9D9D9"/>
<rect x="128.428" y="80.3485" width="40.3931" height="6.79176" rx="1.28876" fill="#D9D9D9"/>
<rect x="178.831" y="80.3485" width="27.167" height="6.79176" rx="1.28876" fill="#3676A4"/>
<path d="M83.0136 55.8965C82.9914 55.9354 82.9673 55.9641 82.9414 55.9826C82.9173 55.9992 82.8868 56.0076 82.8497 56.0076C82.8109 56.0076 82.7683 55.9937 82.722 55.9659C82.6776 55.9363 82.6239 55.9039 82.5609 55.8687C82.498 55.8335 82.4239 55.8021 82.3388 55.7743C82.2555 55.7447 82.1564 55.7299 82.0416 55.7299C81.938 55.7299 81.8473 55.7428 81.7695 55.7687C81.6917 55.7928 81.626 55.8271 81.5723 55.8715C81.5205 55.9159 81.4816 55.9696 81.4557 56.0326C81.4298 56.0936 81.4168 56.1612 81.4168 56.2353C81.4168 56.3297 81.4427 56.4084 81.4946 56.4713C81.5483 56.5343 81.6186 56.5879 81.7056 56.6324C81.7926 56.6768 81.8917 56.7166 82.0028 56.7518C82.1138 56.787 82.2277 56.8249 82.3443 56.8656C82.461 56.9045 82.5748 56.9508 82.6859 57.0045C82.797 57.0563 82.896 57.123 82.983 57.2044C83.0701 57.284 83.1395 57.3822 83.1913 57.4988C83.245 57.6154 83.2718 57.7571 83.2718 57.9237C83.2718 58.1051 83.2404 58.2754 83.1774 58.4346C83.1163 58.592 83.0256 58.7299 82.9053 58.8484C82.7868 58.965 82.6415 59.0576 82.4693 59.1261C82.2971 59.1927 82.1 59.2261 81.8778 59.2261C81.7501 59.2261 81.6242 59.2131 81.5001 59.1872C81.3761 59.1631 81.2567 59.128 81.1419 59.0817C81.029 59.0354 80.9225 58.9798 80.8226 58.9151C80.7226 58.8503 80.6337 58.7781 80.556 58.6984L80.7753 58.3402C80.7939 58.3143 80.8179 58.293 80.8475 58.2763C80.8772 58.2578 80.9086 58.2486 80.942 58.2486C80.9882 58.2486 81.0382 58.268 81.0919 58.3069C81.1456 58.3439 81.2095 58.3856 81.2835 58.4319C81.3576 58.4781 81.4437 58.5207 81.5418 58.5596C81.6418 58.5966 81.7612 58.6151 81.9 58.6151C82.1129 58.6151 82.2777 58.5652 82.3943 58.4652C82.511 58.3634 82.5693 58.218 82.5693 58.0292C82.5693 57.9237 82.5424 57.8376 82.4887 57.7709C82.4369 57.7043 82.3675 57.6488 82.2805 57.6043C82.1935 57.558 82.0944 57.5192 81.9833 57.4877C81.8722 57.4562 81.7593 57.422 81.6445 57.3849C81.5298 57.3479 81.4168 57.3035 81.3057 57.2516C81.1947 57.1998 81.0956 57.1322 81.0086 57.0489C80.9216 56.9656 80.8512 56.8619 80.7976 56.7379C80.7457 56.612 80.7198 56.4574 80.7198 56.2741C80.7198 56.1279 80.7485 55.9853 80.8059 55.8465C80.8651 55.7076 80.9503 55.5845 81.0614 55.4772C81.1725 55.3698 81.3094 55.2837 81.4724 55.2189C81.6353 55.1541 81.8223 55.1217 82.0333 55.1217C82.2703 55.1217 82.4887 55.1587 82.6887 55.2328C82.8886 55.3068 83.0589 55.4105 83.1996 55.5438L83.0136 55.8965ZM85.6399 57.4294C85.6399 57.3405 85.627 57.2572 85.601 57.1794C85.577 57.0998 85.5399 57.0304 85.49 56.9712C85.44 56.9119 85.3761 56.8656 85.2983 56.8323C85.2224 56.7971 85.1336 56.7796 85.0318 56.7796C84.8337 56.7796 84.6772 56.836 84.5624 56.949C84.4495 57.0619 84.3773 57.222 84.3458 57.4294H85.6399ZM84.332 57.8431C84.3431 57.9894 84.369 58.1162 84.4097 58.2236C84.4504 58.3291 84.5041 58.417 84.5708 58.4874C84.6374 58.5559 84.7161 58.6077 84.8068 58.6429C84.8994 58.6762 85.0012 58.6929 85.1123 58.6929C85.2234 58.6929 85.3187 58.6799 85.3983 58.654C85.4798 58.6281 85.5501 58.5994 85.6094 58.5679C85.6705 58.5365 85.7232 58.5078 85.7677 58.4818C85.8139 58.4559 85.8584 58.443 85.9009 58.443C85.9583 58.443 86.0009 58.4643 86.0287 58.5068L86.2259 58.7568C86.1499 58.8456 86.0648 58.9206 85.9704 58.9817C85.876 59.0409 85.7769 59.0891 85.6732 59.1261C85.5714 59.1613 85.4668 59.1863 85.3594 59.2011C85.2539 59.2159 85.1512 59.2233 85.0512 59.2233C84.8531 59.2233 84.6689 59.1909 84.4986 59.1261C84.3283 59.0595 84.1801 58.9623 84.0543 58.8345C83.9284 58.7049 83.8293 58.5457 83.7571 58.3569C83.6849 58.1662 83.6488 57.9459 83.6488 57.696C83.6488 57.5016 83.6803 57.3192 83.7432 57.1489C83.8062 56.9767 83.896 56.8277 84.0126 56.7018C84.1311 56.5741 84.2746 56.4732 84.443 56.3991C84.6134 56.3251 84.805 56.288 85.0179 56.288C85.1974 56.288 85.3631 56.3167 85.5149 56.3741C85.6668 56.4315 85.7973 56.5157 85.9065 56.6268C86.0157 56.7361 86.1009 56.8712 86.162 57.0323C86.2249 57.1915 86.2564 57.3738 86.2564 57.5793C86.2564 57.683 86.2453 57.7533 86.2231 57.7904C86.2009 57.8256 86.1583 57.8431 86.0953 57.8431H84.332ZM88.2763 57.9653C88.0782 57.9746 87.9115 57.9922 87.7764 58.0181C87.6413 58.0422 87.533 58.0736 87.4515 58.1125C87.37 58.1514 87.3117 58.1967 87.2765 58.2486C87.2414 58.3004 87.2238 58.3569 87.2238 58.418C87.2238 58.5383 87.259 58.6244 87.3293 58.6762C87.4015 58.7281 87.495 58.754 87.6098 58.754C87.7505 58.754 87.8717 58.729 87.9736 58.679C88.0772 58.6272 88.1781 58.5494 88.2763 58.4457V57.9653ZM86.7045 56.7296C87.0322 56.4297 87.4265 56.2797 87.8875 56.2797C88.0541 56.2797 88.2031 56.3075 88.3346 56.363C88.466 56.4167 88.5771 56.4926 88.6678 56.5907C88.7585 56.687 88.827 56.8027 88.8733 56.9378C88.9214 57.073 88.9455 57.2211 88.9455 57.3822V59.1816H88.6345C88.5697 59.1816 88.5197 59.1724 88.4845 59.1539C88.4494 59.1335 88.4216 59.0937 88.4012 59.0345L88.3401 58.829C88.2679 58.8938 88.1976 58.9512 88.1291 59.0011C88.0606 59.0493 87.9893 59.09 87.9153 59.1233C87.8412 59.1566 87.7616 59.1816 87.6764 59.1983C87.5931 59.2168 87.5006 59.2261 87.3987 59.2261C87.2784 59.2261 87.1673 59.2103 87.0655 59.1789C86.9637 59.1455 86.8757 59.0965 86.8017 59.0317C86.7276 58.9669 86.6702 58.8864 86.6295 58.7901C86.5888 58.6938 86.5684 58.5818 86.5684 58.4541C86.5684 58.3819 86.5805 58.3106 86.6045 58.2402C86.6286 58.168 86.6675 58.0995 86.7212 58.0347C86.7767 57.97 86.848 57.9089 86.935 57.8515C87.022 57.7941 87.1284 57.7441 87.2543 57.7015C87.3821 57.6589 87.5302 57.6247 87.6986 57.5988C87.8671 57.571 88.0597 57.5543 88.2763 57.5488V57.3822C88.2763 57.1915 88.2355 57.0508 88.1541 56.9601C88.0726 56.8675 87.9551 56.8212 87.8014 56.8212C87.6903 56.8212 87.5978 56.8342 87.5237 56.8601C87.4515 56.886 87.3876 56.9156 87.3321 56.949C87.2765 56.9804 87.2256 57.0091 87.1794 57.035C87.1349 57.061 87.0849 57.0739 87.0294 57.0739C86.9813 57.0739 86.9405 57.0619 86.9072 57.0378C86.8739 57.0119 86.847 56.9823 86.8267 56.949L86.7045 56.7296ZM90.2385 56.8268C90.3274 56.6564 90.4329 56.5231 90.5551 56.4269C90.6773 56.3288 90.8217 56.2797 90.9883 56.2797C91.1198 56.2797 91.2253 56.3084 91.3049 56.3658L91.2605 56.8795C91.2512 56.9129 91.2373 56.9369 91.2188 56.9517C91.2021 56.9647 91.179 56.9712 91.1494 56.9712C91.1216 56.9712 91.08 56.9665 91.0244 56.9573C90.9707 56.948 90.918 56.9434 90.8661 56.9434C90.7902 56.9434 90.7227 56.9545 90.6634 56.9767C90.6042 56.9989 90.5505 57.0313 90.5024 57.0739C90.4561 57.1146 90.4144 57.1646 90.3774 57.2239C90.3422 57.2831 90.3089 57.3507 90.2774 57.4266V59.1816H89.5915V56.3325H89.9942C90.0645 56.3325 90.1136 56.3454 90.1413 56.3713C90.1691 56.3954 90.1876 56.4398 90.1969 56.5046L90.2385 56.8268ZM93.6231 56.9351C93.6027 56.961 93.5824 56.9814 93.562 56.9962C93.5435 57.011 93.5157 57.0184 93.4787 57.0184C93.4435 57.0184 93.4093 57.0082 93.376 56.9878C93.3426 56.9656 93.3028 56.9415 93.2565 56.9156C93.2103 56.8879 93.1547 56.8638 93.0899 56.8434C93.027 56.8212 92.9483 56.8101 92.8539 56.8101C92.7335 56.8101 92.628 56.8323 92.5373 56.8768C92.4466 56.9193 92.3707 56.9814 92.3096 57.0628C92.2504 57.1443 92.2059 57.2433 92.1763 57.3599C92.1467 57.4747 92.1319 57.6052 92.1319 57.7515C92.1319 57.9033 92.1476 58.0385 92.1791 58.1569C92.2124 58.2754 92.2596 58.3754 92.3207 58.4569C92.3818 58.5365 92.4559 58.5976 92.5429 58.6401C92.6299 58.6809 92.728 58.7012 92.8372 58.7012C92.9465 58.7012 93.0344 58.6883 93.101 58.6623C93.1695 58.6346 93.2269 58.605 93.2732 58.5735C93.3195 58.5402 93.3593 58.5105 93.3926 58.4846C93.4278 58.4569 93.4667 58.443 93.5093 58.443C93.5648 58.443 93.6064 58.4643 93.6342 58.5068L93.8314 58.7568C93.7555 58.8456 93.6731 58.9206 93.5842 58.9817C93.4954 59.0409 93.4028 59.0891 93.3065 59.1261C93.2121 59.1613 93.114 59.1863 93.0122 59.2011C92.9122 59.2159 92.8122 59.2233 92.7123 59.2233C92.5364 59.2233 92.3707 59.1909 92.2152 59.1261C92.0597 59.0595 91.9236 58.9632 91.807 58.8373C91.6903 58.7114 91.5978 58.5577 91.5293 58.3763C91.4626 58.193 91.4293 57.9848 91.4293 57.7515C91.4293 57.5423 91.4589 57.3488 91.5182 57.1711C91.5793 56.9915 91.6681 56.8369 91.7847 56.7074C91.9014 56.5759 92.0458 56.4732 92.218 56.3991C92.3901 56.3251 92.5882 56.288 92.8122 56.288C93.0251 56.288 93.2112 56.3223 93.3704 56.3908C93.5315 56.4593 93.6759 56.5574 93.8036 56.6851L93.6231 56.9351ZM94.9473 56.6379C95.0584 56.5343 95.1806 56.45 95.3139 56.3852C95.4471 56.3204 95.6036 56.288 95.7832 56.288C95.9387 56.288 96.0766 56.3149 96.1969 56.3686C96.3173 56.4204 96.4172 56.4945 96.4968 56.5907C96.5783 56.6851 96.6394 56.799 96.6801 56.9323C96.7227 57.0637 96.744 57.2091 96.744 57.3683V59.1816H96.0581V57.3683C96.0581 57.1943 96.0183 57.06 95.9387 56.9656C95.8591 56.8693 95.7378 56.8212 95.5749 56.8212C95.4564 56.8212 95.3453 56.8481 95.2416 56.9017C95.138 56.9554 95.0399 57.0286 94.9473 57.1211V59.1816H94.2614V55.0551H94.9473V56.6379ZM99.6049 55.7604V56.949H101.11V57.546H99.6049V59.1816H98.8551V55.1661H101.388V55.7604H99.6049ZM102.543 55.0551V59.1816H101.858V55.0551H102.543ZM103.938 56.3325V59.1816H103.249V56.3325H103.938ZM104.032 55.5021C104.032 55.5614 104.02 55.6169 103.996 55.6688C103.972 55.7206 103.94 55.766 103.899 55.8048C103.86 55.8437 103.814 55.8752 103.76 55.8993C103.706 55.9215 103.649 55.9326 103.588 55.9326C103.529 55.9326 103.472 55.9215 103.418 55.8993C103.367 55.8752 103.321 55.8437 103.282 55.8048C103.244 55.766 103.212 55.7206 103.188 55.6688C103.166 55.6169 103.155 55.5614 103.155 55.5021C103.155 55.4411 103.166 55.3837 103.188 55.33C103.212 55.2763 103.244 55.23 103.282 55.1911C103.321 55.1522 103.367 55.1217 103.418 55.0995C103.472 55.0754 103.529 55.0634 103.588 55.0634C103.649 55.0634 103.706 55.0754 103.76 55.0995C103.814 55.1217 103.86 55.1522 103.899 55.1911C103.94 55.23 103.972 55.2763 103.996 55.33C104.02 55.3837 104.032 55.4411 104.032 55.5021ZM105.678 57.6876C105.764 57.6876 105.838 57.6765 105.901 57.6543C105.964 57.6302 106.015 57.5978 106.056 57.5571C106.099 57.5164 106.13 57.4673 106.151 57.4099C106.173 57.3525 106.184 57.2896 106.184 57.2211C106.184 57.0804 106.141 56.9693 106.056 56.8879C105.973 56.8045 105.847 56.7629 105.678 56.7629C105.51 56.7629 105.383 56.8045 105.298 56.8879C105.215 56.9693 105.173 57.0804 105.173 57.2211C105.173 57.2877 105.183 57.3498 105.204 57.4072C105.226 57.4645 105.257 57.5145 105.298 57.5571C105.341 57.5978 105.393 57.6302 105.456 57.6543C105.521 57.6765 105.595 57.6876 105.678 57.6876ZM106.453 59.3094C106.453 59.2538 106.437 59.2085 106.403 59.1733C106.37 59.1381 106.325 59.1113 106.267 59.0928C106.21 59.0724 106.142 59.0576 106.064 59.0483C105.989 59.0391 105.907 59.0326 105.82 59.0289C105.735 59.0234 105.646 59.0187 105.553 59.015C105.463 59.0113 105.374 59.0039 105.287 58.9928C105.211 59.0354 105.149 59.0854 105.101 59.1428C105.055 59.2002 105.031 59.2668 105.031 59.3427C105.031 59.3927 105.043 59.439 105.067 59.4816C105.093 59.526 105.133 59.5639 105.187 59.5954C105.242 59.6269 105.314 59.6509 105.401 59.6676C105.488 59.6861 105.594 59.6954 105.72 59.6954C105.848 59.6954 105.958 59.6852 106.051 59.6648C106.143 59.6463 106.219 59.6195 106.278 59.5843C106.339 59.551 106.384 59.5102 106.412 59.4621C106.439 59.4158 106.453 59.3649 106.453 59.3094ZM107.136 56.4297V56.6851C107.136 56.7666 107.087 56.8166 106.989 56.8351L106.734 56.8823C106.773 56.9804 106.792 57.0878 106.792 57.2044C106.792 57.3451 106.763 57.4729 106.706 57.5877C106.65 57.7006 106.573 57.7969 106.473 57.8765C106.373 57.9561 106.254 58.0181 106.117 58.0625C105.982 58.1051 105.836 58.1264 105.678 58.1264C105.623 58.1264 105.569 58.1236 105.517 58.1181C105.466 58.1125 105.415 58.1051 105.365 58.0958C105.276 58.1495 105.231 58.2097 105.231 58.2763C105.231 58.3337 105.257 58.3763 105.309 58.4041C105.363 58.43 105.433 58.4485 105.52 58.4596C105.607 58.4707 105.706 58.4781 105.817 58.4818C105.928 58.4837 106.042 58.4892 106.159 58.4985C106.275 58.5078 106.389 58.5244 106.5 58.5485C106.611 58.5707 106.711 58.6068 106.798 58.6568C106.885 58.7068 106.954 58.7753 107.006 58.8623C107.06 58.9474 107.086 59.0576 107.086 59.1927C107.086 59.3186 107.055 59.4408 106.992 59.5593C106.931 59.6778 106.841 59.7833 106.723 59.8759C106.606 59.9685 106.462 60.0425 106.289 60.098C106.119 60.1554 105.925 60.1841 105.706 60.1841C105.491 60.1841 105.304 60.1628 105.145 60.1203C104.986 60.0795 104.854 60.024 104.748 59.9536C104.643 59.8851 104.564 59.8055 104.512 59.7148C104.46 59.6241 104.434 59.5297 104.434 59.4316C104.434 59.2983 104.474 59.1872 104.554 59.0983C104.635 59.0076 104.746 58.9354 104.887 58.8817C104.811 58.8428 104.751 58.791 104.706 58.7262C104.662 58.6614 104.64 58.5763 104.64 58.4707C104.64 58.4282 104.647 58.3846 104.662 58.3402C104.679 58.2939 104.702 58.2486 104.731 58.2041C104.763 58.1597 104.802 58.1181 104.848 58.0792C104.894 58.0385 104.949 58.0024 105.012 57.9709C104.868 57.8931 104.754 57.7895 104.67 57.6599C104.589 57.5303 104.548 57.3785 104.548 57.2044C104.548 57.0637 104.576 56.9369 104.632 56.824C104.689 56.7092 104.768 56.612 104.868 56.5324C104.969 56.4509 105.089 56.3889 105.226 56.3463C105.365 56.3038 105.516 56.2825 105.678 56.2825C105.801 56.2825 105.915 56.2954 106.023 56.3214C106.13 56.3454 106.228 56.3815 106.317 56.4297H107.136ZM108.257 56.6379C108.368 56.5343 108.491 56.45 108.624 56.3852C108.757 56.3204 108.914 56.288 109.093 56.288C109.249 56.288 109.387 56.3149 109.507 56.3686C109.627 56.4204 109.727 56.4945 109.807 56.5907C109.888 56.6851 109.949 56.799 109.99 56.9323C110.033 57.0637 110.054 57.2091 110.054 57.3683V59.1816H109.368V57.3683C109.368 57.1943 109.328 57.06 109.249 56.9656C109.169 56.8693 109.048 56.8212 108.885 56.8212C108.766 56.8212 108.655 56.8481 108.552 56.9017C108.448 56.9554 108.35 57.0286 108.257 57.1211V59.1816H107.571V55.0551H108.257V56.6379ZM111.618 59.2261C111.37 59.2261 111.179 59.1566 111.046 59.0178C110.915 58.8771 110.849 58.6836 110.849 58.4374V56.8462H110.557C110.52 56.8462 110.489 56.8342 110.463 56.8101C110.437 56.786 110.424 56.7499 110.424 56.7018V56.4297L110.882 56.3547L111.027 55.5771C111.036 55.5401 111.053 55.5114 111.079 55.491C111.105 55.4707 111.139 55.4605 111.179 55.4605H111.535V56.3575H112.296V56.8462H111.535V58.3902C111.535 58.4791 111.556 58.5485 111.599 58.5985C111.643 58.6485 111.703 58.6735 111.779 58.6735C111.822 58.6735 111.857 58.6688 111.885 58.6596C111.914 58.6485 111.939 58.6374 111.96 58.6262C111.982 58.6151 112.001 58.605 112.018 58.5957C112.035 58.5846 112.051 58.579 112.068 58.579C112.088 58.579 112.105 58.5846 112.118 58.5957C112.131 58.605 112.145 58.6198 112.16 58.6401L112.365 58.9734C112.265 59.0567 112.15 59.1196 112.021 59.1622C111.891 59.2048 111.757 59.2261 111.618 59.2261ZM114.473 56.8879C114.455 56.9175 114.435 56.9388 114.415 56.9517C114.394 56.9628 114.369 56.9684 114.337 56.9684C114.304 56.9684 114.268 56.9591 114.229 56.9406C114.192 56.9221 114.148 56.9017 114.098 56.8795C114.048 56.8555 113.991 56.8342 113.926 56.8157C113.863 56.7971 113.788 56.7879 113.701 56.7879C113.566 56.7879 113.46 56.8166 113.382 56.874C113.306 56.9314 113.268 57.0063 113.268 57.0989C113.268 57.16 113.287 57.2118 113.326 57.2544C113.367 57.2951 113.42 57.3312 113.485 57.3627C113.551 57.3942 113.626 57.4229 113.709 57.4488C113.793 57.4729 113.877 57.4997 113.962 57.5293C114.049 57.559 114.134 57.5932 114.218 57.6321C114.301 57.6691 114.375 57.7172 114.44 57.7765C114.506 57.8339 114.559 57.9033 114.598 57.9848C114.639 58.0662 114.659 58.1643 114.659 58.2791C114.659 58.4161 114.634 58.5429 114.584 58.6596C114.536 58.7744 114.464 58.8743 114.368 58.9595C114.271 59.0428 114.152 59.1085 114.009 59.1566C113.869 59.2029 113.706 59.2261 113.521 59.2261C113.423 59.2261 113.326 59.2168 113.232 59.1983C113.139 59.1816 113.049 59.1576 112.962 59.1261C112.877 59.0946 112.798 59.0576 112.724 59.015C112.651 58.9724 112.588 58.9262 112.532 58.8762L112.69 58.6151C112.711 58.5837 112.735 58.5596 112.763 58.5429C112.79 58.5263 112.825 58.5179 112.868 58.5179C112.911 58.5179 112.95 58.53 112.987 58.554C113.026 58.5781 113.071 58.604 113.121 58.6318C113.171 58.6596 113.229 58.6855 113.296 58.7096C113.364 58.7336 113.45 58.7457 113.554 58.7457C113.635 58.7457 113.705 58.7364 113.762 58.7179C113.821 58.6975 113.87 58.6716 113.907 58.6401C113.946 58.6087 113.973 58.5726 113.99 58.5318C114.008 58.4892 114.018 58.4457 114.018 58.4013C114.018 58.3347 113.997 58.28 113.957 58.2375C113.918 58.1949 113.865 58.1579 113.798 58.1264C113.734 58.0949 113.659 58.0671 113.573 58.0431C113.49 58.0172 113.404 57.9894 113.315 57.9598C113.228 57.9302 113.142 57.8959 113.057 57.857C112.974 57.8163 112.899 57.7654 112.832 57.7043C112.767 57.6432 112.714 57.5682 112.674 57.4794C112.635 57.3905 112.615 57.2831 112.615 57.1572C112.615 57.0406 112.639 56.9295 112.685 56.824C112.731 56.7185 112.799 56.6268 112.888 56.5491C112.978 56.4695 113.09 56.4065 113.224 56.3602C113.359 56.3121 113.514 56.288 113.69 56.288C113.886 56.288 114.065 56.3204 114.226 56.3852C114.387 56.45 114.521 56.5352 114.629 56.6407L114.473 56.8879Z" fill="#212121"/>
<rect x="61.5833" y="42.4579" width="156.925" height="3.93207" fill="#3676A4" fill-opacity="0.24"/>
<path d="M80.6291 72.4988C80.6622 72.4988 80.6915 72.5115 80.7171 72.5371L80.9562 72.7965C80.8239 72.9603 80.6607 73.0859 80.4668 73.1731C80.2743 73.2603 80.0428 73.3039 79.7721 73.3039C79.53 73.3039 79.312 73.2626 79.1181 73.1799C78.9256 73.0972 78.761 72.9821 78.6242 72.8348C78.4873 72.6874 78.3821 72.5115 78.3084 72.3071C78.2362 72.1026 78.2001 71.8793 78.2001 71.6372C78.2001 71.3921 78.2392 71.1681 78.3174 70.9651C78.3956 70.7606 78.5054 70.5847 78.6467 70.4374C78.7895 70.29 78.9594 70.1758 79.1564 70.0946C79.3534 70.0119 79.5714 69.9705 79.8105 69.9705C80.048 69.9705 80.2585 70.0096 80.442 70.0878C80.6269 70.166 80.784 70.2682 80.9133 70.3945L80.7103 70.6764C80.6983 70.6945 80.6825 70.7103 80.663 70.7238C80.6449 70.7373 80.6194 70.7441 80.5863 70.7441C80.5637 70.7441 80.5404 70.7381 80.5164 70.7261C80.4923 70.7125 80.466 70.6967 80.4374 70.6787C80.4089 70.6592 80.3758 70.6381 80.3382 70.6155C80.3006 70.593 80.257 70.5727 80.2074 70.5547C80.1578 70.5351 80.0999 70.5193 80.0337 70.5073C79.9691 70.4938 79.8939 70.487 79.8082 70.487C79.6624 70.487 79.5285 70.5133 79.4068 70.5659C79.2865 70.6171 79.1827 70.6922 79.0955 70.7915C79.0083 70.8892 78.9407 71.0095 78.8925 71.1523C78.8444 71.2937 78.8204 71.4553 78.8204 71.6372C78.8204 71.8206 78.8459 71.9838 78.897 72.1266C78.9497 72.2695 79.0203 72.3897 79.109 72.4875C79.1978 72.5852 79.3023 72.6604 79.4225 72.713C79.5428 72.7641 79.6721 72.7897 79.8105 72.7897C79.8932 72.7897 79.9676 72.7852 80.0337 72.7762C80.1014 72.7671 80.163 72.7529 80.2187 72.7333C80.2758 72.7138 80.3292 72.689 80.3788 72.6589C80.4299 72.6273 80.4803 72.589 80.5299 72.5439C80.5449 72.5303 80.5607 72.5198 80.5773 72.5123C80.5938 72.5033 80.6111 72.4988 80.6291 72.4988ZM82.5062 72.28C82.3453 72.2875 82.21 72.3018 82.1002 72.3228C81.9905 72.3424 81.9025 72.3679 81.8363 72.3995C81.7702 72.4311 81.7228 72.4679 81.6943 72.51C81.6657 72.5521 81.6514 72.598 81.6514 72.6476C81.6514 72.7453 81.68 72.8153 81.7371 72.8574C81.7958 72.8995 81.8717 72.9205 81.9649 72.9205C82.0792 72.9205 82.1777 72.9002 82.2603 72.8596C82.3445 72.8175 82.4265 72.7544 82.5062 72.6702V72.28ZM81.2297 71.2764C81.4958 71.0328 81.816 70.911 82.1904 70.911C82.3258 70.911 82.4468 70.9336 82.5535 70.9787C82.6603 71.0223 82.7505 71.0839 82.8242 71.1636C82.8979 71.2418 82.9535 71.3358 82.9911 71.4455C83.0302 71.5553 83.0497 71.6756 83.0497 71.8064V73.2678H82.7971C82.7445 73.2678 82.7039 73.2603 82.6753 73.2453C82.6468 73.2287 82.6242 73.1964 82.6077 73.1483L82.5581 72.9814C82.4994 73.034 82.4423 73.0806 82.3866 73.1212C82.331 73.1603 82.2731 73.1934 82.213 73.2205C82.1528 73.2475 82.0882 73.2678 82.019 73.2814C81.9514 73.2964 81.8762 73.3039 81.7935 73.3039C81.6958 73.3039 81.6056 73.2911 81.5229 73.2656C81.4402 73.2385 81.3687 73.1987 81.3086 73.146C81.2485 73.0934 81.2018 73.028 81.1688 72.9498C81.1357 72.8716 81.1192 72.7807 81.1192 72.6769C81.1192 72.6183 81.1289 72.5604 81.1485 72.5033C81.168 72.4446 81.1996 72.389 81.2432 72.3364C81.2883 72.2837 81.3462 72.2341 81.4169 72.1875C81.4875 72.1409 81.574 72.1003 81.6762 72.0657C81.78 72.0311 81.9002 72.0033 82.0371 71.9823C82.1739 71.9597 82.3303 71.9462 82.5062 71.9417V71.8064C82.5062 71.6515 82.4731 71.5372 82.4069 71.4636C82.3408 71.3884 82.2453 71.3508 82.1205 71.3508C82.0303 71.3508 81.9551 71.3613 81.895 71.3824C81.8363 71.4034 81.7845 71.4275 81.7394 71.4545C81.6943 71.4801 81.6529 71.5034 81.6153 71.5244C81.5792 71.5455 81.5386 71.556 81.4935 71.556C81.4544 71.556 81.4214 71.5463 81.3943 71.5267C81.3672 71.5057 81.3454 71.4816 81.3289 71.4545L81.2297 71.2764ZM84.0953 71.238C84.142 71.1914 84.1908 71.1486 84.2419 71.1095C84.2946 71.0689 84.3494 71.035 84.4066 71.008C84.4652 70.9794 84.5276 70.9576 84.5938 70.9426C84.6599 70.926 84.7321 70.9178 84.8103 70.9178C84.9366 70.9178 85.0486 70.9396 85.1463 70.9832C85.2441 71.0253 85.3253 71.0854 85.3899 71.1636C85.4561 71.2403 85.5057 71.3327 85.5388 71.441C85.5733 71.5478 85.5906 71.6658 85.5906 71.7951V73.2678H85.0336V71.7951C85.0336 71.6538 85.0012 71.5447 84.9366 71.4681C84.8719 71.3899 84.7734 71.3508 84.6411 71.3508C84.5449 71.3508 84.4547 71.3726 84.3705 71.4162C84.2863 71.4598 84.2066 71.5192 84.1314 71.5944V73.2678H83.5744V70.9538H83.9149C83.9871 70.9538 84.0345 70.9877 84.057 71.0553L84.0953 71.238ZM87.3428 72.28C87.1819 72.2875 87.0466 72.3018 86.9369 72.3228C86.8271 72.3424 86.7391 72.3679 86.673 72.3995C86.6068 72.4311 86.5595 72.4679 86.5309 72.51C86.5023 72.5521 86.488 72.598 86.488 72.6476C86.488 72.7453 86.5166 72.8153 86.5737 72.8574C86.6324 72.8995 86.7083 72.9205 86.8015 72.9205C86.9158 72.9205 87.0143 72.9002 87.097 72.8596C87.1812 72.8175 87.2631 72.7544 87.3428 72.6702V72.28ZM86.0663 71.2764C86.3324 71.0328 86.6527 70.911 87.0271 70.911C87.1624 70.911 87.2834 70.9336 87.3902 70.9787C87.4969 71.0223 87.5871 71.0839 87.6608 71.1636C87.7345 71.2418 87.7901 71.3358 87.8277 71.4455C87.8668 71.5553 87.8864 71.6756 87.8864 71.8064V73.2678H87.6338C87.5811 73.2678 87.5405 73.2603 87.512 73.2453C87.4834 73.2287 87.4608 73.1964 87.4443 73.1483L87.3947 72.9814C87.336 73.034 87.2789 73.0806 87.2233 73.1212C87.1677 73.1603 87.1098 73.1934 87.0496 73.2205C86.9895 73.2475 86.9248 73.2678 86.8557 73.2814C86.788 73.2964 86.7128 73.3039 86.6301 73.3039C86.5324 73.3039 86.4422 73.2911 86.3595 73.2656C86.2768 73.2385 86.2054 73.1987 86.1452 73.146C86.0851 73.0934 86.0385 73.028 86.0054 72.9498C85.9723 72.8716 85.9558 72.7807 85.9558 72.6769C85.9558 72.6183 85.9656 72.5604 85.9851 72.5033C86.0046 72.4446 86.0362 72.389 86.0798 72.3364C86.1249 72.2837 86.1828 72.2341 86.2535 72.1875C86.3242 72.1409 86.4106 72.1003 86.5129 72.0657C86.6166 72.0311 86.7369 72.0033 86.8737 71.9823C87.0105 71.9597 87.1669 71.9462 87.3428 71.9417V71.8064C87.3428 71.6515 87.3097 71.5372 87.2436 71.4636C87.1774 71.3884 87.0819 71.3508 86.9572 71.3508C86.8669 71.3508 86.7918 71.3613 86.7316 71.3824C86.673 71.4034 86.6211 71.4275 86.576 71.4545C86.5309 71.4801 86.4895 71.5034 86.452 71.5244C86.4159 71.5455 86.3753 71.556 86.3302 71.556C86.2911 71.556 86.258 71.5463 86.2309 71.5267C86.2039 71.5057 86.1821 71.4816 86.1655 71.4545L86.0663 71.2764ZM89.8634 71.5447C89.8003 71.4681 89.7311 71.4139 89.6559 71.3824C89.5823 71.3508 89.5026 71.335 89.4169 71.335C89.3327 71.335 89.2567 71.3508 89.1891 71.3824C89.1214 71.4139 89.0635 71.4621 89.0154 71.5267C88.9673 71.5899 88.9305 71.671 88.9049 71.7703C88.8794 71.868 88.8666 71.9838 88.8666 72.1176C88.8666 72.2529 88.8771 72.3679 88.8981 72.4627C88.9207 72.5559 88.9523 72.6326 88.9929 72.6927C89.0335 72.7514 89.0831 72.7942 89.1417 72.8213C89.2004 72.8468 89.2658 72.8596 89.3379 72.8596C89.4537 72.8596 89.5522 72.8355 89.6334 72.7874C89.7146 72.7393 89.7913 72.6709 89.8634 72.5822V71.5447ZM90.4205 69.9164V73.2678H90.0799C90.0063 73.2678 89.9597 73.234 89.9401 73.1663L89.8928 72.9431C89.7995 73.0498 89.692 73.1363 89.5702 73.2024C89.45 73.2686 89.3094 73.3017 89.1485 73.3017C89.0222 73.3017 88.9064 73.2753 88.8012 73.2227C88.6959 73.1701 88.605 73.0942 88.5283 72.9949C88.4531 72.8942 88.3945 72.7701 88.3524 72.6228C88.3118 72.4754 88.2915 72.3071 88.2915 72.1176C88.2915 71.9462 88.3148 71.7868 88.3614 71.6395C88.408 71.4921 88.4749 71.3643 88.5621 71.2561C88.6493 71.1478 88.7538 71.0636 88.8756 71.0035C88.9974 70.9418 89.1342 70.911 89.2861 70.911C89.4154 70.911 89.5259 70.9313 89.6176 70.9719C89.7093 71.0125 89.7913 71.0674 89.8634 71.1365V69.9164H90.4205ZM92.1927 72.28C92.0318 72.2875 91.8965 72.3018 91.7867 72.3228C91.6769 72.3424 91.589 72.3679 91.5228 72.3995C91.4567 72.4311 91.4093 72.4679 91.3807 72.51C91.3522 72.5521 91.3379 72.598 91.3379 72.6476C91.3379 72.7453 91.3665 72.8153 91.4236 72.8574C91.4822 72.8995 91.5582 72.9205 91.6514 72.9205C91.7657 72.9205 91.8641 72.9002 91.9468 72.8596C92.031 72.8175 92.113 72.7544 92.1927 72.6702V72.28ZM90.9161 71.2764C91.1823 71.0328 91.5025 70.911 91.8769 70.911C92.0122 70.911 92.1333 70.9336 92.24 70.9787C92.3468 71.0223 92.437 71.0839 92.5107 71.1636C92.5843 71.2418 92.64 71.3358 92.6776 71.4455C92.7167 71.5553 92.7362 71.6756 92.7362 71.8064V73.2678H92.4836C92.431 73.2678 92.3904 73.2603 92.3618 73.2453C92.3332 73.2287 92.3107 73.1964 92.2942 73.1483L92.2445 72.9814C92.1859 73.034 92.1288 73.0806 92.0731 73.1212C92.0175 73.1603 91.9596 73.1934 91.8995 73.2205C91.8393 73.2475 91.7747 73.2678 91.7055 73.2814C91.6379 73.2964 91.5627 73.3039 91.48 73.3039C91.3822 73.3039 91.292 73.2911 91.2093 73.2656C91.1266 73.2385 91.0552 73.1987 90.9951 73.146C90.9349 73.0934 90.8883 73.028 90.8553 72.9498C90.8222 72.8716 90.8056 72.7807 90.8056 72.6769C90.8056 72.6183 90.8154 72.5604 90.835 72.5033C90.8545 72.4446 90.8861 72.389 90.9297 72.3364C90.9748 72.2837 91.0327 72.2341 91.1033 72.1875C91.174 72.1409 91.2605 72.1003 91.3627 72.0657C91.4664 72.0311 91.5867 72.0033 91.7236 71.9823C91.8604 71.9597 92.0167 71.9462 92.1927 71.9417V71.8064C92.1927 71.6515 92.1596 71.5372 92.0934 71.4636C92.0273 71.3884 91.9318 71.3508 91.807 71.3508C91.7168 71.3508 91.6416 71.3613 91.5815 71.3824C91.5228 71.4034 91.471 71.4275 91.4258 71.4545C91.3807 71.4801 91.3394 71.5034 91.3018 71.5244C91.2657 71.5455 91.2251 71.556 91.18 71.556C91.1409 71.556 91.1078 71.5463 91.0808 71.5267C91.0537 71.5057 91.0319 71.4816 91.0154 71.4545L90.9161 71.2764ZM95.129 73.3039C94.9275 73.3039 94.7727 73.2475 94.6644 73.1348C94.5577 73.0205 94.5043 72.8634 94.5043 72.6634V71.3711H94.2675C94.2374 71.3711 94.2118 71.3613 94.1908 71.3418C94.1697 71.3222 94.1592 71.2929 94.1592 71.2538V71.0328L94.5313 70.9719L94.6486 70.3404C94.6561 70.3103 94.6704 70.287 94.6915 70.2705C94.7125 70.2539 94.7396 70.2457 94.7727 70.2457H95.0613V70.9741H95.6793V71.3711H95.0613V72.6251C95.0613 72.6972 95.0786 72.7536 95.1132 72.7942C95.1493 72.8348 95.1982 72.8551 95.2598 72.8551C95.2944 72.8551 95.323 72.8513 95.3455 72.8438C95.3696 72.8348 95.3899 72.8258 95.4064 72.8168C95.4245 72.8077 95.4402 72.7995 95.4538 72.7919C95.4673 72.7829 95.4808 72.7784 95.4944 72.7784C95.5109 72.7784 95.5244 72.7829 95.535 72.7919C95.5455 72.7995 95.5568 72.8115 95.5688 72.828L95.7357 73.0987C95.6545 73.1663 95.5613 73.2175 95.456 73.252C95.3508 73.2866 95.2418 73.3039 95.129 73.3039ZM97.0423 70.9178C97.2137 70.9178 97.3693 70.9456 97.5091 71.0012C97.6505 71.0568 97.7707 71.1358 97.87 71.238C97.9707 71.3403 98.0481 71.4651 98.1023 71.6124C98.1564 71.7598 98.1835 71.9244 98.1835 72.1063C98.1835 72.2898 98.1564 72.4552 98.1023 72.6025C98.0481 72.7498 97.9707 72.8754 97.87 72.9791C97.7707 73.0829 97.6505 73.1626 97.5091 73.2182C97.3693 73.2738 97.2137 73.3017 97.0423 73.3017C96.8694 73.3017 96.7122 73.2738 96.5709 73.2182C96.4296 73.1626 96.3085 73.0829 96.2078 72.9791C96.1086 72.8754 96.0311 72.7498 95.9755 72.6025C95.9214 72.4552 95.8943 72.2898 95.8943 72.1063C95.8943 71.9244 95.9214 71.7598 95.9755 71.6124C96.0311 71.4651 96.1086 71.3403 96.2078 71.238C96.3085 71.1358 96.4296 71.0568 96.5709 71.0012C96.7122 70.9456 96.8694 70.9178 97.0423 70.9178ZM97.0423 72.8731C97.2347 72.8731 97.3768 72.8085 97.4685 72.6792C97.5617 72.5499 97.6084 72.3604 97.6084 72.1108C97.6084 71.8612 97.5617 71.671 97.4685 71.5402C97.3768 71.4094 97.2347 71.344 97.0423 71.344C96.8468 71.344 96.7017 71.4102 96.607 71.5425C96.5138 71.6733 96.4672 71.8627 96.4672 72.1108C96.4672 72.3589 96.5138 72.5484 96.607 72.6792C96.7017 72.8085 96.8468 72.8731 97.0423 72.8731ZM101.106 72.7784C101.223 72.7784 101.328 72.7589 101.419 72.7198C101.513 72.6807 101.591 72.6258 101.654 72.5551C101.717 72.4845 101.765 72.3988 101.798 72.298C101.833 72.1973 101.85 72.0845 101.85 71.9597V70.0066H102.457V71.9597C102.457 72.1537 102.425 72.3334 102.362 72.4988C102.3 72.6626 102.211 72.8047 102.094 72.925C101.978 73.0438 101.837 73.137 101.67 73.2047C101.503 73.2708 101.315 73.3039 101.106 73.3039C100.895 73.3039 100.707 73.2708 100.54 73.2047C100.373 73.137 100.231 73.0438 100.113 72.925C99.9977 72.8047 99.9083 72.6626 99.8451 72.4988C99.7835 72.3334 99.7526 72.1537 99.7526 71.9597V70.0066H100.359V71.9575C100.359 72.0823 100.376 72.195 100.409 72.2958C100.444 72.3965 100.492 72.483 100.556 72.5551C100.62 72.6258 100.698 72.6807 100.79 72.7198C100.883 72.7589 100.989 72.7784 101.106 72.7784ZM103.499 71.238C103.546 71.1914 103.595 71.1486 103.646 71.1095C103.698 71.0689 103.753 71.035 103.81 71.008C103.869 70.9794 103.931 70.9576 103.998 70.9426C104.064 70.926 104.136 70.9178 104.214 70.9178C104.34 70.9178 104.452 70.9396 104.55 70.9832C104.648 71.0253 104.729 71.0854 104.794 71.1636C104.86 71.2403 104.909 71.3327 104.943 71.441C104.977 71.5478 104.994 71.6658 104.994 71.7951V73.2678H104.437V71.7951C104.437 71.6538 104.405 71.5447 104.34 71.4681C104.276 71.3899 104.177 71.3508 104.045 71.3508C103.949 71.3508 103.858 71.3726 103.774 71.4162C103.69 71.4598 103.61 71.5192 103.535 71.5944V73.2678H102.978V70.9538H103.319C103.391 70.9538 103.438 70.9877 103.461 71.0553L103.499 71.238ZM106.102 70.9538V73.2678H105.542V70.9538H106.102ZM106.178 70.2795C106.178 70.3276 106.168 70.3727 106.149 70.4148C106.129 70.4569 106.103 70.4938 106.07 70.5253C106.038 70.5569 106.001 70.5825 105.957 70.602C105.914 70.6201 105.867 70.6291 105.817 70.6291C105.769 70.6291 105.723 70.6201 105.68 70.602C105.638 70.5825 105.601 70.5569 105.569 70.5253C105.538 70.4938 105.512 70.4569 105.493 70.4148C105.475 70.3727 105.466 70.3276 105.466 70.2795C105.466 70.2299 105.475 70.1833 105.493 70.1397C105.512 70.0961 105.538 70.0585 105.569 70.0269C105.601 69.9953 105.638 69.9705 105.68 69.9525C105.723 69.9329 105.769 69.9232 105.817 69.9232C105.867 69.9232 105.914 69.9329 105.957 69.9525C106.001 69.9705 106.038 69.9953 106.07 70.0269C106.103 70.0585 106.129 70.0961 106.149 70.1397C106.168 70.1833 106.178 70.2299 106.178 70.2795ZM107.441 73.3039C107.239 73.3039 107.084 73.2475 106.976 73.1348C106.869 73.0205 106.816 72.8634 106.816 72.6634V71.3711H106.579C106.549 71.3711 106.524 71.3613 106.503 71.3418C106.482 71.3222 106.471 71.2929 106.471 71.2538V71.0328L106.843 70.9719L106.96 70.3404C106.968 70.3103 106.982 70.287 107.003 70.2705C107.024 70.2539 107.051 70.2457 107.084 70.2457H107.373V70.9741H107.991V71.3711H107.373V72.6251C107.373 72.6972 107.39 72.7536 107.425 72.7942C107.461 72.8348 107.51 72.8551 107.572 72.8551C107.606 72.8551 107.635 72.8513 107.657 72.8438C107.681 72.8348 107.702 72.8258 107.718 72.8168C107.736 72.8077 107.752 72.7995 107.766 72.7919C107.779 72.7829 107.793 72.7784 107.806 72.7784C107.823 72.7784 107.836 72.7829 107.847 72.7919C107.857 72.7995 107.869 72.8115 107.881 72.828L108.048 73.0987C107.966 73.1663 107.873 73.2175 107.768 73.252C107.663 73.2866 107.554 73.3039 107.441 73.3039ZM109.821 71.8447C109.821 71.7725 109.81 71.7049 109.789 71.6417C109.77 71.5771 109.74 71.5207 109.699 71.4726C109.659 71.4245 109.607 71.3869 109.544 71.3598C109.482 71.3312 109.41 71.317 109.327 71.317C109.166 71.317 109.039 71.3628 108.946 71.4545C108.854 71.5463 108.796 71.6763 108.77 71.8447H109.821ZM108.759 72.1808C108.768 72.2995 108.789 72.4025 108.822 72.4897C108.855 72.5754 108.899 72.6469 108.953 72.704C109.007 72.7596 109.071 72.8017 109.144 72.8303C109.22 72.8574 109.302 72.8709 109.392 72.8709C109.483 72.8709 109.56 72.8604 109.625 72.8393C109.691 72.8183 109.748 72.795 109.796 72.7694C109.846 72.7438 109.889 72.7205 109.925 72.6995C109.962 72.6784 109.998 72.6679 110.033 72.6679C110.08 72.6679 110.114 72.6852 110.137 72.7198L110.297 72.9228C110.235 72.9949 110.166 73.0558 110.089 73.1054C110.013 73.1536 109.932 73.1926 109.848 73.2227C109.765 73.2513 109.68 73.2716 109.593 73.2836C109.507 73.2956 109.424 73.3017 109.343 73.3017C109.182 73.3017 109.032 73.2753 108.894 73.2227C108.756 73.1686 108.635 73.0897 108.533 72.9859C108.431 72.8807 108.35 72.7514 108.292 72.598C108.233 72.4431 108.204 72.2642 108.204 72.0612C108.204 71.9033 108.229 71.7552 108.281 71.6169C108.332 71.4771 108.405 71.3561 108.499 71.2538C108.596 71.1501 108.712 71.0681 108.849 71.008C108.987 70.9478 109.143 70.9178 109.316 70.9178C109.462 70.9178 109.596 70.9411 109.719 70.9877C109.843 71.0343 109.949 71.1027 110.037 71.1929C110.126 71.2816 110.195 71.3914 110.245 71.5222C110.296 71.6515 110.322 71.7996 110.322 71.9665C110.322 72.0507 110.313 72.1078 110.295 72.1379C110.277 72.1665 110.242 72.1808 110.191 72.1808H108.759ZM112.192 71.5447C112.129 71.4681 112.06 71.4139 111.985 71.3824C111.911 71.3508 111.831 71.335 111.746 71.335C111.661 71.335 111.585 71.3508 111.518 71.3824C111.45 71.4139 111.392 71.4621 111.344 71.5267C111.296 71.5899 111.259 71.671 111.234 71.7703C111.208 71.868 111.195 71.9838 111.195 72.1176C111.195 72.2529 111.206 72.3679 111.227 72.4627C111.249 72.5559 111.281 72.6326 111.322 72.6927C111.362 72.7514 111.412 72.7942 111.47 72.8213C111.529 72.8468 111.594 72.8596 111.667 72.8596C111.782 72.8596 111.881 72.8355 111.962 72.7874C112.043 72.7393 112.12 72.6709 112.192 72.5822V71.5447ZM112.749 69.9164V73.2678H112.409C112.335 73.2678 112.288 73.234 112.269 73.1663L112.221 72.9431C112.128 73.0498 112.021 73.1363 111.899 73.2024C111.779 73.2686 111.638 73.3017 111.477 73.3017C111.351 73.3017 111.235 73.2753 111.13 73.2227C111.025 73.1701 110.934 73.0942 110.857 72.9949C110.782 72.8942 110.723 72.7701 110.681 72.6228C110.64 72.4754 110.62 72.3071 110.62 72.1176C110.62 71.9462 110.643 71.7868 110.69 71.6395C110.737 71.4921 110.804 71.3643 110.891 71.2561C110.978 71.1478 111.082 71.0636 111.204 71.0035C111.326 70.9418 111.463 70.911 111.615 70.911C111.744 70.911 111.855 70.9313 111.946 70.9719C112.038 71.0125 112.12 71.0674 112.192 71.1365V69.9164H112.749ZM116.22 70.5998C116.202 70.6313 116.183 70.6546 116.162 70.6697C116.142 70.6832 116.117 70.69 116.087 70.69C116.056 70.69 116.021 70.6787 115.984 70.6561C115.947 70.6321 115.904 70.6058 115.853 70.5772C115.802 70.5486 115.741 70.5231 115.672 70.5005C115.605 70.4765 115.524 70.4644 115.431 70.4644C115.347 70.4644 115.273 70.475 115.21 70.496C115.147 70.5156 115.093 70.5434 115.05 70.5795C115.008 70.6155 114.976 70.6592 114.955 70.7103C114.934 70.7599 114.924 70.8148 114.924 70.8749C114.924 70.9516 114.945 71.0155 114.987 71.0666C115.03 71.1177 115.087 71.1613 115.158 71.1974C115.229 71.2335 115.309 71.2658 115.399 71.2944C115.49 71.323 115.582 71.3538 115.677 71.3869C115.772 71.4184 115.864 71.456 115.954 71.4996C116.044 71.5417 116.125 71.5959 116.196 71.662C116.266 71.7267 116.323 71.8064 116.365 71.9011C116.408 71.9958 116.43 72.1108 116.43 72.2462C116.43 72.3935 116.405 72.5318 116.353 72.6611C116.304 72.7889 116.23 72.901 116.132 72.9972C116.036 73.0919 115.918 73.1671 115.778 73.2227C115.638 73.2768 115.478 73.3039 115.298 73.3039C115.194 73.3039 115.092 73.2934 114.991 73.2723C114.89 73.2528 114.793 73.2242 114.7 73.1866C114.609 73.149 114.522 73.1039 114.441 73.0513C114.36 72.9987 114.288 72.94 114.224 72.8754L114.403 72.5845C114.418 72.5634 114.437 72.5461 114.461 72.5326C114.485 72.5175 114.511 72.51 114.538 72.51C114.575 72.51 114.616 72.5258 114.66 72.5574C114.703 72.5875 114.755 72.6213 114.815 72.6589C114.875 72.6965 114.945 72.7311 115.025 72.7626C115.106 72.7927 115.203 72.8077 115.316 72.8077C115.489 72.8077 115.623 72.7671 115.717 72.6859C115.812 72.6033 115.86 72.4852 115.86 72.3319C115.86 72.2462 115.838 72.1762 115.794 72.1221C115.752 72.068 115.696 72.0229 115.625 71.9868C115.554 71.9492 115.474 71.9176 115.384 71.8921C115.293 71.8665 115.202 71.8387 115.108 71.8086C115.015 71.7786 114.924 71.7425 114.833 71.7004C114.743 71.6583 114.663 71.6034 114.592 71.5357C114.521 71.4681 114.464 71.3839 114.421 71.2831C114.378 71.1809 114.357 71.0553 114.357 70.9065C114.357 70.7877 114.381 70.6719 114.427 70.5592C114.475 70.4464 114.545 70.3464 114.635 70.2592C114.725 70.172 114.836 70.1021 114.969 70.0495C115.101 69.9968 115.253 69.9705 115.424 69.9705C115.617 69.9705 115.794 70.0006 115.956 70.0607C116.119 70.1209 116.257 70.2051 116.371 70.3133L116.22 70.5998ZM117.541 73.3039C117.34 73.3039 117.185 73.2475 117.077 73.1348C116.97 73.0205 116.917 72.8634 116.917 72.6634V71.3711H116.68C116.65 71.3711 116.624 71.3613 116.603 71.3418C116.582 71.3222 116.572 71.2929 116.572 71.2538V71.0328L116.944 70.9719L117.061 70.3404C117.069 70.3103 117.083 70.287 117.104 70.2705C117.125 70.2539 117.152 70.2457 117.185 70.2457H117.474V70.9741H118.092V71.3711H117.474V72.6251C117.474 72.6972 117.491 72.7536 117.526 72.7942C117.562 72.8348 117.611 72.8551 117.672 72.8551C117.707 72.8551 117.735 72.8513 117.758 72.8438C117.782 72.8348 117.802 72.8258 117.819 72.8168C117.837 72.8077 117.853 72.7995 117.866 72.7919C117.88 72.7829 117.893 72.7784 117.907 72.7784C117.923 72.7784 117.937 72.7829 117.947 72.7919C117.958 72.7995 117.969 72.8115 117.981 72.828L118.148 73.0987C118.067 73.1663 117.974 73.2175 117.868 73.252C117.763 73.2866 117.654 73.3039 117.541 73.3039ZM119.671 72.28C119.51 72.2875 119.375 72.3018 119.265 72.3228C119.155 72.3424 119.067 72.3679 119.001 72.3995C118.935 72.4311 118.887 72.4679 118.859 72.51C118.83 72.5521 118.816 72.598 118.816 72.6476C118.816 72.7453 118.845 72.8153 118.902 72.8574C118.96 72.8995 119.036 72.9205 119.129 72.9205C119.244 72.9205 119.342 72.9002 119.425 72.8596C119.509 72.8175 119.591 72.7544 119.671 72.6702V72.28ZM118.394 71.2764C118.66 71.0328 118.981 70.911 119.355 70.911C119.49 70.911 119.611 70.9336 119.718 70.9787C119.825 71.0223 119.915 71.0839 119.989 71.1636C120.062 71.2418 120.118 71.3358 120.156 71.4455C120.195 71.5553 120.214 71.6756 120.214 71.8064V73.2678H119.962C119.909 73.2678 119.868 73.2603 119.84 73.2453C119.811 73.2287 119.789 73.1964 119.772 73.1483L119.723 72.9814C119.664 73.034 119.607 73.0806 119.551 73.1212C119.496 73.1603 119.438 73.1934 119.378 73.2205C119.317 73.2475 119.253 73.2678 119.184 73.2814C119.116 73.2964 119.041 73.3039 118.958 73.3039C118.86 73.3039 118.77 73.2911 118.687 73.2656C118.605 73.2385 118.533 73.1987 118.473 73.146C118.413 73.0934 118.366 73.028 118.333 72.9498C118.3 72.8716 118.284 72.7807 118.284 72.6769C118.284 72.6183 118.293 72.5604 118.313 72.5033C118.333 72.4446 118.364 72.389 118.408 72.3364C118.453 72.2837 118.511 72.2341 118.581 72.1875C118.652 72.1409 118.739 72.1003 118.841 72.0657C118.945 72.0311 119.065 72.0033 119.202 71.9823C119.338 71.9597 119.495 71.9462 119.671 71.9417V71.8064C119.671 71.6515 119.638 71.5372 119.571 71.4636C119.505 71.3884 119.41 71.3508 119.285 71.3508C119.195 71.3508 119.12 71.3613 119.06 71.3824C119.001 71.4034 118.949 71.4275 118.904 71.4545C118.859 71.4801 118.817 71.5034 118.78 71.5244C118.744 71.5455 118.703 71.556 118.658 71.556C118.619 71.556 118.586 71.5463 118.559 71.5267C118.532 71.5057 118.51 71.4816 118.493 71.4545L118.394 71.2764ZM121.479 73.3039C121.278 73.3039 121.123 73.2475 121.015 73.1348C120.908 73.0205 120.855 72.8634 120.855 72.6634V71.3711H120.618C120.588 71.3711 120.562 71.3613 120.541 71.3418C120.52 71.3222 120.51 71.2929 120.51 71.2538V71.0328L120.882 70.9719L120.999 70.3404C121.007 70.3103 121.021 70.287 121.042 70.2705C121.063 70.2539 121.09 70.2457 121.123 70.2457H121.412V70.9741H122.03V71.3711H121.412V72.6251C121.412 72.6972 121.429 72.7536 121.464 72.7942C121.5 72.8348 121.549 72.8551 121.61 72.8551C121.645 72.8551 121.673 72.8513 121.696 72.8438C121.72 72.8348 121.74 72.8258 121.757 72.8168C121.775 72.8077 121.791 72.7995 121.804 72.7919C121.818 72.7829 121.831 72.7784 121.845 72.7784C121.861 72.7784 121.875 72.7829 121.885 72.7919C121.896 72.7995 121.907 72.8115 121.919 72.828L122.086 73.0987C122.005 73.1663 121.912 73.2175 121.806 73.252C121.701 73.2866 121.592 73.3039 121.479 73.3039ZM123.86 71.8447C123.86 71.7725 123.849 71.7049 123.828 71.6417C123.808 71.5771 123.778 71.5207 123.738 71.4726C123.697 71.4245 123.645 71.3869 123.582 71.3598C123.52 71.3312 123.448 71.317 123.366 71.317C123.205 71.317 123.078 71.3628 122.984 71.4545C122.893 71.5463 122.834 71.6763 122.809 71.8447H123.86ZM122.797 72.1808C122.806 72.2995 122.827 72.4025 122.86 72.4897C122.893 72.5754 122.937 72.6469 122.991 72.704C123.045 72.7596 123.109 72.8017 123.183 72.8303C123.258 72.8574 123.341 72.8709 123.431 72.8709C123.521 72.8709 123.599 72.8604 123.663 72.8393C123.729 72.8183 123.787 72.795 123.835 72.7694C123.884 72.7438 123.927 72.7205 123.963 72.6995C124.001 72.6784 124.037 72.6679 124.072 72.6679C124.118 72.6679 124.153 72.6852 124.175 72.7198L124.335 72.9228C124.274 72.9949 124.205 73.0558 124.128 73.1054C124.051 73.1536 123.971 73.1926 123.887 73.2227C123.804 73.2513 123.719 73.2716 123.632 73.2836C123.546 73.2956 123.463 73.3017 123.381 73.3017C123.221 73.3017 123.071 73.2753 122.933 73.2227C122.794 73.1686 122.674 73.0897 122.572 72.9859C122.469 72.8807 122.389 72.7514 122.33 72.598C122.272 72.4431 122.242 72.2642 122.242 72.0612C122.242 71.9033 122.268 71.7552 122.319 71.6169C122.37 71.4771 122.443 71.3561 122.538 71.2538C122.634 71.1501 122.751 71.0681 122.887 71.008C123.026 70.9478 123.181 70.9178 123.354 70.9178C123.5 70.9178 123.635 70.9411 123.758 70.9877C123.881 71.0343 123.987 71.1027 124.076 71.1929C124.165 71.2816 124.234 71.3914 124.284 71.5222C124.335 71.6515 124.36 71.7996 124.36 71.9665C124.36 72.0507 124.351 72.1078 124.333 72.1379C124.315 72.1665 124.281 72.1808 124.229 72.1808H122.797ZM126.19 71.4049C126.175 71.429 126.159 71.4463 126.143 71.4568C126.126 71.4658 126.105 71.4703 126.08 71.4703C126.053 71.4703 126.023 71.4628 125.992 71.4478C125.962 71.4327 125.926 71.4162 125.886 71.3982C125.845 71.3786 125.798 71.3613 125.746 71.3463C125.695 71.3312 125.634 71.3237 125.563 71.3237C125.453 71.3237 125.367 71.347 125.304 71.3936C125.242 71.4403 125.211 71.5011 125.211 71.5763C125.211 71.6259 125.227 71.668 125.259 71.7026C125.292 71.7357 125.335 71.765 125.387 71.7906C125.441 71.8161 125.502 71.8394 125.57 71.8605C125.638 71.88 125.706 71.9018 125.775 71.9259C125.846 71.95 125.915 71.9778 125.983 72.0093C126.05 72.0394 126.11 72.0785 126.163 72.1266C126.217 72.1732 126.26 72.2296 126.292 72.2958C126.325 72.3619 126.341 72.4416 126.341 72.5348C126.341 72.6461 126.321 72.7491 126.28 72.8438C126.241 72.937 126.183 73.0182 126.104 73.0874C126.026 73.1551 125.929 73.2084 125.813 73.2475C125.699 73.2851 125.567 73.3039 125.417 73.3039C125.337 73.3039 125.259 73.2964 125.182 73.2814C125.107 73.2678 125.034 73.2483 124.963 73.2227C124.894 73.1972 124.829 73.1671 124.769 73.1325C124.711 73.0979 124.659 73.0603 124.614 73.0197L124.742 72.8077C124.759 72.7822 124.778 72.7626 124.801 72.7491C124.823 72.7356 124.852 72.7288 124.887 72.7288C124.921 72.7288 124.953 72.7386 124.983 72.7581C125.015 72.7777 125.051 72.7987 125.092 72.8213C125.132 72.8438 125.18 72.8649 125.234 72.8844C125.289 72.904 125.359 72.9137 125.444 72.9137C125.51 72.9137 125.566 72.9062 125.613 72.8912C125.661 72.8746 125.7 72.8536 125.73 72.828C125.762 72.8025 125.784 72.7732 125.798 72.7401C125.813 72.7055 125.82 72.6702 125.82 72.6341C125.82 72.5799 125.804 72.5356 125.771 72.501C125.739 72.4664 125.696 72.4364 125.642 72.4108C125.589 72.3852 125.529 72.3627 125.459 72.3431C125.392 72.3221 125.322 72.2995 125.25 72.2755C125.179 72.2514 125.109 72.2236 125.04 72.192C124.972 72.1589 124.911 72.1176 124.857 72.068C124.805 72.0184 124.762 71.9575 124.729 71.8853C124.697 71.8131 124.681 71.7259 124.681 71.6237C124.681 71.529 124.7 71.4387 124.738 71.353C124.775 71.2673 124.83 71.1929 124.902 71.1298C124.976 71.0651 125.067 71.014 125.175 70.9764C125.285 70.9373 125.411 70.9178 125.554 70.9178C125.713 70.9178 125.859 70.9441 125.989 70.9967C126.12 71.0493 126.229 71.1185 126.316 71.2042L126.19 71.4049Z" fill="#212121"/>
<path d="M23.5477 107.437H86.017V140.321C61.6179 147.182 47.9459 147.252 23.5477 140.321V107.437Z" fill="#232323"/>
<path d="M23.6029 137.712V113.899L86.017 118.603C86.017 118.603 67.0223 123.908 58.3725 133.525C49.7227 143.143 22.1288 140.32 23.6029 137.712Z" fill="black"/>
<path d="M54.9335 97.6231L107.319 109.247L54.9335 124.656L2.84423 109.247L54.9335 97.6231Z" fill="black"/>
<path d="M55.0532 99.8369L107.439 111.461L55.0532 126.87L2.96398 111.461L55.0532 99.8369Z" fill="black"/>
<path d="M53.8589 124.75L107.314 109.231L107.314 111.505L54.5023 126.96L53.8589 124.75Z" fill="#3B3B3B"/>
<path d="M2.88831 109.255L54.468 124.588L54.4633 126.943L2.88386 111.504L2.88831 109.255Z" fill="#232323"/>
<path d="M55.4994 107.975L84.6063 117.167C84.8756 117.252 85.0586 117.502 85.0586 117.784V146.39" stroke="#FFBA08" stroke-width="0.647189"/>
<rect x="54.4221" y="106.898" width="2.15411" height="1.79509" rx="0.897547" fill="url(#paint0_linear_4420_305)"/>
<path d="M84.8192 129.396C84.8192 129.971 84.2607 140.885 83.9814 146.27" stroke="#FFBA08" stroke-width="0.647189"/>
<path d="M85.298 129.277L86.734 145.433" stroke="#FFBA08" stroke-width="0.647189"/>
<path d="M85.0586 128.32L85.8963 146.151" stroke="#FFBA08" stroke-width="0.647189"/>
<rect x="84.1012" y="128.199" width="1.91477" height="1.67542" rx="0.837711" fill="#FFBA08"/>
</g>
</g>
<defs>
<linearGradient id="paint0_linear_4420_305" x1="54.9606" y1="108.334" x2="57.1148" y2="106.18" gradientUnits="userSpaceOnUse">
<stop stop-color="#1F1F1F"/>
<stop offset="1" stop-color="#797979"/>
</linearGradient>
<clipPath id="clip0_4420_305">
<rect width="232" height="164.25" fill="white"/>
</clipPath>
<clipPath id="clip1_4420_305">
<rect width="248.731" height="153.363" fill="white" transform="translate(-17 5)"/>
</clipPath>
<clipPath id="clip2_4420_305">
<rect width="5.36191" height="5.36191" fill="white" transform="translate(71.5923 69.9827)"/>
</clipPath>
<clipPath id="clip3_4420_305">
<rect width="7.39434" height="7.39434" fill="white" transform="translate(70.8773 53.4895)"/>
</clipPath>
</defs>
</svg>
