<svg width="232" height="219" viewBox="0 0 232 219" fill="none" xmlns="http://www.w3.org/2000/svg">
<g clip-path="url(#clip0_4420_375)">
<rect x="48.1908" y="70.4933" width="44.5647" height="126.807" fill="#3676A4"/>
<rect x="119.089" y="170.561" width="44.5647" height="26.7388" fill="#BED7EA"/>
<path d="M63.8986 211.449C64.0283 211.449 64.1304 211.486 64.2049 211.561C64.2827 211.632 64.3216 211.728 64.3216 211.847V212.567H59.4989V212.168C59.4989 212.087 59.5151 212.003 59.5475 211.916C59.5831 211.825 59.6382 211.744 59.7128 211.672L61.847 209.533C62.0253 209.352 62.1841 209.178 62.3235 209.013C62.4661 208.848 62.5844 208.684 62.6784 208.522C62.7724 208.36 62.8437 208.196 62.8923 208.031C62.9441 207.863 62.9701 207.686 62.9701 207.501C62.9701 207.333 62.9458 207.185 62.8971 207.059C62.8485 206.929 62.7788 206.821 62.6881 206.733C62.6006 206.646 62.4936 206.581 62.3672 206.539C62.2441 206.493 62.1047 206.471 61.9491 206.471C61.8065 206.471 61.6736 206.492 61.5505 206.534C61.4306 206.573 61.3236 206.629 61.2296 206.704C61.1356 206.775 61.0562 206.859 60.9914 206.957C60.9266 207.054 60.878 207.161 60.8455 207.278C60.7904 207.427 60.7191 207.526 60.6316 207.574C60.5441 207.623 60.4177 207.634 60.2524 207.608L59.6204 207.496C59.669 207.159 59.763 206.864 59.9024 206.612C60.0418 206.356 60.2152 206.143 60.4226 205.975C60.6333 205.803 60.8731 205.675 61.1421 205.591C61.4143 205.503 61.706 205.459 62.0172 205.459C62.3413 205.459 62.6379 205.508 62.9069 205.605C63.1759 205.699 63.406 205.834 63.5972 206.009C63.7884 206.184 63.9375 206.394 64.0445 206.641C64.1514 206.887 64.2049 207.161 64.2049 207.462C64.2049 207.722 64.166 207.961 64.0882 208.182C64.0137 208.402 63.9116 208.613 63.782 208.814C63.6556 209.015 63.5065 209.209 63.3347 209.397C63.1629 209.585 62.983 209.776 62.795 209.971L61.2102 211.59C61.3625 211.544 61.5132 211.51 61.6623 211.488C61.8146 211.462 61.9588 211.449 62.095 211.449H63.8986ZM70.166 209.052C70.166 209.665 70.0996 210.198 69.9667 210.652C69.837 211.102 69.6555 211.475 69.4222 211.77C69.1921 212.065 68.9182 212.285 68.6006 212.431C68.2862 212.573 67.9459 212.645 67.5796 212.645C67.2134 212.645 66.8731 212.573 66.5587 212.431C66.2475 212.285 65.9769 212.065 65.7468 211.77C65.5167 211.475 65.3368 211.102 65.2072 210.652C65.0775 210.198 65.0127 209.665 65.0127 209.052C65.0127 208.436 65.0775 207.903 65.2072 207.453C65.3368 207.002 65.5167 206.629 65.7468 206.334C65.9769 206.039 66.2475 205.821 66.5587 205.678C66.8731 205.532 67.2134 205.459 67.5796 205.459C67.9459 205.459 68.2862 205.532 68.6006 205.678C68.9182 205.821 69.1921 206.039 69.4222 206.334C69.6555 206.629 69.837 207.002 69.9667 207.453C70.0996 207.903 70.166 208.436 70.166 209.052ZM68.9263 209.052C68.9263 208.543 68.889 208.122 68.8145 207.788C68.7399 207.454 68.6395 207.188 68.5131 206.991C68.3899 206.793 68.2473 206.655 68.0852 206.578C67.9232 206.496 67.7546 206.456 67.5796 206.456C67.4079 206.456 67.2409 206.496 67.0789 206.578C66.9201 206.655 66.7791 206.793 66.6559 206.991C66.5328 207.188 66.4339 207.454 66.3594 207.788C66.2881 208.122 66.2524 208.543 66.2524 209.052C66.2524 209.561 66.2881 209.982 66.3594 210.316C66.4339 210.65 66.5328 210.916 66.6559 211.113C66.7791 211.311 66.9201 211.45 67.0789 211.531C67.2409 211.609 67.4079 211.648 67.5796 211.648C67.7546 211.648 67.9232 211.609 68.0852 211.531C68.2473 211.45 68.3899 211.311 68.5131 211.113C68.6395 210.916 68.7399 210.65 68.8145 210.316C68.889 209.982 68.9263 209.561 68.9263 209.052ZM75.1791 211.449C75.3087 211.449 75.4108 211.486 75.4854 211.561C75.5631 211.632 75.602 211.728 75.602 211.847V212.567H70.7793V212.168C70.7793 212.087 70.7955 212.003 70.8279 211.916C70.8636 211.825 70.9187 211.744 70.9932 211.672L73.1275 209.533C73.3057 209.352 73.4646 209.178 73.6039 209.013C73.7465 208.848 73.8648 208.684 73.9588 208.522C74.0528 208.36 74.1241 208.196 74.1727 208.031C74.2246 207.863 74.2505 207.686 74.2505 207.501C74.2505 207.333 74.2262 207.185 74.1776 207.059C74.129 206.929 74.0593 206.821 73.9685 206.733C73.881 206.646 73.7741 206.581 73.6477 206.539C73.5245 206.493 73.3851 206.471 73.2296 206.471C73.087 206.471 72.9541 206.492 72.8309 206.534C72.711 206.573 72.604 206.629 72.5101 206.704C72.4161 206.775 72.3367 206.859 72.2718 206.957C72.207 207.054 72.1584 207.161 72.126 207.278C72.0709 207.427 71.9996 207.526 71.9121 207.574C71.8246 207.623 71.6982 207.634 71.5329 207.608L70.9009 207.496C70.9495 207.159 71.0435 206.864 71.1828 206.612C71.3222 206.356 71.4956 206.143 71.703 205.975C71.9137 205.803 72.1535 205.675 72.4225 205.591C72.6948 205.503 72.9865 205.459 73.2976 205.459C73.6217 205.459 73.9183 205.508 74.1873 205.605C74.4563 205.699 74.6864 205.834 74.8777 206.009C75.0689 206.184 75.218 206.394 75.3249 206.641C75.4319 206.887 75.4854 207.161 75.4854 207.462C75.4854 207.722 75.4465 207.961 75.3687 208.182C75.2941 208.402 75.192 208.613 75.0624 208.814C74.936 209.015 74.7869 209.209 74.6151 209.397C74.4434 209.585 74.2635 209.776 74.0755 209.971L72.4906 211.59C72.6429 211.544 72.7937 211.51 72.9427 211.488C73.0951 211.462 73.2393 211.449 73.3754 211.449H75.1791ZM81.0818 211.668V212.567H77.1925V211.668H78.617V207.569C78.617 207.407 78.6219 207.24 78.6316 207.069L77.6204 207.914C77.562 207.96 77.5037 207.989 77.4453 208.002C77.3902 208.012 77.3368 208.012 77.2849 208.002C77.2363 207.992 77.1925 207.976 77.1537 207.953C77.1148 207.927 77.0856 207.9 77.0661 207.871L76.6869 207.351L78.8309 205.527H79.8178V211.668H81.0818Z" fill="black"/>
<path d="M134.797 209.423C134.927 209.423 135.029 209.46 135.103 209.535C135.181 209.606 135.22 209.702 135.22 209.822V210.541H130.397V210.143C130.397 210.062 130.414 209.977 130.446 209.89C130.482 209.799 130.537 209.718 130.611 209.647L132.745 207.508C132.924 207.326 133.083 207.153 133.222 206.988C133.365 206.822 133.483 206.659 133.577 206.497C133.671 206.334 133.742 206.171 133.791 206.006C133.843 205.837 133.869 205.66 133.869 205.476C133.869 205.307 133.844 205.16 133.796 205.033C133.747 204.904 133.677 204.795 133.587 204.707C133.499 204.62 133.392 204.555 133.266 204.513C133.143 204.468 133.003 204.445 132.848 204.445C132.705 204.445 132.572 204.466 132.449 204.508C132.329 204.547 132.222 204.604 132.128 204.678C132.034 204.75 131.955 204.834 131.89 204.931C131.825 205.028 131.776 205.135 131.744 205.252C131.689 205.401 131.618 205.5 131.53 205.549C131.443 205.597 131.316 205.608 131.151 205.583L130.519 205.471C130.567 205.134 130.661 204.839 130.801 204.586C130.94 204.33 131.114 204.118 131.321 203.949C131.532 203.777 131.772 203.649 132.041 203.565C132.313 203.477 132.604 203.434 132.916 203.434C133.24 203.434 133.536 203.482 133.805 203.58C134.074 203.674 134.304 203.808 134.496 203.983C134.687 204.158 134.836 204.369 134.943 204.615C135.05 204.861 135.103 205.135 135.103 205.437C135.103 205.696 135.064 205.936 134.987 206.156C134.912 206.377 134.81 206.587 134.68 206.788C134.554 206.989 134.405 207.184 134.233 207.372C134.061 207.56 133.881 207.751 133.693 207.945L132.109 209.564C132.261 209.519 132.412 209.485 132.561 209.462C132.713 209.436 132.857 209.423 132.993 209.423H134.797ZM141.064 207.026C141.064 207.639 140.998 208.172 140.865 208.626C140.735 209.076 140.554 209.449 140.321 209.744C140.09 210.039 139.817 210.259 139.499 210.405C139.185 210.548 138.844 210.619 138.478 210.619C138.112 210.619 137.772 210.548 137.457 210.405C137.146 210.259 136.875 210.039 136.645 209.744C136.415 209.449 136.235 209.076 136.106 208.626C135.976 208.172 135.911 207.639 135.911 207.026C135.911 206.411 135.976 205.877 136.106 205.427C136.235 204.976 136.415 204.604 136.645 204.309C136.875 204.014 137.146 203.795 137.457 203.652C137.772 203.507 138.112 203.434 138.478 203.434C138.844 203.434 139.185 203.507 139.499 203.652C139.817 203.795 140.09 204.014 140.321 204.309C140.554 204.604 140.735 204.976 140.865 205.427C140.998 205.877 141.064 206.411 141.064 207.026ZM139.825 207.026C139.825 206.518 139.787 206.096 139.713 205.762C139.638 205.429 139.538 205.163 139.411 204.965C139.288 204.767 139.146 204.63 138.984 204.552C138.822 204.471 138.653 204.43 138.478 204.43C138.306 204.43 138.139 204.471 137.977 204.552C137.819 204.63 137.678 204.767 137.554 204.965C137.431 205.163 137.332 205.429 137.258 205.762C137.186 206.096 137.151 206.518 137.151 207.026C137.151 207.535 137.186 207.957 137.258 208.29C137.332 208.624 137.431 208.89 137.554 209.088C137.678 209.285 137.819 209.425 137.977 209.506C138.139 209.584 138.306 209.623 138.478 209.623C138.653 209.623 138.822 209.584 138.984 209.506C139.146 209.425 139.288 209.285 139.411 209.088C139.538 208.89 139.638 208.624 139.713 208.29C139.787 207.957 139.825 207.535 139.825 207.026ZM146.078 209.423C146.207 209.423 146.309 209.46 146.384 209.535C146.462 209.606 146.5 209.702 146.5 209.822V210.541H141.678V210.143C141.678 210.062 141.694 209.977 141.726 209.89C141.762 209.799 141.817 209.718 141.892 209.647L144.026 207.508C144.204 207.326 144.363 207.153 144.502 206.988C144.645 206.822 144.763 206.659 144.857 206.497C144.951 206.334 145.023 206.171 145.071 206.006C145.123 205.837 145.149 205.66 145.149 205.476C145.149 205.307 145.125 205.16 145.076 205.033C145.027 204.904 144.958 204.795 144.867 204.707C144.779 204.62 144.673 204.555 144.546 204.513C144.423 204.468 144.284 204.445 144.128 204.445C143.985 204.445 143.853 204.466 143.729 204.508C143.609 204.547 143.502 204.604 143.408 204.678C143.315 204.75 143.235 204.834 143.17 204.931C143.105 205.028 143.057 205.135 143.024 205.252C142.969 205.401 142.898 205.5 142.811 205.549C142.723 205.597 142.597 205.608 142.431 205.583L141.799 205.471C141.848 205.134 141.942 204.839 142.081 204.586C142.221 204.33 142.394 204.118 142.601 203.949C142.812 203.777 143.052 203.649 143.321 203.565C143.593 203.477 143.885 203.434 144.196 203.434C144.52 203.434 144.817 203.482 145.086 203.58C145.355 203.674 145.585 203.808 145.776 203.983C145.967 204.158 146.116 204.369 146.223 204.615C146.33 204.861 146.384 205.135 146.384 205.437C146.384 205.696 146.345 205.936 146.267 206.156C146.193 206.377 146.09 206.587 145.961 206.788C145.834 206.989 145.685 207.184 145.514 207.372C145.342 207.56 145.162 207.751 144.974 207.945L143.389 209.564C143.541 209.519 143.692 209.485 143.841 209.462C143.994 209.436 144.138 209.423 144.274 209.423H146.078ZM147.474 205.471C147.522 205.134 147.616 204.839 147.756 204.586C147.895 204.33 148.068 204.118 148.276 203.949C148.486 203.777 148.726 203.649 148.995 203.565C149.267 203.477 149.559 203.434 149.87 203.434C150.194 203.434 150.486 203.481 150.745 203.575C151.008 203.665 151.232 203.793 151.416 203.959C151.601 204.121 151.742 204.312 151.839 204.532C151.94 204.753 151.99 204.991 151.99 205.247C151.99 205.471 151.964 205.668 151.912 205.84C151.864 206.009 151.792 206.156 151.698 206.283C151.604 206.409 151.488 206.516 151.348 206.603C151.209 206.691 151.052 206.764 150.877 206.822C151.298 206.955 151.612 207.158 151.82 207.43C152.027 207.702 152.131 208.044 152.131 208.456C152.131 208.806 152.066 209.115 151.937 209.384C151.807 209.653 151.632 209.88 151.411 210.065C151.191 210.246 150.935 210.384 150.643 210.478C150.355 210.572 150.049 210.619 149.724 210.619C149.371 210.619 149.063 210.579 148.801 210.498C148.538 210.417 148.31 210.297 148.115 210.138C147.921 209.979 147.756 209.785 147.619 209.554C147.483 209.324 147.367 209.059 147.269 208.757L147.799 208.538C147.939 208.48 148.068 208.465 148.188 208.495C148.311 208.521 148.401 208.585 148.456 208.689C148.514 208.803 148.577 208.914 148.645 209.025C148.717 209.135 148.801 209.234 148.898 209.321C148.995 209.405 149.109 209.475 149.238 209.53C149.371 209.582 149.528 209.608 149.71 209.608C149.914 209.608 150.092 209.576 150.245 209.511C150.397 209.443 150.523 209.355 150.624 209.248C150.728 209.141 150.804 209.023 150.852 208.893C150.904 208.76 150.93 208.628 150.93 208.495C150.93 208.326 150.912 208.174 150.877 208.038C150.841 207.898 150.766 207.78 150.653 207.683C150.54 207.586 150.376 207.509 150.162 207.454C149.951 207.399 149.668 207.372 149.311 207.372V206.516C149.606 206.513 149.851 206.485 150.045 206.433C150.24 206.381 150.394 206.31 150.507 206.219C150.624 206.125 150.705 206.014 150.75 205.884C150.796 205.754 150.818 205.612 150.818 205.456C150.818 205.126 150.726 204.874 150.541 204.703C150.356 204.531 150.11 204.445 149.802 204.445C149.66 204.445 149.528 204.466 149.408 204.508C149.289 204.547 149.18 204.604 149.083 204.678C148.989 204.75 148.909 204.834 148.845 204.931C148.78 205.028 148.731 205.135 148.699 205.252C148.644 205.401 148.571 205.5 148.48 205.549C148.392 205.597 148.268 205.608 148.106 205.583L147.474 205.471Z" fill="black"/>
<path d="M66.314 60.7423C66.4653 60.7423 66.5844 60.7858 66.6714 60.8728C66.7621 60.956 66.8075 61.0675 66.8075 61.2074V62.0469H61.181V61.5818C61.181 61.4872 61.1999 61.3889 61.2377 61.2868C61.2793 61.181 61.3436 61.0864 61.4306 61.0032L63.9205 58.5076C64.1285 58.2959 64.3138 58.0936 64.4764 57.9007C64.6427 57.7079 64.7807 57.5169 64.8904 57.3279C65.0001 57.1388 65.0832 56.9479 65.14 56.755C65.2005 56.5584 65.2307 56.3523 65.2307 56.1368C65.2307 55.9402 65.2024 55.7681 65.1456 55.6206C65.0889 55.4694 65.0076 55.3427 64.9017 55.2406C64.7997 55.1385 64.6749 55.0629 64.5274 55.0137C64.3837 54.9608 64.2211 54.9343 64.0396 54.9343C63.8732 54.9343 63.7182 54.9589 63.5745 55.0081C63.4346 55.0535 63.3098 55.1196 63.2002 55.2066C63.0905 55.2898 62.9979 55.3881 62.9223 55.5015C62.8466 55.615 62.7899 55.7397 62.7521 55.8759C62.6878 56.0498 62.6046 56.1651 62.5025 56.2219C62.4004 56.2786 62.253 56.2918 62.0601 56.2616L61.3228 56.1311C61.3795 55.7379 61.4892 55.3938 61.6518 55.0988C61.8144 54.8001 62.0167 54.5524 62.2587 54.3558C62.5044 54.1554 62.7842 54.006 63.0981 53.9077C63.4157 53.8056 63.756 53.7546 64.119 53.7546C64.4972 53.7546 64.8431 53.8113 65.157 53.9247C65.4708 54.0344 65.7393 54.1913 65.9624 54.3955C66.1855 54.5997 66.3594 54.8455 66.4842 55.1329C66.609 55.4202 66.6714 55.7397 66.6714 56.0914C66.6714 56.3939 66.626 56.6737 66.5352 56.9308C66.4483 57.188 66.3292 57.4337 66.1779 57.6682C66.0304 57.9026 65.8565 58.1295 65.6561 58.3488C65.4557 58.5681 65.2458 58.7912 65.0265 59.0181L63.1775 60.9068C63.3552 60.8539 63.531 60.8142 63.705 60.7877C63.8827 60.7575 64.051 60.7423 64.2098 60.7423H66.314ZM67.9428 56.1311C67.9995 55.7379 68.1091 55.3938 68.2717 55.0988C68.4343 54.8001 68.6366 54.5524 68.8786 54.3558C69.1244 54.1554 69.4042 54.006 69.7181 53.9077C70.0357 53.8056 70.376 53.7546 70.739 53.7546C71.1171 53.7546 71.4574 53.8094 71.7599 53.9191C72.0662 54.025 72.3271 54.1743 72.5426 54.3672C72.7582 54.5562 72.9227 54.7793 73.0361 55.0364C73.1533 55.2936 73.2119 55.5715 73.2119 55.8702C73.2119 56.1311 73.1817 56.3618 73.1212 56.5622C73.0645 56.7588 72.9813 56.9308 72.8716 57.0783C72.762 57.2258 72.6258 57.3506 72.4632 57.4527C72.3006 57.5547 72.1173 57.6398 71.9131 57.7079C72.4046 57.8629 72.7714 58.0992 73.0134 58.4169C73.2554 58.7345 73.3764 59.1334 73.3764 59.6136C73.3764 60.022 73.3008 60.3831 73.1495 60.697C72.9983 61.0108 72.7941 61.2755 72.537 61.491C72.2798 61.7028 71.9811 61.8635 71.6408 61.9731C71.3043 62.0828 70.947 62.1376 70.5688 62.1376C70.1567 62.1376 69.7975 62.0904 69.4912 61.9958C69.1849 61.9013 68.9183 61.7614 68.6914 61.5761C68.4646 61.3908 68.2717 61.164 68.1129 60.8955C67.9541 60.627 67.818 60.317 67.7045 59.9653L68.3228 59.7101C68.4854 59.642 68.6366 59.625 68.7765 59.659C68.9202 59.6893 69.0242 59.7649 69.0885 59.8859C69.1565 60.0182 69.2303 60.1487 69.3097 60.2772C69.3929 60.4058 69.4912 60.5211 69.6046 60.6232C69.7181 60.7215 69.8504 60.8028 70.0016 60.8671C70.1567 60.9276 70.3401 60.9579 70.5518 60.9579C70.79 60.9579 70.998 60.9201 71.1757 60.8444C71.3534 60.765 71.5009 60.6629 71.6181 60.5382C71.7391 60.4134 71.828 60.2754 71.8847 60.1241C71.9452 59.9691 71.9755 59.814 71.9755 59.659C71.9755 59.4624 71.9547 59.2847 71.9131 59.1259C71.8715 58.9633 71.7845 58.8252 71.6522 58.7118C71.5198 58.5984 71.3289 58.5095 71.0793 58.4452C70.8335 58.381 70.5027 58.3488 70.0867 58.3488V57.3506C70.4308 57.3468 70.7163 57.3146 70.9432 57.2541C71.1701 57.1936 71.3497 57.1105 71.482 57.0046C71.6181 56.8949 71.7127 56.7645 71.7656 56.6132C71.8185 56.462 71.845 56.2956 71.845 56.1141C71.845 55.7284 71.7372 55.4354 71.5217 55.235C71.3062 55.0345 71.0188 54.9343 70.6596 54.9343C70.4932 54.9343 70.3401 54.9589 70.2002 55.0081C70.0603 55.0535 69.9336 55.1196 69.8201 55.2066C69.7105 55.2898 69.6178 55.3881 69.5422 55.5015C69.4666 55.615 69.4099 55.7397 69.3721 55.8759C69.3078 56.0498 69.2227 56.1651 69.1168 56.2219C69.0147 56.2786 68.8692 56.2918 68.6801 56.2616L67.9428 56.1311ZM79.7979 62.0469H78.448C78.3459 62.0469 78.2627 62.0204 78.1984 61.9675C78.1379 61.9145 78.0868 61.854 78.0453 61.786L76.8145 59.7611C76.7955 59.8254 76.7729 59.8859 76.7464 59.9426C76.7237 59.9993 76.6972 60.0523 76.667 60.1014L75.578 61.786C75.5364 61.8502 75.4853 61.9107 75.4248 61.9675C75.3643 62.0204 75.2887 62.0469 75.198 62.0469H73.9445L75.941 59.0465L74.0239 56.2275H75.3738C75.4759 56.2275 75.5515 56.2427 75.6007 56.2729C75.6498 56.2994 75.6933 56.3447 75.7311 56.409L76.9506 58.3488C76.9922 58.2202 77.0508 58.0936 77.1264 57.9688L78.1076 56.4374C78.1908 56.2975 78.2986 56.2275 78.4309 56.2275H79.7185L77.807 58.9841L79.7979 62.0469Z" fill="black"/>
<path d="M137.04 158.107L136.756 158.458C136.915 158.379 137.085 158.318 137.267 158.277C137.452 158.231 137.651 158.209 137.862 158.209C138.172 158.209 138.473 158.26 138.764 158.362C139.059 158.464 139.318 158.619 139.541 158.827C139.764 159.031 139.944 159.286 140.08 159.593C140.216 159.899 140.284 160.256 140.284 160.665C140.284 161.047 140.214 161.406 140.074 161.742C139.934 162.075 139.738 162.366 139.484 162.616C139.231 162.865 138.925 163.062 138.566 163.206C138.21 163.349 137.817 163.421 137.386 163.421C136.947 163.421 136.554 163.351 136.206 163.211C135.858 163.071 135.561 162.877 135.316 162.627C135.07 162.374 134.881 162.071 134.748 161.72C134.62 161.364 134.556 160.971 134.556 160.54C134.556 160.154 134.633 159.759 134.788 159.354C134.947 158.946 135.191 158.523 135.52 158.084L137.477 155.458C137.545 155.367 137.643 155.29 137.772 155.225C137.904 155.161 138.055 155.129 138.225 155.129H139.473L137.04 158.107ZM137.358 162.275C137.581 162.275 137.785 162.238 137.97 162.162C138.159 162.086 138.32 161.981 138.452 161.844C138.588 161.708 138.694 161.549 138.77 161.368C138.845 161.183 138.883 160.982 138.883 160.767C138.883 160.532 138.847 160.322 138.775 160.137C138.704 159.948 138.602 159.789 138.469 159.661C138.337 159.528 138.178 159.428 137.993 159.36C137.807 159.292 137.603 159.258 137.38 159.258C137.157 159.258 136.955 159.296 136.773 159.371C136.592 159.447 136.437 159.553 136.308 159.689C136.18 159.821 136.079 159.98 136.008 160.166C135.936 160.347 135.9 160.544 135.9 160.755C135.9 160.982 135.93 161.19 135.991 161.379C136.055 161.565 136.148 161.723 136.269 161.856C136.393 161.988 136.546 162.092 136.728 162.168C136.909 162.24 137.119 162.275 137.358 162.275ZM146.547 163.33H145.197C145.095 163.33 145.012 163.304 144.947 163.251C144.887 163.198 144.836 163.138 144.794 163.07L143.563 161.045C143.545 161.109 143.522 161.169 143.495 161.226C143.473 161.283 143.446 161.336 143.416 161.385L142.327 163.07C142.285 163.134 142.234 163.194 142.174 163.251C142.113 163.304 142.038 163.33 141.947 163.33H140.693L142.69 160.33L140.773 157.511H142.123C142.225 157.511 142.3 157.526 142.35 157.556C142.399 157.583 142.442 157.628 142.48 157.693L143.7 159.632C143.741 159.504 143.8 159.377 143.875 159.252L144.857 157.721C144.94 157.581 145.048 157.511 145.18 157.511H146.467L144.556 160.268L146.547 163.33Z" fill="black"/>
<path d="M65.6747 38.5381C65.7579 38.5381 65.8317 38.5702 65.8959 38.6345L66.4972 39.2867C66.1644 39.6989 65.7541 40.0146 65.2664 40.2339C64.7824 40.4533 64.2001 40.5629 63.5194 40.5629C62.9106 40.5629 62.3624 40.4589 61.8746 40.251C61.3906 40.043 60.9765 39.7537 60.6324 39.3832C60.2883 39.0126 60.0237 38.5702 59.8384 38.0559C59.6569 37.5417 59.5661 36.9802 59.5661 36.3714C59.5661 35.7551 59.6644 35.1917 59.8611 34.6812C60.0577 34.1669 60.3337 33.7245 60.6892 33.354C61.0484 32.9834 61.4757 32.696 61.971 32.4918C62.4663 32.2839 63.0146 32.1799 63.6158 32.1799C64.2133 32.1799 64.7427 32.2782 65.204 32.4748C65.6691 32.6714 66.0642 32.9286 66.3894 33.2462L65.8789 33.9552C65.8487 34.0006 65.809 34.0403 65.7598 34.0743C65.7144 34.1083 65.6502 34.1253 65.567 34.1253C65.5103 34.1253 65.4516 34.1102 65.3911 34.08C65.3306 34.0459 65.2645 34.0062 65.1926 33.9609C65.1208 33.9117 65.0376 33.8588 64.9431 33.802C64.8485 33.7453 64.7389 33.6943 64.6141 33.6489C64.4893 33.5997 64.3437 33.56 64.1774 33.5298C64.0148 33.4958 63.8257 33.4787 63.6102 33.4787C63.2434 33.4787 62.9069 33.5449 62.6006 33.6773C62.2981 33.8058 62.0372 33.9949 61.8179 34.2444C61.5986 34.4902 61.4284 34.7927 61.3074 35.1519C61.1864 35.5074 61.1259 35.9139 61.1259 36.3714C61.1259 36.8327 61.1902 37.243 61.3187 37.6022C61.4511 37.9614 61.6288 38.2639 61.8519 38.5097C62.075 38.7555 62.3378 38.9445 62.6403 39.0769C62.9428 39.2054 63.268 39.2697 63.6158 39.2697C63.8238 39.2697 64.011 39.2584 64.1774 39.2357C64.3475 39.213 64.5026 39.1771 64.6425 39.1279C64.7861 39.0788 64.9204 39.0164 65.0452 38.9408C65.1737 38.8614 65.3004 38.7649 65.4252 38.6515C65.463 38.6175 65.5027 38.591 65.5443 38.5721C65.5859 38.5494 65.6294 38.5381 65.6747 38.5381ZM68.722 35.2767C68.9489 35.065 69.1985 34.8929 69.4707 34.7606C69.743 34.6282 70.0625 34.5621 70.4293 34.5621C70.7469 34.5621 71.0286 34.6169 71.2744 34.7266C71.5202 34.8324 71.7244 34.9837 71.8869 35.1803C72.0533 35.3732 72.1781 35.6057 72.2613 35.8779C72.3483 36.1464 72.3917 36.4432 72.3917 36.7684V40.4722H70.9908V36.7684C70.9908 36.413 70.9095 36.1389 70.7469 35.946C70.5843 35.7494 70.3366 35.6511 70.0039 35.6511C69.7619 35.6511 69.535 35.7059 69.3233 35.8156C69.1115 35.9252 68.9111 36.0746 68.722 36.2636V40.4722H67.3211V32.0438H68.722V35.2767ZM76.7983 37.9879C76.3937 38.0068 76.0534 38.0427 75.7773 38.0957C75.5013 38.1448 75.2801 38.2091 75.1137 38.2885C74.9473 38.3679 74.8282 38.4605 74.7564 38.5664C74.6845 38.6723 74.6486 38.7876 74.6486 38.9124C74.6486 39.1582 74.7205 39.334 74.8642 39.4399C75.0116 39.5458 75.2026 39.5987 75.437 39.5987C75.7244 39.5987 75.9721 39.5477 76.18 39.4456C76.3918 39.3397 76.5979 39.1809 76.7983 38.9691V37.9879ZM73.588 35.4639C74.2573 34.8513 75.0627 34.5451 76.0042 34.5451C76.3445 34.5451 76.6489 34.6018 76.9174 34.7152C77.1858 34.8249 77.4127 34.9799 77.598 35.1803C77.7833 35.3769 77.9232 35.6133 78.0177 35.8893C78.116 36.1653 78.1652 36.4678 78.1652 36.7968V40.4722H77.5299C77.3976 40.4722 77.2955 40.4533 77.2237 40.4154C77.1518 40.3739 77.0951 40.2926 77.0535 40.1716L76.9287 39.7518C76.7812 39.8842 76.6376 40.0014 76.4977 40.1035C76.3577 40.2018 76.2122 40.285 76.0609 40.3531C75.9097 40.4211 75.7471 40.4722 75.5731 40.5062C75.403 40.544 75.2139 40.5629 75.0059 40.5629C74.7602 40.5629 74.5333 40.5308 74.3253 40.4665C74.1174 40.3984 73.9377 40.2982 73.7865 40.1659C73.6352 40.0335 73.518 39.8691 73.4348 39.6724C73.3517 39.4758 73.3101 39.247 73.3101 38.9861C73.3101 38.8387 73.3346 38.6931 73.3838 38.5494C73.4329 38.4019 73.5124 38.262 73.622 38.1297C73.7354 37.9973 73.881 37.8726 74.0587 37.7553C74.2365 37.6381 74.4539 37.536 74.711 37.4491C74.9719 37.3621 75.2744 37.2921 75.6185 37.2392C75.9626 37.1825 76.3559 37.1484 76.7983 37.1371V36.7968C76.7983 36.4073 76.7151 36.1199 76.5487 35.9347C76.3823 35.7456 76.1422 35.6511 75.8284 35.6511C75.6015 35.6511 75.4124 35.6775 75.2612 35.7305C75.1137 35.7834 74.9833 35.8439 74.8698 35.912C74.7564 35.9763 74.6524 36.0349 74.5579 36.0878C74.4671 36.1407 74.365 36.1672 74.2516 36.1672C74.1533 36.1672 74.0701 36.1426 74.002 36.0935C73.934 36.0405 73.8791 35.98 73.8375 35.912L73.588 35.4639ZM80.7948 35.3675C80.912 35.2503 81.0349 35.1425 81.1635 35.0442C81.2958 34.9421 81.4338 34.857 81.5775 34.7889C81.725 34.7171 81.8819 34.6623 82.0483 34.6245C82.2147 34.5829 82.3962 34.5621 82.5928 34.5621C82.9104 34.5621 83.1921 34.6169 83.4379 34.7266C83.6837 34.8324 83.8879 34.9837 84.0505 35.1803C84.2168 35.3732 84.3416 35.6057 84.4248 35.8779C84.5118 36.1464 84.5553 36.4432 84.5553 36.7684V40.4722H83.1543V36.7684C83.1543 36.413 83.073 36.1389 82.9104 35.946C82.7478 35.7494 82.5001 35.6511 82.1674 35.6511C81.9254 35.6511 81.6985 35.7059 81.4868 35.8156C81.275 35.9252 81.0746 36.0746 80.8856 36.2636V40.4722H79.4846V34.6528H80.3411C80.5226 34.6528 80.6417 34.7379 80.6984 34.9081L80.7948 35.3675ZM88.0146 37.4207C88.1885 37.4207 88.3398 37.398 88.4683 37.3526C88.5969 37.3035 88.7028 37.2373 88.7859 37.1541C88.8729 37.0709 88.9372 36.9707 88.9788 36.8535C89.0242 36.7363 89.0469 36.6077 89.0469 36.4678C89.0469 36.1804 88.9599 35.9536 88.7859 35.7872C88.6158 35.617 88.3587 35.532 88.0146 35.532C87.6705 35.532 87.4115 35.617 87.2375 35.7872C87.0674 35.9536 86.9823 36.1804 86.9823 36.4678C86.9823 36.6039 87.0031 36.7306 87.0447 36.8478C87.0901 36.9651 87.1543 37.0672 87.2375 37.1541C87.3245 37.2373 87.4323 37.3035 87.5608 37.3526C87.6932 37.398 87.8444 37.4207 88.0146 37.4207ZM89.597 40.7331C89.597 40.6196 89.563 40.527 89.4949 40.4552C89.4269 40.3833 89.3342 40.3285 89.217 40.2907C89.0998 40.2491 88.9618 40.2188 88.803 40.1999C88.6479 40.181 88.4816 40.1678 88.3038 40.1602C88.1299 40.1489 87.9484 40.1394 87.7593 40.1319C87.5741 40.1243 87.3926 40.1092 87.2148 40.0865C87.0598 40.1734 86.9331 40.2755 86.8348 40.3928C86.7403 40.51 86.693 40.6461 86.693 40.8011C86.693 40.9032 86.7176 40.9978 86.7668 41.0847C86.8197 41.1755 86.901 41.253 87.0106 41.3173C87.1241 41.3816 87.2697 41.4307 87.4474 41.4647C87.6251 41.5026 87.8425 41.5215 88.0996 41.5215C88.3606 41.5215 88.5855 41.5007 88.7746 41.4591C88.9637 41.4213 89.1187 41.3664 89.2397 41.2946C89.3645 41.2265 89.4552 41.1433 89.5119 41.045C89.5687 40.9505 89.597 40.8465 89.597 40.7331ZM90.9923 34.8513V35.3732C90.9923 35.5395 90.8921 35.6416 90.6917 35.6794L90.1699 35.7759C90.2493 35.9763 90.289 36.1956 90.289 36.4338C90.289 36.7212 90.2304 36.9821 90.1132 37.2165C89.9997 37.4472 89.8409 37.6438 89.6367 37.8064C89.4325 37.969 89.1905 38.0957 88.9107 38.1864C88.6347 38.2734 88.336 38.3169 88.0146 38.3169C87.9011 38.3169 87.7915 38.3112 87.6856 38.2998C87.5797 38.2885 87.4757 38.2734 87.3736 38.2545C87.1921 38.3641 87.1014 38.487 87.1014 38.6231C87.1014 38.7404 87.1543 38.8273 87.2602 38.884C87.3699 38.937 87.5136 38.9748 87.6913 38.9975C87.869 39.0202 88.0713 39.0353 88.2982 39.0429C88.525 39.0466 88.7576 39.058 88.9958 39.0769C89.234 39.0958 89.4666 39.1298 89.6934 39.179C89.9203 39.2244 90.1226 39.2981 90.3003 39.4002C90.4781 39.5023 90.6199 39.6422 90.7257 39.8199C90.8354 39.9938 90.8902 40.2188 90.8902 40.4949C90.8902 40.752 90.8259 41.0015 90.6974 41.2435C90.5726 41.4855 90.3892 41.7011 90.1472 41.8901C89.909 42.0792 89.614 42.2304 89.2624 42.3439C88.9145 42.4611 88.5175 42.5197 88.0713 42.5197C87.6327 42.5197 87.2508 42.4762 86.9256 42.3893C86.6004 42.3061 86.33 42.1926 86.1145 42.0489C85.899 41.909 85.7383 41.7464 85.6324 41.5612C85.5265 41.3759 85.4736 41.183 85.4736 40.9826C85.4736 40.7104 85.5549 40.4835 85.7175 40.302C85.8838 40.1167 86.1107 39.9693 86.3981 39.8596C86.2431 39.7802 86.1202 39.6743 86.0294 39.542C85.9387 39.4096 85.8933 39.2357 85.8933 39.0202C85.8933 38.9332 85.9084 38.8443 85.9387 38.7536C85.9727 38.6591 86.02 38.5664 86.0805 38.4757C86.1447 38.3849 86.2241 38.2998 86.3187 38.2204C86.4132 38.1372 86.5248 38.0635 86.6533 37.9992C86.3584 37.8404 86.1258 37.6287 85.9557 37.364C85.7893 37.0993 85.7061 36.7892 85.7061 36.4338C85.7061 36.1464 85.7628 35.8874 85.8763 35.6567C85.9935 35.4223 86.1542 35.2238 86.3584 35.0612C86.5664 34.8948 86.8102 34.7682 87.0901 34.6812C87.3736 34.5942 87.6818 34.5507 88.0146 34.5507C88.2641 34.5507 88.4986 34.5772 88.7179 34.6301C88.9372 34.6793 89.1376 34.753 89.3191 34.8513H90.9923ZM95.5302 36.8932C95.5302 36.7117 95.5037 36.5416 95.4508 36.3827C95.4016 36.2202 95.326 36.0784 95.2239 35.9574C95.1218 35.8364 94.9913 35.7418 94.8325 35.6738C94.6775 35.6019 94.496 35.566 94.288 35.566C93.8834 35.566 93.5639 35.6813 93.3295 35.912C93.0988 36.1426 92.9513 36.4697 92.8871 36.8932H95.5302ZM92.8587 37.7383C92.8814 38.037 92.9343 38.2961 93.0175 38.5154C93.1007 38.7309 93.2104 38.9105 93.3465 39.0542C93.4826 39.1941 93.6433 39.3 93.8286 39.3718C94.0177 39.4399 94.2256 39.4739 94.4525 39.4739C94.6794 39.4739 94.8741 39.4474 95.0367 39.3945C95.2031 39.3416 95.3468 39.283 95.4678 39.2187C95.5925 39.1544 95.7003 39.0958 95.7911 39.0429C95.8856 38.9899 95.9763 38.9634 96.0633 38.9634C96.1805 38.9634 96.2675 39.0069 96.3242 39.0939L96.7269 39.6044C96.5719 39.7859 96.398 39.939 96.2051 40.0638C96.0123 40.1848 95.81 40.2831 95.5982 40.3587C95.3903 40.4306 95.1766 40.4816 94.9573 40.5119C94.7418 40.5421 94.5319 40.5572 94.3277 40.5572C93.9231 40.5572 93.5469 40.4911 93.199 40.3587C92.8511 40.2226 92.5486 40.0241 92.2915 39.7632C92.0344 39.4985 91.8321 39.1733 91.6846 38.7876C91.5372 38.3982 91.4634 37.9482 91.4634 37.4377C91.4634 37.0407 91.5277 36.6682 91.6563 36.3204C91.7848 35.9687 91.9682 35.6643 92.2064 35.4072C92.4484 35.1463 92.7415 34.9402 93.0856 34.7889C93.4335 34.6377 93.8248 34.5621 94.2597 34.5621C94.6264 34.5621 94.9649 34.6207 95.2749 34.7379C95.585 34.8551 95.8516 35.0272 96.0747 35.254C96.2978 35.4771 96.4717 35.7532 96.5965 36.0821C96.725 36.4073 96.7893 36.7798 96.7893 37.1995C96.7893 37.4112 96.7666 37.5549 96.7213 37.6306C96.6759 37.7024 96.5889 37.7383 96.4603 37.7383H92.8587ZM102.051 34.6528V40.4722H100.644V34.6528H102.051ZM102.244 32.9569C102.244 33.0779 102.219 33.1914 102.17 33.2972C102.121 33.4031 102.055 33.4958 101.972 33.5752C101.892 33.6546 101.798 33.7189 101.688 33.768C101.578 33.8134 101.461 33.8361 101.336 33.8361C101.215 33.8361 101.1 33.8134 100.99 33.768C100.885 33.7189 100.792 33.6546 100.712 33.5752C100.633 33.4958 100.569 33.4031 100.52 33.2972C100.474 33.1914 100.452 33.0779 100.452 32.9569C100.452 32.8322 100.474 32.7149 100.52 32.6053C100.569 32.4956 100.633 32.4011 100.712 32.3217C100.792 32.2423 100.885 32.1799 100.99 32.1345C101.1 32.0854 101.215 32.0608 101.336 32.0608C101.461 32.0608 101.578 32.0854 101.688 32.1345C101.798 32.1799 101.892 32.2423 101.972 32.3217C102.055 32.4011 102.121 32.4956 102.17 32.6053C102.219 32.7149 102.244 32.8322 102.244 32.9569ZM104.789 35.3675C104.907 35.2503 105.03 35.1425 105.158 35.0442C105.291 34.9421 105.429 34.857 105.572 34.7889C105.72 34.7171 105.877 34.6623 106.043 34.6245C106.209 34.5829 106.391 34.5621 106.587 34.5621C106.905 34.5621 107.187 34.6169 107.433 34.7266C107.678 34.8324 107.883 34.9837 108.045 35.1803C108.212 35.3732 108.336 35.6057 108.419 35.8779C108.506 36.1464 108.55 36.4432 108.55 36.7684V40.4722H107.149V36.7684C107.149 36.413 107.068 36.1389 106.905 35.946C106.743 35.7494 106.495 35.6511 106.162 35.6511C105.92 35.6511 105.693 35.7059 105.481 35.8156C105.27 35.9252 105.069 36.0746 104.88 36.2636V40.4722H103.479V34.6528H104.336C104.517 34.6528 104.636 34.7379 104.693 34.9081L104.789 35.3675ZM114.393 33.4844V35.7588H117.263V36.9329H114.393V39.2527H118.035V40.4722H112.862V32.2706H118.035V33.4844H114.393ZM126.414 32.2706L123.102 40.4722H121.724L118.411 32.2706H119.636C119.769 32.2706 119.876 32.3028 119.96 32.3671C120.043 32.4313 120.105 32.5145 120.147 32.6166L122.081 37.6192C122.145 37.7818 122.206 37.9614 122.262 38.158C122.323 38.3509 122.38 38.5532 122.433 38.7649C122.478 38.5532 122.527 38.3509 122.58 38.158C122.633 37.9614 122.692 37.7818 122.756 37.6192L124.679 32.6166C124.709 32.5297 124.767 32.4502 124.854 32.3784C124.945 32.3066 125.055 32.2706 125.183 32.2706H126.414ZM127.242 40.4892C127.178 40.6631 127.074 40.7936 126.93 40.8805C126.79 40.9675 126.647 41.011 126.499 41.011H125.903L129.216 32.5372C129.276 32.3784 129.369 32.2574 129.494 32.1742C129.619 32.0872 129.764 32.0438 129.931 32.0438H130.532L127.242 40.4892ZM134.25 36.1729C134.538 36.1729 134.787 36.137 134.999 36.0651C135.215 35.9933 135.391 35.895 135.527 35.7702C135.667 35.6416 135.771 35.4904 135.839 35.3164C135.907 35.1425 135.941 34.9515 135.941 34.7436C135.941 34.3276 135.803 34.0081 135.527 33.785C135.254 33.5619 134.837 33.4504 134.273 33.4504H133.298V36.1729H134.25ZM138.175 40.4722H136.797C136.536 40.4722 136.347 40.3701 136.23 40.1659L134.506 37.5398C134.441 37.4415 134.37 37.3715 134.29 37.3299C134.215 37.2884 134.101 37.2676 133.95 37.2676H133.298V40.4722H131.772V32.2706H134.273C134.829 32.2706 135.305 32.3292 135.702 32.4465C136.103 32.5599 136.43 32.7206 136.684 32.9286C136.941 33.1365 137.13 33.3861 137.251 33.6773C137.372 33.9646 137.432 34.2823 137.432 34.6301C137.432 34.9062 137.391 35.1671 137.308 35.4129C137.228 35.6586 137.111 35.8817 136.956 36.0821C136.805 36.2825 136.616 36.4584 136.389 36.6096C136.166 36.7609 135.91 36.88 135.623 36.9669C135.721 37.0237 135.812 37.0917 135.895 37.1711C135.978 37.2468 136.054 37.3375 136.122 37.4434L138.175 40.4722ZM148.733 32.2706V40.4722H147.951C147.83 40.4722 147.728 40.4533 147.644 40.4154C147.565 40.3739 147.488 40.3058 147.412 40.2113L143.13 34.7436C143.152 34.9931 143.164 35.2238 143.164 35.4355V40.4722H141.819V32.2706H142.619C142.683 32.2706 142.738 32.2744 142.784 32.282C142.833 32.2858 142.874 32.2971 142.908 32.316C142.946 32.3311 142.982 32.3557 143.016 32.3897C143.05 32.42 143.088 32.4616 143.13 32.5145L147.429 38.0049C147.418 37.8726 147.408 37.7421 147.401 37.6135C147.393 37.485 147.389 37.3659 147.389 37.2562V32.2706H148.733ZM156.289 33.5241H153.816V40.4722H152.29V33.5241H149.817V32.2706H156.289V33.5241ZM166.255 32.2706V40.4722H164.911V35.1746C164.911 34.9629 164.922 34.7341 164.945 34.4883L162.466 39.1449C162.349 39.368 162.17 39.4796 161.928 39.4796H161.712C161.47 39.4796 161.29 39.368 161.173 39.1449L158.666 34.4713C158.678 34.5961 158.687 34.719 158.695 34.84C158.702 34.961 158.706 35.0725 158.706 35.1746V40.4722H157.362V32.2706H158.513C158.581 32.2706 158.64 32.2725 158.689 32.2763C158.738 32.2801 158.782 32.2895 158.819 32.3047C158.861 32.3198 158.897 32.3444 158.927 32.3784C158.961 32.4124 158.993 32.4578 159.024 32.5145L161.48 37.069C161.544 37.19 161.602 37.3148 161.655 37.4434C161.712 37.5719 161.767 37.7043 161.82 37.8404C161.873 37.7005 161.928 37.5663 161.984 37.4377C162.041 37.3054 162.102 37.1787 162.166 37.0577L164.588 32.5145C164.618 32.4578 164.65 32.4124 164.684 32.3784C164.718 32.3444 164.754 32.3198 164.792 32.3047C164.834 32.2895 164.879 32.2801 164.928 32.2763C164.977 32.2725 165.036 32.2706 165.104 32.2706H166.255Z" fill="black"/>
<path d="M146.638 142.202L146.376 135.19L140.435 138.923L146.638 142.202ZM97.5078 65.1445L143.214 137.894L144.243 137.247L98.5369 64.4979L97.5078 65.1445Z" fill="black"/>
<path d="M36.6445 197.503H186.544" stroke="black" stroke-width="1.2154"/>
</g>
<defs>
<clipPath id="clip0_4420_375">
<rect width="232" height="219" fill="white"/>
</clipPath>
</defs>
</svg>
