<svg width="264" height="146" viewBox="0 0 264 146" fill="none" xmlns="http://www.w3.org/2000/svg">
<path d="M25.7906 126.546H21.5491L20.5965 129.1H19.2197L23.0858 119.314H24.2539L28.127 129.1H26.7572L25.7906 126.546ZM21.9524 125.484H25.3943L23.6699 120.907L21.9524 125.484Z" fill="#242423"/>
<path d="M36.0051 124.738C34.8601 124.42 34.0257 124.03 33.5019 123.568C32.9827 123.102 32.7231 122.529 32.7231 121.848C32.7231 121.077 33.0407 120.441 33.6757 119.939C34.3154 119.433 35.1452 119.18 36.165 119.18C36.8604 119.18 37.4792 119.31 38.0216 119.569C38.5686 119.829 38.9904 120.188 39.2871 120.645C39.5884 121.102 39.739 121.601 39.739 122.144H38.3971C38.3971 121.552 38.2024 121.088 37.813 120.752C37.4236 120.412 36.8743 120.242 36.165 120.242C35.5068 120.242 34.9922 120.383 34.6214 120.665C34.2552 120.943 34.0721 121.33 34.0721 121.828C34.0721 122.226 34.2459 122.565 34.5936 122.843C34.9459 123.116 35.5415 123.367 36.3806 123.595C37.2243 123.824 37.8825 124.077 38.3553 124.355C38.8328 124.628 39.1851 124.948 39.4122 125.316C39.644 125.683 39.7599 126.116 39.7599 126.613C39.7599 127.406 39.4401 128.042 38.8003 128.522C38.1606 128.997 37.3054 129.234 36.2346 129.234C35.5392 129.234 34.8903 129.106 34.2876 128.851C33.685 128.591 33.2191 128.237 32.89 127.789C32.5655 127.341 32.4033 126.833 32.4033 126.264H33.7453C33.7453 126.855 33.9701 127.323 34.4197 127.668C34.874 128.009 35.479 128.179 36.2346 128.179C36.9392 128.179 37.4792 128.04 37.8547 127.762C38.2302 127.484 38.4179 127.106 38.4179 126.626C38.4179 126.147 38.2441 125.777 37.8964 125.517C37.5487 125.253 36.9183 124.993 36.0051 124.738Z" fill="#242423"/>
<path d="M44.2935 128.219C44.7524 128.219 45.1534 128.085 45.4964 127.816C45.8395 127.547 46.0295 127.211 46.0666 126.808H47.2834C47.2603 127.225 47.1119 127.621 46.8384 127.998C46.5649 128.374 46.1987 128.674 45.7398 128.898C45.2855 129.122 44.8034 129.234 44.2935 129.234C43.269 129.234 42.4532 128.905 41.8459 128.246C41.2433 127.583 40.942 126.678 40.942 125.531V125.323C40.942 124.615 41.0764 123.985 41.3453 123.434C41.6141 122.883 41.9989 122.455 42.4995 122.15C43.0048 121.846 43.6005 121.693 44.2865 121.693C45.1302 121.693 45.8302 121.937 46.3864 122.426C46.9474 122.914 47.2463 123.548 47.2834 124.328H46.0666C46.0295 123.857 45.8441 123.472 45.5103 123.172C45.1812 122.867 44.7733 122.715 44.2865 122.715C43.6329 122.715 43.1253 122.943 42.7638 123.4C42.4068 123.853 42.2283 124.509 42.2283 125.37V125.605C42.2283 126.443 42.4068 127.088 42.7638 127.54C43.1207 127.993 43.6306 128.219 44.2935 128.219Z" fill="#242423"/>
<path d="M50.0161 122.708C50.5863 122.032 51.328 121.693 52.2412 121.693C53.8312 121.693 54.6331 122.56 54.647 124.294V129.1H53.3607V124.288C53.356 123.763 53.2309 123.376 52.9852 123.125C52.7441 122.874 52.3663 122.748 51.8518 122.748C51.4346 122.748 51.0684 122.856 50.7532 123.071C50.4379 123.286 50.1922 123.568 50.0161 123.918V129.1H48.7297V118.776H50.0161V122.708Z" fill="#242423"/>
<path d="M56.2324 125.397C56.2324 124.684 56.3761 124.043 56.6635 123.474C56.9555 122.905 57.3588 122.466 57.8734 122.157C58.3926 121.848 58.9836 121.693 59.6465 121.693C60.6709 121.693 61.4984 122.036 62.1288 122.722C62.7639 123.407 63.0814 124.319 63.0814 125.457V125.544C63.0814 126.252 62.94 126.889 62.6573 127.453C62.3791 128.013 61.9782 128.45 61.4543 128.764C60.9352 129.077 60.3372 129.234 59.6604 129.234C58.6406 129.234 57.8131 128.891 57.178 128.206C56.5476 127.52 56.2324 126.613 56.2324 125.484V125.397ZM57.5257 125.544C57.5257 126.351 57.7181 126.998 58.1028 127.487C58.4922 127.975 59.0114 128.219 59.6604 128.219C60.314 128.219 60.8332 127.973 61.2179 127.48C61.6027 126.983 61.7951 126.288 61.7951 125.397C61.7951 124.599 61.5981 123.954 61.204 123.461C60.8146 122.964 60.2955 122.715 59.6465 122.715C59.0114 122.715 58.4992 122.959 58.1098 123.447C57.7204 123.936 57.5257 124.635 57.5257 125.544Z" fill="#242423"/>
<path d="M64.3539 125.397C64.3539 124.684 64.4976 124.043 64.785 123.474C65.077 122.905 65.4803 122.466 65.9949 122.157C66.5141 121.848 67.1051 121.693 67.768 121.693C68.7924 121.693 69.6199 122.036 70.2503 122.722C70.8854 123.407 71.2029 124.319 71.2029 125.457V125.544C71.2029 126.252 71.0616 126.889 70.7788 127.453C70.5007 128.013 70.0997 128.45 69.5759 128.764C69.0567 129.077 68.4587 129.234 67.7819 129.234C66.7621 129.234 65.9346 128.891 65.2995 128.206C64.6691 127.52 64.3539 126.613 64.3539 125.484V125.397ZM65.6472 125.544C65.6472 126.351 65.8396 126.998 66.2243 127.487C66.6137 127.975 67.1329 128.219 67.7819 128.219C68.4355 128.219 68.9547 127.973 69.3394 127.48C69.7242 126.983 69.9166 126.288 69.9166 125.397C69.9166 124.599 69.7196 123.954 69.3255 123.461C68.9361 122.964 68.417 122.715 67.768 122.715C67.1329 122.715 66.6207 122.959 66.2313 123.447C65.8419 123.936 65.6472 124.635 65.6472 125.544Z" fill="#242423"/>
<path d="M74.2137 129.1H72.9274V118.776H74.2137V129.1Z" fill="#242423"/>
<path d="M79.4705 125.397C79.4705 124.684 79.6142 124.043 79.9016 123.474C80.1936 122.905 80.5969 122.466 81.1115 122.157C81.6306 121.848 82.2217 121.693 82.8846 121.693C83.909 121.693 84.7365 122.036 85.3669 122.722C86.002 123.407 86.3195 124.319 86.3195 125.457V125.544C86.3195 126.252 86.1781 126.889 85.8954 127.453C85.6172 128.013 85.2163 128.45 84.6924 128.764C84.1732 129.077 83.5753 129.234 82.8985 129.234C81.8786 129.234 81.0512 128.891 80.4161 128.206C79.7857 127.52 79.4705 126.613 79.4705 125.484V125.397ZM80.7638 125.544C80.7638 126.351 80.9562 126.998 81.3409 127.487C81.7303 127.975 82.2495 128.219 82.8985 128.219C83.5521 128.219 84.0713 127.973 84.456 127.48C84.8408 126.983 85.0331 126.288 85.0331 125.397C85.0331 124.599 84.8361 123.954 84.4421 123.461C84.0527 122.964 83.5335 122.715 82.8846 122.715C82.2495 122.715 81.7373 122.959 81.3479 123.447C80.9585 123.936 80.7638 124.635 80.7638 125.544Z" fill="#242423"/>
<path d="M88.5654 129.1V122.789H87.3764V121.828H88.5654V121.082C88.5654 120.302 88.781 119.699 89.2121 119.274C89.6432 118.848 90.2528 118.635 91.0408 118.635C91.3375 118.635 91.6319 118.673 91.9239 118.75L91.8544 119.758C91.6365 119.717 91.4047 119.697 91.159 119.697C90.7418 119.697 90.4197 119.816 90.1925 120.053C89.9654 120.286 89.8518 120.622 89.8518 121.062V121.828H91.458V122.789H89.8518V129.1H88.5654Z" fill="#242423"/>
<path d="M102.208 126.546H97.9664L97.0138 129.1H95.637L99.5031 119.314H100.671L104.544 129.1H103.174L102.208 126.546ZM98.3697 125.484H101.812L100.087 120.907L98.3697 125.484Z" fill="#242423"/>
<path d="M108.723 128.219C109.182 128.219 109.583 128.085 109.926 127.816C110.269 127.547 110.459 127.211 110.496 126.808H111.713C111.69 127.225 111.542 127.621 111.268 127.998C110.995 128.374 110.628 128.674 110.169 128.898C109.715 129.122 109.233 129.234 108.723 129.234C107.699 129.234 106.883 128.905 106.276 128.246C105.673 127.583 105.372 126.678 105.372 125.531V125.323C105.372 124.615 105.506 123.985 105.775 123.434C106.044 122.883 106.429 122.455 106.929 122.15C107.435 121.846 108.03 121.693 108.716 121.693C109.56 121.693 110.26 121.937 110.816 122.426C111.377 122.914 111.676 123.548 111.713 124.328H110.496C110.459 123.857 110.274 123.472 109.94 123.172C109.611 122.867 109.203 122.715 108.716 122.715C108.063 122.715 107.555 122.943 107.193 123.4C106.837 123.853 106.658 124.509 106.658 125.37V125.605C106.658 126.443 106.837 127.088 107.193 127.54C107.55 127.993 108.06 128.219 108.723 128.219Z" fill="#242423"/>
<path d="M116.177 128.219C116.636 128.219 117.037 128.085 117.38 127.816C117.723 127.547 117.913 127.211 117.95 126.808H119.167C119.144 127.225 118.996 127.621 118.722 127.998C118.449 128.374 118.082 128.674 117.623 128.898C117.169 129.122 116.687 129.234 116.177 129.234C115.153 129.234 114.337 128.905 113.73 128.246C113.127 127.583 112.826 126.678 112.826 125.531V125.323C112.826 124.615 112.96 123.985 113.229 123.434C113.498 122.883 113.883 122.455 114.383 122.15C114.888 121.846 115.484 121.693 116.17 121.693C117.014 121.693 117.714 121.937 118.27 122.426C118.831 122.914 119.13 123.548 119.167 124.328H117.95C117.913 123.857 117.728 123.472 117.394 123.172C117.065 122.867 116.657 122.715 116.17 122.715C115.517 122.715 115.009 122.943 114.647 123.4C114.291 123.853 114.112 124.509 114.112 125.37V125.605C114.112 126.443 114.291 127.088 114.647 127.54C115.004 127.993 115.514 128.219 116.177 128.219Z" fill="#242423"/>
<path d="M120.273 125.397C120.273 124.684 120.416 124.043 120.704 123.474C120.996 122.905 121.399 122.466 121.914 122.157C122.433 121.848 123.024 121.693 123.687 121.693C124.711 121.693 125.539 122.036 126.169 122.722C126.804 123.407 127.122 124.319 127.122 125.457V125.544C127.122 126.252 126.98 126.889 126.698 127.453C126.419 128.013 126.018 128.45 125.495 128.764C124.975 129.077 124.377 129.234 123.701 129.234C122.681 129.234 121.853 128.891 121.218 128.206C120.588 127.52 120.273 126.613 120.273 125.484V125.397ZM121.566 125.544C121.566 126.351 121.758 126.998 122.143 127.487C122.533 127.975 123.052 128.219 123.701 128.219C124.354 128.219 124.874 127.973 125.258 127.48C125.643 126.983 125.835 126.288 125.835 125.397C125.835 124.599 125.638 123.954 125.244 123.461C124.855 122.964 124.336 122.715 123.687 122.715C123.052 122.715 122.539 122.959 122.15 123.447C121.761 123.936 121.566 124.635 121.566 125.544Z" fill="#242423"/>
<path d="M133.38 128.381C132.879 128.95 132.144 129.234 131.176 129.234C130.374 129.234 129.762 129.01 129.34 128.562C128.923 128.11 128.712 127.442 128.707 126.559V121.828H129.993V126.526C129.993 127.628 130.457 128.179 131.384 128.179C132.367 128.179 133.021 127.825 133.345 127.117V121.828H134.631V129.1H133.408L133.38 128.381Z" fill="#242423"/>
<path d="M137.809 121.828L137.851 122.742C138.426 122.043 139.177 121.693 140.104 121.693C141.694 121.693 142.496 122.56 142.51 124.294V129.1H141.223V124.288C141.218 123.763 141.093 123.376 140.848 123.125C140.607 122.874 140.229 122.748 139.714 122.748C139.297 122.748 138.931 122.856 138.616 123.071C138.3 123.286 138.055 123.568 137.879 123.918V129.1H136.592V121.828H137.809Z" fill="#242423"/>
<path d="M146.195 120.067V121.828H147.599V122.789H146.195V127.299C146.195 127.59 146.257 127.809 146.383 127.957C146.508 128.101 146.721 128.172 147.022 128.172C147.171 128.172 147.375 128.145 147.634 128.092V129.1C147.296 129.189 146.967 129.234 146.647 129.234C146.072 129.234 145.639 129.066 145.346 128.73C145.054 128.394 144.908 127.917 144.908 127.299V122.789H143.539V121.828H144.908V120.067H146.195Z" fill="#242423"/>
<path d="M150.506 129.1H149.219V121.828H150.506V129.1ZM149.115 119.899C149.115 119.697 149.178 119.527 149.303 119.388C149.433 119.249 149.623 119.18 149.873 119.18C150.123 119.18 150.313 119.249 150.443 119.388C150.573 119.527 150.638 119.697 150.638 119.899C150.638 120.1 150.573 120.268 150.443 120.403C150.313 120.537 150.123 120.604 149.873 120.604C149.623 120.604 149.433 120.537 149.303 120.403C149.178 120.268 149.115 120.1 149.115 119.899Z" fill="#242423"/>
<path d="M153.788 121.828L153.83 122.742C154.404 122.043 155.155 121.693 156.082 121.693C157.672 121.693 158.474 122.56 158.488 124.294V129.1H157.202V124.288C157.197 123.763 157.072 123.376 156.826 123.125C156.585 122.874 156.208 122.748 155.693 122.748C155.276 122.748 154.91 122.856 154.594 123.071C154.279 123.286 154.034 123.568 153.857 123.918V129.1H152.571V121.828H153.788Z" fill="#242423"/>
<path d="M160.122 125.403C160.122 124.27 160.394 123.369 160.936 122.701C161.478 122.029 162.197 121.693 163.091 121.693C164.009 121.693 164.725 122.007 165.24 122.634L165.303 121.828H166.478V128.925C166.478 129.866 166.188 130.607 165.609 131.15C165.034 131.692 164.26 131.963 163.286 131.963C162.744 131.963 162.213 131.851 161.694 131.627C161.175 131.403 160.778 131.096 160.505 130.706L161.172 129.96C161.724 130.619 162.398 130.948 163.196 130.948C163.822 130.948 164.308 130.778 164.656 130.437C165.008 130.097 165.184 129.617 165.184 128.999V128.374C164.67 128.947 163.968 129.234 163.077 129.234C162.197 129.234 161.483 128.891 160.936 128.206C160.394 127.52 160.122 126.586 160.122 125.403ZM161.416 125.544C161.416 126.364 161.589 127.01 161.937 127.48C162.285 127.946 162.772 128.179 163.397 128.179C164.209 128.179 164.804 127.823 165.184 127.11V123.79C164.79 123.096 164.199 122.748 163.411 122.748C162.785 122.748 162.296 122.984 161.944 123.454C161.592 123.925 161.416 124.621 161.416 125.544Z" fill="#242423"/>
<path d="M176.602 129.1C176.528 128.956 176.467 128.701 176.421 128.334C175.823 128.934 175.109 129.234 174.279 129.234C173.538 129.234 172.928 129.033 172.451 128.629C171.978 128.222 171.741 127.706 171.741 127.083C171.741 126.326 172.038 125.739 172.631 125.323C173.229 124.901 174.068 124.691 175.149 124.691H176.4V124.12C176.4 123.685 176.266 123.34 175.997 123.085C175.728 122.825 175.332 122.695 174.808 122.695C174.349 122.695 173.964 122.807 173.654 123.031C173.343 123.255 173.188 123.526 173.188 123.844H171.894C171.894 123.481 172.026 123.132 172.291 122.796C172.56 122.455 172.921 122.186 173.375 121.989C173.834 121.792 174.337 121.693 174.884 121.693C175.751 121.693 176.43 121.904 176.922 122.325C177.413 122.742 177.668 123.318 177.686 124.052V127.399C177.686 128.067 177.775 128.598 177.951 128.992V129.1H176.602ZM174.467 128.152C174.87 128.152 175.253 128.051 175.614 127.85C175.976 127.648 176.238 127.386 176.4 127.063V125.571H175.392C173.816 125.571 173.028 126.017 173.028 126.909C173.028 127.299 173.162 127.603 173.431 127.823C173.7 128.042 174.045 128.152 174.467 128.152Z" fill="#242423"/>
<path d="M180.92 121.828L180.962 122.742C181.536 122.043 182.287 121.693 183.214 121.693C184.804 121.693 185.606 122.56 185.62 124.294V129.1H184.334V124.288C184.329 123.763 184.204 123.376 183.958 123.125C183.717 122.874 183.34 122.748 182.825 122.748C182.408 122.748 182.042 122.856 181.726 123.071C181.411 123.286 181.165 123.568 180.989 123.918V129.1H179.703V121.828H180.92Z" fill="#242423"/>
<path d="M187.247 125.403C187.247 124.288 187.521 123.391 188.068 122.715C188.615 122.034 189.331 121.693 190.216 121.693C191.097 121.693 191.795 121.985 192.309 122.567V118.776H193.596V129.1H192.414L192.351 128.32C191.837 128.929 191.12 129.234 190.202 129.234C189.331 129.234 188.619 128.889 188.068 128.199C187.521 127.509 187.247 126.609 187.247 125.497V125.403ZM188.534 125.544C188.534 126.369 188.71 127.014 189.062 127.48C189.414 127.946 189.901 128.179 190.522 128.179C191.338 128.179 191.934 127.825 192.309 127.117V123.777C191.925 123.091 191.334 122.748 190.536 122.748C189.906 122.748 189.414 122.984 189.062 123.454C188.71 123.925 188.534 124.621 188.534 125.544Z" fill="#242423"/>
<path d="M204.916 124.778H200.667V129.1H199.332V119.314H205.604V120.376H200.667V123.723H204.916V124.778Z" fill="#242423"/>
<path d="M208.399 129.1H207.113V121.828H208.399V129.1ZM207.009 119.899C207.009 119.697 207.071 119.527 207.196 119.388C207.326 119.249 207.516 119.18 207.767 119.18C208.017 119.18 208.207 119.249 208.337 119.388C208.467 119.527 208.532 119.697 208.532 119.899C208.532 120.1 208.467 120.268 208.337 120.403C208.207 120.537 208.017 120.604 207.767 120.604C207.516 120.604 207.326 120.537 207.196 120.403C207.071 120.268 207.009 120.1 207.009 119.899Z" fill="#242423"/>
<path d="M211.681 121.828L211.723 122.742C212.298 122.043 213.049 121.693 213.976 121.693C215.566 121.693 216.368 122.56 216.382 124.294V129.1H215.095V124.288C215.091 123.763 214.966 123.376 214.72 123.125C214.479 122.874 214.101 122.748 213.587 122.748C213.169 122.748 212.803 122.856 212.488 123.071C212.173 123.286 211.927 123.568 211.751 123.918V129.1H210.465V121.828H211.681Z" fill="#242423"/>
<path d="M222.967 129.1C222.893 128.956 222.832 128.701 222.786 128.334C222.188 128.934 221.474 129.234 220.644 129.234C219.903 129.234 219.293 129.033 218.816 128.629C218.343 128.222 218.106 127.706 218.106 127.083C218.106 126.326 218.403 125.739 218.996 125.323C219.594 124.901 220.433 124.691 221.513 124.691H222.765V124.12C222.765 123.685 222.631 123.34 222.362 123.085C222.093 122.825 221.697 122.695 221.173 122.695C220.714 122.695 220.329 122.807 220.018 123.031C219.708 123.255 219.553 123.526 219.553 123.844H218.259C218.259 123.481 218.391 123.132 218.656 122.796C218.924 122.455 219.286 122.186 219.74 121.989C220.199 121.792 220.702 121.693 221.249 121.693C222.116 121.693 222.795 121.904 223.287 122.325C223.778 122.742 224.033 123.318 224.051 124.052V127.399C224.051 128.067 224.139 128.598 224.316 128.992V129.1H222.967ZM220.832 128.152C221.235 128.152 221.618 128.051 221.979 127.85C222.341 127.648 222.603 127.386 222.765 127.063V125.571H221.757C220.181 125.571 219.393 126.017 219.393 126.909C219.393 127.299 219.527 127.603 219.796 127.823C220.065 128.042 220.41 128.152 220.832 128.152Z" fill="#242423"/>
<path d="M227.285 121.828L227.326 122.742C227.901 122.043 228.652 121.693 229.579 121.693C231.169 121.693 231.971 122.56 231.985 124.294V129.1H230.699V124.288C230.694 123.763 230.569 123.376 230.323 123.125C230.082 122.874 229.704 122.748 229.19 122.748C228.773 122.748 228.407 122.856 228.091 123.071C227.776 123.286 227.53 123.568 227.354 123.918V129.1H226.068V121.828H227.285Z" fill="#242423"/>
<path d="M236.943 128.219C237.402 128.219 237.803 128.085 238.146 127.816C238.489 127.547 238.679 127.211 238.716 126.808H239.933C239.91 127.225 239.761 127.621 239.488 127.998C239.214 128.374 238.848 128.674 238.389 128.898C237.935 129.122 237.453 129.234 236.943 129.234C235.918 129.234 235.103 128.905 234.495 128.246C233.893 127.583 233.591 126.678 233.591 125.531V125.323C233.591 124.615 233.726 123.985 233.995 123.434C234.264 122.883 234.648 122.455 235.149 122.15C235.654 121.846 236.25 121.693 236.936 121.693C237.78 121.693 238.48 121.937 239.036 122.426C239.597 122.914 239.896 123.548 239.933 124.328H238.716C238.679 123.857 238.493 123.472 238.16 123.172C237.831 122.867 237.423 122.715 236.936 122.715C236.282 122.715 235.775 122.943 235.413 123.4C235.056 123.853 234.878 124.509 234.878 125.37V125.605C234.878 126.443 235.056 127.088 235.413 127.54C235.77 127.993 236.28 128.219 236.943 128.219Z" fill="#242423"/>
<path d="M244.501 129.234C243.481 129.234 242.652 128.912 242.012 128.266C241.372 127.617 241.052 126.75 241.052 125.665V125.437C241.052 124.715 241.194 124.072 241.476 123.508C241.764 122.939 242.163 122.495 242.672 122.177C243.187 121.855 243.743 121.693 244.341 121.693C245.319 121.693 246.08 122.005 246.622 122.627C247.164 123.25 247.436 124.142 247.436 125.302V125.82H242.339C242.357 126.537 242.573 127.117 242.985 127.561C243.403 128 243.931 128.219 244.571 128.219C245.025 128.219 245.41 128.13 245.725 127.95C246.04 127.771 246.316 127.534 246.552 127.238L247.338 127.829C246.708 128.766 245.762 129.234 244.501 129.234ZM244.341 122.715C243.822 122.715 243.386 122.899 243.034 123.266C242.682 123.629 242.464 124.14 242.38 124.798H246.149V124.704C246.112 124.072 245.936 123.584 245.621 123.239C245.305 122.89 244.879 122.715 244.341 122.715Z" fill="#242423"/>
<path d="M68.5954 140.876C67.4505 140.557 66.6161 140.168 66.0922 139.706C65.573 139.24 65.3135 138.667 65.3135 137.986C65.3135 137.215 65.631 136.579 66.2661 136.077C66.9058 135.57 67.7355 135.317 68.7554 135.317C69.4507 135.317 70.0695 135.447 70.6119 135.707C71.1589 135.967 71.5807 136.325 71.8774 136.782C72.1787 137.239 72.3294 137.739 72.3294 138.281H70.9874C70.9874 137.69 70.7927 137.226 70.4033 136.89C70.0139 136.549 69.4646 136.379 68.7554 136.379C68.0971 136.379 67.5826 136.52 67.2117 136.803C66.8455 137.08 66.6624 137.468 66.6624 137.965C66.6624 138.364 66.8362 138.702 67.1839 138.98C67.5362 139.254 68.1319 139.504 68.9709 139.733C69.8146 139.961 70.4728 140.215 70.9457 140.492C71.4231 140.766 71.7754 141.086 72.0026 141.454C72.2344 141.821 72.3502 142.253 72.3502 142.751C72.3502 143.544 72.0304 144.18 71.3907 144.659C70.751 145.134 69.8957 145.372 68.8249 145.372C68.1296 145.372 67.4806 145.244 66.878 144.989C66.2753 144.729 65.8095 144.375 65.4803 143.927C65.1558 143.479 64.9936 142.97 64.9936 142.401H66.3356C66.3356 142.993 66.5604 143.461 67.0101 143.806C67.4644 144.146 68.0693 144.317 68.8249 144.317C69.5295 144.317 70.0695 144.178 70.445 143.9C70.8205 143.622 71.0082 143.244 71.0082 142.764C71.0082 142.285 70.8344 141.915 70.4867 141.655C70.1391 141.391 69.5086 141.131 68.5954 140.876Z" fill="#242423"/>
<path d="M75.6114 136.204V137.965H77.0159V138.926H75.6114V143.436C75.6114 143.727 75.6739 143.947 75.7991 144.095C75.9243 144.238 76.1375 144.31 76.4388 144.31C76.5872 144.31 76.7911 144.283 77.0507 144.229V145.237C76.7123 145.327 76.3832 145.372 76.0633 145.372C75.4885 145.372 75.0551 145.204 74.7631 144.868C74.471 144.532 74.325 144.055 74.325 143.436V138.926H72.9552V137.965H74.325V136.204H75.6114Z" fill="#242423"/>
<path d="M83.1697 144.518C82.669 145.087 81.9343 145.372 80.9654 145.372C80.1635 145.372 79.5516 145.148 79.1298 144.7C78.7126 144.247 78.5016 143.58 78.497 142.697V137.965H79.7834V142.663C79.7834 143.766 80.2469 144.317 81.174 144.317C82.1568 144.317 82.8104 143.963 83.1349 143.255V137.965H84.4212V145.237H83.1975L83.1697 144.518Z" fill="#242423"/>
<path d="M86.0692 141.541C86.0692 140.425 86.3427 139.529 86.8897 138.853C87.4367 138.171 88.1529 137.831 89.0383 137.831C89.919 137.831 90.6167 138.122 91.1312 138.705V134.914H92.4176V145.237H91.2355L91.173 144.458C90.6584 145.067 89.9422 145.372 89.0244 145.372C88.1529 145.372 87.4413 145.027 86.8897 144.337C86.3427 143.647 86.0692 142.746 86.0692 141.635V141.541ZM87.3556 141.682C87.3556 142.506 87.5317 143.152 87.884 143.618C88.2363 144.084 88.7231 144.317 89.3442 144.317C90.1601 144.317 90.7558 143.963 91.1312 143.255V139.914C90.7465 139.229 90.1554 138.886 89.3581 138.886C88.7277 138.886 88.2363 139.121 87.884 139.592C87.5317 140.062 87.3556 140.759 87.3556 141.682Z" fill="#242423"/>
<path d="M97.5422 145.372C96.5224 145.372 95.6926 145.049 95.0529 144.404C94.4132 143.754 94.0934 142.887 94.0934 141.803V141.575C94.0934 140.853 94.2347 140.21 94.5175 139.646C94.8049 139.077 95.2036 138.633 95.7135 138.315C96.228 137.992 96.7843 137.831 97.3823 137.831C98.3604 137.831 99.1206 138.142 99.663 138.765C100.205 139.388 100.477 140.28 100.477 141.44V141.958H95.3797C95.3983 142.674 95.6138 143.255 96.0264 143.698C96.4436 144.137 96.972 144.357 97.6117 144.357C98.066 144.357 98.4508 144.267 98.766 144.088C99.0812 143.909 99.357 143.671 99.5935 143.376L100.379 143.967C99.7487 144.904 98.8031 145.372 97.5422 145.372ZM97.3823 138.853C96.8631 138.853 96.4274 139.036 96.0751 139.404C95.7228 139.767 95.5049 140.277 95.4214 140.936H99.1902V140.842C99.1531 140.21 98.9769 139.722 98.6617 139.377C98.3465 139.027 97.92 138.853 97.3823 138.853Z" fill="#242423"/>
<path d="M103.188 137.965L103.23 138.879C103.805 138.18 104.556 137.831 105.483 137.831C107.073 137.831 107.875 138.698 107.889 140.432V145.237H106.602V140.425C106.598 139.901 106.473 139.513 106.227 139.263C105.986 139.012 105.608 138.886 105.094 138.886C104.676 138.886 104.31 138.994 103.995 139.209C103.68 139.424 103.434 139.706 103.258 140.056V145.237H101.971V137.965H103.188Z" fill="#242423"/>
<path d="M111.574 136.204V137.965H112.979V138.926H111.574V143.436C111.574 143.727 111.637 143.947 111.762 144.095C111.887 144.238 112.1 144.31 112.402 144.31C112.55 144.31 112.754 144.283 113.013 144.229V145.237C112.675 145.327 112.346 145.372 112.026 145.372C111.451 145.372 111.018 145.204 110.726 144.868C110.434 144.532 110.288 144.055 110.288 143.436V138.926H108.918V137.965H110.288V136.204H111.574Z" fill="#242423"/>
<path d="M117.165 141.588H113.771V140.573H117.165V141.588Z" fill="#242423"/>
<path d="M122.338 141.279H119.96V145.237H118.618V135.452H121.969C123.11 135.452 123.986 135.703 124.598 136.204C125.214 136.706 125.522 137.437 125.522 138.395C125.522 139.005 125.351 139.536 125.008 139.988C124.67 140.441 124.197 140.779 123.589 141.003L125.967 145.157V145.237H124.535L122.338 141.279ZM119.96 140.224H122.011C122.674 140.224 123.2 140.058 123.589 139.726C123.983 139.395 124.18 138.951 124.18 138.395C124.18 137.791 123.993 137.327 123.617 137.004C123.246 136.682 122.709 136.518 122.004 136.514H119.96V140.224Z" fill="#242423"/>
<path d="M131.843 144.518C131.342 145.087 130.608 145.372 129.639 145.372C128.837 145.372 128.225 145.148 127.803 144.7C127.386 144.247 127.175 143.58 127.17 142.697V137.965H128.457V142.663C128.457 143.766 128.92 144.317 129.847 144.317C130.83 144.317 131.484 143.963 131.808 143.255V137.965H133.095V145.237H131.871L131.843 144.518Z" fill="#242423"/>
<path d="M136.272 137.965L136.314 138.879C136.889 138.18 137.64 137.831 138.567 137.831C140.157 137.831 140.959 138.698 140.973 140.432V145.237H139.686V140.425C139.682 139.901 139.557 139.513 139.311 139.263C139.07 139.012 138.692 138.886 138.178 138.886C137.76 138.886 137.394 138.994 137.079 139.209C136.764 139.424 136.518 139.706 136.342 140.056V145.237H135.056V137.965H136.272Z" fill="#242423"/>
<path d="M148.079 145.237H146.744V135.452H148.079V145.237Z" fill="#242423"/>
<path d="M151.542 137.965L151.584 138.879C152.158 138.18 152.909 137.831 153.837 137.831C155.426 137.831 156.228 138.698 156.242 140.432V145.237H154.956V140.425C154.951 139.901 154.826 139.513 154.581 139.263C154.339 139.012 153.962 138.886 153.447 138.886C153.03 138.886 152.664 138.994 152.348 139.209C152.033 139.424 151.788 139.706 151.611 140.056V145.237H150.325V137.965H151.542Z" fill="#242423"/>
<path d="M159.58 145.237H158.294V137.965H159.58V145.237ZM158.189 136.036C158.189 135.835 158.252 135.665 158.377 135.526C158.507 135.387 158.697 135.317 158.947 135.317C159.198 135.317 159.388 135.387 159.517 135.526C159.647 135.665 159.712 135.835 159.712 136.036C159.712 136.238 159.647 136.406 159.517 136.541C159.388 136.675 159.198 136.742 158.947 136.742C158.697 136.742 158.507 136.675 158.377 136.541C158.252 136.406 158.189 136.238 158.189 136.036Z" fill="#242423"/>
<path d="M163.39 136.204V137.965H164.795V138.926H163.39V143.436C163.39 143.727 163.453 143.947 163.578 144.095C163.703 144.238 163.917 144.31 164.218 144.31C164.366 144.31 164.57 144.283 164.83 144.229V145.237C164.491 145.327 164.162 145.372 163.842 145.372C163.268 145.372 162.834 145.204 162.542 144.868C162.25 144.532 162.104 144.055 162.104 143.436V138.926H160.734V137.965H162.104V136.204H163.39Z" fill="#242423"/>
<path d="M167.701 145.237H166.415V137.965H167.701V145.237ZM166.311 136.036C166.311 135.835 166.373 135.665 166.499 135.526C166.628 135.387 166.818 135.317 167.069 135.317C167.319 135.317 167.509 135.387 167.639 135.526C167.769 135.665 167.834 135.835 167.834 136.036C167.834 136.238 167.769 136.406 167.639 136.541C167.509 136.675 167.319 136.742 167.069 136.742C166.818 136.742 166.628 136.675 166.499 136.541C166.373 136.406 166.311 136.238 166.311 136.036Z" fill="#242423"/>
<path d="M174.411 145.237C174.337 145.094 174.277 144.839 174.231 144.471C173.633 145.072 172.919 145.372 172.089 145.372C171.347 145.372 170.738 145.17 170.26 144.767C169.787 144.359 169.551 143.844 169.551 143.221C169.551 142.464 169.848 141.877 170.441 141.46C171.039 141.039 171.878 140.828 172.958 140.828H174.21V140.257C174.21 139.823 174.075 139.478 173.807 139.222C173.538 138.962 173.141 138.832 172.617 138.832C172.159 138.832 171.774 138.944 171.463 139.168C171.153 139.392 170.997 139.664 170.997 139.982H169.704C169.704 139.619 169.836 139.269 170.1 138.933C170.369 138.593 170.731 138.324 171.185 138.127C171.644 137.93 172.147 137.831 172.694 137.831C173.561 137.831 174.24 138.042 174.731 138.463C175.223 138.879 175.478 139.455 175.496 140.19V143.537C175.496 144.205 175.584 144.736 175.76 145.13V145.237H174.411ZM172.277 144.29C172.68 144.29 173.063 144.189 173.424 143.987C173.786 143.786 174.048 143.524 174.21 143.201V141.709H173.202C171.625 141.709 170.837 142.155 170.837 143.046C170.837 143.436 170.972 143.741 171.241 143.96C171.51 144.18 171.855 144.29 172.277 144.29Z" fill="#242423"/>
<path d="M179.258 136.204V137.965H180.663V138.926H179.258V143.436C179.258 143.727 179.321 143.947 179.446 144.095C179.571 144.238 179.784 144.31 180.085 144.31C180.234 144.31 180.438 144.283 180.697 144.229V145.237C180.359 145.327 180.03 145.372 179.71 145.372C179.135 145.372 178.702 145.204 178.41 144.868C178.118 144.532 177.972 144.055 177.972 143.436V138.926H176.602V137.965H177.972V136.204H179.258Z" fill="#242423"/>
<path d="M183.569 145.237H182.283V137.965H183.569V145.237ZM182.178 136.036C182.178 135.835 182.241 135.665 182.366 135.526C182.496 135.387 182.686 135.317 182.936 135.317C183.187 135.317 183.377 135.387 183.506 135.526C183.636 135.665 183.701 135.835 183.701 136.036C183.701 136.238 183.636 136.406 183.506 136.541C183.377 136.675 183.187 136.742 182.936 136.742C182.686 136.742 182.496 136.675 182.366 136.541C182.241 136.406 182.178 136.238 182.178 136.036Z" fill="#242423"/>
<path d="M188.117 143.55L189.98 137.965H191.294L188.596 145.237H187.616L184.89 137.965H186.204L188.117 143.55Z" fill="#242423"/>
<path d="M195.557 145.372C194.537 145.372 193.707 145.049 193.067 144.404C192.428 143.754 192.108 142.887 192.108 141.803V141.575C192.108 140.853 192.249 140.21 192.532 139.646C192.819 139.077 193.218 138.633 193.728 138.315C194.242 137.992 194.799 137.831 195.397 137.831C196.375 137.831 197.135 138.142 197.677 138.765C198.22 139.388 198.491 140.28 198.491 141.44V141.958H193.394C193.413 142.674 193.628 143.255 194.041 143.698C194.458 144.137 194.986 144.357 195.626 144.357C196.08 144.357 196.465 144.267 196.78 144.088C197.096 143.909 197.371 143.671 197.608 143.376L198.394 143.967C197.763 144.904 196.817 145.372 195.557 145.372ZM195.397 138.853C194.877 138.853 194.442 139.036 194.089 139.404C193.737 139.767 193.519 140.277 193.436 140.936H197.205V140.842C197.167 140.21 196.991 139.722 196.676 139.377C196.361 139.027 195.934 138.853 195.397 138.853Z" fill="#242423"/>
<path d="M0 54.5168H43.2325V68.9277H0V54.5168Z" fill="#FFC200"/>
<path d="M105.149 92.8121H89.8171L77.2044 54.9681L64.4603 92.8121H49.1535L27.7878 28.4521H44.6485L57.3927 67.9691L70.5504 28.4521H83.8084L96.9347 68.0945L109.654 28.4521H126.521L105.149 92.8121Z" fill="#242423"/>
<path d="M197.121 36.2401C203.424 42.7187 206.578 50.8493 206.582 60.632C206.587 70.4146 203.454 78.5244 197.184 84.9612C190.918 91.3939 183.538 94.6123 175.041 94.6165C166.633 94.6165 159.553 92.2982 153.801 87.6617V92.6742H136.809V0H153.795V33.6023C159.459 28.878 166.539 26.518 175.035 26.5222C183.456 26.5222 190.818 29.7615 197.121 36.2401ZM185.054 74.598C188.446 71.1227 190.139 66.4673 190.135 60.632C190.131 54.7966 188.437 50.1267 185.054 46.6222C181.658 43.1009 177.345 41.3403 172.115 41.3403C167.312 41.3403 163.064 43.1427 159.371 46.7475C155.679 50.3523 153.832 54.9867 153.832 60.6508C153.832 66.3149 155.679 70.9263 159.371 74.4852C163.064 78.044 167.301 79.8256 172.084 79.8297C177.318 79.8297 181.641 78.0858 185.054 74.598Z" fill="#242423"/>
<path d="M264 28.0634L263.098 44.4103H259.37C244.094 44.4103 236.457 53.5998 236.457 71.9788V92.6991H219.452V28.4519H236.431V40.1623C242.279 31.7539 249.959 27.5497 259.47 27.5497C260.997 27.489 262.525 27.6623 264 28.0634Z" fill="#242423"/>
</svg>
