<svg width="628" height="219" viewBox="0 0 628 219" fill="none" xmlns="http://www.w3.org/2000/svg">
<rect width="595" height="219" transform="translate(14.6602)" fill="white"/>
<path d="M329.975 99.4179L329.867 99.5365C329.838 99.5685 329.822 99.6101 329.822 99.6533C329.822 99.7493 329.9 99.8271 329.996 99.8271H330.478H332.446H335.944H336.078C336.277 99.8271 336.472 99.8774 336.646 99.9733L336.671 99.9871C336.769 100.041 336.856 100.11 336.931 100.192C337.001 100.27 337.059 100.357 337.102 100.453L337.129 100.512C337.212 100.696 337.255 100.895 337.255 101.098V101.514C337.255 102.153 337.161 102.788 336.976 103.4L336.6 104.646L335.725 106.814L335.526 107.473C335.513 107.516 335.506 107.56 335.506 107.604V107.627C335.506 107.724 335.543 107.818 335.608 107.89L335.646 107.932C335.696 107.987 335.768 108.019 335.843 108.019C335.908 108.019 335.971 107.995 336.019 107.952L336.701 107.351C336.923 107.155 337.112 106.924 337.258 106.666L338.13 105.128L339.004 102.959L339.442 101.273L339.588 100.304C339.636 99.9864 339.66 99.666 339.66 99.3453V99.1702C339.66 98.968 339.617 98.7681 339.534 98.584L339.507 98.5251C339.464 98.4299 339.406 98.3421 339.336 98.2647C339.261 98.1825 339.173 98.1132 339.076 98.0597L338.967 97.9995C338.847 97.9331 338.719 97.8812 338.586 97.8447L338.378 97.7874C338.068 97.702 337.748 97.6587 337.427 97.6587H337.037H336.381H335.288H335.176C334.669 97.6587 334.164 97.7137 333.669 97.8228L333.32 97.8996L332.94 98.0043C332.611 98.095 332.289 98.2097 331.976 98.3476L331.353 98.6224L330.478 99.1043L330.127 99.2979C330.07 99.3293 330.019 99.3698 329.975 99.4179Z" fill="#F7A51E"/>
<path fill-rule="evenodd" clip-rule="evenodd" d="M300.527 72.1194L300.964 69.2281L301.839 67.3006L302.932 65.855L304.462 64.4094L305.992 63.4456L307.086 62.9637L308.179 62.4819L309.709 62.2409L313.426 62H315.612L317.798 62.2409L318.673 62.4819L319.547 62.9637L320.64 63.4456L321.733 63.9275L322.608 64.8912L323.701 65.855L324.357 67.3006L325.231 69.2281V70.9147V73.8059V85.3709L325.45 87.7803L325.669 88.744L326.106 89.7078L326.762 90.9124L327.418 91.8762L327.855 92.8399V93.5627L327.418 94.0446L326.762 94.7674L325.45 95.9721L324.575 96.6949L323.701 97.6587L323.045 98.1405H322.389L321.733 97.8996L320.859 97.1768L318.454 93.8037H318.017L316.705 95.0084L315.83 95.7312L314.519 96.6949L313.644 97.1768L312.988 97.4177L312.114 97.6587L311.021 97.8996L309.709 98.1405H308.616H307.523L306.43 97.8996L305.118 97.6587L304.025 97.1768L303.15 96.6949L302.494 96.2131L301.839 95.7312L301.183 94.7674L300.308 93.3218L299.871 91.8762L299.652 90.4306V88.9849V87.7803V86.8165L299.871 85.6118L300.308 84.4071L300.745 83.2025L301.401 81.9978L302.057 81.275L302.932 80.3112L303.806 79.5884L304.681 78.8656L305.774 78.3837L307.086 77.9018L308.179 77.42L309.053 77.179L310.584 76.9381L311.677 76.6972L312.77 76.4562H313.644L314.956 76.2153H316.049H317.142V72.1194L316.924 71.1556L316.705 70.6737L316.268 69.9509L315.612 69.2281L314.737 68.7462L313.644 68.5053H312.988H312.114H311.239L310.584 68.9872L309.928 69.469L309.272 69.9509L308.616 70.9147L308.179 72.1194L307.96 72.8422L307.304 73.324H305.774L304.681 73.0831L302.713 72.8422L301.62 72.6012L300.527 72.1194ZM316.924 86.0937L317.142 81.034L314.737 81.275H313.426L312.114 81.5159L311.458 81.9978L310.584 82.4796L309.709 83.2025L309.053 83.9253L308.616 84.889L308.179 86.0937V87.5393V88.744L308.616 89.9487L309.053 90.9124L310.146 91.6352L311.677 92.1171L312.988 91.985L314.081 91.3943L315.393 90.1896L316.268 88.744L316.924 86.0937Z" fill="#212121"/>
<path d="M286.095 98.3032C286.23 98.2036 286.402 98.1849 286.552 98.2605C288.492 99.237 302.022 105.851 312.551 105.851C321.51 105.851 330.333 102.858 333.671 101.589C334.228 101.378 334.805 101.906 334.632 102.477C334.632 102.477 315.894 109.032 306.211 109.465C305.558 109.494 306.791 109.495 306.211 109.465C298.042 109.036 288.142 100.788 286.057 98.9736C285.847 98.7905 285.87 98.4683 286.095 98.3032Z" fill="#F7A51E"/>
<path d="M334.632 102.477C334.632 102.477 315.894 109.032 306.211 109.465C306.211 109.465 316.049 110.669 320.421 109.465C324.794 108.26 323.263 108.742 326.543 107.537C329.822 106.332 334.632 102.477 334.632 102.477Z" fill="#F7A51E"/>
<path d="M368.211 47.621C368.211 47.621 371.464 41.0394 375.467 38.2971C379.47 35.5548 382.723 34.4577 385.725 34.1836C388.727 33.9095 391.98 34.1835 394.982 35.2805C397.985 36.3776 402.927 40.2922 402.927 40.2922L396.805 47.0463C396.805 47.0463 394.732 45.1528 392.981 44.3302C391.229 43.5076 389.228 43.5074 386.476 43.7817C383.723 44.0561 382.472 44.552 379.72 47.0463C376.968 49.5407 375.467 53.6541 375.467 53.6541L368.211 47.621Z" fill="#E93D33"/>
<path d="M368.291 47.6963L375.562 53.7351C375.562 53.7351 374.967 55.0255 374.967 58.5905C374.967 62.1555 375.217 63.2524 375.217 63.2524L368.211 69.5598C368.211 69.5598 366.71 66.5432 366.21 64.3494C365.709 62.1555 365.709 59.4132 365.709 58.5905C365.709 57.7678 365.459 55.0255 366.21 52.5574C366.96 50.0893 368.291 47.6963 368.291 47.6963Z" fill="#FBBC06"/>
<path d="M375.283 63.3433C375.283 63.3433 376.468 66.8174 378.47 69.0113C380.471 71.2051 382.223 72.5763 384.224 73.1248C386.226 73.6732 388.478 73.6732 390.479 73.399C392.481 73.1248 395.984 71.4793 395.984 71.4793L402.989 77.2382C402.989 77.2382 398.736 81.3517 394.482 82.4486C390.229 83.5456 386.976 83.5456 383.223 82.7229C379.47 81.9002 376.968 80.529 373.716 77.5125C370.463 74.4959 368.241 69.5643 368.241 69.5643L375.283 63.3433Z" fill="#34A953"/>
<path d="M388.227 54.2027L408.993 53.9285C408.993 53.9285 409.494 57.4935 409.494 60.51C409.494 63.5266 409.494 63.8008 408.493 68.1885C407.492 72.5763 402.889 77.3728 402.889 77.3728L395.856 71.543C395.856 71.543 398.235 68.737 399.236 67.0916C400.236 65.4462 400.487 63.5266 400.487 63.5266L388.227 63.5266L388.227 54.2027Z" fill="#4286F4"/>
<rect x="222.66" y="40" width="20.9524" height="19.0909" fill="#F25124"/>
<rect x="245.708" y="40" width="20.9524" height="19.0909" fill="#7EBA02"/>
<rect x="245.708" y="60.9092" width="20.9524" height="19.0909" fill="#FEB903"/>
<rect x="222.66" y="60.9092" width="20.9524" height="19.0909" fill="#02A2EE"/>
<rect width="21.4604" height="45.1387" transform="matrix(0.974196 -0.225704 0.26147 0.965212 375.257 123.087)" fill="white"/>
<rect width="17.9211" height="49.7687" transform="matrix(0.994687 0.102949 -0.120139 0.992757 228.791 115.045)" fill="white"/>
<path d="M390.939 116.333L609.632 61.8476L609.66 67.0001L393.213 123.898L390.939 116.333Z" fill="#4E4B4B"/>
<path d="M14.7705 66.2651L236.499 114.165L234.752 121.327L14.7705 74.0002L14.7705 66.2651Z" fill="#4E4B4B"/>
<path d="M345.549 133.993C347.617 134.194 356.782 133.51 376.898 129.161L377.551 129.765L385.062 160.569L374.286 162.985L371.347 165.099L325.302 209.19L323.343 210.096L318.118 212.512L310.934 213.418L299.504 212.512L296.239 205.566L293.3 206.774H289.381H285.463L282.197 204.66L280.891 200.432L282.197 197.412H277.952H275.992L273.38 195.6L269.788 191.07V187.144H264.89L258.358 180.198V177.178L293.3 150.96H299.504L305.473 147.056L325.827 152.521L329.874 162.985L331.227 165.099C334.657 166.965 333.93 168.74 337.873 170.088C342.442 171.649 347.427 170.088 350.75 170.088L342.858 155.644L339.535 140.81L317.519 123.244L322.037 122.215L345.549 133.993Z" fill="#F1B905"/>
<path d="M269.788 187.144H264.89L258.358 180.198V177.178L293.3 150.96H299.504L305.473 147.056L325.827 152.521L329.874 162.985L331.227 165.099C334.657 166.965 333.93 168.74 337.873 170.088C342.442 171.649 347.427 170.088 350.75 170.088L342.858 155.644L339.535 140.81L317.519 123.244L322.037 122.215L345.549 133.993C347.617 134.194 356.782 133.51 376.898 129.161L377.551 129.765L385.062 160.569L374.286 162.985L371.347 165.099L325.302 209.19L323.343 210.096L318.118 212.512L310.934 213.418L299.504 212.512L296.239 205.566L293.3 206.774H289.381H285.463L282.197 204.66L280.891 200.432L282.197 197.412H277.952H275.992L273.38 195.6L269.788 191.07V187.144ZM269.788 187.144L284.483 178.688" stroke="#F1B905"/>
<path d="M255.747 129.765L244.644 127.047L240.072 159.964L258.686 162.38L263.258 172.346L291.668 151.81H297.873L305.057 147.28L325.956 151.81L328.242 159.964L332.488 166.91L338.366 170.232H350.448C348.162 165.3 343.329 154.71 342.284 151.81C341.239 148.911 339.236 142.348 338.366 139.428L318.119 123.121H302.444C296.022 123.221 282.198 124.147 278.279 127.047C274.361 129.946 274.905 130.067 275.667 129.765L272.401 133.087L264.891 131.577L255.747 129.765Z" fill="#FFC200" stroke="#FFC200"/>
<path d="M14.6602 74L237.189 119.168L226.279 172.35L14.6602 141.5L14.6602 74Z" fill="#212121"/>
<path d="M393.722 122.774L609.637 65.8199L609.159 128.5L407.596 169.628L393.722 122.774Z" fill="#212121"/>
<path d="M327.263 207.982L330.529 211.606H336.08L338.693 210.398V206.774L337.386 201.942L339.999 204.056L342.285 205.264L343.918 206.774H346.53L349.796 205.264L353.388 202.848L354.694 200.13L353.388 196.204L351.428 191.674L353.388 192.58L356.327 194.996L358.613 196.204L362.531 195.6L366.123 192.58L367.43 189.258V185.03L366.123 182.01L370.042 184.124H373.308L375.92 183.218L377.553 179.292V175.668L375.92 171.44L373.308 169.024L370.042 166.004L366.123 164.192H363.184L361.552 166.004L359.592 169.024L358.613 173.856L355.674 172.648H352.408L348.816 173.856L346.53 175.668L345.55 177.48V180.198L346.53 185.03L342.285 182.01H338.693L334.774 183.218C333.685 183.722 331.508 185.332 331.508 187.748V192.58L333.141 197.412L329.549 196.204H327.263C326.284 196.707 324.324 198.197 324.324 200.13V204.056L327.263 207.982Z" fill="#FFC200" stroke="#FFC200"/>
</svg>
