<svg width="229" height="232" viewBox="0 0 229 232" fill="none" xmlns="http://www.w3.org/2000/svg">
<rect width="229" height="232" fill="white"/>
<g filter="url(#filter0_d_50_15859)">
<line x1="32.002" y1="211.275" x2="191.878" y2="211.275" stroke="#212121" stroke-opacity="0.02" shape-rendering="crispEdges"/>
</g>
<path d="M31 177L36.5 173.588H69.3454V210.652L65.8444 212.898V210.652H34.3359V178L31 177Z" fill="#134E78"/>
<path d="M116.058 117.541L112.5 111L116.058 107.322H126.527H129.478H151.034V210.652L147.533 212.898V210.652H116.024L116.058 117.541Z" fill="#134E78"/>
<path d="M155.702 79.2432H164.017H168.572H190.712V210.652L187.211 212.898L155.702 210.652V86.4828L152 82.9999L155.702 79.2432Z" fill="#134E78"/>
<path d="M75 141.017H88.0503H110.19V210.652L106.689 212.898V210.652H75.1802L72 145L71.5 144.5L75 141.017Z" fill="#134E78"/>
<path d="M152.201 82.6128H160.403H165.071H187.21V212.898H152.201V89.2942V82.6128Z" fill="#4E7A9A"/>
<path d="M30.835 176.958H44.8721H65.8444V212.898H30.835V188.751V176.958Z" fill="#4E7A9A"/>
<path d="M112.557 120.5V110.691H123.237H125.977H147.533V212.898H112.523L112.557 120.8V120.5Z" fill="#4E7A9A"/>
<path d="M71.6792 144.386H84.5493H106.689V212.899H71.6792V155.618V144.386Z" fill="#4E7A9A"/>
<path d="M19.9863 163.194L89.8308 94.0032L127.849 116.5L182.342 67.8989L173.912 58.3898L213.438 51.1957L203.67 86.713L197.084 80.9643L127.849 144.927L89.8308 123L34.4289 177.773L19.9863 163.194Z" fill="#F1B905"/>
<rect width="33.0317" height="11.3293" transform="matrix(0.999994 -0.00349546 0.00383285 0.999993 170.925 201.42)" fill="#279662"/>
<rect width="33.0317" height="1.9993" transform="matrix(0.999994 -0.00349546 0.00383285 0.999993 170.925 201.42)" fill="#266447"/>
<rect width="13.4191" height="11.3293" transform="matrix(0.999994 -0.00349546 0.00383285 0.999993 177.462 201.398)" fill="#FFC40D"/>
<rect width="13.4191" height="1.66608" transform="matrix(0.999994 -0.00349546 0.00383285 0.999993 177.493 209.395)" fill="#FFCB28"/>
<rect width="11.3175" height="2.06448" transform="matrix(0.0100377 0.99995 -0.999957 0.00927216 180.559 201.387)" fill="white"/>
<rect width="11.3175" height="2.06448" transform="matrix(0.0100377 0.99995 -0.999957 0.00927216 189.849 201.354)" fill="white"/>
<rect width="33.0317" height="11.3293" transform="matrix(0.999994 -0.00349546 0.00383285 0.999993 164 190.115)" fill="#279662"/>
<rect width="33.0317" height="1.9993" transform="matrix(0.999994 -0.00349546 0.00383285 0.999993 164 190.115)" fill="#266447"/>
<rect width="13.4191" height="11.3293" transform="matrix(0.999994 -0.00349546 0.00383285 0.999993 170.538 190.093)" fill="#FFC40D"/>
<rect width="13.4191" height="1.66608" transform="matrix(0.999994 -0.00349546 0.00383285 0.999993 170.568 198.09)" fill="#FFCB28"/>
<rect width="11.3175" height="2.06448" transform="matrix(0.0100377 0.99995 -0.999957 0.00927216 173.634 190.082)" fill="white"/>
<rect width="11.3175" height="2.06448" transform="matrix(0.0100377 0.99995 -0.999957 0.00927216 182.924 190.049)" fill="white"/>
<path d="M172 190H200.998V189.712H172V190Z" fill="#F07913"/>
<path d="M172 189.712H200.998L201 189.453L187.492 189.435L186.712 189.434L185.644 189.433L174.684 189.418H172V189.712Z" fill="#FFAC36"/>
<path d="M174.684 184.298V189.418L185.644 189.433V184.312L174.684 184.298Z" fill="#FFC40D"/>
<path d="M186.712 184.314V189.434L187.492 189.435V184.315L186.712 184.314Z" fill="#FFC40D"/>
<path d="M172.001 184.298L172 189.418H174.684V184.298H172.001Z" fill="#FFC40D"/>
<path d="M185.644 184.312V189.433L186.712 189.434V184.314L185.644 184.312Z" fill="#FFCF5C"/>
<path d="M201 189.453V184.333L187.492 184.315V189.435L201 189.453Z" fill="#FFCF5C"/>
<path d="M201 184H172.001V184.298H174.684L185.644 184.312L186.712 184.314L187.492 184.315L201 184.333V184Z" fill="#FFE29B"/>
<path d="M199.441 184.331V189.451L201 189.453V184.333L199.441 184.331Z" fill="#FFC40D"/>
<path d="M170 184H199.998V183.712H170V184Z" fill="#F07913"/>
<path d="M170 183.712H199.998L200 183.453L186.026 183.435L185.22 183.434L184.115 183.433L172.777 183.418H170V183.712Z" fill="#FFAC36"/>
<path d="M172.777 178.298V183.418L184.115 183.433V178.312L172.777 178.298Z" fill="#FFC40D"/>
<path d="M185.22 178.314V183.434L186.026 183.435V178.315L185.22 178.314Z" fill="#FFC40D"/>
<path d="M170.001 178.298L170 183.418H172.777V178.298H170.001Z" fill="#FFC40D"/>
<path d="M184.115 178.312V183.433L185.22 183.434V178.314L184.115 178.312Z" fill="#FFCF5C"/>
<path d="M200 183.453V178.333L186.026 178.315V183.435L200 183.453Z" fill="#FFCF5C"/>
<path d="M200 178H170.001V178.298H172.777L184.115 178.312L185.22 178.314L186.026 178.315L200 178.333V178Z" fill="#FFE29B"/>
<path d="M198.388 178.331V183.451L200 183.453V178.333L198.388 178.331Z" fill="#FFC40D"/>
<path d="M172 178H201.998V177.712H172V178Z" fill="#F07913"/>
<path d="M172 177.712H201.998L202 177.453L188.026 177.435L187.22 177.434L186.115 177.433L174.777 177.418H172V177.712Z" fill="#FFAC36"/>
<path d="M174.777 172.298V177.418L186.115 177.433V172.312L174.777 172.298Z" fill="#FFC40D"/>
<path d="M187.22 172.314V177.434L188.026 177.435V172.315L187.22 172.314Z" fill="#FFC40D"/>
<path d="M172.001 172.298L172 177.418H174.777V172.298H172.001Z" fill="#FFC40D"/>
<path d="M186.115 172.312V177.433L187.22 177.434V172.314L186.115 172.312Z" fill="#FFCF5C"/>
<path d="M202 177.453V172.333L188.026 172.315V177.435L202 177.453Z" fill="#FFCF5C"/>
<path d="M202 172H172.001V172.298H174.777L186.115 172.312L187.22 172.314L188.026 172.315L202 172.333V172Z" fill="#FFE29B"/>
<path d="M200.388 172.331V177.451L202 177.453V172.333L200.388 172.331Z" fill="#FFC40D"/>
<path d="M170 172H199.998V171.712H170V172Z" fill="#F07913"/>
<path d="M170 171.712H199.998L200 171.453L186.026 171.435L185.306 171.434L184.2 171.433L172.777 171.418H170V171.712Z" fill="#FFAC36"/>
<path d="M172.777 166.298V171.418L184.2 171.433V166.313L172.777 166.298Z" fill="#FFC40D"/>
<path d="M185.306 166.314V171.434L186.026 171.435V166.315L185.306 166.314Z" fill="#FFC40D"/>
<path d="M170.001 166.298L170 171.418H172.777V166.298H170.001Z" fill="#FFC40D"/>
<path d="M184.2 166.313V171.433L185.306 171.434V166.314L184.2 166.313Z" fill="#FFCF5C"/>
<path d="M200 171.453V166.333L186.026 166.315V171.435L200 171.453Z" fill="#FFCF5C"/>
<path d="M200 166H170.001V166.298H172.777L184.2 166.313L185.306 166.314L186.026 166.315L200 166.333V166Z" fill="#FFE29B"/>
<path d="M198.388 166.331V171.451L200 171.453V166.333L198.388 166.331Z" fill="#FFC40D"/>
<defs>
<filter id="filter0_d_50_15859" x="23.502" y="205.275" width="174.876" height="16" filterUnits="userSpaceOnUse" color-interpolation-filters="sRGB">
<feFlood flood-opacity="0" result="BackgroundImageFix"/>
<feColorMatrix in="SourceAlpha" type="matrix" values="0 0 0 0 0 0 0 0 0 0 0 0 0 0 0 0 0 0 127 0" result="hardAlpha"/>
<feOffset dx="-1" dy="2"/>
<feGaussianBlur stdDeviation="3.75"/>
<feComposite in2="hardAlpha" operator="out"/>
<feColorMatrix type="matrix" values="0 0 0 0 0 0 0 0 0 0 0 0 0 0 0 0 0 0 1 0"/>
<feBlend mode="normal" in2="BackgroundImageFix" result="effect1_dropShadow_50_15859"/>
<feBlend mode="normal" in="SourceGraphic" in2="effect1_dropShadow_50_15859" result="shape"/>
</filter>
</defs>
</svg>
