<svg width="249" height="107" viewBox="0 0 249 107" fill="none" xmlns="http://www.w3.org/2000/svg">
<path d="M8.04663 43.5588L10.8937 45.1538L17.7023 46.7692L25.4187 46.7692L31.3195 45.1538L37.6742 41.9231L44.4829 37.0769L56.1608 27.405" stroke="black"/>
<path d="M55.1556 27.4529L59.462 28.4616L62.8663 28.4616L66.2706 28.4616L69.9018 26.8462L73.0792 24.6923L77.6183 20.9231L81.7035 16.6154L85.7886 12.3077L94.4129 1.00004" stroke="black"/>
<path d="M3.53097 55.398L8.17028 59.6924L15.4328 60.7693L22.2414 60.7693L29.05 59.6924L34.9508 57.5385L40.8516 53.2308L44.9368 49.4616L50.3837 42.4616" stroke="black"/>
<path d="M8.08618 66.1631L10.4399 67.7692L16.7946 70.4615L24.0571 70.9999L31.7735 70.4615L37.6743 68.8461L44.9369 64.5384L50.3838 60.7692L56.2004 55.3939" stroke="black"/>
<path d="M55.8425 54.8241L58.6913 58.1667L62.1318 59.9584L67.606 61.8707L75.7015 62.8803L81.8819 62.1888L87.5934 60.9403L93.932 58.1416L98.7391 54.7579" stroke="black"/>
<path d="M77.6182 28.4614L79.4338 29.5384L87.1502 31.6922L92.5971 31.6922L95.3206 31.1538C96.3627 30.5338 97.6121 29.5662 97.989 29.1801" stroke="black"/>
<path d="M83.7647 42.4791L86.7795 43.7228L94.1606 44.8872L99.9823 44.7817L102.824 43.8687L106.518 41.9433" stroke="black"/>
<path d="M97.4702 29.7148L106.532 17.063" stroke="#002642"/>
<path d="M106.281 17.2133H131.699" stroke="#002642"/>
<ellipse cx="131.179" cy="16.6154" rx="2.26954" ry="2.69231" fill="#002642"/>
<path d="M98.402 54.5097L107.282 66.9188" stroke="#002642"/>
<path d="M107.034 66.7736H132.453" stroke="#002642"/>
<ellipse cx="2.26954" cy="2.69231" rx="2.26954" ry="2.69231" transform="matrix(1 0 0 -1 129.664 70.0638)" fill="#002642"/>
<ellipse cx="131.179" cy="41.3846" rx="2.26954" ry="2.69231" fill="#002642"/>
<path d="M0.164014 100.712L8.83951 98.0165L19.2794 96.4011L29.7193 95.3276L35.1661 95.3276L40.1079 95.3276" stroke="black"/>
<path d="M8.62429 106L15.4329 103.846L23.6032 101.692L32.6814 99.5384L45.8447 96.3077L55.8307 95.2308L68.5401 95.2308L78.98 96.3077L85.7886 98.4616L90.7612 100.616" stroke="black"/>
<path d="M67 1.03439L64.9098 16.6793" stroke="black" stroke-width="1.3"/>
<line y1="-0.65" x2="16.1897" y2="-0.65" transform="matrix(0.112136 0.993693 -0.987624 0.15684 67.1785 1.06458)" stroke="black" stroke-width="1.3"/>
<path d="M64.4548 17.155L70.3556 17.2178" stroke="black"/>
<line y1="-0.5" x2="10.8755" y2="-0.5" transform="matrix(-0.918211 0.396093 -0.293075 -0.956089 65.3625 16.1415)" stroke="black"/>
<path d="M68.994 16.6154L77.9171 20.8906" stroke="black"/>
<line x1="55.8767" y1="20.4492" x2="55.8767" y2="27.9876" stroke="black"/>
<line x1="77.6643" y1="20.3846" x2="77.6643" y2="29" stroke="black"/>
<line x1="56.2844" y1="21.0261" x2="78.072" y2="21.0261" stroke="black"/>
<path d="M64.4548 45.0904L70.3556 45.1533" stroke="black"/>
<line y1="-0.5" x2="10.8755" y2="-0.5" transform="matrix(-0.918211 0.396093 -0.293075 -0.956089 65.3625 44.0769)" stroke="black"/>
<path d="M68.994 44.5508L77.9171 48.826" stroke="black"/>
<line x1="55.8767" y1="48.3846" x2="55.8767" y2="55.9231" stroke="black"/>
<line x1="77.6643" y1="48.32" x2="77.6643" y2="56.9354" stroke="black"/>
<line x1="56.2844" y1="48.9615" x2="78.072" y2="48.9615" stroke="black"/>
<path d="M65.3627 31.1709L69.5559 31.2133" stroke="black"/>
<path d="M65.5178 31.1057L50.3837 35.4615" stroke="black"/>
<path d="M69.1821 31.0586L83.973 34.9231" stroke="black"/>
<line x1="50.4299" y1="34.9074" x2="50.4299" y2="42.4458" stroke="black"/>
<path d="M83.9729 34.3846V42.4458" stroke="black"/>
<line x1="50.8379" y1="36.0385" x2="84.4271" y2="36.0385" stroke="black"/>
<line y1="-0.5" x2="62.5199" y2="-0.5" transform="matrix(-0.0435606 0.999051 -0.998123 -0.0612441 65.3628 20.4492)" stroke="black"/>
<line y1="-0.5" x2="62.5653" y2="-0.5" transform="matrix(0.058038 0.998314 -0.99667 0.08154 68.0862 21.4615)" stroke="black"/>
<line y1="-0.5" x2="9.07837" y2="-0.5" transform="matrix(0.999975 -0.00711721 0.00505756 0.999987 62.6392 83.9877)" stroke="black"/>
<path d="M72.1714 83.3846L74.8948 95.2307" stroke="black"/>
<line y1="-0.5" x2="11.1083" y2="-0.5" transform="matrix(-0.245173 0.969479 -0.942117 -0.335284 62.6392 83.9877)" stroke="black"/>
<path d="M62.9325 83.5766L74.4409 94.6923" stroke="black"/>
<line y1="-0.5" x2="15.433" y2="-0.5" transform="matrix(0.99999 -0.00444832 0.003161 0.999995 59.9158 95.8338)" stroke="black"/>
<line y1="-0.5" x2="15.2715" y2="-0.5" transform="matrix(0.772786 -0.634667 0.50404 0.86368 60.8237 94.7569)" stroke="black"/>
<line x1="53.561" y1="27.4231" x2="58.1001" y2="27.4231" stroke="black"/>
<line x1="75.3486" y1="28.5" x2="79.8877" y2="28.5" stroke="black"/>
<line x1="48.1143" y1="42.5" x2="52.6533" y2="42.5" stroke="black"/>
<line x1="81.7034" y1="42.5" x2="86.2424" y2="42.5" stroke="black"/>
<line x1="53.561" y1="55.4231" x2="58.1001" y2="55.4231" stroke="black"/>
<line x1="75.3486" y1="56.5" x2="79.8877" y2="56.5" stroke="black"/>
<line y1="-0.5" x2="8.98379" y2="-0.5" transform="matrix(0.422638 -0.906299 0.836047 0.548659 65.197 44.6804)" stroke="black"/>
<line y1="-0.5" x2="13.0384" y2="-0.5" transform="matrix(0.417758 -0.908559 0.839569 0.543253 64.4548 61.3077)" stroke="black"/>
<line y1="-0.5" x2="16.7349" y2="-0.5" transform="matrix(0.433974 -0.900925 0.827744 0.561106 63.5471 78.5385)" stroke="black"/>
<path d="M16.6543 24.7184L14.952 37.1191" stroke="black" stroke-width="1.3"/>
<line y1="-0.65" x2="12.3338" y2="-0.65" transform="matrix(0.115651 0.99329 -0.988361 0.152126 16.7947 24.7415)" stroke="black" stroke-width="1.3"/>
<path d="M14.655 36.9947L19.2913 37.0426" stroke="black"/>
<line y1="-0.5" x2="8.50428" y2="-0.5" transform="matrix(-0.922608 0.385738 -0.301549 -0.953451 15.3682 36.2229)" stroke="black"/>
<path d="M18.2213 36.5838L25.2322 39.8395" stroke="black"/>
<line x1="8.02197" y1="39.5034" x2="8.02197" y2="45.2442" stroke="black"/>
<line x1="25.1409" y1="39.4542" x2="25.1409" y2="46.015" stroke="black"/>
<line x1="8.23535" y1="39.8235" x2="25.3542" y2="39.8235" stroke="black"/>
<path d="M14.655 58.2682L19.2913 58.3161" stroke="black"/>
<line y1="-0.5" x2="8.50428" y2="-0.5" transform="matrix(-0.922608 0.385738 -0.301549 -0.953451 15.3682 57.4965)" stroke="black"/>
<path d="M19.0641 58.077L25.4188 61.3077" stroke="black"/>
<line x1="8.02197" y1="60.7769" x2="8.02197" y2="66.5177" stroke="black"/>
<path d="M25.0947 60.7692V67.2886" stroke="black"/>
<path d="M8.23535 61.0586L25.419 61.3077" stroke="black"/>
<path d="M15.368 47.6683L18.6627 47.7006" stroke="black"/>
<path d="M15.4897 47.6186L3.59869 50.9357" stroke="black"/>
<path d="M18.3689 47.5827L29.9903 50.5256" stroke="black"/>
<line x1="3.74219" y1="50.5137" x2="3.74219" y2="56.2544" stroke="black"/>
<path d="M29.9902 50.1156V56.2544" stroke="black"/>
<line x1="3.95557" y1="51.2558" x2="30.3471" y2="51.2558" stroke="black"/>
<path d="M15.8213 39.5303L13.6173 88.2299" stroke="black"/>
<line y1="-0.5" x2="47.6502" y2="-0.5" transform="matrix(0.0598749 0.998206 -0.996871 0.0790457 17.5078 40.2743)" stroke="black"/>
<path d="M13.6172 87.2034L20.8121 87.2038" stroke="black"/>
<path d="M20.8796 87.6923L22.6754 95.9205" stroke="black"/>
<path d="M13.6173 87.1538L11.5242 96.241" stroke="black"/>
<path d="M13.6173 87.6923L22.5009 96.0414" stroke="black"/>
<path d="M11.0865 96.3731L23.1492 96.3077" stroke="black"/>
<path d="M11.8016 95.7692L20.8798 87.6923" stroke="black"/>
<line x1="6.09521" y1="44.6949" x2="9.66163" y2="44.6949" stroke="black"/>
<line x1="23.2141" y1="45.515" x2="26.7805" y2="45.515" stroke="black"/>
<line x1="1.81567" y1="56.1764" x2="5.38209" y2="56.1764" stroke="black"/>
<line x1="28.207" y1="56.1764" x2="31.7734" y2="56.1764" stroke="black"/>
<line x1="6.09521" y1="66.0177" x2="9.66163" y2="66.0177" stroke="black"/>
<line x1="23.2141" y1="66.8378" x2="26.7805" y2="66.8378" stroke="black"/>
<path d="M14.979 58.0769L17.8211 51.5013" stroke="black"/>
<path d="M14.5249 69.9231L18.5331 61.3454" stroke="black"/>
<path d="M13.9209 83.7397L19.972 72.0769" stroke="black"/>
<path d="M106.281 41.9191L131.155 41.9191" stroke="#002642"/>
<path d="M139.932 16.2446L139.08 14.0166C139.019 13.8646 138.958 13.6726 138.896 13.4406C138.867 13.5553 138.836 13.6619 138.804 13.7606C138.775 13.8593 138.746 13.9473 138.716 14.0246L137.868 16.2446H139.932ZM141.616 18.3846H140.96C140.886 18.3846 140.824 18.3659 140.776 18.3286C140.728 18.2913 140.694 18.2433 140.672 18.1846L140.164 16.8526H137.632L137.124 18.1846C137.106 18.2353 137.071 18.2819 137.02 18.3246C136.97 18.3646 136.908 18.3846 136.836 18.3846H136.18L138.468 12.6406H139.328L141.616 18.3846ZM145.381 14.3206L143.733 18.3846H143.029L141.381 14.3206H142.025C142.087 14.3206 142.137 14.3353 142.177 14.3646C142.217 14.3939 142.244 14.4313 142.257 14.4766L143.229 16.9726C143.264 17.0766 143.293 17.1806 143.317 17.2846C143.344 17.3859 143.368 17.4873 143.389 17.5886C143.411 17.4873 143.435 17.3859 143.461 17.2846C143.488 17.1833 143.52 17.0793 143.557 16.9726L144.541 14.4766C144.557 14.4313 144.585 14.3939 144.625 14.3646C144.665 14.3353 144.713 14.3206 144.769 14.3206H145.381ZM148.576 15.9006C148.576 15.7459 148.554 15.6033 148.508 15.4726C148.466 15.3419 148.402 15.2286 148.316 15.1326C148.231 15.0366 148.127 14.9619 148.004 14.9086C147.882 14.8553 147.74 14.8286 147.58 14.8286C147.252 14.8286 146.994 14.9233 146.804 15.1126C146.618 15.3019 146.499 15.5646 146.448 15.9006H148.576ZM149.22 17.8046C149.124 17.9166 149.014 18.0139 148.888 18.0966C148.763 18.1766 148.63 18.2419 148.488 18.2926C148.347 18.3433 148.2 18.3806 148.048 18.4046C147.899 18.4286 147.751 18.4406 147.604 18.4406C147.324 18.4406 147.064 18.3939 146.824 18.3006C146.587 18.2046 146.38 18.0659 146.204 17.8846C146.031 17.7006 145.895 17.4739 145.796 17.2046C145.7 16.9326 145.652 16.6206 145.652 16.2686C145.652 15.9859 145.696 15.7233 145.784 15.4806C145.872 15.2353 145.998 15.0219 146.16 14.8406C146.326 14.6593 146.527 14.5166 146.764 14.4126C147.002 14.3086 147.268 14.2566 147.564 14.2566C147.812 14.2566 148.04 14.2979 148.248 14.3806C148.459 14.4606 148.64 14.5779 148.792 14.7326C148.944 14.8873 149.063 15.0779 149.148 15.3046C149.236 15.5313 149.28 15.7899 149.28 16.0806C149.28 16.2006 149.267 16.2819 149.24 16.3246C149.214 16.3646 149.164 16.3846 149.092 16.3846H146.428C146.436 16.6273 146.471 16.8393 146.532 17.0206C146.594 17.1993 146.678 17.3486 146.784 17.4686C146.894 17.5886 147.023 17.6779 147.172 17.7366C147.322 17.7953 147.488 17.8246 147.672 17.8246C147.846 17.8246 147.995 17.8046 148.12 17.7646C148.248 17.7246 148.358 17.6819 148.448 17.6366C148.542 17.5886 148.619 17.5446 148.68 17.5046C148.744 17.4646 148.8 17.4446 148.848 17.4446C148.912 17.4446 148.962 17.4686 148.996 17.5166L149.22 17.8046ZM150.855 15.1006C150.985 14.8339 151.143 14.6246 151.327 14.4726C151.511 14.3206 151.732 14.2446 151.991 14.2446C152.079 14.2446 152.161 14.2553 152.239 14.2766C152.319 14.2953 152.388 14.3246 152.447 14.3646L152.395 14.9526C152.376 15.0246 152.332 15.0606 152.263 15.0606C152.225 15.0606 152.169 15.0539 152.095 15.0406C152.02 15.0246 151.94 15.0166 151.855 15.0166C151.729 15.0166 151.619 15.0353 151.523 15.0726C151.427 15.1073 151.34 15.1606 151.263 15.2326C151.188 15.3019 151.121 15.3886 151.063 15.4926C151.004 15.5939 150.949 15.7099 150.899 15.8406V18.3846H150.119V14.3206H150.567C150.652 14.3206 150.709 14.3366 150.739 14.3686C150.771 14.3979 150.793 14.4513 150.807 14.5286L150.855 15.1006ZM155.17 16.5806C154.853 16.5913 154.583 16.6166 154.362 16.6566C154.141 16.6939 153.961 16.7446 153.822 16.8086C153.683 16.8726 153.583 16.9486 153.522 17.0366C153.461 17.1219 153.43 17.2179 153.43 17.3246C153.43 17.4259 153.446 17.5139 153.478 17.5886C153.513 17.6606 153.558 17.7206 153.614 17.7686C153.673 17.8139 153.741 17.8473 153.818 17.8686C153.895 17.8899 153.979 17.9006 154.07 17.9006C154.19 17.9006 154.299 17.8886 154.398 17.8646C154.499 17.8406 154.594 17.8073 154.682 17.7646C154.77 17.7193 154.854 17.6646 154.934 17.6006C155.014 17.5366 155.093 17.4633 155.17 17.3806V16.5806ZM152.882 14.8886C153.109 14.6726 153.354 14.5113 153.618 14.4046C153.885 14.2979 154.177 14.2446 154.494 14.2446C154.726 14.2446 154.931 14.2833 155.11 14.3606C155.289 14.4353 155.439 14.5406 155.562 14.6766C155.685 14.8126 155.777 14.9753 155.838 15.1646C155.902 15.3539 155.934 15.5633 155.934 15.7926V18.3846H155.586C155.509 18.3846 155.45 18.3726 155.41 18.3486C155.37 18.3219 155.338 18.2739 155.314 18.2046L155.23 17.8486C155.126 17.9446 155.023 18.0299 154.922 18.1046C154.821 18.1766 154.714 18.2393 154.602 18.2926C154.493 18.3433 154.375 18.3819 154.25 18.4086C154.125 18.4353 153.986 18.4486 153.834 18.4486C153.674 18.4486 153.523 18.4273 153.382 18.3846C153.243 18.3393 153.122 18.2713 153.018 18.1806C152.914 18.0899 152.831 17.9766 152.77 17.8406C152.711 17.7046 152.682 17.5459 152.682 17.3646C152.682 17.2046 152.725 17.0513 152.81 16.9046C152.898 16.7553 153.039 16.6219 153.234 16.5046C153.431 16.3873 153.687 16.2913 154.002 16.2166C154.319 16.1419 154.709 16.0993 155.17 16.0886V15.7926C155.17 15.4859 155.105 15.2566 154.974 15.1046C154.843 14.9526 154.651 14.8766 154.398 14.8766C154.227 14.8766 154.083 14.8979 153.966 14.9406C153.851 14.9833 153.751 15.0313 153.666 15.0846C153.583 15.1353 153.51 15.1819 153.446 15.2246C153.385 15.2673 153.321 15.2886 153.254 15.2886C153.201 15.2886 153.154 15.2739 153.114 15.2446C153.077 15.2153 153.046 15.1806 153.022 15.1406L152.882 14.8886ZM158.406 16.3566C158.545 16.3566 158.666 16.3379 158.77 16.3006C158.877 16.2633 158.965 16.2113 159.034 16.1446C159.106 16.0753 159.16 15.9926 159.194 15.8966C159.232 15.8006 159.25 15.6953 159.25 15.5806C159.25 15.3459 159.178 15.1593 159.034 15.0206C158.893 14.8793 158.684 14.8086 158.406 14.8086C158.132 14.8086 157.922 14.8793 157.778 15.0206C157.637 15.1593 157.566 15.3459 157.566 15.5806C157.566 15.6953 157.584 15.8006 157.618 15.8966C157.656 15.9899 157.709 16.0713 157.778 16.1406C157.85 16.2073 157.938 16.2606 158.042 16.3006C158.149 16.3379 158.27 16.3566 158.406 16.3566ZM159.65 18.5966C159.65 18.5006 159.624 18.4246 159.57 18.3686C159.517 18.3099 159.444 18.2646 159.35 18.2326C159.26 18.1979 159.153 18.1739 159.03 18.1606C158.908 18.1446 158.778 18.1326 158.642 18.1246C158.509 18.1166 158.372 18.1099 158.23 18.1046C158.089 18.0966 157.953 18.0833 157.822 18.0646C157.684 18.1339 157.569 18.2179 157.478 18.3166C157.39 18.4153 157.346 18.5313 157.346 18.6646C157.346 18.7499 157.368 18.8299 157.41 18.9046C157.456 18.9793 157.524 19.0433 157.614 19.0966C157.708 19.1526 157.824 19.1953 157.962 19.2246C158.104 19.2566 158.272 19.2726 158.466 19.2726C158.658 19.2726 158.828 19.2553 158.974 19.2206C159.121 19.1886 159.244 19.1419 159.342 19.0806C159.444 19.0219 159.52 18.9513 159.57 18.8686C159.624 18.7859 159.65 18.6953 159.65 18.5966ZM160.442 14.4726V14.7646C160.442 14.8606 160.382 14.9206 160.262 14.9446L159.826 15.0086C159.864 15.0913 159.893 15.1793 159.914 15.2726C159.936 15.3633 159.946 15.4593 159.946 15.5606C159.946 15.7606 159.908 15.9419 159.83 16.1046C159.753 16.2646 159.646 16.4019 159.51 16.5166C159.374 16.6313 159.212 16.7193 159.022 16.7806C158.836 16.8419 158.63 16.8726 158.406 16.8726C158.222 16.8726 158.05 16.8526 157.89 16.8126C157.81 16.8606 157.749 16.9139 157.706 16.9726C157.666 17.0286 157.646 17.0846 157.646 17.1406C157.646 17.2339 157.685 17.3033 157.762 17.3486C157.842 17.3939 157.945 17.4273 158.07 17.4486C158.198 17.4673 158.344 17.4793 158.506 17.4846C158.672 17.4899 158.838 17.4993 159.006 17.5126C159.177 17.5233 159.344 17.5446 159.506 17.5766C159.672 17.6059 159.817 17.6553 159.942 17.7246C160.07 17.7913 160.173 17.8846 160.25 18.0046C160.33 18.1219 160.37 18.2753 160.37 18.4646C160.37 18.6406 160.326 18.8113 160.238 18.9766C160.153 19.1419 160.028 19.2886 159.862 19.4166C159.697 19.5446 159.496 19.6473 159.258 19.7246C159.021 19.8019 158.752 19.8406 158.45 19.8406C158.149 19.8406 157.886 19.8113 157.662 19.7526C157.441 19.6939 157.256 19.6153 157.106 19.5166C156.96 19.4179 156.849 19.3033 156.774 19.1726C156.702 19.0419 156.666 18.9059 156.666 18.7646C156.666 18.5673 156.728 18.4006 156.85 18.2646C156.973 18.1259 157.142 18.0179 157.358 17.9406C157.241 17.8873 157.148 17.8153 157.078 17.7246C157.009 17.6313 156.974 17.5086 156.974 17.3566C156.974 17.2979 156.985 17.2379 157.006 17.1766C157.028 17.1126 157.06 17.0499 157.102 16.9886C157.148 16.9246 157.202 16.8646 157.266 16.8086C157.333 16.7526 157.409 16.7019 157.494 16.6566C157.294 16.5446 157.137 16.3966 157.022 16.2126C156.908 16.0259 156.85 15.8086 156.85 15.5606C156.85 15.3606 156.889 15.1806 156.966 15.0206C157.044 14.8606 157.15 14.7233 157.286 14.6086C157.425 14.4939 157.589 14.4059 157.778 14.3446C157.97 14.2833 158.18 14.2526 158.406 14.2526C158.758 14.2526 159.061 14.3259 159.314 14.4726H160.442ZM163.787 15.9006C163.787 15.7459 163.765 15.6033 163.719 15.4726C163.677 15.3419 163.613 15.2286 163.527 15.1326C163.442 15.0366 163.338 14.9619 163.215 14.9086C163.093 14.8553 162.951 14.8286 162.791 14.8286C162.463 14.8286 162.205 14.9233 162.015 15.1126C161.829 15.3019 161.71 15.5646 161.659 15.9006H163.787ZM164.431 17.8046C164.335 17.9166 164.225 18.0139 164.099 18.0966C163.974 18.1766 163.841 18.2419 163.699 18.2926C163.558 18.3433 163.411 18.3806 163.259 18.4046C163.11 18.4286 162.962 18.4406 162.815 18.4406C162.535 18.4406 162.275 18.3939 162.035 18.3006C161.798 18.2046 161.591 18.0659 161.415 17.8846C161.242 17.7006 161.106 17.4739 161.007 17.2046C160.911 16.9326 160.863 16.6206 160.863 16.2686C160.863 15.9859 160.907 15.7233 160.995 15.4806C161.083 15.2353 161.209 15.0219 161.371 14.8406C161.537 14.6593 161.738 14.5166 161.975 14.4126C162.213 14.3086 162.479 14.2566 162.775 14.2566C163.023 14.2566 163.251 14.2979 163.459 14.3806C163.67 14.4606 163.851 14.5779 164.003 14.7326C164.155 14.8873 164.274 15.0779 164.359 15.3046C164.447 15.5313 164.491 15.7899 164.491 16.0806C164.491 16.2006 164.478 16.2819 164.451 16.3246C164.425 16.3646 164.375 16.3846 164.303 16.3846H161.639C161.647 16.6273 161.682 16.8393 161.743 17.0206C161.805 17.1993 161.889 17.3486 161.995 17.4686C162.105 17.5886 162.234 17.6779 162.383 17.7366C162.533 17.7953 162.699 17.8246 162.883 17.8246C163.057 17.8246 163.206 17.8046 163.331 17.7646C163.459 17.7246 163.569 17.6819 163.659 17.6366C163.753 17.5886 163.83 17.5446 163.891 17.5046C163.955 17.4646 164.011 17.4446 164.059 17.4446C164.123 17.4446 164.173 17.4686 164.207 17.5166L164.431 17.8046ZM168.153 12.4806V18.3846H167.369V12.4806H168.153ZM170.083 14.3206V18.3846H169.303V14.3206H170.083ZM170.231 13.0646C170.231 13.1366 170.217 13.2059 170.187 13.2726C170.158 13.3366 170.118 13.3939 170.067 13.4446C170.019 13.4926 169.962 13.5313 169.895 13.5606C169.829 13.5873 169.759 13.6006 169.687 13.6006C169.615 13.6006 169.547 13.5873 169.483 13.5606C169.419 13.5313 169.362 13.4926 169.311 13.4446C169.263 13.3939 169.225 13.3366 169.195 13.2726C169.169 13.2059 169.155 13.1366 169.155 13.0646C169.155 12.9899 169.169 12.9206 169.195 12.8566C169.225 12.7899 169.263 12.7326 169.311 12.6846C169.362 12.6339 169.419 12.5953 169.483 12.5686C169.547 12.5393 169.615 12.5246 169.687 12.5246C169.759 12.5246 169.829 12.5393 169.895 12.5686C169.962 12.5953 170.019 12.6339 170.067 12.6846C170.118 12.7326 170.158 12.7899 170.187 12.8566C170.217 12.9206 170.231 12.9899 170.231 13.0646ZM171.481 18.3846V14.9606L171.057 14.9086C170.995 14.8953 170.945 14.8739 170.905 14.8446C170.867 14.8126 170.849 14.7673 170.849 14.7086V14.3846H171.481V14.0166C171.481 13.7846 171.514 13.5779 171.581 13.3966C171.647 13.2153 171.742 13.0619 171.865 12.9366C171.99 12.8086 172.139 12.7126 172.313 12.6486C172.489 12.5819 172.686 12.5486 172.905 12.5486C173.089 12.5486 173.258 12.5753 173.413 12.6286L173.397 13.0206C173.394 13.0553 173.383 13.0819 173.365 13.1006C173.346 13.1166 173.321 13.1286 173.289 13.1366C173.259 13.1446 173.222 13.1499 173.177 13.1526C173.134 13.1526 173.087 13.1526 173.037 13.1526C172.917 13.1526 172.807 13.1673 172.709 13.1966C172.61 13.2259 172.526 13.2753 172.457 13.3446C172.387 13.4139 172.334 13.5059 172.297 13.6206C172.259 13.7326 172.241 13.8726 172.241 14.0406V14.3846H173.381V14.9526H172.265V18.3846H171.481ZM176.6 15.9006C176.6 15.7459 176.577 15.6033 176.532 15.4726C176.489 15.3419 176.425 15.2286 176.34 15.1326C176.255 15.0366 176.151 14.9619 176.028 14.9086C175.905 14.8553 175.764 14.8286 175.604 14.8286C175.276 14.8286 175.017 14.9233 174.828 15.1126C174.641 15.3019 174.523 15.5646 174.472 15.9006H176.6ZM177.244 17.8046C177.148 17.9166 177.037 18.0139 176.912 18.0966C176.787 18.1766 176.653 18.2419 176.512 18.2926C176.371 18.3433 176.224 18.3806 176.072 18.4046C175.923 18.4286 175.775 18.4406 175.628 18.4406C175.348 18.4406 175.088 18.3939 174.848 18.3006C174.611 18.2046 174.404 18.0659 174.228 17.8846C174.055 17.7006 173.919 17.4739 173.82 17.2046C173.724 16.9326 173.676 16.6206 173.676 16.2686C173.676 15.9859 173.72 15.7233 173.808 15.4806C173.896 15.2353 174.021 15.0219 174.184 14.8406C174.349 14.6593 174.551 14.5166 174.788 14.4126C175.025 14.3086 175.292 14.2566 175.588 14.2566C175.836 14.2566 176.064 14.2979 176.272 14.3806C176.483 14.4606 176.664 14.5779 176.816 14.7326C176.968 14.8873 177.087 15.0779 177.172 15.3046C177.26 15.5313 177.304 15.7899 177.304 16.0806C177.304 16.2006 177.291 16.2819 177.264 16.3246C177.237 16.3646 177.188 16.3846 177.116 16.3846H174.452C174.46 16.6273 174.495 16.8393 174.556 17.0206C174.617 17.1993 174.701 17.3486 174.808 17.4686C174.917 17.5886 175.047 17.6779 175.196 17.7366C175.345 17.7953 175.512 17.8246 175.696 17.8246C175.869 17.8246 176.019 17.8046 176.144 17.7646C176.272 17.7246 176.381 17.6819 176.472 17.6366C176.565 17.5886 176.643 17.5446 176.704 17.5046C176.768 17.4646 176.824 17.4446 176.872 17.4446C176.936 17.4446 176.985 17.4686 177.02 17.5166L177.244 17.8046ZM180.538 15.0206C180.517 15.0553 180.494 15.0806 180.47 15.0966C180.446 15.1099 180.416 15.1166 180.378 15.1166C180.336 15.1166 180.288 15.1019 180.234 15.0726C180.184 15.0433 180.121 15.0113 180.046 14.9766C179.974 14.9419 179.889 14.9099 179.79 14.8806C179.692 14.8513 179.574 14.8366 179.438 14.8366C179.326 14.8366 179.224 14.8513 179.13 14.8806C179.04 14.9073 178.962 14.9459 178.898 14.9966C178.834 15.0446 178.785 15.1033 178.75 15.1726C178.716 15.2393 178.698 15.3113 178.698 15.3886C178.698 15.4899 178.728 15.5739 178.786 15.6406C178.848 15.7073 178.926 15.7646 179.022 15.8126C179.121 15.8606 179.232 15.9046 179.354 15.9446C179.48 15.9819 179.606 16.0219 179.734 16.0646C179.865 16.1073 179.992 16.1566 180.114 16.2126C180.24 16.2659 180.35 16.3339 180.446 16.4166C180.545 16.4966 180.624 16.5939 180.682 16.7086C180.744 16.8233 180.774 16.9633 180.774 17.1286C180.774 17.3179 180.74 17.4939 180.67 17.6566C180.604 17.8166 180.504 17.9553 180.37 18.0726C180.24 18.1899 180.077 18.2819 179.882 18.3486C179.688 18.4153 179.465 18.4486 179.214 18.4486C178.934 18.4486 178.676 18.4019 178.438 18.3086C178.201 18.2153 178.002 18.0966 177.842 17.9526L178.026 17.6526C178.048 17.6153 178.074 17.5873 178.106 17.5686C178.138 17.5473 178.181 17.5366 178.234 17.5366C178.285 17.5366 178.337 17.5553 178.39 17.5926C178.444 17.6299 178.508 17.6713 178.582 17.7166C178.657 17.7593 178.748 17.7993 178.854 17.8366C178.961 17.8713 179.094 17.8886 179.254 17.8886C179.388 17.8886 179.504 17.8726 179.602 17.8406C179.701 17.8059 179.782 17.7606 179.846 17.7046C179.913 17.6459 179.962 17.5793 179.994 17.5046C180.026 17.4299 180.042 17.3513 180.042 17.2686C180.042 17.1619 180.012 17.0739 179.95 17.0046C179.892 16.9326 179.813 16.8713 179.714 16.8206C179.618 16.7699 179.508 16.7259 179.382 16.6886C179.257 16.6513 179.129 16.6113 178.998 16.5686C178.868 16.5259 178.74 16.4766 178.614 16.4206C178.489 16.3646 178.377 16.2939 178.278 16.2086C178.182 16.1233 178.104 16.0193 178.042 15.8966C177.984 15.7739 177.954 15.6246 177.954 15.4486C177.954 15.2913 177.986 15.1406 178.05 14.9966C178.117 14.8526 178.212 14.7259 178.334 14.6166C178.46 14.5073 178.613 14.4206 178.794 14.3566C178.978 14.2899 179.188 14.2566 179.422 14.2566C179.692 14.2566 179.934 14.2993 180.15 14.3846C180.369 14.4699 180.556 14.5873 180.71 14.7366L180.538 15.0206ZM182.399 17.3846C182.527 17.5526 182.664 17.6699 182.811 17.7366C182.96 17.8033 183.127 17.8366 183.311 17.8366C183.668 17.8366 183.944 17.7086 184.139 17.4526C184.336 17.1939 184.435 16.8179 184.435 16.3246C184.435 16.0659 184.412 15.8459 184.367 15.6646C184.324 15.4806 184.26 15.3313 184.175 15.2166C184.092 15.0993 183.989 15.0139 183.867 14.9606C183.744 14.9046 183.605 14.8766 183.451 14.8766C183.224 14.8766 183.027 14.9273 182.859 15.0286C182.693 15.1299 182.54 15.2739 182.399 15.4606V17.3846ZM182.359 14.9286C182.444 14.8273 182.535 14.7353 182.631 14.6526C182.729 14.5673 182.835 14.4953 182.947 14.4366C183.059 14.3753 183.177 14.3286 183.303 14.2966C183.431 14.2619 183.567 14.2446 183.711 14.2446C183.943 14.2446 184.152 14.2899 184.339 14.3806C184.528 14.4713 184.689 14.6046 184.823 14.7806C184.956 14.9566 185.059 15.1739 185.131 15.4326C185.205 15.6913 185.243 15.9886 185.243 16.3246C185.243 16.6259 185.201 16.9059 185.119 17.1646C185.039 17.4206 184.923 17.6433 184.771 17.8326C184.621 18.0219 184.437 18.1713 184.219 18.2806C184.003 18.3873 183.759 18.4406 183.487 18.4406C183.244 18.4406 183.036 18.4006 182.863 18.3206C182.689 18.2406 182.535 18.1286 182.399 17.9846V19.7486H181.619V14.3206H182.087C182.196 14.3206 182.264 14.3726 182.291 14.4766L182.359 14.9286ZM188.303 16.5806C187.985 16.5913 187.716 16.6166 187.495 16.6566C187.273 16.6939 187.093 16.7446 186.955 16.8086C186.816 16.8726 186.716 16.9486 186.655 17.0366C186.593 17.1219 186.563 17.2179 186.563 17.3246C186.563 17.4259 186.579 17.5139 186.611 17.5886C186.645 17.6606 186.691 17.7206 186.747 17.7686C186.805 17.8139 186.873 17.8473 186.951 17.8686C187.028 17.8899 187.112 17.9006 187.203 17.9006C187.323 17.9006 187.432 17.8886 187.531 17.8646C187.632 17.8406 187.727 17.8073 187.815 17.7646C187.903 17.7193 187.987 17.6646 188.067 17.6006C188.147 17.5366 188.225 17.4633 188.303 17.3806V16.5806ZM186.015 14.8886C186.241 14.6726 186.487 14.5113 186.751 14.4046C187.017 14.2979 187.309 14.2446 187.627 14.2446C187.859 14.2446 188.064 14.2833 188.243 14.3606C188.421 14.4353 188.572 14.5406 188.695 14.6766C188.817 14.8126 188.909 14.9753 188.971 15.1646C189.035 15.3539 189.067 15.5633 189.067 15.7926V18.3846H188.719C188.641 18.3846 188.583 18.3726 188.543 18.3486C188.503 18.3219 188.471 18.2739 188.447 18.2046L188.363 17.8486C188.259 17.9446 188.156 18.0299 188.055 18.1046C187.953 18.1766 187.847 18.2393 187.735 18.2926C187.625 18.3433 187.508 18.3819 187.383 18.4086C187.257 18.4353 187.119 18.4486 186.967 18.4486C186.807 18.4486 186.656 18.4273 186.515 18.3846C186.376 18.3393 186.255 18.2713 186.151 18.1806C186.047 18.0899 185.964 17.9766 185.903 17.8406C185.844 17.7046 185.815 17.5459 185.815 17.3646C185.815 17.2046 185.857 17.0513 185.943 16.9046C186.031 16.7553 186.172 16.6219 186.367 16.5046C186.564 16.3873 186.82 16.2913 187.135 16.2166C187.452 16.1419 187.841 16.0993 188.303 16.0886V15.7926C188.303 15.4859 188.237 15.2566 188.107 15.1046C187.976 14.9526 187.784 14.8766 187.531 14.8766C187.36 14.8766 187.216 14.8979 187.099 14.9406C186.984 14.9833 186.884 15.0313 186.799 15.0846C186.716 15.1353 186.643 15.1819 186.579 15.2246C186.517 15.2673 186.453 15.2886 186.387 15.2886C186.333 15.2886 186.287 15.2739 186.247 15.2446C186.209 15.2153 186.179 15.1806 186.155 15.1406L186.015 14.8886ZM190.843 14.8846C190.931 14.7913 191.023 14.7059 191.119 14.6286C191.215 14.5513 191.316 14.4859 191.423 14.4326C191.532 14.3766 191.648 14.3339 191.771 14.3046C191.896 14.2726 192.03 14.2566 192.171 14.2566C192.395 14.2566 192.591 14.2939 192.759 14.3686C192.93 14.4433 193.072 14.5486 193.187 14.6846C193.302 14.8179 193.388 14.9793 193.447 15.1686C193.506 15.3579 193.535 15.5673 193.535 15.7966V18.3846H192.751V15.7966C192.751 15.5059 192.684 15.2806 192.551 15.1206C192.418 14.9579 192.214 14.8766 191.939 14.8766C191.739 14.8766 191.551 14.9246 191.375 15.0206C191.202 15.1139 191.04 15.2419 190.891 15.4046V18.3846H190.111V14.3206H190.579C190.688 14.3206 190.756 14.3726 190.783 14.4766L190.843 14.8846ZM199.099 15.8966C199.267 15.8966 199.398 15.8419 199.491 15.7326C199.584 15.6233 199.632 15.4766 199.635 15.2926H200.267C200.267 15.4793 200.242 15.6499 200.191 15.8046C200.14 15.9566 200.067 16.0886 199.971 16.2006C199.875 16.3099 199.758 16.3953 199.619 16.4566C199.48 16.5153 199.323 16.5446 199.147 16.5446C199.008 16.5446 198.872 16.5246 198.739 16.4846C198.606 16.4419 198.476 16.3953 198.351 16.3446C198.228 16.2939 198.111 16.2486 197.999 16.2086C197.887 16.1659 197.784 16.1446 197.691 16.1446C197.523 16.1446 197.392 16.1993 197.299 16.3086C197.206 16.4153 197.158 16.5606 197.155 16.7446H196.523C196.523 16.5579 196.548 16.3886 196.599 16.2366C196.65 16.0819 196.723 15.9499 196.819 15.8406C196.915 15.7313 197.032 15.6459 197.171 15.5846C197.31 15.5233 197.467 15.4926 197.643 15.4926C197.782 15.4926 197.918 15.5139 198.051 15.5566C198.184 15.5993 198.312 15.6459 198.435 15.6966C198.56 15.7446 198.679 15.7899 198.791 15.8326C198.903 15.8753 199.006 15.8966 199.099 15.8966ZM202.196 14.7846C202.489 14.7233 202.754 14.6926 202.992 14.6926C203.29 14.6926 203.554 14.7379 203.784 14.8286C204.013 14.9166 204.205 15.0393 204.36 15.1966C204.517 15.3513 204.634 15.5353 204.712 15.7486C204.792 15.9593 204.832 16.1886 204.832 16.4366C204.832 16.7406 204.778 17.0166 204.672 17.2646C204.565 17.5126 204.418 17.7246 204.232 17.9006C204.045 18.0766 203.824 18.2126 203.568 18.3086C203.314 18.4019 203.041 18.4486 202.748 18.4486C202.574 18.4486 202.409 18.4313 202.252 18.3966C202.097 18.3619 201.952 18.3166 201.816 18.2606C201.68 18.2019 201.553 18.1353 201.436 18.0606C201.321 17.9859 201.218 17.9073 201.128 17.8246L201.368 17.4886C201.418 17.4139 201.486 17.3766 201.572 17.3766C201.628 17.3766 201.689 17.3979 201.756 17.4406C201.825 17.4806 201.906 17.5259 202 17.5766C202.093 17.6273 202.204 17.6739 202.332 17.7166C202.46 17.7566 202.612 17.7766 202.788 17.7766C202.982 17.7766 203.157 17.7459 203.312 17.6846C203.469 17.6206 203.601 17.5313 203.708 17.4166C203.817 17.3019 203.9 17.1646 203.956 17.0046C204.014 16.8446 204.044 16.6673 204.044 16.4726C204.044 16.2993 204.018 16.1433 203.968 16.0046C203.917 15.8659 203.841 15.7473 203.74 15.6486C203.638 15.5499 203.512 15.4753 203.36 15.4246C203.208 15.3713 203.03 15.3446 202.828 15.3446C202.545 15.3446 202.244 15.3953 201.924 15.4966L201.432 15.3526L201.9 12.6406H204.652V12.9806C204.652 13.0926 204.616 13.1846 204.544 13.2566C204.474 13.3259 204.357 13.3606 204.192 13.3606H202.444L202.196 14.7846ZM209.752 15.5126C209.752 16.0139 209.698 16.4486 209.588 16.8166C209.482 17.1846 209.334 17.4899 209.144 17.7326C208.958 17.9726 208.736 18.1513 208.48 18.2686C208.227 18.3859 207.954 18.4446 207.66 18.4446C207.367 18.4446 207.092 18.3859 206.836 18.2686C206.583 18.1513 206.363 17.9726 206.176 17.7326C205.99 17.4899 205.843 17.1846 205.736 16.8166C205.63 16.4486 205.576 16.0139 205.576 15.5126C205.576 15.0113 205.63 14.5766 205.736 14.2086C205.843 13.8379 205.99 13.5326 206.176 13.2926C206.363 13.0499 206.583 12.8699 206.836 12.7526C207.092 12.6353 207.367 12.5766 207.66 12.5766C207.954 12.5766 208.227 12.6353 208.48 12.7526C208.736 12.8699 208.958 13.0499 209.144 13.2926C209.334 13.5326 209.482 13.8379 209.588 14.2086C209.698 14.5766 209.752 15.0113 209.752 15.5126ZM208.944 15.5126C208.944 15.0806 208.908 14.7193 208.836 14.4286C208.767 14.1379 208.672 13.9046 208.552 13.7286C208.435 13.5499 208.299 13.4233 208.144 13.3486C207.99 13.2739 207.828 13.2366 207.66 13.2366C207.492 13.2366 207.331 13.2739 207.176 13.3486C207.022 13.4233 206.884 13.5499 206.764 13.7286C206.647 13.9046 206.554 14.1379 206.484 14.4286C206.415 14.7193 206.38 15.0806 206.38 15.5126C206.38 15.9446 206.415 16.3059 206.484 16.5966C206.554 16.8873 206.647 17.1206 206.764 17.2966C206.884 17.4726 207.022 17.5979 207.176 17.6726C207.331 17.7473 207.492 17.7846 207.66 17.7846C207.828 17.7846 207.99 17.7473 208.144 17.6726C208.299 17.5979 208.435 17.4726 208.552 17.2966C208.672 17.1206 208.767 16.8873 208.836 16.5966C208.908 16.3059 208.944 15.9446 208.944 15.5126ZM215.905 14.3206L213.649 19.5646C213.625 19.6233 213.593 19.6686 213.553 19.7006C213.513 19.7326 213.455 19.7486 213.377 19.7486H212.797L213.541 18.1286L211.873 14.3206H212.553C212.62 14.3206 212.672 14.3366 212.709 14.3686C212.747 14.4006 212.773 14.4366 212.789 14.4766L213.821 16.9166C213.843 16.9779 213.863 17.0406 213.881 17.1046C213.903 17.1659 213.92 17.2273 213.933 17.2886C213.952 17.2246 213.972 17.1619 213.993 17.1006C214.015 17.0366 214.037 16.9739 214.061 16.9126L215.057 14.4766C215.076 14.4313 215.105 14.3939 215.145 14.3646C215.185 14.3353 215.231 14.3206 215.281 14.3206H215.905ZM219.076 15.9006C219.076 15.7459 219.054 15.6033 219.008 15.4726C218.966 15.3419 218.902 15.2286 218.816 15.1326C218.731 15.0366 218.627 14.9619 218.504 14.9086C218.382 14.8553 218.24 14.8286 218.08 14.8286C217.752 14.8286 217.494 14.9233 217.304 15.1126C217.118 15.3019 216.999 15.5646 216.948 15.9006H219.076ZM219.72 17.8046C219.624 17.9166 219.514 18.0139 219.388 18.0966C219.263 18.1766 219.13 18.2419 218.988 18.2926C218.847 18.3433 218.7 18.3806 218.548 18.4046C218.399 18.4286 218.251 18.4406 218.104 18.4406C217.824 18.4406 217.564 18.3939 217.324 18.3006C217.087 18.2046 216.88 18.0659 216.704 17.8846C216.531 17.7006 216.395 17.4739 216.296 17.2046C216.2 16.9326 216.152 16.6206 216.152 16.2686C216.152 15.9859 216.196 15.7233 216.284 15.4806C216.372 15.2353 216.498 15.0219 216.66 14.8406C216.826 14.6593 217.027 14.5166 217.264 14.4126C217.502 14.3086 217.768 14.2566 218.064 14.2566C218.312 14.2566 218.54 14.2979 218.748 14.3806C218.959 14.4606 219.14 14.5779 219.292 14.7326C219.444 14.8873 219.563 15.0779 219.648 15.3046C219.736 15.5313 219.78 15.7899 219.78 16.0806C219.78 16.2006 219.767 16.2819 219.74 16.3246C219.714 16.3646 219.664 16.3846 219.592 16.3846H216.928C216.936 16.6273 216.971 16.8393 217.032 17.0206C217.094 17.1993 217.178 17.3486 217.284 17.4686C217.394 17.5886 217.523 17.6779 217.672 17.7366C217.822 17.7953 217.988 17.8246 218.172 17.8246C218.346 17.8246 218.495 17.8046 218.62 17.7646C218.748 17.7246 218.858 17.6819 218.948 17.6366C219.042 17.5886 219.119 17.5446 219.18 17.5046C219.244 17.4646 219.3 17.4446 219.348 17.4446C219.412 17.4446 219.462 17.4686 219.496 17.5166L219.72 17.8046ZM222.803 16.5806C222.485 16.5913 222.216 16.6166 221.995 16.6566C221.773 16.6939 221.593 16.7446 221.455 16.8086C221.316 16.8726 221.216 16.9486 221.155 17.0366C221.093 17.1219 221.063 17.2179 221.063 17.3246C221.063 17.4259 221.079 17.5139 221.111 17.5886C221.145 17.6606 221.191 17.7206 221.247 17.7686C221.305 17.8139 221.373 17.8473 221.451 17.8686C221.528 17.8899 221.612 17.9006 221.703 17.9006C221.823 17.9006 221.932 17.8886 222.031 17.8646C222.132 17.8406 222.227 17.8073 222.315 17.7646C222.403 17.7193 222.487 17.6646 222.567 17.6006C222.647 17.5366 222.725 17.4633 222.803 17.3806V16.5806ZM220.515 14.8886C220.741 14.6726 220.987 14.5113 221.251 14.4046C221.517 14.2979 221.809 14.2446 222.127 14.2446C222.359 14.2446 222.564 14.2833 222.743 14.3606C222.921 14.4353 223.072 14.5406 223.195 14.6766C223.317 14.8126 223.409 14.9753 223.471 15.1646C223.535 15.3539 223.567 15.5633 223.567 15.7926V18.3846H223.219C223.141 18.3846 223.083 18.3726 223.043 18.3486C223.003 18.3219 222.971 18.2739 222.947 18.2046L222.863 17.8486C222.759 17.9446 222.656 18.0299 222.555 18.1046C222.453 18.1766 222.347 18.2393 222.235 18.2926C222.125 18.3433 222.008 18.3819 221.883 18.4086C221.757 18.4353 221.619 18.4486 221.467 18.4486C221.307 18.4486 221.156 18.4273 221.015 18.3846C220.876 18.3393 220.755 18.2713 220.651 18.1806C220.547 18.0899 220.464 17.9766 220.403 17.8406C220.344 17.7046 220.315 17.5459 220.315 17.3646C220.315 17.2046 220.357 17.0513 220.443 16.9046C220.531 16.7553 220.672 16.6219 220.867 16.5046C221.064 16.3873 221.32 16.2913 221.635 16.2166C221.952 16.1419 222.341 16.0993 222.803 16.0886V15.7926C222.803 15.4859 222.737 15.2566 222.607 15.1046C222.476 14.9526 222.284 14.8766 222.031 14.8766C221.86 14.8766 221.716 14.8979 221.599 14.9406C221.484 14.9833 221.384 15.0313 221.299 15.0846C221.216 15.1353 221.143 15.1819 221.079 15.2246C221.017 15.2673 220.953 15.2886 220.887 15.2886C220.833 15.2886 220.787 15.2739 220.747 15.2446C220.709 15.2153 220.679 15.1806 220.655 15.1406L220.515 14.8886ZM225.347 15.1006C225.478 14.8339 225.635 14.6246 225.819 14.4726C226.003 14.3206 226.224 14.2446 226.483 14.2446C226.571 14.2446 226.654 14.2553 226.731 14.2766C226.811 14.2953 226.88 14.3246 226.939 14.3646L226.887 14.9526C226.868 15.0246 226.824 15.0606 226.755 15.0606C226.718 15.0606 226.662 15.0539 226.587 15.0406C226.512 15.0246 226.432 15.0166 226.347 15.0166C226.222 15.0166 226.111 15.0353 226.015 15.0726C225.919 15.1073 225.832 15.1606 225.755 15.2326C225.68 15.3019 225.614 15.3886 225.555 15.4926C225.496 15.5939 225.442 15.7099 225.391 15.8406V18.3846H224.611V14.3206H225.059C225.144 14.3206 225.202 14.3366 225.231 14.3686C225.263 14.3979 225.286 14.4513 225.299 14.5286L225.347 15.1006ZM229.913 15.0206C229.892 15.0553 229.869 15.0806 229.845 15.0966C229.821 15.1099 229.791 15.1166 229.753 15.1166C229.711 15.1166 229.663 15.1019 229.609 15.0726C229.559 15.0433 229.496 15.0113 229.421 14.9766C229.349 14.9419 229.264 14.9099 229.165 14.8806C229.067 14.8513 228.949 14.8366 228.813 14.8366C228.701 14.8366 228.599 14.8513 228.505 14.8806C228.415 14.9073 228.337 14.9459 228.273 14.9966C228.209 15.0446 228.16 15.1033 228.125 15.1726C228.091 15.2393 228.073 15.3113 228.073 15.3886C228.073 15.4899 228.103 15.5739 228.161 15.6406C228.223 15.7073 228.301 15.7646 228.397 15.8126C228.496 15.8606 228.607 15.9046 228.729 15.9446C228.855 15.9819 228.981 16.0219 229.109 16.0646C229.24 16.1073 229.367 16.1566 229.489 16.2126C229.615 16.2659 229.725 16.3339 229.821 16.4166C229.92 16.4966 229.999 16.5939 230.057 16.7086C230.119 16.8233 230.149 16.9633 230.149 17.1286C230.149 17.3179 230.115 17.4939 230.045 17.6566C229.979 17.8166 229.879 17.9553 229.745 18.0726C229.615 18.1899 229.452 18.2819 229.257 18.3486C229.063 18.4153 228.84 18.4486 228.589 18.4486C228.309 18.4486 228.051 18.4019 227.813 18.3086C227.576 18.2153 227.377 18.0966 227.217 17.9526L227.401 17.6526C227.423 17.6153 227.449 17.5873 227.481 17.5686C227.513 17.5473 227.556 17.5366 227.609 17.5366C227.66 17.5366 227.712 17.5553 227.765 17.5926C227.819 17.6299 227.883 17.6713 227.957 17.7166C228.032 17.7593 228.123 17.7993 228.229 17.8366C228.336 17.8713 228.469 17.8886 228.629 17.8886C228.763 17.8886 228.879 17.8726 228.977 17.8406C229.076 17.8059 229.157 17.7606 229.221 17.7046C229.288 17.6459 229.337 17.5793 229.369 17.5046C229.401 17.4299 229.417 17.3513 229.417 17.2686C229.417 17.1619 229.387 17.0739 229.325 17.0046C229.267 16.9326 229.188 16.8713 229.089 16.8206C228.993 16.7699 228.883 16.7259 228.757 16.6886C228.632 16.6513 228.504 16.6113 228.373 16.5686C228.243 16.5259 228.115 16.4766 227.989 16.4206C227.864 16.3646 227.752 16.2939 227.653 16.2086C227.557 16.1233 227.479 16.0193 227.417 15.8966C227.359 15.7739 227.329 15.6246 227.329 15.4486C227.329 15.2913 227.361 15.1406 227.425 14.9966C227.492 14.8526 227.587 14.7259 227.709 14.6166C227.835 14.5073 227.988 14.4206 228.169 14.3566C228.353 14.2899 228.563 14.2566 228.797 14.2566C229.067 14.2566 229.309 14.2993 229.525 14.3846C229.744 14.4699 229.931 14.5873 230.085 14.7366L229.913 15.0206Z" fill="black"/>
<path d="M141.151 43.1945C141.199 43.1945 141.24 43.2131 141.275 43.2505L141.611 43.6185C141.376 43.8958 141.09 44.1105 140.751 44.2625C140.415 44.4145 140.01 44.4905 139.535 44.4905C139.119 44.4905 138.742 44.4185 138.403 44.2745C138.067 44.1305 137.779 43.9291 137.539 43.6705C137.302 43.4118 137.118 43.1025 136.987 42.7425C136.856 42.3825 136.791 41.9865 136.791 41.5545C136.791 41.1225 136.859 40.7265 136.995 40.3665C137.134 40.0065 137.327 39.6971 137.575 39.4385C137.823 39.1798 138.119 38.9785 138.463 38.8345C138.81 38.6905 139.192 38.6185 139.611 38.6185C140.019 38.6185 140.382 38.6851 140.699 38.8185C141.016 38.9518 141.292 39.1291 141.527 39.3505L141.247 39.7465C141.228 39.7758 141.204 39.7998 141.175 39.8185C141.148 39.8371 141.112 39.8465 141.067 39.8465C141.016 39.8465 140.956 39.8211 140.887 39.7705C140.82 39.7198 140.731 39.6638 140.619 39.6025C140.51 39.5385 140.374 39.4811 140.211 39.4305C140.048 39.3798 139.846 39.3545 139.603 39.3545C139.318 39.3545 139.056 39.4051 138.819 39.5065C138.582 39.6051 138.376 39.7491 138.203 39.9385C138.032 40.1251 137.899 40.3558 137.803 40.6305C137.71 40.9025 137.663 41.2105 137.663 41.5545C137.663 41.9038 137.712 42.2145 137.811 42.4865C137.91 42.7585 138.046 42.9891 138.219 43.1785C138.392 43.3678 138.596 43.5118 138.831 43.6105C139.066 43.7091 139.319 43.7585 139.591 43.7585C139.756 43.7585 139.904 43.7491 140.035 43.7305C140.168 43.7091 140.29 43.6785 140.399 43.6385C140.511 43.5985 140.616 43.5478 140.715 43.4865C140.814 43.4225 140.911 43.3465 141.007 43.2585C141.028 43.2398 141.051 43.2251 141.075 43.2145C141.099 43.2011 141.124 43.1945 141.151 43.1945ZM145.625 40.3625V44.4265H145.157C145.05 44.4265 144.981 44.3745 144.949 44.2705L144.893 43.8625C144.805 43.9558 144.713 44.0411 144.617 44.1185C144.521 44.1958 144.418 44.2625 144.309 44.3185C144.199 44.3718 144.083 44.4131 143.961 44.4425C143.838 44.4745 143.706 44.4905 143.565 44.4905C143.341 44.4905 143.143 44.4531 142.973 44.3785C142.805 44.3038 142.663 44.1998 142.549 44.0665C142.434 43.9305 142.347 43.7678 142.289 43.5785C142.23 43.3891 142.201 43.1798 142.201 42.9505V40.3625H142.985V42.9505C142.985 43.2411 143.051 43.4678 143.185 43.6305C143.318 43.7905 143.522 43.8705 143.797 43.8705C143.997 43.8705 144.183 43.8238 144.357 43.7305C144.53 43.6345 144.693 43.5038 144.845 43.3385V40.3625H145.625ZM147.449 41.1425C147.58 40.8758 147.737 40.6665 147.921 40.5145C148.105 40.3625 148.327 40.2865 148.585 40.2865C148.673 40.2865 148.756 40.2971 148.833 40.3185C148.913 40.3371 148.983 40.3665 149.041 40.4065L148.989 40.9945C148.971 41.0665 148.927 41.1025 148.857 41.1025C148.82 41.1025 148.764 41.0958 148.689 41.0825C148.615 41.0665 148.535 41.0585 148.449 41.0585C148.324 41.0585 148.213 41.0771 148.117 41.1145C148.021 41.1491 147.935 41.2025 147.857 41.2745C147.783 41.3438 147.716 41.4305 147.657 41.5345C147.599 41.6358 147.544 41.7518 147.493 41.8825V44.4265H146.713V40.3625H147.161C147.247 40.3625 147.304 40.3785 147.333 40.4105C147.365 40.4398 147.388 40.4931 147.401 40.5705L147.449 41.1425ZM150.379 41.1425C150.51 40.8758 150.667 40.6665 150.851 40.5145C151.035 40.3625 151.256 40.2865 151.515 40.2865C151.603 40.2865 151.686 40.2971 151.763 40.3185C151.843 40.3371 151.912 40.3665 151.971 40.4065L151.919 40.9945C151.9 41.0665 151.856 41.1025 151.787 41.1025C151.75 41.1025 151.694 41.0958 151.619 41.0825C151.544 41.0665 151.464 41.0585 151.379 41.0585C151.254 41.0585 151.143 41.0771 151.047 41.1145C150.951 41.1491 150.864 41.2025 150.787 41.2745C150.712 41.3438 150.646 41.4305 150.587 41.5345C150.528 41.6358 150.474 41.7518 150.423 41.8825V44.4265H149.643V40.3625H150.091C150.176 40.3625 150.234 40.3785 150.263 40.4105C150.295 40.4398 150.318 40.4931 150.331 40.5705L150.379 41.1425ZM155.116 41.9425C155.116 41.7878 155.094 41.6451 155.048 41.5145C155.006 41.3838 154.942 41.2705 154.856 41.1745C154.771 41.0785 154.667 41.0038 154.544 40.9505C154.422 40.8971 154.28 40.8705 154.12 40.8705C153.792 40.8705 153.534 40.9651 153.344 41.1545C153.158 41.3438 153.039 41.6065 152.988 41.9425H155.116ZM155.76 43.8465C155.664 43.9585 155.554 44.0558 155.428 44.1385C155.303 44.2185 155.17 44.2838 155.028 44.3345C154.887 44.3851 154.74 44.4225 154.588 44.4465C154.439 44.4705 154.291 44.4825 154.144 44.4825C153.864 44.4825 153.604 44.4358 153.364 44.3425C153.127 44.2465 152.92 44.1078 152.744 43.9265C152.571 43.7425 152.435 43.5158 152.336 43.2465C152.24 42.9745 152.192 42.6625 152.192 42.3105C152.192 42.0278 152.236 41.7651 152.324 41.5225C152.412 41.2771 152.538 41.0638 152.7 40.8825C152.866 40.7011 153.067 40.5585 153.304 40.4545C153.542 40.3505 153.808 40.2985 154.104 40.2985C154.352 40.2985 154.58 40.3398 154.788 40.4225C154.999 40.5025 155.18 40.6198 155.332 40.7745C155.484 40.9291 155.603 41.1198 155.688 41.3465C155.776 41.5731 155.82 41.8318 155.82 42.1225C155.82 42.2425 155.807 42.3238 155.78 42.3665C155.754 42.4065 155.704 42.4265 155.632 42.4265H152.968C152.976 42.6691 153.011 42.8811 153.072 43.0625C153.134 43.2411 153.218 43.3905 153.324 43.5105C153.434 43.6305 153.563 43.7198 153.712 43.7785C153.862 43.8371 154.028 43.8665 154.212 43.8665C154.386 43.8665 154.535 43.8465 154.66 43.8065C154.788 43.7665 154.898 43.7238 154.988 43.6785C155.082 43.6305 155.159 43.5865 155.22 43.5465C155.284 43.5065 155.34 43.4865 155.388 43.4865C155.452 43.4865 155.502 43.5105 155.536 43.5585L155.76 43.8465ZM157.391 40.9265C157.479 40.8331 157.571 40.7478 157.667 40.6705C157.763 40.5931 157.864 40.5278 157.971 40.4745C158.08 40.4185 158.196 40.3758 158.319 40.3465C158.444 40.3145 158.577 40.2985 158.719 40.2985C158.943 40.2985 159.139 40.3358 159.307 40.4105C159.477 40.4851 159.62 40.5905 159.735 40.7265C159.849 40.8598 159.936 41.0211 159.995 41.2105C160.053 41.3998 160.083 41.6091 160.083 41.8385V44.4265H159.299V41.8385C159.299 41.5478 159.232 41.3225 159.099 41.1625C158.965 40.9998 158.761 40.9185 158.487 40.9185C158.287 40.9185 158.099 40.9665 157.923 41.0625C157.749 41.1558 157.588 41.2838 157.439 41.4465V44.4265H156.659V40.3625H157.127C157.236 40.3625 157.304 40.4145 157.331 40.5185L157.391 40.9265ZM162.352 44.4905C162.024 44.4905 161.771 44.3985 161.592 44.2145C161.416 44.0305 161.328 43.7678 161.328 43.4265V40.9945H160.856C160.811 40.9945 160.772 40.9811 160.74 40.9545C160.711 40.9251 160.696 40.8825 160.696 40.8265V40.5105L161.356 40.4185L161.532 39.2065C161.543 39.1611 161.563 39.1265 161.592 39.1025C161.624 39.0758 161.664 39.0625 161.712 39.0625H162.108V40.4265H163.26V40.9945H162.108V43.3745C162.108 43.5345 162.147 43.6545 162.224 43.7345C162.304 43.8118 162.406 43.8505 162.528 43.8505C162.6 43.8505 162.662 43.8411 162.712 43.8225C162.766 43.8038 162.811 43.7838 162.848 43.7625C162.886 43.7385 162.918 43.7171 162.944 43.6985C162.971 43.6798 162.995 43.6705 163.016 43.6705C163.043 43.6705 163.063 43.6771 163.076 43.6905C163.092 43.7011 163.108 43.7198 163.124 43.7465L163.356 44.1225C163.228 44.2398 163.076 44.3305 162.9 44.3945C162.724 44.4585 162.542 44.4905 162.352 44.4905ZM164.779 38.5225V44.4265H163.995V38.5225H164.779ZM169.445 40.3625L167.189 45.6065C167.165 45.6651 167.133 45.7105 167.093 45.7425C167.053 45.7745 166.994 45.7905 166.917 45.7905H166.337L167.081 44.1705L165.413 40.3625H166.093C166.16 40.3625 166.212 40.3785 166.249 40.4105C166.286 40.4425 166.313 40.4785 166.329 40.5185L167.361 42.9585C167.382 43.0198 167.402 43.0825 167.421 43.1465C167.442 43.2078 167.46 43.2691 167.473 43.3305C167.492 43.2665 167.512 43.2038 167.533 43.1425C167.554 43.0785 167.577 43.0158 167.601 42.9545L168.597 40.5185C168.616 40.4731 168.645 40.4358 168.685 40.4065C168.725 40.3771 168.77 40.3625 168.821 40.3625H169.445ZM174.226 42.3305V40.0905C174.226 40.0131 174.227 39.9318 174.23 39.8465C174.235 39.7585 174.244 39.6678 174.258 39.5745L172.246 42.3305H174.226ZM175.742 42.3305V42.7825C175.742 42.8278 175.727 42.8665 175.698 42.8985C175.668 42.9305 175.627 42.9465 175.574 42.9465H174.91V44.4265H174.226V42.9465H171.706C171.647 42.9465 171.598 42.9305 171.558 42.8985C171.518 42.8638 171.491 42.8211 171.478 42.7705L171.398 42.3705L174.174 38.6785H174.91V42.3305H175.742ZM180.37 41.5545C180.37 42.0558 180.315 42.4905 180.206 42.8585C180.099 43.2265 179.951 43.5318 179.762 43.7745C179.575 44.0145 179.354 44.1931 179.098 44.3105C178.845 44.4278 178.571 44.4865 178.278 44.4865C177.985 44.4865 177.71 44.4278 177.454 44.3105C177.201 44.1931 176.981 44.0145 176.794 43.7745C176.607 43.5318 176.461 43.2265 176.354 42.8585C176.247 42.4905 176.194 42.0558 176.194 41.5545C176.194 41.0531 176.247 40.6185 176.354 40.2505C176.461 39.8798 176.607 39.5745 176.794 39.3345C176.981 39.0918 177.201 38.9118 177.454 38.7945C177.71 38.6771 177.985 38.6185 178.278 38.6185C178.571 38.6185 178.845 38.6771 179.098 38.7945C179.354 38.9118 179.575 39.0918 179.762 39.3345C179.951 39.5745 180.099 39.8798 180.206 40.2505C180.315 40.6185 180.37 41.0531 180.37 41.5545ZM179.562 41.5545C179.562 41.1225 179.526 40.7611 179.454 40.4705C179.385 40.1798 179.29 39.9465 179.17 39.7705C179.053 39.5918 178.917 39.4651 178.762 39.3905C178.607 39.3158 178.446 39.2785 178.278 39.2785C178.11 39.2785 177.949 39.3158 177.794 39.3905C177.639 39.4651 177.502 39.5918 177.382 39.7705C177.265 39.9465 177.171 40.1798 177.102 40.4705C177.033 40.7611 176.998 41.1225 176.998 41.5545C176.998 41.9865 177.033 42.3478 177.102 42.6385C177.171 42.9291 177.265 43.1625 177.382 43.3385C177.502 43.5145 177.639 43.6398 177.794 43.7145C177.949 43.7891 178.11 43.8265 178.278 43.8265C178.446 43.8265 178.607 43.7891 178.762 43.7145C178.917 43.6398 179.053 43.5145 179.17 43.3385C179.29 43.1625 179.385 42.9291 179.454 42.6385C179.526 42.3478 179.562 41.9865 179.562 41.5545ZM184.851 42.0385H183.239V43.7385H182.603V42.0385H180.999V41.4465H182.603V39.7545H183.239V41.4465H184.851V42.0385ZM191.164 40.3625L188.908 45.6065C188.884 45.6651 188.852 45.7105 188.812 45.7425C188.772 45.7745 188.713 45.7905 188.636 45.7905H188.056L188.8 44.1705L187.132 40.3625H187.812C187.878 40.3625 187.93 40.3785 187.968 40.4105C188.005 40.4425 188.032 40.4785 188.048 40.5185L189.08 42.9585C189.101 43.0198 189.121 43.0825 189.14 43.1465C189.161 43.2078 189.178 43.2691 189.192 43.3305C189.21 43.2665 189.23 43.2038 189.252 43.1425C189.273 43.0785 189.296 43.0158 189.32 42.9545L190.316 40.5185C190.334 40.4731 190.364 40.4358 190.404 40.4065C190.444 40.3771 190.489 40.3625 190.54 40.3625H191.164ZM194.335 41.9425C194.335 41.7878 194.312 41.6451 194.267 41.5145C194.224 41.3838 194.16 41.2705 194.075 41.1745C193.99 41.0785 193.886 41.0038 193.763 40.9505C193.64 40.8971 193.499 40.8705 193.339 40.8705C193.011 40.8705 192.752 40.9651 192.563 41.1545C192.376 41.3438 192.258 41.6065 192.207 41.9425H194.335ZM194.979 43.8465C194.883 43.9585 194.772 44.0558 194.647 44.1385C194.522 44.2185 194.388 44.2838 194.247 44.3345C194.106 44.3851 193.959 44.4225 193.807 44.4465C193.658 44.4705 193.51 44.4825 193.363 44.4825C193.083 44.4825 192.823 44.4358 192.583 44.3425C192.346 44.2465 192.139 44.1078 191.963 43.9265C191.79 43.7425 191.654 43.5158 191.555 43.2465C191.459 42.9745 191.411 42.6625 191.411 42.3105C191.411 42.0278 191.455 41.7651 191.543 41.5225C191.631 41.2771 191.756 41.0638 191.919 40.8825C192.084 40.7011 192.286 40.5585 192.523 40.4545C192.76 40.3505 193.027 40.2985 193.323 40.2985C193.571 40.2985 193.799 40.3398 194.007 40.4225C194.218 40.5025 194.399 40.6198 194.551 40.7745C194.703 40.9291 194.822 41.1198 194.907 41.3465C194.995 41.5731 195.039 41.8318 195.039 42.1225C195.039 42.2425 195.026 42.3238 194.999 42.3665C194.972 42.4065 194.923 42.4265 194.851 42.4265H192.187C192.195 42.6691 192.23 42.8811 192.291 43.0625C192.352 43.2411 192.436 43.3905 192.543 43.5105C192.652 43.6305 192.782 43.7198 192.931 43.7785C193.08 43.8371 193.247 43.8665 193.431 43.8665C193.604 43.8665 193.754 43.8465 193.879 43.8065C194.007 43.7665 194.116 43.7238 194.207 43.6785C194.3 43.6305 194.378 43.5865 194.439 43.5465C194.503 43.5065 194.559 43.4865 194.607 43.4865C194.671 43.4865 194.72 43.5105 194.755 43.5585L194.979 43.8465ZM198.061 42.6225C197.744 42.6331 197.475 42.6585 197.253 42.6985C197.032 42.7358 196.852 42.7865 196.713 42.8505C196.575 42.9145 196.475 42.9905 196.413 43.0785C196.352 43.1638 196.321 43.2598 196.321 43.3665C196.321 43.4678 196.337 43.5558 196.369 43.6305C196.404 43.7025 196.449 43.7625 196.505 43.8105C196.564 43.8558 196.632 43.8891 196.709 43.9105C196.787 43.9318 196.871 43.9425 196.961 43.9425C197.081 43.9425 197.191 43.9305 197.289 43.9065C197.391 43.8825 197.485 43.8491 197.573 43.8065C197.661 43.7611 197.745 43.7065 197.825 43.6425C197.905 43.5785 197.984 43.5051 198.061 43.4225V42.6225ZM195.773 40.9305C196 40.7145 196.245 40.5531 196.509 40.4465C196.776 40.3398 197.068 40.2865 197.385 40.2865C197.617 40.2865 197.823 40.3251 198.001 40.4025C198.18 40.4771 198.331 40.5825 198.453 40.7185C198.576 40.8545 198.668 41.0171 198.729 41.2065C198.793 41.3958 198.825 41.6051 198.825 41.8345V44.4265H198.477C198.4 44.4265 198.341 44.4145 198.301 44.3905C198.261 44.3638 198.229 44.3158 198.205 44.2465L198.121 43.8905C198.017 43.9865 197.915 44.0718 197.813 44.1465C197.712 44.2185 197.605 44.2811 197.493 44.3345C197.384 44.3851 197.267 44.4238 197.141 44.4505C197.016 44.4771 196.877 44.4905 196.725 44.4905C196.565 44.4905 196.415 44.4691 196.273 44.4265C196.135 44.3811 196.013 44.3131 195.909 44.2225C195.805 44.1318 195.723 44.0185 195.661 43.8825C195.603 43.7465 195.573 43.5878 195.573 43.4065C195.573 43.2465 195.616 43.0931 195.701 42.9465C195.789 42.7971 195.931 42.6638 196.125 42.5465C196.323 42.4291 196.579 42.3331 196.893 42.2585C197.211 42.1838 197.6 42.1411 198.061 42.1305V41.8345C198.061 41.5278 197.996 41.2985 197.865 41.1465C197.735 40.9945 197.543 40.9185 197.289 40.9185C197.119 40.9185 196.975 40.9398 196.857 40.9825C196.743 41.0251 196.643 41.0731 196.557 41.1265C196.475 41.1771 196.401 41.2238 196.337 41.2665C196.276 41.3091 196.212 41.3305 196.145 41.3305C196.092 41.3305 196.045 41.3158 196.005 41.2865C195.968 41.2571 195.937 41.2225 195.913 41.1825L195.773 40.9305ZM200.606 41.1425C200.736 40.8758 200.894 40.6665 201.078 40.5145C201.262 40.3625 201.483 40.2865 201.742 40.2865C201.83 40.2865 201.912 40.2971 201.99 40.3185C202.07 40.3371 202.139 40.3665 202.198 40.4065L202.146 40.9945C202.127 41.0665 202.083 41.1025 202.014 41.1025C201.976 41.1025 201.92 41.0958 201.846 41.0825C201.771 41.0665 201.691 41.0585 201.606 41.0585C201.48 41.0585 201.37 41.0771 201.274 41.1145C201.178 41.1491 201.091 41.2025 201.014 41.2745C200.939 41.3438 200.872 41.4305 200.814 41.5345C200.755 41.6358 200.7 41.7518 200.65 41.8825V44.4265H199.87V40.3625H200.318C200.403 40.3625 200.46 40.3785 200.49 40.4105C200.522 40.4398 200.544 40.4931 200.558 40.5705L200.606 41.1425ZM205.172 41.0625C205.15 41.0971 205.128 41.1225 205.104 41.1385C205.08 41.1518 205.049 41.1585 205.012 41.1585C204.969 41.1585 204.921 41.1438 204.868 41.1145C204.817 41.0851 204.754 41.0531 204.68 41.0185C204.608 40.9838 204.522 40.9518 204.424 40.9225C204.325 40.8931 204.208 40.8785 204.072 40.8785C203.96 40.8785 203.857 40.8931 203.764 40.9225C203.673 40.9491 203.596 40.9878 203.532 41.0385C203.468 41.0865 203.418 41.1451 203.384 41.2145C203.349 41.2811 203.332 41.3531 203.332 41.4305C203.332 41.5318 203.361 41.6158 203.42 41.6825C203.481 41.7491 203.56 41.8065 203.656 41.8545C203.754 41.9025 203.865 41.9465 203.988 41.9865C204.113 42.0238 204.24 42.0638 204.368 42.1065C204.498 42.1491 204.625 42.1985 204.748 42.2545C204.873 42.3078 204.984 42.3758 205.08 42.4585C205.178 42.5385 205.257 42.6358 205.316 42.7505C205.377 42.8651 205.408 43.0051 205.408 43.1705C205.408 43.3598 205.373 43.5358 205.304 43.6985C205.237 43.8585 205.137 43.9971 205.004 44.1145C204.873 44.2318 204.71 44.3238 204.516 44.3905C204.321 44.4571 204.098 44.4905 203.848 44.4905C203.568 44.4905 203.309 44.4438 203.072 44.3505C202.834 44.2571 202.636 44.1385 202.476 43.9945L202.66 43.6945C202.681 43.6571 202.708 43.6291 202.74 43.6105C202.772 43.5891 202.814 43.5785 202.868 43.5785C202.918 43.5785 202.97 43.5971 203.024 43.6345C203.077 43.6718 203.141 43.7131 203.216 43.7585C203.29 43.8011 203.381 43.8411 203.488 43.8785C203.594 43.9131 203.728 43.9305 203.888 43.9305C204.021 43.9305 204.137 43.9145 204.236 43.8825C204.334 43.8478 204.416 43.8025 204.48 43.7465C204.546 43.6878 204.596 43.6211 204.628 43.5465C204.66 43.4718 204.676 43.3931 204.676 43.3105C204.676 43.2038 204.645 43.1158 204.584 43.0465C204.525 42.9745 204.446 42.9131 204.348 42.8625C204.252 42.8118 204.141 42.7678 204.016 42.7305C203.89 42.6931 203.762 42.6531 203.632 42.6105C203.501 42.5678 203.373 42.5185 203.248 42.4625C203.122 42.4065 203.01 42.3358 202.912 42.2505C202.816 42.1651 202.737 42.0611 202.676 41.9385C202.617 41.8158 202.588 41.6665 202.588 41.4905C202.588 41.3331 202.62 41.1825 202.684 41.0385C202.75 40.8945 202.845 40.7678 202.968 40.6585C203.093 40.5491 203.246 40.4625 203.428 40.3985C203.612 40.3318 203.821 40.2985 204.056 40.2985C204.325 40.2985 204.568 40.3411 204.784 40.4265C205.002 40.5118 205.189 40.6291 205.344 40.7785L205.172 41.0625ZM210.008 40.2985C210.306 40.2985 210.576 40.3478 210.816 40.4465C211.058 40.5425 211.264 40.6825 211.432 40.8665C211.602 41.0478 211.733 41.2678 211.824 41.5265C211.914 41.7825 211.96 42.0705 211.96 42.3905C211.96 42.7105 211.914 42.9998 211.824 43.2585C211.733 43.5171 211.602 43.7371 211.432 43.9185C211.264 44.0998 211.058 44.2398 210.816 44.3385C210.576 44.4345 210.306 44.4825 210.008 44.4825C209.706 44.4825 209.434 44.4345 209.192 44.3385C208.952 44.2398 208.746 44.0998 208.576 43.9185C208.405 43.7371 208.273 43.5171 208.18 43.2585C208.089 42.9998 208.044 42.7105 208.044 42.3905C208.044 42.0705 208.089 41.7825 208.18 41.5265C208.273 41.2678 208.405 41.0478 208.576 40.8665C208.746 40.6825 208.952 40.5425 209.192 40.4465C209.434 40.3478 209.706 40.2985 210.008 40.2985ZM210.008 43.8745C210.392 43.8745 210.678 43.7451 210.868 43.4865C211.057 43.2278 211.152 42.8638 211.152 42.3945C211.152 41.9251 211.057 41.5611 210.868 41.3025C210.678 41.0411 210.392 40.9105 210.008 40.9105C209.618 40.9105 209.328 41.0411 209.136 41.3025C208.946 41.5611 208.852 41.9251 208.852 42.3945C208.852 42.8638 208.946 43.2278 209.136 43.4865C209.328 43.7451 209.618 43.8745 210.008 43.8745ZM213.63 38.5225V44.4265H212.846V38.5225H213.63ZM217.365 41.3465C217.237 41.1785 217.098 41.0611 216.949 40.9945C216.802 40.9278 216.637 40.8945 216.453 40.8945C216.095 40.8945 215.818 41.0238 215.621 41.2825C215.426 41.5385 215.329 41.9131 215.329 42.4065C215.329 42.6651 215.35 42.8865 215.393 43.0705C215.438 43.2518 215.502 43.4011 215.585 43.5185C215.67 43.6331 215.774 43.7185 215.897 43.7745C216.019 43.8278 216.158 43.8545 216.313 43.8545C216.539 43.8545 216.735 43.8038 216.901 43.7025C217.066 43.6011 217.221 43.4585 217.365 43.2745V41.3465ZM218.149 38.5225V44.4265H217.677C217.567 44.4265 217.499 44.3745 217.473 44.2705L217.405 43.8025C217.231 44.0078 217.034 44.1731 216.813 44.2985C216.594 44.4211 216.341 44.4825 216.053 44.4825C215.821 44.4825 215.61 44.4371 215.421 44.3465C215.234 44.2558 215.074 44.1238 214.941 43.9505C214.807 43.7745 214.705 43.5571 214.633 43.2985C214.561 43.0398 214.525 42.7425 214.525 42.4065C214.525 42.1051 214.565 41.8251 214.645 41.5665C214.725 41.3078 214.841 41.0838 214.993 40.8945C215.145 40.7051 215.329 40.5571 215.545 40.4505C215.761 40.3411 216.005 40.2865 216.277 40.2865C216.522 40.2865 216.73 40.3265 216.901 40.4065C217.074 40.4865 217.229 40.5998 217.365 40.7465V38.5225H218.149Z" fill="black"/>
<path d="M141.843 60.2487V65.9927H140.991V63.4047H137.995V65.9927H137.139V60.2487H137.995V62.7847H140.991V60.2487H141.843ZM145.171 64.1887C144.853 64.1993 144.584 64.2247 144.363 64.2647C144.141 64.302 143.961 64.3527 143.823 64.4167C143.684 64.4807 143.584 64.5567 143.523 64.6447C143.461 64.73 143.431 64.826 143.431 64.9327C143.431 65.034 143.447 65.122 143.479 65.1967C143.513 65.2687 143.559 65.3287 143.615 65.3767C143.673 65.422 143.741 65.4553 143.819 65.4767C143.896 65.498 143.98 65.5087 144.071 65.5087C144.191 65.5087 144.3 65.4967 144.399 65.4727C144.5 65.4487 144.595 65.4153 144.683 65.3727C144.771 65.3273 144.855 65.2727 144.935 65.2087C145.015 65.1447 145.093 65.0713 145.171 64.9887V64.1887ZM142.883 62.4967C143.109 62.2807 143.355 62.1193 143.619 62.0127C143.885 61.906 144.177 61.8527 144.495 61.8527C144.727 61.8527 144.932 61.8913 145.111 61.9687C145.289 62.0433 145.44 62.1487 145.563 62.2847C145.685 62.4207 145.777 62.5833 145.839 62.7727C145.903 62.962 145.935 63.1713 145.935 63.4007V65.9927H145.587C145.509 65.9927 145.451 65.9807 145.411 65.9567C145.371 65.93 145.339 65.882 145.315 65.8127L145.231 65.4567C145.127 65.5527 145.024 65.638 144.923 65.7127C144.821 65.7847 144.715 65.8473 144.603 65.9007C144.493 65.9513 144.376 65.99 144.251 66.0167C144.125 66.0433 143.987 66.0567 143.835 66.0567C143.675 66.0567 143.524 66.0353 143.383 65.9927C143.244 65.9473 143.123 65.8793 143.019 65.7887C142.915 65.698 142.832 65.5847 142.771 65.4487C142.712 65.3127 142.683 65.154 142.683 64.9727C142.683 64.8127 142.725 64.6593 142.811 64.5127C142.899 64.3633 143.04 64.23 143.235 64.1127C143.432 63.9953 143.688 63.8993 144.003 63.8247C144.32 63.75 144.709 63.7073 145.171 63.6967V63.4007C145.171 63.094 145.105 62.8647 144.975 62.7127C144.844 62.5607 144.652 62.4847 144.399 62.4847C144.228 62.4847 144.084 62.506 143.967 62.5487C143.852 62.5913 143.752 62.6393 143.667 62.6927C143.584 62.7433 143.511 62.79 143.447 62.8327C143.385 62.8753 143.321 62.8967 143.255 62.8967C143.201 62.8967 143.155 62.882 143.115 62.8527C143.077 62.8233 143.047 62.7887 143.023 62.7487L142.883 62.4967ZM147.711 62.4927C147.799 62.3993 147.891 62.314 147.987 62.2367C148.083 62.1593 148.184 62.094 148.291 62.0407C148.4 61.9847 148.516 61.942 148.639 61.9127C148.764 61.8807 148.898 61.8647 149.039 61.8647C149.263 61.8647 149.459 61.902 149.627 61.9767C149.798 62.0513 149.94 62.1567 150.055 62.2927C150.17 62.426 150.256 62.5873 150.315 62.7767C150.374 62.966 150.403 63.1753 150.403 63.4047V65.9927H149.619V63.4047C149.619 63.114 149.552 62.8887 149.419 62.7287C149.286 62.566 149.082 62.4847 148.807 62.4847C148.607 62.4847 148.419 62.5327 148.243 62.6287C148.07 62.722 147.908 62.85 147.759 63.0127V65.9927H146.979V61.9287H147.447C147.556 61.9287 147.624 61.9807 147.651 62.0847L147.711 62.4927ZM154.075 62.9127C153.947 62.7447 153.809 62.6273 153.659 62.5607C153.513 62.494 153.347 62.4607 153.163 62.4607C152.806 62.4607 152.529 62.59 152.331 62.8487C152.137 63.1047 152.039 63.4793 152.039 63.9727C152.039 64.2313 152.061 64.4527 152.103 64.6367C152.149 64.818 152.213 64.9673 152.295 65.0847C152.381 65.1993 152.485 65.2847 152.607 65.3407C152.73 65.394 152.869 65.4207 153.023 65.4207C153.25 65.4207 153.446 65.37 153.611 65.2687C153.777 65.1673 153.931 65.0247 154.075 64.8407V62.9127ZM154.859 60.0887V65.9927H154.387C154.278 65.9927 154.21 65.9407 154.183 65.8367L154.115 65.3687C153.942 65.574 153.745 65.7393 153.523 65.8647C153.305 65.9873 153.051 66.0487 152.763 66.0487C152.531 66.0487 152.321 66.0033 152.131 65.9127C151.945 65.822 151.785 65.69 151.651 65.5167C151.518 65.3407 151.415 65.1233 151.343 64.8647C151.271 64.606 151.235 64.3087 151.235 63.9727C151.235 63.6713 151.275 63.3913 151.355 63.1327C151.435 62.874 151.551 62.65 151.703 62.4607C151.855 62.2713 152.039 62.1233 152.255 62.0167C152.471 61.9073 152.715 61.8527 152.987 61.8527C153.233 61.8527 153.441 61.8927 153.611 61.9727C153.785 62.0527 153.939 62.166 154.075 62.3127V60.0887H154.859ZM156.748 60.0887V65.9927H155.964V60.0887H156.748ZM160.554 63.5087C160.554 63.354 160.531 63.2113 160.486 63.0807C160.443 62.95 160.379 62.8367 160.294 62.7407C160.208 62.6447 160.104 62.57 159.982 62.5167C159.859 62.4633 159.718 62.4367 159.558 62.4367C159.23 62.4367 158.971 62.5313 158.782 62.7207C158.595 62.91 158.476 63.1727 158.426 63.5087H160.554ZM161.198 65.4127C161.102 65.5247 160.991 65.622 160.866 65.7047C160.74 65.7847 160.607 65.85 160.466 65.9007C160.324 65.9513 160.178 65.9887 160.026 66.0127C159.876 66.0367 159.728 66.0487 159.582 66.0487C159.302 66.0487 159.042 66.002 158.802 65.9087C158.564 65.8127 158.358 65.674 158.182 65.4927C158.008 65.3087 157.872 65.082 157.774 64.8127C157.678 64.5407 157.63 64.2287 157.63 63.8767C157.63 63.594 157.674 63.3313 157.762 63.0887C157.85 62.8433 157.975 62.63 158.138 62.4487C158.303 62.2673 158.504 62.1247 158.742 62.0207C158.979 61.9167 159.246 61.8647 159.542 61.8647C159.79 61.8647 160.018 61.906 160.226 61.9887C160.436 62.0687 160.618 62.186 160.77 62.3407C160.922 62.4953 161.04 62.686 161.126 62.9127C161.214 63.1393 161.258 63.398 161.258 63.6887C161.258 63.8087 161.244 63.89 161.218 63.9327C161.191 63.9727 161.142 63.9927 161.07 63.9927H158.406C158.414 64.2353 158.448 64.4473 158.51 64.6287C158.571 64.8073 158.655 64.9567 158.762 65.0767C158.871 65.1967 159 65.286 159.15 65.3447C159.299 65.4033 159.466 65.4327 159.65 65.4327C159.823 65.4327 159.972 65.4127 160.098 65.3727C160.226 65.3327 160.335 65.29 160.426 65.2447C160.519 65.1967 160.596 65.1527 160.658 65.1127C160.722 65.0727 160.778 65.0527 160.826 65.0527C160.89 65.0527 160.939 65.0767 160.974 65.1247L161.198 65.4127ZM164.492 62.6287C164.471 62.6633 164.448 62.6887 164.424 62.7047C164.4 62.718 164.369 62.7247 164.332 62.7247C164.289 62.7247 164.241 62.71 164.188 62.6807C164.137 62.6513 164.075 62.6193 164 62.5847C163.928 62.55 163.843 62.518 163.744 62.4887C163.645 62.4593 163.528 62.4447 163.392 62.4447C163.28 62.4447 163.177 62.4593 163.084 62.4887C162.993 62.5153 162.916 62.554 162.852 62.6047C162.788 62.6527 162.739 62.7113 162.704 62.7807C162.669 62.8473 162.652 62.9193 162.652 62.9967C162.652 63.098 162.681 63.182 162.74 63.2487C162.801 63.3153 162.88 63.3727 162.976 63.4207C163.075 63.4687 163.185 63.5127 163.308 63.5527C163.433 63.59 163.56 63.63 163.688 63.6727C163.819 63.7153 163.945 63.7647 164.068 63.8207C164.193 63.874 164.304 63.942 164.4 64.0247C164.499 64.1047 164.577 64.202 164.636 64.3167C164.697 64.4313 164.728 64.5713 164.728 64.7367C164.728 64.926 164.693 65.102 164.624 65.2647C164.557 65.4247 164.457 65.5633 164.324 65.6807C164.193 65.798 164.031 65.89 163.836 65.9567C163.641 66.0233 163.419 66.0567 163.168 66.0567C162.888 66.0567 162.629 66.01 162.392 65.9167C162.155 65.8233 161.956 65.7047 161.796 65.5607L161.98 65.2607C162.001 65.2233 162.028 65.1953 162.06 65.1767C162.092 65.1553 162.135 65.1447 162.188 65.1447C162.239 65.1447 162.291 65.1633 162.344 65.2007C162.397 65.238 162.461 65.2793 162.536 65.3247C162.611 65.3673 162.701 65.4073 162.808 65.4447C162.915 65.4793 163.048 65.4967 163.208 65.4967C163.341 65.4967 163.457 65.4807 163.556 65.4487C163.655 65.414 163.736 65.3687 163.8 65.3127C163.867 65.254 163.916 65.1873 163.948 65.1127C163.98 65.038 163.996 64.9593 163.996 64.8767C163.996 64.77 163.965 64.682 163.904 64.6127C163.845 64.5407 163.767 64.4793 163.668 64.4287C163.572 64.378 163.461 64.334 163.336 64.2967C163.211 64.2593 163.083 64.2193 162.952 64.1767C162.821 64.134 162.693 64.0847 162.568 64.0287C162.443 63.9727 162.331 63.902 162.232 63.8167C162.136 63.7313 162.057 63.6273 161.996 63.5047C161.937 63.382 161.908 63.2327 161.908 63.0567C161.908 62.8993 161.94 62.7487 162.004 62.6047C162.071 62.4607 162.165 62.334 162.288 62.2247C162.413 62.1153 162.567 62.0287 162.748 61.9647C162.932 61.898 163.141 61.8647 163.376 61.8647C163.645 61.8647 163.888 61.9073 164.104 61.9927C164.323 62.078 164.509 62.1953 164.664 62.3447L164.492 62.6287ZM168.228 61.9447C168.228 62.2993 168.324 62.5727 168.516 62.7647C168.708 62.9567 168.975 63.0527 169.316 63.0527C169.5 63.0527 169.663 63.0233 169.804 62.9647C169.945 62.9033 170.064 62.8233 170.16 62.7247C170.259 62.6233 170.333 62.5073 170.384 62.3767C170.435 62.2433 170.46 62.1047 170.46 61.9607C170.46 61.7873 170.432 61.6313 170.376 61.4927C170.323 61.3513 170.247 61.2327 170.148 61.1367C170.049 61.038 169.932 60.9633 169.796 60.9127C169.663 60.8593 169.515 60.8327 169.352 60.8327C169.184 60.8327 169.031 60.8607 168.892 60.9167C168.753 60.97 168.635 61.046 168.536 61.1447C168.437 61.2433 168.361 61.3607 168.308 61.4967C168.255 61.6327 168.228 61.782 168.228 61.9447ZM169.804 63.7207C169.908 63.5847 170.005 63.4513 170.096 63.3207C169.952 63.43 169.791 63.5127 169.612 63.5687C169.436 63.6247 169.248 63.6527 169.048 63.6527C168.837 63.6527 168.635 63.6167 168.44 63.5447C168.248 63.4727 168.077 63.3673 167.928 63.2287C167.781 63.0873 167.664 62.914 167.576 62.7087C167.488 62.5033 167.444 62.2673 167.444 62.0007C167.444 61.75 167.491 61.514 167.584 61.2927C167.677 61.0713 167.808 60.8793 167.976 60.7167C168.147 60.5513 168.349 60.422 168.584 60.3287C168.821 60.2327 169.081 60.1847 169.364 60.1847C169.644 60.1847 169.897 60.23 170.124 60.3207C170.353 60.4113 170.548 60.5393 170.708 60.7047C170.868 60.8673 170.992 61.0633 171.08 61.2927C171.168 61.522 171.212 61.774 171.212 62.0487C171.212 62.2167 171.196 62.3767 171.164 62.5287C171.135 62.6807 171.091 62.8287 171.032 62.9727C170.976 63.1167 170.907 63.2593 170.824 63.4007C170.744 63.5393 170.652 63.682 170.548 63.8287L169.168 65.8087C169.131 65.862 169.076 65.906 169.004 65.9407C168.935 65.9753 168.855 65.9927 168.764 65.9927H168.048L169.804 63.7207ZM176.097 63.1207C176.097 63.622 176.042 64.0567 175.933 64.4247C175.826 64.7927 175.678 65.098 175.489 65.3407C175.302 65.5807 175.081 65.7593 174.825 65.8767C174.571 65.994 174.298 66.0527 174.005 66.0527C173.711 66.0527 173.437 65.994 173.181 65.8767C172.927 65.7593 172.707 65.5807 172.521 65.3407C172.334 65.098 172.187 64.7927 172.081 64.4247C171.974 64.0567 171.921 63.622 171.921 63.1207C171.921 62.6193 171.974 62.1847 172.081 61.8167C172.187 61.446 172.334 61.1407 172.521 60.9007C172.707 60.658 172.927 60.478 173.181 60.3607C173.437 60.2433 173.711 60.1847 174.005 60.1847C174.298 60.1847 174.571 60.2433 174.825 60.3607C175.081 60.478 175.302 60.658 175.489 60.9007C175.678 61.1407 175.826 61.446 175.933 61.8167C176.042 62.1847 176.097 62.6193 176.097 63.1207ZM175.289 63.1207C175.289 62.6887 175.253 62.3273 175.181 62.0367C175.111 61.746 175.017 61.5127 174.897 61.3367C174.779 61.158 174.643 61.0313 174.489 60.9567C174.334 60.882 174.173 60.8447 174.005 60.8447C173.837 60.8447 173.675 60.882 173.521 60.9567C173.366 61.0313 173.229 61.158 173.109 61.3367C172.991 61.5127 172.898 61.746 172.829 62.0367C172.759 62.3273 172.725 62.6887 172.725 63.1207C172.725 63.5527 172.759 63.914 172.829 64.2047C172.898 64.4953 172.991 64.7287 173.109 64.9047C173.229 65.0807 173.366 65.206 173.521 65.2807C173.675 65.3553 173.837 65.3927 174.005 65.3927C174.173 65.3927 174.334 65.3553 174.489 65.2807C174.643 65.206 174.779 65.0807 174.897 64.9047C175.017 64.7287 175.111 64.4953 175.181 64.2047C175.253 63.914 175.289 63.5527 175.289 63.1207ZM179.241 61.6367C179.241 61.8607 179.205 62.0607 179.133 62.2367C179.064 62.4127 178.971 62.562 178.853 62.6847C178.736 62.8047 178.599 62.898 178.441 62.9647C178.287 63.0287 178.124 63.0607 177.953 63.0607C177.769 63.0607 177.599 63.0287 177.441 62.9647C177.287 62.898 177.152 62.8047 177.037 62.6847C176.923 62.562 176.832 62.4127 176.765 62.2367C176.701 62.0607 176.669 61.8607 176.669 61.6367C176.669 61.4073 176.701 61.2033 176.765 61.0247C176.832 60.846 176.923 60.6953 177.037 60.5727C177.152 60.4473 177.287 60.3527 177.441 60.2887C177.599 60.222 177.769 60.1887 177.953 60.1887C178.137 60.1887 178.307 60.222 178.461 60.2887C178.619 60.3527 178.755 60.4473 178.869 60.5727C178.987 60.6953 179.077 60.846 179.141 61.0247C179.208 61.2033 179.241 61.4073 179.241 61.6367ZM178.633 61.6367C178.633 61.466 178.615 61.322 178.577 61.2047C178.543 61.0847 178.495 60.9887 178.433 60.9167C178.372 60.842 178.3 60.7887 178.217 60.7567C178.135 60.722 178.047 60.7047 177.953 60.7047C177.86 60.7047 177.772 60.722 177.689 60.7567C177.607 60.7887 177.535 60.842 177.473 60.9167C177.415 60.9887 177.368 61.0847 177.333 61.2047C177.299 61.322 177.281 61.466 177.281 61.6367C177.281 61.802 177.299 61.9433 177.333 62.0607C177.368 62.1753 177.415 62.2687 177.473 62.3407C177.535 62.4127 177.607 62.4647 177.689 62.4967C177.772 62.5287 177.86 62.5447 177.953 62.5447C178.047 62.5447 178.135 62.5287 178.217 62.4967C178.3 62.4647 178.372 62.4127 178.433 62.3407C178.495 62.2687 178.543 62.1753 178.577 62.0607C178.615 61.9433 178.633 61.802 178.633 61.6367ZM181.241 60.3767C181.271 60.342 181.304 60.3127 181.341 60.2887C181.381 60.262 181.436 60.2487 181.505 60.2487H182.069L177.853 65.8687C177.824 65.906 177.789 65.9367 177.749 65.9607C177.709 65.982 177.661 65.9927 177.605 65.9927H177.025L181.241 60.3767ZM182.437 64.6367C182.437 64.8607 182.401 65.0607 182.329 65.2367C182.26 65.4127 182.167 65.562 182.049 65.6847C181.932 65.8047 181.795 65.898 181.637 65.9647C181.483 66.0287 181.32 66.0607 181.149 66.0607C180.965 66.0607 180.795 66.0287 180.637 65.9647C180.483 65.898 180.348 65.8047 180.233 65.6847C180.119 65.562 180.028 65.4127 179.961 65.2367C179.897 65.0607 179.865 64.8607 179.865 64.6367C179.865 64.4073 179.897 64.2033 179.961 64.0247C180.028 63.846 180.119 63.6953 180.233 63.5727C180.348 63.4473 180.483 63.3527 180.637 63.2887C180.795 63.2247 180.965 63.1927 181.149 63.1927C181.333 63.1927 181.503 63.2247 181.657 63.2887C181.815 63.3527 181.951 63.4473 182.065 63.5727C182.183 63.6953 182.273 63.846 182.337 64.0247C182.404 64.2033 182.437 64.4073 182.437 64.6367ZM181.829 64.6367C181.829 64.466 181.811 64.322 181.773 64.2047C181.739 64.0873 181.691 63.9927 181.629 63.9207C181.568 63.846 181.496 63.7927 181.413 63.7607C181.331 63.726 181.243 63.7087 181.149 63.7087C181.053 63.7087 180.964 63.726 180.881 63.7607C180.801 63.7927 180.731 63.846 180.669 63.9207C180.611 63.9927 180.564 64.0873 180.529 64.2047C180.495 64.322 180.477 64.466 180.477 64.6367C180.477 64.8047 180.495 64.946 180.529 65.0607C180.564 65.1753 180.611 65.2687 180.669 65.3407C180.731 65.4127 180.801 65.4647 180.881 65.4967C180.964 65.5287 181.053 65.5447 181.149 65.5447C181.243 65.5447 181.331 65.5287 181.413 65.4967C181.496 65.4647 181.568 65.4127 181.629 65.3407C181.691 65.2687 181.739 65.1753 181.773 65.0607C181.811 64.946 181.829 64.8047 181.829 64.6367ZM187.023 63.6047H185.411V65.3047H184.775V63.6047H183.171V63.0127H184.775V61.3207H185.411V63.0127H187.023V63.6047ZM191.719 61.8647C192.017 61.8647 192.287 61.914 192.527 62.0127C192.769 62.1087 192.975 62.2487 193.143 62.4327C193.313 62.614 193.444 62.834 193.535 63.0927C193.625 63.3487 193.671 63.6367 193.671 63.9567C193.671 64.2767 193.625 64.566 193.535 64.8247C193.444 65.0833 193.313 65.3033 193.143 65.4847C192.975 65.666 192.769 65.806 192.527 65.9047C192.287 66.0007 192.017 66.0487 191.719 66.0487C191.417 66.0487 191.145 66.0007 190.903 65.9047C190.663 65.806 190.457 65.666 190.287 65.4847C190.116 65.3033 189.984 65.0833 189.891 64.8247C189.8 64.566 189.755 64.2767 189.755 63.9567C189.755 63.6367 189.8 63.3487 189.891 63.0927C189.984 62.834 190.116 62.614 190.287 62.4327C190.457 62.2487 190.663 62.1087 190.903 62.0127C191.145 61.914 191.417 61.8647 191.719 61.8647ZM191.719 65.4407C192.103 65.4407 192.389 65.3113 192.579 65.0527C192.768 64.794 192.863 64.43 192.863 63.9607C192.863 63.4913 192.768 63.1273 192.579 62.8687C192.389 62.6073 192.103 62.4767 191.719 62.4767C191.329 62.4767 191.039 62.6073 190.847 62.8687C190.657 63.1273 190.563 63.4913 190.563 63.9607C190.563 64.43 190.657 64.794 190.847 65.0527C191.039 65.3113 191.329 65.4407 191.719 65.4407ZM194.716 65.9927V62.5687L194.292 62.5167C194.23 62.5033 194.18 62.482 194.14 62.4527C194.102 62.4207 194.084 62.3753 194.084 62.3167V61.9927H194.716V61.6247C194.716 61.3927 194.749 61.186 194.816 61.0047C194.882 60.8233 194.977 60.67 195.1 60.5447C195.225 60.4167 195.374 60.3207 195.548 60.2567C195.724 60.19 195.921 60.1567 196.14 60.1567C196.324 60.1567 196.493 60.1833 196.648 60.2367L196.632 60.6287C196.629 60.6633 196.618 60.69 196.6 60.7087C196.581 60.7247 196.556 60.7367 196.524 60.7447C196.494 60.7527 196.457 60.758 196.412 60.7607C196.369 60.7607 196.322 60.7607 196.272 60.7607C196.152 60.7607 196.042 60.7753 195.944 60.8047C195.845 60.834 195.761 60.8833 195.692 60.9527C195.622 61.022 195.569 61.114 195.532 61.2287C195.494 61.3407 195.476 61.4807 195.476 61.6487V61.9927H196.616V62.5607H195.5V65.9927H194.716ZM140.191 71.8527L139.339 69.6247C139.278 69.4727 139.216 69.2807 139.155 69.0487C139.126 69.1633 139.095 69.27 139.063 69.3687C139.034 69.4673 139.004 69.5553 138.975 69.6327L138.127 71.8527H140.191ZM141.875 73.9927H141.219C141.144 73.9927 141.083 73.974 141.035 73.9367C140.987 73.8993 140.952 73.8513 140.931 73.7927L140.423 72.4607H137.891L137.383 73.7927C137.364 73.8433 137.33 73.89 137.279 73.9327C137.228 73.9727 137.167 73.9927 137.095 73.9927H136.439L138.727 68.2487H139.587L141.875 73.9927ZM142.416 73.9927V69.9287H142.884C142.994 69.9287 143.062 69.9807 143.088 70.0847L143.144 70.4727C143.294 70.294 143.459 70.1487 143.64 70.0367C143.824 69.922 144.039 69.8647 144.284 69.8647C144.554 69.8647 144.772 69.9393 144.94 70.0887C145.108 70.2353 145.231 70.4353 145.308 70.6887C145.367 70.5447 145.443 70.4207 145.536 70.3167C145.63 70.2127 145.734 70.1273 145.848 70.0607C145.963 69.994 146.084 69.9447 146.212 69.9127C146.343 69.8807 146.475 69.8647 146.608 69.8647C146.824 69.8647 147.016 69.8993 147.184 69.9687C147.355 70.0353 147.499 70.134 147.616 70.2647C147.734 70.3953 147.823 70.5567 147.884 70.7487C147.946 70.9407 147.976 71.1593 147.976 71.4047V73.9927H147.192V71.4047C147.192 71.1007 147.126 70.8713 146.992 70.7167C146.862 70.562 146.67 70.4847 146.416 70.4847C146.304 70.4847 146.198 70.5047 146.096 70.5447C145.995 70.582 145.906 70.6393 145.828 70.7167C145.754 70.794 145.694 70.89 145.648 71.0047C145.606 71.1193 145.584 71.2527 145.584 71.4047V73.9927H144.8V71.4047C144.8 71.09 144.738 70.858 144.612 70.7087C144.487 70.5593 144.303 70.4847 144.06 70.4847C143.892 70.4847 143.736 70.5287 143.592 70.6167C143.448 70.7047 143.316 70.8247 143.196 70.9767V73.9927H142.416ZM151.718 71.5087C151.718 71.354 151.695 71.2113 151.65 71.0807C151.607 70.95 151.543 70.8367 151.458 70.7407C151.372 70.6447 151.268 70.57 151.146 70.5167C151.023 70.4633 150.882 70.4367 150.722 70.4367C150.394 70.4367 150.135 70.5313 149.946 70.7207C149.759 70.91 149.64 71.1727 149.59 71.5087H151.718ZM152.362 73.4127C152.266 73.5247 152.155 73.622 152.03 73.7047C151.904 73.7847 151.771 73.85 151.63 73.9007C151.488 73.9513 151.342 73.9887 151.19 74.0127C151.04 74.0367 150.892 74.0487 150.746 74.0487C150.466 74.0487 150.206 74.002 149.966 73.9087C149.728 73.8127 149.522 73.674 149.346 73.4927C149.172 73.3087 149.036 73.082 148.938 72.8127C148.842 72.5407 148.794 72.2287 148.794 71.8767C148.794 71.594 148.838 71.3313 148.926 71.0887C149.014 70.8433 149.139 70.63 149.302 70.4487C149.467 70.2673 149.668 70.1247 149.906 70.0207C150.143 69.9167 150.41 69.8647 150.706 69.8647C150.954 69.8647 151.182 69.906 151.39 69.9887C151.6 70.0687 151.782 70.186 151.934 70.3407C152.086 70.4953 152.204 70.686 152.29 70.9127C152.378 71.1393 152.422 71.398 152.422 71.6887C152.422 71.8087 152.408 71.89 152.382 71.9327C152.355 71.9727 152.306 71.9927 152.234 71.9927H149.57C149.578 72.2353 149.612 72.4473 149.674 72.6287C149.735 72.8073 149.819 72.9567 149.926 73.0767C150.035 73.1967 150.164 73.286 150.314 73.3447C150.463 73.4033 150.63 73.4327 150.814 73.4327C150.987 73.4327 151.136 73.4127 151.262 73.3727C151.39 73.3327 151.499 73.29 151.59 73.2447C151.683 73.1967 151.76 73.1527 151.822 73.1127C151.886 73.0727 151.942 73.0527 151.99 73.0527C152.054 73.0527 152.103 73.0767 152.138 73.1247L152.362 73.4127ZM153.996 70.7087C154.127 70.442 154.284 70.2327 154.468 70.0807C154.652 69.9287 154.873 69.8527 155.132 69.8527C155.22 69.8527 155.303 69.8633 155.38 69.8847C155.46 69.9033 155.529 69.9327 155.588 69.9727L155.536 70.5607C155.517 70.6327 155.473 70.6687 155.404 70.6687C155.367 70.6687 155.311 70.662 155.236 70.6487C155.161 70.6327 155.081 70.6247 154.996 70.6247C154.871 70.6247 154.76 70.6433 154.664 70.6807C154.568 70.7153 154.481 70.7687 154.404 70.8407C154.329 70.91 154.263 70.9967 154.204 71.1007C154.145 71.202 154.091 71.318 154.04 71.4487V73.9927H153.26V69.9287H153.708C153.793 69.9287 153.851 69.9447 153.88 69.9767C153.912 70.006 153.935 70.0593 153.948 70.1367L153.996 70.7087ZM157.006 69.9287V73.9927H156.226V69.9287H157.006ZM157.154 68.6727C157.154 68.7447 157.139 68.814 157.11 68.8807C157.081 68.9447 157.041 69.002 156.99 69.0527C156.942 69.1007 156.885 69.1393 156.818 69.1687C156.751 69.1953 156.682 69.2087 156.61 69.2087C156.538 69.2087 156.47 69.1953 156.406 69.1687C156.342 69.1393 156.285 69.1007 156.234 69.0527C156.186 69.002 156.147 68.9447 156.118 68.8807C156.091 68.814 156.078 68.7447 156.078 68.6727C156.078 68.598 156.091 68.5287 156.118 68.4647C156.147 68.398 156.186 68.3407 156.234 68.2927C156.285 68.242 156.342 68.2033 156.406 68.1767C156.47 68.1473 156.538 68.1327 156.61 68.1327C156.682 68.1327 156.751 68.1473 156.818 68.1767C156.885 68.2033 156.942 68.242 156.99 68.2927C157.041 68.3407 157.081 68.398 157.11 68.4647C157.139 68.5287 157.154 68.598 157.154 68.6727ZM160.983 70.6887C160.959 70.718 160.935 70.742 160.911 70.7607C160.89 70.7767 160.858 70.7847 160.815 70.7847C160.772 70.7847 160.727 70.7687 160.679 70.7367C160.634 70.702 160.575 70.666 160.503 70.6287C160.434 70.5887 160.348 70.5527 160.247 70.5207C160.148 70.486 160.026 70.4687 159.879 70.4687C159.687 70.4687 159.518 70.5033 159.371 70.5727C159.224 70.642 159.102 70.7407 159.003 70.8687C158.907 70.9967 158.834 71.1527 158.783 71.3367C158.732 71.5207 158.707 71.7273 158.707 71.9567C158.707 72.194 158.734 72.406 158.787 72.5927C158.84 72.7767 158.916 72.9327 159.015 73.0607C159.114 73.186 159.234 73.282 159.375 73.3487C159.516 73.4127 159.674 73.4447 159.847 73.4447C160.015 73.4447 160.154 73.4247 160.263 73.3847C160.372 73.342 160.463 73.2967 160.535 73.2487C160.607 73.2007 160.667 73.1567 160.715 73.1167C160.763 73.074 160.812 73.0527 160.863 73.0527C160.927 73.0527 160.976 73.0767 161.011 73.1247L161.235 73.4127C161.142 73.5273 161.036 73.6247 160.919 73.7047C160.804 73.7847 160.682 73.85 160.551 73.9007C160.42 73.9513 160.283 73.9887 160.139 74.0127C159.998 74.0367 159.854 74.0487 159.707 74.0487C159.454 74.0487 159.216 74.002 158.995 73.9087C158.776 73.8153 158.586 73.6793 158.423 73.5007C158.263 73.322 158.136 73.1033 158.043 72.8447C157.95 72.5833 157.903 72.2873 157.903 71.9567C157.903 71.6553 157.944 71.3767 158.027 71.1207C158.112 70.8647 158.236 70.6447 158.399 70.4607C158.564 70.274 158.767 70.1287 159.007 70.0247C159.247 69.918 159.522 69.8647 159.831 69.8647C160.122 69.8647 160.378 69.9113 160.599 70.0047C160.82 70.098 161.018 70.23 161.191 70.4007L160.983 70.6887ZM164.147 72.1887C163.83 72.1993 163.561 72.2247 163.339 72.2647C163.118 72.302 162.938 72.3527 162.799 72.4167C162.661 72.4807 162.561 72.5567 162.499 72.6447C162.438 72.73 162.407 72.826 162.407 72.9327C162.407 73.034 162.423 73.122 162.455 73.1967C162.49 73.2687 162.535 73.3287 162.591 73.3767C162.65 73.422 162.718 73.4553 162.795 73.4767C162.873 73.498 162.957 73.5087 163.047 73.5087C163.167 73.5087 163.277 73.4967 163.375 73.4727C163.477 73.4487 163.571 73.4153 163.659 73.3727C163.747 73.3273 163.831 73.2727 163.911 73.2087C163.991 73.1447 164.07 73.0713 164.147 72.9887V72.1887ZM161.859 70.4967C162.086 70.2807 162.331 70.1193 162.595 70.0127C162.862 69.906 163.154 69.8527 163.471 69.8527C163.703 69.8527 163.909 69.8913 164.087 69.9687C164.266 70.0433 164.417 70.1487 164.539 70.2847C164.662 70.4207 164.754 70.5833 164.815 70.7727C164.879 70.962 164.911 71.1713 164.911 71.4007V73.9927H164.563C164.486 73.9927 164.427 73.9807 164.387 73.9567C164.347 73.93 164.315 73.882 164.291 73.8127L164.207 73.4567C164.103 73.5527 164.001 73.638 163.899 73.7127C163.798 73.7847 163.691 73.8473 163.579 73.9007C163.47 73.9513 163.353 73.99 163.227 74.0167C163.102 74.0433 162.963 74.0567 162.811 74.0567C162.651 74.0567 162.501 74.0353 162.359 73.9927C162.221 73.9473 162.099 73.8793 161.995 73.7887C161.891 73.698 161.809 73.5847 161.747 73.4487C161.689 73.3127 161.659 73.154 161.659 72.9727C161.659 72.8127 161.702 72.6593 161.787 72.5127C161.875 72.3633 162.017 72.23 162.211 72.1127C162.409 71.9953 162.665 71.8993 162.979 71.8247C163.297 71.75 163.686 71.7073 164.147 71.6967V71.4007C164.147 71.094 164.082 70.8647 163.951 70.7127C163.821 70.5607 163.629 70.4847 163.375 70.4847C163.205 70.4847 163.061 70.506 162.943 70.5487C162.829 70.5913 162.729 70.6393 162.643 70.6927C162.561 70.7433 162.487 70.79 162.423 70.8327C162.362 70.8753 162.298 70.8967 162.231 70.8967C162.178 70.8967 162.131 70.882 162.091 70.8527C162.054 70.8233 162.023 70.7887 161.999 70.7487L161.859 70.4967ZM166.478 68.2487V69.4047L166.406 70.0287C166.392 70.122 166.366 70.194 166.326 70.2447C166.288 70.2953 166.224 70.3207 166.134 70.3207C166.056 70.3207 165.996 70.2953 165.954 70.2447C165.914 70.194 165.886 70.122 165.87 70.0287L165.798 69.4047V68.2487H166.478ZM169.828 70.6287C169.807 70.6633 169.784 70.6887 169.76 70.7047C169.736 70.718 169.705 70.7247 169.668 70.7247C169.625 70.7247 169.577 70.71 169.524 70.6807C169.473 70.6513 169.411 70.6193 169.336 70.5847C169.264 70.55 169.179 70.518 169.08 70.4887C168.981 70.4593 168.864 70.4447 168.728 70.4447C168.616 70.4447 168.513 70.4593 168.42 70.4887C168.329 70.5153 168.252 70.554 168.188 70.6047C168.124 70.6527 168.075 70.7113 168.04 70.7807C168.005 70.8473 167.988 70.9193 167.988 70.9967C167.988 71.098 168.017 71.182 168.076 71.2487C168.137 71.3153 168.216 71.3727 168.312 71.4207C168.411 71.4687 168.521 71.5127 168.644 71.5527C168.769 71.59 168.896 71.63 169.024 71.6727C169.155 71.7153 169.281 71.7647 169.404 71.8207C169.529 71.874 169.64 71.942 169.736 72.0247C169.835 72.1047 169.913 72.202 169.972 72.3167C170.033 72.4313 170.064 72.5713 170.064 72.7367C170.064 72.926 170.029 73.102 169.96 73.2647C169.893 73.4247 169.793 73.5633 169.66 73.6807C169.529 73.798 169.367 73.89 169.172 73.9567C168.977 74.0233 168.755 74.0567 168.504 74.0567C168.224 74.0567 167.965 74.01 167.728 73.9167C167.491 73.8233 167.292 73.7047 167.132 73.5607L167.316 73.2607C167.337 73.2233 167.364 73.1953 167.396 73.1767C167.428 73.1553 167.471 73.1447 167.524 73.1447C167.575 73.1447 167.627 73.1633 167.68 73.2007C167.733 73.238 167.797 73.2793 167.872 73.3247C167.947 73.3673 168.037 73.4073 168.144 73.4447C168.251 73.4793 168.384 73.4967 168.544 73.4967C168.677 73.4967 168.793 73.4807 168.892 73.4487C168.991 73.414 169.072 73.3687 169.136 73.3127C169.203 73.254 169.252 73.1873 169.284 73.1127C169.316 73.038 169.332 72.9593 169.332 72.8767C169.332 72.77 169.301 72.682 169.24 72.6127C169.181 72.5407 169.103 72.4793 169.004 72.4287C168.908 72.378 168.797 72.334 168.672 72.2967C168.547 72.2593 168.419 72.2193 168.288 72.1767C168.157 72.134 168.029 72.0847 167.904 72.0287C167.779 71.9727 167.667 71.902 167.568 71.8167C167.472 71.7313 167.393 71.6273 167.332 71.5047C167.273 71.382 167.244 71.2327 167.244 71.0567C167.244 70.8993 167.276 70.7487 167.34 70.6047C167.407 70.4607 167.501 70.334 167.624 70.2247C167.749 70.1153 167.903 70.0287 168.084 69.9647C168.268 69.898 168.477 69.8647 168.712 69.8647C168.981 69.8647 169.224 69.9073 169.44 69.9927C169.659 70.078 169.845 70.1953 170 70.3447L169.828 70.6287ZM175.624 71.5087C175.624 71.354 175.601 71.2113 175.556 71.0807C175.513 70.95 175.449 70.8367 175.364 70.7407C175.279 70.6447 175.175 70.57 175.052 70.5167C174.929 70.4633 174.788 70.4367 174.628 70.4367C174.3 70.4367 174.041 70.5313 173.852 70.7207C173.665 70.91 173.547 71.1727 173.496 71.5087H175.624ZM176.268 73.4127C176.172 73.5247 176.061 73.622 175.936 73.7047C175.811 73.7847 175.677 73.85 175.536 73.9007C175.395 73.9513 175.248 73.9887 175.096 74.0127C174.947 74.0367 174.799 74.0487 174.652 74.0487C174.372 74.0487 174.112 74.002 173.872 73.9087C173.635 73.8127 173.428 73.674 173.252 73.4927C173.079 73.3087 172.943 73.082 172.844 72.8127C172.748 72.5407 172.7 72.2287 172.7 71.8767C172.7 71.594 172.744 71.3313 172.832 71.0887C172.92 70.8433 173.045 70.63 173.208 70.4487C173.373 70.2673 173.575 70.1247 173.812 70.0207C174.049 69.9167 174.316 69.8647 174.612 69.8647C174.86 69.8647 175.088 69.906 175.296 69.9887C175.507 70.0687 175.688 70.186 175.84 70.3407C175.992 70.4953 176.111 70.686 176.196 70.9127C176.284 71.1393 176.328 71.398 176.328 71.6887C176.328 71.8087 176.315 71.89 176.288 71.9327C176.261 71.9727 176.212 71.9927 176.14 71.9927H173.476C173.484 72.2353 173.519 72.4473 173.58 72.6287C173.641 72.8073 173.725 72.9567 173.832 73.0767C173.941 73.1967 174.071 73.286 174.22 73.3447C174.369 73.4033 174.536 73.4327 174.72 73.4327C174.893 73.4327 175.043 73.4127 175.168 73.3727C175.296 73.3327 175.405 73.29 175.496 73.2447C175.589 73.1967 175.667 73.1527 175.728 73.1127C175.792 73.0727 175.848 73.0527 175.896 73.0527C175.96 73.0527 176.009 73.0767 176.044 73.1247L176.268 73.4127ZM177.966 68.0887V73.9927H177.182V68.0887H177.966ZM181.772 71.5087C181.772 71.354 181.75 71.2113 181.704 71.0807C181.662 70.95 181.598 70.8367 181.512 70.7407C181.427 70.6447 181.323 70.57 181.2 70.5167C181.078 70.4633 180.936 70.4367 180.776 70.4367C180.448 70.4367 180.19 70.5313 180 70.7207C179.814 70.91 179.695 71.1727 179.644 71.5087H181.772ZM182.416 73.4127C182.32 73.5247 182.21 73.622 182.084 73.7047C181.959 73.7847 181.826 73.85 181.684 73.9007C181.543 73.9513 181.396 73.9887 181.244 74.0127C181.095 74.0367 180.947 74.0487 180.8 74.0487C180.52 74.0487 180.26 74.002 180.02 73.9087C179.783 73.8127 179.576 73.674 179.4 73.4927C179.227 73.3087 179.091 73.082 178.992 72.8127C178.896 72.5407 178.848 72.2287 178.848 71.8767C178.848 71.594 178.892 71.3313 178.98 71.0887C179.068 70.8433 179.194 70.63 179.356 70.4487C179.522 70.2673 179.723 70.1247 179.96 70.0207C180.198 69.9167 180.464 69.8647 180.76 69.8647C181.008 69.8647 181.236 69.906 181.444 69.9887C181.655 70.0687 181.836 70.186 181.988 70.3407C182.14 70.4953 182.259 70.686 182.344 70.9127C182.432 71.1393 182.476 71.398 182.476 71.6887C182.476 71.8087 182.463 71.89 182.436 71.9327C182.41 71.9727 182.36 71.9927 182.288 71.9927H179.624C179.632 72.2353 179.667 72.4473 179.728 72.6287C179.79 72.8073 179.874 72.9567 179.98 73.0767C180.09 73.1967 180.219 73.286 180.368 73.3447C180.518 73.4033 180.684 73.4327 180.868 73.4327C181.042 73.4327 181.191 73.4127 181.316 73.3727C181.444 73.3327 181.554 73.29 181.644 73.2447C181.738 73.1967 181.815 73.1527 181.876 73.1127C181.94 73.0727 181.996 73.0527 182.044 73.0527C182.108 73.0527 182.158 73.0767 182.192 73.1247L182.416 73.4127ZM186.163 70.6887C186.139 70.718 186.115 70.742 186.091 70.7607C186.07 70.7767 186.038 70.7847 185.995 70.7847C185.952 70.7847 185.907 70.7687 185.859 70.7367C185.814 70.702 185.755 70.666 185.683 70.6287C185.614 70.5887 185.528 70.5527 185.427 70.5207C185.328 70.486 185.206 70.4687 185.059 70.4687C184.867 70.4687 184.698 70.5033 184.551 70.5727C184.404 70.642 184.282 70.7407 184.183 70.8687C184.087 70.9967 184.014 71.1527 183.963 71.3367C183.912 71.5207 183.887 71.7273 183.887 71.9567C183.887 72.194 183.914 72.406 183.967 72.5927C184.02 72.7767 184.096 72.9327 184.195 73.0607C184.294 73.186 184.414 73.282 184.555 73.3487C184.696 73.4127 184.854 73.4447 185.027 73.4447C185.195 73.4447 185.334 73.4247 185.443 73.3847C185.552 73.342 185.643 73.2967 185.715 73.2487C185.787 73.2007 185.847 73.1567 185.895 73.1167C185.943 73.074 185.992 73.0527 186.043 73.0527C186.107 73.0527 186.156 73.0767 186.191 73.1247L186.415 73.4127C186.322 73.5273 186.216 73.6247 186.099 73.7047C185.984 73.7847 185.862 73.85 185.731 73.9007C185.6 73.9513 185.463 73.9887 185.319 74.0127C185.178 74.0367 185.034 74.0487 184.887 74.0487C184.634 74.0487 184.396 74.002 184.175 73.9087C183.956 73.8153 183.766 73.6793 183.603 73.5007C183.443 73.322 183.316 73.1033 183.223 72.8447C183.13 72.5833 183.083 72.2873 183.083 71.9567C183.083 71.6553 183.124 71.3767 183.207 71.1207C183.292 70.8647 183.416 70.6447 183.579 70.4607C183.744 70.274 183.947 70.1287 184.187 70.0247C184.427 69.918 184.702 69.8647 185.011 69.8647C185.302 69.8647 185.558 69.9113 185.779 70.0047C186 70.098 186.198 70.23 186.371 70.4007L186.163 70.6887ZM188.415 74.0567C188.087 74.0567 187.834 73.9647 187.655 73.7807C187.479 73.5967 187.391 73.334 187.391 72.9927V70.5607H186.919C186.874 70.5607 186.835 70.5473 186.803 70.5207C186.774 70.4913 186.759 70.4487 186.759 70.3927V70.0767L187.419 69.9847L187.595 68.7727C187.606 68.7273 187.626 68.6927 187.655 68.6687C187.687 68.642 187.727 68.6287 187.775 68.6287H188.171V69.9927H189.323V70.5607H188.171V72.9407C188.171 73.1007 188.21 73.2207 188.287 73.3007C188.367 73.378 188.468 73.4167 188.591 73.4167C188.663 73.4167 188.724 73.4073 188.775 73.3887C188.828 73.37 188.874 73.35 188.911 73.3287C188.948 73.3047 188.98 73.2833 189.007 73.2647C189.034 73.246 189.058 73.2367 189.079 73.2367C189.106 73.2367 189.126 73.2433 189.139 73.2567C189.155 73.2673 189.171 73.286 189.187 73.3127L189.419 73.6887C189.291 73.806 189.139 73.8967 188.963 73.9607C188.787 74.0247 188.604 74.0567 188.415 74.0567ZM190.777 70.7087C190.908 70.442 191.065 70.2327 191.249 70.0807C191.433 69.9287 191.655 69.8527 191.913 69.8527C192.001 69.8527 192.084 69.8633 192.161 69.8847C192.241 69.9033 192.311 69.9327 192.369 69.9727L192.317 70.5607C192.299 70.6327 192.255 70.6687 192.185 70.6687C192.148 70.6687 192.092 70.662 192.017 70.6487C191.943 70.6327 191.863 70.6247 191.777 70.6247C191.652 70.6247 191.541 70.6433 191.445 70.6807C191.349 70.7153 191.263 70.7687 191.185 70.8407C191.111 70.91 191.044 70.9967 190.985 71.1007C190.927 71.202 190.872 71.318 190.821 71.4487V73.9927H190.041V69.9287H190.489C190.575 69.9287 190.632 69.9447 190.661 69.9767C190.693 70.006 190.716 70.0593 190.729 70.1367L190.777 70.7087ZM193.787 69.9287V73.9927H193.007V69.9287H193.787ZM193.935 68.6727C193.935 68.7447 193.92 68.814 193.891 68.8807C193.862 68.9447 193.822 69.002 193.771 69.0527C193.723 69.1007 193.666 69.1393 193.599 69.1687C193.532 69.1953 193.463 69.2087 193.391 69.2087C193.319 69.2087 193.251 69.1953 193.187 69.1687C193.123 69.1393 193.066 69.1007 193.015 69.0527C192.967 69.002 192.928 68.9447 192.899 68.8807C192.872 68.814 192.859 68.7447 192.859 68.6727C192.859 68.598 192.872 68.5287 192.899 68.4647C192.928 68.398 192.967 68.3407 193.015 68.2927C193.066 68.242 193.123 68.2033 193.187 68.1767C193.251 68.1473 193.319 68.1327 193.391 68.1327C193.463 68.1327 193.532 68.1473 193.599 68.1767C193.666 68.2033 193.723 68.242 193.771 68.2927C193.822 68.3407 193.862 68.398 193.891 68.4647C193.92 68.5287 193.935 68.598 193.935 68.6727ZM197.764 70.6887C197.74 70.718 197.716 70.742 197.692 70.7607C197.671 70.7767 197.639 70.7847 197.596 70.7847C197.554 70.7847 197.508 70.7687 197.46 70.7367C197.415 70.702 197.356 70.666 197.284 70.6287C197.215 70.5887 197.13 70.5527 197.028 70.5207C196.93 70.486 196.807 70.4687 196.66 70.4687C196.468 70.4687 196.299 70.5033 196.152 70.5727C196.006 70.642 195.883 70.7407 195.784 70.8687C195.688 70.9967 195.615 71.1527 195.564 71.3367C195.514 71.5207 195.488 71.7273 195.488 71.9567C195.488 72.194 195.515 72.406 195.568 72.5927C195.622 72.7767 195.698 72.9327 195.796 73.0607C195.895 73.186 196.015 73.282 196.156 73.3487C196.298 73.4127 196.455 73.4447 196.628 73.4447C196.796 73.4447 196.935 73.4247 197.044 73.3847C197.154 73.342 197.244 73.2967 197.316 73.2487C197.388 73.2007 197.448 73.1567 197.496 73.1167C197.544 73.074 197.594 73.0527 197.644 73.0527C197.708 73.0527 197.758 73.0767 197.792 73.1247L198.016 73.4127C197.923 73.5273 197.818 73.6247 197.7 73.7047C197.586 73.7847 197.463 73.85 197.332 73.9007C197.202 73.9513 197.064 73.9887 196.92 74.0127C196.779 74.0367 196.635 74.0487 196.488 74.0487C196.235 74.0487 195.998 74.002 195.776 73.9087C195.558 73.8153 195.367 73.6793 195.204 73.5007C195.044 73.322 194.918 73.1033 194.824 72.8447C194.731 72.5833 194.684 72.2873 194.684 71.9567C194.684 71.6553 194.726 71.3767 194.808 71.1207C194.894 70.8647 195.018 70.6447 195.18 70.4607C195.346 70.274 195.548 70.1287 195.788 70.0247C196.028 69.918 196.303 69.8647 196.612 69.8647C196.903 69.8647 197.159 69.9113 197.38 70.0047C197.602 70.098 197.799 70.23 197.972 70.4007L197.764 70.6887ZM200.929 72.1887C200.611 72.1993 200.342 72.2247 200.121 72.2647C199.899 72.302 199.719 72.3527 199.581 72.4167C199.442 72.4807 199.342 72.5567 199.281 72.6447C199.219 72.73 199.189 72.826 199.189 72.9327C199.189 73.034 199.205 73.122 199.237 73.1967C199.271 73.2687 199.317 73.3287 199.373 73.3767C199.431 73.422 199.499 73.4553 199.577 73.4767C199.654 73.498 199.738 73.5087 199.829 73.5087C199.949 73.5087 200.058 73.4967 200.157 73.4727C200.258 73.4487 200.353 73.4153 200.441 73.3727C200.529 73.3273 200.613 73.2727 200.693 73.2087C200.773 73.1447 200.851 73.0713 200.929 72.9887V72.1887ZM198.641 70.4967C198.867 70.2807 199.113 70.1193 199.377 70.0127C199.643 69.906 199.935 69.8527 200.253 69.8527C200.485 69.8527 200.69 69.8913 200.869 69.9687C201.047 70.0433 201.198 70.1487 201.321 70.2847C201.443 70.4207 201.535 70.5833 201.597 70.7727C201.661 70.962 201.693 71.1713 201.693 71.4007V73.9927H201.345C201.267 73.9927 201.209 73.9807 201.169 73.9567C201.129 73.93 201.097 73.882 201.073 73.8127L200.989 73.4567C200.885 73.5527 200.782 73.638 200.681 73.7127C200.579 73.7847 200.473 73.8473 200.361 73.9007C200.251 73.9513 200.134 73.99 200.009 74.0167C199.883 74.0433 199.745 74.0567 199.593 74.0567C199.433 74.0567 199.282 74.0353 199.141 73.9927C199.002 73.9473 198.881 73.8793 198.777 73.7887C198.673 73.698 198.59 73.5847 198.529 73.4487C198.47 73.3127 198.441 73.154 198.441 72.9727C198.441 72.8127 198.483 72.6593 198.569 72.5127C198.657 72.3633 198.798 72.23 198.993 72.1127C199.19 71.9953 199.446 71.8993 199.761 71.8247C200.078 71.75 200.467 71.7073 200.929 71.6967V71.4007C200.929 71.094 200.863 70.8647 200.733 70.7127C200.602 70.5607 200.41 70.4847 200.157 70.4847C199.986 70.4847 199.842 70.506 199.725 70.5487C199.61 70.5913 199.51 70.6393 199.425 70.6927C199.342 70.7433 199.269 70.79 199.205 70.8327C199.143 70.8753 199.079 70.8967 199.013 70.8967C198.959 70.8967 198.913 70.882 198.873 70.8527C198.835 70.8233 198.805 70.7887 198.781 70.7487L198.641 70.4967ZM203.537 68.0887V73.9927H202.753V68.0887H203.537Z" fill="black"/>
</svg>
