<svg width="697" height="352" viewBox="0 0 697 352" fill="none" xmlns="http://www.w3.org/2000/svg">
<path d="M138.43 258.13H190.78V275.13H138.43V258.13Z" fill="#FFC200"/>
<path d="M568.53 298.45H553.18L540.53 260.52L527.76 298.45H512.41L490.99 233.94H507.89L520.67 273.55L533.83 233.94H547.09L560.25 273.68L573.09 233.94H589.99L568.53 298.45Z" fill="#242423"/>
<path d="M485.48 270.71H436.48C437.136 274.878 439.154 278.711 442.22 281.61C445.028 284.256 448.752 285.711 452.61 285.67C459.943 285.67 465.277 282.833 468.61 277.16L483.83 280.38C481.425 286.504 477.131 291.703 471.57 295.22C465.839 298.654 459.249 300.388 452.57 300.22C448.214 300.321 443.884 299.529 439.846 297.894C435.808 296.258 432.148 293.814 429.09 290.71C422.717 284.343 419.533 276.17 419.54 266.19C419.547 256.21 422.75 248.02 429.15 241.62C432.231 238.484 435.921 236.013 439.994 234.358C444.067 232.703 448.435 231.901 452.83 232C457.03 231.943 461.198 232.73 465.087 234.316C468.976 235.902 472.507 238.253 475.47 241.23C481.79 247.383 485.123 255.273 485.47 264.9L485.48 270.71ZM442.97 249.94C439.921 251.987 437.773 255.126 436.97 258.71H468.09C467.324 255.158 465.309 252 462.41 249.81C459.635 247.81 456.29 246.758 452.87 246.81C449.327 246.81 445.87 247.903 442.97 249.94Z" fill="#242423"/>
<path d="M345.66 298.77H327.6L300.76 234.26H319.09L336.64 278L354.19 234.26H372.51L345.66 298.77Z" fill="#242423"/>
<path d="M297.54 271.16H248.54C249.199 275.329 251.221 279.162 254.29 282.06C257.093 284.708 260.814 286.167 264.67 286.13C272.003 286.13 277.337 283.29 280.67 277.61L295.89 280.84C293.486 286.959 289.195 292.154 283.64 295.67C277.908 299.104 271.319 300.838 264.64 300.67C260.282 300.767 255.951 299.97 251.913 298.329C247.875 296.689 244.215 294.239 241.16 291.13C234.8 284.763 231.617 276.59 231.61 266.61C231.603 256.63 234.81 248.453 241.23 242.08C244.309 238.945 247.997 236.474 252.069 234.821C256.14 233.169 260.507 232.368 264.9 232.47C269.099 232.411 273.267 233.197 277.156 234.781C281.046 236.365 284.577 238.714 287.54 241.69C293.86 247.843 297.193 255.733 297.54 265.36V271.16ZM255.03 250.39C251.986 252.443 249.841 255.58 249.03 259.16H280.09C279.324 255.611 277.313 252.454 274.42 250.26C271.639 248.264 268.292 247.213 264.87 247.26C261.347 247.273 257.913 248.365 255.03 250.39Z" fill="#242423"/>
<path d="M226.71 234L225.81 250.39H222.09C206.757 250.39 199.09 259.593 199.09 278V298.77H182.09V234.39H199.09V246.13C204.943 237.703 212.643 233.49 222.19 233.49C223.714 233.432 225.237 233.604 226.71 234Z" fill="#242423"/>
<path d="M648.44 170.14C649.206 175.993 653.636 178.917 661.73 178.91C664.31 179.037 666.87 178.401 669.09 177.08C669.908 176.609 670.589 175.932 671.064 175.116C671.539 174.3 671.793 173.374 671.8 172.43C671.8 169.59 669.436 167.657 664.71 166.63L651.55 163.92C645.696 162.713 641.2 160.52 638.06 157.34C636.522 155.803 635.312 153.97 634.503 151.952C633.693 149.935 633.301 147.774 633.35 145.6C633.274 142.659 633.883 139.742 635.127 137.076C636.371 134.411 638.217 132.071 640.52 130.24C645.293 126.287 651.676 124.31 659.67 124.31C667.156 124.31 673.416 126.073 678.45 129.6C680.825 131.174 682.864 133.204 684.446 135.574C686.029 137.943 687.125 140.603 687.67 143.4L671.41 146.63C671.264 145.349 670.85 144.112 670.195 143.001C669.541 141.89 668.66 140.929 667.61 140.18C665.137 138.46 662.169 137.599 659.16 137.73C656.06 137.73 653.823 138.353 652.45 139.6C651.8 140.145 651.278 140.826 650.92 141.595C650.562 142.364 650.378 143.202 650.38 144.05C650.38 146.803 652.316 148.61 656.19 149.47L671.54 152.82C677.046 154.02 681.24 156.237 684.12 159.47C686.989 162.646 688.531 166.801 688.43 171.08C688.43 178.047 685.873 183.38 680.76 187.08C675.646 190.78 668.786 192.63 660.18 192.63C652.526 192.63 645.99 191.06 640.57 187.92C637.972 186.486 635.766 184.435 634.146 181.949C632.527 179.462 631.542 176.616 631.28 173.66L648.44 170.14Z" fill="#242423"/>
<path d="M584.84 170.14C585.606 175.993 590.036 178.917 598.13 178.91C600.703 179.043 603.259 178.417 605.48 177.11C606.298 176.639 606.978 175.962 607.454 175.146C607.929 174.33 608.183 173.404 608.19 172.46C608.19 169.62 605.823 167.687 601.09 166.66L587.93 163.95C582.083 162.743 577.59 160.55 574.45 157.37C572.912 155.833 571.702 154 570.893 151.982C570.083 149.964 569.691 147.803 569.74 145.63C569.663 142.69 570.27 139.773 571.512 137.107C572.755 134.442 574.599 132.101 576.9 130.27C581.68 126.317 588.066 124.34 596.06 124.34C603.54 124.34 609.796 126.103 614.83 129.63C617.206 131.203 619.246 133.234 620.83 135.603C622.415 137.972 623.513 140.633 624.06 143.43L607.8 146.66C607.654 145.378 607.24 144.142 606.585 143.031C605.931 141.92 605.05 140.959 604 140.21C601.527 138.49 598.559 137.629 595.55 137.76C592.45 137.76 590.213 138.383 588.84 139.63C588.19 140.175 587.668 140.856 587.31 141.625C586.952 142.394 586.768 143.232 586.77 144.08C586.77 146.833 588.706 148.64 592.58 149.5L607.93 152.85C613.436 154.05 617.63 156.267 620.51 159.5C623.375 162.667 624.921 166.81 624.83 171.08C624.83 178.047 622.273 183.38 617.16 187.08C612.046 190.78 605.186 192.63 596.58 192.63C588.92 192.63 582.383 191.06 576.97 187.92C574.372 186.485 572.166 184.435 570.546 181.948C568.926 179.462 567.942 176.616 567.68 173.66L584.84 170.14Z" fill="#242423"/>
<path d="M560.2 163.08H511.2C511.85 167.25 513.869 171.085 516.94 173.98C519.747 176.629 523.471 178.087 527.33 178.05C534.663 178.05 539.997 175.21 543.33 169.53L558.55 172.76C556.142 178.882 551.848 184.08 546.29 187.6C540.557 191.03 533.969 192.763 527.29 192.6C522.936 192.698 518.607 191.904 514.571 190.267C510.535 188.629 506.876 186.184 503.82 183.08C497.447 176.72 494.263 168.55 494.27 158.57C494.277 148.59 497.48 140.397 503.88 133.99C506.961 130.856 510.652 128.386 514.725 126.733C518.798 125.08 523.166 124.279 527.56 124.38C531.759 124.321 535.927 125.107 539.816 126.691C543.706 128.275 547.237 130.624 550.2 133.6C556.52 139.747 559.853 147.64 560.2 157.28V163.08ZM517.69 142.27C514.643 144.319 512.496 147.457 511.69 151.04H542.78C542.012 147.49 539.997 144.332 537.1 142.14C534.325 140.14 530.98 139.088 527.56 139.14C524.028 139.151 520.583 140.244 517.69 142.27Z" fill="#242423"/>
<path d="M329.91 173.14C330.69 178.993 335.12 181.917 343.2 181.91C345.774 182.046 348.33 181.42 350.55 180.11C351.368 179.639 352.049 178.962 352.524 178.146C353 177.33 353.253 176.404 353.26 175.46C353.26 172.62 350.897 170.687 346.17 169.66L333.01 166.95C327.157 165.743 322.663 163.55 319.53 160.37C317.992 158.833 316.782 157 315.973 154.982C315.163 152.964 314.771 150.803 314.82 148.63C314.743 145.69 315.35 142.773 316.593 140.107C317.835 137.442 319.679 135.101 321.98 133.27C326.753 129.317 333.14 127.34 341.14 127.34C348.62 127.34 354.877 129.103 359.91 132.63C362.285 134.204 364.324 136.234 365.907 138.603C367.49 140.973 368.585 143.633 369.13 146.43L352.88 149.66C352.73 148.378 352.313 147.143 351.657 146.032C351.001 144.921 350.12 143.96 349.07 143.21C346.598 141.488 343.629 140.628 340.62 140.76C337.52 140.76 335.29 141.38 333.91 142.63C333.264 143.177 332.744 143.859 332.388 144.627C332.033 145.396 331.849 146.233 331.85 147.08C331.85 149.833 333.783 151.64 337.65 152.5L353.01 155.85C358.51 157.05 362.7 159.267 365.58 162.5C368.452 165.663 370.002 169.808 369.91 174.08C369.91 181.047 367.35 186.38 362.23 190.08C357.11 193.78 350.25 195.63 341.65 195.63C334.003 195.63 327.467 194.06 322.04 190.92C319.443 189.484 317.239 187.433 315.619 184.947C313.999 182.461 313.014 179.615 312.75 176.66L329.91 173.14Z" fill="#242423"/>
<path d="M475.95 131.89C480.683 136.916 483.05 143.43 483.05 151.43V190.65H466.05V155.08C466.05 150.533 464.867 146.867 462.5 144.08C461.333 142.721 459.875 141.644 458.233 140.929C456.591 140.214 454.809 139.879 453.02 139.95C442.353 139.95 437.02 147.346 437.02 162.14V190.65H420.02V126.27H437.02V132.08C442.18 126.92 448.933 124.34 457.28 124.34C465 124.34 471.223 126.856 475.95 131.89Z" fill="#242423"/>
<path d="M300.76 193.65H283.76V187.85C278.6 193.01 271.85 195.59 263.51 195.59C255.77 195.59 249.533 193.073 244.8 188.04C240.067 183.007 237.703 176.49 237.71 168.49V129.27H254.71V164.88C254.71 169.44 255.89 173.107 258.25 175.88C259.419 177.239 260.879 178.316 262.522 179.031C264.166 179.746 265.949 180.081 267.74 180.01C278.407 180.01 283.74 172.613 283.74 157.82V129.27H300.74L300.76 193.65Z" fill="#242423"/>
<path d="M216.8 137.08C223.12 143.573 226.28 151.723 226.28 161.53C226.28 171.336 223.143 179.463 216.87 185.91C210.59 192.356 203.193 195.583 194.68 195.59C186.166 195.596 179.07 193.263 173.39 188.59V193.59H156.39V100.76H173.39V134.43C179.07 129.696 186.166 127.333 194.68 127.34C203.193 127.346 210.566 130.593 216.8 137.08ZM204.67 175.53C208.07 172.036 209.77 167.37 209.77 161.53C209.77 155.69 208.07 151 204.67 147.46C202.995 145.716 200.972 144.344 198.732 143.435C196.492 142.525 194.086 142.097 191.67 142.18C189.287 142.178 186.928 142.657 184.734 143.586C182.54 144.515 180.556 145.877 178.9 147.59C177.059 149.402 175.616 151.577 174.66 153.977C173.705 156.376 173.258 158.948 173.35 161.53C173.255 164.101 173.7 166.663 174.656 169.052C175.612 171.441 177.058 173.603 178.9 175.4C180.564 177.098 182.551 178.445 184.744 179.364C186.937 180.283 189.292 180.754 191.67 180.75C194.081 180.834 196.483 180.413 198.721 179.514C200.96 178.615 202.986 177.258 204.67 175.53Z" fill="#242423"/>
<path d="M554.76 42.7002H598.26V59.7002H554.76V42.7002Z" fill="#FFC200"/>
<path d="M552.29 27.4201C559.05 33.7401 562.427 41.8434 562.42 51.7301C562.413 61.6167 559.037 69.7334 552.29 76.0801C545.671 82.3579 536.841 85.7685 527.72 85.57C517.913 85.57 509.613 82.4067 502.82 76.0801C496.027 69.7534 492.627 61.6467 492.62 51.7601C492.62 41.8734 496.02 33.7701 502.82 27.4501C509.62 21.1301 517.92 17.9667 527.72 17.9601C536.837 17.7535 545.666 21.1531 552.29 27.4201ZM540.36 65.6C544.06 62.0267 545.91 57.4034 545.91 51.7301C546.005 49.1603 545.56 46.5991 544.604 44.2119C543.648 41.8246 542.202 39.6642 540.36 37.8701C538.716 36.1807 536.751 34.8365 534.58 33.9161C532.41 32.9957 530.078 32.5177 527.72 32.51C522.857 32.4822 518.182 34.3847 514.72 37.8001C510.98 41.3267 509.11 45.9701 509.11 51.7301C509.11 57.4901 510.98 62.1367 514.72 65.6701C516.433 67.363 518.463 68.7016 520.693 69.6094C522.924 70.5171 525.312 70.9761 527.72 70.9601C530.078 70.9524 532.41 70.4744 534.58 69.554C536.751 68.6336 538.716 67.2894 540.36 65.6Z" fill="#242423"/>
<path d="M474.76 27.4201C481.513 33.7401 484.89 41.8434 484.89 51.7301C484.89 61.6168 481.513 69.7334 474.76 76.0801C468.137 82.3586 459.304 85.7691 450.18 85.5701C440.38 85.5701 432.08 82.4068 425.28 76.0801C418.48 69.7534 415.083 61.6368 415.09 51.7301C415.09 41.8434 418.487 33.7401 425.28 27.4201C432.073 21.1001 440.373 17.9368 450.18 17.9301C459.304 17.7312 468.137 21.1416 474.76 27.4201ZM462.82 65.6001C466.52 62.0268 468.37 57.4034 468.37 51.7301C468.465 49.1603 468.02 46.5992 467.064 44.2119C466.108 41.8246 464.662 39.6643 462.82 37.8701C461.176 36.1799 459.211 34.8351 457.041 33.9146C454.87 32.9942 452.538 32.5167 450.18 32.5101C445.318 32.4866 440.644 34.3884 437.18 37.8001C433.44 41.3268 431.57 45.9701 431.57 51.7301C431.57 57.4901 433.44 62.1368 437.18 65.6701C440.641 69.0864 445.317 70.9891 450.18 70.9601C452.538 70.9536 454.87 70.476 457.041 69.5556C459.211 68.6352 461.176 67.2903 462.82 65.6001Z" fill="#242423"/>
<path d="M385 298V0H402V298H385Z" fill="#FFC200"/>
<path d="M369.45 19.0802L368.55 35.4702H364.81C349.477 35.4702 341.81 44.6735 341.81 63.0802V83.8502H324.81V19.4802H341.81V31.2202C347.65 22.7935 355.347 18.5802 364.9 18.5802C366.433 18.516 367.967 18.6846 369.45 19.0802Z" fill="#242423"/>
<path d="M309.92 56.2501H260.92C261.569 60.4201 263.589 64.2551 266.66 67.1501C269.467 69.7986 273.191 71.2573 277.05 71.2201C284.383 71.2201 289.716 68.3801 293.05 62.7001L308.28 65.9301C305.87 72.0487 301.576 77.2422 296.02 80.76C290.288 84.1942 283.699 85.9282 277.02 85.76C272.662 85.8573 268.331 85.061 264.292 83.4203C260.254 81.7795 256.595 79.3291 253.54 76.2201C247.166 69.8467 243.983 61.6734 243.99 51.7001C243.996 41.7267 247.2 33.5367 253.6 27.13C256.679 23.9963 260.369 21.5268 264.44 19.8739C268.511 18.2211 272.877 17.42 277.27 17.5201C281.47 17.4603 285.64 18.2458 289.531 19.8297C293.422 21.4136 296.955 23.7636 299.92 26.7401C306.24 32.8867 309.573 40.7767 309.92 50.41V56.2501ZM267.41 35.48C264.36 37.5272 262.213 40.6663 261.41 44.2501H292.5C291.727 40.7014 289.713 37.5452 286.82 35.35C284.042 33.3486 280.693 32.2965 277.27 32.35C273.741 32.3633 270.3 33.4555 267.41 35.48Z" fill="#242423"/>
<path d="M238.28 81.02C232.347 84.2 226.757 85.79 221.51 85.79C213.597 85.79 207.403 83.6633 202.93 79.41C198.457 75.1566 196.22 68.7133 196.22 60.08V33.38H182.42V19.48H196.22V0H213.22V19.48H234.22V33.42H213.22V58.83C213.22 66.23 216.36 69.93 222.64 69.93C226.41 69.7875 230.087 68.7231 233.35 66.83L238.28 81.02Z" fill="#242423"/>
<path d="M173.39 83.8598H156.39V78.8598C150.63 83.5265 143.533 85.8598 135.1 85.8598C126.667 85.8598 119.26 82.5998 112.88 76.0798C106.6 69.6264 103.46 61.4964 103.46 51.6898C103.46 41.8831 106.623 33.7365 112.95 27.2498C119.27 20.7498 126.643 17.5031 135.07 17.5098C143.497 17.5164 150.593 19.8798 156.36 24.5998V19.4798H173.36L173.39 83.8598ZM150.81 65.5998C154.51 62.0264 156.36 57.4031 156.36 51.7298C156.451 49.15 156.005 46.5795 155.049 44.1814C154.094 41.7833 152.65 39.6101 150.81 37.7998C149.16 36.0918 147.184 34.7321 144.999 33.8011C142.814 32.8701 140.465 32.3868 138.09 32.3798C135.673 32.3018 133.267 32.7325 131.028 33.6437C128.789 34.555 126.765 35.9267 125.09 37.6698C121.697 41.2031 120 45.8898 120 51.7298C120 57.5698 121.697 62.2364 125.09 65.7298C126.773 67.459 128.799 68.8175 131.037 69.7182C133.276 70.6188 135.678 71.0417 138.09 70.9598C140.46 70.9549 142.805 70.4785 144.989 69.5583C147.173 68.638 149.151 67.2924 150.81 65.5998Z" fill="#242423"/>
<path d="M77.53 83.9902H62.18L49.54 46.0802L36.76 84.0102H21.41L0 19.4802H16.9L29.67 59.0802L42.83 19.4702H56.09L69.25 59.2102L82.09 19.4802H98.99L77.53 83.9902Z" fill="#242423"/>
<path d="M176.777 343.289H170.82L169.482 347H167.549L172.979 332.781H174.619L180.059 347H178.135L176.777 343.289ZM171.387 341.746H176.221L173.799 335.096L171.387 341.746Z" fill="black"/>
<path d="M191.123 340.662C189.515 340.2 188.343 339.633 187.607 338.963C186.878 338.286 186.514 337.452 186.514 336.463C186.514 335.343 186.96 334.419 187.852 333.689C188.75 332.954 189.915 332.586 191.348 332.586C192.324 332.586 193.193 332.775 193.955 333.152C194.723 333.53 195.316 334.051 195.732 334.715C196.156 335.379 196.367 336.105 196.367 336.893H194.482C194.482 336.033 194.209 335.359 193.662 334.871C193.115 334.376 192.344 334.129 191.348 334.129C190.423 334.129 189.701 334.334 189.18 334.744C188.665 335.148 188.408 335.711 188.408 336.434C188.408 337.013 188.652 337.505 189.141 337.908C189.635 338.305 190.472 338.67 191.65 339.002C192.835 339.334 193.76 339.702 194.424 340.105C195.094 340.503 195.589 340.968 195.908 341.502C196.234 342.036 196.396 342.664 196.396 343.387C196.396 344.539 195.947 345.464 195.049 346.16C194.15 346.85 192.949 347.195 191.445 347.195C190.469 347.195 189.557 347.01 188.711 346.639C187.865 346.261 187.21 345.747 186.748 345.096C186.292 344.445 186.064 343.706 186.064 342.879H187.949C187.949 343.738 188.265 344.419 188.896 344.92C189.535 345.415 190.384 345.662 191.445 345.662C192.435 345.662 193.193 345.46 193.721 345.057C194.248 344.653 194.512 344.103 194.512 343.406C194.512 342.71 194.268 342.173 193.779 341.795C193.291 341.411 192.406 341.033 191.123 340.662Z" fill="black"/>
<path d="M202.764 345.721C203.408 345.721 203.971 345.525 204.453 345.135C204.935 344.744 205.202 344.256 205.254 343.67H206.963C206.93 344.275 206.722 344.852 206.338 345.398C205.954 345.945 205.439 346.382 204.795 346.707C204.157 347.033 203.48 347.195 202.764 347.195C201.325 347.195 200.179 346.717 199.326 345.76C198.48 344.796 198.057 343.481 198.057 341.814V341.512C198.057 340.483 198.245 339.568 198.623 338.768C199.001 337.967 199.541 337.345 200.244 336.902C200.954 336.46 201.79 336.238 202.754 336.238C203.939 336.238 204.922 336.593 205.703 337.303C206.491 338.012 206.911 338.934 206.963 340.066H205.254C205.202 339.383 204.941 338.823 204.473 338.387C204.01 337.944 203.438 337.723 202.754 337.723C201.836 337.723 201.123 338.055 200.615 338.719C200.114 339.376 199.863 340.33 199.863 341.58V341.922C199.863 343.139 200.114 344.077 200.615 344.734C201.117 345.392 201.833 345.721 202.764 345.721Z" fill="black"/>
<path d="M210.801 337.713C211.602 336.73 212.643 336.238 213.926 336.238C216.159 336.238 217.285 337.498 217.305 340.018V347H215.498V340.008C215.492 339.246 215.316 338.683 214.971 338.318C214.632 337.954 214.102 337.771 213.379 337.771C212.793 337.771 212.279 337.928 211.836 338.24C211.393 338.553 211.048 338.963 210.801 339.471V347H208.994V332H210.801V337.713Z" fill="black"/>
<path d="M219.531 341.619C219.531 340.584 219.733 339.653 220.137 338.826C220.547 337.999 221.113 337.361 221.836 336.912C222.565 336.463 223.395 336.238 224.326 336.238C225.765 336.238 226.927 336.736 227.812 337.732C228.704 338.729 229.15 340.053 229.15 341.707V341.834C229.15 342.863 228.952 343.787 228.555 344.607C228.164 345.421 227.601 346.056 226.865 346.512C226.136 346.967 225.296 347.195 224.346 347.195C222.913 347.195 221.751 346.697 220.859 345.701C219.974 344.705 219.531 343.387 219.531 341.746V341.619ZM221.348 341.834C221.348 343.006 221.618 343.947 222.158 344.656C222.705 345.366 223.434 345.721 224.346 345.721C225.264 345.721 225.993 345.363 226.533 344.646C227.074 343.924 227.344 342.915 227.344 341.619C227.344 340.46 227.067 339.523 226.514 338.807C225.967 338.084 225.238 337.723 224.326 337.723C223.434 337.723 222.715 338.077 222.168 338.787C221.621 339.497 221.348 340.512 221.348 341.834Z" fill="black"/>
<path d="M230.938 341.619C230.938 340.584 231.139 339.653 231.543 338.826C231.953 337.999 232.52 337.361 233.242 336.912C233.971 336.463 234.801 336.238 235.732 336.238C237.171 336.238 238.333 336.736 239.219 337.732C240.111 338.729 240.557 340.053 240.557 341.707V341.834C240.557 342.863 240.358 343.787 239.961 344.607C239.57 345.421 239.007 346.056 238.271 346.512C237.542 346.967 236.702 347.195 235.752 347.195C234.32 347.195 233.158 346.697 232.266 345.701C231.38 344.705 230.938 343.387 230.938 341.746V341.619ZM232.754 341.834C232.754 343.006 233.024 343.947 233.564 344.656C234.111 345.366 234.84 345.721 235.752 345.721C236.67 345.721 237.399 345.363 237.939 344.646C238.48 343.924 238.75 342.915 238.75 341.619C238.75 340.46 238.473 339.523 237.92 338.807C237.373 338.084 236.644 337.723 235.732 337.723C234.84 337.723 234.121 338.077 233.574 338.787C233.027 339.497 232.754 340.512 232.754 341.834Z" fill="black"/>
<path d="M244.785 347H242.979V332H244.785V347Z" fill="black"/>
<path d="M252.168 341.619C252.168 340.584 252.37 339.653 252.773 338.826C253.184 337.999 253.75 337.361 254.473 336.912C255.202 336.463 256.032 336.238 256.963 336.238C258.402 336.238 259.564 336.736 260.449 337.732C261.341 338.729 261.787 340.053 261.787 341.707V341.834C261.787 342.863 261.589 343.787 261.191 344.607C260.801 345.421 260.238 346.056 259.502 346.512C258.773 346.967 257.933 347.195 256.982 347.195C255.55 347.195 254.388 346.697 253.496 345.701C252.611 344.705 252.168 343.387 252.168 341.746V341.619ZM253.984 341.834C253.984 343.006 254.255 343.947 254.795 344.656C255.342 345.366 256.071 345.721 256.982 345.721C257.9 345.721 258.63 345.363 259.17 344.646C259.71 343.924 259.98 342.915 259.98 341.619C259.98 340.46 259.704 339.523 259.15 338.807C258.604 338.084 257.874 337.723 256.963 337.723C256.071 337.723 255.352 338.077 254.805 338.787C254.258 339.497 253.984 340.512 253.984 341.834Z" fill="black"/>
<path d="M264.941 347V337.83H263.271V336.434H264.941V335.35C264.941 334.217 265.244 333.341 265.85 332.723C266.455 332.104 267.311 331.795 268.418 331.795C268.835 331.795 269.248 331.85 269.658 331.961L269.561 333.426C269.255 333.367 268.929 333.338 268.584 333.338C267.998 333.338 267.546 333.51 267.227 333.855C266.908 334.194 266.748 334.682 266.748 335.32V336.434H269.004V337.83H266.748V347H264.941Z" fill="black"/>
<path d="M284.102 343.289H278.145L276.807 347H274.873L280.303 332.781H281.943L287.383 347H285.459L284.102 343.289ZM278.711 341.746H283.545L281.123 335.096L278.711 341.746Z" fill="black"/>
<path d="M293.252 345.721C293.896 345.721 294.46 345.525 294.941 345.135C295.423 344.744 295.69 344.256 295.742 343.67H297.451C297.419 344.275 297.21 344.852 296.826 345.398C296.442 345.945 295.928 346.382 295.283 346.707C294.645 347.033 293.968 347.195 293.252 347.195C291.813 347.195 290.667 346.717 289.814 345.76C288.968 344.796 288.545 343.481 288.545 341.814V341.512C288.545 340.483 288.734 339.568 289.111 338.768C289.489 337.967 290.029 337.345 290.732 336.902C291.442 336.46 292.279 336.238 293.242 336.238C294.427 336.238 295.41 336.593 296.191 337.303C296.979 338.012 297.399 338.934 297.451 340.066H295.742C295.69 339.383 295.43 338.823 294.961 338.387C294.499 337.944 293.926 337.723 293.242 337.723C292.324 337.723 291.611 338.055 291.104 338.719C290.602 339.376 290.352 340.33 290.352 341.58V341.922C290.352 343.139 290.602 344.077 291.104 344.734C291.605 345.392 292.321 345.721 293.252 345.721Z" fill="black"/>
<path d="M303.721 345.721C304.365 345.721 304.928 345.525 305.41 345.135C305.892 344.744 306.159 344.256 306.211 343.67H307.92C307.887 344.275 307.679 344.852 307.295 345.398C306.911 345.945 306.396 346.382 305.752 346.707C305.114 347.033 304.437 347.195 303.721 347.195C302.282 347.195 301.136 346.717 300.283 345.76C299.437 344.796 299.014 343.481 299.014 341.814V341.512C299.014 340.483 299.202 339.568 299.58 338.768C299.958 337.967 300.498 337.345 301.201 336.902C301.911 336.46 302.747 336.238 303.711 336.238C304.896 336.238 305.879 336.593 306.66 337.303C307.448 338.012 307.868 338.934 307.92 340.066H306.211C306.159 339.383 305.898 338.823 305.43 338.387C304.967 337.944 304.395 337.723 303.711 337.723C302.793 337.723 302.08 338.055 301.572 338.719C301.071 339.376 300.82 340.33 300.82 341.58V341.922C300.82 343.139 301.071 344.077 301.572 344.734C302.074 345.392 302.79 345.721 303.721 345.721Z" fill="black"/>
<path d="M309.473 341.619C309.473 340.584 309.674 339.653 310.078 338.826C310.488 337.999 311.055 337.361 311.777 336.912C312.507 336.463 313.337 336.238 314.268 336.238C315.706 336.238 316.868 336.736 317.754 337.732C318.646 338.729 319.092 340.053 319.092 341.707V341.834C319.092 342.863 318.893 343.787 318.496 344.607C318.105 345.421 317.542 346.056 316.807 346.512C316.077 346.967 315.238 347.195 314.287 347.195C312.855 347.195 311.693 346.697 310.801 345.701C309.915 344.705 309.473 343.387 309.473 341.746V341.619ZM311.289 341.834C311.289 343.006 311.559 343.947 312.1 344.656C312.646 345.366 313.376 345.721 314.287 345.721C315.205 345.721 315.934 345.363 316.475 344.646C317.015 343.924 317.285 342.915 317.285 341.619C317.285 340.46 317.008 339.523 316.455 338.807C315.908 338.084 315.179 337.723 314.268 337.723C313.376 337.723 312.656 338.077 312.109 338.787C311.562 339.497 311.289 340.512 311.289 341.834Z" fill="black"/>
<path d="M327.881 345.955C327.178 346.782 326.146 347.195 324.785 347.195C323.659 347.195 322.799 346.87 322.207 346.219C321.621 345.561 321.325 344.591 321.318 343.309V336.434H323.125V343.26C323.125 344.861 323.776 345.662 325.078 345.662C326.458 345.662 327.376 345.148 327.832 344.119V336.434H329.639V347H327.92L327.881 345.955Z" fill="black"/>
<path d="M334.102 336.434L334.16 337.762C334.967 336.746 336.022 336.238 337.324 336.238C339.557 336.238 340.684 337.498 340.703 340.018V347H338.896V340.008C338.89 339.246 338.714 338.683 338.369 338.318C338.031 337.954 337.5 337.771 336.777 337.771C336.191 337.771 335.677 337.928 335.234 338.24C334.792 338.553 334.447 338.963 334.199 339.471V347H332.393V336.434H334.102Z" fill="black"/>
<path d="M345.879 333.875V336.434H347.852V337.83H345.879V344.383C345.879 344.806 345.967 345.125 346.143 345.34C346.318 345.548 346.618 345.652 347.041 345.652C347.249 345.652 347.536 345.613 347.9 345.535V347C347.425 347.13 346.963 347.195 346.514 347.195C345.706 347.195 345.098 346.951 344.688 346.463C344.277 345.975 344.072 345.281 344.072 344.383V337.83H342.148V336.434H344.072V333.875H345.879Z" fill="black"/>
<path d="M351.934 347H350.127V336.434H351.934V347ZM349.98 333.631C349.98 333.338 350.068 333.09 350.244 332.889C350.426 332.687 350.693 332.586 351.045 332.586C351.396 332.586 351.663 332.687 351.846 332.889C352.028 333.09 352.119 333.338 352.119 333.631C352.119 333.924 352.028 334.168 351.846 334.363C351.663 334.559 351.396 334.656 351.045 334.656C350.693 334.656 350.426 334.559 350.244 334.363C350.068 334.168 349.98 333.924 349.98 333.631Z" fill="black"/>
<path d="M356.543 336.434L356.602 337.762C357.409 336.746 358.464 336.238 359.766 336.238C361.999 336.238 363.125 337.498 363.145 340.018V347H361.338V340.008C361.331 339.246 361.156 338.683 360.811 338.318C360.472 337.954 359.941 337.771 359.219 337.771C358.633 337.771 358.118 337.928 357.676 338.24C357.233 338.553 356.888 338.963 356.641 339.471V347H354.834V336.434H356.543Z" fill="black"/>
<path d="M365.439 341.629C365.439 339.982 365.82 338.673 366.582 337.703C367.344 336.727 368.353 336.238 369.609 336.238C370.898 336.238 371.904 336.694 372.627 337.605L372.715 336.434H374.365V346.746C374.365 348.113 373.958 349.191 373.145 349.979C372.337 350.766 371.25 351.16 369.883 351.16C369.121 351.16 368.376 350.997 367.646 350.672C366.917 350.346 366.361 349.9 365.977 349.334L366.914 348.25C367.689 349.207 368.636 349.686 369.756 349.686C370.635 349.686 371.318 349.438 371.807 348.943C372.301 348.449 372.549 347.752 372.549 346.854V345.945C371.826 346.779 370.84 347.195 369.59 347.195C368.353 347.195 367.35 346.697 366.582 345.701C365.82 344.705 365.439 343.348 365.439 341.629ZM367.256 341.834C367.256 343.025 367.5 343.963 367.988 344.646C368.477 345.324 369.16 345.662 370.039 345.662C371.178 345.662 372.015 345.145 372.549 344.109V339.285C371.995 338.276 371.165 337.771 370.059 337.771C369.18 337.771 368.493 338.113 367.998 338.797C367.503 339.48 367.256 340.493 367.256 341.834Z" fill="black"/>
<path d="M388.584 347C388.48 346.792 388.395 346.421 388.33 345.887C387.49 346.759 386.488 347.195 385.322 347.195C384.281 347.195 383.424 346.902 382.754 346.316C382.09 345.724 381.758 344.975 381.758 344.07C381.758 342.97 382.174 342.117 383.008 341.512C383.848 340.9 385.026 340.594 386.543 340.594H388.301V339.764C388.301 339.132 388.112 338.631 387.734 338.26C387.357 337.882 386.8 337.693 386.064 337.693C385.42 337.693 384.88 337.856 384.443 338.182C384.007 338.507 383.789 338.901 383.789 339.363H381.973C381.973 338.836 382.158 338.328 382.529 337.84C382.907 337.345 383.415 336.954 384.053 336.668C384.697 336.382 385.404 336.238 386.172 336.238C387.389 336.238 388.343 336.544 389.033 337.156C389.723 337.762 390.081 338.598 390.107 339.666V344.529C390.107 345.499 390.231 346.271 390.479 346.844V347H388.584ZM385.586 345.623C386.152 345.623 386.689 345.477 387.197 345.184C387.705 344.891 388.073 344.51 388.301 344.041V341.873H386.885C384.671 341.873 383.564 342.521 383.564 343.816C383.564 344.383 383.753 344.826 384.131 345.145C384.508 345.464 384.993 345.623 385.586 345.623Z" fill="black"/>
<path d="M394.648 336.434L394.707 337.762C395.514 336.746 396.569 336.238 397.871 336.238C400.104 336.238 401.23 337.498 401.25 340.018V347H399.443V340.008C399.437 339.246 399.261 338.683 398.916 338.318C398.577 337.954 398.047 337.771 397.324 337.771C396.738 337.771 396.224 337.928 395.781 338.24C395.339 338.553 394.993 338.963 394.746 339.471V347H392.939V336.434H394.648Z" fill="black"/>
<path d="M403.535 341.629C403.535 340.008 403.919 338.706 404.688 337.723C405.456 336.733 406.462 336.238 407.705 336.238C408.942 336.238 409.922 336.661 410.645 337.508V332H412.451V347H410.791L410.703 345.867C409.98 346.753 408.975 347.195 407.686 347.195C406.462 347.195 405.462 346.694 404.688 345.691C403.919 344.689 403.535 343.38 403.535 341.766V341.629ZM405.342 341.834C405.342 343.032 405.589 343.969 406.084 344.646C406.579 345.324 407.262 345.662 408.135 345.662C409.281 345.662 410.117 345.148 410.645 344.119V339.266C410.104 338.27 409.274 337.771 408.154 337.771C407.269 337.771 406.579 338.113 406.084 338.797C405.589 339.48 405.342 340.493 405.342 341.834Z" fill="black"/>
<path d="M428.35 340.721H422.383V347H420.508V332.781H429.316V334.324H422.383V339.188H428.35V340.721Z" fill="black"/>
<path d="M433.242 347H431.436V336.434H433.242V347ZM431.289 333.631C431.289 333.338 431.377 333.09 431.553 332.889C431.735 332.687 432.002 332.586 432.354 332.586C432.705 332.586 432.972 332.687 433.154 332.889C433.337 333.09 433.428 333.338 433.428 333.631C433.428 333.924 433.337 334.168 433.154 334.363C432.972 334.559 432.705 334.656 432.354 334.656C432.002 334.656 431.735 334.559 431.553 334.363C431.377 334.168 431.289 333.924 431.289 333.631Z" fill="black"/>
<path d="M437.852 336.434L437.91 337.762C438.717 336.746 439.772 336.238 441.074 336.238C443.307 336.238 444.434 337.498 444.453 340.018V347H442.646V340.008C442.64 339.246 442.464 338.683 442.119 338.318C441.781 337.954 441.25 337.771 440.527 337.771C439.941 337.771 439.427 337.928 438.984 338.24C438.542 338.553 438.197 338.963 437.949 339.471V347H436.143V336.434H437.852Z" fill="black"/>
<path d="M453.701 347C453.597 346.792 453.512 346.421 453.447 345.887C452.607 346.759 451.605 347.195 450.439 347.195C449.398 347.195 448.542 346.902 447.871 346.316C447.207 345.724 446.875 344.975 446.875 344.07C446.875 342.97 447.292 342.117 448.125 341.512C448.965 340.9 450.143 340.594 451.66 340.594H453.418V339.764C453.418 339.132 453.229 338.631 452.852 338.26C452.474 337.882 451.917 337.693 451.182 337.693C450.537 337.693 449.997 337.856 449.561 338.182C449.124 338.507 448.906 338.901 448.906 339.363H447.09C447.09 338.836 447.275 338.328 447.646 337.84C448.024 337.345 448.532 336.954 449.17 336.668C449.814 336.382 450.521 336.238 451.289 336.238C452.507 336.238 453.46 336.544 454.15 337.156C454.84 337.762 455.199 338.598 455.225 339.666V344.529C455.225 345.499 455.348 346.271 455.596 346.844V347H453.701ZM450.703 345.623C451.27 345.623 451.807 345.477 452.314 345.184C452.822 344.891 453.19 344.51 453.418 344.041V341.873H452.002C449.788 341.873 448.682 342.521 448.682 343.816C448.682 344.383 448.87 344.826 449.248 345.145C449.626 345.464 450.111 345.623 450.703 345.623Z" fill="black"/>
<path d="M459.766 336.434L459.824 337.762C460.632 336.746 461.686 336.238 462.988 336.238C465.221 336.238 466.348 337.498 466.367 340.018V347H464.561V340.008C464.554 339.246 464.378 338.683 464.033 338.318C463.695 337.954 463.164 337.771 462.441 337.771C461.855 337.771 461.341 337.928 460.898 338.24C460.456 338.553 460.111 338.963 459.863 339.471V347H458.057V336.434H459.766Z" fill="black"/>
<path d="M473.33 345.721C473.975 345.721 474.538 345.525 475.02 345.135C475.501 344.744 475.768 344.256 475.82 343.67H477.529C477.497 344.275 477.288 344.852 476.904 345.398C476.52 345.945 476.006 346.382 475.361 346.707C474.723 347.033 474.046 347.195 473.33 347.195C471.891 347.195 470.745 346.717 469.893 345.76C469.046 344.796 468.623 343.481 468.623 341.814V341.512C468.623 340.483 468.812 339.568 469.189 338.768C469.567 337.967 470.107 337.345 470.811 336.902C471.52 336.46 472.357 336.238 473.32 336.238C474.505 336.238 475.488 336.593 476.27 337.303C477.057 338.012 477.477 338.934 477.529 340.066H475.82C475.768 339.383 475.508 338.823 475.039 338.387C474.577 337.944 474.004 337.723 473.32 337.723C472.402 337.723 471.689 338.055 471.182 338.719C470.68 339.376 470.43 340.33 470.43 341.58V341.922C470.43 343.139 470.68 344.077 471.182 344.734C471.683 345.392 472.399 345.721 473.33 345.721Z" fill="black"/>
<path d="M483.945 347.195C482.513 347.195 481.348 346.727 480.449 345.789C479.551 344.845 479.102 343.585 479.102 342.01V341.678C479.102 340.63 479.3 339.695 479.697 338.875C480.101 338.048 480.661 337.404 481.377 336.941C482.1 336.473 482.881 336.238 483.721 336.238C485.094 336.238 486.162 336.691 486.924 337.596C487.686 338.501 488.066 339.796 488.066 341.482V342.234H480.908C480.934 343.276 481.237 344.119 481.816 344.764C482.402 345.402 483.145 345.721 484.043 345.721C484.681 345.721 485.221 345.59 485.664 345.33C486.107 345.07 486.494 344.725 486.826 344.295L487.93 345.154C487.044 346.515 485.716 347.195 483.945 347.195ZM483.721 337.723C482.992 337.723 482.38 337.99 481.885 338.523C481.39 339.051 481.084 339.793 480.967 340.75H486.26V340.613C486.208 339.695 485.96 338.986 485.518 338.484C485.075 337.977 484.476 337.723 483.721 337.723Z" fill="black"/>
<path d="M499.6 340.662C497.992 340.2 496.82 339.633 496.084 338.963C495.355 338.286 494.99 337.452 494.99 336.463C494.99 335.343 495.436 334.419 496.328 333.689C497.227 332.954 498.392 332.586 499.824 332.586C500.801 332.586 501.67 332.775 502.432 333.152C503.2 333.53 503.792 334.051 504.209 334.715C504.632 335.379 504.844 336.105 504.844 336.893H502.959C502.959 336.033 502.686 335.359 502.139 334.871C501.592 334.376 500.82 334.129 499.824 334.129C498.9 334.129 498.177 334.334 497.656 334.744C497.142 335.148 496.885 335.711 496.885 336.434C496.885 337.013 497.129 337.505 497.617 337.908C498.112 338.305 498.949 338.67 500.127 339.002C501.312 339.334 502.236 339.702 502.9 340.105C503.571 340.503 504.066 340.968 504.385 341.502C504.71 342.036 504.873 342.664 504.873 343.387C504.873 344.539 504.424 345.464 503.525 346.16C502.627 346.85 501.426 347.195 499.922 347.195C498.945 347.195 498.034 347.01 497.188 346.639C496.341 346.261 495.687 345.747 495.225 345.096C494.769 344.445 494.541 343.706 494.541 342.879H496.426C496.426 343.738 496.742 344.419 497.373 344.92C498.011 345.415 498.861 345.662 499.922 345.662C500.911 345.662 501.67 345.46 502.197 345.057C502.725 344.653 502.988 344.103 502.988 343.406C502.988 342.71 502.744 342.173 502.256 341.795C501.768 341.411 500.882 341.033 499.6 340.662Z" fill="black"/>
<path d="M509.453 333.875V336.434H511.426V337.83H509.453V344.383C509.453 344.806 509.541 345.125 509.717 345.34C509.893 345.548 510.192 345.652 510.615 345.652C510.824 345.652 511.11 345.613 511.475 345.535V347C510.999 347.13 510.537 347.195 510.088 347.195C509.281 347.195 508.672 346.951 508.262 346.463C507.852 345.975 507.646 345.281 507.646 344.383V337.83H505.723V336.434H507.646V333.875H509.453Z" fill="black"/>
<path d="M520.068 345.955C519.365 346.782 518.333 347.195 516.973 347.195C515.846 347.195 514.987 346.87 514.395 346.219C513.809 345.561 513.512 344.591 513.506 343.309V336.434H515.312V343.26C515.312 344.861 515.964 345.662 517.266 345.662C518.646 345.662 519.564 345.148 520.02 344.119V336.434H521.826V347H520.107L520.068 345.955Z" fill="black"/>
<path d="M524.141 341.629C524.141 340.008 524.525 338.706 525.293 337.723C526.061 336.733 527.067 336.238 528.311 336.238C529.548 336.238 530.527 336.661 531.25 337.508V332H533.057V347H531.396L531.309 345.867C530.586 346.753 529.58 347.195 528.291 347.195C527.067 347.195 526.068 346.694 525.293 345.691C524.525 344.689 524.141 343.38 524.141 341.766V341.629ZM525.947 341.834C525.947 343.032 526.195 343.969 526.689 344.646C527.184 345.324 527.868 345.662 528.74 345.662C529.886 345.662 530.723 345.148 531.25 344.119V339.266C530.71 338.27 529.88 337.771 528.76 337.771C527.874 337.771 527.184 338.113 526.689 338.797C526.195 339.48 525.947 340.493 525.947 341.834Z" fill="black"/>
<path d="M540.254 347.195C538.822 347.195 537.656 346.727 536.758 345.789C535.859 344.845 535.41 343.585 535.41 342.01V341.678C535.41 340.63 535.609 339.695 536.006 338.875C536.41 338.048 536.969 337.404 537.686 336.941C538.408 336.473 539.189 336.238 540.029 336.238C541.403 336.238 542.471 336.691 543.232 337.596C543.994 338.501 544.375 339.796 544.375 341.482V342.234H537.217C537.243 343.276 537.546 344.119 538.125 344.764C538.711 345.402 539.453 345.721 540.352 345.721C540.99 345.721 541.53 345.59 541.973 345.33C542.415 345.07 542.803 344.725 543.135 344.295L544.238 345.154C543.353 346.515 542.025 347.195 540.254 347.195ZM540.029 337.723C539.3 337.723 538.688 337.99 538.193 338.523C537.699 339.051 537.393 339.793 537.275 340.75H542.568V340.613C542.516 339.695 542.269 338.986 541.826 338.484C541.383 337.977 540.785 337.723 540.029 337.723Z" fill="black"/>
<path d="M548.184 336.434L548.242 337.762C549.049 336.746 550.104 336.238 551.406 336.238C553.639 336.238 554.766 337.498 554.785 340.018V347H552.979V340.008C552.972 339.246 552.796 338.683 552.451 338.318C552.113 337.954 551.582 337.771 550.859 337.771C550.273 337.771 549.759 337.928 549.316 338.24C548.874 338.553 548.529 338.963 548.281 339.471V347H546.475V336.434H548.184Z" fill="black"/>
<path d="M559.961 333.875V336.434H561.934V337.83H559.961V344.383C559.961 344.806 560.049 345.125 560.225 345.34C560.4 345.548 560.7 345.652 561.123 345.652C561.331 345.652 561.618 345.613 561.982 345.535V347C561.507 347.13 561.045 347.195 560.596 347.195C559.788 347.195 559.18 346.951 558.77 346.463C558.359 345.975 558.154 345.281 558.154 344.383V337.83H556.23V336.434H558.154V333.875H559.961Z" fill="black"/>
<path d="M567.812 341.697H563.047V340.223H567.812V341.697Z" fill="black"/>
<path d="M575.078 341.248H571.738V347H569.854V332.781H574.561C576.162 332.781 577.393 333.146 578.252 333.875C579.118 334.604 579.551 335.665 579.551 337.059C579.551 337.944 579.31 338.715 578.828 339.373C578.353 340.031 577.689 340.522 576.836 340.848L580.176 346.883V347H578.164L575.078 341.248ZM571.738 339.715H574.619C575.55 339.715 576.289 339.474 576.836 338.992C577.389 338.51 577.666 337.866 577.666 337.059C577.666 336.18 577.402 335.506 576.875 335.037C576.354 334.568 575.599 334.331 574.609 334.324H571.738V339.715Z" fill="black"/>
<path d="M588.428 345.955C587.725 346.782 586.693 347.195 585.332 347.195C584.206 347.195 583.346 346.87 582.754 346.219C582.168 345.561 581.872 344.591 581.865 343.309V336.434H583.672V343.26C583.672 344.861 584.323 345.662 585.625 345.662C587.005 345.662 587.923 345.148 588.379 344.119V336.434H590.186V347H588.467L588.428 345.955Z" fill="black"/>
<path d="M594.648 336.434L594.707 337.762C595.514 336.746 596.569 336.238 597.871 336.238C600.104 336.238 601.23 337.498 601.25 340.018V347H599.443V340.008C599.437 339.246 599.261 338.683 598.916 338.318C598.577 337.954 598.047 337.771 597.324 337.771C596.738 337.771 596.224 337.928 595.781 338.24C595.339 338.553 594.993 338.963 594.746 339.471V347H592.939V336.434H594.648Z" fill="black"/>
<path d="M611.23 347H609.355V332.781H611.23V347Z" fill="black"/>
<path d="M616.094 336.434L616.152 337.762C616.96 336.746 618.014 336.238 619.316 336.238C621.549 336.238 622.676 337.498 622.695 340.018V347H620.889V340.008C620.882 339.246 620.706 338.683 620.361 338.318C620.023 337.954 619.492 337.771 618.77 337.771C618.184 337.771 617.669 337.928 617.227 338.24C616.784 338.553 616.439 338.963 616.191 339.471V347H614.385V336.434H616.094Z" fill="black"/>
<path d="M627.383 347H625.576V336.434H627.383V347ZM625.43 333.631C625.43 333.338 625.518 333.09 625.693 332.889C625.876 332.687 626.143 332.586 626.494 332.586C626.846 332.586 627.113 332.687 627.295 332.889C627.477 333.09 627.568 333.338 627.568 333.631C627.568 333.924 627.477 334.168 627.295 334.363C627.113 334.559 626.846 334.656 626.494 334.656C626.143 334.656 625.876 334.559 625.693 334.363C625.518 334.168 625.43 333.924 625.43 333.631Z" fill="black"/>
<path d="M632.734 333.875V336.434H634.707V337.83H632.734V344.383C632.734 344.806 632.822 345.125 632.998 345.34C633.174 345.548 633.473 345.652 633.896 345.652C634.105 345.652 634.391 345.613 634.756 345.535V347C634.281 347.13 633.818 347.195 633.369 347.195C632.562 347.195 631.953 346.951 631.543 346.463C631.133 345.975 630.928 345.281 630.928 344.383V337.83H629.004V336.434H630.928V333.875H632.734Z" fill="black"/>
<path d="M638.789 347H636.982V336.434H638.789V347ZM636.836 333.631C636.836 333.338 636.924 333.09 637.1 332.889C637.282 332.687 637.549 332.586 637.9 332.586C638.252 332.586 638.519 332.687 638.701 332.889C638.883 333.09 638.975 333.338 638.975 333.631C638.975 333.924 638.883 334.168 638.701 334.363C638.519 334.559 638.252 334.656 637.9 334.656C637.549 334.656 637.282 334.559 637.1 334.363C636.924 334.168 636.836 333.924 636.836 333.631Z" fill="black"/>
<path d="M648.213 347C648.109 346.792 648.024 346.421 647.959 345.887C647.119 346.759 646.117 347.195 644.951 347.195C643.91 347.195 643.053 346.902 642.383 346.316C641.719 345.724 641.387 344.975 641.387 344.07C641.387 342.97 641.803 342.117 642.637 341.512C643.477 340.9 644.655 340.594 646.172 340.594H647.93V339.764C647.93 339.132 647.741 338.631 647.363 338.26C646.986 337.882 646.429 337.693 645.693 337.693C645.049 337.693 644.508 337.856 644.072 338.182C643.636 338.507 643.418 338.901 643.418 339.363H641.602C641.602 338.836 641.787 338.328 642.158 337.84C642.536 337.345 643.044 336.954 643.682 336.668C644.326 336.382 645.033 336.238 645.801 336.238C647.018 336.238 647.972 336.544 648.662 337.156C649.352 337.762 649.71 338.598 649.736 339.666V344.529C649.736 345.499 649.86 346.271 650.107 346.844V347H648.213ZM645.215 345.623C645.781 345.623 646.318 345.477 646.826 345.184C647.334 344.891 647.702 344.51 647.93 344.041V341.873H646.514C644.3 341.873 643.193 342.521 643.193 343.816C643.193 344.383 643.382 344.826 643.76 345.145C644.137 345.464 644.622 345.623 645.215 345.623Z" fill="black"/>
<path d="M655.02 333.875V336.434H656.992V337.83H655.02V344.383C655.02 344.806 655.107 345.125 655.283 345.34C655.459 345.548 655.758 345.652 656.182 345.652C656.39 345.652 656.676 345.613 657.041 345.535V347C656.566 347.13 656.104 347.195 655.654 347.195C654.847 347.195 654.238 346.951 653.828 346.463C653.418 345.975 653.213 345.281 653.213 344.383V337.83H651.289V336.434H653.213V333.875H655.02Z" fill="black"/>
<path d="M661.074 347H659.268V336.434H661.074V347ZM659.121 333.631C659.121 333.338 659.209 333.09 659.385 332.889C659.567 332.687 659.834 332.586 660.186 332.586C660.537 332.586 660.804 332.687 660.986 332.889C661.169 333.09 661.26 333.338 661.26 333.631C661.26 333.924 661.169 334.168 660.986 334.363C660.804 334.559 660.537 334.656 660.186 334.656C659.834 334.656 659.567 334.559 659.385 334.363C659.209 334.168 659.121 333.924 659.121 333.631Z" fill="black"/>
<path d="M667.461 344.549L670.078 336.434H671.924L668.135 347H666.758L662.93 336.434H664.775L667.461 344.549Z" fill="black"/>
<path d="M677.91 347.195C676.478 347.195 675.312 346.727 674.414 345.789C673.516 344.845 673.066 343.585 673.066 342.01V341.678C673.066 340.63 673.265 339.695 673.662 338.875C674.066 338.048 674.626 337.404 675.342 336.941C676.064 336.473 676.846 336.238 677.686 336.238C679.059 336.238 680.127 336.691 680.889 337.596C681.65 338.501 682.031 339.796 682.031 341.482V342.234H674.873C674.899 343.276 675.202 344.119 675.781 344.764C676.367 345.402 677.109 345.721 678.008 345.721C678.646 345.721 679.186 345.59 679.629 345.33C680.072 345.07 680.459 344.725 680.791 344.295L681.895 345.154C681.009 346.515 679.681 347.195 677.91 347.195ZM677.686 337.723C676.956 337.723 676.344 337.99 675.85 338.523C675.355 339.051 675.049 339.793 674.932 340.75H680.225V340.613C680.173 339.695 679.925 338.986 679.482 338.484C679.04 337.977 678.441 337.723 677.686 337.723Z" fill="black"/>
</svg>
