<?xml version="1.0" encoding="UTF-8"?>
<svg xmlns="http://www.w3.org/2000/svg" xmlns:xlink="http://www.w3.org/1999/xlink" width="90pt" height="46pt" viewBox="0 0 90 46" version="1.1">
<g id="surface1">
<path style=" stroke:none;fill-rule:nonzero;fill:rgb(100%,76.078431%,0%);fill-opacity:1;" d="M 17.875 33.734375 L 24.632812 33.734375 L 24.632812 35.953125 L 17.875 35.953125 Z M 17.875 33.734375 "/>
<path style=" stroke:none;fill-rule:nonzero;fill:rgb(14.117647%,14.117647%,13.72549%);fill-opacity:1;" d="M 73.410156 39.003906 L 71.429688 39.003906 L 69.796875 34.046875 L 68.148438 39.003906 L 66.164062 39.003906 L 63.398438 30.570312 L 65.582031 30.570312 L 67.230469 35.746094 L 68.929688 30.570312 L 70.644531 30.570312 L 72.34375 35.765625 L 74 30.570312 L 76.183594 30.570312 Z M 73.410156 39.003906 "/>
<path style=" stroke:none;fill-rule:nonzero;fill:rgb(14.117647%,14.117647%,13.72549%);fill-opacity:1;" d="M 62.6875 35.375 L 56.359375 35.375 C 56.445312 35.921875 56.707031 36.421875 57.101562 36.800781 C 57.464844 37.148438 57.945312 37.335938 58.441406 37.332031 C 59.390625 37.332031 60.078125 36.960938 60.507812 36.21875 L 62.472656 36.640625 C 62.164062 37.441406 61.609375 38.121094 60.890625 38.578125 C 60.152344 39.027344 59.300781 39.253906 58.4375 39.234375 C 57.875 39.246094 57.316406 39.144531 56.796875 38.929688 C 56.273438 38.714844 55.800781 38.394531 55.40625 37.992188 C 54.582031 37.160156 54.171875 36.089844 54.171875 34.785156 C 54.175781 33.480469 54.585938 32.410156 55.414062 31.574219 C 55.8125 31.164062 56.289062 30.84375 56.8125 30.625 C 57.339844 30.410156 57.902344 30.304688 58.472656 30.316406 C 59.015625 30.3125 59.550781 30.414062 60.054688 30.621094 C 60.554688 30.828125 61.011719 31.136719 61.394531 31.523438 C 62.210938 32.328125 62.640625 33.359375 62.6875 34.617188 Z M 57.199219 32.664062 C 56.804688 32.929688 56.527344 33.339844 56.421875 33.808594 L 60.441406 33.808594 C 60.34375 33.34375 60.082031 32.933594 59.707031 32.644531 C 59.351562 32.382812 58.917969 32.246094 58.476562 32.253906 C 58.019531 32.253906 57.574219 32.394531 57.199219 32.664062 Z M 57.199219 32.664062 "/>
<path style=" stroke:none;fill-rule:nonzero;fill:rgb(14.117647%,14.117647%,13.72549%);fill-opacity:1;" d="M 44.632812 39.042969 L 42.300781 39.042969 L 38.835938 30.613281 L 41.203125 30.613281 L 43.46875 36.328125 L 45.734375 30.613281 L 48.101562 30.613281 Z M 44.632812 39.042969 "/>
<path style=" stroke:none;fill-rule:nonzero;fill:rgb(14.117647%,14.117647%,13.72549%);fill-opacity:1;" d="M 38.417969 35.4375 L 32.09375 35.4375 C 32.179688 35.980469 32.4375 36.480469 32.835938 36.859375 C 33.195312 37.207031 33.675781 37.398438 34.175781 37.390625 C 35.121094 37.390625 35.8125 37.019531 36.242188 36.277344 L 38.207031 36.699219 C 37.894531 37.5 37.34375 38.179688 36.625 38.640625 C 35.886719 39.085938 35.035156 39.3125 34.171875 39.292969 C 33.609375 39.304688 33.050781 39.199219 32.527344 38.984375 C 32.007812 38.773438 31.535156 38.453125 31.140625 38.046875 C 30.320312 37.214844 29.90625 36.144531 29.90625 34.839844 C 29.90625 33.535156 30.320312 32.46875 31.148438 31.636719 C 31.546875 31.226562 32.023438 30.902344 32.546875 30.6875 C 33.074219 30.472656 33.636719 30.367188 34.207031 30.378906 C 34.746094 30.371094 35.285156 30.472656 35.789062 30.679688 C 36.289062 30.886719 36.746094 31.195312 37.128906 31.585938 C 37.945312 32.386719 38.375 33.417969 38.417969 34.675781 Z M 32.929688 32.722656 C 32.539062 32.988281 32.261719 33.398438 32.15625 33.867188 L 36.167969 33.867188 C 36.066406 33.402344 35.808594 32.992188 35.433594 32.703125 C 35.074219 32.445312 34.644531 32.304688 34.203125 32.3125 C 33.746094 32.3125 33.304688 32.457031 32.929688 32.722656 Z M 32.929688 32.722656 "/>
<path style=" stroke:none;fill-rule:nonzero;fill:rgb(14.117647%,14.117647%,13.72549%);fill-opacity:1;" d="M 29.273438 30.578125 L 29.15625 32.722656 L 28.675781 32.722656 C 26.699219 32.722656 25.707031 33.925781 25.707031 36.328125 L 25.707031 39.042969 L 23.511719 39.042969 L 23.511719 30.628906 L 25.707031 30.628906 L 25.707031 32.164062 C 26.464844 31.0625 27.457031 30.511719 28.691406 30.511719 C 28.886719 30.503906 29.082031 30.527344 29.273438 30.578125 Z M 29.273438 30.578125 "/>
<path style=" stroke:none;fill-rule:nonzero;fill:rgb(14.117647%,14.117647%,13.72549%);fill-opacity:1;" d="M 83.730469 22.234375 C 83.828125 23 84.402344 23.382812 85.445312 23.378906 C 85.777344 23.398438 86.109375 23.3125 86.394531 23.140625 C 86.5 23.078125 86.589844 22.992188 86.652344 22.882812 C 86.710938 22.777344 86.746094 22.65625 86.746094 22.535156 C 86.746094 22.164062 86.441406 21.910156 85.832031 21.777344 L 84.132812 21.421875 C 83.375 21.261719 82.792969 20.976562 82.390625 20.5625 C 82.191406 20.359375 82.035156 20.121094 81.929688 19.855469 C 81.824219 19.59375 81.773438 19.3125 81.78125 19.027344 C 81.769531 18.644531 81.851562 18.261719 82.011719 17.914062 C 82.171875 17.566406 82.410156 17.257812 82.707031 17.019531 C 83.324219 16.503906 84.148438 16.246094 85.179688 16.246094 C 86.144531 16.246094 86.953125 16.476562 87.605469 16.9375 C 87.910156 17.140625 88.175781 17.40625 88.378906 17.71875 C 88.582031 18.027344 88.726562 18.375 88.796875 18.738281 L 86.695312 19.160156 C 86.675781 18.996094 86.625 18.832031 86.539062 18.6875 C 86.453125 18.542969 86.339844 18.417969 86.203125 18.320312 C 85.886719 18.09375 85.503906 17.980469 85.113281 18 C 84.714844 18 84.425781 18.082031 84.246094 18.242188 C 84.164062 18.3125 84.097656 18.402344 84.050781 18.503906 C 84.003906 18.605469 83.980469 18.714844 83.980469 18.824219 C 83.980469 19.183594 84.230469 19.421875 84.730469 19.53125 L 86.710938 19.972656 C 87.421875 20.128906 87.964844 20.417969 88.335938 20.839844 C 88.707031 21.253906 88.90625 21.796875 88.894531 22.355469 C 88.894531 23.265625 88.5625 23.964844 87.902344 24.449219 C 87.242188 24.929688 86.355469 25.171875 85.246094 25.171875 C 84.257812 25.171875 83.414062 24.96875 82.714844 24.558594 C 82.378906 24.371094 82.09375 24.101562 81.882812 23.777344 C 81.675781 23.453125 81.546875 23.082031 81.515625 22.695312 Z M 83.730469 22.234375 "/>
<path style=" stroke:none;fill-rule:nonzero;fill:rgb(14.117647%,14.117647%,13.72549%);fill-opacity:1;" d="M 75.515625 22.234375 C 75.617188 23 76.1875 23.382812 77.234375 23.378906 C 77.566406 23.398438 77.894531 23.316406 78.183594 23.144531 C 78.289062 23.082031 78.375 22.996094 78.4375 22.886719 C 78.5 22.78125 78.53125 22.660156 78.53125 22.539062 C 78.53125 22.167969 78.226562 21.914062 77.617188 21.78125 L 75.917969 21.425781 C 75.160156 21.265625 74.582031 20.980469 74.175781 20.566406 C 73.976562 20.363281 73.820312 20.125 73.714844 19.859375 C 73.613281 19.597656 73.5625 19.316406 73.566406 19.03125 C 73.558594 18.648438 73.636719 18.265625 73.796875 17.917969 C 73.957031 17.570312 74.195312 17.261719 74.492188 17.023438 C 75.109375 16.507812 75.933594 16.25 76.964844 16.25 C 77.933594 16.25 78.738281 16.480469 79.390625 16.941406 C 79.695312 17.144531 79.960938 17.410156 80.164062 17.722656 C 80.371094 18.03125 80.511719 18.378906 80.582031 18.742188 L 78.480469 19.164062 C 78.464844 19 78.410156 18.835938 78.324219 18.691406 C 78.242188 18.546875 78.128906 18.421875 77.992188 18.324219 C 77.671875 18.097656 77.289062 17.984375 76.898438 18.003906 C 76.5 18.003906 76.210938 18.085938 76.035156 18.246094 C 75.949219 18.316406 75.882812 18.40625 75.835938 18.507812 C 75.789062 18.609375 75.765625 18.71875 75.765625 18.828125 C 75.765625 19.1875 76.015625 19.425781 76.515625 19.535156 L 78.5 19.976562 C 79.210938 20.132812 79.75 20.421875 80.125 20.84375 C 80.492188 21.257812 80.691406 21.800781 80.679688 22.355469 C 80.679688 23.265625 80.351562 23.964844 79.691406 24.449219 C 79.03125 24.929688 78.144531 25.171875 77.035156 25.171875 C 76.042969 25.171875 75.199219 24.96875 74.5 24.558594 C 74.164062 24.371094 73.878906 24.101562 73.671875 23.777344 C 73.460938 23.453125 73.335938 23.082031 73.300781 22.695312 Z M 75.515625 22.234375 "/>
<path style=" stroke:none;fill-rule:nonzero;fill:rgb(14.117647%,14.117647%,13.72549%);fill-opacity:1;" d="M 72.335938 21.3125 L 66.007812 21.3125 C 66.09375 21.855469 66.351562 22.359375 66.75 22.734375 C 67.113281 23.082031 67.59375 23.273438 68.089844 23.269531 C 69.039062 23.269531 69.726562 22.898438 70.15625 22.15625 L 72.121094 22.578125 C 71.8125 23.375 71.257812 24.054688 70.539062 24.515625 C 69.800781 24.964844 68.949219 25.191406 68.085938 25.167969 C 67.523438 25.183594 66.964844 25.078125 66.445312 24.863281 C 65.921875 24.648438 65.449219 24.332031 65.054688 23.925781 C 64.234375 23.09375 63.820312 22.027344 63.824219 20.722656 C 63.824219 19.417969 64.238281 18.347656 65.0625 17.511719 C 65.460938 17.101562 65.9375 16.777344 66.464844 16.5625 C 66.988281 16.34375 67.554688 16.242188 68.121094 16.253906 C 68.664062 16.246094 69.203125 16.347656 69.703125 16.554688 C 70.207031 16.761719 70.660156 17.070312 71.042969 17.460938 C 71.859375 18.261719 72.289062 19.292969 72.335938 20.554688 Z M 66.847656 18.59375 C 66.453125 18.859375 66.175781 19.269531 66.070312 19.738281 L 70.085938 19.738281 C 69.988281 19.273438 69.726562 18.863281 69.351562 18.574219 C 68.996094 18.3125 68.5625 18.175781 68.121094 18.183594 C 67.664062 18.183594 67.21875 18.328125 66.847656 18.59375 Z M 66.847656 18.59375 "/>
<path style=" stroke:none;fill-rule:nonzero;fill:rgb(14.117647%,14.117647%,13.72549%);fill-opacity:1;" d="M 42.597656 22.625 C 42.699219 23.390625 43.273438 23.773438 44.316406 23.773438 C 44.648438 23.789062 44.976562 23.707031 45.265625 23.535156 C 45.371094 23.476562 45.457031 23.386719 45.519531 23.28125 C 45.582031 23.171875 45.613281 23.054688 45.613281 22.929688 C 45.613281 22.558594 45.308594 22.304688 44.699219 22.171875 L 43 21.816406 C 42.242188 21.660156 41.664062 21.371094 41.257812 20.957031 C 41.0625 20.757812 40.90625 20.515625 40.800781 20.253906 C 40.695312 19.988281 40.644531 19.707031 40.652344 19.421875 C 40.640625 19.039062 40.71875 18.65625 40.878906 18.308594 C 41.039062 17.960938 41.277344 17.65625 41.574219 17.414062 C 42.191406 16.898438 43.015625 16.640625 44.050781 16.640625 C 45.015625 16.640625 45.824219 16.871094 46.472656 17.332031 C 46.78125 17.539062 47.042969 17.804688 47.246094 18.113281 C 47.453125 18.421875 47.59375 18.769531 47.664062 19.136719 L 45.566406 19.558594 C 45.546875 19.390625 45.492188 19.230469 45.40625 19.082031 C 45.324219 18.9375 45.210938 18.8125 45.074219 18.714844 C 44.753906 18.488281 44.371094 18.378906 43.984375 18.394531 C 43.582031 18.394531 43.292969 18.476562 43.117188 18.640625 C 43.03125 18.710938 42.964844 18.800781 42.917969 18.898438 C 42.875 19 42.851562 19.109375 42.851562 19.21875 C 42.851562 19.582031 43.101562 19.816406 43.597656 19.929688 L 45.582031 20.367188 C 46.292969 20.523438 46.832031 20.8125 47.207031 21.234375 C 47.578125 21.648438 47.777344 22.191406 47.765625 22.75 C 47.765625 23.660156 47.433594 24.355469 46.773438 24.839844 C 46.113281 25.324219 45.226562 25.566406 44.117188 25.566406 C 43.128906 25.566406 42.285156 25.359375 41.582031 24.949219 C 41.246094 24.761719 40.964844 24.492188 40.753906 24.167969 C 40.546875 23.84375 40.417969 23.472656 40.382812 23.085938 Z M 42.597656 22.625 "/>
<path style=" stroke:none;fill-rule:nonzero;fill:rgb(14.117647%,14.117647%,13.72549%);fill-opacity:1;" d="M 61.457031 17.234375 C 62.066406 17.890625 62.375 18.742188 62.375 19.789062 L 62.375 24.914062 L 60.179688 24.914062 L 60.179688 20.265625 C 60.179688 19.671875 60.027344 19.191406 59.71875 18.828125 C 59.570312 18.652344 59.382812 18.511719 59.167969 18.417969 C 58.957031 18.324219 58.726562 18.28125 58.496094 18.289062 C 57.117188 18.289062 56.429688 19.253906 56.429688 21.1875 L 56.429688 24.914062 L 54.234375 24.914062 L 54.234375 16.5 L 56.429688 16.5 L 56.429688 17.261719 C 57.097656 16.585938 57.96875 16.25 59.046875 16.25 C 60.042969 16.25 60.847656 16.578125 61.457031 17.234375 Z M 61.457031 17.234375 "/>
<path style=" stroke:none;fill-rule:nonzero;fill:rgb(14.117647%,14.117647%,13.72549%);fill-opacity:1;" d="M 38.835938 25.304688 L 36.640625 25.304688 L 36.640625 24.546875 C 35.972656 25.222656 35.101562 25.558594 34.027344 25.558594 C 33.027344 25.558594 32.222656 25.230469 31.609375 24.574219 C 31 23.914062 30.691406 23.0625 30.695312 22.019531 L 30.695312 16.894531 L 32.890625 16.894531 L 32.890625 21.546875 C 32.890625 22.144531 33.042969 22.621094 33.347656 22.984375 C 33.496094 23.160156 33.6875 23.300781 33.898438 23.394531 C 34.109375 23.488281 34.339844 23.535156 34.570312 23.523438 C 35.949219 23.523438 36.636719 22.558594 36.636719 20.625 L 36.636719 16.894531 L 38.832031 16.894531 Z M 38.835938 25.304688 "/>
<path style=" stroke:none;fill-rule:nonzero;fill:rgb(14.117647%,14.117647%,13.72549%);fill-opacity:1;" d="M 27.996094 17.914062 C 28.808594 18.761719 29.21875 19.828125 29.21875 21.109375 C 29.21875 22.390625 28.8125 23.453125 28.003906 24.296875 C 27.191406 25.136719 26.238281 25.558594 25.136719 25.558594 C 24.039062 25.5625 23.121094 25.257812 22.390625 24.644531 L 22.390625 25.296875 L 20.195312 25.296875 L 20.195312 13.167969 L 22.390625 13.167969 L 22.390625 17.566406 C 23.121094 16.949219 24.039062 16.640625 25.136719 16.640625 C 26.238281 16.640625 27.1875 17.066406 27.996094 17.914062 Z M 26.429688 22.9375 C 26.867188 22.480469 27.085938 21.871094 27.085938 21.109375 C 27.085938 20.347656 26.867188 19.734375 26.429688 19.269531 C 26.210938 19.042969 25.949219 18.863281 25.660156 18.746094 C 25.371094 18.625 25.0625 18.570312 24.75 18.582031 C 24.441406 18.582031 24.136719 18.644531 23.855469 18.765625 C 23.570312 18.886719 23.3125 19.0625 23.101562 19.289062 C 22.863281 19.523438 22.675781 19.808594 22.554688 20.121094 C 22.429688 20.433594 22.371094 20.773438 22.382812 21.109375 C 22.371094 21.445312 22.429688 21.78125 22.550781 22.09375 C 22.675781 22.402344 22.863281 22.6875 23.101562 22.921875 C 23.316406 23.144531 23.570312 23.320312 23.855469 23.441406 C 24.136719 23.558594 24.441406 23.621094 24.75 23.621094 C 25.0625 23.632812 25.371094 23.578125 25.660156 23.460938 C 25.949219 23.339844 26.210938 23.164062 26.429688 22.9375 Z M 26.429688 22.9375 "/>
<path style=" stroke:none;fill-rule:nonzero;fill:rgb(100%,76.078431%,0%);fill-opacity:1;" d="M 71.632812 5.582031 L 77.25 5.582031 L 77.25 7.800781 L 71.632812 7.800781 Z M 71.632812 5.582031 "/>
<path style=" stroke:none;fill-rule:nonzero;fill:rgb(14.117647%,14.117647%,13.72549%);fill-opacity:1;" d="M 71.3125 3.582031 C 72.1875 4.410156 72.625 5.46875 72.621094 6.761719 C 72.621094 8.050781 72.1875 9.113281 71.3125 9.941406 C 70.460938 10.761719 69.320312 11.207031 68.140625 11.183594 C 66.875 11.183594 65.804688 10.769531 64.925781 9.941406 C 64.050781 9.117188 63.609375 8.054688 63.609375 6.765625 C 63.609375 5.472656 64.046875 4.414062 64.925781 3.585938 C 65.804688 2.761719 66.875 2.347656 68.140625 2.347656 C 69.320312 2.320312 70.460938 2.765625 71.3125 3.582031 Z M 69.773438 8.574219 C 70.25 8.105469 70.492188 7.5 70.492188 6.761719 C 70.503906 6.425781 70.445312 6.089844 70.320312 5.777344 C 70.199219 5.464844 70.011719 5.183594 69.773438 4.949219 C 69.5625 4.726562 69.308594 4.550781 69.027344 4.433594 C 68.746094 4.3125 68.445312 4.25 68.140625 4.25 C 67.515625 4.246094 66.910156 4.492188 66.464844 4.941406 C 65.980469 5.402344 65.738281 6.007812 65.738281 6.761719 C 65.738281 7.511719 65.980469 8.121094 66.464844 8.582031 C 66.683594 8.804688 66.945312 8.976562 67.234375 9.097656 C 67.523438 9.214844 67.832031 9.273438 68.140625 9.273438 C 68.445312 9.273438 68.746094 9.210938 69.027344 9.089844 C 69.308594 8.96875 69.5625 8.792969 69.773438 8.574219 Z M 69.773438 8.574219 "/>
<path style=" stroke:none;fill-rule:nonzero;fill:rgb(14.117647%,14.117647%,13.72549%);fill-opacity:1;" d="M 61.304688 3.582031 C 62.175781 4.410156 62.613281 5.46875 62.613281 6.761719 C 62.613281 8.050781 62.175781 9.113281 61.304688 9.941406 C 60.449219 10.761719 59.308594 11.207031 58.128906 11.183594 C 56.863281 11.183594 55.792969 10.769531 54.914062 9.941406 C 54.035156 9.117188 53.597656 8.054688 53.597656 6.761719 C 53.597656 5.46875 54.035156 4.410156 54.914062 3.582031 C 55.792969 2.757812 56.863281 2.34375 58.128906 2.34375 C 59.308594 2.316406 60.449219 2.761719 61.304688 3.582031 Z M 59.761719 8.574219 C 60.238281 8.105469 60.476562 7.5 60.476562 6.761719 C 60.492188 6.425781 60.433594 6.089844 60.308594 5.777344 C 60.1875 5.464844 60 5.183594 59.761719 4.949219 C 59.550781 4.726562 59.296875 4.550781 59.015625 4.433594 C 58.734375 4.3125 58.433594 4.25 58.128906 4.25 C 57.5 4.246094 56.898438 4.492188 56.449219 4.941406 C 55.96875 5.402344 55.726562 6.007812 55.726562 6.761719 C 55.726562 7.511719 55.96875 8.121094 56.449219 8.582031 C 56.898438 9.027344 57.5 9.277344 58.128906 9.273438 C 58.433594 9.273438 58.734375 9.210938 59.015625 9.089844 C 59.296875 8.96875 59.550781 8.792969 59.761719 8.574219 Z M 59.761719 8.574219 "/>
<path style=" stroke:none;fill-rule:nonzero;fill:rgb(100%,76.078431%,0%);fill-opacity:1;" d="M 49.714844 38.941406 L 49.714844 0 L 51.90625 0 L 51.90625 38.941406 Z M 49.714844 38.941406 "/>
<path style=" stroke:none;fill-rule:nonzero;fill:rgb(14.117647%,14.117647%,13.72549%);fill-opacity:1;" d="M 47.707031 2.492188 L 47.589844 4.636719 L 47.105469 4.636719 C 45.125 4.636719 44.136719 5.839844 44.136719 8.242188 L 44.136719 10.957031 L 41.941406 10.957031 L 41.941406 2.546875 L 44.136719 2.546875 L 44.136719 4.078125 C 44.890625 2.980469 45.882812 2.429688 47.117188 2.429688 C 47.316406 2.417969 47.515625 2.441406 47.707031 2.492188 Z M 47.707031 2.492188 "/>
<path style=" stroke:none;fill-rule:nonzero;fill:rgb(14.117647%,14.117647%,13.72549%);fill-opacity:1;" d="M 40.019531 7.351562 L 33.691406 7.351562 C 33.773438 7.894531 34.035156 8.398438 34.433594 8.773438 C 34.792969 9.121094 35.277344 9.3125 35.773438 9.308594 C 36.722656 9.308594 37.410156 8.9375 37.839844 8.195312 L 39.804688 8.617188 C 39.496094 9.414062 38.941406 10.09375 38.222656 10.554688 C 37.484375 11.003906 36.632812 11.230469 35.769531 11.207031 C 35.207031 11.21875 34.648438 11.117188 34.125 10.902344 C 33.605469 10.6875 33.132812 10.367188 32.738281 9.960938 C 31.914062 9.128906 31.503906 8.058594 31.503906 6.757812 C 31.507812 5.453125 31.917969 4.382812 32.746094 3.546875 C 33.144531 3.136719 33.621094 2.8125 34.144531 2.597656 C 34.671875 2.382812 35.234375 2.277344 35.800781 2.289062 C 36.34375 2.28125 36.882812 2.382812 37.386719 2.589844 C 37.886719 2.796875 38.34375 3.105469 38.726562 3.496094 C 39.542969 4.296875 39.972656 5.328125 40.019531 6.585938 Z M 34.527344 4.636719 C 34.136719 4.902344 33.859375 5.3125 33.753906 5.78125 L 37.769531 5.78125 C 37.667969 5.320312 37.410156 4.90625 37.035156 4.621094 C 36.675781 4.359375 36.246094 4.21875 35.800781 4.226562 C 35.347656 4.230469 34.902344 4.371094 34.527344 4.636719 Z M 34.527344 4.636719 "/>
<path style=" stroke:none;fill-rule:nonzero;fill:rgb(14.117647%,14.117647%,13.72549%);fill-opacity:1;" d="M 30.769531 10.585938 C 30 11.003906 29.28125 11.210938 28.601562 11.210938 C 27.582031 11.210938 26.78125 10.933594 26.203125 10.378906 C 25.625 9.820312 25.335938 8.980469 25.335938 7.851562 L 25.335938 4.363281 L 23.554688 4.363281 L 23.554688 2.546875 L 25.335938 2.546875 L 25.335938 0 L 27.53125 0 L 27.53125 2.546875 L 30.242188 2.546875 L 30.242188 4.367188 L 27.53125 4.367188 L 27.53125 7.6875 C 27.53125 8.65625 27.9375 9.136719 28.75 9.136719 C 29.234375 9.121094 29.710938 8.980469 30.132812 8.734375 Z M 30.769531 10.585938 "/>
<path style=" stroke:none;fill-rule:nonzero;fill:rgb(14.117647%,14.117647%,13.72549%);fill-opacity:1;" d="M 22.390625 10.957031 L 20.195312 10.957031 L 20.195312 10.304688 C 19.449219 10.914062 18.535156 11.21875 17.445312 11.21875 C 16.355469 11.21875 15.398438 10.792969 14.574219 9.941406 C 13.765625 9.097656 13.359375 8.035156 13.359375 6.753906 C 13.359375 5.472656 13.769531 4.410156 14.585938 3.5625 C 15.402344 2.710938 16.351562 2.289062 17.441406 2.289062 C 18.527344 2.289062 19.445312 2.597656 20.191406 3.214844 L 20.191406 2.546875 L 22.386719 2.546875 Z M 19.472656 8.574219 C 19.949219 8.105469 20.191406 7.5 20.191406 6.761719 C 20.203125 6.421875 20.144531 6.085938 20.019531 5.773438 C 19.898438 5.460938 19.710938 5.175781 19.472656 4.941406 C 19.261719 4.714844 19.003906 4.539062 18.722656 4.417969 C 18.441406 4.296875 18.136719 4.230469 17.832031 4.230469 C 17.519531 4.222656 17.207031 4.277344 16.917969 4.398438 C 16.628906 4.515625 16.367188 4.695312 16.152344 4.921875 C 15.714844 5.382812 15.496094 5.996094 15.496094 6.761719 C 15.496094 7.523438 15.714844 8.132812 16.152344 8.589844 C 16.371094 8.816406 16.632812 8.992188 16.921875 9.109375 C 17.210938 9.230469 17.519531 9.285156 17.832031 9.273438 C 18.136719 9.273438 18.441406 9.210938 18.722656 9.089844 C 19.003906 8.96875 19.257812 8.792969 19.472656 8.574219 Z M 19.472656 8.574219 "/>
<path style=" stroke:none;fill-rule:nonzero;fill:rgb(14.117647%,14.117647%,13.72549%);fill-opacity:1;" d="M 10.011719 10.976562 L 8.027344 10.976562 L 6.398438 6.023438 L 4.746094 10.980469 L 2.765625 10.980469 L 0 2.546875 L 2.183594 2.546875 L 3.832031 7.722656 L 5.53125 2.542969 L 7.242188 2.542969 L 8.941406 7.738281 L 10.601562 2.546875 L 12.78125 2.546875 Z M 10.011719 10.976562 "/>
<path style=" stroke:none;fill-rule:nonzero;fill:rgb(0%,0%,0%);fill-opacity:1;" d="M 22.828125 44.863281 L 22.058594 44.863281 L 21.882812 45.347656 L 21.632812 45.347656 L 22.335938 43.488281 L 22.546875 43.488281 L 23.25 45.347656 L 23 45.347656 Z M 22.128906 44.660156 L 22.753906 44.660156 L 22.441406 43.789062 Z M 22.128906 44.660156 "/>
<path style=" stroke:none;fill-rule:nonzero;fill:rgb(0%,0%,0%);fill-opacity:1;" d="M 24.679688 44.519531 C 24.472656 44.457031 24.320312 44.382812 24.226562 44.296875 C 24.128906 44.207031 24.082031 44.097656 24.082031 43.96875 C 24.082031 43.824219 24.140625 43.703125 24.257812 43.605469 C 24.371094 43.511719 24.523438 43.464844 24.707031 43.464844 C 24.832031 43.464844 24.945312 43.488281 25.042969 43.535156 C 25.144531 43.585938 25.21875 43.65625 25.273438 43.742188 C 25.328125 43.828125 25.355469 43.921875 25.355469 44.027344 L 25.113281 44.027344 C 25.113281 43.914062 25.078125 43.824219 25.007812 43.761719 C 24.9375 43.695312 24.835938 43.664062 24.707031 43.664062 C 24.589844 43.664062 24.496094 43.691406 24.429688 43.746094 C 24.363281 43.796875 24.328125 43.871094 24.328125 43.964844 C 24.328125 44.042969 24.359375 44.105469 24.421875 44.160156 C 24.488281 44.210938 24.59375 44.257812 24.746094 44.300781 C 24.898438 44.34375 25.019531 44.394531 25.105469 44.445312 C 25.191406 44.496094 25.253906 44.558594 25.296875 44.628906 C 25.339844 44.699219 25.359375 44.78125 25.359375 44.875 C 25.359375 45.023438 25.300781 45.144531 25.1875 45.238281 C 25.070312 45.328125 24.914062 45.371094 24.71875 45.371094 C 24.59375 45.371094 24.476562 45.347656 24.367188 45.300781 C 24.257812 45.25 24.171875 45.183594 24.113281 45.097656 C 24.054688 45.011719 24.027344 44.917969 24.027344 44.808594 L 24.269531 44.808594 C 24.269531 44.921875 24.308594 45.007812 24.390625 45.074219 C 24.472656 45.140625 24.582031 45.171875 24.71875 45.171875 C 24.847656 45.171875 24.945312 45.144531 25.015625 45.09375 C 25.082031 45.039062 25.117188 44.96875 25.117188 44.875 C 25.117188 44.785156 25.085938 44.714844 25.023438 44.667969 C 24.957031 44.617188 24.84375 44.566406 24.679688 44.519531 Z M 24.679688 44.519531 "/>
<path style=" stroke:none;fill-rule:nonzero;fill:rgb(0%,0%,0%);fill-opacity:1;" d="M 26.183594 45.179688 C 26.265625 45.179688 26.335938 45.152344 26.398438 45.101562 C 26.460938 45.050781 26.496094 44.988281 26.503906 44.910156 L 26.722656 44.910156 C 26.71875 44.992188 26.691406 45.066406 26.644531 45.136719 C 26.59375 45.207031 26.527344 45.265625 26.445312 45.308594 C 26.363281 45.351562 26.273438 45.371094 26.183594 45.371094 C 25.996094 45.371094 25.847656 45.308594 25.738281 45.183594 C 25.628906 45.058594 25.574219 44.886719 25.574219 44.667969 L 25.574219 44.628906 C 25.574219 44.496094 25.597656 44.375 25.648438 44.269531 C 25.695312 44.167969 25.765625 44.085938 25.855469 44.027344 C 25.949219 43.96875 26.054688 43.941406 26.179688 43.941406 C 26.332031 43.941406 26.460938 43.988281 26.5625 44.078125 C 26.664062 44.171875 26.71875 44.292969 26.722656 44.441406 L 26.503906 44.441406 C 26.496094 44.351562 26.464844 44.277344 26.402344 44.222656 C 26.34375 44.164062 26.269531 44.132812 26.179688 44.132812 C 26.0625 44.132812 25.96875 44.175781 25.90625 44.265625 C 25.839844 44.351562 25.808594 44.476562 25.808594 44.636719 L 25.808594 44.683594 C 25.808594 44.84375 25.839844 44.964844 25.90625 45.050781 C 25.96875 45.136719 26.0625 45.179688 26.183594 45.179688 Z M 26.183594 45.179688 "/>
<path style=" stroke:none;fill-rule:nonzero;fill:rgb(0%,0%,0%);fill-opacity:1;" d="M 27.21875 44.132812 C 27.324219 44.003906 27.457031 43.941406 27.625 43.941406 C 27.910156 43.941406 28.058594 44.105469 28.058594 44.433594 L 28.058594 45.347656 L 27.824219 45.347656 L 27.824219 44.433594 C 27.824219 44.332031 27.800781 44.257812 27.757812 44.210938 C 27.714844 44.164062 27.644531 44.140625 27.550781 44.140625 C 27.476562 44.140625 27.410156 44.160156 27.351562 44.203125 C 27.296875 44.242188 27.25 44.296875 27.21875 44.363281 L 27.21875 45.347656 L 26.984375 45.347656 L 26.984375 43.386719 L 27.21875 43.386719 Z M 27.21875 44.132812 "/>
<path style=" stroke:none;fill-rule:nonzero;fill:rgb(0%,0%,0%);fill-opacity:1;" d="M 28.347656 44.644531 C 28.347656 44.507812 28.371094 44.386719 28.425781 44.277344 C 28.476562 44.171875 28.550781 44.085938 28.644531 44.027344 C 28.738281 43.96875 28.847656 43.941406 28.964844 43.941406 C 29.152344 43.941406 29.300781 44.003906 29.417969 44.136719 C 29.53125 44.265625 29.589844 44.4375 29.589844 44.65625 L 29.589844 44.671875 C 29.589844 44.804688 29.5625 44.925781 29.511719 45.035156 C 29.460938 45.140625 29.390625 45.222656 29.292969 45.28125 C 29.199219 45.34375 29.089844 45.371094 28.96875 45.371094 C 28.785156 45.371094 28.632812 45.308594 28.519531 45.175781 C 28.402344 45.046875 28.347656 44.875 28.347656 44.660156 Z M 28.582031 44.671875 C 28.582031 44.824219 28.617188 44.949219 28.6875 45.039062 C 28.757812 45.132812 28.851562 45.179688 28.96875 45.179688 C 29.085938 45.179688 29.179688 45.132812 29.25 45.039062 C 29.320312 44.945312 29.355469 44.8125 29.355469 44.644531 C 29.355469 44.492188 29.320312 44.371094 29.25 44.277344 C 29.179688 44.179688 29.082031 44.132812 28.964844 44.132812 C 28.851562 44.132812 28.757812 44.179688 28.6875 44.273438 C 28.617188 44.367188 28.582031 44.5 28.582031 44.671875 Z M 28.582031 44.671875 "/>
<path style=" stroke:none;fill-rule:nonzero;fill:rgb(0%,0%,0%);fill-opacity:1;" d="M 29.820312 44.644531 C 29.820312 44.507812 29.847656 44.386719 29.898438 44.277344 C 29.949219 44.171875 30.023438 44.085938 30.117188 44.027344 C 30.210938 43.96875 30.320312 43.941406 30.4375 43.941406 C 30.625 43.941406 30.773438 44.003906 30.890625 44.136719 C 31.003906 44.265625 31.0625 44.4375 31.0625 44.65625 L 31.0625 44.671875 C 31.0625 44.804688 31.035156 44.925781 30.984375 45.035156 C 30.933594 45.140625 30.863281 45.222656 30.765625 45.28125 C 30.671875 45.34375 30.5625 45.371094 30.441406 45.371094 C 30.257812 45.371094 30.105469 45.308594 29.992188 45.175781 C 29.875 45.046875 29.820312 44.875 29.820312 44.660156 Z M 30.054688 44.671875 C 30.054688 44.824219 30.089844 44.949219 30.160156 45.039062 C 30.230469 45.132812 30.324219 45.179688 30.441406 45.179688 C 30.558594 45.179688 30.652344 45.132812 30.722656 45.039062 C 30.792969 44.945312 30.828125 44.8125 30.828125 44.644531 C 30.828125 44.492188 30.792969 44.371094 30.722656 44.277344 C 30.652344 44.179688 30.554688 44.132812 30.4375 44.132812 C 30.324219 44.132812 30.230469 44.179688 30.160156 44.273438 C 30.089844 44.367188 30.054688 44.5 30.054688 44.671875 Z M 30.054688 44.671875 "/>
<path style=" stroke:none;fill-rule:nonzero;fill:rgb(0%,0%,0%);fill-opacity:1;" d="M 31.609375 45.347656 L 31.375 45.347656 L 31.375 43.386719 L 31.609375 43.386719 Z M 31.609375 45.347656 "/>
<path style=" stroke:none;fill-rule:nonzero;fill:rgb(0%,0%,0%);fill-opacity:1;" d="M 32.5625 44.644531 C 32.5625 44.507812 32.585938 44.386719 32.640625 44.277344 C 32.691406 44.171875 32.765625 44.085938 32.859375 44.027344 C 32.953125 43.96875 33.058594 43.941406 33.179688 43.941406 C 33.367188 43.941406 33.515625 44.003906 33.628906 44.136719 C 33.746094 44.265625 33.804688 44.4375 33.804688 44.65625 L 33.804688 44.671875 C 33.804688 44.804688 33.777344 44.925781 33.726562 45.035156 C 33.675781 45.140625 33.601562 45.222656 33.507812 45.28125 C 33.414062 45.34375 33.304688 45.371094 33.183594 45.371094 C 32.996094 45.371094 32.847656 45.308594 32.734375 45.175781 C 32.617188 45.046875 32.5625 44.875 32.5625 44.660156 Z M 32.796875 44.671875 C 32.796875 44.824219 32.832031 44.949219 32.898438 45.039062 C 32.972656 45.132812 33.066406 45.179688 33.183594 45.179688 C 33.300781 45.179688 33.394531 45.132812 33.464844 45.039062 C 33.535156 44.945312 33.570312 44.8125 33.570312 44.644531 C 33.570312 44.492188 33.535156 44.371094 33.460938 44.277344 C 33.390625 44.179688 33.296875 44.132812 33.179688 44.132812 C 33.066406 44.132812 32.972656 44.179688 32.902344 44.273438 C 32.832031 44.367188 32.796875 44.5 32.796875 44.671875 Z M 32.796875 44.671875 "/>
<path style=" stroke:none;fill-rule:nonzero;fill:rgb(0%,0%,0%);fill-opacity:1;" d="M 34.210938 45.347656 L 34.210938 44.148438 L 33.996094 44.148438 L 33.996094 43.964844 L 34.210938 43.964844 L 34.210938 43.824219 C 34.210938 43.675781 34.25 43.5625 34.328125 43.480469 C 34.40625 43.398438 34.515625 43.359375 34.660156 43.359375 C 34.714844 43.359375 34.765625 43.367188 34.820312 43.382812 L 34.808594 43.574219 C 34.765625 43.566406 34.726562 43.5625 34.679688 43.5625 C 34.605469 43.5625 34.546875 43.582031 34.503906 43.628906 C 34.464844 43.671875 34.445312 43.738281 34.445312 43.820312 L 34.445312 43.964844 L 34.734375 43.964844 L 34.734375 44.148438 L 34.445312 44.148438 L 34.445312 45.347656 Z M 34.210938 45.347656 "/>
<path style=" stroke:none;fill-rule:nonzero;fill:rgb(0%,0%,0%);fill-opacity:1;" d="M 36.683594 44.863281 L 35.914062 44.863281 L 35.742188 45.347656 L 35.492188 45.347656 L 36.195312 43.488281 L 36.40625 43.488281 L 37.109375 45.347656 L 36.859375 45.347656 Z M 35.988281 44.660156 L 36.613281 44.660156 L 36.300781 43.789062 Z M 35.988281 44.660156 "/>
<path style=" stroke:none;fill-rule:nonzero;fill:rgb(0%,0%,0%);fill-opacity:1;" d="M 37.867188 45.179688 C 37.949219 45.179688 38.023438 45.152344 38.085938 45.101562 C 38.144531 45.050781 38.179688 44.988281 38.1875 44.910156 L 38.410156 44.910156 C 38.402344 44.992188 38.378906 45.066406 38.328125 45.136719 C 38.277344 45.207031 38.210938 45.265625 38.128906 45.308594 C 38.046875 45.351562 37.957031 45.371094 37.867188 45.371094 C 37.679688 45.371094 37.53125 45.308594 37.421875 45.183594 C 37.3125 45.058594 37.257812 44.886719 37.257812 44.667969 L 37.257812 44.628906 C 37.257812 44.496094 37.28125 44.375 37.332031 44.269531 C 37.378906 44.167969 37.449219 44.085938 37.539062 44.027344 C 37.632812 43.96875 37.742188 43.941406 37.863281 43.941406 C 38.019531 43.941406 38.144531 43.988281 38.246094 44.078125 C 38.347656 44.171875 38.402344 44.292969 38.410156 44.441406 L 38.1875 44.441406 C 38.179688 44.351562 38.148438 44.277344 38.085938 44.222656 C 38.027344 44.164062 37.953125 44.132812 37.863281 44.132812 C 37.746094 44.132812 37.652344 44.175781 37.589844 44.265625 C 37.523438 44.351562 37.492188 44.476562 37.492188 44.636719 L 37.492188 44.683594 C 37.492188 44.84375 37.523438 44.964844 37.589844 45.050781 C 37.652344 45.136719 37.746094 45.179688 37.867188 45.179688 Z M 37.867188 45.179688 "/>
<path style=" stroke:none;fill-rule:nonzero;fill:rgb(0%,0%,0%);fill-opacity:1;" d="M 39.21875 45.179688 C 39.300781 45.179688 39.375 45.152344 39.4375 45.101562 C 39.5 45.050781 39.53125 44.988281 39.539062 44.910156 L 39.761719 44.910156 C 39.753906 44.992188 39.730469 45.066406 39.679688 45.136719 C 39.628906 45.207031 39.5625 45.265625 39.480469 45.308594 C 39.398438 45.351562 39.308594 45.371094 39.21875 45.371094 C 39.03125 45.371094 38.882812 45.308594 38.773438 45.183594 C 38.664062 45.058594 38.609375 44.886719 38.609375 44.667969 L 38.609375 44.628906 C 38.609375 44.496094 38.632812 44.375 38.683594 44.269531 C 38.730469 44.167969 38.800781 44.085938 38.890625 44.027344 C 38.984375 43.96875 39.09375 43.941406 39.214844 43.941406 C 39.371094 43.941406 39.496094 43.988281 39.597656 44.078125 C 39.699219 44.171875 39.753906 44.292969 39.761719 44.441406 L 39.539062 44.441406 C 39.53125 44.351562 39.5 44.277344 39.4375 44.222656 C 39.378906 44.164062 39.304688 44.132812 39.214844 44.132812 C 39.097656 44.132812 39.007812 44.175781 38.941406 44.265625 C 38.875 44.351562 38.84375 44.476562 38.84375 44.636719 L 38.84375 44.683594 C 38.84375 44.84375 38.875 44.964844 38.941406 45.050781 C 39.003906 45.136719 39.097656 45.179688 39.21875 45.179688 Z M 39.21875 45.179688 "/>
<path style=" stroke:none;fill-rule:nonzero;fill:rgb(0%,0%,0%);fill-opacity:1;" d="M 39.960938 44.644531 C 39.960938 44.507812 39.988281 44.386719 40.039062 44.277344 C 40.089844 44.171875 40.164062 44.085938 40.257812 44.027344 C 40.351562 43.96875 40.460938 43.941406 40.578125 43.941406 C 40.765625 43.941406 40.914062 44.003906 41.03125 44.136719 C 41.144531 44.265625 41.203125 44.4375 41.203125 44.65625 L 41.203125 44.671875 C 41.203125 44.804688 41.175781 44.925781 41.125 45.035156 C 41.074219 45.140625 41.003906 45.222656 40.90625 45.28125 C 40.8125 45.34375 40.703125 45.371094 40.582031 45.371094 C 40.398438 45.371094 40.246094 45.308594 40.132812 45.175781 C 40.019531 45.046875 39.960938 44.875 39.960938 44.660156 Z M 40.195312 44.671875 C 40.195312 44.824219 40.230469 44.949219 40.300781 45.039062 C 40.371094 45.132812 40.464844 45.179688 40.582031 45.179688 C 40.699219 45.179688 40.792969 45.132812 40.863281 45.039062 C 40.933594 44.945312 40.96875 44.8125 40.96875 44.644531 C 40.96875 44.492188 40.933594 44.371094 40.863281 44.277344 C 40.792969 44.179688 40.699219 44.132812 40.578125 44.132812 C 40.464844 44.132812 40.371094 44.179688 40.300781 44.273438 C 40.230469 44.367188 40.195312 44.5 40.195312 44.671875 Z M 40.195312 44.671875 "/>
<path style=" stroke:none;fill-rule:nonzero;fill:rgb(0%,0%,0%);fill-opacity:1;" d="M 42.335938 45.210938 C 42.246094 45.316406 42.113281 45.371094 41.9375 45.371094 C 41.792969 45.371094 41.679688 45.328125 41.605469 45.246094 C 41.527344 45.160156 41.492188 45.03125 41.488281 44.863281 L 41.488281 43.964844 L 41.722656 43.964844 L 41.722656 44.859375 C 41.722656 45.066406 41.808594 45.171875 41.976562 45.171875 C 42.152344 45.171875 42.273438 45.105469 42.332031 44.96875 L 42.332031 43.964844 L 42.566406 43.964844 L 42.566406 45.347656 L 42.34375 45.347656 Z M 42.335938 45.210938 "/>
<path style=" stroke:none;fill-rule:nonzero;fill:rgb(0%,0%,0%);fill-opacity:1;" d="M 43.140625 43.964844 L 43.148438 44.140625 C 43.253906 44.007812 43.390625 43.941406 43.558594 43.941406 C 43.84375 43.941406 43.992188 44.105469 43.992188 44.433594 L 43.992188 45.347656 L 43.761719 45.347656 L 43.761719 44.433594 C 43.757812 44.332031 43.738281 44.257812 43.691406 44.210938 C 43.648438 44.164062 43.578125 44.140625 43.484375 44.140625 C 43.410156 44.140625 43.34375 44.160156 43.285156 44.203125 C 43.230469 44.242188 43.183594 44.296875 43.152344 44.363281 L 43.152344 45.347656 L 42.921875 45.347656 L 42.921875 43.964844 Z M 43.140625 43.964844 "/>
<path style=" stroke:none;fill-rule:nonzero;fill:rgb(0%,0%,0%);fill-opacity:1;" d="M 44.660156 43.632812 L 44.660156 43.964844 L 44.917969 43.964844 L 44.917969 44.148438 L 44.660156 44.148438 L 44.660156 45.003906 C 44.660156 45.058594 44.671875 45.101562 44.695312 45.128906 C 44.71875 45.15625 44.757812 45.171875 44.8125 45.171875 C 44.839844 45.171875 44.875 45.164062 44.921875 45.15625 L 44.921875 45.347656 C 44.859375 45.363281 44.800781 45.371094 44.742188 45.371094 C 44.640625 45.371094 44.5625 45.339844 44.507812 45.277344 C 44.453125 45.210938 44.429688 45.121094 44.429688 45.003906 L 44.429688 44.148438 L 44.179688 44.148438 L 44.179688 43.964844 L 44.429688 43.964844 L 44.429688 43.632812 Z M 44.660156 43.632812 "/>
<path style=" stroke:none;fill-rule:nonzero;fill:rgb(0%,0%,0%);fill-opacity:1;" d="M 45.445312 45.347656 L 45.210938 45.347656 L 45.210938 43.964844 L 45.445312 43.964844 Z M 45.191406 43.597656 C 45.191406 43.5625 45.203125 43.527344 45.226562 43.503906 C 45.25 43.476562 45.28125 43.464844 45.328125 43.464844 C 45.375 43.464844 45.410156 43.476562 45.433594 43.503906 C 45.457031 43.527344 45.46875 43.5625 45.46875 43.597656 C 45.46875 43.636719 45.457031 43.667969 45.433594 43.695312 C 45.410156 43.722656 45.375 43.734375 45.328125 43.734375 C 45.28125 43.734375 45.25 43.722656 45.226562 43.695312 C 45.203125 43.667969 45.191406 43.636719 45.191406 43.597656 Z M 45.191406 43.597656 "/>
<path style=" stroke:none;fill-rule:nonzero;fill:rgb(0%,0%,0%);fill-opacity:1;" d="M 46.039062 43.964844 L 46.046875 44.140625 C 46.148438 44.007812 46.285156 43.941406 46.453125 43.941406 C 46.742188 43.941406 46.886719 44.105469 46.890625 44.433594 L 46.890625 45.347656 L 46.65625 45.347656 L 46.65625 44.433594 C 46.65625 44.332031 46.632812 44.257812 46.589844 44.210938 C 46.546875 44.164062 46.476562 44.140625 46.382812 44.140625 C 46.308594 44.140625 46.242188 44.160156 46.183594 44.203125 C 46.128906 44.242188 46.082031 44.296875 46.050781 44.363281 L 46.050781 45.347656 L 45.816406 45.347656 L 45.816406 43.964844 Z M 46.039062 43.964844 "/>
<path style=" stroke:none;fill-rule:nonzero;fill:rgb(0%,0%,0%);fill-opacity:1;" d="M 47.1875 44.644531 C 47.1875 44.429688 47.238281 44.257812 47.335938 44.132812 C 47.433594 44.003906 47.5625 43.941406 47.726562 43.941406 C 47.890625 43.941406 48.023438 44 48.117188 44.117188 L 48.125 43.964844 L 48.339844 43.964844 L 48.339844 45.3125 C 48.339844 45.492188 48.289062 45.632812 48.183594 45.734375 C 48.078125 45.839844 47.9375 45.890625 47.761719 45.890625 C 47.664062 45.890625 47.566406 45.867188 47.472656 45.828125 C 47.378906 45.785156 47.304688 45.726562 47.257812 45.652344 L 47.378906 45.511719 C 47.476562 45.636719 47.601562 45.699219 47.746094 45.699219 C 47.859375 45.699219 47.945312 45.664062 48.007812 45.601562 C 48.074219 45.535156 48.105469 45.445312 48.105469 45.328125 L 48.105469 45.207031 C 48.011719 45.316406 47.882812 45.371094 47.722656 45.371094 C 47.5625 45.371094 47.433594 45.308594 47.335938 45.175781 C 47.238281 45.046875 47.1875 44.871094 47.1875 44.644531 Z M 47.421875 44.671875 C 47.421875 44.828125 47.453125 44.949219 47.515625 45.039062 C 47.578125 45.128906 47.667969 45.171875 47.78125 45.171875 C 47.929688 45.171875 48.035156 45.105469 48.105469 44.96875 L 48.105469 44.339844 C 48.035156 44.207031 47.925781 44.140625 47.785156 44.140625 C 47.671875 44.140625 47.582031 44.183594 47.519531 44.273438 C 47.453125 44.363281 47.421875 44.496094 47.421875 44.671875 Z M 47.421875 44.671875 "/>
<path style=" stroke:none;fill-rule:nonzero;fill:rgb(0%,0%,0%);fill-opacity:1;" d="M 50.175781 45.347656 C 50.164062 45.320312 50.152344 45.269531 50.144531 45.199219 C 50.035156 45.316406 49.90625 45.371094 49.753906 45.371094 C 49.621094 45.371094 49.507812 45.332031 49.421875 45.257812 C 49.335938 45.179688 49.292969 45.082031 49.292969 44.964844 C 49.292969 44.820312 49.347656 44.707031 49.457031 44.628906 C 49.5625 44.550781 49.714844 44.507812 49.914062 44.507812 L 50.140625 44.507812 L 50.140625 44.402344 C 50.140625 44.320312 50.113281 44.253906 50.066406 44.203125 C 50.015625 44.15625 49.945312 44.128906 49.851562 44.128906 C 49.765625 44.128906 49.699219 44.152344 49.640625 44.195312 C 49.585938 44.238281 49.558594 44.289062 49.558594 44.347656 L 49.320312 44.347656 C 49.320312 44.28125 49.347656 44.214844 49.394531 44.148438 C 49.441406 44.085938 49.507812 44.035156 49.589844 43.996094 C 49.675781 43.960938 49.765625 43.941406 49.863281 43.941406 C 50.023438 43.941406 50.144531 43.980469 50.234375 44.058594 C 50.324219 44.140625 50.367188 44.25 50.371094 44.386719 L 50.371094 45.023438 C 50.371094 45.152344 50.386719 45.25 50.421875 45.328125 L 50.421875 45.347656 Z M 49.789062 45.167969 C 49.863281 45.167969 49.929688 45.148438 49.996094 45.109375 C 50.0625 45.070312 50.109375 45.019531 50.140625 44.960938 L 50.140625 44.675781 L 49.957031 44.675781 C 49.671875 44.675781 49.527344 44.761719 49.527344 44.929688 C 49.527344 45.003906 49.550781 45.0625 49.601562 45.105469 C 49.648438 45.144531 49.710938 45.167969 49.789062 45.167969 Z M 49.789062 45.167969 "/>
<path style=" stroke:none;fill-rule:nonzero;fill:rgb(0%,0%,0%);fill-opacity:1;" d="M 50.957031 43.964844 L 50.964844 44.140625 C 51.070312 44.007812 51.207031 43.941406 51.375 43.941406 C 51.664062 43.941406 51.808594 44.105469 51.8125 44.433594 L 51.8125 45.347656 L 51.578125 45.347656 L 51.578125 44.433594 C 51.578125 44.332031 51.554688 44.257812 51.511719 44.210938 C 51.464844 44.164062 51.398438 44.140625 51.304688 44.140625 C 51.230469 44.140625 51.164062 44.160156 51.105469 44.203125 C 51.046875 44.242188 51.003906 44.296875 50.972656 44.363281 L 50.972656 45.347656 L 50.738281 45.347656 L 50.738281 43.964844 Z M 50.957031 43.964844 "/>
<path style=" stroke:none;fill-rule:nonzero;fill:rgb(0%,0%,0%);fill-opacity:1;" d="M 52.105469 44.644531 C 52.105469 44.433594 52.15625 44.261719 52.253906 44.132812 C 52.355469 44.003906 52.484375 43.941406 52.644531 43.941406 C 52.804688 43.941406 52.929688 43.996094 53.023438 44.105469 L 53.023438 43.386719 L 53.257812 43.386719 L 53.257812 45.347656 L 53.042969 45.347656 L 53.03125 45.199219 C 52.9375 45.3125 52.808594 45.371094 52.640625 45.371094 C 52.484375 45.371094 52.355469 45.304688 52.253906 45.175781 C 52.15625 45.042969 52.105469 44.875 52.105469 44.664062 Z M 52.339844 44.671875 C 52.339844 44.828125 52.371094 44.949219 52.433594 45.039062 C 52.5 45.128906 52.585938 45.171875 52.699219 45.171875 C 52.847656 45.171875 52.957031 45.105469 53.023438 44.96875 L 53.023438 44.335938 C 52.953125 44.207031 52.847656 44.140625 52.703125 44.140625 C 52.589844 44.140625 52.5 44.183594 52.433594 44.273438 C 52.371094 44.363281 52.339844 44.496094 52.339844 44.671875 Z M 52.339844 44.671875 "/>
<path style=" stroke:none;fill-rule:nonzero;fill:rgb(0%,0%,0%);fill-opacity:1;" d="M 55.3125 44.527344 L 54.539062 44.527344 L 54.539062 45.347656 L 54.296875 45.347656 L 54.296875 43.488281 L 55.433594 43.488281 L 55.433594 43.691406 L 54.539062 43.691406 L 54.539062 44.324219 L 55.3125 44.324219 Z M 55.3125 44.527344 "/>
<path style=" stroke:none;fill-rule:nonzero;fill:rgb(0%,0%,0%);fill-opacity:1;" d="M 55.941406 45.347656 L 55.710938 45.347656 L 55.710938 43.964844 L 55.941406 43.964844 Z M 55.691406 43.597656 C 55.691406 43.5625 55.703125 43.527344 55.722656 43.503906 C 55.746094 43.476562 55.78125 43.464844 55.828125 43.464844 C 55.871094 43.464844 55.90625 43.476562 55.929688 43.503906 C 55.953125 43.527344 55.964844 43.5625 55.964844 43.597656 C 55.964844 43.636719 55.953125 43.667969 55.929688 43.695312 C 55.90625 43.722656 55.871094 43.734375 55.828125 43.734375 C 55.78125 43.734375 55.746094 43.722656 55.722656 43.695312 C 55.703125 43.667969 55.691406 43.636719 55.691406 43.597656 Z M 55.691406 43.597656 "/>
<path style=" stroke:none;fill-rule:nonzero;fill:rgb(0%,0%,0%);fill-opacity:1;" d="M 56.539062 43.964844 L 56.546875 44.140625 C 56.648438 44.007812 56.785156 43.941406 56.953125 43.941406 C 57.242188 43.941406 57.386719 44.105469 57.390625 44.433594 L 57.390625 45.347656 L 57.15625 45.347656 L 57.15625 44.433594 C 57.15625 44.332031 57.132812 44.257812 57.089844 44.210938 C 57.042969 44.164062 56.976562 44.140625 56.882812 44.140625 C 56.808594 44.140625 56.742188 44.160156 56.683594 44.203125 C 56.625 44.242188 56.582031 44.296875 56.550781 44.363281 L 56.550781 45.347656 L 56.316406 45.347656 L 56.316406 43.964844 Z M 56.539062 43.964844 "/>
<path style=" stroke:none;fill-rule:nonzero;fill:rgb(0%,0%,0%);fill-opacity:1;" d="M 58.585938 45.347656 C 58.570312 45.320312 58.558594 45.269531 58.550781 45.199219 C 58.441406 45.316406 58.3125 45.371094 58.164062 45.371094 C 58.027344 45.371094 57.917969 45.332031 57.832031 45.257812 C 57.746094 45.179688 57.703125 45.082031 57.703125 44.964844 C 57.703125 44.820312 57.757812 44.707031 57.863281 44.628906 C 57.972656 44.550781 58.125 44.507812 58.320312 44.507812 L 58.546875 44.507812 L 58.546875 44.402344 C 58.546875 44.320312 58.523438 44.253906 58.472656 44.203125 C 58.425781 44.15625 58.355469 44.128906 58.257812 44.128906 C 58.175781 44.128906 58.105469 44.152344 58.050781 44.195312 C 57.992188 44.238281 57.964844 44.289062 57.964844 44.347656 L 57.730469 44.347656 C 57.730469 44.28125 57.753906 44.214844 57.800781 44.148438 C 57.851562 44.085938 57.917969 44.035156 58 43.996094 C 58.082031 43.960938 58.171875 43.941406 58.273438 43.941406 C 58.429688 43.941406 58.554688 43.980469 58.640625 44.058594 C 58.730469 44.140625 58.777344 44.25 58.78125 44.386719 L 58.78125 45.023438 C 58.78125 45.152344 58.796875 45.25 58.828125 45.328125 L 58.828125 45.347656 Z M 58.195312 45.167969 C 58.269531 45.167969 58.339844 45.148438 58.40625 45.109375 C 58.46875 45.070312 58.519531 45.019531 58.546875 44.960938 L 58.546875 44.675781 L 58.363281 44.675781 C 58.078125 44.675781 57.9375 44.761719 57.9375 44.929688 C 57.9375 45.003906 57.960938 45.0625 58.007812 45.105469 C 58.058594 45.144531 58.121094 45.167969 58.195312 45.167969 Z M 58.195312 45.167969 "/>
<path style=" stroke:none;fill-rule:nonzero;fill:rgb(0%,0%,0%);fill-opacity:1;" d="M 59.367188 43.964844 L 59.375 44.140625 C 59.480469 44.007812 59.613281 43.941406 59.785156 43.941406 C 60.070312 43.941406 60.21875 44.105469 60.21875 44.433594 L 60.21875 45.347656 L 59.988281 45.347656 L 59.988281 44.433594 C 59.984375 44.332031 59.960938 44.257812 59.917969 44.210938 C 59.875 44.164062 59.804688 44.140625 59.710938 44.140625 C 59.636719 44.140625 59.570312 44.160156 59.511719 44.203125 C 59.457031 44.242188 59.410156 44.296875 59.378906 44.363281 L 59.378906 45.347656 L 59.148438 45.347656 L 59.148438 43.964844 Z M 59.367188 43.964844 "/>
<path style=" stroke:none;fill-rule:nonzero;fill:rgb(0%,0%,0%);fill-opacity:1;" d="M 61.117188 45.179688 C 61.203125 45.179688 61.273438 45.152344 61.335938 45.101562 C 61.398438 45.050781 61.433594 44.988281 61.441406 44.910156 L 61.660156 44.910156 C 61.65625 44.992188 61.628906 45.066406 61.582031 45.136719 C 61.53125 45.207031 61.464844 45.265625 61.382812 45.308594 C 61.296875 45.351562 61.210938 45.371094 61.117188 45.371094 C 60.933594 45.371094 60.785156 45.308594 60.675781 45.183594 C 60.566406 45.058594 60.511719 44.886719 60.511719 44.667969 L 60.511719 44.628906 C 60.511719 44.496094 60.535156 44.375 60.582031 44.269531 C 60.632812 44.167969 60.703125 44.085938 60.792969 44.027344 C 60.886719 43.96875 60.992188 43.941406 61.117188 43.941406 C 61.269531 43.941406 61.398438 43.988281 61.5 44.078125 C 61.601562 44.171875 61.652344 44.292969 61.660156 44.441406 L 61.441406 44.441406 C 61.433594 44.351562 61.398438 44.277344 61.339844 44.222656 C 61.28125 44.164062 61.207031 44.132812 61.117188 44.132812 C 61 44.132812 60.90625 44.175781 60.839844 44.265625 C 60.777344 44.351562 60.746094 44.476562 60.746094 44.636719 L 60.746094 44.683594 C 60.746094 44.84375 60.777344 44.964844 60.839844 45.050781 C 60.90625 45.136719 61 45.179688 61.117188 45.179688 Z M 61.117188 45.179688 "/>
<path style=" stroke:none;fill-rule:nonzero;fill:rgb(0%,0%,0%);fill-opacity:1;" d="M 62.488281 45.371094 C 62.304688 45.371094 62.152344 45.3125 62.039062 45.1875 C 61.921875 45.066406 61.863281 44.898438 61.863281 44.695312 L 61.863281 44.652344 C 61.863281 44.515625 61.890625 44.390625 61.941406 44.285156 C 61.992188 44.175781 62.066406 44.09375 62.15625 44.03125 C 62.25 43.972656 62.351562 43.941406 62.460938 43.941406 C 62.636719 43.941406 62.777344 44 62.875 44.117188 C 62.972656 44.234375 63.019531 44.40625 63.019531 44.625 L 63.019531 44.722656 L 62.097656 44.722656 C 62.101562 44.859375 62.140625 44.96875 62.214844 45.054688 C 62.289062 45.136719 62.386719 45.179688 62.503906 45.179688 C 62.585938 45.179688 62.652344 45.164062 62.710938 45.128906 C 62.769531 45.09375 62.820312 45.050781 62.859375 44.992188 L 63.003906 45.105469 C 62.890625 45.285156 62.71875 45.371094 62.488281 45.371094 Z M 62.460938 44.132812 C 62.367188 44.132812 62.289062 44.167969 62.222656 44.238281 C 62.160156 44.308594 62.121094 44.40625 62.105469 44.53125 L 62.789062 44.53125 L 62.789062 44.511719 C 62.78125 44.390625 62.75 44.300781 62.691406 44.234375 C 62.636719 44.167969 62.558594 44.132812 62.460938 44.132812 Z M 62.460938 44.132812 "/>
<path style=" stroke:none;fill-rule:nonzero;fill:rgb(0%,0%,0%);fill-opacity:1;" d="M 64.511719 44.519531 C 64.304688 44.457031 64.152344 44.382812 64.058594 44.296875 C 63.960938 44.207031 63.914062 44.097656 63.914062 43.96875 C 63.914062 43.824219 63.972656 43.703125 64.089844 43.605469 C 64.203125 43.511719 64.355469 43.464844 64.539062 43.464844 C 64.664062 43.464844 64.777344 43.488281 64.875 43.535156 C 64.976562 43.585938 65.050781 43.65625 65.105469 43.742188 C 65.160156 43.828125 65.1875 43.921875 65.1875 44.027344 L 64.945312 44.027344 C 64.945312 43.914062 64.910156 43.824219 64.839844 43.761719 C 64.769531 43.695312 64.667969 43.664062 64.539062 43.664062 C 64.421875 43.664062 64.328125 43.691406 64.257812 43.746094 C 64.195312 43.796875 64.160156 43.871094 64.160156 43.964844 C 64.160156 44.042969 64.191406 44.105469 64.253906 44.160156 C 64.320312 44.210938 64.425781 44.257812 64.578125 44.300781 C 64.730469 44.34375 64.851562 44.394531 64.9375 44.445312 C 65.023438 44.496094 65.085938 44.558594 65.128906 44.628906 C 65.171875 44.699219 65.191406 44.78125 65.191406 44.875 C 65.191406 45.023438 65.132812 45.144531 65.015625 45.238281 C 64.902344 45.328125 64.746094 45.371094 64.550781 45.371094 C 64.425781 45.371094 64.308594 45.347656 64.199219 45.300781 C 64.089844 45.25 64.003906 45.183594 63.945312 45.097656 C 63.886719 45.011719 63.859375 44.917969 63.859375 44.808594 L 64.101562 44.808594 C 64.101562 44.921875 64.140625 45.007812 64.222656 45.074219 C 64.304688 45.140625 64.414062 45.171875 64.550781 45.171875 C 64.679688 45.171875 64.777344 45.144531 64.847656 45.09375 C 64.914062 45.039062 64.949219 44.96875 64.949219 44.875 C 64.949219 44.785156 64.917969 44.714844 64.855469 44.667969 C 64.789062 44.617188 64.675781 44.566406 64.511719 44.519531 Z M 64.511719 44.519531 "/>
<path style=" stroke:none;fill-rule:nonzero;fill:rgb(0%,0%,0%);fill-opacity:1;" d="M 65.78125 43.632812 L 65.78125 43.964844 L 66.039062 43.964844 L 66.039062 44.148438 L 65.78125 44.148438 L 65.78125 45.003906 C 65.78125 45.058594 65.792969 45.101562 65.816406 45.128906 C 65.839844 45.15625 65.878906 45.171875 65.933594 45.171875 C 65.960938 45.171875 65.996094 45.164062 66.042969 45.15625 L 66.042969 45.347656 C 65.984375 45.363281 65.921875 45.371094 65.863281 45.371094 C 65.761719 45.371094 65.683594 45.339844 65.628906 45.277344 C 65.578125 45.210938 65.550781 45.121094 65.550781 45.003906 L 65.550781 44.148438 L 65.300781 44.148438 L 65.300781 43.964844 L 65.550781 43.964844 L 65.550781 43.632812 Z M 65.78125 43.632812 "/>
<path style=" stroke:none;fill-rule:nonzero;fill:rgb(0%,0%,0%);fill-opacity:1;" d="M 67.152344 45.210938 C 67.0625 45.316406 66.929688 45.371094 66.753906 45.371094 C 66.609375 45.371094 66.496094 45.328125 66.421875 45.246094 C 66.34375 45.160156 66.308594 45.03125 66.304688 44.863281 L 66.304688 43.964844 L 66.539062 43.964844 L 66.539062 44.859375 C 66.539062 45.066406 66.625 45.171875 66.792969 45.171875 C 66.96875 45.171875 67.089844 45.105469 67.148438 44.96875 L 67.148438 43.964844 L 67.378906 43.964844 L 67.378906 45.347656 L 67.160156 45.347656 Z M 67.152344 45.210938 "/>
<path style=" stroke:none;fill-rule:nonzero;fill:rgb(0%,0%,0%);fill-opacity:1;" d="M 67.679688 44.644531 C 67.679688 44.433594 67.730469 44.261719 67.828125 44.132812 C 67.925781 44.003906 68.058594 43.941406 68.21875 43.941406 C 68.378906 43.941406 68.503906 43.996094 68.597656 44.105469 L 68.597656 43.386719 L 68.832031 43.386719 L 68.832031 45.347656 L 68.617188 45.347656 L 68.605469 45.199219 C 68.511719 45.3125 68.382812 45.371094 68.214844 45.371094 C 68.058594 45.371094 67.929688 45.304688 67.828125 45.175781 C 67.730469 45.042969 67.679688 44.875 67.679688 44.664062 Z M 67.914062 44.671875 C 67.914062 44.828125 67.945312 44.949219 68.007812 45.039062 C 68.074219 45.128906 68.160156 45.171875 68.273438 45.171875 C 68.421875 45.171875 68.53125 45.105469 68.597656 44.96875 L 68.597656 44.335938 C 68.527344 44.207031 68.421875 44.140625 68.277344 44.140625 C 68.160156 44.140625 68.074219 44.183594 68.007812 44.273438 C 67.945312 44.363281 67.914062 44.496094 67.914062 44.671875 Z M 67.914062 44.671875 "/>
<path style=" stroke:none;fill-rule:nonzero;fill:rgb(0%,0%,0%);fill-opacity:1;" d="M 69.761719 45.371094 C 69.574219 45.371094 69.425781 45.3125 69.308594 45.1875 C 69.191406 45.066406 69.132812 44.898438 69.132812 44.695312 L 69.132812 44.652344 C 69.132812 44.515625 69.160156 44.390625 69.210938 44.285156 C 69.265625 44.175781 69.335938 44.09375 69.429688 44.03125 C 69.523438 43.972656 69.621094 43.941406 69.730469 43.941406 C 69.910156 43.941406 70.046875 44 70.144531 44.117188 C 70.242188 44.234375 70.292969 44.40625 70.292969 44.625 L 70.292969 44.722656 L 69.367188 44.722656 C 69.371094 44.859375 69.410156 44.96875 69.484375 45.054688 C 69.5625 45.136719 69.65625 45.179688 69.773438 45.179688 C 69.855469 45.179688 69.925781 45.164062 69.980469 45.128906 C 70.039062 45.09375 70.089844 45.050781 70.132812 44.992188 L 70.273438 45.105469 C 70.160156 45.285156 69.988281 45.371094 69.761719 45.371094 Z M 69.730469 44.132812 C 69.636719 44.132812 69.558594 44.167969 69.492188 44.238281 C 69.429688 44.308594 69.390625 44.40625 69.375 44.53125 L 70.058594 44.53125 L 70.058594 44.511719 C 70.050781 44.390625 70.019531 44.300781 69.964844 44.234375 C 69.90625 44.167969 69.828125 44.132812 69.730469 44.132812 Z M 69.730469 44.132812 "/>
<path style=" stroke:none;fill-rule:nonzero;fill:rgb(0%,0%,0%);fill-opacity:1;" d="M 70.785156 43.964844 L 70.792969 44.140625 C 70.894531 44.007812 71.03125 43.941406 71.199219 43.941406 C 71.488281 43.941406 71.632812 44.105469 71.636719 44.433594 L 71.636719 45.347656 L 71.402344 45.347656 L 71.402344 44.433594 C 71.402344 44.332031 71.378906 44.257812 71.335938 44.210938 C 71.292969 44.164062 71.222656 44.140625 71.128906 44.140625 C 71.054688 44.140625 70.988281 44.160156 70.929688 44.203125 C 70.875 44.242188 70.828125 44.296875 70.796875 44.363281 L 70.796875 45.347656 L 70.5625 45.347656 L 70.5625 43.964844 Z M 70.785156 43.964844 "/>
<path style=" stroke:none;fill-rule:nonzero;fill:rgb(0%,0%,0%);fill-opacity:1;" d="M 72.304688 43.632812 L 72.304688 43.964844 L 72.558594 43.964844 L 72.558594 44.148438 L 72.304688 44.148438 L 72.304688 45.003906 C 72.304688 45.058594 72.316406 45.101562 72.339844 45.128906 C 72.363281 45.15625 72.398438 45.171875 72.453125 45.171875 C 72.480469 45.171875 72.519531 45.164062 72.566406 45.15625 L 72.566406 45.347656 C 72.503906 45.363281 72.445312 45.371094 72.386719 45.371094 C 72.28125 45.371094 72.203125 45.339844 72.152344 45.277344 C 72.097656 45.210938 72.070312 45.121094 72.070312 45.003906 L 72.070312 44.148438 L 71.824219 44.148438 L 71.824219 43.964844 L 72.070312 43.964844 L 72.070312 43.632812 Z M 72.304688 43.632812 "/>
<path style=" stroke:none;fill-rule:nonzero;fill:rgb(0%,0%,0%);fill-opacity:1;" d="M 73.320312 44.652344 L 72.703125 44.652344 L 72.703125 44.460938 L 73.320312 44.460938 Z M 73.320312 44.652344 "/>
<path style=" stroke:none;fill-rule:nonzero;fill:rgb(0%,0%,0%);fill-opacity:1;" d="M 74.257812 44.59375 L 73.824219 44.59375 L 73.824219 45.347656 L 73.582031 45.347656 L 73.582031 43.488281 L 74.191406 43.488281 C 74.398438 43.488281 74.554688 43.535156 74.667969 43.632812 C 74.777344 43.726562 74.835938 43.867188 74.835938 44.046875 C 74.835938 44.164062 74.804688 44.265625 74.742188 44.351562 C 74.679688 44.4375 74.59375 44.5 74.484375 44.542969 L 74.914062 45.332031 L 74.914062 45.347656 L 74.65625 45.347656 Z M 73.824219 44.394531 L 74.199219 44.394531 C 74.316406 44.394531 74.414062 44.363281 74.484375 44.300781 C 74.554688 44.238281 74.589844 44.152344 74.589844 44.046875 C 74.589844 43.933594 74.558594 43.84375 74.488281 43.785156 C 74.421875 43.722656 74.324219 43.691406 74.195312 43.691406 L 73.824219 43.691406 Z M 73.824219 44.394531 "/>
<path style=" stroke:none;fill-rule:nonzero;fill:rgb(0%,0%,0%);fill-opacity:1;" d="M 75.980469 45.210938 C 75.890625 45.316406 75.757812 45.371094 75.582031 45.371094 C 75.433594 45.371094 75.324219 45.328125 75.246094 45.246094 C 75.171875 45.160156 75.132812 45.03125 75.132812 44.863281 L 75.132812 43.964844 L 75.367188 43.964844 L 75.367188 44.859375 C 75.367188 45.066406 75.449219 45.171875 75.617188 45.171875 C 75.796875 45.171875 75.914062 45.105469 75.972656 44.96875 L 75.972656 43.964844 L 76.207031 43.964844 L 76.207031 45.347656 L 75.984375 45.347656 Z M 75.980469 45.210938 "/>
<path style=" stroke:none;fill-rule:nonzero;fill:rgb(0%,0%,0%);fill-opacity:1;" d="M 76.785156 43.964844 L 76.792969 44.140625 C 76.894531 44.007812 77.03125 43.941406 77.199219 43.941406 C 77.488281 43.941406 77.632812 44.105469 77.636719 44.433594 L 77.636719 45.347656 L 77.402344 45.347656 L 77.402344 44.433594 C 77.402344 44.332031 77.378906 44.257812 77.335938 44.210938 C 77.292969 44.164062 77.222656 44.140625 77.128906 44.140625 C 77.054688 44.140625 76.988281 44.160156 76.929688 44.203125 C 76.871094 44.242188 76.828125 44.296875 76.796875 44.363281 L 76.796875 45.347656 L 76.5625 45.347656 L 76.5625 43.964844 Z M 76.785156 43.964844 "/>
<path style=" stroke:none;fill-rule:nonzero;fill:rgb(0%,0%,0%);fill-opacity:1;" d="M 78.925781 45.347656 L 78.683594 45.347656 L 78.683594 43.488281 L 78.925781 43.488281 Z M 78.925781 45.347656 "/>
<path style=" stroke:none;fill-rule:nonzero;fill:rgb(0%,0%,0%);fill-opacity:1;" d="M 79.554688 43.964844 L 79.558594 44.140625 C 79.664062 44.007812 79.800781 43.941406 79.96875 43.941406 C 80.257812 43.941406 80.402344 44.105469 80.40625 44.433594 L 80.40625 45.347656 L 80.171875 45.347656 L 80.171875 44.433594 C 80.171875 44.332031 80.148438 44.257812 80.105469 44.210938 C 80.058594 44.164062 79.992188 44.140625 79.898438 44.140625 C 79.824219 44.140625 79.757812 44.160156 79.699219 44.203125 C 79.640625 44.242188 79.597656 44.296875 79.566406 44.363281 L 79.566406 45.347656 L 79.332031 45.347656 L 79.332031 43.964844 Z M 79.554688 43.964844 "/>
<path style=" stroke:none;fill-rule:nonzero;fill:rgb(0%,0%,0%);fill-opacity:1;" d="M 81.011719 45.347656 L 80.777344 45.347656 L 80.777344 43.964844 L 81.011719 43.964844 Z M 80.757812 43.597656 C 80.757812 43.5625 80.769531 43.527344 80.792969 43.503906 C 80.816406 43.476562 80.851562 43.464844 80.894531 43.464844 C 80.941406 43.464844 80.976562 43.476562 81 43.503906 C 81.023438 43.527344 81.035156 43.5625 81.035156 43.597656 C 81.035156 43.636719 81.023438 43.667969 81 43.695312 C 80.976562 43.722656 80.941406 43.734375 80.894531 43.734375 C 80.851562 43.734375 80.816406 43.722656 80.792969 43.695312 C 80.769531 43.667969 80.757812 43.636719 80.757812 43.597656 Z M 80.757812 43.597656 "/>
<path style=" stroke:none;fill-rule:nonzero;fill:rgb(0%,0%,0%);fill-opacity:1;" d="M 81.703125 43.632812 L 81.703125 43.964844 L 81.957031 43.964844 L 81.957031 44.148438 L 81.703125 44.148438 L 81.703125 45.003906 C 81.703125 45.058594 81.714844 45.101562 81.734375 45.128906 C 81.757812 45.15625 81.796875 45.171875 81.851562 45.171875 C 81.878906 45.171875 81.914062 45.164062 81.960938 45.15625 L 81.960938 45.347656 C 81.902344 45.363281 81.839844 45.371094 81.785156 45.371094 C 81.679688 45.371094 81.601562 45.339844 81.546875 45.277344 C 81.496094 45.210938 81.46875 45.121094 81.46875 45.003906 L 81.46875 44.148438 L 81.21875 44.148438 L 81.21875 43.964844 L 81.46875 43.964844 L 81.46875 43.632812 Z M 81.703125 43.632812 "/>
<path style=" stroke:none;fill-rule:nonzero;fill:rgb(0%,0%,0%);fill-opacity:1;" d="M 82.484375 45.347656 L 82.25 45.347656 L 82.25 43.964844 L 82.484375 43.964844 Z M 82.230469 43.597656 C 82.230469 43.5625 82.242188 43.527344 82.265625 43.503906 C 82.289062 43.476562 82.324219 43.464844 82.367188 43.464844 C 82.414062 43.464844 82.449219 43.476562 82.472656 43.503906 C 82.496094 43.527344 82.507812 43.5625 82.507812 43.597656 C 82.507812 43.636719 82.496094 43.667969 82.472656 43.695312 C 82.449219 43.722656 82.414062 43.734375 82.367188 43.734375 C 82.324219 43.734375 82.289062 43.722656 82.265625 43.695312 C 82.242188 43.667969 82.230469 43.636719 82.230469 43.597656 Z M 82.230469 43.597656 "/>
<path style=" stroke:none;fill-rule:nonzero;fill:rgb(0%,0%,0%);fill-opacity:1;" d="M 83.699219 45.347656 C 83.6875 45.320312 83.675781 45.269531 83.667969 45.199219 C 83.558594 45.316406 83.429688 45.371094 83.277344 45.371094 C 83.144531 45.371094 83.035156 45.332031 82.949219 45.257812 C 82.863281 45.179688 82.820312 45.082031 82.820312 44.964844 C 82.820312 44.820312 82.871094 44.707031 82.980469 44.628906 C 83.089844 44.550781 83.242188 44.507812 83.4375 44.507812 L 83.664062 44.507812 L 83.664062 44.402344 C 83.664062 44.320312 83.640625 44.253906 83.589844 44.203125 C 83.542969 44.15625 83.46875 44.128906 83.375 44.128906 C 83.292969 44.128906 83.222656 44.152344 83.164062 44.195312 C 83.109375 44.238281 83.082031 44.289062 83.082031 44.347656 L 82.847656 44.347656 C 82.847656 44.28125 82.871094 44.214844 82.917969 44.148438 C 82.96875 44.085938 83.03125 44.035156 83.117188 43.996094 C 83.199219 43.960938 83.289062 43.941406 83.390625 43.941406 C 83.546875 43.941406 83.667969 43.980469 83.757812 44.058594 C 83.847656 44.140625 83.894531 44.25 83.898438 44.386719 L 83.898438 45.023438 C 83.898438 45.152344 83.914062 45.25 83.945312 45.328125 L 83.945312 45.347656 Z M 83.3125 45.167969 C 83.386719 45.167969 83.457031 45.148438 83.519531 45.109375 C 83.585938 45.070312 83.632812 45.019531 83.664062 44.960938 L 83.664062 44.675781 L 83.480469 44.675781 C 83.195312 44.675781 83.050781 44.761719 83.050781 44.929688 C 83.050781 45.003906 83.078125 45.0625 83.125 45.105469 C 83.175781 45.144531 83.238281 45.167969 83.3125 45.167969 Z M 83.3125 45.167969 "/>
<path style=" stroke:none;fill-rule:nonzero;fill:rgb(0%,0%,0%);fill-opacity:1;" d="M 84.578125 43.632812 L 84.578125 43.964844 L 84.832031 43.964844 L 84.832031 44.148438 L 84.578125 44.148438 L 84.578125 45.003906 C 84.578125 45.058594 84.589844 45.101562 84.613281 45.128906 C 84.636719 45.15625 84.675781 45.171875 84.730469 45.171875 C 84.757812 45.171875 84.792969 45.164062 84.839844 45.15625 L 84.839844 45.347656 C 84.777344 45.363281 84.71875 45.371094 84.660156 45.371094 C 84.558594 45.371094 84.476562 45.339844 84.425781 45.277344 C 84.371094 45.210938 84.347656 45.121094 84.347656 45.003906 L 84.347656 44.148438 L 84.097656 44.148438 L 84.097656 43.964844 L 84.347656 43.964844 L 84.347656 43.632812 Z M 84.578125 43.632812 "/>
<path style=" stroke:none;fill-rule:nonzero;fill:rgb(0%,0%,0%);fill-opacity:1;" d="M 85.359375 45.347656 L 85.128906 45.347656 L 85.128906 43.964844 L 85.359375 43.964844 Z M 85.109375 43.597656 C 85.109375 43.5625 85.121094 43.527344 85.144531 43.503906 C 85.167969 43.476562 85.199219 43.464844 85.246094 43.464844 C 85.292969 43.464844 85.328125 43.476562 85.351562 43.503906 C 85.375 43.527344 85.386719 43.5625 85.386719 43.597656 C 85.386719 43.636719 85.375 43.667969 85.351562 43.695312 C 85.328125 43.722656 85.292969 43.734375 85.246094 43.734375 C 85.199219 43.734375 85.167969 43.722656 85.144531 43.695312 C 85.121094 43.667969 85.109375 43.636719 85.109375 43.597656 Z M 85.109375 43.597656 "/>
<path style=" stroke:none;fill-rule:nonzero;fill:rgb(0%,0%,0%);fill-opacity:1;" d="M 86.1875 45.027344 L 86.523438 43.964844 L 86.761719 43.964844 L 86.273438 45.347656 L 86.09375 45.347656 L 85.601562 43.964844 L 85.839844 43.964844 Z M 86.1875 45.027344 "/>
<path style=" stroke:none;fill-rule:nonzero;fill:rgb(0%,0%,0%);fill-opacity:1;" d="M 87.535156 45.371094 C 87.351562 45.371094 87.199219 45.3125 87.082031 45.1875 C 86.96875 45.066406 86.910156 44.898438 86.910156 44.695312 L 86.910156 44.652344 C 86.910156 44.515625 86.933594 44.390625 86.988281 44.285156 C 87.039062 44.175781 87.109375 44.09375 87.203125 44.03125 C 87.296875 43.972656 87.398438 43.941406 87.507812 43.941406 C 87.683594 43.941406 87.820312 44 87.917969 44.117188 C 88.019531 44.234375 88.066406 44.40625 88.066406 44.625 L 88.066406 44.722656 L 87.144531 44.722656 C 87.144531 44.859375 87.183594 44.96875 87.261719 45.054688 C 87.335938 45.136719 87.429688 45.179688 87.546875 45.179688 C 87.628906 45.179688 87.699219 45.164062 87.757812 45.128906 C 87.8125 45.09375 87.863281 45.050781 87.90625 44.992188 L 88.050781 45.105469 C 87.933594 45.285156 87.765625 45.371094 87.535156 45.371094 Z M 87.507812 44.132812 C 87.410156 44.132812 87.332031 44.167969 87.269531 44.238281 C 87.207031 44.308594 87.164062 44.40625 87.152344 44.53125 L 87.832031 44.53125 L 87.832031 44.511719 C 87.828125 44.390625 87.796875 44.300781 87.738281 44.234375 C 87.679688 44.167969 87.605469 44.132812 87.507812 44.132812 Z M 87.507812 44.132812 "/>
</g>
</svg>
