<svg width="229" height="165" viewBox="0 0 229 165" fill="none" xmlns="http://www.w3.org/2000/svg">
<rect width="229" height="164.25" transform="translate(0 0.75)" fill="white"/>
<path d="M87.4189 74.8436C87.4189 104.719 87.4189 95.9401 87.4189 128.937C56.2596 128.937 31 104.719 31 74.8436C31 44.9685 56.2596 20.75 87.4189 20.75C87.4189 51.0424 87.4189 44.9685 87.4189 74.8436Z" fill="#212121"/>
<path d="M141.285 89.7055C132.79 118.449 101.601 135.148 71.6217 127.003C79.466 100.46 79.4309 100.579 87.9256 71.8357C96.4203 43.0923 91.7709 58.8246 102.384 22.9138C132.363 31.0584 149.779 60.9621 141.285 89.7055Z" fill="#134E78"/>
<path d="M143.136 75.2525C142.899 105.127 117.449 129.161 86.2905 128.934C86.5088 101.347 86.5079 101.471 86.7443 71.5965C86.9807 41.7223 86.8513 58.0735 87.1467 20.75C118.305 20.9767 143.372 45.3783 143.136 75.2525Z" fill="#134E78"/>
<path d="M86.8548 77.5483V20.75C103.216 21.2909 111.154 25.3269 122.399 33.1915C137.439 46.5709 142.179 56.1876 143.274 77.5483C141.237 94.7707 136.503 104.595 121.834 117.578C103.216 130.56 85.7264 130.019 72.1858 126.773L86.8548 77.5483Z" stroke="white"/>
<path d="M94.9731 48.8594C94.645 48.8542 94.3169 48.7917 93.9888 48.6719C93.6606 48.5521 93.3612 48.3503 93.0903 48.0664C92.8195 47.7799 92.6021 47.3932 92.438 46.9062C92.2739 46.4167 92.1919 45.8021 92.1919 45.0625C92.1919 44.3542 92.2583 43.7266 92.3911 43.1797C92.5239 42.6302 92.7166 42.168 92.9692 41.793C93.2218 41.4154 93.5265 41.1289 93.8833 40.9336C94.2427 40.7383 94.6476 40.6406 95.0981 40.6406C95.5461 40.6406 95.9445 40.7305 96.2935 40.9102C96.645 41.0872 96.9315 41.3346 97.1528 41.6523C97.3742 41.9701 97.5174 42.3359 97.5825 42.75H96.6294C96.5409 42.3906 96.369 42.0924 96.1138 41.8555C95.8586 41.6185 95.52 41.5 95.0981 41.5C94.4784 41.5 93.9901 41.7695 93.6333 42.3086C93.2791 42.8477 93.1007 43.6042 93.0981 44.5781H93.1606C93.3065 44.3568 93.4797 44.168 93.6802 44.0117C93.8833 43.8529 94.1073 43.7305 94.3521 43.6445C94.5968 43.5586 94.856 43.5156 95.1294 43.5156C95.5877 43.5156 96.007 43.6302 96.3872 43.8594C96.7674 44.0859 97.0721 44.3997 97.3013 44.8008C97.5304 45.1992 97.645 45.6562 97.645 46.1719C97.645 46.6667 97.5343 47.1198 97.313 47.5312C97.0916 47.9401 96.7804 48.2656 96.3794 48.5078C95.981 48.7474 95.5122 48.8646 94.9731 48.8594ZM94.9731 48C95.3013 48 95.5955 47.918 95.856 47.7539C96.119 47.5898 96.326 47.3698 96.4771 47.0937C96.6307 46.8177 96.7075 46.5104 96.7075 46.1719C96.7075 45.8411 96.6333 45.5404 96.4849 45.2695C96.339 44.9961 96.1372 44.7786 95.8794 44.6172C95.6242 44.4557 95.3325 44.375 95.0044 44.375C94.757 44.375 94.5265 44.4245 94.313 44.5234C94.0994 44.6198 93.9119 44.7526 93.7505 44.9219C93.5916 45.0911 93.4666 45.2852 93.3755 45.5039C93.2843 45.7201 93.2388 45.9479 93.2388 46.1875C93.2388 46.5052 93.313 46.8021 93.4614 47.0781C93.6125 47.3542 93.8182 47.5768 94.0786 47.7461C94.3416 47.9154 94.6398 48 94.9731 48ZM103.212 45.1406V48.75H102.291V40.75H103.212V43.6875H103.291C103.431 43.3776 103.642 43.1315 103.923 42.9492C104.207 42.7643 104.585 42.6719 105.056 42.6719C105.465 42.6719 105.823 42.7539 106.13 42.918C106.438 43.0794 106.676 43.3281 106.845 43.6641C107.017 43.9974 107.103 44.4219 107.103 44.9375V48.75H106.181V45C106.181 44.5234 106.057 44.1549 105.81 43.8945C105.565 43.6315 105.225 43.5 104.791 43.5C104.488 43.5 104.218 43.5638 103.978 43.6914C103.741 43.819 103.554 44.0052 103.416 44.25C103.28 44.4948 103.212 44.7917 103.212 45.1406ZM108.79 48.75V42.75H109.68V43.6562H109.743C109.852 43.3594 110.05 43.1185 110.336 42.9336C110.623 42.7487 110.946 42.6562 111.305 42.6562C111.373 42.6562 111.458 42.6576 111.559 42.6602C111.661 42.6628 111.737 42.6667 111.79 42.6719V43.6094C111.758 43.6016 111.687 43.5898 111.575 43.5742C111.465 43.556 111.349 43.5469 111.227 43.5469C110.935 43.5469 110.675 43.6081 110.446 43.7305C110.219 43.8503 110.04 44.0169 109.907 44.2305C109.777 44.4414 109.711 44.6823 109.711 44.9531V48.75H108.79ZM115.773 47.1094V46.3125L119.289 40.75H119.867V41.9844H119.476L116.82 46.1875V46.25H121.554V47.1094H115.773ZM119.539 48.75V46.8672V46.4961V40.75H120.46V48.75H119.539ZM125.627 48.8594C125.039 48.8594 124.538 48.6992 124.124 48.3789C123.709 48.056 123.393 47.5885 123.174 46.9766C122.956 46.362 122.846 45.6198 122.846 44.75C122.846 43.8854 122.956 43.1471 123.174 42.5352C123.396 41.9206 123.713 41.4518 124.127 41.1289C124.544 40.8034 125.044 40.6406 125.627 40.6406C126.211 40.6406 126.709 40.8034 127.124 41.1289C127.54 41.4518 127.858 41.9206 128.077 42.5352C128.298 43.1471 128.409 43.8854 128.409 44.75C128.409 45.6198 128.299 46.362 128.081 46.9766C127.862 47.5885 127.545 48.056 127.131 48.3789C126.717 48.6992 126.216 48.8594 125.627 48.8594ZM125.627 48C126.211 48 126.664 47.7187 126.987 47.1562C127.31 46.5937 127.471 45.7917 127.471 44.75C127.471 44.0573 127.397 43.4674 127.249 42.9805C127.103 42.4935 126.892 42.1224 126.616 41.8672C126.342 41.612 126.013 41.4844 125.627 41.4844C125.049 41.4844 124.597 41.7695 124.272 42.3398C123.946 42.9076 123.784 43.7109 123.784 44.75C123.784 45.4427 123.857 46.0312 124.002 46.5156C124.148 47 124.358 47.3685 124.631 47.6211C124.907 47.8737 125.239 48 125.627 48ZM133.002 48.75V42.75H133.893V43.6875H133.971C134.096 43.3672 134.298 43.1185 134.577 42.9414C134.855 42.7617 135.19 42.6719 135.581 42.6719C135.976 42.6719 136.306 42.7617 136.569 42.9414C136.834 43.1185 137.042 43.3672 137.19 43.6875H137.252C137.406 43.3776 137.637 43.1315 137.944 42.9492C138.251 42.7643 138.62 42.6719 139.049 42.6719C139.586 42.6719 140.025 42.8398 140.366 43.1758C140.707 43.5091 140.877 44.0286 140.877 44.7344V48.75H139.956V44.7344C139.956 44.2917 139.834 43.9753 139.592 43.7852C139.35 43.5951 139.065 43.5 138.737 43.5C138.315 43.5 137.988 43.6276 137.756 43.8828C137.525 44.1354 137.409 44.4557 137.409 44.8437V48.75H136.471V44.6406C136.471 44.2995 136.361 44.0247 136.139 43.8164C135.918 43.6055 135.633 43.5 135.284 43.5C135.044 43.5 134.82 43.5638 134.612 43.6914C134.406 43.819 134.239 43.9961 134.112 44.2227C133.987 44.4466 133.924 44.7057 133.924 45V48.75H133.002ZM142.563 48.75V42.75H143.485V48.75H142.563ZM143.032 41.75C142.852 41.75 142.697 41.6888 142.567 41.5664C142.439 41.444 142.375 41.2969 142.375 41.125C142.375 40.9531 142.439 40.806 142.567 40.6836C142.697 40.5612 142.852 40.5 143.032 40.5C143.211 40.5 143.365 40.5612 143.493 40.6836C143.623 40.806 143.688 40.9531 143.688 41.125C143.688 41.2969 143.623 41.444 143.493 41.5664C143.365 41.6888 143.211 41.75 143.032 41.75ZM146.095 45.1406V48.75H145.173V42.75H146.064V43.6875H146.142C146.283 43.3828 146.496 43.138 146.783 42.9531C147.069 42.7656 147.439 42.6719 147.892 42.6719C148.298 42.6719 148.654 42.7552 148.958 42.9219C149.263 43.0859 149.5 43.3359 149.669 43.6719C149.839 44.0052 149.923 44.4271 149.923 44.9375V48.75H149.001V45C149.001 44.5286 148.879 44.1615 148.634 43.8984C148.389 43.6328 148.054 43.5 147.626 43.5C147.332 43.5 147.069 43.5638 146.837 43.6914C146.608 43.819 146.427 44.0052 146.294 44.25C146.162 44.4948 146.095 44.7917 146.095 45.1406ZM155.858 44.0937L155.03 44.3281C154.978 44.1901 154.901 44.056 154.799 43.9258C154.7 43.793 154.565 43.6836 154.393 43.5977C154.221 43.5117 154.001 43.4687 153.733 43.4687C153.366 43.4687 153.06 43.5534 152.815 43.7227C152.573 43.8893 152.452 44.1016 152.452 44.3594C152.452 44.5885 152.535 44.7695 152.702 44.9023C152.868 45.0352 153.129 45.1458 153.483 45.2344L154.374 45.4531C154.91 45.5833 155.31 45.7826 155.573 46.0508C155.836 46.3164 155.967 46.6589 155.967 47.0781C155.967 47.4219 155.868 47.7292 155.67 48C155.475 48.2708 155.202 48.4844 154.85 48.6406C154.499 48.7969 154.09 48.875 153.624 48.875C153.012 48.875 152.505 48.7422 152.104 48.4766C151.703 48.2109 151.449 47.8229 151.342 47.3125L152.217 47.0937C152.301 47.4167 152.458 47.6589 152.69 47.8203C152.924 47.9818 153.23 48.0625 153.608 48.0625C154.038 48.0625 154.379 47.9714 154.631 47.7891C154.887 47.6042 155.014 47.3828 155.014 47.125C155.014 46.9167 154.941 46.7422 154.795 46.6016C154.65 46.4583 154.426 46.3516 154.124 46.2812L153.124 46.0469C152.574 45.9167 152.17 45.7148 151.913 45.4414C151.657 45.1654 151.53 44.8203 151.53 44.4062C151.53 44.0677 151.625 43.7682 151.815 43.5078C152.008 43.2474 152.269 43.043 152.6 42.8945C152.933 42.7461 153.311 42.6719 153.733 42.6719C154.327 42.6719 154.793 42.8021 155.131 43.0625C155.472 43.3229 155.715 43.6667 155.858 44.0937ZM103.533 61.875C102.955 61.875 102.456 61.7474 102.037 61.4922C101.62 61.2344 101.299 60.875 101.072 60.4141C100.848 59.9505 100.736 59.4115 100.736 58.7969C100.736 58.1823 100.848 57.6406 101.072 57.1719C101.299 56.7005 101.614 56.3333 102.018 56.0703C102.424 55.8047 102.898 55.6719 103.439 55.6719C103.752 55.6719 104.061 55.724 104.365 55.8281C104.67 55.9323 104.947 56.1016 105.197 56.3359C105.447 56.5677 105.646 56.875 105.795 57.2578C105.943 57.6406 106.018 58.112 106.018 58.6719V59.0625H101.393V58.2656H105.08C105.08 57.9271 105.012 57.625 104.877 57.3594C104.744 57.0937 104.554 56.8841 104.307 56.7305C104.062 56.5768 103.773 56.5 103.439 56.5C103.072 56.5 102.755 56.5911 102.486 56.7734C102.221 56.9531 102.016 57.1875 101.873 57.4766C101.73 57.7656 101.658 58.0755 101.658 58.4062V58.9375C101.658 59.3906 101.736 59.7747 101.893 60.0898C102.051 60.4023 102.271 60.6406 102.553 60.8047C102.834 60.9661 103.161 61.0469 103.533 61.0469C103.775 61.0469 103.994 61.013 104.189 60.9453C104.387 60.875 104.558 60.7708 104.701 60.6328C104.844 60.4922 104.955 60.3177 105.033 60.1094L105.924 60.3594C105.83 60.6615 105.673 60.9271 105.451 61.1562C105.23 61.3828 104.956 61.5599 104.631 61.6875C104.305 61.8125 103.939 61.875 103.533 61.875ZM112.144 55.75L109.925 61.75H108.987L106.769 55.75H107.769L109.425 60.5312H109.487L111.144 55.75H112.144ZM115.661 61.875C115.083 61.875 114.584 61.7474 114.165 61.4922C113.748 61.2344 113.427 60.875 113.2 60.4141C112.976 59.9505 112.864 59.4115 112.864 58.7969C112.864 58.1823 112.976 57.6406 113.2 57.1719C113.427 56.7005 113.742 56.3333 114.146 56.0703C114.552 55.8047 115.026 55.6719 115.567 55.6719C115.88 55.6719 116.188 55.724 116.493 55.8281C116.798 55.9323 117.075 56.1016 117.325 56.3359C117.575 56.5677 117.774 56.875 117.923 57.2578C118.071 57.6406 118.146 58.112 118.146 58.6719V59.0625H113.521V58.2656H117.208C117.208 57.9271 117.14 57.625 117.005 57.3594C116.872 57.0937 116.682 56.8841 116.435 56.7305C116.19 56.5768 115.901 56.5 115.567 56.5C115.2 56.5 114.882 56.5911 114.614 56.7734C114.349 56.9531 114.144 57.1875 114.001 57.4766C113.858 57.7656 113.786 58.0755 113.786 58.4062V58.9375C113.786 59.3906 113.864 59.7747 114.021 60.0898C114.179 60.4023 114.399 60.6406 114.681 60.8047C114.962 60.9661 115.289 61.0469 115.661 61.0469C115.903 61.0469 116.122 61.013 116.317 60.9453C116.515 60.875 116.686 60.7708 116.829 60.6328C116.972 60.4922 117.083 60.3177 117.161 60.1094L118.052 60.3594C117.958 60.6615 117.8 60.9271 117.579 61.1562C117.358 61.3828 117.084 61.5599 116.759 61.6875C116.433 61.8125 116.067 61.875 115.661 61.875ZM119.548 61.75V55.75H120.438V56.6562H120.501C120.61 56.3594 120.808 56.1185 121.095 55.9336C121.381 55.7487 121.704 55.6562 122.063 55.6562C122.131 55.6562 122.216 55.6576 122.317 55.6602C122.419 55.6628 122.496 55.6667 122.548 55.6719V56.6094C122.517 56.6016 122.445 56.5898 122.333 56.5742C122.224 56.556 122.108 56.5469 121.985 56.5469C121.694 56.5469 121.433 56.6081 121.204 56.7305C120.978 56.8503 120.798 57.0169 120.665 57.2305C120.535 57.4414 120.47 57.6823 120.47 57.9531V61.75H119.548ZM124.417 64C124.261 64 124.121 63.987 123.999 63.9609C123.877 63.9375 123.792 63.9141 123.745 63.8906L123.979 63.0781C124.203 63.1354 124.401 63.1563 124.573 63.1406C124.745 63.125 124.897 63.0482 125.03 62.9102C125.166 62.7747 125.289 62.5547 125.401 62.25L125.573 61.7813L123.354 55.75H124.354L126.011 60.5312H126.073L127.729 55.75H128.729L126.183 62.625C126.068 62.9349 125.926 63.1914 125.757 63.3945C125.588 63.6003 125.391 63.7526 125.167 63.8516C124.946 63.9505 124.696 64 124.417 64ZM131.997 61.875C131.497 61.875 131.056 61.7487 130.673 61.4961C130.29 61.2409 129.991 60.8815 129.774 60.418C129.558 59.9518 129.45 59.401 129.45 58.7656C129.45 58.1354 129.558 57.5885 129.774 57.125C129.991 56.6615 130.291 56.3034 130.677 56.0508C131.062 55.7982 131.507 55.6719 132.013 55.6719C132.403 55.6719 132.712 55.737 132.938 55.8672C133.168 55.9948 133.342 56.1406 133.462 56.3047C133.584 56.4661 133.679 56.599 133.747 56.7031H133.825V53.75H134.747V61.75H133.856V60.8281H133.747C133.679 60.9375 133.583 61.0755 133.458 61.2422C133.333 61.4062 133.155 61.5534 132.923 61.6836C132.691 61.8112 132.382 61.875 131.997 61.875ZM132.122 61.0469C132.492 61.0469 132.804 60.9505 133.06 60.7578C133.315 60.5625 133.509 60.293 133.642 59.9492C133.774 59.6029 133.841 59.2031 133.841 58.75C133.841 58.3021 133.776 57.9102 133.646 57.5742C133.515 57.2357 133.323 56.9727 133.067 56.7852C132.812 56.5951 132.497 56.5 132.122 56.5C131.731 56.5 131.406 56.6003 131.146 56.8008C130.888 56.9987 130.694 57.2682 130.563 57.6094C130.436 57.9479 130.372 58.3281 130.372 58.75C130.372 59.1771 130.437 59.5651 130.567 59.9141C130.7 60.2604 130.896 60.5365 131.153 60.7422C131.414 60.9453 131.737 61.0469 132.122 61.0469ZM138.329 61.8906C137.949 61.8906 137.604 61.819 137.294 61.6758C136.984 61.5299 136.738 61.3203 136.556 61.0469C136.373 60.7708 136.282 60.4375 136.282 60.0469C136.282 59.7031 136.35 59.4245 136.485 59.2109C136.621 58.9948 136.802 58.8255 137.028 58.7031C137.255 58.5807 137.505 58.4896 137.778 58.4297C138.054 58.3672 138.332 58.3177 138.61 58.2813C138.975 58.2344 139.271 58.1992 139.497 58.1758C139.726 58.1497 139.893 58.1068 139.997 58.0469C140.104 57.987 140.157 57.8828 140.157 57.7344V57.7031C140.157 57.3177 140.052 57.0182 139.841 56.8047C139.632 56.5911 139.316 56.4844 138.892 56.4844C138.451 56.4844 138.106 56.5807 137.856 56.7734C137.606 56.9661 137.431 57.1719 137.329 57.3906L136.454 57.0781C136.61 56.7135 136.819 56.4297 137.079 56.2266C137.342 56.0208 137.629 55.8776 137.938 55.7969C138.251 55.7135 138.558 55.6719 138.86 55.6719C139.053 55.6719 139.274 55.6953 139.524 55.7422C139.777 55.7865 140.021 55.8789 140.255 56.0195C140.492 56.1602 140.688 56.3724 140.845 56.6562C141.001 56.9401 141.079 57.3203 141.079 57.7969V61.75H140.157V60.9375H140.11C140.048 61.0677 139.944 61.207 139.798 61.3555C139.652 61.5039 139.458 61.6302 139.216 61.7344C138.974 61.8385 138.678 61.8906 138.329 61.8906ZM138.47 61.0625C138.834 61.0625 139.142 60.9909 139.392 60.8477C139.644 60.7044 139.834 60.5195 139.962 60.293C140.092 60.0664 140.157 59.8281 140.157 59.5781V58.7344C140.118 58.7812 140.032 58.8242 139.899 58.8633C139.769 58.8997 139.618 58.9323 139.446 58.9609C139.277 58.987 139.112 59.0104 138.95 59.0312C138.791 59.0495 138.662 59.0651 138.563 59.0781C138.324 59.1094 138.1 59.1602 137.892 59.2305C137.686 59.2982 137.519 59.401 137.392 59.5391C137.267 59.6745 137.204 59.8594 137.204 60.0937C137.204 60.4141 137.323 60.6562 137.56 60.8203C137.799 60.9818 138.103 61.0625 138.47 61.0625ZM143.141 64C142.984 64 142.845 63.987 142.723 63.9609C142.6 63.9375 142.516 63.9141 142.469 63.8906L142.703 63.0781C142.927 63.1354 143.125 63.1563 143.297 63.1406C143.469 63.125 143.621 63.0482 143.754 62.9102C143.889 62.7747 144.013 62.5547 144.125 62.25L144.297 61.7813L142.078 55.75H143.078L144.734 60.5312H144.797L146.453 55.75H147.453L144.906 62.625C144.792 62.9349 144.65 63.1914 144.48 63.3945C144.311 63.6003 144.115 63.7526 143.891 63.8516C143.669 63.9505 143.419 64 143.141 64ZM103.533 74.875C102.955 74.875 102.456 74.7474 102.037 74.4922C101.62 74.2344 101.299 73.875 101.072 73.4141C100.848 72.9505 100.736 72.4115 100.736 71.7969C100.736 71.1823 100.848 70.6406 101.072 70.1719C101.299 69.7005 101.614 69.3333 102.018 69.0703C102.424 68.8047 102.898 68.6719 103.439 68.6719C103.752 68.6719 104.061 68.724 104.365 68.8281C104.67 68.9323 104.947 69.1016 105.197 69.3359C105.447 69.5677 105.646 69.875 105.795 70.2578C105.943 70.6406 106.018 71.112 106.018 71.6719V72.0625H101.393V71.2656H105.08C105.08 70.9271 105.012 70.625 104.877 70.3594C104.744 70.0937 104.554 69.8841 104.307 69.7305C104.062 69.5768 103.773 69.5 103.439 69.5C103.072 69.5 102.755 69.5911 102.486 69.7734C102.221 69.9531 102.016 70.1875 101.873 70.4766C101.73 70.7656 101.658 71.0755 101.658 71.4062V71.9375C101.658 72.3906 101.736 72.7747 101.893 73.0898C102.051 73.4023 102.271 73.6406 102.553 73.8047C102.834 73.9661 103.161 74.0469 103.533 74.0469C103.775 74.0469 103.994 74.013 104.189 73.9453C104.387 73.875 104.558 73.7708 104.701 73.6328C104.844 73.4922 104.955 73.3177 105.033 73.1094L105.924 73.3594C105.83 73.6615 105.673 73.9271 105.451 74.1562C105.23 74.3828 104.956 74.5599 104.631 74.6875C104.305 74.8125 103.939 74.875 103.533 74.875ZM112.144 68.75L109.925 74.75H108.987L106.769 68.75H107.769L109.425 73.5312H109.487L111.144 68.75H112.144ZM115.661 74.875C115.083 74.875 114.584 74.7474 114.165 74.4922C113.748 74.2344 113.427 73.875 113.2 73.4141C112.976 72.9505 112.864 72.4115 112.864 71.7969C112.864 71.1823 112.976 70.6406 113.2 70.1719C113.427 69.7005 113.742 69.3333 114.146 69.0703C114.552 68.8047 115.026 68.6719 115.567 68.6719C115.88 68.6719 116.188 68.724 116.493 68.8281C116.798 68.9323 117.075 69.1016 117.325 69.3359C117.575 69.5677 117.774 69.875 117.923 70.2578C118.071 70.6406 118.146 71.112 118.146 71.6719V72.0625H113.521V71.2656H117.208C117.208 70.9271 117.14 70.625 117.005 70.3594C116.872 70.0937 116.682 69.8841 116.435 69.7305C116.19 69.5768 115.901 69.5 115.567 69.5C115.2 69.5 114.882 69.5911 114.614 69.7734C114.349 69.9531 114.144 70.1875 114.001 70.4766C113.858 70.7656 113.786 71.0755 113.786 71.4062V71.9375C113.786 72.3906 113.864 72.7747 114.021 73.0898C114.179 73.4023 114.399 73.6406 114.681 73.8047C114.962 73.9661 115.289 74.0469 115.661 74.0469C115.903 74.0469 116.122 74.013 116.317 73.9453C116.515 73.875 116.686 73.7708 116.829 73.6328C116.972 73.4922 117.083 73.3177 117.161 73.1094L118.052 73.3594C117.958 73.6615 117.8 73.9271 117.579 74.1562C117.358 74.3828 117.084 74.5599 116.759 74.6875C116.433 74.8125 116.067 74.875 115.661 74.875ZM119.548 74.75V68.75H120.438V69.6562H120.501C120.61 69.3594 120.808 69.1185 121.095 68.9336C121.381 68.7487 121.704 68.6562 122.063 68.6562C122.131 68.6562 122.216 68.6576 122.317 68.6602C122.419 68.6628 122.496 68.6667 122.548 68.6719V69.6094C122.517 69.6016 122.445 69.5898 122.333 69.5742C122.224 69.556 122.108 69.5469 121.985 69.5469C121.694 69.5469 121.433 69.6081 121.204 69.7305C120.978 69.8503 120.798 70.0169 120.665 70.2305C120.535 70.4414 120.47 70.6823 120.47 70.9531V74.75H119.548ZM124.417 77C124.261 77 124.121 76.987 123.999 76.9609C123.877 76.9375 123.792 76.9141 123.745 76.8906L123.979 76.0781C124.203 76.1354 124.401 76.1563 124.573 76.1406C124.745 76.125 124.897 76.0482 125.03 75.9102C125.166 75.7747 125.289 75.5547 125.401 75.25L125.573 74.7813L123.354 68.75H124.354L126.011 73.5312H126.073L127.729 68.75H128.729L126.183 75.625C126.068 75.9349 125.926 76.1914 125.757 76.3945C125.588 76.6003 125.391 76.7526 125.167 76.8516C124.946 76.9505 124.696 77 124.417 77ZM131.997 74.875C131.497 74.875 131.056 74.7487 130.673 74.4961C130.29 74.2409 129.991 73.8815 129.774 73.418C129.558 72.9518 129.45 72.401 129.45 71.7656C129.45 71.1354 129.558 70.5885 129.774 70.125C129.991 69.6615 130.291 69.3034 130.677 69.0508C131.062 68.7982 131.507 68.6719 132.013 68.6719C132.403 68.6719 132.712 68.737 132.938 68.8672C133.168 68.9948 133.342 69.1406 133.462 69.3047C133.584 69.4661 133.679 69.599 133.747 69.7031H133.825V66.75H134.747V74.75H133.856V73.8281H133.747C133.679 73.9375 133.583 74.0755 133.458 74.2422C133.333 74.4062 133.155 74.5534 132.923 74.6836C132.691 74.8112 132.382 74.875 131.997 74.875ZM132.122 74.0469C132.492 74.0469 132.804 73.9505 133.06 73.7578C133.315 73.5625 133.509 73.293 133.642 72.9492C133.774 72.6029 133.841 72.2031 133.841 71.75C133.841 71.3021 133.776 70.9102 133.646 70.5742C133.515 70.2357 133.323 69.9727 133.067 69.7852C132.812 69.5951 132.497 69.5 132.122 69.5C131.731 69.5 131.406 69.6003 131.146 69.8008C130.888 69.9987 130.694 70.2682 130.563 70.6094C130.436 70.9479 130.372 71.3281 130.372 71.75C130.372 72.1771 130.437 72.5651 130.567 72.9141C130.7 73.2604 130.896 73.5365 131.153 73.7422C131.414 73.9453 131.737 74.0469 132.122 74.0469ZM138.329 74.8906C137.949 74.8906 137.604 74.819 137.294 74.6758C136.984 74.5299 136.738 74.3203 136.556 74.0469C136.373 73.7708 136.282 73.4375 136.282 73.0469C136.282 72.7031 136.35 72.4245 136.485 72.2109C136.621 71.9948 136.802 71.8255 137.028 71.7031C137.255 71.5807 137.505 71.4896 137.778 71.4297C138.054 71.3672 138.332 71.3177 138.61 71.2813C138.975 71.2344 139.271 71.1992 139.497 71.1758C139.726 71.1497 139.893 71.1068 139.997 71.0469C140.104 70.987 140.157 70.8828 140.157 70.7344V70.7031C140.157 70.3177 140.052 70.0182 139.841 69.8047C139.632 69.5911 139.316 69.4844 138.892 69.4844C138.451 69.4844 138.106 69.5807 137.856 69.7734C137.606 69.9661 137.431 70.1719 137.329 70.3906L136.454 70.0781C136.61 69.7135 136.819 69.4297 137.079 69.2266C137.342 69.0208 137.629 68.8776 137.938 68.7969C138.251 68.7135 138.558 68.6719 138.86 68.6719C139.053 68.6719 139.274 68.6953 139.524 68.7422C139.777 68.7865 140.021 68.8789 140.255 69.0195C140.492 69.1602 140.688 69.3724 140.845 69.6562C141.001 69.9401 141.079 70.3203 141.079 70.7969V74.75H140.157V73.9375H140.11C140.048 74.0677 139.944 74.207 139.798 74.3555C139.652 74.5039 139.458 74.6302 139.216 74.7344C138.974 74.8385 138.678 74.8906 138.329 74.8906ZM138.47 74.0625C138.834 74.0625 139.142 73.9909 139.392 73.8477C139.644 73.7044 139.834 73.5195 139.962 73.293C140.092 73.0664 140.157 72.8281 140.157 72.5781V71.7344C140.118 71.7812 140.032 71.8242 139.899 71.8633C139.769 71.8997 139.618 71.9323 139.446 71.9609C139.277 71.987 139.112 72.0104 138.95 72.0312C138.791 72.0495 138.662 72.0651 138.563 72.0781C138.324 72.1094 138.1 72.1602 137.892 72.2305C137.686 72.2982 137.519 72.401 137.392 72.5391C137.267 72.6745 137.204 72.8594 137.204 73.0937C137.204 73.4141 137.323 73.6562 137.56 73.8203C137.799 73.9818 138.103 74.0625 138.47 74.0625ZM143.141 77C142.984 77 142.845 76.987 142.723 76.9609C142.6 76.9375 142.516 76.9141 142.469 76.8906L142.703 76.0781C142.927 76.1354 143.125 76.1563 143.297 76.1406C143.469 76.125 143.621 76.0482 143.754 75.9102C143.889 75.7747 144.013 75.5547 144.125 75.25L144.297 74.7813L142.078 68.75H143.078L144.734 73.5312H144.797L146.453 68.75H147.453L144.906 75.625C144.792 75.9349 144.65 76.1914 144.48 76.3945C144.311 76.6003 144.115 76.7526 143.891 76.8516C143.669 76.9505 143.419 77 143.141 77ZM103.533 87.875C102.955 87.875 102.456 87.7474 102.037 87.4922C101.62 87.2344 101.299 86.875 101.072 86.4141C100.848 85.9505 100.736 85.4115 100.736 84.7969C100.736 84.1823 100.848 83.6406 101.072 83.1719C101.299 82.7005 101.614 82.3333 102.018 82.0703C102.424 81.8047 102.898 81.6719 103.439 81.6719C103.752 81.6719 104.061 81.724 104.365 81.8281C104.67 81.9323 104.947 82.1016 105.197 82.3359C105.447 82.5677 105.646 82.875 105.795 83.2578C105.943 83.6406 106.018 84.112 106.018 84.6719V85.0625H101.393V84.2656H105.08C105.08 83.9271 105.012 83.625 104.877 83.3594C104.744 83.0937 104.554 82.8841 104.307 82.7305C104.062 82.5768 103.773 82.5 103.439 82.5C103.072 82.5 102.755 82.5911 102.486 82.7734C102.221 82.9531 102.016 83.1875 101.873 83.4766C101.73 83.7656 101.658 84.0755 101.658 84.4062V84.9375C101.658 85.3906 101.736 85.7747 101.893 86.0898C102.051 86.4023 102.271 86.6406 102.553 86.8047C102.834 86.9661 103.161 87.0469 103.533 87.0469C103.775 87.0469 103.994 87.013 104.189 86.9453C104.387 86.875 104.558 86.7708 104.701 86.6328C104.844 86.4922 104.955 86.3177 105.033 86.1094L105.924 86.3594C105.83 86.6615 105.673 86.9271 105.451 87.1562C105.23 87.3828 104.956 87.5599 104.631 87.6875C104.305 87.8125 103.939 87.875 103.533 87.875ZM112.144 81.75L109.925 87.75H108.987L106.769 81.75H107.769L109.425 86.5312H109.487L111.144 81.75H112.144ZM115.661 87.875C115.083 87.875 114.584 87.7474 114.165 87.4922C113.748 87.2344 113.427 86.875 113.2 86.4141C112.976 85.9505 112.864 85.4115 112.864 84.7969C112.864 84.1823 112.976 83.6406 113.2 83.1719C113.427 82.7005 113.742 82.3333 114.146 82.0703C114.552 81.8047 115.026 81.6719 115.567 81.6719C115.88 81.6719 116.188 81.724 116.493 81.8281C116.798 81.9323 117.075 82.1016 117.325 82.3359C117.575 82.5677 117.774 82.875 117.923 83.2578C118.071 83.6406 118.146 84.112 118.146 84.6719V85.0625H113.521V84.2656H117.208C117.208 83.9271 117.14 83.625 117.005 83.3594C116.872 83.0937 116.682 82.8841 116.435 82.7305C116.19 82.5768 115.901 82.5 115.567 82.5C115.2 82.5 114.882 82.5911 114.614 82.7734C114.349 82.9531 114.144 83.1875 114.001 83.4766C113.858 83.7656 113.786 84.0755 113.786 84.4062V84.9375C113.786 85.3906 113.864 85.7747 114.021 86.0898C114.179 86.4023 114.399 86.6406 114.681 86.8047C114.962 86.9661 115.289 87.0469 115.661 87.0469C115.903 87.0469 116.122 87.013 116.317 86.9453C116.515 86.875 116.686 86.7708 116.829 86.6328C116.972 86.4922 117.083 86.3177 117.161 86.1094L118.052 86.3594C117.958 86.6615 117.8 86.9271 117.579 87.1562C117.358 87.3828 117.084 87.5599 116.759 87.6875C116.433 87.8125 116.067 87.875 115.661 87.875ZM119.548 87.75V81.75H120.438V82.6562H120.501C120.61 82.3594 120.808 82.1185 121.095 81.9336C121.381 81.7487 121.704 81.6562 122.063 81.6562C122.131 81.6562 122.216 81.6576 122.317 81.6602C122.419 81.6628 122.496 81.6667 122.548 81.6719V82.6094C122.517 82.6016 122.445 82.5898 122.333 82.5742C122.224 82.556 122.108 82.5469 121.985 82.5469C121.694 82.5469 121.433 82.6081 121.204 82.7305C120.978 82.8503 120.798 83.0169 120.665 83.2305C120.535 83.4414 120.47 83.6823 120.47 83.9531V87.75H119.548ZM124.417 90C124.261 90 124.121 89.987 123.999 89.9609C123.877 89.9375 123.792 89.9141 123.745 89.8906L123.979 89.0781C124.203 89.1354 124.401 89.1563 124.573 89.1406C124.745 89.125 124.897 89.0482 125.03 88.9102C125.166 88.7747 125.289 88.5547 125.401 88.25L125.573 87.7813L123.354 81.75H124.354L126.011 86.5312H126.073L127.729 81.75H128.729L126.183 88.625C126.068 88.9349 125.926 89.1914 125.757 89.3945C125.588 89.6003 125.391 89.7526 125.167 89.8516C124.946 89.9505 124.696 90 124.417 90ZM131.997 87.875C131.497 87.875 131.056 87.7487 130.673 87.4961C130.29 87.2409 129.991 86.8815 129.774 86.418C129.558 85.9518 129.45 85.401 129.45 84.7656C129.45 84.1354 129.558 83.5885 129.774 83.125C129.991 82.6615 130.291 82.3034 130.677 82.0508C131.062 81.7982 131.507 81.6719 132.013 81.6719C132.403 81.6719 132.712 81.737 132.938 81.8672C133.168 81.9948 133.342 82.1406 133.462 82.3047C133.584 82.4661 133.679 82.599 133.747 82.7031H133.825V79.75H134.747V87.75H133.856V86.8281H133.747C133.679 86.9375 133.583 87.0755 133.458 87.2422C133.333 87.4062 133.155 87.5534 132.923 87.6836C132.691 87.8112 132.382 87.875 131.997 87.875ZM132.122 87.0469C132.492 87.0469 132.804 86.9505 133.06 86.7578C133.315 86.5625 133.509 86.293 133.642 85.9492C133.774 85.6029 133.841 85.2031 133.841 84.75C133.841 84.3021 133.776 83.9102 133.646 83.5742C133.515 83.2357 133.323 82.9727 133.067 82.7852C132.812 82.5951 132.497 82.5 132.122 82.5C131.731 82.5 131.406 82.6003 131.146 82.8008C130.888 82.9987 130.694 83.2682 130.563 83.6094C130.436 83.9479 130.372 84.3281 130.372 84.75C130.372 85.1771 130.437 85.5651 130.567 85.9141C130.7 86.2604 130.896 86.5365 131.153 86.7422C131.414 86.9453 131.737 87.0469 132.122 87.0469ZM138.329 87.8906C137.949 87.8906 137.604 87.819 137.294 87.6758C136.984 87.5299 136.738 87.3203 136.556 87.0469C136.373 86.7708 136.282 86.4375 136.282 86.0469C136.282 85.7031 136.35 85.4245 136.485 85.2109C136.621 84.9948 136.802 84.8255 137.028 84.7031C137.255 84.5807 137.505 84.4896 137.778 84.4297C138.054 84.3672 138.332 84.3177 138.61 84.2813C138.975 84.2344 139.271 84.1992 139.497 84.1758C139.726 84.1497 139.893 84.1068 139.997 84.0469C140.104 83.987 140.157 83.8828 140.157 83.7344V83.7031C140.157 83.3177 140.052 83.0182 139.841 82.8047C139.632 82.5911 139.316 82.4844 138.892 82.4844C138.451 82.4844 138.106 82.5807 137.856 82.7734C137.606 82.9661 137.431 83.1719 137.329 83.3906L136.454 83.0781C136.61 82.7135 136.819 82.4297 137.079 82.2266C137.342 82.0208 137.629 81.8776 137.938 81.7969C138.251 81.7135 138.558 81.6719 138.86 81.6719C139.053 81.6719 139.274 81.6953 139.524 81.7422C139.777 81.7865 140.021 81.8789 140.255 82.0195C140.492 82.1602 140.688 82.3724 140.845 82.6562C141.001 82.9401 141.079 83.3203 141.079 83.7969V87.75H140.157V86.9375H140.11C140.048 87.0677 139.944 87.207 139.798 87.3555C139.652 87.5039 139.458 87.6302 139.216 87.7344C138.974 87.8385 138.678 87.8906 138.329 87.8906ZM138.47 87.0625C138.834 87.0625 139.142 86.9909 139.392 86.8477C139.644 86.7044 139.834 86.5195 139.962 86.293C140.092 86.0664 140.157 85.8281 140.157 85.5781V84.7344C140.118 84.7812 140.032 84.8242 139.899 84.8633C139.769 84.8997 139.618 84.9323 139.446 84.9609C139.277 84.987 139.112 85.0104 138.95 85.0312C138.791 85.0495 138.662 85.0651 138.563 85.0781C138.324 85.1094 138.1 85.1602 137.892 85.2305C137.686 85.2982 137.519 85.401 137.392 85.5391C137.267 85.6745 137.204 85.8594 137.204 86.0937C137.204 86.4141 137.323 86.6562 137.56 86.8203C137.799 86.9818 138.103 87.0625 138.47 87.0625ZM143.141 90C142.984 90 142.845 89.987 142.723 89.9609C142.6 89.9375 142.516 89.9141 142.469 89.8906L142.703 89.0781C142.927 89.1354 143.125 89.1563 143.297 89.1406C143.469 89.125 143.621 89.0482 143.754 88.9102C143.889 88.7747 144.013 88.5547 144.125 88.25L144.297 87.7813L142.078 81.75H143.078L144.734 86.5312H144.797L146.453 81.75H147.453L144.906 88.625C144.792 88.9349 144.65 89.1914 144.48 89.3945C144.311 89.6003 144.115 89.7526 143.891 89.8516C143.669 89.9505 143.419 90 143.141 90ZM115.301 96.0937L114.473 96.3281C114.421 96.1901 114.344 96.056 114.242 95.9258C114.143 95.793 114.008 95.6836 113.836 95.5977C113.664 95.5117 113.444 95.4687 113.176 95.4687C112.809 95.4687 112.503 95.5534 112.258 95.7227C112.016 95.8893 111.895 96.1016 111.895 96.3594C111.895 96.5885 111.978 96.7695 112.145 96.9023C112.311 97.0352 112.572 97.1458 112.926 97.2344L113.816 97.4531C114.353 97.5833 114.753 97.7826 115.016 98.0508C115.279 98.3164 115.41 98.6589 115.41 99.0781C115.41 99.4219 115.311 99.7292 115.113 100C114.918 100.271 114.645 100.484 114.293 100.641C113.941 100.797 113.533 100.875 113.066 100.875C112.454 100.875 111.948 100.742 111.547 100.477C111.146 100.211 110.892 99.8229 110.785 99.3125L111.66 99.0937C111.743 99.4167 111.901 99.6589 112.133 99.8203C112.367 99.9818 112.673 100.062 113.051 100.062C113.48 100.062 113.822 99.9714 114.074 99.7891C114.329 99.6042 114.457 99.3828 114.457 99.125C114.457 98.9167 114.384 98.7422 114.238 98.6016C114.092 98.4583 113.868 98.3516 113.566 98.2812L112.566 98.0469C112.017 97.9167 111.613 97.7148 111.355 97.4414C111.1 97.1654 110.973 96.8203 110.973 96.4062C110.973 96.0677 111.068 95.7682 111.258 95.5078C111.451 95.2474 111.712 95.043 112.043 94.8945C112.376 94.7461 112.754 94.6719 113.176 94.6719C113.77 94.6719 114.236 94.8021 114.574 95.0625C114.915 95.3229 115.158 95.6667 115.301 96.0937ZM119.235 100.875C118.673 100.875 118.188 100.742 117.782 100.477C117.376 100.211 117.063 99.8451 116.845 99.3789C116.626 98.9128 116.517 98.3802 116.517 97.7812C116.517 97.1719 116.629 96.6341 116.853 96.168C117.079 95.6992 117.394 95.3333 117.798 95.0703C118.204 94.8047 118.678 94.6719 119.22 94.6719C119.642 94.6719 120.022 94.75 120.36 94.9062C120.699 95.0625 120.976 95.2812 121.192 95.5625C121.409 95.8437 121.543 96.1719 121.595 96.5469H120.673C120.603 96.2734 120.446 96.0312 120.204 95.8203C119.965 95.6068 119.642 95.5 119.235 95.5C118.876 95.5 118.561 95.5937 118.29 95.7812C118.022 95.9661 117.812 96.2279 117.661 96.5664C117.513 96.9023 117.438 97.2969 117.438 97.75C117.438 98.2135 117.511 98.6172 117.657 98.9609C117.806 99.3047 118.014 99.5716 118.282 99.7617C118.553 99.9518 118.871 100.047 119.235 100.047C119.475 100.047 119.692 100.005 119.888 99.9219C120.083 99.8385 120.248 99.7188 120.384 99.5625C120.519 99.4062 120.616 99.2187 120.673 99H121.595C121.543 99.3542 121.414 99.6732 121.208 99.957C121.005 100.238 120.735 100.462 120.399 100.629C120.066 100.793 119.678 100.875 119.235 100.875ZM122.942 100.75V94.75H123.833V95.6562H123.896C124.005 95.3594 124.203 95.1185 124.489 94.9336C124.776 94.7487 125.099 94.6562 125.458 94.6562C125.526 94.6562 125.61 94.6576 125.712 94.6602C125.813 94.6628 125.89 94.6667 125.942 94.6719V95.6094C125.911 95.6016 125.84 95.5898 125.728 95.5742C125.618 95.556 125.502 95.5469 125.38 95.5469C125.088 95.5469 124.828 95.6081 124.599 95.7305C124.372 95.8503 124.192 96.0169 124.06 96.2305C123.929 96.4414 123.864 96.6823 123.864 96.9531V100.75H122.942ZM129.29 100.875C128.748 100.875 128.273 100.746 127.864 100.488C127.458 100.23 127.14 99.8698 126.911 99.4062C126.685 98.9427 126.571 98.401 126.571 97.7812C126.571 97.1562 126.685 96.6107 126.911 96.1445C127.14 95.6784 127.458 95.3164 127.864 95.0586C128.273 94.8008 128.748 94.6719 129.29 94.6719C129.832 94.6719 130.306 94.8008 130.712 95.0586C131.121 95.3164 131.438 95.6784 131.665 96.1445C131.894 96.6107 132.009 97.1562 132.009 97.7812C132.009 98.401 131.894 98.9427 131.665 99.4062C131.438 99.8698 131.121 100.23 130.712 100.488C130.306 100.746 129.832 100.875 129.29 100.875ZM129.29 100.047C129.701 100.047 130.04 99.9414 130.306 99.7305C130.571 99.5195 130.768 99.2422 130.896 98.8984C131.023 98.5547 131.087 98.1823 131.087 97.7812C131.087 97.3802 131.023 97.0065 130.896 96.6602C130.768 96.3138 130.571 96.0339 130.306 95.8203C130.04 95.6068 129.701 95.5 129.29 95.5C128.879 95.5 128.54 95.6068 128.274 95.8203C128.009 96.0339 127.812 96.3138 127.685 96.6602C127.557 97.0065 127.493 97.3802 127.493 97.7812C127.493 98.1823 127.557 98.5547 127.685 98.8984C127.812 99.2422 128.009 99.5195 128.274 99.7305C128.54 99.9414 128.879 100.047 129.29 100.047ZM134.338 92.75V100.75H133.416V92.75H134.338ZM136.948 92.75V100.75H136.026V92.75H136.948Z" fill="url(#paint0_linear_8672_1070)"/>
<path d="M119.25 103.562C119.25 101.112 121.601 99.125 124.5 99.125H135C137.899 99.125 140.25 101.112 140.25 103.562V116.875C140.25 119.326 137.899 121.312 135 121.312H124.5C121.601 121.312 119.25 119.326 119.25 116.875V103.562Z" fill="#FFC200"/>
<path d="M145.5 85.8125C145.5 83.3617 147.851 81.375 150.75 81.375H161.25C164.149 81.375 166.5 83.3617 166.5 85.8125V116.875C166.5 119.326 164.149 121.312 161.25 121.312H150.75C147.851 121.312 145.5 119.326 145.5 116.875V85.8125Z" fill="#FFC200"/>
<path d="M171.75 63.625C171.75 61.1742 174.101 59.1875 177 59.1875H187.5C190.399 59.1875 192.75 61.1742 192.75 63.625V116.875C192.75 119.326 190.399 121.312 187.5 121.312H177C174.101 121.312 171.75 119.326 171.75 116.875V63.625Z" fill="#FFC200"/>
<defs>
<linearGradient id="paint0_linear_8672_1070" x1="124" y1="37.75" x2="124" y2="109.75" gradientUnits="userSpaceOnUse">
<stop offset="0.247476" stop-color="#FCB040"/>
<stop offset="0.931843" stop-color="#666666" stop-opacity="0"/>
</linearGradient>
</defs>
</svg>
