<svg width="229" height="141" viewBox="0 0 229 141" fill="none" xmlns="http://www.w3.org/2000/svg">
<g clip-path="url(#clip0_8672_1079)">
<rect width="229" height="140" transform="translate(0 0.75)" fill="white"/>
<path d="M118.5 6.52075H118.51M108 1.83325H118C120.761 1.83325 123 4.1651 123 7.04159V17.4583C123 20.3347 120.761 22.6666 118 22.6666H108C105.239 22.6666 103 20.3347 103 17.4583V7.04159C103 4.1651 105.239 1.83325 108 1.83325ZM117 11.5937C117.123 12.4606 116.981 13.346 116.594 14.1239C116.206 14.9018 115.593 15.5326 114.842 15.9267C114.09 16.3207 113.238 16.4578 112.408 16.3186C111.577 16.1794 110.81 15.7708 110.215 15.1511C109.62 14.5314 109.228 13.7321 109.094 12.8668C108.96 12.0015 109.092 11.1144 109.47 10.3316C109.849 9.54872 110.454 8.91006 111.201 8.50642C111.948 8.10277 112.798 7.9547 113.63 8.08325C114.479 8.21438 115.265 8.62644 115.872 9.25857C116.479 9.8907 116.874 10.7094 117 11.5937Z" stroke="#002642" stroke-width="2" stroke-linecap="round" stroke-linejoin="round"/>
<path d="M181.75 56.4167H178.125C176.523 56.4167 174.986 57.1191 173.853 58.3694C172.72 59.6196 172.083 61.3153 172.083 63.0834V67.0834H168.458V72.4167H172.083V83.0834H176.917V72.4167H180.542L181.75 67.0834H176.917V63.0834C176.917 62.7298 177.044 62.3907 177.27 62.1406C177.497 61.8906 177.804 61.7501 178.125 61.7501H181.75V56.4167Z" stroke="#002642" stroke-width="2" stroke-linecap="round" stroke-linejoin="round"/>
<path d="M119.667 123.417C121.722 123.417 123.693 124.102 125.147 125.321C126.6 126.54 127.417 128.193 127.417 129.917V137.5H122.25V129.917C122.25 129.342 121.978 128.791 121.493 128.385C121.009 127.978 120.352 127.75 119.667 127.75C118.981 127.75 118.324 127.978 117.84 128.385C117.355 128.791 117.083 129.342 117.083 129.917V137.5H111.917V129.917C111.917 128.193 112.733 126.54 114.187 125.321C115.64 124.102 117.611 123.417 119.667 123.417Z" stroke="#002642" stroke-width="2" stroke-linecap="round" stroke-linejoin="round"/>
<path d="M106.75 124.5H101.583V137.5H106.75V124.5Z" stroke="#002642" stroke-width="2" stroke-linecap="round" stroke-linejoin="round"/>
<path d="M104.167 121.25C105.593 121.25 106.75 120.28 106.75 119.083C106.75 117.887 105.593 116.917 104.167 116.917C102.74 116.917 101.583 117.887 101.583 119.083C101.583 120.28 102.74 121.25 104.167 121.25Z" stroke="#002642" stroke-width="2" stroke-linecap="round" stroke-linejoin="round"/>
<path d="M67.9926 63.9525C67.8292 63.2999 67.4966 62.702 67.0282 62.2192C66.5598 61.7363 65.9723 61.3856 65.3251 61.2025C62.9601 60.625 53.5001 60.625 53.5001 60.625C53.5001 60.625 44.0401 60.625 41.6751 61.2575C41.0278 61.4406 40.4403 61.7913 39.9719 62.2742C39.5035 62.757 39.1709 63.3549 39.0076 64.0075C38.5747 66.4076 38.363 68.8424 38.3751 71.2813C38.3596 73.7384 38.5714 76.1918 39.0076 78.61C39.1876 79.2423 39.5277 79.8175 39.995 80.2799C40.4623 80.7424 41.0409 81.0765 41.6751 81.25C44.0401 81.8825 53.5001 81.8825 53.5001 81.8825C53.5001 81.8825 62.9601 81.8825 65.3251 81.25C65.9723 81.0669 66.5598 80.7162 67.0282 80.2333C67.4966 79.7505 67.8292 79.1526 67.9926 78.5C68.422 76.1179 68.6338 73.7017 68.6251 71.2813C68.6405 68.8241 68.4288 66.3707 67.9926 63.9525Z" stroke="#002642" stroke-width="2" stroke-linecap="round" stroke-linejoin="round"/>
<path d="M50.4063 75.7775L58.3126 71.2813L50.4063 66.785V75.7775Z" stroke="#002642" stroke-width="2" stroke-linecap="round" stroke-linejoin="round"/>
<path d="M174.1 51.548L175.913 39.9226L165.353 44.0074L174.1 51.548ZM128.845 15.3517C140.682 16.4013 149.392 19.7472 155.927 24.6227C162.461 29.4974 166.891 35.9525 170.09 43.3379L171.871 42.5092C168.565 34.8764 163.938 28.0984 157.055 22.9637C150.173 17.8297 141.105 14.3899 128.994 13.316L128.845 15.3517Z" fill="#26649B"/>
<path d="M135.051 132.451L146.083 134.983L142.625 123.733L135.051 132.451ZM172.035 87.1085C170.394 99.4267 166.727 108.352 161.715 114.922C156.703 121.49 150.295 125.771 143.067 128.714L143.783 130.619C151.25 127.579 157.971 123.113 163.245 116.201C168.518 109.29 172.292 100 173.971 87.3986L172.035 87.1085Z" fill="#26649B"/>
<path d="M54.5815 90.0834L51.3126 101.392L62.3003 98.6696L54.5815 90.0834ZM94.9115 132.186C83.3014 129.517 75.0819 124.999 69.2117 119.26C63.3424 113.522 59.7618 106.505 57.5192 98.7363L55.6481 99.3327C57.9649 107.359 61.6984 114.717 67.8749 120.755C74.0507 126.793 82.6091 131.452 94.4865 134.183L94.9115 132.186Z" fill="#26649B"/>
<path d="M94.9045 16.7999L84.4426 12.4618L85.9815 24.1264L94.9045 16.7999ZM51.4301 55.3095C54.9416 43.4372 59.9277 35.2519 65.8763 29.6156C71.824 23.9802 78.7966 20.8335 86.3748 19.1434L85.9847 17.1464C78.1522 18.8932 70.8349 22.173 64.5692 28.1097C58.3045 34.0456 53.1538 42.578 49.561 54.7252L51.4301 55.3095Z" fill="#26649B"/>
<ellipse cx="116.648" cy="71.3591" rx="43.3517" ry="42.2341" fill="#124E78"/>
<path d="M98.9137 63.6801C98.556 55.2175 81.317 50.7321 79.2084 52.1617C75.2673 57.281 69.5528 72.127 78.2231 90.5564C86.8934 108.986 108.017 113.266 117.496 113.103C117.496 113.103 119.604 106.874 115.663 101.115C111.722 95.3556 98.8598 91.5411 93.9873 83.8373C89.1149 76.1335 99.2713 72.1427 98.9137 63.6801Z" fill="#35993F" stroke="#35993F"/>
<path d="M126.501 41.6034C127.486 35.8442 116.544 32.2074 111.177 43.6244C105.81 55.0415 116.648 53.1217 112.707 57.9211C108.766 62.7204 132.413 69.4395 132.413 69.4395C132.413 69.4395 142.265 70.3993 149.162 66.5599C156.059 62.7204 139.309 42.5632 137.339 49.2823C135.368 56.0014 125.516 47.3626 126.501 41.6034Z" fill="#35993F" stroke="#35993F"/>
</g>
<g clip-path="url(#clip1_8672_1079)">
<path d="M76.625 58.5507C76.4095 58.5507 76.2028 58.6237 76.0505 58.7535C75.8981 58.8834 75.8125 59.0596 75.8125 59.2432V64.7836C75.8125 64.9672 75.8981 65.1434 76.0505 65.2733C76.2028 65.4032 76.4095 65.4761 76.625 65.4761H84.4136C84.8446 65.4762 85.2578 65.6222 85.5625 65.8819L87.1875 67.267V59.2432C87.1875 59.0596 87.1019 58.8834 86.9495 58.7535C86.7972 58.6237 86.5905 58.5507 86.375 58.5507H76.625ZM86.375 57.8582C86.806 57.8582 87.2193 58.0041 87.524 58.2638C87.8288 58.5236 88 58.8759 88 59.2432V68.1029C88 68.1714 87.9761 68.2384 87.9314 68.2954C87.8867 68.3523 87.8232 68.3967 87.7489 68.4229C87.6746 68.449 87.5929 68.4558 87.5141 68.4424C87.4353 68.429 87.3629 68.3959 87.3061 68.3474L84.9881 66.3716C84.8357 66.2417 84.6291 66.1687 84.4136 66.1687H76.625C76.194 66.1687 75.7807 66.0227 75.476 65.763C75.1712 65.5032 75 65.1509 75 64.7836V59.2432C75 58.8759 75.1712 58.5236 75.476 58.2638C75.7807 58.0041 76.194 57.8582 76.625 57.8582H86.375Z" fill="#FFC200"/>
<path d="M81.5 60.6234C82.852 59.4384 86.2328 61.5119 81.5 64.1775C76.7672 61.5112 80.148 59.4384 81.5 60.6234Z" fill="#FFC200"/>
</g>
<g clip-path="url(#clip2_8672_1079)">
<path d="M158.375 54.2355C158.59 54.2355 158.797 54.3028 158.95 54.4227C159.102 54.5426 159.188 54.7052 159.188 54.8747V59.9889C159.188 60.1584 159.102 60.321 158.95 60.4409C158.797 60.5608 158.59 60.6282 158.375 60.6282H150.586C150.155 60.6282 149.742 60.763 149.438 61.0028L147.812 62.2813V54.8747C147.812 54.7052 147.898 54.5426 148.05 54.4227C148.203 54.3028 148.41 54.2355 148.625 54.2355H158.375ZM148.625 53.5962C148.194 53.5962 147.781 53.7309 147.476 53.9707C147.171 54.2104 147 54.5356 147 54.8747V63.0529C147 63.1161 147.024 63.178 147.069 63.2305C147.113 63.2831 147.177 63.3241 147.251 63.3482C147.325 63.3724 147.407 63.3787 147.486 63.3663C147.565 63.3539 147.637 63.3233 147.694 63.2786L150.012 61.4547C150.164 61.3348 150.371 61.2675 150.586 61.2674H158.375C158.806 61.2674 159.219 61.1327 159.524 60.8929C159.829 60.6532 160 60.328 160 59.9889V54.8747C160 54.5356 159.829 54.2104 159.524 53.9707C159.219 53.7309 158.806 53.5962 158.375 53.5962H148.625Z" fill="#FFC200"/>
<path d="M153.5 56.1489C152.148 55.0551 148.767 56.9691 153.5 59.4296C158.233 56.9684 154.852 55.0551 153.5 56.1489Z" fill="#FFC200"/>
</g>
<g clip-path="url(#clip3_8672_1079)">
<path d="M119.375 90.0345C119.59 90.0345 119.797 90.1019 119.95 90.2218C120.102 90.3417 120.188 90.5043 120.188 90.6738V95.788C120.188 95.9575 120.102 96.1201 119.95 96.24C119.797 96.3599 119.59 96.4272 119.375 96.4272H111.586C111.155 96.4273 110.742 96.5621 110.438 96.8018L108.812 98.0804V90.6738C108.812 90.5043 108.898 90.3417 109.05 90.2218C109.203 90.1019 109.41 90.0345 109.625 90.0345H119.375ZM109.625 89.3953C109.194 89.3953 108.781 89.53 108.476 89.7697C108.171 90.0095 108 90.3347 108 90.6738V98.852C108 98.9152 108.024 98.977 108.069 99.0296C108.113 99.0822 108.177 99.1231 108.251 99.1473C108.325 99.1715 108.407 99.1777 108.486 99.1653C108.565 99.1529 108.637 99.1224 108.694 99.0776L111.012 97.2538C111.164 97.1339 111.371 97.0665 111.586 97.0665H119.375C119.806 97.0665 120.219 96.9318 120.524 96.692C120.829 96.4522 121 96.127 121 95.788V90.6738C121 90.3347 120.829 90.0095 120.524 89.7697C120.219 89.53 119.806 89.3953 119.375 89.3953H109.625Z" fill="#FFC200"/>
<path d="M114.5 91.9479C113.148 90.8541 109.767 92.7681 114.5 95.2287C119.233 92.7675 115.852 90.8541 114.5 91.9479Z" fill="#FFC200"/>
</g>
<defs>
<clipPath id="clip0_8672_1079">
<rect width="229" height="140" fill="white" transform="translate(0 0.75)"/>
</clipPath>
<clipPath id="clip1_8672_1079">
<rect width="13" height="11.0807" fill="white" transform="translate(75 57.8582)"/>
</clipPath>
<clipPath id="clip2_8672_1079">
<rect width="13" height="10.2283" fill="white" transform="matrix(-1 0 0 1 160 53.5962)"/>
</clipPath>
<clipPath id="clip3_8672_1079">
<rect width="13" height="10.2283" fill="white" transform="matrix(-1 0 0 1 121 89.3953)"/>
</clipPath>
</defs>
</svg>
