<svg width="229" height="165" viewBox="0 0 229 165" fill="none" xmlns="http://www.w3.org/2000/svg">
<path d="M152.493 53.5911C152.214 43.1872 159.961 34.3085 170.307 33.1747L179.909 32.1224C191.555 30.8461 201.799 39.808 202.082 51.5202L203.542 111.954C203.799 122.58 195.699 131.55 185.103 132.377L175.651 133.114C164.239 134.004 154.41 125.152 154.103 113.71L152.493 53.5911Z" fill="#002642"/>
<path d="M149.247 44.3861C149.107 39.1841 152.981 34.7448 158.154 34.1779L187.732 30.9362C193.555 30.298 198.677 34.779 198.819 40.6351L200.771 121.428C200.899 126.741 196.85 131.227 191.551 131.64L162.159 133.932C156.453 134.377 151.538 129.951 151.385 124.23L149.247 44.3861Z" fill="#212121"/>
<path d="M152.222 43.4656C152.096 38.7838 155.583 34.7884 160.238 34.2782L191.814 30.8176C197.055 30.2432 201.665 34.2761 201.792 39.5466L203.794 122.376C203.909 127.158 200.265 131.194 195.496 131.566L164.11 134.014C158.974 134.414 154.551 130.431 154.413 125.282L152.222 43.4656Z" fill="#840032"/>
<rect width="18.2553" height="4.3254" rx="2.1627" transform="matrix(0.993758 -0.11156 0.10893 0.994049 165.992 35.8599)" fill="#212121"/>
<path d="M153.144 103.136C153.054 99.3886 154.879 95.8535 157.985 93.7559L185.741 75.0135C192.949 70.1456 202.689 75.1752 202.893 83.8711L203.755 120.507C203.892 126.356 199.426 131.29 193.591 131.734L165.455 133.872C159.174 134.349 153.776 129.465 153.625 123.167L153.144 103.136Z" fill="#6A0028"/>
<path d="M74.1896 61.3835C75.1776 61.9951 75.8697 63.0305 76.5766 63.9259C77.3892 64.9552 78.155 65.9032 78.7898 67.0537C79.4653 68.2781 79.862 69.532 80.4451 70.7667C80.8357 71.5938 80.4164 72.4205 80.1982 73.2451C79.83 74.6361 79.6113 76.053 79.2105 77.4337C78.8698 78.6073 78.6674 80.1739 77.7746 81.101C77.2538 81.6418 76.3426 82.2017 75.7078 82.5826C74.2041 83.4848 73.04 83.7583 71.3088 84.0275C69.1515 84.3631 67.0626 84.9238 64.8705 84.9238C64.1564 84.9238 63.3267 85.0417 62.6298 84.8506C61.781 84.6179 60.9728 84.2152 60.124 83.9727C58.0729 83.3866 55.3639 83.5459 53.4844 82.4545C50.6565 80.8125 47.8012 79.6461 44.7414 78.5129C43.5284 78.0636 42.4493 77.2448 41.1747 77.013C39.8678 76.7754 38.6457 76.2463 37.4434 75.7052C36.0954 75.0987 33.976 74.3516 33.2731 72.9067C32.7955 71.9251 32.7444 70.7697 32.2945 69.7699C31.7366 68.53 30.7254 67.7027 29.9076 66.6513C28.8824 65.3332 29.2446 62.7358 30.1088 61.475C31.2787 59.768 32.6219 58.2905 33.9224 56.7011C34.4894 56.0081 34.7659 55.2087 35.5046 54.6342C36.8764 53.5672 38.6976 53.4097 40.2968 52.86C43.041 51.9167 45.6292 51.1714 48.5093 50.8114C50.6207 50.5475 52.7946 50.6834 54.9203 50.6834C57.0656 50.6834 59.0439 51.4334 61.0294 52.1649C63.3492 53.0196 65.7164 53.9852 67.733 55.4573C70.0508 57.1493 71.0479 59.4159 71.3546 62.2066C71.6186 64.6091 71.7235 67.1343 71.4643 69.5412C71.206 71.9399 71.1903 74.1706 68.7664 75.1474C63.7337 77.1755 57.4669 77.9838 52.5699 75.2114C49.0826 73.2371 46.3548 69.719 45.2536 65.8648C44.9225 64.7059 44.5585 63.3556 44.5585 62.1426C44.5585 60.2168 50.2602 63.2394 51.1798 63.6699C53.2319 64.6304 55.1828 65.7417 57.2706 66.6513C59.1314 67.4619 60.9818 68.2984 62.8493 69.0931C64.0927 69.6222 63.7482 69.1221 62.9957 68.2243C58.9014 63.34 53.9223 58.7016 48.7105 55.0366C46.7565 53.6625 44.6272 52.4998 42.5831 51.2687C39.933 49.6726 37.6492 47.5557 34.4345 47.5557C33.713 47.5557 34.3727 48.0304 34.3522 48.3788C34.3303 48.7516 33.0474 49.4847 32.7426 49.6957C32.1808 50.0846 31.6133 50.9052 31.2154 51.4425C30.2868 52.696 29.2113 53.5802 28.0236 54.5519C26.7629 55.5834 27.4542 58.0104 26.286 59.2435C24.8071 60.8045 24.4044 62.6441 25.0422 64.7399C25.2446 65.4048 25.3725 66.0363 25.6275 66.6879C26.4901 68.8922 27.2416 70.1911 29.3771 71.5166C31.3246 72.7254 33.5543 73.1076 35.5137 74.242C36.7771 74.9734 37.8317 76.0491 38.9798 76.9399C40.5848 78.1851 42.4586 79.1125 44.3939 79.7201C46.8295 80.4847 49.3131 80.7133 51.8017 81.1742C53.161 81.4259 54.3712 82.1755 55.5879 82.7838C58.6717 84.3257 62.2381 82.8826 65.3826 84.2013C66.2306 84.5569 66.9609 85.2764 67.6049 85.9115C68.1327 86.4319 68.7415 87.3486 69.4157 87.6857C69.9608 87.9582 70.81 87.9624 71.4094 88.1796C71.4586 88.1974 72.1847 88.509 72.2508 88.4722C72.3856 88.3973 72.3684 87.879 72.3697 87.8412C72.4226 86.3336 72.4301 84.8376 72.5709 83.3325C72.9533 79.2456 74.0079 75.2784 74.7475 71.2514C74.9403 70.2015 74.6694 69.7517 74.1165 68.8828C73.794 68.3759 73.6812 67.5954 73.4946 67.0354C72.9034 65.262 72.3746 63.4708 71.7935 61.6945C71.4822 60.7427 71.0565 59.9993 70.8607 59.0423C70.614 57.8363 70.0704 56.6352 69.6718 55.4756C69.3415 54.5147 69.2526 53.4211 68.8396 52.5033C68.5104 51.7718 68.5264 51.5463 67.7696 51.5065C67.1086 51.4717 66.6151 50.6801 66.288 50.1895" stroke="#C65C84" stroke-width="19" stroke-linecap="round"/>
<path d="M76.1575 53.1296C76.2163 52.6593 79.6844 53.1876 80.1814 53.3085C81.3101 53.583 82.0348 54.3083 82.7969 55.1975C83.8144 56.3845 84.6574 57.8783 85.2113 59.3443C85.6124 60.4062 85.2808 61.5941 85.4181 62.692C85.571 63.9158 85.9977 65.0824 86.8655 65.9503C87.6542 66.7389 88.4304 66.983 88.4304 68.2417C88.4304 68.7404 88.3314 69.3566 88.4807 69.8344C88.5945 70.1986 88.7322 70.8016 88.7322 71.1813C88.7322 71.4222 88.949 71.6471 88.7545 71.8632C88.4592 72.1913 88.3201 72.545 87.8268 72.545" stroke="#C65C84" stroke-width="5" stroke-linecap="round"/>
<path d="M88.028 68.7221C88.028 67.9667 88.0876 67.2169 87.8045 66.509C87.6735 66.1815 87.5703 65.9064 87.4021 65.6036C87.2692 65.3645 86.7533 65.2763 86.519 65.1006" stroke="#C65C84" stroke-width="5" stroke-linecap="round"/>
<path d="M84.8089 55.9463C84.7309 55.0882 83.5887 54.2312 82.9981 53.6829C82.5422 53.2595 82.4542 53.0002 81.8357 52.7775C80.9258 52.4499 79.9506 52.1936 79.0748 51.7995C78.4513 51.5189 77.768 51.3788 77.1187 51.1623C76.2769 50.8817 75.9095 50.1892 75.4309 49.5081C75.2027 49.1833 74.9503 48.6535 74.9503 48.2506C74.9503 47.6738 74.5621 47.1789 74.2908 46.6857C73.9782 46.1174 73.6719 45.5389 73.2401 45.0818C72.696 44.5056 72.4789 43.717 71.9324 43.1704" stroke="#C65C84" stroke-width="5" stroke-linecap="round"/>
<path d="M45.5757 42.9691C46.2478 42.9691 46.7086 42.8671 47.3361 42.6114C47.985 42.3471 48.4935 41.8399 49.0966 41.5384C49.9609 41.1063 51.1049 40.7663 52.0698 40.5771C53.0777 40.3795 54.0274 40.3536 55.0542 40.3536C56.4473 40.3536 57.4593 41.1649 58.6534 41.762C59.5875 42.229 61.4539 43.4361 62.5544 42.7679C62.7394 42.6556 63.3108 42.3362 63.3759 42.1085C63.4714 41.7741 63.6283 41.8626 63.9851 41.8626C64.6597 41.8626 65.5833 41.5546 66.1982 41.2813C66.7589 41.0321 67.9778 41.2412 68.5176 41.4099C68.9881 41.5569 69.4312 41.712 69.898 41.8849C70.2871 42.029 70.4719 42.507 70.8257 42.7232C71.8696 43.3611 72.4517 44.554 73.4469 45.2382C73.884 45.5387 74.2821 45.9083 74.7267 46.1883C75.0366 46.3834 75.6702 46.512 75.8556 46.8366C76.0247 47.1324 76.1574 47.0998 76.1574 47.496C76.1574 48.13 76.0052 46.8113 75.9562 46.5906C75.7473 45.6507 74.7236 44.7167 74.0113 44.1204C73.6641 43.8297 73.447 43.4301 73.1954 43.0641C72.6073 42.2088 71.8592 42.0455 71.0269 41.5105C69.774 40.705 68.5444 40.271 67.0645 40.0518C66.3568 39.947 65.7429 39.75 65.0134 39.75C64.4498 39.75 63.9251 39.9512 63.3815 39.9512" stroke="#C65C84" stroke-width="5" stroke-linecap="round"/>
<path d="M45.0727 40.756C44.3685 40.756 43.6643 40.756 42.9601 40.756C41.1107 40.756 39.142 39.986 37.4272 41.0577" stroke="#C65C84" stroke-width="5" stroke-linecap="round"/>
<path d="M25.5568 43.8745C25.4781 44.2677 25.0729 44.7613 24.8526 45.104C24.6531 45.4144 24.1901 45.813 24.1484 46.1883C24.0945 46.6736 23.8605 47.1742 23.6678 47.619C23.1728 48.7612 22.7464 49.9425 22.3376 51.1176" stroke="#C65C84" stroke-width="5" stroke-linecap="round"/>
<path d="M19.8227 52.6265C19.8227 53.175 19.4354 53.5128 19.1688 53.9845C18.8341 54.5767 18.5169 55.1376 18.2132 55.745C17.7842 56.6029 17.2711 57.3557 16.7545 58.1593C16.4161 58.6857 16.355 58.9432 16.2236 59.5677C16.0276 60.4985 16.2012 61.6267 16.2012 62.5801C16.2012 63.2689 16.1246 63.9475 16.1006 64.62C16.0801 65.1948 16 65.7337 16 66.3134C16 67.2987 16.3688 68.1519 16.8048 69.0239C17.1414 69.697 17.588 70.3681 18.0175 70.9856C18.5082 71.6909 18.9436 72.4574 19.4427 73.1484C19.9846 73.8988 20.4995 75.1228 21.3317 75.5851C21.4877 75.6718 21.6434 75.7996 21.7844 75.9093C22.1036 76.1576 21.8338 76.0484 21.6894 75.8646C21.1475 75.1749 20.1132 74.8976 19.4203 74.3779C18.7935 73.9078 17.6096 73.4729 17.6096 72.5448" stroke="#C65C84" stroke-width="5" stroke-linecap="round"/>
<path d="M26.3616 79.8887C26.3616 80.8031 26.1136 82.0254 27.0658 82.5266C28.5094 83.2864 29.7841 84.119 31.3133 84.7174C32.0691 85.0131 32.9888 85.1104 33.7947 85.1198C34.9811 85.1336 36.1183 85.3793 37.2933 85.4998C38.5508 85.6288 39.8879 85.7233 41.1495 85.7233" stroke="#C65C84" stroke-width="5" stroke-linecap="round"/>
<path d="M49.9014 90.8538C51.3796 92.332 54.1846 91.8597 56.0937 91.8597C57.8859 91.8597 59.678 91.8597 61.4701 91.8597C62.5839 91.8597 63.6744 91.9545 64.5886 92.5639" stroke="#C65C84" stroke-width="5" stroke-linecap="round"/>
<path d="M56.3398 93.9722C56.3398 95.1085 57.7735 95.7076 58.5027 96.4368C59.2318 97.1659 59.7336 97.7938 60.3638 98.622C60.7935 99.1869 61.2807 99.8478 61.6212 100.461C61.7724 100.733 61.6715 101.264 61.6715 101.567C61.6715 102.282 61.8966 102.76 62.2751 103.328" stroke="#C65C84" stroke-width="5" stroke-linecap="round"/>
<path d="M61.3697 91.3567C61.3697 92.112 61.209 93.0388 61.392 93.771C61.5052 94.2237 61.6715 94.6223 61.6715 95.0788C61.6715 95.4968 61.7721 95.8739 61.7721 96.286C61.7721 96.6338 61.9733 96.898 61.9733 97.1914" stroke="#C65C84" stroke-width="5" stroke-linecap="round"/>
<path d="M75.554 94.1733C76.0529 94.1733 76.8005 94.3011 77.2641 94.0951C77.9835 93.7754 78.604 93.3839 79.2761 92.9885C79.8492 92.6514 80.4388 91.9566 80.8856 91.4572C81.4284 90.8506 81.4315 89.8047 82.0425 89.1937C82.684 88.5522 83.1772 87.8552 83.7471 87.1818C84.1729 86.6785 84.4956 85.9842 84.8145 85.4101C85.1579 84.7921 85.7193 84.0962 85.9155 83.4094C86.0467 82.9502 86.4191 82.4336 86.6253 81.9954C86.9354 81.3363 87.3306 80.7751 87.5754 80.0896C87.8108 79.4305 87.6257 78.4568 87.6257 77.7759" stroke="#C65C84" stroke-width="5" stroke-linecap="round"/>
<path d="M87.5251 77.7759C87.5251 78.1689 87.6605 78.5955 87.8716 78.9272C88.0385 79.1895 87.9743 79.5969 88.0784 79.8884C88.3181 80.5598 88.5105 81.1167 88.2293 81.7495C87.9378 82.4054 87.7006 82.8723 87.2233 83.4094C86.8013 83.8841 86.7334 84.7171 86.0161 84.7171" stroke="#C65C84" stroke-width="5" stroke-linecap="round"/>
<path d="M23.7041 78.7633C22.948 78.7633 22.1918 78.7633 21.4357 78.7633C20.9646 78.7633 20.2362 78.804 19.9031 78.3889C19.5715 77.9756 19.1654 77.4225 18.6892 77.1587C18.4164 77.0076 18.2205 76.5973 17.9413 76.4099C17.5754 76.1644 17.1987 75.8435 16.9236 75.5007C16.5733 75.0642 16.3291 74.5025 15.9243 74.1101C14.6959 72.9194 14.4179 70.688 14.0177 69.1361C13.8054 68.3129 13.7491 67.4884 13.5272 66.6758C13.2724 65.7426 13 64.8875 13 63.9184C13 61.6748 13.0835 59.4326 13.938 57.316C14.3871 56.2033 15.0367 55.1194 15.6975 54.1129C16.2924 53.2066 17.105 52.0282 17.9658 51.3792C19.6087 50.1405 21.8514 50.3095 23.8144 50.3095C24.7894 50.3095 26.2878 50.5678 27.0146 51.2722C27.27 51.5198 27.5668 52.2629 27.6767 52.6094C27.7851 52.9508 27.8935 53.2933 28.0078 53.6256" stroke="#840032" stroke-width="2" stroke-linecap="round"/>
<path d="M20.0625 50.5234C20.0625 49.9687 19.9718 49.334 20.087 48.7881C20.2688 47.9266 20.8599 47.215 21.166 46.3992C21.5196 45.4564 22.1171 44.629 22.6496 43.7844C23.4663 42.4889 25.1375 41.8315 26.4383 41.1339C27.2841 40.6804 28.8468 40.3698 29.8286 40.5812C30.6465 40.7574 31.1036 41.7788 31.3735 42.4472C31.7152 43.2938 32.15 44.2265 32.6425 44.9848C33.1038 45.695 33.4738 46.2846 34.0219 46.934C34.471 47.4661 35.2539 47.5872 35.5116 48.1701" stroke="#840032" stroke-width="2" stroke-linecap="round"/>
<path d="M30.5459 41.538C31.3456 41.538 32.4261 40.7563 33.0288 40.3019C33.5737 39.8911 34.0825 39.226 34.8496 39.1847C35.8648 39.13 36.8411 38.6293 37.7739 38.2755C38.433 38.0255 39.3134 37.7941 40.03 37.7941C40.4173 37.7941 40.8705 37.8544 41.25 37.7704C42.3323 37.5305 43.5032 37.5802 44.6157 37.5802C45.0224 37.5802 46.322 38.2615 46.5223 38.6499C46.8099 39.2074 46.5581 39.593 46.2709 40.094C45.9011 40.7392 45.6729 41.6426 44.8916 41.8589" stroke="#840032" stroke-width="2" stroke-linecap="round"/>
<path d="M46.1055 40.1475C46.7228 40.1475 47.2532 39.9977 47.7056 39.5591C47.8822 39.3879 48.1346 39.3476 48.3125 39.1847C48.5009 39.0122 48.6794 38.7533 48.9194 38.6499C49.2963 38.4875 49.675 38.249 50.0229 38.0616C50.5748 37.7644 51.1539 37.6323 51.7334 37.4138C53.4896 36.7518 56.4024 36.1636 57.7536 37.8476C58.4512 38.717 59.0823 39.3549 59.5438 40.3614C59.9514 41.2505 60.0231 42.2652 60.4756 43.1426C61.2323 44.6095 61.9013 46.535 63.6513 47.1005" stroke="#840032" stroke-width="2" stroke-linecap="round"/>
<path d="M59.2371 40.2545C59.2371 39.8318 59.9135 39.6718 60.175 39.3988C60.4728 39.0879 60.9735 38.9144 61.1989 38.543C61.4004 38.2108 62.238 37.9606 62.6089 37.8953C63.6645 37.7092 64.7148 37.4178 65.7723 37.2356C66.5744 37.0974 67.4093 37.1524 68.2246 37.1524C68.7117 37.1524 69.4499 37.5459 69.8921 37.7407C70.5404 38.0264 71.1773 38.3161 71.8171 38.6262C73.1248 39.26 74.7432 40.14 75.4832 41.4312C75.7328 41.8667 76.2122 42.3556 76.5622 42.7148C76.9055 43.0672 77.1954 43.6344 77.445 44.0579C78.1186 45.2005 78.2678 46.3305 78.5546 47.5819C78.783 48.5781 79.1003 49.5908 79.1003 50.6305C79.1003 51.8202 79.8128 53.0999 79.2106 54.2674" stroke="#840032" stroke-width="2" stroke-linecap="round"/>
<path d="M78.5486 48.2771C79.6585 48.2771 80.5199 48.3768 81.5281 48.8654C81.8686 49.0305 82.3543 49.461 82.6929 49.5548C82.9674 49.6308 83.5586 50.1109 83.7351 50.3333C84.0199 50.6922 84.4653 50.8985 84.7957 51.2187C85.18 51.5913 85.4672 51.9085 85.7459 52.3657C86.5015 53.6052 86.7669 54.8843 86.9291 56.2998C87.0546 57.3946 87.1905 58.494 86.7146 59.5088" stroke="#840032" stroke-width="2" stroke-linecap="round"/>
<path d="M82.5212 59.5088C85.5442 59.5088 87.8047 60.707 89.6328 62.9853C90.3215 63.8436 90.9597 65.1093 91.2942 66.1468C91.6639 67.2936 91.9011 68.4165 91.9011 69.6174C91.9011 70.2509 92.1391 71.4515 91.8766 72.0242C91.5009 72.8436 91.1252 73.525 90.4665 74.1635C89.7542 74.854 89.0275 75.2633 88.0633 75.5304C87.2218 75.7634 86.2587 75.6611 85.3904 75.6611C84.9485 75.6611 84.6426 75.198 84.5076 74.8054" stroke="#840032" stroke-width="2" stroke-linecap="round"/>
<path d="M88.9216 75.3403C89.489 75.8904 89.7256 76.7921 90.0803 77.4797C90.3815 78.0636 90.5065 78.6556 90.7117 79.2744C91.0133 80.1839 91.1837 81.0103 91.1286 81.9724C91.0818 82.7898 90.3905 83.9055 89.8902 84.5397C89.0413 85.6158 88.1944 86.5842 86.9414 87.2674C85.4307 88.0911 83.25 87.8557 81.5832 87.8557C79.6566 87.8557 78.7549 86.7036 77.6106 85.3479C77.3302 85.0157 77.0303 84.3497 77.0036 83.8978C76.9356 82.744 76.3559 81.5132 76.1208 80.3738C75.8768 79.1913 73.452 78.4424 72.3689 78.4424" stroke="#840032" stroke-width="2" stroke-linecap="round"/>
<path d="M76.2311 83.6838C76.1835 84.8852 74.9207 85.7185 73.8279 85.9539C73.1799 86.0935 72.5701 86.4306 71.9274 86.5482C71.1255 86.6948 70.4313 86.7859 69.61 86.7859C68.7722 86.7859 67.7785 86.1744 67.1333 85.6627C66.19 84.9146 65.2259 83.7199 64.7546 82.6379C64.2256 81.4235 63.9088 80.0892 63.8718 78.7632C63.8478 77.9019 63.6768 76.6452 64.2519 75.9285C64.5323 75.579 64.7582 75.1671 65.147 74.8588C65.4726 74.6005 65.8344 74.4005 66.134 74.1101C66.3291 73.921 66.7434 73.7309 66.8513 73.5217" stroke="#840032" stroke-width="2" stroke-linecap="round"/>
<path d="M65.8581 85.9302C65.4239 86.4037 65.2495 87.4641 64.5891 87.7486C64.1822 87.9239 63.8518 88.0771 63.4304 88.236C61.7663 88.8633 59.8443 89.4602 58.0477 89.4602C56.6333 89.4602 55.1593 89.0461 53.8298 88.545C53.0226 88.2407 51.2684 87.6808 50.9607 86.7859" stroke="#840032" stroke-width="2" stroke-linecap="round"/>
<path d="M85.7214 88.4973C85.7214 89.3888 84.9806 90.4617 84.5565 91.225C84.0726 92.0963 83.45 92.8891 82.6315 93.5011C80.6047 95.0167 78.7049 96.5352 76.1821 97.0786C73.9561 97.5581 71.8738 98.0176 69.5856 98.0176C67.8177 98.0176 66.5603 97.3416 65.0857 96.627" stroke="#840032" stroke-width="2" stroke-linecap="round"/>
<path d="M26.4629 72.8799C26.4629 74.5266 25.4741 76.0782 24.8689 77.5866C24.5201 78.4561 24.5869 79.3658 24.5869 80.2846C24.5869 80.6966 24.5869 81.1086 24.5869 81.5207C24.5869 82.007 24.8662 82.3365 25.0283 82.7686C25.231 83.3088 26.0929 84.0109 26.5732 84.3018C27.1974 84.68 27.6806 85.3595 28.3389 85.7697C29.4307 86.4501 30.3959 86.7702 31.6739 87.0236C32.9159 87.2699 34.3088 87.3326 35.5056 87.6951C36.8749 88.1099 38.4941 88.3904 39.9257 88.3904C42.607 88.3904 45.8126 88.8144 48.2266 87.4277C49.0017 86.9825 49.9332 86.8091 50.685 86.3045C51.2429 85.9301 51.8771 85.655 52.4445 85.2883C53.1518 84.8312 53.7347 84.1908 54.3817 83.66C55.9942 82.3375 57.1642 80.7421 57.5267 78.7038C57.7623 77.3797 57.9725 75.4252 57.4716 74.1398C56.8961 72.6631 56.3301 71.3455 55.1603 70.2117C54.3119 69.3892 52.9939 68.2803 51.7333 68.2803" stroke="#840032" stroke-width="2" stroke-linecap="round"/>
<path d="M47.4297 87.8557C47.5021 89.4344 48.8349 91.1882 49.698 92.5029C50.2209 93.2994 50.916 93.6953 51.8192 93.9767C52.6498 94.2355 53.5058 94.4878 54.3879 94.4878C54.9661 94.4878 56.382 94.6749 56.6992 94.0599" stroke="#840032" stroke-width="2" stroke-linecap="round"/>
<path d="M54.7126 90.1021C54.7126 91.5447 56.6884 93.2352 57.9067 93.8994C58.3949 94.1657 58.8402 94.552 59.3474 94.7849C59.8991 95.0382 60.556 95.0966 61.1069 95.397C62.1125 95.9453 63.4212 96.1673 64.5339 96.437C65.0656 96.5658 66.4903 96.783 66.7409 97.269" stroke="#840032" stroke-width="2" stroke-linecap="round"/>
<path d="M54.9333 95.4504C54.9333 95.8845 55.6655 96.4488 55.902 96.8173C56.2534 97.3647 56.5718 97.9261 56.9197 98.4693C57.4799 99.3442 58.0429 100.314 58.5136 101.227C58.8451 101.869 59.1438 102.569 59.3474 103.259C59.4374 103.565 59.5726 103.994 59.7336 104.275C59.8721 104.517 60.1486 104.733 60.2302 104.971" stroke="#840032" stroke-width="2" stroke-linecap="round"/>
<path d="M63.7614 97.4829C63.7614 98.0313 63.7202 98.5932 63.8166 99.135C63.9237 99.7369 64.1662 100.289 64.2887 100.882C64.3929 101.387 64.5339 102.06 64.5339 102.564C64.5339 102.842 64.7003 104.757 64.6442 104.757" stroke="#840032" stroke-width="2" stroke-linecap="round"/>
<path d="M46.4429 47.745C45.1301 47.745 43.8832 47.2034 42.571 47.1545C41.4137 47.1113 40.2034 47.0364 39.0104 47.0364C38.1761 47.0364 36.6052 47.2183 36.1132 47.9813C35.5342 48.8793 35.1097 49.6128 34.8745 50.6387C34.777 51.064 34.8677 51.6146 34.8677 52.0495C34.8677 52.661 34.7789 53.3436 34.8745 53.9458C35.1312 55.5635 36.1229 56.7401 36.8443 58.1387C37.2593 58.9431 37.6701 60.0396 37.6701 60.9733C37.6701 61.44 37.8847 63.926 37.4265 63.926" stroke="#840032" stroke-width="2" stroke-linecap="round"/>
<path d="M20.8555 56.3669C20.8555 58.3011 22.0499 59.6309 23.8474 60.2646C24.6812 60.5585 25.4225 60.6189 26.3114 60.6189C27.2082 60.6189 28.2303 60.7585 29.0799 60.4417C29.7369 60.1968 30.4707 60.1456 31.1445 59.9627C31.7562 59.7967 32.3246 59.4378 32.9789 59.4378C33.7424 59.4378 34.3254 59.3784 34.9894 59.7003C35.4895 59.9427 35.6286 60.3115 36.025 60.6189C36.3115 60.841 37.1826 61.5111 37.1826 61.8" stroke="#840032" stroke-width="2" stroke-linecap="round"/>
<path d="M24.9983 67.7055C22.6409 67.7055 20.5023 67.1167 20.3682 64.5166C20.3103 63.3946 19.9993 62.174 20.5577 61.0914C20.9162 60.3965 21.9092 60.2298 22.1959 59.6741" stroke="#840032" stroke-width="2" stroke-linecap="round"/>
<path d="M32.3135 79.5882C32.9835 79.5882 33.5318 80.1788 34.2021 80.1788C34.6365 80.1788 35.2116 80.5472 35.6642 80.6447C36.4381 80.8114 38.6494 81.1247 38.6494 79.8835C38.6494 79.5312 38.5802 78.6976 38.7983 78.4334C39.0825 78.0891 38.8931 77.039 38.8931 76.6093C38.8931 75.3295 37.7791 74.1833 37.0654 73.1841C36.2146 71.9928 35.1277 71.0844 33.5929 71.0844C32.9939 71.0844 32.3711 70.8481 31.7584 70.8481C31.1109 70.8481 30.4633 70.8481 29.8157 70.8481C28.7853 70.8481 27.8487 72.1862 27.1961 72.856C26.7371 73.3271 26.5788 74.0058 26.2213 74.5358C25.8326 75.112 25.3684 75.6886 25.3684 76.3993" stroke="#840032" stroke-width="2" stroke-linecap="round"/>
<path d="M25.6074 77.3904C25.6074 76.6893 26.3615 76.1998 26.6769 75.6188C26.8177 75.3596 26.978 74.9665 27.1643 74.7658C27.3719 74.5422 27.441 74.109 27.584 73.8472C27.8115 73.4307 27.91 72.9937 28.2203 72.607C28.4816 72.2813 28.604 71.8303 29.08 71.7277C29.3514 71.6693 29.8012 71.4443 30.0547 71.3078C30.789 70.9124 32.0096 71.1306 32.8233 71.1306C33.7597 71.1306 34.771 71.0895 35.4497 71.7474C35.8159 72.1024 36.4611 72.7857 36.8848 73.0204C38.0287 73.654 38.5578 75.324 38.8884 76.4456" stroke="#840032" stroke-width="2" stroke-linecap="round"/>
<path d="M39.0103 78.2172C39.3532 78.7823 40.3819 79.0608 40.9598 79.372C41.4409 79.6311 41.8536 80.0065 42.361 80.225C43.4742 80.7046 44.2495 80.8156 45.468 80.8156C45.9189 80.8156 46.4735 80.6316 46.8083 80.3431C47.1513 80.0475 47.3432 79.574 47.7221 79.2802C48.2482 78.8722 48.1486 77.5283 48.1486 76.918" stroke="#840032" stroke-width="2" stroke-linecap="round"/>
<path d="M50.0982 76.4456C49.1237 76.4456 47.878 76.6278 46.9912 76.1503C46.5556 75.9157 46.0472 75.7733 45.6171 75.5007C45.2916 75.2944 45.1662 74.983 44.9199 74.792C44.7969 74.6966 44.6251 74.0191 44.6153 73.8471C44.5926 73.4523 44.3716 73.0756 44.3716 72.666C44.3716 71.859 44.3716 71.0519 44.3716 70.2448C44.3716 68.4249 46.2184 67.6869 47.3568 66.5834C48.0399 65.9212 49.0437 65.5472 49.9087 65.1661C50.6163 64.8543 51.3234 64.5595 52.0478 64.2803C52.8758 63.961 53.7576 63.4535 54.6674 63.4535C56.9668 63.4535 59.2568 63.2173 61.5787 63.2173C63.0187 63.2173 64.2307 64.129 65.5724 64.4902C66.5669 64.758 67.4436 65.3548 68.253 65.9601C69.4344 66.8435 70.0625 68.1327 70.4191 69.4771C70.7408 70.6896 71.4328 71.2602 72.2739 72.0755C72.7716 72.558 73.6531 72.9458 74.3452 73.0204C74.6965 73.0582 75.0043 73.1385 75.3809 73.1385C75.5585 73.1385 76.2234 72.9858 75.8073 72.7842" stroke="#840032" stroke-width="2" stroke-linecap="round"/>
<path d="M40.9597 52.8236C42.6861 52.8236 44.2371 53.6733 45.9553 53.7685C46.3746 53.7917 46.6987 54.0047 47.1196 54.0047C47.698 54.0047 48.2369 54.1228 48.8187 54.1228C49.7039 54.1228 50.4997 54.0576 51.3435 53.7947C52.1245 53.5514 53.1881 53.2738 53.6315 52.5217C53.8304 52.1844 54.1337 51.896 54.3355 51.5244C54.5456 51.1374 54.6014 50.6908 54.789 50.2908C55.1666 49.4855 55.0936 48.6438 55.0936 47.7711C55.0936 46.8128 54.3784 46.3894 53.8075 45.6779C53.5897 45.4065 53.0904 45.2713 52.7786 45.1202C52.4329 44.9527 52.2337 44.5559 51.8038 44.5559" stroke="#840032" stroke-width="2" stroke-linecap="round"/>
<path d="M53.2661 59.5559C52.3316 59.5559 51.191 59.7575 50.3418 59.3459C49.6649 59.0178 48.8342 58.5365 48.2705 58.0204C47.6806 57.4804 47.3732 57.2447 47.025 56.485C46.8489 56.1009 46.8083 55.7244 46.8083 55.3039C46.8083 55.0296 47.2072 54.9173 47.4176 54.7134" stroke="#840032" stroke-width="2" stroke-linecap="round"/>
<path d="M48.3922 64.8708C47.64 64.8708 46.6038 64.1923 45.8606 63.9521C44.9883 63.6703 44.1294 63.5533 43.2477 63.3091C41.9418 62.9474 40.0624 63.1386 38.8342 63.5715C37.5189 64.0352 35.9349 64.8332 35.0503 65.8812C34.5311 66.4964 34.1529 67.3351 33.5882 67.8825C33.1768 68.2813 32.5525 69.1435 32.5525 69.7132" stroke="#840032" stroke-width="2" stroke-linecap="round"/>
<path d="M55.0938 48.808C55.642 48.808 56.1903 48.808 56.7386 48.808C57.3522 48.808 57.8739 49.1623 58.4445 49.1623C59.6426 49.1623 60.8407 49.1623 62.0389 49.1623C62.7462 49.1623 63.1942 48.7495 63.8124 48.5783C64.3166 48.4387 64.8386 48.4537 65.3963 48.4537C66.1542 48.4537 67.0897 48.3015 67.8264 48.4602C68.3315 48.569 68.7239 48.9131 69.1735 49.0376C70.2168 49.3266 71.0433 50.3317 71.7864 51.0521C72.5677 51.8094 73.0086 53.4013 73.2417 54.4182C73.3969 55.0951 73.8706 56.7614 73.2756 57.3381C72.8983 57.7038 71.5841 59.8335 71.1772 58.8473" stroke="#840032" stroke-width="2" stroke-linecap="round"/>
<path d="M66.5471 60.2645C68.2591 60.0985 69.7939 59.3196 71.5156 59.3196C72.54 59.3196 73.5644 59.3196 74.5888 59.3196C75.7492 59.3196 76.8954 59.1707 77.9395 59.733C78.4253 59.9946 79.0353 60.7114 79.5303 60.8485C79.9378 60.9613 80.3817 61.3537 80.5592 61.7409C80.8618 62.4008 81.5339 62.9657 81.5339 63.7487C81.5339 64.3621 81.9873 65.039 82.0213 65.6975C82.0614 66.4752 82.3868 67.2791 82.3868 68.0597C82.3868 68.656 82.265 69.2689 82.265 69.8314C82.265 71.3753 81.3866 72.9112 81.1616 74.4376C81.0557 75.1565 80.8029 75.9024 80.8029 76.6292C80.8029 77.5173 80.933 78.1567 81.1752 78.9783C81.2987 79.3974 82.1944 79.6345 82.5696 79.6345C83.1334 79.6345 83.5246 79.9888 84.0927 79.9888" stroke="#840032" stroke-width="2" stroke-linecap="round"/>
<path d="M62.4044 63.5715C61.87 63.5715 61.0552 63.3791 60.6715 63.0072C60.4377 62.7806 60.2257 62.5106 60.0894 62.2132C59.9417 61.8911 59.8312 61.4438 59.6629 61.1502C59.3743 60.6466 59.4801 59.6586 59.4801 59.0833C59.4801 58.4816 59.9164 57.8643 60.2112 57.3642C60.763 56.4282 61.9947 55.4147 63.0136 54.9757C64.3792 54.3874 66.0023 53.4141 67.5218 53.4141" stroke="#840032" stroke-width="2" stroke-linecap="round"/>
<path d="M57.0432 71.9573C57.0432 70.8309 58.2257 69.8828 59.0198 69.267C59.2591 69.0814 59.9026 69.0456 60.2112 68.9127C60.5191 68.78 60.9638 68.7683 61.3078 68.7683" stroke="#840032" stroke-width="2" stroke-linecap="round"/>
<path d="M97.2929 144.457C97.6834 144.848 98.3166 144.848 98.7071 144.457L105.071 138.093C105.462 137.703 105.462 137.069 105.071 136.679C104.681 136.288 104.047 136.288 103.657 136.679L98 142.336L92.3431 136.679C91.9526 136.288 91.3195 136.288 90.9289 136.679C90.5384 137.069 90.5384 137.703 90.9289 138.093L97.2929 144.457ZM97 18.75L97 143.75H99L99 18.75H97Z" fill="url(#paint0_linear_8672_1261)"/>
<path d="M138.707 19.0429C138.317 18.6524 137.683 18.6524 137.293 19.0429L130.929 25.4069C130.538 25.7974 130.538 26.4305 130.929 26.8211C131.319 27.2116 131.953 27.2116 132.343 26.8211L138 21.1642L143.657 26.8211C144.047 27.2116 144.681 27.2116 145.071 26.8211C145.462 26.4305 145.462 25.7974 145.071 25.4069L138.707 19.0429ZM139 141.75V19.75H137V141.75H139Z" fill="url(#paint1_linear_8672_1261)"/>
<defs>
<linearGradient id="paint0_linear_8672_1261" x1="97.5" y1="18.75" x2="97.5" y2="143.75" gradientUnits="userSpaceOnUse">
<stop stop-color="#134E78"/>
<stop offset="1" stop-color="#840032"/>
</linearGradient>
<linearGradient id="paint1_linear_8672_1261" x1="138.5" y1="19.75" x2="138.5" y2="141.75" gradientUnits="userSpaceOnUse">
<stop stop-color="#840032"/>
<stop offset="1" stop-color="#134E78"/>
</linearGradient>
</defs>
</svg>
