<svg width="229" height="189" viewBox="0 0 229 189" fill="none" xmlns="http://www.w3.org/2000/svg">
<g clip-path="url(#clip0_8672_1323)">
<rect width="229" height="188.197" transform="translate(0 0.75)" fill="white"/>
<path d="M43.4537 45.3237L43.5679 166.621" stroke="#134E78"/>
<path d="M43.0175 166.119L229 166.103" stroke="#134E78"/>
<line x1="96.5051" y1="166.646" x2="96.5051" y2="171.116" stroke="#134E78"/>
<line x1="173.62" y1="166.646" x2="173.62" y2="171.116" stroke="#134E78"/>
<path d="M90.4262 177.731C90.5595 177.731 90.6645 177.769 90.7412 177.846C90.8212 177.919 90.8612 178.018 90.8612 178.141V178.881H85.9012V178.471C85.9012 178.388 85.9179 178.301 85.9512 178.211C85.9879 178.118 86.0445 178.034 86.1212 177.961L88.3162 175.761C88.4995 175.574 88.6629 175.396 88.8062 175.226C88.9529 175.056 89.0745 174.888 89.1712 174.721C89.2679 174.554 89.3412 174.386 89.3912 174.216C89.4445 174.043 89.4712 173.861 89.4712 173.671C89.4712 173.498 89.4462 173.346 89.3962 173.216C89.3462 173.083 89.2745 172.971 89.1812 172.881C89.0912 172.791 88.9812 172.724 88.8512 172.681C88.7245 172.634 88.5812 172.611 88.4212 172.611C88.2745 172.611 88.1379 172.633 88.0112 172.676C87.8879 172.716 87.7779 172.774 87.6812 172.851C87.5845 172.924 87.5029 173.011 87.4362 173.111C87.3695 173.211 87.3195 173.321 87.2862 173.441C87.2295 173.594 87.1562 173.696 87.0662 173.746C86.9762 173.796 86.8462 173.808 86.6762 173.781L86.0262 173.666C86.0762 173.319 86.1729 173.016 86.3162 172.756C86.4595 172.493 86.6379 172.274 86.8512 172.101C87.0679 171.924 87.3145 171.793 87.5912 171.706C87.8712 171.616 88.1712 171.571 88.4912 171.571C88.8245 171.571 89.1295 171.621 89.4062 171.721C89.6829 171.818 89.9195 171.956 90.1162 172.136C90.3129 172.316 90.4662 172.533 90.5762 172.786C90.6862 173.039 90.7412 173.321 90.7412 173.631C90.7412 173.898 90.7012 174.144 90.6212 174.371C90.5445 174.598 90.4395 174.814 90.3062 175.021C90.1762 175.228 90.0229 175.428 89.8462 175.621C89.6695 175.814 89.4845 176.011 89.2912 176.211L87.6612 177.876C87.8179 177.829 87.9729 177.794 88.1262 177.771C88.2829 177.744 88.4312 177.731 88.5712 177.731H90.4262ZM96.872 175.266C96.872 175.896 96.8036 176.444 96.667 176.911C96.5336 177.374 96.347 177.758 96.107 178.061C95.8703 178.364 95.5886 178.591 95.262 178.741C94.9386 178.888 94.5886 178.961 94.212 178.961C93.8353 178.961 93.4853 178.888 93.162 178.741C92.842 178.591 92.5636 178.364 92.327 178.061C92.0903 177.758 91.9053 177.374 91.772 176.911C91.6386 176.444 91.572 175.896 91.572 175.266C91.572 174.633 91.6386 174.084 91.772 173.621C91.9053 173.158 92.0903 172.774 92.327 172.471C92.5636 172.168 92.842 171.943 93.162 171.796C93.4853 171.646 93.8353 171.571 94.212 171.571C94.5886 171.571 94.9386 171.646 95.262 171.796C95.5886 171.943 95.8703 172.168 96.107 172.471C96.347 172.774 96.5336 173.158 96.667 173.621C96.8036 174.084 96.872 174.633 96.872 175.266ZM95.597 175.266C95.597 174.743 95.5586 174.309 95.482 173.966C95.4053 173.623 95.302 173.349 95.172 173.146C95.0453 172.943 94.8986 172.801 94.732 172.721C94.5653 172.638 94.392 172.596 94.212 172.596C94.0353 172.596 93.8636 172.638 93.697 172.721C93.5336 172.801 93.3886 172.943 93.262 173.146C93.1353 173.349 93.0336 173.623 92.957 173.966C92.8836 174.309 92.847 174.743 92.847 175.266C92.847 175.789 92.8836 176.223 92.957 176.566C93.0336 176.909 93.1353 177.183 93.262 177.386C93.3886 177.589 93.5336 177.733 93.697 177.816C93.8636 177.896 94.0353 177.936 94.212 177.936C94.392 177.936 94.5653 177.896 94.732 177.816C94.8986 177.733 95.0453 177.589 95.172 177.386C95.302 177.183 95.4053 176.909 95.482 176.566C95.5586 176.223 95.597 175.789 95.597 175.266ZM102.028 177.731C102.161 177.731 102.266 177.769 102.343 177.846C102.423 177.919 102.463 178.018 102.463 178.141V178.881H97.5028V178.471C97.5028 178.388 97.5194 178.301 97.5528 178.211C97.5894 178.118 97.6461 178.034 97.7228 177.961L99.9178 175.761C100.101 175.574 100.264 175.396 100.408 175.226C100.554 175.056 100.676 174.888 100.773 174.721C100.869 174.554 100.943 174.386 100.993 174.216C101.046 174.043 101.073 173.861 101.073 173.671C101.073 173.498 101.048 173.346 100.998 173.216C100.948 173.083 100.876 172.971 100.783 172.881C100.693 172.791 100.583 172.724 100.453 172.681C100.326 172.634 100.183 172.611 100.023 172.611C99.8761 172.611 99.7394 172.633 99.6128 172.676C99.4894 172.716 99.3794 172.774 99.2828 172.851C99.1861 172.924 99.1044 173.011 99.0378 173.111C98.9711 173.211 98.9211 173.321 98.8878 173.441C98.8311 173.594 98.7578 173.696 98.6678 173.746C98.5778 173.796 98.4478 173.808 98.2778 173.781L97.6278 173.666C97.6778 173.319 97.7744 173.016 97.9178 172.756C98.0611 172.493 98.2394 172.274 98.4528 172.101C98.6694 171.924 98.9161 171.793 99.1928 171.706C99.4728 171.616 99.7728 171.571 100.093 171.571C100.426 171.571 100.731 171.621 101.008 171.721C101.284 171.818 101.521 171.956 101.718 172.136C101.914 172.316 102.068 172.533 102.178 172.786C102.288 173.039 102.343 173.321 102.343 173.631C102.343 173.898 102.303 174.144 102.223 174.371C102.146 174.598 102.041 174.814 101.908 175.021C101.778 175.228 101.624 175.428 101.448 175.621C101.271 175.814 101.086 176.011 100.893 176.211L99.2628 177.876C99.4194 177.829 99.5744 177.794 99.7278 177.771C99.8844 177.744 100.033 177.731 100.173 177.731H102.028ZM103.464 173.666C103.514 173.319 103.61 173.016 103.754 172.756C103.897 172.493 104.075 172.274 104.289 172.101C104.505 171.924 104.752 171.793 105.029 171.706C105.309 171.616 105.609 171.571 105.929 171.571C106.262 171.571 106.562 171.619 106.829 171.716C107.099 171.809 107.329 171.941 107.519 172.111C107.709 172.278 107.854 172.474 107.954 172.701C108.057 172.928 108.109 173.173 108.109 173.436C108.109 173.666 108.082 173.869 108.029 174.046C107.979 174.219 107.905 174.371 107.809 174.501C107.712 174.631 107.592 174.741 107.449 174.831C107.305 174.921 107.144 174.996 106.964 175.056C107.397 175.193 107.72 175.401 107.934 175.681C108.147 175.961 108.254 176.313 108.254 176.736C108.254 177.096 108.187 177.414 108.054 177.691C107.92 177.968 107.74 178.201 107.514 178.391C107.287 178.578 107.024 178.719 106.724 178.816C106.427 178.913 106.112 178.961 105.779 178.961C105.415 178.961 105.099 178.919 104.829 178.836C104.559 178.753 104.324 178.629 104.124 178.466C103.924 178.303 103.754 178.103 103.614 177.866C103.474 177.629 103.354 177.356 103.254 177.046L103.799 176.821C103.942 176.761 104.075 176.746 104.199 176.776C104.325 176.803 104.417 176.869 104.474 176.976C104.534 177.093 104.599 177.208 104.669 177.321C104.742 177.434 104.829 177.536 104.929 177.626C105.029 177.713 105.145 177.784 105.279 177.841C105.415 177.894 105.577 177.921 105.764 177.921C105.974 177.921 106.157 177.888 106.314 177.821C106.47 177.751 106.6 177.661 106.704 177.551C106.81 177.441 106.889 177.319 106.939 177.186C106.992 177.049 107.019 176.913 107.019 176.776C107.019 176.603 107 176.446 106.964 176.306C106.927 176.163 106.85 176.041 106.734 175.941C106.617 175.841 106.449 175.763 106.229 175.706C106.012 175.649 105.72 175.621 105.354 175.621V174.741C105.657 174.738 105.909 174.709 106.109 174.656C106.309 174.603 106.467 174.529 106.584 174.436C106.704 174.339 106.787 174.224 106.834 174.091C106.88 173.958 106.904 173.811 106.904 173.651C106.904 173.311 106.809 173.053 106.619 172.876C106.429 172.699 106.175 172.611 105.859 172.611C105.712 172.611 105.577 172.633 105.454 172.676C105.33 172.716 105.219 172.774 105.119 172.851C105.022 172.924 104.94 173.011 104.874 173.111C104.807 173.211 104.757 173.321 104.724 173.441C104.667 173.594 104.592 173.696 104.499 173.746C104.409 173.796 104.28 173.808 104.114 173.781L103.464 173.666Z" fill="#FFC200"/>
<path d="M166.423 177.731C166.557 177.731 166.662 177.769 166.738 177.846C166.818 177.919 166.858 178.018 166.858 178.141V178.881H161.898V178.471C161.898 178.388 161.915 178.301 161.948 178.211C161.985 178.118 162.042 178.034 162.118 177.961L164.313 175.761C164.497 175.574 164.66 175.396 164.803 175.226C164.95 175.056 165.072 174.888 165.168 174.721C165.265 174.554 165.338 174.386 165.388 174.216C165.442 174.043 165.468 173.861 165.468 173.671C165.468 173.498 165.443 173.346 165.393 173.216C165.343 173.083 165.272 172.971 165.178 172.881C165.088 172.791 164.978 172.724 164.848 172.681C164.722 172.634 164.578 172.611 164.418 172.611C164.272 172.611 164.135 172.633 164.008 172.676C163.885 172.716 163.775 172.774 163.678 172.851C163.582 172.924 163.5 173.011 163.433 173.111C163.367 173.211 163.317 173.321 163.283 173.441C163.227 173.594 163.153 173.696 163.063 173.746C162.973 173.796 162.843 173.808 162.673 173.781L162.023 173.666C162.073 173.319 162.17 173.016 162.313 172.756C162.457 172.493 162.635 172.274 162.848 172.101C163.065 171.924 163.312 171.793 163.588 171.706C163.868 171.616 164.168 171.571 164.488 171.571C164.822 171.571 165.127 171.621 165.403 171.721C165.68 171.818 165.917 171.956 166.113 172.136C166.31 172.316 166.463 172.533 166.573 172.786C166.683 173.039 166.738 173.321 166.738 173.631C166.738 173.898 166.698 174.144 166.618 174.371C166.542 174.598 166.437 174.814 166.303 175.021C166.173 175.228 166.02 175.428 165.843 175.621C165.667 175.814 165.482 176.011 165.288 176.211L163.658 177.876C163.815 177.829 163.97 177.794 164.123 177.771C164.28 177.744 164.428 177.731 164.568 177.731H166.423ZM172.869 175.266C172.869 175.896 172.801 176.444 172.664 176.911C172.531 177.374 172.344 177.758 172.104 178.061C171.867 178.364 171.586 178.591 171.259 178.741C170.936 178.888 170.586 178.961 170.209 178.961C169.832 178.961 169.482 178.888 169.159 178.741C168.839 178.591 168.561 178.364 168.324 178.061C168.087 177.758 167.902 177.374 167.769 176.911C167.636 176.444 167.569 175.896 167.569 175.266C167.569 174.633 167.636 174.084 167.769 173.621C167.902 173.158 168.087 172.774 168.324 172.471C168.561 172.168 168.839 171.943 169.159 171.796C169.482 171.646 169.832 171.571 170.209 171.571C170.586 171.571 170.936 171.646 171.259 171.796C171.586 171.943 171.867 172.168 172.104 172.471C172.344 172.774 172.531 173.158 172.664 173.621C172.801 174.084 172.869 174.633 172.869 175.266ZM171.594 175.266C171.594 174.743 171.556 174.309 171.479 173.966C171.402 173.623 171.299 173.349 171.169 173.146C171.042 172.943 170.896 172.801 170.729 172.721C170.562 172.638 170.389 172.596 170.209 172.596C170.032 172.596 169.861 172.638 169.694 172.721C169.531 172.801 169.386 172.943 169.259 173.146C169.132 173.349 169.031 173.623 168.954 173.966C168.881 174.309 168.844 174.743 168.844 175.266C168.844 175.789 168.881 176.223 168.954 176.566C169.031 176.909 169.132 177.183 169.259 177.386C169.386 177.589 169.531 177.733 169.694 177.816C169.861 177.896 170.032 177.936 170.209 177.936C170.389 177.936 170.562 177.896 170.729 177.816C170.896 177.733 171.042 177.589 171.169 177.386C171.299 177.183 171.402 176.909 171.479 176.566C171.556 176.223 171.594 175.789 171.594 175.266ZM178.025 177.731C178.158 177.731 178.263 177.769 178.34 177.846C178.42 177.919 178.46 178.018 178.46 178.141V178.881H173.5V178.471C173.5 178.388 173.516 178.301 173.55 178.211C173.586 178.118 173.643 178.034 173.72 177.961L175.915 175.761C176.098 175.574 176.261 175.396 176.405 175.226C176.551 175.056 176.673 174.888 176.77 174.721C176.866 174.554 176.94 174.386 176.99 174.216C177.043 174.043 177.07 173.861 177.07 173.671C177.07 173.498 177.045 173.346 176.995 173.216C176.945 173.083 176.873 172.971 176.78 172.881C176.69 172.791 176.58 172.724 176.45 172.681C176.323 172.634 176.18 172.611 176.02 172.611C175.873 172.611 175.736 172.633 175.61 172.676C175.486 172.716 175.376 172.774 175.28 172.851C175.183 172.924 175.101 173.011 175.035 173.111C174.968 173.211 174.918 173.321 174.885 173.441C174.828 173.594 174.755 173.696 174.665 173.746C174.575 173.796 174.445 173.808 174.275 173.781L173.625 173.666C173.675 173.319 173.771 173.016 173.915 172.756C174.058 172.493 174.236 172.274 174.45 172.101C174.666 171.924 174.913 171.793 175.19 171.706C175.47 171.616 175.77 171.571 176.09 171.571C176.423 171.571 176.728 171.621 177.005 171.721C177.281 171.818 177.518 171.956 177.715 172.136C177.911 172.316 178.065 172.533 178.175 172.786C178.285 173.039 178.34 173.321 178.34 173.631C178.34 173.898 178.3 174.144 178.22 174.371C178.143 174.598 178.038 174.814 177.905 175.021C177.775 175.228 177.621 175.428 177.445 175.621C177.268 175.814 177.083 176.011 176.89 176.211L175.26 177.876C175.416 177.829 175.571 177.794 175.725 177.771C175.881 177.744 176.03 177.731 176.17 177.731H178.025ZM182.481 176.156V173.791C182.481 173.568 182.496 173.321 182.526 173.051L180.281 176.156H182.481ZM184.466 176.156V176.871C184.466 176.938 184.444 176.996 184.401 177.046C184.357 177.093 184.296 177.116 184.216 177.116H183.556V178.881H182.481V177.116H179.431C179.347 177.116 179.274 177.091 179.211 177.041C179.147 176.988 179.107 176.923 179.091 176.846L178.961 176.221L182.386 171.646H183.556V176.156H184.466Z" fill="#FFC200"/>
<path d="M30.5881 98.8778C30.7215 98.8778 30.8265 98.9162 30.9031 98.9928C30.9831 99.0662 31.0231 99.1645 31.0231 99.2878V100.028H26.0631V99.6178C26.0631 99.5345 26.0798 99.4478 26.1131 99.3578C26.1498 99.2645 26.2065 99.1812 26.2831 99.1078L28.4781 96.9078C28.6615 96.7212 28.8248 96.5428 28.9681 96.3728C29.1148 96.2028 29.2365 96.0345 29.3331 95.8678C29.4298 95.7012 29.5031 95.5328 29.5531 95.3628C29.6065 95.1895 29.6331 95.0078 29.6331 94.8178C29.6331 94.6445 29.6081 94.4928 29.5581 94.3628C29.5081 94.2295 29.4365 94.1178 29.3431 94.0278C29.2531 93.9378 29.1431 93.8712 29.0131 93.8278C28.8865 93.7812 28.7431 93.7578 28.5831 93.7578C28.4365 93.7578 28.2998 93.7795 28.1731 93.8228C28.0498 93.8628 27.9398 93.9212 27.8431 93.9978C27.7465 94.0712 27.6648 94.1578 27.5981 94.2578C27.5315 94.3578 27.4815 94.4678 27.4481 94.5878C27.3915 94.7412 27.3181 94.8428 27.2281 94.8928C27.1381 94.9428 27.0081 94.9545 26.8381 94.9278L26.1881 94.8128C26.2381 94.4662 26.3348 94.1628 26.4781 93.9028C26.6215 93.6395 26.7998 93.4212 27.0131 93.2478C27.2298 93.0712 27.4765 92.9395 27.7531 92.8528C28.0331 92.7628 28.3331 92.7178 28.6531 92.7178C28.9865 92.7178 29.2915 92.7678 29.5681 92.8678C29.8448 92.9645 30.0815 93.1028 30.2781 93.2828C30.4748 93.4628 30.6281 93.6795 30.7381 93.9328C30.8481 94.1862 30.9031 94.4678 30.9031 94.7778C30.9031 95.0445 30.8631 95.2912 30.7831 95.5178C30.7065 95.7445 30.6015 95.9612 30.4681 96.1678C30.3381 96.3745 30.1848 96.5745 30.0081 96.7678C29.8315 96.9612 29.6465 97.1578 29.4531 97.3578L27.8231 99.0228C27.9798 98.9762 28.1348 98.9412 28.2881 98.9178C28.4448 98.8912 28.5931 98.8778 28.7331 98.8778H30.5881ZM37.0339 96.4128C37.0339 97.0428 36.9656 97.5912 36.8289 98.0578C36.6956 98.5212 36.5089 98.9045 36.2689 99.2078C36.0322 99.5112 35.7506 99.7378 35.4239 99.8878C35.1006 100.034 34.7506 100.108 34.3739 100.108C33.9972 100.108 33.6472 100.034 33.3239 99.8878C33.0039 99.7378 32.7256 99.5112 32.4889 99.2078C32.2522 98.9045 32.0672 98.5212 31.9339 98.0578C31.8006 97.5912 31.7339 97.0428 31.7339 96.4128C31.7339 95.7795 31.8006 95.2312 31.9339 94.7678C32.0672 94.3045 32.2522 93.9212 32.4889 93.6178C32.7256 93.3145 33.0039 93.0895 33.3239 92.9428C33.6472 92.7928 33.9972 92.7178 34.3739 92.7178C34.7506 92.7178 35.1006 92.7928 35.4239 92.9428C35.7506 93.0895 36.0322 93.3145 36.2689 93.6178C36.5089 93.9212 36.6956 94.3045 36.8289 94.7678C36.9656 95.2312 37.0339 95.7795 37.0339 96.4128ZM35.7589 96.4128C35.7589 95.8895 35.7206 95.4562 35.6439 95.1128C35.5672 94.7695 35.4639 94.4962 35.3339 94.2928C35.2072 94.0895 35.0606 93.9478 34.8939 93.8678C34.7272 93.7845 34.5539 93.7428 34.3739 93.7428C34.1972 93.7428 34.0256 93.7845 33.8589 93.8678C33.6956 93.9478 33.5506 94.0895 33.4239 94.2928C33.2972 94.4962 33.1956 94.7695 33.1189 95.1128C33.0456 95.4562 33.0089 95.8895 33.0089 96.4128C33.0089 96.9362 33.0456 97.3695 33.1189 97.7128C33.1956 98.0562 33.2972 98.3295 33.4239 98.5328C33.5506 98.7362 33.6956 98.8795 33.8589 98.9628C34.0256 99.0428 34.1972 99.0828 34.3739 99.0828C34.5539 99.0828 34.7272 99.0428 34.8939 98.9628C35.0606 98.8795 35.2072 98.7362 35.3339 98.5328C35.4639 98.3295 35.5672 98.0562 35.6439 97.7128C35.7206 97.3695 35.7589 96.9362 35.7589 96.4128Z" fill="#FFC200"/>
<path d="M30.8581 137.101V138.026H26.8581V137.101H28.3231V132.886C28.3231 132.72 28.3281 132.548 28.3381 132.371L27.2981 133.241C27.2381 133.288 27.1781 133.318 27.1181 133.331C27.0615 133.341 27.0065 133.341 26.9531 133.331C26.9031 133.321 26.8581 133.305 26.8181 133.281C26.7781 133.255 26.7481 133.226 26.7281 133.196L26.3381 132.661L28.5431 130.786H29.5581V137.101H30.8581ZM37.0339 134.411C37.0339 135.041 36.9656 135.59 36.8289 136.056C36.6956 136.52 36.5089 136.903 36.2689 137.206C36.0322 137.51 35.7506 137.736 35.4239 137.886C35.1006 138.033 34.7506 138.106 34.3739 138.106C33.9972 138.106 33.6472 138.033 33.3239 137.886C33.0039 137.736 32.7256 137.51 32.4889 137.206C32.2522 136.903 32.0672 136.52 31.9339 136.056C31.8006 135.59 31.7339 135.041 31.7339 134.411C31.7339 133.778 31.8006 133.23 31.9339 132.766C32.0672 132.303 32.2522 131.92 32.4889 131.616C32.7256 131.313 33.0039 131.088 33.3239 130.941C33.6472 130.791 33.9972 130.716 34.3739 130.716C34.7506 130.716 35.1006 130.791 35.4239 130.941C35.7506 131.088 36.0322 131.313 36.2689 131.616C36.5089 131.92 36.6956 132.303 36.8289 132.766C36.9656 133.23 37.0339 133.778 37.0339 134.411ZM35.7589 134.411C35.7589 133.888 35.7206 133.455 35.6439 133.111C35.5672 132.768 35.4639 132.495 35.3339 132.291C35.2072 132.088 35.0606 131.946 34.8939 131.866C34.7272 131.783 34.5539 131.741 34.3739 131.741C34.1972 131.741 34.0256 131.783 33.8589 131.866C33.6956 131.946 33.5506 132.088 33.4239 132.291C33.2972 132.495 33.1956 132.768 33.1189 133.111C33.0456 133.455 33.0089 133.888 33.0089 134.411C33.0089 134.935 33.0456 135.368 33.1189 135.711C33.1956 136.055 33.2972 136.328 33.4239 136.531C33.5506 136.735 33.6956 136.878 33.8589 136.961C34.0256 137.041 34.1972 137.081 34.3739 137.081C34.5539 137.081 34.7272 137.041 34.8939 136.961C35.0606 136.878 35.2072 136.735 35.3339 136.531C35.4639 136.328 35.5672 136.055 35.6439 135.711C35.7206 135.368 35.7589 134.935 35.7589 134.411Z" fill="#FFC200"/>
<path d="M35.2512 163.469C35.2512 164.099 35.1829 164.648 35.0462 165.114C34.9129 165.578 34.7262 165.961 34.4862 166.264C34.2495 166.568 33.9679 166.794 33.6412 166.944C33.3179 167.091 32.9679 167.164 32.5912 167.164C32.2145 167.164 31.8645 167.091 31.5412 166.944C31.2212 166.794 30.9429 166.568 30.7062 166.264C30.4695 165.961 30.2845 165.578 30.1512 165.114C30.0179 164.648 29.9512 164.099 29.9512 163.469C29.9512 162.836 30.0179 162.288 30.1512 161.824C30.2845 161.361 30.4695 160.978 30.7062 160.674C30.9429 160.371 31.2212 160.146 31.5412 159.999C31.8645 159.849 32.2145 159.774 32.5912 159.774C32.9679 159.774 33.3179 159.849 33.6412 159.999C33.9679 160.146 34.2495 160.371 34.4862 160.674C34.7262 160.978 34.9129 161.361 35.0462 161.824C35.1829 162.288 35.2512 162.836 35.2512 163.469ZM33.9762 163.469C33.9762 162.946 33.9379 162.513 33.8612 162.169C33.7845 161.826 33.6812 161.553 33.5512 161.349C33.4245 161.146 33.2779 161.004 33.1112 160.924C32.9445 160.841 32.7712 160.799 32.5912 160.799C32.4145 160.799 32.2429 160.841 32.0762 160.924C31.9129 161.004 31.7679 161.146 31.6412 161.349C31.5145 161.553 31.4129 161.826 31.3362 162.169C31.2629 162.513 31.2262 162.946 31.2262 163.469C31.2262 163.993 31.2629 164.426 31.3362 164.769C31.4129 165.113 31.5145 165.386 31.6412 165.589C31.7679 165.793 31.9129 165.936 32.0762 166.019C32.2429 166.099 32.4145 166.139 32.5912 166.139C32.7712 166.139 32.9445 166.099 33.1112 166.019C33.2779 165.936 33.4245 165.793 33.5512 165.589C33.6812 165.386 33.7845 165.113 33.8612 164.769C33.9379 164.426 33.9762 163.993 33.9762 163.469Z" fill="#FFC200"/>
<path d="M26.2231 54.5792C26.2731 54.2325 26.3698 53.9292 26.5131 53.6692C26.6565 53.4059 26.8348 53.1875 27.0481 53.0142C27.2648 52.8375 27.5115 52.7059 27.7881 52.6192C28.0681 52.5292 28.3681 52.4842 28.6881 52.4842C29.0215 52.4842 29.3215 52.5325 29.5881 52.6292C29.8581 52.7225 30.0881 52.8542 30.2781 53.0242C30.4681 53.1909 30.6131 53.3875 30.7131 53.6142C30.8165 53.8409 30.8681 54.0859 30.8681 54.3492C30.8681 54.5792 30.8415 54.7825 30.7881 54.9592C30.7381 55.1325 30.6648 55.2842 30.5681 55.4142C30.4715 55.5442 30.3515 55.6542 30.2081 55.7442C30.0648 55.8342 29.9031 55.9092 29.7231 55.9692C30.1565 56.1059 30.4798 56.3142 30.6931 56.5942C30.9065 56.8742 31.0131 57.2259 31.0131 57.6492C31.0131 58.0092 30.9465 58.3275 30.8131 58.6042C30.6798 58.8809 30.4998 59.1142 30.2731 59.3042C30.0465 59.4909 29.7831 59.6325 29.4831 59.7292C29.1865 59.8259 28.8715 59.8742 28.5381 59.8742C28.1748 59.8742 27.8581 59.8325 27.5881 59.7492C27.3181 59.6659 27.0831 59.5425 26.8831 59.3792C26.6831 59.2159 26.5131 59.0159 26.3731 58.7792C26.2331 58.5425 26.1131 58.2692 26.0131 57.9592L26.5581 57.7342C26.7015 57.6742 26.8348 57.6592 26.9581 57.6892C27.0848 57.7159 27.1765 57.7825 27.2331 57.8892C27.2931 58.0059 27.3581 58.1209 27.4281 58.2342C27.5015 58.3475 27.5881 58.4492 27.6881 58.5392C27.7881 58.6259 27.9048 58.6975 28.0381 58.7542C28.1748 58.8075 28.3365 58.8342 28.5231 58.8342C28.7331 58.8342 28.9165 58.8009 29.0731 58.7342C29.2298 58.6642 29.3598 58.5742 29.4631 58.4642C29.5698 58.3542 29.6481 58.2325 29.6981 58.0992C29.7515 57.9625 29.7781 57.8259 29.7781 57.6892C29.7781 57.5159 29.7598 57.3592 29.7231 57.2192C29.6865 57.0759 29.6098 56.9542 29.4931 56.8542C29.3765 56.7542 29.2081 56.6759 28.9881 56.6192C28.7715 56.5625 28.4798 56.5342 28.1131 56.5342V55.6542C28.4165 55.6509 28.6681 55.6225 28.8681 55.5692C29.0681 55.5159 29.2265 55.4425 29.3431 55.3492C29.4631 55.2525 29.5465 55.1375 29.5931 55.0042C29.6398 54.8709 29.6631 54.7242 29.6631 54.5642C29.6631 54.2242 29.5681 53.9659 29.3781 53.7892C29.1881 53.6125 28.9348 53.5242 28.6181 53.5242C28.4715 53.5242 28.3365 53.5459 28.2131 53.5892C28.0898 53.6292 27.9781 53.6875 27.8781 53.7642C27.7815 53.8375 27.6998 53.9242 27.6331 54.0242C27.5665 54.1242 27.5165 54.2342 27.4831 54.3542C27.4265 54.5075 27.3515 54.6092 27.2581 54.6592C27.1681 54.7092 27.0398 54.7209 26.8731 54.6942L26.2231 54.5792ZM37.0339 56.1792C37.0339 56.8092 36.9656 57.3575 36.8289 57.8242C36.6956 58.2875 36.5089 58.6709 36.2689 58.9742C36.0322 59.2775 35.7506 59.5042 35.4239 59.6542C35.1006 59.8009 34.7506 59.8742 34.3739 59.8742C33.9972 59.8742 33.6472 59.8009 33.3239 59.6542C33.0039 59.5042 32.7256 59.2775 32.4889 58.9742C32.2522 58.6709 32.0672 58.2875 31.9339 57.8242C31.8006 57.3575 31.7339 56.8092 31.7339 56.1792C31.7339 55.5459 31.8006 54.9975 31.9339 54.5342C32.0672 54.0709 32.2522 53.6875 32.4889 53.3842C32.7256 53.0809 33.0039 52.8559 33.3239 52.7092C33.6472 52.5592 33.9972 52.4842 34.3739 52.4842C34.7506 52.4842 35.1006 52.5592 35.4239 52.7092C35.7506 52.8559 36.0322 53.0809 36.2689 53.3842C36.5089 53.6875 36.6956 54.0709 36.8289 54.5342C36.9656 54.9975 37.0339 55.5459 37.0339 56.1792ZM35.7589 56.1792C35.7589 55.6559 35.7206 55.2225 35.6439 54.8792C35.5672 54.5359 35.4639 54.2625 35.3339 54.0592C35.2072 53.8559 35.0606 53.7142 34.8939 53.6342C34.7272 53.5509 34.5539 53.5092 34.3739 53.5092C34.1972 53.5092 34.0256 53.5509 33.8589 53.6342C33.6956 53.7142 33.5506 53.8559 33.4239 54.0592C33.2972 54.2625 33.1956 54.5359 33.1189 54.8792C33.0456 55.2225 33.0089 55.6559 33.0089 56.1792C33.0089 56.7025 33.0456 57.1359 33.1189 57.4792C33.1956 57.8225 33.2972 58.0959 33.4239 58.2992C33.5506 58.5025 33.6956 58.6459 33.8589 58.7292C34.0256 58.8092 34.1972 58.8492 34.3739 58.8492C34.5539 58.8492 34.7272 58.8092 34.8939 58.7292C35.0606 58.6459 35.2072 58.5025 35.3339 58.2992C35.4639 58.0959 35.5672 57.8225 35.6439 57.4792C35.7206 57.1359 35.7589 56.7025 35.7589 56.1792Z" fill="#FFC200"/>
<path d="M129.58 183.283V186.083H128.24V183.283L125.605 178.853H126.79C126.907 178.853 126.999 178.882 127.065 178.938C127.135 178.995 127.194 179.067 127.24 179.153L128.56 181.568C128.637 181.712 128.704 181.847 128.76 181.973C128.82 182.1 128.874 182.227 128.92 182.353C128.964 182.227 129.014 182.1 129.07 181.973C129.127 181.847 129.192 181.712 129.265 181.568L130.58 179.153C130.617 179.08 130.672 179.012 130.745 178.948C130.819 178.885 130.912 178.853 131.025 178.853H132.215L129.58 183.283ZM134.937 182.928C134.937 182.768 134.913 182.618 134.867 182.478C134.823 182.335 134.757 182.21 134.667 182.103C134.577 181.997 134.462 181.913 134.322 181.853C134.185 181.79 134.025 181.758 133.842 181.758C133.485 181.758 133.203 181.86 132.997 182.063C132.793 182.267 132.663 182.555 132.607 182.928H134.937ZM132.582 183.673C132.602 183.937 132.648 184.165 132.722 184.358C132.795 184.548 132.892 184.707 133.012 184.833C133.132 184.957 133.273 185.05 133.437 185.113C133.603 185.173 133.787 185.203 133.987 185.203C134.187 185.203 134.358 185.18 134.502 185.133C134.648 185.087 134.775 185.035 134.882 184.978C134.992 184.922 135.087 184.87 135.167 184.823C135.25 184.777 135.33 184.753 135.407 184.753C135.51 184.753 135.587 184.792 135.637 184.868L135.992 185.318C135.855 185.478 135.702 185.613 135.532 185.723C135.362 185.83 135.183 185.917 134.997 185.983C134.813 186.047 134.625 186.092 134.432 186.118C134.242 186.145 134.057 186.158 133.877 186.158C133.52 186.158 133.188 186.1 132.882 185.983C132.575 185.863 132.308 185.688 132.082 185.458C131.855 185.225 131.677 184.938 131.547 184.598C131.417 184.255 131.352 183.858 131.352 183.408C131.352 183.058 131.408 182.73 131.522 182.423C131.635 182.113 131.797 181.845 132.007 181.618C132.22 181.388 132.478 181.207 132.782 181.073C133.088 180.94 133.433 180.873 133.817 180.873C134.14 180.873 134.438 180.925 134.712 181.028C134.985 181.132 135.22 181.283 135.417 181.483C135.613 181.68 135.767 181.923 135.877 182.213C135.99 182.5 136.047 182.828 136.047 183.198C136.047 183.385 136.027 183.512 135.987 183.578C135.947 183.642 135.87 183.673 135.757 183.673H132.582ZM139.684 183.893C139.327 183.91 139.027 183.942 138.784 183.988C138.54 184.032 138.345 184.088 138.199 184.158C138.052 184.228 137.947 184.31 137.884 184.403C137.82 184.497 137.789 184.598 137.789 184.708C137.789 184.925 137.852 185.08 137.979 185.173C138.109 185.267 138.277 185.313 138.484 185.313C138.737 185.313 138.955 185.268 139.139 185.178C139.325 185.085 139.507 184.945 139.684 184.758V183.893ZM136.854 181.668C137.444 181.128 138.154 180.858 138.984 180.858C139.284 180.858 139.552 180.908 139.789 181.008C140.025 181.105 140.225 181.242 140.389 181.418C140.552 181.592 140.675 181.8 140.759 182.043C140.845 182.287 140.889 182.553 140.889 182.843V186.083H140.329C140.212 186.083 140.122 186.067 140.059 186.033C139.995 185.997 139.945 185.925 139.909 185.818L139.799 185.448C139.669 185.565 139.542 185.668 139.419 185.758C139.295 185.845 139.167 185.918 139.034 185.978C138.9 186.038 138.757 186.083 138.604 186.113C138.454 186.147 138.287 186.163 138.104 186.163C137.887 186.163 137.687 186.135 137.504 186.078C137.32 186.018 137.162 185.93 137.029 185.813C136.895 185.697 136.792 185.552 136.719 185.378C136.645 185.205 136.609 185.003 136.609 184.773C136.609 184.643 136.63 184.515 136.674 184.388C136.717 184.258 136.787 184.135 136.884 184.018C136.984 183.902 137.112 183.792 137.269 183.688C137.425 183.585 137.617 183.495 137.844 183.418C138.074 183.342 138.34 183.28 138.644 183.233C138.947 183.183 139.294 183.153 139.684 183.143V182.843C139.684 182.5 139.61 182.247 139.464 182.083C139.317 181.917 139.105 181.833 138.829 181.833C138.629 181.833 138.462 181.857 138.329 181.903C138.199 181.95 138.084 182.003 137.984 182.063C137.884 182.12 137.792 182.172 137.709 182.218C137.629 182.265 137.539 182.288 137.439 182.288C137.352 182.288 137.279 182.267 137.219 182.223C137.159 182.177 137.11 182.123 137.074 182.063L136.854 181.668ZM143.217 181.843C143.377 181.537 143.567 181.297 143.787 181.123C144.007 180.947 144.267 180.858 144.567 180.858C144.803 180.858 144.993 180.91 145.137 181.013L145.057 181.938C145.04 181.998 145.015 182.042 144.982 182.068C144.952 182.092 144.91 182.103 144.857 182.103C144.807 182.103 144.732 182.095 144.632 182.078C144.535 182.062 144.44 182.053 144.347 182.053C144.21 182.053 144.088 182.073 143.982 182.113C143.875 182.153 143.778 182.212 143.692 182.288C143.608 182.362 143.533 182.452 143.467 182.558C143.403 182.665 143.343 182.787 143.287 182.923V186.083H142.052V180.953H142.777C142.903 180.953 142.992 180.977 143.042 181.023C143.092 181.067 143.125 181.147 143.142 181.263L143.217 181.843Z" fill="#134E78"/>
<path d="M7.17531 147.434C7.86197 147.433 8.53668 147.348 9.19942 147.181C9.86216 147.013 10.4846 146.773 11.0669 146.462C11.1334 146.429 11.1917 146.41 11.2417 146.407C11.295 146.4 11.34 146.403 11.3767 146.417C11.4168 146.43 11.4502 146.451 11.4769 146.481C11.507 146.508 11.5322 146.538 11.5523 146.571L11.8892 147.121C11.5101 147.368 11.1292 147.579 10.7465 147.753C10.3637 147.927 9.97757 148.069 9.58796 148.18C9.19835 148.291 8.80364 148.373 8.40383 148.427C8.00401 148.478 7.59577 148.503 7.1791 148.504C6.76243 148.505 6.35401 148.481 5.95384 148.431C5.55031 148.379 5.15336 148.298 4.76297 148.189C4.37258 148.079 3.98708 147.938 3.60646 147.766C3.22252 147.593 2.84011 147.384 2.45923 147.138L2.78728 146.587C2.80717 146.554 2.83206 146.524 2.86196 146.497C2.88852 146.467 2.92178 146.445 2.96173 146.432C2.99835 146.419 3.04334 146.415 3.0967 146.422C3.14671 146.425 3.20677 146.443 3.27689 146.476C3.85799 146.785 4.48217 147.022 5.14942 147.188C5.81335 147.353 6.48864 147.435 7.17531 147.434ZM9.32948 142.966C9.28156 142.613 9.16228 142.346 8.97164 142.167C8.77766 141.984 8.52567 141.893 8.21567 141.893C8.089 141.893 7.97909 141.917 7.88592 141.964C7.78941 142.007 7.70463 142.071 7.63159 142.154C7.55854 142.234 7.49555 142.33 7.4426 142.44C7.38966 142.55 7.34009 142.67 7.29388 142.8L9.32948 142.966ZM4.04562 143.296C4.06962 143.482 4.11018 143.641 4.16731 143.771C4.2211 143.9 4.28814 144.007 4.36844 144.09C4.44873 144.173 4.53895 144.235 4.63909 144.275C4.73922 144.311 4.84429 144.329 4.95429 144.329C5.08096 144.329 5.19255 144.307 5.28906 144.264C5.38223 144.217 5.46701 144.155 5.5434 144.078C5.61645 143.998 5.68279 143.904 5.74241 143.798C5.7987 143.691 5.85162 143.574 5.90117 143.447L4.04562 143.296ZM6.13855 142.707C6.21103 142.467 6.29185 142.228 6.38101 141.992C6.46684 141.755 6.57942 141.543 6.71876 141.356C6.85808 141.166 7.03254 141.012 7.24213 140.895C7.44838 140.778 7.70817 140.719 8.02151 140.719C8.33151 140.718 8.62335 140.769 8.89705 140.872C9.16742 140.975 9.40796 141.126 9.61867 141.326C9.82604 141.525 9.99691 141.77 10.1313 142.06C10.2623 142.349 10.3401 142.681 10.3648 143.054L11.1 143.113C11.1767 143.116 11.2468 143.149 11.3104 143.213C11.3772 143.272 11.4108 143.349 11.4112 143.442L11.4128 143.897L10.3425 143.809C10.2905 144.199 10.1852 144.566 10.0264 144.91C9.86759 145.254 9.67029 145.546 9.43448 145.786L8.86813 145.407C8.81801 145.374 8.77786 145.331 8.74767 145.277C8.71413 145.221 8.69725 145.161 8.69703 145.097C8.69677 145.024 8.72316 144.946 8.7762 144.862C8.8259 144.779 8.88556 144.684 8.95519 144.577C9.02148 144.47 9.08938 144.348 9.15889 144.211C9.22841 144.075 9.2795 143.913 9.31217 143.726L7.07652 143.545C7.01069 143.782 6.93319 144.017 6.84402 144.251C6.75484 144.481 6.63724 144.689 6.49124 144.876C6.34189 145.06 6.15408 145.209 5.92781 145.322C5.70155 145.436 5.41842 145.493 5.07842 145.494C4.82509 145.494 4.57824 145.445 4.33789 145.345C4.0942 145.246 3.87701 145.099 3.68633 144.906C3.49563 144.71 3.33812 144.47 3.21378 144.187C3.08944 143.904 3.01829 143.579 3.00032 143.213L2.37013 143.159C2.29011 143.152 2.21832 143.119 2.15477 143.059C2.09123 142.999 2.05928 142.921 2.05894 142.824L2.05733 142.369L3.03761 142.448C3.09302 142.094 3.19361 141.789 3.33937 141.532C3.48179 141.275 3.64267 141.053 3.82201 140.866L4.27807 141.165C4.34489 141.209 4.39505 141.253 4.42855 141.3C4.46205 141.347 4.47892 141.403 4.47915 141.47C4.47933 141.52 4.46454 141.58 4.43479 141.65C4.40171 141.72 4.36365 141.799 4.32062 141.885C4.27426 141.972 4.22795 142.07 4.18167 142.181C4.13538 142.287 4.09747 142.406 4.06793 142.536L6.13855 142.707ZM7.14548 139.019C6.45881 139.021 5.78411 139.105 5.12137 139.273C4.45528 139.438 3.83279 139.675 3.25389 139.986C3.18402 140.023 3.12409 140.045 3.07412 140.052C3.0208 140.055 2.97578 140.05 2.93907 140.037C2.89902 140.024 2.86561 140.004 2.83885 139.977C2.80875 139.947 2.78363 139.914 2.7635 139.877L2.43155 139.328C2.81067 139.081 3.1916 138.87 3.57431 138.696C3.9537 138.522 4.3382 138.379 4.72781 138.269C5.11742 138.158 5.5138 138.077 5.91695 138.027C6.31678 137.976 6.72502 137.95 7.14169 137.949C7.55835 137.949 7.96677 137.973 8.36695 138.022C8.76713 138.071 9.16241 138.151 9.5528 138.26C9.94319 138.369 10.3304 138.51 10.7143 138.683C11.0982 138.856 11.4807 139.065 11.8615 139.311L11.5285 139.861C11.5086 139.898 11.4837 139.931 11.4538 139.962C11.4273 139.988 11.394 140.008 11.3541 140.022C11.3174 140.035 11.2725 140.04 11.2191 140.037C11.1691 140.03 11.1107 140.009 11.0439 139.972C10.4594 139.663 9.83527 139.428 9.17136 139.266C8.50744 139.1 7.83214 139.018 7.14548 139.019ZM3.01327 128.527L10.2536 131.434L10.2579 132.649L3.03827 135.582L3.03445 134.502C3.03403 134.385 3.06203 134.29 3.11844 134.217C3.17484 134.144 3.24798 134.088 3.33785 134.052L7.7418 132.339C7.88493 132.282 8.04308 132.228 8.21623 132.178C8.38604 132.124 8.5642 132.074 8.7507 132.027C8.56389 131.987 8.3854 131.944 8.21524 131.898C8.04174 131.851 7.88322 131.8 7.73969 131.744L3.32369 130.057C3.24693 130.03 3.17675 129.979 3.11314 129.902C3.04952 129.822 3.01751 129.726 3.01711 129.612L3.01327 128.527ZM8.04439 126.016C8.06232 126.373 8.09505 126.673 8.14258 126.916C8.18678 127.159 8.24413 127.354 8.31465 127.501C8.38517 127.647 8.46721 127.752 8.56077 127.815C8.65433 127.879 8.75611 127.91 8.86611 127.91C9.08277 127.91 9.23755 127.846 9.33043 127.719C9.42331 127.589 9.46938 127.42 9.46864 127.214C9.46774 126.96 9.42197 126.742 9.33132 126.559C9.23733 126.373 9.09668 126.191 8.90939 126.015L8.04439 126.016ZM5.82943 128.85C5.28734 128.261 5.01482 127.552 5.01188 126.722C5.01081 126.422 5.05986 126.153 5.15902 125.917C5.25485 125.68 5.39081 125.48 5.5669 125.316C5.73965 125.152 5.94755 125.029 6.19058 124.945C6.43361 124.858 6.70012 124.814 6.99012 124.813L10.2301 124.807L10.2321 125.367C10.2325 125.484 10.2162 125.574 10.1831 125.638C10.1466 125.701 10.0751 125.751 9.96859 125.788L9.59898 125.899C9.71611 126.028 9.81989 126.155 9.91033 126.278C9.99743 126.401 10.0712 126.529 10.1317 126.663C10.1922 126.796 10.2377 126.939 10.2682 127.092C10.3021 127.242 10.3193 127.409 10.32 127.592C10.3208 127.809 10.2931 128.009 10.2371 128.192C10.1778 128.376 10.09 128.534 9.9738 128.668C9.85761 128.801 9.71297 128.905 9.5399 128.979C9.36683 129.052 9.16529 129.089 8.93529 129.09C8.80529 129.09 8.67688 129.069 8.55006 129.025C8.41991 128.982 8.29633 128.913 8.17932 128.816C8.0623 128.716 7.95184 128.588 7.84795 128.432C7.74406 128.275 7.65338 128.084 7.57591 127.857C7.49843 127.627 7.43582 127.361 7.38808 127.058C7.337 126.754 7.30577 126.408 7.29439 126.018L6.99439 126.018C6.65106 126.019 6.39799 126.093 6.23517 126.24C6.06903 126.387 5.98644 126.598 5.98743 126.875C5.98813 127.075 6.01206 127.242 6.0592 127.375C6.10632 127.505 6.16007 127.62 6.22042 127.72C6.27744 127.82 6.32943 127.911 6.37639 127.994C6.42334 128.074 6.447 128.164 6.44735 128.264C6.44766 128.351 6.42625 128.424 6.38313 128.484C6.33668 128.545 6.28352 128.593 6.22365 128.63L5.82943 128.85ZM2.79157 122.408L10.2216 122.394L10.2259 123.629L2.79595 123.643L2.79157 122.408ZM5.07154 116.753L10.2015 116.744L10.2042 117.499C10.2048 117.662 10.1302 117.766 9.98031 117.809L9.57061 117.895C9.78469 118.105 9.95884 118.336 10.0931 118.589C10.224 118.842 10.29 119.14 10.2912 119.484C10.2922 119.764 10.2465 120.012 10.1539 120.229C10.058 120.442 9.92361 120.623 9.7508 120.77C9.57799 120.917 9.37338 121.029 9.13699 121.106C8.89725 121.18 8.63405 121.217 8.34738 121.217L5.08739 121.223L5.08301 119.988L8.343 119.982C8.65634 119.982 8.89942 119.91 9.07224 119.766C9.24172 119.619 9.32595 119.4 9.32492 119.11C9.32416 118.897 9.27679 118.697 9.18279 118.511C9.08546 118.324 8.95317 118.148 8.78591 117.981L5.07592 117.988L5.07154 116.753ZM7.03048 112.22C6.87048 112.22 6.72057 112.244 6.58073 112.291C6.43755 112.335 6.31279 112.401 6.20644 112.492C6.10009 112.582 6.01717 112.697 5.95766 112.837C5.89482 112.974 5.86372 113.134 5.86437 113.317C5.86563 113.674 5.9683 113.955 6.17236 114.162C6.37641 114.365 6.66521 114.494 7.03874 114.55L7.03048 112.22ZM7.78383 114.574C8.04709 114.553 8.27526 114.506 8.46833 114.433C8.65807 114.359 8.81606 114.262 8.9423 114.142C9.06521 114.021 9.15804 113.88 9.2208 113.716C9.28021 113.549 9.30956 113.366 9.30885 113.166C9.30814 112.966 9.2842 112.794 9.23702 112.651C9.18983 112.505 9.13772 112.378 9.08067 112.271C9.02362 112.161 8.97161 112.067 8.92466 111.987C8.8777 111.903 8.85409 111.823 8.85381 111.747C8.85345 111.643 8.89151 111.567 8.968 111.517L9.41674 111.161C9.57722 111.297 9.71277 111.45 9.82337 111.62C9.93064 111.79 10.0179 111.968 10.0853 112.155C10.1492 112.338 10.1949 112.526 10.2223 112.719C10.2496 112.909 10.2636 113.094 10.2642 113.274C10.2655 113.631 10.2083 113.963 10.0928 114.27C9.97385 114.576 9.79979 114.843 9.5706 115.07C9.33807 115.298 9.05204 115.476 8.7125 115.607C8.36962 115.738 7.97319 115.803 7.52319 115.804C7.17319 115.805 6.84466 115.749 6.53759 115.636C6.22719 115.523 5.95828 115.362 5.73087 115.152C5.50011 114.94 5.31753 114.682 5.18312 114.378C5.0487 114.072 4.98081 113.727 4.97946 113.344C4.97831 113.021 5.02892 112.722 5.13128 112.449C5.23365 112.175 5.38448 111.94 5.58378 111.743C5.77975 111.546 6.02254 111.392 6.31215 111.281C6.59842 111.168 6.92655 111.11 7.29655 111.11C7.48321 111.109 7.60995 111.129 7.67676 111.169C7.74023 111.209 7.77217 111.285 7.77257 111.399L7.78383 114.574ZM5.03511 106.475L10.1651 106.466L10.1695 107.706L5.0395 107.715L5.03511 106.475ZM3.53951 106.308C3.64618 106.308 3.74625 106.329 3.83974 106.372C3.93323 106.416 4.0151 106.474 4.08536 106.547C4.15561 106.617 4.21257 106.7 4.25625 106.797C4.29659 106.893 4.31695 106.997 4.31734 107.107C4.31772 107.213 4.29808 107.315 4.25843 107.412C4.21542 107.505 4.15905 107.587 4.08929 107.657C4.01954 107.727 3.93808 107.784 3.8449 107.827C3.75171 107.868 3.65178 107.888 3.54511 107.888C3.43511 107.888 3.33171 107.868 3.2349 107.829C3.13808 107.785 3.05454 107.729 2.9843 107.659C2.91405 107.589 2.85876 107.508 2.81843 107.414C2.77475 107.318 2.75272 107.216 2.75235 107.109C2.75196 106.999 2.77326 106.896 2.81625 106.799C2.8559 106.703 2.91061 106.619 2.98036 106.549C3.0501 106.476 3.13323 106.417 3.22974 106.374C3.32625 106.33 3.42951 106.308 3.53951 106.308ZM5.65655 104.06C5.55285 103.957 5.45747 103.849 5.3704 103.736C5.27999 103.619 5.20456 103.498 5.14411 103.371C5.08031 103.241 5.03149 103.103 4.99764 102.956C4.96045 102.81 4.94155 102.65 4.94093 102.476C4.93994 102.196 4.98739 101.948 5.08329 101.731C5.17586 101.514 5.30855 101.334 5.48138 101.19C5.65086 101.043 5.85547 100.933 6.09521 100.859C6.3316 100.782 6.59313 100.743 6.8798 100.743L10.1448 100.737L10.1492 101.972L6.88418 101.978C6.57084 101.978 6.32943 102.051 6.15994 102.194C5.98711 102.338 5.90122 102.556 5.90226 102.85C5.90302 103.063 5.95206 103.263 6.04939 103.449C6.14672 103.636 6.27901 103.812 6.44627 103.979L10.1563 103.972L10.1606 105.207L5.03065 105.216L5.02797 104.461C5.0274 104.301 5.10203 104.196 5.25185 104.146L5.65655 104.06ZM9.07173 94.2327C9.07085 93.9827 9.0401 93.7728 8.9795 93.6029C8.9189 93.433 8.83842 93.2982 8.73806 93.1983C8.6377 93.0952 8.52077 93.0221 8.38729 92.979C8.25379 92.9326 8.11204 92.9095 7.96204 92.9097C7.80537 92.91 7.66546 92.9353 7.5423 92.9855C7.41581 93.0357 7.30943 93.1143 7.22314 93.2211C7.13352 93.3279 7.06567 93.4664 7.01961 93.6365C6.97353 93.8032 6.95092 94.0049 6.95175 94.2416L6.95656 95.5966L9.07655 95.5927L9.07173 94.2327ZM3.93656 95.6021L6.02656 95.5983L6.02277 94.5283C6.02113 94.0683 5.93657 93.7218 5.76908 93.4887C5.60157 93.2524 5.33616 93.1345 4.97282 93.1352C4.59616 93.1359 4.3282 93.243 4.16896 93.4567C4.00971 93.6703 3.9309 94.0038 3.9325 94.4571L3.93656 95.6021ZM2.8925 94.459C2.89083 93.9856 2.93439 93.5806 3.0232 93.2437C3.112 92.9069 3.23936 92.6317 3.40527 92.418C3.57117 92.2011 3.77228 92.0424 4.00859 91.9419C4.2449 91.8415 4.51139 91.791 4.80805 91.7905C4.97805 91.7902 5.14148 91.8149 5.29832 91.8646C5.45183 91.9143 5.59711 91.9924 5.73415 92.0988C5.86785 92.2019 5.98999 92.335 6.10057 92.4981C6.21114 92.6579 6.30515 92.8494 6.38261 93.0726C6.60242 92.0789 7.13732 91.5812 7.98732 91.5797C8.29399 91.5791 8.57753 91.637 8.83794 91.7532C9.09836 91.8693 9.32396 92.0389 9.51475 92.2619C9.70221 92.4849 9.84985 92.7596 9.95767 93.0861C10.0655 93.4126 10.1202 93.7858 10.1216 94.2058L10.1313 96.9358L2.90133 96.949L2.8925 94.459ZM4.97446 89.366L10.1045 89.3567L10.1088 90.5967L4.97886 90.606L4.97446 89.366ZM3.47886 89.1988C3.58553 89.1986 3.6856 89.2201 3.77909 89.2632C3.87258 89.3064 3.95445 89.3646 4.02471 89.4378C4.09496 89.5076 4.15192 89.5909 4.1956 89.6875C4.23594 89.7841 4.25631 89.8874 4.2567 89.9974C4.25707 90.104 4.23743 90.2057 4.19778 90.3025C4.15478 90.3959 4.0984 90.4776 4.02865 90.5478C3.95889 90.6179 3.87743 90.6747 3.78425 90.7182C3.69106 90.7584 3.59113 90.7786 3.48446 90.7788C3.37446 90.779 3.27106 90.7591 3.17425 90.7193C3.07743 90.6762 2.9939 90.6196 2.92365 90.5498C2.8534 90.4799 2.79811 90.3983 2.75778 90.3051C2.7141 90.2085 2.69208 90.1069 2.6917 90.0002C2.69131 89.8902 2.71261 89.7868 2.7556 89.6901C2.79526 89.5933 2.84996 89.5099 2.91971 89.4398C2.98945 89.3663 3.07258 89.3078 3.16909 89.2643C3.26561 89.2208 3.36886 89.199 3.47886 89.1988ZM2.66557 86.8612L10.0956 86.8477L10.0999 88.0827L2.66995 88.0962L2.66557 86.8612ZM2.65678 84.3807L10.0868 84.3672L10.0911 85.6022L2.66116 85.6157L2.65678 84.3807ZM4.94788 81.8661L10.0779 81.8568L10.0823 83.0967L4.95227 83.1061L4.94788 81.8661ZM3.45228 81.6988C3.55894 81.6986 3.65902 81.7201 3.75251 81.7633C3.84599 81.8064 3.92787 81.8646 3.99813 81.9378C4.06837 82.0077 4.12534 82.0909 4.16901 82.1875C4.20935 82.2841 4.22972 82.3874 4.23011 82.4974C4.23049 82.6041 4.21085 82.7058 4.17119 82.8025C4.12819 82.8959 4.07181 82.9777 4.00206 83.0478C3.93231 83.1179 3.85084 83.1748 3.75766 83.2183C3.66447 83.2584 3.56454 83.2786 3.45788 83.2788C3.34788 83.279 3.24447 83.2592 3.14766 83.2194C3.05085 83.1762 2.96731 83.1197 2.89706 83.0498C2.82681 82.98 2.77153 82.8984 2.73119 82.8051C2.68752 82.7085 2.66549 82.6069 2.66511 82.5002C2.66472 82.3902 2.68602 82.2869 2.72901 82.1901C2.76867 82.0934 2.82338 82.01 2.89313 81.9398C2.96287 81.8664 3.04599 81.8079 3.14251 81.7644C3.23902 81.7209 3.34228 81.699 3.45228 81.6988ZM4.85537 78.3372C4.85402 77.9572 4.91446 77.6121 5.0367 77.3019C5.15892 76.9883 5.33298 76.7213 5.55886 76.5009C5.78474 76.2772 6.06079 76.105 6.38703 75.9844C6.71328 75.8638 7.07806 75.8032 7.4814 75.8024C7.88806 75.8017 8.25494 75.861 8.58203 75.9804C8.90912 76.0998 9.18806 76.271 9.41886 76.4939C9.64964 76.7135 9.82725 76.9798 9.95169 77.2929C10.0761 77.6027 10.139 77.9476 10.1404 78.3276C10.1417 78.7109 10.0813 79.0594 9.95906 79.3729C9.83684 79.6865 9.66113 79.9551 9.43192 80.1789C9.2027 80.3993 8.92497 80.5715 8.59874 80.6954C8.2725 80.816 7.90605 80.8766 7.49938 80.8774C7.09605 80.8781 6.73084 80.8188 6.40375 80.6994C6.07664 80.5766 5.79937 80.4055 5.57192 80.1859C5.34447 79.963 5.16852 79.695 5.04407 79.3819C4.91963 79.0687 4.85673 78.7205 4.85537 78.3372ZM9.19036 78.3293C9.18885 77.9026 9.0444 77.5879 8.75701 77.3851C8.46961 77.179 8.04925 77.0764 7.49591 77.0774C6.94258 77.0784 6.52128 77.1825 6.23202 77.3897C5.94274 77.5936 5.79885 77.9088 5.80037 78.3355C5.8019 78.7688 5.94971 79.0902 6.24379 79.2997C6.53452 79.5058 6.95488 79.6084 7.50488 79.6074C8.05488 79.6064 8.47451 79.5023 8.76378 79.2951C9.0497 79.0846 9.1919 78.7626 9.19036 78.3293ZM5.54896 73.7087C5.44526 73.6056 5.34988 73.4974 5.26281 73.3843C5.1724 73.2678 5.09697 73.1462 5.03652 73.0197C4.97273 72.8898 4.9239 72.7516 4.89005 72.6049C4.85286 72.4583 4.83396 72.2984 4.83335 72.125C4.83235 71.8451 4.87981 71.5966 4.97571 71.3798C5.06827 71.163 5.20097 70.9827 5.37379 70.8391C5.54327 70.6921 5.74788 70.5817 5.98762 70.5079C6.22402 70.4309 6.48555 70.392 6.77221 70.3915L10.0372 70.3856L10.0416 71.6206L6.77659 71.6265C6.46326 71.6271 6.22184 71.6992 6.05235 71.8428C5.87953 71.9865 5.79364 72.205 5.79467 72.4983C5.79543 72.7116 5.84447 72.9115 5.9418 73.098C6.03913 73.2845 6.17142 73.4609 6.33868 73.6273L10.0487 73.6206L10.0531 74.8555L4.92306 74.8649L4.92038 74.1099C4.91982 73.9499 4.99444 73.8448 5.14427 73.7945L5.54896 73.7087ZM5.89195 66.0886C5.94541 66.1218 5.98386 66.1568 6.00733 66.1934C6.02746 66.23 6.03762 66.2767 6.03782 66.3333C6.03804 66.3933 6.0216 66.4584 5.98851 66.5284C5.95542 66.5951 5.91903 66.6735 5.87935 66.7636C5.83633 66.8537 5.79837 66.9571 5.76545 67.0738C5.73252 67.1872 5.71633 67.3222 5.71688 67.4789C5.71774 67.7222 5.77009 67.9138 5.87392 68.0536C5.97774 68.1901 6.11298 68.2582 6.27965 68.2579C6.38965 68.2577 6.48286 68.2225 6.55927 68.1524C6.63235 68.0789 6.69701 67.9838 6.75326 67.867C6.8095 67.7469 6.86069 67.6118 6.90683 67.4617C6.94963 67.3117 6.99742 67.1599 7.05021 67.0065C7.10299 66.8497 7.16411 66.6963 7.23358 66.5461C7.29972 66.396 7.38591 66.2625 7.49216 66.1457C7.59507 66.0255 7.71974 65.9303 7.86615 65.86C8.01256 65.7864 8.1891 65.7494 8.39576 65.749C8.64243 65.7486 8.87092 65.7932 9.08124 65.8828C9.28821 65.9691 9.46867 66.0987 9.62262 66.2718C9.77324 66.4449 9.89233 66.6596 9.97991 66.9162C10.0641 67.1693 10.1068 67.4626 10.108 67.7959C10.1087 67.9726 10.0926 68.1459 10.0599 68.316C10.0305 68.4827 9.9877 68.6445 9.93159 68.8012C9.87547 68.9547 9.80931 69.0981 9.73311 69.2316C9.65691 69.3617 9.57398 69.4769 9.48434 69.5771L9.01333 69.2929C8.95653 69.2563 8.91304 69.2131 8.88287 69.1631C8.85269 69.1132 8.83747 69.0499 8.83719 68.9732C8.83692 68.8966 8.85834 68.8249 8.90143 68.7581C8.94452 68.688 8.9909 68.608 9.04058 68.5179C9.09026 68.4278 9.13656 68.3227 9.17946 68.2026C9.22236 68.0792 9.24348 67.9242 9.24282 67.7375C9.2423 67.5908 9.22519 67.4659 9.19149 67.3626C9.15444 67.256 9.10747 67.1694 9.05057 67.1028C8.99365 67.0329 8.92847 66.9831 8.85503 66.9532C8.77825 66.92 8.69986 66.9035 8.61986 66.9036C8.49986 66.9038 8.40165 66.9407 8.32525 67.0142C8.24883 67.0843 8.1825 67.1794 8.12626 67.2995C8.07001 67.4163 8.02048 67.5514 7.97769 67.7048C7.93156 67.8549 7.88211 68.01 7.82934 68.1701C7.77656 68.3268 7.71545 68.4819 7.64599 68.6354C7.57319 68.7855 7.482 68.9207 7.37243 69.0409C7.26284 69.1578 7.12818 69.253 6.96844 69.3266C6.80869 69.3969 6.61548 69.4323 6.38881 69.4327C6.17881 69.4331 5.97866 69.3918 5.78837 69.3088C5.59807 69.2258 5.43264 69.1044 5.29208 68.9447C5.14816 68.7816 5.03412 68.5802 4.94993 68.3403C4.8624 68.0971 4.81808 67.8172 4.81695 67.5005C4.8157 67.1472 4.8729 66.8254 4.98853 66.5352C5.10417 66.245 5.25665 66.0031 5.44596 65.8094L5.89195 66.0886Z" fill="#134E78"/>
<line x1="44.3364" y1="97.2339" x2="39.866" y2="97.2339" stroke="#134E78"/>
<path d="M43.7776 166.025H39.866" stroke="#134E78"/>
<line x1="43.2188" y1="135.232" x2="38.7483" y2="135.232" stroke="#134E78"/>
<line x1="43.2188" y1="56.9998" x2="38.7483" y2="56.9998" stroke="#134E78"/>
<path d="M169.515 81.1435L140.457 81.0869L140.457 91.7042" stroke="#FFC200"/>
<rect x="91.2758" y="91.1455" width="10.0584" height="74.8795" fill="url(#paint0_linear_8672_1323)"/>
<rect x="167.273" y="77.7344" width="10.0584" height="88.2907" fill="url(#paint1_linear_8672_1323)"/>
<path d="M189.42 45.0865L180.514 59.9419L197.832 60.2271L189.42 45.0865ZM44.124 165.173C68.7137 164.337 89.9383 163.055 107.982 160.162C126.024 157.27 140.985 152.754 152.999 145.39C177.187 130.563 188.967 104.501 190.697 58.6475L187.699 58.5344C185.985 103.966 174.365 128.774 151.431 142.832C139.885 149.91 125.356 154.339 107.507 157.2C89.6603 160.061 68.594 161.339 44.0221 162.174L44.124 165.173Z" fill="url(#paint2_linear_8672_1323)"/>
<path d="M95.7462 91.1457C95.7462 71.7739 95.7462 64.4473 95.7462 63.2056H100.217" stroke="#FFC200"/>
<path d="M109.645 68.8875C109.998 68.8409 110.265 68.7225 110.445 68.5325C110.628 68.3392 110.72 68.0875 110.72 67.7775C110.72 67.6509 110.696 67.5409 110.65 67.4475C110.606 67.3509 110.543 67.2659 110.46 67.1925C110.38 67.1192 110.285 67.0559 110.175 67.0025C110.065 66.9492 109.945 66.8992 109.815 66.8525L109.645 68.8875ZM109.325 63.6025C109.138 63.6259 108.98 63.6659 108.85 63.7225C108.72 63.7759 108.613 63.8425 108.53 63.9225C108.446 64.0025 108.385 64.0925 108.345 64.1925C108.308 64.2925 108.29 64.3975 108.29 64.5075C108.29 64.6342 108.311 64.7459 108.355 64.8425C108.401 64.9359 108.463 65.0209 108.54 65.0975C108.62 65.1709 108.713 65.2375 108.82 65.2975C108.926 65.3542 109.043 65.4075 109.17 65.4575L109.325 63.6025ZM109.91 65.6975C110.15 65.7709 110.388 65.8525 110.625 65.9425C110.861 66.0292 111.073 66.1425 111.26 66.2825C111.45 66.4225 111.603 66.5975 111.72 66.8075C111.836 67.0142 111.895 67.2742 111.895 67.5875C111.895 67.8975 111.843 68.1892 111.74 68.4625C111.636 68.7325 111.485 68.9725 111.285 69.1825C111.085 69.3892 110.84 69.5592 110.55 69.6925C110.26 69.8225 109.928 69.8992 109.555 69.9225L109.495 70.6575C109.491 70.7342 109.458 70.8042 109.395 70.8675C109.335 70.9342 109.258 70.9675 109.165 70.9675H108.71L108.8 69.8975C108.41 69.8442 108.043 69.7375 107.7 69.5775C107.356 69.4175 107.065 69.2192 106.825 68.9825L107.205 68.4175C107.238 68.3675 107.281 68.3275 107.335 68.2975C107.391 68.2642 107.451 68.2475 107.515 68.2475C107.588 68.2475 107.666 68.2742 107.75 68.3275C107.833 68.3775 107.928 68.4375 108.035 68.5075C108.141 68.5742 108.263 68.6425 108.4 68.7125C108.536 68.7825 108.698 68.8342 108.885 68.8675L109.07 66.6325C108.833 66.5659 108.598 66.4875 108.365 66.3975C108.135 66.3075 107.926 66.1892 107.74 66.0425C107.556 65.8925 107.408 65.7042 107.295 65.4775C107.181 65.2509 107.125 64.9675 107.125 64.6275C107.125 64.3742 107.175 64.1275 107.275 63.8875C107.375 63.6442 107.521 63.4275 107.715 63.2375C107.911 63.0475 108.151 62.8909 108.435 62.7675C108.718 62.6442 109.043 62.5742 109.41 62.5575L109.465 61.9275C109.471 61.8475 109.505 61.7759 109.565 61.7125C109.625 61.6492 109.703 61.6175 109.8 61.6175H110.255L110.175 62.5975C110.528 62.6542 110.833 62.7559 111.09 62.9025C111.346 63.0459 111.568 63.2075 111.755 63.3875L111.455 63.8425C111.411 63.9092 111.366 63.9592 111.32 63.9925C111.273 64.0259 111.216 64.0425 111.15 64.0425C111.1 64.0425 111.04 64.0275 110.97 63.9975C110.9 63.9642 110.821 63.9259 110.735 63.8825C110.648 63.8359 110.55 63.7892 110.44 63.7425C110.333 63.6959 110.215 63.6575 110.085 63.6275L109.91 65.6975ZM117.195 68.7025C117.329 68.7025 117.434 68.7409 117.51 68.8175C117.59 68.8909 117.63 68.9892 117.63 69.1125V69.8525H112.67V69.4425C112.67 69.3592 112.687 69.2725 112.72 69.1825C112.757 69.0892 112.814 69.0059 112.89 68.9325L115.085 66.7325C115.269 66.5459 115.432 66.3675 115.575 66.1975C115.722 66.0275 115.844 65.8592 115.94 65.6925C116.037 65.5259 116.11 65.3575 116.16 65.1875C116.214 65.0142 116.24 64.8325 116.24 64.6425C116.24 64.4692 116.215 64.3175 116.165 64.1875C116.115 64.0542 116.044 63.9425 115.95 63.8525C115.86 63.7625 115.75 63.6959 115.62 63.6525C115.494 63.6059 115.35 63.5825 115.19 63.5825C115.044 63.5825 114.907 63.6042 114.78 63.6475C114.657 63.6875 114.547 63.7459 114.45 63.8225C114.354 63.8959 114.272 63.9825 114.205 64.0825C114.139 64.1825 114.089 64.2925 114.055 64.4125C113.999 64.5659 113.925 64.6675 113.835 64.7175C113.745 64.7675 113.615 64.7792 113.445 64.7525L112.795 64.6375C112.845 64.2909 112.942 63.9875 113.085 63.7275C113.229 63.4642 113.407 63.2459 113.62 63.0725C113.837 62.8959 114.084 62.7642 114.36 62.6775C114.64 62.5875 114.94 62.5425 115.26 62.5425C115.594 62.5425 115.899 62.5925 116.175 62.6925C116.452 62.7892 116.689 62.9275 116.885 63.1075C117.082 63.2875 117.235 63.5042 117.345 63.7575C117.455 64.0109 117.51 64.2925 117.51 64.6025C117.51 64.8692 117.47 65.1159 117.39 65.3425C117.314 65.5692 117.209 65.7859 117.075 65.9925C116.945 66.1992 116.792 66.3992 116.615 66.5925C116.439 66.7859 116.254 66.9825 116.06 67.1825L114.43 68.8475C114.587 68.8009 114.742 68.7659 114.895 68.7425C115.052 68.7159 115.2 68.7025 115.34 68.7025H117.195ZM123.266 68.9275V69.8525H119.266V68.9275H120.731V64.7125C120.731 64.5459 120.736 64.3742 120.746 64.1975L119.706 65.0675C119.646 65.1142 119.586 65.1442 119.526 65.1575C119.469 65.1675 119.414 65.1675 119.361 65.1575C119.311 65.1475 119.266 65.1309 119.226 65.1075C119.186 65.0809 119.156 65.0525 119.136 65.0225L118.746 64.4875L120.951 62.6125H121.966V68.9275H123.266ZM124.322 69.1725C124.322 69.0692 124.34 68.9709 124.377 68.8775C124.417 68.7842 124.47 68.7042 124.537 68.6375C124.604 68.5709 124.684 68.5175 124.777 68.4775C124.87 68.4375 124.97 68.4175 125.077 68.4175C125.184 68.4175 125.282 68.4375 125.372 68.4775C125.465 68.5175 125.545 68.5709 125.612 68.6375C125.682 68.7042 125.737 68.7842 125.777 68.8775C125.817 68.9709 125.837 69.0692 125.837 69.1725C125.837 69.2792 125.817 69.3792 125.777 69.4725C125.737 69.5625 125.682 69.6409 125.612 69.7075C125.545 69.7742 125.465 69.8259 125.372 69.8625C125.282 69.9025 125.184 69.9225 125.077 69.9225C124.97 69.9225 124.87 69.9025 124.777 69.8625C124.684 69.8259 124.604 69.7742 124.537 69.7075C124.47 69.6409 124.417 69.5625 124.377 69.4725C124.34 69.3792 124.322 69.2792 124.322 69.1725ZM131.44 68.9275V69.8525H127.44V68.9275H128.905V64.7125C128.905 64.5459 128.91 64.3742 128.92 64.1975L127.88 65.0675C127.82 65.1142 127.76 65.1442 127.7 65.1575C127.643 65.1675 127.588 65.1675 127.535 65.1575C127.485 65.1475 127.44 65.1309 127.4 65.1075C127.36 65.0809 127.33 65.0525 127.31 65.0225L126.92 64.4875L129.125 62.6125H130.14V68.9275H131.44ZM135.576 68.8025C135.826 68.8025 136.036 68.7725 136.206 68.7125C136.376 68.6525 136.511 68.5725 136.611 68.4725C136.714 68.3725 136.787 68.2559 136.831 68.1225C136.877 67.9892 136.901 67.8475 136.901 67.6975C136.901 67.5409 136.876 67.4009 136.826 67.2775C136.776 67.1509 136.697 67.0442 136.591 66.9575C136.484 66.8675 136.346 66.7992 136.176 66.7525C136.009 66.7059 135.807 66.6825 135.571 66.6825H134.216V68.8025H135.576ZM134.216 63.6625V65.7525H135.286C135.746 65.7525 136.092 65.6692 136.326 65.5025C136.562 65.3359 136.681 65.0709 136.681 64.7075C136.681 64.3309 136.574 64.0625 136.361 63.9025C136.147 63.7425 135.814 63.6625 135.361 63.6625H134.216ZM135.361 62.6225C135.834 62.6225 136.239 62.6675 136.576 62.7575C136.912 62.8475 137.187 62.9759 137.401 63.1425C137.617 63.3092 137.776 63.5109 137.876 63.7475C137.976 63.9842 138.026 64.2509 138.026 64.5475C138.026 64.7175 138.001 64.8809 137.951 65.0375C137.901 65.1909 137.822 65.3359 137.716 65.4725C137.612 65.6059 137.479 65.7275 137.316 65.8375C137.156 65.9475 136.964 66.0409 136.741 66.1175C137.734 66.3409 138.231 66.8775 138.231 67.7275C138.231 68.0342 138.172 68.3175 138.056 68.5775C137.939 68.8375 137.769 69.0625 137.546 69.2525C137.322 69.4392 137.047 69.5859 136.721 69.6925C136.394 69.7992 136.021 69.8525 135.601 69.8525H132.871V62.6225H135.361Z" fill="#FFC200"/>
<path d="M131.054 101.298C131.408 101.252 131.674 101.133 131.854 100.943C132.038 100.75 132.129 100.498 132.129 100.188C132.129 100.062 132.106 99.9515 132.059 99.8582C132.016 99.7615 131.953 99.6765 131.869 99.6032C131.789 99.5299 131.694 99.4665 131.584 99.4132C131.474 99.3599 131.354 99.3099 131.224 99.2632L131.054 101.298ZM130.734 96.0132C130.548 96.0365 130.389 96.0765 130.259 96.1332C130.129 96.1865 130.023 96.2532 129.939 96.3332C129.856 96.4132 129.794 96.5032 129.754 96.6032C129.718 96.7032 129.699 96.8082 129.699 96.9182C129.699 97.0449 129.721 97.1565 129.764 97.2532C129.811 97.3465 129.873 97.4315 129.949 97.5082C130.029 97.5815 130.123 97.6482 130.229 97.7082C130.336 97.7648 130.453 97.8182 130.579 97.8682L130.734 96.0132ZM131.319 98.1082C131.559 98.1815 131.798 98.2632 132.034 98.3532C132.271 98.4399 132.483 98.5532 132.669 98.6932C132.859 98.8332 133.013 99.0082 133.129 99.2182C133.246 99.4249 133.304 99.6849 133.304 99.9982C133.304 100.308 133.253 100.6 133.149 100.873C133.046 101.143 132.894 101.383 132.694 101.593C132.494 101.8 132.249 101.97 131.959 102.103C131.669 102.233 131.338 102.31 130.964 102.333L130.904 103.068C130.901 103.145 130.868 103.215 130.804 103.278C130.744 103.345 130.668 103.378 130.574 103.378H130.119L130.209 102.308C129.819 102.255 129.453 102.148 129.109 101.988C128.766 101.828 128.474 101.63 128.234 101.393L128.614 100.828C128.648 100.778 128.691 100.738 128.744 100.708C128.801 100.675 128.861 100.658 128.924 100.658C128.998 100.658 129.076 100.685 129.159 100.738C129.243 100.788 129.338 100.848 129.444 100.918C129.551 100.985 129.673 101.053 129.809 101.123C129.946 101.193 130.108 101.245 130.294 101.278L130.479 99.0432C130.243 98.9765 130.008 98.8982 129.774 98.8082C129.544 98.7182 129.336 98.5999 129.149 98.4532C128.966 98.3032 128.818 98.1149 128.704 97.8882C128.591 97.6615 128.534 97.3782 128.534 97.0382C128.534 96.7848 128.584 96.5382 128.684 96.2982C128.784 96.0549 128.931 95.8382 129.124 95.6482C129.321 95.4582 129.561 95.3015 129.844 95.1782C130.128 95.0548 130.453 94.9848 130.819 94.9682L130.874 94.3382C130.881 94.2582 130.914 94.1865 130.974 94.1232C131.034 94.0598 131.113 94.0282 131.209 94.0282H131.664L131.584 95.0082C131.938 95.0649 132.243 95.1665 132.499 95.3132C132.756 95.4565 132.978 95.6182 133.164 95.7982L132.864 96.2532C132.821 96.3199 132.776 96.3699 132.729 96.4032C132.683 96.4365 132.626 96.4532 132.559 96.4532C132.509 96.4532 132.449 96.4382 132.379 96.4082C132.309 96.3748 132.231 96.3365 132.144 96.2932C132.058 96.2465 131.959 96.1999 131.849 96.1532C131.743 96.1065 131.624 96.0682 131.494 96.0382L131.319 98.1082ZM138.605 101.113C138.739 101.113 138.844 101.152 138.92 101.228C139 101.302 139.04 101.4 139.04 101.523V102.263H134.08V101.853C134.08 101.77 134.097 101.683 134.13 101.593C134.167 101.5 134.224 101.417 134.3 101.343L136.495 99.1432C136.679 98.9565 136.842 98.7782 136.985 98.6082C137.132 98.4382 137.254 98.2699 137.35 98.1032C137.447 97.9365 137.52 97.7682 137.57 97.5982C137.624 97.4248 137.65 97.2432 137.65 97.0532C137.65 96.8798 137.625 96.7282 137.575 96.5982C137.525 96.4648 137.454 96.3532 137.36 96.2632C137.27 96.1732 137.16 96.1065 137.03 96.0632C136.904 96.0165 136.76 95.9932 136.6 95.9932C136.454 95.9932 136.317 96.0148 136.19 96.0582C136.067 96.0982 135.957 96.1565 135.86 96.2332C135.764 96.3065 135.682 96.3932 135.615 96.4932C135.549 96.5932 135.499 96.7032 135.465 96.8232C135.409 96.9765 135.335 97.0782 135.245 97.1282C135.155 97.1782 135.025 97.1898 134.855 97.1632L134.205 97.0482C134.255 96.7015 134.352 96.3982 134.495 96.1382C134.639 95.8749 134.817 95.6565 135.03 95.4832C135.247 95.3065 135.494 95.1749 135.77 95.0882C136.05 94.9982 136.35 94.9532 136.67 94.9532C137.004 94.9532 137.309 95.0032 137.585 95.1032C137.862 95.1998 138.099 95.3382 138.295 95.5182C138.492 95.6982 138.645 95.9148 138.755 96.1682C138.865 96.4215 138.92 96.7032 138.92 97.0132C138.92 97.2799 138.88 97.5265 138.8 97.7532C138.724 97.9798 138.619 98.1965 138.485 98.4032C138.355 98.6099 138.202 98.8099 138.025 99.0032C137.849 99.1965 137.664 99.3932 137.47 99.5932L135.84 101.258C135.997 101.212 136.152 101.177 136.305 101.153C136.462 101.127 136.61 101.113 136.75 101.113H138.605ZM143.061 99.5382V97.1732C143.061 96.9499 143.076 96.7032 143.106 96.4332L140.861 99.5382H143.061ZM145.046 99.5382V100.253C145.046 100.32 145.024 100.378 144.981 100.428C144.938 100.475 144.876 100.498 144.796 100.498H144.136V102.263H143.061V100.498H140.011C139.928 100.498 139.854 100.473 139.791 100.423C139.728 100.37 139.688 100.305 139.671 100.228L139.541 99.6032L142.966 95.0282H144.136V99.5382H145.046ZM148.812 101.213C149.062 101.213 149.272 101.183 149.442 101.123C149.612 101.063 149.747 100.983 149.847 100.883C149.95 100.783 150.023 100.667 150.067 100.533C150.113 100.4 150.137 100.258 150.137 100.108C150.137 99.9515 150.112 99.8115 150.062 99.6882C150.012 99.5615 149.933 99.4549 149.827 99.3682C149.72 99.2782 149.582 99.2099 149.412 99.1632C149.245 99.1165 149.043 99.0932 148.807 99.0932H147.452V101.213H148.812ZM147.452 96.0732V98.1632H148.522C148.982 98.1632 149.328 98.0798 149.562 97.9132C149.798 97.7465 149.917 97.4815 149.917 97.1182C149.917 96.7415 149.81 96.4732 149.597 96.3132C149.383 96.1532 149.05 96.0732 148.597 96.0732H147.452ZM148.597 95.0332C149.07 95.0332 149.475 95.0782 149.812 95.1682C150.148 95.2582 150.423 95.3865 150.637 95.5532C150.853 95.7199 151.012 95.9215 151.112 96.1582C151.212 96.3948 151.262 96.6615 151.262 96.9582C151.262 97.1282 151.237 97.2915 151.187 97.4482C151.137 97.6015 151.058 97.7465 150.952 97.8832C150.848 98.0165 150.715 98.1382 150.552 98.2482C150.392 98.3582 150.2 98.4515 149.977 98.5282C150.97 98.7515 151.467 99.2882 151.467 100.138C151.467 100.445 151.408 100.728 151.292 100.988C151.175 101.248 151.005 101.473 150.782 101.663C150.558 101.85 150.283 101.997 149.957 102.103C149.63 102.21 149.257 102.263 148.837 102.263H146.107V95.0332H148.597Z" fill="#FFC200"/>
<path d="M25.4492 14.75H23.5592V4.628H25.4492V14.75ZM28.95 8.45C29.0947 8.30533 29.2464 8.17233 29.405 8.051C29.5684 7.925 29.7387 7.82 29.916 7.736C30.098 7.64733 30.2917 7.57967 30.497 7.533C30.7024 7.48167 30.9264 7.456 31.169 7.456C31.561 7.456 31.9087 7.52367 32.212 7.659C32.5154 7.78967 32.7674 7.97633 32.968 8.219C33.1734 8.457 33.3274 8.744 33.43 9.08C33.5374 9.41133 33.591 9.77767 33.591 10.179V14.75H31.862V10.179C31.862 9.74033 31.7617 9.402 31.561 9.164C31.3604 8.92133 31.0547 8.8 30.644 8.8C30.3454 8.8 30.0654 8.86767 29.804 9.003C29.5427 9.13833 29.2954 9.32267 29.062 9.556V14.75H27.333V7.568H28.39C28.614 7.568 28.761 7.673 28.831 7.883L28.95 8.45ZM35.6233 14.75V8.87L35.0003 8.772C34.865 8.744 34.7553 8.69733 34.6713 8.632C34.592 8.562 34.5523 8.464 34.5523 8.338V7.631H35.6233V7.33C35.6233 6.94733 35.684 6.581 35.8053 6.231C35.9267 5.881 36.111 5.573 36.3583 5.307C36.6057 5.03633 36.9183 4.82167 37.2963 4.663C37.6743 4.49967 38.12 4.418 38.6333 4.418C39.03 4.418 39.4033 4.432 39.7533 4.46C40.108 4.48333 40.4603 4.49733 40.8103 4.502H41.9513V14.75H40.2293V5.706C39.982 5.69667 39.7393 5.685 39.5013 5.671C39.268 5.657 39.0697 5.65 38.9063 5.65C38.3837 5.65 37.9847 5.797 37.7093 6.091C37.434 6.38033 37.2963 6.79333 37.2963 7.33V7.631H38.9973V8.863H37.3523V14.75H35.6233ZM49.8726 7.568V14.75H48.8156C48.5869 14.75 48.4423 14.645 48.3816 14.435L48.2626 13.861C47.9686 14.1597 47.6443 14.4023 47.2896 14.589C46.9349 14.771 46.5173 14.862 46.0366 14.862C45.6446 14.862 45.2969 14.7967 44.9936 14.666C44.6949 14.5307 44.4429 14.3417 44.2376 14.099C44.0323 13.8563 43.8759 13.5693 43.7686 13.238C43.6659 12.902 43.6146 12.5333 43.6146 12.132V7.568H45.3436V12.132C45.3436 12.5707 45.4439 12.9113 45.6446 13.154C45.8499 13.392 46.1556 13.511 46.5616 13.511C46.8603 13.511 47.1403 13.4457 47.4016 13.315C47.6629 13.1797 47.9103 12.9953 48.1436 12.762V7.568H49.8726ZM56.2139 10.333C56.2139 10.109 56.1813 9.899 56.1159 9.703C56.0553 9.50233 55.9619 9.32733 55.8359 9.178C55.7099 9.02867 55.5489 8.912 55.3529 8.828C55.1616 8.73933 54.9376 8.695 54.6809 8.695C54.1816 8.695 53.7873 8.83733 53.4979 9.122C53.2133 9.40667 53.0313 9.81033 52.9519 10.333H56.2139ZM52.9169 11.376C52.9449 11.7447 53.0103 12.0643 53.1129 12.335C53.2156 12.601 53.3509 12.8227 53.5189 13C53.6869 13.1727 53.8853 13.3033 54.1139 13.392C54.3473 13.476 54.6039 13.518 54.8839 13.518C55.1639 13.518 55.4043 13.4853 55.6049 13.42C55.8103 13.3547 55.9876 13.2823 56.1369 13.203C56.2909 13.1237 56.4239 13.0513 56.5359 12.986C56.6526 12.9207 56.7646 12.888 56.8719 12.888C57.0166 12.888 57.1239 12.9417 57.1939 13.049L57.6909 13.679C57.4996 13.903 57.2849 14.092 57.0469 14.246C56.8089 14.3953 56.5593 14.5167 56.2979 14.61C56.0413 14.6987 55.7776 14.7617 55.5069 14.799C55.2409 14.8363 54.9819 14.855 54.7299 14.855C54.2306 14.855 53.7663 14.7733 53.3369 14.61C52.9076 14.442 52.5343 14.197 52.2169 13.875C51.8996 13.5483 51.6499 13.147 51.4679 12.671C51.2859 12.1903 51.1949 11.635 51.1949 11.005C51.1949 10.515 51.2743 10.0553 51.4329 9.626C51.5916 9.192 51.8179 8.81633 52.1119 8.499C52.4106 8.177 52.7723 7.92267 53.1969 7.736C53.6263 7.54933 54.1093 7.456 54.6459 7.456C55.0986 7.456 55.5163 7.52833 55.8989 7.673C56.2816 7.81767 56.6106 8.03 56.8859 8.31C57.1613 8.58533 57.3759 8.926 57.5299 9.332C57.6886 9.73333 57.7679 10.193 57.7679 10.711C57.7679 10.9723 57.7399 11.1497 57.6839 11.243C57.6279 11.3317 57.5206 11.376 57.3619 11.376H52.9169ZM60.6824 8.45C60.8271 8.30533 60.9788 8.17233 61.1374 8.051C61.3008 7.925 61.4711 7.82 61.6484 7.736C61.8304 7.64733 62.0241 7.57967 62.2294 7.533C62.4348 7.48167 62.6588 7.456 62.9014 7.456C63.2934 7.456 63.6411 7.52367 63.9444 7.659C64.2478 7.78967 64.4998 7.97633 64.7004 8.219C64.9058 8.457 65.0598 8.744 65.1624 9.08C65.2698 9.41133 65.3234 9.77767 65.3234 10.179V14.75H63.5944V10.179C63.5944 9.74033 63.4941 9.402 63.2934 9.164C63.0928 8.92133 62.7871 8.8 62.3764 8.8C62.0778 8.8 61.7978 8.86767 61.5364 9.003C61.2751 9.13833 61.0278 9.32267 60.7944 9.556V14.75H59.0654V7.568H60.1224C60.3464 7.568 60.4934 7.673 60.5634 7.883L60.6824 8.45ZM72.1128 9.087C72.0615 9.15233 72.0101 9.20367 71.9588 9.241C71.9121 9.27833 71.8421 9.297 71.7488 9.297C71.6601 9.297 71.5738 9.27133 71.4898 9.22C71.4058 9.164 71.3055 9.10333 71.1888 9.038C71.0721 8.968 70.9321 8.90733 70.7688 8.856C70.6101 8.8 70.4118 8.772 70.1738 8.772C69.8705 8.772 69.6045 8.828 69.3758 8.94C69.1471 9.04733 68.9558 9.20367 68.8018 9.409C68.6525 9.61433 68.5405 9.864 68.4658 10.158C68.3911 10.4473 68.3538 10.7763 68.3538 11.145C68.3538 11.5277 68.3935 11.8683 68.4728 12.167C68.5568 12.4657 68.6758 12.7177 68.8298 12.923C68.9838 13.1237 69.1705 13.2777 69.3898 13.385C69.6091 13.4877 69.8565 13.539 70.1318 13.539C70.4071 13.539 70.6288 13.5063 70.7968 13.441C70.9695 13.371 71.1141 13.2963 71.2308 13.217C71.3475 13.133 71.4478 13.0583 71.5318 12.993C71.6205 12.923 71.7185 12.888 71.8258 12.888C71.9658 12.888 72.0708 12.9417 72.1408 13.049L72.6378 13.679C72.4465 13.903 72.2388 14.092 72.0148 14.246C71.7908 14.3953 71.5575 14.5167 71.3148 14.61C71.0768 14.6987 70.8295 14.7617 70.5728 14.799C70.3208 14.8363 70.0688 14.855 69.8168 14.855C69.3735 14.855 68.9558 14.7733 68.5638 14.61C68.1718 14.442 67.8288 14.1993 67.5348 13.882C67.2408 13.5647 67.0075 13.1773 66.8348 12.72C66.6668 12.258 66.5828 11.733 66.5828 11.145C66.5828 10.6177 66.6575 10.13 66.8068 9.682C66.9608 9.22933 67.1848 8.83967 67.4788 8.513C67.7728 8.18167 68.1368 7.92267 68.5708 7.736C69.0048 7.54933 69.5041 7.456 70.0688 7.456C70.6055 7.456 71.0745 7.54233 71.4758 7.715C71.8818 7.88767 72.2458 8.135 72.5678 8.457L72.1128 9.087ZM78.2257 10.333C78.2257 10.109 78.193 9.899 78.1277 9.703C78.067 9.50233 77.9737 9.32733 77.8477 9.178C77.7217 9.02867 77.5607 8.912 77.3647 8.828C77.1733 8.73933 76.9493 8.695 76.6927 8.695C76.1933 8.695 75.799 8.83733 75.5097 9.122C75.225 9.40667 75.043 9.81033 74.9637 10.333H78.2257ZM74.9287 11.376C74.9567 11.7447 75.022 12.0643 75.1247 12.335C75.2273 12.601 75.3627 12.8227 75.5307 13C75.6987 13.1727 75.897 13.3033 76.1257 13.392C76.359 13.476 76.6157 13.518 76.8957 13.518C77.1757 13.518 77.416 13.4853 77.6167 13.42C77.822 13.3547 77.9993 13.2823 78.1487 13.203C78.3027 13.1237 78.4357 13.0513 78.5477 12.986C78.6643 12.9207 78.7763 12.888 78.8837 12.888C79.0283 12.888 79.1357 12.9417 79.2057 13.049L79.7027 13.679C79.5113 13.903 79.2967 14.092 79.0587 14.246C78.8207 14.3953 78.571 14.5167 78.3097 14.61C78.053 14.6987 77.7893 14.7617 77.5187 14.799C77.2527 14.8363 76.9937 14.855 76.7417 14.855C76.2423 14.855 75.778 14.7733 75.3487 14.61C74.9193 14.442 74.546 14.197 74.2287 13.875C73.9113 13.5483 73.6617 13.147 73.4797 12.671C73.2977 12.1903 73.2067 11.635 73.2067 11.005C73.2067 10.515 73.286 10.0553 73.4447 9.626C73.6033 9.192 73.8297 8.81633 74.1237 8.499C74.4223 8.177 74.784 7.92267 75.2087 7.736C75.638 7.54933 76.121 7.456 76.6577 7.456C77.1103 7.456 77.528 7.52833 77.9107 7.673C78.2933 7.81767 78.6223 8.03 78.8977 8.31C79.173 8.58533 79.3877 8.926 79.5417 9.332C79.7003 9.73333 79.7797 10.193 79.7797 10.711C79.7797 10.9723 79.7517 11.1497 79.6957 11.243C79.6397 11.3317 79.5323 11.376 79.3737 11.376H74.9287ZM82.7082 8.814C82.9322 8.38467 83.1982 8.04867 83.5062 7.806C83.8142 7.55867 84.1782 7.435 84.5982 7.435C84.9295 7.435 85.1955 7.50733 85.3962 7.652L85.2842 8.947C85.2608 9.031 85.2258 9.09167 85.1792 9.129C85.1372 9.16167 85.0788 9.178 85.0042 9.178C84.9342 9.178 84.8292 9.16633 84.6892 9.143C84.5538 9.11967 84.4208 9.108 84.2902 9.108C84.0988 9.108 83.9285 9.136 83.7792 9.192C83.6298 9.248 83.4945 9.32967 83.3732 9.437C83.2565 9.53967 83.1515 9.66567 83.0582 9.815C82.9695 9.96433 82.8855 10.1347 82.8062 10.326V14.75H81.0772V7.568H82.0922C82.2695 7.568 82.3932 7.60067 82.4632 7.666C82.5332 7.72667 82.5798 7.83867 82.6032 8.002L82.7082 8.814ZM100.652 4.628V14.75H98.9933V8.212C98.9933 7.95067 99.0073 7.66833 99.0353 7.365L95.9763 13.112C95.8317 13.3873 95.61 13.525 95.3113 13.525H95.0453C94.7467 13.525 94.525 13.3873 94.3803 13.112L91.2863 7.344C91.3003 7.498 91.312 7.64967 91.3213 7.799C91.3307 7.94833 91.3353 8.086 91.3353 8.212V14.75H89.6763V4.628H91.0973C91.1813 4.628 91.2537 4.63033 91.3143 4.635C91.375 4.63967 91.4287 4.65133 91.4753 4.67C91.5267 4.68867 91.571 4.719 91.6083 4.761C91.6503 4.803 91.69 4.859 91.7273 4.929L94.7583 10.55C94.8377 10.6993 94.91 10.8533 94.9753 11.012C95.0453 11.1707 95.113 11.334 95.1783 11.502C95.2437 11.3293 95.3113 11.1637 95.3813 11.005C95.4513 10.8417 95.526 10.6853 95.6053 10.536L98.5943 4.929C98.6317 4.859 98.6713 4.803 98.7133 4.761C98.7553 4.719 98.7997 4.68867 98.8463 4.67C98.8977 4.65133 98.9537 4.63967 99.0143 4.635C99.075 4.63033 99.1473 4.628 99.2313 4.628H100.652ZM106.254 11.684C105.755 11.7073 105.335 11.7517 104.994 11.817C104.653 11.8777 104.38 11.957 104.175 12.055C103.97 12.153 103.823 12.2673 103.734 12.398C103.645 12.5287 103.601 12.671 103.601 12.825C103.601 13.1283 103.69 13.3453 103.867 13.476C104.049 13.6067 104.285 13.672 104.574 13.672C104.929 13.672 105.234 13.609 105.491 13.483C105.752 13.3523 106.007 13.1563 106.254 12.895V11.684ZM102.292 8.569C103.118 7.813 104.112 7.435 105.274 7.435C105.694 7.435 106.07 7.505 106.401 7.645C106.732 7.78033 107.012 7.97167 107.241 8.219C107.47 8.46167 107.642 8.75333 107.759 9.094C107.88 9.43467 107.941 9.808 107.941 10.214V14.75H107.157C106.994 14.75 106.868 14.7267 106.779 14.68C106.69 14.6287 106.62 14.5283 106.569 14.379L106.415 13.861C106.233 14.0243 106.056 14.169 105.883 14.295C105.71 14.4163 105.531 14.519 105.344 14.603C105.157 14.687 104.957 14.75 104.742 14.792C104.532 14.8387 104.299 14.862 104.042 14.862C103.739 14.862 103.459 14.8223 103.202 14.743C102.945 14.659 102.724 14.5353 102.537 14.372C102.35 14.2087 102.206 14.0057 102.103 13.763C102 13.5203 101.949 13.238 101.949 12.916C101.949 12.734 101.979 12.5543 102.04 12.377C102.101 12.195 102.199 12.0223 102.334 11.859C102.474 11.6957 102.654 11.5417 102.873 11.397C103.092 11.2523 103.361 11.1263 103.678 11.019C104 10.9117 104.373 10.8253 104.798 10.76C105.223 10.69 105.708 10.648 106.254 10.634V10.214C106.254 9.73333 106.151 9.37867 105.946 9.15C105.741 8.91667 105.444 8.8 105.057 8.8C104.777 8.8 104.544 8.83267 104.357 8.898C104.175 8.96333 104.014 9.038 103.874 9.122C103.734 9.20133 103.606 9.27367 103.489 9.339C103.377 9.40433 103.251 9.437 103.111 9.437C102.99 9.437 102.887 9.40667 102.803 9.346C102.719 9.28067 102.651 9.206 102.6 9.122L102.292 8.569ZM111.2 8.814C111.424 8.38467 111.69 8.04867 111.998 7.806C112.306 7.55867 112.67 7.435 113.09 7.435C113.422 7.435 113.688 7.50733 113.888 7.652L113.776 8.947C113.753 9.031 113.718 9.09167 113.671 9.129C113.629 9.16167 113.571 9.178 113.496 9.178C113.426 9.178 113.321 9.16633 113.181 9.143C113.046 9.11967 112.913 9.108 112.782 9.108C112.591 9.108 112.421 9.136 112.271 9.192C112.122 9.248 111.987 9.32967 111.865 9.437C111.749 9.53967 111.644 9.66567 111.55 9.815C111.462 9.96433 111.378 10.1347 111.298 10.326V14.75H109.569V7.568H110.584C110.762 7.568 110.885 7.60067 110.955 7.666C111.025 7.72667 111.072 7.83867 111.095 8.002L111.2 8.814ZM116.521 4.348V10.305H116.843C116.96 10.305 117.051 10.291 117.116 10.263C117.186 10.2303 117.256 10.1673 117.326 10.074L119.111 7.869C119.186 7.771 119.267 7.69633 119.356 7.645C119.449 7.59367 119.568 7.568 119.713 7.568H121.295L119.062 10.235C118.903 10.445 118.731 10.606 118.544 10.718C118.642 10.788 118.728 10.8697 118.803 10.963C118.882 11.0563 118.957 11.1567 119.027 11.264L121.421 14.75H119.86C119.725 14.75 119.608 14.729 119.51 14.687C119.412 14.6403 119.33 14.5587 119.265 14.442L117.431 11.719C117.366 11.6117 117.298 11.5417 117.228 11.509C117.158 11.4763 117.053 11.46 116.913 11.46H116.521V14.75H114.792V4.348H116.521ZM126.528 10.333C126.528 10.109 126.496 9.899 126.43 9.703C126.37 9.50233 126.276 9.32733 126.15 9.178C126.024 9.02867 125.863 8.912 125.667 8.828C125.476 8.73933 125.252 8.695 124.995 8.695C124.496 8.695 124.102 8.83733 123.812 9.122C123.528 9.40667 123.346 9.81033 123.266 10.333H126.528ZM123.231 11.376C123.259 11.7447 123.325 12.0643 123.427 12.335C123.53 12.601 123.665 12.8227 123.833 13C124.001 13.1727 124.2 13.3033 124.428 13.392C124.662 13.476 124.918 13.518 125.198 13.518C125.478 13.518 125.719 13.4853 125.919 13.42C126.125 13.3547 126.302 13.2823 126.451 13.203C126.605 13.1237 126.738 13.0513 126.85 12.986C126.967 12.9207 127.079 12.888 127.186 12.888C127.331 12.888 127.438 12.9417 127.508 13.049L128.005 13.679C127.814 13.903 127.599 14.092 127.361 14.246C127.123 14.3953 126.874 14.5167 126.612 14.61C126.356 14.6987 126.092 14.7617 125.821 14.799C125.555 14.8363 125.296 14.855 125.044 14.855C124.545 14.855 124.081 14.7733 123.651 14.61C123.222 14.442 122.849 14.197 122.531 13.875C122.214 13.5483 121.964 13.147 121.782 12.671C121.6 12.1903 121.509 11.635 121.509 11.005C121.509 10.515 121.589 10.0553 121.747 9.626C121.906 9.192 122.132 8.81633 122.426 8.499C122.725 8.177 123.087 7.92267 123.511 7.736C123.941 7.54933 124.424 7.456 124.96 7.456C125.413 7.456 125.831 7.52833 126.213 7.673C126.596 7.81767 126.925 8.03 127.2 8.31C127.476 8.58533 127.69 8.926 127.844 9.332C128.003 9.73333 128.082 10.193 128.082 10.711C128.082 10.9723 128.054 11.1497 127.998 11.243C127.942 11.3317 127.835 11.376 127.676 11.376H123.231ZM136.557 14.75H134.828V8.863H131.496V12.755C131.496 12.979 131.549 13.154 131.657 13.28C131.769 13.406 131.92 13.469 132.112 13.469C132.219 13.469 132.308 13.4573 132.378 13.434C132.452 13.406 132.515 13.378 132.567 13.35C132.623 13.322 132.672 13.2963 132.714 13.273C132.756 13.245 132.798 13.231 132.84 13.231C132.891 13.231 132.933 13.245 132.966 13.273C132.998 13.2963 133.033 13.3337 133.071 13.385L133.589 14.225C133.337 14.435 133.047 14.5937 132.721 14.701C132.394 14.8083 132.056 14.862 131.706 14.862C131.08 14.862 130.6 14.687 130.264 14.337C129.932 13.9823 129.767 13.4947 129.767 12.874V8.863H129.032C128.938 8.863 128.859 8.83267 128.794 8.772C128.728 8.71133 128.696 8.62033 128.696 8.499V7.813L129.851 7.617L130.215 5.664C130.238 5.57067 130.282 5.49833 130.348 5.447C130.413 5.39567 130.497 5.37 130.6 5.37H131.496V7.631H136.557V14.75ZM136.858 5.447C136.858 5.59633 136.827 5.73867 136.767 5.874C136.706 6.00467 136.624 6.119 136.522 6.217C136.424 6.315 136.305 6.39433 136.165 6.455C136.029 6.511 135.885 6.539 135.731 6.539C135.581 6.539 135.441 6.511 135.311 6.455C135.18 6.39433 135.066 6.315 134.968 6.217C134.87 6.119 134.79 6.00467 134.73 5.874C134.674 5.73867 134.646 5.59633 134.646 5.447C134.646 5.293 134.674 5.15067 134.73 5.02C134.79 4.88467 134.87 4.768 134.968 4.67C135.066 4.56733 135.18 4.488 135.311 4.432C135.441 4.37133 135.581 4.341 135.731 4.341C135.885 4.341 136.029 4.37133 136.165 4.432C136.305 4.488 136.424 4.56733 136.522 4.67C136.624 4.768 136.706 4.88467 136.767 5.02C136.827 5.15067 136.858 5.293 136.858 5.447ZM139.938 8.45C140.083 8.30533 140.235 8.17233 140.393 8.051C140.557 7.925 140.727 7.82 140.904 7.736C141.086 7.64733 141.28 7.57967 141.485 7.533C141.691 7.48167 141.915 7.456 142.157 7.456C142.549 7.456 142.897 7.52367 143.2 7.659C143.504 7.78967 143.756 7.97633 143.956 8.219C144.162 8.457 144.316 8.744 144.418 9.08C144.526 9.41133 144.579 9.77767 144.579 10.179V14.75H142.85V10.179C142.85 9.74033 142.75 9.402 142.549 9.164C142.349 8.92133 142.043 8.8 141.632 8.8C141.334 8.8 141.054 8.86767 140.792 9.003C140.531 9.13833 140.284 9.32267 140.05 9.556V14.75H138.321V7.568H139.378C139.602 7.568 139.749 7.673 139.819 7.883L139.938 8.45ZM148.849 10.984C149.063 10.984 149.25 10.956 149.409 10.9C149.567 10.8393 149.698 10.7577 149.801 10.655C149.908 10.5523 149.987 10.4287 150.039 10.284C150.095 10.1393 150.123 9.98067 150.123 9.808C150.123 9.45333 150.015 9.17333 149.801 8.968C149.591 8.758 149.273 8.653 148.849 8.653C148.424 8.653 148.104 8.758 147.89 8.968C147.68 9.17333 147.575 9.45333 147.575 9.808C147.575 9.976 147.6 10.1323 147.652 10.277C147.708 10.4217 147.787 10.5477 147.89 10.655C147.997 10.7577 148.13 10.8393 148.289 10.9C148.452 10.956 148.639 10.984 148.849 10.984ZM150.802 15.072C150.802 14.932 150.76 14.8177 150.676 14.729C150.592 14.6403 150.477 14.5727 150.333 14.526C150.188 14.4747 150.018 14.4373 149.822 14.414C149.63 14.3907 149.425 14.3743 149.206 14.365C148.991 14.351 148.767 14.3393 148.534 14.33C148.305 14.3207 148.081 14.302 147.862 14.274C147.67 14.3813 147.514 14.5073 147.393 14.652C147.276 14.7967 147.218 14.9647 147.218 15.156C147.218 15.282 147.248 15.3987 147.309 15.506C147.374 15.618 147.474 15.7137 147.61 15.793C147.75 15.8723 147.929 15.933 148.149 15.975C148.368 16.0217 148.636 16.045 148.954 16.045C149.276 16.045 149.553 16.0193 149.787 15.968C150.02 15.9213 150.211 15.8537 150.361 15.765C150.515 15.681 150.627 15.5783 150.697 15.457C150.767 15.3403 150.802 15.212 150.802 15.072ZM152.524 7.813V8.457C152.524 8.66233 152.4 8.78833 152.153 8.835L151.509 8.954C151.607 9.20133 151.656 9.472 151.656 9.766C151.656 10.1207 151.583 10.4427 151.439 10.732C151.299 11.0167 151.103 11.2593 150.851 11.46C150.599 11.6607 150.3 11.817 149.955 11.929C149.614 12.0363 149.245 12.09 148.849 12.09C148.709 12.09 148.573 12.083 148.443 12.069C148.312 12.055 148.184 12.0363 148.058 12.013C147.834 12.1483 147.722 12.3 147.722 12.468C147.722 12.6127 147.787 12.72 147.918 12.79C148.053 12.8553 148.23 12.902 148.45 12.93C148.669 12.958 148.919 12.9767 149.199 12.986C149.479 12.9907 149.766 13.0047 150.06 13.028C150.354 13.0513 150.641 13.0933 150.921 13.154C151.201 13.21 151.45 13.301 151.67 13.427C151.889 13.553 152.064 13.7257 152.195 13.945C152.33 14.1597 152.398 14.4373 152.398 14.778C152.398 15.0953 152.318 15.4033 152.16 15.702C152.006 16.0007 151.779 16.2667 151.481 16.5C151.187 16.7333 150.823 16.92 150.389 17.06C149.959 17.2047 149.469 17.277 148.919 17.277C148.377 17.277 147.906 17.2233 147.505 17.116C147.103 17.0133 146.77 16.8733 146.504 16.696C146.238 16.5233 146.039 16.3227 145.909 16.094C145.778 15.8653 145.713 15.6273 145.713 15.38C145.713 15.044 145.813 14.764 146.014 14.54C146.219 14.3113 146.499 14.1293 146.854 13.994C146.662 13.896 146.511 13.7653 146.399 13.602C146.287 13.4387 146.231 13.224 146.231 12.958C146.231 12.8507 146.249 12.741 146.287 12.629C146.329 12.5123 146.387 12.398 146.462 12.286C146.541 12.174 146.639 12.069 146.756 11.971C146.872 11.8683 147.01 11.7773 147.169 11.698C146.805 11.502 146.518 11.2407 146.308 10.914C146.102 10.5873 146 10.2047 146 9.766C146 9.41133 146.07 9.09167 146.21 8.807C146.354 8.51767 146.553 8.27267 146.805 8.072C147.061 7.86667 147.362 7.71033 147.708 7.603C148.058 7.49567 148.438 7.442 148.849 7.442C149.157 7.442 149.446 7.47467 149.717 7.54C149.987 7.60067 150.235 7.69167 150.459 7.813H152.524ZM159.187 14.75H157.297V4.628H159.187V14.75ZM162.688 8.45C162.833 8.30533 162.985 8.17233 163.143 8.051C163.307 7.925 163.477 7.82 163.654 7.736C163.836 7.64733 164.03 7.57967 164.235 7.533C164.441 7.48167 164.665 7.456 164.907 7.456C165.299 7.456 165.647 7.52367 165.95 7.659C166.254 7.78967 166.506 7.97633 166.706 8.219C166.912 8.457 167.066 8.744 167.168 9.08C167.276 9.41133 167.329 9.77767 167.329 10.179V14.75H165.6V10.179C165.6 9.74033 165.5 9.402 165.299 9.164C165.099 8.92133 164.793 8.8 164.382 8.8C164.084 8.8 163.804 8.86767 163.542 9.003C163.281 9.13833 163.034 9.32267 162.8 9.556V14.75H161.071V7.568H162.128C162.352 7.568 162.499 7.673 162.569 7.883L162.688 8.45ZM173.482 9.402C173.286 9.164 173.071 8.996 172.838 8.898C172.609 8.8 172.362 8.751 172.096 8.751C171.834 8.751 171.599 8.8 171.389 8.898C171.179 8.996 170.999 9.14533 170.85 9.346C170.7 9.542 170.586 9.794 170.507 10.102C170.427 10.4053 170.388 10.7647 170.388 11.18C170.388 11.6 170.42 11.957 170.486 12.251C170.556 12.5403 170.654 12.7783 170.78 12.965C170.906 13.147 171.06 13.28 171.242 13.364C171.424 13.4433 171.627 13.483 171.851 13.483C172.21 13.483 172.516 13.4083 172.768 13.259C173.02 13.1097 173.258 12.8973 173.482 12.622V9.402ZM175.211 4.348V14.75H174.154C173.925 14.75 173.78 14.645 173.72 14.435L173.573 13.742C173.283 14.0733 172.95 14.3417 172.572 14.547C172.198 14.7523 171.762 14.855 171.263 14.855C170.871 14.855 170.511 14.7733 170.185 14.61C169.858 14.4467 169.576 14.211 169.338 13.903C169.104 13.5903 168.922 13.2053 168.792 12.748C168.666 12.2907 168.603 11.768 168.603 11.18C168.603 10.648 168.675 10.1533 168.82 9.696C168.964 9.23867 169.172 8.842 169.443 8.506C169.713 8.17 170.038 7.90867 170.416 7.722C170.794 7.53067 171.218 7.435 171.69 7.435C172.091 7.435 172.434 7.498 172.719 7.624C173.003 7.75 173.258 7.92033 173.482 8.135V4.348H175.211ZM183.105 7.568V14.75H182.048C181.819 14.75 181.675 14.645 181.614 14.435L181.495 13.861C181.201 14.1597 180.877 14.4023 180.522 14.589C180.167 14.771 179.75 14.862 179.269 14.862C178.877 14.862 178.529 14.7967 178.226 14.666C177.927 14.5307 177.675 14.3417 177.47 14.099C177.265 13.8563 177.108 13.5693 177.001 13.238C176.898 12.902 176.847 12.5333 176.847 12.132V7.568H178.576V12.132C178.576 12.5707 178.676 12.9113 178.877 13.154C179.082 13.392 179.388 13.511 179.794 13.511C180.093 13.511 180.373 13.4457 180.634 13.315C180.895 13.1797 181.143 12.9953 181.376 12.762V7.568H183.105ZM189.201 8.968C189.155 9.04267 189.106 9.09633 189.054 9.129C189.003 9.157 188.938 9.171 188.858 9.171C188.774 9.171 188.683 9.14767 188.585 9.101C188.492 9.05433 188.382 9.003 188.256 8.947C188.13 8.88633 187.986 8.83267 187.822 8.786C187.664 8.73933 187.475 8.716 187.255 8.716C186.915 8.716 186.646 8.78833 186.45 8.933C186.259 9.07767 186.163 9.26667 186.163 9.5C186.163 9.654 186.212 9.78467 186.31 9.892C186.413 9.99467 186.546 10.0857 186.709 10.165C186.877 10.2443 187.066 10.3167 187.276 10.382C187.486 10.4427 187.699 10.5103 187.913 10.585C188.133 10.6597 188.347 10.746 188.557 10.844C188.767 10.9373 188.954 11.0587 189.117 11.208C189.285 11.3527 189.418 11.5277 189.516 11.733C189.619 11.9383 189.67 12.1857 189.67 12.475C189.67 12.8203 189.607 13.14 189.481 13.434C189.36 13.7233 189.178 13.9753 188.935 14.19C188.693 14.4 188.392 14.5657 188.032 14.687C187.678 14.8037 187.267 14.862 186.8 14.862C186.553 14.862 186.31 14.8387 186.072 14.792C185.839 14.75 185.613 14.6893 185.393 14.61C185.179 14.5307 184.978 14.4373 184.791 14.33C184.609 14.2227 184.448 14.106 184.308 13.98L184.707 13.322C184.759 13.2427 184.819 13.182 184.889 13.14C184.959 13.098 185.048 13.077 185.155 13.077C185.263 13.077 185.363 13.1073 185.456 13.168C185.554 13.2287 185.666 13.294 185.792 13.364C185.918 13.434 186.065 13.4993 186.233 13.56C186.406 13.6207 186.623 13.651 186.884 13.651C187.09 13.651 187.265 13.6277 187.409 13.581C187.559 13.5297 187.68 13.4643 187.773 13.385C187.871 13.3057 187.941 13.2147 187.983 13.112C188.03 13.0047 188.053 12.895 188.053 12.783C188.053 12.615 188.002 12.4773 187.899 12.37C187.801 12.2627 187.668 12.1693 187.5 12.09C187.337 12.0107 187.148 11.9407 186.933 11.88C186.723 11.8147 186.506 11.7447 186.282 11.67C186.063 11.5953 185.846 11.509 185.631 11.411C185.421 11.3083 185.232 11.18 185.064 11.026C184.901 10.872 184.768 10.683 184.665 10.459C184.567 10.235 184.518 9.96433 184.518 9.647C184.518 9.353 184.577 9.073 184.693 8.807C184.81 8.541 184.98 8.31 185.204 8.114C185.433 7.91333 185.715 7.75467 186.051 7.638C186.392 7.51667 186.784 7.456 187.227 7.456C187.722 7.456 188.172 7.53767 188.578 7.701C188.984 7.86433 189.323 8.079 189.593 8.345L189.201 8.968ZM193.366 14.862C192.74 14.862 192.26 14.687 191.924 14.337C191.592 13.9823 191.427 13.4947 191.427 12.874V8.863H190.692C190.598 8.863 190.519 8.83267 190.454 8.772C190.388 8.71133 190.356 8.62033 190.356 8.499V7.813L191.511 7.624L191.875 5.664C191.898 5.57067 191.942 5.49833 192.008 5.447C192.073 5.39567 192.157 5.37 192.26 5.37H193.156V7.631H195.074V8.863H193.156V12.755C193.156 12.979 193.209 13.154 193.317 13.28C193.429 13.406 193.58 13.469 193.772 13.469C193.879 13.469 193.968 13.4573 194.038 13.434C194.112 13.406 194.175 13.378 194.227 13.35C194.283 13.322 194.332 13.2963 194.374 13.273C194.416 13.245 194.458 13.231 194.5 13.231C194.551 13.231 194.593 13.245 194.626 13.273C194.658 13.2963 194.693 13.3337 194.731 13.385L195.249 14.225C194.997 14.435 194.707 14.5937 194.381 14.701C194.054 14.8083 193.716 14.862 193.366 14.862ZM197.812 8.814C198.036 8.38467 198.302 8.04867 198.61 7.806C198.918 7.55867 199.282 7.435 199.702 7.435C200.033 7.435 200.299 7.50733 200.5 7.652L200.388 8.947C200.364 9.031 200.329 9.09167 200.283 9.129C200.241 9.16167 200.182 9.178 200.108 9.178C200.038 9.178 199.933 9.16633 199.793 9.143C199.657 9.11967 199.524 9.108 199.394 9.108C199.202 9.108 199.032 9.136 198.883 9.192C198.733 9.248 198.598 9.32967 198.477 9.437C198.36 9.53967 198.255 9.66567 198.162 9.815C198.073 9.96433 197.989 10.1347 197.91 10.326V14.75H196.181V7.568H197.196C197.373 7.568 197.497 7.60067 197.567 7.666C197.637 7.72667 197.683 7.83867 197.707 8.002L197.812 8.814ZM207.927 7.568L204.014 16.724C203.963 16.8453 203.895 16.9363 203.811 16.997C203.732 17.0623 203.608 17.095 203.44 17.095H202.152L203.496 14.211L200.591 7.568H202.11C202.246 7.568 202.351 7.60067 202.425 7.666C202.505 7.73133 202.563 7.806 202.6 7.89L204.126 11.614C204.178 11.74 204.22 11.866 204.252 11.992C204.29 12.118 204.325 12.2463 204.357 12.377C204.399 12.2463 204.441 12.118 204.483 11.992C204.525 11.8613 204.572 11.733 204.623 11.607L206.065 7.89C206.103 7.79667 206.163 7.71967 206.247 7.659C206.336 7.59833 206.434 7.568 206.541 7.568H207.927ZM95.2527 21.628L91.1647 31.75H89.4637L85.3757 21.628H86.8877C87.051 21.628 87.184 21.6677 87.2867 21.747C87.3893 21.8263 87.4663 21.929 87.5177 22.055L89.9047 28.229C89.984 28.4297 90.0587 28.6513 90.1287 28.894C90.2033 29.132 90.2733 29.3817 90.3387 29.643C90.3947 29.3817 90.4553 29.132 90.5207 28.894C90.586 28.6513 90.6583 28.4297 90.7377 28.229L93.1107 22.055C93.148 21.9477 93.2203 21.8497 93.3277 21.761C93.4397 21.6723 93.575 21.628 93.7337 21.628H95.2527ZM98.755 28.684C98.2556 28.7073 97.8356 28.7517 97.495 28.817C97.1543 28.8777 96.8813 28.957 96.676 29.055C96.4706 29.153 96.3236 29.2673 96.235 29.398C96.1463 29.5287 96.102 29.671 96.102 29.825C96.102 30.1283 96.1906 30.3453 96.368 30.476C96.55 30.6067 96.7856 30.672 97.075 30.672C97.4296 30.672 97.7353 30.609 97.992 30.483C98.2533 30.3523 98.5076 30.1563 98.755 29.895V28.684ZM94.793 25.569C95.619 24.813 96.613 24.435 97.775 24.435C98.195 24.435 98.5706 24.505 98.902 24.645C99.2333 24.7803 99.5133 24.9717 99.742 25.219C99.9706 25.4617 100.143 25.7533 100.26 26.094C100.381 26.4347 100.442 26.808 100.442 27.214V31.75H99.658C99.4946 31.75 99.3686 31.7267 99.28 31.68C99.1913 31.6287 99.1213 31.5283 99.07 31.379L98.916 30.861C98.734 31.0243 98.5566 31.169 98.384 31.295C98.2113 31.4163 98.0316 31.519 97.845 31.603C97.6583 31.687 97.4576 31.75 97.243 31.792C97.033 31.8387 96.7996 31.862 96.543 31.862C96.2396 31.862 95.9596 31.8223 95.703 31.743C95.4463 31.659 95.2246 31.5353 95.038 31.372C94.8513 31.2087 94.7066 31.0057 94.604 30.763C94.5013 30.5203 94.45 30.238 94.45 29.916C94.45 29.734 94.4803 29.5543 94.541 29.377C94.6016 29.195 94.6996 29.0223 94.835 28.859C94.975 28.6957 95.1546 28.5417 95.374 28.397C95.5933 28.2523 95.8616 28.1263 96.179 28.019C96.501 27.9117 96.8743 27.8253 97.299 27.76C97.7236 27.69 98.209 27.648 98.755 27.634V27.214C98.755 26.7333 98.6523 26.3787 98.447 26.15C98.2416 25.9167 97.9453 25.8 97.558 25.8C97.278 25.8 97.0446 25.8327 96.858 25.898C96.676 25.9633 96.515 26.038 96.375 26.122C96.235 26.2013 96.1066 26.2737 95.99 26.339C95.878 26.4043 95.752 26.437 95.612 26.437C95.4906 26.437 95.388 26.4067 95.304 26.346C95.22 26.2807 95.1523 26.206 95.101 26.122L94.793 25.569ZM103.82 21.348V31.75H102.091V21.348H103.82ZM111.731 24.568V31.75H110.674C110.445 31.75 110.301 31.645 110.24 31.435L110.121 30.861C109.827 31.1597 109.503 31.4023 109.148 31.589C108.793 31.771 108.376 31.862 107.895 31.862C107.503 31.862 107.155 31.7967 106.852 31.666C106.553 31.5307 106.301 31.3417 106.096 31.099C105.891 30.8563 105.734 30.5693 105.627 30.238C105.524 29.902 105.473 29.5333 105.473 29.132V24.568H107.202V29.132C107.202 29.5707 107.302 29.9113 107.503 30.154C107.708 30.392 108.014 30.511 108.42 30.511C108.719 30.511 108.999 30.4457 109.26 30.315C109.521 30.1797 109.769 29.9953 110.002 29.762V24.568H111.731ZM117.239 28.684C116.74 28.7073 116.32 28.7517 115.979 28.817C115.639 28.8777 115.366 28.957 115.16 29.055C114.955 29.153 114.808 29.2673 114.719 29.398C114.631 29.5287 114.586 29.671 114.586 29.825C114.586 30.1283 114.675 30.3453 114.852 30.476C115.034 30.6067 115.27 30.672 115.559 30.672C115.914 30.672 116.22 30.609 116.476 30.483C116.738 30.3523 116.992 30.1563 117.239 29.895V28.684ZM113.277 25.569C114.103 24.813 115.097 24.435 116.259 24.435C116.679 24.435 117.055 24.505 117.386 24.645C117.718 24.7803 117.998 24.9717 118.226 25.219C118.455 25.4617 118.628 25.7533 118.744 26.094C118.866 26.4347 118.926 26.808 118.926 27.214V31.75H118.142C117.979 31.75 117.853 31.7267 117.764 31.68C117.676 31.6287 117.606 31.5283 117.554 31.379L117.4 30.861C117.218 31.0243 117.041 31.169 116.868 31.295C116.696 31.4163 116.516 31.519 116.329 31.603C116.143 31.687 115.942 31.75 115.727 31.792C115.517 31.8387 115.284 31.862 115.027 31.862C114.724 31.862 114.444 31.8223 114.187 31.743C113.931 31.659 113.709 31.5353 113.522 31.372C113.336 31.2087 113.191 31.0057 113.088 30.763C112.986 30.5203 112.934 30.238 112.934 29.916C112.934 29.734 112.965 29.5543 113.025 29.377C113.086 29.195 113.184 29.0223 113.319 28.859C113.459 28.6957 113.639 28.5417 113.858 28.397C114.078 28.2523 114.346 28.1263 114.663 28.019C114.985 27.9117 115.359 27.8253 115.783 27.76C116.208 27.69 116.693 27.648 117.239 27.634V27.214C117.239 26.7333 117.137 26.3787 116.931 26.15C116.726 25.9167 116.43 25.8 116.042 25.8C115.762 25.8 115.529 25.8327 115.342 25.898C115.16 25.9633 114.999 26.038 114.859 26.122C114.719 26.2013 114.591 26.2737 114.474 26.339C114.362 26.4043 114.236 26.437 114.096 26.437C113.975 26.437 113.872 26.4067 113.788 26.346C113.704 26.2807 113.637 26.206 113.585 26.122L113.277 25.569ZM127.704 31.75H125.975V25.863H122.643V29.755C122.643 29.979 122.697 30.154 122.804 30.28C122.916 30.406 123.068 30.469 123.259 30.469C123.366 30.469 123.455 30.4573 123.525 30.434C123.6 30.406 123.663 30.378 123.714 30.35C123.77 30.322 123.819 30.2963 123.861 30.273C123.903 30.245 123.945 30.231 123.987 30.231C124.038 30.231 124.08 30.245 124.113 30.273C124.146 30.2963 124.181 30.3337 124.218 30.385L124.736 31.225C124.484 31.435 124.195 31.5937 123.868 31.701C123.541 31.8083 123.203 31.862 122.853 31.862C122.228 31.862 121.747 31.687 121.411 31.337C121.08 30.9823 120.914 30.4947 120.914 29.874V25.863H120.179C120.086 25.863 120.006 25.8327 119.941 25.772C119.876 25.7113 119.843 25.6203 119.843 25.499V24.813L120.998 24.617L121.362 22.664C121.385 22.5707 121.43 22.4983 121.495 22.447C121.56 22.3957 121.644 22.37 121.747 22.37H122.643V24.631H127.704V31.75ZM128.005 22.447C128.005 22.5963 127.975 22.7387 127.914 22.874C127.853 23.0047 127.772 23.119 127.669 23.217C127.571 23.315 127.452 23.3943 127.312 23.455C127.177 23.511 127.032 23.539 126.878 23.539C126.729 23.539 126.589 23.511 126.458 23.455C126.327 23.3943 126.213 23.315 126.115 23.217C126.017 23.119 125.938 23.0047 125.877 22.874C125.821 22.7387 125.793 22.5963 125.793 22.447C125.793 22.293 125.821 22.1507 125.877 22.02C125.938 21.8847 126.017 21.768 126.115 21.67C126.213 21.5673 126.327 21.488 126.458 21.432C126.589 21.3713 126.729 21.341 126.878 21.341C127.032 21.341 127.177 21.3713 127.312 21.432C127.452 21.488 127.571 21.5673 127.669 21.67C127.772 21.768 127.853 21.8847 127.914 22.02C127.975 22.1507 128.005 22.293 128.005 22.447ZM132.647 24.456C133.179 24.456 133.662 24.5423 134.096 24.715C134.534 24.8877 134.908 25.1327 135.216 25.45C135.528 25.7673 135.769 26.1547 135.937 26.612C136.105 27.0693 136.189 27.5803 136.189 28.145C136.189 28.7143 136.105 29.2277 135.937 29.685C135.769 30.1423 135.528 30.532 135.216 30.854C134.908 31.176 134.534 31.4233 134.096 31.596C133.662 31.7687 133.179 31.855 132.647 31.855C132.11 31.855 131.622 31.7687 131.184 31.596C130.745 31.4233 130.369 31.176 130.057 30.854C129.749 30.532 129.508 30.1423 129.336 29.685C129.168 29.2277 129.084 28.7143 129.084 28.145C129.084 27.5803 129.168 27.0693 129.336 26.612C129.508 26.1547 129.749 25.7673 130.057 25.45C130.369 25.1327 130.745 24.8877 131.184 24.715C131.622 24.5423 132.11 24.456 132.647 24.456ZM132.647 30.525C133.244 30.525 133.685 30.3243 133.97 29.923C134.259 29.5217 134.404 28.9337 134.404 28.159C134.404 27.3843 134.259 26.794 133.97 26.388C133.685 25.982 133.244 25.779 132.647 25.779C132.04 25.779 131.59 25.9843 131.296 26.395C131.006 26.801 130.862 27.389 130.862 28.159C130.862 28.929 131.006 29.517 131.296 29.923C131.59 30.3243 132.04 30.525 132.647 30.525ZM139.125 25.45C139.269 25.3053 139.421 25.1723 139.58 25.051C139.743 24.925 139.913 24.82 140.091 24.736C140.273 24.6473 140.466 24.5797 140.672 24.533C140.877 24.4817 141.101 24.456 141.344 24.456C141.736 24.456 142.083 24.5237 142.387 24.659C142.69 24.7897 142.942 24.9763 143.143 25.219C143.348 25.457 143.502 25.744 143.605 26.08C143.712 26.4113 143.766 26.7777 143.766 27.179V31.75H142.037V27.179C142.037 26.7403 141.936 26.402 141.736 26.164C141.535 25.9213 141.229 25.8 140.819 25.8C140.52 25.8 140.24 25.8677 139.979 26.003C139.717 26.1383 139.47 26.3227 139.237 26.556V31.75H137.508V24.568H138.565C138.789 24.568 138.936 24.673 139.006 24.883L139.125 25.45Z" fill="#DCA700"/>
</g>
<defs>
<linearGradient id="paint0_linear_8672_1323" x1="96.305" y1="91.1455" x2="96.305" y2="166.025" gradientUnits="userSpaceOnUse">
<stop stop-color="#134E78"/>
<stop offset="1" stop-color="#002642"/>
</linearGradient>
<linearGradient id="paint1_linear_8672_1323" x1="172.302" y1="77.7344" x2="172.302" y2="166.025" gradientUnits="userSpaceOnUse">
<stop stop-color="#134E78"/>
<stop offset="1" stop-color="#002642"/>
</linearGradient>
<linearGradient id="paint2_linear_8672_1323" x1="35.9541" y1="126.794" x2="212.758" y2="77.5975" gradientUnits="userSpaceOnUse">
<stop stop-color="#134E78"/>
<stop offset="1" stop-color="#FFC200"/>
</linearGradient>
<clipPath id="clip0_8672_1323">
<rect width="229" height="188.197" fill="white" transform="translate(0 0.75)"/>
</clipPath>
</defs>
</svg>
