<svg width="228" height="145" viewBox="0 0 228 145" fill="none" xmlns="http://www.w3.org/2000/svg">
<rect width="228" height="145" fill="white"/>
<path d="M61.3184 59.021L62.0435 30.574C62.0435 30.574 60.4663 29.131 58.3184 29.521C56.1704 29.911 54.8219 36.3601 53.8184 41.521C53.6279 42.5005 53.8184 42.021 53.3184 44.021C50.6039 62.5495 52.8456 93.5482 53.3184 94.021C54.5931 95.2957 57.5435 76.074 57.5435 76.074L61.3184 59.021Z" fill="#F0EEF7"/>
<path d="M68.3187 95.5215C81.3787 104.785 94.8082 107.201 110.819 107.021C126.068 106.85 141.819 101.521 148.819 97.5215C161.319 90.3784 165.819 79.0215 165.819 79.0215C165.819 79.0215 168.886 87.9491 167.819 94.0215C166.466 101.714 158.319 108.087 153.819 111.021C142.319 118.521 128.779 122.331 110.819 123.021C97.8187 123.521 78.3187 121.132 65.8187 111.021C60.3187 106.573 55.047 101.521 53.3184 94.0215C51.9475 88.0741 57 79.5002 57 79.5002C57 79.5002 60.3028 89.8361 68.3187 95.5215Z" fill="#E4E7F3"/>
<path d="M159.818 57.5213L157.818 30.5212C157.818 30.5212 159.67 28.6313 161.818 29.0213C163.966 29.4113 165.647 36.3959 166.818 41.5213C170.818 59.0213 168.172 93.3136 167.818 94.0212C167.526 94.6057 164.049 81.9468 162.818 77.5212C162.559 76.5883 162.318 76.0213 162.318 76.0213L159.818 57.5213Z" fill="#F0EEF7"/>
<path d="M80.8187 80.5215L89.8187 76.5215C89.8187 76.5215 86.8185 105.521 85.8184 119.521C85.7062 121.092 83.3624 121.33 81.8187 121.021C80.275 120.713 78.5138 120.084 78.3185 118.521C76.8184 106.521 80.8187 80.5215 80.8187 80.5215Z" fill="#E1E4EF"/>
<path d="M139.819 80.0215L130.819 76.0215C130.819 76.0215 133.819 105.021 134.819 119.021C134.931 120.592 137.275 120.83 138.819 120.521C140.362 120.213 142.123 119.584 142.319 118.021C143.819 106.021 139.819 80.0215 139.819 80.0215Z" fill="#E1E4EF"/>
<path d="M60.3182 56.5214C60.318 52.5214 160.818 49.7693 160.818 53.5214C160.818 58.5214 161.522 62.3895 161.818 67.0213C162.213 73.1742 162.818 80.0214 158.818 82.0214C150.995 85.9325 142.88 82.4391 134.818 80.0214C121.875 76.1398 126.818 60.0214 110.818 60.0214C96.318 60.0214 97.818 72.5214 91.818 76.5214C86.5529 80.0314 70.8178 87.5215 62.8181 82.0214C55.8182 77.2086 60.3187 67.1322 60.3182 56.5214Z" fill="#3F3A51"/>
<path d="M59.8185 33.5212C68.8183 13.5212 90.5105 12.8292 111.319 13.0212C131.572 13.2081 151.819 14.0212 159.818 30.5212C165.218 41.6584 166.389 52.5991 157.319 61.0212C150.319 67.5212 139.318 65.5212 125.818 65.0212C119.583 64.7903 120.819 59.5212 110.819 59.5212C99.8184 59.5212 100.318 65.0212 97.3184 65.0212C80.289 65.0212 66.3904 66.6335 61.8182 59.5212C57.3184 52.5212 55.2484 43.6771 59.8185 33.5212Z" fill="#E0DFE4"/>
<path d="M135.318 41.0269C135.318 47.5269 133.751 48.0213 131.818 48.0213C129.318 48.0213 127.318 47.5213 127.318 40.0213C127.318 32.0213 128.818 32.5213 131.318 32.5213C133.818 32.5213 135.318 32.5269 135.318 41.0269Z" fill="#212121"/>
<path d="M114.818 40.0269C114.818 46.5269 112.751 47.5269 110.818 47.5269C108.318 47.5269 106.318 47.5269 106.318 40.0269C106.318 32.0269 108.318 32.0269 110.818 32.0269C113.318 32.0269 114.818 32.0268 114.818 40.0269Z" fill="#212121"/>
<path d="M60.8185 33.0214C65.3184 23.5214 54.8592 40.9934 65.3187 49.0214C72.8187 55.0214 101.679 51.9324 111.319 52.0214C121.267 52.1132 148.319 55.5214 155.319 49.0214C164.395 42.4119 158.292 26.1964 159.819 30.5214C163.033 39.6274 158.819 47.1642 156.819 49.0214C148.819 56.4499 129.35 53.0046 111.319 53.0214C93.0921 53.0383 72.8187 55.5214 64.8188 50.0214C61.0201 47.4098 57.3606 40.3216 60.8185 33.0214Z" fill="#212121"/>
<circle cx="90.8184" cy="61.0215" r="1" fill="#212121"/>
<circle cx="93.8184" cy="61.0215" r="1" fill="#212121"/>
<circle cx="96.8184" cy="61.0215" r="1" fill="#212121"/>
<path d="M138.318 61.0215C138.318 61.8633 137.818 62.5215 134.318 62.5215C130.818 62.5215 129.818 62.0215 129.818 61.0215C129.818 60.0215 131.109 59.0215 134.318 59.0215C137.527 59.0215 138.318 60.1797 138.318 61.0215Z" fill="#212121"/>
<path d="M137.818 61.0215C137.818 61.8785 137.818 62.5215 134.318 62.5215C130.818 62.5215 130.318 62.0215 130.318 61.0215C130.318 60.0215 131.818 59.5215 134.318 59.5215C136.818 59.5215 137.818 60.1644 137.818 61.0215Z" fill="#EBEBEF"/>
<path d="M160.819 54.0215C160.818 54.5215 159.594 55.5215 159.318 55.5215C159.042 55.5215 158.818 54.5215 159.318 53.5215C159.818 52.0215 160.542 52.0215 160.819 52.0215C161.318 52.0215 160.818 53.5215 160.819 54.0215Z" fill="#212121"/>
<path d="M93.8184 40.5212C93.8184 47.0212 91.7514 48.0212 89.8184 48.0212C87.3184 48.0212 85.8182 48.0212 85.8184 40.5212C85.8184 32.5212 87.8854 32.5212 89.8184 32.5212C91.7514 32.5212 93.8184 32.0212 93.8184 40.5212Z" fill="#212121"/>
<path d="M162.318 76.0215L170.818 69.0215L172.818 73.5215L163.818 81.0215L162.318 76.0215Z" fill="#EEE533"/>
<rect x="169.818" y="63.7925" width="38.0968" height="15.4655" transform="rotate(-8.71341 169.818 63.7925)" fill="#EEE533"/>
<path d="M180.73 73.8936C180.986 73.8274 181.206 73.7348 181.39 73.6158C181.572 73.4928 181.719 73.3513 181.831 73.1912C181.947 73.0305 182.023 72.8539 182.061 72.6614C182.102 72.4642 182.104 72.2551 182.068 72.0341C182.036 71.8367 181.971 71.673 181.872 71.5431C181.778 71.4126 181.66 71.3063 181.517 71.2242C181.373 71.1382 181.21 71.0736 181.029 71.0302C180.847 70.9828 180.654 70.9434 180.45 70.9117L180.73 73.8936ZM179.418 67.0799C179.166 67.1454 178.951 67.2331 178.774 67.3429C178.602 67.4521 178.464 67.5759 178.361 67.7143C178.258 67.8527 178.189 68.0017 178.154 68.1614C178.118 68.3171 178.114 68.4759 178.14 68.6378C178.171 68.8273 178.232 68.9876 178.322 69.1188C178.412 69.246 178.524 69.3533 178.66 69.4406C178.796 69.5279 178.949 69.5981 179.12 69.6513C179.291 69.7045 179.474 69.7476 179.67 69.7805L179.418 67.0799ZM180.355 69.8816C180.654 69.926 180.95 69.9771 181.244 70.0347C181.537 70.0923 181.807 70.184 182.054 70.3098C182.302 70.4356 182.513 70.6099 182.687 70.8328C182.864 71.0511 182.983 71.3419 183.042 71.7051C183.1 72.0604 183.095 72.4036 183.027 72.7348C182.96 73.066 182.831 73.3687 182.64 73.6429C182.454 73.9165 182.207 74.1553 181.9 74.3594C181.596 74.5589 181.235 74.7069 180.817 74.8034L180.915 75.8513C180.924 75.9269 180.905 75.9969 180.858 76.0612C180.813 76.1294 180.748 76.1703 180.665 76.1838L180.275 76.2475L180.146 74.9006C179.661 74.9311 179.205 74.8838 178.78 74.7587C178.357 74.629 177.98 74.4392 177.647 74.1895L177.888 73.6518C177.912 73.6032 177.946 73.5612 177.989 73.5259C178.032 73.4905 178.081 73.4683 178.136 73.4593C178.211 73.4471 178.302 73.4707 178.409 73.5303C178.516 73.5899 178.646 73.6558 178.8 73.728C178.958 73.7996 179.139 73.8653 179.343 73.9252C179.551 73.9845 179.792 74.008 180.066 73.9958L179.766 70.8166C179.476 70.7787 179.189 70.7304 178.904 70.6715C178.622 70.612 178.361 70.5147 178.12 70.3797C177.883 70.2441 177.679 70.0605 177.508 69.8291C177.34 69.597 177.225 69.2895 177.163 68.9066C177.116 68.6184 177.125 68.3291 177.192 68.0387C177.261 67.7436 177.387 67.4718 177.569 67.2232C177.752 66.9747 177.99 66.7575 178.284 66.5718C178.577 66.3821 178.926 66.2462 179.33 66.1642L179.25 65.3018C179.242 65.2261 179.258 65.1545 179.3 65.0869C179.346 65.0187 179.412 64.9775 179.499 64.9633L179.89 64.8996L180.003 66.0788C180.422 66.0631 180.794 66.1118 181.121 66.2248C181.451 66.3371 181.752 66.4907 182.023 66.6856L181.832 67.118C181.772 67.2493 181.691 67.3233 181.588 67.34C181.533 67.3491 181.46 67.3366 181.37 67.3028C181.282 67.2643 181.176 67.2209 181.05 67.1724C180.929 67.1233 180.786 67.0798 180.622 67.0417C180.462 67.003 180.282 66.9836 180.083 66.9836L180.355 69.8816ZM185.385 68.5449C185.811 68.3781 186.21 68.2644 186.581 68.2039C187.024 68.1318 187.425 68.1332 187.786 68.2081C188.147 68.2831 188.458 68.4167 188.721 68.609C188.987 68.8006 189.203 69.0431 189.368 69.3363C189.537 69.6288 189.652 69.9587 189.712 70.3259C189.785 70.7759 189.772 71.1954 189.674 71.5844C189.579 71.9727 189.415 72.3196 189.181 72.6252C188.95 72.9263 188.661 73.1761 188.312 73.3748C187.963 73.5735 187.574 73.7079 187.144 73.7781C186.895 73.8186 186.652 73.8319 186.415 73.8179C186.178 73.8078 185.952 73.7778 185.737 73.7277C185.526 73.677 185.327 73.6122 185.14 73.5332C184.953 73.4543 184.785 73.3663 184.635 73.2691L184.887 72.7659C184.942 72.6517 185.026 72.5852 185.141 72.5666C185.22 72.5537 185.314 72.5708 185.423 72.6179C185.531 72.661 185.662 72.7085 185.817 72.7603C185.971 72.8122 186.148 72.8542 186.348 72.8865C186.551 72.9142 186.785 72.9064 187.049 72.8633C187.345 72.8151 187.604 72.7242 187.826 72.5909C188.047 72.4575 188.228 72.2901 188.37 72.0887C188.511 71.8834 188.607 71.651 188.657 71.3914C188.708 71.1318 188.709 70.85 188.659 70.546C188.616 70.2815 188.538 70.0491 188.424 69.8488C188.314 69.6479 188.168 69.4852 187.986 69.361C187.808 69.2361 187.595 69.1511 187.349 69.1062C187.102 69.0613 186.823 69.0642 186.511 69.1151C186.298 69.1498 186.078 69.204 185.851 69.2775C185.628 69.3503 185.402 69.4459 185.174 69.5641L184.479 69.4768L184.513 65.3982L188.534 64.7426L188.609 65.2045C188.634 65.3545 188.607 65.4866 188.528 65.6008C188.453 65.7103 188.302 65.7834 188.077 65.8201L185.413 66.2546L185.385 68.5449ZM196.795 67.7546C196.916 68.4968 196.94 69.1535 196.867 69.7246C196.797 70.2913 196.653 70.7747 196.435 71.1751C196.216 71.5755 195.932 71.8934 195.581 72.1289C195.235 72.3637 194.846 72.5162 194.416 72.5864C193.981 72.6572 193.563 72.6363 193.159 72.5238C192.76 72.4106 192.393 72.1988 192.059 71.8886C191.724 71.5783 191.434 71.1656 191.188 70.6505C190.941 70.1315 190.758 69.5008 190.637 68.7586C190.515 68.0164 190.49 67.36 190.559 66.7895C190.628 66.2189 190.771 65.7335 190.99 65.3331C191.208 64.9288 191.488 64.6095 191.831 64.3753C192.177 64.1405 192.568 63.9877 193.002 63.9169C193.433 63.8467 193.849 63.8679 194.253 63.9805C194.66 64.0924 195.031 64.3054 195.366 64.6196C195.7 64.9299 195.991 65.3446 196.238 65.8636C196.488 66.382 196.674 67.0124 196.795 67.7546ZM195.7 67.9332C195.594 67.2857 195.45 66.7519 195.268 66.3317C195.09 65.9069 194.886 65.5754 194.656 65.3372C194.431 65.0984 194.189 64.9413 193.929 64.8661C193.669 64.7869 193.409 64.7686 193.148 64.8111C192.887 64.8535 192.646 64.9536 192.425 65.1113C192.203 65.2651 192.023 65.491 191.885 65.789C191.747 66.0871 191.659 66.4662 191.621 66.9264C191.585 67.382 191.621 67.9335 191.726 68.581C191.832 69.2284 191.973 69.7626 192.152 70.1834C192.333 70.6036 192.537 70.9331 192.763 71.172C192.988 71.4108 193.231 71.5698 193.491 71.649C193.75 71.7242 194.01 71.7406 194.271 71.6981C194.531 71.6556 194.773 71.5575 194.995 71.4038C195.216 71.2461 195.396 71.0182 195.534 70.7201C195.676 70.4214 195.764 70.0443 195.799 69.5887C195.838 69.1325 195.805 68.5806 195.7 67.9332ZM203.665 66.6345C203.786 67.3767 203.81 68.0334 203.737 68.6046C203.668 69.1712 203.524 69.6547 203.305 70.055C203.087 70.4554 202.802 70.7733 202.451 71.0088C202.105 71.2437 201.716 71.3962 201.286 71.4663C200.852 71.5371 200.433 71.5162 200.029 71.4037C199.63 71.2905 199.263 71.0787 198.929 70.7685C198.595 70.4582 198.304 70.0456 198.058 69.5304C197.812 69.0114 197.628 68.3807 197.507 67.6385C197.386 66.8963 197.36 66.24 197.429 65.6694C197.498 65.0989 197.642 64.6134 197.86 64.213C198.078 63.8087 198.358 63.4895 198.701 63.2553C199.048 63.0204 199.438 62.8676 199.872 62.7968C200.303 62.7266 200.72 62.7478 201.123 62.8604C201.53 62.9723 201.901 63.1854 202.236 63.4996C202.571 63.8098 202.861 64.2245 203.108 64.7435C203.359 65.262 203.544 65.8923 203.665 66.6345ZM202.57 66.8131C202.464 66.1656 202.321 65.6318 202.139 65.2116C201.96 64.7868 201.756 64.4553 201.527 64.2171C201.301 63.9783 201.059 63.8212 200.799 63.746C200.539 63.6668 200.279 63.6485 200.018 63.691C199.758 63.7335 199.517 63.8335 199.295 63.9912C199.073 64.145 198.893 64.3709 198.755 64.669C198.617 64.967 198.529 65.3462 198.491 65.8063C198.456 66.2619 198.491 66.8135 198.596 67.4609C198.702 68.1084 198.844 68.6425 199.022 69.0633C199.204 69.4835 199.407 69.813 199.633 70.0519C199.858 70.2907 200.101 70.4498 200.361 70.5289C200.62 70.6042 200.881 70.6205 201.141 70.5781C201.402 70.5356 201.643 70.4375 201.865 70.2837C202.087 70.126 202.266 69.8981 202.404 69.6001C202.546 69.3014 202.634 68.9242 202.67 68.4686C202.709 68.0124 202.675 67.4605 202.57 66.8131Z" fill="black"/>
</svg>
