<svg width="488" height="191" viewBox="0 0 488 191" fill="none" xmlns="http://www.w3.org/2000/svg">
<rect width="488" height="191" fill="white"/>
<path d="M194.624 122.533C194.624 156.771 160.024 187.248 128.289 184.902C96.5545 182.556 74.6758 156.771 74.6758 122.533C74.6758 88.2956 105.054 59.7891 136.922 59.7891C168.79 59.7891 194.624 88.2956 194.624 122.533Z" fill="#B50909"/>
<path d="M187.243 120.572C187.243 153.74 154.897 180.992 124.99 180.992C95.0828 180.992 74.6758 153.74 74.6758 120.572C74.6758 87.4048 103.184 59.7891 133.091 59.7891C162.999 59.7891 187.243 87.4048 187.243 120.572Z" fill="#FF1C1C"/>
<path d="M178.938 120.159C178.938 149.261 151.1 173.172 125.36 173.172C99.6201 173.172 82.0566 149.261 82.0566 120.159C82.0566 91.0572 106.593 66.8267 132.332 66.8267C158.072 66.8267 178.938 91.0572 178.938 120.159Z" fill="white"/>
<path d="M170.635 120.92C170.635 146.171 147.568 166.917 126.241 166.917C104.914 166.917 90.3613 146.171 90.3613 120.92C90.3613 95.6701 110.691 74.6465 132.018 74.6465C153.346 74.6465 170.635 95.6701 170.635 120.92Z" fill="#FF1C1C"/>
<path d="M162.33 120.504C162.33 141.261 144.036 158.315 127.121 158.315C110.207 158.315 98.665 141.261 98.665 120.504C98.665 99.7479 114.789 82.4658 131.703 82.4658C148.618 82.4658 162.33 99.7479 162.33 120.504Z" fill="white"/>
<path d="M155.872 120.486C155.872 137.819 141.555 152.06 128.317 152.06C115.079 152.06 106.047 137.819 106.047 120.486C106.047 103.153 118.665 88.7217 131.903 88.7217C145.141 88.7217 155.872 103.153 155.872 120.486Z" fill="#FF1C1C"/>
<path d="M148.489 120.859C148.489 134.982 138.149 146.586 128.589 146.586C119.028 146.586 112.505 134.982 112.505 120.859C112.505 106.736 121.618 94.9771 131.179 94.9771C140.739 94.9771 148.489 106.736 148.489 120.859Z" fill="white"/>
<path d="M142.954 120.829C142.954 129.388 136.06 136.421 129.687 136.421C123.313 136.421 118.964 129.388 118.964 120.829C118.964 112.269 125.039 105.143 131.413 105.143C137.787 105.143 142.954 112.269 142.954 120.829Z" fill="#FF1C1C"/>
<path d="M118.965 112.18L123.578 115.308L129.114 117.654L122.655 116.872H116.196C116.196 116.872 106.047 115.308 98.6655 112.962C97.5339 112.602 95.8975 111.789 95.8975 111.789C95.8975 111.789 97.9543 110.893 98.2042 109.834C98.4276 108.887 97.2815 107.488 97.2815 107.488C97.2815 107.488 98.9936 106.849 100.05 107.097C108.354 109.052 118.965 112.18 118.965 112.18Z" fill="#F4B151"/>
<path d="M46.9948 91.8491L55.2989 95.3679V103.187L44.6881 105.533L37.3066 98.1048L46.9948 91.8491Z" fill="#0F4164"/>
<path d="M45.1493 96.9321L97.2809 107.489C97.2809 107.489 98.8409 108.821 98.6649 109.834C98.46 111.014 95.8968 111.789 95.8968 111.789L44.2266 100.451L41.9199 98.1051L45.1493 96.9321Z" fill="#002642"/>
<path d="M43.3047 92.2402L53.9155 82.4658L72.3692 92.2402L82.98 105.924L48.3794 98.4959L43.3047 92.2402Z" fill="#134E78"/>
<path d="M40.2182 104.444L44.4627 117.229L66.1378 115.588L82.906 107.453L48.0834 100.811L40.2182 104.444Z" fill="#134E78"/>
<path d="M400.684 124.245C400.684 157.618 366.01 187.325 334.207 185.038C302.404 182.752 280.479 157.618 280.479 124.245C280.479 90.8713 310.921 63.0845 342.858 63.0845C374.795 63.0845 400.684 90.8713 400.684 124.245Z" fill="#B50909"/>
<path d="M393.287 122.333C393.287 154.664 360.872 181.227 330.9 181.227C300.929 181.227 280.479 154.664 280.479 122.333C280.479 90.003 309.048 63.0845 339.019 63.0845C368.991 63.0845 393.287 90.003 393.287 122.333Z" fill="#FF1C1C"/>
<path d="M384.965 121.93C384.965 150.298 357.067 173.605 331.272 173.605C305.477 173.605 287.876 150.298 287.876 121.93C287.876 93.5632 312.465 69.9443 338.259 69.9443C364.054 69.9443 384.965 93.5632 384.965 121.93Z" fill="white"/>
<path d="M376.643 122.672C376.643 147.285 353.527 167.507 332.154 167.507C310.781 167.507 296.197 147.285 296.197 122.672C296.197 98.0592 316.571 77.5664 337.944 77.5664C359.316 77.5664 376.643 98.0592 376.643 122.672Z" fill="#FF1C1C"/>
<path d="M368.321 122.267C368.321 142.499 349.988 159.123 333.037 159.123C316.086 159.123 304.52 142.499 304.52 122.267C304.52 102.034 320.678 85.1885 337.629 85.1885C354.58 85.1885 368.321 102.034 368.321 122.267Z" fill="white"/>
<path d="M361.849 122.248C361.849 139.144 347.501 153.025 334.235 153.025C320.969 153.025 311.917 139.144 311.917 122.248C311.917 105.353 324.563 91.2861 337.828 91.2861C351.094 91.2861 361.849 105.353 361.849 122.248Z" fill="#FF1C1C"/>
<path d="M354.451 122.613C354.451 136.379 344.089 147.69 334.508 147.69C324.927 147.69 318.39 136.379 318.39 122.613C318.39 108.846 327.523 97.3843 337.103 97.3843C346.684 97.3843 354.451 108.846 354.451 122.613Z" fill="white"/>
<path d="M348.903 122.583C348.903 130.926 341.995 137.781 335.608 137.781C329.221 137.781 324.862 130.926 324.862 122.583C324.862 114.24 330.951 107.293 337.338 107.293C343.726 107.293 348.903 114.24 348.903 122.583Z" fill="#FF1C1C"/>
<path d="M317.465 157.599L322.088 160.648L327.636 162.934L321.164 162.172H314.691C314.691 162.172 304.52 160.648 297.123 158.361C295.989 158.01 294.349 157.218 294.349 157.218C294.349 157.218 296.41 156.344 296.66 155.312C296.884 154.389 295.736 153.025 295.736 153.025C295.736 153.025 297.451 152.402 298.51 152.644C306.832 154.55 317.465 157.599 317.465 157.599Z" fill="#F4B151"/>
<path d="M245.342 137.781L253.664 141.211V148.833L243.03 151.12L235.633 143.879L245.342 137.781Z" fill="#0F4164"/>
<path d="M243.492 142.736L295.735 153.026C295.735 153.026 297.299 154.325 297.122 155.312C296.917 156.462 294.348 157.218 294.348 157.218L242.568 146.166L240.256 143.879L243.492 142.736Z" fill="#002642"/>
<path d="M241.643 138.162L252.276 128.635L270.769 138.162L281.403 151.501L246.728 144.26L241.643 138.162Z" fill="#134E78"/>
<path d="M238.55 150.058L242.803 162.52L264.525 160.921L281.329 152.991L246.432 146.517L238.55 150.058Z" fill="#134E78"/>
<path d="M71.9084 18.8189L110.203 15.7504H111.868L113.95 17.796L115.198 16.7732L166.813 13.7047H178.884L185.544 13.0247L208.854 12L209.27 12.3409L208.438 16.4323L209.687 20.5236L208.438 24.9558L208.022 44.3896L201.778 46.0943L207.189 47.1171L208.438 47.799L210.103 61.4367L187.209 60.073L180.965 58.7092L174.306 57.6864L169.727 59.732L118.112 56.3226L118.528 55.9817L121.442 54.2769L114.366 56.3226L78.1522 53.936L72.3247 43.3668L73.5734 40.6392L71.4922 31.7747L77.7359 25.9787L73.1572 23.933L71.9084 18.8189Z" fill="#644B39"/>
<path d="M69.8271 17.8169L110.203 15.7504L111.452 17.8169L114.782 15.7504L164.316 13.7047H178.884L184.712 12.6819L208.854 12L207.189 15.7504L208.646 19.8417L207.189 23.5921V43.0258L199.28 44.7305L207.189 47.1171L208.646 60.0748L180.965 58.7092L171.808 57.3454L168.062 58.7092L118.112 55.9817L120.193 53.6765L112.284 55.9817L69.8271 53.6765L70.6596 42.3439L69.8271 39.6164V30.07L75.2384 25.9787L69.8271 24.6149V17.8169Z" fill="#755C49"/>
<path d="M91.9023 36.3126C92.2474 36.2997 92.5465 36.2465 92.7995 36.1529C93.0524 36.0548 93.2596 35.9233 93.421 35.7585C93.5868 35.5888 93.7071 35.3882 93.7817 35.1566C93.8561 34.9203 93.8875 34.6599 93.8759 34.3755C93.8648 34.1051 93.8129 33.8618 93.72 33.6458C93.6271 33.4298 93.4936 33.248 93.3194 33.1004C93.1452 32.9528 92.9283 32.8442 92.6686 32.7745C92.4086 32.7002 92.1038 32.6695 91.754 32.6826L90.348 32.7351L90.4963 36.3651L91.9023 36.3126ZM91.6946 31.2278C92.3708 31.2025 92.9593 31.2599 93.4601 31.4C93.9609 31.54 94.378 31.7463 94.7114 32.0187C95.0448 32.2911 95.2965 32.6226 95.4666 33.0132C95.6414 33.4036 95.7383 33.8342 95.7576 34.3052C95.7776 34.7948 95.7144 35.2478 95.5679 35.6642C95.4212 36.076 95.1907 36.4348 94.8763 36.7408C94.5618 37.0467 94.1608 37.2906 93.6731 37.4722C93.1901 37.6537 92.6199 37.7568 91.9623 37.7813L90.5563 37.8339L90.7017 41.3939L88.82 41.4643L88.4069 31.3507L91.6946 31.2278ZM99.0187 32.4531L99.1332 35.2578L102.673 35.1255L102.732 36.5733L99.1924 36.7055L99.3092 39.5662L103.8 39.3983L103.861 40.9021L97.4819 41.1405L97.0688 31.0269L103.448 30.7885L103.51 32.2852L99.0187 32.4531ZM108.369 35.4239C108.724 35.4106 109.03 35.3548 109.287 35.2565C109.549 35.158 109.761 35.0286 109.923 34.8685C110.089 34.7035 110.21 34.5122 110.285 34.2946C110.36 34.0769 110.392 33.8399 110.382 33.5835C110.361 33.0705 110.175 32.6829 109.823 32.4205C109.476 32.158 108.955 32.0397 108.26 32.0656L107.057 32.1106L107.194 35.4678L108.369 35.4239ZM113.427 40.5445L111.727 40.6081C111.405 40.6201 111.167 40.5029 111.012 40.2565L108.753 37.0977C108.669 36.9795 108.577 36.8965 108.477 36.8489C108.381 36.8011 108.24 36.7807 108.054 36.7876L107.249 36.8177L107.411 40.7694L105.529 40.8397L105.116 30.7262L108.201 30.6109C108.886 30.5852 109.477 30.6355 109.972 30.7618C110.472 30.8832 110.884 31.0663 111.207 31.3111C111.534 31.5557 111.78 31.8547 111.944 32.2082C112.108 32.5569 112.198 32.9458 112.216 33.3748C112.23 33.7152 112.192 34.0388 112.101 34.3458C112.016 34.6525 111.883 34.933 111.701 35.1873C111.525 35.4414 111.301 35.6669 111.029 35.8639C110.761 36.0607 110.452 36.2193 110.102 36.3398C110.226 36.4052 110.342 36.485 110.448 36.579C110.555 36.6685 110.652 36.7769 110.742 36.9043L113.427 40.5445ZM116.056 31.8163L116.178 34.8098L119.969 34.6681L120.031 36.1719L116.239 36.3136L116.408 40.4331L114.519 40.5037L114.106 30.3902L120.485 30.1517L120.546 31.6485L116.056 31.8163ZM131.787 34.7938C131.817 35.5352 131.722 36.2276 131.501 36.8709C131.284 37.5095 130.961 38.0679 130.532 38.5463C130.103 39.0246 129.58 39.4061 128.961 39.6908C128.342 39.9707 127.647 40.1251 126.878 40.1539C126.113 40.1825 125.411 40.0803 124.771 39.8474C124.13 39.6098 123.575 39.2686 123.103 38.8239C122.637 38.379 122.267 37.8465 121.994 37.2262C121.721 36.6013 121.57 35.9182 121.539 35.1768C121.509 34.4354 121.605 33.7454 121.826 33.1067C122.047 32.4633 122.372 31.9024 122.801 31.4241C123.235 30.9456 123.761 30.5663 124.38 30.2863C124.999 30.0017 125.691 29.8451 126.456 29.8165C126.969 29.7973 127.454 29.8399 127.911 29.9442C128.368 30.0439 128.79 30.1962 129.177 30.4013C129.563 30.6016 129.912 30.8524 130.223 31.1537C130.539 31.4501 130.81 31.7856 131.035 32.1601C131.26 32.5346 131.436 32.9436 131.562 33.3872C131.692 33.8307 131.767 34.2995 131.787 34.7938ZM129.863 34.8657C129.841 34.3108 129.746 33.817 129.579 33.3843C129.411 32.9469 129.184 32.5795 128.896 32.282C128.608 31.9846 128.263 31.7617 127.86 31.6133C127.462 31.4647 127.015 31.3997 126.521 31.4182C126.027 31.4366 125.585 31.5349 125.195 31.7129C124.81 31.8907 124.484 32.1387 124.216 32.4569C123.954 32.775 123.757 33.1583 123.626 33.6068C123.495 34.0507 123.44 34.5501 123.463 35.1049C123.486 35.6598 123.581 36.1559 123.748 36.5933C123.915 37.026 124.142 37.3911 124.43 37.6886C124.722 37.9812 125.068 38.2018 125.466 38.3503C125.869 38.4987 126.318 38.5637 126.812 38.5452C127.306 38.5267 127.746 38.4286 128.131 38.2507C128.521 38.0727 128.847 37.827 129.11 37.5137C129.372 37.1956 129.569 36.8147 129.701 36.3708C129.832 35.9223 129.886 35.4206 129.863 34.8657ZM136.486 34.373C136.841 34.3597 137.147 34.3039 137.404 34.2056C137.667 34.1071 137.878 33.9777 138.04 33.8176C138.206 33.6526 138.327 33.4613 138.402 33.2437C138.477 33.026 138.509 32.789 138.499 32.5325C138.478 32.0196 138.292 31.632 137.94 31.3696C137.593 31.1071 137.072 30.9888 136.377 31.0147L135.174 31.0597L135.311 34.4169L136.486 34.373ZM141.544 39.4936L139.844 39.5572C139.522 39.5692 139.284 39.452 139.129 39.2056L136.87 36.0468C136.786 35.9285 136.694 35.8456 136.594 35.798C136.498 35.7502 136.357 35.7297 136.171 35.7367L135.366 35.7668L135.528 39.7185L133.646 39.7888L133.233 29.6752L136.318 29.5599C137.003 29.5343 137.594 29.5846 138.09 29.7109C138.59 29.8323 139.001 30.0154 139.324 30.2602C139.652 30.5048 139.897 30.8038 140.061 31.1572C140.225 31.506 140.315 31.8949 140.333 32.3239C140.347 32.6643 140.309 32.9879 140.219 33.2948C140.133 33.6016 140 33.8821 139.819 34.1364C139.642 34.3905 139.418 34.616 139.146 34.813C138.878 35.0098 138.569 35.1684 138.219 35.2889C138.343 35.3543 138.459 35.434 138.565 35.5281C138.672 35.6176 138.77 35.726 138.859 35.8534L141.544 39.4936ZM153.191 28.9293L153.604 39.0429L151.946 39.1048L151.68 32.5723C151.669 32.3111 151.671 32.0285 151.687 31.7244L148.865 37.5809C148.731 37.8614 148.515 38.0072 148.217 38.0184L147.951 38.0283C147.653 38.0394 147.426 37.9102 147.27 37.6405L143.943 31.9928C143.963 32.1462 143.981 32.2973 143.996 32.4462C144.012 32.595 144.022 32.7324 144.027 32.8583L144.294 39.3908L142.636 39.4528L142.223 29.3392L143.643 29.2862C143.727 29.283 143.799 29.2827 143.86 29.2851C143.921 29.2875 143.975 29.2971 144.022 29.314C144.074 29.3307 144.12 29.3594 144.159 29.4C144.203 29.4404 144.245 29.4948 144.285 29.5634L147.543 35.0665C147.628 35.2127 147.707 35.3639 147.779 35.52C147.855 35.6759 147.929 35.8366 148.002 36.002C148.06 35.827 148.121 35.659 148.184 35.4978C148.247 35.332 148.316 35.173 148.389 35.0209L151.147 29.3069C151.181 29.2356 151.219 29.1781 151.259 29.1346C151.299 29.0911 151.342 29.0591 151.388 29.0387C151.439 29.0181 151.494 29.0044 151.555 28.9975C151.615 28.9905 151.687 28.9855 151.771 28.9824L153.191 28.9293ZM161.049 34.9399L159.681 31.6218C159.614 31.4748 159.544 31.3 159.47 31.0973C159.397 30.8945 159.322 30.6755 159.247 30.4401C159.196 30.6802 159.143 30.9064 159.086 31.1186C159.029 31.3262 158.973 31.5081 158.919 31.6642L157.832 35.0602L161.049 34.9399ZM164.528 38.6346L163.073 38.6889C162.91 38.695 162.775 38.6604 162.669 38.5849C162.563 38.5048 162.482 38.4051 162.426 38.2858L161.586 36.2508L157.396 36.4074L156.725 38.4989C156.692 38.6076 156.624 38.7082 156.52 38.8008C156.417 38.8934 156.285 38.9426 156.127 38.9486L154.658 39.0035L158.225 28.7411L160.142 28.6695L164.528 38.6346ZM173.689 28.1632L174.102 38.2767L173.137 38.3128C172.988 38.3184 172.861 38.2998 172.756 38.257C172.656 38.2093 172.557 38.129 172.459 38.0159L166.902 31.4709C166.943 31.7776 166.969 32.0615 166.979 32.3226L167.233 38.5335L165.575 38.5954L165.162 28.4819L166.148 28.445C166.228 28.442 166.295 28.4442 166.352 28.4514C166.412 28.4538 166.464 28.4659 166.507 28.4876C166.555 28.5045 166.6 28.5332 166.644 28.5736C166.687 28.6093 166.736 28.6589 166.79 28.7222L172.369 35.2944C172.348 35.1317 172.33 34.9713 172.314 34.8131C172.298 34.6549 172.288 34.5082 172.282 34.373L172.031 28.2251L173.689 28.1632ZM183.203 35.5479C183.306 35.5441 183.398 35.5803 183.481 35.6566L184.255 36.4332C183.866 36.9568 183.376 37.365 182.785 37.658C182.199 37.9507 181.487 38.1128 180.647 38.1442C179.896 38.1722 179.215 38.0693 178.603 37.8353C177.995 37.6012 177.47 37.2635 177.027 36.8225C176.584 36.3814 176.235 35.848 175.981 35.2224C175.731 34.5967 175.591 33.9084 175.56 33.1577C175.529 32.3977 175.622 31.6984 175.839 31.0598C176.056 30.4166 176.374 29.8584 176.794 29.385C177.218 28.9115 177.73 28.5375 178.331 28.2628C178.931 27.9836 179.602 27.8301 180.344 27.8023C181.081 27.7748 181.739 27.8716 182.317 28.0928C182.901 28.3139 183.401 28.6127 183.818 28.9894L183.224 29.8872C183.189 29.9445 183.142 29.9953 183.083 30.0396C183.029 30.0836 182.951 30.1076 182.848 30.1114C182.778 30.114 182.705 30.0981 182.629 30.0636C182.553 30.0244 182.469 29.9785 182.378 29.9258C182.287 29.8685 182.182 29.8071 182.062 29.7415C181.943 29.6759 181.805 29.618 181.649 29.5678C181.493 29.5129 181.311 29.4707 181.104 29.4411C180.902 29.4066 180.668 29.3943 180.402 29.4043C179.95 29.4212 179.538 29.5183 179.167 29.6956C178.801 29.8681 178.488 30.1132 178.23 30.4311C177.972 30.7443 177.778 31.1252 177.647 31.5737C177.515 32.0176 177.461 32.5216 177.484 33.0858C177.507 33.6547 177.607 34.1576 177.784 34.5947C177.965 35.0315 178.2 35.3963 178.487 35.6891C178.775 35.9819 179.108 36.203 179.488 36.3522C179.868 36.4968 180.272 36.5611 180.701 36.545C180.957 36.5355 181.188 36.5128 181.392 36.4772C181.6 36.4414 181.79 36.3899 181.96 36.3229C182.135 36.2556 182.297 36.1725 182.447 36.0735C182.602 35.9697 182.753 35.8449 182.901 35.6993C182.946 35.6556 182.994 35.6211 183.044 35.5959C183.094 35.566 183.147 35.55 183.203 35.5479ZM187.141 29.1594L187.255 31.9641L190.795 31.8318L190.854 33.2796L187.314 33.4119L187.431 36.2725L191.922 36.1046L191.984 37.6084L185.604 37.8468L185.191 27.7333L191.57 27.4948L191.632 28.9916L187.141 29.1594Z" fill="black"/>
<path d="M282.805 18.8189L321.1 15.7504H322.765L324.846 17.796L326.095 16.7732L377.71 13.7047H389.781L396.441 13.0247L419.751 12L420.167 12.3409L419.334 16.4323L420.583 20.5236L419.334 24.9558L418.918 44.3896L412.674 46.0943L418.086 47.1171L419.334 47.799L420.999 61.4367L398.106 60.073L391.862 58.7092L385.202 57.6864L380.623 59.732L329.008 56.3226L329.425 55.9817L332.338 54.2769L325.262 56.3226L289.049 53.936L283.221 43.3668L284.47 40.6392L282.389 31.7747L288.632 25.9787L284.054 23.933L282.805 18.8189Z" fill="#644B39"/>
<path d="M280.725 17.8169L321.101 15.7504L322.349 17.8169L325.679 15.7504L375.213 13.7047H389.782L395.609 12.6819L419.752 12L418.087 15.7504L419.543 19.8417L418.087 23.5921V43.0258L410.178 44.7305L418.087 47.1171L419.543 60.0748L391.863 58.7092L382.705 57.3454L378.959 58.7092L329.009 55.9817L331.091 53.6765L323.182 55.9817L280.725 53.6765L281.557 42.3439L280.725 39.6164V30.07L286.136 25.9787L280.725 24.6149V17.8169Z" fill="#755C49"/>
<path d="M332.657 35.9875C333.002 35.9729 333.3 35.9182 333.553 35.8235C333.805 35.7241 334.012 35.5916 334.172 35.426C334.338 35.2556 334.457 35.0544 334.53 34.8224C334.604 34.5858 334.634 34.3253 334.621 34.0409C334.608 33.7705 334.555 33.5275 334.461 33.312C334.367 33.0964 334.233 32.9152 334.058 32.7685C333.883 32.6217 333.666 32.5141 333.406 32.4457C333.145 32.3726 332.84 32.3435 332.491 32.3582L331.085 32.4176L331.251 36.0468L332.657 35.9875ZM332.424 30.9038C333.1 30.8752 333.689 30.9298 334.191 31.0674C334.692 31.205 335.11 31.4092 335.445 31.68C335.78 31.9508 336.033 32.2811 336.205 32.6709C336.381 33.0604 336.481 33.4906 336.502 33.9615C336.524 34.4509 336.463 34.9043 336.319 35.3214C336.174 35.7338 335.945 36.0938 335.633 36.4013C335.32 36.7088 334.92 36.9545 334.433 37.1385C333.951 37.3224 333.381 37.4282 332.724 37.4559L331.318 37.5153L331.481 41.0746L329.599 41.154L329.137 31.0425L332.424 30.9038ZM341.074 35.3589C341.428 35.3439 341.734 35.2866 341.991 35.187C342.252 35.0872 342.464 34.9569 342.624 34.7959C342.79 34.6302 342.909 34.4383 342.984 34.2203C343.058 34.0023 343.089 33.7651 343.077 33.5087C343.054 32.9959 342.866 32.6092 342.513 32.3485C342.164 32.0876 341.643 31.9719 340.948 32.0012L339.745 32.052L339.899 35.4085L341.074 35.3589ZM346.155 40.455L344.456 40.5268C344.134 40.5403 343.895 40.4243 343.739 40.1787L341.465 37.0308C341.38 36.913 341.288 36.8305 341.188 36.7833C341.092 36.736 340.951 36.7162 340.765 36.7241L339.96 36.7581L340.141 40.7089L338.259 40.7884L337.797 30.6769L340.882 30.5467C341.567 30.5178 342.158 30.5652 342.654 30.6891C343.155 30.8081 343.567 30.9892 343.891 31.2324C344.22 31.4754 344.467 31.7732 344.633 32.1259C344.798 32.4739 344.891 32.8623 344.91 33.2912C344.926 33.6315 344.889 33.9553 344.8 34.2627C344.716 34.5698 344.584 34.851 344.404 35.1061C344.229 35.3611 344.006 35.5877 343.735 35.786C343.468 35.9841 343.16 36.1442 342.811 36.2664C342.935 36.3312 343.051 36.4104 343.158 36.504C343.265 36.5929 343.363 36.7008 343.453 36.8278L346.155 40.455ZM349.136 40.3292L347.248 40.4089L346.786 30.2975L348.674 30.2177L349.136 40.3292ZM358.236 37.5559C358.339 37.5515 358.431 37.5873 358.514 37.6632L359.292 38.4361C358.905 38.9616 358.417 39.3722 357.828 39.668C357.243 39.9635 356.532 40.129 355.692 40.1645C354.942 40.1962 354.26 40.0965 353.647 39.8655C353.038 39.6343 352.511 39.2992 352.066 38.8603C351.621 38.4213 351.27 37.8897 351.012 37.2653C350.759 36.6408 350.616 35.9532 350.582 35.2027C350.547 34.4428 350.636 33.7431 350.85 33.1035C351.064 32.4592 351.379 31.8994 351.796 31.4241C352.218 30.9485 352.729 30.572 353.328 30.2945C353.927 30.0123 354.598 29.8555 355.339 29.8242C356.076 29.7931 356.734 29.8868 357.314 30.1052C357.898 30.3234 358.4 30.6198 358.819 30.9945L358.23 31.8951C358.195 31.9527 358.148 32.0037 358.089 32.0482C358.035 32.0925 357.957 32.1168 357.854 32.1212C357.785 32.1241 357.711 32.1085 357.635 32.0744C357.559 32.0356 357.475 31.9901 357.384 31.9379C357.292 31.881 357.187 31.8201 357.067 31.7551C356.947 31.6901 356.809 31.6328 356.653 31.5834C356.496 31.5293 356.314 31.4879 356.107 31.4593C355.905 31.4258 355.671 31.4146 355.405 31.4259C354.953 31.445 354.542 31.5441 354.172 31.7232C353.806 31.8974 353.495 32.1441 353.238 32.4632C352.982 32.7776 352.789 33.1594 352.66 33.6086C352.531 34.0531 352.479 34.5574 352.505 35.1215C352.531 35.6902 352.633 36.1927 352.812 36.6288C352.995 37.0648 353.232 37.4285 353.521 37.7199C353.809 38.0113 354.144 38.2307 354.525 38.3782C354.905 38.5209 355.309 38.5832 355.738 38.5651C355.995 38.5543 356.225 38.5306 356.429 38.4939C356.637 38.4571 356.827 38.4047 356.996 38.3369C357.171 38.2688 357.333 38.1849 357.482 38.0851C357.636 37.9805 357.787 37.8551 357.935 37.7087C357.979 37.6648 358.027 37.6301 358.077 37.6046C358.127 37.5745 358.18 37.5582 358.236 37.5559ZM362.142 31.1484L362.271 33.9525L365.809 33.8031L365.875 35.2506L362.337 35.4L362.467 38.26L366.957 38.0705L367.026 39.5739L360.648 39.8432L360.186 29.7317L366.564 29.4624L366.632 30.9589L362.142 31.1484Z" fill="black"/>
</svg>
