<svg width="229" height="219" viewBox="0 0 229 219" fill="none" xmlns="http://www.w3.org/2000/svg">
<g clip-path="url(#clip0_8602_1116)">
<rect width="229" height="219" fill="white"/>
<path d="M29.4998 44C29.4179 42.816 28.3849 47 36 49C42.9876 50.8352 57.9874 51.9999 79.0001 51.9999C128.51 51.9999 127 41.5 126.5 44C123.367 59.6634 124.695 63.0434 123.383 79.9139C123.121 83.2818 122.843 86.6506 122.58 90.0134C121.62 102.27 120.678 114.447 119.768 126.204C118.354 144.479 93.4865 144.329 75.9935 143.878C67.56 143.66 37.6195 144.573 36.2349 127.887C34.6287 108.529 31.5105 73.0359 29.4998 44Z" fill="#FFF0C2"/>
<path d="M126.5 44C126.5 50 117.451 52 78.8974 52C53.1686 52 29.5001 51.0091 29.5001 44.0046C29.5001 37 53.7714 34.5 79.5001 34.5C105.229 34.5 126.5 38 126.5 44Z" fill="#FFDD76"/>
<path d="M42.2589 85.8054H115.351C115.351 85.8054 121.076 76.1287 121.776 70.2352C122.454 64.5274 118.965 56.3484 118.965 56.3484L38.6444 64.7647C38.6444 64.7647 36.6782 70.6254 37.038 74.4434C37.4999 79.3442 42.2589 85.8054 42.2589 85.8054Z" fill="white"/>
<path d="M105 25C105 25.6257 105.006 26.448 105.331 26.7896C105.567 27.0389 105.711 27.3671 105.5 27.9999C105.873 28.5894 104.944 29.5329 105.5 30.4999C105.732 30.9034 105.89 30.1317 106.5 30.5C107.033 30.8214 107.5 32.5 108.177 32.5C108.551 33.0222 108.694 34.0264 109 34.4999C110.277 36.4715 110.937 37.4117 108.523 37.4117C104.437 37.4117 95.7764 43.1168 91.5001 39.9999C89.9733 38.8871 91.4032 29.9355 90.4512 28.5746C89 26.4999 91.0098 26.661 90.9999 25.4999C90.9921 24.5751 90.4085 23.8486 90.4511 23.4999C90.6188 22.1276 91.1274 23.493 92.0001 22.6964C92.8925 21.8818 94.0001 21.4999 96.5001 21.8245C97.7347 21.8245 98.5684 22.0507 99.5001 22C100.471 21.9471 101.527 21.6212 102.196 21.8246C103.16 22.1181 103.829 22.6964 103.5 24C103.5 25 105 24.1186 105 25Z" fill="#C68B3B"/>
<ellipse cx="74.7887" cy="44.9864" rx="4.41764" ry="4.62895" fill="#2B4578"/>
<path d="M104.561 34.4149C104.121 34.2603 104.005 34.6062 103.684 34.4968C103.45 34.4176 102.697 33.0816 102.369 33.119C102.076 33.1524 101.353 32.7796 101.137 32.6861C100.777 32.5308 99.0571 30.8164 99.2657 30.6049C99.8697 29.5098 100.554 30.831 101.463 30.9866C102.503 31.1646 103.875 31.7054 104.171 31.6984C105.384 31.6697 106.672 32.52 107.249 33.0737C107.803 33.6037 106.743 34.1542 106.558 34.3636C106.459 34.4751 106.485 34.9974 105.471 34.4654C104.606 34.0115 104.831 34.5097 104.561 34.4149Z" fill="#D49A4C"/>
<ellipse cx="107.72" cy="39.095" rx="6.02406" ry="4.62895" fill="#2B4578"/>
<path d="M99.6882 74.8642C99.6882 78.1179 86.304 74.8642 79.2064 74.8642C72.1088 74.8642 66.3551 72.2265 66.3551 68.9728C66.3551 65.7191 68.896 60.5565 75.9936 60.5565C83.0912 60.5565 99.6882 71.6105 99.6882 74.8642Z" fill="#731942"/>
<ellipse cx="82.0176" cy="24.3665" rx="3.61444" ry="3.36651" fill="#2B4578"/>
<path d="M81.2144 83.7013C81.2144 85.0485 75.1421 84.4299 69.5679 84.1221C65.5257 83.899 62.513 84.0307 61.5001 83.5C60.8208 82.9662 58.9879 82.7861 59.0001 82C59.0123 81.2139 59.5381 81.0426 58.5001 80.5C57.6602 80.0609 56.6361 79.8967 55.5001 80C54.2099 80.1174 54.1315 79.0139 53.5001 78.5C53.1159 78.1873 51.8973 78.4179 51.8973 77.3891C51.8973 68.9728 60.2169 66.8687 63.5439 66.8687C78.4032 64.7646 70.6866 71.0769 73.9856 72.3393C75.4981 72.9182 77.4541 71.5545 78.4032 72.3393C83.0727 76.2005 81.2144 82.4251 81.2144 83.7013Z" fill="#A82A64"/>
<path d="M67.5 73C65.5681 74.1635 63.5019 75.4616 61.5 76.5C58.8445 77.8774 59.538 81.0427 58.5 80.5001C57.6601 80.061 56.6359 79.8967 55.5 80.0001C54.2098 80.1174 54.1313 79.014 53.5 78.5001C53.1158 78.1873 51.8972 78.418 51.8972 77.3892C51.8971 68.9728 60.2167 66.8687 63.5437 66.8687C78.4031 64.7647 71 71.0001 73.9854 72.3394C75.4466 72.9949 68.8719 72.1738 67.5 73Z" fill="#A4255F"/>
<ellipse cx="70.3711" cy="28.5746" rx="4.81925" ry="4.20814" fill="#2B4578"/>
<path d="M94.0657 35.7285C90.8528 43.7239 80.7773 40.3574 74.7887 40.3574C68.8001 40.3574 67.1582 38.2726 67.1582 33.6244C67.1582 32.464 67.9993 31.8622 69 31.2807C69.7277 30.8578 70.8655 31.1086 71.5 30.5C71.7841 30.2275 71 30 72 28.9798C72.5062 28.4234 72.4726 27.5324 73 27C73.1805 26.8178 75 25 75.5 25.7954C76.2518 25.7954 77.0255 25.2081 78.0015 25.2081C78.6824 25.5054 79 26 79.5 26C81 25.7954 81.8895 26.4584 83 26.5C83.6039 26.5226 85.3092 26.031 86 26C86.7281 25.9674 86.2299 26.3774 87 26.4453C88.0968 26.542 89.1153 26.764 90.0496 27.3122C93.6246 29.4099 95.6721 33.2036 94.0657 35.7285Z" fill="#C68B3B"/>
<path d="M76.771 38.0798C76.7628 38.1897 77.4322 37.9419 77.771 38.0797C78.0165 38.1795 77.8509 38.6974 78.271 38.6626C78.647 38.6314 79.053 38.9635 79.271 39.0797C79.6328 39.2726 79.6336 39.3365 79.271 39.5797C78.4252 39.7489 77.8054 40.2883 76.771 40.0797C75.7377 39.8713 74.6378 39.0797 74.2711 39.0797C72.7711 39.0797 72.6985 39.2481 72.2711 38.5798C71.862 37.94 73.4378 37.3212 73.771 37.0797C73.9484 36.9511 74.5975 35.8957 76.3834 36.7168C77.2921 37.1346 76.794 37.7737 76.771 38.0798Z" fill="#D49A4C"/>
<path d="M80.771 33.0798C80.7628 33.1897 81.4322 32.9419 81.771 33.0797C82.0165 33.1795 81.8509 33.6974 82.271 33.6626C82.647 33.6314 83.053 33.9635 83.271 34.0797C83.6328 34.2726 83.6336 34.3365 83.271 34.5797C82.4252 34.7489 81.8054 35.2883 80.771 35.0797C79.7377 34.8713 78.6378 34.0797 78.2711 34.0797C76.7711 34.0797 76.6985 34.2481 76.2711 33.5798C75.862 32.94 77.4378 32.3212 77.771 32.0797C77.9484 31.9511 78.5975 30.8957 80.3834 31.7168C81.2921 32.1346 80.794 32.7737 80.771 33.0798Z" fill="#D49A4C"/>
<path d="M90.0494 37.626C89.9949 37.5303 89.5781 38.1098 89.2201 38.1847C88.9608 38.2391 88.8088 37.717 88.4798 37.9806C88.1853 38.2165 87.6632 38.1679 87.4174 38.1933C87.0095 38.2354 86.9732 38.1829 87.1381 37.7786C87.7451 37.1658 87.9578 36.3721 88.9323 35.9673C89.9057 35.5629 91.2602 35.605 91.5643 35.4001C92.8085 34.5622 92.7747 34.382 93.5025 34.6976C94.1992 34.9996 93.2378 36.3932 93.0964 36.7796C93.0211 36.9854 93.0724 38.2234 91.1324 38.54C90.1453 38.7011 90.2014 37.8928 90.0494 37.626Z" fill="#D49A4C"/>
<path d="M84.0494 35.626C83.9949 35.5303 83.5781 36.1097 83.2201 36.1847C82.9608 36.2391 82.8088 35.717 82.4798 35.9806C82.1853 36.2165 81.6632 36.1679 81.4174 36.1933C81.0095 36.2354 80.9732 36.1829 81.1381 35.7786C81.7451 35.1658 81.9578 34.3721 82.9323 33.9673C83.9057 33.5629 85.2602 33.605 85.5643 33.4001C86.8085 32.5622 87.3631 31.9166 87.5025 32.6976C87.6279 33.4002 88.2042 33.5265 88 33.9999C87.8296 34.3949 87.1607 34.6038 87.0964 34.7796C87.0211 34.9854 87.0724 36.2234 85.1324 36.54C84.1453 36.7011 84.2014 35.8928 84.0494 35.626Z" fill="#D49A4C"/>
<path d="M91.9999 31.5C91.9454 31.4043 91.578 31.1098 91.2201 31.1848C90.9607 31.2391 90.8088 30.7171 90.4797 30.9807C90.1853 31.2166 89.6631 31.168 89.4173 31.1933C89.0094 31.2355 88.9732 31.1829 89.138 30.7786C89.4999 29 90.5254 29.9048 91.4999 29.5C92.615 29.0368 91.6959 28.2049 92 28C93.2441 27.1621 94.7746 27.3821 95.5024 27.6976C96.1992 27.9997 95.2378 29.3932 95.0963 29.7797C95.021 29.9854 95.1725 30.626 94 30.6261C92.9998 30.6261 92.1519 31.7667 91.9999 31.5Z" fill="#D49A4C"/>
<path d="M101 29.5002C100.5 29.5002 100.295 28.9358 100.085 28.871C99.9319 28.8241 100.099 28.502 99.8154 28.546C99.5614 28.5854 99.3273 28.4068 99.1948 28.3484C98.9749 28.2516 98.2315 28.1669 98.4999 28C99.5023 27.1597 100.334 27.4305 101 27.5002C101.763 27.5798 102.755 27.0201 103 27.0001C104 26.9182 103.594 27.8877 103.805 28.2684C104.008 28.6328 104.749 29.3359 104.5 29.5001C104.368 29.5875 102.286 29.7296 101.709 29.3867C101.218 29.0943 101.193 29.5002 101 29.5002Z" fill="#D49A4C"/>
<path d="M99 25.5C98.5 25.5 98.3657 25.9953 98 26C97.735 26.0034 96.8878 24.6302 96.5142 24.8255C96.1799 25.0004 95.3598 24.8479 95.1137 24.8255C94.7053 24.7884 92.7605 23.365 93 23C93.6974 21.3242 94.4658 22.7098 95.5 22.5C96.6833 22.26 98.2417 22.3356 98.5795 22.1931C99.9616 21.6101 101.421 22.1204 102.075 22.5701C102.7 23.0006 101.489 24.1831 101.276 24.5351C101.162 24.7226 101.188 25.3803 100.037 25.1548C99.0554 24.9624 99.307 25.5 99 25.5Z" fill="#D49A4C"/>
<path d="M81.3548 30.2562C81.3607 30.1462 81.5 29.5 80.8691 29.5694C80.5 29.5 79.7205 29.6115 79.5 29.5C79.1341 29.3149 79.5 29.5 79.3371 28.1021C79.214 27.3118 79.4613 26.8137 80.5 27C81.6884 27.2131 82.8803 27.3197 83.2469 27.3118C84.7466 27.2794 86.5583 26.8411 87 27.5C87.4228 28.1308 85.8279 31.2513 85.5 31.5C85.3255 31.6323 84.4962 31.236 83.5098 30.6022C82.6684 30.0615 81.3384 30.5627 81.3548 30.2562Z" fill="#D49A4C"/>
<path d="M76.771 38.0798C76.7628 38.1897 77.4322 37.9419 77.771 38.0797C78.0165 38.1795 77.8509 38.6974 78.271 38.6626C78.647 38.6314 79.053 38.9635 79.271 39.0797C79.6328 39.2726 79.6336 39.3365 79.271 39.5797C78.4252 39.7489 77.8054 40.2883 76.771 40.0797C75.7377 39.8713 74.6378 39.0797 74.2711 39.0797C72.7711 39.0797 72.6985 39.2481 72.2711 38.5798C71.862 37.94 73.4378 37.3212 73.771 37.0797C73.9484 36.9511 74.5975 35.8957 76.3834 36.7168C77.2921 37.1346 76.794 37.7737 76.771 38.0798Z" fill="#D49A4C"/>
<path d="M72.0752 31.4616C72.1804 31.4944 72.0902 30.7864 72.3008 30.4874C72.4535 30.2708 72.9206 30.5491 72.9815 30.1319C73.036 29.7585 73.8375 28.1862 74 28C74.2696 27.6911 77.8449 26.0919 78 26.5C77.991 26.7985 77.3342 28.1229 76.5 29C76.0115 29.5136 75.3805 29.5453 75 30C74.1535 31.0116 74.2205 31.4798 74.0235 31.913C73.5873 32.8726 72.5679 33.7655 72.4851 34.1227C72.1466 35.584 72.2942 35.6928 71.5466 35.9583C70.831 36.2125 70.5839 34.5376 70.4239 34.1585C70.3386 33.9566 69.4569 33.0861 70.6599 31.5316C71.272 30.7406 71.7822 31.3701 72.0752 31.4616Z" fill="#D49A4C"/>
<path d="M106.114 44.5654C106.114 47.5111 102.499 49.6154 96.4753 51.336C93.3583 53.1695 87.1024 53.9023 84.0256 55.5066C79.7423 57.74 79.6801 60.5564 76.7967 60.5564C73.9133 60.5564 67.9614 54.841 67.9614 52.9817C67.9614 51.4371 71.2378 48.6832 74 47.7954C74.5626 47.6145 76.0121 46.5 76.5 46.5C76.8602 46.5 76.6985 47.4362 77.7291 47.3086C80.1502 47.0088 84.1397 46.4186 88.3733 45.8279C91.3764 45.4088 93.2975 39.832 96.0737 39.5158C101.054 38.9486 106.114 42.4615 106.114 44.5654Z" fill="#C68B3B"/>
<path d="M119.768 74.864C119.73 76.0107 117.028 75.5139 112.539 76.5475C108.791 77.4106 108.925 79.9138 101.696 79.9138C95.672 79.9138 90.0499 75.2842 93.6641 71.4977C96.0739 68.973 104.974 63.0812 108.523 63.0812C112.072 63.0812 120.17 62.6606 119.768 74.864Z" fill="#A82A64"/>
<path d="M119.768 74.864C120.075 75.9694 117.028 75.5139 112.539 76.5474C108.791 77.4106 108.925 79.9137 101.696 79.9138C95.6722 79.9138 90.05 75.2842 93.6643 71.4977C96.0741 68.973 104.951 70 108.5 70C112.049 70 118 68.5 119.768 74.864Z" fill="#AE2B67"/>
<path d="M81.6796 56.2787C81.5983 56.3919 82.6809 56.2583 83.0613 56.4655C83.3369 56.6156 82.7785 57.1255 83.3812 57.1677C83.9205 57.2054 84.2701 57.6281 84.4973 57.7903C84.8745 58.0594 84.8349 58.1262 84.1791 58.3125C82.9028 58.3311 81.7031 58.7786 80.4067 58.3674C79.1116 57.9565 78.0957 56.9242 77.5891 56.8557C75.5166 56.5753 75.3091 56.7375 75.144 55.9596C74.9859 55.215 77.5571 54.8633 78.1712 54.6734C78.4981 54.5722 80.0668 53.5912 82.0116 54.7826C83.0012 55.3888 81.9062 55.9633 81.6796 56.2787Z" fill="#D49A4C"/>
<path d="M90.5002 50.4999C90.4188 50.6131 91.6811 51.2581 92.0615 51.4654C92.3371 51.6155 91.7787 52.1254 92.3814 52.1676C92.9207 52.2053 93.2703 52.628 93.4975 52.7902C93.8746 53.0593 86.6558 54.3137 86 54.5C84.7237 54.5186 86.2966 53.4112 85.0002 52.9999C83.7051 52.5891 84.5068 52.5685 84.0002 52.4999C81.9277 52.2195 80.1653 52.2432 80.0001 51.4653C79.8421 50.7207 84.886 50.6898 85.5001 50.4998C85.8271 50.3987 87.0553 47.8085 89.0002 48.9999C89.9897 49.6061 90.7267 50.1845 90.5002 50.4999Z" fill="#D49A4C"/>
<path d="M59.9294 42.0408C59.9294 44.9865 58.4791 49.6154 54.7085 49.6154C51.8807 49.6154 48.7708 48.1952 47 45C46.4096 43.9347 46 44.5 46.2725 42.0408C46.2725 41.5593 45.3874 39.3358 46.2725 38.5001C46.57 38.2193 48.4999 38 48.9999 37C49.5966 36.5119 49.2744 37.5019 49.9999 37.0001C50.9439 36.3472 50.4686 36.0874 51.4999 35.5001C52.5171 34.9209 53.5407 33.9186 54.4999 33.5001C55.1346 33.2232 55.723 34.1983 56.4999 34C57.4737 33.7515 57.9999 32.5 59.1262 32.3621C59.7922 32.3621 60.7009 31.0987 60.9999 31.5C62.3939 33.3708 59.9294 40.3186 59.9294 42.0408Z" fill="#C68B3B"/>
<path d="M70.771 51.0798C70.7628 51.1897 71.4322 50.9419 71.771 51.0797C72.0165 51.1795 71.8509 51.6974 72.271 51.6626C72.647 51.6314 73.053 51.9635 73.271 52.0797C73.6328 52.2726 73.6336 52.3365 73.271 52.5797C72.4252 52.7489 71.8054 53.2883 70.771 53.0797C69.7377 52.8713 68.6378 52.0797 68.2711 52.0797C66.7711 52.0797 66.6985 52.2481 66.2711 51.5798C65.862 50.94 67.4378 50.3212 67.771 50.0797C67.9484 49.9511 68.5975 48.8957 70.3834 49.7168C71.2921 50.1346 70.794 50.7737 70.771 51.0798Z" fill="#D49A4C"/>
<path d="M98.5003 47.0002C98.492 47.11 96.1615 47.3051 96.5003 47.4429C96.7458 47.5427 96.5802 48.0606 97.0003 48.0258C97.3763 47.9946 97.7823 48.3267 98.0003 48.4429C98.3621 48.6358 98.3629 48.6997 98.0003 48.9429C97.1545 49.1121 96.5347 49.6515 95.5003 49.4429C95.076 49.3573 94.8915 49.1871 94.5001 49C94.2452 48.8782 93.6195 49.0599 93.5001 49C93.1093 48.8038 93.1659 48.4429 93.0004 48.4429C91.5004 48.4429 91.4278 48.6113 91.0004 47.943C90.7501 47.5516 91.5001 47.5 92.0001 46.5C92.4997 46.3238 93.3708 46.5937 93.5001 46.4999C93.7232 46.3382 93.0001 45.9999 94.0001 45.5002C94.372 45.6241 94.538 44.6996 95.0003 44.5003C95.538 44.2684 96.3423 44.4206 96.8571 44.3621C97.2767 44.3144 97.6687 44.8477 98.0003 45.0002C98.3531 45.1624 98.4407 45.594 98.5003 46.0002C98.5942 46.6402 98.5144 46.8129 98.5003 47.0002Z" fill="#D49A4C"/>
<path d="M96.7119 42.0028C96.5649 41.9335 96.2397 42.6251 95.7031 42.8254C95.3143 42.9705 94.7492 42.5396 94.3745 42.905C94.0392 43.2321 93.1602 43.3771 92.7758 43.4903C92.138 43.6781 92.047 43.6424 92.0689 43.2058C92.6832 42.4138 92.5459 41.5971 93.8846 40.8649C95.2219 40.1335 97.4508 39.6792 97.8208 39.3775C99.3343 38.1437 99.1696 37.9882 100.546 38.0169C101.863 38.0444 101.148 39.6927 101.153 40.1041C101.156 40.3232 101.993 41.4577 99.03 42.4595C97.5225 42.9692 97.1214 42.1959 96.7119 42.0028Z" fill="#D49A4C"/>
<path d="M104.5 45.5799C104.492 45.6897 105.161 45.442 105.5 45.5798C105.745 45.6796 105.58 46.1974 106 46.1626C106.376 46.1315 106.782 46.4635 107 46.5798C107.362 46.7727 107.363 46.8365 107 47.0798C106.154 47.2489 105.534 47.7884 104.5 47.5798C103.467 47.3714 102.367 46.5798 102 46.5798C100.5 46.5798 100.427 46.7481 100 46.0798C99.8075 45.7787 100.65 44.7547 101 44.5C101.394 44.2136 101.324 44.7076 101.5 44.5798C101.804 44.3596 101.576 43.9686 101.737 43.5C101.858 43.1485 102.075 43.02 102.5 43C102.695 42.9908 103 42.5 103.229 43C103.413 43.4025 103.931 43.6516 104.138 44.1409C104.399 44.7571 104.513 45.4093 104.5 45.5799Z" fill="#D49A4C"/>
<path d="M77.9999 51.5001C77.9917 51.61 79.4998 52.5001 79.4998 53.0001C79 53.5001 77.7819 52.3839 77.9999 52.5001C78.3618 52.693 77.8626 52.2568 77.5 52.5001C76.6542 52.6692 77.5 53.0001 77.4998 53.5001C76.4665 53.2917 76.1378 53.0937 75.7711 53.0937C74.2711 53.0937 75.4274 53.1683 75 52.5C74.5909 51.8603 75.4378 51.3214 75.7709 51.0799C75.9484 50.9513 75.2139 50.179 76.9998 51.0001C77.9085 51.4179 78.0229 51.194 77.9999 51.5001Z" fill="#D49A4C"/>
<path d="M78.0747 47.8294C78.0488 47.9365 76.833 47.4729 76.4683 47.5001C76.204 47.5197 76.0001 47.5001 75.5001 47.5001C75.0001 47.5001 75.7433 47.9563 75.5001 48.0001C75.0001 48.5001 74.2296 48.6573 74.5001 49.0001C75.2532 49.4206 76.4125 49.614 77.4611 49.7329C78.5085 49.8516 79.1509 49.3874 79.4999 49.5C80.9276 49.9602 82.3882 49.5049 83 49C83.5857 48.5166 81.4799 48.1302 81.2369 47.7982C81.1075 47.6213 80.8136 46.4176 78.8619 46.6511C77.8688 46.7699 78.1467 47.5311 78.0747 47.8294Z" fill="#D49A4C"/>
<path d="M55.5 44C56.1442 43.7852 56.1497 44.5917 56.5 45C57.6694 46.3627 57.6098 49.6152 54.7084 49.6152C50.9378 49.6152 46.4999 48 45.9999 45C46.0262 44.6132 47.1414 44.7126 47.5 44.5C47.8098 44.3164 48.3088 44.273 49 44.5C49.5715 44.6877 49.4555 44.9999 50.5 44.9999C51.7347 44.9999 51.2843 44.3843 51.8018 44.1855C52.4621 43.9319 53.2719 44.3078 54 44.2709C54.4442 44.2485 54.9317 44.1894 55.5 44Z" fill="#D49A4C"/>
<path d="M56.315 51.7194C56.315 53.3463 52.0653 61.3981 50.2909 61.3981C46.2552 61.3981 44.7886 56.0446 44.0001 52.0001C43.69 50.4099 43.0001 49.4592 43.0001 49.0001C43.0001 48.39 42.1958 47.5001 43.5 47.0001C43.7266 46.9132 43.5 46.5 45.5001 46.5C45.5001 46 46.2527 45.7167 46.5001 45.5C47.6318 45.2762 47.7463 46 48.5001 46C49.2486 45.9175 50.7495 45.5207 51.5001 45.5C52.227 45.48 52.2081 45.833 52.6681 45.9378C54.5001 46 54.3295 46.5336 54.8512 47.0001C55.161 47.277 55.3068 47.676 55.5001 48C57.0001 47.5 56.315 50.918 56.315 51.7194Z" fill="#C68B3B"/>
<path d="M47.9999 52.5C47.9999 52.7516 47.8237 52.7305 47.9999 53C48.1866 53.2857 48.7073 53.8586 48 54C47.8002 54.04 47.3198 54.5005 46.9999 54.5C46.7608 54.4996 46.6804 54.0542 46.4999 54C45.9971 53.849 46.3062 53.5021 45.9999 53.5C45.8843 53.4992 45.608 53.9043 45.4999 54C45.3947 54.0931 44.9556 53.8753 44.9999 54C45.0749 54.2112 45.1006 54.9255 44.9999 55C44.5453 55.3361 43.9999 54.5088 44 53.5C44 52.5 43.5721 52.0539 44.4999 51.5001C44.7741 51.3364 44.8692 50.4636 45.4998 50.5C46.478 50.5 46.6045 49.8219 46.9999 50C47.4172 50.188 47.6479 50.6481 47.9999 51C48.2043 51.6077 47.9999 52.2795 47.9999 52.5Z" fill="#D49A4C"/>
<path d="M46.0001 47.0001C46.8477 47.4845 46.324 47.2305 46.5001 47.5C46.6213 47.6854 46.6725 48.2691 46.5001 48.5C46.4069 48.6248 46.2483 48.4504 46.0001 48.5C45.8003 48.54 45.32 48.0005 45.0001 48C44.7611 47.9996 44.5005 48.2391 44.5001 48C44.3967 48.2483 44.6196 48.3775 44.5001 48.5C44.3809 48.6223 44.1038 48.5118 44.0001 48.5C43.8182 48.4792 43.5001 48.4713 43.5001 48C43.5002 47 43.5721 47.554 44.4999 47.0001C44.7741 46.8365 44.3695 46.4637 45.0001 46.5C45.9782 46.5 45.621 46.7835 46.0001 47.0001Z" fill="#D49A4C"/>
<path d="M55.0984 54.5298C55.0984 54.7814 54.9222 54.7603 55.0984 55.0298C55.2851 55.3155 55.8059 55.8883 55.0985 56.0298C54.8987 56.0698 54.4183 56.5303 54.0984 56.5298C53.8593 56.5294 53.7789 56.084 53.5984 56.0298C53.0956 55.8788 53.4047 55.5318 53.0984 55.5298C52.9828 55.529 52.7065 55.934 52.5984 56.0298C52.4932 56.1229 52.0541 55.905 52.0984 56.0298C52.1734 56.241 52.1991 56.9553 52.0984 57.0298C51.6438 57.3659 51.0984 56.5386 51.0985 55.5298C51.0985 54.5298 50.6706 54.0837 51.5984 53.5299C51.8726 53.3662 51.9677 52.4934 52.5983 52.5297C53.5765 52.5297 53.7031 51.8517 54.0984 52.0298C54.5157 52.2178 54.7464 52.6778 55.0984 53.0298C55.3029 53.6375 55.0984 54.3093 55.0984 54.5298Z" fill="#D49A4C"/>
<path d="M53.9999 49C53.9999 49.2516 52.9224 49.6503 53.0985 49.9197C53.2853 50.2054 53.2072 50.3585 52.4999 50.5C52.3 50.54 51.6997 50.04 51.4999 50C50.9999 50 51.2472 50.2967 50.9999 50.5C50.8581 50.6165 50.623 50.5667 50.623 50.8075C50.9999 51.5 50.1628 51.9986 50.0984 52.0297C49.7406 51.8806 49.4999 51 48.9999 50.8075C47.9999 49.5 48.6774 49.4812 48.4999 49C48.3013 48.4616 47.9999 48.328 47.9999 48C47.9999 47 48.0721 47.5538 48.9999 46.9999C49.2741 46.8363 49.8692 46.9637 50.4999 47C51.478 47 51.7031 46.8517 52.0984 47.0298C52.5157 47.2178 53.6479 47.148 53.9999 47.5C54.2043 48.1077 53.9999 48.7795 53.9999 49Z" fill="#D49A4C"/>
<path d="M51.4957 60.9774C51.4957 62.8366 47.7854 74.0226 46.6764 74.0226C45.5674 74.0226 36.2347 68.552 36.2347 63.5022C36.2347 61.819 38.783 60.5565 40.2508 58.4525C41.7186 56.3484 41.5514 53.4027 42.6604 53.4027C43.7694 53.4027 51.4957 59.1181 51.4957 60.9774Z" fill="#8E194F"/>
<ellipse cx="50.2909" cy="57.6108" rx="4.01604" ry="3.78732" fill="#2B4578"/>
<path d="M61.9139 42.1162C61.8835 42.521 63.5061 42.8834 62.4139 43.6162C61.4189 44.2838 60.3766 43.0605 59.6428 43.0605C58.1428 43.0605 58.5703 43.7288 58.1429 43.0605C57.9453 42.7515 57.6398 42.5143 57.6428 42.0605C57.6443 41.8258 57.0446 41.8055 57.1428 41.5605C57.2478 41.2987 58.0537 40.8178 58.1427 40.7533C58.6428 40.0606 58.9411 40.6273 59.6428 40.5605C60.2189 40.5057 60.721 40.383 61.5262 40.7532C62.4349 41.171 61.9368 41.8101 61.9139 42.1162Z" fill="#D49A4C"/>
<path d="M122.981 53.4027C122.981 55.262 121.022 62.6606 114.146 62.6606C112.732 62.6606 112.368 62.8629 110.13 62.6606C106.539 62.3362 96.2361 72.1282 92.4593 71.4977C86.8368 70.5591 77.1982 76.5475 80.8127 57.19C83.2223 54.2443 85.8126 55.6134 90.8528 52.9819C94.5475 51.053 97.9848 46.6697 100.893 46.6697C101.881 46.6697 103.61 46.2628 105.558 45.828C106.771 45.5574 107.667 41.3997 108.925 41.199C110.742 40.9091 112.876 44.6638 114.146 44.9864C122.178 46.6697 122.981 52.2172 122.981 53.4027Z" fill="#F1F1F1"/>
<path d="M74.7887 42.4616C74.7887 46.6697 70.539 51.2987 68.7646 51.2987C67.6346 51.2987 60.5986 49.4379 58.7245 44.9864C57.6558 42.4479 60.7326 36.6582 60.7326 35.3077C60.7326 31.5892 62.171 28.5747 63.9454 28.5747C67.5598 28.5747 74.7887 38.743 74.7887 42.4616Z" fill="#EA5E44"/>
<path d="M74.7887 42.4616C74.7887 46.6697 70.539 51.2987 68.7646 51.2987C67.6346 51.2987 60.5986 49.4379 58.7245 44.9864C57.6558 42.4479 60.7326 36.6582 60.7326 35.3077C60.7326 31.5892 62.171 28.5747 63.9454 28.5747C67.5598 28.5747 74.7887 38.743 74.7887 42.4616Z" fill="#EA5E44"/>
<path d="M74.7887 42.4616C74.7887 46.6697 70.539 51.2987 68.7646 51.2987C67.6346 51.2987 60.5986 49.4379 58.7245 44.9864C57.6558 42.4479 60.7326 36.6582 60.7326 35.3077C60.7326 31.5892 62.171 28.5747 63.9454 28.5747C67.5598 28.5747 74.7887 38.743 74.7887 42.4616Z" fill="#E34427"/>
<path d="M75 42.8333C75 46.7222 70.5651 51 68.7133 51C67.534 51 60.1912 49.2804 58.2354 45.1667C57.1201 42.8207 60.5001 37.248 60.5001 36C60.5001 32.5636 61.8321 30 63.6839 30C67.4559 30 75 39.3969 75 42.8333Z" fill="#EA5E44"/>
<path d="M75 42.8333C75 46.7222 70.5651 51 68.7133 51C67.534 51 60.1912 49.2804 58.2354 45.1667C57.1201 42.8207 60.5001 37.248 60.5001 36C60.5001 32.5636 61.8321 30 63.6839 30C67.4559 30 75 39.3969 75 42.8333Z" fill="#EA5E44"/>
<path d="M75 42.8333C75 46.7222 70.5651 51 68.7133 51C67.534 51 60.1912 49.2804 58.2354 45.1667C57.1201 42.8207 60.5001 37.248 60.5001 36C60.5001 32.5636 61.8321 30 63.6839 30C67.4559 30 75 39.3969 75 42.8333Z" fill="#EA5E44"/>
<path d="M67.1584 52.561C68.7647 57.6107 69.1663 60.5564 66.3552 60.9773C62.7406 61.8189 56.3151 58.3836 56.3151 54.665C56.3151 50.9465 54.307 44.9863 57.5199 44.9863C61.5359 44.9863 67.1584 48.8424 67.1584 52.561Z" fill="#E34427"/>
<path d="M82.8206 60.5565C82.8206 63.113 79.9018 61.819 76.7966 61.819C75.1903 61.819 74.7887 66.2034 67.1583 67.2896C64.1035 68.059 59.9294 65.8093 58.3228 66.2034C55.1647 66.9781 51.6744 80.2394 49.0859 80.7556C45.0704 81.5563 41.8572 78.2307 42.6604 70.2353C42.6604 65.1855 45.1746 67.6284 47.8811 63.6786C51.773 57.9988 56.4913 47.9321 58.3228 47.9321C61.428 47.9321 82.8206 58 82.8206 60.5565Z" fill="#F1F1F1"/>
<path d="M33 79.9139C32.7772 76.49 35.7847 75.1903 41.8572 76.9682C47.4431 78.6036 55.2391 84.0399 65.9533 84.1221C86.4352 84.2793 80.8128 78.0091 88.0416 76.9682C93.3811 76.1993 95.9809 79.7021 101.696 79.9138C116.957 76.9682 123.56 78.1408 123.382 79.9138C123.027 83.4549 122.981 86.6468 122.579 90.0133C121.652 102.173 120.973 114 119.768 122.837C118.162 134.62 94.712 136.647 76.3947 136.303C58.7241 135.971 37.8651 134.62 37 122.837C35.795 106.425 34.2048 98.4297 33 79.9139Z" fill="#F1F1F1"/>
<path d="M65.5 54C67.1063 59.0498 69.1663 60.5564 66.3552 60.9773C62.7406 61.8189 56.3151 58.3836 56.3151 54.665C56.3151 50.9465 54.307 44.9863 57.5199 44.9863C61.5359 44.9863 65.5 50.2815 65.5 54Z" fill="#EA5E44"/>
<path d="M92.861 41.6198C92.861 44.1763 82.4192 52.561 78.8048 47.5112C74.3872 43.3031 75.1904 41.2306 75.1904 38.6741C75.1904 36.1176 79.5779 31.0995 82.0177 31.0995C84.4575 31.0995 92.861 39.0633 92.861 41.6198Z" fill="#E34427"/>
<path d="M92.861 41.6198C92.861 44.1763 82.4192 52.561 78.8048 47.5112C74.3872 43.3031 76.0001 42.0565 76.0001 39.5C76.0001 36.9435 79.5602 34 82 34C84.4398 34 92.861 39.0633 92.861 41.6198Z" fill="#EA5E44"/>
<path d="M104.713 36.1341C103.106 39.5006 105.049 40.763 101.5 40.763C97.9511 40.763 91.4599 45.392 91.8614 39.0798C91.8614 37.5856 93.6729 36.582 94.6727 34.8716C95.8501 32.8574 96.368 30.2427 98.2871 30.2427C101.836 30.2427 106.319 32.7676 104.713 36.1341Z" fill="#E34427"/>
<path d="M104.713 36.1341C103.106 39.5006 105.049 40.763 101.5 40.763C97.9511 40.763 92.5984 45.3122 93 39C93 37.5059 94.5002 36.7104 95.5 35C96.6774 32.9857 96.5807 31 98.4999 31C102.049 31 106.319 32.7676 104.713 36.1341Z" fill="#EA5E44"/>
<path d="M114.903 113.158C114.903 115.04 112.954 113.091 111.954 113.158C111.367 113.198 110.697 113.578 109.954 113.984C109.055 114.474 107.712 115.747 106.5 115.5C104.046 115 103.13 116.306 102.454 116.5C101.454 116.5 99.5091 114.794 97.4999 116C96.5527 116.568 96.0255 117.5 94.454 118.5C93.0956 119.364 90.9331 119.142 90.454 119.5C89.1694 120.461 89.4562 121.517 87.954 121.5C86.2238 121.48 85.8771 119.761 83.454 119C82.6786 118.756 81.1577 119.391 80.454 119C80.454 118 80.0043 117.478 78.9539 117.096C78.3657 116.881 77.7779 116.801 77.1578 116.784C76.7717 116.774 72.9999 116.5 72.9999 116.5L71.454 117.096C71.454 117.096 70.1586 117.611 68.9999 117.5C67.9999 117.404 65.6734 116.451 65.2156 116.5C64.6611 116.559 65.6319 116.457 65.2156 116.5C64.3835 116.585 63.8165 115.73 63.5255 115.568C62.8181 115.175 61.6637 116.063 60.454 116C59.0345 115.926 58.3698 114.872 56.954 115C56.0569 115.081 55.3803 115.926 54.9999 116C53.9999 116 52.9704 117.485 51.9999 117C50.9999 116.5 49.454 116 49.454 116C49.454 116 47.4999 115.5 46.454 115.5C45.4081 115.5 46.1913 114.64 45.7973 114.258C44.9968 113.482 43.366 114.171 42.954 114C42.5507 113.833 40.3916 112.923 40.4999 112.5C40.2302 112.415 38.2284 113.358 37.4999 113C36.7715 112.642 36.5 110.947 36.5 110.5C36.447 110.815 36.5 110.165 36.5 110.5C36.5 109 36.9999 109 38.9999 108.5C39.954 108 41.7456 108 41.7456 108C41.7456 108 42.8952 106.687 43.454 106.5C44.324 106.447 46.454 105 47.9999 103.5C49.2919 102.246 53.5838 102.339 53.954 102C54.4999 101.5 54.4841 101 55.454 101C57.4022 101 58.9999 102.5 60.9999 102.5C62.5927 102.5 64.305 103.72 64.954 103.5C65.9998 103 70.9999 104 70.9999 104C70.9999 104 73.0417 103.466 73.954 103.5C74.9181 103.536 76.1529 103.099 76.954 103.5C77.651 103.589 78.7638 103.921 79.954 104C81.9999 104.369 82.8635 103.484 85.4999 105C87.4999 104.5 87.8929 103.762 89.454 103.5C90.4708 103.329 92.454 103 93.954 104C95.4737 104.014 96.3835 103.392 96.954 103.5C98.4195 103.776 99.8952 104.331 101.342 105C102.02 105.314 101.276 105.94 101.454 106.5C102.166 108.741 105.988 106.462 107.454 107C108.886 107.525 109.5 109 111 109C112.657 109 112.065 111.172 113.5 112C114.038 112.311 114.903 113.032 114.903 113.158Z" fill="#C68B3B"/>
<path d="M73.8516 108.132C73.8516 108.132 76.6493 113.07 67.9545 109.188C64.2528 107.535 54.7025 111.582 52.8516 108.132C52.8516 105.525 42.1761 103.632 58.8022 103.632C60.9758 103.632 61.356 105.987 63.8516 106.132C67.894 106.365 74.2394 104.491 78.5001 105C82.666 105.497 73.8516 108.132 73.8516 108.132Z" fill="#D49A4C"/>
<path d="M87.4999 113C87.4999 113 87.8966 110.271 91.9999 110C93.2042 109.92 94.6848 111 96.5001 111C99.5772 111 100.965 109 107 110.5C111 113.5 113.617 111.486 103 114C100.986 114.477 97.5251 113.693 94.4999 114.5C92.0637 115.15 90.0858 117.453 88.0262 117.51C86.7032 117.546 83.9487 116.31 83.9999 115C84.0566 113.546 87.4999 113 87.4999 113Z" fill="#D49A4C"/>
<path d="M77.5 79.5C77.5 81 74.5 82 72 82C71.1124 82 69.345 81.8112 68.5 81.5C67.5047 81.1335 67.5 80.5973 67.5 80C67.5 78.8954 70.1283 78.2905 72.5 77.5C74 77 74.4958 77.643 75.5 78C76.5201 78.3625 77.5 78.9433 77.5 79.5Z" fill="#89174B"/>
<path d="M102.789 77.8496C101.94 79.0867 99.5621 78.6705 97.5001 77.2568C96.768 76.7549 96.021 76.2345 95.5 75.5C94.8864 74.635 96.0001 73.6123 96.7887 73.3495C98.2887 72.8495 98.0539 73.1389 100.457 73.8281C101.977 74.2639 102.022 75.0746 102.649 75.9368C103.285 76.8127 103.103 77.3905 102.789 77.8496Z" fill="#89174B"/>
<circle cx="48.5" cy="55.5" r="0.5" fill="#1E3667"/>
<ellipse cx="70" cy="25.5" rx="1" ry="0.5" fill="#1E3667"/>
<ellipse cx="84" cy="23.5" rx="1" ry="0.5" transform="rotate(55.2248 84 23.5)" fill="#1E3667"/>
<path d="M107 42.5C107 42.7761 106.552 43 106 43C105.448 43 105.5 42.7761 105.5 42.5C105.5 42.2239 105.448 42 106 42C106.552 42 107 42.2239 107 42.5Z" fill="#1E3667"/>
<path d="M80.5 116.5C80.5 116.776 77.3284 116 76.5 116C75.6716 116 74 116.276 74 116C74 115.221 75.1716 114.5 76 114.5C76.406 114.5 78.995 113.545 80 114C80.5629 114.255 80.026 114.919 80 115.5C79.9777 115.998 80.5 115.798 80.5 116.5Z" fill="#D49A4C"/>
<path d="M48.3612 113.784C48.304 113.917 47.0438 112.761 45.8554 112.197C44.7728 111.684 43.7692 111.772 43.4065 111.616C42.6456 111.288 41.0946 110.421 41.3659 109.791C41.5209 109.431 42.1056 109.24 42.919 108.867C43.7218 108.499 44.7519 107.945 45.1299 108.107C45.3312 108.194 46.8604 108.78 47.6118 109.558C48.2526 110.222 48.1112 111.065 48.4534 111.44C48.8697 111.896 52.3787 111.577 52.1251 112.101C52.0028 112.353 51.4322 113.806 50.4542 114.132C49.6939 114.386 48.4825 113.502 48.3612 113.784Z" fill="#D49A4C"/>
<path d="M59.0001 38C58.9697 38.4048 59.0922 38.5337 58 39.2665C57.5331 39.5798 57.1287 39.3344 56.7411 39.2665C56.3027 39.1898 55.6277 39.2665 55.2383 39.2665C54.7447 39.2665 54.3588 39.9267 54 40C53.2685 40.1495 53.2869 39.4484 53.0001 39C52.591 38.3602 51.6668 37.7087 52 37.4672C52.11 37.3875 52.3579 36.3416 53 35.9749C53.394 35.7499 54.1157 36.171 54.5161 36.077C55.4146 35.8661 56.0026 36.102 56.5001 36C56.8556 35.9271 56.5477 35.1223 57 34.4999C57.3179 34.0627 58.5833 33.5 59.0001 33.5C59.3765 33.5 60.3417 33.4382 60.5001 34C60.6316 34.4664 59.5998 35.5431 59.5001 36C59.4107 36.4092 59.4472 36.7245 59.1169 37C58.8152 37.2516 59.011 37.8538 59.0001 38Z" fill="#D49A4C"/>
<path d="M51.5 40.5001C51.4918 40.61 52.1612 40.3622 52.5 40.5C52.7455 40.5998 52.5799 41.1177 53 41.0829C53.376 41.0517 53.782 41.3837 54 41.5C54.3618 41.6929 54.3626 41.7568 54 42C53.1542 42.1692 52.5344 42.7086 51.5 42.5C50.4667 42.2916 49.3668 41.5 49.0001 41.5C47.5001 41.5 47.4275 41.6684 47.0001 41C46.591 40.3603 48.1668 39.7415 48.5 39.5C48.6774 39.3714 49.3265 38.3159 51.1124 39.1371C52.0211 39.5549 51.523 40.194 51.5 40.5001Z" fill="#D49A4C"/>
<path d="M84.5 110.411C84.649 110.643 81.7376 110.957 81.0401 111.404C80.3425 111.851 79.1488 111.732 78.9998 111.5C78.5797 110.844 79.1124 110.857 79.8099 110.411C80.1518 110.191 80.4084 108.659 81.4999 108.5C82.1113 108.411 83.4259 108.591 83.7174 109.095C83.9673 109.526 84.1214 109.82 84.5 110.411Z" fill="#D49A4C"/>
<path d="M67.5001 112.5C67.3343 112.721 65.4303 112.381 64.7327 112.828C64.0352 113.275 62.8414 113.156 62.6924 112.924C62.2724 112.268 62.805 112.281 63.5025 111.834C63.8444 111.615 63.9086 111.159 65.0001 111C65.6115 110.911 66.7086 110.497 67.0001 111C67.25 111.431 68.0001 111.834 67.5001 112.5Z" fill="#D49A4C"/>
<path d="M100 105.5C100 105.652 98.6991 105.908 98 106C97.4271 106.075 96.9975 106.5 96.5 106.5C95.9614 106.5 95.3469 105.708 94.5 105.5C93.61 105.281 93 105.5 93 105C93 104.854 94.4449 104.591 95.5 104.5C96.5 104 96.9781 104.5 97.5 104.5C98.6046 104.5 100 105.224 100 105.5Z" fill="#D49A4C"/>
<rect x="122.778" y="62.9603" width="56.9328" height="96.7683" fill="#A1C98F"/>
<path d="M160.101 113.569C160.101 116.641 139.339 139.152 134.797 139.152C125.309 135.259 118.983 134.993 118.983 131.922C118.983 128.85 114.441 107.452 118.983 107.452C123.524 107.452 160.101 110.498 160.101 113.569Z" fill="#FFBC52"/>
<path d="M156.187 128.097C156.608 127.122 157.717 126.647 158.713 127.014L182.974 135.942C183.688 136.205 184.189 136.844 184.245 137.602C184.466 140.622 184.807 148.521 182.874 153.611C181.231 157.936 176.738 163.412 175.186 165.229C174.844 165.629 174.361 165.864 173.836 165.897C171.196 166.063 162.714 166.596 156.938 166.958C152.442 166.666 146.247 166.262 142.686 166.03C141.306 165.94 140.436 164.51 140.985 163.241L156.187 128.097Z" fill="#EBEBD7"/>
<path d="M187.935 119.687C186.435 128.585 185.404 138.595 179.078 138.039C166.427 134.146 161.999 125.655 161.999 121.355C161.999 117.055 172.705 105.227 176.548 105.227C180.391 105.227 190.465 104.671 187.935 119.687Z" fill="#E7DF67"/>
<path d="M167.059 71.3024C171.358 63.0573 187.244 56.7537 192.363 64.6287C194.893 68.5217 195.526 99.6655 186.669 110.232C184.325 113.03 171.487 107.034 171.487 103.559C171.487 91.3235 162.987 79.113 167.059 71.3024Z" fill="#F3A832"/>
<path d="M162.107 71.2792C166.406 63.0341 182.292 56.7306 187.411 64.6055C189.941 68.4985 191.503 105.694 181.718 110.209C180.003 111 168.5 104.475 168.5 101C168.5 88.7649 158.035 79.0898 162.107 71.2792Z" fill="#FFBC52"/>
<path d="M136.062 82.9812C136.062 82.9812 154.248 76.0713 165.161 80.7567C172.541 83.9248 182.874 92.9918 181.609 95.7725C177.813 104.115 176.685 114.87 167.059 115.237C152.51 115.794 141.123 111.344 141.123 111.344L136.062 82.9812Z" fill="#E5E6EA"/>
<path d="M115.187 84.6498C122.938 82.0292 133.788 80.0057 137.96 86.3185C140.29 89.8432 139.954 96.3892 142.388 103.002C143.586 106.255 147.046 109.524 148.714 112.457C149.776 114.325 147.122 117.496 142.388 118.018C137.805 118.524 131.234 116.412 126.574 116.239C123.856 116.138 121.573 115.971 120.248 115.794C116.083 115.238 106.964 87.4302 115.187 84.6498Z" fill="#FADB5B"/>
<path d="M115.187 84.6498C122.938 82.0292 133.788 80.0057 137.96 86.3185C140.29 89.8432 139.954 96.3892 142.388 103.002C143.586 106.255 146.332 108.566 148 111.5C149.062 113.368 145.734 114.478 141 115C136.417 115.505 132.66 114.173 128 114C125.282 113.899 120.826 114.177 119.5 114C115.335 113.444 106.964 87.4302 115.187 84.6498Z" fill="#FCE482"/>
<path d="M117.9 141.75C117.496 140.462 118.458 139.151 119.809 139.151H140.085C140.736 139.151 141.346 139.468 141.721 140L155.825 160.031C156.652 161.204 156.01 162.841 154.606 163.138C148.304 164.476 140.719 166.085 139.419 166.361C139.286 166.39 139.162 166.43 139.037 166.485L133.183 169.058C132.289 169.451 131.242 169.141 130.706 168.325L122.298 155.512C122.197 155.358 122.118 155.19 122.062 155.014L117.9 141.75Z" fill="#E49D2E"/>
<path d="M165.161 130.809C165.161 132.623 158.566 135.745 153.142 141.376C146.623 148.144 143.021 155.279 136.695 155.836C131.002 158.616 124.755 135.815 136.063 128.585C143.021 124.136 158.836 114.681 162.631 114.681C165.794 114.681 165.161 126.816 165.161 130.809Z" fill="#C01F1C"/>
<path d="M161.867 127.206C161.867 129.019 156.792 133.575 151.367 139.206C144.848 145.973 142.826 155.444 136.5 156C130.806 158.781 124.5 134.5 137 128C143.959 123.551 153.704 117.5 157.5 117.5C160.663 117.5 161.867 123.213 161.867 127.206Z" fill="#D23C3A"/>
<path d="M105.066 62.9602C103.307 56.1789 137.198 53.126 154.17 52.9545C170.083 52.7938 201.363 58.2101 199.954 62.9602C196.158 75.7516 189.832 110.232 189.832 110.232C189.832 110.232 184.914 142.753 184.139 154.167C182.934 171.91 165.517 171.29 150.612 170.851C143.426 170.64 121.205 172.508 118.983 156.392C116.452 138.039 113.29 94.6602 105.066 62.9602Z" fill="#134E78" fill-opacity="0.15"/>
<path d="M198 60C198 64.3001 187.916 70.1902 184.772 70.1902C181.627 70.1902 164.529 59.4745 164.529 55.1744C164.529 50.8744 169.5 38.4145 187.302 49.0569C196.791 54.7295 198 55.6999 198 60Z" fill="#FCE482"/>
<path d="M146.184 40.7148C161.395 50.145 175.447 53.2851 183.507 57.3991C187.303 59.3363 190.251 63.3033 185.405 66.8534C181.609 69.6341 179.079 74.2349 167.692 72.4148C156.512 70.6277 142.001 72.173 143.654 62.2887C144.286 58.5112 138.109 35.7081 146.184 40.7148Z" fill="#4A774F"/>
<path d="M146.184 40.7148C161.395 50.145 175.447 53.2851 183.507 57.3991C187.303 59.3363 188.353 62.9499 183.507 66.5C179.711 69.2807 174.387 72.3201 163 70.5C151.819 68.7128 142.001 72.173 143.654 62.2887C144.286 58.5112 138.109 35.7081 146.184 40.7148Z" fill="#8BB58F"/>
<path d="M129.104 65.1849C129.104 73.785 124.289 85.762 118.35 85.762C112.411 85.762 107.596 73.785 107.596 65.1849C106.331 45.1638 123.165 45.1638 129.104 45.1638C135.043 45.1638 129.104 56.5847 129.104 65.1849Z" fill="#4A774F"/>
<path d="M110.759 59.6235L141.756 66.2972L146.184 89.0989L113.922 80.2007L110.759 59.6235Z" fill="#EA4A59"/>
<path d="M141.756 66.2972L161.999 49.0569L167.059 70.7463L146.184 89.099L141.756 66.2972Z" fill="#E04856"/>
<path d="M135 43.5C138.866 43.5 163 48.0001 161.999 49.0569C158.598 52.6449 144 66.2972 141.756 66.2972C138.358 66.2972 110.759 61.5 110.759 59.6235C110.759 57 133.366 43.5 135 43.5Z" fill="#EF5563"/>
<path d="M105.066 62.96C104.455 62.1553 112.358 66.5918 122.146 69.0779C132.647 71.7451 145.386 72.5033 154.17 72.4146C161.671 72.3388 173.678 70.0483 182.874 67.4095C193.186 64.4503 200.164 61.8481 199.954 62.96C199.537 65.1547 167.907 74.639 154.17 74.639C140.49 74.639 112.624 72.9273 105.066 62.96Z" fill="#134E78" fill-opacity="0.1"/>
<path d="M161.951 174.678C164.105 173.344 160.638 169.819 158.206 170.527C140.27 175.75 130.16 175.681 110.553 175.169C84.1162 171.784 67.5032 165.792 40.9907 150.715C36.2351 148.01 28.7333 160.074 33.5204 162.723C56.3175 175.334 93.6799 185.158 93.6799 185.158C93.6799 185.158 139.419 188.625 161.951 174.678Z" fill="#EF7324"/>
<path d="M97.2419 207.671C92.1173 207.233 94.7116 196.788 98.068 196.773C127.439 196.648 165.179 195.475 197.011 199.287C202.084 199.895 203.707 212.987 198.586 212.769C184.278 212.158 171.758 210.614 160.086 210.202C141.125 209.534 123.487 209.913 97.2419 207.671Z" fill="#B9C778"/>
<path d="M97.2419 207.671C92.1173 207.233 94.7116 196.788 98.068 196.773C127.439 196.648 165.179 195.475 197.011 199.287C202.084 199.895 203.707 212.987 198.586 212.769C184.278 212.158 171.758 210.614 160.086 210.202C141.125 209.534 123.487 209.913 97.2419 207.671Z" fill="#B9C778"/>
<path d="M122.622 162.939C128.021 162.348 128.58 172.989 125.137 173.668C95.0061 179.612 56.6011 188.231 22.7267 190.845C17.3291 191.262 11.6208 178.891 16.9488 178.088C31.8337 175.843 45.171 174.859 57.2879 172.944C76.9703 169.833 94.9712 165.969 122.622 162.939Z" fill="#D0D995"/>
<path d="M122.622 162.939C128.021 162.348 128.58 172.989 125.137 173.668C95.0061 179.612 56.6011 188.231 22.7267 190.845C17.3291 191.262 11.6208 178.891 16.9488 178.088C31.8337 175.843 45.171 174.859 57.2879 172.944C76.9703 169.833 94.9712 165.969 122.622 162.939Z" fill="#D0D995"/>
<path d="M29.5558 182.353C27.4734 180.911 34.8369 179.525 37.2939 180.14C50.0528 183.334 53.5636 182.915 72.8691 186.378C99.4448 188.408 94.1256 187.308 127.405 188.513C132.873 188.711 139.577 198.58 134.353 200.206C111.91 207.191 100.597 205.262 80.5278 201.231C59.7164 197.05 53.1457 198.686 29.5558 182.353Z" fill="#F5611A"/>
<path d="M29.5558 182.353C27.4734 180.911 34.8369 179.525 37.2939 180.14C50.0528 183.334 53.5636 182.915 72.8691 186.378C99.4448 188.408 94.1256 187.308 127.405 188.513C132.873 188.711 139.577 198.58 134.353 200.206C111.91 207.191 100.597 205.262 80.5278 201.231C59.7164 197.05 53.1457 198.686 29.5558 182.353Z" fill="#F5611A"/>
<path d="M74.5288 197.842C69.095 198.174 69.357 187.524 72.8457 187.011C103.373 182.518 142.365 175.75 176.373 174.761C181.792 174.603 186.535 187.226 181.156 187.773C166.128 189.302 152.742 189.647 140.502 190.979C120.619 193.143 102.357 196.14 74.5288 197.842Z" fill="#C7D379"/>
<path d="M74.5288 197.842C69.095 198.174 69.357 187.524 72.8457 187.011C103.373 182.518 142.365 175.75 176.373 174.761C181.792 174.603 186.535 187.226 181.156 187.773C166.128 189.302 152.742 189.647 140.502 190.979C120.619 193.143 102.357 196.14 74.5288 197.842Z" fill="#C7D379"/>
<path d="M52.6161 148.567C50.5174 147.149 55.2055 141.368 57.6693 141.955C70.4639 145.004 78.9476 151.714 111.636 156.884C138.233 158.611 142.702 151.167 157.919 149.114C163.341 148.383 172.089 154.38 166.885 156.065C144.522 163.305 127.206 173.359 107.092 169.557C74.4608 163.389 76.3908 164.63 52.6161 148.567Z" fill="#FE802F"/>
<path d="M52.6161 148.567C50.5174 147.149 55.2055 141.368 57.6693 141.955C70.4639 145.004 78.9476 151.714 111.636 156.884C138.233 158.611 142.702 151.167 157.919 149.114C163.341 148.383 172.089 154.38 166.885 156.065C144.522 163.305 127.206 173.359 107.092 169.557C74.4608 163.389 76.3908 164.63 52.6161 148.567Z" fill="#FE802F"/>
<path d="M211.942 177.559C213.864 178.432 211.428 181.593 209.35 181.25C194.025 178.714 186.178 180.677 170.147 182.915C148.844 188.101 139.263 191.456 112.96 198.981C108.639 200.217 104.658 189.696 108.279 187.118C123.838 176.041 161.856 172.953 161.856 172.953C161.856 172.953 191.833 168.425 211.942 177.559Z" fill="#FE802F"/>
<path d="M114.353 146.491C118.31 146.695 116.184 157.295 113.589 157.463C90.8789 158.938 61.685 161.848 37.1168 159.485C33.2021 159.108 32.097 146.046 36.0542 146.031C47.1094 145.986 56.772 146.961 65.7922 146.838C80.4444 146.638 94.0864 145.447 114.353 146.491Z" fill="#B9C778"/>
<path d="M114.353 146.491C118.31 146.695 116.184 157.295 113.589 157.463C90.8789 158.938 61.685 161.848 37.1168 159.485C33.2021 159.108 32.097 146.046 36.0542 146.031C47.1094 145.986 56.772 146.961 65.7922 146.838C80.4444 146.638 94.0864 145.447 114.353 146.491Z" fill="#B9C778"/>
</g>
<defs>
<clipPath id="clip0_8602_1116">
<rect width="229" height="219" fill="white"/>
</clipPath>
</defs>
</svg>
