<svg width="475" height="196" viewBox="0 0 475 196" fill="none" xmlns="http://www.w3.org/2000/svg">
<g clip-path="url(#clip0_8632_447)">
<path opacity="0.4" d="M445 92C445 94.5637 444.87 97.0965 444.616 99.592C442.091 124.36 427.242 145.379 406.5 156.5C396.467 161.879 385.14 165 373 165C363.07 165 353.608 162.82 345 159C321.674 148.648 304.618 125.932 301.5 99.5C301.161 96.6279 301 94.9646 301 92C301 51.6832 333.236 19 373 19C390.799 19 407.434 26.1499 420 37C435.508 50.3899 445 69.7295 445 92Z" fill="#FFDA66"/>
<path d="M316.658 71.3739L316.979 71.7573L316.658 71.3739ZM333 59.3997L333.297 59.8022L333 59.3997ZM309.196 78.4348L309.536 78.8017L309.541 78.7963L309.547 78.7907L309.196 78.4348ZM316.979 71.7573C320.117 69.0676 322.531 67.3385 324.99 65.6538C327.451 63.9683 329.972 62.3178 333.297 59.8022L332.703 58.9973C329.402 61.4945 326.91 63.1257 324.434 64.8214C321.957 66.518 319.512 68.2695 316.338 70.9906L316.979 71.7573ZM333.297 59.8022C335.693 57.9898 338.192 56.3795 340.719 54.6037C343.231 52.8377 345.736 50.9306 348.066 48.5698L347.363 47.8601C345.095 50.1584 342.646 52.0256 340.153 53.7782C337.673 55.521 335.113 57.1736 332.703 58.9973L333.297 59.8022ZM302.073 85.8626L309.536 78.8017L308.857 78.068L301.395 85.1289L302.073 85.8626ZM309.196 78.4348C309.547 78.7907 309.547 78.7907 309.547 78.7907C309.547 78.7906 309.547 78.7906 309.547 78.7905C309.547 78.7904 309.547 78.7902 309.548 78.79C309.548 78.7894 309.549 78.7887 309.55 78.7876C309.552 78.7855 309.555 78.7823 309.559 78.7781C309.568 78.7697 309.58 78.7572 309.597 78.7407C309.629 78.7076 309.678 78.6588 309.741 78.5956C309.868 78.4692 310.052 78.2856 310.282 78.0571C310.743 77.6001 311.388 76.9635 312.129 76.2456C313.613 74.8079 315.469 73.0515 316.979 71.7573L316.338 70.9906C314.803 72.3057 312.929 74.0798 311.442 75.5202C310.698 76.2413 310.049 76.8807 309.587 77.3399C309.355 77.5695 309.17 77.7541 309.043 77.8813C308.979 77.945 308.93 77.9943 308.897 78.0277C308.88 78.0445 308.868 78.0572 308.859 78.0658C308.855 78.0701 308.852 78.0734 308.849 78.0756C308.848 78.0767 308.847 78.0775 308.847 78.0781C308.847 78.0784 308.846 78.0786 308.846 78.0787C308.846 78.0788 308.846 78.0789 308.846 78.0789C308.846 78.0789 308.846 78.079 309.196 78.4348Z" fill="#9A8F56"/>
<path d="M356.275 43.0515C356.444 43.3206 355.376 46.1427 353.375 47.4949C351.253 48.9289 349.871 48.2682 349.341 47.426C349.035 46.9387 348.562 45.7788 350.684 44.3448C353.373 42.8386 356.106 42.7824 356.275 43.0515Z" fill="#EDE6B2"/>
<path d="M356.275 43.0515C356.444 43.3206 355.376 46.1427 353.375 47.4949C351.253 48.9289 349.871 48.2682 349.341 47.426C349.035 46.9387 348.562 45.7788 350.684 44.3448C353.373 42.8386 356.106 42.7824 356.275 43.0515Z" fill="#EDE6B2"/>
<path d="M356.275 43.0515C356.444 43.3206 355.376 46.1427 353.375 47.4949C351.253 48.9289 349.871 48.2682 349.341 47.426C349.035 46.9387 348.562 45.7788 350.684 44.3448C353.373 42.8386 356.106 42.7824 356.275 43.0515Z" fill="#EDE6B2"/>
<path d="M356.275 43.0515C356.444 43.3206 355.376 46.1427 353.375 47.4949C351.253 48.9289 349.871 48.2682 349.341 47.426C349.035 46.9387 348.562 45.7788 350.684 44.3448C353.373 42.8386 356.106 42.7824 356.275 43.0515Z" fill="#EDE6B2"/>
<path d="M356.275 43.0515C356.444 43.3206 355.376 46.1427 353.375 47.4949C351.253 48.9289 349.871 48.2682 349.341 47.426C349.035 46.9387 348.562 45.7788 350.684 44.3448C353.373 42.8386 356.106 42.7824 356.275 43.0515Z" fill="#EDE6B2"/>
<path d="M356.275 43.0515C356.444 43.3206 355.376 46.1427 353.375 47.4949C351.253 48.9289 349.871 48.2682 349.341 47.426C349.035 46.9387 348.562 45.7788 350.684 44.3448C353.373 42.8386 356.106 42.7824 356.275 43.0515Z" fill="#EDE6B2"/>
<path d="M350.62 41.3331C350.905 41.4696 351.486 44.4339 350.504 46.6569C349.462 49.0142 347.944 49.2003 347.053 48.7727C346.538 48.5253 345.527 47.7985 346.569 45.4409C348.052 42.7171 350.335 41.1965 350.62 41.3331Z" fill="#E0D9A3"/>
<path d="M350.62 41.3331C350.905 41.4696 351.486 44.4339 350.504 46.6569C349.462 49.0142 347.944 49.2003 347.053 48.7727C346.538 48.5253 345.527 47.7985 346.569 45.4409C348.052 42.7171 350.335 41.1965 350.62 41.3331Z" fill="#E0D9A3"/>
<path d="M350.62 41.3331C350.905 41.4696 351.486 44.4339 350.504 46.6569C349.462 49.0142 347.944 49.2003 347.053 48.7727C346.538 48.5253 345.527 47.7985 346.569 45.4409C348.052 42.7171 350.335 41.1965 350.62 41.3331Z" fill="#E0D9A3"/>
<path d="M350.62 41.3331C350.905 41.4696 351.486 44.4339 350.504 46.6569C349.462 49.0142 347.944 49.2003 347.053 48.7727C346.538 48.5253 345.527 47.7985 346.569 45.4409C348.052 42.7171 350.335 41.1965 350.62 41.3331Z" fill="#E0D9A3"/>
<path d="M350.62 41.3331C350.905 41.4696 351.486 44.4339 350.504 46.6569C349.462 49.0142 347.944 49.2003 347.053 48.7727C346.538 48.5253 345.527 47.7985 346.569 45.4409C348.052 42.7171 350.335 41.1965 350.62 41.3331Z" fill="#E0D9A3"/>
<path d="M350.62 41.3331C350.905 41.4696 351.486 44.4339 350.504 46.6569C349.462 49.0142 347.944 49.2003 347.053 48.7727C346.538 48.5253 345.527 47.7985 346.569 45.4409C348.052 42.7171 350.335 41.1965 350.62 41.3331Z" fill="#E0D9A3"/>
<path d="M353.867 49.9768C353.906 50.2933 351.749 52.3824 349.369 52.7391C346.845 53.1174 345.317 52.0704 345.195 51.08C345.124 50.5069 345.743 49.1052 348.267 48.727C351.333 48.5287 353.828 49.6603 353.867 49.9768Z" fill="#E0D9A3"/>
<path d="M353.867 49.9768C353.906 50.2933 351.749 52.3824 349.369 52.7391C346.845 53.1174 345.317 52.0704 345.195 51.08C345.124 50.5069 345.743 49.1052 348.267 48.727C351.333 48.5287 353.828 49.6603 353.867 49.9768Z" fill="#E0D9A3"/>
<path d="M353.867 49.9768C353.906 50.2933 351.749 52.3824 349.369 52.7391C346.845 53.1174 345.317 52.0704 345.195 51.08C345.124 50.5069 345.743 49.1052 348.267 48.727C351.333 48.5287 353.828 49.6603 353.867 49.9768Z" fill="#E0D9A3"/>
<path d="M353.867 49.9768C353.906 50.2933 351.749 52.3824 349.369 52.7391C346.845 53.1174 345.317 52.0704 345.195 51.08C345.124 50.5069 345.743 49.1052 348.267 48.727C351.333 48.5287 353.828 49.6603 353.867 49.9768Z" fill="#E0D9A3"/>
<path d="M353.867 49.9768C353.906 50.2933 351.749 52.3824 349.369 52.7391C346.845 53.1174 345.317 52.0704 345.195 51.08C345.124 50.5069 345.743 49.1052 348.267 48.727C351.333 48.5287 353.828 49.6603 353.867 49.9768Z" fill="#E0D9A3"/>
<path d="M353.867 49.9768C353.906 50.2933 351.749 52.3824 349.369 52.7391C346.845 53.1174 345.317 52.0704 345.195 51.08C345.124 50.5069 345.743 49.1052 348.267 48.727C351.333 48.5287 353.828 49.6603 353.867 49.9768Z" fill="#E0D9A3"/>
<path d="M346.078 42.9592C346.372 43.0758 347.152 45.9929 346.322 48.2786C345.443 50.7025 343.327 52.165 342.409 51.8001C341.878 51.589 340.497 50.2972 341.839 47.2161C343.135 44.3959 345.785 42.8427 346.078 42.9592Z" fill="#EDE6B2"/>
<path d="M346.078 42.9592C346.372 43.0758 347.152 45.9929 346.322 48.2786C345.443 50.7025 343.327 52.165 342.409 51.8001C341.878 51.589 340.497 50.2972 341.839 47.2161C343.135 44.3959 345.785 42.8427 346.078 42.9592Z" fill="#EDE6B2"/>
<path d="M346.078 42.9592C346.372 43.0758 347.152 45.9929 346.322 48.2786C345.443 50.7025 343.327 52.165 342.409 51.8001C341.878 51.589 340.497 50.2972 341.839 47.2161C343.135 44.3959 345.785 42.8427 346.078 42.9592Z" fill="#EDE6B2"/>
<path d="M346.078 42.9592C346.372 43.0758 347.152 45.9929 346.322 48.2786C345.443 50.7025 343.327 52.165 342.409 51.8001C341.878 51.589 340.497 50.2972 341.839 47.2161C343.135 44.3959 345.785 42.8427 346.078 42.9592Z" fill="#EDE6B2"/>
<path d="M346.078 42.9592C346.372 43.0758 347.152 45.9929 346.322 48.2786C345.443 50.7025 343.327 52.165 342.409 51.8001C341.878 51.589 340.497 50.2972 341.839 47.2161C343.135 44.3959 345.785 42.8427 346.078 42.9592Z" fill="#EDE6B2"/>
<path d="M346.078 42.9592C346.372 43.0758 347.152 45.9929 346.322 48.2786C345.443 50.7025 343.327 52.165 342.409 51.8001C341.878 51.589 340.497 50.2972 341.839 47.2161C343.135 44.3959 345.785 42.8427 346.078 42.9592Z" fill="#EDE6B2"/>
<path d="M349.487 53.228C349.527 53.5445 346.938 55.3226 344.558 55.6793C342.034 56.0576 340.507 55.0106 340.384 54.0201C340.313 53.4471 340.932 52.0453 343.456 51.6672C346.523 51.4689 349.448 52.9115 349.487 53.228Z" fill="#CBC389"/>
<path d="M349.487 53.228C349.527 53.5445 346.938 55.3226 344.558 55.6793C342.034 56.0576 340.507 55.0106 340.384 54.0201C340.313 53.4471 340.932 52.0453 343.456 51.6672C346.523 51.4689 349.448 52.9115 349.487 53.228Z" fill="#CBC389"/>
<path d="M349.487 53.228C349.527 53.5445 346.938 55.3226 344.558 55.6793C342.034 56.0576 340.507 55.0106 340.384 54.0201C340.313 53.4471 340.932 52.0453 343.456 51.6672C346.523 51.4689 349.448 52.9115 349.487 53.228Z" fill="#CBC389"/>
<path d="M349.487 53.228C349.527 53.5445 346.938 55.3226 344.558 55.6793C342.034 56.0576 340.507 55.0106 340.384 54.0201C340.313 53.4471 340.932 52.0453 343.456 51.6672C346.523 51.4689 349.448 52.9115 349.487 53.228Z" fill="#CBC389"/>
<path d="M349.487 53.228C349.527 53.5445 346.938 55.3226 344.558 55.6793C342.034 56.0576 340.507 55.0106 340.384 54.0201C340.313 53.4471 340.932 52.0453 343.456 51.6672C346.523 51.4689 349.448 52.9115 349.487 53.228Z" fill="#CBC389"/>
<path d="M349.487 53.228C349.527 53.5445 346.938 55.3226 344.558 55.6793C342.034 56.0576 340.507 55.0106 340.384 54.0201C340.313 53.4471 340.932 52.0453 343.456 51.6672C346.523 51.4689 349.448 52.9115 349.487 53.228Z" fill="#CBC389"/>
<path d="M341.509 46.11C341.802 46.2265 342.582 49.1436 341.753 51.4293C340.873 53.8532 338.879 55.7944 337.669 55.3134C337.138 55.1023 335.927 53.4479 337.27 50.3668C338.565 47.5466 341.215 45.9935 341.509 46.11Z" fill="#E0D9A3"/>
<path d="M341.509 46.11C341.802 46.2265 342.582 49.1436 341.753 51.4293C340.873 53.8532 338.879 55.7944 337.669 55.3134C337.138 55.1023 335.927 53.4479 337.27 50.3668C338.565 47.5466 341.215 45.9935 341.509 46.11Z" fill="#E0D9A3"/>
<path d="M341.509 46.11C341.802 46.2265 342.582 49.1436 341.753 51.4293C340.873 53.8532 338.879 55.7944 337.669 55.3134C337.138 55.1023 335.927 53.4479 337.27 50.3668C338.565 47.5466 341.215 45.9935 341.509 46.11Z" fill="#E0D9A3"/>
<path d="M341.509 46.11C341.802 46.2265 342.582 49.1436 341.753 51.4293C340.873 53.8532 338.879 55.7944 337.669 55.3134C337.138 55.1023 335.927 53.4479 337.27 50.3668C338.565 47.5466 341.215 45.9935 341.509 46.11Z" fill="#E0D9A3"/>
<path d="M341.509 46.11C341.802 46.2265 342.582 49.1436 341.753 51.4293C340.873 53.8532 338.879 55.7944 337.669 55.3134C337.138 55.1023 335.927 53.4479 337.27 50.3668C338.565 47.5466 341.215 45.9935 341.509 46.11Z" fill="#E0D9A3"/>
<path d="M341.509 46.11C341.802 46.2265 342.582 49.1436 341.753 51.4293C340.873 53.8532 338.879 55.7944 337.669 55.3134C337.138 55.1023 335.927 53.4479 337.27 50.3668C338.565 47.5466 341.215 45.9935 341.509 46.11Z" fill="#E0D9A3"/>
<path d="M345.314 56.6692C345.353 56.9857 342.317 59.3248 339.937 59.6815C337.413 60.0598 335.74 58.311 335.618 57.3206C335.547 56.7476 336.843 55.4755 339.368 55.0974C342.434 54.8991 345.275 56.3528 345.314 56.6692Z" fill="#EDE6B2"/>
<path d="M345.314 56.6692C345.353 56.9857 342.317 59.3248 339.937 59.6815C337.413 60.0598 335.74 58.311 335.618 57.3206C335.547 56.7476 336.843 55.4755 339.368 55.0974C342.434 54.8991 345.275 56.3528 345.314 56.6692Z" fill="#EDE6B2"/>
<path d="M345.314 56.6692C345.353 56.9857 342.317 59.3248 339.937 59.6815C337.413 60.0598 335.74 58.311 335.618 57.3206C335.547 56.7476 336.843 55.4755 339.368 55.0974C342.434 54.8991 345.275 56.3528 345.314 56.6692Z" fill="#EDE6B2"/>
<path d="M345.314 56.6692C345.353 56.9857 342.317 59.3248 339.937 59.6815C337.413 60.0598 335.74 58.311 335.618 57.3206C335.547 56.7476 336.843 55.4755 339.368 55.0974C342.434 54.8991 345.275 56.3528 345.314 56.6692Z" fill="#EDE6B2"/>
<path d="M345.314 56.6692C345.353 56.9857 342.317 59.3248 339.937 59.6815C337.413 60.0598 335.74 58.311 335.618 57.3206C335.547 56.7476 336.843 55.4755 339.368 55.0974C342.434 54.8991 345.275 56.3528 345.314 56.6692Z" fill="#EDE6B2"/>
<path d="M345.314 56.6692C345.353 56.9857 342.317 59.3248 339.937 59.6815C337.413 60.0598 335.74 58.311 335.618 57.3206C335.547 56.7476 336.843 55.4755 339.368 55.0974C342.434 54.8991 345.275 56.3528 345.314 56.6692Z" fill="#EDE6B2"/>
<path d="M340.574 60.1827C340.614 60.4991 337.577 62.8382 335.197 63.1949C332.673 63.5732 331.001 61.8245 330.878 60.834C330.807 60.261 332.104 58.9889 334.628 58.6108C337.694 58.4125 340.535 59.8662 340.574 60.1827Z" fill="#CBC389"/>
<path d="M340.574 60.1827C340.614 60.4991 337.577 62.8382 335.197 63.1949C332.673 63.5732 331.001 61.8245 330.878 60.834C330.807 60.261 332.104 58.9889 334.628 58.6108C337.694 58.4125 340.535 59.8662 340.574 60.1827Z" fill="#CBC389"/>
<path d="M340.574 60.1827C340.614 60.4991 337.577 62.8382 335.197 63.1949C332.673 63.5732 331.001 61.8245 330.878 60.834C330.807 60.261 332.104 58.9889 334.628 58.6108C337.694 58.4125 340.535 59.8662 340.574 60.1827Z" fill="#CBC389"/>
<path d="M340.574 60.1827C340.614 60.4991 337.577 62.8382 335.197 63.1949C332.673 63.5732 331.001 61.8245 330.878 60.834C330.807 60.261 332.104 58.9889 334.628 58.6108C337.694 58.4125 340.535 59.8662 340.574 60.1827Z" fill="#CBC389"/>
<path d="M340.574 60.1827C340.614 60.4991 337.577 62.8382 335.197 63.1949C332.673 63.5732 331.001 61.8245 330.878 60.834C330.807 60.261 332.104 58.9889 334.628 58.6108C337.694 58.4125 340.535 59.8662 340.574 60.1827Z" fill="#CBC389"/>
<path d="M340.574 60.1827C340.614 60.4991 337.577 62.8382 335.197 63.1949C332.673 63.5732 331.001 61.8245 330.878 60.834C330.807 60.261 332.104 58.9889 334.628 58.6108C337.694 58.4125 340.535 59.8662 340.574 60.1827Z" fill="#CBC389"/>
<path d="M335.268 63.768C335.307 64.0845 332.271 66.4233 329.891 66.78C327.367 67.1583 325.766 65.9828 325.643 64.9923C325.572 64.4193 326.869 63.1472 329.393 62.7691C332.46 62.5708 335.229 63.4516 335.268 63.768Z" fill="#E0D9A3"/>
<path d="M335.268 63.768C335.307 64.0845 332.271 66.4233 329.891 66.78C327.367 67.1583 325.766 65.9828 325.643 64.9923C325.572 64.4193 326.869 63.1472 329.393 62.7691C332.46 62.5708 335.229 63.4516 335.268 63.768Z" fill="#E0D9A3"/>
<path d="M335.268 63.768C335.307 64.0845 332.271 66.4233 329.891 66.78C327.367 67.1583 325.766 65.9828 325.643 64.9923C325.572 64.4193 326.869 63.1472 329.393 62.7691C332.46 62.5708 335.229 63.4516 335.268 63.768Z" fill="#E0D9A3"/>
<path d="M335.268 63.768C335.307 64.0845 332.271 66.4233 329.891 66.78C327.367 67.1583 325.766 65.9828 325.643 64.9923C325.572 64.4193 326.869 63.1472 329.393 62.7691C332.46 62.5708 335.229 63.4516 335.268 63.768Z" fill="#E0D9A3"/>
<path d="M335.268 63.768C335.307 64.0845 332.271 66.4233 329.891 66.78C327.367 67.1583 325.766 65.9828 325.643 64.9923C325.572 64.4193 326.869 63.1472 329.393 62.7691C332.46 62.5708 335.229 63.4516 335.268 63.768Z" fill="#E0D9A3"/>
<path d="M335.268 63.768C335.307 64.0845 332.271 66.4233 329.891 66.78C327.367 67.1583 325.766 65.9828 325.643 64.9923C325.572 64.4193 326.869 63.1472 329.393 62.7691C332.46 62.5708 335.229 63.4516 335.268 63.768Z" fill="#E0D9A3"/>
<path d="M336.461 50.2443C336.755 50.3608 337.535 53.2779 336.705 55.5636C335.826 57.9875 333.831 59.9286 332.621 59.4477C332.09 59.2366 330.88 57.5822 332.222 54.5011C333.518 51.6809 336.168 50.1277 336.461 50.2443Z" fill="#EDE6B2"/>
<path d="M336.461 50.2443C336.755 50.3608 337.535 53.2779 336.705 55.5636C335.826 57.9875 333.831 59.9286 332.621 59.4477C332.09 59.2366 330.88 57.5822 332.222 54.5011C333.518 51.6809 336.168 50.1277 336.461 50.2443Z" fill="#EDE6B2"/>
<path d="M336.461 50.2443C336.755 50.3608 337.535 53.2779 336.705 55.5636C335.826 57.9875 333.831 59.9286 332.621 59.4477C332.09 59.2366 330.88 57.5822 332.222 54.5011C333.518 51.6809 336.168 50.1277 336.461 50.2443Z" fill="#EDE6B2"/>
<path d="M336.461 50.2443C336.755 50.3608 337.535 53.2779 336.705 55.5636C335.826 57.9875 333.831 59.9286 332.621 59.4477C332.09 59.2366 330.88 57.5822 332.222 54.5011C333.518 51.6809 336.168 50.1277 336.461 50.2443Z" fill="#EDE6B2"/>
<path d="M336.461 50.2443C336.755 50.3608 337.535 53.2779 336.705 55.5636C335.826 57.9875 333.831 59.9286 332.621 59.4477C332.09 59.2366 330.88 57.5822 332.222 54.5011C333.518 51.6809 336.168 50.1277 336.461 50.2443Z" fill="#EDE6B2"/>
<path d="M336.461 50.2443C336.755 50.3608 337.535 53.2779 336.705 55.5636C335.826 57.9875 333.831 59.9286 332.621 59.4477C332.09 59.2366 330.88 57.5822 332.222 54.5011C333.518 51.6809 336.168 50.1277 336.461 50.2443Z" fill="#EDE6B2"/>
<path d="M331.722 53.7415C332.016 53.8581 332.3 57.4362 331.47 59.7219C330.591 62.1458 328.597 64.087 327.387 63.606C326.856 63.3949 325.645 61.7405 326.988 58.6594C328.283 55.8392 331.429 53.625 331.722 53.7415Z" fill="#E0D9A3"/>
<path d="M331.722 53.7415C332.016 53.8581 332.3 57.4362 331.47 59.7219C330.591 62.1458 328.597 64.087 327.387 63.606C326.856 63.3949 325.645 61.7405 326.988 58.6594C328.283 55.8392 331.429 53.625 331.722 53.7415Z" fill="#E0D9A3"/>
<path d="M331.722 53.7415C332.016 53.8581 332.3 57.4362 331.47 59.7219C330.591 62.1458 328.597 64.087 327.387 63.606C326.856 63.3949 325.645 61.7405 326.988 58.6594C328.283 55.8392 331.429 53.625 331.722 53.7415Z" fill="#E0D9A3"/>
<path d="M331.722 53.7415C332.016 53.8581 332.3 57.4362 331.47 59.7219C330.591 62.1458 328.597 64.087 327.387 63.606C326.856 63.3949 325.645 61.7405 326.988 58.6594C328.283 55.8392 331.429 53.625 331.722 53.7415Z" fill="#E0D9A3"/>
<path d="M331.722 53.7415C332.016 53.8581 332.3 57.4362 331.47 59.7219C330.591 62.1458 328.597 64.087 327.387 63.606C326.856 63.3949 325.645 61.7405 326.988 58.6594C328.283 55.8392 331.429 53.625 331.722 53.7415Z" fill="#E0D9A3"/>
<path d="M331.722 53.7415C332.016 53.8581 332.3 57.4362 331.47 59.7219C330.591 62.1458 328.597 64.087 327.387 63.606C326.856 63.3949 325.645 61.7405 326.988 58.6594C328.283 55.8392 331.429 53.625 331.722 53.7415Z" fill="#E0D9A3"/>
<path d="M329.962 67.353C330.001 67.6695 327.416 70.0051 325.151 70.2932C321.57 70.7487 320.479 69.7233 320.408 69.1502C320.369 68.8337 319.981 65.7122 325.785 66.1381C329.325 66.852 329.923 67.0365 329.962 67.353Z" fill="#EDE6B2"/>
<path d="M329.962 67.353C330.001 67.6695 327.416 70.0051 325.151 70.2932C321.57 70.7487 320.479 69.7233 320.408 69.1502C320.369 68.8337 319.981 65.7122 325.785 66.1381C329.325 66.852 329.923 67.0365 329.962 67.353Z" fill="#EDE6B2"/>
<path d="M329.962 67.353C330.001 67.6695 327.416 70.0051 325.151 70.2932C321.57 70.7487 320.479 69.7233 320.408 69.1502C320.369 68.8337 319.981 65.7122 325.785 66.1381C329.325 66.852 329.923 67.0365 329.962 67.353Z" fill="#EDE6B2"/>
<path d="M329.962 67.353C330.001 67.6695 327.416 70.0051 325.151 70.2932C321.57 70.7487 320.479 69.7233 320.408 69.1502C320.369 68.8337 319.981 65.7122 325.785 66.1381C329.325 66.852 329.923 67.0365 329.962 67.353Z" fill="#EDE6B2"/>
<path d="M329.962 67.353C330.001 67.6695 327.416 70.0051 325.151 70.2932C321.57 70.7487 320.479 69.7233 320.408 69.1502C320.369 68.8337 319.981 65.7122 325.785 66.1381C329.325 66.852 329.923 67.0365 329.962 67.353Z" fill="#EDE6B2"/>
<path d="M329.962 67.353C330.001 67.6695 327.416 70.0051 325.151 70.2932C321.57 70.7487 320.479 69.7233 320.408 69.1502C320.369 68.8337 319.981 65.7122 325.785 66.1381C329.325 66.852 329.923 67.0365 329.962 67.353Z" fill="#EDE6B2"/>
<path d="M324.585 70.3653C324.624 70.6818 324.137 71.3924 321.968 72.4445C318.713 74.0226 317.296 71.8746 317.225 71.3015C317.185 70.985 318.144 69.4385 319.842 69.2224C323.31 69.3633 324.546 70.0489 324.585 70.3653Z" fill="#CBC389"/>
<path d="M324.585 70.3653C324.624 70.6818 324.137 71.3924 321.968 72.4445C318.713 74.0226 317.296 71.8746 317.225 71.3015C317.185 70.985 318.144 69.4385 319.842 69.2224C323.31 69.3633 324.546 70.0489 324.585 70.3653Z" fill="#CBC389"/>
<path d="M324.585 70.3653C324.624 70.6818 324.137 71.3924 321.968 72.4445C318.713 74.0226 317.296 71.8746 317.225 71.3015C317.185 70.985 318.144 69.4385 319.842 69.2224C323.31 69.3633 324.546 70.0489 324.585 70.3653Z" fill="#CBC389"/>
<path d="M324.585 70.3653C324.624 70.6818 324.137 71.3924 321.968 72.4445C318.713 74.0226 317.296 71.8746 317.225 71.3015C317.185 70.985 318.144 69.4385 319.842 69.2224C323.31 69.3633 324.546 70.0489 324.585 70.3653Z" fill="#CBC389"/>
<path d="M324.585 70.3653C324.624 70.6818 324.137 71.3924 321.968 72.4445C318.713 74.0226 317.296 71.8746 317.225 71.3015C317.185 70.985 318.144 69.4385 319.842 69.2224C323.31 69.3633 324.546 70.0489 324.585 70.3653Z" fill="#CBC389"/>
<path d="M324.585 70.3653C324.624 70.6818 324.137 71.3924 321.968 72.4445C318.713 74.0226 317.296 71.8746 317.225 71.3015C317.185 70.985 318.144 69.4385 319.842 69.2224C323.31 69.3633 324.546 70.0489 324.585 70.3653Z" fill="#CBC389"/>
<path d="M326.416 57.3269C326.717 57.4218 326.553 58.6384 326.6 61.073C326.684 65.4418 323.33 66.8678 322.388 66.5703C321.843 66.3982 320.638 64.3469 321.819 61.9862C323.383 58.8501 326.115 57.2319 326.416 57.3269Z" fill="#CBC389"/>
<path d="M326.416 57.3269C326.717 57.4218 326.553 58.6384 326.6 61.073C326.684 65.4418 323.33 66.8678 322.388 66.5703C321.843 66.3982 320.638 64.3469 321.819 61.9862C323.383 58.8501 326.115 57.2319 326.416 57.3269Z" fill="#CBC389"/>
<path d="M326.416 57.3269C326.717 57.4218 326.553 58.6384 326.6 61.073C326.684 65.4418 323.33 66.8678 322.388 66.5703C321.843 66.3982 320.638 64.3469 321.819 61.9862C323.383 58.8501 326.115 57.2319 326.416 57.3269Z" fill="#CBC389"/>
<path d="M326.416 57.3269C326.717 57.4218 326.553 58.6384 326.6 61.073C326.684 65.4418 323.33 66.8678 322.388 66.5703C321.843 66.3982 320.638 64.3469 321.819 61.9862C323.383 58.8501 326.115 57.2319 326.416 57.3269Z" fill="#CBC389"/>
<path d="M326.416 57.3269C326.717 57.4218 326.553 58.6384 326.6 61.073C326.684 65.4418 323.33 66.8678 322.388 66.5703C321.843 66.3982 320.638 64.3469 321.819 61.9862C323.383 58.8501 326.115 57.2319 326.416 57.3269Z" fill="#CBC389"/>
<path d="M326.416 57.3269C326.717 57.4218 326.553 58.6384 326.6 61.073C326.684 65.4418 323.33 66.8678 322.388 66.5703C321.843 66.3982 320.638 64.3469 321.819 61.9862C323.383 58.8501 326.115 57.2319 326.416 57.3269Z" fill="#CBC389"/>
<path d="M321.087 61.7335C321.388 61.8285 321.512 63.0997 321.559 65.5343C321.629 69.1862 318.196 70.2561 317.652 70.0842C317.351 69.9892 315.975 68.455 317.156 66.0942C318.72 62.9582 320.786 61.6386 321.087 61.7335Z" fill="#E0D9A3"/>
<path d="M321.087 61.7335C321.388 61.8285 321.512 63.0997 321.559 65.5343C321.629 69.1862 318.196 70.2561 317.652 70.0842C317.351 69.9892 315.975 68.455 317.156 66.0942C318.72 62.9582 320.786 61.6386 321.087 61.7335Z" fill="#E0D9A3"/>
<path d="M321.087 61.7335C321.388 61.8285 321.512 63.0997 321.559 65.5343C321.629 69.1862 318.196 70.2561 317.652 70.0842C317.351 69.9892 315.975 68.455 317.156 66.0942C318.72 62.9582 320.786 61.6386 321.087 61.7335Z" fill="#E0D9A3"/>
<path d="M321.087 61.7335C321.388 61.8285 321.512 63.0997 321.559 65.5343C321.629 69.1862 318.196 70.2561 317.652 70.0842C317.351 69.9892 315.975 68.455 317.156 66.0942C318.72 62.9582 320.786 61.6386 321.087 61.7335Z" fill="#E0D9A3"/>
<path d="M321.087 61.7335C321.388 61.8285 321.512 63.0997 321.559 65.5343C321.629 69.1862 318.196 70.2561 317.652 70.0842C317.351 69.9892 315.975 68.455 317.156 66.0942C318.72 62.9582 320.786 61.6386 321.087 61.7335Z" fill="#E0D9A3"/>
<path d="M321.087 61.7335C321.388 61.8285 321.512 63.0997 321.559 65.5343C321.629 69.1862 318.196 70.2561 317.652 70.0842C317.351 69.9892 315.975 68.455 317.156 66.0942C318.72 62.9582 320.786 61.6386 321.087 61.7335Z" fill="#E0D9A3"/>
<path d="M315.743 74.36L316.24 74.3721L315.743 74.36ZM317.756 54.0431L318.252 54.0856L317.756 54.0431ZM316 84.6957L316.497 84.6833L316.497 84.6754L316.497 84.6676L316 84.6957ZM316.24 74.3721C316.339 70.2113 316.665 67.2368 317.055 64.257C317.445 61.2758 317.901 58.2719 318.252 54.0856L317.26 54.0006C316.911 58.1565 316.46 61.1262 316.068 64.1253C315.675 67.126 315.344 70.1388 315.245 74.3478L316.24 74.3721ZM318.252 54.0856C318.505 51.0693 318.976 48.1087 319.343 45.0179C319.708 41.944 319.964 38.7823 319.768 35.4521L318.774 35.5112C318.965 38.7539 318.717 41.8474 318.355 44.8982C317.994 47.9321 317.514 50.9657 317.26 54.0006L318.252 54.0856ZM316.755 95.019L316.497 84.6833L315.502 84.7081L315.759 95.0438L316.755 95.019ZM316 84.6957C316.497 84.6676 316.497 84.6676 316.497 84.6675C316.497 84.6675 316.497 84.6674 316.497 84.6673C316.497 84.6672 316.497 84.6669 316.497 84.6665C316.497 84.6658 316.497 84.6647 316.497 84.6632C316.496 84.6602 316.496 84.6558 316.496 84.6498C316.495 84.6379 316.494 84.6201 316.493 84.5967C316.49 84.5499 316.487 84.4805 316.482 84.3908C316.473 84.2113 316.459 83.9502 316.443 83.6241C316.412 82.972 316.371 82.0605 316.333 81.0232C316.257 78.9457 316.193 76.3744 316.24 74.3721L315.245 74.3478C315.197 76.3821 315.262 78.9786 315.338 81.0599C315.376 82.1019 315.417 83.0175 315.449 83.6726C315.465 84.0002 315.478 84.2627 315.488 84.4435C315.492 84.5339 315.496 84.6038 315.499 84.6512C315.5 84.6749 315.501 84.693 315.502 84.7052C315.502 84.7113 315.502 84.7159 315.502 84.719C315.502 84.7206 315.502 84.7218 315.503 84.7226C315.503 84.723 315.503 84.7233 315.503 84.7235C315.503 84.7236 315.503 84.7237 315.503 84.7237C315.503 84.7238 315.503 84.7238 316 84.6957Z" fill="#9A8F56"/>
<path d="M321.145 25.5756C321.456 25.6263 322.831 28.309 322.5 30.721C322.15 33.2787 320.743 33.8858 319.77 33.7267C319.206 33.6346 318.035 33.2219 318.386 30.6639C319.06 27.6295 320.834 25.5248 321.145 25.5756Z" fill="#EDE6B2"/>
<path d="M321.145 25.5756C321.456 25.6263 322.831 28.309 322.5 30.721C322.15 33.2787 320.743 33.8858 319.77 33.7267C319.206 33.6346 318.035 33.2219 318.386 30.6639C319.06 27.6295 320.834 25.5248 321.145 25.5756Z" fill="#EDE6B2"/>
<path d="M321.145 25.5756C321.456 25.6263 322.831 28.309 322.5 30.721C322.15 33.2787 320.743 33.8858 319.77 33.7267C319.206 33.6346 318.035 33.2219 318.386 30.6639C319.06 27.6295 320.834 25.5248 321.145 25.5756Z" fill="#EDE6B2"/>
<path d="M321.145 25.5756C321.456 25.6263 322.831 28.309 322.5 30.721C322.15 33.2787 320.743 33.8858 319.77 33.7267C319.206 33.6346 318.035 33.2219 318.386 30.6639C319.06 27.6295 320.834 25.5248 321.145 25.5756Z" fill="#EDE6B2"/>
<path d="M321.145 25.5756C321.456 25.6263 322.831 28.309 322.5 30.721C322.15 33.2787 320.743 33.8858 319.77 33.7267C319.206 33.6346 318.035 33.2219 318.386 30.6639C319.06 27.6295 320.834 25.5248 321.145 25.5756Z" fill="#EDE6B2"/>
<path d="M321.145 25.5756C321.456 25.6263 322.831 28.309 322.5 30.721C322.15 33.2787 320.743 33.8858 319.77 33.7267C319.206 33.6346 318.035 33.2219 318.386 30.6639C319.06 27.6295 320.834 25.5248 321.145 25.5756Z" fill="#EDE6B2"/>
<path d="M316.119 28.7118C316.409 28.5871 318.985 30.1168 319.974 32.3365C321.023 34.6903 320.152 35.9623 319.244 36.3524C318.719 36.578 317.511 36.8598 316.462 34.5056C315.435 31.5741 315.829 28.8365 316.119 28.7118Z" fill="#E0D9A3"/>
<path d="M316.119 28.7118C316.409 28.5871 318.985 30.1168 319.974 32.3365C321.023 34.6903 320.152 35.9623 319.244 36.3524C318.719 36.578 317.511 36.8598 316.462 34.5056C315.435 31.5741 315.829 28.8365 316.119 28.7118Z" fill="#E0D9A3"/>
<path d="M316.119 28.7118C316.409 28.5871 318.985 30.1168 319.974 32.3365C321.023 34.6903 320.152 35.9623 319.244 36.3524C318.719 36.578 317.511 36.8598 316.462 34.5056C315.435 31.5741 315.829 28.8365 316.119 28.7118Z" fill="#E0D9A3"/>
<path d="M316.119 28.7118C316.409 28.5871 318.985 30.1168 319.974 32.3365C321.023 34.6903 320.152 35.9623 319.244 36.3524C318.719 36.578 317.511 36.8598 316.462 34.5056C315.435 31.5741 315.829 28.8365 316.119 28.7118Z" fill="#E0D9A3"/>
<path d="M316.119 28.7118C316.409 28.5871 318.985 30.1168 319.974 32.3365C321.023 34.6903 320.152 35.9623 319.244 36.3524C318.719 36.578 317.511 36.8598 316.462 34.5056C315.435 31.5741 315.829 28.8365 316.119 28.7118Z" fill="#E0D9A3"/>
<path d="M316.119 28.7118C316.409 28.5871 318.985 30.1168 319.974 32.3365C321.023 34.6903 320.152 35.9623 319.244 36.3524C318.719 36.578 317.511 36.8598 316.462 34.5056C315.435 31.5741 315.829 28.8365 316.119 28.7118Z" fill="#E0D9A3"/>
<path d="M324.66 31.9979C324.92 32.1784 325.029 35.1984 323.711 37.2357C322.314 39.3963 320.526 39.8562 319.713 39.2911C319.243 38.9641 318.619 37.5647 320.016 35.404C321.907 32.9524 324.4 31.8174 324.66 31.9979Z" fill="#E0D9A3"/>
<path d="M324.66 31.9979C324.92 32.1784 325.029 35.1984 323.711 37.2357C322.314 39.3963 320.526 39.8562 319.713 39.2911C319.243 38.9641 318.619 37.5647 320.016 35.404C321.907 32.9524 324.4 31.8174 324.66 31.9979Z" fill="#E0D9A3"/>
<path d="M324.66 31.9979C324.92 32.1784 325.029 35.1984 323.711 37.2357C322.314 39.3963 320.526 39.8562 319.713 39.2911C319.243 38.9641 318.619 37.5647 320.016 35.404C321.907 32.9524 324.4 31.8174 324.66 31.9979Z" fill="#E0D9A3"/>
<path d="M324.66 31.9979C324.92 32.1784 325.029 35.1984 323.711 37.2357C322.314 39.3963 320.526 39.8562 319.713 39.2911C319.243 38.9641 318.619 37.5647 320.016 35.404C321.907 32.9524 324.4 31.8174 324.66 31.9979Z" fill="#E0D9A3"/>
<path d="M324.66 31.9979C324.92 32.1784 325.029 35.1984 323.711 37.2357C322.314 39.3963 320.526 39.8562 319.713 39.2911C319.243 38.9641 318.619 37.5647 320.016 35.404C321.907 32.9524 324.4 31.8174 324.66 31.9979Z" fill="#E0D9A3"/>
<path d="M324.66 31.9979C324.92 32.1784 325.029 35.1984 323.711 37.2357C322.314 39.3963 320.526 39.8562 319.713 39.2911C319.243 38.9641 318.619 37.5647 320.016 35.404C321.907 32.9524 324.4 31.8174 324.66 31.9979Z" fill="#E0D9A3"/>
<path d="M314.303 33.2277C314.584 33.0832 317.257 34.4311 318.393 36.5771C319.599 38.8529 319.274 41.4249 318.394 41.8769C317.886 42.1384 316.014 42.325 314.631 39.2625C313.409 36.4089 314.022 33.3722 314.303 33.2277Z" fill="#EDE6B2"/>
<path d="M314.303 33.2277C314.584 33.0832 317.257 34.4311 318.393 36.5771C319.599 38.8529 319.274 41.4249 318.394 41.8769C317.886 42.1384 316.014 42.325 314.631 39.2625C313.409 36.4089 314.022 33.3722 314.303 33.2277Z" fill="#EDE6B2"/>
<path d="M314.303 33.2277C314.584 33.0832 317.257 34.4311 318.393 36.5771C319.599 38.8529 319.274 41.4249 318.394 41.8769C317.886 42.1384 316.014 42.325 314.631 39.2625C313.409 36.4089 314.022 33.3722 314.303 33.2277Z" fill="#EDE6B2"/>
<path d="M314.303 33.2277C314.584 33.0832 317.257 34.4311 318.393 36.5771C319.599 38.8529 319.274 41.4249 318.394 41.8769C317.886 42.1384 316.014 42.325 314.631 39.2625C313.409 36.4089 314.022 33.3722 314.303 33.2277Z" fill="#EDE6B2"/>
<path d="M314.303 33.2277C314.584 33.0832 317.257 34.4311 318.393 36.5771C319.599 38.8529 319.274 41.4249 318.394 41.8769C317.886 42.1384 316.014 42.325 314.631 39.2625C313.409 36.4089 314.022 33.3722 314.303 33.2277Z" fill="#EDE6B2"/>
<path d="M314.303 33.2277C314.584 33.0832 317.257 34.4311 318.393 36.5771C319.599 38.8529 319.274 41.4249 318.394 41.8769C317.886 42.1384 316.014 42.325 314.631 39.2625C313.409 36.4089 314.022 33.3722 314.303 33.2277Z" fill="#EDE6B2"/>
<path d="M324.151 37.4709C324.411 37.6515 324.004 40.7909 322.687 42.8283C321.289 44.9888 319.501 45.4488 318.688 44.8836C318.218 44.5567 317.594 43.1573 318.992 40.9966C320.883 38.545 323.891 37.2904 324.151 37.4709Z" fill="#CBC389"/>
<path d="M324.151 37.4709C324.411 37.6515 324.004 40.7909 322.687 42.8283C321.289 44.9888 319.501 45.4488 318.688 44.8836C318.218 44.5567 317.594 43.1573 318.992 40.9966C320.883 38.545 323.891 37.2904 324.151 37.4709Z" fill="#CBC389"/>
<path d="M324.151 37.4709C324.411 37.6515 324.004 40.7909 322.687 42.8283C321.289 44.9888 319.501 45.4488 318.688 44.8836C318.218 44.5567 317.594 43.1573 318.992 40.9966C320.883 38.545 323.891 37.2904 324.151 37.4709Z" fill="#CBC389"/>
<path d="M324.151 37.4709C324.411 37.6515 324.004 40.7909 322.687 42.8283C321.289 44.9888 319.501 45.4488 318.688 44.8836C318.218 44.5567 317.594 43.1573 318.992 40.9966C320.883 38.545 323.891 37.2904 324.151 37.4709Z" fill="#CBC389"/>
<path d="M324.151 37.4709C324.411 37.6515 324.004 40.7909 322.687 42.8283C321.289 44.9888 319.501 45.4488 318.688 44.8836C318.218 44.5567 317.594 43.1573 318.992 40.9966C320.883 38.545 323.891 37.2904 324.151 37.4709Z" fill="#CBC389"/>
<path d="M324.151 37.4709C324.411 37.6515 324.004 40.7909 322.687 42.8283C321.289 44.9888 319.501 45.4488 318.688 44.8836C318.218 44.5567 317.594 43.1573 318.992 40.9966C320.883 38.545 323.891 37.2904 324.151 37.4709Z" fill="#CBC389"/>
<path d="M313.594 38.7776C313.875 38.633 316.548 39.981 317.684 42.127C318.89 44.4027 318.999 47.2008 317.84 47.7966C317.331 48.0581 315.305 47.8748 313.922 44.8123C312.7 41.9587 313.313 38.9221 313.594 38.7776Z" fill="#E0D9A3"/>
<path d="M313.594 38.7776C313.875 38.633 316.548 39.981 317.684 42.127C318.89 44.4027 318.999 47.2008 317.84 47.7966C317.331 48.0581 315.305 47.8748 313.922 44.8123C312.7 41.9587 313.313 38.9221 313.594 38.7776Z" fill="#E0D9A3"/>
<path d="M313.594 38.7776C313.875 38.633 316.548 39.981 317.684 42.127C318.89 44.4027 318.999 47.2008 317.84 47.7966C317.331 48.0581 315.305 47.8748 313.922 44.8123C312.7 41.9587 313.313 38.9221 313.594 38.7776Z" fill="#E0D9A3"/>
<path d="M313.594 38.7776C313.875 38.633 316.548 39.981 317.684 42.127C318.89 44.4027 318.999 47.2008 317.84 47.7966C317.331 48.0581 315.305 47.8748 313.922 44.8123C312.7 41.9587 313.313 38.9221 313.594 38.7776Z" fill="#E0D9A3"/>
<path d="M313.594 38.7776C313.875 38.633 316.548 39.981 317.684 42.127C318.89 44.4027 318.999 47.2008 317.84 47.7966C317.331 48.0581 315.305 47.8748 313.922 44.8123C312.7 41.9587 313.313 38.9221 313.594 38.7776Z" fill="#E0D9A3"/>
<path d="M313.594 38.7776C313.875 38.633 316.548 39.981 317.684 42.127C318.89 44.4027 318.999 47.2008 317.84 47.7966C317.331 48.0581 315.305 47.8748 313.922 44.8123C312.7 41.9587 313.313 38.9221 313.594 38.7776Z" fill="#E0D9A3"/>
<path d="M323.92 42.914C324.18 43.0945 323.89 46.9454 322.572 48.9828C321.175 51.1433 318.772 51.2469 317.959 50.6818C317.489 50.3548 317.411 48.5287 318.809 46.368C320.7 43.9164 323.66 42.7335 323.92 42.914Z" fill="#EDE6B2"/>
<path d="M323.92 42.914C324.18 43.0945 323.89 46.9454 322.572 48.9828C321.175 51.1433 318.772 51.2469 317.959 50.6818C317.489 50.3548 317.411 48.5287 318.809 46.368C320.7 43.9164 323.66 42.7335 323.92 42.914Z" fill="#EDE6B2"/>
<path d="M323.92 42.914C324.18 43.0945 323.89 46.9454 322.572 48.9828C321.175 51.1433 318.772 51.2469 317.959 50.6818C317.489 50.3548 317.411 48.5287 318.809 46.368C320.7 43.9164 323.66 42.7335 323.92 42.914Z" fill="#EDE6B2"/>
<path d="M323.92 42.914C324.18 43.0945 323.89 46.9454 322.572 48.9828C321.175 51.1433 318.772 51.2469 317.959 50.6818C317.489 50.3548 317.411 48.5287 318.809 46.368C320.7 43.9164 323.66 42.7335 323.92 42.914Z" fill="#EDE6B2"/>
<path d="M323.92 42.914C324.18 43.0945 323.89 46.9454 322.572 48.9828C321.175 51.1433 318.772 51.2469 317.959 50.6818C317.489 50.3548 317.411 48.5287 318.809 46.368C320.7 43.9164 323.66 42.7335 323.92 42.914Z" fill="#EDE6B2"/>
<path d="M323.92 42.914C324.18 43.0945 323.89 46.9454 322.572 48.9828C321.175 51.1433 318.772 51.2469 317.959 50.6818C317.489 50.3548 317.411 48.5287 318.809 46.368C320.7 43.9164 323.66 42.7335 323.92 42.914Z" fill="#EDE6B2"/>
<path d="M323.366 48.8337C323.626 49.0142 323.336 52.8651 322.018 54.9025C320.621 57.063 318.218 57.1666 317.405 56.6014C316.935 56.2745 316.857 54.4484 318.255 52.2877C320.146 49.8361 323.106 48.6532 323.366 48.8337Z" fill="#CBC389"/>
<path d="M323.366 48.8337C323.626 49.0142 323.336 52.8651 322.018 54.9025C320.621 57.063 318.218 57.1666 317.405 56.6014C316.935 56.2745 316.857 54.4484 318.255 52.2877C320.146 49.8361 323.106 48.6532 323.366 48.8337Z" fill="#CBC389"/>
<path d="M323.366 48.8337C323.626 49.0142 323.336 52.8651 322.018 54.9025C320.621 57.063 318.218 57.1666 317.405 56.6014C316.935 56.2745 316.857 54.4484 318.255 52.2877C320.146 49.8361 323.106 48.6532 323.366 48.8337Z" fill="#CBC389"/>
<path d="M323.366 48.8337C323.626 49.0142 323.336 52.8651 322.018 54.9025C320.621 57.063 318.218 57.1666 317.405 56.6014C316.935 56.2745 316.857 54.4484 318.255 52.2877C320.146 49.8361 323.106 48.6532 323.366 48.8337Z" fill="#CBC389"/>
<path d="M323.366 48.8337C323.626 49.0142 323.336 52.8651 322.018 54.9025C320.621 57.063 318.218 57.1666 317.405 56.6014C316.935 56.2745 316.857 54.4484 318.255 52.2877C320.146 49.8361 323.106 48.6532 323.366 48.8337Z" fill="#CBC389"/>
<path d="M323.366 48.8337C323.626 49.0142 323.336 52.8651 322.018 54.9025C320.621 57.063 318.218 57.1666 317.405 56.6014C316.935 56.2745 316.857 54.4484 318.255 52.2877C320.146 49.8361 323.106 48.6532 323.366 48.8337Z" fill="#CBC389"/>
<path d="M322.489 55.2295C322.749 55.41 322.459 59.2605 321.141 61.2979C319.744 63.4584 317.812 63.8889 316.999 63.3238C316.528 62.9968 316.45 61.1707 317.848 59.01C319.739 56.5585 322.229 55.049 322.489 55.2295Z" fill="#E0D9A3"/>
<path d="M322.489 55.2295C322.749 55.41 322.459 59.2605 321.141 61.2979C319.744 63.4584 317.812 63.8889 316.999 63.3238C316.528 62.9968 316.45 61.1707 317.848 59.01C319.739 56.5585 322.229 55.049 322.489 55.2295Z" fill="#E0D9A3"/>
<path d="M322.489 55.2295C322.749 55.41 322.459 59.2605 321.141 61.2979C319.744 63.4584 317.812 63.8889 316.999 63.3238C316.528 62.9968 316.45 61.1707 317.848 59.01C319.739 56.5585 322.229 55.049 322.489 55.2295Z" fill="#E0D9A3"/>
<path d="M322.489 55.2295C322.749 55.41 322.459 59.2605 321.141 61.2979C319.744 63.4584 317.812 63.8889 316.999 63.3238C316.528 62.9968 316.45 61.1707 317.848 59.01C319.739 56.5585 322.229 55.049 322.489 55.2295Z" fill="#E0D9A3"/>
<path d="M322.489 55.2295C322.749 55.41 322.459 59.2605 321.141 61.2979C319.744 63.4584 317.812 63.8889 316.999 63.3238C316.528 62.9968 316.45 61.1707 317.848 59.01C319.739 56.5585 322.229 55.049 322.489 55.2295Z" fill="#E0D9A3"/>
<path d="M322.489 55.2295C322.749 55.41 322.459 59.2605 321.141 61.2979C319.744 63.4584 317.812 63.8889 316.999 63.3238C316.528 62.9968 316.45 61.1707 317.848 59.01C319.739 56.5585 322.229 55.049 322.489 55.2295Z" fill="#E0D9A3"/>
<path d="M313.294 45.3424C313.575 45.1979 316.248 46.5458 317.385 48.6918C318.59 50.9675 318.699 53.7656 317.54 54.3614C317.031 54.6229 315.005 54.4396 313.622 51.3771C312.4 48.5235 313.013 45.4869 313.294 45.3424Z" fill="#EDE6B2"/>
<path d="M313.294 45.3424C313.575 45.1979 316.248 46.5458 317.385 48.6918C318.59 50.9675 318.699 53.7656 317.54 54.3614C317.031 54.6229 315.005 54.4396 313.622 51.3771C312.4 48.5235 313.013 45.4869 313.294 45.3424Z" fill="#EDE6B2"/>
<path d="M313.294 45.3424C313.575 45.1979 316.248 46.5458 317.385 48.6918C318.59 50.9675 318.699 53.7656 317.54 54.3614C317.031 54.6229 315.005 54.4396 313.622 51.3771C312.4 48.5235 313.013 45.4869 313.294 45.3424Z" fill="#EDE6B2"/>
<path d="M313.294 45.3424C313.575 45.1979 316.248 46.5458 317.385 48.6918C318.59 50.9675 318.699 53.7656 317.54 54.3614C317.031 54.6229 315.005 54.4396 313.622 51.3771C312.4 48.5235 313.013 45.4869 313.294 45.3424Z" fill="#EDE6B2"/>
<path d="M313.294 45.3424C313.575 45.1979 316.248 46.5458 317.385 48.6918C318.59 50.9675 318.699 53.7656 317.54 54.3614C317.031 54.6229 315.005 54.4396 313.622 51.3771C312.4 48.5235 313.013 45.4869 313.294 45.3424Z" fill="#EDE6B2"/>
<path d="M313.294 45.3424C313.575 45.1979 316.248 46.5458 317.385 48.6918C318.59 50.9675 318.699 53.7656 317.54 54.3614C317.031 54.6229 315.005 54.4396 313.622 51.3771C312.4 48.5235 313.013 45.4869 313.294 45.3424Z" fill="#EDE6B2"/>
<path d="M312.729 51.2506C313.01 51.1061 315.841 53.2682 316.978 55.4142C318.183 57.69 318.292 60.4881 317.133 61.0838C316.624 61.3453 314.598 61.1621 313.215 58.0996C311.993 55.246 312.448 51.3951 312.729 51.2506Z" fill="#E0D9A3"/>
<path d="M312.729 51.2506C313.01 51.1061 315.841 53.2682 316.978 55.4142C318.183 57.69 318.292 60.4881 317.133 61.0838C316.624 61.3453 314.598 61.1621 313.215 58.0996C311.993 55.246 312.448 51.3951 312.729 51.2506Z" fill="#E0D9A3"/>
<path d="M312.729 51.2506C313.01 51.1061 315.841 53.2682 316.978 55.4142C318.183 57.69 318.292 60.4881 317.133 61.0838C316.624 61.3453 314.598 61.1621 313.215 58.0996C311.993 55.246 312.448 51.3951 312.729 51.2506Z" fill="#E0D9A3"/>
<path d="M312.729 51.2506C313.01 51.1061 315.841 53.2682 316.978 55.4142C318.183 57.69 318.292 60.4881 317.133 61.0838C316.624 61.3453 314.598 61.1621 313.215 58.0996C311.993 55.246 312.448 51.3951 312.729 51.2506Z" fill="#E0D9A3"/>
<path d="M312.729 51.2506C313.01 51.1061 315.841 53.2682 316.978 55.4142C318.183 57.69 318.292 60.4881 317.133 61.0838C316.624 61.3453 314.598 61.1621 313.215 58.0996C311.993 55.246 312.448 51.3951 312.729 51.2506Z" fill="#E0D9A3"/>
<path d="M312.729 51.2506C313.01 51.1061 315.841 53.2682 316.978 55.4142C318.183 57.69 318.292 60.4881 317.133 61.0838C316.624 61.3453 314.598 61.1621 313.215 58.0996C311.993 55.246 312.448 51.3951 312.729 51.2506Z" fill="#E0D9A3"/>
<path d="M321.611 61.625C321.871 61.8055 321.878 65.3131 320.587 67.2176C318.544 70.229 317.062 70.373 316.592 70.0461C316.332 69.8656 313.769 68.0851 317.939 63.9774C320.818 61.7743 321.351 61.4445 321.611 61.625Z" fill="#EDE6B2"/>
<path d="M321.611 61.625C321.871 61.8055 321.878 65.3131 320.587 67.2176C318.544 70.229 317.062 70.373 316.592 70.0461C316.332 69.8656 313.769 68.0851 317.939 63.9774C320.818 61.7743 321.351 61.4445 321.611 61.625Z" fill="#EDE6B2"/>
<path d="M321.611 61.625C321.871 61.8055 321.878 65.3131 320.587 67.2176C318.544 70.229 317.062 70.373 316.592 70.0461C316.332 69.8656 313.769 68.0851 317.939 63.9774C320.818 61.7743 321.351 61.4445 321.611 61.625Z" fill="#EDE6B2"/>
<path d="M321.611 61.625C321.871 61.8055 321.878 65.3131 320.587 67.2176C318.544 70.229 317.062 70.373 316.592 70.0461C316.332 69.8656 313.769 68.0851 317.939 63.9774C320.818 61.7743 321.351 61.4445 321.611 61.625Z" fill="#EDE6B2"/>
<path d="M321.611 61.625C321.871 61.8055 321.878 65.3131 320.587 67.2176C318.544 70.229 317.062 70.373 316.592 70.0461C316.332 69.8656 313.769 68.0851 317.939 63.9774C320.818 61.7743 321.351 61.4445 321.611 61.625Z" fill="#EDE6B2"/>
<path d="M321.611 61.625C321.871 61.8055 321.878 65.3131 320.587 67.2176C318.544 70.229 317.062 70.373 316.592 70.0461C316.332 69.8656 313.769 68.0851 317.939 63.9774C320.818 61.7743 321.351 61.4445 321.611 61.625Z" fill="#EDE6B2"/>
<path d="M320.264 67.6938C320.523 67.8744 320.725 68.7147 320.06 71.0551C319.063 74.5656 316.536 74.2105 316.065 73.8836C315.805 73.703 315.3 71.9508 316.269 70.5224C318.677 67.9924 320.004 67.5133 320.264 67.6938Z" fill="#CBC389"/>
<path d="M320.264 67.6938C320.523 67.8744 320.725 68.7147 320.06 71.0551C319.063 74.5656 316.536 74.2105 316.065 73.8836C315.805 73.703 315.3 71.9508 316.269 70.5224C318.677 67.9924 320.004 67.5133 320.264 67.6938Z" fill="#CBC389"/>
<path d="M320.264 67.6938C320.523 67.8744 320.725 68.7147 320.06 71.0551C319.063 74.5656 316.536 74.2105 316.065 73.8836C315.805 73.703 315.3 71.9508 316.269 70.5224C318.677 67.9924 320.004 67.5133 320.264 67.6938Z" fill="#CBC389"/>
<path d="M320.264 67.6938C320.523 67.8744 320.725 68.7147 320.06 71.0551C319.063 74.5656 316.536 74.2105 316.065 73.8836C315.805 73.703 315.3 71.9508 316.269 70.5224C318.677 67.9924 320.004 67.5133 320.264 67.6938Z" fill="#CBC389"/>
<path d="M320.264 67.6938C320.523 67.8744 320.725 68.7147 320.06 71.0551C319.063 74.5656 316.536 74.2105 316.065 73.8836C315.805 73.703 315.3 71.9508 316.269 70.5224C318.677 67.9924 320.004 67.5133 320.264 67.6938Z" fill="#CBC389"/>
<path d="M320.264 67.6938C320.523 67.8744 320.725 68.7147 320.06 71.0551C319.063 74.5656 316.536 74.2105 316.065 73.8836C315.805 73.703 315.3 71.9508 316.269 70.5224C318.677 67.9924 320.004 67.5133 320.264 67.6938Z" fill="#CBC389"/>
<path d="M311.851 57.6466C312.121 57.4821 312.911 58.4141 314.74 59.9961C318.022 62.835 316.847 66.3198 316.002 66.8344C315.513 67.1321 313.197 66.6814 312.238 64.2195C310.961 60.9529 311.581 57.8111 311.851 57.6466Z" fill="#CBC389"/>
<path d="M311.851 57.6466C312.121 57.4821 312.911 58.4141 314.74 59.9961C318.022 62.835 316.847 66.3198 316.002 66.8344C315.513 67.1321 313.197 66.6814 312.238 64.2195C310.961 60.9529 311.581 57.8111 311.851 57.6466Z" fill="#CBC389"/>
<path d="M311.851 57.6466C312.121 57.4821 312.911 58.4141 314.74 59.9961C318.022 62.835 316.847 66.3198 316.002 66.8344C315.513 67.1321 313.197 66.6814 312.238 64.2195C310.961 60.9529 311.581 57.8111 311.851 57.6466Z" fill="#CBC389"/>
<path d="M311.851 57.6466C312.121 57.4821 312.911 58.4141 314.74 59.9961C318.022 62.835 316.847 66.3198 316.002 66.8344C315.513 67.1321 313.197 66.6814 312.238 64.2195C310.961 60.9529 311.581 57.8111 311.851 57.6466Z" fill="#CBC389"/>
<path d="M311.851 57.6466C312.121 57.4821 312.911 58.4141 314.74 59.9961C318.022 62.835 316.847 66.3198 316.002 66.8344C315.513 67.1321 313.197 66.6814 312.238 64.2195C310.961 60.9529 311.581 57.8111 311.851 57.6466Z" fill="#CBC389"/>
<path d="M311.851 57.6466C312.121 57.4821 312.911 58.4141 314.74 59.9961C318.022 62.835 316.847 66.3198 316.002 66.8344C315.513 67.1321 313.197 66.6814 312.238 64.2195C310.961 60.9529 311.581 57.8111 311.851 57.6466Z" fill="#CBC389"/>
<path d="M311.565 64.6056C311.835 64.4411 312.857 65.1915 314.686 66.7735C317.429 69.1465 315.939 72.454 315.45 72.752C315.18 72.9165 313.133 72.9379 312.174 70.476C310.897 67.2094 311.295 64.7701 311.565 64.6056Z" fill="#E0D9A3"/>
<path d="M311.565 64.6056C311.835 64.4411 312.857 65.1915 314.686 66.7735C317.429 69.1465 315.939 72.454 315.45 72.752C315.18 72.9165 313.133 72.9379 312.174 70.476C310.897 67.2094 311.295 64.7701 311.565 64.6056Z" fill="#E0D9A3"/>
<path d="M311.565 64.6056C311.835 64.4411 312.857 65.1915 314.686 66.7735C317.429 69.1465 315.939 72.454 315.45 72.752C315.18 72.9165 313.133 72.9379 312.174 70.476C310.897 67.2094 311.295 64.7701 311.565 64.6056Z" fill="#E0D9A3"/>
<path d="M311.565 64.6056C311.835 64.4411 312.857 65.1915 314.686 66.7735C317.429 69.1465 315.939 72.454 315.45 72.752C315.18 72.9165 313.133 72.9379 312.174 70.476C310.897 67.2094 311.295 64.7701 311.565 64.6056Z" fill="#E0D9A3"/>
<path d="M311.565 64.6056C311.835 64.4411 312.857 65.1915 314.686 66.7735C317.429 69.1465 315.939 72.454 315.45 72.752C315.18 72.9165 313.133 72.9379 312.174 70.476C310.897 67.2094 311.295 64.7701 311.565 64.6056Z" fill="#E0D9A3"/>
<path d="M311.565 64.6056C311.835 64.4411 312.857 65.1915 314.686 66.7735C317.429 69.1465 315.939 72.454 315.45 72.752C315.18 72.9165 313.133 72.9379 312.174 70.476C310.897 67.2094 311.295 64.7701 311.565 64.6056Z" fill="#E0D9A3"/>
<rect x="346.417" y="103.943" width="50.4181" height="8.52874" fill="#E1D3B6"/>
<path d="M341.039 105.427C341.008 104.231 348.466 107.614 355.117 109.716C363.144 112.253 377.771 111.89 383.942 109.056C388.97 106.747 400.701 105.215 405.729 103.448C409.484 102.128 403.45 112.645 400.031 114.664C388.3 121.592 384.948 120.273 377.239 120.273C375.047 120.273 368.728 121.263 364.502 120.932C356.383 120.297 349.443 117.449 343.05 112.025C340.572 109.922 341.122 108.647 341.039 105.427Z" fill="#DF9D52"/>
<path d="M339.694 94.5001C340.703 89.0173 366.92 85.6667 386.751 86.5805C393.835 86.9069 404.42 85.5052 409.607 87.1897C410.519 87.4857 409.272 89.7088 409.943 90.2357C411.271 91.2768 413.275 92.8875 412.969 95.1093C412.673 97.2528 409.495 99.3243 408.263 100.592C406.246 104.552 403.909 104.665 397.507 105.77C394.832 106.232 388.813 105.884 384.398 106.075C381.113 106.217 379.53 106.872 377.34 106.989C373.131 107.212 371.154 105.977 366.92 105.77C363.933 105.625 364.356 107.454 361.542 107.293C351.458 108.512 344.203 107.62 339.694 103.943C336.291 101.167 338.942 98.5933 339.694 94.5001Z" fill="#A04E36"/>
<path d="M357.845 83.5345L388.432 78.661C388.432 78.661 400.196 77.4426 405.238 80.7932C406.891 81.892 411.9 86.0455 410.616 87.4943C409.344 88.93 406.54 87.4776 405.91 88.7127C405.173 90.1585 406.554 93.3579 403.894 94.8046C402.213 95.7184 403.261 89.6496 400.532 88.4081C398.538 87.5007 397.048 88.4934 394.818 88.4081C389.384 88.2 386.418 85.8627 381.037 86.5805C378.326 86.9422 377.019 88.0014 374.315 88.4081C370.819 88.934 368.651 87.5363 365.24 88.4081C361.069 89.4741 360.806 93.751 356.501 94.1954C353.115 94.5449 351.159 91.8271 347.761 92.0632C342.604 92.4217 340.545 99.4691 340.031 94.8046C339.694 91.7586 338.435 91.1967 340.703 88.4081C345.409 82.6207 357.845 83.5345 357.845 83.5345Z" fill="#9AC876"/>
<path d="M352.593 71.2167C356.291 68.7799 383.18 66.0386 397.297 69.9984C403.697 71.7935 404.836 75.9046 406.036 81.8776C406.587 84.619 388.558 84.3144 371.752 83.7052C354.624 83.0843 342.383 88.7702 342.383 85.9713C342.383 75.3103 348.896 73.6535 352.593 71.2167Z" fill="#DF9D52"/>
<ellipse cx="1.62962" cy="1.32666" rx="1.62962" ry="1.32666" transform="matrix(0.999988 0.00490364 -0.00478715 0.999989 359.906 137.917)" fill="#D2AF7F"/>
<path d="M369.699 134.87C369.695 135.603 366.326 138.391 365.201 138.386C364.076 138.38 359.889 141.455 359.915 136.149C359.922 134.574 361.158 131.733 366.452 132.201C368.896 132.417 369.702 134.137 369.699 134.87Z" fill="#EFD2AC"/>
<path d="M377.841 136.236C377.834 137.701 377.03 140.654 373.745 140.638C370.079 140.62 368.052 138.537 368.059 137.072C368.066 135.607 372.162 130.901 374.607 130.913C377.459 130.927 377.849 134.467 377.841 136.236Z" fill="#CC8D22"/>
<path d="M389.237 138.503C389.234 139.235 385.465 140.253 384.34 140.248C383.215 140.242 377.841 136.084 377.845 135.351C377.848 134.618 380.716 131.385 384.374 133.172C387.221 134.07 389.241 137.77 389.237 138.503Z" fill="#E7C595"/>
<path d="M377.005 140.654C377.002 141.142 375.906 141.533 374.556 141.526C373.206 141.52 372.113 141.118 372.116 140.63C372.118 140.141 373.214 139.751 374.564 139.757C378.638 139.777 377.007 140.165 377.005 140.654Z" fill="#9C723B"/>
<path d="M385.976 138.929C386.366 142.469 381.149 143.77 380.249 143.765C379.349 143.761 374.963 141.528 376.205 137.554C377.17 134.463 379.392 134.917 380.292 134.921C384.365 134.941 385.981 137.952 385.976 138.929Z" fill="#D8AB7F"/>
<path d="M370.894 140.624C370.892 140.868 363.862 142.358 362.737 142.353C361.612 142.347 360.712 139.934 360.713 139.689C360.714 139.445 363.989 136.168 367.248 136.184C370.1 136.198 370.895 140.38 370.894 140.624Z" fill="#E7C595"/>
<path d="M380.251 143.323C380.248 144.056 374.432 144.621 371.282 144.606C368.132 144.59 362.324 143.526 362.328 142.793C362.331 142.06 363.562 140.146 366.007 140.158C367.623 140.166 372.148 139.926 375.375 140.646C378.44 141.33 380.253 142.966 380.251 143.323Z" fill="#E0BD86"/>
<path d="M355.755 156.028C355.962 154.071 357.252 151.232 356.593 149.398C355.797 147.183 356.05 145.671 355.4 143.201C355.287 142.771 354.617 143.211 354.588 142.755C354.523 141.738 355.458 139.674 355.829 138.781C357.477 134.809 361.56 133.06 360.329 134.823C359.779 135.612 360.496 140.511 362.738 142.353C365.697 144.783 366.267 143.409 369.25 143.711C371.943 143.985 373.904 144.615 376.581 144.19C381.026 143.484 384.75 139.807 387.197 139.377C387.742 139.281 388.011 139.381 388.421 138.941C388.83 138.501 386.851 135.299 387.216 135.397C389.66 135.409 390.467 139.664 390.87 139.837C392.43 140.509 387.997 142.477 389.208 144.694C387.562 148.223 392.31 149.869 390.403 150.449C389.015 150.87 388.07 149.715 387.553 149.992C386.736 150.431 389.997 150.142 388.646 157.073C389.17 158.538 389.46 160.171 389.126 161.94C388.627 164.575 387.082 165.026 386.263 165.906C384.789 167.491 387.481 165.028 389.907 169.02C392.332 173.011 391.104 172.14 391.922 173.452C393.134 175.669 394.855 175.834 393.529 178.324C391.854 181.468 389.373 179.819 386.191 180.942C381.011 182.77 375.739 181.011 370.294 180.864C361.615 180.629 348.686 183.853 349.527 178.55C349.886 176.283 351.657 174.561 352.816 172.375C353.617 170.865 354.161 168.815 354.876 167.521C355.499 166.396 356.366 166.691 356.517 165.318C356.619 164.384 356.209 163.431 356.122 162.663C355.977 161.376 356.332 160.372 356.139 159.125C355.994 158.193 355.631 157.197 355.755 156.028Z" fill="#8E7D56"/>
<path d="M361.88 151.193C359.446 148.97 356.846 150.788 356.187 148.954C355.391 146.739 356.05 145.671 355.4 143.201C355.287 142.771 354.617 143.211 354.588 142.755C354.523 141.738 355.458 139.674 355.829 138.781C357.477 134.809 361.56 133.06 360.329 134.823C359.779 135.611 360.495 140.511 362.738 142.353C365.697 144.783 366.267 143.409 369.25 143.711C371.943 143.985 373.904 144.615 376.581 144.19C381.026 143.484 384.75 139.807 387.197 139.377C387.742 139.281 388.011 139.381 388.421 138.941C388.83 138.501 386.851 135.299 387.216 135.397C389.66 135.409 390.467 139.664 390.87 139.837C392.43 140.509 390.855 142.933 391.242 145.146C391.229 147.977 392.31 149.869 390.403 150.448C389.015 150.87 388.07 149.715 387.553 149.992C386.736 150.43 386.742 149.104 383.063 151.739C378.581 151.717 378.774 151.211 376.547 151.265C372.399 151.365 371.248 151.681 369.618 151.673C367.989 151.665 362.709 151.95 361.88 151.193Z" fill="#A59373"/>
<path d="M367.253 135.299C367.249 136.032 365.121 134.847 363.996 134.841C362.871 134.836 362.113 141.528 360.321 136.592C359.516 134.377 361.159 131.733 366.453 132.201C368.896 132.417 367.256 134.567 367.253 135.299Z" fill="#EFD2AC"/>
<path d="M388.422 138.499C388.478 138.937 386.705 136.721 385.58 136.716C383.961 134.497 383.141 135.377 381.921 134.929C381.108 134.483 380.717 131.385 384.375 133.172C387.222 134.071 388.03 135.401 388.422 138.499Z" fill="#E7C595"/>
<path d="M437.157 59.9114C434.538 61.667 433.609 59.8366 432.678 58.4141C431.421 56.0811 432.794 52.8926 434.093 51.1146C435.229 49.5596 437.734 49.2746 438.664 50.6971C439.507 51.985 439.561 52.4783 438.399 55.6388C438.36 58.047 437.832 59.4594 437.157 59.9114Z" fill="#212121"/>
<path d="M445.909 79.7C445.598 82.7615 443.681 82.0604 442.064 81.6579C439.575 80.8146 438.067 77.5578 437.552 75.3791C437.102 73.4736 438.426 71.561 440.043 71.9634C441.508 72.3278 441.904 72.6506 443.521 75.7432C445.271 77.5237 445.989 78.9117 445.909 79.7Z" fill="#212121"/>
<path d="M442.055 58.0767C439.246 58.6306 440.032 60.6419 440.52 62.3528C441.479 64.9685 444.6 66.3564 446.653 66.7535C448.448 67.1008 450.122 65.5395 449.633 63.8286C449.191 62.2796 448.864 61.8766 445.887 60.3599C444.114 58.6058 442.779 57.9341 442.055 58.0767Z" fill="#212121"/>
<path d="M440.153 68.9801C442.482 67.4195 441.2 65.826 440.269 64.4035C438.658 62.3073 435.489 62.1634 433.555 62.5519C431.863 62.8917 430.834 64.9754 431.765 66.3979C432.608 67.6858 433.015 67.9423 436.094 68.2604C438.175 69.2474 439.554 69.3819 440.153 68.9801Z" fill="#212121"/>
<path d="M444.457 69.7882C442.128 71.3487 443.534 73.1317 444.568 74.7122C446.339 77.0537 449.623 77.3728 451.603 77.0544C453.335 76.7759 454.294 74.5845 453.26 73.004C452.323 71.573 451.889 71.2756 448.69 70.7735C446.488 69.6026 445.056 69.3863 444.457 69.7882Z" fill="#212121"/>
<path d="M423.277 65.8406C420.158 65.4618 420.621 63.4584 420.822 61.7645C421.357 59.1626 424.443 57.6329 426.57 57.129C428.431 56.6883 430.522 58.1129 430.321 59.8068C430.139 61.3405 429.865 61.7516 426.957 63.3985C425.386 65.2079 424.08 65.9382 423.277 65.8406Z" fill="#212121"/>
<path d="M425.694 72.5439C425.689 69.3642 427.71 69.5881 429.396 69.5854C432.013 69.8083 433.886 72.7246 434.637 74.8008C435.293 76.6167 434.149 78.8898 432.463 78.8925C430.937 78.8949 430.5 78.6685 428.534 75.9462C426.57 74.5866 425.696 73.3627 425.694 72.5439Z" fill="#212121"/>
<path d="M420 37L416 40C405.729 31.3371 382.237 15.8719 348 28L345.5 24.5C375.743 11.7943 403.452 22.5617 420 37Z" fill="#FFC200"/>
<path d="M301.5 99.4999L306.5 99.4999C309 115 322.085 142.919 348.334 154.47L345 159C316.5 146.5 303.783 119.136 301.5 99.4999Z" fill="#FFC200"/>
<path d="M445 92L440 92C440 101.5 437.5 133 404.5 152.5L406.5 156.5C439.5 138 445 107 445 92Z" fill="#FFC200"/>
<path opacity="0.4" d="M171 92C171 94.5637 170.87 97.0965 170.615 99.592C169.426 111.264 165.464 122.119 159.5 131.5C146.685 151.655 124.41 165 99 165C73.3435 165 51.2332 151.328 38.5 130.5C32.9495 121.421 28.8718 110.577 27.576 99.592C27.2372 96.7199 27 94.9646 27 92C27 76.8011 31.6611 62.6871 39.5 51C52.4546 31.6858 74.2262 19 99 19C116.799 19 133.666 26.2539 146.232 37.104C152.139 42.2042 157.072 48.3589 161 55C167.384 65.7942 171 78.2123 171 92Z" fill="#FFDA66"/>
<path d="M161 55L156 55C149 42 96 -5.49988 45 51.0001L39.5001 51.0001C81.0001 -6.50004 147 25 161 55Z" fill="#FFC200"/>
<path d="M38.5001 130.5L44.5 130C53.7752 148.5 117 192.5 159 121L165 121C129 192 59 167 38.5001 130.5Z" fill="#FFC200"/>
<path d="M58.1998 117.825L61.7988 117C61.7988 117 61.7987 119.064 61.7987 121.54C61.7987 122.121 61.5469 124.734 61.7987 125.254C62.1986 126.08 67.1312 123.472 66.9973 126.08C66.9159 127.665 62.9985 126.905 62.9985 127.318C62.9985 127.73 66.9973 126.492 66.9973 128.968C66.9973 131.551 62.5985 128.143 62.5985 128.968C62.5985 130.268 65.7976 131.032 64.9979 132.27C63.5521 134.508 61.5531 131.161 59.3994 128.143C58.7913 127.291 57 128.143 57 126.492C57 125.254 58.5996 125.873 58.5996 124.841C58.5995 122.365 58.1998 117.825 58.1998 117.825Z" fill="#FF740B"/>
<path d="M69.1998 116.825L72.7988 116C72.7988 116 72.7987 118.064 72.7987 120.54C72.7987 121.121 72.5469 123.734 72.7987 124.254C73.1986 125.08 78.1312 122.472 77.9973 125.08C77.9159 126.665 73.9985 125.905 73.9985 126.318C73.9985 126.73 77.9973 125.492 77.9973 127.968C77.9973 130.551 73.5985 127.143 73.5985 127.968C73.5985 129.268 76.7976 130.032 75.9979 131.27C74.5521 133.508 72.5531 130.161 70.3994 127.143C69.7913 126.291 68 127.143 68 125.492C68 124.254 69.5996 124.873 69.5996 123.841C69.5995 121.365 69.1998 116.825 69.1998 116.825Z" fill="#FF740B"/>
<path d="M75 111.127C75 112.565 75 116.398 71.4 117.836C67.44 118.794 66 115.275 66 114.481C66 113.687 69.6482 113.523 71.04 113.523C72.4318 113.523 75 110.333 75 111.127Z" fill="#907356"/>
<path d="M84 96.75C84 105.917 79.4282 108 79.0367 108C78.6451 108 81.5185 96.9243 81.5185 95.0833C81.5185 93.2424 79.709 88 80.1005 88C80.4921 88 83.645 88 84 96.75Z" fill="#AA8A6A"/>
<path d="M80.9081 89.6608C83.2644 97.875 83.2644 113.482 65.592 115.125C63.424 116.875 63.6284 117.589 59.7012 118C57.3058 118 56.514 117.286 54.5958 115.536C47.1341 114.304 38.887 108.554 38.887 93.7679C38.887 93.3571 36.1379 95.4107 33.3889 94.1786C32.6034 93.7678 33.3889 92.5357 34.567 90.8928C33.7816 90.8928 28.6762 91.7143 26.3199 90.0714C25.5345 88.8393 30.2471 86.375 32.2108 85.5536C29.069 84.7321 23.1782 85.1429 22 82.6786C24.749 78.5714 31.818 80.2143 33.7816 81.4464C30.9664 78.6992 23.9636 75.6964 24.3563 73.6429C25.4261 72.524 29.2204 72.3889 32.6034 73.6429C35.4295 74.6904 37.8498 76.889 39.2798 78.5714C38.4944 77.3393 35.7453 72.4107 37.3162 72C43.5997 72 45.3262 82.0199 46.7415 83.5C47.5269 84.3214 52.3656 81.9546 56.5594 82.2679C78.5517 83.9107 78.5517 81.4465 80.9081 89.6608Z" fill="#907356"/>
<path d="M81 68.8743C81 70.3927 79.1213 76.8467 79.0172 81.6992C81 85.0089 80.7461 86.9286 80.6034 87.0774C80.2069 87.4911 78.041 84.6548 77.8276 85.0089C77.625 85.3449 78.2241 87.4911 77.431 87.4911C77.1591 87.9191 74.6552 84.5952 74.6552 85.0089C74.5419 85.4226 75.0517 87.4911 73.8621 87.9048C73.3309 88.5821 71.4828 85.4226 71.4828 85.4226C70.7171 86.1593 70.6897 87.9048 69.8966 87.9048C69.5622 87.9048 68.7069 85.4226 68.7069 85.0089C68.3103 85.4226 67.7061 87.6546 66.7241 87.4911C65.931 87.4911 65.931 85.0089 65.5345 84.5952C65.5345 85.0089 64.2034 86.8611 63.5517 86.6637C62.7586 86.6637 62.7586 84.1814 62.7586 84.1814C62.3621 84.1814 59.9828 85.8363 59.9828 85.4226C59.4387 85.0103 59.9828 82.9403 60.3793 82.5266C59.7635 82.6366 58 82.7736 58 82.1129C58.8306 81.3909 60.7346 79.3283 61.9655 75.9073C64.2606 69.5283 64.7414 60.6002 73.4655 61.0139C76.5317 61.0139 81 64.0761 81 68.8743Z" fill="#E1BDA4"/>
<path d="M83 79.2699C83 80.5675 81.9618 81 81.7276 81C80.0308 81 80.4549 80.6127 80.4549 80.1349C80.4549 79.6572 77.4857 73.2148 80.0308 74.0798C80.1506 74.0798 80.0308 73.6473 81.3034 76.2424C83 77.9724 83 78.3251 83 79.2699Z" fill="#CD4747"/>
<path d="M81 80.2C81 81.6912 79.3826 82 79.1818 82C77 82 77 78.9912 77 77.5C77 76.0088 78.0909 73 78.8182 73C82.8182 73 79.1818 73 79.5455 74.8C79.9091 76.6 81 79.5346 81 80.2Z" fill="#DC5454"/>
<path d="M83.917 72.5737C83.5101 73.1875 81.8396 73.6641 81.4757 73.8013C79.8482 74.415 77 73.4944 77 72.5738C77 71.8958 79.174 72.2669 79.8482 72.2669C80.5223 72.2669 84.6311 71.4964 83.917 72.5737Z" fill="#E8A85F"/>
<path d="M78.0224 63.8261C71.9911 60.3478 67.7941 66 66.3369 66C64.829 66 64.4521 62.9565 65.9599 62.087C65.9688 62.0175 65.2061 61.2174 65.9599 59.4783C67.4677 57.3043 67.8446 58.1739 68.9755 58.1739C69.3524 56.8696 71.0031 56 71.6142 56C72.0368 56 73.4989 56.4348 73.8759 57.3043C75.3837 56.8696 76.1512 57.0232 77.2684 57.7391C80.661 59.913 78.0224 63.719 78.0224 63.8261Z" fill="#DC5454"/>
<path d="M84.7755 73C83.998 73 83.9407 72.5991 83.2204 72.2531C82.4429 71.8797 81.2765 72.2531 78.1663 72.2531C77 72.2531 77 71.2492 77 71.1329C77 70.9475 77.2356 70.7399 77.7776 70.0126C78.5551 68.1455 79.5643 67.7343 81.2765 68.1455C85.5531 69.6391 85.1643 72.6265 84.7755 73Z" fill="#F0B168"/>
<circle cx="74" cy="67" r="1" fill="#212121"/>
<path d="M75 99.4241C75 103.683 71.2766 111.293 62.4595 110.991C53.0541 110.67 49.527 106.707 47.5676 102.423C46.5126 100.116 47.5676 99.8525 49.1351 100.281C48.7432 99.8525 46 99.4241 46 94.2831C46.3919 93.4262 47.1757 94.2831 48.7432 94.2831C48.7432 94.2831 45.6081 93.4262 46.3919 89.5705C47.9595 89.1421 49.2323 89.5188 51.4865 89.1421C55.7973 88.4217 60.5 87 63.2432 87C68.0048 87 74.6081 89.9989 75 99.4241Z" fill="#AA8A6A"/>
<rect x="104.407" y="101.195" width="44.3679" height="7.4023" fill="#E1D3B6"/>
<path d="M99.6743 102.484C99.6471 101.446 106.21 104.382 112.063 106.206C119.127 108.408 131.998 108.093 137.429 105.633C141.853 103.629 152.177 102.3 156.602 100.766C159.906 99.6201 154.596 108.748 151.587 110.501C141.264 116.514 138.314 115.369 131.53 115.369C129.601 115.369 124.04 116.228 120.322 115.941C113.177 115.39 107.07 112.918 101.444 108.21C99.2629 106.385 99.7477 105.278 99.6743 102.484Z" fill="#DF9D52"/>
<path d="M98.4911 93C99.3784 88.2414 122.45 85.3334 139.901 86.1265C146.134 86.4098 155.449 85.1931 160.014 86.6552C160.816 86.9121 159.719 88.8416 160.31 89.2989C161.478 90.2025 163.242 91.6004 162.972 93.5288C162.712 95.3892 159.915 97.1871 158.831 98.2874C157.057 101.724 155 101.823 149.366 102.782C147.012 103.182 141.715 102.88 137.831 103.046C134.939 103.169 133.546 103.738 131.619 103.839C127.916 104.033 126.175 102.961 122.45 102.782C119.821 102.655 120.193 104.243 117.717 104.103C108.843 105.161 102.458 104.387 98.491 101.195C95.4958 98.7861 97.8286 96.5527 98.4911 93Z" fill="#A04E36"/>
<path d="M114.464 83.4828L141.38 79.2529C141.38 79.2529 151.733 78.1954 156.169 81.1035C157.624 82.0572 162.032 85.6621 160.902 86.9196C159.782 88.1657 157.315 86.9051 156.761 87.977C156.112 89.2319 157.328 92.0088 154.986 93.2644C153.507 94.0575 154.429 88.7902 152.028 87.7127C150.274 86.9251 148.962 87.7868 147 87.7127C142.218 87.5321 139.608 85.5035 134.873 86.1265C132.487 86.4404 131.336 87.3597 128.957 87.7127C125.88 88.1691 123.973 86.956 120.971 87.7127C117.3 88.6379 117.07 92.35 113.28 92.7357C110.301 93.039 108.58 90.6802 105.59 90.8851C101.051 91.1962 99.2398 97.3128 98.7869 93.2644C98.4911 90.6207 97.3831 90.133 99.3785 87.7127C103.52 82.6897 114.464 83.4828 114.464 83.4828Z" fill="#9AC876"/>
<path d="M109.842 72.7919C113.096 70.6769 136.759 68.2976 149.182 71.7344C154.814 73.2925 155.816 76.8606 156.872 82.0447C157.357 84.4241 141.491 84.1597 126.702 83.6309C111.629 83.0921 100.857 88.0269 100.857 85.5977C100.857 76.3448 106.588 74.9068 109.842 72.7919Z" fill="#DF9D52"/>
<path d="M186 86H260V110H186V86Z" fill="#FFC200"/>
<path d="M226 71H255.839L281 98L255.839 125H226L255.839 98L226 71Z" fill="#FFC200"/>
</g>
<defs>
<clipPath id="clip0_8632_447">
<rect width="475" height="196" fill="white"/>
</clipPath>
</defs>
</svg>
