<svg width="229" height="219" viewBox="0 0 229 219" fill="none" xmlns="http://www.w3.org/2000/svg">
<g clip-path="url(#clip0_255_2114)">
<rect width="229" height="219" fill="white"/>
<path d="M266.761 204.581C266.761 236.416 152.209 229.142 117.538 229.142C82.8673 229.142 54.7612 203.335 54.7612 171.5C16.5 110.501 158.239 78.1421 241.5 110.5C276.171 110.5 266.761 172.746 266.761 204.581Z" fill="#1F311E"/>
<path d="M239 206.712C239 244.859 90.9461 236.142 46.1359 236.142C1.32579 236.142 -35 205.218 -35 167.071C-35 128.924 1.32579 98 46.1359 98C90.9461 98 239 168.565 239 206.712Z" fill="#355732"/>
<ellipse cx="141.598" cy="40.5913" rx="21.5976" ry="20.5913" fill="#121E31"/>
<path d="M133.652 45.2339C132.947 43.849 133.617 42.1611 135.079 41.6377L139.305 40.1247C140.79 39.5932 142.417 39.6167 143.887 40.191L148.318 41.9228C149.39 42.3418 150.01 43.4677 149.789 44.5968C149.502 46.0664 147.944 46.9072 146.557 46.3415L143.634 45.1495C142.38 44.6382 140.973 44.6595 139.736 45.2082L136.998 46.4232C135.745 46.9794 134.274 46.4568 133.652 45.2339Z" fill="#FFFEFC"/>
<path d="M130.928 38.1332C129.893 36.5205 130.706 34.3674 132.548 33.8425L139.219 31.9412C140.706 31.5172 142.285 31.5329 143.764 31.9864L150.745 34.126C152.087 34.537 152.872 35.9267 152.531 37.2868C152.161 38.7614 150.623 39.6167 149.175 39.1532L144.033 37.508C142.433 36.9961 140.71 37.0212 139.126 37.5795L134.285 39.2861C133.035 39.7269 131.645 39.2495 130.928 38.1332Z" fill="#FFFEFC"/>
<ellipse cx="141.993" cy="49.5866" rx="3.46806" ry="3.01631" fill="#FFFEFC"/>
<line x1="24.4932" y1="51.9307" x2="47.9225" y2="51.9307" stroke="black"/>
<ellipse cx="36.5" cy="40" rx="21.5" ry="21" fill="#121D2F"/>
<path d="M25.8198 50.8709L28.251 46.4131L32.2297 49.0877L33.5559 43.2931L37.0924 45.0761L37.0924 39.0586L41.6314 41.2873L42.1761 36.1613L45.0495 37.7214L46.3757 31.7039" stroke="white"/>
<line x1="24.9932" y1="29.252" x2="24.9932" y2="52.4303" stroke="white"/>
<line x1="48.8066" y1="52.9307" x2="24.4931" y2="52.9307" stroke="white"/>
<ellipse cx="85.5" cy="40" rx="21.5" ry="21" fill="#121D2F"/>
<path d="M82.6019 42.3432C82.6019 44.5355 80.4525 46.3127 77.801 46.3127C75.1495 46.3127 73 44.5355 73 42.3432C73 40.1509 75.1495 31.0002 77.801 31.0002C80.4525 31.0002 82.6019 40.1509 82.6019 42.3432Z" fill="white"/>
<path d="M90.932 32.1052C90.932 34.0146 89.1564 35.5625 86.966 35.5625C84.7756 35.5625 83 34.0146 83 32.1052C83 30.1958 84.7756 22 86.966 22C89.1564 22 90.932 30.1958 90.932 32.1052Z" fill="white"/>
<path d="M96.9416 50.5808C96.9416 53.056 94.0445 55.0625 90.4707 55.0625C86.8969 55.0625 83.9998 53.056 83.9998 50.5808C83.9998 48.1056 86.8969 38 90.4707 38C94.0445 38 96.9416 48.1056 96.9416 50.5808Z" fill="#F1F1F1"/>
<ellipse cx="196.5" cy="41.5" rx="21.5" ry="20.5" fill="#121D2F"/>
<path d="M195 32.2233C195 30.9954 195.996 30 197.223 30C198.451 30 199.447 30.9954 199.447 32.2233V48.843C199.447 50.0708 198.451 51.0662 197.223 51.0662C195.996 51.0662 195 50.0708 195 48.843V40.5331V32.2233Z" fill="white"/>
<path d="M201.258 50.6208C201.258 52.6205 199.41 54.2415 197.129 54.2415C194.849 54.2415 193 52.6205 193 50.6208C193 48.6211 194.849 47 197.129 47C199.41 47 201.258 48.6211 201.258 50.6208Z" fill="white"/>
<path d="M252.813 182.5C252.813 212.323 220.801 236.5 181.313 236.5C141.825 236.5 -16.187 237.323 -16.187 207.5C-16.187 177.677 141.825 128.5 181.313 128.5C220.801 128.5 252.813 152.677 252.813 182.5Z" fill="#51834F"/>
<path opacity="0.71" d="M141.5 135L166 130L201.774 231.666H186.008H176.261H166.515L141.5 135Z" fill="#6BAE64"/>
<path opacity="0.62" d="M77.9995 153.5L106.424 144.361L131.431 235H98.3761L77.9995 153.5Z" fill="#6BAE64"/>
<path opacity="0.76" d="M21 176.5L43.5113 166.094L57.5004 239.999H29.5222L21 176.5Z" fill="#6BAE64"/>
</g>
<g opacity="0.89">
<path d="M42.3185 94.084H44.4862L46.8296 135.476H39.2427L42.3185 94.084Z" fill="#9D9D9D"/>
<path d="M44.1607 89.0546C43.9941 95.2988 44.391 97.3331 43.1329 97.3331C42.494 97.3331 41.6051 90.6302 40.4939 84.2821C39.3827 77.934 43.0416 72 44.2996 72C45.5577 72 44.1607 83.3165 44.1607 89.0546Z" fill="#9D9D9D"/>
<path d="M35.7391 103.307C39.6284 100.186 40.6444 98.6494 41.3444 100.098C41.6999 100.834 38.1191 105.413 34.8777 110.061C31.6363 114.709 25.9924 113.644 25.2923 112.196C24.5923 110.747 32.2502 106.351 35.7391 103.307Z" fill="#9D9D9D"/>
<path d="M49.0989 105.884C45.8907 101.749 44.5917 100.781 45.2997 99.7244C45.6593 99.1877 49.7041 102.73 53.6864 105.858C57.6687 108.986 58.7473 115.856 58.0392 116.913C57.3312 117.969 52.1332 109.556 49.0989 105.884Z" fill="#9D9D9D"/>
<ellipse cx="43.6031" cy="98.0483" rx="3.30032" ry="3.72119" fill="#9D9D9D"/>
</g>
<g opacity="0.89">
<path d="M130.318 140.084H132.486L134.83 181.476H127.243L130.318 140.084Z" fill="white"/>
<path d="M132.161 135.055C131.994 141.299 132.391 143.333 131.133 143.333C130.494 143.333 129.605 136.63 128.494 130.282C127.383 123.934 131.042 118 132.3 118C133.558 118 132.161 129.316 132.161 135.055Z" fill="white"/>
<path d="M123.739 149.307C127.628 146.186 128.644 144.649 129.344 146.098C129.7 146.834 126.119 151.413 122.878 156.061C119.636 160.709 113.992 159.644 113.292 158.196C112.592 156.747 120.25 152.351 123.739 149.307Z" fill="white"/>
<path d="M137.099 151.884C133.891 147.749 132.592 146.781 133.3 145.724C133.659 145.188 137.704 148.73 141.686 151.858C145.669 154.986 146.747 161.856 146.039 162.913C145.331 163.969 140.133 155.556 137.099 151.884Z" fill="white"/>
<ellipse cx="131.603" cy="144.048" rx="3.30032" ry="3.72119" fill="white"/>
</g>
<g opacity="0.89">
<path d="M171.739 79.9092H173.458L175.317 113.476H169.299L171.739 79.9092Z" fill="#8D8888"/>
<path d="M173.199 75.8305C173.067 80.8942 173.382 82.5439 172.384 82.5439C171.877 82.5439 171.172 77.1082 170.29 71.9602C169.409 66.8122 172.311 62 173.309 62C174.307 62 173.199 71.1771 173.199 75.8305Z" fill="#8D8888"/>
<path d="M166.519 87.3881C169.605 84.857 170.411 83.6111 170.966 84.7858C171.248 85.3824 168.407 89.0965 165.836 92.8655C163.265 96.6345 158.788 95.7713 158.233 94.5966C157.677 93.4219 163.752 89.8571 166.519 87.3881Z" fill="#8D8888"/>
<path d="M177.117 89.4785C174.572 86.1251 173.542 85.34 174.103 84.483C174.388 84.0478 177.597 86.9202 180.756 89.457C183.915 91.9939 184.77 97.5651 184.209 98.422C183.647 99.2789 179.524 92.4558 177.117 89.4785Z" fill="#8D8888"/>
<ellipse cx="172.757" cy="83.1242" rx="2.61798" ry="3.0177" fill="#8D8888"/>
</g>
<defs>
<clipPath id="clip0_255_2114">
<rect width="229" height="219" fill="white"/>
</clipPath>
</defs>
</svg>
