<svg width="220" height="157" viewBox="0 0 220 157" fill="none" xmlns="http://www.w3.org/2000/svg">
<rect width="220" height="157" fill="white"/>
<rect width="46.0732" height="13.4653" transform="matrix(-0.0170372 -0.999855 0.999862 -0.0165964 103.641 140.364)" fill="#2F3237"/>
<rect x="77.4878" y="135.804" width="64.024" height="9.53815" fill="#2F3237"/>
<rect x="34" y="13" width="151" height="104.92" fill="#161D27"/>
<rect x="38.832" y="15.3848" width="142.544" height="98.9583" fill="#1F324B"/>
<line y1="-0.5" x2="8.78578" y2="-0.5" transform="matrix(-0.962464 0.271409 -0.278067 -0.960562 94.3999 54.7295)" stroke="#42714B"/>
<line x1="80.4038" y1="54.7295" x2="80.4038" y2="65.4599" stroke="#42714B"/>
<g clip-path="url(#clip0_267_532)">
<line y1="-1" x2="60.9184" y2="-1" transform="matrix(-0.0101166 0.999949 -0.999953 -0.00968703 113.02 78.1055)" stroke="#43B463" stroke-width="2"/>
<path d="M130.583 88.368L130.585 99.8179L121.648 108.262L121.648 120.324" stroke="#43B463" stroke-width="3"/>
<path d="M129.158 63.2184C127.053 61.1583 123.64 61.1582 121.534 63.2183C119.429 65.2784 119.429 68.6184 121.534 70.6785C123.64 72.7386 127.053 72.7387 129.158 70.6786C131.264 68.6185 131.264 65.2785 129.158 63.2184ZM125.346 66.9485L124.583 66.3005L113.563 78.7373L114.327 79.3852L115.09 80.0332L126.11 67.5964L125.346 66.9485Z" fill="#43B463"/>
<path d="M152.579 68.3441C150.474 66.284 147.061 66.284 144.956 68.3441C142.85 70.4042 142.85 73.7442 144.956 75.8043C147.061 77.8644 150.474 77.8644 152.579 75.8043C154.685 73.7442 154.685 70.4042 152.579 68.3441ZM148.768 72.0742L148.053 71.3748L128.946 90.0717L129.661 90.7711L130.375 91.4705L149.482 72.7736L148.768 72.0742Z" fill="#43B463"/>
<path d="M139.357 45.9042C136.551 45.0101 133.522 46.5509 132.592 49.3458C131.662 52.1407 133.183 55.1312 135.99 56.0254C138.796 56.9195 141.825 55.3787 142.755 52.5838C143.685 49.7889 142.164 46.7984 139.357 45.9042ZM137.674 71.1694L138.375 71.8754L138.678 71.5791L138.678 71.1591L137.674 71.1694ZM121.647 86.8483L120.946 86.1423L120.643 86.4387L120.643 86.8586L121.647 86.8483ZM137.673 50.9648L136.67 50.9751L136.67 71.1797L137.674 71.1694L138.678 71.1591L138.677 50.9545L137.673 50.9648ZM137.674 71.1694L136.973 70.4635L120.946 86.1423L121.647 86.8483L122.348 87.5542L138.375 71.8754L137.674 71.1694ZM121.647 86.8483L120.643 86.8586L120.643 102.239L121.647 102.229L122.65 102.219L122.65 86.838L121.647 86.8483Z" fill="#43B463"/>
<path d="M94.6084 33.2093C97.4149 32.3151 100.444 33.856 101.374 36.6509C102.304 39.4457 100.782 42.4363 97.9759 43.3304C95.1694 44.2246 92.1404 42.6837 91.2105 39.8888C90.2806 37.0939 91.8019 34.1034 94.6084 33.2093ZM97.6105 67.5501L96.9239 68.2697L96.626 67.9894L96.6077 67.5843L97.6105 67.5501ZM105.623 75.0892L106.31 74.3696L106.627 74.668L106.627 75.0995L105.623 75.0892ZM96.2922 38.2698L97.2949 38.2356L98.6133 67.5159L97.6105 67.5501L96.6077 67.5843L95.2894 38.3041L96.2922 38.2698ZM97.6105 67.5501L98.2971 66.8305L106.31 74.3696L105.623 75.0892L104.936 75.8088L96.9239 68.2697L97.6105 67.5501ZM105.623 75.0892L106.627 75.0995L106.627 93.4951L105.623 93.4848L104.619 93.4746L104.619 75.0789L105.623 75.0892Z" fill="#43B463"/>
<path d="M84.3772 48.3163C87.1838 47.4222 90.2127 48.963 91.1427 51.7579C92.0726 54.5528 90.5513 57.5433 87.7448 58.4374C84.9382 59.3316 81.9092 57.7907 80.9793 54.9959C80.0494 52.201 81.5707 49.2104 84.3772 48.3163ZM86.0609 84.7397L85.3803 85.4649L85.0572 85.1657L85.0572 84.7294L86.0609 84.7397ZM105.931 103.135L106.612 102.41L106.935 102.709L106.935 103.145L105.931 103.135ZM86.061 53.3769L87.0647 53.3872L87.0647 84.7499L86.0609 84.7397L85.0572 84.7294L85.0572 53.3666L86.061 53.3769ZM86.0609 84.7397L86.7415 84.0144L106.612 102.41L105.931 103.135L105.25 103.86L85.3803 85.4649L86.0609 84.7397ZM105.931 103.135L106.935 103.145L106.935 128.476L105.931 128.466L104.927 128.456L104.927 103.125L105.931 103.135Z" fill="#43B463"/>
<path d="M70.9647 81.789C73.7712 80.8949 76.8002 82.4357 77.7301 85.2306C78.66 88.0255 77.1387 91.016 74.3322 91.9102C71.5257 92.8043 68.4967 91.2635 67.5668 88.4686C66.6369 85.6737 68.1581 82.6832 70.9647 81.789ZM92.3717 106.15L93.0727 105.444L93.3755 105.74L93.3755 106.16L92.3717 106.15ZM92.3717 114.593L91.6323 115.259L91.368 114.971L91.368 114.583L92.3717 114.593ZM100.384 123.339L101.124 122.673L101.359 122.929L101.385 123.273L100.384 123.339ZM72.6484 86.8496L73.3494 86.1438L93.0727 105.444L92.3717 106.15L91.6708 106.855L71.9475 87.5555L72.6484 86.8496ZM92.3717 106.15L93.3755 106.16L93.3755 114.604L92.3717 114.593L91.368 114.583L91.368 106.139L92.3717 106.15ZM92.3717 114.593L93.1112 113.927L101.124 122.673L100.384 123.339L99.6448 124.005L91.6323 115.259L92.3717 114.593ZM100.384 123.339L101.385 123.273L102.31 135.336L101.309 135.401L100.308 135.466L99.3834 123.404L100.384 123.339Z" fill="#43B463"/>
<path d="M152.579 91.264C150.474 89.204 147.061 89.204 144.956 91.264C142.85 93.3241 142.85 96.6642 144.956 98.7242C147.061 100.784 150.474 100.784 152.579 98.7242C154.685 96.6642 154.685 93.3241 152.579 91.264ZM148.768 94.9941L148.053 94.2947L128.946 112.992L129.661 113.691L130.375 114.39L149.482 95.6935L148.768 94.9941Z" fill="#43B463"/>
<path d="M144.518 88.6924C146.761 86.2946 150.786 84.8116 154.715 84.0519C156.666 83.6746 158.566 83.4816 160.163 83.4377C161.487 83.4014 162.571 83.4705 163.299 83.6081C163.277 83.706 163.25 83.8234 163.214 83.9599C163.11 84.3547 162.957 84.8669 162.761 85.4724C162.369 86.6828 161.814 88.2485 161.161 89.9578C159.863 93.3566 158.189 97.2975 156.67 100.13C152.09 104.994 146.907 105.151 143.924 102.48C140.885 99.7583 139.977 93.5475 144.518 88.6924Z" fill="#499B65" stroke="#43B463"/>
<path d="M129.52 48.4249C129.286 45.1871 130.956 41.3118 133.098 37.9994C134.161 36.3552 135.325 34.8734 136.391 33.7096C137.28 32.7403 138.082 32.0169 138.687 31.5953C138.745 31.679 138.814 31.7799 138.892 31.9013C139.113 32.2467 139.387 32.7081 139.701 33.2638C140.328 34.3748 141.107 35.8471 141.924 37.4869C143.55 40.7464 145.319 44.6448 146.373 47.6713C146.825 54.2588 143.381 58.0524 139.337 58.3317C135.215 58.6163 129.992 54.9785 129.52 48.4249Z" fill="#499B65" stroke="#43B463"/>
<path d="M120.512 63.5881C121.989 61.8487 124.74 60.6619 127.474 59.9808C128.828 59.6435 130.151 59.437 131.266 59.3468C132.101 59.2793 132.793 59.2797 133.286 59.3291C133.28 59.3585 133.276 59.3898 133.269 59.422C133.208 59.7008 133.117 60.0657 132.998 60.4988C132.759 61.3641 132.416 62.4866 132.009 63.7147C131.201 66.1513 130.148 68.9781 129.171 71.0235C126.126 74.5767 122.58 74.8263 120.49 73.1285C118.342 71.383 117.506 67.1308 120.512 63.5881Z" fill="#499B65" stroke="#43B463"/>
<path d="M76.6627 78.6082C74.2608 76.3662 70.1164 75.1818 66.1103 74.7175C64.1215 74.4871 62.1954 74.4376 60.583 74.5158C59.238 74.5811 58.1435 74.7361 57.4168 74.9328C57.4451 75.0316 57.48 75.1506 57.5258 75.2896C57.6541 75.6794 57.839 76.184 58.0727 76.779C58.5396 77.9683 59.1932 79.503 59.9531 81.1748C61.4643 84.4994 63.3868 88.3408 65.0864 91.0777C69.9868 95.6192 75.223 95.3891 78.0784 92.4603C80.988 89.4756 81.5238 83.146 76.6627 78.6082Z" fill="#499B65" stroke="#3E7F50"/>
<path d="M91.8016 52.2545C91.7702 49.6631 90.2644 46.6756 88.4291 44.1592C87.519 42.9112 86.5432 41.8008 85.6625 40.939C84.9858 40.2767 84.3843 39.781 83.924 39.4785C83.9011 39.5226 83.8741 39.5689 83.8486 39.62C83.704 39.9096 83.5265 40.2962 83.3243 40.7619C82.9201 41.6928 82.4245 42.9237 81.9098 44.2922C80.8872 47.0105 79.798 50.2482 79.1933 52.7412C79.2788 58.0448 82.1248 60.7778 85.1038 60.7436C88.1565 60.7083 91.8652 57.5251 91.8016 52.2545Z" fill="#499B65" stroke="#43B463"/>
<path d="M105.19 35.9802C105.151 32.6933 103.237 28.9235 100.925 25.7642C99.7766 24.1951 98.545 22.7984 97.4325 21.7135C96.5225 20.8261 95.7128 20.1715 95.1074 19.794C95.0615 19.8785 95.005 19.9769 94.946 20.0947C94.7627 20.4605 94.5375 20.9472 94.2826 21.5322C93.7733 22.701 93.15 24.2451 92.502 25.9613C91.2132 29.3748 89.8389 33.4447 89.0773 36.5778C89.1796 43.2726 92.7915 46.7902 96.6401 46.7459C100.563 46.7005 105.271 42.6414 105.19 35.9802Z" fill="#499B65" stroke="#43B463"/>
<path d="M144.443 64.3038C146.685 61.9059 150.711 60.4229 154.64 59.6632C156.591 59.286 158.49 59.093 160.087 59.0491C161.411 59.0127 162.496 59.0818 163.223 59.2194C163.202 59.3173 163.175 59.4347 163.139 59.5712C163.035 59.966 162.881 60.4783 162.686 61.0838C162.294 62.2941 161.739 63.8599 161.086 65.5691C159.788 68.9679 158.114 72.9088 156.595 75.7415C152.015 80.605 146.831 80.7623 143.849 78.0915C140.81 75.3696 139.901 69.1588 144.443 64.3038Z" fill="#499B65" stroke="#43B463"/>
</g>
<defs>
<clipPath id="clip0_267_532">
<rect width="100" height="91" fill="white" transform="translate(60 19)"/>
</clipPath>
</defs>
</svg>
