<svg width="185" height="260" viewBox="0 0 185 260" fill="none" xmlns="http://www.w3.org/2000/svg">
<rect x="2.99951" y="162" width="177" height="17" fill="black"/>
<rect x="3.99951" y="243" width="177" height="17" fill="black"/>
<rect x="9.99951" y="183" width="39" height="8" rx="4" fill="#6E3232"/>
<rect x="28.9995" y="194" width="3" height="11" rx="1.5" fill="#6E3232"/>
<rect x="22.1714" y="194" width="3" height="11" rx="1.5" transform="rotate(28.0439 22.1714 194)" fill="#6E3232"/>
<rect x="34.9995" y="195.67" width="3" height="11" rx="1.5" transform="rotate(-33.8265 34.9995 195.67)" fill="#6E3232"/>
<rect x="71.9995" y="183" width="39" height="8" rx="4" fill="#6E3232"/>
<rect x="90.9995" y="194" width="3" height="11" rx="1.5" fill="#6E3232"/>
<rect x="84.1714" y="194" width="3" height="11" rx="1.5" transform="rotate(28.0439 84.1714 194)" fill="#6E3232"/>
<rect x="96.9995" y="195.67" width="3" height="11" rx="1.5" transform="rotate(-33.8265 96.9995 195.67)" fill="#6E3232"/>
<rect x="136" y="183" width="39" height="8" rx="4" fill="#6E3232"/>
<rect x="155" y="194" width="3" height="11" rx="1.5" fill="#6E3232"/>
<rect x="148.171" y="194" width="3" height="11" rx="1.5" transform="rotate(28.0439 148.171 194)" fill="#6E3232"/>
<rect x="161" y="195.67" width="3" height="11" rx="1.5" transform="rotate(-33.8265 161 195.67)" fill="#6E3232"/>
<path d="M23.7088 229.967C23.4754 226.729 25.1451 222.854 27.2866 219.541C28.3496 217.897 29.5137 216.415 30.5803 215.252C31.4687 214.282 32.2708 213.559 32.8756 213.137C32.9336 213.221 33.003 213.322 33.0807 213.443C33.3018 213.789 33.5758 214.25 33.8898 214.806C34.5174 215.917 35.2956 217.389 36.1133 219.029C37.7389 222.288 39.5079 226.187 40.5624 229.213C41.0142 235.801 37.5701 239.594 33.5258 239.874C29.4043 240.158 24.1813 236.521 23.7088 229.967Z" fill="#499B65" stroke="#43B463"/>
<path d="M9.43532 238.546C7.72813 237.037 6.75411 234.112 6.32988 231.158C6.12031 229.698 6.05012 228.264 6.08222 227.052C6.10814 226.072 6.20204 225.264 6.33086 224.707C6.38832 224.715 6.45238 224.722 6.52169 224.735C6.81836 224.787 7.20475 224.869 7.66293 224.978C8.57826 225.195 9.76169 225.515 11.0531 225.899C13.6131 226.66 16.5673 227.669 18.6806 228.632C20.4109 230.181 21.2521 231.917 21.4031 233.554C21.5557 235.208 21.0088 236.799 19.8997 238.046C17.6621 240.563 12.8969 241.604 9.43532 238.546Z" fill="#499B65" stroke="#43B463"/>
<path d="M43.2892 229.425C43.8101 228.708 44.6971 228.127 45.8327 227.682C46.9616 227.239 48.2914 226.948 49.64 226.78C50.9866 226.612 52.3364 226.569 53.4975 226.616C54.477 226.656 55.298 226.761 55.8634 226.897C55.8671 226.957 55.874 227.025 55.8761 227.102C55.8832 227.368 55.8786 227.715 55.8629 228.127C55.8317 228.951 55.7554 230.016 55.638 231.179C55.4064 233.474 55.0171 236.111 54.513 237.999C53.4057 239.483 51.9629 240.201 50.4557 240.312C48.9128 240.425 47.271 239.905 45.8395 238.858C44.4107 237.813 43.2116 236.193 42.6581 234.453C42.1067 232.721 42.2058 230.916 43.2892 229.425Z" fill="#499B65" stroke="#43B463"/>
<path d="M84.7078 229.966C84.4744 226.728 86.1441 222.853 88.2856 219.54C89.3486 217.896 90.5127 216.414 91.5793 215.251C92.4678 214.281 93.2698 213.558 93.8746 213.136C93.9327 213.22 94.0021 213.321 94.0798 213.442C94.3008 213.788 94.5749 214.249 94.8888 214.805C95.5164 215.916 96.2946 217.388 97.1124 219.028C98.7379 222.287 100.507 226.186 101.561 229.212C102.013 235.8 98.5691 239.593 94.5248 239.873C90.4033 240.157 85.1804 236.52 84.7078 229.966Z" fill="#499B65" stroke="#43B463"/>
<path d="M70.4343 238.545C68.7272 237.036 67.7531 234.111 67.3289 231.157C67.1193 229.697 67.0491 228.263 67.0812 227.051C67.1072 226.071 67.2011 225.263 67.3299 224.706C67.3873 224.714 67.4514 224.721 67.5207 224.734C67.8174 224.786 68.2038 224.868 68.6619 224.977C69.5773 225.194 70.7607 225.514 72.0521 225.898C74.6121 226.659 77.5664 227.668 79.6796 228.631C81.4099 230.18 82.2511 231.916 82.4021 233.553C82.5548 235.207 82.0078 236.798 80.8987 238.045C78.6611 240.562 73.8959 241.603 70.4343 238.545Z" fill="#499B65" stroke="#43B463"/>
<path d="M104.288 229.424C104.809 228.707 105.696 228.126 106.832 227.681C107.961 227.238 109.29 226.947 110.639 226.779C111.986 226.611 113.335 226.568 114.496 226.615C115.476 226.655 116.297 226.76 116.862 226.896C116.866 226.956 116.873 227.024 116.875 227.101C116.882 227.367 116.878 227.714 116.862 228.126C116.831 228.95 116.754 230.015 116.637 231.178C116.405 233.473 116.016 236.11 115.512 237.998C114.405 239.482 112.962 240.2 111.455 240.311C109.912 240.424 108.27 239.904 106.838 238.857C105.41 237.812 104.211 236.192 103.657 234.452C103.106 232.72 103.205 230.915 104.288 229.424Z" fill="#499B65" stroke="#43B463"/>
<path d="M145.707 229.966C145.474 226.728 147.144 222.853 149.285 219.54C150.348 217.896 151.512 216.414 152.579 215.251C153.467 214.281 154.269 213.558 154.874 213.136C154.932 213.22 155.002 213.321 155.079 213.442C155.3 213.788 155.574 214.249 155.888 214.805C156.516 215.916 157.294 217.388 158.112 219.028C159.737 222.287 161.506 226.186 162.561 229.212C163.013 235.8 159.569 239.593 155.524 239.873C151.403 240.157 146.18 236.52 145.707 229.966Z" fill="#499B65" stroke="#43B463"/>
<path d="M131.434 238.545C129.727 237.036 128.753 234.111 128.328 231.157C128.119 229.697 128.049 228.263 128.081 227.051C128.107 226.071 128.201 225.263 128.329 224.706C128.387 224.714 128.451 224.721 128.52 224.734C128.817 224.786 129.203 224.868 129.661 224.977C130.577 225.194 131.76 225.514 133.052 225.898C135.612 226.659 138.566 227.668 140.679 228.631C142.409 230.18 143.251 231.916 143.402 233.553C143.554 235.207 143.007 236.798 141.898 238.045C139.661 240.562 134.895 241.603 131.434 238.545Z" fill="#499B65" stroke="#43B463"/>
<path d="M165.288 229.424C165.809 228.707 166.696 228.126 167.831 227.681C168.96 227.238 170.29 226.947 171.639 226.779C172.985 226.611 174.335 226.568 175.496 226.615C176.476 226.655 177.297 226.76 177.862 226.896C177.866 226.956 177.873 227.024 177.875 227.101C177.882 227.367 177.877 227.714 177.861 228.126C177.83 228.95 177.754 230.015 177.637 231.178C177.405 233.473 177.016 236.11 176.512 237.998C175.404 239.482 173.961 240.2 172.454 240.311C170.911 240.424 169.27 239.904 167.838 238.857C166.409 237.812 165.21 236.192 164.657 234.452C164.105 232.72 164.204 230.915 165.288 229.424Z" fill="#499B65" stroke="#43B463"/>
<rect x="3.99951" y="81" width="177" height="17" fill="black"/>
<rect x="4.99951" y="162" width="177" height="17" fill="black"/>
<rect x="10.9995" y="102" width="39" height="8" rx="4" fill="#6E3232"/>
<rect x="29.9995" y="113" width="3" height="11" rx="1.5" fill="#6E3232"/>
<rect x="23.1714" y="113" width="3" height="11" rx="1.5" transform="rotate(28.0439 23.1714 113)" fill="#6E3232"/>
<rect x="35.9995" y="114.67" width="3" height="11" rx="1.5" transform="rotate(-33.8265 35.9995 114.67)" fill="#6E3232"/>
<rect x="72.9995" y="102" width="39" height="8" rx="4" fill="#6E3232"/>
<rect x="91.9995" y="113" width="3" height="11" rx="1.5" fill="#6E3232"/>
<rect x="85.1714" y="113" width="3" height="11" rx="1.5" transform="rotate(28.0439 85.1714 113)" fill="#6E3232"/>
<rect x="97.9995" y="114.67" width="3" height="11" rx="1.5" transform="rotate(-33.8265 97.9995 114.67)" fill="#6E3232"/>
<rect x="137" y="102" width="39" height="8" rx="4" fill="#6E3232"/>
<rect x="156" y="113" width="3" height="11" rx="1.5" fill="#6E3232"/>
<rect x="149.171" y="113" width="3" height="11" rx="1.5" transform="rotate(28.0439 149.171 113)" fill="#6E3232"/>
<rect x="162" y="114.67" width="3" height="11" rx="1.5" transform="rotate(-33.8265 162 114.67)" fill="#6E3232"/>
<path d="M24.7083 148.966C24.4749 145.728 26.1446 141.853 28.2861 138.54C29.3491 136.896 30.5132 135.414 31.5798 134.251C32.4682 133.281 33.2703 132.558 33.8751 132.136C33.9332 132.22 34.0025 132.321 34.0802 132.442C34.3013 132.788 34.5753 133.249 34.8893 133.805C35.5169 134.916 36.2951 136.388 37.1129 138.028C38.7384 141.287 40.5074 145.186 41.5619 148.212C42.0137 154.8 38.5696 158.593 34.5253 158.873C30.4038 159.157 25.1809 155.52 24.7083 148.966Z" fill="#499B65" stroke="#43B463"/>
<path d="M10.4348 157.545C8.72764 156.036 7.75362 153.111 7.32939 150.157C7.11982 148.697 7.04963 147.263 7.08173 146.051C7.10766 145.071 7.20156 144.263 7.33037 143.706C7.38783 143.714 7.4519 143.721 7.5212 143.734C7.81787 143.786 8.20426 143.868 8.66244 143.977C9.57778 144.194 10.7612 144.514 12.0526 144.898C14.6126 145.659 17.5669 146.668 19.6801 147.631C21.4104 149.18 22.2516 150.916 22.4026 152.553C22.5553 154.207 22.0083 155.798 20.8992 157.045C18.6616 159.562 13.8964 160.603 10.4348 157.545Z" fill="#499B65" stroke="#43B463"/>
<path d="M44.2887 148.424C44.8096 147.707 45.6966 147.126 46.8322 146.681C47.9612 146.238 49.2909 145.947 50.6395 145.779C51.9861 145.611 53.3359 145.568 54.497 145.615C55.4765 145.655 56.2975 145.76 56.8629 145.896C56.8667 145.956 56.8735 146.024 56.8756 146.101C56.8827 146.367 56.8781 146.714 56.8625 147.126C56.8312 147.95 56.7549 149.015 56.6375 150.178C56.4059 152.473 56.0166 155.11 55.5125 156.998C54.4052 158.482 52.9625 159.2 51.4553 159.311C49.9123 159.424 48.2705 158.904 46.839 157.857C45.4102 156.812 44.2111 155.192 43.6576 153.452C43.1062 151.72 43.2053 149.915 44.2887 148.424Z" fill="#499B65" stroke="#43B463"/>
<path d="M85.7083 148.966C85.4749 145.728 87.1446 141.853 89.2861 138.54C90.3491 136.896 91.5132 135.414 92.5798 134.251C93.4682 133.281 94.2703 132.558 94.8751 132.136C94.9332 132.22 95.0025 132.321 95.0802 132.442C95.3013 132.788 95.5753 133.249 95.8893 133.805C96.5169 134.916 97.2951 136.388 98.1129 138.028C99.7384 141.287 101.507 145.186 102.562 148.212C103.014 154.8 99.5696 158.593 95.5253 158.873C91.4038 159.157 86.1809 155.52 85.7083 148.966Z" fill="#499B65" stroke="#43B463"/>
<path d="M71.4348 157.545C69.7276 156.036 68.7536 153.111 68.3294 150.157C68.1198 148.697 68.0496 147.263 68.0817 146.051C68.1077 145.071 68.2016 144.263 68.3304 143.706C68.3878 143.714 68.4519 143.721 68.5212 143.734C68.8179 143.786 69.2043 143.868 69.6624 143.977C70.5778 144.194 71.7612 144.514 73.0526 144.898C75.6126 145.659 78.5669 146.668 80.6801 147.631C82.4104 149.18 83.2516 150.916 83.4026 152.553C83.5553 154.207 83.0083 155.798 81.8992 157.045C79.6616 159.562 74.8964 160.603 71.4348 157.545Z" fill="#499B65" stroke="#43B463"/>
<path d="M105.289 148.424C105.81 147.707 106.697 147.126 107.832 146.681C108.961 146.238 110.291 145.947 111.64 145.779C112.986 145.611 114.336 145.568 115.497 145.615C116.477 145.655 117.297 145.76 117.863 145.896C117.867 145.956 117.874 146.024 117.876 146.101C117.883 146.367 117.878 146.714 117.862 147.126C117.831 147.95 117.755 149.015 117.638 150.178C117.406 152.473 117.017 155.11 116.513 156.998C115.405 158.482 113.962 159.2 112.455 159.311C110.912 159.424 109.27 158.904 107.839 157.857C106.41 156.812 105.211 155.192 104.658 153.452C104.106 151.72 104.205 149.915 105.289 148.424Z" fill="#499B65" stroke="#43B463"/>
<path d="M146.708 148.966C146.474 145.728 148.144 141.853 150.286 138.54C151.349 136.896 152.513 135.414 153.579 134.251C154.468 133.281 155.27 132.558 155.875 132.136C155.933 132.22 156.002 132.321 156.08 132.442C156.301 132.788 156.575 133.249 156.889 133.805C157.516 134.916 158.295 136.388 159.112 138.028C160.738 141.287 162.507 145.186 163.561 148.212C164.013 154.8 160.569 158.593 156.525 158.873C152.403 159.157 147.18 155.52 146.708 148.966Z" fill="#499B65" stroke="#43B463"/>
<path d="M132.434 157.545C130.727 156.036 129.753 153.111 129.329 150.157C129.119 148.697 129.049 147.263 129.081 146.051C129.107 145.071 129.201 144.263 129.33 143.706C129.387 143.714 129.451 143.721 129.521 143.734C129.817 143.786 130.204 143.868 130.662 143.977C131.577 144.194 132.761 144.514 134.052 144.898C136.612 145.659 139.566 146.668 141.68 147.631C143.41 149.18 144.251 150.916 144.402 152.553C144.555 154.207 144.008 155.798 142.899 157.045C140.661 159.562 135.896 160.603 132.434 157.545Z" fill="#499B65" stroke="#43B463"/>
<path d="M166.288 148.424C166.809 147.707 167.696 147.126 168.832 146.681C169.961 146.238 171.29 145.947 172.639 145.779C173.986 145.611 175.335 145.568 176.496 145.615C177.476 145.655 178.297 145.76 178.862 145.896C178.866 145.956 178.873 146.024 178.875 146.101C178.882 146.367 178.878 146.714 178.862 147.126C178.831 147.95 178.754 149.015 178.637 150.178C178.405 152.473 178.016 155.11 177.512 156.998C176.405 158.482 174.962 159.2 173.455 159.311C171.912 159.424 170.27 158.904 168.838 157.857C167.41 156.812 166.211 155.192 165.657 153.452C165.106 151.72 165.205 149.915 166.288 148.424Z" fill="#499B65" stroke="#43B463"/>
<rect x="4.99902" width="177" height="17" fill="black"/>
<rect x="5.99902" y="81" width="177" height="17" fill="black"/>
<rect x="11.999" y="21" width="39" height="8" rx="4" fill="#6E3232"/>
<rect x="30.999" y="32" width="3" height="11" rx="1.5" fill="#6E3232"/>
<rect x="24.1709" y="32" width="3" height="11" rx="1.5" transform="rotate(28.0439 24.1709 32)" fill="#6E3232"/>
<rect x="36.999" y="33.6699" width="3" height="11" rx="1.5" transform="rotate(-33.8265 36.999 33.6699)" fill="#6E3232"/>
<rect x="73.999" y="21" width="39" height="8" rx="4" fill="#6E3232"/>
<rect x="92.999" y="32" width="3" height="11" rx="1.5" fill="#6E3232"/>
<rect x="86.1709" y="32" width="3" height="11" rx="1.5" transform="rotate(28.0439 86.1709 32)" fill="#6E3232"/>
<rect x="98.999" y="33.6699" width="3" height="11" rx="1.5" transform="rotate(-33.8265 98.999 33.6699)" fill="#6E3232"/>
<rect x="137.999" y="21" width="39" height="8" rx="4" fill="#6E3232"/>
<rect x="156.999" y="32" width="3" height="11" rx="1.5" fill="#6E3232"/>
<rect x="150.171" y="32" width="3" height="11" rx="1.5" transform="rotate(28.0439 150.171 32)" fill="#6E3232"/>
<rect x="162.999" y="33.6699" width="3" height="11" rx="1.5" transform="rotate(-33.8265 162.999 33.6699)" fill="#6E3232"/>
<path d="M25.7083 67.9659C25.4749 64.7282 27.1446 60.8529 29.2861 57.5404C30.3491 55.8962 31.5132 54.4145 32.5798 53.2506C33.4682 52.2813 34.2703 51.5579 34.8751 51.1364C34.9332 51.22 35.0025 51.3209 35.0802 51.4423C35.3013 51.7877 35.5753 52.2491 35.8893 52.8048C36.5169 53.9158 37.2951 55.3881 38.1129 57.0279C39.7384 60.2875 41.5074 64.1858 42.5619 67.2124C43.0137 73.7998 39.5696 77.5935 35.5253 77.8727C31.4038 78.1573 26.1809 74.5196 25.7083 67.9659Z" fill="#499B65" stroke="#43B463"/>
<path d="M11.4348 76.5445C9.72764 75.0362 8.75362 72.1114 8.32939 69.1566C8.11982 67.6969 8.04963 66.2635 8.08173 65.0506C8.10766 64.0715 8.20156 63.2629 8.33037 62.7058C8.38783 62.7144 8.4519 62.7214 8.5212 62.7336C8.81787 62.7859 9.20426 62.8681 9.66244 62.977C10.5778 63.1945 11.7612 63.5138 13.0526 63.8977C15.6126 64.6588 18.5669 65.6677 20.6801 66.6309C22.4104 68.1801 23.2516 69.916 23.4026 71.5526C23.5553 73.2072 23.0083 74.7976 21.8992 76.0453C19.6616 78.5624 14.8964 79.6028 11.4348 76.5445Z" fill="#499B65" stroke="#43B463"/>
<path d="M45.2887 67.4238C45.8096 66.7069 46.6966 66.1264 47.8322 65.681C48.9612 65.2382 50.2909 64.9468 51.6395 64.7788C52.9861 64.6111 54.3359 64.5677 55.497 64.6151C56.4765 64.6551 57.2975 64.7601 57.8629 64.8959C57.8667 64.956 57.8735 65.0242 57.8756 65.1011C57.8827 65.3665 57.8781 65.7135 57.8625 66.1259C57.8312 66.9496 57.7549 68.0154 57.6375 69.1783C57.4059 71.4729 57.0166 74.1104 56.5125 75.998C55.4052 77.4824 53.9625 78.2 52.4553 78.3107C50.9123 78.424 49.2705 77.9042 47.839 76.8573C46.4102 75.8125 45.2111 74.1918 44.6576 72.4524C44.1062 70.7199 44.2053 68.915 45.2887 67.4238Z" fill="#499B65" stroke="#43B463"/>
<path d="M86.7083 67.9669C86.4749 64.7291 88.1446 60.8538 90.2861 57.5414C91.3491 55.8971 92.5132 54.4154 93.5798 53.2516C94.4682 52.2823 95.2703 51.5589 95.8751 51.1373C95.9332 51.2209 96.0025 51.3219 96.0802 51.4433C96.3013 51.7886 96.5753 52.2501 96.8893 52.8058C97.5169 53.9167 98.2951 55.3891 99.1129 57.0289C100.738 60.2884 102.507 64.1868 103.562 67.2133C104.014 73.8007 100.57 77.5944 96.5253 77.8737C92.4038 78.1583 87.1809 74.5205 86.7083 67.9669Z" fill="#499B65" stroke="#43B463"/>
<path d="M72.4339 76.5455C70.7267 75.0372 69.7526 72.1124 69.3284 69.1576C69.1188 67.6979 69.0487 66.2644 69.0808 65.0516C69.1067 64.0724 69.2006 63.2638 69.3294 62.7067C69.3869 62.7154 69.4509 62.7224 69.5202 62.7346C69.8169 62.7869 70.2033 62.8691 70.6615 62.978C71.5768 63.1955 72.7602 63.5147 74.0516 63.8987C76.6117 64.6598 79.5659 65.6687 81.6791 66.6319C83.4094 68.181 84.2506 69.917 84.4016 71.5535C84.5543 73.2082 84.0073 74.7986 82.8982 76.0463C80.6606 78.5634 75.8954 79.6038 72.4339 76.5455Z" fill="#499B65" stroke="#43B463"/>
<path d="M106.288 67.4248C106.809 66.7079 107.696 66.1274 108.831 65.6819C109.96 65.2392 111.29 64.9478 112.639 64.7798C113.985 64.6121 115.335 64.5687 116.496 64.6161C117.476 64.656 118.297 64.761 118.862 64.8969C118.866 64.957 118.873 65.0252 118.875 65.1021C118.882 65.3675 118.877 65.7145 118.861 66.1269C118.83 66.9506 118.754 68.0164 118.637 69.1793C118.405 71.4739 118.016 74.1114 117.512 75.999C116.404 77.4834 114.961 78.201 113.454 78.3117C111.911 78.425 110.27 77.9051 108.838 76.8583C107.409 75.8135 106.21 74.1928 105.657 72.4534C105.105 70.7209 105.204 68.916 106.288 67.4248Z" fill="#499B65" stroke="#43B463"/>
<path d="M147.707 67.9669C147.474 64.7291 149.144 60.8538 151.285 57.5414C152.348 55.8971 153.512 54.4154 154.579 53.2516C155.467 52.2823 156.269 51.5589 156.874 51.1373C156.932 51.2209 157.002 51.3219 157.079 51.4433C157.3 51.7886 157.574 52.2501 157.888 52.8058C158.516 53.9167 159.294 55.3891 160.112 57.0289C161.737 60.2884 163.506 64.1868 164.561 67.2133C165.013 73.8007 161.569 77.5944 157.524 77.8737C153.403 78.1583 148.18 74.5205 147.707 67.9669Z" fill="#499B65" stroke="#43B463"/>
<path d="M133.434 76.5455C131.727 75.0372 130.753 72.1124 130.328 69.1576C130.119 67.6979 130.049 66.2644 130.081 65.0516C130.107 64.0724 130.201 63.2638 130.329 62.7067C130.387 62.7154 130.451 62.7224 130.52 62.7346C130.817 62.7869 131.203 62.8691 131.661 62.978C132.577 63.1955 133.76 63.5147 135.052 63.8987C137.612 64.6598 140.566 65.6687 142.679 66.6319C144.409 68.181 145.251 69.917 145.402 71.5535C145.554 73.2082 145.007 74.7986 143.898 76.0463C141.661 78.5634 136.895 79.6038 133.434 76.5455Z" fill="#499B65" stroke="#43B463"/>
<path d="M167.288 67.4248C167.809 66.7079 168.696 66.1274 169.831 65.6819C170.96 65.2392 172.29 64.9478 173.639 64.7798C174.985 64.6121 176.335 64.5687 177.496 64.6161C178.476 64.656 179.297 64.761 179.862 64.8969C179.866 64.957 179.873 65.0252 179.875 65.1021C179.882 65.3675 179.877 65.7145 179.861 66.1269C179.83 66.9506 179.754 68.0164 179.637 69.1793C179.405 71.4739 179.016 74.1114 178.512 75.999C177.404 77.4834 175.961 78.201 174.454 78.3117C172.911 78.425 171.27 77.9051 169.838 76.8583C168.409 75.8135 167.21 74.1928 166.657 72.4534C166.105 70.7209 166.204 68.916 167.288 67.4248Z" fill="#499B65" stroke="#43B463"/>
</svg>
