<svg width="229" height="219" viewBox="0 0 229 219" fill="none" xmlns="http://www.w3.org/2000/svg">
<rect width="229" height="219" fill="#18284B"/>
<path d="M191.833 41.5C193.107 41.5 193.712 41.7036 194.028 42.0225C194.343 42.3404 194.5 42.9005 194.5 44C194.5 44.95 194.072 45.8324 193.389 46.5479C192.715 47.2535 191.816 47.7692 190.922 48.002C190.237 48.0126 189.578 48.1587 188.99 48.3311C188.685 48.4207 188.393 48.5195 188.125 48.6104C187.853 48.7025 187.611 48.7847 187.391 48.8506C187.169 48.9168 186.989 48.9599 186.845 48.9766C186.698 48.9935 186.627 48.9783 186.6 48.9678C186.592 48.9647 186.581 48.9637 186.562 48.9229C186.534 48.8644 186.5 48.7389 186.5 48.5C186.5 48.047 186.673 47.3751 187.009 46.5908C187.339 45.8187 187.809 44.9816 188.357 44.21C188.907 43.4364 189.525 42.7446 190.146 42.252C190.775 41.752 191.353 41.5001 191.833 41.5Z" fill="#FFC200" stroke="#FFC200"/>
<path d="M187.222 40.5327C186.43 41.5304 185.894 41.8776 185.448 41.9271C185.003 41.9762 184.467 41.7505 183.606 41.0668C182.862 40.4761 182.437 39.5918 182.301 38.6121C182.168 37.6459 182.323 36.6211 182.697 35.776C183.114 35.2332 183.41 34.6259 183.64 34.0586C183.76 33.7636 183.864 33.4735 183.959 33.2073C184.056 32.9372 184.142 32.6967 184.228 32.4828C184.314 32.2679 184.392 32.1003 184.469 31.977C184.547 31.8511 184.603 31.8051 184.628 31.7905C184.635 31.7861 184.643 31.7783 184.687 31.7886C184.75 31.8033 184.869 31.8548 185.056 32.0033C185.411 32.285 185.83 32.8382 186.235 33.5889C186.634 34.328 186.998 35.2163 187.261 36.1256C187.525 37.0373 187.682 37.9513 187.682 38.7435C187.682 39.5474 187.521 40.1564 187.222 40.5327Z" fill="#FFC200" stroke="#FFC200"/>
<path d="M121 97H107.5L108.5 117L107.5 129.5L77 136.5L72.3396 138.539C70.136 139.503 68.1502 140.903 66.5017 142.654C62.9678 146.409 61 151.371 61 156.527V162.5H73.5L74.5 151.5L78.5 148.5L100.364 147.329C104.342 147.116 108.137 145.589 111.154 142.988L121 134.5V97Z" fill="#2F752F"/>
<line y1="-0.5" x2="9.8088" y2="-0.5" transform="matrix(-0.944894 0.327376 -0.356568 -0.934269 120.277 57.6836)" stroke="#42714B"/>
<path d="M125.164 62.5935C121.798 69.3231 113.681 72.332 107.035 69.3141C100.388 66.2962 97.7286 58.3942 101.095 51.6646C104.461 44.935 118.517 32.9908 125.164 36.0087C131.81 39.0266 128.53 55.8639 125.164 62.5935Z" fill="#539960"/>
<line y1="-0.5" x2="6.55271" y2="-0.5" transform="matrix(-0.514334 0.85759 -0.878266 -0.478172 105.954 66.5146)" stroke="#539960"/>
<path d="M124.203 38.554C122.917 37.8358 121.249 38.2705 120.477 39.5249C119.705 40.7792 120.122 42.3783 121.408 43.0964C122.694 43.8146 124.362 43.3799 125.133 42.1255C125.905 40.8712 125.488 39.2721 124.203 38.554ZM122.805 40.8252L122.369 40.5814L108.045 63.8623L108.481 64.1062L108.918 64.35L123.242 41.069L122.805 40.8252Z" fill="#42714B"/>
<path d="M122.797 56.0079C122.272 54.6319 120.718 53.9073 119.326 54.3895C117.935 54.8716 117.232 56.3779 117.758 57.7539C118.283 59.1298 119.837 59.8544 121.228 59.3722C122.62 58.8901 123.322 57.3838 122.797 56.0079ZM120.277 56.8809L120.099 56.4137L110.831 59.6249L111.009 60.092L111.187 60.5592L120.456 57.348L120.277 56.8809Z" fill="#42714B"/>
<path d="M113 48.6667C114.473 48.6667 115.667 47.4728 115.667 46C115.667 44.5272 114.473 43.3333 113 43.3333C111.527 43.3333 110.333 44.5272 110.333 46C110.333 47.4728 111.527 48.6667 113 48.6667ZM113 57L113.5 57L113.5 46L113 46L112.5 46L112.5 57L113 57Z" fill="#42714B"/>
<path d="M40.5 97.5H52L53.0761 116.512C53.314 120.714 56.791 124 61 124L88 125.5H123.476C128.441 125.5 133.356 126.499 137.926 128.438L147.5 132.5L136.5 143.5L125 136.5H75.5H58.5L56.6787 136.224C48.1554 134.933 41.7444 127.78 41.3904 119.166L40.5 97.5Z" fill="#FFCC00"/>
<path d="M193.5 98.5H181V109L180.517 118.669C180.506 118.889 180.463 119.105 180.392 119.313C178.96 123.448 175.066 126.22 170.691 126.22H153.5L144 129.748L140.161 134.004C139.389 134.86 138.697 135.787 138.096 136.771C136.071 140.088 135 143.898 135 147.784V162H147L147.5 146.378L149.054 143.246C149.68 141.983 150.506 140.828 151.5 139.827L155.5 137.811H171L179.316 136.333C182.349 135.794 185.108 134.241 187.143 131.929C192.163 126.224 194.643 118.72 194.012 111.147L194 111L193.5 98.5Z" fill="#2F752F"/>
<path d="M80.861 187.361C80.917 187.361 80.973 187.373 81.029 187.396C81.085 187.415 81.1387 187.45 81.19 187.501L82.128 188.488C81.7173 189.025 81.2017 189.431 80.581 189.706C79.965 189.977 79.2347 190.112 78.39 190.112C77.6153 190.112 76.92 189.981 76.304 189.72C75.6927 189.454 75.1723 189.09 74.743 188.628C74.3183 188.161 73.9917 187.611 73.763 186.976C73.5343 186.337 73.42 185.644 73.42 184.897C73.42 184.136 73.5437 183.439 73.791 182.804C74.0383 182.165 74.386 181.614 74.834 181.152C75.282 180.69 75.8187 180.331 76.444 180.074C77.0693 179.817 77.7577 179.689 78.509 179.689C78.8917 179.689 79.251 179.724 79.587 179.794C79.9277 179.859 80.245 179.953 80.539 180.074C80.833 180.191 81.1037 180.333 81.351 180.501C81.5983 180.669 81.8177 180.851 82.009 181.047L81.211 182.118C81.1597 182.183 81.099 182.244 81.029 182.3C80.959 182.351 80.861 182.377 80.735 182.377C80.651 182.377 80.5717 182.358 80.497 182.321C80.4223 182.284 80.343 182.239 80.259 182.188C80.175 182.132 80.0817 182.074 79.979 182.013C79.881 181.948 79.762 181.889 79.622 181.838C79.4867 181.782 79.3257 181.735 79.139 181.698C78.957 181.661 78.7423 181.642 78.495 181.642C78.103 181.642 77.7437 181.714 77.417 181.859C77.095 182.004 76.815 182.216 76.577 182.496C76.3437 182.771 76.1617 183.112 76.031 183.518C75.905 183.919 75.842 184.379 75.842 184.897C75.842 185.42 75.912 185.884 76.052 186.29C76.1967 186.696 76.3903 187.039 76.633 187.319C76.8803 187.594 77.1673 187.804 77.494 187.949C77.8207 188.094 78.1707 188.166 78.544 188.166C78.7587 188.166 78.9547 188.157 79.132 188.138C79.3093 188.115 79.475 188.08 79.629 188.033C79.783 187.982 79.9277 187.916 80.063 187.837C80.1983 187.753 80.336 187.648 80.476 187.522C80.532 187.475 80.5927 187.438 80.658 187.41C80.7233 187.377 80.791 187.361 80.861 187.361ZM88.5508 186.101L87.6058 183.308C87.5358 183.131 87.4612 182.923 87.3818 182.685C87.3025 182.442 87.2232 182.181 87.1438 181.901C87.0738 182.186 86.9992 182.449 86.9198 182.692C86.8405 182.935 86.7658 183.145 86.6958 183.322L85.7578 186.101H88.5508ZM92.3098 190H90.4758C90.2705 190 90.1048 189.953 89.9788 189.86C89.8528 189.762 89.7572 189.638 89.6918 189.489L89.0898 187.711H85.2118L84.6098 189.489C84.5585 189.62 84.4652 189.739 84.3298 189.846C84.1992 189.949 84.0358 190 83.8398 190H81.9918L85.9398 179.801H88.3618L92.3098 190ZM96.712 184.806C97.328 184.806 97.7713 184.659 98.042 184.365C98.3126 184.071 98.448 183.66 98.448 183.133C98.448 182.9 98.413 182.687 98.343 182.496C98.273 182.305 98.1656 182.141 98.021 182.006C97.881 181.866 97.7013 181.759 97.482 181.684C97.2673 181.609 97.0106 181.572 96.712 181.572H95.48V184.806H96.712ZM96.712 179.801C97.4306 179.801 98.0466 179.887 98.56 180.06C99.078 180.228 99.5026 180.461 99.834 180.76C100.17 181.059 100.417 181.411 100.576 181.817C100.735 182.223 100.814 182.662 100.814 183.133C100.814 183.642 100.732 184.108 100.569 184.533C100.406 184.958 100.156 185.322 99.82 185.625C99.484 185.928 99.057 186.166 98.539 186.339C98.0256 186.507 97.4166 186.591 96.712 186.591H95.48V190H93.114V179.801H96.712ZM104.394 190H102.014V179.801H104.394V190ZM113.691 181.677H110.821V190H108.455V181.677H105.585V179.801H113.691V181.677ZM119.285 186.101L118.34 183.308C118.27 183.131 118.196 182.923 118.116 182.685C118.037 182.442 117.958 182.181 117.878 181.901C117.808 182.186 117.734 182.449 117.654 182.692C117.575 182.935 117.5 183.145 117.43 183.322L116.492 186.101H119.285ZM123.044 190H121.21C121.005 190 120.839 189.953 120.713 189.86C120.587 189.762 120.492 189.638 120.426 189.489L119.824 187.711H115.946L115.344 189.489C115.293 189.62 115.2 189.739 115.064 189.846C114.934 189.949 114.77 190 114.574 190H112.726L116.674 179.801H119.096L123.044 190ZM129.994 188.11V190H123.848V179.801H126.214V188.11H129.994ZM136.4 181.621V184.204H139.886V186.031H136.4V190H134.02V179.801H140.586V181.621H136.4ZM148.096 188.11V190H141.95V179.801H144.316V188.11H148.096ZM159.069 184.897C159.069 185.634 158.941 186.32 158.684 186.955C158.432 187.59 158.075 188.143 157.613 188.614C157.151 189.081 156.594 189.447 155.94 189.713C155.292 189.979 154.571 190.112 153.777 190.112C152.984 190.112 152.261 189.979 151.607 189.713C150.954 189.447 150.394 189.081 149.927 188.614C149.465 188.143 149.106 187.59 148.849 186.955C148.597 186.32 148.471 185.634 148.471 184.897C148.471 184.16 148.597 183.474 148.849 182.839C149.106 182.204 149.465 181.654 149.927 181.187C150.394 180.72 150.954 180.354 151.607 180.088C152.261 179.822 152.984 179.689 153.777 179.689C154.571 179.689 155.292 179.824 155.94 180.095C156.594 180.361 157.151 180.727 157.613 181.194C158.075 181.661 158.432 182.211 158.684 182.846C158.941 183.481 159.069 184.164 159.069 184.897ZM156.647 184.897C156.647 184.393 156.582 183.94 156.451 183.539C156.321 183.133 156.132 182.79 155.884 182.51C155.642 182.23 155.343 182.015 154.988 181.866C154.634 181.717 154.23 181.642 153.777 181.642C153.32 181.642 152.912 181.717 152.552 181.866C152.198 182.015 151.897 182.23 151.649 182.51C151.407 182.79 151.22 183.133 151.089 183.539C150.959 183.94 150.893 184.393 150.893 184.897C150.893 185.406 150.959 185.863 151.089 186.269C151.22 186.67 151.407 187.011 151.649 187.291C151.897 187.571 152.198 187.786 152.552 187.935C152.912 188.08 153.32 188.152 153.777 188.152C154.23 188.152 154.634 188.08 154.988 187.935C155.343 187.786 155.642 187.571 155.884 187.291C156.132 187.011 156.321 186.67 156.451 186.269C156.582 185.863 156.647 185.406 156.647 184.897ZM174.097 179.801L170.947 190H168.805L166.887 183.679C166.85 183.581 166.815 183.474 166.782 183.357C166.749 183.236 166.717 183.11 166.684 182.979C166.651 183.11 166.619 183.236 166.586 183.357C166.553 183.474 166.518 183.581 166.481 183.679L164.535 190H162.393L159.243 179.801H161.231C161.436 179.801 161.607 179.848 161.742 179.941C161.882 180.034 161.973 180.158 162.015 180.312L163.415 185.632C163.457 185.8 163.499 185.984 163.541 186.185C163.583 186.381 163.625 186.586 163.667 186.801C163.751 186.362 163.854 185.973 163.975 185.632L165.627 180.312C165.669 180.181 165.758 180.065 165.893 179.962C166.033 179.855 166.201 179.801 166.397 179.801H167.097C167.302 179.801 167.468 179.85 167.594 179.948C167.72 180.041 167.816 180.163 167.881 180.312L169.519 185.632C169.64 185.959 169.743 186.33 169.827 186.745C169.864 186.535 169.902 186.339 169.939 186.157C169.981 185.97 170.023 185.795 170.065 185.632L171.465 180.312C171.502 180.177 171.591 180.058 171.731 179.955C171.871 179.852 172.039 179.801 172.235 179.801H174.097Z" fill="white"/>
<path d="M16.405 89H14.705V81.715H16.405V89ZM24.1705 81.715V89H23.2905C23.1605 89 23.0505 88.98 22.9605 88.94C22.8738 88.8967 22.7871 88.8233 22.7005 88.72L19.2655 84.375C19.2788 84.505 19.2871 84.6317 19.2905 84.755C19.2971 84.875 19.3005 84.9883 19.3005 85.095V89H17.8105V81.715H18.7005C18.7738 81.715 18.8355 81.7183 18.8855 81.725C18.9355 81.7317 18.9805 81.745 19.0205 81.765C19.0605 81.7817 19.0988 81.8067 19.1355 81.84C19.1721 81.8733 19.2138 81.9183 19.2605 81.975L22.7255 86.35C22.7088 86.21 22.6971 86.075 22.6905 85.945C22.6838 85.8117 22.6805 85.6867 22.6805 85.57V81.715H24.1705ZM32.1189 81.715L29.1989 89H27.6689L24.7489 81.715H26.1089C26.2556 81.715 26.3739 81.75 26.4639 81.82C26.5539 81.8867 26.6222 81.9733 26.6689 82.08L28.0789 85.98C28.1456 86.15 28.2106 86.3367 28.2739 86.54C28.3372 86.74 28.3972 86.95 28.4539 87.17C28.5006 86.95 28.5522 86.74 28.6089 86.54C28.6689 86.3367 28.7322 86.15 28.7989 85.98L30.1989 82.08C30.2356 81.9867 30.3006 81.9033 30.3939 81.83C30.4906 81.7533 30.6089 81.715 30.7489 81.715H32.1189ZM34.3933 83.015V84.715H36.6833V85.965H34.3933V87.7H37.3833V89H32.6933V81.715H37.3833V83.015H34.3933ZM42.4507 83.195C42.4007 83.275 42.3474 83.335 42.2907 83.375C42.2374 83.415 42.1674 83.435 42.0807 83.435C42.004 83.435 41.9207 83.4117 41.8307 83.365C41.744 83.315 41.644 83.26 41.5307 83.2C41.4207 83.14 41.294 83.0867 41.1507 83.04C41.0074 82.99 40.844 82.965 40.6607 82.965C40.344 82.965 40.1074 83.0333 39.9507 83.17C39.7974 83.3033 39.7207 83.485 39.7207 83.715C39.7207 83.8617 39.7674 83.9833 39.8607 84.08C39.954 84.1767 40.0757 84.26 40.2257 84.33C40.379 84.4 40.5524 84.465 40.7457 84.525C40.9424 84.5817 41.1424 84.6467 41.3457 84.72C41.549 84.79 41.7474 84.8733 41.9407 84.97C42.1374 85.0667 42.3107 85.19 42.4607 85.34C42.614 85.49 42.7374 85.6733 42.8307 85.89C42.924 86.1033 42.9707 86.3617 42.9707 86.665C42.9707 87.0017 42.9124 87.3167 42.7957 87.61C42.679 87.9033 42.509 88.16 42.2857 88.38C42.0657 88.5967 41.7924 88.7683 41.4657 88.895C41.1424 89.0183 40.774 89.08 40.3607 89.08C40.134 89.08 39.9024 89.0567 39.6657 89.01C39.4324 88.9633 39.2057 88.8983 38.9857 88.815C38.7657 88.7283 38.559 88.6267 38.3657 88.51C38.1724 88.3933 38.004 88.2633 37.8607 88.12L38.3607 87.33C38.4007 87.2733 38.4524 87.2267 38.5157 87.19C38.5824 87.15 38.654 87.13 38.7307 87.13C38.8307 87.13 38.9307 87.1617 39.0307 87.225C39.134 87.2883 39.249 87.3583 39.3757 87.435C39.5057 87.5117 39.654 87.5817 39.8207 87.645C39.9874 87.7083 40.184 87.74 40.4107 87.74C40.7174 87.74 40.9557 87.6733 41.1257 87.54C41.2957 87.4033 41.3807 87.1883 41.3807 86.895C41.3807 86.725 41.334 86.5867 41.2407 86.48C41.1474 86.3733 41.024 86.285 40.8707 86.215C40.7207 86.145 40.549 86.0833 40.3557 86.03C40.1624 85.9767 39.964 85.9183 39.7607 85.855C39.5574 85.7883 39.359 85.7083 39.1657 85.615C38.9724 85.5183 38.799 85.3933 38.6457 85.24C38.4957 85.0833 38.374 84.89 38.2807 84.66C38.1874 84.4267 38.1407 84.14 38.1407 83.8C38.1407 83.5267 38.1957 83.26 38.3057 83C38.4157 82.74 38.5774 82.5083 38.7907 82.305C39.004 82.1017 39.2657 81.94 39.5757 81.82C39.8857 81.6967 40.2407 81.635 40.6407 81.635C40.864 81.635 41.0807 81.6533 41.2907 81.69C41.504 81.7233 41.7057 81.775 41.8957 81.845C42.0857 81.9117 42.2624 81.9933 42.4257 82.09C42.5924 82.1833 42.7407 82.29 42.8707 82.41L42.4507 83.195ZM49.1978 83.055H47.1478V89H45.4578V83.055H43.4078V81.715H49.1978V83.055ZM58.2466 81.715V89H56.7566V84.81C56.7566 84.7133 56.7582 84.6083 56.7616 84.495C56.7682 84.3817 56.7782 84.2667 56.7916 84.15L54.8566 87.895C54.7966 88.0117 54.7149 88.1 54.6116 88.16C54.5116 88.22 54.3966 88.25 54.2666 88.25H54.0366C53.9066 88.25 53.7899 88.22 53.6866 88.16C53.5866 88.1 53.5066 88.0117 53.4466 87.895L51.5116 84.14C51.5216 84.26 51.5299 84.3783 51.5366 84.495C51.5432 84.6083 51.5466 84.7133 51.5466 84.81V89H50.0566V81.715H51.3466C51.4199 81.715 51.4832 81.7167 51.5366 81.72C51.5932 81.7233 51.6432 81.7333 51.6866 81.75C51.7299 81.7667 51.7682 81.7933 51.8016 81.83C51.8382 81.8633 51.8732 81.9117 51.9066 81.975L53.7816 85.67C53.8482 85.7967 53.9116 85.9283 53.9716 86.065C54.0349 86.2017 54.0949 86.3417 54.1516 86.485C54.2082 86.3383 54.2666 86.195 54.3266 86.055C54.3899 85.915 54.4566 85.7817 54.5266 85.655L56.3966 81.975C56.4299 81.9117 56.4632 81.8633 56.4966 81.83C56.5332 81.7933 56.5732 81.7667 56.6166 81.75C56.6599 81.7333 56.7082 81.7233 56.7616 81.72C56.8182 81.7167 56.8832 81.715 56.9566 81.715H58.2466ZM61.3562 83.015V84.715H63.6462V85.965H61.3562V87.7H64.3462V89H59.6562V81.715H64.3462V83.015H61.3562ZM71.7486 81.715V89H70.8686C70.7386 89 70.6286 88.98 70.5386 88.94C70.4519 88.8967 70.3653 88.8233 70.2786 88.72L66.8436 84.375C66.8569 84.505 66.8653 84.6317 66.8686 84.755C66.8753 84.875 66.8786 84.9883 66.8786 85.095V89H65.3886V81.715H66.2786C66.3519 81.715 66.4136 81.7183 66.4636 81.725C66.5136 81.7317 66.5586 81.745 66.5986 81.765C66.6386 81.7817 66.6769 81.8067 66.7136 81.84C66.7503 81.8733 66.7919 81.9183 66.8386 81.975L70.3036 86.35C70.2869 86.21 70.2753 86.075 70.2686 85.945C70.2619 85.8117 70.2586 85.6867 70.2586 85.57V81.715H71.7486ZM78.397 83.055H76.347V89H74.657V83.055H72.607V81.715H78.397V83.055Z" fill="white"/>
<path d="M98.555 86.215L97.88 84.22C97.83 84.0933 97.7767 83.945 97.72 83.775C97.6633 83.6017 97.6067 83.415 97.55 83.215C97.5 83.4183 97.4467 83.6067 97.39 83.78C97.3333 83.9533 97.28 84.1033 97.23 84.23L96.56 86.215H98.555ZM101.24 89H99.93C99.7833 89 99.665 88.9667 99.575 88.9C99.485 88.83 99.4167 88.7417 99.37 88.635L98.94 87.365H96.17L95.74 88.635C95.7033 88.7283 95.6367 88.8133 95.54 88.89C95.4467 88.9633 95.33 89 95.19 89H93.87L96.69 81.715H98.42L101.24 89ZM105.07 85.225H107.66V88.3C107.287 88.5733 106.889 88.7717 106.465 88.895C106.045 89.0183 105.605 89.08 105.145 89.08C104.545 89.08 103.999 88.9867 103.505 88.8C103.015 88.61 102.595 88.35 102.245 88.02C101.895 87.6867 101.625 87.2933 101.435 86.84C101.245 86.3833 101.15 85.8883 101.15 85.355C101.15 84.8117 101.24 84.3133 101.42 83.86C101.6 83.4033 101.857 83.01 102.19 82.68C102.527 82.35 102.932 82.0933 103.405 81.91C103.882 81.7267 104.414 81.635 105 81.635C105.304 81.635 105.589 81.66 105.855 81.71C106.122 81.76 106.367 81.8283 106.59 81.915C106.817 82.0017 107.024 82.105 107.21 82.225C107.397 82.345 107.564 82.475 107.71 82.615L107.22 83.36C107.144 83.4767 107.044 83.5483 106.92 83.575C106.8 83.6017 106.67 83.5717 106.53 83.485C106.397 83.405 106.27 83.3367 106.15 83.28C106.034 83.22 105.914 83.1717 105.79 83.135C105.667 83.0983 105.537 83.0717 105.4 83.055C105.264 83.0383 105.11 83.03 104.94 83.03C104.624 83.03 104.339 83.0867 104.085 83.2C103.832 83.31 103.615 83.4667 103.435 83.67C103.259 83.8733 103.122 84.1183 103.025 84.405C102.929 84.6883 102.88 85.005 102.88 85.355C102.88 85.7417 102.934 86.085 103.04 86.385C103.147 86.685 103.297 86.9383 103.49 87.145C103.687 87.3517 103.92 87.51 104.19 87.62C104.464 87.7267 104.765 87.78 105.095 87.78C105.299 87.78 105.482 87.76 105.645 87.72C105.812 87.68 105.974 87.6267 106.13 87.56V86.455H105.41C105.304 86.455 105.22 86.4267 105.16 86.37C105.1 86.3133 105.07 86.2417 105.07 86.155V85.225ZM114.032 83.055H111.982V89H110.292V83.055H108.242V81.715H114.032V83.055ZM116.591 83.015V84.715H118.881V85.965H116.591V87.7H119.581V89H114.891V81.715H119.581V83.015H116.591ZM125.386 87.115C125.426 87.115 125.466 87.1233 125.506 87.14C125.546 87.1533 125.585 87.1783 125.621 87.215L126.291 87.92C125.998 88.3033 125.63 88.5933 125.186 88.79C124.746 88.9833 124.225 89.08 123.621 89.08C123.068 89.08 122.571 88.9867 122.131 88.8C121.695 88.61 121.323 88.35 121.016 88.02C120.713 87.6867 120.48 87.2933 120.316 86.84C120.153 86.3833 120.071 85.8883 120.071 85.355C120.071 84.8117 120.16 84.3133 120.336 83.86C120.513 83.4033 120.761 83.01 121.081 82.68C121.401 82.35 121.785 82.0933 122.231 81.91C122.678 81.7267 123.17 81.635 123.706 81.635C123.98 81.635 124.236 81.66 124.476 81.71C124.72 81.7567 124.946 81.8233 125.156 81.91C125.366 81.9933 125.56 82.095 125.736 82.215C125.913 82.335 126.07 82.465 126.206 82.605L125.636 83.37C125.6 83.4167 125.556 83.46 125.506 83.5C125.456 83.5367 125.386 83.555 125.296 83.555C125.236 83.555 125.18 83.5417 125.126 83.515C125.073 83.4883 125.016 83.4567 124.956 83.42C124.896 83.38 124.83 83.3383 124.756 83.295C124.686 83.2483 124.601 83.2067 124.501 83.17C124.405 83.13 124.29 83.0967 124.156 83.07C124.026 83.0433 123.873 83.03 123.696 83.03C123.416 83.03 123.16 83.0817 122.926 83.185C122.696 83.2883 122.496 83.44 122.326 83.64C122.16 83.8367 122.03 84.08 121.936 84.37C121.846 84.6567 121.801 84.985 121.801 85.355C121.801 85.7283 121.851 86.06 121.951 86.35C122.055 86.64 122.193 86.885 122.366 87.085C122.543 87.2817 122.748 87.4317 122.981 87.535C123.215 87.6383 123.465 87.69 123.731 87.69C123.885 87.69 124.025 87.6833 124.151 87.67C124.278 87.6533 124.396 87.6283 124.506 87.595C124.616 87.5583 124.72 87.5117 124.816 87.455C124.913 87.395 125.011 87.32 125.111 87.23C125.151 87.1967 125.195 87.17 125.241 87.15C125.288 87.1267 125.336 87.115 125.386 87.115ZM133.389 81.715V89H131.689V85.92H128.729V89H127.029V81.715H128.729V84.76H131.689V81.715H133.389Z" fill="white"/>
<path d="M167.405 83.015V84.86H169.895V86.165H167.405V89H165.705V81.715H170.395V83.015H167.405ZM174.614 86.215L173.939 84.22C173.889 84.0933 173.835 83.945 173.779 83.775C173.722 83.6017 173.665 83.415 173.609 83.215C173.559 83.4183 173.505 83.6067 173.449 83.78C173.392 83.9533 173.339 84.1033 173.289 84.23L172.619 86.215H174.614ZM177.299 89H175.989C175.842 89 175.724 88.9667 175.634 88.9C175.544 88.83 175.475 88.7417 175.429 88.635L174.999 87.365H172.229L171.799 88.635C171.762 88.7283 171.695 88.8133 171.599 88.89C171.505 88.9633 171.389 89 171.249 89H169.929L172.749 81.715H174.479L177.299 89ZM180.243 85.14C180.473 85.14 180.668 85.1117 180.828 85.055C180.991 84.995 181.125 84.9133 181.228 84.81C181.331 84.7067 181.406 84.5867 181.453 84.45C181.5 84.31 181.523 84.16 181.523 84C181.523 83.68 181.418 83.43 181.208 83.25C181.001 83.07 180.68 82.98 180.243 82.98H179.563V85.14H180.243ZM183.833 89H182.303C182.02 89 181.816 88.8933 181.693 88.68L180.483 86.565C180.426 86.475 180.363 86.41 180.293 86.37C180.223 86.3267 180.123 86.305 179.993 86.305H179.563V89H177.873V81.715H180.243C180.77 81.715 181.218 81.77 181.588 81.88C181.961 81.9867 182.265 82.1367 182.498 82.33C182.735 82.5233 182.906 82.7517 183.013 83.015C183.12 83.2783 183.173 83.565 183.173 83.875C183.173 84.1117 183.141 84.335 183.078 84.545C183.015 84.755 182.921 84.95 182.798 85.13C182.675 85.3067 182.521 85.465 182.338 85.605C182.158 85.745 181.95 85.86 181.713 85.95C181.823 86.0067 181.926 86.0783 182.023 86.165C182.12 86.2483 182.206 86.3483 182.283 86.465L183.833 89ZM192.635 81.715V89H191.145V84.81C191.145 84.7133 191.147 84.6083 191.15 84.495C191.157 84.3817 191.167 84.2667 191.18 84.15L189.245 87.895C189.185 88.0117 189.104 88.1 189 88.16C188.9 88.22 188.785 88.25 188.655 88.25H188.425C188.295 88.25 188.179 88.22 188.075 88.16C187.975 88.1 187.895 88.0117 187.835 87.895L185.9 84.14C185.91 84.26 185.919 84.3783 185.925 84.495C185.932 84.6083 185.935 84.7133 185.935 84.81V89H184.445V81.715H185.735C185.809 81.715 185.872 81.7167 185.925 81.72C185.982 81.7233 186.032 81.7333 186.075 81.75C186.119 81.7667 186.157 81.7933 186.19 81.83C186.227 81.8633 186.262 81.9117 186.295 81.975L188.17 85.67C188.237 85.7967 188.3 85.9283 188.36 86.065C188.424 86.2017 188.484 86.3417 188.54 86.485C188.597 86.3383 188.655 86.195 188.715 86.055C188.779 85.915 188.845 85.7817 188.915 85.655L190.785 81.975C190.819 81.9117 190.852 81.8633 190.885 81.83C190.922 81.7933 190.962 81.7667 191.005 81.75C191.049 81.7333 191.097 81.7233 191.15 81.72C191.207 81.7167 191.272 81.715 191.345 81.715H192.635ZM195.745 83.015V84.715H198.035V85.965H195.745V87.7H198.735V89H194.045V81.715H198.735V83.015H195.745ZM202.147 85.14C202.377 85.14 202.572 85.1117 202.732 85.055C202.896 84.995 203.029 84.9133 203.132 84.81C203.236 84.7067 203.311 84.5867 203.357 84.45C203.404 84.31 203.427 84.16 203.427 84C203.427 83.68 203.322 83.43 203.112 83.25C202.906 83.07 202.584 82.98 202.147 82.98H201.467V85.14H202.147ZM205.737 89H204.207C203.924 89 203.721 88.8933 203.597 88.68L202.387 86.565C202.331 86.475 202.267 86.41 202.197 86.37C202.127 86.3267 202.027 86.305 201.897 86.305H201.467V89H199.777V81.715H202.147C202.674 81.715 203.122 81.77 203.492 81.88C203.866 81.9867 204.169 82.1367 204.402 82.33C204.639 82.5233 204.811 82.7517 204.917 83.015C205.024 83.2783 205.077 83.565 205.077 83.875C205.077 84.1117 205.046 84.335 204.982 84.545C204.919 84.755 204.826 84.95 204.702 85.13C204.579 85.3067 204.426 85.465 204.242 85.605C204.062 85.745 203.854 85.86 203.617 85.95C203.727 86.0067 203.831 86.0783 203.927 86.165C204.024 86.2483 204.111 86.3483 204.187 86.465L205.737 89ZM210.375 83.195C210.325 83.275 210.271 83.335 210.215 83.375C210.161 83.415 210.091 83.435 210.005 83.435C209.928 83.435 209.845 83.4117 209.755 83.365C209.668 83.315 209.568 83.26 209.455 83.2C209.345 83.14 209.218 83.0867 209.075 83.04C208.931 82.99 208.768 82.965 208.585 82.965C208.268 82.965 208.031 83.0333 207.875 83.17C207.721 83.3033 207.645 83.485 207.645 83.715C207.645 83.8617 207.691 83.9833 207.785 84.08C207.878 84.1767 208 84.26 208.15 84.33C208.303 84.4 208.476 84.465 208.67 84.525C208.866 84.5817 209.066 84.6467 209.27 84.72C209.473 84.79 209.671 84.8733 209.865 84.97C210.061 85.0667 210.235 85.19 210.385 85.34C210.538 85.49 210.661 85.6733 210.755 85.89C210.848 86.1033 210.895 86.3617 210.895 86.665C210.895 87.0017 210.836 87.3167 210.72 87.61C210.603 87.9033 210.433 88.16 210.21 88.38C209.99 88.5967 209.716 88.7683 209.39 88.895C209.066 89.0183 208.698 89.08 208.285 89.08C208.058 89.08 207.826 89.0567 207.59 89.01C207.356 88.9633 207.13 88.8983 206.91 88.815C206.69 88.7283 206.483 88.6267 206.29 88.51C206.096 88.3933 205.928 88.2633 205.785 88.12L206.285 87.33C206.325 87.2733 206.376 87.2267 206.44 87.19C206.506 87.15 206.578 87.13 206.655 87.13C206.755 87.13 206.855 87.1617 206.955 87.225C207.058 87.2883 207.173 87.3583 207.3 87.435C207.43 87.5117 207.578 87.5817 207.745 87.645C207.911 87.7083 208.108 87.74 208.335 87.74C208.641 87.74 208.88 87.6733 209.05 87.54C209.22 87.4033 209.305 87.1883 209.305 86.895C209.305 86.725 209.258 86.5867 209.165 86.48C209.071 86.3733 208.948 86.285 208.795 86.215C208.645 86.145 208.473 86.0833 208.28 86.03C208.086 85.9767 207.888 85.9183 207.685 85.855C207.481 85.7883 207.283 85.7083 207.09 85.615C206.896 85.5183 206.723 85.3933 206.57 85.24C206.42 85.0833 206.298 84.89 206.205 84.66C206.111 84.4267 206.065 84.14 206.065 83.8C206.065 83.5267 206.12 83.26 206.23 83C206.34 82.74 206.501 82.5083 206.715 82.305C206.928 82.1017 207.19 81.94 207.5 81.82C207.81 81.6967 208.165 81.635 208.565 81.635C208.788 81.635 209.005 81.6533 209.215 81.69C209.428 81.7233 209.63 81.775 209.82 81.845C210.01 81.9117 210.186 81.9933 210.35 82.09C210.516 82.1833 210.665 82.29 210.795 82.41L210.375 83.195Z" fill="white"/>
<path d="M89.0607 111.061C89.6464 110.475 89.6464 109.525 89.0607 108.939L79.5147 99.3934C78.9289 98.8076 77.9792 98.8076 77.3934 99.3934C76.8076 99.9792 76.8076 100.929 77.3934 101.515L85.8787 110L77.3934 118.485C76.8076 119.071 76.8076 120.021 77.3934 120.607C77.9792 121.192 78.9289 121.192 79.5147 120.607L89.0607 111.061ZM61 110L61 111.5L88 111.5L88 110L88 108.5L61 108.5L61 110Z" fill="white"/>
<path d="M166.061 111.061C166.646 110.475 166.646 109.525 166.061 108.939L156.515 99.3934C155.929 98.8076 154.979 98.8076 154.393 99.3934C153.808 99.9792 153.808 100.929 154.393 101.515L162.879 110L154.393 118.485C153.808 119.071 153.808 120.021 154.393 120.607C154.979 121.192 155.929 121.192 156.515 120.607L166.061 111.061ZM138 110L138 111.5L165 111.5L165 110L165 108.5L138 108.5L138 110Z" fill="white"/>
<path d="M37 31H50.5L48.5 38H39.5L37 31Z" fill="#45933A"/>
<path d="M58.0503 54.4971C60.1006 62.8906 51.732 69.1034 44 69.1034C36.268 69.1034 30 62.8353 30 55.1034C33 48.6034 36.0503 39.997 44 41.1034C53.0503 39.9968 55.0503 47.9971 58.0503 54.4971Z" fill="#408736"/>
<path d="M45.48 60.6C46.58 60.42 47.13 59.8167 47.13 58.79C47.13 58.4033 47.0067 58.1 46.76 57.88C46.52 57.6533 46.2 57.4633 45.8 57.31L45.48 60.6ZM44.55 50.86C44.2433 50.9067 43.9833 50.9767 43.77 51.07C43.5633 51.1633 43.3933 51.2733 43.26 51.4C43.1333 51.5267 43.04 51.67 42.98 51.83C42.92 51.9833 42.89 52.1467 42.89 52.32C42.89 52.7133 43.0167 53.0333 43.27 53.28C43.5233 53.52 43.85 53.7233 44.25 53.89L44.55 50.86ZM46.08 54.49C46.4 54.5833 46.72 54.6867 47.04 54.8C47.36 54.9067 47.6667 55.0333 47.96 55.18C48.26 55.32 48.5367 55.4833 48.79 55.67C49.05 55.8567 49.2733 56.0767 49.46 56.33C49.6533 56.5833 49.8033 56.8733 49.91 57.2C50.0167 57.5267 50.07 57.9033 50.07 58.33C50.07 58.9633 49.9633 59.56 49.75 60.12C49.5367 60.6733 49.2233 61.1667 48.81 61.6C48.3967 62.0267 47.89 62.3767 47.29 62.65C46.69 62.9167 46.0033 63.08 45.23 63.14L45.11 64.38C45.0967 64.5667 45.0133 64.7333 44.86 64.88C44.7133 65.0333 44.5233 65.11 44.29 65.11H43.15L43.35 63.05C42.5833 62.9233 41.85 62.7033 41.15 62.39C40.4567 62.07 39.87 61.6867 39.39 61.24L40.35 59.85C40.43 59.7367 40.5367 59.6433 40.67 59.57C40.81 59.49 40.9567 59.45 41.11 59.45C41.27 59.45 41.4333 59.4933 41.6 59.58C41.7667 59.66 41.9467 59.76 42.14 59.88C42.34 59.9933 42.5567 60.1133 42.79 60.24C43.03 60.36 43.3 60.46 43.6 60.54L43.97 56.77C43.49 56.6367 43.01 56.48 42.53 56.3C42.0567 56.12 41.63 55.8767 41.25 55.57C40.87 55.2633 40.56 54.8733 40.32 54.4C40.0867 53.9267 39.97 53.3333 39.97 52.62C39.97 52.0933 40.0767 51.58 40.29 51.08C40.5033 50.58 40.8133 50.13 41.22 49.73C41.6333 49.33 42.14 49.0033 42.74 48.75C43.34 48.49 44.0267 48.34 44.8 48.3L44.91 47.19C44.9233 47.0033 45.0033 46.8367 45.15 46.69C45.3033 46.5367 45.4967 46.46 45.73 46.46H46.87L46.68 48.42C47.4 48.5533 48.0167 48.77 48.53 49.07C49.05 49.37 49.49 49.69 49.85 50.03L49.09 51.14C48.9767 51.3067 48.86 51.43 48.74 51.51C48.6267 51.5833 48.49 51.62 48.33 51.62C48.23 51.62 48.11 51.5967 47.97 51.55C47.8367 51.4967 47.69 51.4367 47.53 51.37C47.37 51.2967 47.1967 51.2233 47.01 51.15C46.83 51.07 46.6367 51 46.43 50.94L46.08 54.49Z" fill="#0A3B1B"/>
<line x1="185.5" y1="43" x2="185.5" y2="75" stroke="#FFC200"/>
<path d="M191.833 59.5C193.107 59.5 193.712 59.7036 194.028 60.0225C194.343 60.3404 194.5 60.9005 194.5 62C194.5 62.95 194.072 63.8324 193.389 64.5479C192.715 65.2535 191.816 65.7692 190.922 66.002C190.237 66.0126 189.578 66.1587 188.99 66.3311C188.685 66.4207 188.393 66.5195 188.125 66.6104C187.853 66.7025 187.611 66.7847 187.391 66.8506C187.169 66.9168 186.989 66.9599 186.845 66.9766C186.698 66.9935 186.627 66.9783 186.6 66.9678C186.592 66.9647 186.581 66.9637 186.562 66.9229C186.534 66.8644 186.5 66.7389 186.5 66.5C186.5 66.047 186.673 65.3751 187.009 64.5908C187.339 63.8187 187.809 62.9816 188.357 62.21C188.907 61.4364 189.525 60.7446 190.146 60.252C190.775 59.752 191.353 59.5001 191.833 59.5Z" fill="#FFC200" stroke="#FFC200"/>
<path d="M191.833 59.5C193.107 59.5 193.712 59.7036 194.028 60.0225C194.343 60.3404 194.5 60.9005 194.5 62C194.5 62.95 194.072 63.8324 193.389 64.5479C192.715 65.2535 191.816 65.7692 190.922 66.002C190.237 66.0126 189.578 66.1587 188.99 66.3311C188.685 66.4207 188.393 66.5195 188.125 66.6104C187.853 66.7025 187.611 66.7847 187.391 66.8506C187.169 66.9168 186.989 66.9599 186.845 66.9766C186.698 66.9935 186.627 66.9783 186.6 66.9678C186.592 66.9647 186.581 66.9637 186.562 66.9229C186.534 66.8644 186.5 66.7389 186.5 66.5C186.5 66.047 186.673 65.3751 187.009 64.5908C187.339 63.8187 187.809 62.9816 188.357 62.21C188.907 61.4364 189.525 60.7446 190.146 60.252C190.775 59.752 191.353 59.5001 191.833 59.5Z" fill="#FFC200" stroke="#FFC200"/>
<path d="M191.833 50.5C193.107 50.5 193.712 50.7036 194.028 51.0225C194.343 51.3404 194.5 51.9005 194.5 53C194.5 53.95 194.072 54.8324 193.389 55.5479C192.715 56.2535 191.816 56.7692 190.922 57.002C190.237 57.0126 189.578 57.1587 188.99 57.3311C188.685 57.4207 188.393 57.5195 188.125 57.6104C187.853 57.7025 187.611 57.7847 187.391 57.8506C187.169 57.9168 186.989 57.9599 186.845 57.9766C186.698 57.9935 186.627 57.9783 186.6 57.9678C186.592 57.9647 186.581 57.9637 186.562 57.9229C186.534 57.8644 186.5 57.7389 186.5 57.5C186.5 57.047 186.673 56.3751 187.009 55.5908C187.339 54.8187 187.809 53.9816 188.357 53.21C188.907 52.4364 189.525 51.7446 190.146 51.252C190.775 50.752 191.353 50.5001 191.833 50.5Z" fill="#FFC200" stroke="#FFC200"/>
<path d="M175.115 62.6811C174.863 61.4322 174.944 60.7989 175.194 60.4259C175.443 60.0541 175.961 59.7901 177.039 59.5731C177.971 59.3855 178.92 59.6314 179.756 60.1595C180.581 60.6805 181.264 61.4601 181.669 62.2907C181.814 62.9599 182.088 63.5774 182.373 64.1194C182.521 64.4012 182.676 64.6678 182.817 64.9124C182.961 65.1607 183.09 65.3814 183.198 65.5849C183.307 65.7894 183.384 65.9571 183.429 66.0952C183.475 66.2362 183.474 66.3086 183.469 66.3372C183.467 66.3457 183.469 66.3565 183.432 66.3834C183.381 66.422 183.264 66.4801 183.03 66.5272C182.586 66.6167 181.893 66.5798 181.058 66.4054C180.236 66.2336 179.322 65.9387 178.458 65.5533C177.591 65.167 176.791 64.6979 176.185 64.187C175.571 63.6684 175.21 63.152 175.115 62.6811Z" fill="#FFC200" stroke="#FFC200"/>
<path d="M175.115 53.6811C174.863 52.4322 174.944 51.7989 175.194 51.4259C175.443 51.0541 175.961 50.7901 177.039 50.5731C177.971 50.3855 178.92 50.6314 179.756 51.1595C180.581 51.6805 181.264 52.4601 181.669 53.2907C181.814 53.9599 182.088 54.5774 182.373 55.1194C182.521 55.4012 182.676 55.6678 182.817 55.9124C182.961 56.1607 183.09 56.3814 183.198 56.5849C183.307 56.7894 183.384 56.9571 183.429 57.0952C183.475 57.2362 183.474 57.3086 183.469 57.3372C183.467 57.3457 183.469 57.3565 183.432 57.3834C183.381 57.422 183.264 57.4801 183.03 57.5272C182.586 57.6167 181.893 57.5798 181.058 57.4054C180.236 57.2336 179.322 56.9387 178.458 56.5533C177.591 56.167 176.791 55.6979 176.185 55.187C175.571 54.6684 175.21 54.152 175.115 53.6811Z" fill="#FFC200" stroke="#FFC200"/>
<path d="M175.115 44.6811C174.864 43.4322 174.944 42.7989 175.194 42.4259C175.444 42.0541 175.962 41.7901 177.04 41.5731C177.971 41.3855 178.921 41.6314 179.757 42.1595C180.582 42.6805 181.265 43.4601 181.669 44.2907C181.815 44.9599 182.088 45.5774 182.373 46.1194C182.521 46.4012 182.676 46.6678 182.818 46.9124C182.962 47.1607 183.09 47.3814 183.198 47.5849C183.307 47.7894 183.385 47.9571 183.43 48.0952C183.475 48.2362 183.474 48.3086 183.469 48.3372C183.468 48.3457 183.469 48.3565 183.433 48.3834C183.381 48.422 183.265 48.4801 183.031 48.5272C182.586 48.6167 181.894 48.5798 181.058 48.4054C180.236 48.2336 179.323 47.9387 178.458 47.5533C177.591 47.167 176.791 46.6979 176.186 46.187C175.571 45.6684 175.21 45.152 175.115 44.6811Z" fill="#FFC200" stroke="#FFC200"/>
</svg>
