<svg width="190" height="160" viewBox="0 0 190 160" fill="none" xmlns="http://www.w3.org/2000/svg">
<rect x="71.1733" y="18.9792" width="111.504" height="97.2697" fill="#4E4E4E"/>
<rect x="73.5454" y="21.3518" width="106.759" height="92.5249" fill="#F5F5F5"/>
<mask id="mask0_4032_434" style="mask-type:alpha" maskUnits="userSpaceOnUse" x="73" y="0" width="126" height="114">
<rect x="73.5454" width="124.79" height="113.877" fill="white"/>
</mask>
<g mask="url(#mask0_4032_434)">
<path d="M72.5155 113.43L116.322 57.8748L138.419 78.8595L174.339 23.6853" stroke="#2183BA" stroke-width="14.2346" stroke-miterlimit="3.8637"/>
<path d="M189.789 3.70607L189.799 43.8431L150.881 13.5627L189.789 3.70607Z" fill="#2183BA"/>
</g>
<rect x="104.387" y="90.1523" width="4.74487" height="16.607" fill="#212121"/>
<rect x="104.387" y="92.0503" width="4.27038" height="47.4486" rx="1.42346" transform="rotate(-90 104.387 92.0503)" fill="#212121"/>
<rect x="147.565" y="90.1523" width="4.27038" height="16.607" fill="#212121"/>
<rect x="149.463" y="153.259" width="14.2346" height="4.27038" fill="#212121"/>
<rect x="92.5251" y="153.259" width="14.2346" height="4.27038" fill="#212121"/>
<rect x="83.0347" y="102.015" width="90.1524" height="52.1935" rx="5.69384" fill="#002642"/>
<rect x="7.11743" y="144.719" width="4.74487" height="6.16832" fill="#4E4E4E"/>
<rect x="52.1934" y="144.719" width="4.74487" height="6.16832" fill="#4E4E4E"/>
<rect y="47.4487" width="64.0557" height="97.2697" rx="5.69384" fill="#134E78"/>
<circle cx="54.3285" cy="153.496" r="5.93108" fill="#212121"/>
<circle cx="9.25261" cy="153.496" r="5.93108" fill="#212121"/>
<rect x="15.1838" y="11.8623" width="4.74487" height="35.5865" fill="#4E4E4E"/>
<rect x="44.127" y="11.8623" width="4.27038" height="35.5865" fill="#4E4E4E"/>
<rect x="11.8623" y="7.11743" width="39.8569" height="7.1173" rx="0.948973" fill="#134E78"/>
<path d="M11.8623 61.2086C11.8623 59.8984 12.9245 58.8362 14.2347 58.8362H21.8265C23.1368 58.8362 24.199 59.8984 24.199 61.2086V130.484C24.199 131.794 23.1368 132.856 21.8265 132.856H14.2347C12.9245 132.856 11.8623 131.794 11.8623 130.484V61.2086Z" fill="#185F92"/>
<rect x="39.8572" y="58.8362" width="12.3366" height="74.0199" rx="2.37243" fill="#185F92"/>
</svg>
