<svg width="203" height="219" viewBox="0 0 203 219" fill="none" xmlns="http://www.w3.org/2000/svg">
<rect x="79.5704" y="38.9905" width="3.77202" height="22.6321" fill="#212121"/>
<g clip-path="url(#clip0_4032_510)">
<path d="M126.195 8.40552H124.021H94.1747C94.1938 8.40552 94.2224 8.40552 94.2414 8.41469L99.3334 9.90933C99.5432 9.97352 99.5432 10.2578 99.3334 10.322L94.9185 11.6149C94.7087 11.6791 94.7087 11.9633 94.9185 12.0275L99.3334 13.3296C99.5432 13.3938 99.5432 13.678 99.3334 13.7422L94.9185 15.0351C94.7087 15.0993 94.7087 15.3836 94.9185 15.4478L99.3334 16.7499C99.5432 16.814 99.5432 17.0983 99.3334 17.1625L94.9185 18.4554C94.7087 18.5196 94.7087 18.8038 94.9185 18.868L99.3334 20.1609C99.5432 20.2251 99.5432 20.5094 99.3334 20.5736L94.9185 21.8757C94.7087 21.9398 94.7087 22.2241 94.9185 22.2883L99.3334 23.5812C99.5432 23.6454 99.5432 23.9297 99.3334 23.9938L94.9185 25.2959C94.7087 25.3601 94.7087 25.6444 94.9185 25.7086L99.3334 27.0015C99.5432 27.0657 99.5432 27.3499 99.3334 27.4141L94.9185 28.7162C94.7087 28.7804 94.7087 29.0646 94.9185 29.1288L99.3334 30.4217C99.5432 30.4859 99.5432 30.7702 99.3334 30.8344L94.9185 32.1364C94.7087 32.2006 94.7087 32.4849 94.9185 32.5491L99.3334 33.842C99.5432 33.9062 99.5432 34.1904 99.3334 34.2546L94.9185 35.5475C94.7087 35.6117 94.7087 35.896 94.9185 35.9602L99.3334 37.2623C99.5432 37.3264 99.5432 37.6107 99.3334 37.6749L94.2414 39.1695C94.2224 39.1787 94.1938 39.1787 94.1747 39.1787H124.021H126.195H127.034V38.3718V9.22161V8.40552H126.195Z" fill="#8D1B3D"/>
<path d="M100.122 37.8501C100.327 37.7852 100.327 37.4974 100.122 37.4324L95.8244 36.1143C95.6202 36.0493 95.6202 35.7615 95.8244 35.6966L100.122 34.3877C100.327 34.3227 100.327 34.035 100.122 33.97L95.8244 32.6611C95.6202 32.5961 95.6202 32.3084 95.8244 32.2434L100.122 30.9252C100.327 30.8603 100.327 30.5725 100.122 30.5075L95.8244 29.1894C95.6202 29.1244 95.6202 28.8366 95.8244 28.7717L100.122 27.4535C100.327 27.3885 100.327 27.1008 100.122 27.0358L95.8244 25.7269C95.6202 25.662 95.6202 25.3742 95.8244 25.3092L100.122 23.9911C100.327 23.9261 100.327 23.6383 100.122 23.5733L95.8244 22.2645C95.6202 22.1995 95.6202 21.9117 95.8244 21.8468L100.122 20.5286C100.327 20.4636 100.327 20.1759 100.122 20.1109L95.8244 18.7928C95.6202 18.7278 95.6202 18.44 95.8244 18.375L100.122 17.0662C100.327 17.0012 100.327 16.7134 100.122 16.6484L95.8244 15.3303C95.6202 15.2653 95.6202 14.9776 95.8244 14.9126L100.122 13.6037C100.327 13.5387 100.327 13.251 100.122 13.186L95.8244 11.8679C95.6202 11.8029 95.6202 11.5151 95.8244 11.4501L100.122 10.1413C100.327 10.0763 100.327 9.78853 100.122 9.72355L95.2178 8.40552H94.957H87.9157H80.3528H79.5704V9.01806V38.5649V39.1787H80.3528H87.9157H95.2178C95.1992 39.188 95.3259 39.2364 95.2178 39.1787L100.122 37.8501Z" fill="#F5F5F5"/>
</g>
<rect x="79.5183" y="8.35336" width="47.568" height="30.8775" stroke="#212121" stroke-width="0.104316"/>
<rect x="25.075" y="68.7524" width="3.77202" height="22.6321" transform="rotate(-30 25.075 68.7524)" fill="#212121"/>
<g clip-path="url(#clip1_4032_510)">
<path d="M25.1081 68.7569L9.61735 41.8044L50.7346 18.1725L66.2254 45.125L25.1081 68.7569Z" fill="#006C35" stroke="#212121" stroke-width="0.103231"/>
<path d="M23.3432 46.0616C23.6747 46.4707 24.0189 46.4549 24.2511 46.3C24.5189 46.114 24.617 45.7257 24.4597 45.4521L23.5762 43.9149C23.53 43.8344 23.562 43.741 23.6344 43.6994C23.7068 43.6578 23.8082 43.6851 23.8498 43.7576L24.738 45.3028C24.8444 45.4879 25.0347 45.6141 25.2558 45.6262C25.3893 45.6351 25.5125 45.6072 25.6251 45.5424C25.6976 45.5008 25.7608 45.4431 25.8113 45.3819L25.9157 45.2469C26.6765 46.5334 27.2483 47.7145 27.2575 47.7306C27.3374 47.8881 27.5287 47.9602 27.6862 47.8804C27.6943 47.8757 27.7023 47.8711 27.7104 47.8665C27.8552 47.7832 27.9112 47.6012 27.844 47.447C27.8012 47.3539 27.1727 46.0555 26.3496 44.6978L26.4196 44.6147C26.4735 44.5409 26.5667 44.4981 26.6496 44.4932C27.0433 44.4704 27.3811 44.2013 27.4872 43.8084L27.5078 43.7323C27.6036 43.3775 27.4944 43.0012 27.214 42.7555L26.5609 42.178C26.7128 42.1442 26.8253 42.0046 26.8076 41.8435C26.8014 41.665 26.6479 41.5284 26.4614 41.5392L25.7362 41.5813C25.6038 41.5932 25.4923 41.6787 25.4535 41.7974C25.4066 41.9207 25.4437 42.0599 25.5441 42.1414L26.7719 43.2345C26.8643 43.3206 26.9002 43.4391 26.8741 43.5612L26.8535 43.6373C26.8227 43.7513 26.7193 43.8322 26.6076 43.8428C26.3717 43.8607 26.1612 43.9602 25.9958 44.1195C25.4375 43.2412 24.8275 42.4034 24.262 41.904C24.1305 41.7868 23.9233 41.7989 23.8061 41.9304C23.689 42.062 23.7011 42.2692 23.8326 42.3863C24.3807 42.8743 25.0012 43.749 25.5607 44.6479L25.3013 44.979L24.4132 43.4338C24.1912 43.0475 23.6969 42.914 23.3106 43.136C22.9243 43.3581 22.7908 43.8523 23.0128 44.2386L23.7899 45.5907L22.6907 44.3488C22.5706 44.2144 22.3703 44.2011 22.2359 44.3212C22.1014 44.4413 22.0881 44.6416 22.2082 44.7761L23.3432 46.0616Z" fill="white"/>
<path d="M22.5271 43.3936C22.6801 43.3057 22.7348 43.1029 22.6469 42.95L22.485 42.6683C22.3972 42.5154 22.1944 42.4607 22.0415 42.5486C21.8885 42.6364 21.8338 42.8392 21.9217 42.9921L22.0836 43.2738C22.1841 43.4302 22.3742 43.4815 22.5271 43.3936Z" fill="white"/>
<path d="M25.1707 41.5104L25.4524 41.3485C25.6053 41.2606 25.66 41.0578 25.5721 40.9049C25.4843 40.752 25.2815 40.6972 25.1286 40.7851L24.8469 40.947C24.694 41.0349 24.6392 41.2377 24.7271 41.3906C24.815 41.5435 25.0178 41.5983 25.1707 41.5104Z" fill="white"/>
<path d="M25.4657 46.2336L24.5464 47.8755C24.4639 48.03 24.5128 48.2268 24.6719 48.3173C24.7791 48.3735 24.8954 48.3709 24.992 48.3154C25.0402 48.2876 25.0793 48.2438 25.1137 48.1919L26.033 46.55C26.1155 46.3955 26.0667 46.1987 25.9076 46.1082C25.7484 46.0176 25.5483 46.0791 25.4657 46.2336Z" fill="white"/>
<path d="M29.5224 44.5551C29.6055 44.6252 29.7013 44.6986 29.8073 44.734C29.9986 44.8061 30.2046 44.7733 30.3885 44.6462C30.6529 44.4729 30.764 44.2377 30.7922 44.0073C30.8176 44.0142 30.8463 44.0084 30.867 44.0072C31.0616 43.9917 31.2387 43.8899 31.3487 43.7089C31.6504 43.2464 31.4475 42.6885 31.2834 42.4402C31.1875 42.2919 30.9939 42.2533 30.841 42.3412C30.6927 42.4371 30.646 42.6353 30.7419 42.7835C30.7419 42.7835 30.9443 43.1169 30.8124 43.3533C30.7525 43.3235 30.6521 43.242 30.5898 43.1708C30.4824 43.0398 30.2981 43.0172 30.1578 43.1085C30.0176 43.1999 29.9789 43.3934 30.0622 43.5383C30.0853 43.5785 30.2854 43.9453 30.0176 44.1313C29.9623 44.1096 29.8513 43.9164 29.8048 43.7611C29.7642 43.6346 29.6546 43.537 29.521 43.5281C29.3874 43.5192 29.2667 43.5886 29.2071 43.7085L29.1144 43.901C28.1075 42.3169 26.8515 40.5227 26.8296 40.5032C26.7256 40.3595 26.524 40.3255 26.3804 40.4295C26.2367 40.5335 26.2026 40.735 26.2986 40.8833C26.3125 40.9075 27.7718 42.9809 28.7903 44.6226C28.7835 44.6479 28.7766 44.6733 28.7732 44.686C28.4986 44.469 28.1796 44.4169 27.884 44.5546C27.4631 44.7537 27.1892 45.2644 27.2549 45.7513C27.3077 46.1599 27.5859 46.439 27.9532 46.4634C28.2204 46.4812 28.5206 46.3515 28.8134 46.0226C28.9006 46.3793 28.9201 46.7857 28.8496 47.1474C28.7894 47.4711 28.6189 47.901 28.2199 48.1196C27.9819 48.2457 27.7586 48.267 27.5385 48.2008C27.013 48.0317 26.6671 47.374 26.6625 47.3659C26.5826 47.2084 26.3833 47.1409 26.2257 47.2208C26.0636 47.2926 26.0008 47.5 26.0806 47.6575C26.0991 47.6897 26.5446 48.5579 27.3327 48.8115C27.7142 48.9349 28.1194 48.8948 28.5069 48.6935C28.523 48.6842 28.5471 48.6703 28.5632 48.6611C29.03 48.3928 29.3546 47.8957 29.4762 47.2691C29.5876 46.6804 29.5111 46.0071 29.2967 45.4664C29.8472 46.4242 29.8876 47.8357 29.3959 48.75C29.1896 49.1362 28.789 49.6127 28.0556 49.6595C27.1565 49.7158 26.7745 48.8647 26.7559 48.8325C26.6842 48.6704 26.5009 48.5937 26.3341 48.6574C26.1719 48.7292 26.0952 48.9125 26.159 49.0793C26.1787 49.1322 26.7218 50.3939 28.0929 50.3018C28.4452 50.2814 28.7719 50.1792 29.0536 50.0173C29.4238 49.8046 29.7293 49.4791 29.9585 49.0583C30.5591 47.9422 30.5135 46.2982 29.8474 45.1392C29.7664 44.961 29.6507 44.7598 29.5224 44.5551ZM27.9988 45.8162C27.932 45.8118 27.9121 45.6841 27.9063 45.6553C27.8794 45.478 27.9905 45.2429 28.1434 45.155C28.1515 45.1504 28.1595 45.1457 28.1676 45.1411C28.1997 45.1226 28.3056 45.0832 28.4661 45.2693C28.488 45.2888 28.5019 45.313 28.5158 45.3371C28.3036 45.6946 28.099 45.8229 27.9988 45.8162Z" fill="white"/>
<path d="M26.5576 50.0708C26.3826 50.0643 26.2333 50.2144 26.2268 50.3894C26.2246 50.4228 26.2224 50.4562 26.2155 50.4815C26.2109 50.4735 26.1982 50.4701 26.1936 50.462C25.8925 50.2175 25.7081 49.6918 25.6558 49.5077C25.6082 49.3316 25.4317 49.2296 25.2557 49.2773C25.0796 49.3249 24.9776 49.5013 25.0253 49.6774C25.0427 49.7637 25.2669 50.5449 25.7734 50.9605C26.1011 51.2325 26.3405 51.202 26.4946 51.1348C26.5107 51.1256 26.5188 51.1209 26.5349 51.1117C26.8326 50.9405 26.8581 50.5191 26.8589 50.3901C26.8781 50.2185 26.7326 50.0772 26.5576 50.0708Z" fill="white"/>
<path d="M28.8058 42.0228C28.8702 41.9858 28.9172 41.9373 28.9424 41.8693L29.7125 39.9492C29.7193 39.9238 29.7262 39.8985 29.7284 39.8651C29.8602 39.6287 29.8675 39.3247 29.7241 39.0752C29.5021 38.6889 29.0078 38.5555 28.6215 38.7775C28.2352 38.9995 28.1017 39.4938 28.3237 39.8801C28.4486 40.0974 28.6562 40.2351 28.8912 40.2713L28.3419 41.6256C28.2767 41.7915 28.3543 41.9825 28.5203 42.0477C28.6263 42.0831 28.7253 42.0691 28.8058 42.0228ZM28.9534 39.3362C29.0338 39.29 29.1272 39.322 29.1688 39.3944C29.2104 39.4668 29.1831 39.5682 29.1106 39.6099C29.0382 39.6515 28.9368 39.6241 28.8952 39.5517C28.8535 39.4793 28.8809 39.3779 28.9534 39.3362Z" fill="white"/>
<path d="M29.5949 41.2161C29.4222 41.251 29.3075 41.424 29.3425 41.5966C29.3612 41.7037 29.4927 42.2491 29.9316 42.3609C30.0964 42.4053 30.2736 42.3784 30.4427 42.2813C30.5553 42.2165 30.6702 42.1184 30.7873 41.9868C30.9044 41.8553 30.8924 41.648 30.7609 41.5309C30.6293 41.4138 30.4221 41.4259 30.305 41.5574C30.1798 41.6936 30.1028 41.7272 30.1074 41.7352C30.0682 41.7042 30.0022 41.5708 29.9835 41.4638C29.9405 41.2958 29.7675 41.1811 29.5949 41.2161Z" fill="white"/>
<path d="M32.1318 38.216C32.1606 38.2102 32.1928 38.1917 32.2169 38.1778C32.3377 38.1084 32.4041 37.9632 32.3669 37.824L32.204 37.1681C32.161 37.0001 31.988 36.8854 31.812 36.933C31.6359 36.9807 31.5293 37.149 31.5769 37.3251L31.7398 37.981C31.7874 38.157 31.9638 38.259 32.1318 38.216Z" fill="white"/>
<path d="M30.4795 39.1229C30.5416 39.1193 30.5992 39.1076 30.6475 39.0799C30.744 39.0244 30.8129 38.9206 30.8103 38.8043C30.8121 38.6212 30.6667 38.48 30.4917 38.4735C30.4168 38.4737 30.3694 38.3725 30.3601 38.3564C30.3265 38.2793 30.3159 38.1676 30.3825 38.0972C30.4996 37.9657 30.5002 37.7619 30.3641 37.6367C30.2325 37.5196 30.0287 37.519 29.9036 37.6552C29.6728 37.9056 29.6196 38.2788 29.7678 38.6112C29.8987 38.9321 30.1755 39.1156 30.4795 39.1229Z" fill="white"/>
<path d="M30.8671 44.9387C30.7142 45.0266 30.6595 45.2294 30.7473 45.3823C30.826 45.5191 30.9873 45.5763 31.13 45.5264C31.1599 45.5413 31.2418 45.5906 31.3482 45.7757C31.4361 45.9286 31.6389 45.9834 31.7918 45.8955C31.9447 45.8076 31.9995 45.6048 31.9116 45.4519C31.4351 44.6229 30.8913 44.9248 30.8671 44.9387Z" fill="white"/>
<path d="M34.9575 41.0461C34.9943 41.0356 35.0345 41.0125 35.0667 40.994C35.284 40.8691 35.4446 40.6269 35.537 40.2847C35.5849 40.1073 35.4832 39.9302 35.3104 39.8903C35.1375 39.8505 34.9559 39.9442 34.916 40.117C34.8441 40.3832 34.7556 40.434 34.7314 40.4479C34.6705 40.4722 34.5806 40.4276 34.5633 40.4161C34.4122 40.3209 34.2188 40.3571 34.1237 40.5082C34.0285 40.6592 34.0646 40.8526 34.2123 40.9604C34.2423 40.9753 34.579 41.1886 34.9575 41.0461Z" fill="white"/>
<path d="M38.5807 36.3404C38.5761 36.3323 38.5761 36.3323 38.5634 36.3289C38.4318 36.2118 38.2246 36.2238 38.1075 36.3554C37.9904 36.4869 38.0024 36.6941 38.134 36.8113C38.1951 36.8618 38.5055 37.1224 38.8425 36.9822C38.8666 36.9683 38.8874 36.9671 38.9115 36.9532C39.1047 36.8422 39.2158 36.6071 39.238 36.2731C39.2525 36.0935 39.1105 35.9395 38.9354 35.9331C38.7558 35.9185 38.6019 36.0605 38.5954 36.2356C38.5978 36.277 38.5875 36.315 38.5807 36.3404Z" fill="white"/>
<path d="M40.9569 41.7414C40.2723 40.5503 39.5684 39.4559 38.9316 38.5157C39.7238 38.9811 40.4838 39.4651 41.0607 39.9473C41.1657 40.0368 41.32 40.0445 41.4326 39.9797C41.4648 39.9612 41.4924 39.9347 41.52 39.9081C41.6325 39.7685 41.6124 39.5659 41.4728 39.4535C40.5775 38.7153 39.2941 37.954 38.0927 37.3168C37.0748 35.8997 36.3553 35.0391 36.3334 35.0196C36.2214 34.8806 36.0083 34.8638 35.882 34.9793C35.7429 35.0913 35.7342 35.2997 35.8416 35.4307C35.8509 35.4468 36.2216 35.8869 36.8027 36.6557C36.4003 36.4587 36.0372 36.2926 35.7375 36.1437L35.7582 36.1425C35.9308 36.1075 36.0455 35.9345 36.0106 35.7619C35.9756 35.5893 35.8026 35.4746 35.63 35.5095L34.6311 35.7089C34.4953 35.7334 34.3896 35.8477 34.3773 35.994C34.3751 36.0274 34.3775 36.0688 34.388 36.1056C34.1496 36.082 33.8721 36.1023 33.7218 36.3065C33.6288 36.4241 33.558 36.6362 33.743 36.9581C33.8864 37.2076 34.1356 37.4177 34.3941 37.6439C34.8234 38.0181 35.1269 38.3041 35.0504 38.5622C35.0047 38.7062 34.9266 38.7939 34.8208 38.8333C34.6286 38.8902 34.3174 38.7586 34.0105 38.4853C33.9932 38.4739 33.9805 38.4704 33.9632 38.459C33.7698 37.992 33.445 37.4827 32.9819 36.9565C32.8619 36.8221 32.6615 36.8088 32.5271 36.9289C32.3927 37.049 32.3793 37.2494 32.4994 37.3838C33.2119 38.1949 33.5811 38.9677 33.5017 39.463C33.4711 39.6519 33.3713 39.7949 33.1942 39.8967C33.1379 39.9291 33.0884 39.9361 33.0204 39.9109C32.6551 39.7783 32.1833 38.9574 31.9689 38.4167C31.9307 38.3316 31.8603 38.265 31.775 38.2284C31.6817 38.1964 31.5907 38.2058 31.5102 38.2521C31.0273 38.5296 31.1568 39.1833 31.2734 39.7587C31.3212 40.0096 31.4237 40.486 31.3503 40.5817C31.1812 40.6789 30.7818 40.2447 30.5875 39.9066C30.4996 39.7537 30.2968 39.699 30.1439 39.7868C29.991 39.8747 29.9362 40.0775 30.0241 40.2304C30.3942 40.8743 31.0463 41.5059 31.666 41.1497C32.1247 40.8861 32.0265 40.268 31.9111 39.7134C32.148 40.0697 32.4586 40.4051 32.7986 40.5309C33.0406 40.6167 33.2846 40.5942 33.5019 40.4693C33.848 40.2704 34.0671 39.9624 34.1284 39.5846C34.1409 39.5132 34.1453 39.4464 34.1451 39.3716C34.4402 39.5125 34.7293 39.5497 34.987 39.4765C35.0607 39.4556 35.1297 39.4267 35.2021 39.3851C35.4194 39.2602 35.5778 39.0514 35.6658 38.776C35.6875 38.7206 35.6885 38.6665 35.6976 38.6078C35.7793 38.5822 35.8529 38.5613 35.9253 38.5197C36.1507 38.3902 36.3171 38.1768 36.4031 38.0096C36.4856 37.8551 36.424 37.6549 36.2696 37.5724C36.1151 37.4899 35.9149 37.5514 35.8324 37.7059C35.8324 37.7059 35.704 37.9296 35.5647 37.9668C35.389 37.661 35.0866 37.3957 34.8282 37.1696C34.6793 37.041 34.5178 36.909 34.415 36.786C34.4484 36.7882 34.4864 36.7985 34.5118 36.8054C34.6892 36.8533 34.8663 36.7515 34.9061 36.5787C34.913 36.5533 34.9152 36.52 34.9094 36.4912C35.4304 36.7271 36.507 37.2218 37.6818 37.8314C38.4871 38.9531 39.4579 40.4187 40.4155 42.0847C40.5033 42.2376 40.7061 42.2924 40.859 42.2045C40.99 42.0971 41.0494 41.9024 40.9569 41.7414Z" fill="white"/>
<path d="M37.7 35.4227C37.7879 35.5756 37.9906 35.6303 38.1436 35.5425C38.2965 35.4546 38.3512 35.2518 38.2633 35.0989C38.0737 34.7689 37.5109 34.3857 37.4024 34.3089C37.2514 34.2137 37.058 34.2498 36.9502 34.3975C36.855 34.5486 36.8911 34.7419 37.0388 34.8498C37.251 34.9955 37.6167 35.2778 37.7 35.4227Z" fill="white"/>
<path d="M39.9774 42.3473C39.799 42.3535 39.6623 42.507 39.6685 42.6855C39.6687 42.7603 39.6574 42.8525 39.653 42.9192C39.5721 42.8158 39.4794 42.58 39.4294 42.3625C39.4002 42.2187 39.2653 42.1142 39.1236 42.11C38.974 42.1104 38.8464 42.2051 38.8007 42.3491L38.5611 43.2363C38.5132 43.4137 38.615 43.5908 38.7878 43.6307C38.9606 43.6705 39.1423 43.5768 39.1821 43.404L39.189 43.3787C39.2779 43.4775 39.3863 43.5543 39.513 43.5886C39.6778 43.633 39.839 43.6154 39.9677 43.5414C39.9919 43.5275 40.016 43.5136 40.0436 43.4871C40.3297 43.2584 40.3274 42.7886 40.3236 42.6516C40.3093 42.4778 40.1559 42.3411 39.9774 42.3473Z" fill="white"/>
<path d="M38.5776 40.1539L36.6058 41.2872C36.5802 41.2055 36.5593 41.1319 36.5464 41.0536C37.2427 40.4394 37.5614 39.9135 37.504 39.4969C37.4829 39.3484 37.397 39.0872 37.0385 38.9292C36.71 38.7861 36.3924 38.8295 36.1545 39.0305C35.8064 39.3376 35.6894 39.9723 35.8377 40.8078C35.1276 41.398 34.7825 41.9711 34.6225 42.4378C33.8483 41.3517 33.0171 40.93 32.9745 40.9117C32.8119 40.8338 32.6244 40.8988 32.5419 41.0533C32.464 41.2158 32.529 41.4033 32.6835 41.4858C32.6961 41.4893 33.6472 41.9705 34.3966 43.2743C35.1321 44.5539 34.6604 46.0991 34.0004 46.4784C33.6866 46.6588 33.337 46.3673 33.0875 46.0823C33.4724 45.2616 33.7385 44.402 33.5805 43.829C33.3563 43.0477 32.8603 42.669 32.5211 42.4143C32.5038 42.4028 32.4865 42.3913 32.4692 42.3798C32.4819 42.3833 32.4819 42.3833 32.4946 42.3867C32.672 42.4346 32.8491 42.3328 32.8889 42.16C32.9368 41.9826 32.8351 41.8055 32.6623 41.7657C32.4088 41.6972 31.9388 41.6247 31.7185 41.912C31.6255 42.0296 31.5547 42.2417 31.7397 42.5636C31.823 42.7085 31.9706 42.8163 32.1275 42.9403C32.4274 43.164 32.7885 43.4383 32.9546 44.0067C33.0533 44.3461 32.8946 44.9084 32.6199 45.5481C32.5346 45.5115 32.431 45.5175 32.3505 45.5637C32.1976 45.6516 32.1428 45.8544 32.2307 46.0073C32.2585 46.0556 32.2909 46.112 32.3313 46.1637C31.9578 46.8923 31.4818 47.6476 31.0928 48.1817C30.993 48.3247 31.0258 48.5307 31.1688 48.6305C31.2772 48.7074 31.4062 48.7082 31.5188 48.6435C31.5591 48.6204 31.5947 48.5892 31.6176 48.5546C31.737 48.3896 32.2785 47.618 32.7782 46.6991C33.2006 47.0987 33.7482 47.3622 34.3196 47.0338C34.9876 46.6498 35.4376 45.6631 35.4085 44.5878C35.5203 44.652 35.6275 44.7081 35.7462 44.747C36.9217 45.1528 38.3025 44.3699 38.3589 44.3375C38.5118 44.2496 38.5631 44.0595 38.4833 43.9019C38.4034 43.7444 38.2087 43.685 38.0592 43.7602C38.0592 43.7602 37.82 43.8656 37.616 43.7901C37.4927 43.7432 37.3911 43.641 37.3147 43.4708C37.148 43.1062 38.1106 42.2103 39.0833 41.6299C39.204 41.5605 39.2589 41.4326 39.2344 41.2968L39.0628 40.3462C39.0441 40.2391 38.9771 40.1598 38.8826 40.1071C38.7824 40.1005 38.6661 40.103 38.5776 40.1539ZM36.5783 39.5257C36.5864 39.521 36.5944 39.5164 36.6025 39.5118C36.6266 39.4979 36.6842 39.4862 36.7821 39.5263C36.7994 39.5378 36.8674 39.5629 36.8606 39.5883C36.8746 39.6873 36.7555 39.927 36.4225 40.2791C36.4006 39.8312 36.491 39.5973 36.5783 39.5257ZM37.0068 44.1831C36.6742 44.2565 36.2966 44.2701 35.9612 44.1523C35.5959 44.0197 35.3223 43.7486 35.1428 43.3058C35.1369 43.277 35.1299 43.2275 35.1297 43.1527C35.5056 42.8938 36.6478 42.4408 36.8914 42.697C36.6666 43.051 36.5593 43.4232 36.7167 43.7716C36.8058 43.9453 36.9052 44.0809 37.0068 44.1831Z" fill="white"/>
<path d="M39.315 34.3766L38.5523 33.7015C38.4253 33.5924 38.2423 33.5906 38.1239 33.7014C38.0056 33.8122 37.9831 33.9965 38.0778 34.1241C39.3811 35.9446 41.9081 39.503 42.1579 39.9376C42.3799 40.324 42.1272 41.4863 41.3357 42.68C41.2405 42.8311 41.2767 43.0244 41.4243 43.1323C41.5281 43.2011 41.6571 43.2019 41.7617 43.1418C41.802 43.1187 41.8456 43.0829 41.872 43.0356C42.6027 41.9411 43.1745 40.4026 42.7166 39.6058C42.4807 39.1953 40.4795 36.384 39.3564 34.8025C39.4574 34.6802 39.4339 34.4903 39.315 34.3766Z" fill="white"/>
<path d="M43.1015 35.5623C43.1902 35.5863 43.2765 35.5688 43.3489 35.5271C43.3972 35.4994 43.4409 35.4636 43.4626 35.4083C43.5383 35.2791 43.5126 35.1226 43.419 35.0158C43.2597 34.8504 43.1002 34.6101 43.0643 34.4916C43.2057 34.421 43.2824 34.2378 43.2152 34.0836C43.1515 33.9168 42.9636 33.8321 42.7934 33.9085C42.5944 33.9908 42.4658 34.1396 42.4225 34.3251C42.3963 34.4472 42.4082 34.5796 42.4488 34.7062L41.9418 34.5692C41.7644 34.5213 41.5873 34.6231 41.5475 34.7959C41.5076 34.9687 41.6013 35.1504 41.7741 35.1903L43.1015 35.5623Z" fill="white"/>
<path d="M43.8958 35.4912L43.2843 36.849C43.2064 37.0116 43.2841 37.2025 43.4466 37.2804C43.5446 37.3205 43.6528 37.3225 43.7413 37.2716C43.7977 37.2392 43.8448 37.1908 43.8699 37.1228L44.4814 35.7649C44.5593 35.6024 44.4816 35.4114 44.3191 35.3335C44.1692 35.2591 43.9737 35.3286 43.8958 35.4912Z" fill="white"/>
<path d="M44.4131 36.5964C44.3893 36.7599 44.4979 36.9116 44.65 36.9527C44.672 36.9722 44.7884 37.0445 44.9376 37.3227C45.0175 37.4803 45.2122 37.5397 45.3778 37.4552L45.3859 37.4506C45.5388 37.3627 45.5901 37.1726 45.5103 37.015C45.206 36.4297 44.8926 36.3315 44.7751 36.3134C44.5954 36.2988 44.4403 36.4201 44.4131 36.5964Z" fill="white"/>
<path d="M48.0359 37.2551C48.1888 37.1673 48.2435 36.9645 48.1557 36.8116C47.9197 36.4011 47.6273 35.9482 47.3222 35.4918C47.8676 35.7887 48.3334 36.0777 48.6853 36.3359C48.7937 36.4127 48.9273 36.4216 49.0399 36.3569C49.0802 36.3337 49.1078 36.3072 49.1387 36.268C49.2466 36.1203 49.2185 35.9223 49.0708 35.8145C48.471 35.3669 47.5382 34.8431 46.5237 34.3447C45.819 33.3793 45.104 32.4519 44.575 31.7924C44.6359 31.768 44.6911 31.7149 44.7289 31.6504C44.7851 31.5431 44.7698 31.4234 44.7062 31.3315C44.7282 31.351 44.7547 31.3786 44.7847 31.3935C44.7847 31.3935 45.1409 31.5849 45.2825 32.0174C45.3382 32.1888 45.518 32.2782 45.6894 32.2225C45.7055 32.2133 45.7343 32.2074 45.7504 32.1982C45.8792 32.1242 45.949 31.9663 45.8945 31.8156C45.6717 31.1299 45.1057 30.8342 45.0837 30.8147C44.9293 30.7322 44.7291 30.7937 44.6466 30.9482C44.5904 31.0554 44.6057 31.1751 44.6612 31.2717C44.6393 31.2522 44.6127 31.2246 44.5827 31.2097L43.6869 30.7503C43.5498 30.6792 43.3771 30.7142 43.2842 30.8319C43.1912 30.9495 43.1928 31.1199 43.2829 31.2395C43.2968 31.2636 44.2172 32.362 45.2614 33.7319C44.8684 33.551 44.4926 33.3815 44.1168 33.212C43.8395 32.804 43.5852 32.4362 43.3634 32.1247C43.3749 32.1074 43.3909 32.0981 43.4024 32.0808C43.4976 31.9298 43.4614 31.7364 43.3138 31.6286L42.7083 31.2271C42.5745 31.1434 42.4053 31.1657 42.2951 31.2719C42.1894 31.3861 42.1703 31.5577 42.265 31.6853C42.4915 32.0048 42.7365 32.3565 42.9987 32.7197C42.6875 32.5881 42.4017 32.4633 42.155 32.3695C42.1653 32.3315 42.1709 32.2854 42.1685 32.244C42.1623 32.0655 42.0089 31.9289 41.8224 31.9397L41.0971 31.9818C40.944 31.9949 40.8257 32.1057 40.7926 32.2532C40.7723 32.404 40.8556 32.5489 40.9962 32.6073C41.0215 32.6141 42.2132 33.0855 43.6725 33.7244C44.8813 35.4922 46.0834 37.3602 46.1778 37.8412C46.1953 37.9275 46.206 38.0392 46.1657 38.0623C46.0106 38.1836 45.3908 38.0366 44.9583 37.7499C44.7034 37.5859 44.5286 37.6542 44.432 37.7097C44.1435 37.897 44.2124 38.2963 44.342 39.0248C44.4389 39.5473 44.551 40.1895 44.4667 40.5271C44.2707 40.447 43.8495 40.0681 43.4869 39.6234C43.5872 39.7049 43.7301 39.7299 43.8508 39.6605C44.0037 39.5726 44.0585 39.3698 43.9706 39.2169C43.7301 38.7984 41.6132 35.7859 40.4404 34.1366C40.5449 34.0016 40.5294 33.807 40.4025 33.698L39.6397 33.0229C39.5128 32.9138 39.3297 32.9119 39.2114 33.0228C39.0931 33.1336 39.0705 33.3179 39.1652 33.4455C40.5056 35.3304 43.08 38.99 43.3933 39.5166C43.3887 39.5085 43.3887 39.5085 43.3841 39.5005C43.2721 39.3614 43.0751 39.3354 42.9314 39.4394C42.7924 39.5514 42.7664 39.7484 42.8704 39.8921C43.2793 40.4172 44.0529 41.2788 44.6283 41.1623C44.6778 41.1552 44.7307 41.1355 44.7951 41.0985C44.9078 41.0338 45.0214 40.9149 45.083 40.6868C45.2131 40.2052 45.0893 39.5054 44.9703 38.8886C44.9458 38.7528 44.9155 38.5882 44.8944 38.4397C45.3693 38.67 46.0883 38.8777 46.5159 38.5784C46.6722 38.4779 46.9111 38.2228 46.7969 37.6889C46.6908 37.1503 45.7336 35.634 44.7813 34.2006C45.2044 34.3964 45.6401 34.5957 46.0597 34.8042C46.6293 35.5903 47.1794 36.3983 47.5726 37.0824C47.6928 37.2917 47.883 37.343 48.0359 37.2551Z" fill="white"/>
<path d="M49.3222 34.5567C48.2699 33.1914 47.0156 31.6425 46.2326 30.6899C46.3223 30.6598 46.4016 30.5928 46.4382 30.5075C46.5034 30.3415 46.4258 30.1506 46.2679 30.0808L45.3769 29.7042C45.2363 29.6458 45.081 29.6923 44.988 29.8099C44.8951 29.9276 44.9047 30.0934 45.0028 30.2083C45.0294 30.2358 47.1797 32.8223 48.8085 34.9483C49.4334 35.7561 49.7097 36.6466 49.5571 37.3125C49.4614 37.7422 49.1813 38.0745 48.7489 38.2909C48.5914 38.3708 48.5193 38.5621 48.6038 38.7277C48.6882 38.8932 48.8749 38.9573 49.0405 38.8728C49.0888 38.845 49.1417 38.8253 49.182 38.8022C49.7131 38.4969 50.0609 38.0401 50.1942 37.471C50.3889 36.5989 50.0696 35.5404 49.3222 34.5567Z" fill="white"/>
<path d="M47.3036 38.1792C47.2637 38.352 47.3736 38.5245 47.5464 38.5643C47.5717 38.5712 47.6017 38.5861 47.6109 38.6022C47.6156 38.6102 47.6214 38.639 47.6077 38.6897C47.5598 38.8671 47.6615 39.0442 47.8344 39.084C47.9231 39.108 48.0094 39.0905 48.0818 39.0489C48.1542 39.0073 48.2128 38.9415 48.2368 38.8528C48.3121 38.5739 48.2425 38.3784 48.1731 38.2576C48.017 38.0047 47.7428 37.9375 47.6921 37.9238C47.5032 37.8932 47.3354 38.011 47.3036 38.1792Z" fill="white"/>
<path d="M49.8432 44.8891L49.5615 45.051L47.8794 46.0177L47.7175 45.736C47.6296 45.5831 47.4269 45.5284 47.2739 45.6162C47.121 45.7041 47.0663 45.9069 47.1542 46.0598L47.3161 46.3415L32.4832 54.8666C33.3704 55.1062 34.6464 54.7368 35.4834 54.2558C36.087 53.9089 43.604 49.5885 47.8052 47.1739L48.129 47.7373C48.2169 47.8902 48.4196 47.945 48.5726 47.8571L50.81 46.5711C51.2768 46.3029 51.4296 45.7118 51.1659 45.2531C50.8976 44.7863 50.31 44.6208 49.8432 44.8891ZM50.4862 46.0078L48.5224 47.1364L48.3605 46.8547C49.7126 46.0776 50.5979 45.5688 50.5979 45.5688L50.4617 45.4436C50.517 45.4654 50.5655 45.5125 50.5979 45.5688C50.6938 45.7171 50.6391 45.9199 50.4862 46.0078Z" fill="white"/>
</g>
<rect x="140.958" y="48.8606" width="3.77202" height="22.6321" transform="rotate(30 140.958 48.8606)" fill="#212121"/>
<circle cx="98.3473" cy="136.415" r="78.2369" fill="#002642"/>
<rect x="145.811" y="148.933" width="3.12948" height="36.5106" fill="#C7D9EA"/>
<path d="M142.16 105.121H147.376L149.462 116.726L149.984 128.331V151.541H144.768V128.331L144.246 116.726L142.16 105.121Z" fill="#6D7D8C"/>
<rect x="144.246" y="178.142" width="6.25895" height="7.30211" fill="#6D7D8C"/>
<path d="M146.241 100.224C153.449 124.377 144.246 140.588 144.246 140.588L120.695 98.814L118.22 90.5194L113.269 73.9301C113.269 73.9301 139.033 76.0712 146.241 100.224Z" fill="#C7D9EA"/>
<rect x="127.444" y="96.7627" width="17.383" height="80.323" transform="rotate(73.3835 127.444 96.7627)" fill="#C7D9EA"/>
<path d="M54.7954 149.716L87.9157 145.282L77.7449 185.444H41.4951L54.7954 149.716Z" fill="#C7D9EA"/>
<rect x="58.6411" y="132.764" width="5.21579" height="26.079" transform="rotate(9.05973 58.6411 132.764)" fill="#6D7D8C"/>
<path d="M61.0543 131.2L63.0102 131.724L64.4421 133.156L64.9661 135.112L64.4421 137.067L63.0102 138.499L61.0543 139.023L59.0984 138.499L57.6665 137.067L57.1425 135.112L57.6665 133.156L59.0984 131.724L61.0543 131.2Z" fill="#4D5965"/>
<path d="M56.3602 157.279L58.3161 157.803L59.748 159.234L60.2721 161.19L59.748 163.146L58.3161 164.578L56.3602 165.102L54.4043 164.578L52.9725 163.146L52.4484 161.19L52.9725 159.234L54.4043 157.803L56.3602 157.279Z" fill="#4D5965"/>
<rect x="55.0562" y="137.458" width="10.4316" height="3.65106" fill="#6D7D8C"/>
<mask id="mask0_4032_510" style="mask-type:alpha" maskUnits="userSpaceOnUse" x="73" y="116" width="45" height="70">
<rect x="73.3114" y="116.595" width="44.3342" height="68.8485" fill="#D9D9D9"/>
</mask>
<g mask="url(#mask0_4032_510)">
<rect width="4.14895" height="65.4715" transform="matrix(0.975465 0.220156 -0.26554 0.9641 93.1351 123.959)" fill="#6D7D8C"/>
<rect width="4.15202" height="65.4143" transform="matrix(0.972313 -0.233682 0.276086 0.961133 93.3362 125.18)" fill="#6D7D8C"/>
<path d="M90.7844 122.333H99.3905L103.042 135.372H87.3942L90.7844 122.333Z" fill="#C7D9EA"/>
<rect x="86.3508" y="153.106" width="17.7337" height="4.17264" fill="#6D7D8C"/>
</g>
<g clip-path="url(#clip2_4032_510)">
<rect width="47.5263" height="31.1891" transform="translate(156.594 21.9065) rotate(30)" fill="white"/>
<path d="M169.368 29.2814L156.594 21.9065L141 48.9171L153.774 56.292L169.368 29.2814Z" fill="#FF0000"/>
<path d="M197.753 45.6697L169.368 29.2815L164.17 38.285L192.555 54.6732L197.753 45.6697Z" fill="#00732F"/>
<path d="M192.555 54.6731L164.17 38.2849L158.972 47.2884L187.357 63.6767L192.555 54.6731Z" fill="white"/>
<path d="M187.357 63.6766L158.972 47.2883L153.773 56.2919L182.159 72.6801L187.357 63.6766Z" fill="#212121"/>
</g>
<rect x="156.562" y="21.8541" width="47.6356" height="31.2472" transform="rotate(30 156.562 21.8541)" stroke="#212121" stroke-width="0.109256"/>
<defs>
<clipPath id="clip0_4032_510">
<rect width="47.4637" height="39.64" fill="white" transform="translate(79.5704 0.0603027)"/>
</clipPath>
<clipPath id="clip1_4032_510">
<rect width="47.5279" height="47.5279" fill="white" transform="translate(5.4624 34.6787) rotate(-29.8879)"/>
</clipPath>
<clipPath id="clip2_4032_510">
<rect width="47.5263" height="47.5263" fill="white" transform="translate(160.679 14.832) rotate(30)"/>
</clipPath>
</defs>
</svg>
