<svg width="229" height="119" viewBox="0 0 229 119" fill="none" xmlns="http://www.w3.org/2000/svg">
<path d="M101.702 25.3115L25.6068 22.8958V85.9464L101.702 97.7835V25.3115Z" fill="#134E78"/>
<ellipse cx="44.6911" cy="56.3537" rx="26.0899" ry="33.9411" fill="#134E78"/>
<ellipse cx="69.9356" cy="58.5278" rx="27.4186" ry="35.6321" fill="#134E78"/>
<ellipse cx="25.6068" cy="54.4212" rx="25.6068" ry="32.7332" fill="#134E78"/>
<ellipse cx="101.582" cy="61.5476" rx="30.3175" ry="37.927" fill="#134E78"/>
<ellipse cx="101.702" cy="61.5475" rx="27.781" ry="36.236" fill="#002642"/>
<ellipse cx="25.6068" cy="54.4211" rx="24.1573" ry="31.5253" fill="#134E78"/>
<ellipse cx="103.635" cy="38.2356" rx="2.65731" ry="3.26124" fill="#134E78"/>
<ellipse cx="103.393" cy="38.115" rx="1.93259" ry="2.41573" fill="#F5F5F5"/>
<ellipse cx="103.635" cy="83.4099" rx="3.86518" ry="4.71068" fill="#134E78"/>
<path d="M103.635 78.6992H105.568V88.1206H103.635V78.6992Z" fill="#134E78"/>
<ellipse cx="105.568" cy="83.4099" rx="3.86518" ry="4.71068" fill="#F5F5F5"/>
<ellipse cx="105.886" cy="83.2798" rx="3.14512" ry="3.93139" fill="#C7D9EA"/>
<mask id="mask0_4032_674" style="mask-type:alpha" maskUnits="userSpaceOnUse" x="102" y="79" width="8" height="9">
<ellipse cx="105.886" cy="83.2798" rx="3.14512" ry="3.93139" fill="#C7D9EA"/>
</mask>
<g mask="url(#mask0_4032_674)">
<path d="M102.645 84.1329C102.647 84.211 102.652 84.4191 102.657 84.4799C102.668 84.6057 102.774 84.9498 102.843 85.1043C102.983 85.4138 103.476 86.099 103.788 86.4049C104.072 86.6804 104.114 86.7433 104.36 86.9128C104.556 87.0479 104.782 87.1676 104.893 87.2082C104.918 87.2171 104.957 87.2314 105.01 87.2517C105.023 88.9346 105.054 92.9962 105.072 95.3756C105.078 96.217 105.087 97.3721 105.09 97.6852C104.23 97.9136 98.7952 99.2434 98.0034 99.3866C97.1418 99.5458 95.4144 99.8839 94.5492 100.062C92.8349 100.445 89.4463 101.241 87.5011 101.685C84.9748 102.245 82.3744 102.841 80.6589 103.225C80.5581 103.249 80.4071 103.322 80.4053 103.372C80.4065 103.43 80.5897 103.531 80.7275 103.567C81.0927 103.658 81.6626 103.687 82.3058 103.702C84.2277 103.748 88.0053 103.809 89.8604 103.825C91.8379 103.802 95.5904 103.749 97.3656 103.72C99.2475 103.712 102.622 103.711 102.929 103.734C103.225 103.757 104.095 103.891 104.572 103.975C105.246 104.108 105.8 104.237 106.456 104.417C106.969 104.56 107.615 104.7 108.076 104.74C108.618 104.788 109.576 105.004 110.98 105.37C111.174 105.423 111.477 105.562 111.62 105.658C111.752 105.749 111.958 105.993 111.956 106.085C111.949 106.206 111.766 106.312 111.53 106.398C110.662 106.719 109.466 107.109 108.594 107.434C107.92 107.697 105.892 108.252 105.094 108.468C102.988 109.019 99.0357 110.043 97.1908 110.515C96.6597 110.646 96.0827 110.813 95.8106 110.932C95.6262 111.013 94.3804 111.707 94.1375 111.897C94.0426 111.972 94.008 112.103 94.0462 112.174C94.0916 112.247 94.7139 112.504 95.0952 112.606C95.9628 112.833 98.4689 113.096 99.3048 113.177C101.509 113.357 105.686 113.683 107.659 113.83C108.817 113.916 108.969 113.916 109.007 113.914C109.746 113.97 111.571 114.093 112.656 114.161C113.557 114.195 115.402 114.252 116.383 114.256C117.404 114.237 119.343 114.149 120.346 114.08C121.296 114.006 123.188 113.866 124.13 113.799C125.426 113.728 129.515 113.635 131.356 113.604C132.236 113.575 133.994 113.496 134.873 113.446C135.796 113.375 137.67 113.246 138.621 113.186C140.45 113.103 144.037 112.932 145.796 112.844C147.165 112.821 150.885 112.796 153.235 112.793C155.151 112.801 159.388 112.821 161.711 112.835C163.549 112.845 166.001 112.86 166.615 112.864C166.654 112.845 166.681 112.835 166.698 112.832C166.699 112.832 167.511 112.832 167.828 112.833C168.675 112.836 170.59 112.831 171.66 112.823C174.107 112.746 177.842 112.542 179.744 112.426C181.756 112.29 185.646 112.055 187.524 111.957C189.665 111.88 193.423 111.817 195.208 111.795C197.066 111.743 200.788 111.602 202.654 111.514C204.541 111.428 208.834 111.237 210.188 111.114C210.755 111.053 211.666 110.92 212.205 110.826C212.978 110.674 215.406 110.079 215.637 110.006C215.832 109.944 215.965 109.887 216.002 109.83C216.046 109.755 216.04 109.619 215.998 109.543C215.976 109.505 215.738 109.11 215.634 108.975C215.489 108.791 215.088 108.456 214.819 108.292C214.559 108.137 213.705 107.762 213.325 107.612C212.914 107.459 211.99 107.143 211.508 106.983C211.011 106.834 210.014 106.548 209.515 106.412C208.51 106.168 206.574 105.783 205.593 105.626C204.634 105.486 202.645 105.161 202.028 105.026C201.584 104.922 200.561 104.647 200.197 104.523C199.857 104.407 199.055 104.076 198.63 103.944C198.21 103.814 197.428 103.635 196.904 103.54C195.695 103.347 191.469 103.027 189.411 102.852C187.296 102.632 183.568 102.234 181.956 102.056C181.173 101.962 179.876 101.805 178.694 101.731C177.665 101.681 175.689 101.585 174.739 101.539C173.922 101.499 172.039 101.456 171.222 101.487C170.713 101.514 169.589 101.648 169.366 101.682C169.023 101.737 167.998 101.991 167.803 102.053C167.615 102.112 166.393 102.527 166.058 102.625C165.622 102.748 164.848 102.858 164.397 102.882C164.031 102.9 161.717 102.821 160.731 102.717C159.527 102.561 158.142 102.322 157.343 102.175C156.554 102.013 154.616 101.567 153.994 101.396C153.76 101.329 153.215 101.118 153.193 101.097C153.134 101.037 153.112 100.985 153.125 100.941C153.137 100.907 154.384 100.65 154.871 100.538C155.477 100.385 157.627 99.7694 158.545 99.4861C158.983 99.3418 159.85 99.0496 160.227 98.9131C160.533 98.798 161.301 98.4545 161.476 98.3006C161.529 98.2535 161.522 98.0979 161.473 98.0514C161.348 97.9351 160.991 97.7925 160.903 97.7663C160.458 97.6351 158.216 97.328 157.274 97.1533C156.451 96.9881 154.823 96.6947 154.018 96.5659C153.496 96.4812 153.149 96.3852 152.613 96.2623C152.097 96.1586 151.624 96.0876 151.084 96.0292C150.65 95.9886 148.527 95.9373 147.675 95.932C146.652 95.9403 144.715 95.9719 143.801 95.9946C142.86 96.0381 140.972 96.1496 140.025 96.2182C139.273 96.2767 137.4 96.3494 136.436 96.387C134.781 96.4693 131.09 96.7561 129.237 96.8485C127.584 96.8939 123.807 96.9237 121.797 96.932C119.841 96.9368 116.182 96.9601 114.477 96.978C112.655 96.9517 110.157 96.7257 109.805 96.6929C109.785 95.7501 109.817 91.1947 109.832 89.0491C109.832 88.0514 109.808 86.3435 109.786 85.6332C109.775 85.409 109.74 85.0936 109.681 84.8872C109.64 84.7483 109.561 84.5473 109.512 84.4757C109.43 84.3571 109.078 84.1334 108.922 84.0995C108.731 84.0607 106.206 84.047 105.106 84.0428C104.121 84.0416 102.909 84.041 102.683 84.041" fill="#212121"/>
</g>
<path d="M103.134 84.066C103.135 84.1442 102.909 84.0623 102.914 84.1231C102.924 84.249 102.914 84.1075 102.914 84.3625C102.914 84.6174 102.914 84.4592 102.914 84.8523C102.914 85.5075 102.914 85.0712 102.914 85.5954C102.914 85.8334 102.914 85.9007 102.914 86.2938C102.914 86.5559 102.914 87.0102 102.914 87.2517C102.926 88.9345 102.957 92.9962 102.976 95.3756C102.982 96.217 102.991 97.3721 102.993 97.6852C102.133 97.9136 98.7952 99.2434 98.0034 99.3865C97.1418 99.5457 95.4144 99.8839 94.5492 100.062C92.8349 100.445 89.4463 101.241 87.5011 101.685C84.9748 102.245 82.3744 102.841 80.6589 103.225C80.5581 103.249 80.4071 103.322 80.4053 103.372C80.4065 103.43 80.5897 103.53 80.7275 103.567C81.0927 103.658 81.6626 103.687 82.3058 103.702C84.2277 103.748 88.0053 103.809 89.8604 103.825C91.8379 103.802 95.5904 103.749 97.3656 103.72C99.2475 103.712 102.622 103.711 102.929 103.734C103.225 103.757 104.095 103.891 104.572 103.975C105.246 104.108 105.8 104.237 106.456 104.417C106.969 104.56 107.615 104.7 108.076 104.74C108.618 104.788 109.576 105.004 110.98 105.37C111.174 105.423 111.477 105.562 111.62 105.658C111.752 105.749 111.958 105.993 111.956 106.085C111.949 106.206 111.766 106.312 111.53 106.398C110.662 106.718 109.466 107.109 108.594 107.434C107.92 107.696 105.892 108.252 105.094 108.468C102.988 109.019 99.0357 110.042 97.1908 110.515C96.6597 110.646 96.0827 110.813 95.8106 110.932C95.6262 111.013 94.3804 111.707 94.1375 111.897C94.0426 111.972 94.008 112.103 94.0462 112.174C94.0916 112.247 94.7139 112.504 95.0952 112.606C95.9628 112.833 98.4689 113.096 99.3048 113.177C101.509 113.357 105.686 113.683 107.659 113.83C108.817 113.916 108.969 113.916 109.007 113.914C109.746 113.97 111.571 114.093 112.656 114.161C113.557 114.195 115.402 114.252 116.383 114.256C117.404 114.237 119.343 114.149 120.346 114.08C121.296 114.006 123.188 113.866 124.13 113.799C125.426 113.728 129.515 113.635 131.356 113.604C132.236 113.575 133.994 113.496 134.873 113.446C135.796 113.375 137.67 113.246 138.621 113.186C140.45 113.103 144.037 112.932 145.796 112.844C147.165 112.821 150.885 112.796 153.235 112.793C155.151 112.801 159.388 112.821 161.711 112.835C163.549 112.845 166.001 112.86 166.615 112.864C166.654 112.845 166.681 112.835 166.698 112.832C166.699 112.832 167.511 112.832 167.828 112.833C168.675 112.836 170.59 112.831 171.66 112.823C174.107 112.746 177.842 112.542 179.744 112.426C181.756 112.289 185.646 112.055 187.524 111.957C189.665 111.88 193.423 111.817 195.208 111.795C197.066 111.743 200.788 111.602 202.654 111.514C204.541 111.428 208.834 111.237 210.188 111.114C210.755 111.053 211.666 110.92 212.205 110.826C212.978 110.674 215.406 110.079 215.637 110.006C215.832 109.944 215.965 109.887 216.002 109.83C216.046 109.755 216.04 109.619 215.998 109.543C215.976 109.505 215.738 109.11 215.634 108.975C215.489 108.791 215.088 108.456 214.819 108.292C214.559 108.137 213.705 107.762 213.325 107.612C212.914 107.459 211.99 107.142 211.508 106.983C211.011 106.834 210.014 106.548 209.515 106.412C208.51 106.168 206.574 105.783 205.593 105.626C204.634 105.486 202.645 105.161 202.028 105.026C201.584 104.922 200.561 104.647 200.197 104.523C199.857 104.406 199.055 104.076 198.63 103.944C198.21 103.814 197.428 103.635 196.904 103.54C195.695 103.347 191.469 103.027 189.411 102.852C187.296 102.632 183.568 102.234 181.956 102.056C181.173 101.962 179.876 101.805 178.694 101.731C177.665 101.681 175.689 101.585 174.739 101.539C173.922 101.499 172.039 101.456 171.222 101.487C170.713 101.514 169.589 101.648 169.366 101.682C169.023 101.737 167.998 101.991 167.803 102.053C167.615 102.112 166.393 102.527 166.058 102.625C165.622 102.748 164.848 102.858 164.397 102.882C164.031 102.9 161.717 102.821 160.731 102.716C159.527 102.561 158.142 102.322 157.343 102.175C156.554 102.013 154.616 101.567 153.994 101.396C153.76 101.329 153.215 101.118 153.193 101.097C153.134 101.037 153.112 100.985 153.125 100.941C153.137 100.907 154.384 100.65 154.871 100.538C155.477 100.385 157.627 99.7694 158.545 99.4861C158.983 99.3418 159.85 99.0496 160.227 98.913C160.533 98.7979 161.301 98.4544 161.476 98.3006C161.529 98.2535 161.522 98.0978 161.473 98.0513C161.348 97.935 160.991 97.7925 160.903 97.7663C160.458 97.6351 158.216 97.328 157.274 97.1532C156.451 96.9881 154.823 96.6947 154.018 96.5658C153.496 96.4812 153.149 96.3852 152.613 96.2623C152.097 96.1585 151.624 96.0876 151.084 96.0291C150.65 95.9886 148.527 95.9373 147.675 95.9319C146.652 95.9403 144.715 95.9719 143.801 95.9946C142.86 96.0381 140.972 96.1496 140.025 96.2182C139.273 96.2766 137.4 96.3494 136.436 96.3869C134.781 96.4692 131.09 96.7561 129.237 96.8485C127.584 96.8938 123.807 96.9236 121.797 96.932C119.841 96.9368 116.182 96.96 114.477 96.9779C112.655 96.9517 110.157 96.7257 109.805 96.6929C109.785 95.7501 109.817 91.1946 109.832 89.049C109.832 88.0513 109.808 86.3434 109.786 85.6332C109.775 85.409 109.74 85.0935 109.681 84.8872C109.64 84.7482 109.561 84.5473 109.512 84.4757C109.43 84.357 109.078 84.1334 108.922 84.0994C108.731 84.0607 106.206 84.0469 105.106 84.0428C104.121 84.0416 103.359 84.066 103.134 84.066Z" fill="#212121"/>
<path d="M140.587 54.5677C141.085 54.5677 141.537 54.6486 141.943 54.8102C142.354 54.9718 142.703 55.2011 142.991 55.4982C143.284 55.7952 143.509 56.1578 143.666 56.5859C143.823 57.0139 143.902 57.4923 143.902 58.0208C143.902 58.5537 143.823 59.0342 143.666 59.4623C143.509 59.8904 143.284 60.2552 142.991 60.5566C142.703 60.858 142.354 61.0895 141.943 61.2511C141.537 61.4127 141.085 61.4935 140.587 61.4935C140.084 61.4935 139.628 61.4127 139.217 61.2511C138.807 61.0895 138.455 60.858 138.162 60.5566C137.874 60.2552 137.649 59.8904 137.487 59.4623C137.33 59.0342 137.252 58.5537 137.252 58.0208C137.252 57.4923 137.33 57.0139 137.487 56.5859C137.649 56.1578 137.874 55.7952 138.162 55.4982C138.455 55.2011 138.807 54.9718 139.217 54.8102C139.628 54.6486 140.084 54.5677 140.587 54.5677ZM140.587 60.2486C141.146 60.2486 141.559 60.0608 141.825 59.6851C142.096 59.3094 142.231 58.759 142.231 58.0339C142.231 57.3088 142.096 56.7562 141.825 56.3762C141.559 55.9961 141.146 55.8061 140.587 55.8061C140.019 55.8061 139.597 55.9983 139.322 56.3827C139.051 56.7628 138.916 57.3132 138.916 58.0339C138.916 58.7547 139.051 59.3051 139.322 59.6851C139.597 60.0608 140.019 60.2486 140.587 60.2486ZM150.993 54.6726L148.326 61.3953H146.858L144.192 54.6726H145.528C145.651 54.6726 145.751 54.701 145.83 54.7578C145.913 54.8145 145.967 54.8866 145.994 54.974L147.291 58.5647C147.361 58.7743 147.422 58.9796 147.474 59.1806C147.527 59.3815 147.573 59.5825 147.612 59.7834C147.656 59.5825 147.704 59.3815 147.756 59.1806C147.809 58.9796 147.872 58.7743 147.946 58.5647L149.27 54.974C149.3 54.8866 149.355 54.8145 149.434 54.7578C149.512 54.701 149.606 54.6726 149.715 54.6726H150.993ZM155.982 57.2607C155.982 57.0511 155.951 56.8545 155.89 56.671C155.833 56.4832 155.746 56.3194 155.628 56.1796C155.51 56.0398 155.359 55.9306 155.176 55.852C154.997 55.769 154.787 55.7275 154.547 55.7275C154.079 55.7275 153.71 55.8607 153.44 56.1272C153.173 56.3937 153.003 56.7715 152.928 57.2607H155.982ZM152.896 58.237C152.922 58.5821 152.983 58.8814 153.079 59.1347C153.175 59.3837 153.302 59.5912 153.459 59.7572C153.616 59.9188 153.802 60.0411 154.016 60.1241C154.235 60.2027 154.475 60.2421 154.737 60.2421C154.999 60.2421 155.224 60.2115 155.412 60.1503C155.604 60.0892 155.77 60.0215 155.91 59.9472C156.054 59.8729 156.178 59.8052 156.283 59.7441C156.392 59.6829 156.497 59.6523 156.598 59.6523C156.733 59.6523 156.834 59.7026 156.899 59.803L157.364 60.3928C157.185 60.6024 156.984 60.7793 156.762 60.9235C156.539 61.0633 156.305 61.1769 156.06 61.2642C155.82 61.3472 155.573 61.4062 155.32 61.4411C155.071 61.4761 154.829 61.4935 154.593 61.4935C154.125 61.4935 153.691 61.4171 153.289 61.2642C152.887 61.107 152.537 60.8776 152.24 60.5762C151.943 60.2704 151.71 59.8948 151.539 59.4492C151.369 58.9993 151.284 58.4795 151.284 57.8898C151.284 57.4311 151.358 57.0008 151.507 56.599C151.655 56.1927 151.867 55.8411 152.142 55.544C152.422 55.2426 152.76 55.0046 153.158 54.8298C153.56 54.6551 154.012 54.5677 154.514 54.5677C154.938 54.5677 155.329 54.6354 155.687 54.7709C156.045 54.9063 156.353 55.105 156.611 55.3671C156.869 55.6248 157.07 55.9437 157.214 56.3238C157.362 56.6994 157.436 57.1297 157.436 57.6146C157.436 57.8592 157.41 58.0252 157.358 58.1125C157.305 58.1955 157.205 58.237 157.056 58.237H152.896ZM160.178 55.8389C160.387 55.437 160.636 55.1225 160.925 54.8954C161.213 54.6638 161.554 54.5481 161.947 54.5481C162.257 54.5481 162.506 54.6158 162.694 54.7512L162.589 55.9634C162.567 56.042 162.534 56.0988 162.491 56.1337C162.451 56.1643 162.397 56.1796 162.327 56.1796C162.261 56.1796 162.163 56.1687 162.032 56.1469C161.905 56.125 161.781 56.1141 161.659 56.1141C161.479 56.1141 161.32 56.1403 161.18 56.1927C161.04 56.2451 160.914 56.3216 160.8 56.422C160.691 56.5181 160.593 56.6361 160.505 56.7759C160.422 56.9157 160.344 57.0751 160.269 57.2542V61.3953H158.651V54.6726H159.601C159.767 54.6726 159.883 54.7032 159.948 54.7643C160.014 54.8211 160.058 54.9259 160.079 55.0788L160.178 55.8389ZM172.532 59.9275V61.3953H167.093V59.9275H168.928V55.1116C168.928 54.9893 168.93 54.867 168.935 54.7447C168.939 54.618 168.945 54.4913 168.954 54.3646L167.867 55.2688C167.77 55.3431 167.674 55.389 167.578 55.4064C167.486 55.4195 167.399 55.4195 167.316 55.4064C167.233 55.389 167.159 55.3606 167.093 55.3213C167.028 55.2776 166.98 55.2339 166.949 55.1902L166.307 54.3384L169.282 51.842H170.959V59.9275H172.532ZM180.474 51.8485V52.7003C180.474 52.9537 180.446 53.159 180.389 53.3162C180.332 53.4691 180.278 53.598 180.225 53.7028L176.91 60.7269C176.818 60.9104 176.687 61.0676 176.517 61.1987C176.351 61.3297 176.128 61.3953 175.848 61.3953H174.367L177.775 54.5612C177.875 54.3777 177.976 54.2117 178.076 54.0632C178.181 53.9103 178.297 53.7662 178.423 53.6308H174.223C174.162 53.6308 174.103 53.6198 174.046 53.598C173.994 53.5718 173.946 53.539 173.902 53.4997C173.863 53.456 173.83 53.408 173.804 53.3556C173.778 53.2988 173.765 53.242 173.765 53.1852V51.8485H180.474ZM181.262 60.3665C181.262 60.2093 181.29 60.063 181.347 59.9275C181.408 59.7921 181.489 59.6742 181.589 59.5737C181.694 59.4732 181.816 59.3946 181.956 59.3378C182.096 59.2767 182.249 59.2461 182.415 59.2461C182.576 59.2461 182.727 59.2767 182.867 59.3378C183.007 59.3946 183.129 59.4732 183.234 59.5737C183.339 59.6742 183.419 59.7921 183.476 59.9275C183.537 60.063 183.568 60.2093 183.568 60.3665C183.568 60.5238 183.537 60.6723 183.476 60.8121C183.419 60.9475 183.339 61.0655 183.234 61.1659C183.129 61.2664 183.007 61.345 182.867 61.4018C182.727 61.4586 182.576 61.487 182.415 61.487C182.249 61.487 182.096 61.4586 181.956 61.4018C181.816 61.345 181.694 61.2664 181.589 61.1659C181.489 61.0655 181.408 60.9475 181.347 60.8121C181.29 60.6723 181.262 60.5238 181.262 60.3665ZM186.893 55.2099C187.072 55.1749 187.245 55.1509 187.411 55.1378C187.577 55.1247 187.739 55.1181 187.896 55.1181C188.398 55.1181 188.842 55.1946 189.226 55.3475C189.61 55.5004 189.934 55.71 190.196 55.9765C190.458 56.2386 190.654 56.5487 190.785 56.9069C190.921 57.2607 190.989 57.6408 190.989 58.047C190.989 58.5581 190.897 59.0255 190.713 59.4492C190.534 59.8686 190.283 60.2311 189.96 60.5369C189.637 60.8427 189.25 61.0808 188.8 61.2511C188.355 61.4171 187.865 61.5001 187.332 61.5001C187.022 61.5001 186.725 61.4673 186.441 61.4018C186.162 61.3363 185.897 61.2489 185.648 61.1397C185.404 61.0261 185.177 60.8973 184.967 60.7531C184.757 60.6046 184.567 60.4474 184.397 60.2814L185.026 59.4427C185.091 59.3553 185.168 59.2898 185.255 59.2461C185.343 59.1981 185.437 59.174 185.537 59.174C185.668 59.174 185.79 59.2112 185.904 59.2854C186.022 59.3553 186.149 59.4339 186.284 59.5213C186.424 59.6043 186.585 59.6807 186.769 59.7506C186.952 59.8205 187.179 59.8555 187.45 59.8555C187.721 59.8555 187.953 59.8118 188.145 59.7244C188.337 59.6327 188.492 59.5104 188.61 59.3575C188.732 59.2002 188.82 59.019 188.872 58.8136C188.929 58.604 188.957 58.3812 188.957 58.1453C188.957 57.6823 188.826 57.3306 188.564 57.0904C188.302 56.8458 187.931 56.7235 187.45 56.7235C187.022 56.7235 186.603 56.8043 186.192 56.9659L184.934 56.6252L185.747 51.8485H190.635V52.6872C190.635 52.827 190.613 52.9537 190.569 53.0673C190.526 53.1808 190.456 53.2813 190.36 53.3687C190.268 53.4517 190.145 53.5172 189.993 53.5652C189.84 53.6089 189.656 53.6308 189.442 53.6308H187.162L186.893 55.2099ZM203.242 51.8485V61.3953H201.29V55.9044C201.29 55.7777 201.292 55.6401 201.296 55.4916C201.305 55.3431 201.318 55.1924 201.336 55.0395L198.8 59.9472C198.721 60.1001 198.614 60.2158 198.479 60.2945C198.348 60.3731 198.197 60.4124 198.027 60.4124H197.725C197.555 60.4124 197.402 60.3731 197.267 60.2945C197.136 60.2158 197.031 60.1001 196.952 59.9472L194.416 55.0264C194.43 55.1837 194.44 55.3387 194.449 55.4916C194.458 55.6401 194.462 55.7777 194.462 55.9044V61.3953H192.51V51.8485H194.2C194.296 51.8485 194.379 51.8507 194.449 51.8551C194.523 51.8594 194.589 51.8726 194.646 51.8944C194.703 51.9162 194.753 51.9512 194.796 51.9992C194.845 52.0429 194.89 52.1063 194.934 52.1892L197.391 57.0314C197.479 57.1974 197.562 57.37 197.64 57.549C197.723 57.7281 197.802 57.9116 197.876 58.0994C197.95 57.9072 198.027 57.7194 198.105 57.5359C198.188 57.3525 198.276 57.1778 198.367 57.0118L200.818 52.1892C200.862 52.1063 200.905 52.0429 200.949 51.9992C200.997 51.9512 201.05 51.9162 201.106 51.8944C201.163 51.8726 201.226 51.8594 201.296 51.8551C201.371 51.8507 201.456 51.8485 201.552 51.8485H203.242ZM139.25 67.6585V77.3953H137.632V67.6585H139.25ZM142.54 70.6726V77.3953H140.915V70.6726H142.54ZM142.763 68.7134C142.763 68.8532 142.734 68.9843 142.677 69.1066C142.621 69.2289 142.544 69.3359 142.448 69.4276C142.356 69.5194 142.247 69.5936 142.12 69.6504C141.994 69.7028 141.858 69.729 141.714 69.729C141.574 69.729 141.441 69.7028 141.315 69.6504C141.192 69.5936 141.085 69.5194 140.993 69.4276C140.902 69.3359 140.828 69.2289 140.771 69.1066C140.718 68.9843 140.692 68.8532 140.692 68.7134C140.692 68.5693 140.718 68.4339 140.771 68.3072C140.828 68.1805 140.902 68.0713 140.993 67.9796C141.085 67.8878 141.192 67.8158 141.315 67.7633C141.441 67.7066 141.574 67.6782 141.714 67.6782C141.858 67.6782 141.994 67.7066 142.12 67.7633C142.247 67.8158 142.356 67.8878 142.448 67.9796C142.544 68.0713 142.621 68.1805 142.677 68.3072C142.734 68.4339 142.763 68.5693 142.763 68.7134ZM146.431 77.5001C145.845 77.5001 145.395 77.3363 145.081 77.0087C144.771 76.6767 144.616 76.2202 144.616 75.6392V71.8848H143.928C143.84 71.8848 143.766 71.8564 143.705 71.7996C143.644 71.7428 143.613 71.6576 143.613 71.544V70.9019L144.694 70.725L145.035 68.8903C145.057 68.803 145.098 68.7353 145.16 68.6872C145.221 68.6392 145.299 68.6151 145.395 68.6151H146.234V70.7315H148.029V71.8848H146.234V75.5279C146.234 75.7375 146.284 75.9013 146.385 76.0193C146.49 76.1372 146.632 76.1962 146.811 76.1962C146.911 76.1962 146.994 76.1853 147.06 76.1634C147.13 76.1372 147.189 76.111 147.237 76.0848C147.289 76.0586 147.335 76.0346 147.374 76.0127C147.414 75.9865 147.453 75.9734 147.492 75.9734C147.54 75.9734 147.58 75.9865 147.61 76.0127C147.641 76.0346 147.673 76.0695 147.708 76.1176L148.193 76.9038C147.957 77.1004 147.687 77.2489 147.381 77.3494C147.075 77.4499 146.758 77.5001 146.431 77.5001ZM150.592 71.8389C150.802 71.437 151.051 71.1225 151.339 70.8954C151.628 70.6638 151.968 70.5481 152.361 70.5481C152.672 70.5481 152.921 70.6158 153.108 70.7512L153.004 71.9634C152.982 72.042 152.949 72.0988 152.905 72.1337C152.866 72.1643 152.811 72.1796 152.742 72.1796C152.676 72.1796 152.578 72.1687 152.447 72.1469C152.32 72.125 152.195 72.1141 152.073 72.1141C151.894 72.1141 151.735 72.1403 151.595 72.1927C151.455 72.2451 151.328 72.3216 151.215 72.422C151.106 72.5181 151.007 72.6361 150.92 72.7759C150.837 72.9157 150.758 73.0751 150.684 73.2542V77.3953H149.066V70.6726H150.016C150.182 70.6726 150.297 70.7032 150.363 70.7643C150.429 70.8211 150.472 70.9259 150.494 71.0788L150.592 71.8389ZM158.093 73.2607C158.093 73.0511 158.063 72.8545 158.002 72.671C157.945 72.4832 157.858 72.3194 157.74 72.1796C157.622 72.0398 157.471 71.9306 157.287 71.852C157.108 71.769 156.899 71.7275 156.658 71.7275C156.191 71.7275 155.822 71.8607 155.551 72.1272C155.285 72.3937 155.114 72.7715 155.04 73.2607H158.093ZM155.007 74.237C155.033 74.5821 155.095 74.8814 155.191 75.1347C155.287 75.3837 155.414 75.5912 155.571 75.7572C155.728 75.9188 155.914 76.0411 156.128 76.1241C156.346 76.2027 156.586 76.2421 156.848 76.2421C157.111 76.2421 157.336 76.2115 157.523 76.1503C157.716 76.0892 157.882 76.0215 158.021 75.9472C158.166 75.8729 158.29 75.8052 158.395 75.7441C158.504 75.6829 158.609 75.6523 158.709 75.6523C158.845 75.6523 158.945 75.7026 159.011 75.803L159.476 76.3928C159.297 76.6024 159.096 76.7793 158.873 76.9235C158.65 77.0633 158.417 77.1769 158.172 77.2642C157.932 77.3472 157.685 77.4062 157.432 77.4411C157.183 77.4761 156.94 77.4935 156.704 77.4935C156.237 77.4935 155.802 77.4171 155.4 77.2642C154.999 77.107 154.649 76.8776 154.352 76.5762C154.055 76.2704 153.821 75.8948 153.651 75.4492C153.481 74.9993 153.395 74.4795 153.395 73.8898C153.395 73.4311 153.47 73.0008 153.618 72.599C153.767 72.1927 153.979 71.8411 154.254 71.544C154.533 71.2426 154.872 71.0046 155.269 70.8298C155.671 70.6551 156.123 70.5677 156.626 70.5677C157.049 70.5677 157.44 70.6354 157.799 70.7709C158.157 70.9063 158.465 71.105 158.722 71.3671C158.98 71.6248 159.181 71.9437 159.325 72.3238C159.474 72.6994 159.548 73.1297 159.548 73.6146C159.548 73.8592 159.522 74.0252 159.469 74.1125C159.417 74.1955 159.317 74.237 159.168 74.237H155.007ZM164.864 71.983C164.821 72.0529 164.775 72.1032 164.727 72.1337C164.679 72.16 164.618 72.1731 164.543 72.1731C164.465 72.1731 164.379 72.1512 164.288 72.1075C164.2 72.0639 164.098 72.0158 163.98 71.9634C163.862 71.9066 163.726 71.8564 163.574 71.8127C163.425 71.769 163.248 71.7472 163.043 71.7472C162.724 71.7472 162.473 71.8149 162.289 71.9503C162.11 72.0857 162.021 72.2626 162.021 72.481C162.021 72.6252 162.066 72.7475 162.158 72.848C162.254 72.9441 162.379 73.0292 162.532 73.1035C162.689 73.1778 162.866 73.2455 163.062 73.3066C163.259 73.3634 163.458 73.4267 163.659 73.4966C163.864 73.5665 164.065 73.6473 164.262 73.7391C164.458 73.8264 164.633 73.94 164.786 74.0798C164.943 74.2152 165.067 74.379 165.159 74.5712C165.255 74.7634 165.303 74.9949 165.303 75.2658C165.303 75.589 165.244 75.8882 165.126 76.1634C165.013 76.4343 164.842 76.6701 164.615 76.8711C164.388 77.0676 164.106 77.2227 163.77 77.3363C163.438 77.4455 163.054 77.5001 162.617 77.5001C162.385 77.5001 162.158 77.4783 161.935 77.4346C161.717 77.3953 161.505 77.3385 161.3 77.2642C161.099 77.19 160.911 77.1026 160.736 77.0021C160.566 76.9017 160.415 76.7924 160.284 76.6745L160.658 76.0586C160.706 75.9843 160.763 75.9275 160.828 75.8882C160.894 75.8489 160.977 75.8293 161.077 75.8293C161.178 75.8293 161.271 75.8577 161.359 75.9144C161.451 75.9712 161.555 76.0324 161.673 76.0979C161.791 76.1634 161.929 76.2246 162.086 76.2814C162.248 76.3382 162.451 76.3665 162.696 76.3665C162.888 76.3665 163.052 76.3447 163.187 76.301C163.327 76.253 163.44 76.1918 163.528 76.1176C163.619 76.0433 163.685 75.9581 163.724 75.862C163.768 75.7616 163.79 75.6589 163.79 75.5541C163.79 75.3968 163.742 75.2679 163.646 75.1675C163.554 75.067 163.429 74.9796 163.272 74.9054C163.119 74.8311 162.942 74.7656 162.741 74.7088C162.545 74.6477 162.342 74.5821 162.132 74.5122C161.927 74.4423 161.724 74.3615 161.523 74.2698C161.326 74.1737 161.149 74.0536 160.992 73.9094C160.839 73.7653 160.715 73.5884 160.618 73.3787C160.527 73.169 160.481 72.9157 160.481 72.6186C160.481 72.3434 160.535 72.0813 160.645 71.8323C160.754 71.5834 160.913 71.3671 161.123 71.1837C161.337 70.9958 161.601 70.8473 161.916 70.7381C162.235 70.6245 162.602 70.5677 163.017 70.5677C163.48 70.5677 163.901 70.6442 164.281 70.7971C164.661 70.95 164.978 71.1509 165.231 71.3999L164.864 71.983ZM171.385 70.6726V77.3953H169.76V70.6726H171.385ZM171.608 68.7134C171.608 68.8532 171.58 68.9843 171.523 69.1066C171.466 69.2289 171.39 69.3359 171.294 69.4276C171.202 69.5194 171.093 69.5936 170.966 69.6504C170.839 69.7028 170.704 69.729 170.56 69.729C170.42 69.729 170.287 69.7028 170.16 69.6504C170.038 69.5936 169.931 69.5194 169.839 69.4276C169.747 69.3359 169.673 69.2289 169.616 69.1066C169.564 68.9843 169.538 68.8532 169.538 68.7134C169.538 68.5693 169.564 68.4339 169.616 68.3072C169.673 68.1805 169.747 68.0713 169.839 67.9796C169.931 67.8878 170.038 67.8158 170.16 67.7633C170.287 67.7066 170.42 67.6782 170.56 67.6782C170.704 67.6782 170.839 67.7066 170.966 67.7633C171.093 67.8158 171.202 67.8878 171.294 67.9796C171.39 68.0713 171.466 68.1805 171.523 68.3072C171.58 68.4339 171.608 68.5693 171.608 68.7134ZM174.549 71.4982C174.684 71.3628 174.826 71.2383 174.975 71.1247C175.128 71.0067 175.287 70.9085 175.453 70.8298C175.624 70.7468 175.805 70.6835 175.997 70.6398C176.189 70.5918 176.399 70.5677 176.626 70.5677C176.993 70.5677 177.318 70.6311 177.602 70.7578C177.886 70.8801 178.122 71.0548 178.31 71.2819C178.502 71.5047 178.646 71.7734 178.742 72.0879C178.843 72.398 178.893 72.7409 178.893 73.1166V77.3953H177.275V73.1166C177.275 72.706 177.181 72.3893 176.993 72.1665C176.805 71.9394 176.519 71.8258 176.135 71.8258C175.855 71.8258 175.593 71.8891 175.348 72.0158C175.104 72.1425 174.872 72.315 174.654 72.5334V77.3953H173.035V70.6726H174.025C174.234 70.6726 174.372 70.7709 174.438 70.9674L174.549 71.4982ZM186.594 70.5677C187.092 70.5677 187.544 70.6486 187.95 70.8102C188.361 70.9718 188.71 71.2011 188.998 71.4982C189.291 71.7952 189.516 72.1578 189.673 72.5859C189.831 73.0139 189.909 73.4923 189.909 74.0208C189.909 74.5537 189.831 75.0342 189.673 75.4623C189.516 75.8904 189.291 76.2552 188.998 76.5566C188.71 76.858 188.361 77.0895 187.95 77.2511C187.544 77.4127 187.092 77.4935 186.594 77.4935C186.091 77.4935 185.635 77.4127 185.224 77.2511C184.814 77.0895 184.462 76.858 184.169 76.5566C183.881 76.2552 183.656 75.8904 183.494 75.4623C183.337 75.0342 183.259 74.5537 183.259 74.0208C183.259 73.4923 183.337 73.0139 183.494 72.5859C183.656 72.1578 183.881 71.7952 184.169 71.4982C184.462 71.2011 184.814 70.9718 185.224 70.8102C185.635 70.6486 186.091 70.5677 186.594 70.5677ZM186.594 76.2486C187.153 76.2486 187.566 76.0608 187.832 75.6851C188.103 75.3094 188.238 74.759 188.238 74.0339C188.238 73.3088 188.103 72.7562 187.832 72.3762C187.566 71.9961 187.153 71.8061 186.594 71.8061C186.026 71.8061 185.604 71.9983 185.329 72.3827C185.058 72.7628 184.923 73.3132 184.923 74.0339C184.923 74.7547 185.058 75.3051 185.329 75.6851C185.604 76.0608 186.026 76.2486 186.594 76.2486ZM192.821 70.6726V77.3953H191.196V70.6726H192.821ZM193.044 68.7134C193.044 68.8532 193.016 68.9843 192.959 69.1066C192.902 69.2289 192.826 69.3359 192.73 69.4276C192.638 69.5194 192.529 69.5936 192.402 69.6504C192.275 69.7028 192.14 69.729 191.996 69.729C191.856 69.729 191.723 69.7028 191.596 69.6504C191.474 69.5936 191.367 69.5194 191.275 69.4276C191.183 69.3359 191.109 69.2289 191.052 69.1066C191 68.9843 190.974 68.8532 190.974 68.7134C190.974 68.5693 191 68.4339 191.052 68.3072C191.109 68.1805 191.183 68.0713 191.275 67.9796C191.367 67.8878 191.474 67.8158 191.596 67.7633C191.723 67.7066 191.856 67.6782 191.996 67.6782C192.14 67.6782 192.275 67.7066 192.402 67.7633C192.529 67.8158 192.638 67.8878 192.73 67.9796C192.826 68.0713 192.902 68.1805 192.959 68.3072C193.016 68.4339 193.044 68.5693 193.044 68.7134ZM196.109 67.6585V77.3953H194.491V67.6585H196.109ZM205.01 71.983C204.966 72.0529 204.921 72.1032 204.873 72.1337C204.824 72.16 204.763 72.1731 204.689 72.1731C204.61 72.1731 204.525 72.1512 204.434 72.1075C204.346 72.0639 204.243 72.0158 204.126 71.9634C204.008 71.9066 203.872 71.8564 203.719 71.8127C203.571 71.769 203.394 71.7472 203.189 71.7472C202.87 71.7472 202.619 71.8149 202.435 71.9503C202.256 72.0857 202.166 72.2626 202.166 72.481C202.166 72.6252 202.212 72.7475 202.304 72.848C202.4 72.9441 202.525 73.0292 202.677 73.1035C202.835 73.1778 203.012 73.2455 203.208 73.3066C203.405 73.3634 203.604 73.4267 203.804 73.4966C204.01 73.5665 204.211 73.6473 204.407 73.7391C204.604 73.8264 204.779 73.94 204.931 74.0798C205.089 74.2152 205.213 74.379 205.305 74.5712C205.401 74.7634 205.449 74.9949 205.449 75.2658C205.449 75.589 205.39 75.8882 205.272 76.1634C205.159 76.4343 204.988 76.6701 204.761 76.8711C204.534 77.0676 204.252 77.2227 203.916 77.3363C203.584 77.4455 203.199 77.5001 202.763 77.5001C202.531 77.5001 202.304 77.4783 202.081 77.4346C201.863 77.3953 201.651 77.3385 201.446 77.2642C201.245 77.19 201.057 77.1026 200.882 77.0021C200.712 76.9017 200.561 76.7924 200.43 76.6745L200.804 76.0586C200.852 75.9843 200.908 75.9275 200.974 75.8882C201.039 75.8489 201.122 75.8293 201.223 75.8293C201.323 75.8293 201.417 75.8577 201.505 75.9144C201.596 75.9712 201.701 76.0324 201.819 76.0979C201.937 76.1634 202.075 76.2246 202.232 76.2814C202.394 76.3382 202.597 76.3665 202.841 76.3665C203.033 76.3665 203.197 76.3447 203.333 76.301C203.473 76.253 203.586 76.1918 203.673 76.1176C203.765 76.0433 203.831 75.9581 203.87 75.862C203.914 75.7616 203.936 75.6589 203.936 75.5541C203.936 75.3968 203.887 75.2679 203.791 75.1675C203.7 75.067 203.575 74.9796 203.418 74.9054C203.265 74.8311 203.088 74.7656 202.887 74.7088C202.691 74.6477 202.487 74.5821 202.278 74.5122C202.072 74.4423 201.869 74.3615 201.668 74.2698C201.472 74.1737 201.295 74.0536 201.138 73.9094C200.985 73.7653 200.86 73.5884 200.764 73.3787C200.672 73.169 200.627 72.9157 200.627 72.6186C200.627 72.3434 200.681 72.0813 200.79 71.8323C200.9 71.5834 201.059 71.3671 201.269 71.1837C201.483 70.9958 201.747 70.8473 202.062 70.7381C202.38 70.6245 202.747 70.5677 203.162 70.5677C203.625 70.5677 204.047 70.6442 204.427 70.7971C204.807 70.95 205.124 71.1509 205.377 71.3999L205.01 71.983ZM208.286 75.6523C208.469 75.8751 208.668 76.0324 208.882 76.1241C209.1 76.2158 209.336 76.2617 209.59 76.2617C209.834 76.2617 210.055 76.2158 210.251 76.1241C210.448 76.0324 210.614 75.8926 210.749 75.7048C210.889 75.5169 210.996 75.281 211.07 74.9971C211.145 74.7088 211.182 74.3703 211.182 73.9815C211.182 73.5884 211.149 73.2564 211.084 72.9855C211.022 72.7104 210.933 72.4876 210.815 72.3172C210.697 72.1469 210.553 72.0224 210.382 71.9437C210.216 71.8651 210.026 71.8258 209.812 71.8258C209.476 71.8258 209.19 71.8979 208.954 72.042C208.718 72.1818 208.495 72.3806 208.286 72.6383V75.6523ZM208.2 71.5899C208.476 71.2798 208.788 71.0286 209.137 70.8364C209.487 70.6442 209.898 70.5481 210.369 70.5481C210.736 70.5481 211.07 70.6245 211.372 70.7774C211.678 70.9303 211.94 71.1531 212.158 71.4458C212.381 71.7341 212.551 72.0922 212.669 72.5203C212.791 72.9441 212.853 73.4311 212.853 73.9815C212.853 74.4838 212.785 74.9491 212.65 75.3771C212.514 75.8052 212.32 76.1765 212.066 76.491C211.817 76.8056 211.514 77.0524 211.156 77.2315C210.802 77.4062 210.404 77.4935 209.963 77.4935C209.587 77.4935 209.266 77.4368 209 77.3232C208.733 77.2052 208.495 77.0436 208.286 76.8383V79.5903H206.667V70.6726H207.657C207.866 70.6726 208.004 70.7709 208.069 70.9674L208.2 71.5899ZM215.793 70.6726V77.3953H214.168V70.6726H215.793ZM216.016 68.7134C216.016 68.8532 215.987 68.9843 215.93 69.1066C215.874 69.2289 215.797 69.3359 215.701 69.4276C215.609 69.5194 215.5 69.5936 215.373 69.6504C215.247 69.7028 215.111 69.729 214.967 69.729C214.827 69.729 214.694 69.7028 214.567 69.6504C214.445 69.5936 214.338 69.5194 214.246 69.4276C214.155 69.3359 214.08 69.2289 214.024 69.1066C213.971 68.9843 213.945 68.8532 213.945 68.7134C213.945 68.5693 213.971 68.4339 214.024 68.3072C214.08 68.1805 214.155 68.0713 214.246 67.9796C214.338 67.8878 214.445 67.8158 214.567 67.7633C214.694 67.7066 214.827 67.6782 214.967 67.6782C215.111 67.6782 215.247 67.7066 215.373 67.7633C215.5 67.8158 215.609 67.8878 215.701 67.9796C215.797 68.0713 215.874 68.1805 215.93 68.3072C215.987 68.4339 216.016 68.5693 216.016 68.7134ZM219.081 67.6585V77.3953H217.462V67.6585H219.081ZM222.331 67.6585V77.3953H220.713V67.6585H222.331ZM228.046 71.983C228.002 72.0529 227.956 72.1032 227.908 72.1337C227.86 72.16 227.799 72.1731 227.725 72.1731C227.646 72.1731 227.561 72.1512 227.469 72.1075C227.382 72.0639 227.279 72.0158 227.161 71.9634C227.043 71.9066 226.908 71.8564 226.755 71.8127C226.606 71.769 226.429 71.7472 226.224 71.7472C225.905 71.7472 225.654 71.8149 225.471 71.9503C225.291 72.0857 225.202 72.2626 225.202 72.481C225.202 72.6252 225.248 72.7475 225.34 72.848C225.436 72.9441 225.56 73.0292 225.713 73.1035C225.87 73.1778 226.047 73.2455 226.244 73.3066C226.44 73.3634 226.639 73.4267 226.84 73.4966C227.045 73.5665 227.246 73.6473 227.443 73.7391C227.639 73.8264 227.814 73.94 227.967 74.0798C228.124 74.2152 228.249 74.379 228.34 74.5712C228.437 74.7634 228.485 74.9949 228.485 75.2658C228.485 75.589 228.426 75.8882 228.308 76.1634C228.194 76.4343 228.024 76.6701 227.797 76.8711C227.569 77.0676 227.288 77.2227 226.951 77.3363C226.619 77.4455 226.235 77.5001 225.798 77.5001C225.567 77.5001 225.34 77.4783 225.117 77.4346C224.898 77.3953 224.686 77.3385 224.481 77.2642C224.28 77.19 224.092 77.1026 223.918 77.0021C223.747 76.9017 223.597 76.7924 223.466 76.6745L223.839 76.0586C223.887 75.9843 223.944 75.9275 224.009 75.8882C224.075 75.8489 224.158 75.8293 224.258 75.8293C224.359 75.8293 224.453 75.8577 224.54 75.9144C224.632 75.9712 224.737 76.0324 224.855 76.0979C224.973 76.1634 225.11 76.2246 225.267 76.2814C225.429 76.3382 225.632 76.3665 225.877 76.3665C226.069 76.3665 226.233 76.3447 226.368 76.301C226.508 76.253 226.622 76.1918 226.709 76.1176C226.801 76.0433 226.866 75.9581 226.906 75.862C226.949 75.7616 226.971 75.6589 226.971 75.5541C226.971 75.3968 226.923 75.2679 226.827 75.1675C226.735 75.067 226.611 74.9796 226.453 74.9054C226.301 74.8311 226.124 74.7656 225.923 74.7088C225.726 74.6477 225.523 74.5821 225.313 74.5122C225.108 74.4423 224.905 74.3615 224.704 74.2698C224.507 74.1737 224.33 74.0536 224.173 73.9094C224.02 73.7653 223.896 73.5884 223.8 73.3787C223.708 73.169 223.662 72.9157 223.662 72.6186C223.662 72.3434 223.717 72.0813 223.826 71.8323C223.935 71.5834 224.095 71.3671 224.304 71.1837C224.518 70.9958 224.783 70.8473 225.097 70.7381C225.416 70.6245 225.783 70.5677 226.198 70.5677C226.661 70.5677 227.082 70.6442 227.462 70.7971C227.843 70.95 228.159 71.1509 228.413 71.3999L228.046 71.983Z" fill="#212121"/>
<path d="M141.967 20.9928V21.9141H137.983V20.9928H139.442V16.7949C139.442 16.6289 139.447 16.4579 139.457 16.2819L138.421 17.1484C138.361 17.1949 138.301 17.2248 138.242 17.2381C138.185 17.248 138.13 17.248 138.077 17.2381C138.028 17.2281 137.983 17.2115 137.943 17.1883C137.903 17.1617 137.873 17.1335 137.853 17.1036L137.465 16.5708L139.661 14.7034H140.672V20.9928H141.967ZM148.117 18.3137C148.117 18.9411 148.049 19.4873 147.913 19.952C147.78 20.4135 147.594 20.7953 147.355 21.0974C147.12 21.3995 146.839 21.6252 146.514 21.7746C146.192 21.9207 145.843 21.9937 145.468 21.9937C145.093 21.9937 144.744 21.9207 144.422 21.7746C144.104 21.6252 143.826 21.3995 143.591 21.0974C143.355 20.7953 143.171 20.4135 143.038 19.952C142.905 19.4873 142.839 18.9411 142.839 18.3137C142.839 17.6829 142.905 17.1368 143.038 16.6753C143.171 16.2139 143.355 15.8321 143.591 15.53C143.826 15.2279 144.104 15.0038 144.422 14.8577C144.744 14.7083 145.093 14.6336 145.468 14.6336C145.843 14.6336 146.192 14.7083 146.514 14.8577C146.839 15.0038 147.12 15.2279 147.355 15.53C147.594 15.8321 147.78 16.2139 147.913 16.6753C148.049 17.1368 148.117 17.6829 148.117 18.3137ZM146.848 18.3137C146.848 17.7925 146.809 17.3609 146.733 17.019C146.657 16.677 146.554 16.4048 146.424 16.2023C146.298 15.9998 146.152 15.8587 145.986 15.779C145.82 15.696 145.647 15.6545 145.468 15.6545C145.292 15.6545 145.121 15.696 144.955 15.779C144.793 15.8587 144.648 15.9998 144.522 16.2023C144.396 16.4048 144.295 16.677 144.218 17.019C144.145 17.3609 144.109 17.7925 144.109 18.3137C144.109 18.8349 144.145 19.2665 144.218 19.6084C144.295 19.9504 144.396 20.2226 144.522 20.4251C144.648 20.6276 144.793 20.7704 144.955 20.8534C145.121 20.933 145.292 20.9729 145.468 20.9729C145.647 20.9729 145.82 20.933 145.986 20.8534C146.152 20.7704 146.298 20.6276 146.424 20.4251C146.554 20.2226 146.657 19.9504 146.733 19.6084C146.809 19.2665 146.848 18.8349 146.848 18.3137ZM153.895 18.3137C153.895 18.9411 153.827 19.4873 153.69 19.952C153.558 20.4135 153.372 20.7953 153.133 21.0974C152.897 21.3995 152.617 21.6252 152.291 21.7746C151.969 21.9207 151.621 21.9937 151.245 21.9937C150.87 21.9937 150.522 21.9207 150.2 21.7746C149.881 21.6252 149.604 21.3995 149.368 21.0974C149.132 20.7953 148.948 20.4135 148.815 19.952C148.682 19.4873 148.616 18.9411 148.616 18.3137C148.616 17.6829 148.682 17.1368 148.815 16.6753C148.948 16.2139 149.132 15.8321 149.368 15.53C149.604 15.2279 149.881 15.0038 150.2 14.8577C150.522 14.7083 150.87 14.6336 151.245 14.6336C151.621 14.6336 151.969 14.7083 152.291 14.8577C152.617 15.0038 152.897 15.2279 153.133 15.53C153.372 15.8321 153.558 16.2139 153.69 16.6753C153.827 17.1368 153.895 17.6829 153.895 18.3137ZM152.625 18.3137C152.625 17.7925 152.587 17.3609 152.51 17.019C152.434 16.677 152.331 16.4048 152.202 16.2023C152.075 15.9998 151.929 15.8587 151.763 15.779C151.597 15.696 151.425 15.6545 151.245 15.6545C151.069 15.6545 150.898 15.696 150.733 15.779C150.57 15.8587 150.425 15.9998 150.299 16.2023C150.173 16.4048 150.072 16.677 149.995 17.019C149.922 17.3609 149.886 17.7925 149.886 18.3137C149.886 18.8349 149.922 19.2665 149.995 19.6084C150.072 19.9504 150.173 20.2226 150.299 20.4251C150.425 20.6276 150.57 20.7704 150.733 20.8534C150.898 20.933 151.069 20.9729 151.245 20.9729C151.425 20.9729 151.597 20.933 151.763 20.8534C151.929 20.7704 152.075 20.6276 152.202 20.4251C152.331 20.2226 152.434 19.9504 152.51 19.6084C152.587 19.2665 152.625 18.8349 152.625 18.3137ZM159.672 18.3137C159.672 18.9411 159.604 19.4873 159.468 19.952C159.335 20.4135 159.149 20.7953 158.91 21.0974C158.674 21.3995 158.394 21.6252 158.068 21.7746C157.746 21.9207 157.398 21.9937 157.023 21.9937C156.648 21.9937 156.299 21.9207 155.977 21.7746C155.658 21.6252 155.381 21.3995 155.145 21.0974C154.91 20.7953 154.725 20.4135 154.593 19.952C154.46 19.4873 154.393 18.9411 154.393 18.3137C154.393 17.6829 154.46 17.1368 154.593 16.6753C154.725 16.2139 154.91 15.8321 155.145 15.53C155.381 15.2279 155.658 15.0038 155.977 14.8577C156.299 14.7083 156.648 14.6336 157.023 14.6336C157.398 14.6336 157.746 14.7083 158.068 14.8577C158.394 15.0038 158.674 15.2279 158.91 15.53C159.149 15.8321 159.335 16.2139 159.468 16.6753C159.604 17.1368 159.672 17.6829 159.672 18.3137ZM158.402 18.3137C158.402 17.7925 158.364 17.3609 158.288 17.019C158.211 16.677 158.108 16.4048 157.979 16.2023C157.853 15.9998 157.707 15.8587 157.541 15.779C157.375 15.696 157.202 15.6545 157.023 15.6545C156.847 15.6545 156.676 15.696 156.51 15.779C156.347 15.8587 156.203 15.9998 156.077 16.2023C155.95 16.4048 155.849 16.677 155.773 17.019C155.7 17.3609 155.663 17.7925 155.663 18.3137C155.663 18.8349 155.7 19.2665 155.773 19.6084C155.849 19.9504 155.95 20.2226 156.077 20.4251C156.203 20.6276 156.347 20.7704 156.51 20.8534C156.676 20.933 156.847 20.9729 157.023 20.9729C157.202 20.9729 157.375 20.933 157.541 20.8534C157.707 20.7704 157.853 20.6276 157.979 20.4251C158.108 20.2226 158.211 19.9504 158.288 19.6084C158.364 19.2665 158.402 18.8349 158.402 18.3137ZM165.24 19.0258H163.308V21.0775H162.307V19.0258H160.385V18.1145H162.307V16.0728H163.308V18.1145H165.24V19.0258ZM170.989 16.7251C171.368 16.7251 171.711 16.7866 172.02 16.9094C172.332 17.0322 172.598 17.2065 172.817 17.4323C173.039 17.658 173.21 17.9336 173.33 18.2589C173.449 18.5843 173.509 18.9478 173.509 19.3495C173.509 19.7545 173.449 20.1197 173.33 20.445C173.21 20.7704 173.039 21.0476 172.817 21.2767C172.598 21.5057 172.332 21.6817 172.02 21.8045C171.711 21.9273 171.368 21.9888 170.989 21.9888C170.607 21.9888 170.26 21.9273 169.948 21.8045C169.636 21.6817 169.369 21.5057 169.147 21.2767C168.928 21.0476 168.757 20.7704 168.634 20.445C168.514 20.1197 168.454 19.7545 168.454 19.3495C168.454 18.9478 168.514 18.5843 168.634 18.2589C168.757 17.9336 168.928 17.658 169.147 17.4323C169.369 17.2065 169.636 17.0322 169.948 16.9094C170.26 16.7866 170.607 16.7251 170.989 16.7251ZM170.989 21.0426C171.414 21.0426 171.728 20.8999 171.93 20.6143C172.136 20.3288 172.239 19.9105 172.239 19.3594C172.239 18.8083 172.136 18.3884 171.93 18.0996C171.728 17.8107 171.414 17.6663 170.989 17.6663C170.558 17.6663 170.237 17.8124 170.028 18.1045C169.822 18.3934 169.719 18.8117 169.719 19.3594C169.719 19.9072 169.822 20.3255 170.028 20.6143C170.237 20.8999 170.558 21.0426 170.989 21.0426ZM175.722 16.8048V21.9141H174.487V16.8048H175.722ZM175.891 15.3159C175.891 15.4221 175.87 15.5217 175.827 15.6147C175.784 15.7076 175.725 15.7889 175.652 15.8587C175.583 15.9284 175.5 15.9848 175.403 16.028C175.307 16.0678 175.204 16.0877 175.095 16.0877C174.988 16.0877 174.887 16.0678 174.791 16.028C174.698 15.9848 174.617 15.9284 174.547 15.8587C174.477 15.7889 174.421 15.7076 174.378 15.6147C174.338 15.5217 174.318 15.4221 174.318 15.3159C174.318 15.2063 174.338 15.1034 174.378 15.0071C174.421 14.9109 174.477 14.8279 174.547 14.7581C174.617 14.6884 174.698 14.6336 174.791 14.5938C174.887 14.5506 174.988 14.5291 175.095 14.5291C175.204 14.5291 175.307 14.5506 175.403 14.5938C175.5 14.6336 175.583 14.6884 175.652 14.7581C175.725 14.8279 175.784 14.9109 175.827 15.0071C175.87 15.1034 175.891 15.2063 175.891 15.3159ZM178.221 14.5141V21.9141H176.991V14.5141H178.221ZM184.986 17.8008C184.952 17.8539 184.918 17.8921 184.881 17.9153C184.845 17.9352 184.798 17.9452 184.742 17.9452C184.682 17.9452 184.617 17.9286 184.547 17.8954C184.481 17.8622 184.403 17.8257 184.313 17.7858C184.224 17.7427 184.121 17.7045 184.005 17.6713C183.892 17.6381 183.757 17.6215 183.601 17.6215C183.359 17.6215 183.168 17.673 183.029 17.7759C182.893 17.8788 182.824 18.0132 182.824 18.1792C182.824 18.2888 182.859 18.3817 182.929 18.4581C183.002 18.5311 183.097 18.5959 183.213 18.6523C183.332 18.7088 183.467 18.7602 183.616 18.8067C183.766 18.8498 183.917 18.898 184.069 18.9511C184.225 19.0042 184.378 19.0656 184.528 19.1354C184.677 19.2017 184.81 19.2881 184.926 19.3943C185.045 19.4972 185.14 19.6217 185.21 19.7678C185.283 19.9139 185.319 20.0898 185.319 20.2956C185.319 20.5413 185.274 20.7687 185.185 20.9779C185.099 21.1837 184.969 21.363 184.796 21.5157C184.624 21.6651 184.41 21.7829 184.154 21.8692C183.902 21.9522 183.61 21.9937 183.278 21.9937C183.102 21.9937 182.929 21.9771 182.76 21.9439C182.594 21.9141 182.433 21.8709 182.277 21.8145C182.124 21.758 181.981 21.6916 181.848 21.6153C181.719 21.5389 181.604 21.4559 181.505 21.3663L181.789 20.8982C181.825 20.8418 181.868 20.7986 181.918 20.7687C181.968 20.7388 182.031 20.7239 182.107 20.7239C182.184 20.7239 182.255 20.7455 182.321 20.7886C182.391 20.8318 182.471 20.8783 182.561 20.9281C182.65 20.9779 182.755 21.0243 182.874 21.0675C182.997 21.1107 183.151 21.1322 183.337 21.1322C183.483 21.1322 183.608 21.1156 183.711 21.0824C183.817 21.0459 183.903 20.9994 183.97 20.943C184.04 20.8866 184.089 20.8218 184.119 20.7488C184.152 20.6724 184.169 20.5944 184.169 20.5147C184.169 20.3952 184.132 20.2973 184.059 20.2209C183.99 20.1446 183.895 20.0782 183.776 20.0218C183.659 19.9653 183.525 19.9155 183.372 19.8724C183.223 19.8259 183.068 19.7761 182.909 19.723C182.753 19.6698 182.599 19.6084 182.446 19.5387C182.297 19.4657 182.162 19.3744 182.043 19.2648C181.926 19.1553 181.832 19.0208 181.759 18.8615C181.689 18.7021 181.654 18.5096 181.654 18.2838C181.654 18.0747 181.696 17.8755 181.779 17.6862C181.862 17.497 181.983 17.3327 182.142 17.1932C182.305 17.0505 182.506 16.9376 182.745 16.8546C182.987 16.7683 183.266 16.7251 183.581 16.7251C183.933 16.7251 184.254 16.7832 184.542 16.8994C184.831 17.0156 185.072 17.1683 185.265 17.3576L184.986 17.8008ZM187.475 20.5894C187.615 20.7588 187.766 20.8783 187.928 20.948C188.094 21.0177 188.274 21.0526 188.466 21.0526C188.652 21.0526 188.82 21.0177 188.969 20.948C189.118 20.8783 189.245 20.772 189.347 20.6293C189.454 20.4865 189.535 20.3073 189.591 20.0915C189.648 19.8724 189.676 19.6151 189.676 19.3196C189.676 19.0208 189.651 18.7685 189.601 18.5627C189.555 18.3535 189.487 18.1842 189.397 18.0547C189.308 17.9253 189.198 17.8307 189.069 17.7709C188.942 17.7111 188.798 17.6813 188.635 17.6813C188.38 17.6813 188.162 17.736 187.983 17.8456C187.804 17.9518 187.634 18.1029 187.475 18.2988V20.5894ZM187.41 17.502C187.62 17.2663 187.857 17.0754 188.122 16.9293C188.388 16.7832 188.7 16.7102 189.059 16.7102C189.338 16.7102 189.591 16.7683 189.821 16.8845C190.053 17.0007 190.252 17.17 190.418 17.3924C190.587 17.6115 190.717 17.8838 190.807 18.2091C190.9 18.5311 190.946 18.9013 190.946 19.3196C190.946 19.7014 190.895 20.0549 190.792 20.3803C190.689 20.7056 190.541 20.9878 190.348 21.2269C190.159 21.4659 189.928 21.6535 189.656 21.7896C189.387 21.9224 189.085 21.9888 188.75 21.9888C188.464 21.9888 188.22 21.9456 188.018 21.8593C187.815 21.7696 187.634 21.6468 187.475 21.4908V23.5823H186.245V16.8048H186.997C187.156 16.8048 187.261 16.8795 187.311 17.0289L187.41 17.502ZM193.18 16.8048V21.9141H191.946V16.8048H193.18ZM193.35 15.3159C193.35 15.4221 193.328 15.5217 193.285 15.6147C193.242 15.7076 193.184 15.7889 193.111 15.8587C193.041 15.9284 192.958 15.9848 192.862 16.028C192.766 16.0678 192.663 16.0877 192.553 16.0877C192.447 16.0877 192.346 16.0678 192.249 16.028C192.156 15.9848 192.075 15.9284 192.005 15.8587C191.936 15.7889 191.879 15.7076 191.836 15.6147C191.796 15.5217 191.776 15.4221 191.776 15.3159C191.776 15.2063 191.796 15.1034 191.836 15.0071C191.879 14.9109 191.936 14.8279 192.005 14.7581C192.075 14.6884 192.156 14.6336 192.249 14.5938C192.346 14.5506 192.447 14.5291 192.553 14.5291C192.663 14.5291 192.766 14.5506 192.862 14.5938C192.958 14.6336 193.041 14.6884 193.111 14.7581C193.184 14.8279 193.242 14.9109 193.285 15.0071C193.328 15.1034 193.35 15.2063 193.35 15.3159ZM195.679 14.5141V21.9141H194.449V14.5141H195.679ZM198.15 14.5141V21.9141H196.92V14.5141H198.15ZM202.493 17.8008C202.459 17.8539 202.425 17.8921 202.388 17.9153C202.352 17.9352 202.305 17.9452 202.249 17.9452C202.189 17.9452 202.124 17.9286 202.054 17.8954C201.988 17.8622 201.91 17.8257 201.82 17.7858C201.731 17.7427 201.628 17.7045 201.512 17.6713C201.399 17.6381 201.264 17.6215 201.108 17.6215C200.866 17.6215 200.675 17.673 200.536 17.7759C200.399 17.8788 200.331 18.0132 200.331 18.1792C200.331 18.2888 200.366 18.3817 200.436 18.4581C200.509 18.5311 200.604 18.5959 200.72 18.6523C200.839 18.7088 200.974 18.7602 201.123 18.8067C201.273 18.8498 201.424 18.898 201.576 18.9511C201.732 19.0042 201.885 19.0656 202.035 19.1354C202.184 19.2017 202.317 19.2881 202.433 19.3943C202.552 19.4972 202.647 19.6217 202.717 19.7678C202.79 19.9139 202.826 20.0898 202.826 20.2956C202.826 20.5413 202.781 20.7687 202.692 20.9779C202.606 21.1837 202.476 21.363 202.303 21.5157C202.131 21.6651 201.917 21.7829 201.661 21.8692C201.409 21.9522 201.117 21.9937 200.785 21.9937C200.609 21.9937 200.436 21.9771 200.267 21.9439C200.101 21.9141 199.94 21.8709 199.784 21.8145C199.631 21.758 199.488 21.6916 199.355 21.6153C199.226 21.5389 199.111 21.4559 199.012 21.3663L199.296 20.8982C199.332 20.8418 199.375 20.7986 199.425 20.7687C199.475 20.7388 199.538 20.7239 199.614 20.7239C199.691 20.7239 199.762 20.7455 199.828 20.7886C199.898 20.8318 199.978 20.8783 200.068 20.9281C200.157 20.9779 200.262 21.0243 200.381 21.0675C200.504 21.1107 200.658 21.1322 200.844 21.1322C200.99 21.1322 201.115 21.1156 201.218 21.0824C201.324 21.0459 201.41 20.9994 201.477 20.943C201.547 20.8866 201.596 20.8218 201.626 20.7488C201.659 20.6724 201.676 20.5944 201.676 20.5147C201.676 20.3952 201.639 20.2973 201.566 20.2209C201.497 20.1446 201.402 20.0782 201.283 20.0218C201.166 19.9653 201.032 19.9155 200.879 19.8724C200.73 19.8259 200.575 19.7761 200.416 19.723C200.26 19.6698 200.106 19.6084 199.953 19.5387C199.804 19.4657 199.669 19.3744 199.55 19.2648C199.433 19.1553 199.339 19.0208 199.266 18.8615C199.196 18.7021 199.161 18.5096 199.161 18.2838C199.161 18.0747 199.203 17.8755 199.286 17.6862C199.369 17.497 199.49 17.3327 199.649 17.1932C199.812 17.0505 200.013 16.9376 200.252 16.8546C200.494 16.7683 200.773 16.7251 201.088 16.7251C201.44 16.7251 201.761 16.7832 202.049 16.8994C202.338 17.0156 202.579 17.1683 202.772 17.3576L202.493 17.8008ZM141.08 29.8854C141.044 29.9319 141.007 29.9684 140.971 29.995C140.937 30.0215 140.888 30.0348 140.821 30.0348C140.758 30.0348 140.697 30.0166 140.637 29.98C140.577 29.9402 140.506 29.8971 140.423 29.8506C140.34 29.8008 140.24 29.7576 140.124 29.7211C140.011 29.6813 139.87 29.6613 139.701 29.6613C139.485 29.6613 139.296 29.7012 139.133 29.7809C138.97 29.8572 138.834 29.9684 138.725 30.1145C138.618 30.2606 138.539 30.4382 138.486 30.6473C138.433 30.8532 138.406 31.0872 138.406 31.3495C138.406 31.6217 138.434 31.8641 138.491 32.0765C138.55 32.289 138.635 32.4683 138.745 32.6143C138.854 32.7571 138.987 32.8667 139.143 32.943C139.299 33.016 139.475 33.0526 139.671 33.0526C139.867 33.0526 140.024 33.0293 140.144 32.9828C140.267 32.933 140.37 32.8799 140.453 32.8235C140.536 32.7637 140.607 32.7106 140.667 32.6641C140.73 32.6143 140.8 32.5894 140.876 32.5894C140.976 32.5894 141.05 32.6276 141.1 32.704L141.454 33.1522C141.318 33.3115 141.17 33.446 141.01 33.5555C140.851 33.6618 140.685 33.7481 140.512 33.8145C140.343 33.8775 140.167 33.9224 139.985 33.9489C139.805 33.9755 139.626 33.9888 139.447 33.9888C139.131 33.9888 138.834 33.9307 138.555 33.8145C138.277 33.695 138.033 33.5223 137.823 33.2966C137.614 33.0708 137.448 32.7953 137.325 32.4699C137.206 32.1413 137.146 31.7678 137.146 31.3495C137.146 30.9743 137.199 30.6274 137.305 30.3087C137.415 29.9867 137.574 29.7095 137.784 29.4771C137.993 29.2414 138.252 29.0571 138.56 28.9243C138.869 28.7915 139.224 28.7251 139.626 28.7251C140.008 28.7251 140.341 28.7866 140.627 28.9094C140.916 29.0322 141.175 29.2082 141.404 29.4373L141.08 29.8854ZM144.924 31.7329C144.569 31.7495 144.27 31.7811 144.027 31.8275C143.785 31.8707 143.591 31.9271 143.445 31.9969C143.299 32.0666 143.194 32.1479 143.131 32.2409C143.068 32.3338 143.036 32.4351 143.036 32.5446C143.036 32.7604 143.1 32.9148 143.226 33.0077C143.355 33.1007 143.523 33.1472 143.729 33.1472C143.981 33.1472 144.198 33.1024 144.381 33.0127C144.567 32.9198 144.748 32.7803 144.924 32.5944V31.7329ZM142.105 29.5169C142.693 28.9791 143.4 28.7102 144.227 28.7102C144.525 28.7102 144.793 28.76 145.028 28.8596C145.264 28.9559 145.463 29.092 145.626 29.2679C145.789 29.4406 145.911 29.6481 145.994 29.8904C146.081 30.1328 146.124 30.3983 146.124 30.6872V33.9141H145.566C145.45 33.9141 145.36 33.8975 145.297 33.8643C145.234 33.8277 145.184 33.7564 145.148 33.6501L145.038 33.2816C144.909 33.3978 144.783 33.5007 144.66 33.5904C144.537 33.6767 144.409 33.7497 144.276 33.8095C144.144 33.8692 144.001 33.9141 143.848 33.9439C143.699 33.9771 143.533 33.9937 143.35 33.9937C143.134 33.9937 142.935 33.9655 142.753 33.9091C142.57 33.8493 142.412 33.7613 142.28 33.6452C142.147 33.529 142.044 33.3845 141.971 33.2119C141.898 33.0393 141.861 32.8384 141.861 32.6094C141.861 32.4799 141.883 32.3521 141.926 32.2259C141.969 32.0964 142.039 31.9736 142.135 31.8574C142.235 31.7412 142.363 31.6317 142.519 31.5288C142.675 31.4258 142.865 31.3362 143.091 31.2598C143.32 31.1835 143.586 31.1221 143.888 31.0756C144.19 31.0258 144.535 30.9959 144.924 30.986V30.6872C144.924 30.3452 144.851 30.0929 144.705 29.9302C144.559 29.7643 144.348 29.6813 144.072 29.6813C143.873 29.6813 143.707 29.7045 143.574 29.751C143.445 29.7975 143.33 29.8506 143.231 29.9103C143.131 29.9668 143.04 30.0182 142.957 30.0647C142.877 30.1112 142.787 30.1344 142.688 30.1344C142.602 30.1344 142.528 30.1128 142.469 30.0697C142.409 30.0232 142.361 29.9701 142.324 29.9103L142.105 29.5169ZM151.684 28.8048V33.9141H150.932C150.77 33.9141 150.667 33.8394 150.624 33.69L150.539 33.2816C150.33 33.4941 150.099 33.6667 149.847 33.7995C149.595 33.929 149.297 33.9937 148.956 33.9937C148.677 33.9937 148.429 33.9473 148.214 33.8543C148.001 33.758 147.822 33.6236 147.676 33.4509C147.53 33.2783 147.418 33.0741 147.342 32.8384C147.269 32.5994 147.233 32.3371 147.233 32.0516V28.8048H148.463V32.0516C148.463 32.3637 148.534 32.606 148.677 32.7787C148.823 32.948 149.04 33.0326 149.329 33.0326C149.541 33.0326 149.741 32.9862 149.927 32.8932C150.112 32.7969 150.288 32.6658 150.454 32.4998V28.8048H151.684ZM156.021 29.8008C155.988 29.8539 155.953 29.8921 155.917 29.9153C155.88 29.9352 155.834 29.9452 155.777 29.9452C155.718 29.9452 155.653 29.9286 155.583 29.8954C155.517 29.8622 155.439 29.8257 155.349 29.7858C155.259 29.7427 155.157 29.7045 155.04 29.6713C154.927 29.6381 154.793 29.6215 154.637 29.6215C154.395 29.6215 154.204 29.673 154.064 29.7759C153.928 29.8788 153.86 30.0132 153.86 30.1792C153.86 30.2888 153.895 30.3817 153.965 30.4581C154.038 30.5311 154.132 30.5959 154.249 30.6523C154.368 30.7088 154.502 30.7602 154.652 30.8067C154.801 30.8498 154.952 30.898 155.105 30.9511C155.261 31.0042 155.414 31.0656 155.563 31.1354C155.713 31.2017 155.845 31.2881 155.962 31.3943C156.081 31.4972 156.176 31.6217 156.245 31.7678C156.318 31.9139 156.355 32.0898 156.355 32.2956C156.355 32.5413 156.31 32.7687 156.221 32.9779C156.134 33.1837 156.005 33.363 155.832 33.5157C155.659 33.6651 155.445 33.7829 155.19 33.8692C154.937 33.9522 154.645 33.9937 154.313 33.9937C154.137 33.9937 153.965 33.9771 153.795 33.9439C153.629 33.9141 153.468 33.8709 153.312 33.8145C153.16 33.758 153.017 33.6916 152.884 33.6153C152.755 33.5389 152.64 33.4559 152.54 33.3663L152.824 32.8982C152.861 32.8418 152.904 32.7986 152.954 32.7687C153.004 32.7388 153.067 32.7239 153.143 32.7239C153.219 32.7239 153.291 32.7455 153.357 32.7886C153.427 32.8318 153.507 32.8783 153.596 32.9281C153.686 32.9779 153.79 33.0243 153.91 33.0675C154.033 33.1107 154.187 33.1322 154.373 33.1322C154.519 33.1322 154.644 33.1156 154.747 33.0824C154.853 33.0459 154.939 32.9994 155.005 32.943C155.075 32.8866 155.125 32.8218 155.155 32.7488C155.188 32.6724 155.205 32.5944 155.205 32.5147C155.205 32.3952 155.168 32.2973 155.095 32.2209C155.025 32.1446 154.931 32.0782 154.811 32.0218C154.695 31.9653 154.561 31.9155 154.408 31.8724C154.258 31.8259 154.104 31.7761 153.945 31.723C153.789 31.6698 153.634 31.6084 153.482 31.5387C153.332 31.4657 153.198 31.3744 153.078 31.2648C152.962 31.1553 152.867 31.0208 152.794 30.8615C152.725 30.7021 152.69 30.5096 152.69 30.2838C152.69 30.0747 152.731 29.8755 152.814 29.6862C152.897 29.497 153.019 29.3327 153.178 29.1932C153.341 29.0505 153.541 28.9376 153.78 28.8546C154.023 28.7683 154.302 28.7251 154.617 28.7251C154.969 28.7251 155.289 28.7832 155.578 28.8994C155.867 29.0156 156.108 29.1683 156.3 29.3576L156.021 29.8008ZM160.572 30.7718C160.572 30.6125 160.549 30.4631 160.503 30.3237C160.459 30.1809 160.393 30.0564 160.303 29.9502C160.214 29.8439 160.099 29.7609 159.96 29.7012C159.824 29.6381 159.664 29.6066 159.482 29.6066C159.127 29.6066 158.846 29.7078 158.64 29.9103C158.438 30.1128 158.308 30.4 158.252 30.7718H160.572ZM158.227 31.5138C158.247 31.7761 158.293 32.0035 158.366 32.196C158.439 32.3853 158.536 32.543 158.655 32.6691C158.775 32.792 158.916 32.8849 159.078 32.948C159.244 33.0077 159.427 33.0376 159.626 33.0376C159.825 33.0376 159.996 33.0144 160.139 32.9679C160.285 32.9214 160.411 32.87 160.518 32.8135C160.627 32.7571 160.722 32.7056 160.801 32.6592C160.884 32.6127 160.964 32.5894 161.04 32.5894C161.143 32.5894 161.22 32.6276 161.27 32.704L161.623 33.1522C161.487 33.3115 161.334 33.446 161.165 33.5555C160.996 33.6618 160.818 33.7481 160.632 33.8145C160.45 33.8775 160.262 33.9224 160.069 33.9489C159.88 33.9755 159.696 33.9888 159.517 33.9888C159.161 33.9888 158.831 33.9307 158.526 33.8145C158.22 33.695 157.955 33.5207 157.729 33.2916C157.503 33.0592 157.326 32.7737 157.196 32.4351C157.067 32.0931 157.002 31.6981 157.002 31.2499C157.002 30.9013 157.058 30.5743 157.171 30.2689C157.284 29.9601 157.445 29.6929 157.654 29.4671C157.867 29.2381 158.124 29.0571 158.426 28.9243C158.732 28.7915 159.075 28.7251 159.457 28.7251C159.779 28.7251 160.076 28.7766 160.348 28.8795C160.621 28.9824 160.855 29.1335 161.05 29.3327C161.246 29.5285 161.399 29.7709 161.509 30.0597C161.621 30.3452 161.678 30.6722 161.678 31.0407C161.678 31.2266 161.658 31.3528 161.618 31.4192C161.578 31.4823 161.502 31.5138 161.389 31.5138H158.227ZM165.808 30.1095C165.668 29.9402 165.516 29.8207 165.35 29.751C165.187 29.6813 165.011 29.6464 164.822 29.6464C164.636 29.6464 164.468 29.6813 164.319 29.751C164.17 29.8207 164.042 29.9269 163.935 30.0697C163.829 30.2091 163.748 30.3884 163.691 30.6075C163.635 30.8233 163.607 31.0789 163.607 31.3744C163.607 31.6732 163.63 31.9271 163.677 32.1363C163.726 32.3421 163.796 32.5114 163.886 32.6442C163.975 32.7737 164.085 32.8683 164.214 32.9281C164.344 32.9845 164.488 33.0127 164.648 33.0127C164.903 33.0127 165.121 32.9596 165.3 32.8534C165.479 32.7471 165.649 32.5961 165.808 32.4002V30.1095ZM167.038 26.5141V33.9141H166.286C166.123 33.9141 166.02 33.8394 165.977 33.69L165.873 33.197C165.667 33.4327 165.429 33.6236 165.161 33.7696C164.895 33.9157 164.585 33.9888 164.229 33.9888C163.95 33.9888 163.695 33.9307 163.462 33.8145C163.23 33.6983 163.029 33.5306 162.86 33.3115C162.694 33.0891 162.564 32.8152 162.471 32.4898C162.382 32.1645 162.337 31.7927 162.337 31.3744C162.337 30.9959 162.388 30.644 162.491 30.3187C162.594 29.9933 162.742 29.7111 162.935 29.4721C163.127 29.2331 163.358 29.0472 163.627 28.9144C163.896 28.7783 164.198 28.7102 164.533 28.7102C164.819 28.7102 165.063 28.755 165.265 28.8447C165.468 28.9343 165.649 29.0555 165.808 29.2082V26.5141H167.038ZM171.904 32.5894C172.043 32.7588 172.194 32.8783 172.357 32.948C172.523 33.0177 172.697 33.0526 172.88 33.0526C173.069 33.0526 173.238 33.0194 173.388 32.953C173.54 32.8833 173.67 32.777 173.776 32.6343C173.882 32.4882 173.964 32.3039 174.02 32.0815C174.076 31.8558 174.105 31.5869 174.105 31.2748C174.105 30.7137 174.012 30.3087 173.826 30.0597C173.64 29.8074 173.373 29.6813 173.024 29.6813C172.788 29.6813 172.582 29.736 172.407 29.8456C172.231 29.9518 172.063 30.1029 171.904 30.2988V32.5894ZM171.904 29.4323C172.109 29.2165 172.337 29.0455 172.586 28.9194C172.838 28.7899 173.125 28.7251 173.447 28.7251C173.743 28.7251 174.008 28.7832 174.244 28.8994C174.483 29.0156 174.686 29.1833 174.852 29.4024C175.021 29.6182 175.15 29.8805 175.24 30.1892C175.33 30.4979 175.374 30.8449 175.374 31.23C175.374 31.6449 175.323 32.0218 175.22 32.3604C175.117 32.699 174.969 32.9895 174.777 33.2318C174.588 33.4709 174.359 33.6568 174.09 33.7896C173.821 33.9224 173.522 33.9888 173.193 33.9888C173.034 33.9888 172.89 33.9722 172.76 33.939C172.631 33.9091 172.511 33.8659 172.402 33.8095C172.292 33.7531 172.191 33.685 172.098 33.6053C172.008 33.5223 171.922 33.431 171.839 33.3314L171.784 33.675C171.764 33.7613 171.729 33.8228 171.679 33.8593C171.633 33.8958 171.568 33.9141 171.485 33.9141H170.674V26.5141H171.904V29.4323ZM180.82 28.8048L178.036 35.3184C177.999 35.4047 177.951 35.4694 177.892 35.5126C177.835 35.559 177.747 35.5823 177.628 35.5823H176.711L177.668 33.5306L175.601 28.8048H176.682C176.778 28.8048 176.852 28.8281 176.906 28.8745C176.962 28.921 177.004 28.9741 177.03 29.0339L178.116 31.6831C178.152 31.7728 178.182 31.8624 178.205 31.952C178.232 32.0417 178.257 32.133 178.28 32.2259C178.31 32.133 178.34 32.0417 178.37 31.952C178.4 31.8591 178.433 31.7678 178.469 31.6781L179.495 29.0339C179.522 28.9675 179.565 28.9127 179.625 28.8696C179.688 28.8264 179.757 28.8048 179.834 28.8048H180.82ZM187.628 28.023C187.588 28.0927 187.545 28.1442 187.499 28.1774C187.456 28.2073 187.401 28.2222 187.334 28.2222C187.265 28.2222 187.188 28.1973 187.105 28.1475C187.026 28.0944 186.929 28.0363 186.817 27.9732C186.704 27.9101 186.571 27.8537 186.418 27.8039C186.269 27.7508 186.091 27.7242 185.885 27.7242C185.699 27.7242 185.537 27.7475 185.397 27.7939C185.258 27.8371 185.14 27.8985 185.044 27.9782C184.951 28.0579 184.881 28.1541 184.835 28.267C184.788 28.3766 184.765 28.4977 184.765 28.6305C184.765 28.7998 184.811 28.9409 184.904 29.0538C185.001 29.1667 185.127 29.263 185.283 29.3426C185.439 29.4223 185.616 29.4937 185.816 29.5568C186.015 29.6198 186.219 29.6879 186.428 29.7609C186.637 29.8307 186.841 29.9137 187.041 30.0099C187.24 30.1029 187.417 30.2224 187.573 30.3685C187.729 30.5112 187.854 30.6872 187.947 30.8963C188.043 31.1055 188.091 31.3594 188.091 31.6582C188.091 31.9836 188.035 32.289 187.922 32.5745C187.812 32.8567 187.65 33.104 187.434 33.3165C187.222 33.5256 186.961 33.6916 186.652 33.8145C186.343 33.934 185.99 33.9937 185.591 33.9937C185.362 33.9937 185.137 33.9705 184.914 33.924C184.692 33.8809 184.478 33.8178 184.272 33.7348C184.069 33.6518 183.878 33.5522 183.699 33.436C183.52 33.3198 183.361 33.1903 183.221 33.0476L183.615 32.4052C183.648 32.3587 183.691 32.3205 183.744 32.2907C183.797 32.2575 183.854 32.2409 183.913 32.2409C183.996 32.2409 184.086 32.2757 184.182 32.3454C184.278 32.4118 184.393 32.4865 184.526 32.5695C184.659 32.6525 184.813 32.7289 184.989 32.7986C185.168 32.865 185.382 32.8982 185.631 32.8982C186.013 32.8982 186.309 32.8086 186.518 32.6293C186.727 32.4467 186.831 32.1861 186.831 31.8475C186.831 31.6582 186.783 31.5039 186.687 31.3843C186.594 31.2648 186.47 31.1652 186.314 31.0856C186.158 31.0026 185.98 30.9328 185.781 30.8764C185.582 30.82 185.379 30.7586 185.173 30.6922C184.967 30.6258 184.765 30.5461 184.566 30.4531C184.366 30.3602 184.189 30.239 184.033 30.0896C183.877 29.9402 183.751 29.7543 183.654 29.5319C183.561 29.3061 183.515 29.0289 183.515 28.7002C183.515 28.438 183.566 28.1824 183.669 27.9334C183.776 27.6844 183.928 27.4636 184.127 27.2711C184.327 27.0785 184.572 26.9241 184.864 26.8079C185.157 26.6917 185.492 26.6336 185.87 26.6336C186.295 26.6336 186.687 26.7 187.046 26.8328C187.404 26.9656 187.71 27.1515 187.962 27.3906L187.628 28.023ZM190.228 29.3526C190.427 29.1667 190.646 29.0156 190.885 28.8994C191.124 28.7832 191.404 28.7251 191.726 28.7251C192.005 28.7251 192.253 28.7733 192.468 28.8696C192.684 28.9625 192.864 29.0953 193.006 29.2679C193.152 29.4373 193.262 29.6414 193.335 29.8805C193.411 30.1162 193.449 30.3768 193.449 30.6623V33.9141H192.219V30.6623C192.219 30.3502 192.148 30.1095 192.005 29.9402C191.863 29.7676 191.645 29.6813 191.353 29.6813C191.141 29.6813 190.941 29.7294 190.755 29.8257C190.57 29.9219 190.394 30.0531 190.228 30.2191V33.9141H188.998V26.5141H190.228V29.3526ZM197.911 30.7718C197.911 30.6125 197.888 30.4631 197.841 30.3237C197.798 30.1809 197.732 30.0564 197.642 29.9502C197.552 29.8439 197.438 29.7609 197.298 29.7012C197.162 29.6381 197.003 29.6066 196.82 29.6066C196.465 29.6066 196.185 29.7078 195.979 29.9103C195.776 30.1128 195.647 30.4 195.59 30.7718H197.911ZM195.565 31.5138C195.585 31.7761 195.632 32.0035 195.705 32.196C195.778 32.3853 195.874 32.543 195.994 32.6691C196.113 32.792 196.254 32.8849 196.417 32.948C196.583 33.0077 196.766 33.0376 196.965 33.0376C197.164 33.0376 197.335 33.0144 197.478 32.9679C197.624 32.9214 197.75 32.87 197.856 32.8135C197.966 32.7571 198.06 32.7056 198.14 32.6592C198.223 32.6127 198.303 32.5894 198.379 32.5894C198.482 32.5894 198.558 32.6276 198.608 32.704L198.962 33.1522C198.826 33.3115 198.673 33.446 198.503 33.5555C198.334 33.6618 198.157 33.7481 197.971 33.8145C197.788 33.8775 197.6 33.9224 197.408 33.9489C197.219 33.9755 197.034 33.9888 196.855 33.9888C196.5 33.9888 196.17 33.9307 195.864 33.8145C195.559 33.695 195.293 33.5207 195.067 33.2916C194.842 33.0592 194.664 32.7737 194.535 32.4351C194.405 32.0931 194.34 31.6981 194.34 31.2499C194.34 30.9013 194.397 30.5743 194.51 30.2689C194.623 29.9601 194.784 29.6929 194.993 29.4671C195.205 29.2381 195.463 29.0571 195.765 28.9243C196.07 28.7915 196.414 28.7251 196.795 28.7251C197.117 28.7251 197.415 28.7766 197.687 28.8795C197.959 28.9824 198.193 29.1335 198.389 29.3327C198.585 29.5285 198.738 29.7709 198.847 30.0597C198.96 30.3452 199.016 30.6722 199.016 31.0407C199.016 31.2266 198.996 31.3528 198.957 31.4192C198.917 31.4823 198.84 31.5138 198.728 31.5138H195.565ZM201.184 26.5141V33.9141H199.954V26.5141H201.184ZM203.655 26.5141V33.9141H202.425V26.5141H203.655ZM204.86 35.1341C204.801 35.0843 204.771 35.0229 204.771 34.9499C204.771 34.9233 204.779 34.8934 204.796 34.8602C204.816 34.827 204.839 34.7971 204.865 34.7706C204.902 34.7307 204.947 34.6809 205 34.6212C205.053 34.5648 205.106 34.4984 205.159 34.422C205.212 34.349 205.26 34.2676 205.304 34.178C205.35 34.0917 205.385 33.9987 205.408 33.8991C205.302 33.8991 205.206 33.8809 205.119 33.8443C205.033 33.8045 204.958 33.7514 204.895 33.685C204.835 33.6186 204.787 33.5406 204.751 33.4509C204.718 33.3613 204.701 33.2634 204.701 33.1571C204.701 33.0642 204.718 32.9779 204.751 32.8982C204.787 32.8152 204.837 32.7438 204.9 32.6841C204.963 32.621 205.04 32.5728 205.129 32.5396C205.219 32.5031 205.317 32.4849 205.423 32.4849C205.549 32.4849 205.659 32.5081 205.752 32.5546C205.848 32.5977 205.926 32.6592 205.986 32.7388C206.049 32.8152 206.095 32.9048 206.125 33.0077C206.158 33.1073 206.175 33.2136 206.175 33.3265C206.175 33.4858 206.15 33.6535 206.1 33.8294C206.054 34.0054 205.984 34.1813 205.891 34.3573C205.798 34.5332 205.682 34.7042 205.543 34.8702C205.407 35.0362 205.25 35.1889 205.075 35.3283L204.86 35.1341ZM138.665 38.5141V45.9141H137.435V38.5141H138.665ZM143.182 42.7718C143.182 42.6125 143.159 42.4631 143.112 42.3237C143.069 42.1809 143.003 42.0564 142.913 41.9502C142.824 41.8439 142.709 41.7609 142.57 41.7012C142.433 41.6381 142.274 41.6066 142.092 41.6066C141.736 41.6066 141.456 41.7078 141.25 41.9103C141.047 42.1128 140.918 42.4 140.862 42.7718H143.182ZM140.837 43.5138C140.857 43.7761 140.903 44.0035 140.976 44.196C141.049 44.3853 141.145 44.543 141.265 44.6691C141.384 44.792 141.525 44.8849 141.688 44.948C141.854 45.0077 142.037 45.0376 142.236 45.0376C142.435 45.0376 142.606 45.0144 142.749 44.9679C142.895 44.9214 143.021 44.87 143.127 44.8135C143.237 44.7571 143.331 44.7056 143.411 44.6592C143.494 44.6127 143.574 44.5894 143.65 44.5894C143.753 44.5894 143.829 44.6276 143.879 44.704L144.233 45.1522C144.097 45.3115 143.944 45.446 143.775 45.5555C143.605 45.6618 143.428 45.7481 143.242 45.8145C143.059 45.8775 142.872 45.9224 142.679 45.9489C142.49 45.9755 142.306 45.9888 142.126 45.9888C141.771 45.9888 141.441 45.9307 141.135 45.8145C140.83 45.695 140.564 45.5207 140.339 45.2916C140.113 45.0592 139.935 44.7737 139.806 44.4351C139.676 44.0931 139.612 43.6981 139.612 43.2499C139.612 42.9013 139.668 42.5743 139.781 42.2689C139.894 41.9601 140.055 41.6929 140.264 41.4671C140.476 41.2381 140.734 41.0571 141.036 40.9243C141.341 40.7915 141.685 40.7251 142.067 40.7251C142.389 40.7251 142.686 40.7766 142.958 40.8795C143.23 40.9824 143.464 41.1335 143.66 41.3327C143.856 41.5285 144.009 41.7709 144.118 42.0597C144.231 42.3452 144.288 42.6722 144.288 43.0407C144.288 43.2266 144.268 43.3528 144.228 43.4192C144.188 43.4823 144.112 43.5138 143.999 43.5138H140.837ZM147.91 43.7329C147.554 43.7495 147.256 43.7811 147.013 43.8275C146.771 43.8707 146.577 43.9271 146.431 43.9969C146.285 44.0666 146.18 44.1479 146.117 44.2409C146.054 44.3338 146.022 44.4351 146.022 44.5446C146.022 44.7604 146.085 44.9148 146.212 45.0077C146.341 45.1007 146.509 45.1472 146.715 45.1472C146.967 45.1472 147.184 45.1024 147.367 45.0127C147.553 44.9198 147.734 44.7803 147.91 44.5944V43.7329ZM145.091 41.5169C145.679 40.9791 146.386 40.7102 147.213 40.7102C147.511 40.7102 147.779 40.76 148.014 40.8596C148.25 40.9559 148.449 41.092 148.612 41.2679C148.774 41.4406 148.897 41.6481 148.98 41.8904C149.067 42.1328 149.11 42.3983 149.11 42.6872V45.9141H148.552C148.436 45.9141 148.346 45.8975 148.283 45.8643C148.22 45.8277 148.17 45.7564 148.134 45.6501L148.024 45.2816C147.895 45.3978 147.769 45.5007 147.646 45.5904C147.523 45.6767 147.395 45.7497 147.262 45.8095C147.13 45.8692 146.987 45.9141 146.834 45.9439C146.685 45.9771 146.519 45.9937 146.336 45.9937C146.12 45.9937 145.921 45.9655 145.738 45.9091C145.556 45.8493 145.398 45.7613 145.265 45.6452C145.133 45.529 145.03 45.3845 144.957 45.2119C144.884 45.0393 144.847 44.8384 144.847 44.6094C144.847 44.4799 144.869 44.3521 144.912 44.2259C144.955 44.0964 145.025 43.9736 145.121 43.8574C145.221 43.7412 145.348 43.6317 145.504 43.5288C145.66 43.4258 145.851 43.3362 146.077 43.2598C146.306 43.1835 146.572 43.1221 146.874 43.0756C147.176 43.0258 147.521 42.9959 147.91 42.986V42.6872C147.91 42.3452 147.837 42.0929 147.691 41.9302C147.544 41.7643 147.334 41.6813 147.058 41.6813C146.859 41.6813 146.693 41.7045 146.56 41.751C146.431 41.7975 146.316 41.8506 146.217 41.9103C146.117 41.9668 146.026 42.0182 145.943 42.0647C145.863 42.1112 145.773 42.1344 145.674 42.1344C145.587 42.1344 145.514 42.1128 145.455 42.0697C145.395 42.0232 145.347 41.9701 145.31 41.9103L145.091 41.5169ZM153.475 42.1095C153.336 41.9402 153.183 41.8207 153.017 41.751C152.854 41.6813 152.678 41.6464 152.489 41.6464C152.303 41.6464 152.136 41.6813 151.986 41.751C151.837 41.8207 151.709 41.9269 151.603 42.0697C151.497 42.2091 151.415 42.3884 151.359 42.6075C151.302 42.8233 151.274 43.0789 151.274 43.3744C151.274 43.6732 151.297 43.9271 151.344 44.1363C151.394 44.3421 151.463 44.5114 151.553 44.6442C151.643 44.7737 151.752 44.8683 151.882 44.9281C152.011 44.9845 152.156 45.0127 152.315 45.0127C152.571 45.0127 152.788 44.9596 152.967 44.8534C153.147 44.7471 153.316 44.5961 153.475 44.4002V42.1095ZM154.705 38.5141V45.9141H153.953C153.791 45.9141 153.688 45.8394 153.644 45.69L153.54 45.197C153.334 45.4327 153.097 45.6236 152.828 45.7696C152.562 45.9157 152.252 45.9888 151.897 45.9888C151.618 45.9888 151.362 45.9307 151.13 45.8145C150.897 45.6983 150.696 45.5306 150.527 45.3115C150.361 45.0891 150.232 44.8152 150.139 44.4898C150.049 44.1645 150.004 43.7927 150.004 43.3744C150.004 42.9959 150.056 42.644 150.159 42.3187C150.262 41.9933 150.409 41.7111 150.602 41.4721C150.794 41.2331 151.025 41.0472 151.294 40.9144C151.563 40.7783 151.865 40.7102 152.2 40.7102C152.486 40.7102 152.73 40.755 152.932 40.8447C153.135 40.9343 153.316 41.0555 153.475 41.2082V38.5141H154.705ZM157.194 40.8048V45.9141H155.959V40.8048H157.194ZM157.363 39.3159C157.363 39.4221 157.342 39.5217 157.298 39.6147C157.255 39.7076 157.197 39.7889 157.124 39.8587C157.054 39.9284 156.971 39.9848 156.875 40.028C156.779 40.0678 156.676 40.0877 156.566 40.0877C156.46 40.0877 156.359 40.0678 156.263 40.028C156.17 39.9848 156.088 39.9284 156.019 39.8587C155.949 39.7889 155.893 39.7076 155.849 39.6147C155.81 39.5217 155.79 39.4221 155.79 39.3159C155.79 39.2063 155.81 39.1034 155.849 39.0071C155.893 38.9109 155.949 38.8279 156.019 38.7581C156.088 38.6884 156.17 38.6336 156.263 38.5938C156.359 38.5506 156.46 38.5291 156.566 38.5291C156.676 38.5291 156.779 38.5506 156.875 38.5938C156.971 38.6336 157.054 38.6884 157.124 38.7581C157.197 38.8279 157.255 38.9109 157.298 39.0071C157.342 39.1034 157.363 39.2063 157.363 39.3159ZM159.598 41.4323C159.701 41.3294 159.809 41.2347 159.922 41.1484C160.038 41.0588 160.159 40.9841 160.285 40.9243C160.415 40.8613 160.553 40.8131 160.699 40.7799C160.845 40.7434 161.004 40.7251 161.177 40.7251C161.456 40.7251 161.703 40.7733 161.919 40.8696C162.135 40.9625 162.314 41.0953 162.457 41.2679C162.603 41.4373 162.712 41.6414 162.785 41.8805C162.862 42.1162 162.9 42.3768 162.9 42.6623V45.9141H161.67V42.6623C161.67 42.3502 161.598 42.1095 161.456 41.9402C161.313 41.7676 161.095 41.6813 160.803 41.6813C160.591 41.6813 160.392 41.7294 160.206 41.8257C160.02 41.9219 159.844 42.0531 159.678 42.2191V45.9141H158.448V40.8048H159.2C159.359 40.8048 159.464 40.8795 159.514 41.0289L159.598 41.4323ZM165.937 43.2349C166.09 43.2349 166.222 43.215 166.335 43.1752C166.448 43.132 166.541 43.0739 166.614 43.0009C166.691 42.9279 166.747 42.8399 166.784 42.737C166.823 42.6341 166.843 42.5212 166.843 42.3983C166.843 42.146 166.767 41.9468 166.614 41.8008C166.465 41.6514 166.239 41.5767 165.937 41.5767C165.635 41.5767 165.407 41.6514 165.255 41.8008C165.105 41.9468 165.031 42.146 165.031 42.3983C165.031 42.5179 165.049 42.6291 165.085 42.732C165.125 42.8349 165.182 42.9245 165.255 43.0009C165.331 43.0739 165.426 43.132 165.539 43.1752C165.655 43.215 165.788 43.2349 165.937 43.2349ZM167.326 46.1431C167.326 46.0435 167.296 45.9622 167.237 45.8991C167.177 45.836 167.096 45.7879 166.993 45.7547C166.89 45.7182 166.769 45.6916 166.629 45.675C166.493 45.6584 166.347 45.6468 166.191 45.6402C166.038 45.6302 165.879 45.6219 165.713 45.6153C165.55 45.6086 165.391 45.5954 165.235 45.5754C165.099 45.6518 164.987 45.7414 164.901 45.8443C164.818 45.9473 164.777 46.0668 164.777 46.2029C164.777 46.2925 164.798 46.3755 164.841 46.4519C164.888 46.5316 164.959 46.5996 165.056 46.656C165.155 46.7125 165.283 46.7556 165.439 46.7855C165.595 46.8187 165.786 46.8353 166.012 46.8353C166.241 46.8353 166.438 46.8171 166.604 46.7805C166.77 46.7473 166.906 46.6992 167.013 46.6361C167.122 46.5764 167.202 46.5033 167.252 46.417C167.301 46.334 167.326 46.2427 167.326 46.1431ZM168.551 40.9791V41.4373C168.551 41.5833 168.463 41.673 168.287 41.7062L167.829 41.7908C167.899 41.9668 167.934 42.1593 167.934 42.3685C167.934 42.6208 167.882 42.8498 167.779 43.0557C167.68 43.2582 167.54 43.4308 167.361 43.5736C167.182 43.7163 166.969 43.8275 166.724 43.9072C166.481 43.9836 166.219 44.0218 165.937 44.0218C165.837 44.0218 165.741 44.0168 165.648 44.0068C165.555 43.9969 165.464 43.9836 165.374 43.967C165.215 44.0632 165.135 44.1711 165.135 44.2907C165.135 44.3936 165.182 44.4699 165.275 44.5197C165.371 44.5662 165.497 44.5994 165.653 44.6193C165.809 44.6392 165.987 44.6525 166.186 44.6592C166.385 44.6625 166.589 44.6724 166.798 44.689C167.008 44.7056 167.212 44.7355 167.411 44.7787C167.61 44.8185 167.788 44.8833 167.944 44.9729C168.1 45.0625 168.224 45.1854 168.317 45.3414C168.414 45.4941 168.462 45.6916 168.462 45.934C168.462 46.1597 168.405 46.3788 168.292 46.5913C168.183 46.8038 168.022 46.993 167.809 47.159C167.6 47.325 167.341 47.4578 167.033 47.5574C166.727 47.6603 166.379 47.7118 165.987 47.7118C165.602 47.7118 165.266 47.6736 164.981 47.5972C164.695 47.5242 164.458 47.4246 164.269 47.2984C164.08 47.1756 163.938 47.0329 163.845 46.8702C163.753 46.7075 163.706 46.5382 163.706 46.3622C163.706 46.1232 163.777 45.924 163.92 45.7647C164.066 45.602 164.265 45.4725 164.518 45.3762C164.382 45.3065 164.274 45.2136 164.194 45.0974C164.114 44.9812 164.075 44.8285 164.075 44.6392C164.075 44.5629 164.088 44.4849 164.114 44.4052C164.144 44.3222 164.186 44.2409 164.239 44.1612C164.295 44.0815 164.365 44.0068 164.448 43.9371C164.531 43.8641 164.629 43.7993 164.742 43.7429C164.483 43.6035 164.279 43.4175 164.129 43.1852C163.983 42.9528 163.91 42.6805 163.91 42.3685C163.91 42.1162 163.96 41.8888 164.06 41.6862C164.163 41.4804 164.304 41.3061 164.483 41.1634C164.665 41.0173 164.88 40.9061 165.125 40.8297C165.374 40.7534 165.645 40.7152 165.937 40.7152C166.156 40.7152 166.362 40.7384 166.554 40.7849C166.747 40.8281 166.923 40.8928 167.082 40.9791H168.551ZM173.456 45.9937C173.011 45.9937 172.669 45.8692 172.43 45.6203C172.195 45.3679 172.077 45.021 172.077 44.5795V41.7261H171.554C171.488 41.7261 171.431 41.7045 171.385 41.6613C171.338 41.6182 171.315 41.5534 171.315 41.4671V40.9791L172.137 40.8447L172.396 39.4503C172.412 39.3839 172.444 39.3325 172.49 39.296C172.537 39.2594 172.596 39.2412 172.669 39.2412H173.307V40.8496H174.671V41.7261H173.307V44.4948C173.307 44.6542 173.345 44.7787 173.421 44.8683C173.501 44.9579 173.609 45.0028 173.745 45.0028C173.821 45.0028 173.885 44.9945 173.934 44.9779C173.987 44.9579 174.032 44.938 174.069 44.9181C174.109 44.8982 174.143 44.8799 174.173 44.8633C174.203 44.8434 174.233 44.8335 174.263 44.8335C174.3 44.8335 174.329 44.8434 174.353 44.8633C174.376 44.8799 174.401 44.9065 174.427 44.943L174.796 45.5406C174.617 45.69 174.411 45.8028 174.178 45.8792C173.946 45.9556 173.705 45.9937 173.456 45.9937ZM177.681 40.7251C178.059 40.7251 178.403 40.7866 178.712 40.9094C179.024 41.0322 179.289 41.2065 179.508 41.4323C179.731 41.658 179.902 41.9336 180.021 42.2589C180.141 42.5843 180.201 42.9478 180.201 43.3495C180.201 43.7545 180.141 44.1197 180.021 44.445C179.902 44.7704 179.731 45.0476 179.508 45.2767C179.289 45.5057 179.024 45.6817 178.712 45.8045C178.403 45.9273 178.059 45.9888 177.681 45.9888C177.299 45.9888 176.952 45.9273 176.64 45.8045C176.328 45.6817 176.061 45.5057 175.838 45.2767C175.619 45.0476 175.448 44.7704 175.325 44.445C175.206 44.1197 175.146 43.7545 175.146 43.3495C175.146 42.9478 175.206 42.5843 175.325 42.2589C175.448 41.9336 175.619 41.658 175.838 41.4323C176.061 41.2065 176.328 41.0322 176.64 40.9094C176.952 40.7866 177.299 40.7251 177.681 40.7251ZM177.681 45.0426C178.106 45.0426 178.419 44.8999 178.622 44.6143C178.828 44.3288 178.931 43.9105 178.931 43.3594C178.931 42.8083 178.828 42.3884 178.622 42.0996C178.419 41.8107 178.106 41.6663 177.681 41.6663C177.249 41.6663 176.929 41.8124 176.72 42.1045C176.514 42.3934 176.411 42.8117 176.411 43.3594C176.411 43.9072 176.514 44.3255 176.72 44.6143C176.929 44.8999 177.249 45.0426 177.681 45.0426Z" fill="#212121"/>
<path d="M25.1917 34.0063C25.1917 34.0063 20.3563 41.345 20.212 56.2843C20.0677 71.2236 25.1917 78.5622 25.1917 78.5622C25.1917 78.5622 18.6086 71.8788 18.6086 56.2843C18.6086 40.6897 25.1917 34.0063 25.1917 34.0063Z" fill="#185F92"/>
<path d="M8.15571 32.1716C8.15571 32.1716 2.2719 39.5102 2.12757 54.4495C1.98324 69.3888 8.15571 76.7274 8.15571 76.7274C8.15571 76.7274 0.52417 70.0441 0.52417 54.4495C0.52417 38.855 8.15571 32.1716 8.15571 32.1716Z" fill="#185F92"/>
<path d="M49.0422 36.3652C49.0422 36.3652 44.2068 43.7038 44.0624 58.6431C43.9181 73.5824 49.0422 80.921 49.0422 80.921C49.0422 80.921 42.459 74.2377 42.459 58.6431C42.459 43.0486 49.0422 36.3652 49.0422 36.3652Z" fill="#185F92"/>
<path d="M77.8725 39.2483C77.8725 39.2483 73.037 46.5869 72.8927 61.5262C72.7484 76.4655 77.8725 83.8041 77.8725 83.8041C77.8725 83.8041 71.2893 77.1207 71.2893 61.5262C71.2893 45.9317 77.8725 39.2483 77.8725 39.2483Z" fill="#185F92"/>
</svg>
