<svg width="229" height="194" viewBox="0 0 229 194" fill="none" xmlns="http://www.w3.org/2000/svg">
<g clip-path="url(#clip0_6615_1045)">
<rect width="229" height="194" fill="white"/>
<path d="M101.171 5.5022L166.43 21.7357V102.776L101.171 126.914V5.5022Z" fill="#840032"/>
<path d="M162.64 16.8108L166.43 17.811V104.316L162.64 105.806V16.8108Z" fill="#8E0036"/>
<path d="M162.64 16.8108L158.956 17.9117V104.264L162.64 105.811V16.8108Z" fill="#70002B"/>
<mask id="mask0_6615_1045" style="mask-type:alpha" maskUnits="userSpaceOnUse" x="101" y="5" width="66" height="122">
<path d="M101.172 5.50098L166.431 21.7345V102.775L101.172 126.913V5.50098Z" fill="white"/>
</mask>
<g mask="url(#mask0_6615_1045)">
<rect x="107.243" y="5.56714" width="4.87622" height="121.351" transform="rotate(0.0792349 107.243 5.56714)" fill="#70002B"/>
<rect x="147.746" y="1.80469" width="4.87622" height="121.351" transform="rotate(0.0792349 147.746 1.80469)" fill="#70002B"/>
<rect x="134.582" y="3.33789" width="4.87622" height="121.351" transform="rotate(0.0792349 134.582 3.33789)" fill="#70002B"/>
<rect x="120.912" y="3.3186" width="4.87622" height="121.351" transform="rotate(0.0792349 120.912 3.3186)" fill="#70002B"/>
<path fill-rule="evenodd" clip-rule="evenodd" d="M158.885 26.531L101.206 13.2467L101.206 8.23682L157.255 21.8918L160.903 25.2561L158.885 26.531Z" fill="#5B0022"/>
<path fill-rule="evenodd" clip-rule="evenodd" d="M160.901 25.2439L106.36 12.4462L106.36 5.55493L160.901 18.473V25.2439Z" fill="#840032"/>
<path fill-rule="evenodd" clip-rule="evenodd" d="M107.167 114.966L158.884 97.7922L160.593 98.8712L107.167 117.121V114.966Z" fill="#8E0036"/>
<path fill-rule="evenodd" clip-rule="evenodd" d="M101.199 119.141L160.598 98.8584V106.644L101.198 126.88L101.199 119.141Z" fill="#840032"/>
</g>
<path d="M101.172 0.949219L107.242 2.52956V126.483L101.172 128.912V0.949219Z" fill="#840032"/>
<path d="M101.177 5.5022L0 35.6621V85.5888L101.177 126.914V5.5022Z" fill="#840032"/>
<path d="M3.64795 31.1123L7.4379 31.8211V87.4483L3.64795 88.408V31.1123Z" fill="#7C002F"/>
<path d="M3.64797 31.1123L0 32.275V86.8786L3.64797 88.408V31.1123Z" fill="#70002B"/>
<mask id="mask1_6615_1045" style="mask-type:alpha" maskUnits="userSpaceOnUse" x="0" y="5" width="102" height="122">
<path d="M101.177 5.50293L0 35.6629V85.5895L101.177 126.915V5.50293Z" fill="#3062A9"/>
</mask>
<g mask="url(#mask1_6615_1045)">
<rect x="76.4988" y="5.28882" width="4.79197" height="121.519" fill="#70002B"/>
<rect x="62.6865" y="5.28882" width="4.79197" height="121.519" fill="#70002B"/>
<rect x="48.875" y="5.28882" width="4.79197" height="121.519" fill="#70002B"/>
<rect x="90.311" y="5.44873" width="4.79197" height="121.519" fill="#70002B"/>
<rect x="21.2505" y="5.28882" width="4.79197" height="121.519" fill="#70002B"/>
<rect x="7.43823" y="5.44873" width="4.79197" height="121.519" fill="#70002B"/>
<rect x="35.062" y="5.28882" width="4.79197" height="121.519" fill="#70002B"/>
<path fill-rule="evenodd" clip-rule="evenodd" d="M5.18457 35.7078L101.171 7.02295V13.5191L7.25077 39.829L5.18457 38.6105V35.7078Z" fill="#5B0022"/>
<path fill-rule="evenodd" clip-rule="evenodd" d="M5.17914 33.9295L101.174 5.50293V11.3096L5.17914 38.5729V33.9295Z" fill="#840032"/>
<path fill-rule="evenodd" clip-rule="evenodd" d="M101.174 126.916L5.30396 87.9087V83.4377L101.174 119.198V126.916Z" fill="#840032"/>
<path d="M101.174 116.841V119.275L5.30762 83.4322L7.10589 82.7749L101.174 116.841Z" fill="#8E0036"/>
</g>
<mask id="mask2_6615_1045" style="mask-type:alpha" maskUnits="userSpaceOnUse" x="5" y="5" width="97" height="122">
<path fill-rule="evenodd" clip-rule="evenodd" d="M5.18481 35.7073L101.171 7.02246V13.5186L7.25101 39.8285L5.18481 38.61V35.7073Z" fill="#28579A"/>
<path fill-rule="evenodd" clip-rule="evenodd" d="M5.17987 33.929L101.175 5.50244V11.3091L5.17987 38.5724V33.929Z" fill="#367CCF"/>
<path fill-rule="evenodd" clip-rule="evenodd" d="M101.176 126.915L5.30542 87.9082V83.4373L101.176 119.198V126.915Z" fill="#367CCF"/>
<path d="M101.174 116.84V119.274L5.30835 83.4317L7.10663 82.7744L101.174 116.84Z" fill="#468ADB"/>
<path d="M101.17 5.55737L7.45013 33.4387L7.44995 88.6654L101.17 126.969V5.55737Z" fill="#004597"/>
</mask>
<g mask="url(#mask2_6615_1045)">
<path d="M101.177 5.50293L0 35.6629V85.5895L101.177 126.915V5.50293Z" fill="#410019" fill-opacity="0.41"/>
</g>
<path d="M101.174 0.949219L95.103 2.84092V126.323L101.174 128.912V0.949219Z" fill="#70002B"/>
<path d="M28.6209 62.2032V39.8274L12.821 62.2032L28.6209 84.579V62.2032Z" fill="#46001B"/>
<path fill-rule="evenodd" clip-rule="evenodd" d="M28.6201 70.7621L88.3552 81.0587V41.4167L28.6201 53.6448V70.7621Z" fill="#46001B"/>
<path d="M167.166 78.4924L127.987 88.2384V136.892L167.166 151.384V78.4924Z" fill="#134E78"/>
<path d="M130.261 85.281L127.986 85.8815V137.816L130.261 138.711V85.281Z" fill="#155683"/>
<path d="M130.262 85.2808L132.473 85.9417V137.785L130.262 138.713V85.2808Z" fill="#134264"/>
<mask id="mask3_6615_1045" style="mask-type:alpha" maskUnits="userSpaceOnUse" x="127" y="78" width="41" height="74">
<path d="M167.166 78.4939L127.987 88.2399V136.894L167.166 151.385V78.4939Z" fill="#367CCF"/>
</mask>
<g mask="url(#mask3_6615_1045)">
<rect width="2.92751" height="72.8549" transform="matrix(-0.999999 0.00138291 0.00138291 0.999999 163.522 78.5327)" fill="#134264"/>
<rect width="2.92751" height="72.8549" transform="matrix(-0.999999 0.00138291 0.00138291 0.999999 139.205 76.2737)" fill="#134264"/>
<rect width="2.92751" height="72.8549" transform="matrix(-0.999999 0.00138291 0.00138291 0.999999 147.108 77.1943)" fill="#134264"/>
<rect width="2.92751" height="72.8549" transform="matrix(-0.999999 0.00138291 0.00138291 0.999999 155.315 77.1824)" fill="#134264"/>
<path fill-rule="evenodd" clip-rule="evenodd" d="M132.517 91.1192L167.145 83.1437L167.145 80.136L133.495 88.334L131.305 90.3538L132.517 91.1192Z" fill="#0E3A59"/>
<path fill-rule="evenodd" clip-rule="evenodd" d="M131.306 90.3469L164.051 82.6636L164.051 78.5264L131.306 86.2819V90.3469Z" fill="#134E78"/>
<path fill-rule="evenodd" clip-rule="evenodd" d="M163.567 144.212L132.518 133.902L131.491 134.55L163.567 145.506V144.212Z" fill="#155683"/>
<path fill-rule="evenodd" clip-rule="evenodd" d="M167.15 146.719L131.489 134.542V139.216L167.15 151.365L167.15 146.719Z" fill="#134E78"/>
</g>
<path d="M167.166 75.7593L163.521 76.7081V151.125L167.166 152.584V75.7593Z" fill="#134E78"/>
<path d="M167.162 78.4924L227.905 96.5994V126.574L167.162 151.384V78.4924Z" fill="#134E78"/>
<path d="M225.715 93.8684L223.44 94.2939V127.691L225.715 128.267V93.8684Z" fill="#1A4F75"/>
<path d="M225.715 93.8684L227.905 94.5664V127.349L225.715 128.267V93.8684Z" fill="#134264"/>
<mask id="mask4_6615_1045" style="mask-type:alpha" maskUnits="userSpaceOnUse" x="167" y="78" width="61" height="74">
<path d="M167.162 78.4939L227.905 96.6009V126.575L167.162 151.385V78.4939Z" fill="#3062A9"/>
</mask>
<g mask="url(#mask4_6615_1045)">
<rect width="2.87693" height="72.9557" transform="matrix(-1 0 0 1 181.978 78.3652)" fill="#134264"/>
<rect width="2.87693" height="72.9557" transform="matrix(-1 0 0 1 190.27 78.3652)" fill="#134264"/>
<rect width="2.87693" height="72.9557" transform="matrix(-1 0 0 1 198.563 78.3652)" fill="#134264"/>
<rect width="2.87693" height="72.9557" transform="matrix(-1 0 0 1 173.686 78.4619)" fill="#134264"/>
<rect width="2.87693" height="72.9557" transform="matrix(-1 0 0 1 215.147 78.3652)" fill="#134264"/>
<rect width="2.87693" height="72.9557" transform="matrix(-1 0 0 1 223.44 78.4619)" fill="#134264"/>
<rect width="2.87693" height="72.9557" transform="matrix(-1 0 0 1 206.855 78.3652)" fill="#134264"/>
<path fill-rule="evenodd" clip-rule="evenodd" d="M224.793 96.6276L167.166 79.4062V83.3063L223.552 99.1018L224.793 98.3703V96.6276Z" fill="#0E3A59"/>
<path fill-rule="evenodd" clip-rule="evenodd" d="M224.796 95.5602L167.164 78.4939V81.98L224.796 98.3479V95.5602Z" fill="#134E78"/>
<path fill-rule="evenodd" clip-rule="evenodd" d="M167.164 151.387L224.721 127.968V125.284L167.164 146.754V151.387Z" fill="#134E78"/>
<path d="M167.164 145.337V146.799L224.719 125.28L223.639 124.885L167.164 145.337Z" fill="#155683"/>
</g>
<mask id="mask5_6615_1045" style="mask-type:alpha" maskUnits="userSpaceOnUse" x="167" y="78" width="58" height="74">
<path fill-rule="evenodd" clip-rule="evenodd" d="M224.792 96.6283L167.165 79.407V83.307L223.552 99.1026L224.792 98.371V96.6283Z" fill="#28579A"/>
<path fill-rule="evenodd" clip-rule="evenodd" d="M224.796 95.5609L167.164 78.4946V81.9808L224.796 98.3487V95.5609Z" fill="#367CCF"/>
<path fill-rule="evenodd" clip-rule="evenodd" d="M167.164 151.387L224.721 127.969V125.285L167.164 146.754V151.387Z" fill="#367CCF"/>
<path d="M167.165 145.338V146.799L224.719 125.281L223.64 124.886L167.165 145.338Z" fill="#468ADB"/>
<path d="M167.167 78.5269L223.433 95.2658L223.433 128.422L167.167 151.418V78.5269Z" fill="#004597"/>
</mask>
<g mask="url(#mask5_6615_1045)">
<path d="M167.162 78.4939L227.905 96.6009V126.575L167.162 151.385V78.4939Z" fill="#092538" fill-opacity="0.41"/>
</g>
<path d="M167.164 75.7593L170.809 76.895V151.029L167.164 152.584V75.7593Z" fill="#134264"/>
<path d="M211.232 111.066V97.6326L220.718 111.066L211.232 124.5V111.066Z" fill="#062337"/>
<path fill-rule="evenodd" clip-rule="evenodd" d="M211.233 116.205L175.37 122.386V98.5867L211.233 105.928V116.205Z" fill="#062337"/>
<path d="M23.7672 22.5703C24.1591 22.3991 24.4273 22.1741 24.5717 21.8952C24.7189 21.6114 24.741 21.2907 24.638 20.9333C24.596 20.7872 24.5325 20.6681 24.4477 20.576C24.3656 20.4789 24.2644 20.4019 24.1439 20.3451C24.0273 20.2871 23.8967 20.2456 23.7522 20.2206C23.6076 20.1957 23.4526 20.1779 23.2872 20.1672L23.7672 22.5703ZM21.6426 16.5824C21.4351 16.6713 21.2659 16.77 21.1348 16.8786C21.0026 16.9832 20.9017 17.0955 20.8322 17.2155C20.7627 17.3354 20.7215 17.4597 20.7086 17.5883C20.6995 17.7158 20.7132 17.8429 20.7498 17.9698C20.7919 18.1158 20.8539 18.2374 20.936 18.3345C21.0208 18.4266 21.1202 18.5041 21.234 18.5671C21.3507 18.625 21.4804 18.6709 21.6234 18.7047C21.7652 18.7346 21.9174 18.7573 22.0801 18.7729L21.6426 16.5824ZM23.0131 18.8038C23.3142 18.8087 23.6162 18.8237 23.919 18.8489C24.2207 18.8702 24.5024 18.9306 24.7641 19.03C25.0297 19.1283 25.2647 19.2792 25.4689 19.4826C25.6721 19.6821 25.8258 19.9626 25.9298 20.3239C26.0328 20.6813 26.0701 21.0348 26.0418 21.3843C26.0123 21.73 25.9171 22.0571 25.7563 22.3657C25.5943 22.6704 25.3682 22.9479 25.0781 23.1979C24.7869 23.4442 24.4299 23.6427 24.0072 23.7937L24.1821 24.6611C24.2038 24.7506 24.1886 24.8424 24.1366 24.9365C24.0895 25.0333 24.0122 25.0972 23.9046 25.1282L23.3799 25.2793L23.1283 24.0156C22.6609 24.0837 22.2026 24.0825 21.7536 24.012C21.3045 23.9416 20.9023 23.8097 20.5469 23.6166L20.7975 22.8388C20.8193 22.7701 20.856 22.7096 20.9075 22.6573C20.9618 22.6 21.0254 22.5609 21.0984 22.5398C21.183 22.5155 21.2822 22.5202 21.396 22.554C21.5087 22.584 21.6382 22.6216 21.7844 22.6669C21.9296 22.7084 22.0926 22.7467 22.2734 22.7821C22.4543 22.8174 22.6578 22.8233 22.8842 22.7997L22.3551 20.161C22.06 20.1628 21.763 20.1505 21.4641 20.1242C21.169 20.0969 20.8894 20.0296 20.6255 19.9225C20.3642 19.8104 20.1306 19.6425 19.9246 19.4188C19.7187 19.1951 19.5592 18.8872 19.4463 18.4951C19.3621 18.203 19.3378 17.902 19.3734 17.592C19.4079 17.2782 19.5051 16.9796 19.6649 16.6963C19.8286 16.4119 20.0533 16.1515 20.339 15.9152C20.6248 15.6789 20.9763 15.4902 21.3935 15.3492L21.2477 14.6044C21.2288 14.51 21.2434 14.4163 21.2916 14.3233C21.3397 14.2303 21.4195 14.1678 21.531 14.1357L22.0557 13.9846L22.289 15.1412C22.7152 15.0892 23.1007 15.1051 23.4454 15.1889C23.7889 15.269 24.0982 15.3818 24.3733 15.5273L24.1785 16.1516C24.1507 16.2429 24.1154 16.3155 24.0726 16.3694C24.0299 16.4234 23.9701 16.4614 23.8932 16.4836C23.8356 16.5002 23.7614 16.5028 23.6707 16.4915C23.5789 16.4763 23.4759 16.4581 23.3615 16.4369C23.2461 16.4119 23.1172 16.3907 22.9749 16.3735C22.8364 16.3551 22.6872 16.3502 22.5273 16.3588L23.0131 18.8038ZM30.3385 18.4794L29.5529 15.7523C29.4787 15.4948 29.4141 15.2054 29.359 14.8841L27.8016 19.2102L30.3385 18.4794ZM32.6274 17.8201L32.8649 18.6445C32.8871 18.7214 32.8815 18.7959 32.8481 18.8679C32.8136 18.9361 32.7503 18.9835 32.658 19.0101L31.897 19.2293L32.4832 21.2646L31.2437 21.6217L30.6574 19.5864L27.1404 20.5995C27.0443 20.6272 26.9514 20.6228 26.8618 20.5861C26.771 20.5457 26.7033 20.484 26.6586 20.4011L26.3011 19.7236L28.7308 13.3105L30.08 12.9218L31.5781 18.1224L32.6274 17.8201ZM39.1015 17.922C39.2553 17.8777 39.3891 17.887 39.503 17.9499C39.6196 18.0079 39.6984 18.108 39.7393 18.2502L39.9851 19.1035L34.2657 20.7511L34.1295 20.2783C34.1018 20.1822 34.0923 20.0768 34.1008 19.9619C34.1121 19.8421 34.1497 19.7272 34.2138 19.6172L36.0141 16.3512C36.1635 16.0751 36.2926 15.8152 36.4014 15.5715C36.5141 15.3268 36.5984 15.0923 36.6545 14.868C36.7106 14.6437 36.7393 14.4252 36.7405 14.2126C36.7444 13.995 36.7148 13.7766 36.6517 13.5576C36.5941 13.3577 36.5149 13.1911 36.4141 13.0578C36.3121 12.9207 36.1924 12.8157 36.0549 12.7429C35.9212 12.669 35.7722 12.6287 35.6079 12.6219C35.4463 12.6102 35.2733 12.6309 35.0888 12.684C34.9197 12.7328 34.7693 12.8031 34.6376 12.8952C34.5087 12.9823 34.4012 13.0861 34.3152 13.2066C34.2281 13.3233 34.1628 13.4503 34.1191 13.5878C34.0754 13.7252 34.0543 13.8687 34.0557 14.0181C34.0413 14.2138 33.9905 14.3554 33.9034 14.4429C33.8162 14.5305 33.6702 14.5871 33.4653 14.6128L32.6776 14.6961C32.6201 14.2798 32.6308 13.8979 32.7097 13.5505C32.7875 13.1992 32.9206 12.8882 33.109 12.6175C33.3002 12.3418 33.5409 12.108 33.8311 11.9162C34.1241 11.7194 34.4551 11.5678 34.8241 11.4616C35.2085 11.3508 35.5768 11.3072 35.929 11.3306C36.2801 11.3501 36.599 11.431 36.8856 11.5733C37.1721 11.7155 37.4209 11.9144 37.6319 12.17C37.8429 12.4256 37.9999 12.7321 38.1029 13.0896C38.1914 13.3971 38.2272 13.6948 38.2103 13.9827C38.1972 14.2696 38.1481 14.5543 38.063 14.8369C37.9817 15.1184 37.8713 15.3999 37.7318 15.6816C37.5923 15.9632 37.4443 16.2514 37.2878 16.5462L35.9613 19.0076C36.1265 18.9018 36.2936 18.8099 36.4627 18.7321C36.6345 18.6493 36.8011 18.5846 36.9625 18.5381L39.1015 17.922ZM44.4108 8.79984L44.5885 9.41675C44.6417 9.60125 44.6657 9.75669 44.6604 9.88307C44.6541 10.0056 44.6428 10.1109 44.6265 10.1988L43.3404 17.6125C43.3138 17.7658 43.2548 17.9077 43.1633 18.0381C43.0708 18.1647 42.9245 18.2568 42.7247 18.3144L41.6926 18.6117L43.0803 11.3123C43.1157 11.1606 43.1525 11.021 43.1907 10.8934C43.2316 10.7609 43.2819 10.6319 43.3415 10.5065L39.3517 11.6559C39.2633 11.6813 39.177 11.6708 39.0929 11.6243C39.0087 11.5778 38.9539 11.5103 38.9284 11.4219L38.6511 10.459L44.4108 8.79984ZM53.708 13.8392C53.9963 13.7562 54.2284 13.6518 54.4045 13.5262C54.5806 13.4005 54.7097 13.2634 54.7918 13.1149C54.8778 12.9653 54.9236 12.8064 54.9293 12.6382C54.9388 12.469 54.9186 12.2979 54.8688 12.1249C54.8168 11.9442 54.7414 11.7911 54.6428 11.6655C54.5431 11.5361 54.4173 11.4391 54.2655 11.3746C54.1126 11.3062 53.9304 11.2734 53.7189 11.276C53.5112 11.2776 53.2709 11.3177 52.998 11.3963L51.4355 11.8464L52.1397 14.291L53.708 13.8392ZM50.4324 8.36398L51.1266 10.774L52.3605 10.4186C52.8909 10.2658 53.2629 10.0545 53.4766 9.78482C53.6942 9.51402 53.7426 9.16914 53.6219 8.75018C53.4968 8.31584 53.2847 8.04186 52.9855 7.92822C52.6864 7.81459 52.2754 7.83306 51.7527 7.98365L50.4324 8.36398ZM51.4072 6.78441C51.953 6.62718 52.435 6.54455 52.8531 6.53649C53.2712 6.52844 53.631 6.58508 53.9323 6.7064C54.2375 6.82661 54.4871 7.00656 54.681 7.24625C54.8749 7.48593 55.0212 7.77682 55.1197 8.11891C55.1762 8.31494 55.2016 8.51159 55.196 8.70885C55.1893 8.90227 55.1471 9.09549 55.0695 9.28851C54.9946 9.47658 54.8813 9.66117 54.7295 9.84226C54.5815 10.0223 54.3915 10.1935 54.1595 10.3561C55.3791 10.2837 56.1301 10.7376 56.4124 11.7177C56.5143 12.0713 56.5411 12.4174 56.493 12.756C56.4448 13.0945 56.3235 13.4105 56.1291 13.7037C55.9336 13.9932 55.6652 14.2536 55.3239 14.4851C54.9827 14.7167 54.5699 14.9022 54.0856 15.0417L50.9376 15.9485L48.536 7.61152L51.4072 6.78441Z" fill="#840032"/>
<path d="M25.1797 110.658L23.6843 110.035L27.0203 102.026L28.5158 102.649L25.1797 110.658ZM26.6704 111.279L29.0374 105.596L29.8738 105.944C30.051 106.018 30.1327 106.15 30.1189 106.339L30.0322 106.797C30.178 106.727 30.3237 106.669 30.4692 106.621C30.6185 106.575 30.7678 106.544 30.9174 106.528C31.0706 106.514 31.2251 106.518 31.3808 106.539C31.5417 106.559 31.7071 106.604 31.8769 106.675C32.2351 106.824 32.4879 107.044 32.6353 107.335C32.788 107.624 32.8546 107.953 32.8353 108.322C33.0023 108.17 33.18 108.056 33.3683 107.978C33.5581 107.897 33.7501 107.847 33.9443 107.828C34.1384 107.809 34.3326 107.817 34.5267 107.85C34.7246 107.885 34.914 107.94 35.0949 108.015C35.4088 108.146 35.6676 108.31 35.8713 108.507C36.075 108.705 36.2215 108.931 36.3107 109.184C36.4 109.438 36.4317 109.716 36.4059 110.017C36.3838 110.32 36.3012 110.643 36.1582 110.986L34.6516 114.603L33.2836 114.033L34.7901 110.416C34.9408 110.055 34.9745 109.75 34.8911 109.503C34.8092 109.252 34.615 109.063 34.3086 108.935C34.1682 108.877 34.0272 108.846 33.8853 108.844C33.7472 108.842 33.6127 108.869 33.4819 108.923C33.3564 108.974 33.2393 109.058 33.1307 109.173C33.0221 109.288 32.9309 109.434 32.8571 109.611L31.3506 113.228L29.977 112.656L31.4835 109.039C31.6419 108.659 31.6797 108.35 31.5969 108.111C31.5178 107.875 31.3306 107.695 31.0352 107.572C30.8358 107.489 30.6286 107.461 30.4135 107.489C30.2036 107.514 29.9895 107.581 29.771 107.689L28.0384 111.848L26.6704 111.279ZM37.9338 114.241C38.0104 114.494 38.1231 114.697 38.2717 114.85C38.424 115.005 38.6073 115.126 38.8214 115.216C39.0282 115.302 39.2308 115.341 39.4293 115.332C39.6277 115.324 39.8173 115.264 39.9979 115.153C40.1822 115.044 40.3557 114.882 40.5184 114.668C40.6827 114.45 40.8333 114.177 40.9702 113.849C41.1086 113.516 41.1978 113.224 41.2378 112.972C41.283 112.718 41.2857 112.498 41.246 112.313C41.2063 112.127 41.1283 111.971 41.012 111.845C40.8993 111.72 40.7526 111.62 40.5716 111.544C40.2873 111.426 40.0201 111.386 39.7699 111.425C39.5213 111.46 39.263 111.55 38.995 111.694L37.9338 114.241ZM39.2922 110.777C39.634 110.612 39.9864 110.51 40.3495 110.47C40.7126 110.431 41.0935 110.494 41.4923 110.66C41.8025 110.79 42.058 110.972 42.259 111.207C42.4636 111.444 42.6067 111.725 42.6883 112.049C42.7751 112.371 42.793 112.734 42.742 113.137C42.6962 113.539 42.5764 113.972 42.3826 114.437C42.2057 114.862 41.9846 115.231 41.7195 115.545C41.4543 115.859 41.1592 116.105 40.8343 116.281C40.5131 116.46 40.1696 116.561 39.8037 116.587C39.4431 116.61 39.0763 116.544 38.7034 116.388C38.3858 116.256 38.1344 116.095 37.9492 115.905C37.7655 115.712 37.6211 115.491 37.5162 115.244L36.5472 117.57L35.1791 117L38.3191 109.462L39.1554 109.81C39.3327 109.884 39.4144 110.016 39.4006 110.205L39.2922 110.777ZM47.1665 113.043C47.5875 113.219 47.9412 113.446 48.2277 113.726C48.5179 114.007 48.7325 114.324 48.8716 114.677C49.0145 115.031 49.077 115.416 49.0592 115.834C49.0414 116.251 48.9394 116.683 48.7533 117.13C48.5657 117.58 48.33 117.959 48.0463 118.265C47.7627 118.572 47.4441 118.801 47.0906 118.952C46.7407 119.106 46.3638 119.178 45.9598 119.17C45.5595 119.164 45.1489 119.073 44.728 118.898C44.3033 118.721 43.9459 118.492 43.6557 118.211C43.3655 117.929 43.1498 117.61 43.0085 117.252C42.871 116.896 42.8092 116.508 42.8233 116.09C42.8411 115.672 42.9439 115.238 43.1315 114.788C43.3176 114.341 43.5525 113.965 43.8361 113.658C44.1235 113.353 44.4413 113.126 44.7896 112.976C45.1416 112.828 45.5196 112.758 45.9236 112.766C46.3276 112.774 46.7419 112.867 47.1665 113.043ZM45.1663 117.845C45.6389 118.042 46.054 118.029 46.4115 117.805C46.7727 117.583 47.081 117.165 47.3363 116.552C47.5916 115.939 47.6717 115.425 47.5766 115.008C47.4852 114.593 47.2031 114.287 46.7305 114.09C46.2505 113.89 45.8265 113.904 45.4585 114.132C45.0958 114.358 44.7875 114.776 44.5337 115.385C44.2799 115.994 44.2006 116.507 44.2957 116.924C44.3961 117.338 44.6863 117.645 45.1663 117.845ZM51.8558 116.258C52.1745 115.992 52.4957 115.814 52.8194 115.723C53.1446 115.629 53.4734 115.651 53.8057 115.789C54.0679 115.899 54.2545 116.043 54.3656 116.224L53.8502 117.212C53.804 117.271 53.7564 117.307 53.7071 117.321C53.6631 117.333 53.6116 117.327 53.5525 117.302C53.4971 117.279 53.4179 117.235 53.3148 117.171C53.2154 117.108 53.114 117.055 53.0106 117.012C52.8592 116.949 52.7152 116.915 52.5786 116.91C52.442 116.905 52.308 116.925 52.1766 116.97C52.0505 117.012 51.9259 117.078 51.8028 117.165C51.6834 117.254 51.5608 117.361 51.435 117.486L49.9769 120.987L48.6088 120.417L50.9759 114.734L51.779 115.069C51.9193 115.127 52.0064 115.194 52.0403 115.268C52.0757 115.34 52.0757 115.444 52.0403 115.58L51.8558 116.258ZM54.5986 123.016C54.1038 122.81 53.7811 122.513 53.6306 122.125C53.4854 121.735 53.515 121.295 53.7196 120.804L55.0415 117.63L54.46 117.388C54.3861 117.357 54.3333 117.307 54.3016 117.237C54.2699 117.168 54.2741 117.085 54.3141 116.989L54.5402 116.446L55.5163 116.677L56.4503 115.247C56.4996 115.18 56.5585 115.138 56.6271 115.119C56.6957 115.1 56.7706 115.107 56.8519 115.141L57.5608 115.436L56.8156 117.225L58.3332 117.857L57.9272 118.832L56.4096 118.2L55.1268 121.279C55.053 121.457 55.0378 121.613 55.0812 121.748C55.1283 121.885 55.2275 121.984 55.3789 122.047C55.4639 122.083 55.5379 122.103 55.6009 122.107C55.6692 122.11 55.7283 122.108 55.7782 122.103C55.8317 122.1 55.8789 122.095 55.9199 122.091C55.9623 122.082 56.0002 122.085 56.0334 122.099C56.074 122.116 56.1026 122.141 56.1193 122.174C56.1374 122.203 56.1528 122.244 56.1654 122.297L56.2984 123.132C56.0298 123.215 55.7486 123.246 55.4547 123.223C55.1609 123.2 54.8755 123.131 54.5986 123.016ZM62.2357 120.724C62.1742 120.768 62.1177 120.794 62.0663 120.803C62.0165 120.808 61.9602 120.798 61.8974 120.772C61.831 120.744 61.7666 120.696 61.7045 120.626C61.646 120.559 61.5762 120.482 61.4949 120.396C61.4152 120.307 61.3184 120.216 61.2046 120.126C61.0944 120.036 60.9526 119.956 60.779 119.883C60.5095 119.771 60.2733 119.74 60.0705 119.79C59.8715 119.841 59.7335 119.959 59.6566 120.144C59.6058 120.266 59.6015 120.385 59.6437 120.502C59.6911 120.618 59.7663 120.733 59.8694 120.85C59.9762 120.968 60.1019 121.088 60.2465 121.209C60.3927 121.326 60.5384 121.449 60.6837 121.579C60.8326 121.711 60.974 121.85 61.1079 121.996C61.2433 122.139 61.351 122.297 61.431 122.469C61.5162 122.639 61.5638 122.821 61.5737 123.016C61.5872 123.212 61.5463 123.425 61.451 123.654C61.3371 123.927 61.1819 124.159 60.9853 124.35C60.794 124.539 60.5669 124.679 60.3042 124.768C60.0429 124.855 59.7502 124.886 59.4259 124.864C59.1068 124.839 58.7626 124.75 58.3934 124.596C58.1977 124.515 58.0134 124.417 57.8404 124.301C57.6696 124.191 57.5105 124.068 57.3631 123.933C57.2194 123.8 57.0914 123.66 56.9791 123.513C56.8705 123.368 56.7815 123.223 56.7123 123.077L57.2449 122.688C57.3116 122.642 57.3796 122.614 57.4488 122.604C57.5181 122.594 57.5952 122.607 57.6801 122.642C57.765 122.677 57.8344 122.734 57.8883 122.813C57.9458 122.893 58.0129 122.982 58.0895 123.079C58.1661 123.176 58.2609 123.276 58.3739 123.379C58.4905 123.484 58.6522 123.58 58.859 123.666C59.0214 123.734 59.1676 123.773 59.2974 123.784C59.4325 123.792 59.5501 123.781 59.65 123.748C59.7537 123.718 59.8391 123.669 59.9062 123.602C59.9785 123.532 60.0331 123.453 60.07 123.364C60.1254 123.232 60.1301 123.106 60.0843 122.987C60.0421 122.87 59.9676 122.752 59.8608 122.634C59.7578 122.517 59.6313 122.4 59.4814 122.281C59.3368 122.16 59.1882 122.033 59.0355 121.9C58.8866 121.769 58.7434 121.629 58.6058 121.481C58.4735 121.33 58.3662 121.166 58.2841 120.989C58.2056 120.813 58.1626 120.62 58.1552 120.409C58.1515 120.199 58.2019 119.969 58.3065 119.718C58.4034 119.485 58.5419 119.283 58.7218 119.111C58.9018 118.939 59.1127 118.812 59.3546 118.731C59.6016 118.648 59.8773 118.615 60.1816 118.634C60.4912 118.65 60.8213 118.731 61.1721 118.877C61.5635 119.04 61.8929 119.253 62.1604 119.516C62.4278 119.779 62.6247 120.061 62.7512 120.36L62.2357 120.724Z" fill="#840032"/>
<path d="M185.899 152.088L186.865 154.291L189.645 153.072L190.144 154.21L187.363 155.429L188.349 157.676L191.877 156.13L192.394 157.311L187.383 159.508L183.899 151.562L188.911 149.365L189.427 150.541L185.899 152.088ZM198.524 154.624L197.216 155.198C197.117 155.241 197.025 155.251 196.94 155.227C196.859 155.201 196.784 155.164 196.715 155.116L194.662 153.677C194.671 153.747 194.675 153.815 194.674 153.882C194.676 153.946 194.673 154.009 194.664 154.069L194.325 156.164C194.312 156.244 194.288 156.324 194.253 156.405C194.217 156.482 194.155 156.539 194.067 156.578L192.853 157.11L193.513 153.355L190.458 151.439L191.766 150.865C191.865 150.822 191.944 150.804 192.005 150.813C192.064 150.818 192.125 150.843 192.189 150.889L194.194 152.251C194.18 152.109 194.183 151.961 194.203 151.808L194.504 149.907C194.525 149.737 194.6 149.623 194.728 149.567L195.975 149.02L195.294 152.502L198.524 154.624ZM199.949 152.257C200.184 152.376 200.409 152.435 200.622 152.433C200.839 152.43 201.054 152.382 201.266 152.289C201.471 152.199 201.64 152.079 201.771 151.93C201.902 151.781 201.99 151.602 202.034 151.395C202.082 151.186 202.085 150.949 202.043 150.684C201.999 150.415 201.906 150.117 201.763 149.791C201.619 149.461 201.469 149.195 201.315 148.992C201.162 148.783 201.005 148.63 200.844 148.53C200.682 148.431 200.515 148.379 200.344 148.376C200.176 148.371 200.002 148.408 199.822 148.486C199.54 148.61 199.327 148.776 199.182 148.983C199.035 149.187 198.922 149.436 198.841 149.729L199.949 152.257ZM198.384 148.881C198.5 148.52 198.67 148.195 198.892 147.905C199.115 147.615 199.424 147.384 199.82 147.21C200.127 147.075 200.436 147.017 200.745 147.034C201.057 147.05 201.359 147.14 201.65 147.305C201.943 147.465 202.217 147.703 202.473 148.019C202.732 148.329 202.962 148.715 203.165 149.177C203.349 149.598 203.463 150.013 203.507 150.422C203.551 150.831 203.525 151.213 203.428 151.57C203.335 151.926 203.171 152.244 202.936 152.526C202.704 152.803 202.402 153.022 202.032 153.184C201.717 153.323 201.427 153.393 201.162 153.396C200.895 153.395 200.636 153.347 200.385 153.252L201.396 155.56L200.039 156.155L196.761 148.676L197.59 148.312C197.766 148.235 197.918 148.267 198.045 148.407L198.384 148.881ZM205.463 144.756C205.881 144.573 206.29 144.474 206.69 144.46C207.094 144.445 207.471 144.509 207.822 144.652C208.177 144.793 208.499 145.015 208.788 145.316C209.077 145.617 209.319 145.989 209.513 146.433C209.709 146.88 209.82 147.312 209.845 147.728C209.871 148.145 209.816 148.534 209.682 148.894C209.551 149.253 209.343 149.576 209.058 149.862C208.777 150.147 208.427 150.381 208.01 150.564C207.588 150.749 207.176 150.849 206.772 150.864C206.368 150.88 205.988 150.815 205.632 150.67C205.279 150.523 204.956 150.3 204.664 150C204.374 149.699 204.132 149.325 203.936 148.878C203.741 148.435 203.632 148.005 203.606 147.588C203.584 147.169 203.64 146.782 203.772 146.427C203.908 146.071 204.119 145.749 204.404 145.463C204.689 145.176 205.042 144.94 205.463 144.756ZM207.552 149.52C208.021 149.314 208.298 149.005 208.383 148.592C208.472 148.177 208.383 147.666 208.117 147.058C207.85 146.45 207.534 146.036 207.167 145.817C206.804 145.596 206.387 145.589 205.919 145.794C205.442 146.003 205.159 146.319 205.07 146.743C204.983 147.161 205.071 147.672 205.336 148.277C205.601 148.881 205.917 149.293 206.284 149.512C206.653 149.726 207.076 149.729 207.552 149.52ZM211.027 143.588C211.055 143.173 211.148 142.818 211.307 142.522C211.463 142.221 211.706 141.999 212.036 141.855C212.296 141.741 212.53 141.706 212.737 141.75L213.095 142.805C213.106 142.879 213.099 142.939 213.075 142.984C213.053 143.025 213.013 143.057 212.955 143.083C212.9 143.107 212.813 143.134 212.695 143.164C212.581 143.192 212.473 143.229 212.37 143.274C212.22 143.34 212.096 143.42 211.998 143.516C211.9 143.611 211.822 143.722 211.763 143.848C211.707 143.969 211.668 144.104 211.646 144.253C211.628 144.401 211.621 144.563 211.624 144.741L213.147 148.214L211.789 148.809L209.318 143.171L210.115 142.821C210.254 142.76 210.362 142.743 210.44 142.771C210.515 142.794 210.591 142.866 210.665 142.986L211.027 143.588ZM217.807 146.275C217.316 146.491 216.879 146.519 216.495 146.36C216.112 146.195 215.815 145.869 215.601 145.382L214.221 142.233L213.644 142.486C213.57 142.518 213.498 142.522 213.425 142.497C213.353 142.472 213.296 142.411 213.255 142.316L213.018 141.778L213.86 141.232L213.471 139.568C213.458 139.487 213.467 139.415 213.501 139.352C213.535 139.289 213.592 139.24 213.672 139.205L214.376 138.896L215.154 140.671L216.66 140.011L217.084 140.978L215.578 141.638L216.917 144.694C216.994 144.87 217.097 144.988 217.224 145.05C217.356 145.111 217.496 145.108 217.647 145.042C217.731 145.005 217.796 144.966 217.843 144.923C217.892 144.876 217.932 144.832 217.963 144.792C217.997 144.751 218.027 144.714 218.052 144.681C218.075 144.645 218.103 144.619 218.136 144.605C218.176 144.587 218.214 144.584 218.25 144.594C218.283 144.602 218.324 144.619 218.371 144.646L219.066 145.127C218.941 145.379 218.768 145.603 218.549 145.8C218.329 145.996 218.082 146.155 217.807 146.275ZM221.429 139.172C221.418 139.246 221.398 139.305 221.369 139.349C221.338 139.388 221.292 139.422 221.229 139.449C221.163 139.478 221.084 139.491 220.991 139.488C220.902 139.484 220.798 139.481 220.68 139.481C220.56 139.476 220.428 139.484 220.283 139.503C220.143 139.521 219.986 139.568 219.814 139.644C219.547 139.761 219.361 139.91 219.257 140.091C219.157 140.27 219.147 140.452 219.227 140.635C219.28 140.756 219.363 140.842 219.477 140.892C219.593 140.937 219.729 140.963 219.884 140.969C220.044 140.974 220.217 140.965 220.404 140.944C220.59 140.92 220.78 140.9 220.974 140.884C221.172 140.868 221.37 140.861 221.569 140.866C221.766 140.867 221.954 140.898 222.134 140.959C222.315 141.015 222.48 141.106 222.628 141.234C222.779 141.36 222.904 141.536 223.004 141.763C223.123 142.035 223.183 142.307 223.185 142.581C223.19 142.85 223.134 143.111 223.017 143.363C222.899 143.611 222.719 143.845 222.479 144.064C222.241 144.277 221.939 144.464 221.572 144.625C221.378 144.71 221.18 144.775 220.977 144.821C220.779 144.868 220.58 144.898 220.381 144.911C220.185 144.923 219.995 144.919 219.812 144.899C219.632 144.877 219.466 144.841 219.312 144.79L219.399 144.136C219.412 144.056 219.439 143.988 219.479 143.931C219.52 143.874 219.582 143.827 219.667 143.79C219.751 143.753 219.84 143.742 219.934 143.758C220.032 143.772 220.142 143.784 220.265 143.796C220.388 143.808 220.526 143.808 220.679 143.798C220.835 143.786 221.016 143.735 221.221 143.645C221.383 143.575 221.512 143.496 221.609 143.41C221.709 143.318 221.782 143.225 221.828 143.131C221.877 143.035 221.901 142.939 221.899 142.844C221.898 142.744 221.879 142.65 221.84 142.562C221.783 142.43 221.695 142.339 221.577 142.29C221.463 142.24 221.327 142.212 221.168 142.208C221.012 142.202 220.84 142.212 220.65 142.238C220.463 142.259 220.269 142.279 220.067 142.297C219.869 142.314 219.669 142.321 219.467 142.318C219.267 142.31 219.074 142.274 218.889 142.211C218.708 142.146 218.539 142.044 218.381 141.903C218.227 141.761 218.095 141.566 217.986 141.316C217.885 141.086 217.834 140.846 217.834 140.597C217.834 140.348 217.889 140.108 217.997 139.877C218.107 139.641 218.275 139.419 218.498 139.212C218.724 138.999 219.011 138.817 219.359 138.664C219.747 138.494 220.129 138.403 220.504 138.392C220.878 138.38 221.218 138.432 221.522 138.548L221.429 139.172Z" fill="#134E78"/>
<path d="M186.381 77.6293C186.803 77.6933 187.15 77.6457 187.421 77.4867C187.697 77.3249 187.886 77.0654 187.99 76.708C188.032 76.562 188.042 76.4274 188.019 76.3042C188.001 76.1784 187.957 76.0593 187.885 75.947C187.817 75.8358 187.729 75.7311 187.62 75.6329C187.511 75.5348 187.389 75.4372 187.255 75.34L186.381 77.6293ZM187.773 71.4302C187.55 71.3948 187.354 71.3882 187.185 71.4102C187.018 71.4283 186.873 71.4696 186.75 71.5341C186.627 71.5985 186.526 71.6817 186.447 71.7837C186.371 71.8868 186.315 72.0017 186.278 72.1285C186.236 72.2745 186.224 72.4105 186.242 72.5363C186.264 72.6595 186.307 72.778 186.37 72.892C186.438 73.0032 186.523 73.1111 186.626 73.2158C186.73 73.3167 186.847 73.4171 186.976 73.5169L187.773 71.4302ZM187.749 74.0402C188.001 74.2048 188.249 74.3783 188.492 74.561C188.736 74.7397 188.942 74.9409 189.11 75.1645C189.283 75.3893 189.401 75.6421 189.466 75.9231C189.531 76.2002 189.512 76.5194 189.408 76.8806C189.304 77.2379 189.147 77.5569 188.937 77.8376C188.728 78.1144 188.473 78.3405 188.173 78.516C187.873 78.6875 187.534 78.8019 187.155 78.8589C186.778 78.9121 186.37 78.89 185.932 78.7924L185.618 79.6198C185.588 79.707 185.527 79.7766 185.432 79.8285C185.341 79.8854 185.242 79.8982 185.134 79.8671L184.609 79.7155L185.07 78.512C184.638 78.3205 184.251 78.0754 183.908 77.7765C183.566 77.4776 183.296 77.1518 183.098 76.799L183.724 76.2743C183.779 76.2278 183.843 76.1961 183.914 76.1793C183.991 76.1597 184.065 76.1605 184.138 76.1816C184.223 76.2061 184.304 76.2629 184.383 76.3522C184.462 76.4376 184.552 76.5384 184.651 76.6547C184.752 76.7671 184.869 76.8864 185.004 77.0126C185.138 77.1389 185.307 77.2523 185.511 77.353L186.469 74.8381C186.219 74.6824 185.974 74.5138 185.735 74.3323C185.5 74.1519 185.299 73.946 185.133 73.7147C184.971 73.4807 184.863 73.2142 184.808 72.9151C184.753 72.616 184.782 72.2705 184.895 71.8786C184.98 71.5865 185.12 71.3188 185.315 71.0755C185.511 70.8283 185.752 70.6274 186.039 70.4728C186.329 70.3193 186.658 70.2187 187.025 70.171C187.393 70.1232 187.791 70.1508 188.219 70.2538L188.493 69.5459C188.527 69.4559 188.589 69.3844 188.68 69.3314C188.77 69.2784 188.871 69.268 188.982 69.3002L189.507 69.4518L189.088 70.5549C189.476 70.738 189.794 70.9568 190.041 71.2114C190.289 71.4622 190.491 71.7225 190.646 71.9922L190.148 72.4167C190.076 72.4791 190.008 72.5218 189.943 72.5446C189.878 72.5675 189.807 72.5678 189.73 72.5456C189.673 72.529 189.608 72.4917 189.538 72.4338C189.468 72.372 189.391 72.3017 189.305 72.2229C189.221 72.1402 189.123 72.0536 189.012 71.9632C188.904 71.8738 188.781 71.7902 188.641 71.7123L187.749 74.0402ZM195.383 80.2819L195.075 81.3483L190.463 80.0151L190.772 78.9488L192.461 79.4371L193.865 74.5781C193.921 74.3859 193.984 74.1897 194.054 73.9894L192.565 74.6457C192.481 74.6795 192.402 74.6941 192.328 74.6894C192.259 74.6821 192.196 74.6638 192.138 74.6345C192.083 74.6063 192.037 74.572 191.999 74.5318C191.962 74.4877 191.936 74.4451 191.923 74.4038L191.652 73.6571L194.819 72.2305L195.989 72.5688L193.884 79.8487L195.383 80.2819ZM200.808 79.6019L201.596 76.8756C201.671 76.6181 201.77 76.3388 201.895 76.0375L198.272 78.8687L200.808 79.6019ZM203.096 80.2635L202.858 81.0877C202.836 81.1646 202.791 81.2246 202.725 81.2678C202.659 81.3072 202.58 81.3135 202.488 81.2869L201.727 81.0669L201.139 83.1016L199.9 82.7433L200.488 80.7086L196.972 79.6921C196.876 79.6643 196.8 79.6111 196.744 79.5323C196.688 79.4497 196.664 79.3615 196.67 79.2675L196.729 78.5037L202.202 74.3712L203.55 74.7611L202.047 79.9602L203.096 80.2635ZM206.121 83.4364C206.356 83.5042 206.571 83.5309 206.766 83.5167C206.963 83.4986 207.138 83.4473 207.292 83.3626C207.449 83.279 207.582 83.1635 207.692 83.016C207.801 82.8686 207.883 82.6988 207.939 82.5067C208.071 82.0494 208.044 81.6669 207.858 81.3592C207.673 81.0514 207.357 80.8332 206.911 80.7043C206.465 80.5754 206.082 80.5915 205.76 80.7526C205.439 80.9137 205.212 81.2229 205.08 81.6801C205.024 81.8723 205.003 82.0598 205.017 82.2428C205.031 82.4258 205.08 82.5941 205.165 82.7477C205.253 82.9024 205.376 83.0398 205.533 83.1601C205.691 83.2765 205.887 83.3686 206.121 83.4364ZM207.952 77.1018C207.741 77.0407 207.549 77.0206 207.377 77.0415C207.204 77.0624 207.05 77.1135 206.914 77.195C206.783 77.2737 206.672 77.3769 206.581 77.5047C206.493 77.6335 206.427 77.7767 206.381 77.9342C206.334 78.0995 206.306 78.2664 206.299 78.4351C206.297 78.601 206.326 78.7593 206.387 78.9101C206.448 79.057 206.547 79.1897 206.684 79.3083C206.82 79.4268 207.004 79.5194 207.234 79.5861C207.465 79.6527 207.669 79.6723 207.848 79.6449C208.027 79.6174 208.181 79.558 208.312 79.4667C208.443 79.3715 208.551 79.2526 208.634 79.11C208.721 78.9646 208.789 78.8094 208.837 78.6441C208.882 78.4866 208.901 78.3295 208.892 78.1729C208.883 78.0163 208.844 77.8697 208.776 77.7332C208.708 77.5929 208.607 77.4679 208.472 77.3581C208.337 77.2483 208.164 77.1629 207.952 77.1018ZM208.489 80.5172C208.948 80.8291 209.25 81.191 209.393 81.603C209.537 82.0111 209.538 82.4611 209.396 82.953C209.29 83.3219 209.122 83.6356 208.893 83.8943C208.668 84.154 208.398 84.3529 208.083 84.4909C207.769 84.6289 207.416 84.7039 207.025 84.7159C206.638 84.7289 206.23 84.6733 205.8 84.5488C205.369 84.4244 204.992 84.2529 204.668 84.0343C204.348 83.8168 204.091 83.5657 203.899 83.2811C203.706 82.9964 203.582 82.6837 203.527 82.3428C203.475 82.0031 203.503 81.6488 203.609 81.2799C203.751 80.7881 203.992 80.4081 204.332 80.1399C204.673 79.8679 205.121 79.7226 205.676 79.704C205.322 79.4183 205.088 79.0903 204.974 78.7202C204.864 78.3512 204.872 77.9476 204.999 77.5096C205.09 77.1945 205.239 76.9189 205.444 76.6827C205.654 76.4476 205.903 76.2635 206.191 76.1304C206.48 75.9934 206.801 75.9153 207.152 75.896C207.508 75.8741 207.878 75.9186 208.262 76.0297C208.647 76.1408 208.982 76.3001 209.267 76.5076C209.558 76.7123 209.789 76.9499 209.961 77.2202C210.133 77.4867 210.244 77.7746 210.292 78.0841C210.343 78.3947 210.324 78.7076 210.233 79.0227C210.106 79.4607 209.896 79.806 209.602 80.0583C209.312 80.3118 208.941 80.4648 208.489 80.5172ZM216.37 86.1932C216.658 86.2765 216.91 86.3119 217.126 86.2994C217.342 86.2869 217.524 86.2397 217.673 86.1577C217.825 86.0769 217.949 85.9668 218.043 85.8276C218.141 85.6894 218.215 85.5339 218.265 85.361C218.318 85.1803 218.335 85.0106 218.319 84.8518C218.303 84.6891 218.249 84.54 218.155 84.4046C218.062 84.2653 217.925 84.1404 217.744 84.0299C217.568 83.9206 217.343 83.8265 217.07 83.7476L215.508 83.296L214.802 85.7399L216.37 86.1932ZM216.515 79.8146L215.818 82.2239L217.052 82.5805C217.582 82.7338 218.009 82.7533 218.334 82.6389C218.662 82.5257 218.887 82.2596 219.008 81.8408C219.134 81.4066 219.1 81.0617 218.908 80.8061C218.715 80.5506 218.357 80.3473 217.835 80.1962L216.515 79.8146ZM218.181 78.9973C218.727 79.155 219.179 79.3419 219.537 79.5579C219.895 79.7738 220.169 80.0134 220.36 80.2766C220.554 80.541 220.669 80.8262 220.706 81.1324C220.742 81.4385 220.711 81.7626 220.612 82.1046C220.555 82.3006 220.472 82.4805 220.362 82.6445C220.254 82.8046 220.115 82.9456 219.946 83.0676C219.783 83.1869 219.589 83.2827 219.364 83.3551C219.142 83.4286 218.89 83.4723 218.607 83.4862C219.678 84.0747 220.072 84.8589 219.789 85.8388C219.686 86.1923 219.525 86.4995 219.303 86.7603C219.082 87.0212 218.811 87.2239 218.491 87.3685C218.171 87.5093 217.805 87.5867 217.393 87.6008C216.981 87.6149 216.533 87.5519 216.048 87.4119L212.901 86.5021L215.311 78.1674L218.181 78.9973Z" fill="#134E78"/>
<path d="M227.905 166.808V172.31H0V166.808" stroke="#0D5498"/>
<rect x="61.1582" y="158.566" width="90.634" height="27.64" fill="white"/>
<path d="M72.691 182.896V161.078H74.0887V182.896H72.691ZM76.3983 168.279C76.3302 167.592 76.0376 167.058 75.5205 166.677C75.0035 166.296 74.3018 166.106 73.4154 166.106C72.8131 166.106 72.3046 166.191 71.8898 166.362C71.4751 166.526 71.1569 166.756 70.9353 167.052C70.7194 167.347 70.6114 167.683 70.6114 168.058C70.6001 168.37 70.6654 168.643 70.8074 168.876C70.9552 169.109 71.1569 169.31 71.4126 169.481C71.6682 169.646 71.9637 169.791 72.2989 169.916C72.6341 170.035 72.9921 170.137 73.3728 170.222L74.941 170.597C75.7023 170.768 76.4012 170.995 77.0376 171.279C77.6739 171.563 78.2251 171.913 78.691 172.328C79.1569 172.742 79.5177 173.231 79.7733 173.793C80.0347 174.356 80.1682 175.001 80.1739 175.728C80.1682 176.796 79.8955 177.722 79.3557 178.506C78.8216 179.285 78.0489 179.89 77.0376 180.322C76.0319 180.748 74.8188 180.961 73.3983 180.961C71.9893 180.961 70.762 180.745 69.7165 180.313C68.6768 179.881 67.8643 179.242 67.279 178.396C66.6995 177.543 66.3955 176.489 66.3671 175.234H69.9381C69.9779 175.819 70.1455 176.308 70.441 176.7C70.7421 177.086 71.1427 177.379 71.6427 177.578C72.1483 177.771 72.7194 177.867 73.3557 177.867C73.9807 177.867 74.5233 177.776 74.9836 177.595C75.4495 177.413 75.8103 177.16 76.066 176.836C76.3216 176.512 76.4495 176.14 76.4495 175.72C76.4495 175.328 76.333 174.998 76.1001 174.731C75.8728 174.464 75.5376 174.237 75.0944 174.049C74.6569 173.862 74.1199 173.691 73.4836 173.538L71.583 173.06C70.1114 172.703 68.9495 172.143 68.0972 171.381C67.2449 170.62 66.8216 169.595 66.8273 168.305C66.8216 167.248 67.1029 166.325 67.6711 165.535C68.2449 164.745 69.0319 164.129 70.0319 163.685C71.0319 163.242 72.1682 163.021 73.441 163.021C74.7364 163.021 75.8671 163.242 76.833 163.685C77.8046 164.129 78.5603 164.745 79.1001 165.535C79.6398 166.325 79.9182 167.239 79.9353 168.279H76.3983ZM88.9289 180.953C87.7243 180.953 86.6505 180.731 85.7073 180.288C84.7698 179.845 84.0255 179.234 83.4743 178.455C82.9232 177.677 82.6363 176.785 82.6135 175.779H86.1931C86.2329 176.455 86.517 177.004 87.0454 177.424C87.5738 177.845 88.2016 178.055 88.9289 178.055C89.5084 178.055 90.0198 177.927 90.463 177.671C90.9118 177.41 91.2613 177.049 91.5113 176.589C91.767 176.123 91.8948 175.589 91.8948 174.987C91.8948 174.373 91.7641 173.833 91.5028 173.367C91.2471 172.901 90.892 172.538 90.4374 172.276C89.9829 172.015 89.463 171.881 88.8778 171.876C88.3664 171.876 87.8692 171.981 87.3863 172.191C86.909 172.401 86.5368 172.688 86.2698 173.052L82.9885 172.464L83.8153 163.259H94.4857V166.276H86.8579L86.4062 170.649H86.5084C86.8153 170.217 87.2783 169.859 87.8976 169.575C88.517 169.291 89.2101 169.149 89.9772 169.149C91.0283 169.149 91.9658 169.396 92.7897 169.89C93.6135 170.384 94.2641 171.063 94.7414 171.927C95.2187 172.785 95.4545 173.774 95.4488 174.893C95.4545 176.069 95.1817 177.114 94.6306 178.029C94.0851 178.938 93.3209 179.654 92.338 180.177C91.3607 180.694 90.2243 180.953 88.9289 180.953ZM98.713 180.714L105.949 166.396V166.276H97.5198V163.259H109.767V166.319L102.523 180.714H98.713ZM118.437 180.953C117.232 180.953 116.158 180.731 115.215 180.288C114.278 179.845 113.533 179.234 112.982 178.455C112.431 177.677 112.144 176.785 112.121 175.779H115.701C115.741 176.455 116.025 177.004 116.553 177.424C117.082 177.845 117.709 178.055 118.437 178.055C119.016 178.055 119.528 177.927 119.971 177.671C120.42 177.41 120.769 177.049 121.019 176.589C121.275 176.123 121.403 175.589 121.403 174.987C121.403 174.373 121.272 173.833 121.011 173.367C120.755 172.901 120.4 172.538 119.945 172.276C119.491 172.015 118.971 171.881 118.386 171.876C117.874 171.876 117.377 171.981 116.894 172.191C116.417 172.401 116.045 172.688 115.778 173.052L112.496 172.464L113.323 163.259H123.994V166.276H116.366L115.914 170.649H116.016C116.323 170.217 116.786 169.859 117.405 169.575C118.025 169.291 118.718 169.149 119.485 169.149C120.536 169.149 121.474 169.396 122.297 169.89C123.121 170.384 123.772 171.063 124.249 171.927C124.726 172.785 124.962 173.774 124.957 174.893C124.962 176.069 124.69 177.114 124.138 178.029C123.593 178.938 122.829 179.654 121.846 180.177C120.869 180.694 119.732 180.953 118.437 180.953ZM133.187 180.714V163.259H140.176C141.46 163.259 142.531 163.45 143.389 163.83C144.247 164.211 144.892 164.739 145.324 165.416C145.756 166.086 145.972 166.859 145.972 167.734C145.972 168.416 145.835 169.015 145.562 169.532C145.29 170.043 144.915 170.464 144.437 170.793C143.966 171.117 143.426 171.347 142.818 171.484V171.654C143.483 171.683 144.105 171.87 144.685 172.217C145.27 172.563 145.744 173.049 146.108 173.674C146.472 174.293 146.653 175.032 146.653 175.89C146.653 176.816 146.423 177.643 145.963 178.37C145.508 179.092 144.835 179.663 143.943 180.083C143.051 180.504 141.952 180.714 140.645 180.714H133.187ZM136.878 177.697H139.886C140.915 177.697 141.665 177.501 142.136 177.109C142.608 176.711 142.844 176.183 142.844 175.524C142.844 175.041 142.727 174.614 142.494 174.245C142.261 173.876 141.929 173.586 141.497 173.376C141.071 173.166 140.562 173.06 139.972 173.06H136.878V177.697ZM136.878 170.563H139.614C140.119 170.563 140.568 170.475 140.96 170.299C141.358 170.117 141.67 169.862 141.898 169.532C142.131 169.203 142.247 168.808 142.247 168.347C142.247 167.717 142.023 167.208 141.574 166.822C141.131 166.435 140.5 166.242 139.682 166.242H136.878V170.563Z" fill="#0D5498"/>
</g>
<defs>
<clipPath id="clip0_6615_1045">
<rect width="229" height="194" fill="white"/>
</clipPath>
</defs>
</svg>
