<svg width="229" height="194" viewBox="0 0 229 194" fill="none" xmlns="http://www.w3.org/2000/svg">
<g clip-path="url(#clip0_6615_863)">
<rect width="229" height="194" fill="white"/>
<path d="M86.7841 78.0847C80.4287 83.6035 75.3546 90.5043 71.931 98.2848C68.5074 106.065 66.8205 114.53 66.993 123.062C67.1655 131.594 69.1931 139.98 72.9282 147.609C76.6633 155.237 82.012 161.917 88.585 167.162L109.251 139.989C106.622 137.891 104.482 135.219 102.988 132.168C101.494 129.116 100.683 125.762 100.614 122.349C100.545 118.936 101.22 115.55 102.589 112.438C103.959 109.326 105.988 106.566 108.531 104.358L86.7841 78.0847Z" fill="#0F3D66"/>
<path d="M149.836 71.4586C139.88 65.9041 128.512 63.5731 117.236 64.7733C105.959 65.9735 95.3022 70.6486 86.6733 78.1812L108.486 104.397C111.938 101.384 116.2 99.5135 120.711 99.0334C125.222 98.5533 129.769 99.4857 133.751 101.708L149.836 71.4586Z" fill="#0D5498"/>
<path d="M169.136 89.2352C164.139 81.8298 157.513 75.7317 149.791 71.4333L133.733 101.697C136.822 103.417 139.473 105.856 141.471 108.818L169.136 89.2352Z" fill="#2F7DC6"/>
<path d="M88.4195 167.029C98.9786 175.519 112.162 179.846 125.572 179.222C138.982 178.598 151.729 173.064 161.492 163.628C171.256 154.192 177.389 141.48 178.776 127.803C180.162 114.127 176.711 100.395 169.048 89.1054L141.436 108.766C144.501 113.282 145.882 118.775 145.327 124.245C144.773 129.716 142.319 134.801 138.414 138.575C134.508 142.35 129.41 144.563 124.046 144.813C118.682 145.063 113.408 143.332 109.185 139.936L88.4195 167.029Z" fill="#489DEE"/>
<path d="M11.9989 9.481C12.3629 9.481 12.6872 9.42033 12.9719 9.299C13.2612 9.17767 13.5039 9.00733 13.6999 8.788C13.8959 8.56867 14.0452 8.30267 14.1479 7.99C14.2552 7.67733 14.3089 7.32733 14.3089 6.94V0.877999H16.1919V6.94C16.1919 7.542 16.0939 8.09967 15.8979 8.613C15.7065 9.12167 15.4289 9.56267 15.0649 9.936C14.7055 10.3047 14.2669 10.594 13.7489 10.804C13.2309 11.0093 12.6475 11.112 11.9989 11.112C11.3455 11.112 10.7599 11.0093 10.2419 10.804C9.72385 10.594 9.28285 10.3047 8.91885 9.936C8.55952 9.56267 8.28185 9.12167 8.08585 8.613C7.89452 8.09967 7.79885 7.542 7.79885 6.94V0.877999H9.68185V6.933C9.68185 7.32033 9.73319 7.67033 9.83585 7.983C9.94319 8.29567 10.0949 8.564 10.2909 8.788C10.4915 9.00733 10.7342 9.17767 11.0189 9.299C11.3082 9.42033 11.6349 9.481 11.9989 9.481ZM19.4271 4.7C19.5717 4.55533 19.7234 4.42233 19.8821 4.301C20.0454 4.175 20.2157 4.07 20.3931 3.986C20.5751 3.89733 20.7687 3.82967 20.9741 3.783C21.1794 3.73167 21.4034 3.706 21.6461 3.706C22.0381 3.706 22.3857 3.77367 22.6891 3.909C22.9924 4.03967 23.2444 4.22633 23.4451 4.469C23.6504 4.707 23.8044 4.994 23.9071 5.33C24.0144 5.66133 24.0681 6.02767 24.0681 6.429V11H22.3391V6.429C22.3391 5.99033 22.2387 5.652 22.0381 5.414C21.8374 5.17133 21.5317 5.05 21.1211 5.05C20.8224 5.05 20.5424 5.11767 20.2811 5.253C20.0197 5.38833 19.7724 5.57267 19.5391 5.806V11H17.8101V3.818H18.8671C19.0911 3.818 19.2381 3.923 19.3081 4.133L19.4271 4.7ZM27.5044 3.818V11H25.7684V3.818H27.5044ZM27.7424 1.725C27.7424 1.87433 27.7121 2.01433 27.6514 2.145C27.5907 2.27567 27.5091 2.39 27.4064 2.488C27.3084 2.586 27.1917 2.66533 27.0564 2.726C26.9211 2.782 26.7764 2.81 26.6224 2.81C26.4731 2.81 26.3307 2.782 26.1954 2.726C26.0647 2.66533 25.9504 2.586 25.8524 2.488C25.7544 2.39 25.6751 2.27567 25.6144 2.145C25.5584 2.01433 25.5304 1.87433 25.5304 1.725C25.5304 1.571 25.5584 1.42633 25.6144 1.291C25.6751 1.15567 25.7544 1.039 25.8524 0.941C25.9504 0.843 26.0647 0.766 26.1954 0.71C26.3307 0.649333 26.4731 0.619 26.6224 0.619C26.7764 0.619 26.9211 0.649333 27.0564 0.71C27.1917 0.766 27.3084 0.843 27.4064 0.941C27.5091 1.039 27.5907 1.15567 27.6514 1.291C27.7121 1.42633 27.7424 1.571 27.7424 1.725ZM31.6611 11.112C31.0358 11.112 30.5551 10.937 30.2191 10.587C29.8878 10.2323 29.7221 9.74467 29.7221 9.124V5.113H28.9871C28.8938 5.113 28.8144 5.08267 28.7491 5.022C28.6838 4.96133 28.6511 4.87033 28.6511 4.749V4.063L29.8061 3.874L30.1701 1.914C30.1934 1.82067 30.2378 1.74833 30.3031 1.697C30.3684 1.64567 30.4524 1.62 30.5551 1.62H31.4511V3.881H33.3691V5.113H31.4511V9.005C31.4511 9.229 31.5048 9.404 31.6121 9.53C31.7241 9.656 31.8758 9.719 32.0671 9.719C32.1744 9.719 32.2631 9.70733 32.3331 9.684C32.4078 9.656 32.4708 9.628 32.5221 9.6C32.5781 9.572 32.6271 9.54633 32.6691 9.523C32.7111 9.495 32.7531 9.481 32.7951 9.481C32.8464 9.481 32.8884 9.495 32.9211 9.523C32.9538 9.54633 32.9888 9.58367 33.0261 9.635L33.5441 10.475C33.2921 10.685 33.0028 10.8437 32.6761 10.951C32.3494 11.0583 32.0111 11.112 31.6611 11.112ZM39.0484 6.583C39.0484 6.359 39.0157 6.149 38.9504 5.953C38.8897 5.75233 38.7964 5.57733 38.6704 5.428C38.5444 5.27867 38.3834 5.162 38.1874 5.078C37.996 4.98933 37.772 4.945 37.5154 4.945C37.016 4.945 36.6217 5.08733 36.3324 5.372C36.0477 5.65667 35.8657 6.06033 35.7864 6.583H39.0484ZM35.7514 7.626C35.7794 7.99467 35.8447 8.31433 35.9474 8.585C36.05 8.851 36.1854 9.07267 36.3534 9.25C36.5214 9.42267 36.7197 9.55333 36.9484 9.642C37.1817 9.726 37.4384 9.768 37.7184 9.768C37.9984 9.768 38.2387 9.73533 38.4394 9.67C38.6447 9.60467 38.822 9.53233 38.9714 9.453C39.1254 9.37367 39.2584 9.30133 39.3704 9.236C39.487 9.17067 39.599 9.138 39.7064 9.138C39.851 9.138 39.9584 9.19167 40.0284 9.299L40.5254 9.929C40.334 10.153 40.1194 10.342 39.8814 10.496C39.6434 10.6453 39.3937 10.7667 39.1324 10.86C38.8757 10.9487 38.612 11.0117 38.3414 11.049C38.0754 11.0863 37.8164 11.105 37.5644 11.105C37.065 11.105 36.6007 11.0233 36.1714 10.86C35.742 10.692 35.3687 10.447 35.0514 10.125C34.734 9.79833 34.4844 9.397 34.3024 8.921C34.1204 8.44033 34.0294 7.885 34.0294 7.255C34.0294 6.765 34.1087 6.30533 34.2674 5.876C34.426 5.442 34.6524 5.06633 34.9464 4.749C35.245 4.427 35.6067 4.17267 36.0314 3.986C36.4607 3.79933 36.9437 3.706 37.4804 3.706C37.933 3.706 38.3507 3.77833 38.7334 3.923C39.116 4.06767 39.445 4.28 39.7204 4.56C39.9957 4.83533 40.2104 5.176 40.3644 5.582C40.523 5.98333 40.6024 6.443 40.6024 6.961C40.6024 7.22233 40.5744 7.39967 40.5184 7.493C40.4624 7.58167 40.355 7.626 40.1964 7.626H35.7514ZM46.4079 5.652C46.2119 5.414 45.9972 5.246 45.7639 5.148C45.5352 5.05 45.2879 5.001 45.0219 5.001C44.7606 5.001 44.5249 5.05 44.3149 5.148C44.1049 5.246 43.9252 5.39533 43.7759 5.596C43.6266 5.792 43.5122 6.044 43.4329 6.352C43.3536 6.65533 43.3139 7.01467 43.3139 7.43C43.3139 7.85 43.3466 8.207 43.4119 8.501C43.4819 8.79033 43.5799 9.02833 43.7059 9.215C43.8319 9.397 43.9859 9.53 44.1679 9.614C44.3499 9.69333 44.5529 9.733 44.7769 9.733C45.1362 9.733 45.4419 9.65833 45.6939 9.509C45.9459 9.35967 46.1839 9.14733 46.4079 8.872V5.652ZM48.1369 0.598V11H47.0799C46.8512 11 46.7066 10.895 46.6459 10.685L46.4989 9.992C46.2096 10.3233 45.8759 10.5917 45.4979 10.797C45.1246 11.0023 44.6882 11.105 44.1889 11.105C43.7969 11.105 43.4376 11.0233 43.1109 10.86C42.7842 10.6967 42.5019 10.461 42.2639 10.153C42.0306 9.84033 41.8486 9.45533 41.7179 8.998C41.5919 8.54067 41.5289 8.018 41.5289 7.43C41.5289 6.898 41.6012 6.40333 41.7459 5.946C41.8906 5.48867 42.0982 5.092 42.3689 4.756C42.6396 4.42 42.9639 4.15867 43.3419 3.972C43.7199 3.78067 44.1446 3.685 44.6159 3.685C45.0172 3.685 45.3602 3.748 45.6449 3.874C45.9296 4 46.1839 4.17033 46.4079 4.385V0.598H48.1369ZM58.9106 2.719C58.8546 2.817 58.7939 2.88933 58.7286 2.936C58.6679 2.978 58.5909 2.999 58.4976 2.999C58.3996 2.999 58.2922 2.964 58.1756 2.894C58.0636 2.81933 57.9282 2.73767 57.7696 2.649C57.6109 2.56033 57.4242 2.481 57.2096 2.411C56.9996 2.33633 56.7499 2.299 56.4606 2.299C56.1992 2.299 55.9706 2.33167 55.7746 2.397C55.5786 2.45767 55.4129 2.544 55.2776 2.656C55.1469 2.768 55.0489 2.90333 54.9836 3.062C54.9182 3.216 54.8856 3.38633 54.8856 3.573C54.8856 3.811 54.9509 4.00933 55.0816 4.168C55.2169 4.32667 55.3942 4.462 55.6136 4.574C55.8329 4.686 56.0826 4.78633 56.3626 4.875C56.6426 4.96367 56.9296 5.05933 57.2236 5.162C57.5176 5.26 57.8046 5.37667 58.0846 5.512C58.3646 5.64267 58.6142 5.81067 58.8336 6.016C59.0529 6.21667 59.2279 6.464 59.3586 6.758C59.4939 7.052 59.5616 7.409 59.5616 7.829C59.5616 8.28633 59.4822 8.71567 59.3236 9.117C59.1696 9.51367 58.9409 9.86133 58.6376 10.16C58.3389 10.454 57.9726 10.6873 57.5386 10.86C57.1046 11.028 56.6076 11.112 56.0476 11.112C55.7256 11.112 55.4082 11.0793 55.0956 11.014C54.7829 10.9533 54.4819 10.8647 54.1926 10.748C53.9079 10.6313 53.6396 10.4913 53.3876 10.328C53.1356 10.1647 52.9116 9.98267 52.7156 9.782L53.2686 8.879C53.3152 8.81367 53.3759 8.76 53.4506 8.718C53.5252 8.67133 53.6046 8.648 53.6886 8.648C53.8052 8.648 53.9312 8.697 54.0666 8.795C54.2019 8.88833 54.3629 8.99333 54.5496 9.11C54.7362 9.22667 54.9532 9.334 55.2006 9.432C55.4526 9.52533 55.7536 9.572 56.1036 9.572C56.6402 9.572 57.0556 9.446 57.3496 9.194C57.6436 8.93733 57.7906 8.571 57.7906 8.095C57.7906 7.829 57.7229 7.612 57.5876 7.444C57.4569 7.276 57.2819 7.136 57.0626 7.024C56.8432 6.90733 56.5936 6.80933 56.3136 6.73C56.0336 6.65067 55.7489 6.56433 55.4596 6.471C55.1702 6.37767 54.8856 6.26567 54.6056 6.135C54.3256 6.00433 54.0759 5.834 53.8566 5.624C53.6372 5.414 53.4599 5.15267 53.3246 4.84C53.1939 4.52267 53.1286 4.133 53.1286 3.671C53.1286 3.30233 53.2009 2.943 53.3456 2.593C53.4949 2.243 53.7096 1.93267 53.9896 1.662C54.2696 1.39133 54.6149 1.17433 55.0256 1.011C55.4362 0.847667 55.9076 0.766 56.4396 0.766C57.0369 0.766 57.5876 0.859333 58.0916 1.046C58.5956 1.23267 59.0249 1.494 59.3796 1.83L58.9106 2.719ZM63.0107 11.112C62.3854 11.112 61.9047 10.937 61.5687 10.587C61.2374 10.2323 61.0717 9.74467 61.0717 9.124V5.113H60.3367C60.2434 5.113 60.164 5.08267 60.0987 5.022C60.0334 4.96133 60.0007 4.87033 60.0007 4.749V4.063L61.1557 3.874L61.5197 1.914C61.543 1.82067 61.5874 1.74833 61.6527 1.697C61.718 1.64567 61.802 1.62 61.9047 1.62H62.8007V3.881H64.7187V5.113H62.8007V9.005C62.8007 9.229 62.8544 9.404 62.9617 9.53C63.0737 9.656 63.2254 9.719 63.4167 9.719C63.524 9.719 63.6127 9.70733 63.6827 9.684C63.7574 9.656 63.8204 9.628 63.8717 9.6C63.9277 9.572 63.9767 9.54633 64.0187 9.523C64.0607 9.495 64.1027 9.481 64.1447 9.481C64.196 9.481 64.238 9.495 64.2707 9.523C64.3034 9.54633 64.3384 9.58367 64.3757 9.635L64.8937 10.475C64.6417 10.685 64.3524 10.8437 64.0257 10.951C63.699 11.0583 63.3607 11.112 63.0107 11.112ZM69.6197 7.934C69.1203 7.95733 68.7003 8.00167 68.3597 8.067C68.019 8.12767 67.746 8.207 67.5407 8.305C67.3353 8.403 67.1883 8.51733 67.0997 8.648C67.011 8.77867 66.9667 8.921 66.9667 9.075C66.9667 9.37833 67.0553 9.59533 67.2327 9.726C67.4147 9.85667 67.6503 9.922 67.9397 9.922C68.2943 9.922 68.6 9.859 68.8567 9.733C69.118 9.60233 69.3723 9.40633 69.6197 9.145V7.934ZM65.6577 4.819C66.4837 4.063 67.4777 3.685 68.6397 3.685C69.0597 3.685 69.4353 3.755 69.7667 3.895C70.098 4.03033 70.378 4.22167 70.6067 4.469C70.8353 4.71167 71.008 5.00333 71.1247 5.344C71.246 5.68467 71.3067 6.058 71.3067 6.464V11H70.5227C70.3593 11 70.2333 10.9767 70.1447 10.93C70.056 10.8787 69.986 10.7783 69.9347 10.629L69.7807 10.111C69.5987 10.2743 69.4213 10.419 69.2487 10.545C69.076 10.6663 68.8963 10.769 68.7097 10.853C68.523 10.937 68.3223 11 68.1077 11.042C67.8977 11.0887 67.6643 11.112 67.4077 11.112C67.1043 11.112 66.8243 11.0723 66.5677 10.993C66.311 10.909 66.0893 10.7853 65.9027 10.622C65.716 10.4587 65.5713 10.2557 65.4687 10.013C65.366 9.77033 65.3147 9.488 65.3147 9.166C65.3147 8.984 65.345 8.80433 65.4057 8.627C65.4663 8.445 65.5643 8.27233 65.6997 8.109C65.8397 7.94567 66.0193 7.79167 66.2387 7.647C66.458 7.50233 66.7263 7.37633 67.0437 7.269C67.3657 7.16167 67.739 7.07533 68.1637 7.01C68.5883 6.94 69.0737 6.898 69.6197 6.884V6.464C69.6197 5.98333 69.517 5.62867 69.3117 5.4C69.1063 5.16667 68.81 5.05 68.4227 5.05C68.1427 5.05 67.9093 5.08267 67.7227 5.148C67.5407 5.21333 67.3797 5.288 67.2397 5.372C67.0997 5.45133 66.9713 5.52367 66.8547 5.589C66.7427 5.65433 66.6167 5.687 66.4767 5.687C66.3553 5.687 66.2527 5.65667 66.1687 5.596C66.0847 5.53067 66.017 5.456 65.9657 5.372L65.6577 4.819ZM75.2334 11.112C74.608 11.112 74.1274 10.937 73.7914 10.587C73.46 10.2323 73.2944 9.74467 73.2944 9.124V5.113H72.5594C72.466 5.113 72.3867 5.08267 72.3214 5.022C72.256 4.96133 72.2234 4.87033 72.2234 4.749V4.063L73.3784 3.874L73.7424 1.914C73.7657 1.82067 73.81 1.74833 73.8754 1.697C73.9407 1.64567 74.0247 1.62 74.1274 1.62H75.0234V3.881H76.9414V5.113H75.0234V9.005C75.0234 9.229 75.077 9.404 75.1844 9.53C75.2964 9.656 75.448 9.719 75.6394 9.719C75.7467 9.719 75.8354 9.70733 75.9054 9.684C75.98 9.656 76.043 9.628 76.0944 9.6C76.1504 9.572 76.1994 9.54633 76.2414 9.523C76.2834 9.495 76.3254 9.481 76.3674 9.481C76.4187 9.481 76.4607 9.495 76.4934 9.523C76.526 9.54633 76.561 9.58367 76.5984 9.635L77.1164 10.475C76.8644 10.685 76.575 10.8437 76.2484 10.951C75.9217 11.0583 75.5834 11.112 75.2334 11.112ZM82.6206 6.583C82.6206 6.359 82.588 6.149 82.5226 5.953C82.462 5.75233 82.3686 5.57733 82.2426 5.428C82.1166 5.27867 81.9556 5.162 81.7596 5.078C81.5683 4.98933 81.3443 4.945 81.0876 4.945C80.5883 4.945 80.194 5.08733 79.9046 5.372C79.62 5.65667 79.438 6.06033 79.3586 6.583H82.6206ZM79.3236 7.626C79.3516 7.99467 79.417 8.31433 79.5196 8.585C79.6223 8.851 79.7576 9.07267 79.9256 9.25C80.0936 9.42267 80.292 9.55333 80.5206 9.642C80.754 9.726 81.0106 9.768 81.2906 9.768C81.5706 9.768 81.811 9.73533 82.0116 9.67C82.217 9.60467 82.3943 9.53233 82.5436 9.453C82.6976 9.37367 82.8306 9.30133 82.9426 9.236C83.0593 9.17067 83.1713 9.138 83.2786 9.138C83.4233 9.138 83.5306 9.19167 83.6006 9.299L84.0976 9.929C83.9063 10.153 83.6916 10.342 83.4536 10.496C83.2156 10.6453 82.966 10.7667 82.7046 10.86C82.448 10.9487 82.1843 11.0117 81.9136 11.049C81.6476 11.0863 81.3886 11.105 81.1366 11.105C80.6373 11.105 80.173 11.0233 79.7436 10.86C79.3143 10.692 78.941 10.447 78.6236 10.125C78.3063 9.79833 78.0566 9.397 77.8746 8.921C77.6926 8.44033 77.6016 7.885 77.6016 7.255C77.6016 6.765 77.681 6.30533 77.8396 5.876C77.9983 5.442 78.2246 5.06633 78.5186 4.749C78.8173 4.427 79.179 4.17267 79.6036 3.986C80.033 3.79933 80.516 3.706 81.0526 3.706C81.5053 3.706 81.923 3.77833 82.3056 3.923C82.6883 4.06767 83.0173 4.28 83.2926 4.56C83.568 4.83533 83.7826 5.176 83.9366 5.582C84.0953 5.98333 84.1746 6.443 84.1746 6.961C84.1746 7.22233 84.1466 7.39967 84.0906 7.493C84.0346 7.58167 83.9273 7.626 83.7686 7.626H79.3236ZM89.8542 5.218C89.8075 5.29267 89.7585 5.34633 89.7072 5.379C89.6558 5.407 89.5905 5.421 89.5112 5.421C89.4272 5.421 89.3362 5.39767 89.2382 5.351C89.1448 5.30433 89.0352 5.253 88.9092 5.197C88.7832 5.13633 88.6385 5.08267 88.4752 5.036C88.3165 4.98933 88.1275 4.966 87.9082 4.966C87.5675 4.966 87.2992 5.03833 87.1032 5.183C86.9118 5.32767 86.8162 5.51667 86.8162 5.75C86.8162 5.904 86.8652 6.03467 86.9632 6.142C87.0658 6.24467 87.1988 6.33567 87.3622 6.415C87.5302 6.49433 87.7192 6.56667 87.9292 6.632C88.1392 6.69267 88.3515 6.76033 88.5662 6.835C88.7855 6.90967 89.0002 6.996 89.2102 7.094C89.4202 7.18733 89.6068 7.30867 89.7702 7.458C89.9382 7.60267 90.0712 7.77767 90.1692 7.983C90.2718 8.18833 90.3232 8.43567 90.3232 8.725C90.3232 9.07033 90.2602 9.39 90.1342 9.684C90.0128 9.97333 89.8308 10.2253 89.5882 10.44C89.3455 10.65 89.0445 10.8157 88.6852 10.937C88.3305 11.0537 87.9198 11.112 87.4532 11.112C87.2058 11.112 86.9632 11.0887 86.7252 11.042C86.4918 11 86.2655 10.9393 86.0462 10.86C85.8315 10.7807 85.6308 10.6873 85.4442 10.58C85.2622 10.4727 85.1012 10.356 84.9612 10.23L85.3602 9.572C85.4115 9.49267 85.4722 9.432 85.5422 9.39C85.6122 9.348 85.7008 9.327 85.8082 9.327C85.9155 9.327 86.0158 9.35733 86.1092 9.418C86.2072 9.47867 86.3192 9.544 86.4452 9.614C86.5712 9.684 86.7182 9.74933 86.8862 9.81C87.0588 9.87067 87.2758 9.901 87.5372 9.901C87.7425 9.901 87.9175 9.87767 88.0622 9.831C88.2115 9.77967 88.3328 9.71433 88.4262 9.635C88.5242 9.55567 88.5942 9.46467 88.6362 9.362C88.6828 9.25467 88.7062 9.145 88.7062 9.033C88.7062 8.865 88.6548 8.72733 88.5522 8.62C88.4542 8.51267 88.3212 8.41933 88.1532 8.34C87.9898 8.26067 87.8008 8.19067 87.5862 8.13C87.3762 8.06467 87.1592 7.99467 86.9352 7.92C86.7158 7.84533 86.4988 7.759 86.2842 7.661C86.0742 7.55833 85.8852 7.43 85.7172 7.276C85.5538 7.122 85.4208 6.933 85.3182 6.709C85.2202 6.485 85.1712 6.21433 85.1712 5.897C85.1712 5.603 85.2295 5.323 85.3462 5.057C85.4628 4.791 85.6332 4.56 85.8572 4.364C86.0858 4.16333 86.3682 4.00467 86.7042 3.888C87.0448 3.76667 87.4368 3.706 87.8802 3.706C88.3748 3.706 88.8252 3.78767 89.2312 3.951C89.6372 4.11433 89.9755 4.329 90.2462 4.595L89.8542 5.218ZM92.7595 0.198999C92.9835 0.567666 93.1352 0.952666 93.2145 1.354C93.2938 1.75067 93.3008 2.145 93.2355 2.537C93.1702 2.92433 93.0325 3.29767 92.8225 3.657C92.6172 4.01167 92.3395 4.33133 91.9895 4.616L91.4435 4.287C91.3968 4.259 91.3642 4.22633 91.3455 4.189C91.3268 4.147 91.3175 4.10733 91.3175 4.07C91.3222 4.028 91.3315 3.98833 91.3455 3.951C91.3642 3.91367 91.3875 3.881 91.4155 3.853C91.5135 3.73633 91.6068 3.58233 91.6955 3.391C91.7842 3.19967 91.8448 2.985 91.8775 2.747C91.9148 2.509 91.9102 2.25467 91.8635 1.984C91.8215 1.71333 91.7165 1.44267 91.5485 1.172C91.4692 1.03667 91.4458 0.919999 91.4785 0.821999C91.5158 0.719333 91.5928 0.647 91.7095 0.605L92.7595 0.198999ZM100.172 11H98.2823V0.877999H100.172V11ZM102.056 11V3.818H103.113C103.337 3.818 103.484 3.923 103.554 4.133L103.666 4.665C103.792 4.525 103.923 4.39667 104.058 4.28C104.198 4.16333 104.345 4.063 104.499 3.979C104.658 3.895 104.826 3.82967 105.003 3.783C105.185 3.73167 105.383 3.706 105.598 3.706C106.051 3.706 106.422 3.82967 106.711 4.077C107.005 4.31967 107.224 4.644 107.369 5.05C107.481 4.812 107.621 4.609 107.789 4.441C107.957 4.26833 108.141 4.12833 108.342 4.021C108.543 3.91367 108.755 3.83433 108.979 3.783C109.208 3.73167 109.436 3.706 109.665 3.706C110.062 3.706 110.414 3.76667 110.722 3.888C111.03 4.00933 111.289 4.18667 111.499 4.42C111.709 4.65333 111.868 4.938 111.975 5.274C112.087 5.61 112.143 5.995 112.143 6.429V11H110.414V6.429C110.414 5.97167 110.314 5.62867 110.113 5.4C109.912 5.16667 109.618 5.05 109.231 5.05C109.054 5.05 108.888 5.08033 108.734 5.141C108.585 5.20167 108.452 5.29033 108.335 5.407C108.223 5.519 108.134 5.66133 108.069 5.834C108.004 6.00667 107.971 6.205 107.971 6.429V11H106.235V6.429C106.235 5.94833 106.137 5.59833 105.941 5.379C105.75 5.15967 105.467 5.05 105.094 5.05C104.842 5.05 104.606 5.113 104.387 5.239C104.172 5.36033 103.972 5.52833 103.785 5.743V11H102.056ZM115.516 9.138C115.712 9.376 115.924 9.544 116.153 9.642C116.386 9.74 116.638 9.789 116.909 9.789C117.17 9.789 117.406 9.74 117.616 9.642C117.826 9.544 118.003 9.39467 118.148 9.194C118.297 8.99333 118.411 8.74133 118.491 8.438C118.57 8.13 118.61 7.76833 118.61 7.353C118.61 6.933 118.575 6.57833 118.505 6.289C118.439 5.995 118.344 5.757 118.218 5.575C118.092 5.393 117.938 5.26 117.756 5.176C117.578 5.092 117.375 5.05 117.147 5.05C116.787 5.05 116.482 5.127 116.23 5.281C115.978 5.43033 115.74 5.64267 115.516 5.918V9.138ZM115.425 4.798C115.719 4.46667 116.052 4.19833 116.426 3.993C116.799 3.78767 117.238 3.685 117.742 3.685C118.134 3.685 118.491 3.76667 118.813 3.93C119.139 4.09333 119.419 4.33133 119.653 4.644C119.891 4.952 120.073 5.33467 120.199 5.792C120.329 6.24467 120.395 6.765 120.395 7.353C120.395 7.88967 120.322 8.38667 120.178 8.844C120.033 9.30133 119.825 9.698 119.555 10.034C119.289 10.37 118.964 10.6337 118.582 10.825C118.204 11.0117 117.779 11.105 117.308 11.105C116.906 11.105 116.563 11.0443 116.279 10.923C115.994 10.797 115.74 10.6243 115.516 10.405V13.345H113.787V3.818H114.844C115.068 3.818 115.215 3.923 115.285 4.133L115.425 4.798ZM124.922 3.706C125.454 3.706 125.937 3.79233 126.371 3.965C126.809 4.13767 127.183 4.38267 127.491 4.7C127.803 5.01733 128.044 5.40467 128.212 5.862C128.38 6.31933 128.464 6.83033 128.464 7.395C128.464 7.96433 128.38 8.47767 128.212 8.935C128.044 9.39233 127.803 9.782 127.491 10.104C127.183 10.426 126.809 10.6733 126.371 10.846C125.937 11.0187 125.454 11.105 124.922 11.105C124.385 11.105 123.897 11.0187 123.459 10.846C123.02 10.6733 122.644 10.426 122.332 10.104C122.024 9.782 121.783 9.39233 121.611 8.935C121.443 8.47767 121.359 7.96433 121.359 7.395C121.359 6.83033 121.443 6.31933 121.611 5.862C121.783 5.40467 122.024 5.01733 122.332 4.7C122.644 4.38267 123.02 4.13767 123.459 3.965C123.897 3.79233 124.385 3.706 124.922 3.706ZM124.922 9.775C125.519 9.775 125.96 9.57433 126.245 9.173C126.534 8.77167 126.679 8.18367 126.679 7.409C126.679 6.63433 126.534 6.044 126.245 5.638C125.96 5.232 125.519 5.029 124.922 5.029C124.315 5.029 123.865 5.23433 123.571 5.645C123.281 6.051 123.137 6.639 123.137 7.409C123.137 8.179 123.281 8.767 123.571 9.173C123.865 9.57433 124.315 9.775 124.922 9.775ZM131.414 5.064C131.638 4.63467 131.904 4.29867 132.212 4.056C132.52 3.80867 132.884 3.685 133.304 3.685C133.635 3.685 133.901 3.75733 134.102 3.902L133.99 5.197C133.966 5.281 133.931 5.34167 133.885 5.379C133.843 5.41167 133.784 5.428 133.71 5.428C133.64 5.428 133.535 5.41633 133.395 5.393C133.259 5.36967 133.126 5.358 132.996 5.358C132.804 5.358 132.634 5.386 132.485 5.442C132.335 5.498 132.2 5.57967 132.079 5.687C131.962 5.78967 131.857 5.91567 131.764 6.065C131.675 6.21433 131.591 6.38467 131.512 6.576V11H129.783V3.818H130.798C130.975 3.818 131.099 3.85067 131.169 3.916C131.239 3.97667 131.285 4.08867 131.309 4.252L131.414 5.064ZM137.399 11.112C136.774 11.112 136.293 10.937 135.957 10.587C135.626 10.2323 135.46 9.74467 135.46 9.124V5.113H134.725C134.632 5.113 134.553 5.08267 134.487 5.022C134.422 4.96133 134.389 4.87033 134.389 4.749V4.063L135.544 3.874L135.908 1.914C135.932 1.82067 135.976 1.74833 136.041 1.697C136.107 1.64567 136.191 1.62 136.293 1.62H137.189V3.881H139.107V5.113H137.189V9.005C137.189 9.229 137.243 9.404 137.35 9.53C137.462 9.656 137.614 9.719 137.805 9.719C137.913 9.719 138.001 9.70733 138.071 9.684C138.146 9.656 138.209 9.628 138.26 9.6C138.316 9.572 138.365 9.54633 138.407 9.523C138.449 9.495 138.491 9.481 138.533 9.481C138.585 9.481 138.627 9.495 138.659 9.523C138.692 9.54633 138.727 9.58367 138.764 9.635L139.282 10.475C139.03 10.685 138.741 10.8437 138.414 10.951C138.088 11.0583 137.749 11.112 137.399 11.112ZM144.596 5.218C144.55 5.29267 144.501 5.34633 144.449 5.379C144.398 5.407 144.333 5.421 144.253 5.421C144.169 5.421 144.078 5.39767 143.98 5.351C143.887 5.30433 143.777 5.253 143.651 5.197C143.525 5.13633 143.381 5.08267 143.217 5.036C143.059 4.98933 142.87 4.966 142.65 4.966C142.31 4.966 142.041 5.03833 141.845 5.183C141.654 5.32767 141.558 5.51667 141.558 5.75C141.558 5.904 141.607 6.03467 141.705 6.142C141.808 6.24467 141.941 6.33567 142.104 6.415C142.272 6.49433 142.461 6.56667 142.671 6.632C142.881 6.69267 143.094 6.76033 143.308 6.835C143.528 6.90967 143.742 6.996 143.952 7.094C144.162 7.18733 144.349 7.30867 144.512 7.458C144.68 7.60267 144.813 7.77767 144.911 7.983C145.014 8.18833 145.065 8.43567 145.065 8.725C145.065 9.07033 145.002 9.39 144.876 9.684C144.755 9.97333 144.573 10.2253 144.33 10.44C144.088 10.65 143.787 10.8157 143.427 10.937C143.073 11.0537 142.662 11.112 142.195 11.112C141.948 11.112 141.705 11.0887 141.467 11.042C141.234 11 141.008 10.9393 140.788 10.86C140.574 10.7807 140.373 10.6873 140.186 10.58C140.004 10.4727 139.843 10.356 139.703 10.23L140.102 9.572C140.154 9.49267 140.214 9.432 140.284 9.39C140.354 9.348 140.443 9.327 140.55 9.327C140.658 9.327 140.758 9.35733 140.851 9.418C140.949 9.47867 141.061 9.544 141.187 9.614C141.313 9.684 141.46 9.74933 141.628 9.81C141.801 9.87067 142.018 9.901 142.279 9.901C142.485 9.901 142.66 9.87767 142.804 9.831C142.954 9.77967 143.075 9.71433 143.168 9.635C143.266 9.55567 143.336 9.46467 143.378 9.362C143.425 9.25467 143.448 9.145 143.448 9.033C143.448 8.865 143.397 8.72733 143.294 8.62C143.196 8.51267 143.063 8.41933 142.895 8.34C142.732 8.26067 142.543 8.19067 142.328 8.13C142.118 8.06467 141.901 7.99467 141.677 7.92C141.458 7.84533 141.241 7.759 141.026 7.661C140.816 7.55833 140.627 7.43 140.459 7.276C140.296 7.122 140.163 6.933 140.06 6.709C139.962 6.485 139.913 6.21433 139.913 5.897C139.913 5.603 139.972 5.323 140.088 5.057C140.205 4.791 140.375 4.56 140.599 4.364C140.828 4.16333 141.11 4.00467 141.446 3.888C141.787 3.76667 142.179 3.706 142.622 3.706C143.117 3.706 143.567 3.78767 143.973 3.951C144.379 4.11433 144.718 4.329 144.988 4.595L144.596 5.218ZM151.934 2.376V5.372H155.728V6.877H151.934V11H150.044V0.877999H156.428V2.376H151.934ZM158.771 5.064C158.995 4.63467 159.261 4.29867 159.569 4.056C159.877 3.80867 160.241 3.685 160.661 3.685C160.992 3.685 161.258 3.75733 161.459 3.902L161.347 5.197C161.324 5.281 161.289 5.34167 161.242 5.379C161.2 5.41167 161.142 5.428 161.067 5.428C160.997 5.428 160.892 5.41633 160.752 5.393C160.617 5.36967 160.484 5.358 160.353 5.358C160.162 5.358 159.991 5.386 159.842 5.442C159.693 5.498 159.557 5.57967 159.436 5.687C159.319 5.78967 159.214 5.91567 159.121 6.065C159.032 6.21433 158.948 6.38467 158.869 6.576V11H157.14V3.818H158.155C158.332 3.818 158.456 3.85067 158.526 3.916C158.596 3.97667 158.643 4.08867 158.666 4.252L158.771 5.064ZM165.336 3.706C165.868 3.706 166.351 3.79233 166.785 3.965C167.223 4.13767 167.597 4.38267 167.905 4.7C168.217 5.01733 168.458 5.40467 168.626 5.862C168.794 6.31933 168.878 6.83033 168.878 7.395C168.878 7.96433 168.794 8.47767 168.626 8.935C168.458 9.39233 168.217 9.782 167.905 10.104C167.597 10.426 167.223 10.6733 166.785 10.846C166.351 11.0187 165.868 11.105 165.336 11.105C164.799 11.105 164.311 11.0187 163.873 10.846C163.434 10.6733 163.058 10.426 162.746 10.104C162.438 9.782 162.197 9.39233 162.025 8.935C161.857 8.47767 161.773 7.96433 161.773 7.395C161.773 6.83033 161.857 6.31933 162.025 5.862C162.197 5.40467 162.438 5.01733 162.746 4.7C163.058 4.38267 163.434 4.13767 163.873 3.965C164.311 3.79233 164.799 3.706 165.336 3.706ZM165.336 9.775C165.933 9.775 166.374 9.57433 166.659 9.173C166.948 8.77167 167.093 8.18367 167.093 7.409C167.093 6.63433 166.948 6.044 166.659 5.638C166.374 5.232 165.933 5.029 165.336 5.029C164.729 5.029 164.279 5.23433 163.985 5.645C163.695 6.051 163.551 6.639 163.551 7.409C163.551 8.179 163.695 8.767 163.985 9.173C164.279 9.57433 164.729 9.775 165.336 9.775ZM170.197 11V3.818H171.254C171.478 3.818 171.625 3.923 171.695 4.133L171.807 4.665C171.933 4.525 172.063 4.39667 172.199 4.28C172.339 4.16333 172.486 4.063 172.64 3.979C172.798 3.895 172.966 3.82967 173.144 3.783C173.326 3.73167 173.524 3.706 173.739 3.706C174.191 3.706 174.562 3.82967 174.852 4.077C175.146 4.31967 175.365 4.644 175.51 5.05C175.622 4.812 175.762 4.609 175.93 4.441C176.098 4.26833 176.282 4.12833 176.483 4.021C176.683 3.91367 176.896 3.83433 177.12 3.783C177.348 3.73167 177.577 3.706 177.806 3.706C178.202 3.706 178.555 3.76667 178.863 3.888C179.171 4.00933 179.43 4.18667 179.64 4.42C179.85 4.65333 180.008 4.938 180.116 5.274C180.228 5.61 180.284 5.995 180.284 6.429V11H178.555V6.429C178.555 5.97167 178.454 5.62867 178.254 5.4C178.053 5.16667 177.759 5.05 177.372 5.05C177.194 5.05 177.029 5.08033 176.875 5.141C176.725 5.20167 176.592 5.29033 176.476 5.407C176.364 5.519 176.275 5.66133 176.21 5.834C176.144 6.00667 176.112 6.205 176.112 6.429V11H174.376V6.429C174.376 5.94833 174.278 5.59833 174.082 5.379C173.89 5.15967 173.608 5.05 173.235 5.05C172.983 5.05 172.747 5.113 172.528 5.239C172.313 5.36033 172.112 5.52833 171.926 5.743V11H170.197ZM192.556 8.613C192.658 8.613 192.749 8.65267 192.829 8.732L193.571 9.537C193.16 10.0457 192.654 10.4353 192.052 10.706C191.454 10.9767 190.736 11.112 189.896 11.112C189.144 11.112 188.468 10.9837 187.866 10.727C187.268 10.4703 186.757 10.1133 186.333 9.656C185.908 9.19867 185.581 8.65267 185.353 8.018C185.129 7.38333 185.017 6.69033 185.017 5.939C185.017 5.17833 185.138 4.483 185.381 3.853C185.623 3.21833 185.964 2.67233 186.403 2.215C186.846 1.75767 187.373 1.403 187.985 1.151C188.596 0.894333 189.273 0.766 190.015 0.766C190.752 0.766 191.405 0.887333 191.975 1.13C192.549 1.37267 193.036 1.69 193.438 2.082L192.808 2.957C192.77 3.013 192.721 3.062 192.661 3.104C192.605 3.146 192.525 3.167 192.423 3.167C192.353 3.167 192.28 3.14833 192.206 3.111C192.131 3.069 192.049 3.02 191.961 2.964C191.872 2.90333 191.769 2.838 191.653 2.768C191.536 2.698 191.401 2.635 191.247 2.579C191.093 2.51833 190.913 2.46933 190.708 2.432C190.507 2.39 190.274 2.369 190.008 2.369C189.555 2.369 189.14 2.45067 188.762 2.614C188.388 2.77267 188.066 3.006 187.796 3.314C187.525 3.61733 187.315 3.99067 187.166 4.434C187.016 4.87267 186.942 5.37433 186.942 5.939C186.942 6.50833 187.021 7.01467 187.18 7.458C187.343 7.90133 187.562 8.27467 187.838 8.578C188.113 8.88133 188.437 9.11467 188.811 9.278C189.184 9.43667 189.585 9.516 190.015 9.516C190.271 9.516 190.502 9.502 190.708 9.474C190.918 9.446 191.109 9.40167 191.282 9.341C191.459 9.28033 191.625 9.20333 191.779 9.11C191.937 9.012 192.094 8.893 192.248 8.753C192.294 8.711 192.343 8.67833 192.395 8.655C192.446 8.627 192.5 8.613 192.556 8.613ZM196.316 4.588C196.596 4.32667 196.904 4.11433 197.24 3.951C197.576 3.78767 197.971 3.706 198.423 3.706C198.815 3.706 199.163 3.77367 199.466 3.909C199.77 4.03967 200.022 4.22633 200.222 4.469C200.428 4.707 200.582 4.994 200.684 5.33C200.792 5.66133 200.845 6.02767 200.845 6.429V11H199.116V6.429C199.116 5.99033 199.016 5.652 198.815 5.414C198.615 5.17133 198.309 5.05 197.898 5.05C197.6 5.05 197.32 5.11767 197.058 5.253C196.797 5.38833 196.55 5.57267 196.316 5.806V11H194.587V0.598H196.316V4.588ZM204.282 3.818V11H202.546V3.818H204.282ZM204.52 1.725C204.52 1.87433 204.489 2.01433 204.429 2.145C204.368 2.27567 204.286 2.39 204.184 2.488C204.086 2.586 203.969 2.66533 203.834 2.726C203.698 2.782 203.554 2.81 203.4 2.81C203.25 2.81 203.108 2.782 202.973 2.726C202.842 2.66533 202.728 2.586 202.63 2.488C202.532 2.39 202.452 2.27567 202.392 2.145C202.336 2.01433 202.308 1.87433 202.308 1.725C202.308 1.571 202.336 1.42633 202.392 1.291C202.452 1.15567 202.532 1.039 202.63 0.941C202.728 0.843 202.842 0.766 202.973 0.71C203.108 0.649333 203.25 0.619 203.4 0.619C203.554 0.619 203.698 0.649333 203.834 0.71C203.969 0.766 204.086 0.843 204.184 0.941C204.286 1.039 204.368 1.15567 204.429 1.291C204.489 1.42633 204.52 1.571 204.52 1.725ZM207.661 4.7C207.806 4.55533 207.958 4.42233 208.116 4.301C208.28 4.175 208.45 4.07 208.627 3.986C208.809 3.89733 209.003 3.82967 209.208 3.783C209.414 3.73167 209.638 3.706 209.88 3.706C210.272 3.706 210.62 3.77367 210.923 3.909C211.227 4.03967 211.479 4.22633 211.679 4.469C211.885 4.707 212.039 4.994 212.141 5.33C212.249 5.66133 212.302 6.02767 212.302 6.429V11H210.573V6.429C210.573 5.99033 210.473 5.652 210.272 5.414C210.072 5.17133 209.766 5.05 209.355 5.05C209.057 5.05 208.777 5.11767 208.515 5.253C208.254 5.38833 208.007 5.57267 207.773 5.806V11H206.044V3.818H207.101C207.325 3.818 207.472 3.923 207.542 4.133L207.661 4.7ZM217.741 7.934C217.241 7.95733 216.821 8.00167 216.481 8.067C216.14 8.12767 215.867 8.207 215.662 8.305C215.456 8.403 215.309 8.51733 215.221 8.648C215.132 8.77867 215.088 8.921 215.088 9.075C215.088 9.37833 215.176 9.59533 215.354 9.726C215.536 9.85667 215.771 9.922 216.061 9.922C216.415 9.922 216.721 9.859 216.978 9.733C217.239 9.60233 217.493 9.40633 217.741 9.145V7.934ZM213.779 4.819C214.605 4.063 215.599 3.685 216.761 3.685C217.181 3.685 217.556 3.755 217.888 3.895C218.219 4.03033 218.499 4.22167 218.728 4.469C218.956 4.71167 219.129 5.00333 219.246 5.344C219.367 5.68467 219.428 6.058 219.428 6.464V11H218.644C218.48 11 218.354 10.9767 218.266 10.93C218.177 10.8787 218.107 10.7783 218.056 10.629L217.902 10.111C217.72 10.2743 217.542 10.419 217.37 10.545C217.197 10.6663 217.017 10.769 216.831 10.853C216.644 10.937 216.443 11 216.229 11.042C216.019 11.0887 215.785 11.112 215.529 11.112C215.225 11.112 214.945 11.0723 214.689 10.993C214.432 10.909 214.21 10.7853 214.024 10.622C213.837 10.4587 213.692 10.2557 213.59 10.013C213.487 9.77033 213.436 9.488 213.436 9.166C213.436 8.984 213.466 8.80433 213.527 8.627C213.587 8.445 213.685 8.27233 213.821 8.109C213.961 7.94567 214.14 7.79167 214.36 7.647C214.579 7.50233 214.847 7.37633 215.165 7.269C215.487 7.16167 215.86 7.07533 216.285 7.01C216.709 6.94 217.195 6.898 217.741 6.884V6.464C217.741 5.98333 217.638 5.62867 217.433 5.4C217.227 5.16667 216.931 5.05 216.544 5.05C216.264 5.05 216.03 5.08267 215.844 5.148C215.662 5.21333 215.501 5.288 215.361 5.372C215.221 5.45133 215.092 5.52367 214.976 5.589C214.864 5.65433 214.738 5.687 214.598 5.687C214.476 5.687 214.374 5.65667 214.29 5.596C214.206 5.53067 214.138 5.456 214.087 5.372L213.779 4.819Z" fill="#212121"/>
<path d="M189.316 188.023C189.316 188.606 189.219 189.147 189.024 189.646C188.834 190.141 188.562 190.57 188.21 190.933C187.858 191.296 187.435 191.58 186.94 191.785C186.445 191.987 185.895 192.088 185.29 192.088C184.688 192.088 184.14 191.987 183.645 191.785C183.15 191.58 182.725 191.296 182.369 190.933C182.017 190.57 181.744 190.141 181.55 189.646C181.355 189.147 181.258 188.606 181.258 188.023C181.258 187.44 181.355 186.901 181.55 186.406C181.744 185.908 182.017 185.477 182.369 185.114C182.725 184.751 183.15 184.469 183.645 184.267C184.14 184.062 184.688 183.959 185.29 183.959C185.693 183.959 186.073 184.007 186.428 184.102C186.784 184.194 187.11 184.326 187.407 184.498C187.704 184.667 187.97 184.874 188.205 185.119C188.443 185.361 188.645 185.633 188.81 185.933C188.975 186.234 189.099 186.56 189.184 186.912C189.272 187.264 189.316 187.635 189.316 188.023ZM187.803 188.023C187.803 187.587 187.745 187.197 187.627 186.852C187.51 186.504 187.343 186.208 187.127 185.966C186.91 185.724 186.646 185.539 186.335 185.411C186.027 185.283 185.678 185.218 185.29 185.218C184.901 185.218 184.551 185.283 184.239 185.411C183.931 185.539 183.667 185.724 183.447 185.966C183.231 186.208 183.064 186.504 182.947 186.852C182.829 187.197 182.771 187.587 182.771 188.023C182.771 188.46 182.829 188.852 182.947 189.2C183.064 189.545 183.231 189.838 183.447 190.08C183.667 190.319 183.931 190.502 184.239 190.63C184.551 190.759 184.901 190.823 185.29 190.823C185.678 190.823 186.027 190.759 186.335 190.63C186.646 190.502 186.91 190.319 187.127 190.08C187.343 189.838 187.51 189.545 187.627 189.2C187.745 188.852 187.803 188.46 187.803 188.023ZM192.271 192.088C191.779 192.088 191.402 191.95 191.138 191.675C190.877 191.397 190.747 191.014 190.747 190.526V187.374H190.17C190.096 187.374 190.034 187.351 189.983 187.303C189.931 187.255 189.906 187.184 189.906 187.088V186.549L190.813 186.401L191.099 184.861C191.118 184.788 191.152 184.731 191.204 184.69C191.255 184.65 191.321 184.63 191.402 184.63H192.106V186.406H193.613V187.374H192.106V190.432C192.106 190.608 192.148 190.746 192.232 190.845C192.32 190.944 192.439 190.993 192.59 190.993C192.674 190.993 192.744 190.984 192.799 190.966C192.857 190.944 192.907 190.922 192.947 190.9C192.991 190.878 193.03 190.858 193.063 190.839C193.096 190.817 193.129 190.806 193.162 190.806C193.202 190.806 193.235 190.817 193.261 190.839C193.286 190.858 193.314 190.887 193.343 190.927L193.75 191.587C193.552 191.752 193.325 191.877 193.068 191.961C192.812 192.046 192.546 192.088 192.271 192.088ZM195.841 186.962C196.061 186.757 196.303 186.59 196.567 186.461C196.831 186.333 197.141 186.269 197.497 186.269C197.805 186.269 198.078 186.322 198.316 186.428C198.554 186.531 198.752 186.678 198.91 186.868C199.071 187.055 199.192 187.281 199.273 187.545C199.357 187.805 199.4 188.093 199.4 188.408V192H198.041V188.408C198.041 188.064 197.962 187.798 197.805 187.611C197.647 187.42 197.407 187.325 197.084 187.325C196.849 187.325 196.629 187.378 196.424 187.484C196.219 187.591 196.024 187.736 195.841 187.919V192H194.483V183.827H195.841V186.962ZM204.327 188.529C204.327 188.353 204.301 188.188 204.25 188.034C204.202 187.877 204.129 187.739 204.03 187.622C203.931 187.505 203.805 187.413 203.651 187.347C203.5 187.277 203.324 187.242 203.123 187.242C202.73 187.242 202.42 187.354 202.193 187.578C201.969 187.802 201.826 188.119 201.764 188.529H204.327ZM201.737 189.349C201.759 189.639 201.81 189.89 201.891 190.102C201.971 190.311 202.078 190.486 202.21 190.625C202.342 190.761 202.497 190.863 202.677 190.933C202.86 190.999 203.062 191.032 203.282 191.032C203.502 191.032 203.691 191.006 203.849 190.955C204.01 190.904 204.149 190.847 204.267 190.784C204.388 190.722 204.492 190.665 204.58 190.614C204.672 190.563 204.76 190.537 204.844 190.537C204.958 190.537 205.042 190.579 205.097 190.663L205.488 191.158C205.337 191.334 205.169 191.483 204.982 191.604C204.795 191.721 204.598 191.817 204.393 191.89C204.191 191.96 203.984 192.009 203.772 192.039C203.563 192.068 203.359 192.083 203.161 192.083C202.769 192.083 202.404 192.018 202.067 191.89C201.729 191.758 201.436 191.565 201.187 191.312C200.937 191.056 200.741 190.74 200.598 190.366C200.455 189.989 200.384 189.552 200.384 189.057C200.384 188.672 200.446 188.311 200.571 187.974C200.695 187.633 200.873 187.338 201.104 187.088C201.339 186.835 201.623 186.636 201.957 186.489C202.294 186.342 202.673 186.269 203.095 186.269C203.451 186.269 203.779 186.326 204.08 186.439C204.38 186.553 204.639 186.72 204.855 186.94C205.071 187.156 205.24 187.424 205.361 187.743C205.486 188.058 205.548 188.419 205.548 188.826C205.548 189.032 205.526 189.171 205.482 189.244C205.438 189.314 205.354 189.349 205.229 189.349H201.737ZM207.849 187.336C208.025 186.999 208.234 186.735 208.476 186.544C208.718 186.35 209.004 186.252 209.334 186.252C209.594 186.252 209.803 186.309 209.961 186.423L209.873 187.44C209.855 187.506 209.827 187.554 209.79 187.583C209.757 187.609 209.712 187.622 209.653 187.622C209.598 187.622 209.515 187.613 209.405 187.594C209.299 187.576 209.195 187.567 209.092 187.567C208.942 187.567 208.808 187.589 208.69 187.633C208.573 187.677 208.467 187.741 208.371 187.825C208.28 187.906 208.197 188.005 208.124 188.122C208.054 188.24 207.988 188.374 207.926 188.524V192H206.567V186.357H207.365C207.504 186.357 207.601 186.383 207.656 186.434C207.711 186.482 207.748 186.57 207.766 186.698L207.849 187.336Z" fill="#002642"/>
<line x1="76.1482" y1="127.5" x2="33.8516" y2="127.5" stroke="#0F3D66" stroke-width="2"/>
<line x1="118.5" y1="72.0112" x2="118.5" y2="49.9885" stroke="#0D5498" stroke-width="2"/>
<line x1="119.005" y1="50.5" x2="69.9949" y2="50.5" stroke="#0D5498" stroke-width="2"/>
<path d="M8.65956 142.224V144.429H11.4426V145.568H8.65956V147.817H12.1906V149H7.17456V141.047H12.1906V142.224H8.65956ZM14.6407 140.827V149H13.2822V140.827H14.6407ZM19.6297 145.529C19.6297 145.353 19.6041 145.188 19.5527 145.034C19.5051 144.877 19.4317 144.739 19.3327 144.622C19.2337 144.505 19.1072 144.413 18.9532 144.347C18.8029 144.277 18.6269 144.242 18.4252 144.242C18.0329 144.242 17.7231 144.354 17.4957 144.578C17.2721 144.802 17.1291 145.119 17.0667 145.529H19.6297ZM17.0392 146.349C17.0612 146.639 17.1126 146.89 17.1932 147.102C17.2739 147.311 17.3802 147.486 17.5122 147.625C17.6442 147.761 17.8001 147.863 17.9797 147.933C18.1631 147.999 18.3647 148.032 18.5847 148.032C18.8047 148.032 18.9936 148.006 19.1512 147.955C19.3126 147.904 19.4519 147.847 19.5692 147.784C19.6902 147.722 19.7947 147.665 19.8827 147.614C19.9744 147.563 20.0624 147.537 20.1467 147.537C20.2604 147.537 20.3447 147.579 20.3997 147.663L20.7902 148.158C20.6399 148.334 20.4712 148.483 20.2842 148.604C20.0972 148.721 19.9011 148.817 19.6957 148.89C19.4941 148.96 19.2869 149.009 19.0742 149.039C18.8652 149.068 18.6617 149.083 18.4637 149.083C18.0714 149.083 17.7066 149.018 17.3692 148.89C17.0319 148.758 16.7386 148.565 16.4892 148.312C16.2399 148.056 16.0437 147.74 15.9007 147.366C15.7577 146.989 15.6862 146.552 15.6862 146.057C15.6862 145.672 15.7486 145.311 15.8732 144.974C15.9979 144.633 16.1757 144.338 16.4067 144.088C16.6414 143.835 16.9256 143.636 17.2592 143.489C17.5966 143.342 17.9761 143.269 18.3977 143.269C18.7534 143.269 19.0816 143.326 19.3822 143.439C19.6829 143.553 19.9414 143.72 20.1577 143.94C20.3741 144.156 20.5427 144.424 20.6637 144.743C20.7884 145.058 20.8507 145.419 20.8507 145.826C20.8507 146.032 20.8287 146.171 20.7847 146.244C20.7407 146.314 20.6564 146.349 20.5317 146.349H17.0392ZM25.9127 144.55C25.8724 144.602 25.8321 144.642 25.7917 144.671C25.7551 144.701 25.7001 144.715 25.6267 144.715C25.5571 144.715 25.4892 144.695 25.4232 144.655C25.3572 144.611 25.2784 144.563 25.1867 144.512C25.0951 144.457 24.9851 144.409 24.8567 144.369C24.7321 144.325 24.5762 144.303 24.3892 144.303C24.1509 144.303 23.9419 144.347 23.7622 144.435C23.5826 144.519 23.4322 144.642 23.3112 144.803C23.1939 144.965 23.1059 145.161 23.0472 145.392C22.9886 145.619 22.9592 145.878 22.9592 146.167C22.9592 146.468 22.9904 146.736 23.0527 146.97C23.1187 147.205 23.2122 147.403 23.3332 147.564C23.4542 147.722 23.6009 147.843 23.7732 147.927C23.9456 148.008 24.1399 148.048 24.3562 148.048C24.5726 148.048 24.7467 148.023 24.8787 147.971C25.0144 147.916 25.1281 147.858 25.2197 147.795C25.3114 147.729 25.3902 147.671 25.4562 147.619C25.5259 147.564 25.6029 147.537 25.6872 147.537C25.7972 147.537 25.8797 147.579 25.9347 147.663L26.3252 148.158C26.1749 148.334 26.0117 148.483 25.8357 148.604C25.6597 148.721 25.4764 148.817 25.2857 148.89C25.0987 148.96 24.9044 149.009 24.7027 149.039C24.5047 149.068 24.3067 149.083 24.1087 149.083C23.7604 149.083 23.4322 149.018 23.1242 148.89C22.8162 148.758 22.5467 148.567 22.3157 148.318C22.0847 148.069 21.9014 147.764 21.7657 147.405C21.6337 147.042 21.5677 146.629 21.5677 146.167C21.5677 145.753 21.6264 145.37 21.7437 145.018C21.8647 144.662 22.0407 144.356 22.2717 144.099C22.5027 143.839 22.7887 143.636 23.1297 143.489C23.4707 143.342 23.8631 143.269 24.3067 143.269C24.7284 143.269 25.0969 143.337 25.4122 143.473C25.7312 143.608 26.0172 143.802 26.2702 144.055L25.9127 144.55ZM29.0579 149.088C28.5665 149.088 28.1889 148.95 27.9249 148.675C27.6645 148.397 27.5344 148.014 27.5344 147.526V144.374H26.9569C26.8835 144.374 26.8212 144.351 26.7699 144.303C26.7185 144.255 26.6929 144.184 26.6929 144.088V143.549L27.6004 143.401L27.8864 141.861C27.9047 141.788 27.9395 141.731 27.9909 141.69C28.0422 141.65 28.1082 141.63 28.1889 141.63H28.8929V143.406H30.3999V144.374H28.8929V147.432C28.8929 147.608 28.935 147.746 29.0194 147.845C29.1074 147.944 29.2265 147.993 29.3769 147.993C29.4612 147.993 29.5309 147.984 29.5859 147.966C29.6445 147.944 29.694 147.922 29.7344 147.9C29.7784 147.878 29.8169 147.858 29.8499 147.839C29.8829 147.817 29.9159 147.806 29.9489 147.806C29.9892 147.806 30.0222 147.817 30.0479 147.839C30.0735 147.858 30.101 147.887 30.1304 147.927L30.5374 148.587C30.3394 148.752 30.112 148.877 29.8554 148.961C29.5987 149.046 29.3329 149.088 29.0579 149.088ZM32.5511 144.336C32.7271 143.999 32.9361 143.735 33.1781 143.544C33.4201 143.35 33.7061 143.252 34.0361 143.252C34.2965 143.252 34.5055 143.309 34.6631 143.423L34.5751 144.44C34.5568 144.506 34.5293 144.554 34.4926 144.583C34.4596 144.609 34.4138 144.622 34.3551 144.622C34.3001 144.622 34.2176 144.613 34.1076 144.594C34.0013 144.576 33.8968 144.567 33.7941 144.567C33.6438 144.567 33.51 144.589 33.3926 144.633C33.2753 144.677 33.169 144.741 33.0736 144.825C32.982 144.906 32.8995 145.005 32.8261 145.122C32.7565 145.24 32.6905 145.374 32.6281 145.524V149H31.2696V143.357H32.0671C32.2065 143.357 32.3036 143.383 32.3586 143.434C32.4136 143.482 32.4503 143.57 32.4686 143.698L32.5511 144.336ZM37.709 143.269C38.127 143.269 38.5065 143.337 38.8475 143.473C39.1922 143.608 39.4855 143.801 39.7275 144.05C39.9732 144.299 40.162 144.604 40.294 144.963C40.426 145.322 40.492 145.724 40.492 146.167C40.492 146.615 40.426 147.018 40.294 147.377C40.162 147.737 39.9732 148.043 39.7275 148.296C39.4855 148.549 39.1922 148.743 38.8475 148.879C38.5065 149.015 38.127 149.083 37.709 149.083C37.2873 149.083 36.9042 149.015 36.5595 148.879C36.2148 148.743 35.9197 148.549 35.674 148.296C35.432 148.043 35.2432 147.737 35.1075 147.377C34.9755 147.018 34.9095 146.615 34.9095 146.167C34.9095 145.724 34.9755 145.322 35.1075 144.963C35.2432 144.604 35.432 144.299 35.674 144.05C35.9197 143.801 36.2148 143.608 36.5595 143.473C36.9042 143.337 37.2873 143.269 37.709 143.269ZM37.709 148.037C38.1783 148.037 38.5248 147.88 38.7485 147.564C38.9758 147.249 39.0895 146.787 39.0895 146.178C39.0895 145.57 38.9758 145.106 38.7485 144.787C38.5248 144.468 38.1783 144.308 37.709 144.308C37.2323 144.308 36.8785 144.47 36.6475 144.792C36.4202 145.111 36.3065 145.573 36.3065 146.178C36.3065 146.783 36.4202 147.245 36.6475 147.564C36.8785 147.88 37.2323 148.037 37.709 148.037ZM42.7989 144.05C42.9126 143.936 43.0318 143.832 43.1564 143.736C43.2848 143.637 43.4186 143.555 43.5579 143.489C43.7009 143.419 43.8531 143.366 44.0144 143.329C44.1758 143.289 44.3518 143.269 44.5424 143.269C44.8504 143.269 45.1236 143.322 45.3619 143.428C45.6003 143.531 45.7983 143.678 45.9559 143.868C46.1173 144.055 46.2383 144.281 46.3189 144.545C46.4033 144.805 46.4454 145.093 46.4454 145.408V149H45.0869V145.408C45.0869 145.064 45.0081 144.798 44.8504 144.611C44.6928 144.42 44.4526 144.325 44.1299 144.325C43.8953 144.325 43.6753 144.378 43.4699 144.484C43.2646 144.591 43.0703 144.736 42.8869 144.919V149H41.5284V143.357H42.3589C42.5349 143.357 42.6504 143.439 42.7054 143.604L42.7989 144.05ZM49.1454 143.357V149H47.7814V143.357H49.1454ZM49.3324 141.712C49.3324 141.83 49.3086 141.94 49.2609 142.042C49.2132 142.145 49.1491 142.235 49.0684 142.312C48.9914 142.389 48.8997 142.451 48.7934 142.499C48.6871 142.543 48.5734 142.565 48.4524 142.565C48.3351 142.565 48.2232 142.543 48.1169 142.499C48.0142 142.451 47.9244 142.389 47.8474 142.312C47.7704 142.235 47.7081 142.145 47.6604 142.042C47.6164 141.94 47.5944 141.83 47.5944 141.712C47.5944 141.591 47.6164 141.478 47.6604 141.371C47.7081 141.265 47.7704 141.173 47.8474 141.096C47.9244 141.019 48.0142 140.959 48.1169 140.915C48.2232 140.867 48.3351 140.843 48.4524 140.843C48.5734 140.843 48.6871 140.867 48.7934 140.915C48.8997 140.959 48.9914 141.019 49.0684 141.096C49.1491 141.173 49.2132 141.265 49.2609 141.371C49.3086 141.478 49.3324 141.591 49.3324 141.712ZM54.5729 144.55C54.5325 144.602 54.4922 144.642 54.4519 144.671C54.4152 144.701 54.3602 144.715 54.2869 144.715C54.2172 144.715 54.1494 144.695 54.0834 144.655C54.0174 144.611 53.9385 144.563 53.8469 144.512C53.7552 144.457 53.6452 144.409 53.5169 144.369C53.3922 144.325 53.2364 144.303 53.0494 144.303C52.811 144.303 52.602 144.347 52.4224 144.435C52.2427 144.519 52.0924 144.642 51.9714 144.803C51.854 144.965 51.766 145.161 51.7074 145.392C51.6487 145.619 51.6194 145.878 51.6194 146.167C51.6194 146.468 51.6505 146.736 51.7129 146.97C51.7789 147.205 51.8724 147.403 51.9934 147.564C52.1144 147.722 52.261 147.843 52.4334 147.927C52.6057 148.008 52.8 148.048 53.0164 148.048C53.2327 148.048 53.4069 148.023 53.5389 147.971C53.6745 147.916 53.7882 147.858 53.8799 147.795C53.9715 147.729 54.0504 147.671 54.1164 147.619C54.186 147.564 54.263 147.537 54.3474 147.537C54.4574 147.537 54.5399 147.579 54.5949 147.663L54.9854 148.158C54.835 148.334 54.6719 148.483 54.4959 148.604C54.3199 148.721 54.1365 148.817 53.9459 148.89C53.7589 148.96 53.5645 149.009 53.3629 149.039C53.1649 149.068 52.9669 149.083 52.7689 149.083C52.4205 149.083 52.0924 149.018 51.7844 148.89C51.4764 148.758 51.2069 148.567 50.9759 148.318C50.7449 148.069 50.5615 147.764 50.4259 147.405C50.2939 147.042 50.2279 146.629 50.2279 146.167C50.2279 145.753 50.2865 145.37 50.4039 145.018C50.5249 144.662 50.7009 144.356 50.9319 144.099C51.1629 143.839 51.4489 143.636 51.7899 143.489C52.1309 143.342 52.5232 143.269 52.9669 143.269C53.3885 143.269 53.757 143.337 54.0724 143.473C54.3914 143.608 54.6774 143.802 54.9304 144.055L54.5729 144.55ZM59.28 144.457C59.2433 144.516 59.2048 144.558 59.1645 144.583C59.1242 144.605 59.0728 144.616 59.0105 144.616C58.9445 144.616 58.873 144.598 58.796 144.561C58.7227 144.525 58.6365 144.484 58.5375 144.44C58.4385 144.393 58.3248 144.351 58.1965 144.314C58.0718 144.277 57.9233 144.259 57.751 144.259C57.4833 144.259 57.2725 144.316 57.1185 144.429C56.9682 144.543 56.893 144.692 56.893 144.875C56.893 144.996 56.9315 145.099 57.0085 145.183C57.0892 145.264 57.1937 145.335 57.322 145.397C57.454 145.46 57.6025 145.517 57.7675 145.568C57.9325 145.616 58.0993 145.669 58.268 145.727C58.4403 145.786 58.609 145.854 58.774 145.931C58.939 146.004 59.0857 146.1 59.214 146.217C59.346 146.331 59.4505 146.468 59.5275 146.629C59.6082 146.791 59.6485 146.985 59.6485 147.212C59.6485 147.484 59.599 147.735 59.5 147.966C59.4047 148.193 59.2617 148.391 59.071 148.56C58.8803 148.725 58.6438 148.855 58.3615 148.95C58.0828 149.042 57.7602 149.088 57.3935 149.088C57.1992 149.088 57.0085 149.07 56.8215 149.033C56.6382 149 56.4603 148.952 56.288 148.89C56.1193 148.828 55.9617 148.754 55.815 148.67C55.672 148.586 55.5455 148.494 55.4355 148.395L55.749 147.878C55.7893 147.816 55.837 147.768 55.892 147.735C55.947 147.702 56.0167 147.685 56.101 147.685C56.1853 147.685 56.2642 147.709 56.3375 147.757C56.4145 147.805 56.5025 147.856 56.6015 147.911C56.7005 147.966 56.816 148.017 56.948 148.065C57.0837 148.113 57.2542 148.136 57.4595 148.136C57.6208 148.136 57.7583 148.118 57.872 148.081C57.9893 148.041 58.0847 147.99 58.158 147.927C58.235 147.865 58.29 147.794 58.323 147.713C58.3597 147.629 58.378 147.542 58.378 147.454C58.378 147.322 58.3377 147.214 58.257 147.13C58.18 147.046 58.0755 146.972 57.9435 146.91C57.8152 146.848 57.6667 146.793 57.498 146.745C57.333 146.694 57.1625 146.639 56.9865 146.58C56.8142 146.521 56.6437 146.453 56.475 146.376C56.31 146.296 56.1615 146.195 56.0295 146.074C55.9012 145.953 55.7967 145.804 55.716 145.628C55.639 145.452 55.6005 145.24 55.6005 144.99C55.6005 144.759 55.6463 144.539 55.738 144.33C55.8297 144.121 55.9635 143.94 56.1395 143.786C56.3192 143.628 56.541 143.504 56.805 143.412C57.0727 143.317 57.3807 143.269 57.729 143.269C58.1177 143.269 58.4715 143.333 58.7905 143.461C59.1095 143.59 59.3753 143.758 59.588 143.967L59.28 144.457Z" fill="#002642"/>
<line x1="34.8999" y1="127" x2="34.8999" y2="139" stroke="#0F3D66" stroke-width="2"/>
<path d="M23.3669 45.047V53H22.0634V47.863C22.0634 47.6577 22.0744 47.4358 22.0964 47.1975L19.6929 51.713C19.5793 51.9293 19.4051 52.0375 19.1704 52.0375H18.9614C18.7268 52.0375 18.5526 51.9293 18.4389 51.713L16.0079 47.181C16.0189 47.302 16.0281 47.4212 16.0354 47.5385C16.0428 47.6558 16.0464 47.764 16.0464 47.863V53H14.7429V45.047H15.8594C15.9254 45.047 15.9823 45.0488 16.0299 45.0525C16.0776 45.0562 16.1198 45.0653 16.1564 45.08C16.1968 45.0947 16.2316 45.1185 16.2609 45.1515C16.2939 45.1845 16.3251 45.2285 16.3544 45.2835L18.7359 49.7C18.7983 49.8173 18.8551 49.9383 18.9064 50.063C18.9614 50.1877 19.0146 50.316 19.0659 50.448C19.1173 50.3123 19.1704 50.1822 19.2254 50.0575C19.2804 49.9292 19.3391 49.8063 19.4014 49.689L21.7499 45.2835C21.7793 45.2285 21.8104 45.1845 21.8434 45.1515C21.8764 45.1185 21.9113 45.0947 21.9479 45.08C21.9883 45.0653 22.0323 45.0562 22.0799 45.0525C22.1276 45.0488 22.1844 45.047 22.2504 45.047H23.3669ZM27.7682 50.591C27.3759 50.6093 27.0459 50.6442 26.7782 50.6955C26.5105 50.7432 26.296 50.8055 26.1347 50.8825C25.9734 50.9595 25.8579 51.0493 25.7882 51.152C25.7185 51.2547 25.6837 51.3665 25.6837 51.4875C25.6837 51.7258 25.7534 51.8963 25.8927 51.999C26.0357 52.1017 26.2209 52.153 26.4482 52.153C26.7269 52.153 26.967 52.1035 27.1687 52.0045C27.374 51.9018 27.5739 51.7478 27.7682 51.5425V50.591ZM24.6552 48.1435C25.3042 47.5495 26.0852 47.2525 26.9982 47.2525C27.3282 47.2525 27.6234 47.3075 27.8837 47.4175C28.144 47.5238 28.364 47.6742 28.5437 47.8685C28.7234 48.0592 28.859 48.2883 28.9507 48.556C29.046 48.8237 29.0937 49.117 29.0937 49.436V53H28.4777C28.3494 53 28.2504 52.9817 28.1807 52.945C28.111 52.9047 28.056 52.8258 28.0157 52.7085L27.8947 52.3015C27.7517 52.4298 27.6124 52.5435 27.4767 52.6425C27.341 52.7378 27.1999 52.8185 27.0532 52.8845C26.9065 52.9505 26.7489 53 26.5802 53.033C26.4152 53.0697 26.2319 53.088 26.0302 53.088C25.7919 53.088 25.5719 53.0568 25.3702 52.9945C25.1685 52.9285 24.9944 52.8313 24.8477 52.703C24.701 52.5747 24.5874 52.4152 24.5067 52.2245C24.426 52.0338 24.3857 51.812 24.3857 51.559C24.3857 51.416 24.4095 51.2748 24.4572 51.1355C24.5049 50.9925 24.5819 50.8568 24.6882 50.7285C24.7982 50.6002 24.9394 50.4792 25.1117 50.3655C25.284 50.2518 25.4949 50.1528 25.7442 50.0685C25.9972 49.9842 26.2905 49.9163 26.6242 49.865C26.9579 49.81 27.3392 49.777 27.7682 49.766V49.436C27.7682 49.0583 27.6875 48.7797 27.5262 48.6C27.3649 48.4167 27.132 48.325 26.8277 48.325C26.6077 48.325 26.4244 48.3507 26.2777 48.402C26.1347 48.4533 26.0082 48.512 25.8982 48.578C25.7882 48.6403 25.6874 48.6972 25.5957 48.7485C25.5077 48.7998 25.4087 48.8255 25.2987 48.8255C25.2034 48.8255 25.1227 48.8017 25.0567 48.754C24.9907 48.7027 24.9375 48.644 24.8972 48.578L24.6552 48.1435ZM34.4156 48.5505C34.3753 48.6018 34.335 48.6422 34.2946 48.6715C34.258 48.7008 34.203 48.7155 34.1296 48.7155C34.06 48.7155 33.9921 48.6953 33.9261 48.655C33.8601 48.611 33.7813 48.5633 33.6896 48.512C33.598 48.457 33.488 48.4093 33.3596 48.369C33.235 48.325 33.0791 48.303 32.8921 48.303C32.6538 48.303 32.4448 48.347 32.2651 48.435C32.0855 48.5193 31.9351 48.6422 31.8141 48.8035C31.6968 48.9648 31.6088 49.161 31.5501 49.392C31.4915 49.6193 31.4621 49.8778 31.4621 50.1675C31.4621 50.4682 31.4933 50.7358 31.5556 50.9705C31.6216 51.2052 31.7151 51.4032 31.8361 51.5645C31.9571 51.7222 32.1038 51.8432 32.2761 51.9275C32.4485 52.0082 32.6428 52.0485 32.8591 52.0485C33.0755 52.0485 33.2496 52.0228 33.3816 51.9715C33.5173 51.9165 33.631 51.8578 33.7226 51.7955C33.8143 51.7295 33.8931 51.6708 33.9591 51.6195C34.0288 51.5645 34.1058 51.537 34.1901 51.537C34.3001 51.537 34.3826 51.5792 34.4376 51.6635L34.8281 52.1585C34.6778 52.3345 34.5146 52.483 34.3386 52.604C34.1626 52.7213 33.9793 52.8167 33.7886 52.89C33.6016 52.9597 33.4073 53.0092 33.2056 53.0385C33.0076 53.0678 32.8096 53.0825 32.6116 53.0825C32.2633 53.0825 31.9351 53.0183 31.6271 52.89C31.3191 52.758 31.0496 52.5673 30.8186 52.318C30.5876 52.0687 30.4043 51.7643 30.2686 51.405C30.1366 51.042 30.0706 50.6295 30.0706 50.1675C30.0706 49.7532 30.1293 49.37 30.2466 49.018C30.3676 48.6623 30.5436 48.3562 30.7746 48.0995C31.0056 47.8392 31.2916 47.6357 31.6326 47.489C31.9736 47.3423 32.366 47.269 32.8096 47.269C33.2313 47.269 33.5998 47.3368 33.9151 47.4725C34.2341 47.6082 34.5201 47.8025 34.7731 48.0555L34.4156 48.5505ZM37.0383 47.962C37.2583 47.7567 37.5003 47.5898 37.7643 47.4615C38.0283 47.3332 38.3381 47.269 38.6938 47.269C39.0018 47.269 39.275 47.3222 39.5133 47.4285C39.7516 47.5312 39.9496 47.6778 40.1073 47.8685C40.2686 48.0555 40.3896 48.281 40.4703 48.545C40.5546 48.8053 40.5968 49.0932 40.5968 49.4085V53H39.2383V49.4085C39.2383 49.0638 39.1595 48.798 39.0018 48.611C38.8441 48.4203 38.604 48.325 38.2813 48.325C38.0466 48.325 37.8266 48.3782 37.6213 48.4845C37.416 48.5908 37.2216 48.7357 37.0383 48.919V53H35.6798V44.827H37.0383V47.962ZM43.2968 47.357V53H41.9328V47.357H43.2968ZM43.4838 45.7125C43.4838 45.8298 43.4599 45.9398 43.4123 46.0425C43.3646 46.1452 43.3004 46.235 43.2198 46.312C43.1428 46.389 43.0511 46.4513 42.9448 46.499C42.8384 46.543 42.7248 46.565 42.6038 46.565C42.4864 46.565 42.3746 46.543 42.2683 46.499C42.1656 46.4513 42.0758 46.389 41.9988 46.312C41.9218 46.235 41.8594 46.1452 41.8118 46.0425C41.7678 45.9398 41.7458 45.8298 41.7458 45.7125C41.7458 45.5915 41.7678 45.4778 41.8118 45.3715C41.8594 45.2652 41.9218 45.1735 41.9988 45.0965C42.0758 45.0195 42.1656 44.959 42.2683 44.915C42.3746 44.8673 42.4864 44.8435 42.6038 44.8435C42.7248 44.8435 42.8384 44.8673 42.9448 44.915C43.0511 44.959 43.1428 45.0195 43.2198 45.0965C43.3004 45.1735 43.3646 45.2652 43.4123 45.3715C43.4599 45.4778 43.4838 45.5915 43.4838 45.7125ZM45.9522 48.05C46.0659 47.9363 46.1851 47.8318 46.3097 47.7365C46.4381 47.6375 46.5719 47.555 46.7112 47.489C46.8542 47.4193 47.0064 47.3662 47.1677 47.3295C47.3291 47.2892 47.5051 47.269 47.6957 47.269C48.0037 47.269 48.2769 47.3222 48.5152 47.4285C48.7536 47.5312 48.9516 47.6778 49.1092 47.8685C49.2706 48.0555 49.3916 48.281 49.4722 48.545C49.5566 48.8053 49.5987 49.0932 49.5987 49.4085V53H48.2402V49.4085C48.2402 49.0638 48.1614 48.798 48.0037 48.611C47.8461 48.4203 47.6059 48.325 47.2832 48.325C47.0486 48.325 46.8286 48.3782 46.6232 48.4845C46.4179 48.5908 46.2236 48.7357 46.0402 48.919V53H44.6817V47.357H45.5122C45.6882 47.357 45.8037 47.4395 45.8587 47.6045L45.9522 48.05ZM54.5262 49.5295C54.5262 49.3535 54.5006 49.1885 54.4492 49.0345C54.4016 48.8768 54.3282 48.7393 54.2292 48.622C54.1302 48.5047 54.0037 48.413 53.8497 48.347C53.6994 48.2773 53.5234 48.2425 53.3217 48.2425C52.9294 48.2425 52.6196 48.3543 52.3922 48.578C52.1686 48.8017 52.0256 49.1188 51.9632 49.5295H54.5262ZM51.9357 50.349C51.9577 50.6387 52.0091 50.8898 52.0897 51.1025C52.1704 51.3115 52.2767 51.4857 52.4087 51.625C52.5407 51.7607 52.6966 51.8633 52.8762 51.933C53.0596 51.999 53.2612 52.032 53.4812 52.032C53.7012 52.032 53.8901 52.0063 54.0477 51.955C54.2091 51.9037 54.3484 51.8468 54.4657 51.7845C54.5867 51.7222 54.6912 51.6653 54.7792 51.614C54.8709 51.5627 54.9589 51.537 55.0432 51.537C55.1569 51.537 55.2412 51.5792 55.2962 51.6635L55.6867 52.1585C55.5364 52.3345 55.3677 52.483 55.1807 52.604C54.9937 52.7213 54.7976 52.8167 54.5922 52.89C54.3906 52.9597 54.1834 53.0092 53.9707 53.0385C53.7617 53.0678 53.5582 53.0825 53.3602 53.0825C52.9679 53.0825 52.6031 53.0183 52.2657 52.89C51.9284 52.758 51.6351 52.5655 51.3857 52.3125C51.1364 52.0558 50.9402 51.7405 50.7972 51.3665C50.6542 50.9888 50.5827 50.5525 50.5827 50.0575C50.5827 49.6725 50.6451 49.3113 50.7697 48.974C50.8944 48.633 51.0722 48.3378 51.3032 48.0885C51.5379 47.8355 51.8221 47.6357 52.1557 47.489C52.4931 47.3423 52.8726 47.269 53.2942 47.269C53.6499 47.269 53.9781 47.3258 54.2787 47.4395C54.5794 47.5532 54.8379 47.72 55.0542 47.94C55.2706 48.1563 55.4392 48.424 55.5602 48.743C55.6849 49.0583 55.7472 49.4195 55.7472 49.8265C55.7472 50.0318 55.7252 50.1712 55.6812 50.2445C55.6372 50.3142 55.5529 50.349 55.4282 50.349H51.9357ZM58.0482 48.336C58.2242 47.9987 58.4332 47.7347 58.6752 47.544C58.9172 47.3497 59.2032 47.2525 59.5332 47.2525C59.7935 47.2525 60.0025 47.3093 60.1602 47.423L60.0722 48.4405C60.0539 48.5065 60.0264 48.5542 59.9897 48.5835C59.9567 48.6092 59.9109 48.622 59.8522 48.622C59.7972 48.622 59.7147 48.6128 59.6047 48.5945C59.4984 48.5762 59.3939 48.567 59.2912 48.567C59.1409 48.567 59.007 48.589 58.8897 48.633C58.7724 48.677 58.666 48.7412 58.5707 48.8255C58.479 48.9062 58.3965 49.0052 58.3232 49.1225C58.2535 49.2398 58.1875 49.3737 58.1252 49.524V53H56.7667V47.357H57.5642C57.7035 47.357 57.8007 47.3827 57.8557 47.434C57.9107 47.4817 57.9474 47.5697 57.9657 47.698L58.0482 48.336ZM65.9962 47.357L62.9217 54.551C62.8814 54.6463 62.8282 54.7178 62.7622 54.7655C62.6999 54.8168 62.6027 54.8425 62.4707 54.8425H61.4587L62.5147 52.5765L60.2322 47.357H61.4257C61.5321 47.357 61.6146 47.3827 61.6732 47.434C61.7356 47.4853 61.7814 47.544 61.8107 47.61L63.0097 50.536C63.0501 50.635 63.0831 50.734 63.1087 50.833C63.1381 50.932 63.1656 51.0328 63.1912 51.1355C63.2242 51.0328 63.2572 50.932 63.2902 50.833C63.3232 50.7303 63.3599 50.6295 63.4002 50.5305L64.5332 47.61C64.5626 47.5367 64.6102 47.4762 64.6762 47.4285C64.7459 47.3808 64.8229 47.357 64.9072 47.357H65.9962Z" fill="#002642"/>
<line x1="153" y1="81" x2="199" y2="81" stroke="#2F7DC6" stroke-width="2"/>
<line x1="198" y1="81" x2="198" y2="99" stroke="#2F7DC6" stroke-width="2"/>
<path d="M188.969 105.012V108.23C188.566 108.527 188.135 108.745 187.676 108.884C187.222 109.02 186.734 109.088 186.213 109.088C185.564 109.088 184.976 108.987 184.448 108.785C183.924 108.584 183.474 108.303 183.1 107.944C182.73 107.585 182.444 107.156 182.242 106.657C182.041 106.158 181.94 105.614 181.94 105.023C181.94 104.426 182.037 103.878 182.231 103.379C182.426 102.88 182.701 102.451 183.056 102.092C183.416 101.733 183.85 101.454 184.36 101.256C184.87 101.058 185.442 100.959 186.076 100.959C186.399 100.959 186.699 100.985 186.978 101.036C187.26 101.087 187.521 101.159 187.759 101.25C188.001 101.338 188.221 101.447 188.419 101.575C188.617 101.703 188.798 101.844 188.963 101.998L188.54 102.669C188.474 102.776 188.388 102.842 188.281 102.867C188.175 102.889 188.06 102.862 187.935 102.785C187.814 102.715 187.693 102.646 187.572 102.576C187.451 102.506 187.315 102.446 187.165 102.394C187.018 102.343 186.851 102.301 186.664 102.268C186.481 102.235 186.268 102.218 186.026 102.218C185.634 102.218 185.278 102.284 184.959 102.416C184.644 102.548 184.375 102.737 184.151 102.983C183.927 103.229 183.755 103.524 183.634 103.868C183.513 104.213 183.452 104.598 183.452 105.023C183.452 105.478 183.517 105.885 183.645 106.244C183.777 106.6 183.96 106.903 184.195 107.152C184.433 107.398 184.719 107.586 185.053 107.718C185.387 107.847 185.759 107.911 186.169 107.911C186.463 107.911 186.725 107.88 186.956 107.817C187.187 107.755 187.412 107.671 187.632 107.564V106.123H186.631C186.536 106.123 186.461 106.098 186.406 106.046C186.355 105.991 186.329 105.925 186.329 105.848V105.012H188.969ZM193.139 106.591C192.747 106.609 192.417 106.644 192.149 106.695C191.882 106.743 191.667 106.805 191.506 106.882C191.344 106.959 191.229 107.049 191.159 107.152C191.09 107.255 191.055 107.366 191.055 107.487C191.055 107.726 191.124 107.896 191.264 107.999C191.407 108.102 191.592 108.153 191.819 108.153C192.098 108.153 192.338 108.103 192.54 108.004C192.745 107.902 192.945 107.748 193.139 107.542V106.591ZM190.026 104.143C190.675 103.549 191.456 103.252 192.369 103.252C192.699 103.252 192.994 103.307 193.255 103.417C193.515 103.524 193.735 103.674 193.915 103.868C194.094 104.059 194.23 104.288 194.322 104.556C194.417 104.824 194.465 105.117 194.465 105.436V109H193.849C193.72 109 193.621 108.982 193.552 108.945C193.482 108.905 193.427 108.826 193.387 108.708L193.266 108.301C193.123 108.43 192.983 108.543 192.848 108.642C192.712 108.738 192.571 108.818 192.424 108.884C192.278 108.95 192.12 109 191.951 109.033C191.786 109.07 191.603 109.088 191.401 109.088C191.163 109.088 190.943 109.057 190.741 108.994C190.54 108.928 190.365 108.831 190.219 108.703C190.072 108.575 189.958 108.415 189.878 108.224C189.797 108.034 189.757 107.812 189.757 107.559C189.757 107.416 189.781 107.275 189.828 107.135C189.876 106.992 189.953 106.857 190.059 106.728C190.169 106.6 190.31 106.479 190.483 106.365C190.655 106.252 190.866 106.153 191.115 106.068C191.368 105.984 191.662 105.916 191.995 105.865C192.329 105.81 192.71 105.777 193.139 105.766V105.436C193.139 105.058 193.059 104.78 192.897 104.6C192.736 104.417 192.503 104.325 192.199 104.325C191.979 104.325 191.795 104.351 191.649 104.402C191.506 104.453 191.379 104.512 191.269 104.578C191.159 104.64 191.058 104.697 190.967 104.748C190.879 104.8 190.78 104.825 190.67 104.825C190.574 104.825 190.494 104.802 190.428 104.754C190.362 104.703 190.309 104.644 190.268 104.578L190.026 104.143ZM195.744 109V103.357H196.575C196.751 103.357 196.866 103.439 196.921 103.604L197.009 104.022C197.108 103.912 197.211 103.812 197.317 103.72C197.427 103.628 197.543 103.549 197.664 103.483C197.788 103.417 197.92 103.366 198.06 103.329C198.203 103.289 198.359 103.269 198.527 103.269C198.883 103.269 199.174 103.366 199.402 103.56C199.633 103.751 199.805 104.006 199.919 104.325C200.007 104.138 200.117 103.978 200.249 103.846C200.381 103.711 200.526 103.601 200.683 103.516C200.841 103.432 201.008 103.37 201.184 103.329C201.363 103.289 201.543 103.269 201.723 103.269C202.034 103.269 202.311 103.317 202.553 103.412C202.795 103.507 202.999 103.647 203.164 103.83C203.329 104.013 203.453 104.237 203.538 104.501C203.626 104.765 203.67 105.067 203.67 105.408V109H202.311V105.408C202.311 105.049 202.232 104.78 202.075 104.6C201.917 104.417 201.686 104.325 201.382 104.325C201.242 104.325 201.112 104.349 200.991 104.396C200.874 104.444 200.769 104.514 200.678 104.605C200.59 104.693 200.52 104.805 200.469 104.941C200.417 105.077 200.392 105.232 200.392 105.408V109H199.028V105.408C199.028 105.031 198.951 104.756 198.797 104.583C198.646 104.411 198.425 104.325 198.131 104.325C197.933 104.325 197.748 104.374 197.576 104.473C197.407 104.569 197.249 104.701 197.103 104.869V109H195.744ZM208.597 105.529C208.597 105.353 208.571 105.188 208.52 105.034C208.472 104.877 208.399 104.739 208.3 104.622C208.201 104.505 208.074 104.413 207.92 104.347C207.77 104.277 207.594 104.242 207.392 104.242C207 104.242 206.69 104.354 206.463 104.578C206.239 104.802 206.096 105.119 206.034 105.529H208.597ZM206.006 106.349C206.028 106.639 206.079 106.89 206.16 107.102C206.241 107.311 206.347 107.486 206.479 107.625C206.611 107.761 206.767 107.863 206.947 107.933C207.13 107.999 207.332 108.032 207.552 108.032C207.772 108.032 207.96 108.006 208.118 107.955C208.279 107.904 208.419 107.847 208.536 107.784C208.657 107.722 208.762 107.665 208.85 107.614C208.941 107.563 209.029 107.537 209.114 107.537C209.227 107.537 209.312 107.579 209.367 107.663L209.757 108.158C209.607 108.334 209.438 108.483 209.251 108.604C209.064 108.721 208.868 108.817 208.663 108.89C208.461 108.96 208.254 109.009 208.041 109.039C207.832 109.068 207.629 109.083 207.431 109.083C207.038 109.083 206.673 109.018 206.336 108.89C205.999 108.758 205.705 108.565 205.456 108.312C205.207 108.056 205.011 107.74 204.868 107.366C204.725 106.989 204.653 106.552 204.653 106.057C204.653 105.672 204.715 105.311 204.84 104.974C204.965 104.633 205.143 104.338 205.374 104.088C205.608 103.835 205.892 103.636 206.226 103.489C206.563 103.342 206.943 103.269 207.365 103.269C207.72 103.269 208.048 103.326 208.349 103.439C208.65 103.553 208.908 103.72 209.125 103.94C209.341 104.156 209.51 104.424 209.631 104.743C209.755 105.058 209.818 105.419 209.818 105.826C209.818 106.032 209.796 106.171 209.752 106.244C209.708 106.314 209.623 106.349 209.499 106.349H206.006ZM214.28 104.457C214.243 104.516 214.205 104.558 214.165 104.583C214.124 104.605 214.073 104.616 214.011 104.616C213.945 104.616 213.873 104.598 213.796 104.561C213.723 104.525 213.637 104.484 213.538 104.44C213.439 104.393 213.325 104.351 213.197 104.314C213.072 104.277 212.923 104.259 212.751 104.259C212.483 104.259 212.273 104.316 212.119 104.429C211.968 104.543 211.893 104.692 211.893 104.875C211.893 104.996 211.932 105.099 212.009 105.183C212.089 105.264 212.194 105.335 212.322 105.397C212.454 105.46 212.603 105.517 212.768 105.568C212.933 105.616 213.099 105.669 213.268 105.727C213.44 105.786 213.609 105.854 213.774 105.931C213.939 106.004 214.086 106.1 214.214 106.217C214.346 106.331 214.451 106.468 214.528 106.629C214.608 106.791 214.649 106.985 214.649 107.212C214.649 107.484 214.599 107.735 214.5 107.966C214.405 108.193 214.262 108.391 214.071 108.56C213.88 108.725 213.644 108.855 213.362 108.95C213.083 109.042 212.76 109.088 212.394 109.088C212.199 109.088 212.009 109.07 211.822 109.033C211.638 109 211.46 108.952 211.288 108.89C211.119 108.828 210.962 108.754 210.815 108.67C210.672 108.586 210.546 108.494 210.436 108.395L210.749 107.878C210.789 107.816 210.837 107.768 210.892 107.735C210.947 107.702 211.017 107.685 211.101 107.685C211.185 107.685 211.264 107.709 211.338 107.757C211.415 107.805 211.503 107.856 211.602 107.911C211.701 107.966 211.816 108.017 211.948 108.065C212.084 108.113 212.254 108.136 212.46 108.136C212.621 108.136 212.758 108.118 212.872 108.081C212.989 108.041 213.085 107.99 213.158 107.927C213.235 107.865 213.29 107.794 213.323 107.713C213.36 107.629 213.378 107.542 213.378 107.454C213.378 107.322 213.338 107.214 213.257 107.13C213.18 107.046 213.076 106.972 212.944 106.91C212.815 106.848 212.667 106.793 212.498 106.745C212.333 106.694 212.163 106.639 211.987 106.58C211.814 106.521 211.644 106.453 211.475 106.376C211.31 106.296 211.162 106.195 211.03 106.074C210.901 105.953 210.797 105.804 210.716 105.628C210.639 105.452 210.601 105.24 210.601 104.99C210.601 104.759 210.646 104.539 210.738 104.33C210.83 104.121 210.964 103.94 211.14 103.786C211.319 103.628 211.541 103.504 211.805 103.412C212.073 103.317 212.381 103.269 212.729 103.269C213.118 103.269 213.472 103.333 213.791 103.461C214.11 103.59 214.375 103.758 214.588 103.967L214.28 104.457Z" fill="#002642"/>
<line x1="151.5" y1="153.993" x2="151.5" y2="190.007" stroke="#489DEE" stroke-width="2"/>
<line x1="150.962" y1="189" x2="177.038" y2="189" stroke="#489DEE" stroke-width="2"/>
<path d="M194.266 126.639C193.501 126.639 192.819 126.515 192.223 126.266C191.63 126.014 191.164 125.671 190.826 125.237C190.488 124.803 190.319 124.311 190.319 123.761C190.319 123.336 190.415 122.947 190.607 122.592C190.803 122.234 191.068 121.938 191.403 121.702C191.737 121.464 192.112 121.311 192.526 121.245V121.175C191.983 121.066 191.542 120.803 191.204 120.385C190.866 119.964 190.697 119.475 190.697 118.918C190.697 118.391 190.851 117.922 191.159 117.511C191.467 117.097 191.89 116.772 192.427 116.537C192.967 116.298 193.58 116.179 194.266 116.179C194.952 116.179 195.564 116.298 196.101 116.537C196.641 116.776 197.065 117.102 197.373 117.516C197.682 117.927 197.837 118.395 197.841 118.918C197.837 119.478 197.665 119.967 197.324 120.385C196.982 120.803 196.545 121.066 196.011 121.175V121.245C196.419 121.311 196.788 121.464 197.12 121.702C197.455 121.938 197.72 122.234 197.915 122.592C198.114 122.947 198.215 123.336 198.219 123.761C198.215 124.311 198.045 124.803 197.706 125.237C197.368 125.671 196.901 126.014 196.305 126.266C195.711 126.515 195.032 126.639 194.266 126.639ZM194.266 125.058C194.608 125.058 194.906 124.997 195.161 124.874C195.416 124.748 195.615 124.576 195.758 124.357C195.903 124.135 195.976 123.88 195.976 123.592C195.976 123.297 195.902 123.036 195.753 122.811C195.604 122.582 195.401 122.403 195.146 122.274C194.891 122.142 194.598 122.075 194.266 122.075C193.938 122.075 193.645 122.142 193.386 122.274C193.128 122.403 192.924 122.582 192.775 122.811C192.629 123.036 192.556 123.297 192.556 123.592C192.556 123.88 192.627 124.135 192.77 124.357C192.912 124.576 193.113 124.748 193.371 124.874C193.63 124.997 193.928 125.058 194.266 125.058ZM194.266 120.509C194.551 120.509 194.805 120.451 195.027 120.335C195.249 120.219 195.423 120.058 195.549 119.853C195.675 119.647 195.738 119.411 195.738 119.142C195.738 118.877 195.675 118.645 195.549 118.446C195.423 118.244 195.251 118.086 195.032 117.974C194.813 117.858 194.558 117.8 194.266 117.8C193.978 117.8 193.723 117.858 193.501 117.974C193.278 118.086 193.104 118.244 192.979 118.446C192.856 118.645 192.795 118.877 192.795 119.142C192.795 119.411 192.858 119.647 192.983 119.853C193.109 120.058 193.283 120.219 193.506 120.335C193.728 120.451 193.981 120.509 194.266 120.509ZM205.297 124.591V124.054C205.297 123.646 205.383 123.272 205.555 122.93C205.731 122.586 205.985 122.311 206.316 122.105C206.651 121.896 207.058 121.792 207.539 121.792C208.026 121.792 208.436 121.895 208.767 122.1C209.102 122.306 209.354 122.581 209.523 122.925C209.695 123.267 209.781 123.643 209.781 124.054V124.591C209.781 124.999 209.695 125.375 209.523 125.719C209.35 126.061 209.097 126.334 208.762 126.54C208.427 126.749 208.02 126.853 207.539 126.853C207.052 126.853 206.643 126.749 206.311 126.54C205.98 126.334 205.728 126.061 205.555 125.719C205.383 125.375 205.297 124.999 205.297 124.591ZM206.744 124.054V124.591C206.744 124.826 206.8 125.048 206.913 125.257C207.029 125.466 207.237 125.57 207.539 125.57C207.841 125.57 208.046 125.468 208.156 125.262C208.268 125.057 208.325 124.833 208.325 124.591V124.054C208.325 123.812 208.272 123.587 208.165 123.378C208.059 123.169 207.851 123.065 207.539 123.065C207.241 123.065 207.034 123.169 206.918 123.378C206.802 123.587 206.744 123.812 206.744 124.054ZM200.072 118.764V118.227C200.072 117.816 200.16 117.44 200.335 117.099C200.511 116.754 200.764 116.479 201.096 116.273C201.431 116.068 201.835 115.965 202.309 115.965C202.799 115.965 203.21 116.068 203.542 116.273C203.873 116.479 204.125 116.754 204.298 117.099C204.47 117.44 204.556 117.816 204.556 118.227V118.764C204.556 119.175 204.468 119.551 204.293 119.893C204.12 120.234 203.867 120.508 203.532 120.713C203.201 120.915 202.793 121.016 202.309 121.016C201.825 121.016 201.416 120.914 201.081 120.708C200.75 120.499 200.498 120.226 200.325 119.888C200.156 119.546 200.072 119.172 200.072 118.764ZM201.528 118.227V118.764C201.528 119.006 201.585 119.23 201.697 119.435C201.813 119.641 202.017 119.744 202.309 119.744C202.614 119.744 202.821 119.641 202.93 119.435C203.043 119.23 203.099 119.006 203.099 118.764V118.227C203.099 117.985 203.046 117.76 202.94 117.551C202.834 117.342 202.624 117.238 202.309 117.238C202.014 117.238 201.81 117.344 201.697 117.556C201.585 117.768 201.528 117.992 201.528 118.227ZM200.728 126.5L207.728 116.318H209.031L202.031 126.5H200.728Z" fill="#2F7DC6"/>
<path d="M22.419 167.993V166.442L26.0433 163.086C26.3516 162.788 26.6101 162.519 26.8189 162.281C27.031 162.042 27.1918 161.809 27.3011 161.58C27.4105 161.348 27.4652 161.098 27.4652 160.829C27.4652 160.531 27.3973 160.274 27.2614 160.059C27.1255 159.84 26.9399 159.672 26.7045 159.556C26.4692 159.437 26.2024 159.377 25.9041 159.377C25.5926 159.377 25.3208 159.44 25.0888 159.566C24.8568 159.692 24.6778 159.873 24.5518 160.108C24.4259 160.344 24.3629 160.624 24.3629 160.948H22.3196C22.3196 160.282 22.4704 159.704 22.772 159.213C23.0736 158.723 23.4962 158.343 24.0398 158.075C24.5833 157.806 25.2098 157.672 25.919 157.672C26.6482 157.672 27.2829 157.801 27.8232 158.06C28.3667 158.315 28.7893 158.67 29.0909 159.124C29.3925 159.578 29.5433 160.098 29.5433 160.685C29.5433 161.069 29.4671 161.449 29.3146 161.823C29.1655 162.198 28.8987 162.614 28.5142 163.071C28.1297 163.525 27.5878 164.071 26.8885 164.707L25.402 166.164V166.233H29.6776V167.993H22.419ZM35.0357 168.132C34.2701 168.132 33.589 168.008 32.9924 167.759C32.3991 167.508 31.9334 167.165 31.5953 166.73C31.2573 166.296 31.0882 165.804 31.0882 165.254C31.0882 164.83 31.1844 164.44 31.3766 164.085C31.5721 163.728 31.8373 163.431 32.1721 163.196C32.5068 162.957 32.8813 162.804 33.2956 162.738V162.669C32.7521 162.559 32.3113 162.296 31.9732 161.878C31.6351 161.457 31.4661 160.968 31.4661 160.411C31.4661 159.884 31.6202 159.416 31.9284 159.005C32.2367 158.59 32.6593 158.265 33.1962 158.03C33.7364 157.791 34.3496 157.672 35.0357 157.672C35.7218 157.672 36.3333 157.791 36.8702 158.03C37.4105 158.269 37.8347 158.595 38.1429 159.009C38.4512 159.42 38.6069 159.888 38.6103 160.411C38.6069 160.972 38.4346 161.46 38.0932 161.878C37.7518 162.296 37.3143 162.559 36.7807 162.669V162.738C37.1884 162.804 37.5579 162.957 37.8894 163.196C38.2241 163.431 38.4893 163.728 38.6848 164.085C38.8837 164.44 38.9848 164.83 38.9881 165.254C38.9848 165.804 38.8141 166.296 38.476 166.73C38.138 167.165 37.6706 167.508 37.074 167.759C36.4808 168.008 35.8013 168.132 35.0357 168.132ZM35.0357 166.551C35.3771 166.551 35.6754 166.49 35.9306 166.367C36.1858 166.242 36.3846 166.069 36.5272 165.85C36.673 165.628 36.7459 165.373 36.7459 165.085C36.7459 164.79 36.6713 164.53 36.5222 164.304C36.373 164.076 36.1709 163.897 35.9157 163.767C35.6605 163.635 35.3671 163.568 35.0357 163.568C34.7076 163.568 34.4142 163.635 34.1557 163.767C33.8972 163.897 33.6934 164.076 33.5442 164.304C33.3984 164.53 33.3255 164.79 33.3255 165.085C33.3255 165.373 33.3967 165.628 33.5392 165.85C33.6818 166.069 33.8823 166.242 34.1408 166.367C34.3993 166.49 34.6976 166.551 35.0357 166.551ZM35.0357 162.002C35.3207 162.002 35.5743 161.944 35.7963 161.828C36.0184 161.712 36.1924 161.552 36.3184 161.346C36.4443 161.141 36.5073 160.904 36.5073 160.635C36.5073 160.37 36.4443 160.138 36.3184 159.939C36.1924 159.737 36.0201 159.58 35.8013 159.467C35.5826 159.351 35.3274 159.293 35.0357 159.293C34.7473 159.293 34.4921 159.351 34.2701 159.467C34.048 159.58 33.874 159.737 33.748 159.939C33.6254 160.138 33.5641 160.37 33.5641 160.635C33.5641 160.904 33.6271 161.141 33.753 161.346C33.879 161.552 34.053 161.712 34.275 161.828C34.4971 161.944 34.7507 162.002 35.0357 162.002ZM46.0664 166.084V165.547C46.0664 165.139 46.1526 164.765 46.3249 164.424C46.5006 164.079 46.7541 163.804 47.0856 163.598C47.4203 163.389 47.828 163.285 48.3086 163.285C48.7958 163.285 49.2051 163.388 49.5366 163.593C49.8713 163.799 50.1232 164.074 50.2923 164.419C50.4646 164.76 50.5508 165.136 50.5508 165.547V166.084C50.5508 166.492 50.4646 166.868 50.2923 167.213C50.1199 167.554 49.8664 167.827 49.5316 168.033C49.1969 168.242 48.7892 168.346 48.3086 168.346C47.8214 168.346 47.4121 168.242 47.0806 168.033C46.7492 167.827 46.4973 167.554 46.3249 167.213C46.1526 166.868 46.0664 166.492 46.0664 166.084ZM47.5131 165.547V166.084C47.5131 166.319 47.5695 166.541 47.6822 166.75C47.7982 166.959 48.007 167.063 48.3086 167.063C48.6102 167.063 48.8157 166.961 48.9251 166.755C49.0378 166.55 49.0941 166.326 49.0941 166.084V165.547C49.0941 165.305 49.0411 165.08 48.935 164.871C48.829 164.662 48.6201 164.558 48.3086 164.558C48.0103 164.558 47.8031 164.662 47.6871 164.871C47.5711 165.08 47.5131 165.305 47.5131 165.547ZM40.8413 160.257V159.72C40.8413 159.309 40.9291 158.933 41.1048 158.592C41.2804 158.247 41.534 157.972 41.8654 157.767C42.2002 157.561 42.6045 157.458 43.0785 157.458C43.569 157.458 43.98 157.561 44.3114 157.767C44.6429 157.972 44.8948 158.247 45.0671 158.592C45.2395 158.933 45.3256 159.309 45.3256 159.72V160.257C45.3256 160.668 45.2378 161.045 45.0621 161.386C44.8898 161.727 44.6362 162.001 44.3015 162.206C43.9701 162.408 43.5624 162.509 43.0785 162.509C42.5946 162.509 42.1853 162.407 41.8505 162.201C41.5191 161.992 41.2672 161.719 41.0948 161.381C40.9258 161.04 40.8413 160.665 40.8413 160.257ZM42.2979 159.72V160.257C42.2979 160.499 42.3543 160.723 42.467 160.929C42.583 161.134 42.7868 161.237 43.0785 161.237C43.3834 161.237 43.5906 161.134 43.6999 160.929C43.8126 160.723 43.869 160.499 43.869 160.257V159.72C43.869 159.478 43.8159 159.253 43.7099 159.044C43.6038 158.835 43.3933 158.731 43.0785 158.731C42.7835 158.731 42.5797 158.837 42.467 159.049C42.3543 159.261 42.2979 159.485 42.2979 159.72ZM41.4975 167.993L48.4975 157.811H49.8001L42.8001 167.993H41.4975Z" fill="#0F3D66"/>
<path d="M32.255 58.8294V69.0112H30.1023V60.8727H30.0426L27.7109 62.3344V60.4253L30.2315 58.8294H32.255ZM38.3588 58.6902C38.8825 58.6902 39.3863 58.778 39.8702 58.9537C40.3574 59.1294 40.7916 59.4094 41.1728 59.7939C41.5572 60.1784 41.8605 60.6888 42.0826 61.3252C42.3079 61.9582 42.4223 62.7354 42.4256 63.6568C42.4256 64.5219 42.3278 65.2941 42.1323 65.9736C41.94 66.6497 41.6633 67.2248 41.302 67.6987C40.9408 68.1727 40.5049 68.534 39.9945 68.7825C39.4841 69.0278 38.914 69.1504 38.2843 69.1504C37.6048 69.1504 37.0049 69.0195 36.4846 68.7577C35.9642 68.4925 35.5449 68.1329 35.2267 67.6788C34.9119 67.2215 34.7213 66.7077 34.655 66.1377H36.7779C36.8607 66.5089 37.0347 66.7972 37.2999 67.0027C37.565 67.2049 37.8932 67.306 38.2843 67.306C38.9471 67.306 39.4509 67.0176 39.7956 66.4409C40.1403 65.8609 40.3143 65.0671 40.3176 64.0595H40.248C40.0956 64.3578 39.8901 64.6147 39.6316 64.8301C39.373 65.0422 39.0764 65.2063 38.7417 65.3223C38.4102 65.4383 38.0572 65.4963 37.6827 65.4963C37.0828 65.4963 36.5475 65.3555 36.0769 65.0737C35.6062 64.792 35.235 64.4042 34.9632 63.9104C34.6915 63.4165 34.5556 62.8531 34.5556 62.22C34.5523 61.5373 34.7097 60.9291 35.0279 60.3955C35.3461 59.8618 35.7902 59.4442 36.3603 59.1426C36.9337 58.8377 37.5998 58.6869 38.3588 58.6902ZM38.3738 60.3805C38.039 60.3805 37.7407 60.4601 37.4789 60.6192C37.2203 60.7783 37.0149 60.9921 36.8624 61.2605C36.7132 61.529 36.6403 61.8289 36.6436 62.1604C36.6436 62.4951 36.7166 62.7967 36.8624 63.0652C37.0115 63.3304 37.2137 63.5425 37.4689 63.7016C37.7275 63.8573 38.0224 63.9352 38.3539 63.9352C38.6025 63.9352 38.8328 63.8888 39.0449 63.796C39.257 63.7032 39.441 63.5756 39.5968 63.4132C39.7559 63.2475 39.8801 63.0569 39.9696 62.8415C40.0591 62.6261 40.1039 62.3974 40.1039 62.1554C40.1006 61.8339 40.0243 61.5389 39.8752 61.2705C39.726 61.002 39.5205 60.7866 39.2587 60.6242C38.9969 60.4618 38.7019 60.3805 38.3738 60.3805ZM49.4902 67.1021V66.5652C49.4902 66.1575 49.5764 65.783 49.7488 65.4416C49.9244 65.0969 50.178 64.8218 50.5094 64.6163C50.8442 64.4075 51.2518 64.3031 51.7324 64.3031C52.2196 64.3031 52.629 64.4059 52.9604 64.6114C53.2952 64.8169 53.5471 65.092 53.7161 65.4367C53.8884 65.778 53.9746 66.1542 53.9746 66.5652V67.1021C53.9746 67.5098 53.8884 67.886 53.7161 68.2307C53.5437 68.5721 53.2902 68.8455 52.9554 69.051C52.6207 69.2598 52.213 69.3642 51.7324 69.3642C51.2452 69.3642 50.8359 69.2598 50.5044 69.051C50.173 68.8455 49.9211 68.5721 49.7488 68.2307C49.5764 67.886 49.4902 67.5098 49.4902 67.1021ZM50.937 66.5652V67.1021C50.937 67.3375 50.9933 67.5595 51.106 67.7683C51.222 67.9771 51.4308 68.0815 51.7324 68.0815C52.034 68.0815 52.2395 67.9788 52.3489 67.7733C52.4616 67.5678 52.5179 67.3441 52.5179 67.1021V66.5652C52.5179 66.3233 52.4649 66.0979 52.3588 65.8891C52.2528 65.6803 52.044 65.5759 51.7324 65.5759C51.4341 65.5759 51.227 65.6803 51.111 65.8891C50.995 66.0979 50.937 66.3233 50.937 66.5652ZM44.2651 61.2754V60.7385C44.2651 60.3275 44.3529 59.9513 44.5286 59.61C44.7042 59.2653 44.9578 58.9902 45.2892 58.7847C45.624 58.5792 46.0283 58.4764 46.5023 58.4764C46.9928 58.4764 47.4038 58.5792 47.7353 58.7847C48.0667 58.9902 48.3186 59.2653 48.4909 59.61C48.6633 59.9513 48.7495 60.3275 48.7495 60.7385V61.2754C48.7495 61.6864 48.6616 62.0626 48.486 62.404C48.3136 62.7454 48.0601 63.0188 47.7253 63.2243C47.3939 63.4265 46.9862 63.5276 46.5023 63.5276C46.0184 63.5276 45.6091 63.4248 45.2743 63.2193C44.9429 63.0105 44.691 62.7371 44.5186 62.399C44.3496 62.0576 44.2651 61.6831 44.2651 61.2754ZM45.7218 60.7385V61.2754C45.7218 61.5174 45.7781 61.7411 45.8908 61.9466C46.0068 62.1521 46.2106 62.2548 46.5023 62.2548C46.8072 62.2548 47.0144 62.1521 47.1238 61.9466C47.2364 61.7411 47.2928 61.5174 47.2928 61.2754V60.7385C47.2928 60.4966 47.2398 60.2712 47.1337 60.0624C47.0276 59.8536 46.8172 59.7492 46.5023 59.7492C46.2073 59.7492 46.0035 59.8552 45.8908 60.0673C45.7781 60.2795 45.7218 60.5032 45.7218 60.7385ZM44.9213 69.0112L51.9213 58.8294H53.2239L46.2239 69.0112H44.9213Z" fill="#0D5498"/>
<path d="M182.171 176.21V174.515L186.422 167.818H187.884V170.165H187.018L184.339 174.406V174.485H190.379V176.21H182.171ZM187.058 178V175.693L187.098 174.942V167.818H189.116V178H187.058ZM195.532 178.139C194.83 178.139 194.203 178.01 193.653 177.751C193.106 177.493 192.672 177.137 192.35 176.683C192.029 176.228 191.862 175.708 191.848 175.121H193.936C193.96 175.516 194.125 175.836 194.434 176.081C194.742 176.326 195.108 176.449 195.532 176.449C195.87 176.449 196.169 176.374 196.427 176.225C196.689 176.073 196.893 175.862 197.039 175.594C197.188 175.322 197.262 175.01 197.262 174.659C197.262 174.301 197.186 173.986 197.034 173.714C196.885 173.443 196.677 173.231 196.412 173.078C196.147 172.926 195.844 172.848 195.502 172.844C195.204 172.844 194.914 172.906 194.632 173.028C194.354 173.151 194.137 173.318 193.981 173.531L192.067 173.188L192.549 167.818H198.774V169.578H194.324L194.061 172.129H194.12C194.299 171.877 194.569 171.668 194.931 171.502C195.292 171.336 195.696 171.254 196.144 171.254C196.757 171.254 197.304 171.398 197.784 171.686C198.265 171.974 198.645 172.371 198.923 172.874C199.201 173.375 199.339 173.951 199.336 174.604C199.339 175.29 199.18 175.9 198.858 176.434C198.54 176.964 198.094 177.382 197.521 177.687C196.951 177.988 196.288 178.139 195.532 178.139ZM206.41 176.091V175.554C206.41 175.146 206.496 174.772 206.669 174.43C206.844 174.086 207.098 173.811 207.429 173.605C207.764 173.396 208.172 173.292 208.652 173.292C209.14 173.292 209.549 173.395 209.88 173.6C210.215 173.806 210.467 174.081 210.636 174.425C210.808 174.767 210.895 175.143 210.895 175.554V176.091C210.895 176.499 210.808 176.875 210.636 177.219C210.464 177.561 210.21 177.834 209.875 178.04C209.541 178.249 209.133 178.353 208.652 178.353C208.165 178.353 207.756 178.249 207.424 178.04C207.093 177.834 206.841 177.561 206.669 177.219C206.496 176.875 206.41 176.499 206.41 176.091ZM207.857 175.554V176.091C207.857 176.326 207.913 176.548 208.026 176.757C208.142 176.966 208.351 177.07 208.652 177.07C208.954 177.07 209.159 176.968 209.269 176.762C209.382 176.557 209.438 176.333 209.438 176.091V175.554C209.438 175.312 209.385 175.087 209.279 174.878C209.173 174.669 208.964 174.565 208.652 174.565C208.354 174.565 208.147 174.669 208.031 174.878C207.915 175.087 207.857 175.312 207.857 175.554ZM201.185 170.264V169.727C201.185 169.316 201.273 168.94 201.449 168.599C201.624 168.254 201.878 167.979 202.209 167.773C202.544 167.568 202.948 167.465 203.422 167.465C203.913 167.465 204.324 167.568 204.655 167.773C204.987 167.979 205.239 168.254 205.411 168.599C205.583 168.94 205.669 169.316 205.669 169.727V170.264C205.669 170.675 205.582 171.051 205.406 171.393C205.234 171.734 204.98 172.008 204.645 172.213C204.314 172.415 203.906 172.516 203.422 172.516C202.938 172.516 202.529 172.414 202.194 172.208C201.863 171.999 201.611 171.726 201.439 171.388C201.27 171.046 201.185 170.672 201.185 170.264ZM202.642 169.727V170.264C202.642 170.506 202.698 170.73 202.811 170.935C202.927 171.141 203.131 171.244 203.422 171.244C203.727 171.244 203.934 171.141 204.044 170.935C204.156 170.73 204.213 170.506 204.213 170.264V169.727C204.213 169.485 204.16 169.26 204.054 169.051C203.948 168.842 203.737 168.738 203.422 168.738C203.127 168.738 202.923 168.844 202.811 169.056C202.698 169.268 202.642 169.492 202.642 169.727ZM201.841 178L208.841 167.818H210.144L203.144 178H201.841Z" fill="#489DEE"/>
</g>
<defs>
<clipPath id="clip0_6615_863">
<rect width="229" height="194" fill="white"/>
</clipPath>
</defs>
</svg>
