<svg width="229" height="160" viewBox="0 0 229 160" fill="none" xmlns="http://www.w3.org/2000/svg">
<rect width="229" height="160" fill="white"/>
<path d="M143 63H154.963L160 58" stroke="black"/>
<path d="M142 73H157" stroke="black"/>
<path d="M142 87H156.206L163 94" stroke="black"/>
<path d="M142 98H148" stroke="black"/>
<path d="M131 51V43.1212L144 31" stroke="black"/>
<path d="M119 51V34" stroke="black"/>
<path d="M109 51V40" stroke="black"/>
<path d="M97 52V38.8L87 30" stroke="black"/>
<path d="M86 62H80" stroke="black"/>
<path d="M86 75H73.1667L64 65" stroke="black"/>
<path d="M85 87H72" stroke="black"/>
<path d="M86 98H73.5556L70 101" stroke="black"/>
<path d="M97 109V116.5L85 129" stroke="black"/>
<path d="M109 109V126" stroke="black"/>
<path d="M121 109V118" stroke="black"/>
<path d="M132 109V120.25L141 129" stroke="black"/>
<mask id="path-17-inside-1_6615_764" fill="white">
<rect x="87" y="53" width="54" height="55" rx="1"/>
</mask>
<rect x="87" y="53" width="54" height="55" rx="1" stroke="#70002B" stroke-width="6" mask="url(#path-17-inside-1_6615_764)"/>
<rect x="94.5" y="60.5" width="39" height="39" rx="2.5" fill="#70002B" stroke="#70002B"/>
<circle cx="109" cy="129" r="2.75" stroke="black" stroke-width="0.5"/>
<circle cx="121" cy="121" r="2.75" stroke="black" stroke-width="0.5"/>
<circle cx="151" cy="98" r="2.75" stroke="black" stroke-width="0.5"/>
<circle cx="160" cy="73" r="2.75" stroke="black" stroke-width="0.5"/>
<circle cx="69" cy="87" r="2.75" stroke="black" stroke-width="0.5"/>
<circle cx="77" cy="62" r="2.75" stroke="black" stroke-width="0.5"/>
<circle cx="109" cy="37" r="2.75" stroke="black" stroke-width="0.5"/>
<circle cx="119" cy="31" r="2.75" stroke="black" stroke-width="0.5"/>
<circle cx="84.5" cy="25.5" r="6" stroke="#367CCF" stroke-width="3"/>
<circle cx="149.5" cy="27.5" r="6" stroke="#367CCF" stroke-width="3"/>
<circle cx="164.5" cy="54.5" r="6" stroke="#367CCF" stroke-width="3"/>
<circle cx="168.5" cy="97.5" r="6" stroke="#367CCF" stroke-width="3"/>
<circle cx="144.5" cy="134.5" r="6" stroke="#367CCF" stroke-width="3"/>
<circle cx="80.5" cy="133.5" r="6" stroke="#367CCF" stroke-width="3"/>
<circle cx="65.5" cy="105.5" r="6" stroke="#367CCF" stroke-width="3"/>
<circle cx="60.5" cy="60.5" r="6" stroke="#367CCF" stroke-width="3"/>
<path d="M105.923 66.881C106.134 66.4889 106.712 66.5441 106.842 66.9686L108.454 72.272C108.509 72.4528 108.662 72.5865 108.849 72.6175L114.422 73.5434C114.868 73.6176 114.992 74.1988 114.615 74.4512L109.976 77.5568C109.815 77.665 109.73 77.8565 109.759 78.0481L110.575 83.4873C110.642 83.9294 110.137 84.2319 109.78 83.9646L105.27 80.5937C105.121 80.4823 104.922 80.4633 104.753 80.5444L99.6582 82.9998C99.2541 83.1946 98.8195 82.8026 98.9726 82.3814L100.856 77.1996C100.923 77.0171 100.877 76.8132 100.74 76.6765L96.8077 72.7538C96.4882 72.4351 96.7249 71.8882 97.1773 71.8997L102.83 72.0438C103.019 72.0486 103.195 71.9462 103.285 71.7793L105.923 66.881Z" fill="#FFC200"/>
<path d="M126.654 82.544C126.865 82.1519 127.444 82.2071 127.573 82.6316L127.799 83.3741C127.854 83.5549 128.007 83.6887 128.193 83.7197L128.953 83.8459C129.399 83.92 129.523 84.5013 129.146 84.7536L128.531 85.165C128.37 85.2732 128.285 85.4647 128.314 85.6563L128.424 86.3888C128.49 86.8309 127.986 87.1334 127.628 86.866L126.992 86.3908C126.843 86.2794 126.644 86.2605 126.476 86.3416L125.758 86.6877C125.353 86.8825 124.919 86.4905 125.072 86.0693L125.326 85.3715C125.392 85.1889 125.347 84.9851 125.21 84.8484L124.689 84.3288C124.369 84.0101 124.606 83.4632 125.059 83.4747L125.829 83.4944C126.019 83.4992 126.195 83.3968 126.285 83.2298L126.654 82.544Z" fill="#FFC200"/>
<path d="M120.439 88.62C120.781 88.3276 121.306 88.5838 121.27 89.0253L121.208 89.7898C121.193 89.9776 121.287 90.1563 121.451 90.2512L122.116 90.6354C122.506 90.8608 122.41 91.4422 121.967 91.5459L121.23 91.7179C121.041 91.7621 120.893 91.9093 120.85 92.096L120.681 92.824C120.581 93.2584 119.996 93.3602 119.76 92.9844L119.347 92.3271C119.248 92.1694 119.066 92.0809 118.877 92.098L118.089 92.1693C117.639 92.2101 117.372 91.693 117.669 91.3545L118.167 90.7872C118.294 90.6417 118.327 90.438 118.25 90.2636L117.95 89.5863C117.769 89.178 118.19 88.7557 118.609 88.9248L119.323 89.213C119.499 89.2842 119.703 89.2505 119.848 89.1262L120.439 88.62Z" fill="#FFC200"/>
<path d="M122.434 65.4752C122.758 65.1648 123.296 65.3917 123.286 65.8344L123.268 66.6027C123.263 66.7911 123.367 66.9643 123.536 67.05L124.221 67.3974C124.623 67.6013 124.561 68.1879 124.123 68.3155L123.401 68.5265C123.214 68.581 123.074 68.7364 123.041 68.9257L122.915 69.6604C122.84 70.0999 122.262 70.2342 122.005 69.872L121.554 69.2364C121.446 69.0847 121.26 69.0064 121.073 69.0336L120.288 69.1479C119.841 69.213 119.546 68.711 119.824 68.3566L120.287 67.7642C120.407 67.6116 120.428 67.406 120.34 67.2358L120.004 66.578C119.8 66.18 120.196 65.7342 120.624 65.8803L121.353 66.1292C121.533 66.1906 121.734 66.146 121.871 66.0139L122.434 65.4752Z" fill="#FFC200"/>
<path d="M129.187 72.9457C129.611 72.7843 130.022 73.2068 129.833 73.6101L129.513 74.2963C129.433 74.4675 129.46 74.6682 129.583 74.8138L130.074 75.3976C130.363 75.7402 130.079 76.2503 129.627 76.2005L128.855 76.1155C128.663 76.0943 128.476 76.1811 128.372 76.3392L127.954 76.9757C127.709 77.3486 127.122 77.2415 127.031 76.8072L126.876 76.069C126.838 75.8844 126.694 75.7373 126.507 75.6897L125.759 75.4993C125.319 75.3873 125.241 74.8109 125.636 74.5925L126.311 74.2199C126.479 74.1273 126.578 73.9499 126.566 73.7622L126.521 73.007C126.494 72.5649 127.032 72.3158 127.368 72.6149L127.94 73.1247C128.082 73.2518 128.287 73.2889 128.467 73.2204L129.187 72.9457Z" fill="#FFC200"/>
</svg>
