<svg width="229" height="232" viewBox="0 0 229 232" fill="none" xmlns="http://www.w3.org/2000/svg">
<rect x="83" y="97" width="50" height="85" rx="4" fill="#212121"/>
<rect x="85" y="99" width="46" height="81" rx="4" fill="#F5616A"/>
<path d="M94 98C94 97.7239 94.2239 97.5 94.5 97.5H121.5C121.776 97.5 122 97.7239 122 98V101C122 102.657 120.657 104 119 104H97C95.3431 104 94 102.657 94 101V98Z" fill="#212121"/>
<path d="M106.268 128.003C107.037 126.669 108.963 126.669 109.732 128.003L121.27 148.001C122.039 149.334 121.076 151 119.537 151H96.4628C94.9235 151 93.9612 149.334 94.7304 148.001L106.268 128.003Z" fill="#C52135"/>
<path d="M109.168 133.54V139.26C109.168 139.867 109.138 140.463 109.078 141.05C109.018 141.63 108.941 142.247 108.848 142.9H107.168C107.074 142.247 106.998 141.63 106.938 141.05C106.878 140.463 106.848 139.867 106.848 139.26V133.54H109.168ZM106.458 146.64C106.458 146.433 106.494 146.237 106.568 146.05C106.648 145.863 106.754 145.703 106.888 145.57C107.028 145.437 107.191 145.33 107.378 145.25C107.564 145.17 107.764 145.13 107.978 145.13C108.184 145.13 108.381 145.17 108.568 145.25C108.754 145.33 108.914 145.437 109.048 145.57C109.188 145.703 109.298 145.863 109.378 146.05C109.458 146.237 109.498 146.433 109.498 146.64C109.498 146.853 109.458 147.053 109.378 147.24C109.298 147.42 109.188 147.577 109.048 147.71C108.914 147.843 108.754 147.947 108.568 148.02C108.381 148.1 108.184 148.14 107.978 148.14C107.764 148.14 107.564 148.1 107.378 148.02C107.191 147.947 107.028 147.843 106.888 147.71C106.754 147.577 106.648 147.42 106.568 147.24C106.494 147.053 106.458 146.853 106.458 146.64Z" fill="black"/>
<path d="M106.268 128.003C107.037 126.669 108.963 126.669 109.732 128.003L121.27 148.001C122.039 149.334 121.076 151 119.537 151H96.4628C94.9235 151 93.9612 149.334 94.7304 148.001L106.268 128.003Z" fill="#C52135"/>
<path d="M109.168 133.54V139.26C109.168 139.867 109.138 140.463 109.078 141.05C109.018 141.63 108.941 142.247 108.848 142.9H107.168C107.074 142.247 106.998 141.63 106.938 141.05C106.878 140.463 106.848 139.867 106.848 139.26V133.54H109.168ZM106.458 146.64C106.458 146.433 106.494 146.237 106.568 146.05C106.648 145.863 106.754 145.703 106.888 145.57C107.028 145.437 107.191 145.33 107.378 145.25C107.564 145.17 107.764 145.13 107.978 145.13C108.184 145.13 108.381 145.17 108.568 145.25C108.754 145.33 108.914 145.437 109.048 145.57C109.188 145.703 109.298 145.863 109.378 146.05C109.458 146.237 109.498 146.433 109.498 146.64C109.498 146.853 109.458 147.053 109.378 147.24C109.298 147.42 109.188 147.577 109.048 147.71C108.914 147.843 108.754 147.947 108.568 148.02C108.381 148.1 108.184 148.14 107.978 148.14C107.764 148.14 107.564 148.1 107.378 148.02C107.191 147.947 107.028 147.843 106.888 147.71C106.754 147.577 106.648 147.42 106.568 147.24C106.494 147.053 106.458 146.853 106.458 146.64Z" fill="white"/>
<rect x="143" y="120" width="57" height="12" rx="3" fill="#134E78"/>
<rect x="143" y="154" width="57" height="7" rx="3" fill="#134E78"/>
<rect x="165" y="134" width="57" height="18" rx="3" fill="#4A8EBF"/>
<path d="M213 152L222 156L220 151L213 152Z" fill="#4A8EBF"/>
<path d="M152 161L143 165L145 160L152 161Z" fill="#134E78"/>
<path d="M152 132L143 136L145 131L152 132Z" fill="#134E78"/>
<path d="M123 201.6C123 200.937 123.537 200.4 124.2 200.4H189C189.663 200.4 190.2 200.937 190.2 201.6V211.2C190.2 211.863 189.663 212.4 189 212.4H124.2C123.537 212.4 123 211.863 123 211.2V201.6Z" fill="#9CCDEF"/>
<path d="M125.916 206.784C125.916 206.66 125.938 206.542 125.982 206.43C126.03 206.318 126.094 206.222 126.174 206.142C126.254 206.062 126.35 205.998 126.462 205.95C126.574 205.902 126.694 205.878 126.822 205.878C126.95 205.878 127.068 205.902 127.176 205.95C127.288 205.998 127.384 206.062 127.464 206.142C127.548 206.222 127.614 206.318 127.662 206.43C127.71 206.542 127.734 206.66 127.734 206.784C127.734 206.912 127.71 207.032 127.662 207.144C127.614 207.252 127.548 207.346 127.464 207.426C127.384 207.506 127.288 207.568 127.176 207.612C127.068 207.66 126.95 207.684 126.822 207.684C126.694 207.684 126.574 207.66 126.462 207.612C126.35 207.568 126.254 207.506 126.174 207.426C126.094 207.346 126.03 207.252 125.982 207.144C125.938 207.032 125.916 206.912 125.916 206.784ZM128.764 206.784C128.764 206.66 128.786 206.542 128.83 206.43C128.878 206.318 128.942 206.222 129.022 206.142C129.102 206.062 129.198 205.998 129.31 205.95C129.422 205.902 129.542 205.878 129.67 205.878C129.798 205.878 129.916 205.902 130.024 205.95C130.136 205.998 130.232 206.062 130.312 206.142C130.396 206.222 130.462 206.318 130.51 206.43C130.558 206.542 130.582 206.66 130.582 206.784C130.582 206.912 130.558 207.032 130.51 207.144C130.462 207.252 130.396 207.346 130.312 207.426C130.232 207.506 130.136 207.568 130.024 207.612C129.916 207.66 129.798 207.684 129.67 207.684C129.542 207.684 129.422 207.66 129.31 207.612C129.198 207.568 129.102 207.506 129.022 207.426C128.942 207.346 128.878 207.252 128.83 207.144C128.786 207.032 128.764 206.912 128.764 206.784ZM131.611 206.784C131.611 206.66 131.633 206.542 131.677 206.43C131.725 206.318 131.789 206.222 131.869 206.142C131.949 206.062 132.045 205.998 132.157 205.95C132.269 205.902 132.389 205.878 132.517 205.878C132.645 205.878 132.763 205.902 132.871 205.95C132.983 205.998 133.079 206.062 133.159 206.142C133.243 206.222 133.309 206.318 133.357 206.43C133.405 206.542 133.429 206.66 133.429 206.784C133.429 206.912 133.405 207.032 133.357 207.144C133.309 207.252 133.243 207.346 133.159 207.426C133.079 207.506 132.983 207.568 132.871 207.612C132.763 207.66 132.645 207.684 132.517 207.684C132.389 207.684 132.269 207.66 132.157 207.612C132.045 207.568 131.949 207.506 131.869 207.426C131.789 207.346 131.725 207.252 131.677 207.144C131.633 207.032 131.611 206.912 131.611 206.784ZM134.459 206.784C134.459 206.66 134.481 206.542 134.525 206.43C134.573 206.318 134.637 206.222 134.717 206.142C134.797 206.062 134.893 205.998 135.005 205.95C135.117 205.902 135.237 205.878 135.365 205.878C135.493 205.878 135.611 205.902 135.719 205.95C135.831 205.998 135.927 206.062 136.007 206.142C136.091 206.222 136.157 206.318 136.205 206.43C136.253 206.542 136.277 206.66 136.277 206.784C136.277 206.912 136.253 207.032 136.205 207.144C136.157 207.252 136.091 207.346 136.007 207.426C135.927 207.506 135.831 207.568 135.719 207.612C135.611 207.66 135.493 207.684 135.365 207.684C135.237 207.684 135.117 207.66 135.005 207.612C134.893 207.568 134.797 207.506 134.717 207.426C134.637 207.346 134.573 207.252 134.525 207.144C134.481 207.032 134.459 206.912 134.459 206.784ZM137.307 206.784C137.307 206.66 137.329 206.542 137.373 206.43C137.421 206.318 137.485 206.222 137.565 206.142C137.645 206.062 137.741 205.998 137.853 205.95C137.965 205.902 138.085 205.878 138.213 205.878C138.341 205.878 138.459 205.902 138.567 205.95C138.679 205.998 138.775 206.062 138.855 206.142C138.939 206.222 139.005 206.318 139.053 206.43C139.101 206.542 139.125 206.66 139.125 206.784C139.125 206.912 139.101 207.032 139.053 207.144C139.005 207.252 138.939 207.346 138.855 207.426C138.775 207.506 138.679 207.568 138.567 207.612C138.459 207.66 138.341 207.684 138.213 207.684C138.085 207.684 137.965 207.66 137.853 207.612C137.741 207.568 137.645 207.506 137.565 207.426C137.485 207.346 137.421 207.252 137.373 207.144C137.329 207.032 137.307 206.912 137.307 206.784ZM140.154 206.784C140.154 206.66 140.176 206.542 140.22 206.43C140.268 206.318 140.332 206.222 140.412 206.142C140.492 206.062 140.588 205.998 140.7 205.95C140.812 205.902 140.932 205.878 141.06 205.878C141.188 205.878 141.306 205.902 141.414 205.95C141.526 205.998 141.622 206.062 141.702 206.142C141.786 206.222 141.852 206.318 141.9 206.43C141.948 206.542 141.972 206.66 141.972 206.784C141.972 206.912 141.948 207.032 141.9 207.144C141.852 207.252 141.786 207.346 141.702 207.426C141.622 207.506 141.526 207.568 141.414 207.612C141.306 207.66 141.188 207.684 141.06 207.684C140.932 207.684 140.812 207.66 140.7 207.612C140.588 207.568 140.492 207.506 140.412 207.426C140.332 207.346 140.268 207.252 140.22 207.144C140.176 207.032 140.154 206.912 140.154 206.784ZM143.002 206.784C143.002 206.66 143.024 206.542 143.068 206.43C143.116 206.318 143.18 206.222 143.26 206.142C143.34 206.062 143.436 205.998 143.548 205.95C143.66 205.902 143.78 205.878 143.908 205.878C144.036 205.878 144.154 205.902 144.262 205.95C144.374 205.998 144.47 206.062 144.55 206.142C144.634 206.222 144.7 206.318 144.748 206.43C144.796 206.542 144.82 206.66 144.82 206.784C144.82 206.912 144.796 207.032 144.748 207.144C144.7 207.252 144.634 207.346 144.55 207.426C144.47 207.506 144.374 207.568 144.262 207.612C144.154 207.66 144.036 207.684 143.908 207.684C143.78 207.684 143.66 207.66 143.548 207.612C143.436 207.568 143.34 207.506 143.26 207.426C143.18 207.346 143.116 207.252 143.068 207.144C143.024 207.032 143.002 206.912 143.002 206.784ZM145.849 206.784C145.849 206.66 145.871 206.542 145.915 206.43C145.963 206.318 146.027 206.222 146.107 206.142C146.187 206.062 146.283 205.998 146.395 205.95C146.507 205.902 146.627 205.878 146.755 205.878C146.883 205.878 147.001 205.902 147.109 205.95C147.221 205.998 147.317 206.062 147.397 206.142C147.481 206.222 147.547 206.318 147.595 206.43C147.643 206.542 147.667 206.66 147.667 206.784C147.667 206.912 147.643 207.032 147.595 207.144C147.547 207.252 147.481 207.346 147.397 207.426C147.317 207.506 147.221 207.568 147.109 207.612C147.001 207.66 146.883 207.684 146.755 207.684C146.627 207.684 146.507 207.66 146.395 207.612C146.283 207.568 146.187 207.506 146.107 207.426C146.027 207.346 145.963 207.252 145.915 207.144C145.871 207.032 145.849 206.912 145.849 206.784ZM148.697 206.784C148.697 206.66 148.719 206.542 148.763 206.43C148.811 206.318 148.875 206.222 148.955 206.142C149.035 206.062 149.131 205.998 149.243 205.95C149.355 205.902 149.475 205.878 149.603 205.878C149.731 205.878 149.849 205.902 149.957 205.95C150.069 205.998 150.165 206.062 150.245 206.142C150.329 206.222 150.395 206.318 150.443 206.43C150.491 206.542 150.515 206.66 150.515 206.784C150.515 206.912 150.491 207.032 150.443 207.144C150.395 207.252 150.329 207.346 150.245 207.426C150.165 207.506 150.069 207.568 149.957 207.612C149.849 207.66 149.731 207.684 149.603 207.684C149.475 207.684 149.355 207.66 149.243 207.612C149.131 207.568 149.035 207.506 148.955 207.426C148.875 207.346 148.811 207.252 148.763 207.144C148.719 207.032 148.697 206.912 148.697 206.784ZM151.545 206.784C151.545 206.66 151.567 206.542 151.611 206.43C151.659 206.318 151.723 206.222 151.803 206.142C151.883 206.062 151.979 205.998 152.091 205.95C152.203 205.902 152.323 205.878 152.451 205.878C152.579 205.878 152.697 205.902 152.805 205.95C152.917 205.998 153.013 206.062 153.093 206.142C153.177 206.222 153.243 206.318 153.291 206.43C153.339 206.542 153.363 206.66 153.363 206.784C153.363 206.912 153.339 207.032 153.291 207.144C153.243 207.252 153.177 207.346 153.093 207.426C153.013 207.506 152.917 207.568 152.805 207.612C152.697 207.66 152.579 207.684 152.451 207.684C152.323 207.684 152.203 207.66 152.091 207.612C151.979 207.568 151.883 207.506 151.803 207.426C151.723 207.346 151.659 207.252 151.611 207.144C151.567 207.032 151.545 206.912 151.545 206.784Z" fill="black"/>
<path d="M177 206.4C177 206.4 178.8 203.4 182.4 203.4C186 203.4 187.8 206.4 187.8 206.4C187.8 206.4 186 209.4 182.4 209.4C178.8 209.4 177 206.4 177 206.4Z" fill="#9CCDEF" stroke="black" stroke-width="0.6"/>
<circle cx="182.4" cy="206.4" r="2.4" stroke="black" stroke-width="0.6"/>
<path d="M187.8 203.4L177 209.4" stroke="black" stroke-width="0.6"/>
<path d="M123 187.2C123 186.537 123.537 186 124.2 186H189C189.663 186 190.2 186.537 190.2 187.2V196.8C190.2 197.463 189.663 198 189 198H124.2C123.537 198 123 197.463 123 196.8V187.2Z" fill="#9CCDEF"/>
<path d="M125.4 192C126.563 192 127.491 191.4 128.4 191.4C129.459 191.4 130.494 192 131.85 192C133.077 192 134.042 191.4 135 191.4C136.008 191.4 137.008 192 138.3 192C139.591 192 140.592 191.4 141.6 191.4C142.558 191.4 143.522 192 144.75 192C145.977 192 146.833 191.366 148.2 191.4C149.394 191.43 150 192 151.2 192" stroke="black" stroke-width="1.2" stroke-linecap="round"/>
<circle cx="69" cy="204" r="9" fill="#4A8EBF"/>
<circle cx="69" cy="201" r="3" fill="white"/>
<ellipse cx="69" cy="206.5" rx="5" ry="3" fill="white"/>
<circle cx="89" cy="204" r="9" fill="#4A8EBF"/>
<circle cx="89" cy="201" r="3" fill="white"/>
<ellipse cx="89" cy="206.5" rx="5" ry="3" fill="white"/>
<path d="M46.7771 197.865C46.4105 198.107 45.7431 198.493 45.443 198.637C45.1443 198.778 44.6248 198.958 44.3804 199.006C43.9366 199.087 43.0213 199.083 42.6575 198.997C42.4031 198.935 41.8951 198.73 41.6578 198.594C41.3713 198.428 40.1386 197.422 40.0207 197.306C39.7413 197.031 38.9224 196.096 38.6516 195.786C38.4794 195.59 38.1264 195.318 37.9963 195.248C37.8041 195.146 37.366 195.051 37.0831 195.057C36.7308 195.069 35.8068 195.351 35.3109 195.597C34.9107 195.799 34.1104 196.324 33.6866 196.659C33.0935 197.132 31.6308 198.597 30.9648 199.378C30.2238 200.272 29.5535 201.34 29.2741 201.883C29.1726 202.075 29.1026 202.348 29.0419 202.704C29.0118 202.889 28.9954 203.083 29.0011 203.212C29.009 203.339 29.0762 203.576 29.1398 203.689C29.2355 203.852 29.7279 204.307 29.9294 204.456C30.3231 204.743 31.6072 205.456 31.8409 205.563C32.0324 205.651 33.0478 206.044 33.5216 206.183C33.9925 206.321 34.8993 206.514 35.4388 206.59C35.7325 206.629 36.9451 206.715 37.381 206.706C38.4486 206.678 39.4197 206.591 39.5512 206.579C39.9007 206.547 41.3698 206.308 41.6685 206.239C42.2709 206.096 43.112 205.755 43.4343 205.597C43.858 205.388 44.5669 204.959 45.2722 204.463C46.4427 203.608 50.8331 200.067 52.8389 198.429C54.6075 196.943 57.0864 194.843 58.3126 193.749C58.8972 193.206 59.8211 192.297 60.0676 192.011C60.3249 191.706 60.7951 191.109 61.008 190.816C61.306 190.389 61.8112 189.503 62.0535 188.934C62.245 188.468 62.5122 187.812 62.7588 187.002C62.9717 186.279 63.0396 185.996 63.264 184.957C63.3604 184.499 63.4948 183.324 63.5119 183.027C63.5391 182.481 63.5205 181.551 63.4748 181.061C63.4276 180.568 63.2354 179.494 63.1861 179.29C63.1246 179.041 62.6737 177.648 62.4729 177.221C62.3686 177 62.0106 176.416 61.8677 176.288C61.7691 176.202 61.549 176.089 61.4268 176.057C61.2338 176.01 60.5636 175.998 60.5143 176C60.2913 176.016 59.2323 176.342 58.7142 176.573C58.2519 176.784 57.4158 177.224 56.9242 177.51C56.5304 177.75 55.8259 178.204 55.3235 178.556C55.0212 178.775 54.163 179.456 53.7979 179.802C53.4777 180.105 52.7925 180.897 52.5131 181.337C52.3916 181.531 52.1636 181.975 52.0922 182.169C52.0078 182.4 51.9192 182.822 51.925 183.045C51.9342 183.28 52.0321 183.589 52.1693 183.878C52.2622 184.074 52.4545 184.29 52.6667 184.504C52.751 184.588 53.2198 185.055 53.4485 185.328C53.745 185.683 54.4331 186.887 54.5968 187.287C54.7047 187.557 54.8512 188.114 54.8819 188.375C54.9219 188.738 54.8097 189.633 54.6754 190.002C54.5954 190.215 54.3124 190.721 54.1116 191.01C53.6971 191.599 52.8954 192.48 52.5466 192.846C51.9414 193.46 49.8534 195.4 48.8837 196.24C47.9683 196.998 46.8536 197.814 46.7771 197.865Z" fill="#134E78"/>
<rect x="10" y="135" width="44.4" height="27.6" fill="#CFD4E3"/>
<rect x="12.3999" y="137.4" width="39.6" height="22.8" fill="#002642"/>
<rect x="25.6001" y="126.6" width="32.4" height="32.4" fill="#F0F2F9"/>
<rect x="28" y="129" width="27.6" height="27.6" fill="#134E78"/>
<rect x="47.2" y="117" width="13.2" height="9.24" rx="1.32" fill="#70A4C8"/>
<rect x="49.8401" y="118.32" width="7.92" height="3.96" fill="white"/>
<rect x="34" y="123.6" width="39.6" height="26.4" rx="2.64" fill="#B1D6F1"/>
<circle cx="53.8001" cy="136.8" r="9.24" fill="#70A4C8"/>
<circle cx="53.7999" cy="136.8" r="6.6" fill="#212121"/>
<mask id="mask0_4475_43" style="mask-type:alpha" maskUnits="userSpaceOnUse" x="76" y="12" width="68" height="64">
<path d="M105.416 23.3678C104.917 23.5292 102.413 24.6529 101.642 25.0403C100.414 25.6829 98.7303 26.6503 97.7552 27.2457C96.8505 27.8315 95.0067 29.1021 94.0748 29.7875C92.9062 30.6787 91.4084 31.9085 90.5682 32.6296C89.7464 33.3601 87.8952 35.093 87.3336 35.6548C86.5646 36.4508 85.1042 37.9874 84.4128 38.7281C83.5492 39.7122 79.9861 44.2588 78.4179 46.2461C77.6643 47.1765 76.6174 48.4667 76.3248 48.8265C76.2816 48.9217 76.1511 49.1819 76.1474 49.1899C76.0807 49.3477 76.066 49.5766 76.1071 49.7373C76.157 49.9161 76.7552 50.7091 77.1372 51.0609C77.5675 51.4541 78.8989 52.4536 79.3263 52.7647C80.7537 53.7576 84.1921 56.0196 84.7149 56.3634C85.1811 56.8955 86.3688 58.2482 87.0895 59.0689C87.5074 59.529 88.3901 60.3743 89.025 60.934C89.5844 61.4007 90.7941 62.334 91.2442 62.6603C91.9891 63.1815 94.2589 64.6171 95.382 65.2698C96.5426 65.9051 98.6973 67.0703 99.6899 67.6002C100.485 68.0145 102.067 68.8395 103.557 69.4086C103.75 69.4842 104.1 69.6216 104.256 69.6834C104.529 69.7917 104.882 69.9756 105.068 70.0722C105.254 70.1711 105.372 70.2874 105.466 70.3804C105.801 70.8544 106.514 71.7651 106.665 71.9476C107.056 72.4208 107.733 73.0793 108.283 73.5162C108.678 73.8222 109.63 74.5105 109.905 74.6675C110.151 74.8071 110.645 75.0281 110.857 75.1226C111.244 75.2941 111.373 75.3384 111.413 75.3166L111.606 74.8274C111.606 74.8282 112.136 72.1547 112.433 70.6865C112.84 68.7253 113.805 64.0915 114.363 61.4196C114.901 58.8479 115.829 54.443 116.218 52.6099C116.391 51.8721 117.029 49.4727 117.298 48.6586C117.427 48.2901 117.569 47.9179 117.655 47.7326C117.655 47.7326 117.736 47.492 117.798 47.4658C117.841 47.4498 118.233 47.7224 118.652 47.9404C119.022 48.1294 119.818 48.4144 120.402 48.5619C121.59 48.8512 122.798 48.9144 123.513 48.9246C123.763 48.9283 124.404 48.841 124.444 48.8389C124.775 48.8258 126.095 49.1042 126.486 49.2575C126.975 49.4509 127.925 50.0324 128.413 50.4074C130.219 51.7892 133.799 54.515 135.572 55.8597C135.916 56.1148 136.642 56.66 136.63 56.6745C136.651 56.6913 136.606 56.9478 136.796 57.3135C136.913 57.5337 137.23 57.8201 137.394 57.9211C137.587 58.0374 138.055 58.2293 138.315 58.2976C138.833 58.4314 139.56 58.4372 140.263 58.3849C140.799 58.3369 141.502 58.1624 141.62 58.0854C141.835 57.9437 142.4 57.3563 142.616 57.0176C142.82 56.6905 143.205 55.9164 143.394 55.3582C143.565 54.8297 143.699 53.8514 143.699 53.4639C143.699 53.3164 143.676 52.6528 143.595 52.4332C143.587 52.4129 143.567 52.3685 143.533 52.3017C143.506 52.2493 143.442 52.1236 143.411 52.088C143.378 52.0502 143.349 51.9695 143.311 51.8198C143.311 51.8198 143.546 51.0304 143.49 50.3922C143.458 50.0564 143.147 49.2023 142.928 48.7393C142.804 48.482 142.621 48.2232 142.378 47.9281C142.122 47.6264 141.824 47.3153 141.71 47.2245C141.688 47.2056 141.561 47.122 141.543 47.1031C141.314 46.8574 140.931 46.1153 140.742 45.7526C140.196 44.695 139.045 42.5013 138.439 41.3659C137.839 40.2945 136.553 38.1531 135.963 37.2372C134.404 34.8044 133.279 32.9182 133.221 32.7277C133.194 32.6347 132.917 31.2362 132.798 30.6809C132.647 30.0034 132.293 28.9807 132.059 28.6267C131.933 28.4385 131.687 28.1826 131.5 28.0423C130.581 27.37 128.79 26.0638 127.916 25.4299C127.221 24.9306 126.364 24.368 125.84 24.0707C125.383 23.8126 124.219 23.2493 123.565 23.0058C122.924 22.7681 121.782 22.4563 120.982 22.2964C120.057 22.1103 119.059 21.9104 118.987 21.8952C118.202 21.4714 116.077 20.3164 115.136 19.6615C114.766 19.4034 113.636 18.5203 113.172 18.1263C112.711 17.7164 111.824 16.8652 111.392 16.4407C111.014 16.0511 110.298 15.2973 109.853 14.8002C109.25 14.1053 108.327 12.7337 108.242 12.6072C108.112 13.0135 108.012 13.8538 107.969 14.6628C107.944 15.3657 107.958 15.9384 108.028 16.5534C108.111 17.2155 108.376 18.2499 108.535 18.6606C108.716 19.125 109.131 19.8614 109.573 20.4894C109.934 20.9975 110.576 21.5622 111.207 22.0245C111.249 22.0558 111.29 22.0863 111.333 22.1176C110.889 22.1728 109.941 22.3022 109.385 22.3945C108.842 22.4955 107.702 22.7107 107.329 22.8096C106.774 22.9673 105.537 23.3293 105.416 23.3678Z" fill="#D9D9D9"/>
</mask>
<g mask="url(#mask0_4475_43)">
<path d="M105.416 23.3678C104.917 23.5292 102.413 24.6529 101.642 25.0403C100.414 25.6829 98.7303 26.6503 97.7552 27.2457C96.8505 27.8315 95.0067 29.1021 94.0748 29.7875C92.9062 30.6787 91.4084 31.9085 90.5682 32.6296C89.7464 33.3601 87.8952 35.093 87.3336 35.6548C86.5646 36.4508 85.1042 37.9874 84.4128 38.7281C83.5492 39.7122 79.9861 44.2588 78.4179 46.2461C77.6643 47.1765 76.6174 48.4667 76.3248 48.8265C76.2816 48.9217 76.1511 49.1819 76.1474 49.1899C76.0807 49.3477 76.066 49.5766 76.1071 49.7373C76.157 49.9161 76.7552 50.7091 77.1372 51.0609C77.5675 51.4541 78.8989 52.4536 79.3263 52.7647C80.7537 53.7576 84.1921 56.0196 84.7149 56.3634C85.1811 56.8955 86.3688 58.2482 87.0895 59.0689C87.5074 59.529 88.3901 60.3743 89.025 60.934C89.5844 61.4007 90.7941 62.334 91.2442 62.6603C91.9891 63.1815 94.2589 64.6171 95.382 65.2698C96.5426 65.9051 98.6973 67.0703 99.6899 67.6002C100.485 68.0145 102.067 68.8395 103.557 69.4086C103.75 69.4842 104.1 69.6216 104.256 69.6834C104.529 69.7917 104.882 69.9756 105.068 70.0722C105.254 70.1711 105.372 70.2874 105.466 70.3804C105.801 70.8544 106.514 71.7651 106.665 71.9476C107.056 72.4208 107.733 73.0793 108.283 73.5162C108.678 73.8222 109.63 74.5105 109.905 74.6675C110.151 74.8071 110.645 75.0281 110.857 75.1226C111.244 75.2941 111.373 75.3384 111.413 75.3166L111.606 74.8274C111.606 74.8274 112.136 72.1547 112.433 70.6865C112.84 68.7253 113.805 64.0915 114.363 61.4196C114.901 58.8479 115.829 54.443 116.218 52.6099C116.391 51.8721 117.029 49.4727 117.298 48.6586C117.427 48.2901 117.569 47.9179 117.655 47.7326C117.655 47.7326 117.736 47.492 117.798 47.4658C117.841 47.4498 118.233 47.7224 118.652 47.9404C119.022 48.1294 119.818 48.4144 120.402 48.5619C121.59 48.8512 122.798 48.9144 123.513 48.9246C123.763 48.9283 124.404 48.841 124.444 48.8389C124.775 48.8258 126.095 49.1042 126.486 49.2575C126.975 49.4509 127.925 50.0324 128.413 50.4074C130.219 51.7892 133.799 54.515 135.572 55.8597C135.916 56.1148 136.642 56.66 136.63 56.6745C136.651 56.6913 136.606 56.9478 136.796 57.3135C136.913 57.5337 137.23 57.8201 137.394 57.9211C137.587 58.0374 138.055 58.2293 138.315 58.2976C138.833 58.4314 139.56 58.4372 140.263 58.3849C140.799 58.3369 141.502 58.1624 141.62 58.0854C141.835 57.9437 142.4 57.3563 142.616 57.0176C142.82 56.6905 143.205 55.9164 143.394 55.3582C143.565 54.8297 143.699 53.8514 143.699 53.4639C143.699 53.3164 143.676 52.6528 143.595 52.4332C143.587 52.4129 143.567 52.3685 143.533 52.3017C143.506 52.2493 143.442 52.1236 143.411 52.088C143.378 52.0502 143.349 51.9695 143.311 51.8198C143.311 51.8198 143.546 51.0304 143.49 50.3922C143.458 50.0564 143.147 49.2023 142.928 48.7393C142.804 48.482 142.621 48.2232 142.378 47.9281C142.122 47.6264 141.824 47.3153 141.71 47.2245C141.688 47.2056 141.561 47.122 141.543 47.1031C141.314 46.8574 140.931 46.1153 140.742 45.7526C140.196 44.695 139.045 42.5013 138.439 41.3659C137.839 40.2945 136.553 38.1531 135.963 37.2372C134.404 34.8044 133.279 32.9182 133.221 32.7277C133.194 32.6347 132.917 31.2362 132.798 30.6809C132.647 30.0034 132.293 28.9807 132.059 28.6267C131.933 28.4385 131.687 28.1826 131.5 28.0423C130.581 27.37 128.79 26.0638 127.916 25.4299C127.221 24.9306 126.364 24.368 125.84 24.0707C125.383 23.8126 124.219 23.2493 123.565 23.0058C122.924 22.7681 121.782 22.4563 120.982 22.2964C120.057 22.1103 119.059 21.9104 118.987 21.8952C118.202 21.4714 116.077 20.3164 115.136 19.6615C114.766 19.4034 113.636 18.5203 113.172 18.1263C112.711 17.7164 111.824 16.8652 111.392 16.4407C111.014 16.0511 110.298 15.2973 109.853 14.8002C109.25 14.1053 108.327 12.7337 108.242 12.6072C108.112 13.0135 108.012 13.8538 107.969 14.6628C107.944 15.3657 107.958 15.9384 108.028 16.5534C108.111 17.2155 108.376 18.2499 108.535 18.6606C108.716 19.125 109.131 19.8614 109.573 20.4894C109.934 20.9975 110.576 21.5622 111.207 22.0245C111.249 22.0558 111.29 22.0863 111.333 22.1176C110.889 22.1728 109.941 22.3022 109.385 22.3945C108.842 22.4955 107.702 22.7107 107.329 22.8096C106.774 22.9673 105.537 23.3293 105.416 23.3678Z" fill="#E6EAF7"/>
<path d="M115.667 47.0121C115.421 46.954 114.933 46.7556 114.71 46.6204C114.311 46.374 113.475 45.5904 113.115 45.1739C112.716 44.7094 112.145 43.8314 111.898 43.3596C111.652 42.8864 111.251 41.9364 111.081 41.3825C110.927 40.8744 110.694 39.787 110.628 39.2571C110.555 38.6153 110.493 37.5316 110.51 36.9973C110.532 36.3656 110.667 35.7485 110.865 34.949C110.853 35.7711 110.862 36.5314 110.934 37.1768C110.969 37.4887 111.164 38.7396 111.313 39.2615C111.534 40.0509 111.776 40.8316 111.882 41.1383C112.093 41.7154 112.404 42.4372 112.599 42.8028C112.833 43.2411 113.341 44.0065 113.636 44.3678C113.949 44.7501 114.804 45.61 115.14 45.8899C115.222 45.9575 115.787 46.4074 115.982 46.5419C116.384 46.8144 117.124 47.1335 117.205 47.1691C116.36 47.1154 115.906 47.0667 115.667 47.0121Z" fill="#B0B7CB"/>
<path d="M129.224 35.96C129.049 35.5646 128.617 34.5971 128.359 34.0251C128.007 33.2967 127.66 32.6411 127.309 32.0531C126.954 31.4781 126.584 31.0013 126.466 30.8501C126.376 31.3386 126.158 32.5466 126.143 33.1223C126.136 33.4189 126.182 34.0127 126.229 34.2402C126.286 34.5084 126.529 34.9424 126.733 35.1408C126.909 35.308 127.397 35.6053 127.694 35.7245C127.834 35.7805 128.507 36.0058 128.734 36.0763C128.874 36.1228 128.993 36.1134 129.115 36.0443C129.142 36.0291 129.178 36.0007 129.224 35.96Z" fill="#840032"/>
<path d="M140.727 51.8088C140.724 51.8015 140.584 51.5675 140.551 51.4134C140.488 51.1168 140.52 49.9226 140.603 49.6667C140.667 49.4835 140.755 49.2916 140.825 49.2015C140.889 49.1223 141.034 49.0285 141.109 49.0147C141.184 49.0045 141.339 49.0467 141.419 49.099C141.579 49.2059 141.809 49.5642 141.876 49.7438C142.003 50.0985 141.971 50.7098 141.915 50.8559C141.821 50.9431 141.736 51.2208 141.697 51.5966C141.668 51.8851 141.617 52.029 141.474 52.1359C141.392 52.194 141.296 52.2035 141.175 52.1715C141.123 52.157 140.937 52.0988 140.889 52.0712C140.833 52.0385 140.755 51.867 140.727 51.8088Z" fill="#031828"/>
<path d="M111.25 22.1327C110.829 22.297 110.268 22.5385 109.664 22.8484C108.878 23.2506 108.227 23.6703 107.724 24.0054C106.745 24.6734 104.969 26.0392 104.056 26.7893C103.254 27.4893 101.446 29.1713 100.85 29.7811C100.111 30.5654 98.6437 32.2001 97.9406 33.02C97.2185 33.8916 96.0007 35.3795 95.0689 36.597C94.3702 37.5405 93.2214 39.1098 92.4985 40.179C91.9553 41.0076 90.772 43.0865 90.2852 43.9944C89.7331 45.0556 88.6334 47.2093 88.0858 48.3025C87.5616 49.4045 86.5477 51.6047 86.0587 52.7037C85.6547 53.6538 84.8123 55.6919 84.3746 56.7786C84.0301 57.6944 83.209 60.0466 83.1635 60.1084C83.0682 60.2312 82.7229 60.2589 82.5755 60.2312C82.3101 60.1789 81.3974 59.7842 80.8585 59.4687C80.6071 59.3212 79.5924 58.6387 79.1862 58.3421C78.5777 57.8849 76.9648 56.4653 75.8453 55.4121C74.9912 54.5972 73.3798 53.0076 72.6452 52.2829C72.3475 51.9827 72.1115 51.6832 72.0059 51.4971C71.8255 51.1679 71.6144 50.2753 71.5843 49.8311C71.5587 49.4306 71.6356 48.4079 71.7354 47.8272C71.8219 47.3292 72.0843 46.3203 72.2881 45.7556C72.5763 44.9858 72.7683 44.549 73.0851 43.934C73.2815 43.5553 74.8065 41.1428 75.0931 40.714C75.3886 40.275 76.1239 39.3845 76.5557 38.9346C77.2119 38.2652 78.6892 36.7772 79.511 35.9588C80.4795 35.0138 82.4164 33.1552 83.3644 32.2888C84.2918 31.4689 86.3512 29.7484 87.3138 29.0142C87.9142 28.5716 89.0851 27.7568 89.6554 27.3846C90.4443 26.8925 94.2002 24.7533 94.8827 24.4081C95.3651 24.1762 97.772 23.2487 98.9245 22.8053C100.271 22.2972 102.748 21.3872 103.721 21.063C104.106 20.9416 104.611 20.8042 104.99 20.7359C105.37 20.6683 105.783 20.6603 106.098 20.6937C106.455 20.7337 107.363 20.7657 107.644 20.8122C108.086 20.8864 108.563 21.0535 109.454 21.3894C110.101 21.6249 110.724 21.8841 111.25 22.1327Z" fill="#B0B7CB"/>
</g>
<path d="M107.354 78.6464C107.158 78.4512 106.842 78.4512 106.646 78.6464L103.464 81.8284C103.269 82.0237 103.269 82.3403 103.464 82.5355C103.66 82.7308 103.976 82.7308 104.172 82.5355L107 79.7071L109.828 82.5355C110.024 82.7308 110.34 82.7308 110.536 82.5355C110.731 82.3403 110.731 82.0237 110.536 81.8284L107.354 78.6464ZM106.646 93.3536C106.842 93.5488 107.158 93.5488 107.354 93.3536L110.536 90.1716C110.731 89.9763 110.731 89.6597 110.536 89.4645C110.34 89.2692 110.024 89.2692 109.828 89.4645L107 92.2929L104.172 89.4645C103.976 89.2692 103.66 89.2692 103.464 89.4645C103.269 89.6597 103.269 89.9763 103.464 90.1716L106.646 93.3536ZM106.5 79L106.5 93L107.5 93L107.5 79L106.5 79Z" fill="#212121"/>
</svg>
