<svg width="486" height="219" viewBox="0 0 486 219" fill="none" xmlns="http://www.w3.org/2000/svg">
<g clip-path="url(#clip0_4475_236)">
<rect width="486" height="219" fill="white"/>
<path d="M234.5 201.5L283.5 181L348.5 184H411.5L405.5 196.5L407.5 199L404.5 206.5L399.5 209H311.5L234.5 201.5Z" fill="#FAF9D7"/>
<path d="M290 180H336.5L299 203.5L243 199.5L290 180Z" fill="#B0B7CB"/>
<path d="M306 180.5L374 180.5L351 196.5L273.5 195L306 180.5Z" fill="#F0F2F9"/>
<path d="M301.5 179H348L310.5 202.5L254.5 198.5L301.5 179Z" fill="#F0F2F9"/>
<path d="M385.5 184H439L480.5 190.5L388 197L385.5 184Z" fill="#B0B7CB"/>
<path d="M376.5 183.5H425.5L467 200L365 203L376.5 183.5Z" fill="#F0F2F9"/>
<ellipse cx="79.1069" cy="169.397" rx="75.6787" ry="17.6429" fill="#4A8EBF"/>
<rect x="3.42816" y="44.0391" width="151.357" height="125.357" fill="#4A8EBF"/>
<mask id="mask0_4475_236" style="mask-type:alpha" maskUnits="userSpaceOnUse" x="3" y="142" width="152" height="46">
<path d="M154.785 169.397C154.785 179.14 120.903 187.039 79.1068 187.039C37.3106 187.039 3.4281 179.14 3.4281 169.397C3.4281 159.653 112.989 142.004 154.785 142.004C154.785 142.004 154.785 159.653 154.785 169.397Z" fill="#D9D9D9"/>
</mask>
<g mask="url(#mask0_4475_236)">
<path d="M156.178 144.325C156.178 154.069 122.296 161.968 80.4997 161.968C80.4997 189.361 80.4997 191.218 80.4997 191.218C100.464 191.218 151.071 187.039 156.178 174.504C156.178 174.504 156.178 134.581 156.178 144.325Z" fill="#031828" stroke="#031828" stroke-width="3"/>
</g>
<path d="M154.786 127.611C154.786 137.355 120.903 145.254 79.1069 145.254C37.3107 145.254 3.42817 137.355 3.42817 127.611C3.42817 127.519 3.42224 125.38 3.42817 125.289C4.05526 115.671 37.7025 109.968 79.1069 109.968C120.237 109.968 153.73 115.296 154.786 124.825C154.803 124.979 154.786 127.455 154.786 127.611Z" fill="#031828"/>
<ellipse cx="79.1068" cy="124.825" rx="75.6787" ry="17.6429" fill="#4A8EBF"/>
<mask id="mask1_4475_236" style="mask-type:alpha" maskUnits="userSpaceOnUse" x="3" y="97" width="152" height="46">
<path d="M154.785 124.825C154.785 134.569 120.903 142.468 79.1068 142.468C37.3106 142.468 3.4281 134.569 3.4281 124.825C3.4281 115.081 112.989 97.4321 154.785 97.4321C154.785 97.4321 154.785 115.081 154.785 124.825Z" fill="#D9D9D9"/>
</mask>
<g mask="url(#mask1_4475_236)">
<path d="M156.178 99.7535C156.178 109.497 122.296 117.396 80.4997 117.396C80.4997 144.789 80.4997 146.646 80.4997 146.646C100.464 146.646 151.071 142.468 156.178 129.932C156.178 129.932 156.178 90.0096 156.178 99.7535Z" fill="#4A8EBF" stroke="#031828" stroke-width="3"/>
</g>
<path d="M154.786 85.825C154.786 95.5689 120.903 103.468 79.1069 103.468C37.3107 103.468 3.42817 95.5689 3.42817 85.825C3.42817 85.7337 3.42224 83.5946 3.42817 83.5036C4.05526 73.8858 37.7025 68.1821 79.1069 68.1821C120.237 68.1821 153.73 73.51 154.786 83.0393C154.803 83.1936 154.786 85.6698 154.786 85.825Z" fill="#031828"/>
<ellipse cx="79.1068" cy="83.0391" rx="75.6787" ry="17.6429" fill="#4A8EBF"/>
<mask id="mask2_4475_236" style="mask-type:alpha" maskUnits="userSpaceOnUse" x="3" y="55" width="152" height="46">
<path d="M154.785 83.0391C154.785 92.783 120.903 100.682 79.1068 100.682C37.3106 100.682 3.4281 92.783 3.4281 83.0391C3.4281 73.2952 112.989 55.6462 154.785 55.6462C154.785 55.6462 154.785 73.2952 154.785 83.0391Z" fill="#D9D9D9"/>
</mask>
<g mask="url(#mask2_4475_236)">
<path d="M156.178 57.9676C156.178 67.7115 122.296 75.6105 80.4997 75.6105C80.4997 103.003 80.4997 104.861 80.4997 104.861C100.464 104.861 151.071 100.682 156.178 88.1462C156.178 88.1462 156.178 48.2237 156.178 57.9676Z" fill="#4A8EBF" stroke="#031828" stroke-width="3"/>
</g>
<ellipse cx="79.1071" cy="44.0391" rx="75.6787" ry="17.6429" fill="#134E78"/>
<path d="M154.786 144.325L240.214 152.682V186.25L154.786 170.789V144.325Z" fill="#031828"/>
<path d="M154.786 144.325L243 152.682V155.004L153.857 146.646L154.786 144.325Z" fill="#4A8EBF"/>
<path d="M169.643 145.254L173.821 140.611L195.643 137.825L201.214 140.611L232.786 135.968L217 185.182L155.714 197.254L169.643 145.254Z" fill="#EDE6C0"/>
<path d="M176.143 146.182L180.321 141.539L202.143 138.754L207.714 141.539L239.286 136.896L230.929 186.111L169.643 198.182L176.143 146.182Z" fill="#FAF9D7"/>
<path d="M79.1068 160.575H81.8925L164.536 170.464V202.5L79.1068 187.039V160.575Z" fill="#4A8EBF"/>
<path d="M241.607 154.214C241.607 163.958 207.725 171.857 165.928 171.857C165.928 199.25 165.928 201.107 165.928 201.107C185.893 201.107 236.5 196.929 241.607 184.393C241.607 184.393 241.607 144.47 241.607 154.214Z" fill="#4A8EBF" stroke="#4A8EBF" stroke-width="3"/>
<path d="M33.1424 84.432C33.1424 87.7654 30.648 90.4677 27.571 90.4677C24.494 90.4677 21.9996 87.7654 21.9996 84.432C21.9996 81.0985 24.494 78.3962 27.571 78.3962C30.648 78.3962 33.1424 81.0985 33.1424 84.432Z" fill="#C52135"/>
<path d="M33.1424 127.146C33.1424 130.48 30.648 133.182 27.571 133.182C24.494 133.182 21.9996 130.48 21.9996 127.146C21.9996 123.813 24.494 121.111 27.571 121.111C30.648 121.111 33.1424 123.813 33.1424 127.146Z" fill="#C52135"/>
<path d="M33.1424 171.718C33.1424 175.051 30.648 177.754 27.571 177.754C24.494 177.754 21.9996 175.051 21.9996 171.718C21.9996 168.384 24.494 165.682 27.571 165.682C30.648 165.682 33.1424 168.384 33.1424 171.718Z" fill="#C52135"/>
<path d="M218.042 36.5955C218.506 36.4988 218.95 36.4311 219.376 36.3925C219.801 36.3441 220.212 36.32 220.608 36.32C221.71 36.32 222.682 36.4843 223.523 36.813C224.364 37.1416 225.069 37.596 225.64 38.176C226.21 38.756 226.64 39.4375 226.93 40.2205C227.22 40.9938 227.365 41.83 227.365 42.729C227.365 43.8406 227.167 44.8556 226.771 45.774C226.384 46.6923 225.843 47.4801 225.147 48.1375C224.451 48.7851 223.624 49.2878 222.667 49.6455C221.72 50.0031 220.686 50.182 219.564 50.182C218.907 50.182 218.283 50.1143 217.694 49.979C217.104 49.8436 216.548 49.6648 216.026 49.4425C215.514 49.2105 215.035 48.9495 214.591 48.6595C214.156 48.3598 213.764 48.0456 213.416 47.717L214.518 46.1945C214.75 45.8658 215.055 45.7015 215.432 45.7015C215.673 45.7015 215.92 45.7788 216.171 45.9335C216.423 46.0881 216.708 46.2573 217.027 46.441C217.355 46.6246 217.737 46.7938 218.172 46.9485C218.617 47.1031 219.149 47.1805 219.767 47.1805C220.425 47.1805 221.005 47.0741 221.507 46.8615C222.01 46.6488 222.426 46.354 222.754 45.977C223.093 45.5903 223.344 45.136 223.508 44.614C223.682 44.0823 223.769 43.5071 223.769 42.8885C223.769 41.7478 223.436 40.8585 222.769 40.2205C222.111 39.5728 221.135 39.249 219.84 39.249C218.844 39.249 217.824 39.4326 216.78 39.8L214.547 39.162L216.287 28.9829H226.64V30.5055C226.64 31.0178 226.481 31.4334 226.162 31.7524C225.843 32.0715 225.301 32.231 224.538 32.231H218.781L218.042 36.5955ZM245.072 39.4665C245.072 41.2935 244.874 42.8836 244.478 44.237C244.091 45.5806 243.55 46.6923 242.854 47.572C242.167 48.4516 241.35 49.109 240.403 49.544C239.465 49.9693 238.45 50.182 237.358 50.182C236.266 50.182 235.251 49.9693 234.313 49.544C233.385 49.109 232.578 48.4516 231.892 47.572C231.205 46.6923 230.669 45.5806 230.282 44.237C229.895 42.8836 229.702 41.2935 229.702 39.4665C229.702 37.6298 229.895 36.0396 230.282 34.696C230.669 33.3523 231.205 32.2406 231.892 31.361C232.578 30.4813 233.385 29.8288 234.313 29.4035C235.251 28.9685 236.266 28.751 237.358 28.751C238.45 28.751 239.465 28.9685 240.403 29.4035C241.35 29.8288 242.167 30.4813 242.854 31.361C243.55 32.2406 244.091 33.3523 244.478 34.696C244.874 36.0396 245.072 37.6298 245.072 39.4665ZM241.375 39.4665C241.375 37.9488 241.263 36.6921 241.041 35.6965C240.819 34.7008 240.519 33.9081 240.142 33.3185C239.775 32.7288 239.349 32.318 238.866 32.0859C238.383 31.8443 237.88 31.7234 237.358 31.7234C236.846 31.7234 236.348 31.8443 235.865 32.0859C235.391 32.318 234.97 32.7288 234.603 33.3185C234.236 33.9081 233.941 34.7008 233.719 35.6965C233.506 36.6921 233.4 37.9488 233.4 39.4665C233.4 40.9841 233.506 42.2408 233.719 43.2365C233.941 44.2321 234.236 45.0248 234.603 45.6145C234.97 46.2041 235.391 46.6198 235.865 46.8615C236.348 47.0935 236.846 47.2095 237.358 47.2095C237.88 47.2095 238.383 47.0935 238.866 46.8615C239.349 46.6198 239.775 46.2041 240.142 45.6145C240.519 45.0248 240.819 44.2321 241.041 43.2365C241.263 42.2408 241.375 40.9841 241.375 39.4665ZM247.51 53.5025C247.336 53.3575 247.249 53.1786 247.249 52.966C247.249 52.8886 247.273 52.8016 247.322 52.705C247.38 52.6083 247.447 52.5213 247.525 52.444C247.631 52.328 247.762 52.183 247.916 52.009C248.071 51.8446 248.226 51.6513 248.38 51.429C248.535 51.2163 248.675 50.9795 248.801 50.7185C248.936 50.4671 249.038 50.1965 249.105 49.9065C248.796 49.9065 248.516 49.8533 248.264 49.747C248.013 49.631 247.795 49.4763 247.612 49.283C247.438 49.0896 247.298 48.8625 247.191 48.6015C247.095 48.3405 247.046 48.0553 247.046 47.746C247.046 47.4753 247.095 47.224 247.191 46.992C247.298 46.7503 247.443 46.5425 247.626 46.3685C247.81 46.1848 248.032 46.0446 248.293 45.948C248.554 45.8416 248.839 45.7885 249.149 45.7885C249.516 45.7885 249.835 45.8561 250.106 45.9915C250.386 46.1171 250.613 46.296 250.787 46.528C250.971 46.7503 251.106 47.0113 251.193 47.311C251.29 47.601 251.338 47.9103 251.338 48.239C251.338 48.703 251.266 49.1911 251.121 49.7035C250.985 50.2158 250.782 50.7281 250.512 51.2405C250.241 51.7528 249.903 52.2506 249.497 52.734C249.1 53.2173 248.646 53.662 248.134 54.068L247.51 53.5025ZM268.691 39.4665C268.691 41.2935 268.493 42.8836 268.097 44.237C267.71 45.5806 267.169 46.6923 266.473 47.572C265.786 48.4516 264.97 49.109 264.022 49.544C263.085 49.9693 262.07 50.182 260.977 50.182C259.885 50.182 258.87 49.9693 257.932 49.544C257.004 49.109 256.197 48.4516 255.511 47.572C254.824 46.6923 254.288 45.5806 253.901 44.237C253.515 42.8836 253.321 41.2935 253.321 39.4665C253.321 37.6298 253.515 36.0396 253.901 34.696C254.288 33.3523 254.824 32.2406 255.511 31.361C256.197 30.4813 257.004 29.8288 257.932 29.4035C258.87 28.9685 259.885 28.751 260.977 28.751C262.07 28.751 263.085 28.9685 264.022 29.4035C264.97 29.8288 265.786 30.4813 266.473 31.361C267.169 32.2406 267.71 33.3523 268.097 34.696C268.493 36.0396 268.691 37.6298 268.691 39.4665ZM264.994 39.4665C264.994 37.9488 264.883 36.6921 264.66 35.6965C264.438 34.7008 264.138 33.9081 263.761 33.3185C263.394 32.7288 262.969 32.318 262.485 32.0859C262.002 31.8443 261.499 31.7234 260.977 31.7234C260.465 31.7234 259.967 31.8443 259.484 32.0859C259.01 32.318 258.59 32.7288 258.222 33.3185C257.855 33.9081 257.56 34.7008 257.338 35.6965C257.125 36.6921 257.019 37.9488 257.019 39.4665C257.019 40.9841 257.125 42.2408 257.338 43.2365C257.56 44.2321 257.855 45.0248 258.222 45.6145C258.59 46.2041 259.01 46.6198 259.484 46.8615C259.967 47.0935 260.465 47.2095 260.977 47.2095C261.499 47.2095 262.002 47.0935 262.485 46.8615C262.969 46.6198 263.394 46.2041 263.761 45.6145C264.138 45.0248 264.438 44.2321 264.66 43.2365C264.883 42.2408 264.994 40.9841 264.994 39.4665ZM285.513 39.4665C285.513 41.2935 285.315 42.8836 284.919 44.237C284.532 45.5806 283.991 46.6923 283.295 47.572C282.609 48.4516 281.792 49.109 280.844 49.544C279.907 49.9693 278.892 50.182 277.799 50.182C276.707 50.182 275.692 49.9693 274.754 49.544C273.826 49.109 273.019 48.4516 272.333 47.572C271.647 46.6923 271.11 45.5806 270.723 44.237C270.337 42.8836 270.143 41.2935 270.143 39.4665C270.143 37.6298 270.337 36.0396 270.723 34.696C271.11 33.3523 271.647 32.2406 272.333 31.361C273.019 30.4813 273.826 29.8288 274.754 29.4035C275.692 28.9685 276.707 28.751 277.799 28.751C278.892 28.751 279.907 28.9685 280.844 29.4035C281.792 29.8288 282.609 30.4813 283.295 31.361C283.991 32.2406 284.532 33.3523 284.919 34.696C285.315 36.0396 285.513 37.6298 285.513 39.4665ZM281.816 39.4665C281.816 37.9488 281.705 36.6921 281.482 35.6965C281.26 34.7008 280.96 33.9081 280.583 33.3185C280.216 32.7288 279.791 32.318 279.307 32.0859C278.824 31.8443 278.321 31.7234 277.799 31.7234C277.287 31.7234 276.789 31.8443 276.306 32.0859C275.832 32.318 275.412 32.7288 275.044 33.3185C274.677 33.9081 274.382 34.7008 274.16 35.6965C273.947 36.6921 273.841 37.9488 273.841 39.4665C273.841 40.9841 273.947 42.2408 274.16 43.2365C274.382 44.2321 274.677 45.0248 275.044 45.6145C275.412 46.2041 275.832 46.6198 276.306 46.8615C276.789 47.0935 277.287 47.2095 277.799 47.2095C278.321 47.2095 278.824 47.0935 279.307 46.8615C279.791 46.6198 280.216 46.2041 280.583 45.6145C280.96 45.0248 281.26 44.2321 281.482 43.2365C281.705 42.2408 281.816 40.9841 281.816 39.4665ZM302.336 39.4665C302.336 41.2935 302.138 42.8836 301.741 44.237C301.355 45.5806 300.813 46.6923 300.117 47.572C299.431 48.4516 298.614 49.109 297.667 49.544C296.729 49.9693 295.714 50.182 294.622 50.182C293.529 50.182 292.514 49.9693 291.577 49.544C290.649 49.109 289.842 48.4516 289.155 47.572C288.469 46.6923 287.932 45.5806 287.546 44.237C287.159 42.8836 286.966 41.2935 286.966 39.4665C286.966 37.6298 287.159 36.0396 287.546 34.696C287.932 33.3523 288.469 32.2406 289.155 31.361C289.842 30.4813 290.649 29.8288 291.577 29.4035C292.514 28.9685 293.529 28.751 294.622 28.751C295.714 28.751 296.729 28.9685 297.667 29.4035C298.614 29.8288 299.431 30.4813 300.117 31.361C300.813 32.2406 301.355 33.3523 301.741 34.696C302.138 36.0396 302.336 37.6298 302.336 39.4665ZM298.638 39.4665C298.638 37.9488 298.527 36.6921 298.305 35.6965C298.082 34.7008 297.783 33.9081 297.406 33.3185C297.038 32.7288 296.613 32.318 296.13 32.0859C295.646 31.8443 295.144 31.7234 294.622 31.7234C294.109 31.7234 293.612 31.8443 293.128 32.0859C292.655 32.318 292.234 32.7288 291.867 33.3185C291.499 33.9081 291.205 34.7008 290.982 35.6965C290.77 36.6921 290.663 37.9488 290.663 39.4665C290.663 40.9841 290.77 42.2408 290.982 43.2365C291.205 44.2321 291.499 45.0248 291.867 45.6145C292.234 46.2041 292.655 46.6198 293.128 46.8615C293.612 47.0935 294.109 47.2095 294.622 47.2095C295.144 47.2095 295.646 47.0935 296.13 46.8615C296.613 46.6198 297.038 46.2041 297.406 45.6145C297.783 45.0248 298.082 44.2321 298.305 43.2365C298.527 42.2408 298.638 40.9841 298.638 39.4665ZM315.465 46.093C315.871 46.586 316.311 46.934 316.785 47.137C317.268 47.34 317.79 47.4415 318.351 47.4415C318.892 47.4415 319.38 47.34 319.815 47.137C320.25 46.934 320.618 46.6246 320.917 46.209C321.227 45.7933 321.463 45.2713 321.628 44.643C321.792 44.005 321.874 43.2558 321.874 42.3955C321.874 41.5255 321.802 40.7908 321.657 40.1915C321.521 39.5825 321.323 39.0895 321.062 38.7125C320.801 38.3355 320.482 38.06 320.105 37.886C319.738 37.712 319.317 37.625 318.844 37.625C318.099 37.625 317.466 37.7845 316.944 38.1035C316.422 38.4128 315.929 38.8526 315.465 39.423V46.093ZM315.277 37.103C315.886 36.4166 316.577 35.8608 317.35 35.4355C318.124 35.0101 319.032 34.7975 320.076 34.7975C320.888 34.7975 321.628 34.9666 322.295 35.305C322.971 35.6433 323.551 36.1363 324.035 36.784C324.528 37.422 324.905 38.2146 325.166 39.162C325.436 40.0996 325.572 41.1775 325.572 42.3955C325.572 43.5071 325.422 44.5366 325.122 45.484C324.823 46.4313 324.392 47.253 323.832 47.949C323.281 48.645 322.609 49.1911 321.816 49.5875C321.033 49.9741 320.154 50.1675 319.177 50.1675C318.346 50.1675 317.635 50.0418 317.046 49.7905C316.456 49.5295 315.929 49.1718 315.465 48.7175V54.8075H311.884V35.073H314.073C314.537 35.073 314.842 35.2905 314.987 35.7255L315.277 37.103ZM331.948 36.668C332.528 36.1266 333.166 35.6868 333.862 35.3484C334.558 35.0101 335.375 34.841 336.312 34.841C337.124 34.841 337.844 34.9811 338.473 35.2615C339.101 35.5321 339.623 35.9188 340.039 36.4215C340.464 36.9145 340.783 37.509 340.996 38.205C341.218 38.8913 341.329 39.6501 341.329 40.4815V49.95H337.748V40.4815C337.748 39.5728 337.54 38.872 337.124 38.379C336.709 37.8763 336.075 37.625 335.225 37.625C334.606 37.625 334.026 37.7651 333.485 38.0455C332.943 38.3258 332.431 38.7076 331.948 39.191V49.95H328.366V28.403H331.948V36.668ZM351.318 34.841C352.42 34.841 353.421 35.0198 354.32 35.3775C355.228 35.7351 356.002 36.2426 356.64 36.9C357.287 37.5573 357.785 38.3596 358.133 39.307C358.481 40.2543 358.655 41.3128 358.655 42.4825C358.655 43.6618 358.481 44.7251 358.133 45.6725C357.785 46.6198 357.287 47.427 356.64 48.094C356.002 48.761 355.228 49.2733 354.32 49.631C353.421 49.9886 352.42 50.1675 351.318 50.1675C350.207 50.1675 349.196 49.9886 348.288 49.631C347.379 49.2733 346.601 48.761 345.953 48.094C345.315 47.427 344.817 46.6198 344.46 45.6725C344.112 44.7251 343.938 43.6618 343.938 42.4825C343.938 41.3128 344.112 40.2543 344.46 39.307C344.817 38.3596 345.315 37.5573 345.953 36.9C346.601 36.2426 347.379 35.7351 348.288 35.3775C349.196 35.0198 350.207 34.841 351.318 34.841ZM351.318 47.4125C352.556 47.4125 353.469 46.9968 354.059 46.1655C354.658 45.3341 354.958 44.1161 354.958 42.5115C354.958 40.9068 354.658 39.684 354.059 38.843C353.469 38.002 352.556 37.5815 351.318 37.5815C350.062 37.5815 349.129 38.0068 348.52 38.8575C347.92 39.6985 347.621 40.9165 347.621 42.5115C347.621 44.1065 347.92 45.3245 348.52 46.1655C349.129 46.9968 350.062 47.4125 351.318 47.4125ZM364.737 36.9C365.037 36.6003 365.351 36.3248 365.68 36.0735C366.018 35.8125 366.371 35.595 366.738 35.4209C367.115 35.2373 367.516 35.0971 367.942 35.0005C368.367 34.8941 368.831 34.841 369.334 34.841C370.146 34.841 370.866 34.9811 371.494 35.2615C372.122 35.5321 372.644 35.9188 373.06 36.4215C373.485 36.9145 373.804 37.509 374.017 38.205C374.239 38.8913 374.351 39.6501 374.351 40.4815V49.95H370.769V40.4815C370.769 39.5728 370.561 38.872 370.146 38.379C369.73 37.8763 369.097 37.625 368.246 37.625C367.627 37.625 367.047 37.7651 366.506 38.0455C365.965 38.3258 365.452 38.7076 364.969 39.191V49.95H361.388V35.073H363.577C364.041 35.073 364.346 35.2905 364.491 35.7255L364.737 36.9ZM387.341 40.8005C387.341 40.3365 387.274 39.9015 387.138 39.4955C387.013 39.0798 386.819 38.7173 386.558 38.408C386.297 38.0986 385.964 37.857 385.558 37.683C385.161 37.4993 384.697 37.4075 384.166 37.4075C383.131 37.4075 382.315 37.7023 381.715 38.292C381.126 38.8816 380.749 39.7178 380.584 40.8005H387.341ZM380.512 42.961C380.57 43.7246 380.705 44.3868 380.918 44.9475C381.13 45.4985 381.411 45.9576 381.759 46.325C382.107 46.6826 382.518 46.9533 382.991 47.137C383.475 47.311 384.006 47.398 384.586 47.398C385.166 47.398 385.664 47.3303 386.08 47.195C386.505 47.0596 386.872 46.9098 387.182 46.7455C387.501 46.5811 387.776 46.4313 388.008 46.296C388.25 46.1606 388.482 46.093 388.704 46.093C389.004 46.093 389.226 46.2041 389.371 46.4265L390.401 47.7315C390.004 48.1955 389.56 48.587 389.067 48.906C388.574 49.2153 388.057 49.4666 387.515 49.66C386.984 49.8436 386.437 49.9741 385.877 50.0515C385.326 50.1288 384.789 50.1675 384.267 50.1675C383.233 50.1675 382.271 49.9983 381.382 49.66C380.492 49.312 379.719 48.8045 379.062 48.1375C378.404 47.4608 377.887 46.6295 377.51 45.6435C377.133 44.6478 376.945 43.4975 376.945 42.1925C376.945 41.1775 377.109 40.2253 377.438 39.336C377.766 38.437 378.235 37.6588 378.844 37.0015C379.463 36.3345 380.212 35.8076 381.092 35.4209C381.981 35.0343 382.982 34.841 384.093 34.841C385.031 34.841 385.896 34.9908 386.689 35.2905C387.481 35.5901 388.163 36.03 388.733 36.61C389.304 37.1803 389.748 37.886 390.067 38.727C390.396 39.5583 390.56 40.5105 390.56 41.5835C390.56 42.1248 390.502 42.4921 390.386 42.6855C390.27 42.8691 390.048 42.961 389.719 42.961H380.512ZM217.273 71.9C217.573 71.6003 217.887 71.3248 218.216 71.0735C218.554 70.8125 218.907 70.595 219.274 70.4209C219.651 70.2373 220.052 70.0971 220.478 70.0005C220.903 69.8941 221.367 69.841 221.87 69.841C222.682 69.841 223.402 69.9811 224.03 70.2615C224.659 70.5321 225.181 70.9188 225.596 71.4215C226.022 71.9145 226.341 72.509 226.553 73.205C226.776 73.8913 226.887 74.6501 226.887 75.4815V84.95H223.305V75.4815C223.305 74.5728 223.097 73.872 222.682 73.379C222.266 72.8763 221.633 72.625 220.782 72.625C220.164 72.625 219.584 72.7651 219.042 73.0455C218.501 73.3258 217.989 73.7076 217.505 74.191V84.95H213.924V70.073H216.113C216.577 70.073 216.882 70.2905 217.027 70.7255L217.273 71.9ZM243.111 70.073V84.95H240.921C240.448 84.95 240.148 84.7325 240.022 84.2975L239.776 83.1085C239.167 83.7271 238.495 84.2298 237.76 84.6165C237.026 84.9935 236.161 85.182 235.165 85.182C234.353 85.182 233.633 85.0466 233.004 84.776C232.386 84.4956 231.864 84.1041 231.438 83.6015C231.013 83.0988 230.689 82.5043 230.467 81.818C230.254 81.122 230.148 80.3583 230.148 79.527V70.073H233.729V79.527C233.729 80.4356 233.937 81.1413 234.353 81.644C234.778 82.137 235.411 82.3835 236.252 82.3835C236.871 82.3835 237.451 82.2481 237.992 81.9775C238.534 81.6971 239.046 81.3153 239.529 80.832V70.073H243.111ZM246.662 84.95V70.073H248.852C249.316 70.073 249.62 70.2905 249.765 70.7255L249.997 71.8275C250.258 71.5375 250.529 71.2716 250.809 71.03C251.099 70.7883 251.404 70.5805 251.723 70.4065C252.051 70.2325 252.399 70.0971 252.767 70.0005C253.144 69.8941 253.554 69.841 253.999 69.841C254.937 69.841 255.705 70.0971 256.305 70.6095C256.914 71.1121 257.368 71.784 257.668 72.625C257.9 72.132 258.19 71.7115 258.538 71.3635C258.886 71.0058 259.267 70.7158 259.683 70.4935C260.099 70.2711 260.539 70.1068 261.003 70.0005C261.476 69.8941 261.95 69.841 262.424 69.841C263.245 69.841 263.975 69.9666 264.613 70.218C265.251 70.4693 265.788 70.8366 266.223 71.32C266.658 71.8033 266.986 72.393 267.209 73.089C267.441 73.785 267.557 74.5825 267.557 75.4815V84.95H263.975V75.4815C263.975 74.5341 263.767 73.8236 263.352 73.35C262.936 72.8666 262.327 72.625 261.525 72.625C261.157 72.625 260.814 72.6878 260.495 72.8135C260.186 72.9391 259.91 73.1228 259.669 73.3645C259.437 73.5965 259.253 73.8913 259.118 74.249C258.982 74.6066 258.915 75.0175 258.915 75.4815V84.95H255.319V75.4815C255.319 74.4858 255.116 73.7608 254.71 73.3065C254.313 72.8521 253.728 72.625 252.955 72.625C252.433 72.625 251.945 72.7555 251.491 73.0165C251.046 73.2678 250.63 73.6158 250.244 74.0605V84.95H246.662ZM274.542 81.093C274.948 81.586 275.388 81.934 275.862 82.137C276.345 82.34 276.853 82.4415 277.384 82.4415C277.935 82.4415 278.428 82.3448 278.863 82.1515C279.308 81.9485 279.685 81.6391 279.994 81.2235C280.304 80.7981 280.541 80.2616 280.705 79.614C280.869 78.9566 280.951 78.1736 280.951 77.265C280.951 75.6313 280.681 74.452 280.139 73.727C279.598 72.9923 278.82 72.625 277.805 72.625C277.119 72.625 276.519 72.7845 276.007 73.1035C275.495 73.4128 275.006 73.8526 274.542 74.423V81.093ZM274.542 71.9C275.142 71.2716 275.804 70.7738 276.529 70.4065C277.264 70.0295 278.1 69.841 279.037 69.841C279.898 69.841 280.671 70.0101 281.357 70.3484C282.053 70.6868 282.643 71.175 283.126 71.813C283.619 72.4413 283.996 73.205 284.257 74.104C284.518 75.003 284.649 76.0131 284.649 77.1345C284.649 78.3428 284.499 79.44 284.199 80.426C283.9 81.412 283.47 82.2578 282.909 82.9635C282.358 83.6595 281.691 84.2008 280.908 84.5875C280.125 84.9741 279.255 85.1675 278.298 85.1675C277.834 85.1675 277.413 85.1191 277.036 85.0225C276.659 84.9355 276.311 84.8098 275.992 84.6455C275.673 84.4811 275.379 84.283 275.108 84.051C274.847 83.8093 274.596 83.5435 274.354 83.2535L274.194 84.254C274.136 84.5053 274.035 84.6841 273.89 84.7905C273.755 84.8968 273.566 84.95 273.324 84.95H270.961V63.403H274.542V71.9ZM296.999 75.8005C296.999 75.3365 296.932 74.9015 296.796 74.4955C296.671 74.0798 296.477 73.7173 296.216 73.408C295.955 73.0986 295.622 72.857 295.216 72.683C294.82 72.4993 294.356 72.4075 293.824 72.4075C292.79 72.4075 291.973 72.7023 291.373 73.292C290.784 73.8816 290.407 74.7178 290.242 75.8005H296.999ZM290.17 77.961C290.228 78.7246 290.363 79.3868 290.576 79.9475C290.789 80.4985 291.069 80.9576 291.417 81.325C291.765 81.6826 292.176 81.9533 292.649 82.137C293.133 82.311 293.664 82.398 294.244 82.398C294.824 82.398 295.322 82.3303 295.738 82.195C296.163 82.0596 296.531 81.9098 296.84 81.7455C297.159 81.5811 297.434 81.4313 297.666 81.296C297.908 81.1606 298.14 81.093 298.362 81.093C298.662 81.093 298.884 81.2041 299.029 81.4265L300.059 82.7315C299.663 83.1955 299.218 83.587 298.725 83.906C298.232 84.2153 297.715 84.4666 297.173 84.66C296.642 84.8436 296.096 84.9741 295.535 85.0515C294.984 85.1288 294.447 85.1675 293.925 85.1675C292.891 85.1675 291.929 84.9983 291.04 84.66C290.151 84.312 289.377 83.8045 288.72 83.1375C288.063 82.4608 287.545 81.6295 287.168 80.6435C286.791 79.6478 286.603 78.4975 286.603 77.1925C286.603 76.1775 286.767 75.2253 287.096 74.336C287.425 73.437 287.893 72.6588 288.502 72.0015C289.121 71.3345 289.87 70.8076 290.75 70.4209C291.639 70.0343 292.64 69.841 293.751 69.841C294.689 69.841 295.554 69.9908 296.347 70.2905C297.14 70.5901 297.821 71.03 298.391 71.61C298.962 72.1803 299.406 72.886 299.725 73.727C300.054 74.5583 300.218 75.5105 300.218 76.5835C300.218 77.1248 300.16 77.4921 300.044 77.6855C299.928 77.8691 299.706 77.961 299.377 77.961H290.17ZM306.285 72.654C306.749 71.7646 307.3 71.0686 307.938 70.566C308.576 70.0536 309.33 69.7975 310.2 69.7975C310.886 69.7975 311.437 69.9473 311.853 70.247L311.621 72.9295C311.572 73.1035 311.5 73.2291 311.403 73.3065C311.316 73.3741 311.195 73.408 311.041 73.408C310.896 73.408 310.678 73.3838 310.388 73.3355C310.108 73.2871 309.832 73.263 309.562 73.263C309.165 73.263 308.813 73.321 308.503 73.437C308.194 73.553 307.914 73.7221 307.662 73.9445C307.421 74.1571 307.203 74.4181 307.01 74.7275C306.826 75.0368 306.652 75.3896 306.488 75.786V84.95H302.906V70.073H305.009C305.376 70.073 305.632 70.1406 305.777 70.2759C305.922 70.4016 306.019 70.6336 306.067 70.972L306.285 72.654ZM322.745 72.973C322.648 73.1276 322.547 73.2388 322.44 73.3065C322.334 73.3645 322.199 73.3935 322.034 73.3935C321.86 73.3935 321.672 73.3451 321.469 73.2485C321.276 73.1518 321.048 73.0455 320.787 72.9295C320.526 72.8038 320.227 72.6926 319.888 72.596C319.56 72.4993 319.168 72.451 318.714 72.451C318.008 72.451 317.452 72.6008 317.046 72.9005C316.65 73.2001 316.452 73.5916 316.452 74.075C316.452 74.394 316.553 74.6646 316.756 74.887C316.969 75.0996 317.245 75.2881 317.583 75.4525C317.931 75.6168 318.322 75.7666 318.757 75.902C319.192 76.0276 319.632 76.1678 320.077 76.3225C320.531 76.4771 320.976 76.656 321.411 76.859C321.846 77.0523 322.233 77.3036 322.571 77.613C322.919 77.9126 323.194 78.2751 323.397 78.7005C323.61 79.1258 323.716 79.6381 323.716 80.2375C323.716 80.9528 323.586 81.615 323.325 82.224C323.074 82.8233 322.697 83.3453 322.194 83.79C321.691 84.225 321.068 84.5681 320.323 84.8195C319.589 85.0611 318.738 85.182 317.771 85.182C317.259 85.182 316.756 85.1336 316.263 85.037C315.78 84.95 315.311 84.8243 314.857 84.66C314.412 84.4956 313.997 84.3023 313.61 84.08C313.233 83.8576 312.899 83.616 312.609 83.355L313.436 81.992C313.542 81.8276 313.668 81.702 313.813 81.615C313.958 81.528 314.142 81.4845 314.364 81.4845C314.586 81.4845 314.794 81.5473 314.987 81.673C315.19 81.7986 315.422 81.934 315.683 82.079C315.944 82.224 316.249 82.3593 316.597 82.485C316.955 82.6106 317.404 82.6735 317.945 82.6735C318.371 82.6735 318.733 82.6251 319.033 82.5285C319.342 82.4221 319.594 82.2868 319.787 82.1225C319.99 81.9581 320.135 81.7696 320.222 81.557C320.319 81.3346 320.367 81.1075 320.367 80.8755C320.367 80.5275 320.261 80.2423 320.048 80.02C319.845 79.7976 319.569 79.6043 319.221 79.44C318.883 79.2756 318.492 79.1306 318.047 79.005C317.612 78.8696 317.162 78.7246 316.698 78.57C316.244 78.4153 315.795 78.2365 315.35 78.0335C314.915 77.8208 314.523 77.555 314.175 77.236C313.837 76.917 313.562 76.5255 313.349 76.0615C313.146 75.5975 313.044 75.0368 313.044 74.3795C313.044 73.7705 313.165 73.1905 313.407 72.6395C313.649 72.0885 314.001 71.61 314.465 71.204C314.939 70.7883 315.524 70.4596 316.22 70.218C316.926 69.9666 317.738 69.841 318.656 69.841C319.681 69.841 320.613 70.0101 321.454 70.3484C322.295 70.6868 322.996 71.1315 323.557 71.6825L322.745 72.973ZM337.089 63.403V84.95H333.507V63.403H337.089ZM350.242 75.8005C350.242 75.3365 350.174 74.9015 350.039 74.4955C349.913 74.0798 349.72 73.7173 349.459 73.408C349.198 73.0986 348.864 72.857 348.458 72.683C348.062 72.4993 347.598 72.4075 347.066 72.4075C346.032 72.4075 345.215 72.7023 344.616 73.292C344.026 73.8816 343.649 74.7178 343.485 75.8005H350.242ZM343.412 77.961C343.47 78.7246 343.606 79.3868 343.818 79.9475C344.031 80.4985 344.311 80.9576 344.659 81.325C345.007 81.6826 345.418 81.9533 345.892 82.137C346.375 82.311 346.907 82.398 347.487 82.398C348.067 82.398 348.565 82.3303 348.98 82.195C349.406 82.0596 349.773 81.9098 350.082 81.7455C350.401 81.5811 350.677 81.4313 350.909 81.296C351.15 81.1606 351.382 81.093 351.605 81.093C351.904 81.093 352.127 81.2041 352.272 81.4265L353.301 82.7315C352.905 83.1955 352.46 83.587 351.967 83.906C351.474 84.2153 350.957 84.4666 350.416 84.66C349.884 84.8436 349.338 84.9741 348.777 85.0515C348.226 85.1288 347.69 85.1675 347.168 85.1675C346.133 85.1675 345.172 84.9983 344.282 84.66C343.393 84.312 342.62 83.8045 341.962 83.1375C341.305 82.4608 340.788 81.6295 340.411 80.6435C340.034 79.6478 339.845 78.4975 339.845 77.1925C339.845 76.1775 340.01 75.2253 340.338 74.336C340.667 73.437 341.136 72.6588 341.745 72.0015C342.363 71.3345 343.113 70.8076 343.992 70.4209C344.882 70.0343 345.882 69.841 346.994 69.841C347.931 69.841 348.797 69.9908 349.589 70.2905C350.382 70.5901 351.063 71.03 351.634 71.61C352.204 72.1803 352.649 72.886 352.968 73.727C353.296 74.5583 353.461 75.5105 353.461 76.5835C353.461 77.1248 353.403 77.4921 353.287 77.6855C353.171 77.8691 352.948 77.961 352.62 77.961H343.412ZM364.007 78.599C362.973 78.6473 362.103 78.7391 361.397 78.8745C360.692 79.0001 360.126 79.1645 359.701 79.3675C359.276 79.5705 358.971 79.8073 358.787 80.078C358.604 80.3486 358.512 80.6435 358.512 80.9625C358.512 81.5908 358.696 82.0403 359.063 82.311C359.44 82.5816 359.928 82.717 360.527 82.717C361.262 82.717 361.895 82.5865 362.427 82.3255C362.968 82.0548 363.495 81.6488 364.007 81.1075V78.599ZM355.8 72.1465C357.511 70.5805 359.57 69.7975 361.977 69.7975C362.847 69.7975 363.626 69.9424 364.312 70.2324C364.998 70.5128 365.578 70.9091 366.052 71.4215C366.526 71.9241 366.883 72.5283 367.125 73.234C367.376 73.9396 367.502 74.713 367.502 75.554V84.95H365.878C365.54 84.95 365.279 84.9016 365.095 84.805C364.911 84.6986 364.766 84.4908 364.66 84.1815L364.341 83.1085C363.964 83.4468 363.597 83.7465 363.239 84.0075C362.881 84.2588 362.509 84.4715 362.122 84.6455C361.736 84.8195 361.32 84.95 360.875 85.037C360.44 85.1336 359.957 85.182 359.425 85.182C358.797 85.182 358.217 85.0998 357.685 84.9355C357.154 84.7615 356.695 84.5053 356.308 84.167C355.921 83.8286 355.622 83.4081 355.409 82.9055C355.196 82.4028 355.09 81.818 355.09 81.151C355.09 80.774 355.153 80.4018 355.278 80.0345C355.404 79.6575 355.607 79.2998 355.887 78.9615C356.177 78.6231 356.55 78.3041 357.004 78.0045C357.458 77.7048 358.014 77.4438 358.671 77.2215C359.338 76.9991 360.112 76.8203 360.991 76.685C361.871 76.54 362.876 76.453 364.007 76.424V75.554C364.007 74.5583 363.795 73.8236 363.369 73.35C362.944 72.8666 362.33 72.625 361.528 72.625C360.948 72.625 360.465 72.6926 360.078 72.828C359.701 72.9633 359.367 73.118 359.077 73.292C358.787 73.4563 358.522 73.6061 358.28 73.7415C358.048 73.8768 357.787 73.9445 357.497 73.9445C357.246 73.9445 357.033 73.8816 356.859 73.756C356.685 73.6206 356.545 73.466 356.438 73.292L355.8 72.1465ZM374.456 63.403V75.7425H375.123C375.365 75.7425 375.554 75.7135 375.689 75.6555C375.834 75.5878 375.979 75.4573 376.124 75.264L379.821 70.6965C379.976 70.4935 380.145 70.3388 380.329 70.2324C380.522 70.1261 380.769 70.073 381.068 70.073H384.345L379.72 75.5975C379.391 76.0325 379.034 76.366 378.647 76.598C378.85 76.743 379.029 76.9121 379.183 77.1055C379.348 77.2988 379.502 77.5066 379.647 77.729L384.606 84.95H381.373C381.093 84.95 380.851 84.9065 380.648 84.8195C380.445 84.7228 380.276 84.5536 380.14 84.312L376.341 78.6715C376.206 78.4491 376.066 78.3041 375.921 78.2365C375.776 78.1688 375.558 78.135 375.268 78.135H374.456V84.95H370.875V63.403H374.456ZM395.186 75.8005C395.186 75.3365 395.118 74.9015 394.983 74.4955C394.857 74.0798 394.664 73.7173 394.403 73.408C394.142 73.0986 393.809 72.857 393.403 72.683C393.006 72.4993 392.542 72.4075 392.011 72.4075C390.976 72.4075 390.159 72.7023 389.56 73.292C388.97 73.8816 388.593 74.7178 388.429 75.8005H395.186ZM388.357 77.961C388.415 78.7246 388.55 79.3868 388.763 79.9475C388.975 80.4985 389.256 80.9576 389.604 81.325C389.952 81.6826 390.362 81.9533 390.836 82.137C391.319 82.311 391.851 82.398 392.431 82.398C393.011 82.398 393.509 82.3303 393.925 82.195C394.35 82.0596 394.717 81.9098 395.027 81.7455C395.346 81.5811 395.621 81.4313 395.853 81.296C396.095 81.1606 396.327 81.093 396.549 81.093C396.849 81.093 397.071 81.2041 397.216 81.4265L398.246 82.7315C397.849 83.1955 397.405 83.587 396.912 83.906C396.419 84.2153 395.901 84.4666 395.36 84.66C394.828 84.8436 394.282 84.9741 393.722 85.0515C393.171 85.1288 392.634 85.1675 392.112 85.1675C391.078 85.1675 390.116 84.9983 389.227 84.66C388.337 84.312 387.564 83.8045 386.907 83.1375C386.249 82.4608 385.732 81.6295 385.355 80.6435C384.978 79.6478 384.79 78.4975 384.79 77.1925C384.79 76.1775 384.954 75.2253 385.283 74.336C385.611 73.437 386.08 72.6588 386.689 72.0015C387.308 71.3345 388.057 70.8076 388.937 70.4209C389.826 70.0343 390.826 69.841 391.938 69.841C392.876 69.841 393.741 69.9908 394.534 70.2905C395.326 70.5901 396.008 71.03 396.578 71.61C397.148 72.1803 397.593 72.886 397.912 73.727C398.241 74.5583 398.405 75.5105 398.405 76.5835C398.405 77.1248 398.347 77.4921 398.231 77.6855C398.115 77.8691 397.893 77.961 397.564 77.961H388.357ZM410.431 73.872C410.025 73.379 409.58 73.031 409.097 72.828C408.623 72.625 408.111 72.5235 407.56 72.5235C407.018 72.5235 406.53 72.625 406.095 72.828C405.66 73.031 405.288 73.3403 404.979 73.756C404.669 74.162 404.433 74.684 404.268 75.322C404.104 75.9503 404.022 76.6946 404.022 77.555C404.022 78.425 404.089 79.1645 404.225 79.7735C404.37 80.3728 404.573 80.8658 404.834 81.2525C405.095 81.6295 405.414 81.905 405.791 82.079C406.168 82.2433 406.588 82.3255 407.052 82.3255C407.797 82.3255 408.43 82.1708 408.952 81.8615C409.474 81.5521 409.967 81.1123 410.431 80.542V73.872ZM414.012 63.403V84.95H411.823C411.349 84.95 411.049 84.7325 410.924 84.2975L410.619 82.862C410.02 83.5483 409.329 84.1041 408.546 84.5295C407.772 84.9548 406.869 85.1675 405.834 85.1675C405.022 85.1675 404.278 84.9983 403.601 84.66C402.925 84.3216 402.34 83.8335 401.847 83.1955C401.363 82.5478 400.986 81.7503 400.716 80.803C400.455 79.8556 400.324 78.773 400.324 77.555C400.324 76.453 400.474 75.4283 400.774 74.481C401.073 73.5336 401.504 72.712 402.064 72.016C402.625 71.32 403.297 70.7786 404.08 70.392C404.863 69.9956 405.742 69.7975 406.719 69.7975C407.55 69.7975 408.261 69.928 408.85 70.189C409.44 70.45 409.967 70.8028 410.431 71.2475V63.403H414.012ZM221.783 113.599C220.748 113.647 219.878 113.739 219.173 113.874C218.467 114 217.902 114.164 217.476 114.367C217.051 114.57 216.746 114.807 216.563 115.078C216.379 115.349 216.287 115.643 216.287 115.962C216.287 116.591 216.471 117.04 216.838 117.311C217.215 117.582 217.703 117.717 218.303 117.717C219.037 117.717 219.671 117.586 220.202 117.325C220.744 117.055 221.27 116.649 221.783 116.107V113.599ZM213.576 107.146C215.287 105.58 217.346 104.797 219.753 104.797C220.623 104.797 221.401 104.942 222.087 105.232C222.774 105.513 223.354 105.909 223.827 106.421C224.301 106.924 224.659 107.528 224.9 108.234C225.152 108.94 225.277 109.713 225.277 110.554V119.95H223.653C223.315 119.95 223.054 119.902 222.87 119.805C222.687 119.699 222.542 119.491 222.435 119.181L222.116 118.108C221.739 118.447 221.372 118.746 221.014 119.007C220.657 119.259 220.284 119.471 219.898 119.645C219.511 119.819 219.095 119.95 218.651 120.037C218.216 120.134 217.732 120.182 217.201 120.182C216.572 120.182 215.992 120.1 215.461 119.935C214.929 119.761 214.47 119.505 214.083 119.167C213.697 118.829 213.397 118.408 213.184 117.905C212.972 117.403 212.865 116.818 212.865 116.151C212.865 115.774 212.928 115.402 213.054 115.034C213.179 114.657 213.382 114.3 213.663 113.961C213.953 113.623 214.325 113.304 214.779 113.004C215.234 112.705 215.789 112.444 216.447 112.221C217.114 111.999 217.887 111.82 218.767 111.685C219.646 111.54 220.652 111.453 221.783 111.424V110.554C221.783 109.558 221.57 108.824 221.145 108.35C220.719 107.867 220.106 107.625 219.303 107.625C218.723 107.625 218.24 107.693 217.853 107.828C217.476 107.963 217.143 108.118 216.853 108.292C216.563 108.456 216.297 108.606 216.055 108.741C215.823 108.877 215.562 108.944 215.272 108.944C215.021 108.944 214.808 108.882 214.634 108.756C214.46 108.621 214.32 108.466 214.214 108.292L213.576 107.146ZM239.308 108.219C239.202 108.355 239.095 108.461 238.989 108.538C238.892 108.616 238.747 108.654 238.554 108.654C238.37 108.654 238.191 108.601 238.017 108.495C237.843 108.379 237.636 108.253 237.394 108.118C237.152 107.973 236.862 107.847 236.524 107.741C236.195 107.625 235.784 107.567 235.291 107.567C234.663 107.567 234.112 107.683 233.638 107.915C233.165 108.137 232.768 108.461 232.449 108.886C232.14 109.312 231.908 109.829 231.753 110.438C231.599 111.037 231.521 111.719 231.521 112.482C231.521 113.275 231.604 113.981 231.768 114.599C231.942 115.218 232.188 115.74 232.507 116.165C232.826 116.581 233.213 116.9 233.667 117.122C234.122 117.335 234.634 117.441 235.204 117.441C235.775 117.441 236.234 117.374 236.582 117.238C236.94 117.093 237.239 116.939 237.481 116.774C237.723 116.6 237.93 116.446 238.104 116.31C238.288 116.165 238.491 116.093 238.713 116.093C239.003 116.093 239.221 116.204 239.366 116.426L240.395 117.731C239.999 118.195 239.569 118.587 239.105 118.906C238.641 119.215 238.158 119.467 237.655 119.66C237.162 119.844 236.65 119.974 236.118 120.051C235.596 120.129 235.074 120.167 234.552 120.167C233.634 120.167 232.768 119.998 231.956 119.66C231.144 119.312 230.434 118.809 229.825 118.152C229.216 117.495 228.733 116.692 228.375 115.745C228.027 114.788 227.853 113.7 227.853 112.482C227.853 111.39 228.008 110.38 228.317 109.452C228.636 108.514 229.1 107.707 229.709 107.03C230.318 106.344 231.072 105.808 231.971 105.421C232.87 105.034 233.904 104.841 235.074 104.841C236.186 104.841 237.157 105.02 237.988 105.377C238.829 105.735 239.583 106.247 240.25 106.914L239.308 108.219ZM246.019 107.654C246.483 106.765 247.034 106.069 247.672 105.566C248.31 105.054 249.064 104.797 249.934 104.797C250.62 104.797 251.171 104.947 251.587 105.247L251.355 107.929C251.307 108.103 251.234 108.229 251.138 108.306C251.051 108.374 250.93 108.408 250.775 108.408C250.63 108.408 250.413 108.384 250.123 108.335C249.842 108.287 249.567 108.263 249.296 108.263C248.9 108.263 248.547 108.321 248.238 108.437C247.928 108.553 247.648 108.722 247.397 108.944C247.155 109.157 246.937 109.418 246.744 109.727C246.56 110.037 246.386 110.39 246.222 110.786V119.95H242.641V105.073H244.743C245.11 105.073 245.367 105.141 245.512 105.276C245.657 105.402 245.753 105.634 245.802 105.972L246.019 107.654ZM259.617 104.841C260.719 104.841 261.72 105.02 262.619 105.377C263.527 105.735 264.301 106.243 264.939 106.9C265.586 107.557 266.084 108.36 266.432 109.307C266.78 110.254 266.954 111.313 266.954 112.482C266.954 113.662 266.78 114.725 266.432 115.672C266.084 116.62 265.586 117.427 264.939 118.094C264.301 118.761 263.527 119.273 262.619 119.631C261.72 119.989 260.719 120.167 259.617 120.167C258.505 120.167 257.495 119.989 256.587 119.631C255.678 119.273 254.9 118.761 254.252 118.094C253.614 117.427 253.116 116.62 252.759 115.672C252.411 114.725 252.237 113.662 252.237 112.482C252.237 111.313 252.411 110.254 252.759 109.307C253.116 108.36 253.614 107.557 254.252 106.9C254.9 106.243 255.678 105.735 256.587 105.377C257.495 105.02 258.505 104.841 259.617 104.841ZM259.617 117.412C260.854 117.412 261.768 116.997 262.358 116.165C262.957 115.334 263.257 114.116 263.257 112.511C263.257 110.907 262.957 109.684 262.358 108.843C261.768 108.002 260.854 107.581 259.617 107.581C258.36 107.581 257.428 108.007 256.819 108.857C256.219 109.698 255.92 110.916 255.92 112.511C255.92 114.106 256.219 115.324 256.819 116.165C257.428 116.997 258.36 117.412 259.617 117.412ZM278.763 107.973C278.667 108.128 278.565 108.239 278.459 108.306C278.353 108.364 278.217 108.393 278.053 108.393C277.879 108.393 277.69 108.345 277.487 108.248C277.294 108.152 277.067 108.045 276.806 107.929C276.545 107.804 276.245 107.693 275.907 107.596C275.578 107.499 275.187 107.451 274.732 107.451C274.027 107.451 273.471 107.601 273.065 107.9C272.669 108.2 272.47 108.592 272.47 109.075C272.47 109.394 272.572 109.665 272.775 109.887C272.988 110.1 273.263 110.288 273.601 110.452C273.949 110.617 274.341 110.767 274.776 110.902C275.211 111.028 275.651 111.168 276.095 111.322C276.55 111.477 276.994 111.656 277.429 111.859C277.864 112.052 278.251 112.304 278.589 112.613C278.937 112.913 279.213 113.275 279.416 113.7C279.629 114.126 279.735 114.638 279.735 115.237C279.735 115.953 279.604 116.615 279.343 117.224C279.092 117.823 278.715 118.345 278.212 118.79C277.71 119.225 277.086 119.568 276.342 119.819C275.607 120.061 274.757 120.182 273.79 120.182C273.278 120.182 272.775 120.134 272.282 120.037C271.799 119.95 271.33 119.824 270.875 119.66C270.431 119.496 270.015 119.302 269.628 119.08C269.251 118.858 268.918 118.616 268.628 118.355L269.454 116.992C269.561 116.828 269.686 116.702 269.831 116.615C269.976 116.528 270.16 116.484 270.382 116.484C270.605 116.484 270.813 116.547 271.006 116.673C271.209 116.799 271.441 116.934 271.702 117.079C271.963 117.224 272.267 117.359 272.615 117.485C272.973 117.611 273.423 117.673 273.964 117.673C274.389 117.673 274.752 117.625 275.051 117.528C275.361 117.422 275.612 117.287 275.805 117.122C276.008 116.958 276.153 116.77 276.24 116.557C276.337 116.335 276.385 116.107 276.385 115.875C276.385 115.527 276.279 115.242 276.066 115.02C275.863 114.798 275.588 114.604 275.24 114.44C274.902 114.276 274.51 114.131 274.065 114.005C273.63 113.87 273.181 113.725 272.717 113.57C272.263 113.415 271.813 113.236 271.368 113.033C270.933 112.821 270.542 112.555 270.194 112.236C269.856 111.917 269.58 111.525 269.367 111.061C269.164 110.597 269.063 110.037 269.063 109.379C269.063 108.77 269.184 108.19 269.425 107.639C269.667 107.088 270.02 106.61 270.484 106.204C270.958 105.788 271.542 105.46 272.238 105.218C272.944 104.967 273.756 104.841 274.674 104.841C275.699 104.841 276.632 105.01 277.473 105.348C278.314 105.687 279.015 106.131 279.575 106.682L278.763 107.973ZM291.508 107.973C291.411 108.128 291.309 108.239 291.203 108.306C291.097 108.364 290.961 108.393 290.797 108.393C290.623 108.393 290.435 108.345 290.232 108.248C290.038 108.152 289.811 108.045 289.55 107.929C289.289 107.804 288.989 107.693 288.651 107.596C288.322 107.499 287.931 107.451 287.477 107.451C286.771 107.451 286.215 107.601 285.809 107.9C285.413 108.2 285.215 108.592 285.215 109.075C285.215 109.394 285.316 109.665 285.519 109.887C285.732 110.1 286.007 110.288 286.346 110.452C286.694 110.617 287.085 110.767 287.52 110.902C287.955 111.028 288.395 111.168 288.84 111.322C289.294 111.477 289.739 111.656 290.174 111.859C290.609 112.052 290.995 112.304 291.334 112.613C291.682 112.913 291.957 113.275 292.16 113.7C292.373 114.126 292.479 114.638 292.479 115.237C292.479 115.953 292.349 116.615 292.088 117.224C291.836 117.823 291.459 118.345 290.957 118.79C290.454 119.225 289.83 119.568 289.086 119.819C288.351 120.061 287.501 120.182 286.534 120.182C286.022 120.182 285.519 120.134 285.026 120.037C284.543 119.95 284.074 119.824 283.62 119.66C283.175 119.496 282.759 119.302 282.373 119.08C281.996 118.858 281.662 118.616 281.372 118.355L282.199 116.992C282.305 116.828 282.431 116.702 282.576 116.615C282.721 116.528 282.904 116.484 283.127 116.484C283.349 116.484 283.557 116.547 283.75 116.673C283.953 116.799 284.185 116.934 284.446 117.079C284.707 117.224 285.012 117.359 285.36 117.485C285.717 117.611 286.167 117.673 286.708 117.673C287.133 117.673 287.496 117.625 287.796 117.528C288.105 117.422 288.356 117.287 288.55 117.122C288.753 116.958 288.898 116.77 288.985 116.557C289.081 116.335 289.13 116.107 289.13 115.875C289.13 115.527 289.023 115.242 288.811 115.02C288.608 114.798 288.332 114.604 287.984 114.44C287.646 114.276 287.254 114.131 286.81 114.005C286.375 113.87 285.925 113.725 285.461 113.57C285.007 113.415 284.557 113.236 284.113 113.033C283.678 112.821 283.286 112.555 282.938 112.236C282.6 111.917 282.324 111.525 282.112 111.061C281.909 110.597 281.807 110.037 281.807 109.379C281.807 108.77 281.928 108.19 282.17 107.639C282.411 107.088 282.764 106.61 283.228 106.204C283.702 105.788 284.287 105.46 284.983 105.218C285.688 104.967 286.5 104.841 287.419 104.841C288.443 104.841 289.376 105.01 290.217 105.348C291.058 105.687 291.759 106.131 292.32 106.682L291.508 107.973ZM302.024 104.826C302.169 103.821 302.449 102.941 302.865 102.187C303.28 101.424 303.797 100.791 304.416 100.288C305.044 99.7756 305.76 99.3938 306.562 99.1425C307.374 98.8815 308.244 98.751 309.172 98.751C310.139 98.751 311.009 98.8911 311.782 99.1714C312.565 99.4421 313.232 99.8239 313.783 100.317C314.334 100.8 314.755 101.371 315.045 102.028C315.344 102.685 315.494 103.396 315.494 104.159C315.494 104.826 315.417 105.416 315.262 105.928C315.117 106.431 314.904 106.871 314.624 107.248C314.344 107.625 313.996 107.944 313.58 108.205C313.164 108.466 312.696 108.683 312.174 108.857C313.43 109.254 314.368 109.858 314.987 110.67C315.605 111.482 315.915 112.502 315.915 113.729C315.915 114.773 315.721 115.697 315.335 116.499C314.948 117.301 314.426 117.978 313.769 118.529C313.111 119.07 312.348 119.481 311.478 119.761C310.617 120.042 309.704 120.182 308.737 120.182C307.683 120.182 306.765 120.061 305.982 119.819C305.199 119.578 304.518 119.22 303.938 118.746C303.358 118.273 302.865 117.693 302.459 117.006C302.053 116.32 301.705 115.527 301.415 114.628L302.995 113.976C303.411 113.802 303.797 113.758 304.155 113.845C304.522 113.923 304.788 114.116 304.953 114.425C305.127 114.764 305.315 115.097 305.518 115.426C305.731 115.755 305.982 116.049 306.272 116.31C306.562 116.562 306.9 116.77 307.287 116.934C307.683 117.089 308.152 117.166 308.694 117.166C309.303 117.166 309.834 117.069 310.289 116.876C310.743 116.673 311.12 116.412 311.42 116.093C311.729 115.774 311.956 115.421 312.101 115.034C312.256 114.638 312.333 114.242 312.333 113.845C312.333 113.343 312.28 112.888 312.174 112.482C312.067 112.067 311.845 111.714 311.507 111.424C311.168 111.134 310.68 110.907 310.042 110.742C309.414 110.578 308.568 110.496 307.505 110.496V107.944C308.384 107.934 309.114 107.852 309.694 107.697C310.274 107.543 310.733 107.33 311.072 107.059C311.42 106.779 311.661 106.446 311.797 106.059C311.932 105.672 312 105.247 312 104.783C312 103.797 311.724 103.048 311.173 102.535C310.622 102.023 309.887 101.767 308.969 101.767C308.544 101.767 308.152 101.83 307.795 101.955C307.437 102.071 307.113 102.241 306.823 102.463C306.543 102.676 306.306 102.927 306.113 103.217C305.919 103.507 305.774 103.826 305.678 104.174C305.513 104.619 305.296 104.913 305.025 105.058C304.764 105.203 304.392 105.237 303.909 105.16L302.024 104.826ZM327.604 112.047V105.189C327.604 104.541 327.647 103.826 327.734 103.043L321.224 112.047H327.604ZM333.36 112.047V114.121C333.36 114.314 333.297 114.483 333.172 114.628C333.046 114.764 332.867 114.831 332.635 114.831H330.721V119.95H327.604V114.831H318.759C318.517 114.831 318.304 114.759 318.121 114.614C317.937 114.459 317.821 114.271 317.773 114.048L317.396 112.236L327.328 98.9685H330.721V112.047H333.36ZM353.58 108.219C353.474 108.355 353.368 108.461 353.261 108.538C353.165 108.616 353.02 108.654 352.826 108.654C352.643 108.654 352.464 108.601 352.29 108.495C352.116 108.379 351.908 108.253 351.666 108.118C351.425 107.973 351.135 107.847 350.796 107.741C350.468 107.625 350.057 107.567 349.564 107.567C348.935 107.567 348.384 107.683 347.911 107.915C347.437 108.137 347.041 108.461 346.722 108.886C346.412 109.312 346.18 109.829 346.026 110.438C345.871 111.037 345.794 111.719 345.794 112.482C345.794 113.275 345.876 113.981 346.04 114.599C346.214 115.218 346.461 115.74 346.78 116.165C347.099 116.581 347.485 116.9 347.94 117.122C348.394 117.335 348.906 117.441 349.477 117.441C350.047 117.441 350.506 117.374 350.854 117.238C351.212 117.093 351.512 116.939 351.753 116.774C351.995 116.6 352.203 116.446 352.377 116.31C352.56 116.165 352.763 116.093 352.986 116.093C353.276 116.093 353.493 116.204 353.638 116.426L354.668 117.731C354.271 118.195 353.841 118.587 353.377 118.906C352.913 119.215 352.43 119.467 351.927 119.66C351.434 119.844 350.922 119.974 350.39 120.051C349.868 120.129 349.346 120.167 348.824 120.167C347.906 120.167 347.041 119.998 346.229 119.66C345.417 119.312 344.706 118.809 344.097 118.152C343.488 117.495 343.005 116.692 342.647 115.745C342.299 114.788 342.125 113.7 342.125 112.482C342.125 111.39 342.28 110.38 342.589 109.452C342.908 108.514 343.372 107.707 343.981 107.03C344.59 106.344 345.344 105.808 346.243 105.421C347.142 105.034 348.177 104.841 349.346 104.841C350.458 104.841 351.429 105.02 352.261 105.377C353.102 105.735 353.856 106.247 354.523 106.914L353.58 108.219ZM363.241 104.841C364.343 104.841 365.344 105.02 366.243 105.377C367.151 105.735 367.925 106.243 368.563 106.9C369.21 107.557 369.708 108.36 370.056 109.307C370.404 110.254 370.578 111.313 370.578 112.482C370.578 113.662 370.404 114.725 370.056 115.672C369.708 116.62 369.21 117.427 368.563 118.094C367.925 118.761 367.151 119.273 366.243 119.631C365.344 119.989 364.343 120.167 363.241 120.167C362.129 120.167 361.119 119.989 360.211 119.631C359.302 119.273 358.524 118.761 357.876 118.094C357.238 117.427 356.74 116.62 356.383 115.672C356.035 114.725 355.861 113.662 355.861 112.482C355.861 111.313 356.035 110.254 356.383 109.307C356.74 108.36 357.238 107.557 357.876 106.9C358.524 106.243 359.302 105.735 360.211 105.377C361.119 105.02 362.129 104.841 363.241 104.841ZM363.241 117.412C364.478 117.412 365.392 116.997 365.982 116.165C366.581 115.334 366.881 114.116 366.881 112.511C366.881 110.907 366.581 109.684 365.982 108.843C365.392 108.002 364.478 107.581 363.241 107.581C361.984 107.581 361.052 108.007 360.443 108.857C359.843 109.698 359.544 110.916 359.544 112.511C359.544 114.106 359.843 115.324 360.443 116.165C361.052 116.997 361.984 117.412 363.241 117.412ZM386.129 105.073V119.95H383.939C383.465 119.95 383.166 119.732 383.04 119.297L382.794 118.108C382.185 118.727 381.513 119.23 380.778 119.616C380.043 119.993 379.178 120.182 378.183 120.182C377.371 120.182 376.65 120.047 376.022 119.776C375.403 119.496 374.881 119.104 374.456 118.601C374.031 118.099 373.707 117.504 373.485 116.818C373.272 116.122 373.166 115.358 373.166 114.527V105.073H376.747V114.527C376.747 115.436 376.955 116.141 377.371 116.644C377.796 117.137 378.429 117.383 379.27 117.383C379.889 117.383 380.469 117.248 381.01 116.977C381.551 116.697 382.064 116.315 382.547 115.832V105.073H386.129ZM393.029 106.9C393.329 106.6 393.643 106.325 393.972 106.073C394.31 105.812 394.663 105.595 395.03 105.421C395.407 105.237 395.808 105.097 396.234 105C396.659 104.894 397.123 104.841 397.626 104.841C398.438 104.841 399.158 104.981 399.786 105.261C400.414 105.532 400.936 105.919 401.352 106.421C401.777 106.914 402.096 107.509 402.309 108.205C402.531 108.891 402.643 109.65 402.643 110.481V119.95H399.061V110.481C399.061 109.573 398.853 108.872 398.438 108.379C398.022 107.876 397.389 107.625 396.538 107.625C395.919 107.625 395.339 107.765 394.798 108.045C394.257 108.326 393.744 108.708 393.261 109.191V119.95H389.68V105.073H391.869C392.333 105.073 392.638 105.29 392.783 105.725L393.029 106.9ZM410.81 120.182C409.514 120.182 408.519 119.819 407.823 119.094C407.136 118.36 406.793 117.35 406.793 116.064V107.755H405.271C405.077 107.755 404.913 107.693 404.778 107.567C404.642 107.441 404.575 107.253 404.575 107.001V105.58L406.967 105.189L407.721 101.129C407.769 100.936 407.861 100.786 407.997 100.679C408.132 100.573 408.306 100.52 408.519 100.52H410.375V105.203H414.348V107.755H410.375V115.817C410.375 116.281 410.486 116.644 410.708 116.905C410.94 117.166 411.254 117.296 411.651 117.296C411.873 117.296 412.057 117.272 412.202 117.224C412.356 117.166 412.487 117.108 412.593 117.05C412.709 116.992 412.811 116.939 412.898 116.89C412.985 116.832 413.072 116.803 413.159 116.803C413.265 116.803 413.352 116.832 413.42 116.89C413.487 116.939 413.56 117.016 413.637 117.122L414.71 118.862C414.188 119.297 413.589 119.626 412.912 119.848C412.235 120.071 411.535 120.182 410.81 120.182ZM420.019 107.654C420.483 106.765 421.034 106.069 421.672 105.566C422.31 105.054 423.064 104.797 423.934 104.797C424.62 104.797 425.171 104.947 425.587 105.247L425.355 107.929C425.307 108.103 425.234 108.229 425.138 108.306C425.051 108.374 424.93 108.408 424.775 108.408C424.63 108.408 424.413 108.384 424.123 108.335C423.842 108.287 423.567 108.263 423.296 108.263C422.9 108.263 422.547 108.321 422.238 108.437C421.928 108.553 421.648 108.722 421.397 108.944C421.155 109.157 420.937 109.418 420.744 109.727C420.56 110.037 420.386 110.39 420.222 110.786V119.95H416.641V105.073H418.743C419.11 105.073 419.367 105.141 419.512 105.276C419.657 105.402 419.753 105.634 419.802 105.972L420.019 107.654ZM431.171 105.073V119.95H427.575V105.073H431.171ZM431.664 100.737C431.664 101.047 431.601 101.337 431.475 101.607C431.35 101.878 431.181 102.115 430.968 102.318C430.765 102.521 430.523 102.685 430.243 102.811C429.963 102.927 429.663 102.985 429.344 102.985C429.035 102.985 428.74 102.927 428.459 102.811C428.189 102.685 427.952 102.521 427.749 102.318C427.546 102.115 427.382 101.878 427.256 101.607C427.14 101.337 427.082 101.047 427.082 100.737C427.082 100.418 427.14 100.119 427.256 99.8384C427.382 99.5581 427.546 99.3165 427.749 99.1135C427.952 98.9105 428.189 98.751 428.459 98.635C428.74 98.5093 429.035 98.4465 429.344 98.4465C429.663 98.4465 429.963 98.5093 430.243 98.635C430.523 98.751 430.765 98.9105 430.968 99.1135C431.181 99.3165 431.35 99.5581 431.475 99.8384C431.601 100.119 431.664 100.418 431.664 100.737ZM444.407 110.8C444.407 110.336 444.339 109.901 444.204 109.495C444.078 109.08 443.885 108.717 443.624 108.408C443.363 108.099 443.029 107.857 442.623 107.683C442.227 107.499 441.763 107.407 441.231 107.407C440.197 107.407 439.38 107.702 438.781 108.292C438.191 108.882 437.814 109.718 437.65 110.8H444.407ZM437.577 112.961C437.635 113.725 437.771 114.387 437.983 114.947C438.196 115.498 438.476 115.958 438.824 116.325C439.172 116.683 439.583 116.953 440.057 117.137C440.54 117.311 441.072 117.398 441.652 117.398C442.232 117.398 442.73 117.33 443.145 117.195C443.571 117.06 443.938 116.91 444.247 116.745C444.566 116.581 444.842 116.431 445.074 116.296C445.315 116.161 445.547 116.093 445.77 116.093C446.069 116.093 446.292 116.204 446.437 116.426L447.466 117.731C447.07 118.195 446.625 118.587 446.132 118.906C445.639 119.215 445.122 119.467 444.581 119.66C444.049 119.844 443.503 119.974 442.942 120.051C442.391 120.129 441.855 120.167 441.333 120.167C440.298 120.167 439.337 119.998 438.447 119.66C437.558 119.312 436.785 118.804 436.127 118.137C435.47 117.461 434.953 116.629 434.576 115.643C434.199 114.648 434.01 113.497 434.01 112.192C434.01 111.177 434.175 110.225 434.503 109.336C434.832 108.437 435.301 107.659 435.91 107.001C436.528 106.334 437.278 105.808 438.157 105.421C439.047 105.034 440.047 104.841 441.159 104.841C442.096 104.841 442.962 104.991 443.754 105.29C444.547 105.59 445.228 106.03 445.799 106.61C446.369 107.18 446.814 107.886 447.133 108.727C447.461 109.558 447.626 110.51 447.626 111.583C447.626 112.125 447.568 112.492 447.452 112.685C447.336 112.869 447.113 112.961 446.785 112.961H437.577ZM459.39 107.973C459.294 108.128 459.192 108.239 459.086 108.306C458.98 108.364 458.844 108.393 458.68 108.393C458.506 108.393 458.317 108.345 458.114 108.248C457.921 108.152 457.694 108.045 457.433 107.929C457.172 107.804 456.872 107.693 456.534 107.596C456.205 107.499 455.814 107.451 455.359 107.451C454.654 107.451 454.098 107.601 453.692 107.9C453.296 108.2 453.097 108.592 453.097 109.075C453.097 109.394 453.199 109.665 453.402 109.887C453.615 110.1 453.89 110.288 454.228 110.452C454.576 110.617 454.968 110.767 455.403 110.902C455.838 111.028 456.278 111.168 456.722 111.322C457.177 111.477 457.621 111.656 458.056 111.859C458.491 112.052 458.878 112.304 459.216 112.613C459.564 112.913 459.84 113.275 460.043 113.7C460.256 114.126 460.362 114.638 460.362 115.237C460.362 115.953 460.231 116.615 459.97 117.224C459.719 117.823 459.342 118.345 458.839 118.79C458.337 119.225 457.713 119.568 456.969 119.819C456.234 120.061 455.384 120.182 454.417 120.182C453.905 120.182 453.402 120.134 452.909 120.037C452.426 119.95 451.957 119.824 451.502 119.66C451.058 119.496 450.642 119.302 450.255 119.08C449.878 118.858 449.545 118.616 449.255 118.355L450.081 116.992C450.188 116.828 450.313 116.702 450.458 116.615C450.603 116.528 450.787 116.484 451.009 116.484C451.232 116.484 451.44 116.547 451.633 116.673C451.836 116.799 452.068 116.934 452.329 117.079C452.59 117.224 452.894 117.359 453.242 117.485C453.6 117.611 454.05 117.673 454.591 117.673C455.016 117.673 455.379 117.625 455.678 117.528C455.988 117.422 456.239 117.287 456.432 117.122C456.635 116.958 456.78 116.77 456.867 116.557C456.964 116.335 457.012 116.107 457.012 115.875C457.012 115.527 456.906 115.242 456.693 115.02C456.49 114.798 456.215 114.604 455.867 114.44C455.529 114.276 455.137 114.131 454.692 114.005C454.257 113.87 453.808 113.725 453.344 113.57C452.89 113.415 452.44 113.236 451.995 113.033C451.56 112.821 451.169 112.555 450.821 112.236C450.483 111.917 450.207 111.525 449.994 111.061C449.791 110.597 449.69 110.037 449.69 109.379C449.69 108.77 449.811 108.19 450.052 107.639C450.294 107.088 450.647 106.61 451.111 106.204C451.585 105.788 452.169 105.46 452.865 105.218C453.571 104.967 454.383 104.841 455.301 104.841C456.326 104.841 457.259 105.01 458.1 105.348C458.941 105.687 459.642 106.131 460.202 106.682L459.39 107.973Z" fill="#212121"/>
<path d="M369.665 184.068C367.868 184.391 366.259 184.778 364.167 185.524C362.532 186.148 360.08 187.134 359.268 187.461C359.365 186.817 359.396 185.993 359.318 185.546C359.192 184.91 358.521 183.837 357.806 183.298C357.506 183.075 356.544 182.647 356.013 182.507C355.463 182.367 354.223 182.223 353.567 182.229C352.187 182.252 349.539 182.915 348.344 183.39C347.204 183.848 344.91 185.038 343.837 185.734C342.754 186.442 340.894 187.958 340.017 188.814C339.549 189.276 338.576 190.398 338.201 190.968C337.902 191.432 337.348 192.737 337.437 193.324C337.499 193.68 337.995 194.076 338.44 194.214C338.767 194.302 339.914 194.23 340.515 194.078C341.712 193.761 344.104 192.41 345.288 191.51C346.277 190.75 348.264 188.763 348.935 187.556C349.283 186.918 349.66 185.686 349.689 185.106C349.705 184.546 349.444 183.516 349.176 183.053C348.915 182.614 348.163 181.846 347.698 181.541C347.222 181.232 346.114 180.794 345.457 180.654C344.176 180.386 341.368 180.425 339.79 180.654C338.524 180.847 336.152 181.477 334.735 181.945C333.732 182.278 330.959 183.46 329.915 184.016C328.691 184.671 326.768 186.032 325.66 186.945C325.117 187.393 322.825 189.611 322.044 190.497C320.988 191.699 319.621 193.851 319.454 194.584C319.361 195.037 319.371 195.663 319.511 195.941C319.649 196.197 320.148 196.549 320.467 196.617C321.021 196.72 322.094 196.51 322.47 196.37C323.372 196.028 325.357 194.64 326.375 193.655C327.345 192.712 329.548 190.085 330.3 188.913C330.699 188.285 331.304 187.085 331.519 186.502C331.725 185.929 331.953 184.857 331.97 184.375C331.978 183.977 331.768 182.847 331.405 182.365C331.039 181.891 330.024 181.418 329.649 181.331C328.755 181.136 326.354 181.36 324.849 181.727C323.749 181.996 321.435 182.777 319.94 183.44C318.313 184.179 316.157 185.361 315 186.117C313.564 187.056 311.196 188.915 310.066 189.976C308.989 190.987 307.053 193.221 306.454 194.158C305.898 195.037 305.476 196.555 305.54 197.022C305.579 197.247 305.777 197.586 305.941 197.702C306.116 197.815 306.584 197.906 306.874 197.881C307.426 197.823 308.657 197.3 309.145 197.018C310.097 196.458 311.773 194.877 312.56 193.771C313.354 192.644 314.386 190.32 314.578 189.181C314.67 188.592 314.65 187.548 314.524 187.089C314.39 186.621 313.879 185.828 313.509 185.509C313.118 185.186 312.102 184.727 311.487 184.609C310.445 184.424 307.842 184.706 306.419 185.048C304.117 185.608 297.177 188.096 294.817 189.039C293.374 189.65 290.633 190.853 289.334 191.444C288.16 192.008 285.673 193.27 284.274 193.987C283.5 194.382 282.487 194.899 282.248 195.021" stroke="#212121" stroke-width="4.1184" stroke-linecap="round" stroke-linejoin="round"/>
<path d="M371.978 180.841C370.886 180.559 368.205 179.632 367.666 179.447C369.533 178.249 371.459 177.184 373.088 176.461C375.915 175.256 381.073 173.247 383.968 172.23C386.905 171.284 392.988 169.52 395.895 168.766C398.865 168.045 404.729 166.746 407.616 166.118C410.973 165.401 416.751 164.427 419.856 163.931C423.332 163.435 429.961 162.549 434.063 162.139C437.024 161.938 440.187 161.723 440.389 161.709C440.197 162.881 439.709 165.737 438.92 167.854C438.173 169.851 434.837 176.276 433.171 179.317C431.633 181.974 429.992 184.807 429.889 184.984C426.837 184.632 420.791 183.975 417.797 183.672C414.797 183.454 408.942 183.067 405.743 182.948C402.4 182.845 396.764 182.628 392.59 182.287C389.38 182.112 383.345 181.817 380.517 181.698C376.43 181.506 373.263 181.171 371.978 180.841Z" fill="#840032"/>
<path d="M404.696 175.479C404.626 175.197 404.289 174.554 404.042 174.155C400.529 174.095 395.197 174.26 392.282 174.503C391.835 174.546 386.51 175.22 386.291 175.248L393.289 170.916C390.692 171.577 384.327 173.204 380.929 174.138C376.426 175.456 373.475 176.688 370.396 178.082C370.04 178.242 369.523 178.49 368.99 178.759C368.092 179.214 367.18 179.861 366.667 180.45C366.529 180.613 365.343 182.392 365.073 182.89C364.684 183.631 364.229 185.262 364.213 185.999C364.204 186.776 364.367 188.236 364.546 188.996C364.734 189.76 365.322 191.193 365.662 191.712C366.021 192.245 367.079 193.291 367.684 193.705C368.889 194.514 371.902 195.538 373.553 195.873C374.787 196.12 378.273 196.565 379.928 196.736C382.093 196.926 385.111 197.07 386.909 197.142C388.606 197.171 392.553 197.214 392.669 197.204C393.039 197.171 393.766 197.049 394.122 196.971C395.399 194.475 398.356 188.734 400.039 185.491C400.862 183.913 402.429 180.909 403.173 179.478C404.132 177.596 404.826 176.035 404.696 175.479Z" fill="#E02D43"/>
<path d="M404.336 174.466C404.161 174.334 403.617 174.278 403.144 174.476C402.534 174.737 401.305 175.674 400.652 176.375C400.053 177.029 397.658 180.279 396.847 181.549C396.056 182.793 394.534 185.721 393.945 187.132C393.278 188.746 392.306 191.598 392.102 192.793C392.014 193.33 391.888 195.251 392.117 195.958C392.24 196.314 392.648 196.804 392.936 196.964C393.233 197.115 393.826 197.168 394.213 197.08C394.876 196.913 396.087 196.114 396.523 195.717C397.483 194.835 399.176 192.477 399.857 191.37C400.691 189.978 401.993 187.597 402.371 186.817C403.251 184.935 403.848 183.415 404.375 181.619C404.581 180.903 404.894 179.517 404.972 178.85C405.042 178.24 405.114 176.422 405.048 175.942C405.005 175.648 404.657 174.727 404.336 174.466Z" fill="#4F0707"/>
<path d="M440.578 162.111C440.403 161.979 439.859 161.923 439.386 162.121C438.776 162.382 437.547 163.319 436.894 164.02C436.295 164.674 433.9 167.924 433.089 169.194C432.298 170.438 430.776 173.366 430.187 174.777C429.52 176.391 428.548 179.243 428.344 180.438C428.256 180.975 428.13 182.896 428.359 183.603C428.482 183.959 428.89 184.449 429.178 184.609C429.475 184.76 430.068 184.813 430.455 184.725C431.118 184.558 432.329 183.759 432.765 183.362C433.725 182.48 435.418 180.122 436.099 179.015C436.933 177.623 438.235 175.242 438.613 174.462C439.493 172.58 440.09 171.06 440.617 169.264C440.823 168.548 441.136 167.162 441.214 166.495C441.284 165.885 441.356 164.067 441.29 163.587C441.247 163.293 440.899 162.372 440.578 162.111Z" fill="#4F0707"/>
</g>
<defs>
<clipPath id="clip0_4475_236">
<rect width="486" height="219" fill="white"/>
</clipPath>
</defs>
</svg>
