<svg width="232" height="219" viewBox="0 0 232 219" fill="none" xmlns="http://www.w3.org/2000/svg">
<circle cx="113.185" cy="118.055" r="92.6104" fill="#840032"/>
<circle cx="113.185" cy="118.055" r="74.0883" fill="#FFFCFA"/>
<circle cx="113.185" cy="118.055" r="55.5662" fill="#840032"/>
<circle cx="113.185" cy="118.055" r="37.0441" fill="#FFFCFA"/>
<circle cx="113.185" cy="118.055" r="18.5221" fill="#840032"/>
<path d="M65.0273 174.547C65.0273 184.776 65.0273 219 65.0273 219C59.5403 219 20.5744 219 20.5744 219C20.5744 219 20.5744 184.776 20.5744 174.547C20.5744 164.318 32.5714 153.247 42.8009 153.247C53.0303 153.247 65.0273 164.318 65.0273 174.547Z" fill="#E02D43"/>
<mask id="mask0_4475_405" style="mask-type:alpha" maskUnits="userSpaceOnUse" x="20" y="153" width="46" height="66">
<path d="M65.0273 174.547C65.0273 184.776 65.0273 219 65.0273 219C59.5403 219 20.5744 219 20.5744 219C20.5744 219 20.5744 184.776 20.5744 174.547C20.5744 164.318 32.5714 153.247 42.8009 153.247C53.0303 153.247 65.0273 164.318 65.0273 174.547Z" fill="#840032"/>
</mask>
<g mask="url(#mask0_4475_405)">
<path d="M54.8402 153.71L53.451 157.414L42.8008 179.641L31.2245 153.71L42.8008 149.542L54.8402 153.71Z" fill="white"/>
<path d="M42.8009 179.641L51.3921 155.099L54.8402 156.951L59.0077 169.917H49.7467L51.3921 176.862L42.8009 179.641Z" fill="#840032"/>
<path d="M42.8009 179.641L34.2097 155.099L30.7615 156.951L26.5941 169.917H35.8551L34.2097 176.862L42.8009 179.641Z" fill="#840032"/>
</g>
<rect x="40.4856" y="185.66" width="4.63052" height="17.596" fill="#6D799A"/>
<circle cx="42.8009" cy="168.99" r="7.40883" fill="#A1AAC4"/>
<rect x="35.392" y="175.473" width="14.8177" height="11.1132" rx="3" fill="#212121"/>
<circle cx="50.2097" cy="190.291" r="8.33493" fill="#CFD4E3"/>
<circle cx="42.8008" cy="136.577" r="18.5221" fill="#CFD4E3"/>
<path d="M203.943 174.547C203.943 184.776 203.943 219 203.943 219C198.456 219 159.49 219 159.49 219C159.49 219 159.49 184.776 159.49 174.547C159.49 164.318 171.487 153.247 181.716 153.247C191.946 153.247 203.943 164.318 203.943 174.547Z" fill="#002642"/>
<mask id="mask1_4475_405" style="mask-type:alpha" maskUnits="userSpaceOnUse" x="159" y="153" width="45" height="66">
<path d="M203.943 174.547C203.943 184.776 203.943 219 203.943 219C198.456 219 159.49 219 159.49 219C159.49 219 159.49 184.776 159.49 174.547C159.49 164.318 171.487 153.247 181.716 153.247C191.946 153.247 203.943 164.318 203.943 174.547Z" fill="#134E78"/>
</mask>
<g mask="url(#mask1_4475_405)">
<path d="M193.756 153.71L192.367 157.414L181.716 179.641L170.14 153.71L181.716 149.542L193.756 153.71Z" fill="white"/>
<mask id="mask2_4475_405" style="mask-type:alpha" maskUnits="userSpaceOnUse" x="170" y="149" width="24" height="31">
<path d="M193.756 153.71L192.367 157.414L181.716 179.641L170.14 153.71L181.716 149.542L193.756 153.71Z" fill="white"/>
</mask>
<g mask="url(#mask2_4475_405)">
<path d="M178.475 155.099C178.475 150.931 184.958 150.931 184.958 155.099C184.958 159.266 183.569 160.655 183.569 160.655H179.864C179.864 160.655 178.475 159.266 178.475 155.099Z" fill="#4A8EBF"/>
<path d="M178.012 181.03H185.421L183.569 160.656H179.864L178.012 181.03Z" fill="#4A8EBF"/>
</g>
<path d="M187.736 160.656L182.179 155.099H181.253L175.697 160.656L171.992 154.173L182.179 151.395L186.81 153.015L191.441 154.636L187.736 160.656Z" fill="#F5F5F5"/>
<path d="M181.716 180.104L189.601 155.099L193.509 156.916L196.534 161.914L191.811 163.277L195.485 166.002L181.716 180.104Z" fill="#134E78"/>
<path d="M181.716 180.104L173.832 155.099L169.924 156.916L166.899 161.914L171.622 163.277L167.948 166.002L181.716 180.104Z" fill="#134E78"/>
</g>
<path d="M160.416 178.251H203.017L196.534 192.143H166.899L160.416 178.251Z" fill="white"/>
<circle cx="202.091" cy="190.291" r="8.33493" fill="#CFD4E3"/>
<circle cx="161.342" cy="190.291" r="8.33493" fill="#CFD4E3"/>
<circle cx="181.716" cy="136.577" r="18.5221" fill="#CFD4E3"/>
<path d="M118.741 174.547C118.741 184.776 118.741 219 118.741 219C113.254 219 74.2884 219 74.2884 219C74.2884 219 74.2884 184.776 74.2884 174.547C74.2884 164.318 86.2854 153.247 96.5149 153.247C106.744 153.247 118.741 164.318 118.741 174.547Z" fill="#134E78"/>
<mask id="mask3_4475_405" style="mask-type:alpha" maskUnits="userSpaceOnUse" x="74" y="153" width="45" height="66">
<path d="M118.741 174.547C118.741 184.776 118.741 219 118.741 219C113.254 219 74.2884 219 74.2884 219C74.2884 219 74.2884 184.776 74.2884 174.547C74.2884 164.318 86.2854 153.247 96.5149 153.247C106.744 153.247 118.741 164.318 118.741 174.547Z" fill="#4A8EBF"/>
</mask>
<g mask="url(#mask3_4475_405)">
<path d="M96.5149 147.69L106.702 151.857C106.702 151.857 106.702 159.266 96.5149 159.266C86.3277 159.266 86.3277 151.857 86.3277 151.857L96.5149 147.69Z" fill="#CFD4E3"/>
</g>
<circle cx="96.5149" cy="136.577" r="18.5221" fill="#CFD4E3"/>
<circle cx="122.446" cy="174.547" r="8.33493" fill="#CFD4E3"/>
<rect x="126.15" y="132.872" width="4.63052" height="36.118" fill="#E6A4A4"/>
<circle cx="134.485" cy="166.212" r="8.33493" fill="#CFD4E3"/>
<rect x="102.998" y="102.311" width="51.8618" height="31.4875" fill="#E6A4A4"/>
<circle cx="144.441" cy="125.232" r="1.15763" fill="#212121"/>
<path d="M106.702 125.464L114.574 111.109C114.574 111.109 115.037 124.537 118.278 124.537C121.52 124.537 129.855 111.109 129.855 114.35C129.855 117.592 130.318 124.074 132.17 124.074C134.022 124.074 140.042 117.592 140.042 117.592M146.524 121.759C147.451 120.216 149.673 115.462 151.155 108.794" stroke="#212121" stroke-width="2" stroke-linecap="round"/>
</svg>
