<svg width="411" height="189" viewBox="0 0 411 189" fill="none" xmlns="http://www.w3.org/2000/svg">
<path d="M321.376 49.5783C320.812 49.7557 317.475 50.9367 316.211 51.3991C313.313 52.5494 309.271 54.36 307.218 55.4202C306.22 55.9582 304.307 57.0575 303.392 57.6189C302.169 58.4042 300.797 59.3844 299.998 60.0533C299.199 60.7237 297.701 62.1896 297 62.9865C296.301 63.7849 294.999 65.5068 294.399 66.4317C293.798 67.358 292.766 69.2064 292.191 70.3873C291.531 71.7994 291.09 72.9366 290.602 74.4286C290.016 76.3584 289.072 80.4856 288.713 82.6829C288.387 84.9196 288.001 89.1834 287.863 92.1661C287.812 94.7299 287.89 99.9594 287.999 102.501C288.153 104.987 288.601 109.784 288.892 112.098C289.229 114.353 290.042 118.693 290.517 120.777C290.654 121.359 291.681 124.472 292.13 125.7C292.597 126.899 293.59 129.223 294.117 130.346C294.66 131.441 295.806 133.556 296.409 134.573C297.029 135.564 298.33 137.469 299.007 138.382C299.705 139.268 301.152 140.962 301.9 141.769C302.665 142.55 304.241 144.039 305.061 144.734C305.889 145.415 307.602 146.684 308.489 147.273C309.383 147.849 311.232 148.907 312.184 149.389C313.134 149.853 314.969 150.544 315.897 150.855C316.838 151.143 318.756 151.651 319.735 151.869C320.724 152.064 322.742 152.385 323.769 152.512C324.809 152.615 326.924 152.752 328.002 152.785C329.091 152.795 331.696 152.733 332.433 152.676C333.418 152.597 335.883 152.244 337.061 152.01C338.009 151.808 340.66 151.108 341.884 150.73C343.12 150.314 345.63 149.367 346.904 148.837C348.19 148.267 350.797 147.013 352.119 146.328C353.137 145.79 357.529 143.047 359.287 141.868C361.063 140.624 364.669 137.953 366.499 136.522C368.347 135.03 372.105 131.828 373.998 130.179C375.927 128.406 379.759 124.798 381.507 122.938C382.355 122.003 399.185 104.908 399.955 103.961C400.696 103.01 402.104 101.093 402.769 100.129C403.407 99.1604 404.604 97.2088 405.164 96.2272C405.697 95.2412 406.686 93.2562 407.141 92.2571C407.569 91.2551 408.348 89.2351 408.699 88.2186C409.022 87.1991 409.602 85.1297 409.832 84.039C410.043 82.928 410.373 80.6957 410.494 79.573C410.584 78.446 410.674 76.1803 410.674 75.0402C410.645 73.8971 410.495 71.5995 410.374 70.4434C410.224 69.2843 409.835 66.9517 409.595 65.7795C409.324 64.6045 408.695 62.2399 408.335 61.0518C407.944 59.8593 407.075 57.4612 406.595 56.257C406.086 55.0515 405.027 52.7117 404.477 51.5817C403.914 50.4779 402.75 48.3489 402.146 47.3236C401.531 46.3231 400.261 44.4051 399.606 43.4845C398.938 42.5901 397.562 40.8799 396.856 40.064C396.134 39.2758 394.654 37.775 393.893 37.0654C393.121 36.3804 391.374 34.9639 390.722 34.4855C389.638 33.7133 388.264 32.8626 387.137 32.278C386.161 31.7748 384.151 30.8951 383.116 30.5184C382.08 30.1447 380.088 29.5644 378.853 29.2779C377.754 29.0408 375.501 28.6788 374.35 28.5552C373.422 28.4694 370.813 28.353 369.604 28.3501C368.38 28.3806 365.886 28.5377 364.618 28.6642C362.932 28.8737 341.823 45.0149 339.361 45.425C337.01 45.8715 332.417 46.8022 330.175 47.285C325.059 48.5313 321.486 49.5449 321.376 49.5783Z" fill="#002642"/>
<path d="M89.602 49.7214C90.1663 49.8988 93.5038 51.0797 94.7675 51.5422C97.6658 52.6925 101.707 54.5031 103.761 55.5632C104.758 56.1013 106.672 57.2006 107.587 57.7619C108.81 58.5472 110.181 59.5274 110.981 60.1964C111.779 60.8668 113.277 62.3327 113.978 63.1296C114.678 63.928 115.979 65.6499 116.58 66.5748C117.18 67.5011 118.213 69.3495 118.787 70.5303C119.448 71.9424 119.888 73.0796 120.377 74.5717C120.963 76.5015 121.907 80.6286 122.266 82.826C122.592 85.0626 122.977 89.3265 123.115 92.3091C123.166 94.873 123.089 100.103 122.98 102.645C122.826 105.13 122.378 109.927 122.087 112.241C121.75 114.497 120.937 118.836 120.461 120.92C120.324 121.502 119.298 124.615 118.848 125.843C118.382 127.042 117.388 129.366 116.862 130.489C116.318 131.584 115.172 133.699 114.57 134.717C113.949 135.707 112.649 137.612 111.971 138.525C111.273 139.411 109.826 141.105 109.079 141.912C108.314 142.693 106.737 144.182 105.917 144.877C105.09 145.558 103.377 146.827 102.49 147.416C101.595 147.992 99.7469 149.05 98.7943 149.532C97.8447 149.996 96.0094 150.687 95.0816 150.998C94.1407 151.286 92.2226 151.794 91.2439 152.012C90.255 152.207 88.2365 152.528 87.2098 152.655C86.17 152.758 84.0541 152.895 82.9765 152.928C81.8872 152.938 79.2827 152.876 78.5454 152.819C77.5608 152.74 75.0959 152.387 73.9179 152.153C72.9698 151.951 70.3187 151.251 69.0942 150.873C67.8581 150.457 65.3481 149.51 64.0741 148.98C62.7886 148.41 60.1811 147.156 58.8592 146.471C57.8412 145.933 53.4494 143.19 51.6912 142.011C49.9156 140.768 46.309 138.096 44.4796 136.665C42.6312 135.173 38.8735 131.971 36.98 130.322C35.0517 128.549 31.2198 124.941 29.4718 123.081C28.6239 122.146 11.7933 105.051 11.024 104.104C10.2823 103.153 8.87459 101.236 8.21 100.272C7.57158 99.3035 6.37474 97.3519 5.81486 96.3702C5.28115 95.3843 4.29224 93.3992 3.83706 92.4002C3.40951 91.3982 2.63004 89.3782 2.27957 88.3616C1.95673 87.3422 1.37647 85.2728 1.1467 84.1821C0.935837 83.071 0.605716 80.8388 0.485013 79.7161C0.394849 78.5891 0.304688 76.3233 0.304688 75.1832C0.333772 74.0402 0.483569 71.7426 0.604271 70.5864C0.754059 69.4274 1.14381 67.0947 1.38376 65.9226C1.65425 64.7476 2.28393 62.383 2.64313 61.1949C3.03432 60.0024 3.90396 57.6042 4.38386 56.4001C4.89285 55.1945 5.95155 52.8547 6.50126 51.7248C7.06405 50.621 8.22891 48.492 8.83242 47.4667C9.44757 46.4662 10.7171 44.5481 11.373 43.6276C12.0405 42.7332 13.4162 41.0229 14.123 40.2071C14.8443 39.4189 16.3247 37.9181 17.0853 37.2084C17.8575 36.5235 19.604 35.107 20.257 34.6286C21.3404 33.8564 22.7147 33.0057 23.8417 32.4211C24.8175 31.9179 26.8273 31.0381 27.8627 30.6615C28.8981 30.2877 30.8905 29.7074 32.1251 29.421C33.2245 29.1839 35.4771 28.8218 36.6289 28.6982C37.5567 28.6124 40.1657 28.4961 41.3741 28.4932C42.5986 28.5237 45.0927 28.6808 46.3608 28.8073C48.0462 29.0167 69.1553 45.158 71.6173 45.5681C73.9688 46.0146 78.5614 46.9453 80.8038 47.4281C85.9199 48.6744 89.493 49.6879 89.602 49.7214Z" fill="#002642"/>
<path d="M89.6234 49.5784C90.1876 49.7558 93.5251 50.9367 94.7889 51.3992C97.6872 52.5495 101.729 54.3601 103.782 55.4202C104.78 55.9583 106.693 57.0576 107.608 57.6189C108.831 58.4042 110.202 59.3844 111.002 60.0534C111.801 60.7238 113.299 62.1897 113.999 62.9866C114.699 63.785 116.001 65.5069 116.601 66.4318C117.202 67.3581 118.234 69.2065 118.809 70.3874C119.469 71.7994 119.91 72.9367 120.398 74.4287C120.984 76.3585 121.928 80.4856 122.287 82.683C122.613 84.9196 122.998 89.1835 123.137 92.1662C123.187 94.73 123.11 99.9595 123.001 102.502C122.847 104.987 122.399 109.784 122.108 112.098C121.771 114.354 120.958 118.693 120.483 120.777C120.346 121.359 119.319 124.472 118.87 125.7C118.403 126.899 117.41 129.223 116.883 130.346C116.339 131.441 115.193 133.556 114.591 134.574C113.97 135.564 112.67 137.469 111.993 138.382C111.295 139.268 109.848 140.962 109.1 141.769C108.335 142.55 106.759 144.039 105.939 144.734C105.111 145.415 103.398 146.684 102.511 147.273C101.617 147.849 99.7682 148.907 98.8157 149.389C97.866 149.853 96.0308 150.544 95.103 150.855C94.1621 151.143 92.2439 151.651 91.2652 151.869C90.2763 152.064 88.2578 152.385 87.2311 152.512C86.1914 152.615 84.0754 152.752 82.9978 152.785C81.9086 152.795 79.304 152.733 78.5667 152.676C77.5822 152.597 75.1172 152.244 73.9393 152.01C72.9911 151.808 70.34 151.108 69.1156 150.73C67.8794 150.314 65.3694 149.368 64.0955 148.837C62.8099 148.267 60.2024 147.013 58.8805 146.328C57.8626 145.79 53.4707 143.047 51.7125 141.868C49.9369 140.625 46.3304 137.953 44.5009 136.522C42.6526 135.03 38.8948 131.828 37.0014 130.179C35.073 128.406 31.2411 124.798 29.4931 122.938C28.6453 122.003 27.0281 120.121 26.2588 119.174C25.5172 118.223 24.1095 116.307 23.4449 115.343C22.8064 114.374 21.6096 112.422 21.0497 111.441C20.516 110.455 19.5271 108.47 19.0719 107.471C18.6444 106.469 17.8649 104.449 17.5144 103.432C17.1916 102.413 16.6113 100.343 16.3816 99.2526C16.1707 98.1416 15.8406 95.9093 15.7199 94.7867C15.6297 93.6596 15.5396 91.3939 15.5396 90.2538C15.5686 89.1107 15.7184 86.8131 15.8391 85.657C15.9889 84.4979 16.3787 82.1653 16.6186 80.9932C16.8891 79.8181 17.5188 77.4535 17.878 76.2654C18.2692 75.0729 19.1388 72.6748 19.6187 71.4707C20.1277 70.2651 21.1864 67.9253 21.7361 66.7953C22.2989 65.6916 23.4638 63.5625 24.0673 62.5373C24.6824 61.5367 25.952 59.6187 26.6079 58.6981C27.2754 57.8038 28.6511 56.0935 29.3578 55.2777C30.0791 54.4895 31.5596 52.9887 32.3201 52.279C33.0924 51.594 34.8389 50.1776 35.4919 49.6991C36.5753 48.9269 37.9495 48.0762 39.0766 47.4916C40.0524 46.9884 42.0621 46.1087 43.0976 45.732C44.133 45.3583 46.1253 44.778 47.36 44.4915C48.4594 44.2545 50.712 43.8924 51.8638 43.7688C52.7916 43.683 55.4005 43.5666 56.609 43.5637C57.8335 43.5943 60.3275 43.7513 61.5956 43.8779C63.2811 44.0873 69.1766 45.015 71.6387 45.4251C73.9902 45.8716 78.5827 46.8023 80.8252 47.2851C85.9412 48.5314 89.5143 49.545 89.6234 49.5784Z" fill="#002642"/>
<path d="M322.299 53.8959C321.416 53.7985 319.095 53.7549 318.032 53.8145C316.968 53.8771 314.845 54.1605 313.786 54.383C312.727 54.607 310.614 55.2149 309.561 55.5988C308.507 55.9857 306.365 56.9353 305.357 57.4646C304.32 58.0114 302.361 59.2694 301.445 59.979C300.532 60.6902 298.828 62.2709 298.037 63.1434C297.248 64.016 295.796 65.9239 295.131 66.9564C294.468 67.9933 293.182 70.3812 292.81 71.2698C292.443 72.1714 291.761 74.0358 291.446 75C291.148 75.9845 290.605 78.016 290.36 79.0631C289.903 81.1979 289.232 85.7629 289.019 88.19C288.93 89.4247 288.812 91.9682 288.766 93.2552C288.741 95.8947 288.844 101.028 288.969 103.505C289.144 105.92 289.643 110.569 289.965 112.803C290.152 113.89 290.549 116.033 290.759 117.089C290.988 118.123 291.386 119.788 291.939 121.628C292.353 122.913 293.251 125.395 293.732 126.592C294.234 127.76 295.304 130.007 295.873 131.087C296.579 132.348 297.701 134.157 298.361 135.113C299.033 136.052 300.299 137.643 301.189 138.67C301.938 139.487 303.48 141.039 304.272 141.772C305.075 142.484 306.733 143.811 307.587 144.423C308.447 145.023 310.22 146.123 311.132 146.623C312.051 147.11 313.766 147.914 315.024 148.351C316.072 148.713 318.089 149.267 319.337 149.537C320.448 149.759 322.722 150.087 323.884 150.193C325.055 150.282 327.449 150.337 328.667 150.318C329.899 150.268 332.37 150.068 333.578 149.921C334.768 149.745 337.096 149.309 338.225 149.033C339.343 148.742 341.514 148.054 342.567 147.656C343.614 147.249 345.503 146.376 346.607 145.788C347.343 145.391 349.357 143.992 350.215 143.313C351.069 142.625 352.706 141.151 353.49 140.363C354.265 139.561 355.744 137.86 356.449 136.96C357.005 136.227 358.461 134.108 359.092 133.102C359.701 132.079 360.806 129.984 361.302 128.91C361.782 127.828 362.627 125.614 362.992 124.481C363.341 123.341 363.926 121.007 364.16 119.814C364.336 118.854 364.698 116.203 364.762 115.126C364.807 114.083 364.829 111.971 364.807 110.904C364.762 109.826 364.606 107.645 364.494 106.541C364.227 104.318 363.377 99.7454 362.797 97.3982C362.172 95.0351 360.67 90.3772 359.814 88.1493C358.927 85.9475 356.938 81.723 355.834 79.7002C355.268 78.7025 353.75 76.1969 353.474 75.7853C353.154 75.3098 351.307 72.8404 350.549 71.8922C349.776 70.9615 348.176 69.1495 347.35 68.2697C346.508 67.4058 344.77 65.7292 343.876 64.9162C342.964 64.1208 341.09 62.5792 340.127 61.8332C339.147 61.1046 337.169 59.7333 336.18 59.1007C335.19 58.503 333.209 57.4109 332.219 56.9164C331.228 56.4496 329.246 55.6366 328.254 55.2905C326.271 54.6186 323.087 53.9832 322.299 53.8959Z" fill="#212121"/>
<path d="M87.6864 53.8959C88.5691 53.7985 90.8901 53.7549 91.9532 53.8145C93.0177 53.8771 95.1409 54.1605 96.1996 54.383C97.2583 54.607 99.3713 55.2149 100.424 55.5988C101.479 55.9857 103.621 56.9353 104.628 57.4646C105.665 58.0114 107.624 59.2694 108.54 59.979C109.454 60.6902 111.158 62.2709 111.949 63.1434C112.737 64.016 114.19 65.9239 114.855 66.9564C115.518 67.9933 116.803 70.3812 117.176 71.2698C117.542 72.1714 118.224 74.0358 118.54 75C118.838 75.9845 119.38 78.016 119.626 79.0631C120.083 81.1979 120.753 85.7629 120.967 88.19C121.056 89.4247 121.173 91.9682 121.22 93.2552C121.245 95.8947 121.141 101.028 121.016 103.505C120.842 105.92 120.343 110.569 120.02 112.803C119.834 113.89 119.437 116.033 119.226 117.089C118.998 118.123 118.599 119.788 118.047 121.628C117.632 122.913 116.735 125.395 116.254 126.592C115.752 127.76 114.682 130.007 114.113 131.087C113.406 132.348 112.285 134.157 111.625 135.113C110.953 136.052 109.686 137.643 108.796 138.67C108.047 139.487 106.506 141.039 105.713 141.772C104.911 142.484 103.253 143.811 102.399 144.423C101.538 145.023 99.7654 146.123 98.8536 146.623C97.9345 147.11 96.2199 147.914 94.962 148.351C93.9135 148.713 91.8965 149.267 90.6487 149.537C89.5377 149.759 87.2632 150.087 86.1013 150.193C84.9306 150.282 82.5369 150.337 81.3182 150.318C80.0865 150.268 77.6157 150.068 76.4072 149.921C75.2177 149.745 72.8894 149.309 71.7609 149.033C70.6426 148.742 68.4714 148.054 67.4185 147.656C66.3715 147.249 64.4824 146.376 63.3786 145.788C62.6428 145.391 60.6286 143.992 59.7706 143.313C58.917 142.625 57.2795 141.151 56.4957 140.363C55.7206 139.561 54.2416 137.86 53.5363 136.96C52.9807 136.227 51.525 134.108 50.8939 133.102C50.2846 132.079 49.1793 129.984 48.6834 128.91C48.2035 127.828 47.3586 125.614 46.9936 124.481C46.6446 123.341 46.06 121.007 45.8258 119.814C45.6499 118.854 45.2878 116.203 45.2238 115.126C45.1787 114.083 45.1569 111.971 45.1787 110.904C45.2238 109.826 45.3794 107.645 45.4914 106.541C45.759 104.318 46.6082 99.7454 47.1885 97.3982C47.8138 95.0351 49.316 90.3772 50.1711 88.1493C51.0582 85.9475 53.0476 81.723 54.1514 79.7002C54.7171 78.7025 56.2353 76.1969 56.5116 75.7853C56.8316 75.3098 58.6785 72.8404 59.4362 71.8922C60.2098 70.9615 61.8095 69.1495 62.6355 68.2697C63.4775 67.4058 65.2153 65.7292 66.1097 64.9162C67.0215 64.1208 68.896 62.5792 69.8587 61.8332C70.8389 61.1046 72.8167 59.7333 73.8056 59.1007C74.7959 58.503 76.7766 57.4109 77.767 56.9164C78.7573 56.4496 80.7395 55.6366 81.7313 55.2905C83.7148 54.6186 86.8982 53.9832 87.6864 53.8959Z" fill="#212121"/>
<mask id="mask0_4477_536" style="mask-type:alpha" maskUnits="userSpaceOnUse" x="288" y="53" width="77" height="98">
<path d="M322.299 53.8959C321.416 53.7985 319.095 53.7549 318.032 53.8145C316.968 53.8771 314.845 54.1605 313.786 54.383C312.727 54.607 310.614 55.2149 309.561 55.5988C308.507 55.9857 306.365 56.9353 305.357 57.4646C304.32 58.0114 302.361 59.2694 301.445 59.979C300.532 60.6902 298.828 62.2709 298.037 63.1434C297.248 64.016 295.796 65.9239 295.131 66.9564C294.468 67.9933 293.182 70.3812 292.81 71.2698C292.443 72.1714 291.761 74.0358 291.446 75C291.148 75.9845 290.605 78.016 290.36 79.0631C289.903 81.1979 289.232 85.7629 289.019 88.19C288.93 89.4247 288.812 91.9682 288.766 93.2552C288.741 95.8947 288.844 101.028 288.969 103.505C289.144 105.92 289.643 110.569 289.965 112.803C290.152 113.89 290.549 116.033 290.759 117.089C290.988 118.123 291.386 119.788 291.939 121.628C292.353 122.913 293.251 125.395 293.732 126.592C294.234 127.76 295.304 130.007 295.873 131.087C296.579 132.348 297.701 134.157 298.361 135.113C299.033 136.052 300.299 137.643 301.189 138.67C301.938 139.487 303.48 141.039 304.272 141.772C305.075 142.484 306.733 143.811 307.587 144.423C308.447 145.023 310.22 146.123 311.132 146.623C312.051 147.11 313.766 147.914 315.024 148.351C316.072 148.713 318.089 149.267 319.337 149.537C320.448 149.759 322.722 150.087 323.884 150.193C325.055 150.282 327.449 150.337 328.667 150.318C329.899 150.268 332.37 150.068 333.578 149.921C334.768 149.745 337.096 149.309 338.225 149.033C339.343 148.742 341.514 148.054 342.567 147.656C343.614 147.249 345.503 146.376 346.607 145.788C347.343 145.391 349.357 143.992 350.215 143.313C351.069 142.625 352.706 141.151 353.49 140.363C354.265 139.561 355.744 137.86 356.449 136.96C357.005 136.227 358.461 134.108 359.092 133.102C359.701 132.079 360.806 129.984 361.302 128.91C361.782 127.828 362.627 125.614 362.992 124.481C363.341 123.341 363.926 121.007 364.16 119.814C364.336 118.854 364.698 116.203 364.762 115.126C364.807 114.083 364.829 111.971 364.807 110.904C364.762 109.826 364.606 107.645 364.494 106.541C364.227 104.318 363.377 99.7454 362.797 97.3982C362.172 95.0351 360.67 90.3772 359.814 88.1493C358.927 85.9475 356.938 81.723 355.834 79.7002C355.268 78.7025 353.75 76.1969 353.474 75.7853C353.154 75.3098 351.307 72.8404 350.549 71.8922C349.776 70.9615 348.176 69.1495 347.35 68.2697C346.508 67.4058 344.77 65.7292 343.876 64.9162C342.964 64.1208 341.09 62.5792 340.127 61.8332C339.147 61.1046 337.169 59.7333 336.18 59.1007C335.19 58.503 333.209 57.4109 332.219 56.9164C331.228 56.4496 329.246 55.6366 328.254 55.2905C326.271 54.6186 323.087 53.9832 322.299 53.8959Z" fill="#212121"/>
</mask>
<g mask="url(#mask0_4477_536)">
<path d="M326.788 52.6599C325.961 52.6687 323.59 52.9057 322.508 53.089C321.428 53.2751 319.385 53.7637 318.137 54.1345C317.032 54.4821 314.798 55.3226 313.672 55.7952C312.543 56.3071 310.294 57.4182 309.237 58.0362C308.184 58.6543 306.209 59.9952 305.287 60.7179C304.367 61.4436 302.657 62.9982 301.867 63.8285C301.079 64.6604 299.651 66.4244 299.062 67.3362C298.489 68.2407 297.459 70.1342 297.002 71.1231C296.547 72.1149 295.804 74.0461 295.413 75.256C295.081 76.338 294.575 78.3507 294.293 79.7337C294.085 80.9058 293.752 83.2922 293.617 84.4861C293.505 85.6786 293.344 88.0636 293.296 89.2546C293.269 90.4442 293.281 92.8249 293.319 94.013C293.378 95.2011 293.623 98.2696 293.687 98.764C293.748 99.2294 294.287 102.17 294.527 103.3C295.051 105.557 296.38 110.036 297.187 112.258C297.61 113.368 298.633 115.846 299.008 116.667C299.515 117.738 300.622 119.789 301.223 120.77C301.915 121.863 303.148 123.59 303.859 124.461C304.572 125.332 306.1 126.972 306.916 127.74C307.873 128.639 309.154 129.667 310.284 130.452C311.152 131.037 312.96 132.121 313.902 132.622C314.663 133.013 316.837 133.999 317.858 134.412C318.901 134.799 321.048 135.504 322.155 135.821C323.282 136.115 325.59 136.633 326.758 136.829C327.927 137.006 330.281 137.239 331.468 137.293C332.655 137.329 335.047 137.277 336.25 137.19C337.455 137.083 339.885 136.74 341.105 136.519C342.907 136.143 344.053 135.841 345.646 135.341C346.693 134.989 348.791 134.207 349.845 133.779C350.901 133.324 353.019 132.341 354.082 131.81C356.212 130.701 360.507 128.125 362.671 126.661C364.142 125.631 365.82 124.347 366.744 123.537C367.664 122.727 369.308 121.052 370.029 120.185C370.749 119.32 371.989 117.531 372.511 116.609C373.031 115.686 373.87 113.785 374.191 112.806C374.508 111.827 374.968 109.717 375.051 108.824C375.138 107.847 375.151 105.955 375.075 104.972C374.998 103.988 374.68 101.978 374.44 100.951C374.197 99.926 373.592 97.9685 373.144 96.7644C372.727 95.6941 371.738 93.5141 371.187 92.4103C370.595 91.2949 369.287 89.0336 368.57 87.8877C367.09 85.6452 364.155 81.3115 362.701 79.2189C361.276 77.276 358.446 73.5037 357.056 71.7499C356.368 70.9094 354.998 69.2674 354.317 68.4647C353.587 67.6241 351.566 65.5097 350.542 64.4859C349.528 63.5072 347.529 61.685 346.544 60.8401C345.569 60.0402 343.646 58.5759 342.699 57.9113C341.76 57.2801 339.904 56.1604 338.992 55.6935C338.066 55.2209 336.183 54.4225 335.224 54.0953C334.266 53.771 332.317 53.2664 331.327 53.0875C329.466 52.7545 326.937 52.6585 326.788 52.6599Z" fill="#CFD4E3"/>
</g>
<mask id="mask1_4477_536" style="mask-type:alpha" maskUnits="userSpaceOnUse" x="45" y="53" width="77" height="98">
<path d="M87.6864 53.8959C88.5691 53.7985 90.8901 53.7549 91.9532 53.8145C93.0177 53.8771 95.1409 54.1605 96.1996 54.383C97.2583 54.607 99.3713 55.2149 100.424 55.5988C101.479 55.9857 103.621 56.9353 104.628 57.4646C105.665 58.0114 107.624 59.2694 108.54 59.979C109.454 60.6902 111.158 62.2709 111.949 63.1434C112.737 64.016 114.19 65.9239 114.855 66.9564C115.518 67.9933 116.803 70.3812 117.176 71.2698C117.542 72.1714 118.224 74.0358 118.54 75C118.838 75.9845 119.38 78.016 119.626 79.0631C120.083 81.1979 120.753 85.7629 120.967 88.19C121.056 89.4247 121.173 91.9682 121.22 93.2552C121.245 95.8947 121.141 101.028 121.016 103.505C120.842 105.92 120.343 110.569 120.02 112.803C119.834 113.89 119.437 116.033 119.226 117.089C118.998 118.123 118.599 119.788 118.047 121.628C117.632 122.913 116.735 125.395 116.254 126.592C115.752 127.76 114.682 130.007 114.113 131.087C113.406 132.348 112.285 134.157 111.625 135.113C110.953 136.052 109.686 137.643 108.796 138.67C108.047 139.487 106.506 141.039 105.713 141.772C104.911 142.484 103.253 143.811 102.399 144.423C101.538 145.023 99.7654 146.123 98.8536 146.623C97.9345 147.11 96.2199 147.914 94.962 148.351C93.9135 148.713 91.8965 149.267 90.6487 149.537C89.5377 149.759 87.2632 150.087 86.1013 150.193C84.9306 150.282 82.5369 150.337 81.3182 150.318C80.0865 150.268 77.6157 150.068 76.4072 149.921C75.2177 149.745 72.8894 149.309 71.7609 149.033C70.6426 148.742 68.4714 148.054 67.4185 147.656C66.3715 147.249 64.4824 146.376 63.3786 145.788C62.6428 145.391 60.6286 143.992 59.7706 143.313C58.917 142.625 57.2795 141.151 56.4957 140.363C55.7206 139.561 54.2416 137.86 53.5363 136.96C52.9807 136.227 51.525 134.108 50.8939 133.102C50.2846 132.079 49.1793 129.984 48.6834 128.91C48.2035 127.828 47.3586 125.614 46.9936 124.481C46.6446 123.341 46.06 121.007 45.8258 119.814C45.6499 118.854 45.2878 116.203 45.2238 115.126C45.1787 114.083 45.1569 111.971 45.1787 110.904C45.2238 109.826 45.3794 107.645 45.4914 106.541C45.759 104.318 46.6082 99.7454 47.1885 97.3982C47.8138 95.0351 49.316 90.3772 50.1711 88.1493C51.0582 85.9475 53.0476 81.723 54.1514 79.7002C54.7171 78.7025 56.2353 76.1969 56.5116 75.7853C56.8316 75.3098 58.6785 72.8404 59.4362 71.8922C60.2098 70.9615 61.8095 69.1495 62.6355 68.2697C63.4775 67.4058 65.2153 65.7292 66.1097 64.9162C67.0215 64.1208 68.896 62.5792 69.8587 61.8332C70.8389 61.1046 72.8167 59.7333 73.8056 59.1007C74.7959 58.503 76.7766 57.4109 77.767 56.9164C78.7573 56.4496 80.7395 55.6366 81.7313 55.2905C83.7148 54.6186 86.8982 53.9832 87.6864 53.8959Z" fill="#212121"/>
</mask>
<g mask="url(#mask1_4477_536)">
<path d="M83.1972 52.6599C84.0247 52.6687 86.3951 52.9057 87.4771 53.089C88.5576 53.2751 90.6008 53.7637 91.8486 54.1345C92.9538 54.4821 95.1875 55.3226 96.3131 55.7952C97.4431 56.3071 99.6913 57.4182 100.749 58.0362C101.801 58.6543 103.776 59.9952 104.698 60.7179C105.619 61.4436 107.329 62.9982 108.119 63.8285C108.907 64.6604 110.335 66.4244 110.924 67.3362C111.497 68.2407 112.527 70.1342 112.983 71.1231C113.438 72.1149 114.181 74.0461 114.573 75.256C114.904 76.338 115.41 78.3507 115.692 79.7337C115.9 80.9058 116.233 83.2922 116.369 84.4861C116.481 85.6786 116.642 88.0636 116.69 89.2546C116.716 90.4442 116.705 92.8249 116.667 94.013C116.607 95.2011 116.363 98.2696 116.299 98.764C116.238 99.2294 115.698 102.17 115.458 103.3C114.935 105.557 113.606 110.036 112.798 112.258C112.375 113.368 111.353 115.846 110.978 116.667C110.47 117.738 109.364 119.789 108.763 120.77C108.071 121.863 106.838 123.59 106.126 124.461C105.414 125.332 103.885 126.972 103.07 127.74C102.113 128.639 100.831 129.667 99.7015 130.452C98.8333 131.037 97.0257 132.121 96.0833 132.622C95.3228 133.013 93.1487 133.999 92.1278 134.412C91.0851 134.799 88.9372 135.504 87.8305 135.821C86.7034 136.115 84.3956 136.633 83.2278 136.829C82.0586 137.006 79.7041 137.239 78.5175 137.293C77.3308 137.329 74.9386 137.277 73.7359 137.19C72.5303 137.083 70.1003 136.74 68.8801 136.519C67.0783 136.143 65.9324 135.841 64.34 135.341C63.2929 134.989 61.1945 134.207 60.1401 133.779C59.0844 133.324 56.9669 132.341 55.9039 131.81C53.7734 130.701 49.479 128.125 47.3151 126.661C45.8434 125.631 44.1652 124.347 43.2417 123.537C42.3212 122.727 40.6779 121.052 39.9566 120.185C39.2368 119.32 37.9963 117.531 37.4742 116.609C36.955 115.686 36.1159 113.785 35.7945 112.806C35.4775 111.827 35.018 109.717 34.9351 108.824C34.8478 107.847 34.8348 105.955 34.9104 104.972C34.9875 103.988 35.3059 101.978 35.5459 100.951C35.7887 99.926 36.3937 97.9685 36.8416 96.7644C37.259 95.6941 38.2479 93.5141 38.799 92.4103C39.3909 91.2949 40.6983 89.0336 41.4152 87.8877C42.8957 85.6452 45.8303 81.3115 47.2846 79.2189C48.7097 77.276 51.5397 73.5037 52.93 71.7499C53.6178 70.9094 54.9877 69.2674 55.6683 68.4647C56.3984 67.6241 58.4198 65.5097 59.4435 64.4859C60.4572 63.5072 62.4567 61.685 63.4413 60.8401C64.4171 60.0402 66.3396 58.5759 67.2863 57.9113C68.2257 57.2801 70.0814 56.1604 70.9932 55.6935C71.9195 55.2209 73.8028 54.4225 74.7612 54.0953C75.7195 53.771 77.6682 53.2664 78.6585 53.0875C80.52 52.7545 83.0489 52.6585 83.1972 52.6599Z" fill="#CFD4E3"/>
</g>
<path d="M324.593 56.0118C323.583 55.8518 321.131 55.7427 320 55.8067C318.87 55.8736 316.642 56.2371 315.547 56.5338C314.451 56.8348 312.301 57.6609 311.232 58.1931C310.179 58.721 308.18 59.9339 307.246 60.6087C306.316 61.2864 304.581 62.7843 303.776 63.6059C302.975 64.4276 301.359 66.385 300.823 67.1819C300.405 67.8087 299.345 69.7457 298.831 70.8248C298.388 71.7919 297.591 73.8132 297.235 74.869C296.898 75.9422 296.299 78.1658 296.035 79.3147C295.797 80.4883 295.396 82.8994 295.231 84.1093C295.092 85.3178 294.885 87.7305 294.818 88.9346C294.776 90.1372 294.764 92.5381 294.795 93.7364C294.85 94.9333 295.09 97.9654 295.163 98.5166C295.231 99.0343 295.774 101.95 296.022 103.087C296.293 104.223 296.902 106.481 297.241 107.607C297.602 108.728 298.391 110.961 298.819 112.072C299.27 113.18 300.238 115.382 300.759 116.456C301.297 117.511 302.457 119.525 303.081 120.484C303.717 121.431 305.066 123.236 305.791 124.082C306.518 124.927 308.066 126.511 308.89 127.25C309.721 127.984 311.503 129.309 312.444 129.912C313.386 130.514 315.364 131.601 316.398 132.088C317.299 132.51 319.603 133.42 320.726 133.797C321.861 134.159 324.217 134.772 325.42 135.037C326.614 135.274 328.97 135.617 330.13 135.723C331.435 135.824 333.564 135.865 334.682 135.814C335.799 135.761 337.996 135.507 339.074 135.308C340.364 135.065 342.409 134.438 343.312 134.096C344.347 133.702 346.374 132.761 347.363 132.216C348.352 131.668 350.282 130.423 351.224 129.725C352.043 129.117 354.169 127.318 354.889 126.627C355.76 125.787 357.322 124.001 358.008 123.061C358.692 122.122 359.87 120.15 360.364 119.116C360.857 118.082 361.653 115.92 361.957 114.791C362.291 113.538 362.598 111.475 362.673 110.6C362.758 109.594 362.797 107.656 362.755 106.457C362.701 105.388 362.473 103.195 362.313 102.078C362.121 100.947 361.638 98.6402 361.349 97.4637C360.735 95.2009 359.049 90.2754 358.132 87.9951C357.188 85.7483 355.103 81.4801 353.963 79.4573C353.378 78.4611 351.902 76.0993 351.487 75.5176C350.737 74.4822 349.184 72.4796 348.383 71.5126C347.564 70.5673 345.877 68.7423 345.007 67.8639C344.122 67.0073 342.299 65.3612 341.364 64.5715C340.41 63.8051 338.457 62.3392 337.474 61.6528C336.496 61.0042 334.55 59.8176 333.583 59.2796C332.619 58.7691 330.58 57.8208 329.754 57.4965C327.856 56.7549 325.09 56.0917 324.593 56.0118Z" fill="#A1AAC4"/>
<path d="M85.3931 56.0118C86.4023 55.8518 88.8542 55.7427 89.9856 55.8067C91.1156 55.8736 93.3434 56.2371 94.4385 56.5338C95.535 56.8348 97.6844 57.6609 98.7533 58.1931C99.8062 58.721 101.806 59.9339 102.739 60.6087C103.67 61.2864 105.405 62.7843 106.209 63.6059C107.011 64.4276 108.626 66.385 109.163 67.1819C109.58 67.8087 110.64 69.7457 111.155 70.8248C111.597 71.7919 112.394 73.8132 112.75 74.869C113.088 75.9422 113.687 78.1658 113.95 79.3147C114.189 80.4883 114.59 82.8994 114.754 84.1093C114.894 85.3178 115.1 87.7305 115.167 88.9346C115.21 90.1372 115.221 92.5381 115.191 93.7364C115.135 94.9333 114.895 97.9654 114.823 98.5166C114.754 99.0343 114.212 101.95 113.963 103.087C113.693 104.223 113.083 106.481 112.745 107.607C112.384 108.728 111.594 110.961 111.167 112.072C110.716 113.18 109.747 115.382 109.227 116.456C108.689 117.511 107.528 119.525 106.904 120.484C106.269 121.431 104.919 123.236 104.195 124.082C103.468 124.927 101.919 126.511 101.096 127.25C100.264 127.984 98.4828 129.309 97.5419 129.912C96.5995 130.514 94.6218 131.601 93.5878 132.088C92.6861 132.51 90.3826 133.42 89.2599 133.797C88.1242 134.159 85.7683 134.772 84.5656 135.037C83.3717 135.274 81.0158 135.617 79.8553 135.723C78.5508 135.824 76.4218 135.865 75.3035 135.814C74.1867 135.761 71.9893 135.507 70.9117 135.308C69.6217 135.065 67.5771 134.438 66.674 134.096C65.6386 133.702 63.6113 132.761 62.6224 132.216C61.6336 131.668 59.7038 130.423 58.7614 129.725C57.9427 129.117 55.8166 127.318 55.0967 126.627C54.2256 125.787 52.6638 124.001 51.9773 123.061C51.2938 122.122 50.1159 120.15 49.6215 119.116C49.1285 118.082 48.333 115.92 48.0291 114.791C47.6946 113.538 47.3878 111.475 47.3121 110.6C47.2278 109.594 47.1885 107.656 47.2307 106.457C47.2845 105.388 47.5128 103.195 47.6728 102.078C47.8648 100.947 48.3475 98.6402 48.6369 97.4637C49.2506 95.2009 50.9361 90.2754 51.8538 87.9951C52.7976 85.7483 54.8829 81.4801 56.0231 79.4573C56.6077 78.4611 58.0837 76.0993 58.4982 75.5176C59.2486 74.4822 60.8017 72.4796 61.603 71.5126C62.4218 70.5673 64.1087 68.7423 64.9784 67.8639C65.864 67.0073 67.6861 65.3612 68.6212 64.5715C69.5752 63.8051 71.5283 62.3392 72.5113 61.6528C73.49 61.0042 75.4358 59.8176 76.4029 59.2796C77.3671 58.7691 79.4059 57.8208 80.2319 57.4965C82.1297 56.7549 84.8957 56.0917 85.3931 56.0118Z" fill="#A1AAC4"/>
<path d="M280.066 54.1665C280.031 54.165 278.211 54.7467 278.077 54.7743C276.55 55.0259 276.086 55.0754 274.677 55.0696C273.324 55.0536 271.582 54.8775 270.22 54.5954C269.159 54.3947 267.017 54.0792 265.983 53.9425C264.526 53.7811 254.809 53.2488 252.463 53.1034C250.849 52.9841 249.148 52.5668 248.324 52.3574C246.432 51.9138 242.483 50.4524 240.508 49.718C238.12 48.8992 234.772 47.8986 232.29 47.2805C230.215 46.821 225.881 46.2233 223.877 45.9703C221.22 45.6925 217.32 45.409 215.918 45.4497C214.926 45.4802 213.047 45.803 212.223 46.0619C211.439 46.312 209.966 47.0828 209.33 47.5583C208.673 48.0557 207.576 49.2409 207.142 49.952C206.712 50.6602 206.134 52.228 205.959 53.1369C205.789 54.0371 205.699 56.0919 205.759 57.3411C205.805 58.2457 206.019 59.9704 206.195 60.8313C206.446 62.0544 207.076 63.9783 207.537 64.8494C207.982 65.6812 209.172 67.1762 209.957 67.9949C210.656 68.7206 212.326 70.0527 213.161 70.5865C214.088 71.1769 215.928 72.1308 217.038 72.5656C218.128 72.9917 219.705 73.4629 221.032 73.793C222.04 74.033 224.236 74.3893 225.32 74.4605C226.847 74.5361 231.5 74.6336 233.026 74.8837C233.971 75.0466 238.7 76.463 240.591 77.0418C243.949 78.0191 251.313 79.8077 253.535 80.481C255.779 81.2125 260.988 83.2601 261.913 83.6542C262.704 83.996 267.791 86.5642 269.863 87.6723C271.112 88.3587 274.956 90.5867 276.873 91.6309C277.777 92.0919 279.466 92.9426 280.248 93.3338C281.225 93.8137 286.686 95.8903 289.174 96.8254C291.316 97.6194 294.271 98.7057 297.085 99.5652C299.43 100.259 303.864 101.534 305.953 102.117C307.165 102.465 310.54 103.8 311.407 104.14C311.693 104.258 311.797 104.373 311.859 104.498C311.73 104.577 311.725 104.694 311.877 104.962C312.055 105.278 312.576 106.063 312.81 106.419C312.988 106.691 315.176 112.091 315.882 113.426C316.382 114.365 317.49 115.914 318.125 116.596C318.73 117.242 320.122 118.428 321.028 119.026C321.819 119.544 323.537 120.402 324.607 120.823C325.308 121.097 327.297 121.578 328.19 121.702C329.198 121.84 331.41 121.937 332.492 121.885C333.456 121.837 335.808 121.549 336.791 121.337C337.748 121.129 339.622 120.534 340.463 120.198C341.264 119.877 342.931 119.006 343.675 118.463C344.045 118.191 344.577 117.719 344.933 117.359C345.177 117.109 345.477 116.698 345.829 116.145C346.142 115.646 346.648 114.052 346.736 113.2C346.815 112.413 346.588 110.495 346.45 109.515C346.15 107.633 345.38 104.472 344.529 101.38C343.251 96.7135 340.746 88.4882 340.031 86.2835C339.327 84.2519 337.897 80.9523 336.817 78.7491C335.88 76.8702 333.937 72.9801 332.93 70.9689C332.565 70.2738 329.573 64.9425 328.51 63.353C328.106 62.7596 324.658 58.0522 323.131 56.2489C322.007 54.9837 320.673 53.6472 319.828 52.8503C318.23 51.4179 314.008 48.1546 312.847 47.4304C311.772 46.7629 309.772 45.7143 308.844 45.3348C307.883 44.945 305.929 44.3969 304.906 44.2645C303.875 44.1337 301.618 44.1191 300.567 44.314C299.35 44.5466 297.28 45.3232 296.115 45.8976C293.469 47.2108 285.398 52.4169 284.343 52.9347C283.89 53.1557 282.78 53.595 282.291 53.7841C281.878 53.944 280.882 54.2348 280.363 54.1985C280.264 54.1897 280.165 54.1723 280.066 54.1665Z" fill="#A1AAC4"/>
<path d="M129.919 54.1665C129.954 54.165 131.775 54.7467 131.909 54.7743C133.436 55.0259 133.9 55.0754 135.309 55.0696C136.661 55.0536 138.403 54.8775 139.766 54.5954C140.826 54.3947 142.968 54.0792 144.002 53.9425C145.459 53.7811 155.177 53.2488 157.522 53.1034C159.137 52.9841 160.838 52.5668 161.661 52.3574C163.553 51.9138 167.503 50.4524 169.478 49.718C171.866 48.8992 175.213 47.8986 177.696 47.2805C179.771 46.821 184.105 46.2233 186.109 45.9703C188.765 45.6925 192.666 45.409 194.068 45.4497C195.059 45.4802 196.938 45.803 197.763 46.0619C198.547 46.312 200.02 47.0828 200.655 47.5583C201.313 48.0557 202.409 49.2409 202.844 49.952C203.273 50.6602 203.852 52.228 204.026 53.1369C204.197 54.0371 204.287 56.0919 204.227 57.3411C204.181 58.2457 203.967 59.9704 203.791 60.8313C203.539 62.0544 202.91 63.9783 202.449 64.8494C202.004 65.6812 200.814 67.1762 200.029 67.9949C199.329 68.7206 197.66 70.0527 196.825 70.5865C195.897 71.1769 194.058 72.1308 192.948 72.5656C191.857 72.9917 190.281 73.4629 188.953 73.793C187.945 74.033 185.749 74.3893 184.666 74.4605C183.139 74.5361 178.485 74.6336 176.96 74.8837C176.015 75.0466 171.285 76.463 169.395 77.0418C166.037 78.0191 158.673 79.8077 156.451 80.481C154.207 81.2125 148.998 83.2601 148.073 83.6542C147.282 83.996 142.195 86.5642 140.122 87.6723C138.873 88.3587 135.03 90.5867 133.113 91.6309C132.208 92.0919 130.52 92.9426 129.738 93.3338C128.76 93.8137 123.3 95.8903 120.811 96.8254C118.669 97.6194 115.714 98.7057 112.9 99.5652C110.556 100.259 106.122 101.534 104.032 102.117C102.821 102.465 99.4455 103.8 98.5788 104.14C98.2923 104.258 98.1891 104.373 98.1265 104.498C98.256 104.577 98.2603 104.694 98.1091 104.962C97.9302 105.278 97.4096 106.063 97.1754 106.419C96.998 106.691 94.8094 112.091 94.104 113.426C93.6038 114.365 92.4957 115.914 91.8602 116.596C91.2552 117.242 89.8635 118.428 88.9575 119.026C88.1664 119.544 86.4489 120.402 85.3786 120.823C84.6776 121.097 82.6882 121.578 81.7953 121.702C80.7875 121.84 78.5756 121.937 77.4936 121.885C76.5295 121.837 74.178 121.549 73.1949 121.337C72.238 121.129 70.3635 120.534 69.5229 120.198C68.7216 119.877 67.055 119.006 66.3105 118.463C65.9411 118.191 65.4088 117.719 65.0526 117.359C64.8082 117.109 64.5086 116.698 64.1567 116.145C63.844 115.646 63.338 114.052 63.2493 113.2C63.1707 112.413 63.3976 110.495 63.5357 109.515C63.8353 107.633 64.6061 104.472 65.4568 101.38C66.7351 96.7135 69.2393 88.4882 69.9548 86.2835C70.6587 84.2519 72.0882 80.9523 73.1687 78.7491C74.1052 76.8702 76.0481 72.9801 77.0559 70.9689C77.4209 70.2738 80.4123 64.9425 81.4754 63.353C81.8797 62.7596 85.3277 58.0522 86.8546 56.2489C87.9788 54.9837 89.3123 53.6472 90.1572 52.8503C91.7555 51.4179 95.9771 48.1546 97.1391 47.4304C98.2138 46.7629 100.213 45.7143 101.141 45.3348C102.102 44.945 104.057 44.3969 105.079 44.2645C106.11 44.1337 108.367 44.1191 109.419 44.314C110.636 44.5466 112.705 45.3232 113.87 45.8976C116.517 47.2108 124.588 52.4169 125.642 52.9347C126.096 53.1557 127.206 53.595 127.694 53.7841C128.107 53.944 129.103 54.2348 129.623 54.1985C129.722 54.1897 129.82 54.1723 129.919 54.1665Z" fill="#A1AAC4"/>
<rect x="154.452" y="15.6055" width="101.424" height="172.42" rx="8" fill="#212121"/>
<rect x="158.509" y="19.6626" width="93.3097" height="164.306" rx="8" fill="#E02D43"/>
<path d="M176.765 17.6339C176.765 17.0737 177.219 16.6196 177.779 16.6196H232.548C233.108 16.6196 233.562 17.0737 233.562 17.6339V23.8047C233.562 27.1184 230.876 29.8047 227.562 29.8047H182.765C179.451 29.8047 176.765 27.1184 176.765 23.8047V17.6339Z" fill="#212121"/>
<mask id="mask2_4477_536" style="mask-type:alpha" maskUnits="userSpaceOnUse" x="158" y="19" width="94" height="165">
<rect x="158.509" y="19.6624" width="93.3097" height="164.306" rx="8" fill="#E02D43"/>
</mask>
<g mask="url(#mask2_4477_536)">
<circle cx="203.136" cy="101.815" r="63.8968" fill="url(#paint0_radial_4477_536)"/>
</g>
<mask id="mask3_4477_536" style="mask-type:alpha" maskUnits="userSpaceOnUse" x="163" y="63" width="84" height="78">
<path d="M199.759 76.4508C199.145 76.6491 196.063 78.0307 195.114 78.5069C193.603 79.2969 191.531 80.4863 190.331 81.2181C189.218 81.9384 186.949 83.5004 185.802 84.343C184.364 85.4386 182.521 86.9506 181.487 87.837C180.475 88.7351 178.197 90.8654 177.506 91.5562C176.56 92.5347 174.763 94.4237 173.912 95.3343C172.849 96.5442 168.464 102.134 166.534 104.577C165.607 105.721 164.319 107.307 163.959 107.749C163.905 107.866 163.745 108.186 163.74 108.196C163.658 108.39 163.64 108.671 163.691 108.869C163.752 109.089 164.488 110.064 164.958 110.496C165.488 110.979 167.126 112.208 167.652 112.591C169.409 113.811 173.64 116.592 174.284 117.015C174.857 117.669 176.319 119.332 177.206 120.341C177.72 120.906 178.806 121.946 179.588 122.634C180.276 123.207 181.765 124.355 182.319 124.756C183.235 125.397 186.028 127.162 187.411 127.964C188.839 128.745 191.49 130.178 192.712 130.829C193.69 131.338 195.637 132.353 197.47 133.052C197.708 133.145 198.139 133.314 198.331 133.39C198.666 133.523 199.101 133.749 199.33 133.868C199.56 133.99 199.705 134.133 199.819 134.247C200.232 134.83 201.11 135.949 201.295 136.174C201.776 136.755 202.61 137.565 203.287 138.102C203.773 138.478 204.944 139.324 205.282 139.517C205.585 139.689 206.194 139.961 206.454 140.077C206.931 140.288 207.089 140.342 207.138 140.315L207.375 139.714C207.375 139.715 208.029 136.428 208.393 134.623C208.895 132.212 210.082 126.516 210.769 123.231C211.431 120.069 212.573 114.654 213.051 112.4C213.264 111.493 214.049 108.543 214.381 107.543C214.539 107.09 214.714 106.632 214.82 106.404C214.82 106.404 214.92 106.108 214.996 106.076C215.049 106.057 215.531 106.392 216.047 106.66C216.502 106.892 217.481 107.242 218.2 107.424C219.663 107.779 221.149 107.857 222.028 107.87C222.337 107.874 223.125 107.767 223.175 107.764C223.582 107.748 225.206 108.09 225.687 108.279C226.289 108.517 227.458 109.232 228.058 109.693C230.281 111.391 234.687 114.742 236.868 116.396C237.292 116.709 238.185 117.379 238.17 117.397C238.197 117.418 238.141 117.733 238.374 118.183C238.519 118.454 238.909 118.806 239.111 118.93C239.349 119.073 239.924 119.309 240.244 119.393C240.881 119.557 241.776 119.564 242.641 119.5C243.301 119.441 244.166 119.226 244.312 119.132C244.576 118.958 245.271 118.235 245.537 117.819C245.789 117.417 246.261 116.465 246.494 115.779C246.705 115.129 246.869 113.927 246.87 113.45C246.87 113.269 246.841 112.453 246.742 112.183C246.732 112.158 246.707 112.104 246.665 112.021C246.632 111.957 246.554 111.802 246.516 111.759C246.475 111.712 246.439 111.613 246.392 111.429C246.392 111.429 246.682 110.458 246.612 109.674C246.573 109.261 246.191 108.211 245.921 107.642C245.769 107.326 245.543 107.007 245.244 106.645C244.93 106.274 244.562 105.891 244.423 105.78C244.395 105.756 244.239 105.654 244.216 105.63C243.935 105.328 243.464 104.416 243.231 103.97C242.559 102.67 241.142 99.973 240.397 98.5772C239.658 97.26 238.076 94.6275 237.35 93.5015C235.431 90.5107 234.046 88.1918 233.976 87.9576C233.943 87.8433 233.602 86.124 233.455 85.4413C233.27 84.6084 232.834 83.3511 232.546 82.916C232.391 82.6845 232.088 82.37 231.858 82.1975C230.727 81.3709 228.522 79.7651 227.447 78.9859C226.592 78.372 225.538 77.6804 224.893 77.3149C224.331 76.9977 222.898 76.3051 222.092 76.0058C221.304 75.7135 219.898 75.3302 218.914 75.1336C217.776 74.9048 216.548 74.6591 216.459 74.6403C215.493 74.1194 212.878 72.6994 211.72 71.8943C211.265 71.5771 209.874 70.4914 209.303 70.007C208.736 69.503 207.644 68.4566 207.113 67.9348C206.647 67.4558 205.766 66.5291 205.219 65.9179C204.477 65.0636 203.341 63.3774 203.236 63.2219C203.076 63.7214 202.953 64.7544 202.901 65.749C202.87 66.6131 202.887 67.3173 202.973 68.0733C203.076 68.8873 203.401 70.1589 203.596 70.6638C203.819 71.2348 204.33 72.14 204.874 72.9121C205.318 73.5367 206.109 74.2311 206.885 74.7994C206.936 74.8378 206.987 74.8754 207.04 74.9138C206.494 74.9817 205.327 75.1407 204.643 75.2542C203.975 75.3784 202.572 75.643 202.113 75.7645C201.429 75.9584 199.907 76.4034 199.759 76.4508Z" fill="#D9D9D9"/>
</mask>
<g mask="url(#mask3_4477_536)">
<path d="M199.759 76.4508C199.145 76.6491 196.063 78.0307 195.114 78.5069C193.603 79.2969 191.531 80.4863 190.331 81.2181C189.218 81.9384 186.949 83.5004 185.802 84.343C184.364 85.4386 182.521 86.9506 181.487 87.837C180.475 88.7351 178.197 90.8654 177.506 91.5562C176.56 92.5347 174.763 94.4237 173.912 95.3343C172.849 96.5442 168.464 102.134 166.534 104.577C165.607 105.721 164.319 107.307 163.959 107.749C163.905 107.866 163.745 108.186 163.74 108.196C163.658 108.39 163.64 108.671 163.691 108.869C163.752 109.089 164.488 110.064 164.958 110.496C165.488 110.979 167.126 112.208 167.652 112.591C169.409 113.811 173.64 116.592 174.284 117.015C174.857 117.669 176.319 119.332 177.206 120.341C177.72 120.906 178.806 121.946 179.588 122.634C180.276 123.207 181.765 124.355 182.319 124.756C183.235 125.397 186.028 127.162 187.411 127.964C188.839 128.745 191.49 130.178 192.712 130.829C193.69 131.338 195.637 132.353 197.47 133.052C197.708 133.145 198.139 133.314 198.331 133.39C198.666 133.523 199.101 133.749 199.33 133.868C199.56 133.99 199.705 134.133 199.819 134.247C200.232 134.83 201.11 135.949 201.295 136.174C201.776 136.755 202.61 137.565 203.287 138.102C203.773 138.478 204.944 139.324 205.282 139.517C205.585 139.689 206.194 139.961 206.454 140.077C206.931 140.288 207.089 140.342 207.138 140.315L207.375 139.714C207.375 139.714 208.029 136.428 208.393 134.623C208.895 132.212 210.082 126.516 210.769 123.231C211.431 120.069 212.573 114.654 213.051 112.4C213.264 111.493 214.049 108.543 214.381 107.543C214.539 107.09 214.714 106.632 214.82 106.404C214.82 106.404 214.92 106.108 214.996 106.076C215.049 106.057 215.531 106.392 216.047 106.66C216.502 106.892 217.481 107.242 218.2 107.424C219.663 107.779 221.149 107.857 222.028 107.87C222.337 107.874 223.125 107.767 223.175 107.764C223.582 107.748 225.206 108.09 225.687 108.279C226.289 108.517 227.458 109.232 228.058 109.693C230.281 111.391 234.687 114.742 236.868 116.396C237.292 116.709 238.185 117.379 238.17 117.397C238.197 117.418 238.141 117.733 238.374 118.183C238.519 118.454 238.909 118.806 239.111 118.93C239.349 119.073 239.924 119.309 240.244 119.393C240.881 119.557 241.776 119.564 242.641 119.5C243.301 119.441 244.166 119.226 244.312 119.132C244.576 118.958 245.271 118.235 245.537 117.819C245.789 117.417 246.261 116.465 246.494 115.779C246.705 115.129 246.869 113.927 246.87 113.45C246.87 113.269 246.841 112.453 246.742 112.183C246.732 112.158 246.707 112.104 246.665 112.021C246.632 111.957 246.554 111.802 246.516 111.759C246.475 111.712 246.439 111.613 246.392 111.429C246.392 111.429 246.682 110.458 246.612 109.674C246.573 109.261 246.191 108.211 245.921 107.642C245.769 107.326 245.543 107.007 245.244 106.645C244.93 106.274 244.562 105.891 244.423 105.78C244.395 105.756 244.239 105.654 244.216 105.63C243.935 105.328 243.464 104.416 243.231 103.97C242.559 102.67 241.142 99.973 240.397 98.5772C239.658 97.26 238.076 94.6275 237.35 93.5015C235.431 90.5107 234.046 88.1918 233.976 87.9576C233.943 87.8433 233.602 86.124 233.455 85.4413C233.27 84.6084 232.834 83.3511 232.546 82.916C232.391 82.6845 232.088 82.37 231.858 82.1975C230.727 81.3709 228.522 79.7651 227.447 78.9859C226.592 78.372 225.538 77.6804 224.893 77.3149C224.331 76.9977 222.898 76.3051 222.092 76.0058C221.304 75.7135 219.898 75.3302 218.914 75.1336C217.776 74.9048 216.548 74.6591 216.459 74.6403C215.493 74.1194 212.878 72.6994 211.72 71.8943C211.265 71.5771 209.874 70.4914 209.303 70.007C208.736 69.503 207.644 68.4566 207.113 67.9348C206.647 67.4558 205.766 66.5291 205.219 65.9179C204.477 65.0636 203.341 63.3774 203.236 63.2219C203.076 63.7214 202.953 64.7544 202.901 65.749C202.87 66.6131 202.887 67.3173 202.973 68.0733C203.076 68.8873 203.401 70.1589 203.596 70.6638C203.819 71.2348 204.33 72.14 204.874 72.9121C205.318 73.5367 206.109 74.2311 206.885 74.7994C206.936 74.8378 206.987 74.8754 207.04 74.9138C206.494 74.9817 205.327 75.1407 204.643 75.2542C203.975 75.3784 202.572 75.643 202.113 75.7645C201.429 75.9584 199.907 76.4034 199.759 76.4508Z" fill="#E6EAF7"/>
<path d="M212.374 105.519C212.07 105.447 211.47 105.203 211.196 105.037C210.705 104.734 209.676 103.771 209.233 103.259C208.741 102.688 208.039 101.608 207.735 101.028C207.432 100.447 206.939 99.2786 206.73 98.5977C206.54 97.9731 206.254 96.6363 206.173 95.9848C206.083 95.1958 206.006 93.8634 206.027 93.2066C206.054 92.4301 206.221 91.6714 206.464 90.6885C206.449 91.6991 206.461 92.6338 206.549 93.4274C206.592 93.8107 206.832 95.3486 207.015 95.9902C207.287 96.9606 207.585 97.9204 207.716 98.2975C207.975 99.007 208.358 99.8943 208.598 100.344C208.886 100.883 209.511 101.824 209.875 102.268C210.26 102.738 211.312 103.795 211.725 104.139C211.826 104.222 212.522 104.775 212.761 104.94C213.255 105.276 214.166 105.668 214.266 105.712C213.226 105.646 212.668 105.586 212.374 105.519Z" fill="#B0B7CB"/>
<path d="M229.057 91.9314C228.842 91.4453 228.309 90.2559 227.992 89.5527C227.559 88.6573 227.132 87.8512 226.701 87.1283C226.263 86.4215 225.808 85.8353 225.662 85.6494C225.552 86.2499 225.284 87.7351 225.265 88.4428C225.257 88.8074 225.313 89.5375 225.371 89.8172C225.441 90.1469 225.741 90.6804 225.991 90.9243C226.208 91.1299 226.809 91.4953 227.174 91.6419C227.347 91.7107 228.175 91.9877 228.454 92.0744C228.626 92.1316 228.773 92.12 228.923 92.0351C228.955 92.0163 229 91.9815 229.057 91.9314Z" fill="#840032"/>
<path d="M243.213 111.416C243.209 111.407 243.037 111.119 242.995 110.93C242.918 110.565 242.957 109.097 243.06 108.782C243.138 108.557 243.247 108.321 243.333 108.21C243.412 108.113 243.59 107.998 243.683 107.981C243.775 107.968 243.965 108.02 244.064 108.084C244.26 108.216 244.543 108.656 244.626 108.877C244.783 109.313 244.744 110.065 244.674 110.244C244.559 110.351 244.454 110.693 244.406 111.155C244.37 111.509 244.308 111.686 244.132 111.818C244.031 111.889 243.912 111.901 243.763 111.862C243.7 111.844 243.471 111.772 243.411 111.738C243.343 111.698 243.247 111.487 243.213 111.416Z" fill="#031828"/>
<path d="M206.938 74.9323C206.42 75.1342 205.73 75.4312 204.985 75.8121C204.019 76.3065 203.218 76.8225 202.598 77.2345C201.394 78.0557 199.209 79.7348 198.085 80.657C197.098 81.5175 194.874 83.5853 194.14 84.335C193.23 85.2992 191.424 87.3089 190.559 88.3169C189.671 89.3883 188.172 91.2175 187.025 92.7143C186.166 93.8742 184.752 95.8035 183.862 97.1179C183.194 98.1366 181.737 100.692 181.138 101.808C180.459 103.113 179.106 105.761 178.432 107.105C177.787 108.46 176.539 111.164 175.937 112.516C175.44 113.683 174.403 116.189 173.865 117.525C173.441 118.651 172.43 121.543 172.374 121.619C172.257 121.77 171.832 121.804 171.651 121.77C171.324 121.705 170.201 121.22 169.538 120.832C169.228 120.651 167.98 119.812 167.48 119.447C166.731 118.885 164.746 117.14 163.369 115.845C162.318 114.843 160.335 112.889 159.431 111.998C159.064 111.629 158.774 111.261 158.644 111.032C158.422 110.627 158.162 109.53 158.125 108.984C158.093 108.492 158.188 107.234 158.311 106.52C158.417 105.908 158.74 104.668 158.991 103.974C159.346 103.027 159.582 102.49 159.972 101.734C160.214 101.269 162.09 98.3029 162.443 97.7756C162.807 97.2359 163.711 96.1412 164.243 95.5881C165.05 94.7651 166.868 92.9359 167.88 91.9297C169.071 90.768 171.455 88.4831 172.622 87.4179C173.763 86.4099 176.297 84.2948 177.482 83.3923C178.221 82.8481 179.662 81.8463 180.363 81.3888C181.334 80.7838 185.956 78.154 186.796 77.7295C187.39 77.4445 190.352 76.3042 191.77 75.7591C193.426 75.1345 196.475 74.0157 197.673 73.6172C198.146 73.4679 198.767 73.2991 199.235 73.2151C199.701 73.132 200.21 73.1221 200.597 73.1632C201.037 73.2124 202.154 73.2517 202.501 73.3089C203.044 73.4 203.631 73.6056 204.727 74.0184C205.524 74.3079 206.291 74.6266 206.938 74.9323Z" fill="#B0B7CB"/>
</g>
<path d="M296.301 31.4335C296.265 31.3855 295.968 30.5813 295.76 30.2294C295.461 29.7233 294.124 27.7485 293.236 26.7741C290.442 23.8438 281.891 14.3606 281.516 14.0247C280.753 13.3514 279.41 12.6316 278.737 12.4164C277.7 12.0921 275.562 11.8085 274.736 11.7983C273.982 11.7911 272.154 11.9597 271.123 12.1269C270.426 12.2404 265.007 13.6045 262.95 14.1251C260.204 14.7577 257.554 15.511 254.611 16.4461C253.888 16.6759 252.574 17.1063 251.329 17.6545C249.201 18.6187 245.369 20.7084 243.528 21.7278C241.449 22.9014 238.61 24.7134 236.984 25.8303C236.187 26.4018 234.9 27.3646 233.919 28.1848C233.155 28.8421 231.573 30.3385 230.891 31.0075C230.395 31.5077 228.746 33.4681 228.032 34.3334C226.483 36.3024 219.363 46.5679 218.357 48.2912C217.724 49.4095 217.009 50.9073 216.735 51.7523C216.603 52.1711 216.412 53.0655 216.376 53.3927C216.309 54.0485 216.392 54.9968 216.516 55.4694C216.646 55.9391 217.109 56.6632 217.478 57.0311C218.077 57.6158 219.849 58.4288 220.701 58.6615C221.587 58.9 223.292 59.182 224.268 59.2053C225.229 59.2242 227.376 59.0454 228.304 58.868C229.183 58.6964 230.975 58.1103 231.919 57.7016C232.886 57.2813 234.627 56.3347 235.62 55.6759C237.145 54.6172 240.642 51.713 242.318 50.2966C243.889 48.8947 251.449 41.5246 251.86 41.1567C252.914 40.2187 253.919 39.5352 255.05 38.856C255.99 38.2961 257.524 37.7318 259.291 37.1806C259.803 37.0163 261.187 36.6063 261.346 36.5612C261.981 36.3968 262.63 36.3401 262.926 36.5132C263.29 36.7342 264.794 38.7106 265.428 39.3752C266.056 40.0325 268.367 42.1601 269.258 42.957C271.312 44.6992 274.758 47.5887 274.792 47.6193C275.128 47.9043 275.465 47.9988 276.124 48.0992C276.604 48.1661 277.497 48.1618 277.971 48.1124C278.926 48.0077 280.787 47.4055 281.656 47.0725C282.182 46.8646 284.078 45.9876 285.127 45.4335C287.382 44.1843 290.175 42.4174 292.244 40.985C293.332 40.2055 294.908 38.8997 295.301 38.4677C295.819 37.8919 296.653 36.2572 296.838 35.5185C296.995 34.8757 296.943 33.0928 296.776 32.3235C296.646 31.7549 296.496 31.5018 296.392 31.4422C296.365 31.4276 296.32 31.4582 296.301 31.4335Z" fill="#C1C8DB"/>
<path d="M113.684 31.4335C113.721 31.3855 114.017 30.5813 114.225 30.2294C114.525 29.7233 115.861 27.7485 116.75 26.7741C119.543 23.8438 128.094 14.3606 128.47 14.0247C129.233 13.3514 130.575 12.6316 131.249 12.4164C132.285 12.0921 134.423 11.8085 135.249 11.7983C136.004 11.7911 137.832 11.9597 138.863 12.1269C139.56 12.2404 144.978 13.6045 147.036 14.1251C149.782 14.7577 152.431 15.511 155.375 16.4461C156.097 16.6759 157.412 17.1063 158.657 17.6545C160.784 18.6187 164.616 20.7084 166.457 21.7278C168.537 22.9014 171.376 24.7134 173.002 25.8303C173.798 26.4018 175.085 27.3646 176.067 28.1848C176.831 28.8421 178.413 30.3385 179.095 31.0075C179.591 31.5077 181.24 33.4681 181.954 34.3334C183.503 36.3024 190.623 46.5679 191.629 48.2912C192.262 49.4095 192.977 50.9073 193.25 51.7523C193.383 52.1711 193.573 53.0655 193.61 53.3927C193.677 54.0485 193.594 54.9968 193.47 55.4694C193.339 55.9391 192.877 56.6632 192.507 57.0311C191.908 57.6158 190.137 58.4288 189.285 58.6615C188.399 58.9 186.693 59.182 185.717 59.2053C184.756 59.2242 182.61 59.0454 181.682 58.868C180.802 58.6964 179.01 58.1103 178.067 57.7016C177.1 57.2813 175.359 56.3347 174.366 55.6759C172.84 54.6172 169.344 51.713 167.667 50.2966C166.097 48.8947 158.536 41.5246 158.126 41.1567C157.072 40.2187 156.067 39.5352 154.935 38.856C153.996 38.2961 152.462 37.7318 150.695 37.1806C150.183 37.0163 148.798 36.6063 148.64 36.5612C148.004 36.3968 147.356 36.3401 147.059 36.5132C146.696 36.7342 145.192 38.7106 144.558 39.3752C143.93 40.0325 141.619 42.1601 140.727 42.957C138.674 44.6992 135.227 47.5887 135.194 47.6193C134.858 47.9043 134.521 47.9988 133.862 48.0992C133.382 48.1661 132.489 48.1618 132.015 48.1124C131.06 48.0077 129.198 47.4055 128.33 47.0725C127.803 46.8646 125.907 45.9876 124.859 45.4335C122.603 44.1843 119.811 42.4174 117.742 40.985C116.654 40.2055 115.077 38.8997 114.685 38.4677C114.167 37.8919 113.332 36.2572 113.148 35.5185C112.991 34.8757 113.043 33.0928 113.21 32.3235C113.34 31.7549 113.489 31.5018 113.594 31.4422C113.62 31.4276 113.665 31.4582 113.684 31.4335Z" fill="#C1C8DB"/>
<g clip-path="url(#clip0_4477_536)">
<path d="M315.428 23.9602C315.9 24.1842 317.58 25.1018 318.399 25.7867C319.194 26.4629 320.711 28.4785 321.275 29.2347C322.719 31.259 325.923 35.648 327.011 36.9947C328.962 39.3244 332.275 42.5193 333.077 43.5155C333.471 44.0099 333.84 44.6716 334.073 45.2445C334.313 45.8437 335.217 48.4396 335.597 49.5448C336.042 50.8391 337 52.8867 337.551 53.6036C337.878 54.0239 338.31 54.3991 338.941 54.8805C340.515 56.0817 346.537 61.0682 347.367 61.7633C347.853 62.1763 348.414 62.937 348.64 63.4998C348.977 64.3665 349.158 66.4141 349.117 67.4262C349.078 68.309 348.765 70.8641 348.826 72.026C348.896 73.2563 349.438 75.6471 349.864 76.8439C350.234 77.8706 351.236 79.9939 351.87 81.0889C352.248 81.739 356.257 88.0067 356.548 88.5215C357.011 89.3432 357.573 90.5677 357.688 90.9981C357.773 91.3282 357.835 92.2575 357.813 92.7432C357.777 93.466 357.477 95.0657 357.154 96.408C356.246 99.8153 355.2 103.17 354.582 105.145C353.878 107.408 352.594 112.044 351.982 114.374C351.407 116.715 350.21 122.135 349.822 123.713C349.555 124.721 348.893 126.912 348.669 127.509C348.27 128.567 347.439 130.2 346.976 130.834C344.271 134.624 338.511 142.748 335.456 147.081C334.144 148.896 331.032 153.124 330.172 154.062C329.56 154.725 328.789 155.116 327.51 155.945C323.711 158.529 315.586 164.138 311.257 167.163C310.509 167.688 308.622 169.014 308.414 169.17C308.303 169.251 307.799 169.632 307.72 169.661C307.709 169.664 307.7 169.666 307.695 169.664C307.044 170.179 305.472 171.15 304.676 171.335C303.945 171.499 302.281 171.569 301.541 171.459C300.712 171.331 299.035 170.711 298.215 170.252C297.785 170.008 297.068 169.483 296.739 169.157C296.093 168.504 294.85 166.513 294.434 165.485C294.026 164.46 293.551 162.189 293.537 161.219C293.527 160.395 293.791 158.791 294.095 157.642C294.335 156.825 295.601 154.223 295.832 153.804C296.185 153.169 297.245 151.789 297.844 151.121C298.474 150.425 302.888 146.39 304.671 144.781C305.361 144.171 312.748 137.999 314.343 136.662C315.182 135.94 316.675 134.653 317.33 133.887C318.835 132.12 320.695 129.284 322.093 127.375C322.792 126.444 324.207 124.562 324.924 123.61C325.705 122.542 326.306 121.427 326.659 120.39C326.908 119.65 327.124 118.174 327.345 117.137C328.238 113.232 329.841 107.559 330.216 106.298C330.225 106.272 330.233 106.244 330.241 106.218C330.248 106.197 330.255 106.175 330.261 106.153C327.149 108.579 319.555 114.464 315.498 117.457C314.578 118.104 312.547 119.509 311.255 120.359C308.468 122.129 305.085 123.855 303.357 124.728C301.66 125.633 298.692 127.253 296.502 128.585C294.737 129.667 290.592 132.12 288.508 133.353C287.263 134.047 285.302 134.999 284.311 135.392C283.075 135.865 280.852 136.417 279.711 136.507C278.77 136.577 276.454 136.397 275.446 136.228C274.998 136.151 273.932 135.923 273.382 135.753C272.231 135.393 269.958 134.361 269.12 133.795C268.65 133.474 267.826 132.761 267.435 132.34C267.064 131.934 266.449 130.978 266.204 130.498C265.701 129.494 265.048 127.139 264.913 126.025C264.855 125.534 264.811 124.399 264.882 123.807C264.962 123.185 265.243 122.023 265.445 121.472C265.803 120.516 266.953 118.402 267.494 117.81C268.21 117.038 269.718 116.097 270.918 115.306C272.932 113.949 280.894 108.261 285.182 105.232C289.215 102.395 297.529 96.5475 301.809 93.5372C305.706 90.7873 311.732 86.5118 313.861 84.9863C314.557 84.4744 315.694 83.4419 316.172 82.8879C316.738 82.2305 317.721 80.5625 318.044 79.4471C318.051 79.4224 318.735 76.3539 319.066 75.1454C319.472 73.5443 320.028 72.0115 320.401 71.0124C320.842 69.7429 321.205 67.7985 321.303 66.7835C321.357 66.2076 321.37 65.1896 321.332 64.6893C321.291 64.2036 321.096 63.3078 320.958 62.902C320.787 62.4134 320.406 61.6951 320.016 61.3344C319.572 60.936 318.367 60.2321 317.808 59.9834C316.777 59.537 315.019 58.9159 313.262 58.3808C311.952 58.0056 309.621 57.3293 308.6 57.0312C306.734 56.4742 305.68 56.0075 305.158 55.7922C303.843 55.2454 302.431 54.578 301.724 54.1606C301.118 53.7971 300.642 53.541 300.618 53.5701C300.61 53.5934 298.067 55.1654 297.25 55.7587C296.701 56.1601 292.19 59.9747 291.213 60.76C289.533 62.0761 285.915 64.922 283.978 66.4504C281.119 68.7947 274.62 74.5841 274.345 74.8953C273.957 75.3592 269.312 80.2323 268.378 81.0671C267.442 81.9018 265.374 83.4491 264.436 84.0061C263.396 84.6198 261.273 85.6115 260.156 86.0071C258.907 86.4448 256.792 86.9 255.751 86.9393C255.232 86.9553 254.265 86.8929 253.74 86.8085C253.237 86.7242 252.261 86.3649 251.813 86.1322C251.352 85.8879 250.477 85.2714 250.062 84.8991C249.651 84.5239 248.862 83.6309 248.521 83.151C248.18 82.6682 247.623 81.6473 247.408 81.1151C247.197 80.5814 246.901 79.4602 246.818 78.8843C246.701 78.0524 246.802 76.1997 246.963 75.3083C247.127 74.4168 247.689 72.5278 248.077 71.568C248.481 70.5733 249.651 68.4209 250.432 67.2342C252.063 64.7606 255.392 60.856 256.822 59.268C258.362 57.6188 261.831 54.1082 263.649 52.3079C267.368 48.7813 274.162 42.3681 277.236 39.4799C279.441 37.4818 283.248 34.0759 284.252 33.2761C286.132 31.8393 289.035 30.0186 291.002 28.8595C293.127 27.6641 297.937 25.1745 299.355 24.5623C300.498 24.0853 303.235 23.0368 303.789 22.8579C304.847 22.5234 307.016 22.1395 307.933 22.125C308.53 22.1191 309.816 22.2368 310.432 22.3532C311.417 22.5437 315.37 23.9341 315.428 23.9602Z" fill="#CFD4E3"/>
</g>
<g clip-path="url(#clip1_4477_536)">
<path d="M94.5579 23.9602C94.0852 24.1842 92.4056 25.1018 91.5868 25.7867C90.7914 26.4629 89.2746 28.4785 88.7103 29.2347C87.2663 31.259 84.0626 35.648 82.9748 36.9947C81.0232 39.3244 77.7104 42.5193 76.9091 43.5155C76.515 44.0099 76.1456 44.6716 75.913 45.2445C75.673 45.8437 74.7685 48.4396 74.3889 49.5448C73.9439 50.8391 72.9856 52.8867 72.4344 53.6036C72.1072 54.0239 71.6753 54.3991 71.0441 54.8805C69.4706 56.0817 63.4486 61.0682 62.6182 61.7633C62.1325 62.1763 61.5712 62.937 61.3458 63.4998C61.0084 64.3665 60.828 66.4141 60.8688 67.4262C60.908 68.309 61.2207 70.8641 61.1596 72.026C61.0898 73.2563 60.5474 75.6471 60.1213 76.8439C59.7519 77.8706 58.7499 79.9939 58.1158 81.0889C57.7377 81.739 53.7284 88.0067 53.4375 88.5215C52.9751 89.3432 52.4123 90.5677 52.2974 90.9981C52.213 91.3282 52.1505 92.2575 52.1723 92.7432C52.2087 93.466 52.5083 95.0657 52.8311 96.408C53.74 99.8153 54.7856 103.17 55.4037 105.145C56.1075 107.408 57.3916 112.044 58.0039 114.374C58.5783 116.715 59.7752 122.135 60.1634 123.713C60.431 124.721 61.0927 126.912 61.3166 127.509C61.7151 128.567 62.547 130.2 63.0094 130.834C65.7143 134.624 71.4746 142.748 74.53 147.081C75.8417 148.896 78.9538 153.124 79.8133 154.062C80.4255 154.725 81.1962 155.116 82.476 155.945C86.2745 158.529 94.3993 164.138 98.7286 167.163C99.4761 167.688 101.364 169.014 101.572 169.17C101.682 169.251 102.187 169.632 102.265 169.661C102.277 169.664 102.286 169.666 102.29 169.664C102.942 170.179 104.514 171.15 105.309 171.335C106.041 171.499 107.704 171.569 108.444 171.459C109.273 171.331 110.95 170.711 111.77 170.252C112.201 170.008 112.918 169.483 113.246 169.157C113.892 168.504 115.136 166.513 115.551 165.485C115.96 164.46 116.434 162.189 116.449 161.219C116.459 160.395 116.194 158.791 115.89 157.642C115.65 156.825 114.385 154.223 114.154 153.804C113.8 153.169 112.74 151.789 112.141 151.121C111.511 150.425 107.098 146.39 105.315 144.781C104.624 144.171 97.238 137.999 95.6427 136.662C94.8036 135.94 93.3101 134.653 92.6557 133.887C91.1506 132.12 89.2906 129.284 87.893 127.375C87.1935 126.444 85.7786 124.562 85.0616 123.61C84.2807 122.542 83.6801 121.427 83.3267 120.39C83.078 119.65 82.8614 118.174 82.6403 117.137C81.7474 113.232 80.1448 107.559 79.7696 106.298C79.7609 106.272 79.7521 106.244 79.7449 106.218C79.7376 106.197 79.7304 106.175 79.7245 106.153C82.8366 108.579 90.4307 114.464 94.4881 117.457C95.4072 118.104 97.4387 119.509 98.7301 120.359C101.518 122.129 104.9 123.855 106.628 124.728C108.325 125.633 111.293 127.253 113.483 128.585C115.249 129.667 119.394 132.12 121.477 133.353C122.722 134.047 124.684 134.999 125.674 135.392C126.911 135.865 129.134 136.417 130.274 136.507C131.215 136.577 133.532 136.397 134.54 136.228C134.987 136.151 136.053 135.923 136.603 135.753C137.755 135.393 140.028 134.361 140.865 133.795C141.335 133.474 142.16 132.761 142.551 132.34C142.922 131.934 143.537 130.978 143.781 130.498C144.284 129.494 144.937 127.139 145.073 126.025C145.131 125.534 145.174 124.399 145.103 123.807C145.023 123.185 144.743 122.023 144.54 121.472C144.183 120.516 143.032 118.402 142.491 117.81C141.776 117.038 140.268 116.097 139.068 115.306C137.054 113.949 129.092 108.261 124.803 105.232C120.771 102.395 112.457 96.5475 108.177 93.5372C104.28 90.7873 98.2531 86.5118 96.1241 84.9863C95.429 84.4744 94.2917 83.4419 93.8133 82.8879C93.2476 82.2305 92.2645 80.5625 91.9417 79.4471C91.9344 79.4224 91.2509 76.3539 90.9193 75.1454C90.5136 73.5443 89.9581 72.0115 89.5843 71.0124C89.1437 69.7429 88.7802 67.7985 88.6827 66.7835C88.6289 66.2076 88.6158 65.1896 88.6536 64.6893C88.6943 64.2036 88.8892 63.3078 89.0274 62.902C89.199 62.4134 89.58 61.6951 89.9697 61.3344C90.4133 60.936 91.6188 60.2321 92.1772 59.9834C93.2083 59.537 94.9665 58.9159 96.7232 58.3808C98.0335 58.0056 100.365 57.3293 101.386 57.0312C103.251 56.4742 104.306 56.0075 104.828 55.7922C106.142 55.2454 107.554 54.578 108.261 54.1606C108.868 53.7971 109.343 53.541 109.368 53.5701C109.375 53.5934 111.919 55.1654 112.736 55.7587C113.284 56.1601 117.795 59.9747 118.773 60.76C120.452 62.0761 124.07 64.922 126.007 66.4504C128.867 68.7947 135.366 74.5841 135.64 74.8953C136.029 75.3592 140.674 80.2323 141.607 81.0671C142.544 81.9018 144.612 83.4491 145.55 84.0061C146.589 84.6198 148.713 85.6115 149.83 86.0071C151.079 86.4448 153.193 86.9 154.234 86.9393C154.754 86.9553 155.721 86.8929 156.246 86.8085C156.749 86.7242 157.725 86.3649 158.173 86.1322C158.634 85.8879 159.509 85.2714 159.923 84.8991C160.335 84.5239 161.123 83.6309 161.465 83.151C161.805 82.6682 162.362 81.6473 162.577 81.1151C162.788 80.5814 163.085 79.4602 163.168 78.8843C163.284 78.0524 163.184 76.1997 163.022 75.3083C162.858 74.4168 162.297 72.5278 161.908 71.568C161.504 70.5733 160.335 68.4209 159.554 67.2342C157.922 64.7606 154.594 60.856 153.164 59.268C151.624 57.6188 148.154 54.1082 146.336 52.3079C142.618 48.7813 135.824 42.3681 132.749 39.4799C130.545 37.4818 126.737 34.0759 125.734 33.2761C123.854 31.8393 120.951 30.0186 118.983 28.8595C116.859 27.6641 112.048 25.1745 110.63 24.5623C109.487 24.0853 106.75 23.0368 106.196 22.8579C105.139 22.5234 102.969 22.1395 102.053 22.125C101.455 22.1191 100.17 22.2368 99.5532 22.3532C98.5687 22.5437 94.616 23.9341 94.5579 23.9602Z" fill="#CFD4E3"/>
</g>
<defs>
<radialGradient id="paint0_radial_4477_536" cx="0" cy="0" r="1" gradientUnits="userSpaceOnUse" gradientTransform="translate(203.136 101.815) rotate(90) scale(63.8968)">
<stop stop-color="#134E78"/>
<stop offset="1" stop-color="#C52135" stop-opacity="0"/>
</radialGradient>
<clipPath id="clip0_4477_536">
<rect width="211.448" height="180.909" fill="white" transform="matrix(-1 0 0 1 404.61 0.0944824)"/>
</clipPath>
<clipPath id="clip1_4477_536">
<rect width="211.448" height="180.909" fill="white" transform="translate(5.37598 0.0944824)"/>
</clipPath>
</defs>
</svg>
